<svg width="52" height="40" viewBox="0 0 52 40" fill="none" xmlns="http://www.w3.org/2000/svg">
<g clip-path="url(#clip0_4984_6470)">
<mask id="mask0_4984_6470" style="mask-type:alpha" maskUnits="userSpaceOnUse" x="2" y="2" width="48" height="36">
<path d="M2.56934 11.1356C3.16681 6.41247 7.0415 3.00193 11.7861 2.60887C15.6412 2.28949 20.6196 2 26 2C31.3804 2 36.3588 2.28949 40.2139 2.60887C44.9585 3.00193 48.8332 6.41247 49.4307 11.1356C49.752 13.6759 50 16.704 50 20C50 23.296 49.752 26.3241 49.4307 28.8644C48.8332 33.5875 44.9585 36.9981 40.2139 37.3911C36.3588 37.7105 31.3804 38 26 38C20.6196 38 15.6412 37.7105 11.7861 37.3911C7.04151 36.9981 3.16681 33.5875 2.56934 28.8644C2.248 26.3241 2 23.296 2 20C2 16.704 2.248 13.6759 2.56934 11.1356Z" fill="#00D0BF"/>
</mask>
<g mask="url(#mask0_4984_6470)">
<path d="M74 2H2V38H74V2Z" fill="#00993E"/>
<path d="M74 7.14288H2V12.2857H74V7.14288Z" fill="white"/>
<path d="M74 17.4285H2V22.5714H74V17.4285Z" fill="white"/>
<path d="M74 27.7144H2V32.8572H74V27.7144Z" fill="white"/>
<path d="M29.36 2H2V17.4285H29.36V2Z" fill="#C8312A"/>
<path d="M13.5622 10.6186C13.5622 10.6186 13.3264 10.7173 13.488 12.5996C13.6198 14.149 14.1718 14.6537 14.1718 14.6537L14.4129 15.6127L16.6996 15.6221C16.6996 15.6221 16.741 15.0282 16.8296 14.8404C17.0472 14.379 17.9095 13.8516 18.2791 13.0553C18.6765 12.5699 18.4774 11.5793 19.2752 10.6231C19.6713 10.1483 18.8111 10.3493 18.8111 10.3493C18.3394 10.6621 18.1089 11.0293 17.99 11.2859C17.9099 11.7802 17.54 12.1934 17.5051 11.8345C17.5051 11.8345 17.3707 11.2139 16.9673 10.0074C16.9274 9.64979 16.7545 8.41307 16.7175 7.46915C16.6912 6.85499 16.1536 6.81803 16.1087 7.44143L16.0438 9.91283L15.9153 7.05851C15.8607 6.25067 15.2496 6.37043 15.223 7.03991L15.1967 10.012L15.0854 7.13099C14.9198 6.58067 14.4847 6.90683 14.4766 7.50299L14.4025 10.3062C14.4025 10.3062 14.3088 8.77103 14.2876 8.12279C14.2677 7.73291 13.8111 7.76171 13.768 8.31911C13.7059 9.12527 13.6081 9.78323 13.5622 10.6186Z" fill="white"/>
<path d="M14.9847 5.35639L15.6799 3.21655L16.3752 5.35639L14.5549 4.03399H16.8048L14.9847 5.35639Z" fill="white"/>
<path d="M20.3916 6.21009L18.5713 4.88757H20.8212L19.0009 6.21009L19.6962 4.07025L20.3916 6.21009Z" fill="white"/>
<path d="M23.8275 8.75269L22.0072 7.43017H24.2571L22.4368 8.75269L23.1321 6.61285L23.8275 8.75269Z" fill="white"/>
<path d="M25.8181 12.3438L23.9978 11.0212H26.2477L24.4275 12.3438L25.1228 10.2039L25.8181 12.3438Z" fill="white"/>
<path d="M10.9685 6.21009L12.7888 4.88757H10.5388L12.3591 6.21009L11.6638 4.07025L10.9685 6.21009Z" fill="white"/>
<path d="M7.53251 8.75269L9.35279 7.43017H7.10291L8.92319 8.75269L8.22779 6.61285L7.53251 8.75269Z" fill="white"/>
<path d="M5.5419 12.3438L7.36218 11.0212H5.11218L6.93246 12.3438L6.23718 10.2039L5.5419 12.3438Z" fill="white"/>
</g>
<path d="M26 1C20.5852 1 15.5784 1.29127 11.7035 1.61228C6.53056 2.04084 2.23921 5.77712 1.57724 11.0101C1.25164 13.5841 1 16.6548 1 20C1 23.3452 1.25164 26.4159 1.57724 28.9899C2.23922 34.2229 6.53056 37.9592 11.7035 38.3877C15.5784 38.7087 20.5852 39 26 39C31.4148 39 36.4216 38.7087 40.2965 38.3877C45.4694 37.9592 49.7608 34.2229 50.4228 28.9899C50.7484 26.4159 51 23.3452 51 20C51 16.6548 50.7484 13.5841 50.4228 11.0101C49.7608 5.77712 45.4694 2.04084 40.2965 1.61228C36.4216 1.29127 31.4148 1 26 1Z" stroke="#E6E6FA" stroke-width="2"/>
</g>
<defs>
<clipPath id="clip0_4984_6470">
<rect width="52" height="40" fill="white"/>
</clipPath>
</defs>
</svg>
