<svg width="52" height="40" viewBox="0 0 52 40" fill="none" xmlns="http://www.w3.org/2000/svg">
<mask id="mask0_1_40561" style="mask-type:alpha" maskUnits="userSpaceOnUse" x="2" y="2" width="48" height="36">
<path d="M2.56934 11.1356C3.16681 6.41247 7.0415 3.00193 11.7861 2.60887C15.6412 2.28949 20.6196 2 26 2C31.3804 2 36.3588 2.28949 40.2139 2.60887C44.9585 3.00193 48.8332 6.41247 49.4307 11.1356C49.752 13.6759 50 16.704 50 20C50 23.296 49.752 26.3241 49.4307 28.8644C48.8332 33.5875 44.9585 36.9981 40.2139 37.3911C36.3588 37.7105 31.3804 38 26 38C20.6196 38 15.6412 37.7105 11.7861 37.3911C7.0415 36.9981 3.16681 33.5875 2.56934 28.8644C2.248 26.3241 2 23.296 2 20C2 16.704 2.248 13.6759 2.56934 11.1356Z" fill="#00D0BF"/>
</mask>
<g mask="url(#mask0_1_40561)">
<rect x="2" y="2" width="48" height="36" fill="#EE5757"/>
<rect x="2" y="20" width="48" height="18" fill="#2C2929"/>
<path fill-rule="evenodd" clip-rule="evenodd" d="M21.7692 14.7264H23.8044L24.4216 12.8082L25.0554 14.7264H27.0904L25.4556 15.9442L26.0893 17.8957L24.4216 16.7113L22.7703 17.8957L23.404 15.9442L21.7692 14.7264Z" fill="#FCD95E"/>
<path fill-rule="evenodd" clip-rule="evenodd" d="M29.2087 25.2188L27.6076 23.9674C29.2253 22.6498 30.2765 20.6314 30.2765 18.3796C30.2765 14.9435 27.8246 12.0576 24.5884 11.3737L24.8385 10.206C25.289 10.3061 25.8174 10.4957 26.2511 10.6456L26.6682 9.94537C27.1181 10.162 27.619 10.3788 28.0357 10.6456L27.7189 11.3965C28.1361 11.6635 28.6395 12.0769 28.9195 12.4024L29.5459 11.9132C29.8796 12.28 30.28 12.6634 30.5636 13.0641L29.9964 13.6479C30.3627 14.1856 30.5043 14.433 30.7742 15.0524L31.57 14.8658C31.7203 15.3328 31.9485 15.9045 32.0321 16.3881L31.2786 16.6842C31.3686 17.06 31.4851 17.7164 31.4776 18.2686C31.477 18.3018 31.4745 18.3394 31.4745 18.3729L32.2614 18.4851C32.2281 18.969 32.2116 19.5196 32.1112 20.0032H31.294C31.1773 20.5034 31.0268 21.1152 30.8435 21.582L31.5271 21.9826C31.3104 22.4162 31.0939 22.9334 30.8102 23.3504L30.0596 23.0337C29.7758 23.4505 29.4592 23.8507 29.1088 24.2179L29.5924 24.8516C29.4592 24.9682 29.3423 25.0852 29.2087 25.2187V25.2188ZM25.6894 25.0686L26.8987 25.7973C26.7859 25.9004 26.4481 26.0753 26.3586 26.1107L26.5563 26.8698C26.0894 27.0202 25.5888 27.2368 25.072 27.337L24.7718 26.5865C24.2881 26.6864 23.8045 26.7531 23.304 26.7531L23.2037 27.537C22.7368 27.5038 22.1696 27.537 21.6525 27.4203V26.6366C21.1853 26.5529 20.735 26.4363 20.3015 26.286L19.9177 26.9704C19.5174 26.8032 18.9837 26.603 18.5498 26.3363L18.8335 25.5857C18.483 25.402 18.1662 25.1686 17.866 24.9348L18.6166 23.984C19.8511 24.9683 21.4022 25.5518 23.1037 25.5518C24.0046 25.5518 24.8884 25.402 25.6894 25.0686" fill="#FCD95E"/>
<path fill-rule="evenodd" clip-rule="evenodd" d="M30.7301 27.002L22.747 20.9267L22.6743 21.0304L30.6368 27.1163L30.1642 27.7076L22.402 22.7288C20.3003 21.4111 20.3838 20.377 20.8175 19.2594L21.1845 18.3586C21.3847 19.5263 22.5855 20.4106 23.8365 21.3945L30.8856 26.8096L30.7301 27.002ZM32.7342 28.8126C32.7179 28.8126 32.7018 28.8094 32.6867 28.8032C32.6717 28.7969 32.658 28.7878 32.6465 28.7762C32.635 28.7647 32.6259 28.7509 32.6197 28.7359C32.6135 28.7208 32.6103 28.7046 32.6104 28.6883C32.6104 28.6721 32.6136 28.6559 32.6198 28.6409C32.626 28.6259 32.6351 28.6122 32.6466 28.6007C32.6581 28.5892 32.6718 28.58 32.6868 28.5738C32.7019 28.5676 32.718 28.5644 32.7342 28.5644C32.8029 28.5644 32.8587 28.6199 32.8587 28.6883C32.8587 28.7047 32.8555 28.7208 32.8492 28.7359C32.843 28.751 32.8338 28.7648 32.8222 28.7763C32.8107 28.7879 32.797 28.797 32.7819 28.8033C32.7668 28.8095 32.7506 28.8127 32.7342 28.8127V28.8126ZM32.2571 28.4623C32.2242 28.4623 32.1927 28.4492 32.1694 28.4259C32.1461 28.4027 32.133 28.3711 32.1329 28.3382C32.1329 28.3136 32.1402 28.2896 32.1538 28.2692C32.1674 28.2488 32.1868 28.2328 32.2095 28.2234C32.2322 28.214 32.2572 28.2115 32.2813 28.2163C32.3053 28.2211 32.3275 28.2329 32.3449 28.2503C32.3622 28.2676 32.3741 28.2898 32.3789 28.3139C32.3837 28.3379 32.3812 28.3629 32.3718 28.3856C32.3625 28.4083 32.3465 28.4277 32.3261 28.4414C32.3057 28.455 32.2817 28.4623 32.2571 28.4623ZM31.7689 28.0732C31.7005 28.0732 31.6447 28.0177 31.6447 27.9493C31.6457 27.917 31.6592 27.8864 31.6824 27.8639C31.7055 27.8414 31.7366 27.8288 31.7689 27.8288C31.8012 27.8288 31.8322 27.8414 31.8554 27.8639C31.8785 27.8864 31.892 27.917 31.893 27.9493C31.893 28.0177 31.8375 28.0732 31.7689 28.0732ZM33.4104 28.7619L31.0185 26.9088L30.3234 27.8045L32.4013 29.2616C32.5682 29.3783 32.5846 29.9125 33.2015 29.996C33.4521 30.0291 33.6185 29.8455 33.6185 29.8455C33.8873 29.5182 33.814 29.0677 33.4104 28.7619" fill="#FCD95E"/>
</g>
<path d="M11.7035 1.61228C6.53056 2.04084 2.23921 5.77712 1.57724 11.0101C1.25164 13.5841 1 16.6548 1 20C1 23.3452 1.25164 26.4159 1.57724 28.9899C2.23922 34.2229 6.53056 37.9592 11.7035 38.3877C15.5784 38.7087 20.5852 39 26 39C31.4148 39 36.4216 38.7087 40.2965 38.3877C45.4694 37.9592 49.7608 34.2229 50.4228 28.9899C50.7484 26.4159 51 23.3452 51 20C51 16.6548 50.7484 13.5841 50.4228 11.0101C49.7608 5.77712 45.4694 2.04084 40.2965 1.61228C36.4216 1.29127 31.4148 1 26 1C20.5852 1 15.5784 1.29127 11.7035 1.61228Z" stroke="#E6E6FA" stroke-width="2"/>
</svg>
