<svg width="52" height="40" viewBox="0 0 52 40" fill="none" xmlns="http://www.w3.org/2000/svg">
<mask id="mask0_1_34140" style="mask-type:alpha" maskUnits="userSpaceOnUse" x="2" y="2" width="48" height="36">
<path d="M2.56934 11.1356C3.16681 6.41247 7.0415 3.00193 11.7861 2.60887C15.6412 2.28949 20.6196 2 26 2C31.3804 2 36.3588 2.28949 40.2139 2.60887C44.9585 3.00193 48.8332 6.41247 49.4307 11.1356C49.752 13.6759 50 16.704 50 20C50 23.296 49.752 26.3241 49.4307 28.8644C48.8332 33.5875 44.9585 36.9981 40.2139 37.3911C36.3588 37.7105 31.3804 38 26 38C20.6196 38 15.6412 37.7105 11.7861 37.3911C7.0415 36.9981 3.16681 33.5875 2.56934 28.8644C2.248 26.3241 2 23.296 2 20C2 16.704 2.248 13.6759 2.56934 11.1356Z" fill="#00D0BF"/>
</mask>
<g mask="url(#mask0_1_34140)">
<rect x="2" y="2" width="48" height="36" fill="#2E50A6"/>
<path d="M32 12.3428C32 19.8023 32.5951 22.4511 34.6367 24.4963C36.6783 26.5415 37.4518 26.8636 38.0211 27.1769C38.6778 26.8155 39.4344 26.4184 41.2848 24.568C43.1149 22.7378 44 20.0996 44 12.2154C42.6688 12.7854 42.0059 12.9731 40.8417 12.9698C39.9795 13.0543 38.6494 12.5018 37.8541 12.1404C37.3343 12.4713 36.5802 12.866 35.2251 12.9103C33.6601 12.9759 33.1642 12.7231 32 12.3428L32 12.3428Z" fill="#CCCC33"/>
<path d="M32.3605 12.8139C32.3605 15.1217 32.224 18.2669 32.7116 20.0866C33.2013 21.9141 33.3137 22.1818 33.682 22.8196L42.2631 22.7559C42.7932 21.8378 42.8199 21.2691 43.213 19.802C43.6047 18.3402 43.7036 15.0817 43.7151 12.6547C42.8522 13.092 41.7222 13.4019 40.6254 13.2659C39.7461 13.202 38.9337 13.0106 37.9877 12.5009C37.167 12.9696 36.8809 13.1836 35.5258 13.2383C34.4707 13.2879 33.616 13.3694 32.3605 12.8139L32.3605 12.8139Z" fill="white"/>
<path d="M33.7005 22.769C34.3112 23.9943 37.1905 26.3428 38.0326 26.829C38.9933 26.2743 41.5335 23.9536 42.2415 22.769H33.7004H33.7005Z" fill="#99CCFF"/>
<path d="M38.1969 16.2306C38.4683 16.8391 39.3382 17.511 39.5773 17.8403C39.2729 18.1695 39.2121 18.1337 39.252 18.7454C39.7813 18.2174 39.7908 18.1624 40.1313 18.2424C40.877 18.9519 40.2647 20.4757 39.6484 20.807C39.0322 21.1604 39.144 20.7948 38.2205 21.2377C38.6439 21.5829 39.1346 21.1871 39.5355 21.2928C39.7534 21.5393 39.4319 21.9884 39.6013 22.4114C39.9556 22.3789 39.913 21.6969 39.9955 21.4496C40.2544 20.5436 41.8106 19.9117 41.8898 19.0807C42.2179 18.9338 42.5459 19.0348 42.9449 19.2483C42.7461 18.4698 42.0888 18.4782 41.9126 18.235C41.4932 17.624 41.1215 16.9269 40.2257 16.7461C39.5457 16.6088 39.5965 16.7874 39.1608 16.504C38.8894 16.3026 38.065 15.9217 38.1969 16.2306L38.1969 16.2306Z" fill="#FF9900"/>
<path d="M36.0225 18.8119C36.4601 18.2989 36.6768 17.2517 36.8705 16.8963C37.318 16.9991 37.3132 17.0671 37.8619 16.7477C37.1249 16.5482 37.0695 16.5659 36.9847 16.2415C37.2943 15.2814 38.9935 15.0857 39.5886 15.4505C40.2042 15.8048 39.8129 15.8814 40.6551 16.453C40.7774 15.9348 40.1811 15.7061 40.092 15.3187C40.2187 15.0199 40.7854 15.0811 41.0986 14.7407C40.9029 14.4572 40.2903 14.8117 40.0224 14.8577C39.0613 15.0627 37.7483 14.0461 36.9406 14.3676C36.6511 14.1596 36.5915 13.836 36.6032 13.3999C35.9739 13.9311 36.2888 14.4813 36.1456 14.7434C35.7748 15.3824 35.3021 16.0214 35.5528 16.861C35.7432 17.4983 35.8851 17.372 35.8258 17.8717C35.7658 18.1945 35.7976 19.0674 36.0225 18.8119V18.8119Z" fill="#FF9900"/>
<path d="M39.5774 19.1726C38.8906 19.081 37.8385 19.4458 37.4192 19.4717C37.28 19.0533 37.3436 19.0221 36.773 18.7396C36.9751 19.4441 37.0197 19.4802 36.7724 19.7172C35.7504 19.9612 34.6957 18.676 34.7153 18.0017C34.7149 17.3162 34.9861 17.5959 35.0635 16.613C34.5351 16.7813 34.6382 17.3861 34.3366 17.6593C34.0028 17.7104 33.7646 17.2164 33.2971 17.1369C33.1438 17.4432 33.7789 17.7597 33.9588 17.9544C34.64 18.6326 34.4066 20.2298 35.113 20.7225C35.0761 21.0663 34.8164 21.2823 34.4189 21.4984C35.2212 21.737 35.5522 21.1955 35.8616 21.1768C36.627 21.1487 37.4451 21.2039 38.0691 20.565C38.5427 20.08 38.356 20.0296 38.8352 19.8194C39.1561 19.7014 39.9231 19.2239 39.5774 19.1726L39.5774 19.1726Z" fill="#FF9900"/>
<path d="M40.0112 17.0577C40.0895 17.0577 40.153 16.9972 40.153 16.9226C40.153 16.848 40.0895 16.7875 40.0112 16.7875C39.933 16.7875 39.8695 16.848 39.8695 16.9226C39.8695 16.9972 39.933 17.0577 40.0112 17.0577Z" fill="white"/>
<path d="M35.942 16.8962C35.9054 16.8302 35.8197 16.805 35.7505 16.8398C35.6813 16.8747 35.6548 16.9564 35.6914 17.0224C35.7279 17.0884 35.8137 17.1136 35.8829 17.0788C35.9521 17.0439 35.9786 16.9622 35.942 16.8962Z" fill="white"/>
<path d="M37.8994 20.2292C37.859 20.2932 37.8807 20.3762 37.9478 20.4146C38.0149 20.4531 38.102 20.4324 38.1423 20.3684C38.1826 20.3044 38.1609 20.2214 38.0938 20.183C38.0267 20.1445 37.9397 20.1652 37.8994 20.2292Z" fill="white"/>
<mask id="mask1_1_34140" style="mask-type:alpha" maskUnits="userSpaceOnUse" x="2" y="2" width="24" height="18">
<rect x="2" y="2" width="24" height="18" fill="#C4C4C4"/>
</mask>
<g mask="url(#mask1_1_34140)">
<path d="M2 2L26 20L2 2ZM26 2L2 20L26 2Z" fill="black"/>
<path d="M26 2L2 20M2 2L26 20L2 2Z" stroke="white" stroke-width="2.4"/>
<path d="M2 2L26 20L2 2ZM26 2L2 20L26 2Z" fill="black"/>
<path d="M26 2L2 20M2 2L26 20L2 2Z" stroke="#EE5757" stroke-width="1.6"/>
<path d="M14 2V23V2ZM2 11H30H2Z" fill="black"/>
<path d="M2 11H30M14 2V23V2Z" stroke="white" stroke-width="4"/>
<path d="M14 2V23V2ZM2 11H30H2Z" fill="black"/>
<path d="M2 11H30M14 2V23V2Z" stroke="#EE5757" stroke-width="2.4"/>
</g>
</g>
<path d="M11.7035 1.61228C6.53056 2.04084 2.23921 5.77712 1.57724 11.0101C1.25164 13.5841 1 16.6548 1 20C1 23.3452 1.25164 26.4159 1.57724 28.9899C2.23922 34.2229 6.53056 37.9592 11.7035 38.3877C15.5784 38.7087 20.5852 39 26 39C31.4148 39 36.4216 38.7087 40.2965 38.3877C45.4694 37.9592 49.7608 34.2229 50.4228 28.9899C50.7484 26.4159 51 23.3452 51 20C51 16.6548 50.7484 13.5841 50.4228 11.0101C49.7608 5.77712 45.4694 2.04084 40.2965 1.61228C36.4216 1.29127 31.4148 1 26 1C20.5852 1 15.5784 1.29127 11.7035 1.61228Z" stroke="#E6E6FA" stroke-width="2"/>
</svg>
