<svg width="52" height="40" viewBox="0 0 52 40" fill="none" xmlns="http://www.w3.org/2000/svg">
<mask id="mask0_1_31997" style="mask-type:alpha" maskUnits="userSpaceOnUse" x="2" y="2" width="48" height="36">
<path d="M2.56934 11.1356C3.16681 6.41247 7.0415 3.00193 11.7861 2.60887C15.6412 2.28949 20.6196 2 26 2C31.3804 2 36.3588 2.28949 40.2139 2.60887C44.9585 3.00193 48.8332 6.41247 49.4307 11.1356C49.752 13.6759 50 16.704 50 20C50 23.296 49.752 26.3241 49.4307 28.8644C48.8332 33.5875 44.9585 36.9981 40.2139 37.3911C36.3588 37.7105 31.3804 38 26 38C20.6196 38 15.6412 37.7105 11.7861 37.3911C7.0415 36.9981 3.16681 33.5875 2.56934 28.8644C2.248 26.3241 2 23.296 2 20C2 16.704 2.248 13.6759 2.56934 11.1356Z" fill="#00D0BF"/>
</mask>
<g mask="url(#mask0_1_31997)">
<rect x="2" y="-4" width="48" height="49" fill="#EE5757"/>
<path fill-rule="evenodd" clip-rule="evenodd" d="M27.3095 29.3052C27.0057 29.0418 26.6374 28.5085 26.6426 27.9944C26.6698 27.611 26.9327 27.3883 27.1026 27.8562C27.3428 28.3728 27.8579 29.2269 28.5677 28.7259C28.8778 28.4982 28.8729 28.1631 28.4477 28.2016C27.9227 28.1656 27.6001 27.8767 27.3651 27.1329C27.3224 26.7238 27.4926 26.734 27.73 26.9972C28.0353 27.3474 28.6427 27.8767 29.3129 27.593C29.6854 27.4369 29.7905 27.1149 29.2278 27.0356C28.6952 27.0433 28.2603 26.698 27.8275 26.1713C27.5901 25.8798 27.9402 25.5856 28.1504 25.8337C28.3378 25.9947 28.6004 26.2914 28.8254 26.3323C29.0855 26.3834 29.408 26.358 29.7654 26.1688C30.1505 25.8464 30.0255 25.6138 29.5579 25.5602C29.1954 25.5782 28.998 25.716 28.5305 25.4042C27.6901 24.8361 27.0219 24.0771 26.9176 23.1642C26.849 22.5638 27.1718 22.3819 27.4403 22.451C28.1703 22.6388 28.6479 24.0031 29.1531 24.7526C29.3184 24.9686 29.4704 24.9721 29.5779 24.9056C29.7805 24.7318 29.9423 24.589 30.1449 24.3948C30.1449 24.3948 31.631 24.6618 32.4402 24.9256L31.5392 25.2458C31.198 25.0574 30.7862 25.2606 30.7862 25.5874C30.4634 25.8107 30.4894 26.0724 30.6286 26.325C30.6711 26.1491 30.7074 25.9207 30.9624 25.8903C31.3264 26.0409 31.7505 25.826 31.7505 25.5417L32.8135 25.1239L33.8873 25.7319C33.8873 26.1429 34.2767 26.2731 34.6819 26.1621C34.8728 26.2807 34.9955 26.4864 35.0602 26.7063C35.1797 26.3891 35.1548 26.1651 34.9676 26.0095C35.075 25.5994 34.5003 25.205 34.0554 25.4676L33.2828 25.0241L34.6051 24.987C34.7586 25.2587 35.3133 25.2737 35.4751 24.987C35.6135 24.9491 35.7303 24.925 36 25.1255C35.915 24.8011 35.7496 24.6625 35.5016 24.6625C35.3131 24.3285 34.6309 24.33 34.5324 24.706L33.1552 24.7443L33.9724 24.1625C34.2774 24.3426 34.7054 24.1424 34.7911 23.8153C34.9127 23.6707 35.0627 23.6028 35.3579 23.7009C35.2057 23.4314 34.9914 23.351 34.6042 23.5339C34.251 23.2663 33.7855 23.5909 33.8562 23.8603L32.769 24.6C31.9798 24.3646 30.5506 23.9979 30.5506 23.9979C30.7208 23.8189 30.8934 23.6526 31.0633 23.4711C31.1246 23.3648 31.0309 23.241 30.9006 23.2152C29.6254 22.9521 28.8953 22.438 28.4529 21.1314C28.2679 20.5842 28.6679 20.4207 28.8054 20.7554C28.9956 21.2209 29.2054 21.7297 29.778 22.1237C29.9755 22.2618 30.5633 22.149 30.2157 21.8192C29.8556 21.5225 29.7006 21.395 29.5231 20.6737C29.5231 20.3083 29.8956 20.1445 30.1033 20.4947C30.3256 21.2132 30.3483 21.5225 30.7508 21.9855C31.0557 22.3358 31.4533 22.5712 31.6507 22.5659C32.006 22.5609 32.3636 22.1771 31.8885 21.8985C31.1908 21.6198 30.9358 21.2389 30.8331 20.8756C30.7208 20.2417 30.8435 19.9348 31.2259 20.2467C31.7683 20.8629 32.8036 22.0109 33.3459 22.5454C33.9538 23.0109 34.6511 23.0261 35.2062 22.5532C35.5239 22.1875 35.4112 21.7939 34.9137 21.8781C33.7912 21.9728 32.9411 21.4154 32.0084 19.9091C31.8258 19.5691 31.7758 19.0807 32.1786 19.444C32.6434 20.0729 33.3211 20.6074 33.9514 20.8375C34.584 21.0649 35.1063 20.9393 35.3088 20.7403C35.553 20.4962 35.4888 19.8812 35.0663 20.0295C34.7187 20.1522 34.2287 20.1828 33.7188 19.9859C33.2085 19.7864 32.6785 19.3569 32.1159 18.6283C31.9233 18.2167 31.986 17.8689 32.376 18.081C33.2987 18.8636 34.4889 19.4975 35.0963 19.1166C35.5439 18.8379 35.5515 18.1219 34.984 18.168C33.8411 18.3238 33.4087 18.0708 32.3109 17.1018C32.0611 16.9151 32.0784 16.4419 32.4759 16.7438C33.3986 17.3397 34.6587 17.5722 35.1538 17.2604C35.599 16.9817 35.5339 16.13 34.7838 16.4316C34.1836 16.7974 33.521 16.7871 32.1934 15.8386C31.8585 15.5599 32.1083 15.1966 32.3833 15.3527C33.4511 15.9612 35.0064 16.222 35.4112 14.9845C35.5687 14.5116 35.2838 14.2354 34.8661 14.5627C33.9486 15.4115 32.9084 14.9947 32.3261 14.5676C32.1593 14.4693 31.8534 13.9718 32.3908 14.0641C33.7811 14.3812 35.1562 14.105 35.4064 13.1205C35.5515 12.8009 35.2661 12.2357 34.7587 12.7089C34.0912 13.3686 33.3835 13.3914 32.4935 13.3865C32.0408 13.2918 32.036 12.7932 32.416 12.7192C33.1185 12.7343 33.8111 12.4274 34.3662 12.1156C34.9089 11.8037 35.3589 11.3664 35.5015 10.7604C35.589 10.2184 35.0663 9.64306 34.7514 10.2184C34.2862 11.0595 33.2561 11.8523 32.1107 11.9954C32.0511 11.8956 31.9009 11.6399 31.7158 11.7117C31.3796 11.8422 30.9789 12.0166 30.5663 12.2126C29.677 12.6349 29.3064 12.8384 29.4132 13.568C29.5247 14.3293 28.9377 14.8104 28.4529 14.6776C28.0301 14.5637 27.7969 14.1818 27.8726 13.5194C27.9333 12.9915 28.4632 12.353 29.0604 12.0182C29.447 11.8019 30.0306 11.6835 30.7332 11.5275C31.1607 11.4432 31.3785 11.2769 31.4034 11.1028C31.4034 11.1028 31.1111 11.3167 30.6433 11.2846C30.4221 11.2688 30.2739 11.1715 30.2181 11.0722C30.3807 11.0391 30.6757 11.0775 30.9406 11.0775C31.2931 11.0747 32.1114 10.9958 32.3285 10.4996C32.396 10.1723 32.181 10.1135 31.9809 10.3231C31.7658 10.5497 31.6773 10.7533 31.2458 10.8294C30.9834 10.8756 30.7208 10.9292 30.3831 10.8474C30.5733 10.6215 30.8755 10.3904 31.1332 10.433C31.218 10.4471 31.3307 10.5254 31.4209 10.6659C31.476 10.3079 31.3782 9.90377 30.4206 10.0726C30.4359 9.80162 29.8655 9.68391 29.5231 9.6892C29.3281 9.69414 28.9305 9.80938 28.6431 9.94714C28.188 10.0881 27.738 10.1903 27.2077 10.2287C27.5154 10.4919 27.5729 10.5074 27.8802 10.7297C27.4154 10.9034 27.0553 11.2615 26.8928 11.4968C26.8928 11.4968 27.4354 11.4817 27.5729 11.543C27.0051 11.7089 26.7501 11.8087 26.45 12.1156C26.5551 12.1335 26.7125 12.1642 26.7801 12.1899C26.8504 12.2153 26.8321 12.2614 26.7753 12.3048C26.6529 12.3981 26.1475 12.9852 26 13.1257C25.8525 12.9852 25.3471 12.3981 25.2248 12.3048C25.168 12.2614 25.1497 12.2153 25.22 12.1899C25.2875 12.1642 25.445 12.1335 25.55 12.1156C25.25 11.8087 24.995 11.7089 24.4271 11.543C24.5646 11.4817 25.1073 11.4968 25.1073 11.4968C24.9447 11.2615 24.5846 10.9034 24.1198 10.7297C24.4271 10.5074 24.4847 10.4919 24.7924 10.2286C24.2621 10.1903 23.8121 10.0881 23.3569 9.94709C23.0696 9.80938 22.672 9.69414 22.4769 9.6892C22.1345 9.68391 21.5642 9.80162 21.5794 10.0725C20.6219 9.90377 20.524 10.3079 20.5792 10.6659C20.6694 10.5254 20.7821 10.4471 20.8668 10.433C21.1246 10.3904 21.4267 10.6215 21.617 10.8474C21.2793 10.9292 21.0167 10.8756 20.7542 10.8294C20.3228 10.7534 20.2342 10.5497 20.0192 10.3231C19.8191 10.1135 19.604 10.1723 19.6716 10.4996C19.8887 10.9958 20.7069 11.0747 21.0594 11.0775C21.3244 11.0775 21.6193 11.0391 21.782 11.0722C21.7262 11.1716 21.578 11.2688 21.3568 11.2846C20.8889 11.3167 20.5967 11.1028 20.5967 11.1028C20.6215 11.2769 20.8392 11.4432 21.2669 11.5275C21.9695 11.6835 22.5531 11.8019 22.9397 12.0183C23.5368 12.3531 24.0667 12.9915 24.1274 13.5194C24.2032 14.1818 23.9699 14.5637 23.5471 14.6776C23.0624 14.8104 22.4754 14.3293 22.5869 13.568C22.6937 12.8384 22.3231 12.6349 21.4338 12.2126C21.0212 12.0166 20.6205 11.8421 20.2842 11.7117C20.0992 11.6399 19.949 11.8957 19.8894 11.9954C18.744 11.8523 17.7138 11.0595 17.2487 10.2184C16.9337 9.64306 16.4111 10.2184 16.4985 10.7604C16.6412 11.3665 17.0912 11.8037 17.6339 12.1156C18.189 12.4274 18.8815 12.7343 19.5841 12.7192C19.9641 12.7932 19.9593 13.2918 19.5065 13.3865C18.6165 13.3914 17.9088 13.3686 17.2414 12.7089C16.7339 12.2357 16.4486 12.8009 16.5937 13.1205C16.8438 14.105 18.2189 14.3812 19.6092 14.0641C20.1467 13.9717 19.8408 14.4694 19.6739 14.5677C19.0917 14.9947 18.0515 15.4115 17.1339 14.5627C16.7163 14.2354 16.4313 14.5116 16.5888 14.9845C16.9937 16.222 18.549 15.9612 19.6168 15.3527C19.8918 15.1966 20.1416 15.5599 19.8067 15.8386C18.4791 16.7871 17.8165 16.7974 17.2163 16.4316C16.4662 16.13 16.401 16.9817 16.8462 17.2604C17.3413 17.5722 18.6014 17.3397 19.5241 16.7438C19.9218 16.4419 19.939 16.9151 19.6891 17.1018C18.5914 18.0708 18.159 18.3238 17.0161 18.168C16.4486 18.1219 16.4562 18.8378 16.9038 19.1166C17.5112 19.4975 18.7013 18.8636 19.624 18.081C20.0141 17.8689 20.0768 18.2167 19.8842 18.6283C19.3216 19.3569 18.7915 19.7864 18.2813 19.9859C17.7714 20.1828 17.2814 20.1522 16.9338 20.0296C16.5113 19.8812 16.4471 20.4962 16.6912 20.7403C16.8939 20.9393 17.4161 21.0649 18.0487 20.8375C18.6789 20.6074 19.3567 20.0729 19.8215 19.444C20.2243 19.0807 20.1743 19.5691 19.9917 19.9091C19.059 21.4154 18.209 21.9728 17.0864 21.8781C16.5888 21.7939 16.4762 22.1875 16.7938 22.5532C17.3489 23.0261 18.0463 23.0109 18.6541 22.5454C19.1964 22.0109 20.2318 20.8629 20.7741 20.2467C21.1566 19.9348 21.2793 20.2417 21.167 20.8756C21.0642 21.2389 20.8094 21.6198 20.1116 21.8985C19.6364 22.1772 19.994 22.5609 20.3493 22.5658C20.5468 22.5712 20.9444 22.3358 21.2493 21.9855C21.6517 21.5225 21.6745 21.2132 21.8967 20.4947C22.1045 20.1445 22.4769 20.3083 22.4769 20.6737C22.2995 21.395 22.1445 21.5225 21.7844 21.8192C21.4367 22.149 22.0246 22.2618 22.222 22.1237C22.7947 21.7297 23.0044 21.2209 23.1946 20.7554C23.3321 20.4207 23.7322 20.5842 23.5471 21.1314C23.1048 22.4379 22.3746 22.9521 21.0995 23.2153C20.9692 23.241 20.8754 23.3648 20.9367 23.4711C21.1067 23.6526 21.2793 23.8189 21.4495 23.9979C21.4495 23.9979 20.0202 24.3646 19.2311 24.6L18.1439 23.8603C18.2145 23.5909 17.749 23.2663 17.3958 23.5338C17.0086 23.351 16.7943 23.4314 16.6421 23.7009C16.9373 23.6028 17.0873 23.6707 17.2089 23.8152C17.2946 24.1424 17.7226 24.3426 18.0276 24.1625L18.8448 24.7444L17.4676 24.706C17.3691 24.3301 16.6869 24.3285 16.4984 24.6625C16.2504 24.6625 16.085 24.8011 16 25.1255C16.2697 24.925 16.3866 24.9491 16.5249 24.987C16.6867 25.2737 17.2414 25.2587 17.3948 24.987L18.7172 25.0241L17.9447 25.4676C17.4997 25.205 16.925 25.5994 17.0325 26.0095C16.8453 26.1651 16.8203 26.3891 16.9398 26.7063C17.0045 26.4864 17.1273 26.2807 17.3182 26.1621C17.7233 26.2731 18.1127 26.1429 18.1127 25.7318L19.1866 25.1239L20.2496 25.5417C20.2496 25.826 20.6736 26.0409 21.0376 25.8903C21.2926 25.9207 21.3289 26.1491 21.3714 26.325C21.5107 26.0724 21.5367 25.8107 21.2138 25.5874C21.2138 25.2606 20.802 25.0574 20.4609 25.2458L19.5598 24.9256C20.369 24.6618 21.8552 24.3949 21.8552 24.3949C22.0577 24.589 22.2195 24.7318 22.4222 24.9056C22.5297 24.9721 22.6816 24.9686 22.847 24.7526C23.3521 24.0031 23.8297 22.6388 24.5598 22.451C24.8282 22.3819 25.1511 22.5638 25.0825 23.1642C24.9781 24.0771 24.31 24.8362 23.4696 25.4042C23.0021 25.716 22.8046 25.5782 22.4422 25.5602C21.9746 25.6138 21.8495 25.8464 22.2347 26.1688C22.592 26.358 22.9145 26.3834 23.1747 26.3323C23.3997 26.2914 23.6622 25.9947 23.8497 25.8337C24.0599 25.5856 24.4099 25.8798 24.1725 26.1713C23.7397 26.698 23.3049 27.0433 22.7722 27.0356C22.2096 27.1149 22.3147 27.4369 22.6871 27.593C23.3573 27.8767 23.9647 27.3474 24.2701 26.9972C24.5074 26.734 24.6777 26.7238 24.6349 27.1329C24.3999 27.8767 24.0774 28.1656 23.5523 28.2016C23.1271 28.1631 23.1223 28.4982 23.4324 28.7259C24.1422 29.2269 24.6573 28.3728 24.8975 27.8562C25.0673 27.3883 25.3302 27.611 25.3574 27.9944C25.3626 28.5085 24.9944 29.0418 24.6906 29.3052C24.3869 29.5687 26 31.2433 26 31.2433C26 31.2433 27.6131 29.5686 27.3094 29.3052L27.3095 29.3052ZM29.4712 10.3403C29.2201 10.3403 29.065 10.4282 29.065 10.5349C29.065 10.6433 29.2201 10.7316 29.4712 10.7316C29.7208 10.7316 29.8793 10.6353 29.8793 10.5267C29.8793 10.4201 29.7207 10.3402 29.4712 10.3402V10.3403ZM22.5289 10.3403C22.78 10.3403 22.9351 10.4282 22.9351 10.5349C22.9351 10.6433 22.78 10.7316 22.5289 10.7316C22.2793 10.7316 22.1208 10.6353 22.1208 10.5267C22.1208 10.4201 22.2794 10.3402 22.5289 10.3402V10.3403Z" fill="#2C2929"/>
</g>
<path d="M11.7035 1.61228C6.53056 2.04084 2.23921 5.77712 1.57724 11.0101C1.25164 13.5841 1 16.6548 1 20C1 23.3452 1.25164 26.4159 1.57724 28.9899C2.23922 34.2229 6.53056 37.9592 11.7035 38.3877C15.5784 38.7087 20.5852 39 26 39C31.4148 39 36.4216 38.7087 40.2965 38.3877C45.4694 37.9592 49.7608 34.2229 50.4228 28.9899C50.7484 26.4159 51 23.3452 51 20C51 16.6548 50.7484 13.5841 50.4228 11.0101C49.7608 5.77712 45.4694 2.04084 40.2965 1.61228C36.4216 1.29127 31.4148 1 26 1C20.5852 1 15.5784 1.29127 11.7035 1.61228Z" stroke="#E6E6FA" stroke-width="2"/>
</svg>
