<svg width="52" height="40" viewBox="0 0 52 40" fill="none" xmlns="http://www.w3.org/2000/svg">
<mask id="mask0_1_36849" style="mask-type:alpha" maskUnits="userSpaceOnUse" x="2" y="2" width="48" height="36">
<path d="M2.56934 11.1356C3.16681 6.41247 7.0415 3.00193 11.7861 2.60887C15.6412 2.28949 20.6196 2 26 2C31.3804 2 36.3588 2.28949 40.2139 2.60887C44.9585 3.00193 48.8332 6.41247 49.4307 11.1356C49.752 13.6759 50 16.704 50 20C50 23.296 49.752 26.3241 49.4307 28.8644C48.8332 33.5875 44.9585 36.9981 40.2139 37.3911C36.3588 37.7105 31.3804 38 26 38C20.6196 38 15.6412 37.7105 11.7861 37.3911C7.0415 36.9981 3.16681 33.5875 2.56934 28.8644C2.248 26.3241 2 23.296 2 20C2 16.704 2.248 13.6759 2.56934 11.1356Z" fill="#00D0BF"/>
</mask>
<g mask="url(#mask0_1_36849)">
<rect x="2" y="-4" width="16" height="49" fill="#2E50A6"/>
<rect x="18" y="-4" width="16" height="49" fill="#FCD95E"/>
<rect x="34" y="-4" width="16" height="49" fill="#EE5757"/>
<path d="M24.5305 12.2188C25.114 12.2188 25.3526 12.7194 25.9361 12.7194C26.2964 12.7194 26.5064 12.6017 26.8204 12.4246C27.0394 12.3006 27.1792 12.2345 27.4307 12.2345C27.6883 12.2345 27.8462 12.3123 27.9779 12.5331C28.0524 12.658 28.1142 12.9025 28.0815 13.0428C28.0194 13.3087 27.9812 13.4244 27.8751 13.67C27.8246 13.788 27.7769 13.8587 27.7769 13.9879C27.7769 14.2976 28.1984 14.404 28.4849 14.4085C28.5474 14.4094 29.0727 14.418 29.396 14.0908C29.2206 14.0831 29.0243 13.9472 29.0243 13.7718C29.0243 13.5733 29.1638 13.439 29.3529 13.3817C29.3888 13.3714 29.45 13.4031 29.4825 13.386C29.5287 13.362 29.5071 13.3101 29.5482 13.2776C29.6423 13.2023 29.7035 13.1553 29.8241 13.1553C29.9028 13.1553 29.949 13.1664 30.0123 13.2117C30.0457 13.2357 30.0579 13.2653 30.0989 13.2653C30.1854 13.2653 30.2282 13.2106 30.3146 13.2106C30.3848 13.2106 30.4275 13.22 30.4891 13.2516C30.5405 13.2782 30.5393 13.3654 30.5975 13.3654C30.6266 13.3654 30.7805 13.3026 30.8609 13.3026C31.0278 13.3026 31.1168 13.3631 31.2247 13.4897C31.2537 13.5239 31.2724 13.5932 31.3019 13.5932C31.3615 13.5932 31.4988 13.6315 31.5843 13.7171C31.6211 13.7539 31.6374 13.7713 31.6657 13.8158C31.6853 13.8474 31.7156 13.9247 31.7503 13.9381C31.7911 13.9538 31.8253 13.9507 31.8789 13.9851C32.0012 14.0635 32.0952 14.2108 32.0908 14.3536C32.0894 14.4015 32.0675 14.4683 32.0545 14.5139C31.9121 15.0119 31.5732 15.1699 31.2309 15.5977C31.0854 15.7799 30.9706 15.9254 30.9706 16.1589C30.9706 16.2154 31.0402 16.3189 31.071 16.3659C31.0522 16.2562 31.1023 16.1213 31.2184 16.1151C31.3773 16.1065 31.5 16.2273 31.5214 16.3847C31.5257 16.4215 31.512 16.4851 31.4963 16.5227C31.5819 16.4662 31.6947 16.4281 31.7973 16.4161C31.8452 16.4103 31.8934 16.4082 31.9416 16.4098C32.1956 16.4161 32.4759 16.5589 32.646 16.7034C33.1665 17.1455 33.2294 17.7925 33.201 17.9722C33.1378 18.3715 33.1776 19.0941 32.157 19.3822C32.3457 19.4616 32.4742 19.6036 32.4742 19.7782C32.4742 19.9681 32.3287 20.1307 32.1388 20.1307C32.0301 20.1307 31.9548 20.1041 31.8787 20.028C31.6665 20.2402 31.6254 20.4566 31.6254 20.757C31.6254 20.9366 31.6596 21.0427 31.7349 21.2053C31.8145 21.3773 31.8718 21.4782 32.0155 21.6023C32.0917 21.4876 32.1721 21.4038 32.3099 21.4038C32.4434 21.4038 32.5563 21.4465 32.611 21.568C32.6273 21.6048 32.6127 21.6348 32.6316 21.6707C32.6555 21.7169 32.6958 21.7272 32.7206 21.7734C32.7591 21.8444 32.7214 21.9052 32.7548 21.9787C32.7762 22.0266 32.8232 22.0335 32.8438 22.0814C32.8763 22.155 32.8849 22.2055 32.8849 22.2867C32.8849 22.5144 32.6778 22.6769 32.4502 22.6769C32.3818 22.6769 32.3441 22.6496 32.2757 22.6564C32.4057 22.7864 32.5049 22.8429 32.6042 22.9986C32.7479 23.2236 32.7839 23.3836 32.8164 23.6489C32.8224 23.6985 32.8233 23.7284 32.8233 23.779C32.8233 24.1195 32.7702 24.3231 32.6179 24.6277C32.4725 24.9194 32.3484 25.0812 32.084 25.2711C31.6716 25.568 31.3712 25.6536 30.8725 25.7502C30.5525 25.8118 30.3694 25.8392 30.0442 25.8598C29.6284 25.8863 29.3914 25.8871 28.9764 25.9145C28.4322 25.9513 28.0549 26.0283 27.669 26.4142C27.8513 26.5476 27.9771 26.6786 27.9771 26.9036C27.9771 27.1346 27.8342 27.2997 27.6143 27.3725C27.563 27.3896 27.5253 27.3742 27.4774 27.3998C27.4201 27.4298 27.4226 27.4957 27.3679 27.5299C27.2712 27.5915 27.1959 27.6052 27.0804 27.6052C26.8768 27.6052 26.7381 27.5573 26.5944 27.4135C26.4276 27.5521 26.371 27.677 26.1837 27.7831C26.1221 27.8174 26.0904 27.8653 26.0194 27.8653C25.9073 27.8653 25.856 27.7943 25.7662 27.7284C25.6233 27.624 25.5471 27.5547 25.4307 27.4204C25.2605 27.5222 25.1561 27.6052 24.9584 27.6052C24.8369 27.6052 24.7599 27.588 24.6572 27.523C24.6033 27.4897 24.5948 27.44 24.5409 27.4067C24.4844 27.3716 24.4373 27.3844 24.3766 27.3587C24.1482 27.2604 24.0001 27.0909 24.0001 26.842C24.0001 26.6238 24.1379 26.4852 24.3356 26.3936C23.9565 26.0146 23.5835 25.9488 23.0487 25.9145C22.6354 25.888 22.4001 25.8872 21.9877 25.8598C21.66 25.8375 21.4778 25.8041 21.1526 25.7502C20.907 25.71 20.7616 25.6972 20.5366 25.5928C19.7623 25.2317 19.2686 24.7364 19.1676 23.8884C19.159 23.8157 19.1607 23.7738 19.1607 23.7002C19.1607 23.2587 19.3344 22.9892 19.6467 22.6769C19.5663 22.658 19.5124 22.6846 19.4345 22.6564C19.2394 22.5853 19.0991 22.4501 19.0991 22.2422C19.0991 22.1652 19.1025 22.1139 19.1402 22.0472C19.1667 22.0001 19.2172 21.9907 19.2291 21.9376C19.2445 21.8675 19.224 21.8178 19.2565 21.7528C19.2779 21.7092 19.3181 21.7006 19.3387 21.657C19.4063 21.5167 19.491 21.4037 19.6467 21.4037C19.7802 21.4037 19.8657 21.4739 19.9342 21.5886C20.0642 21.5287 20.1002 21.4311 20.1738 21.3079C20.2961 21.1034 20.3517 20.9605 20.3517 20.7227C20.3517 20.5567 20.3355 20.4592 20.2833 20.3017C20.2456 20.1888 20.2302 20.1118 20.1464 20.028C20.0702 20.1041 19.9949 20.1306 19.8863 20.1306C19.669 20.1306 19.503 19.9441 19.503 19.7268C19.503 19.565 19.5825 19.4453 19.7289 19.3777C19.6116 19.2767 19.5098 19.2682 19.3797 19.186C19.1821 19.0611 19.1128 18.9294 18.9828 18.7343C18.898 18.6068 18.8758 18.5178 18.8322 18.3715C18.78 18.1952 18.75 18.09 18.75 17.9061C18.75 17.8581 18.7509 17.8299 18.7568 17.7828C18.8056 17.4115 18.8724 17.1787 19.106 16.8861C19.2445 16.7124 19.3387 16.6055 19.544 16.5165C19.7185 16.4412 19.8229 16.3865 20.0129 16.3865C20.0702 16.3865 20.1036 16.3865 20.1601 16.3933C20.2473 16.4045 20.303 16.4121 20.3791 16.4549C20.4082 16.4712 20.4612 16.52 20.4612 16.4857C20.4612 16.4464 20.4407 16.4258 20.4407 16.3865C20.4407 16.2291 20.5536 16.0853 20.7111 16.0853C20.8249 16.0853 20.8711 16.1854 20.9267 16.2838C20.9627 16.2239 20.9814 16.1828 20.9814 16.1127C20.9814 15.8526 20.842 15.72 20.6803 15.5172C20.3277 15.0765 19.8863 14.8704 19.8863 14.3057C19.8863 14.1371 19.9675 14.0224 20.1122 13.936C20.1541 13.9112 20.2105 13.936 20.2515 13.9098C20.2866 13.8875 20.2826 13.8422 20.3048 13.8063C20.3399 13.7507 20.3709 13.7268 20.4197 13.684C20.5001 13.6138 20.5708 13.6349 20.6597 13.5733C20.7042 13.5425 20.7147 13.5024 20.749 13.4614C20.8482 13.3416 20.9373 13.2838 21.0939 13.2838C21.1726 13.2838 21.2168 13.2842 21.2895 13.3131C21.3143 13.3226 21.3607 13.36 21.3667 13.3528C21.3823 13.3339 21.4248 13.2889 21.4753 13.265C21.5412 13.2333 21.5679 13.221 21.6415 13.221C21.7254 13.221 21.7803 13.2681 21.8641 13.2681C21.8949 13.2681 21.9021 13.2373 21.9268 13.221C22.0013 13.1706 22.0441 13.142 22.1348 13.142C22.2221 13.142 22.2703 13.1709 22.3439 13.2179C22.4131 13.2616 22.4232 13.32 22.4942 13.3611C22.5335 13.3842 22.5669 13.3739 22.6106 13.3884C22.8056 13.4535 22.9528 13.5835 22.9528 13.7889C22.9528 13.9001 22.9263 13.9797 22.8433 14.0524C22.7774 14.1106 22.715 14.1003 22.6311 14.1277C22.9032 14.345 23.1399 14.3989 23.4873 14.3989C23.8056 14.3989 24.1948 14.2688 24.1948 13.9505C24.1948 13.8025 24.113 13.7229 24.0548 13.5869C23.9504 13.3448 23.8938 13.2024 23.8938 12.9388C23.8938 12.7301 23.9166 12.6034 24.0381 12.434C24.163 12.2595 24.3156 12.2188 24.5304 12.2188L24.5305 12.2188Z" fill="#C7B37F"/>
<path d="M22.4105 13.9126C22.4314 13.9916 22.4954 14.0656 22.5955 14.0969C22.6557 14.1157 22.795 14.1082 22.8854 13.9915C22.9586 13.8969 22.953 13.7797 22.9257 13.6866C22.908 13.6263 22.8593 13.5682 22.795 13.5187L22.4107 13.9088L22.4106 13.9126L22.4105 13.9126Z" stroke="#703D29" stroke-width="0.0504077" stroke-linejoin="round"/>
<path d="M32.1444 19.7465C32.054 19.5281 31.8206 19.626 31.8062 19.7465C31.7732 20.024 32.0164 20.1079 32.1896 20.0627C32.2753 20.0404 32.3381 19.9863 32.3782 19.916C32.4234 19.8366 32.4371 19.7329 32.4077 19.634C32.3944 19.5891 32.3756 19.5513 32.3435 19.509C32.3113 19.4665 32.278 19.4373 32.2467 19.4175C32.1802 19.3749 32.1076 19.3707 31.9938 19.3707C31.5721 19.3707 31.2032 19.8689 31.0793 20.3865C31.0385 20.5569 30.9824 20.937 31.0601 21.2975C31.1429 21.6815 31.3089 21.9474 31.5037 22.1491C31.6091 22.2582 31.7528 22.3554 31.939 22.4607C31.9963 22.4931 32.1482 22.5604 32.2535 22.5906C32.3618 22.6215 32.4617 22.617 32.5518 22.5974C32.8016 22.5432 32.9178 22.3108 32.7919 22.073C32.6888 21.8784 32.3853 21.7719 32.2422 22.0203C32.2301 22.0415 32.2112 22.0874 32.2118 22.1371C32.2126 22.2033 32.2401 22.2832 32.2874 22.3134C32.3962 22.3825 32.5701 22.3629 32.5621 22.1709" stroke="#703D29" stroke-width="0.050214" stroke-linecap="round"/>
<path d="M30.8408 22.6097C30.9255 22.5102 31.1196 22.3608 31.3417 22.3336C31.567 22.3059 31.7629 22.3715 31.9628 22.479C32.3531 22.6889 32.5707 22.9146 32.7157 23.3332C32.7525 23.4396 32.7831 23.5998 32.7789 23.7701C32.7721 24.0415 32.7032 24.3381 32.6292 24.4815C32.5646 24.6066 32.3958 25.1591 31.4696 25.5404C30.9292 25.7629 30.0993 25.8142 29.527 25.8368C28.7399 25.8679 28.0136 25.897 27.592 26.4165" stroke="#703D29" stroke-width="0.0617869"/>
<path d="M26.8063 14.1862C26.8685 14.2987 26.9028 14.3672 26.8666 14.4836C26.8255 14.6154 26.732 14.6944 26.5993 14.6944C26.2981 14.6944 26.121 14.3378 26.2567 14.1109C26.4976 13.708 26.9607 13.9343 27.3899 14.1338C27.3691 14.0305 27.333 13.9969 27.3368 13.8689C27.3461 13.551 27.5819 13.4068 27.676 13.1133C27.732 12.9383 27.7543 12.7864 27.6264 12.6622C27.5146 12.5537 27.3851 12.5554 27.2393 12.6125C26.9479 12.7267 26.5979 13.055 25.9817 13.0641C25.3656 13.055 25.0127 12.7267 24.7213 12.6125C24.5755 12.5554 24.446 12.5537 24.3342 12.6622C24.2062 12.7864 24.2285 12.9383 24.2846 13.1133C24.3787 13.4069 24.6144 13.551 24.6238 13.8689C24.6275 13.9969 24.5914 14.0305 24.5707 14.1338C24.9999 13.9343 25.481 13.6877 25.7039 14.1109C25.8281 14.3466 25.6625 14.6943 25.3613 14.6943C25.2285 14.6943 25.1353 14.6097 25.094 14.4836C25.0572 14.3711 25.094 14.2727 25.1542 14.1862M31.0375 23.4997C31.0149 23.4169 31.0358 23.3375 31.1015 23.2475C31.1893 23.1271 31.3763 23.0856 31.5457 23.1797C31.6024 23.2112 31.6734 23.2527 31.7377 23.3378C31.762 23.37 31.8031 23.422 31.8243 23.4583C31.8756 23.5459 31.8966 23.6177 31.9067 23.6465C32.093 24.1757 31.7971 24.7491 31.4102 24.9792C31.1097 25.1579 30.7512 25.2376 30.3222 25.2879C30.1294 25.3106 30.0192 25.3091 29.8252 25.3181C29.6691 25.3253 29.5343 25.3227 29.4073 25.3212C29.3029 25.3198 29.2037 25.3204 29.1024 25.3181C28.937 25.3142 28.7659 25.3103 28.5565 25.3256C28.3362 25.3416 28.1705 25.3473 27.9842 25.3783C27.8627 25.3985 27.7201 25.4181 27.5706 25.4517C27.5258 25.4617 27.4803 25.4699 27.4346 25.4837C27.4039 25.493 27.3736 25.5024 27.3435 25.5115C27.0737 25.5938 26.8116 25.6941 26.6047 25.8273C26.5408 25.8684 26.4687 25.9096 26.417 25.9584C26.3848 25.9888 26.3457 26.0192 26.3142 26.0503C26.1694 26.1927 26.0213 26.3469 25.9867 26.5557C25.9803 26.5942 25.9803 26.6346 25.9803 26.6771C25.9803 26.8126 26.0906 26.9971 26.388 27.0573L31.0375 23.4997Z" stroke="#703D29" stroke-width="0.0542814"/>
<path d="M25.756 14.4084C25.7492 14.5248 25.7013 14.6001 25.5849 14.648M25.6021 13.977C25.7184 14.066 25.8006 14.1755 25.7869 14.3535C25.772 14.5465 25.7253 14.593 25.5747 14.6957L25.6021 13.977Z" stroke="#703D29" stroke-width="0.0542814" stroke-linecap="round"/>
<path d="M22.7403 13.4782L22.793 13.5158L22.8494 13.5761L22.8871 13.6514L22.9059 13.7154L22.9097 13.7982L22.9059 13.8547L22.8871 13.9187L22.8494 13.9638L22.8042 14.0128L22.7403 14.0467L22.6575 14.0655L22.5859 14.0768L22.5106 14.0429L22.4429 13.994L22.4015 13.9337L22.3713 13.8584V13.8284L22.7403 13.4782H22.7403Z" fill="#C7B37F"/>
<path d="M22.6246 13.7726C22.6014 13.6477 22.4553 13.622 22.3987 13.6958C22.3115 13.8095 22.3752 13.9988 22.5525 14.0542C22.6127 14.0731 22.752 14.0655 22.8424 13.9488C22.9156 13.8542 22.91 13.737 22.8827 13.6439C22.8649 13.5836 22.8166 13.5311 22.752 13.482C22.5461 13.3255 22.2137 13.3615 22.1045 13.625C21.9636 13.965 22.2701 14.2199 22.5525 14.4119C22.9079 14.6536 23.313 14.6975 23.6179 14.6942C24.3106 14.6867 24.8377 14.3554 25.1803 14.1672C25.2601 14.1234 25.3422 14.1323 25.3835 14.1822C25.4302 14.2386 25.4294 14.3296 25.3647 14.3893" stroke="#703D29" stroke-width="0.0504077" stroke-linecap="round"/>
<path d="M21.4595 23.171L21.4482 23.3065L21.4256 23.4006L21.3578 23.5625L21.2524 23.7018L21.1395 23.7921L21.0567 23.8336L20.94 23.8599M20.5709 23.1559L20.4166 23.2124L20.2585 23.3329L20.1907 23.427L20.1041 23.5776L20.0665 23.6905L20.0364 23.8298L20.0213 23.9353L20.5709 23.1559Z" stroke="#703D29" stroke-width="0.0511824"/>
<path d="M25.9943 26.7818C25.9662 26.9071 25.8488 27.0504 25.5934 27.1022L25.5438 27.1125" stroke="#703D29" stroke-width="0.0579615"/>
<path d="M32.3855 22.7792C32.5473 22.93 32.6608 23.1135 32.7481 23.3655C32.7849 23.4718 32.8155 23.6321 32.8112 23.8023C32.8044 24.0737 32.7356 24.3703 32.6615 24.5138C32.5969 24.6389 32.4281 25.1914 31.502 25.5727C30.9616 25.7952 30.1317 25.8464 29.5594 25.869C28.7836 25.8997 28.0669 25.9284 27.6428 26.4267" stroke="#703D29" stroke-width="0.0656607"/>
<path d="M31.1198 23.2818C31.1773 23.2033 31.3869 23.104 31.5563 23.1981C31.6121 23.2291 31.6782 23.2683 31.7362 23.3551" stroke="#703D29" stroke-width="0.0449844"/>
<path d="M32.188 22.5961C32.2259 22.6107 32.2635 22.6238 32.2966 22.6333C32.4049 22.6642 32.5067 22.6666 32.5948 22.6402C32.809 22.5759 32.9464 22.3758 32.835 22.1157C32.8091 22.0555 32.7597 21.9977 32.7034 21.9543" stroke="#703D29" stroke-width="0.0656607"/>
<path d="M22.9088 13.84C22.9088 13.97 22.8129 14.0522 22.6829 14.0795M19.9821 16.9956C19.8384 17.0846 19.7312 17.1057 19.6194 17.2352C19.508 17.4557 19.4643 17.5742 19.4208 17.7509L19.9821 16.9956Z" stroke="#703D29" stroke-width="0.0504077" stroke-linecap="round"/>
<path d="M31.848 16.4097C32.2059 16.4025 33.2454 16.6828 33.2529 17.9048C33.2601 19.1118 32.508 19.3089 32.2066 19.3893" stroke="#703D29" stroke-width="0.0482771"/>
<path d="M31.942 16.4097C32.559 16.3829 33.1957 16.8371 33.2238 17.9707C33.2457 18.8563 32.6177 19.258 32.3163 19.3383" stroke="#703D29" stroke-width="0.050214"/>
<path d="M20.9007 16.2945L20.9026 16.3698M31.5982 20.6772L31.6077 20.5561L31.648 20.3636L31.7051 20.214L31.7692 20.0904L31.8523 19.9907L31.5982 20.6772ZM32.4412 19.7335L32.4318 19.8521L32.3979 19.933L32.3452 20.0102L32.2849 20.0554L32.1927 20.0893L32.1118 20.0949L32.0515 20.0854L32.4412 19.7335ZM30.9687 16.0897L30.995 15.9617L31.0515 15.8431L31.1249 15.7245L31.251 15.5626L31.3508 15.4516L31.5126 15.2878L31.652 15.1466L31.7404 15.045L31.8571 14.9038L31.9607 14.7476L32.0228 14.6196L32.0567 14.4539L32.0669 14.2485L32.0482 14.189L30.9687 16.0897ZM31.1193 23.8867L31.2416 23.8622L31.3339 23.8132L31.3847 23.7624L31.4205 23.7041L31.4449 23.61L31.4468 23.5441L31.1193 23.8867ZM19.4737 22.6248L19.564 22.6323L19.6807 22.6229L19.7974 22.5815L19.4737 22.6248ZM20.1758 19.8163L20.1608 19.9217L20.1363 19.9688L20.1005 20.0139L20.0516 20.0516L19.997 20.076L19.9255 20.0873L19.8765 20.0911L20.1758 19.8163ZM20.6257 18.9093L20.5993 19.0731L20.5673 19.1446L20.5015 19.235L20.4129 19.3028L20.3226 19.3479L20.1475 19.3912L20.6257 18.9093ZM21.305 16.3831L21.2711 16.481L21.2297 16.5526L21.1733 16.6316L21.0942 16.7031L21.0001 16.7483L20.921 16.7671L20.8721 16.7633L21.305 16.3831Z" stroke="#703D29" stroke-width="0.0426601"/>
<path d="M32.2718 22.3235C32.2782 22.3306 32.2999 22.334 32.3075 22.3385C32.4148 22.4026 32.626 22.3228 32.5639 22.1572M21.0416 18.8337C20.9953 18.8758 20.9417 18.909 20.8835 18.932L21.0416 18.8337Z" stroke="#703D29" stroke-width="0.0477928" stroke-linecap="round"/>
<path d="M26.5758 27.3614C26.4779 27.512 26.2445 27.7379 25.9998 27.8282C25.755 27.7379 25.5216 27.512 25.4238 27.3614M31.8988 20.0099C31.975 20.1094 32.1186 20.1352 32.2321 20.1056C32.3179 20.0832 32.3807 20.0292 32.4207 19.9589C32.466 19.8795 32.4797 19.7758 32.4503 19.6768C32.437 19.632 32.4182 19.5942 32.3861 19.5519C32.3539 19.5094 32.3139 19.4641 32.2829 19.4439C32.2747 19.4385 32.2665 19.4312 32.2578 19.4254L31.8988 20.0099ZM32.7438 21.9991C32.7471 21.9814 32.7488 21.9633 32.7488 21.9446C32.7488 21.857 32.7122 21.7767 32.6515 21.7226C32.6308 21.7041 32.6108 21.6754 32.5857 21.6629L32.7438 21.9991ZM32.6218 21.6984C32.6183 21.5574 32.5029 21.4565 32.3598 21.4314L32.6218 21.6984ZM32.0441 21.6461C32.0112 21.6193 31.976 21.5965 31.9452 21.5643C31.76 21.3704 31.6206 21.0837 31.6188 20.7567C31.617 20.4433 31.743 20.1242 31.8898 20L32.0441 21.6461ZM27.6149 26.4046L27.7505 26.2803L27.8446 26.2088L28.0215 26.0996L28.1871 26.0206L28.3038 25.9905L28.5373 25.9377L28.8083 25.8963L27.6149 26.4046Z" stroke="#703D29" stroke-width="0.0477928"/>
<path d="M25.5914 27.0481C25.5607 27.1618 25.505 27.2721 25.4235 27.3605" stroke="#703D29" stroke-width="0.0477928" stroke-linecap="round"/>
<path d="M26.5545 27.3401C26.4566 27.4907 26.2232 27.7166 25.9785 27.8069C25.7338 27.7166 25.5004 27.4907 25.4025 27.3401M25.6156 26.8903L25.5817 27.0559L25.6156 26.8903ZM25.4049 27.3721L25.3334 27.4436L25.2054 27.5151L25.0586 27.5603L25.4049 27.3721ZM24.6316 14.1058C24.65 14.0486 24.6688 14.0055 24.666 13.9114C24.6567 13.5935 24.421 13.4494 24.3268 13.1557C24.2708 12.9808 24.2485 12.8289 24.3765 12.7046C24.4882 12.5962 24.6177 12.5979 24.7635 12.655C25.055 12.7693 25.408 13.0975 26.0241 13.1066C25.408 13.0975 25.0549 12.7692 24.7635 12.655C24.6177 12.5979 24.4762 12.5812 24.3644 12.6896C24.2364 12.8138 24.2708 12.9808 24.3268 13.1557C24.421 13.4494 24.6446 13.5935 24.654 13.9114C24.6567 14.0055 24.6319 14.0486 24.6136 14.1058H24.6316ZM26.0223 13.085C26.6284 13.053 27.1479 12.6458 27.3155 12.6126C27.4649 12.583 27.5484 12.5963 27.6579 12.6959C27.5483 12.5963 27.4235 12.5994 27.2817 12.655C26.9903 12.7692 26.6403 13.0975 26.0242 13.1066L26.0223 13.085ZM32.0466 21.6476C31.7943 21.4669 31.5782 21.1219 31.576 20.7143C31.5742 20.4008 31.7002 20.0818 31.847 19.9576L32.0466 21.6476Z" stroke="#703D29" stroke-width="0.0477928"/>
<path d="M25.005 14.2651C25.0681 14.2302 25.1265 14.197 25.1805 14.1674C25.2603 14.1235 25.3563 14.1327 25.3976 14.1827C25.4441 14.239 25.4513 14.3367 25.3866 14.3965" stroke="#703D29" stroke-width="0.0477928" stroke-linecap="round"/>
<path d="M21.1147 16.6446C21.2493 16.759 21.3142 16.9006 21.3142 17.0775C21.3142 17.3119 21.1181 17.6949 20.6363 17.8305C20.4516 17.8824 20.2688 17.8405 20.1583 17.7733M24.1 14.6888C24.5158 14.602 24.8546 14.4158 25.1108 14.2725L24.1 14.6888ZM27.5525 26.6946C27.5868 26.7181 27.6089 26.7669 27.6089 26.7669C27.6185 26.7896 27.6307 26.8111 27.6342 26.8311C27.6537 26.9463 27.5782 27.0181 27.4849 27.029C27.3566 27.0439 27.2604 26.9677 27.2194 26.8755L27.5525 26.6946ZM24.0786 14.6675C24.4945 14.5807 24.8333 14.3945 25.0895 14.2512L24.0786 14.6675ZM32.4722 22.3395C32.3931 22.37 32.3499 22.3659 32.2515 22.3222C32.2111 22.3043 32.1649 22.2765 32.1107 22.2458C31.918 22.1363 31.6891 21.9638 31.4745 21.561C31.4171 21.4541 31.3737 21.3403 31.3451 21.2224C31.3247 21.1383 31.3105 21.0553 31.3074 20.97C31.3022 20.8247 31.3178 20.6731 31.3541 20.4993C31.414 20.2124 31.486 20.0566 31.6628 19.8142C31.7497 19.6949 31.8247 19.6221 31.9865 19.6184L32.4722 22.3395Z" stroke="#703D29" stroke-width="0.0477928"/>
<path d="M21.1937 17.4387C21.2802 17.499 21.3141 17.5666 21.3141 17.6842C21.3141 17.7648 21.262 17.8693 21.1734 17.9683C21.0282 18.1303 20.782 18.268 20.5092 18.2714C20.3612 18.2733 20.2075 18.2423 20.053 18.139C19.8877 18.0285 19.8007 17.8792 19.7631 17.7324" stroke="#703D29" stroke-width="0.0477928"/>
<path d="M21.3099 16.4591C21.2615 16.599 21.1729 16.6989 21.0327 16.7622C20.893 16.8254 20.7312 16.7664 20.6447 16.6997M21.1859 17.9437C21.284 18.0339 21.3141 18.1468 21.3141 18.2889C21.3141 18.4967 21.2298 18.6569 21.0357 18.8267C20.9902 18.8665 20.9411 18.9018 20.8889 18.9322L21.1859 17.9437ZM30.6815 17.2619V17.5292V17.2619ZM30.6602 17.1961V17.5725V17.1961ZM30.6815 16.3811V16.8743V16.3811ZM30.6602 16.2722V16.9461V16.2722ZM30.5164 23.1472C30.423 23.3329 30.3482 23.4305 30.2002 23.5763C30.0508 23.7236 29.9472 23.7911 29.7597 23.885C29.5771 23.9766 29.462 24.0057 29.2628 24.0507C29.0636 24.0957 28.9471 24.1055 28.7432 24.1147C28.5562 24.1232 28.4501 24.1154 28.2634 24.1024C28.0635 24.0886 27.9526 24.0607 27.7531 24.0432C27.5883 24.0287 27.4952 24.0154 27.3297 24.0158C27.1597 24.0163 27.0622 24.0173 26.8948 24.0469C26.7387 24.0746 26.6501 24.0966 26.5032 24.1561C26.2999 24.2384 26.0703 24.382 26.0213 24.446C25.9724 24.382 25.7427 24.2385 25.5394 24.1561C25.3926 24.0966 25.304 24.0746 25.1479 24.0469C24.9804 24.0173 24.883 24.0162 24.7129 24.0158C24.5474 24.0153 24.4544 24.0287 24.2895 24.0432C24.09 24.0607 23.9792 24.0886 23.7793 24.1024C23.5925 24.1153 23.4865 24.1232 23.2994 24.1147C23.0955 24.1055 22.979 24.0958 22.7799 24.0507C22.5807 24.0056 22.4657 23.9764 22.283 23.8851C22.0953 23.7913 21.9919 23.7236 21.8425 23.5763C21.827 23.5611 21.8117 23.5457 21.7966 23.5302L30.5164 23.1472ZM24.9871 27.5681L25.1226 27.5512L24.9871 27.5681ZM27.413 27.373L27.5498 27.36L27.6801 27.3079L27.7713 27.2525L27.8951 27.1059L27.9211 27.0505L27.9407 26.9235L27.9472 26.8649L27.413 27.373ZM31.4965 16.5225C31.5552 16.3226 31.4835 16.1118 31.2899 16.1174L31.4965 16.5225ZM21.3065 19.6404C21.2574 19.8064 21.1518 19.9198 21.0344 19.9936L21.3065 19.6404Z" stroke="#703D29" stroke-width="0.0477928"/>
<path d="M20.249 17.1927C20.3648 17.2534 20.4824 17.1645 20.4582 17.0138C20.4469 16.9432 20.3708 16.854 20.2678 16.8475" stroke="#703D29" stroke-width="0.0477928" stroke-linecap="round"/>
<path d="M20.7293 23.568C20.7543 23.5915 20.7596 23.622 20.7933 23.6282C20.8442 23.6376 20.8837 23.6564 20.9345 23.5887C20.9971 23.5052 20.9635 23.3752 20.8983 23.2934C20.8286 23.2059 20.6265 23.1285 20.4571 23.2227C20.4004 23.2541 20.3293 23.2956 20.2651 23.3808C20.2408 23.413 20.1997 23.465 20.1785 23.5012C20.1272 23.5889 20.1062 23.6606 20.096 23.6895C19.941 24.13 20.125 24.5932 20.4102 24.8755" stroke="#703D29" stroke-width="0.0477928"/>
<path d="M27.5433 26.6849C27.5613 26.7036 27.5777 26.7237 27.5922 26.7452C27.6018 26.7678 27.6096 26.7893 27.6129 26.8094C27.6325 26.9246 27.557 26.9963 27.4637 27.0072C27.3355 27.0221 27.2496 26.9466 27.2086 26.8544" stroke="#703D29" stroke-width="0.0477928" stroke-linecap="round"/>
<path d="M32.586 21.6626C32.5637 21.5284 32.4498 21.4263 32.3125 21.4263C32.1593 21.4263 32.0351 21.5535 32.0351 21.7105C32.0351 21.7874 32.0649 21.8572 32.1133 21.9083M31.2675 13.5906C31.5206 13.6215 31.7412 13.8631 31.7412 14.1228C31.7412 14.4579 31.6284 14.5827 31.452 14.8223C31.2632 15.0788 30.6463 15.5489 30.6463 16.0835C30.6463 16.4073 30.7367 16.6143 30.9701 16.7197C31.1205 16.7877 31.2965 16.7141 31.3767 16.6418C31.5724 16.4648 31.4941 16.1545 31.2901 16.1174C31.0416 16.0722 30.9949 16.4634 31.2373 16.4374L31.2675 13.5906Z" stroke="#703D29" stroke-width="0.0477928"/>
<path d="M21.0203 18.8391C21.2274 19.001 21.314 19.158 21.314 19.4076C21.314 19.6937 21.1747 19.8706 21.0128 19.9723M30.8457 16.6446C30.7111 16.759 30.6462 16.9006 30.6462 17.0775C30.6462 17.3119 30.8423 17.6949 31.3242 17.8305C31.5089 17.8824 31.6853 17.8775 31.7958 17.8103L30.8457 16.6446ZM19.9904 17.0281C19.8752 17.0665 19.7314 17.1384 19.6248 17.2893C19.5349 17.4167 19.4825 17.5937 19.4501 17.7486C19.4359 17.8164 19.419 18.031 19.4623 18.2527C19.4943 18.4164 19.5619 18.5688 19.6367 18.6791C19.6635 18.7187 19.6878 18.7453 19.7152 18.7727C19.7402 18.7977 19.7758 18.8199 19.8011 18.8391L19.9904 17.0281ZM24.6443 25.8032C25.0111 25.9658 25.28 26.0877 25.5081 26.4477C25.5796 26.5607 25.5984 26.7225 25.5984 26.8167C25.5984 27.0199 25.5156 27.2496 25.3461 27.3926C25.189 27.5254 25.0337 27.5658 24.8417 27.547C24.6961 27.5327 24.5594 27.4265 24.5368 27.3512L24.6443 25.8032Z" stroke="#703D29" stroke-width="0.0477928"/>
<path d="M20.832 19.7693C21.1407 20.1533 21.3045 20.3812 21.3139 20.8385C21.3226 21.2676 21.1858 21.5613 20.9299 21.87" stroke="#703D29" stroke-width="0.0477928" stroke-linecap="round"/>
<path d="M30.6815 21.2137V22.436H30.6848C30.6848 22.4368 30.6843 22.5516 30.6745 22.6242C30.6681 22.6718 30.6613 22.7147 30.6537 22.7551M26.7511 14.6927C26.8073 14.6559 26.8484 14.5968 26.872 14.5239C26.9085 14.4114 26.9093 14.3153 26.8491 14.2288C26.9233 14.326 26.9302 14.4082 26.9092 14.5262C26.896 14.6013 26.848 14.6409 26.7883 14.6949L26.7511 14.6927Z" stroke="#703D29" stroke-width="0.0477928"/>
<path d="M21.4823 23.1031C21.5145 23.3425 21.4139 23.5777 21.3117 23.6859C21.2477 23.7537 21.1083 23.8831 20.9352 23.8854C20.6491 23.8891 20.5637 23.6924 20.5464 23.6445M30.6603 21.096V22.4142H30.6635C30.6635 22.4151 30.6631 22.5299 30.6532 22.6025C30.643 22.6781 30.6321 22.7423 30.6179 22.8022L30.6603 21.096ZM30.6603 19.5528V20.6521V19.5528ZM30.6816 19.6395V20.5335V19.6395ZM30.6816 18.5025V19.1728V18.5025ZM30.6603 18.4236V19.2499V18.4236ZM30.6816 17.8174V18.0774V17.8174ZM30.6603 17.7646V18.1411V17.7646ZM30.5208 23.0736C30.5128 23.0906 30.5042 23.108 30.4951 23.1261C30.4017 23.3118 30.327 23.4094 30.1789 23.5553C30.0295 23.7025 29.926 23.77 29.7384 23.864C29.5558 23.9555 29.4407 23.9846 29.2415 24.0296C29.0424 24.0746 28.9259 24.0844 28.7219 24.0936C28.535 24.1021 28.4289 24.0942 28.2421 24.0813C28.0423 24.0675 27.9314 24.0396 27.7319 24.0221C27.567 24.0076 27.4739 23.9943 27.3085 23.9947C27.1384 23.9952 27.041 23.9962 26.8735 24.0259C26.7174 24.0535 26.6289 24.0755 26.4819 24.135C26.2787 24.2173 26.0491 24.3609 26.0001 24.4249C25.9511 24.3609 25.7215 24.2174 25.5182 24.135C25.3713 24.0755 25.2828 24.0535 25.1267 24.0259C24.9592 23.9962 24.8618 23.9951 24.6917 23.9947C24.5262 23.9942 24.4331 24.0076 24.2683 24.0221C24.0687 24.0396 23.9579 24.0675 23.758 24.0813C23.5713 24.0942 23.4652 24.1021 23.2782 24.0936C23.0742 24.0844 22.9578 24.0747 22.7587 24.0297C22.5594 23.9845 22.4444 23.9554 22.2617 23.864C22.0741 23.7702 21.9707 23.7025 21.8213 23.5553C21.743 23.4782 21.6853 23.4146 21.6344 23.3444L30.5208 23.0736Z" stroke="#703D29" stroke-width="0.0477928"/>
<path d="M26.601 27.3817C26.6184 27.4007 26.6371 27.4186 26.6569 27.4354C26.8141 27.5681 26.9694 27.6086 27.1614 27.5898C27.307 27.5755 27.4227 27.4783 27.4694 27.394C27.4694 27.394 27.4955 27.3659 27.5029 27.339M21.1423 22.9792C21.1954 23.0316 21.2426 23.0956 21.2824 23.1712C21.3539 23.3067 21.3319 23.5334 21.2752 23.638C21.269 23.6495 21.2613 23.6617 21.2522 23.6742L21.1423 22.9792ZM19.7206 25.0371C19.8908 25.2157 20.1481 25.4096 20.5433 25.5723C21.0838 25.7948 21.9137 25.8461 22.4859 25.8686C23.2469 25.8987 23.948 25.9299 24.3749 26.4012L19.7206 25.0371ZM25.6887 26.0932C25.8145 26.217 25.9428 26.3496 25.997 26.5192L25.6887 26.0932ZM25.4413 27.3856C25.4248 27.4031 25.4074 27.4199 25.3888 27.4355C25.2316 27.5682 25.0763 27.6087 24.8844 27.5898C24.7387 27.5755 24.5983 27.4664 24.5606 27.3949L25.4413 27.3856ZM24.1556 27.175C24.1627 27.1846 24.17 27.1939 24.1778 27.2029C24.2692 27.3094 24.4135 27.3761 24.5641 27.3885L24.1556 27.175ZM26.5971 27.3827C26.4992 27.5333 26.2658 27.7591 26.0211 27.8495C25.7764 27.7591 25.543 27.5333 25.4451 27.3827L25.4222 27.3475L26.5971 27.3827Z" stroke="#703D29" stroke-width="0.0477928"/>
<path d="M27.4542 27.3513L27.398 27.4417L27.3125 27.5125L27.183 27.5663L27.0658 27.5711" stroke="#703D29" stroke-width="0.0477928"/>
<path d="M29.7117 13.4496C29.776 13.4934 29.8415 13.5605 29.877 13.6463C30.0178 13.9862 29.7114 14.2411 29.429 14.4332C29.2266 14.5708 29.008 14.6443 28.8011 14.6815M27.7583 26.4907C27.8276 26.5439 27.8956 26.6244 27.9326 26.7103C27.9563 26.7655 27.9674 26.8263 27.9707 26.8894C27.9771 27.0089 27.9351 27.1189 27.8631 27.2028C27.7663 27.3155 27.6155 27.3836 27.4549 27.39C27.443 27.3905 27.4311 27.3906 27.4194 27.39L27.7583 26.4907ZM27.4334 27.3686C27.2799 27.3748 27.1427 27.309 27.0416 27.2052L27.4334 27.3686ZM31.8592 22.0703C31.7394 21.9599 31.6153 21.8069 31.4957 21.5823C31.4383 21.4754 31.3948 21.3617 31.3663 21.2438C31.3458 21.1597 31.3316 21.0766 31.3285 20.9914C31.3234 20.8462 31.3389 20.6945 31.3752 20.5207C31.4351 20.2338 31.5419 20.0118 31.684 19.8355C31.7324 19.7753 31.7883 19.7003 31.8413 19.6666L31.8592 22.0703ZM31.7372 13.9305C31.9292 13.9455 32.1071 14.1523 32.1047 14.3549C32.1013 14.6492 32.0026 14.7708 31.7711 15.0592C31.5716 15.3076 30.973 15.7443 30.988 16.1622C30.9907 16.2364 31.0306 16.3131 31.0753 16.3748L31.7372 13.9305ZM30.836 16.6368C30.8786 16.6788 30.93 16.7135 30.9913 16.7412C31.1008 16.7906 31.2238 16.7652 31.3135 16.7198L30.836 16.6368Z" stroke="#703D29" stroke-width="0.0477928"/>
<path d="M27.9723 14.2874C27.9365 14.2694 27.8982 14.2433 27.8724 14.2145C27.8053 14.1395 27.7605 14.0378 27.8122 13.8827C27.86 13.7392 28.0905 13.3368 28.1018 13.0582C28.1191 12.6326 27.9553 12.3814 27.6993 12.2834M29.3882 14.1048C29.3197 14.1041 29.2383 14.0846 29.1499 13.9915C29.1296 13.9701 29.1057 13.9418 29.0964 13.9163L29.3882 14.1048Z" stroke="#703D29" stroke-width="0.0477928"/>
<path d="M30.653 23.5941C30.6661 23.6261 30.6982 23.6574 30.6982 23.6574C30.7471 23.7391 30.9374 23.8828 31.1104 23.885C31.3966 23.8888 31.4645 23.6886 31.4718 23.6441C31.508 23.4258 31.4333 23.366 31.3213 23.3045C31.3213 23.3045 31.2553 23.2704 31.1763 23.2836M28.0803 12.963L28.0703 13.123L28.027 13.2864L27.9436 13.5098L27.8803 13.6531L27.8136 13.7965L27.7803 13.8965L27.7669 13.9699L27.7769 14.0399L28.0803 12.963Z" stroke="#703D29" stroke-width="0.0477928" stroke-linecap="round"/>
<path d="M21.215 17.4542C21.2517 17.4799 21.2819 17.5137 21.3033 17.5531M19.7299 22.6388C19.6288 22.6647 19.534 22.6653 19.4511 22.6404C19.2369 22.5762 19.0634 22.371 19.1518 22.116L19.7299 22.6388ZM20.1647 19.7083C20.1861 19.7298 20.1931 19.7619 20.1963 19.7891C20.2294 20.0667 19.9862 20.1476 19.813 20.1024C19.7272 20.08 19.625 20.0004 19.5849 19.93C19.5547 19.8769 19.5386 19.8168 19.5383 19.7557L20.1647 19.7083ZM21.2072 17.9651C21.248 18.002 21.28 18.0476 21.3007 18.0986L21.2072 17.9651Z" stroke="#703D29" stroke-width="0.0477928"/>
<path d="M21.3123 17.8096C21.2889 17.8672 21.2485 17.9295 21.1946 17.9896C21.0495 18.1517 20.8032 18.2894 20.5305 18.2928C20.3824 18.2946 20.2288 18.2637 20.0742 18.1603C19.909 18.0498 19.8012 17.8926 19.7654 17.7383" stroke="#703D29" stroke-width="0.0477928" stroke-linecap="round"/>
<path d="M21.1283 16.6567C21.2121 16.7279 21.2765 16.8187 21.3074 16.9131" stroke="#703D29" stroke-width="0.0477928"/>
<path d="M21.3099 17.2585C21.2429 17.48 21.0431 17.754 20.6575 17.8516C20.4733 17.8983 20.2361 17.84 20.1552 17.771" stroke="#703D29" stroke-width="0.0477928" stroke-linecap="round"/>
<path d="M19.9637 17.2067C19.9839 17.4062 20.1174 17.5558 20.3705 17.5606C20.7264 17.5673 20.9428 17.0486 20.6265 16.6844" stroke="#703D29" stroke-width="0.0477928"/>
<path d="M20.187 19.408C20.5051 19.3698 20.6844 19.1328 20.6488 18.8555C20.6217 18.6443 20.4279 18.4818 20.2961 18.4724M19.1628 18.9451C19.2148 19.0103 19.276 19.0691 19.3386 19.1212C19.4655 19.2268 19.6152 19.3198 19.7876 19.3707L19.1628 18.9451Z" stroke="#703D29" stroke-width="0.0477928" stroke-linecap="round"/>
<path d="M20.7061 16.1139C20.8441 16.1088 20.9225 16.2341 20.9212 16.3397" stroke="#703D29" stroke-width="0.0477928"/>
<path d="M31.9628 17.0034C32.0928 17.1816 32.0077 17.5328 31.6539 17.5394C31.5157 17.5421 31.3909 17.4655 31.3179 17.3494M20.6736 14.2201C20.7491 14.4178 20.8965 14.5724 21.0542 14.6607L20.6736 14.2201Z" stroke="#703D29" stroke-width="0.0477928" stroke-linecap="round"/>
<path d="M30.6815 14.6772V15.8725" stroke="#703D29" stroke-width="0.0477928"/>
<path d="M30.1005 13.2937C30.3047 13.1828 30.4622 13.2033 30.5786 13.3649C30.7051 13.5405 30.7232 13.7742 30.6953 13.9111C30.6539 14.1144 30.5952 14.1988 30.4335 14.3463M20.2451 17.1898C20.3543 17.2688 20.4945 17.1354 20.4402 16.9937C20.4036 16.898 20.2677 16.7949 20.0795 16.9228C19.8715 17.0642 19.9289 17.5102 20.3279 17.5177C20.6838 17.5244 20.9002 17.0056 20.5839 16.6415C20.2797 16.2913 19.7255 16.3732 19.3641 16.6607C19.2103 16.783 18.9199 17.1035 18.8295 17.5403C18.8015 17.6762 18.7833 17.7878 18.7854 17.9243C18.7868 18.0142 18.7951 18.1149 18.822 18.2405C18.8764 18.4942 18.9658 18.6801 19.0547 18.8092C19.0888 18.8587 19.1199 18.8998 19.1533 18.9332C19.2153 18.9952 19.2338 19.0279 19.2964 19.08C19.5009 19.2502 19.7644 19.3836 20.087 19.3699C20.4408 19.3548 20.6442 19.1064 20.6065 18.8127C20.57 18.528 20.2826 18.3864 20.0945 18.5191C19.9665 18.6094 19.9209 18.8892 20.1472 18.9557C20.2752 18.9934 20.3881 18.8315 20.2978 18.7374L20.2451 17.1898Z" stroke="#703D29" stroke-width="0.0477928" stroke-linecap="round"/>
<path d="M30.5934 13.3843C30.8268 13.23 31.0796 13.2955 31.2183 13.501C31.32 13.6516 31.346 13.7776 31.3388 13.964C31.3265 14.2836 31.1265 14.537 30.9059 14.6605" stroke="#703D29" stroke-width="0.0477928" stroke-linecap="round"/>
<path d="M31.6926 13.9227C31.8846 13.9377 32.039 14.1116 32.039 14.3143C32.039 14.6041 31.958 14.7299 31.7264 15.0183C31.5269 15.2667 30.9283 15.7035 30.9435 16.1213C30.9491 16.2793 31.0823 16.4282 31.1972 16.4366" stroke="#703D29" stroke-width="0.0477928"/>
<path d="M31.7154 17.1898C31.6062 17.2688 31.4669 17.1412 31.5272 17.0056C31.5688 16.9121 31.6928 16.7949 31.881 16.9228C32.0889 17.0642 32.0316 17.5102 31.6326 17.5177C31.2767 17.5244 31.0362 17.019 31.3766 16.6415C31.6873 16.297 32.2634 16.3644 32.6248 16.6519C32.7786 16.7743 33.088 17.1103 33.1544 17.5513C33.2346 18.0849 33.2243 18.7412 32.6732 19.1454C32.4516 19.3079 32.1445 19.3818 31.8734 19.37C31.5196 19.3545 31.3163 19.1064 31.3539 18.8128C31.3904 18.528 31.6646 18.4076 31.8659 18.5191C32.0751 18.6349 32.0386 18.929 31.8132 18.9558C31.6808 18.9715 31.5723 18.8315 31.6627 18.7374" stroke="#703D29" stroke-width="0.0477928" stroke-linecap="round"/>
<path d="M31.527 17.0058C31.5857 16.7417 31.8119 16.7171 31.9946 16.7198C32.4932 16.7271 32.838 17.3185 32.8437 17.8905C32.851 18.6131 32.537 19.0387 32.0089 19.0613C31.8722 19.0671 31.6368 19.0022 31.6327 18.8354" stroke="#703D29" stroke-width="0.0477928"/>
<path d="M31.834 16.8876C32.3598 17.0045 32.5443 17.4782 32.5443 17.9303C32.5443 18.299 32.5078 18.8029 31.7902 18.9802" stroke="#703D29" stroke-width="0.0477928" stroke-linecap="square"/>
<path d="M32.7012 21.9565C32.7109 21.9051 32.7067 21.8519 32.689 21.8026C32.6714 21.7533 32.641 21.7096 32.6009 21.6759C32.5609 21.6422 32.5125 21.6198 32.4609 21.6109C32.4093 21.602 32.3563 21.6069 32.3073 21.6253C32.2582 21.6436 32.2149 21.6747 32.1818 21.7152C32.1487 21.7558 32.127 21.8044 32.1188 21.8562C32.1107 21.9079 32.1164 21.9609 32.1355 22.0096C32.1545 22.0584 32.1862 22.1012 32.2273 22.1337" stroke="#703D29" stroke-width="0.0477928"/>
<path d="M32.0233 22.754C31.7754 22.5914 31.3049 22.3782 30.8794 22.588C30.7216 22.6659 30.6159 22.7622 30.5562 22.9192C30.4487 23.202 30.5688 23.5136 30.6912 23.6431C30.7552 23.7109 30.8946 23.8404 31.0676 23.8426C31.3538 23.8464 31.4218 23.6462 31.4291 23.6017C31.463 23.3947 31.3425 23.3118 31.2785 23.2892C31.2294 23.2719 31.0697 23.2764 31.0358 23.3892C31.0245 23.4269 31.0225 23.4925 31.0526 23.5415M31.6466 21.5086C31.7455 21.6554 31.8653 21.8187 32.1183 21.9559L31.6466 21.5086Z" stroke="#703D29" stroke-width="0.0477928" stroke-linecap="round"/>
<path d="M27.5626 26.73C27.6417 26.8919 27.5518 26.9733 27.4422 26.986C27.2803 27.0048 27.1937 26.8768 27.1824 26.7601C27.1641 26.5709 27.3236 26.3994 27.5137 26.4025C27.6849 26.4052 27.8243 26.5157 27.8897 26.6677C27.9134 26.7229 27.9244 26.7837 27.9278 26.8467C27.9342 26.9662 27.8922 27.0763 27.8202 27.1602C27.7234 27.2728 27.5726 27.3409 27.412 27.3474C27.0925 27.3602 26.8436 27.0613 26.8436 26.7563C26.8436 26.1729 27.709 25.8546 28.052 25.7727C28.4737 25.6721 28.7302 25.6344 29.4074 25.5968C29.6784 25.5818 29.8769 25.5894 30.1754 25.5585C30.4425 25.5308 30.582 25.5178 30.8568 25.4538C31.1997 25.3739 31.5194 25.2316 31.8055 24.9719C32.0258 24.7718 32.1518 24.6293 32.2538 24.3545C32.3418 24.1173 32.3823 23.6477 32.1594 23.3003C31.9623 22.9933 31.6888 22.8339 31.3763 22.7888C31.094 22.7479 30.8465 22.8697 30.6987 23.1498C30.6271 23.2854 30.6492 23.512 30.7058 23.6166C30.7547 23.707 30.8945 23.8403 31.0676 23.8425C31.3537 23.8463 31.4217 23.6461 31.429 23.6016C31.4629 23.3945 31.3424 23.3117 31.2784 23.2891C31.2293 23.2718 31.0696 23.2762 31.0357 23.3891C31.0244 23.4268 31.0224 23.4924 31.0525 23.5413" stroke="#703D29" stroke-width="0.0477928" stroke-linecap="round"/>
<path d="M27.3162 25.8032C26.9493 25.9658 26.6804 26.0876 26.4524 26.4477C26.3808 26.5606 26.362 26.7225 26.362 26.8166C26.362 27.0199 26.4448 27.2495 26.6143 27.3926C26.7715 27.5254 26.9267 27.5657 27.1187 27.5469C27.2643 27.5327 27.4011 27.4265 27.4237 27.3512" stroke="#703D29" stroke-width="0.0477928" stroke-linecap="round"/>
<path d="M30.9396 18.8391C30.768 18.8963 30.646 19.158 30.646 19.4075C30.646 19.6937 30.7853 19.8706 30.9472 19.9722" stroke="#703D29" stroke-width="0.0477928"/>
<path d="M31.128 19.7693C30.8193 20.1533 30.6555 20.3812 30.6461 20.8385C30.6373 21.2676 30.7741 21.5613 31.0301 21.87" stroke="#703D29" stroke-width="0.0477928" stroke-linecap="round"/>
<path d="M29.4826 13.3858L29.5091 13.3466C29.6371 13.1583 29.8632 13.1088 30.0287 13.2336C30.2282 13.3842 30.2785 13.6405 30.2244 13.9113C30.1905 14.0807 30.0756 14.2218 29.9181 14.3239" stroke="#703D29" stroke-width="0.0477928"/>
<path d="M21.86 13.2937C21.6642 13.2034 21.503 13.2208 21.3818 13.3649C21.2425 13.5306 21.2373 13.7742 21.2651 13.9111C21.3065 14.1144 21.3653 14.1988 21.527 14.3463" stroke="#703D29" stroke-width="0.0477928" stroke-linecap="round"/>
<path d="M21.3665 13.3843C21.1331 13.23 20.8803 13.2955 20.7416 13.501C20.6399 13.6516 20.6139 13.7776 20.6211 13.964C20.6334 14.2836 20.8334 14.537 21.0541 14.6605" stroke="#703D29" stroke-width="0.0477928"/>
<path d="M20.693 13.5906C20.4398 13.6215 20.2378 13.836 20.2378 14.0958C20.2378 14.4308 20.3203 14.5663 20.5085 14.8223C20.6972 15.0789 21.3141 15.5489 21.3141 16.0835C21.3141 16.4073 21.2238 16.6143 20.9904 16.7197C20.8399 16.7877 20.6639 16.7141 20.5838 16.6418C20.388 16.4648 20.4663 16.1545 20.6704 16.1174C20.9188 16.0722 20.9655 16.4634 20.7231 16.4374" stroke="#703D29" stroke-width="0.0477928"/>
<path d="M20.2674 13.9227C20.0754 13.9377 19.8864 14.103 19.8864 14.3057C19.8864 14.5955 20.0019 14.7299 20.2335 15.0182C20.433 15.2667 20.9967 15.6948 20.9816 16.1127C20.976 16.2707 20.8698 16.4639 20.7643 16.4413" stroke="#703D29" stroke-width="0.0477928"/>
<path d="M19.8156 19.7465C19.9059 19.5281 20.1393 19.626 20.1537 19.7465C20.1868 20.024 19.9435 20.1079 19.7704 20.0627C19.6846 20.0404 19.6218 19.9863 19.5817 19.916C19.5365 19.8366 19.5228 19.7329 19.5522 19.634C19.5655 19.5891 19.5843 19.5513 19.6164 19.509C19.6486 19.4665 19.682 19.4373 19.7132 19.4175C19.7798 19.3749 19.8524 19.3707 19.9661 19.3707C20.3878 19.3707 20.7567 19.8689 20.8807 20.3865C20.9215 20.5569 20.9775 20.937 20.8998 21.2975C20.817 21.6815 20.651 21.9474 20.4563 22.1491C20.3509 22.2582 20.2071 22.3554 20.021 22.4607C19.9636 22.4931 19.8118 22.5604 19.7064 22.5906C19.5981 22.6215 19.4964 22.6239 19.4082 22.5974C19.1941 22.5332 19.0566 22.3331 19.1681 22.073C19.2548 21.8706 19.5747 21.7719 19.7177 22.0203C19.7298 22.0415 19.7487 22.0874 19.7481 22.1371C19.7474 22.2033 19.7198 22.2832 19.6725 22.3134C19.5638 22.3825 19.3898 22.3629 19.3979 22.1709" stroke="#703D29" stroke-width="0.0477928" stroke-linecap="round"/>
<path d="M19.2592 21.9565C19.2496 21.9051 19.2538 21.852 19.2714 21.8026C19.289 21.7533 19.3194 21.7096 19.3595 21.6759C19.3996 21.6422 19.4479 21.6198 19.4995 21.6109C19.5511 21.602 19.6041 21.607 19.6532 21.6253C19.7022 21.6436 19.7455 21.6747 19.7786 21.7152C19.8117 21.7558 19.8335 21.8044 19.8416 21.8562C19.8497 21.9079 19.844 21.9609 19.8249 22.0096C19.8059 22.0584 19.7742 22.1012 19.7332 22.1338M19.4882 22.3395C19.5673 22.3701 19.6106 22.3659 19.7089 22.3222C19.7493 22.3043 19.7955 22.2766 19.8497 22.2458C20.0424 22.1363 20.2713 21.9638 20.4859 21.561C20.5433 21.4541 20.5868 21.3403 20.6153 21.2224C20.6358 21.1383 20.6499 21.0553 20.653 20.97C20.6583 20.8248 20.6426 20.6731 20.6064 20.4994C20.5465 20.2124 20.4744 20.0566 20.2976 19.8142C20.2107 19.6949 20.1357 19.6221 19.9739 19.6184L19.4882 22.3395Z" stroke="#703D29" stroke-width="0.0477928"/>
<path d="M19.374 21.6626C19.3962 21.5284 19.5102 21.4263 19.6475 21.4263C19.8007 21.4263 19.9249 21.5535 19.9249 21.7105C19.9251 21.784 19.8971 21.8548 19.8467 21.9083" stroke="#703D29" stroke-width="0.0477928"/>
<path d="M19.9134 21.6476C20.1656 21.4669 20.3817 21.1219 20.384 20.7143C20.3857 20.4008 20.2598 20.0818 20.1129 19.9576" stroke="#703D29" stroke-width="0.0477928"/>
<path d="M20.3139 21.5086C20.2149 21.6554 20.0952 21.8187 19.8422 21.9559" stroke="#703D29" stroke-width="0.0477928" stroke-linecap="round"/>
<path d="M21.0653 22.5884C20.9952 22.4234 20.8557 22.347 20.6286 22.3228C20.4029 22.2987 20.2074 22.3608 20.0074 22.4683C19.6172 22.6782 19.3995 22.9039 19.2545 23.3225C19.2177 23.4288 19.1871 23.5891 19.1914 23.7593C19.1982 24.0307 19.2671 24.3273 19.3411 24.4708C19.4056 24.5959 19.5744 25.1484 20.5006 25.5297C21.041 25.7522 21.8709 25.8034 22.4432 25.826C23.2303 25.8571 23.9566 25.8863 24.3782 26.4058" stroke="#703D29" stroke-width="0.0477928"/>
<path d="M19.9366 22.754C20.1846 22.5914 20.6551 22.3782 21.0806 22.588C21.2384 22.6659 21.3441 22.7622 21.4038 22.9192C21.5113 23.202 21.3911 23.5136 21.2688 23.6431C21.2048 23.7109 21.0654 23.8404 20.8923 23.8426C20.6062 23.8464 20.5382 23.6462 20.5309 23.6017C20.497 23.3946 20.6175 23.3118 20.6815 23.2892C20.7306 23.2719 20.8903 23.2764 20.9242 23.3892C20.9355 23.4269 20.9375 23.4925 20.9074 23.5415" stroke="#703D29" stroke-width="0.0477928" stroke-linecap="round"/>
<path d="M20.9225 23.4997C20.9451 23.4169 20.9335 23.33 20.8585 23.2475C20.7832 23.1647 20.5837 23.0856 20.4142 23.1797C20.3576 23.2112 20.2865 23.2527 20.2223 23.3379C20.1979 23.3701 20.1569 23.4221 20.1357 23.4583C20.0843 23.546 20.0633 23.6177 20.0532 23.6465C19.867 24.1757 20.17 24.7376 20.5498 24.9792C20.8811 25.1901 21.2199 25.2503 21.6378 25.2879C21.8312 25.3053 21.9408 25.3091 22.1348 25.3181C22.2909 25.3253 22.4257 25.3227 22.5527 25.3212C22.6571 25.3199 22.7562 25.3204 22.8575 25.3181C23.0229 25.3142 23.1941 25.3103 23.4035 25.3256C23.6238 25.3416 23.7895 25.3473 23.9757 25.3783C24.0973 25.3986 24.2399 25.4181 24.3894 25.4517C24.4342 25.4617 24.4797 25.4699 24.5254 25.4837C24.5561 25.493 24.5864 25.5024 24.6165 25.5115C24.8862 25.5938 25.1484 25.6941 25.3553 25.8273C25.4192 25.8685 25.4928 25.9082 25.543 25.9584C25.5815 25.9969 25.6143 26.0192 25.6458 26.0503C25.7906 26.1927 25.9387 26.347 25.9733 26.5558C25.9797 26.5943 25.9797 26.6346 25.9797 26.6772C25.9797 26.8126 25.8694 26.9971 25.5719 27.0574" stroke="#703D29" stroke-width="0.0477928"/>
<path d="M24.3973 26.73C24.3182 26.8919 24.4081 26.9733 24.5178 26.986C24.6796 27.0048 24.7662 26.8768 24.7775 26.7601C24.7959 26.5709 24.6364 26.3994 24.4462 26.4025C24.275 26.4052 24.1356 26.5157 24.0703 26.6677C24.0465 26.7229 24.0355 26.7837 24.0321 26.8467C24.0257 26.9662 24.0677 27.0763 24.1397 27.1602C24.2364 27.2728 24.3873 27.3409 24.5479 27.3474C24.8675 27.3602 25.1164 27.0613 25.1164 26.7563C25.1164 26.1729 24.2509 25.8546 23.9079 25.7727C23.4862 25.6721 23.2297 25.6344 22.5526 25.5968C22.2815 25.5818 22.083 25.5894 21.7846 25.5585C21.5175 25.5308 21.378 25.5178 21.1031 25.4538C20.7601 25.3739 20.4405 25.2316 20.1544 24.9719C19.9341 24.7718 19.8081 24.6293 19.706 24.3545C19.6181 24.1173 19.5776 23.6477 19.8005 23.3003C19.9976 22.9933 20.2711 22.8339 20.5836 22.7888C20.8659 22.7479 21.1134 22.8697 21.2613 23.1498C21.3328 23.2854 21.3108 23.512 21.2541 23.6166C21.2052 23.707 21.0654 23.8403 20.8923 23.8425C20.6062 23.8463 20.5382 23.6461 20.5309 23.6016C20.497 23.3945 20.6175 23.3117 20.6815 23.2891C20.7306 23.2718 20.8903 23.2762 20.9242 23.3891C20.9355 23.4268 20.9375 23.4924 20.9074 23.5413" stroke="#703D29" stroke-width="0.0477928"/>
<path d="M22.4774 13.3858C22.4686 13.3727 22.4597 13.3596 22.4509 13.3466C22.3229 13.1583 22.0968 13.1088 21.9313 13.2336C21.7318 13.3842 21.6815 13.6405 21.7356 13.9113C21.7695 14.0807 21.8844 14.2218 22.0418 14.3239" stroke="#703D29" stroke-width="0.0477928" stroke-linecap="round"/>
<path d="M29.5504 13.9567C29.2454 14.288 28.9405 14.3937 28.4849 14.4084C28.3427 14.413 28.0708 14.3633 27.9127 14.2507C27.8111 14.1783 27.6981 14.0546 27.7696 13.84C27.8174 13.6965 28.0479 13.2941 28.0592 13.0155C28.0764 12.5898 27.9127 12.3566 27.6567 12.2663C27.1834 12.0992 26.6753 12.567 26.3692 12.6691C26.2091 12.7224 26.1275 12.7288 25.9814 12.7293C25.8353 12.7288 25.7508 12.7225 25.5907 12.6691C25.2846 12.567 24.7765 12.0992 24.3032 12.2662C24.0472 12.3566 23.8835 12.5898 23.9007 13.0155C23.912 13.294 24.1424 13.6965 24.1903 13.84C24.2618 14.0545 24.1488 14.1783 24.0472 14.2506C23.8891 14.3633 23.6172 14.413 23.4749 14.4084C23.0194 14.3937 22.7144 14.288 22.4095 13.9567" stroke="#703D29" stroke-width="0.0477928"/>
<path d="M24.2985 25.67C24.3589 25.6936 24.3132 25.6558 24.6953 25.8251C25.0622 25.9878 25.3226 26.1302 25.5506 26.4903C25.6221 26.6032 25.641 26.7651 25.641 26.8592C25.641 26.9199 25.6336 26.9829 25.6188 27.0452" stroke="#703D29" stroke-width="0.0477928" stroke-linecap="round"/>
<path d="M24.3232 27.3062C24.3999 27.3442 24.4837 27.3654 24.5692 27.3687C24.8888 27.3815 25.1377 27.0825 25.1377 26.7776C25.1377 26.5662 25.0226 26.3881 24.8614 26.2449" stroke="#703D29" stroke-width="0.0477928"/>
<path d="M24.3924 26.7295C24.3152 26.9015 24.4252 26.9946 24.5348 27.0073C24.6967 27.0262 24.7878 26.8981 24.7991 26.7814C24.8114 26.6545 24.7436 26.5311 24.6403 26.4674" stroke="#703D29" stroke-width="0.0477928" stroke-linecap="round"/>
<path d="M31.3173 13.5935C31.5603 13.5935 31.7722 13.8639 31.7722 14.1415C31.7722 14.4613 31.6021 14.6571 31.4774 14.8051C31.3771 14.9242 31.2684 15.0309 31.1393 15.1609" stroke="#703D29" stroke-width="0.0477928"/>
<path d="M19.4907 21.8737C19.5845 21.872 19.678 21.9353 19.7392 22.0416C19.7513 22.0627 19.7702 22.1086 19.7696 22.1583C19.7688 22.2246 19.7398 22.2954 19.6925 22.3255C19.5838 22.3948 19.3907 22.365 19.3988 22.173M31.0292 13.3373C31.1118 13.3756 31.1844 13.4404 31.2397 13.5222C31.3413 13.6728 31.3672 13.7988 31.3601 13.9853C31.348 14.3049 31.1181 14.5262 30.9124 14.6612L31.0292 13.3373ZM30.5513 13.3373C30.5681 13.3516 30.5842 13.368 30.5997 13.3864C30.739 13.5521 30.7498 13.7969 30.7164 13.9327C30.6663 14.1367 30.5989 14.2246 30.4333 14.3466L30.5513 13.3373ZM30.0501 13.2535C30.2496 13.4041 30.309 13.6646 30.2428 13.9327C30.1956 14.1243 30.0752 14.2391 29.925 14.3306L30.0501 13.2535ZM30.7668 17.4387C30.7906 17.5087 30.83 17.5331 30.8797 17.585C30.9876 17.6981 31.1458 17.7954 31.3457 17.8515C31.5303 17.9035 31.6967 17.8645 31.8236 17.7853L30.7668 17.4387Z" stroke="#703D29" stroke-width="0.0477928" stroke-linecap="round"/>
<path d="M19.6587 21.4282C19.8119 21.4282 19.946 21.575 19.946 21.732C19.9463 21.8055 19.9183 21.8763 19.8678 21.9298M20.0737 19.3814C20.4467 19.451 20.8058 19.9009 20.9233 20.3917C20.9641 20.5622 21.0202 20.9424 20.9425 21.3028C20.8597 21.6868 20.6937 21.9526 20.4989 22.1543C20.4528 22.2021 20.3992 22.2477 20.338 22.2926L20.2584 22.3465L20.0737 19.3814Z" stroke="#703D29" stroke-width="0.0477928"/>
<path d="M19.5551 21.6064C19.7147 21.6064 19.8666 21.7602 19.8666 21.9234C19.8666 22.0174 19.8227 22.101 19.7544 22.1552" stroke="#703D29" stroke-width="0.0477928"/>
<path d="M21.3016 21.2278C21.278 21.334 21.2411 21.4368 21.192 21.5339C21.1304 21.6564 21.0229 21.7928 20.9232 21.8851M21.0184 20.0012C21.1649 20.198 21.2617 20.3673 21.3067 20.5857L21.0184 20.0012Z" stroke="#703D29" stroke-width="0.0477928" stroke-linecap="round"/>
<path d="M21.0416 18.8546C21.183 18.9651 21.2681 19.0793 21.308 19.2162" stroke="#703D29" stroke-width="0.0477928"/>
<path d="M20.3642 17.535L20.5273 17.4921L20.6239 17.4191L20.6861 17.3311L20.7398 17.1938L20.7613 17.0822M21.3118 18.4865C21.2747 18.6154 21.1905 18.7129 21.0568 18.8348L21.3118 18.4865Z" stroke="#703D29" stroke-width="0.0477928" stroke-linecap="round"/>
<path d="M20.0339 16.9608C19.9825 16.9736 19.9172 16.9927 19.8488 17.0253C19.7571 17.069 19.6598 17.1369 19.5822 17.2469C19.4923 17.3742 19.4399 17.5513 19.4074 17.7061C19.3932 17.7739 19.3763 17.9885 19.4197 18.2102C19.4517 18.3739 19.5193 18.5262 19.594 18.6367C19.6208 18.6762 19.6452 18.7103 19.6725 18.7377C19.7704 18.8356 19.8608 18.8958 20.0113 18.8657" stroke="#703D29" stroke-width="0.0477928"/>
<path d="M20.9477 16.2427C20.9212 16.3399 20.869 16.4602 20.7165 16.4471" stroke="#703D29" stroke-width="0.0477928" stroke-linecap="round"/>
<path d="M20.3904 16.9022C20.2439 16.759 19.9337 16.7218 19.6254 16.9168C19.5857 16.9419 19.5461 16.9741 19.5069 17.0068C19.4644 17.0422 19.4306 17.0828 19.3979 17.127C19.3623 17.175 19.3186 17.2568 19.2922 17.311C19.2559 17.3858 19.2409 17.4349 19.2209 17.5116C19.1646 17.7273 19.1648 17.9278 19.1715 17.985C19.18 18.0582 19.187 18.1255 19.1989 18.1875C19.2399 18.3991 19.3025 18.5477 19.3672 18.655C19.4353 18.768 19.6048 19.0274 19.9511 19.0616C20.0872 19.0751 20.3197 19.0127 20.3272 18.8357" stroke="#703D29" stroke-width="0.0477928"/>
<path d="M29.3247 13.7654C29.3479 13.6404 29.4986 13.6163 29.5551 13.6901C29.6423 13.8038 29.5847 13.9991 29.4074 14.0545C29.3472 14.0734 29.2079 14.0658 29.1175 13.9491C29.0443 13.8545 29.0499 13.7374 29.0772 13.6442C29.0949 13.584 29.1433 13.5314 29.2079 13.4823C29.4137 13.3257 29.7462 13.3619 29.8554 13.6254C29.9962 13.9653 29.6898 14.2202 29.4074 14.4122C29.0519 14.6539 28.6469 14.6979 28.3419 14.6945C27.6492 14.687 27.1222 14.3557 26.7796 14.1675C26.6998 14.1236 26.6176 14.1326 26.5763 14.1825C26.5297 14.2389 26.5304 14.3299 26.5951 14.3896" stroke="#703D29" stroke-width="0.0477928" stroke-linecap="round"/>
<path d="M30.7755 17.9738C30.5116 18.261 30.7543 18.7541 30.9516 18.8656C31.0198 18.9187 31.049 18.8905 31.1036 18.9225M29.4642 13.6482C29.5376 13.6516 29.5573 13.6802 29.5798 13.7095C29.667 13.8232 29.6033 14.0186 29.426 14.074L29.4642 13.6482Z" stroke="#703D29" stroke-width="0.0477928" stroke-linecap="round"/>
<path d="M30.7895 17.4247C30.703 17.4849 30.6725 17.5526 30.6691 17.6702C30.6663 17.7686 30.6834 17.8778 30.7757 17.9739C30.9197 18.1236 31.2012 18.254 31.474 18.2574C31.622 18.2592 31.7757 18.2283 31.9302 18.1249C32.0955 18.0144 32.1825 17.8652 32.2201 17.7183L30.7895 17.4247ZM30.6419 22.3933C30.6419 22.3942 30.6414 22.509 30.6316 22.5815C30.603 22.7928 30.5693 22.9144 30.4735 23.1048C30.38 23.2906 30.3053 23.3881 30.1573 23.534C30.0079 23.6812 29.9043 23.7487 29.7168 23.8427C29.5341 23.9342 29.4191 23.9633 29.2198 24.0083C29.0207 24.0534 28.9042 24.0631 28.7003 24.0723C28.5133 24.0808 28.4072 24.0729 28.2205 24.06C28.0206 24.0462 27.9097 24.0184 27.7102 24.0008C27.5453 23.9863 27.4523 23.973 27.2868 23.9734C27.1168 23.9739 27.0193 23.9749 26.8518 24.0046C26.6957 24.0322 26.6072 24.0542 26.4603 24.1138C26.257 24.1961 26.0274 24.3396 25.9784 24.4036C25.9295 24.3396 25.6998 24.1961 25.4965 24.1138C25.3496 24.0542 25.2611 24.0322 25.105 24.0046C24.9375 23.975 24.8401 23.9738 24.67 23.9734C24.5045 23.9729 24.4114 23.9863 24.2466 24.0008C24.0471 24.0183 23.9362 24.0462 23.7363 24.06C23.5496 24.0729 23.4435 24.0809 23.2565 24.0723C23.0526 24.0631 22.9361 24.0533 22.737 24.0084C22.5378 23.9633 22.4227 23.9343 22.2401 23.8427C22.0525 23.7487 21.949 23.6813 21.7996 23.534C21.6515 23.388 21.5768 23.2906 21.4834 23.1048C21.3875 22.9144 21.3539 22.7928 21.3252 22.5815C21.3154 22.5089 21.3149 22.3942 21.3149 22.3933V14.6932H30.6387V22.3933H30.6419H30.6419Z" stroke="#703D29" stroke-width="0.0477928"/>
<path d="M20.5617 23.4934C20.5617 23.4433 20.5817 23.3951 20.6171 23.3597C20.6526 23.3242 20.7007 23.3042 20.7509 23.3042C20.8011 23.3042 20.8492 23.3242 20.8847 23.3597C20.9202 23.3951 20.9401 23.4433 20.9401 23.4934C20.9401 23.5436 20.9202 23.5917 20.8847 23.6272C20.8492 23.6627 20.8011 23.6826 20.7509 23.6826C20.7007 23.6826 20.6526 23.6627 20.6171 23.6272C20.5817 23.5917 20.5617 23.5436 20.5617 23.4934ZM19.4001 22.1565C19.4001 22.0629 19.4599 21.9871 19.5337 21.9871C19.6075 21.9871 19.6674 22.0629 19.6674 22.1565C19.6674 22.25 19.6075 22.3259 19.5337 22.3259C19.4599 22.3259 19.4001 22.25 19.4001 22.1565Z" fill="#C7B37F" stroke="#C7B37F" stroke-width="0.0248407"/>
<path d="M20.0601 18.7984C20.0601 18.7215 20.1178 18.6593 20.1891 18.6593C20.2604 18.6593 20.3182 18.7215 20.3182 18.7984C20.3182 18.8752 20.2604 18.9375 20.1891 18.9375C20.1178 18.9375 20.0601 18.8752 20.0601 18.7984ZM22.3776 13.8327C22.3694 13.7556 22.4157 13.6876 22.4809 13.6807C22.5462 13.6739 22.6057 13.7308 22.6138 13.8079C22.622 13.885 22.5757 13.9531 22.5104 13.9599C22.4452 13.9667 22.3857 13.9098 22.3776 13.8327Z" fill="#C7B37F"/>
<path d="M21.0048 19.9068C20.9806 19.8818 20.9674 19.8672 20.9427 19.8428C20.9168 19.8172 20.9027 19.8022 20.8749 19.7788C20.848 19.7561 20.8308 19.7457 20.8027 19.7245M19.9085 19.5818C19.8807 19.594 19.8654 19.6039 19.8445 19.6259C19.8246 19.6469 19.8205 19.6545 19.805 19.6888C19.7937 19.7138 19.7907 19.7429 19.7866 19.7787L19.9085 19.5818ZM20.1434 21.8025C20.1697 21.7706 20.1855 21.7535 20.2107 21.7208C20.2318 21.6936 20.2442 21.6787 20.2627 21.6496C20.2794 21.6235 20.2868 21.6076 20.3015 21.5804C20.3222 21.5419 20.3325 21.5195 20.3523 21.4806L20.1434 21.8025ZM20.2567 22.5351C20.2119 22.5557 20.1854 22.5648 20.1419 22.5878C20.1088 22.6054 20.0908 22.6166 20.0591 22.6364C20.0216 22.6598 20.0006 22.6735 19.9649 22.6997C19.9278 22.7269 19.9087 22.7447 19.8727 22.7734L20.2567 22.5351Z" stroke="#C7B37F" stroke-width="0.0477928" stroke-linecap="round"/>
<path d="M21.0344 18.9006C20.9984 18.9166 20.9795 18.9293 20.9421 18.9416C20.8993 18.9557 20.8702 18.9631 20.8288 18.965" stroke="#C7B37F" stroke-width="0.0477928"/>
<path d="M21.7031 13.9683C21.7219 14.0138 21.7276 14.0418 21.7513 14.085C21.7722 14.1231 21.7866 14.1435 21.8142 14.1772C21.8493 14.2202 21.8721 14.2427 21.9158 14.277C21.9666 14.3169 22.0026 14.3286 22.0581 14.3617M19.7672 17.6517C19.7795 17.6957 19.7822 17.7219 19.7988 17.7643C19.8196 17.8177 19.8371 17.8457 19.8688 17.8934C19.9019 17.9432 19.9225 17.9706 19.9651 18.0124C20.0026 18.0491 20.0264 18.0676 20.0702 18.0964C20.1119 18.1237 20.1389 18.1331 20.1828 18.1566L19.7672 17.6517ZM20.108 17.7132C20.1447 17.7329 20.1637 17.7477 20.2022 17.7637C20.237 17.7781 20.2577 17.7842 20.2944 17.7927C20.3441 17.8041 20.3733 17.8069 20.4243 17.8082C20.4795 17.8094 20.4958 17.8082 20.5655 17.7968L20.108 17.7132ZM21.108 14.7207C21.0476 14.6855 21.0107 14.6701 20.9532 14.6304C20.8948 14.59 20.8625 14.5653 20.8117 14.5156C20.775 14.4797 20.7545 14.4589 20.724 14.4177C20.6967 14.3809 20.6863 14.3568 20.6622 14.3179L21.108 14.7207ZM21.2295 13.9736C21.2484 14.0242 21.2539 14.0551 21.2781 14.1035C21.311 14.1691 21.3363 14.2035 21.3858 14.2578C21.4542 14.333 21.5123 14.3543 21.5932 14.4159L21.2295 13.9736Z" stroke="#C7B37F" stroke-width="0.0477928" stroke-linecap="round"/>
<path d="M27.0199 13.3533C27.016 13.225 26.8896 13.2117 26.8412 13.2117C26.7015 13.2117 26.6637 13.2989 26.4894 13.3924C26.2709 13.5098 26.1768 13.5359 25.9826 13.5376C25.7884 13.5359 25.6918 13.5098 25.4733 13.3924C25.299 13.2989 25.2697 13.2145 25.13 13.2145C25.0542 13.2145 24.9561 13.2801 24.9599 13.4001C24.9599 13.4001 24.9584 13.439 24.9644 13.4653C24.9667 13.4752 24.9787 13.4721 24.9825 13.4808C24.9807 13.4226 24.9925 13.3924 25.0212 13.3533C25.058 13.3031 25.1192 13.2897 25.1442 13.2897C25.2839 13.2897 25.3356 13.3794 25.51 13.473C25.7284 13.5903 25.8224 13.6164 26.0166 13.6181C26.2108 13.6164 26.3075 13.5903 26.526 13.473C26.7003 13.3794 26.7504 13.2823 26.8901 13.2823C26.9386 13.2823 26.9727 13.3136 26.9885 13.363C26.9983 13.3934 26.9928 13.4136 26.9953 13.4256C26.9966 13.4315 27.0037 13.4309 27.0053 13.4372C27.0102 13.4146 27.0215 13.4066 27.0199 13.3533Z" fill="#703D29" stroke="#703D29" stroke-width="0.013413"/>
<path d="M21.8067 24.1278C21.8459 24.0856 21.8756 24.1014 21.8829 24.082C21.8882 24.0676 21.8766 24.0661 21.8606 24.0602C21.8393 24.0522 21.8167 24.0476 21.7954 24.0397C21.7733 24.0314 21.7533 24.02 21.7312 24.0118C21.722 24.0084 21.7009 23.9976 21.6949 24.0137C21.6838 24.0432 21.7724 24.0407 21.7427 24.1202C21.7376 24.1338 21.725 24.1628 21.681 24.211L21.4805 24.4293C21.476 24.4343 21.4685 24.4451 21.4639 24.4433C21.4593 24.4416 21.46 24.4283 21.4599 24.4215L21.4628 24.1121C21.463 24.0533 21.468 24.0098 21.4775 23.9845C21.4908 23.9489 21.5317 23.9787 21.5403 23.9559C21.5457 23.9415 21.5415 23.9409 21.5172 23.9318C21.505 23.9272 21.4817 23.9223 21.4329 23.9041C21.407 23.8944 21.3824 23.8814 21.3573 23.872C21.3458 23.8677 21.3247 23.8521 21.3172 23.8725C21.3149 23.8784 21.3229 23.8872 21.3249 23.8889C21.353 23.909 21.3601 23.9223 21.3607 23.9602L21.3663 24.5235C21.3667 24.5642 21.3711 24.5755 21.3788 24.5784C21.3871 24.5815 21.3928 24.5778 21.4094 24.559L21.8067 24.1278V24.1278Z" fill="#703D29"/>
<path d="M22.0406 24.2149C22.0664 24.1331 22.1148 24.1824 22.124 24.1531C22.1273 24.1427 22.124 24.1398 22.1007 24.1325C22.0565 24.1185 22.0275 24.1132 21.9996 24.1044C21.9725 24.0958 21.9433 24.0828 21.913 24.0733C21.906 24.0711 21.8875 24.0624 21.8828 24.077C21.8733 24.1072 21.9685 24.1107 21.9438 24.1891L21.8134 24.6027C21.7876 24.6845 21.7389 24.6445 21.7294 24.6747C21.728 24.679 21.7276 24.6855 21.7346 24.6877C21.7548 24.6941 21.7892 24.7012 21.8226 24.7117C21.8831 24.7307 21.9107 24.7432 21.9394 24.7523C21.9572 24.7579 21.9652 24.7566 21.9682 24.7472C21.977 24.7196 21.8776 24.7319 21.911 24.6259L22.0406 24.2149ZM22.3205 24.2977C22.3359 24.2457 22.36 24.2529 22.3889 24.2614C22.4676 24.2848 22.4923 24.3618 22.4671 24.4467C22.452 24.4978 22.4329 24.5449 22.3145 24.5098C22.2911 24.5029 22.2622 24.4943 22.2687 24.4727L22.3205 24.2977ZM22.1058 24.6704C22.0735 24.7795 22.0187 24.7322 22.0106 24.7599C22.0054 24.7773 22.0226 24.7795 22.0311 24.7821C22.0701 24.7936 22.1101 24.8017 22.1522 24.8142C22.185 24.8239 22.205 24.8335 22.2182 24.8375C22.2362 24.8428 22.2439 24.8394 22.2463 24.8316C22.2555 24.8005 22.1678 24.8131 22.1952 24.7204L22.2396 24.5706C22.2486 24.5402 22.2457 24.5328 22.2871 24.545C22.326 24.5566 22.3377 24.5685 22.3444 24.612L22.3693 24.7682C22.3786 24.8256 22.3874 24.8876 22.449 24.9058C22.4802 24.915 22.5373 24.9113 22.5452 24.8844C22.5473 24.8775 22.5441 24.8709 22.5371 24.8688C22.5294 24.8665 22.52 24.8693 22.5122 24.867C22.5059 24.8652 22.4912 24.8608 22.4882 24.8449C22.4645 24.7191 22.4354 24.5739 22.4369 24.5687C22.4395 24.56 22.4644 24.5589 22.4929 24.5457C22.5217 24.5316 22.5538 24.5063 22.5702 24.4508C22.582 24.411 22.6026 24.2842 22.4319 24.2336C22.3796 24.2181 22.3256 24.2059 22.2733 24.1904C22.2242 24.1759 22.219 24.1706 22.1832 24.1599C22.1738 24.1572 22.1647 24.1592 22.1622 24.1679C22.153 24.1991 22.2474 24.1922 22.2187 24.2892L22.1058 24.6704ZM22.7432 24.857C22.7181 24.9615 22.6389 24.8979 22.6307 24.9321C22.626 24.9515 22.6397 24.9538 22.6539 24.9573C22.6855 24.9648 22.7125 24.9676 22.7654 24.9803C22.8184 24.993 22.8436 25.0028 22.8753 25.0104C22.8982 25.0159 22.9134 25.0223 22.9184 25.0012C22.9243 24.9767 22.817 24.9778 22.843 24.8698L22.9383 24.4727C22.9485 24.4306 22.9574 24.428 22.9898 24.4358L23.057 24.452C23.1488 24.4703 23.1001 24.5617 23.1317 24.5693C23.1523 24.5742 23.1518 24.5379 23.1527 24.527L23.1634 24.4441C23.1648 24.4351 23.1677 24.4228 23.1558 24.42C23.0823 24.4023 23.0285 24.3931 22.9131 24.3654C22.7976 24.3376 22.7455 24.3214 22.672 24.3038C22.6601 24.3009 22.6572 24.3132 22.6543 24.3218L22.6138 24.4347C22.6094 24.4458 22.6001 24.464 22.6167 24.4679C22.6523 24.4765 22.6562 24.3557 22.7455 24.3772L22.8119 24.3931C22.8443 24.4009 22.8512 24.4072 22.8411 24.4494L22.7432 24.857H22.7432ZM23.7039 24.612C23.7352 24.5635 23.7671 24.5741 23.771 24.5537C23.7737 24.5385 23.762 24.5391 23.7453 24.536C23.7229 24.5319 23.6998 24.5313 23.6774 24.5271C23.6543 24.5228 23.6325 24.5151 23.6094 24.5108C23.5998 24.509 23.5771 24.5021 23.5739 24.5189C23.5682 24.5501 23.655 24.5322 23.6395 24.6156C23.6369 24.6299 23.6296 24.6607 23.5945 24.7157L23.435 24.9655C23.4314 24.9713 23.4259 24.9831 23.4211 24.9822C23.4163 24.9813 23.4146 24.9682 23.4134 24.9615L23.3624 24.6562C23.3525 24.5983 23.3498 24.5546 23.3548 24.5279C23.3617 24.4907 23.4072 24.5129 23.4117 24.4889C23.4144 24.4738 23.4103 24.4739 23.3847 24.4692C23.3719 24.4668 23.3481 24.4661 23.2969 24.4566C23.2697 24.4515 23.2431 24.443 23.2168 24.4381C23.2048 24.4358 23.1814 24.4241 23.1774 24.4454C23.1762 24.4517 23.1856 24.4589 23.1879 24.4602C23.219 24.4753 23.2284 24.4871 23.2355 24.5242L23.3388 25.0782C23.3463 25.1181 23.3526 25.1285 23.3606 25.13C23.3694 25.1316 23.3744 25.127 23.3875 25.1055L23.7039 24.612ZM23.7489 25.1209C23.7494 25.143 23.7474 25.1499 23.7665 25.1586C23.811 25.178 23.8484 25.2062 23.8973 25.2144C24.0024 25.232 24.0894 25.165 24.1089 25.0483C24.1279 24.9351 24.0813 24.888 24.0026 24.8317C23.9039 24.7612 23.8617 24.7422 23.8717 24.6825C23.8817 24.6228 23.9235 24.595 23.9764 24.6039C24.1144 24.6269 24.0986 24.7947 24.1171 24.7978C24.1347 24.8007 24.1389 24.7904 24.1406 24.7705L24.1517 24.6497C24.1536 24.6289 24.1582 24.6159 24.1462 24.6139C24.1358 24.6122 24.1133 24.6231 24.1029 24.6214C24.0789 24.6173 24.051 24.5769 23.9852 24.566C23.8914 24.5502 23.8147 24.6144 23.7976 24.7168C23.7819 24.8104 23.8234 24.8531 23.8867 24.8984C24.0052 24.9833 24.0538 25.0034 24.0412 25.0791C24.0292 25.1504 23.9739 25.1851 23.9114 25.1746C23.8224 25.1597 23.7862 25.0703 23.7748 24.9805C23.7736 24.9683 23.7734 24.9601 23.7605 24.9579C23.7404 24.9546 23.7442 24.9818 23.7445 24.9946L23.7489 25.1209ZM24.9459 24.7834C24.972 24.7319 25.0049 24.7391 25.0065 24.7183C25.0077 24.703 24.9961 24.7048 24.9791 24.7035C24.9564 24.7017 24.9334 24.7035 24.9107 24.7018C24.8872 24.6999 24.8648 24.6945 24.8413 24.6927C24.8316 24.6919 24.8083 24.6873 24.8069 24.7044C24.8045 24.736 24.889 24.7091 24.8823 24.7938C24.8812 24.8082 24.8771 24.8396 24.848 24.898L24.7154 25.1631C24.7125 25.1692 24.7082 25.1815 24.7034 25.1812C24.6985 25.1807 24.6954 25.1678 24.6935 25.1613L24.611 24.863C24.595 24.8065 24.5878 24.7633 24.5899 24.7363C24.5929 24.6985 24.6405 24.7158 24.6424 24.6915C24.6436 24.6762 24.6395 24.6768 24.6136 24.6748C24.6006 24.6738 24.5768 24.6755 24.5249 24.6714C24.4973 24.6692 24.4701 24.6635 24.4433 24.6613C24.4312 24.6604 24.4066 24.6512 24.4049 24.6728C24.4044 24.6791 24.4145 24.6854 24.4169 24.6865C24.4494 24.6981 24.46 24.7089 24.471 24.7451L24.6316 25.2852C24.6432 25.3242 24.6506 25.3338 24.6587 25.3344C24.6676 25.3351 24.6721 25.33 24.6828 25.3073L24.9459 24.7834Z" fill="#703D29"/>
<path d="M25.0743 25.2211C25.0735 25.3133 24.9955 25.2963 24.9952 25.3325C24.9952 25.3479 25.0114 25.3435 25.0204 25.3436C25.0423 25.3436 25.0643 25.3403 25.0903 25.3406C25.1188 25.341 25.1464 25.3447 25.1862 25.345C25.1968 25.345 25.2171 25.3462 25.2172 25.3335C25.2176 25.2911 25.113 25.3516 25.1145 25.1781L25.1172 24.871C25.1172 24.8629 25.1189 24.8565 25.1238 24.8566C25.1279 24.8566 25.1327 24.8612 25.1383 24.8684L25.5253 25.3416C25.5309 25.3489 25.535 25.3544 25.5463 25.3544C25.5561 25.3544 25.5562 25.3473 25.5563 25.3274L25.5608 24.8206C25.5615 24.7258 25.6305 24.7481 25.6307 24.721C25.6307 24.7183 25.6308 24.7092 25.6154 24.7091C25.6081 24.7091 25.5796 24.7124 25.5284 24.712C25.4723 24.7114 25.4487 24.7076 25.4357 24.7076C25.4251 24.7076 25.4226 24.7165 25.4226 24.7228C25.4223 24.7526 25.5216 24.7372 25.5209 24.8194L25.5183 25.1203C25.5181 25.1428 25.5164 25.1537 25.5115 25.1536C25.5066 25.1536 25.497 25.1426 25.4865 25.1299L25.1631 24.7287C25.1486 24.7114 25.1584 24.7052 25.1324 24.7049C25.0893 24.7044 25.0682 24.708 25.047 24.7078C25.0316 24.7078 25.017 24.7039 25.0015 24.7037C24.9918 24.7037 24.9876 24.7108 24.9876 24.719C24.9871 24.7623 25.0788 24.7044 25.0772 24.8779L25.0743 25.2212V25.2211ZM25.8616 24.8144C25.8624 24.7286 25.9231 24.7616 25.9233 24.7309C25.9234 24.7201 25.9194 24.7182 25.895 24.718C25.8486 24.7175 25.8193 24.7209 25.7901 24.7207C25.7616 24.7207 25.73 24.7165 25.6982 24.7163C25.6909 24.7162 25.6706 24.7133 25.6705 24.7287C25.6703 24.7604 25.7578 24.7359 25.7571 24.8181L25.7578 25.2517C25.7571 25.3375 25.6987 25.3135 25.6985 25.3452C25.6984 25.3497 25.7 25.356 25.7073 25.356C25.7285 25.3565 25.7635 25.3529 25.7984 25.3532C25.8619 25.3538 25.8919 25.3576 25.9219 25.3579C25.9406 25.3579 25.948 25.3545 25.9481 25.3446C25.9483 25.3157 25.8569 25.3565 25.8579 25.2454L25.8616 24.8144ZM26.2025 25.2342C26.2035 25.3417 26.1112 25.2991 26.1115 25.3344C26.1118 25.3543 26.1255 25.3533 26.1401 25.3531C26.1726 25.3526 26.1995 25.349 26.2539 25.3485C26.3084 25.348 26.3353 25.3514 26.3678 25.3511C26.3914 25.3511 26.4077 25.3535 26.4075 25.3318C26.4072 25.3065 26.3034 25.3336 26.3024 25.2225L26.2989 24.8142C26.2985 24.7708 26.3066 24.7662 26.3399 24.7659L26.409 24.7654C26.5025 24.761 26.4774 24.8615 26.5099 24.8612C26.531 24.8612 26.5218 24.8258 26.5201 24.815L26.5104 24.732C26.5095 24.7229 26.5094 24.7103 26.4972 24.7104C26.4216 24.7111 26.3671 24.7151 26.2484 24.7162C26.1297 24.7172 26.0752 24.7141 25.9996 24.7147C25.9874 24.7147 25.9875 24.7275 25.9867 24.7365L25.9748 24.8559C25.9733 24.8677 25.9686 24.8876 25.9856 24.8874C26.0222 24.8869 25.9968 24.769 26.0887 24.7682L26.157 24.7675C26.1904 24.767 26.1985 24.7717 26.1989 24.815L26.2025 25.2342ZM26.6761 25.0633C26.6615 25.0644 26.6502 25.0662 26.6495 25.0572C26.6485 25.0446 26.6526 25.0343 26.6558 25.0232L26.7057 24.8589C26.7089 24.8486 26.7121 24.8475 26.7137 24.8474C26.7178 24.8469 26.7154 24.8474 26.7208 24.8541L26.8001 25.0119C26.8049 25.0223 26.8106 25.0319 26.8116 25.0444C26.8122 25.0535 26.8009 25.0535 26.7863 25.0546L26.6761 25.0633ZM26.8153 25.1012C26.8364 25.0996 26.8411 25.1083 26.8734 25.1764C26.8842 25.2001 26.8912 25.2158 26.8927 25.2356C26.8971 25.2906 26.8387 25.2852 26.8408 25.3113C26.8417 25.3239 26.8522 25.3213 26.8668 25.3202C26.8903 25.3183 26.92 25.3123 26.9556 25.3095C27.0091 25.3053 27.0313 25.3072 27.0605 25.3049C27.0824 25.3032 27.0898 25.3044 27.0886 25.2891C27.0863 25.2593 27.0453 25.2979 27.0143 25.236L26.7521 24.702C26.7394 24.6759 26.7376 24.6742 26.7303 24.6747C26.7198 24.6756 26.7171 24.693 26.7125 24.7079L26.5358 25.27C26.5195 25.3221 26.4777 25.3199 26.4793 25.3406C26.4803 25.3524 26.4931 25.3495 26.5044 25.3486C26.5279 25.3468 26.5512 25.3413 26.5755 25.3394C26.6014 25.3374 26.626 25.339 26.652 25.337C26.669 25.3357 26.6946 25.34 26.6931 25.3211C26.6912 25.2968 26.6048 25.3181 26.5997 25.2532C26.598 25.2316 26.6068 25.1992 26.6111 25.1808C26.625 25.1198 26.6418 25.1149 26.6556 25.1138L26.8153 25.1012H26.8153ZM27.4436 24.7267C27.4354 24.665 27.4385 24.6636 27.5361 24.6508C27.6916 24.6303 27.6426 24.7434 27.6805 24.7384C27.699 24.736 27.6911 24.7069 27.6887 24.6954L27.6739 24.6071C27.6728 24.5991 27.666 24.5909 27.6555 24.5922C27.5845 24.6016 27.5294 24.6125 27.4721 24.62C27.3488 24.6362 27.2903 24.6403 27.2573 24.6447C27.246 24.6461 27.2404 24.6542 27.2415 24.6623C27.2463 24.6981 27.3336 24.6574 27.3442 24.738L27.3994 25.1572C27.4138 25.2665 27.3461 25.2262 27.3515 25.2674C27.3523 25.2728 27.3577 25.2766 27.3681 25.2752C27.4125 25.2694 27.4459 25.2613 27.4709 25.258C27.5063 25.2533 27.5366 25.2531 27.5673 25.249C27.5874 25.2464 27.6048 25.2477 27.6025 25.2298C27.5993 25.2056 27.5112 25.24 27.4981 25.1406L27.4806 25.008C27.4737 24.956 27.4691 24.9457 27.5062 24.9408L27.5658 24.933C27.6497 24.9219 27.6396 25.0199 27.6654 25.0165C27.6848 25.0139 27.6757 24.9823 27.6733 24.9708L27.6467 24.8121C27.6427 24.788 27.6341 24.791 27.6285 24.7917C27.6123 24.7939 27.6208 24.8766 27.5515 24.8857L27.5006 24.8924C27.466 24.897 27.4652 24.8907 27.4601 24.8522L27.4436 24.7267H27.4436ZM27.7409 24.9321C27.7743 25.1124 27.9045 25.2123 28.0652 25.1825C28.3202 25.1352 28.3286 24.9086 28.3056 24.7842C28.2707 24.5959 28.1303 24.5034 27.9747 24.5341C27.784 24.5712 27.7048 24.7375 27.7409 24.9321ZM27.8298 24.8632C27.806 24.7344 27.8232 24.6044 27.9578 24.5767C28.0606 24.5558 28.1773 24.6408 28.2136 24.8371C28.241 24.9845 28.2183 25.1119 28.0813 25.14C27.9386 25.1692 27.8539 24.9929 27.8298 24.8632ZM28.4605 24.5486C28.4478 24.4958 28.4723 24.49 28.5016 24.4829C28.5815 24.4638 28.6413 24.5181 28.662 24.6042C28.6744 24.6561 28.6815 24.7064 28.5613 24.7352C28.5375 24.7409 28.5083 24.748 28.5031 24.726L28.4605 24.5486ZM28.4609 24.9786C28.4875 25.0893 28.4165 25.0757 28.4232 25.1038C28.4274 25.1214 28.4434 25.1148 28.4521 25.1127C28.4916 25.1032 28.5303 25.0902 28.573 25.0799C28.6062 25.072 28.6284 25.0704 28.6418 25.0671C28.66 25.0628 28.6651 25.056 28.6631 25.0481C28.6556 25.0164 28.586 25.0712 28.5634 24.9772L28.5269 24.8253C28.5195 24.7945 28.5133 24.7895 28.5552 24.7794C28.5947 24.7699 28.6109 24.7744 28.6384 24.8087L28.7381 24.9316C28.7748 24.9767 28.8134 25.026 28.8759 25.011C28.9075 25.0033 28.955 24.9715 28.9485 24.9443C28.9468 24.9372 28.9408 24.9331 28.9337 24.9348C28.9258 24.9367 28.9192 24.9439 28.9112 24.9458C28.9049 24.9473 28.8899 24.9509 28.8794 24.9385C28.7959 24.8415 28.6981 24.7303 28.6968 24.725C28.6947 24.7162 28.7157 24.7028 28.7338 24.6771C28.7518 24.6505 28.7669 24.6125 28.7534 24.5563C28.7437 24.5159 28.6981 24.3958 28.5249 24.4374C28.472 24.4501 28.419 24.4665 28.3661 24.4792C28.3163 24.4912 28.3091 24.4892 28.2727 24.4979C28.2632 24.5002 28.2564 24.5065 28.2585 24.5153C28.2661 24.5469 28.3445 24.4937 28.3681 24.5921L28.4609 24.9786ZM29.1132 24.8328C29.1401 24.9369 29.0403 24.9179 29.0491 24.952C29.0541 24.9713 29.0672 24.9669 29.0814 24.9632C29.1129 24.9551 29.138 24.9449 29.1907 24.9313C29.2435 24.9176 29.2704 24.9144 29.3018 24.9063C29.3246 24.9003 29.3411 24.8989 29.3356 24.8779C29.3293 24.8534 29.2351 24.9048 29.2073 24.7973L29.105 24.4019C29.0942 24.36 29.1009 24.3535 29.1332 24.3452L29.2001 24.3278C29.2897 24.301 29.2897 24.4045 29.3212 24.3964C29.3416 24.3911 29.3241 24.3593 29.3198 24.3492L29.2904 24.271C29.2873 24.2624 29.2842 24.2501 29.2723 24.2532C29.1991 24.2722 29.1473 24.2893 29.0324 24.319C28.9175 24.3487 28.8638 24.3588 28.7906 24.3778C28.7788 24.3809 28.7819 24.3931 28.7834 24.402L28.8007 24.5208C28.8021 24.5325 28.8023 24.553 28.8188 24.5487C28.8543 24.5395 28.801 24.4311 28.89 24.4081L28.9561 24.391C28.9884 24.3827 28.9974 24.385 29.0082 24.427L29.1132 24.8328ZM29.5291 24.2779C29.5062 24.1952 29.5737 24.2102 29.5654 24.1806C29.5625 24.1702 29.5582 24.1695 29.5346 24.176C29.49 24.1884 29.4627 24.1997 29.4345 24.2075C29.4071 24.2151 29.3756 24.2201 29.345 24.2286C29.338 24.2305 29.3177 24.2333 29.3218 24.2482C29.3302 24.2786 29.412 24.2297 29.4339 24.3089L29.5499 24.7268C29.5728 24.8095 29.5101 24.8025 29.5185 24.833C29.5197 24.8373 29.523 24.843 29.5301 24.8411C29.5504 24.8354 29.5832 24.8226 29.6169 24.8132C29.678 24.7963 29.7079 24.7917 29.737 24.7837C29.7549 24.7787 29.761 24.7733 29.7584 24.7637C29.7506 24.7358 29.674 24.8002 29.6443 24.6931L29.5291 24.2779ZM29.7025 24.4798C29.7607 24.6537 29.9034 24.7345 30.0585 24.6827C30.3045 24.6004 30.2812 24.3747 30.2411 24.2548C30.1803 24.0732 30.0285 24.0011 29.8786 24.0531C29.695 24.1165 29.6397 24.2922 29.7025 24.4798ZM29.781 24.3992C29.7394 24.275 29.7384 24.1439 29.8678 24.0977C29.9668 24.0627 30.0941 24.1306 30.1574 24.32C30.205 24.4622 30.2003 24.5914 30.0685 24.6384C29.9313 24.6871 29.8228 24.5243 29.781 24.3992ZM30.3581 23.9893C30.3383 23.9389 30.3617 23.9296 30.3897 23.9186C30.4661 23.8885 30.533 23.934 30.5655 24.0164C30.585 24.066 30.599 24.1148 30.484 24.1601C30.4613 24.1691 30.4333 24.1801 30.425 24.159L30.3581 23.9892V23.9893ZM30.4184 24.4151C30.4601 24.521 30.3879 24.5174 30.3985 24.5443C30.4051 24.5611 30.42 24.5524 30.4283 24.5491C30.4661 24.5342 30.5027 24.5159 30.5435 24.4998C30.5753 24.4873 30.597 24.4827 30.6099 24.4776C30.6273 24.4707 30.6314 24.4633 30.6284 24.4557C30.6165 24.4254 30.5552 24.4894 30.5197 24.3995L30.4624 24.2541C30.4508 24.2246 30.444 24.2205 30.4841 24.2048C30.5219 24.1898 30.5385 24.192 30.5705 24.2222L30.6863 24.3299C30.729 24.3694 30.7741 24.4129 30.8338 24.3893C30.8641 24.3774 30.9067 24.3393 30.8965 24.3132C30.8938 24.3064 30.8873 24.3032 30.8805 24.3059C30.8729 24.3089 30.8673 24.3169 30.8598 24.3199C30.8537 24.3223 30.8393 24.3279 30.8272 24.3172C30.7311 24.2327 30.6187 24.1362 30.6167 24.1311C30.6135 24.1227 30.6324 24.1065 30.6468 24.0786C30.6607 24.0497 30.6704 24.01 30.6492 23.9562C30.634 23.9175 30.5722 23.805 30.4065 23.8702C30.3558 23.8902 30.3057 23.9138 30.255 23.9338C30.2073 23.9526 30.2 23.9516 30.1652 23.9653C30.1561 23.9689 30.1501 23.976 30.1535 23.9844C30.1654 24.0147 30.2356 23.9511 30.2727 24.0453L30.4184 24.4151Z" fill="#703D29"/>
<path d="M21.7844 15.1614H25.7637V19.1332H21.7844V15.1614Z" fill="#D52B1E"/>
<path d="M23.6506 18.2885C23.6506 18.2885 23.6483 18.4305 23.6092 18.5445C23.564 18.6763 23.5637 18.6763 23.5222 18.7403C23.4665 18.8265 23.3984 18.8895 23.3377 18.9285C23.2429 18.9894 23.1466 19.0199 23.0497 19.0113C22.7839 18.9878 22.6605 18.6995 22.6002 18.4655C22.5363 18.2171 22.3546 18.0818 22.2388 18.1718C22.1711 18.2246 22.1672 18.3129 22.2238 18.3977C22.284 18.4881 22.4223 18.5333 22.4223 18.5333L22.2802 18.714C22.2802 18.714 21.9751 18.6743 21.9154 18.356C21.8928 18.2355 21.9513 18.0105 22.1522 17.9433C22.4087 17.8574 22.5728 18.0404 22.6518 18.1947C22.7606 18.407 22.8073 18.7968 23.1085 18.7365C23.2723 18.7037 23.3494 18.4655 23.3494 18.3563L23.4689 18.2283L23.6458 18.2848L23.6506 18.2886V18.2885Z" fill="white"/>
<path d="M24.131 16.5996L24.652 16.0358C24.652 16.0358 24.7306 15.9724 24.7299 15.8711L24.6225 15.8878L24.5984 15.8325L24.5931 15.777L24.7374 15.7465C24.7398 15.723 24.7378 15.7053 24.7419 15.6795C24.7458 15.6555 24.7511 15.6427 24.757 15.6192L24.5989 15.6298C24.6069 15.6021 24.6051 15.5874 24.6139 15.5617C24.6214 15.54 24.6235 15.5318 24.6383 15.5083C24.6676 15.5039 24.6943 15.4972 24.7306 15.4936C24.7659 15.49 24.786 15.4916 24.8213 15.4894C24.9076 15.3286 25.2663 15.1808 25.5212 15.4457C25.7057 15.6373 25.6659 15.9889 25.4268 16.0819C25.2912 16.1346 25.1821 16.1034 25.0945 16.0281L25.1899 15.8409C25.3217 15.9196 25.4308 15.8218 25.4233 15.7201C25.4138 15.5916 25.3304 15.5121 25.2125 15.5017C25.1034 15.4922 25.025 15.5547 24.9753 15.6523C24.945 15.7119 24.9591 15.7557 24.949 15.8218C24.9381 15.8936 24.9442 15.9337 24.923 16.0063C24.9075 16.0589 24.8671 16.1241 24.8082 16.1802L24.2741 16.7581L22.1948 19.0071L22.0386 18.8626L24.131 16.5995V16.5996Z" fill="#FEDF00"/>
<path d="M22.6003 16.7976C22.6003 16.7976 22.7311 17.4451 23.1753 18.4164C23.4012 18.3336 23.5346 18.2809 23.7739 18.2809C24.0133 18.2809 24.1466 18.3261 24.3725 18.4164C24.8167 17.4451 24.9475 16.7976 24.9475 16.7976L23.7739 15.288L22.6003 16.7976Z" fill="white"/>
<path d="M23.8888 15.7987L24.7033 16.8464C24.7033 16.8464 24.5947 17.3558 24.2637 18.1225C24.1356 18.0933 24.0257 18.0679 23.8893 18.0586L23.8888 15.7988V15.7987ZM23.6593 15.7987L22.8448 16.8464C22.8448 16.8464 22.9535 17.3558 23.2844 18.1225C23.4126 18.0933 23.5225 18.0679 23.6589 18.0586L23.6593 15.7988V15.7987Z" fill="#FEDF00"/>
<path d="M26.188 15.1614H30.1673V19.1332H26.188V15.1614Z" fill="#FEDF00"/>
<path d="M26.7454 15.1614H27.3387V19.1332H26.7454V15.1614ZM27.8823 15.1614H28.4756V19.1332H27.8823V15.1614ZM29.0193 15.1614H29.6126V19.1332H29.0193V15.1614Z" fill="#D52B1E"/>
<path d="M21.7995 22.5782C21.8107 22.6497 21.8363 22.7724 21.9042 22.8982C21.9757 23.0111 21.9493 23.0081 22.1112 23.1887C22.1909 23.2777 22.3152 23.3539 22.4128 23.4064C22.5106 23.4591 22.5831 23.485 22.7441 23.5272C23.0596 23.61 23.2811 23.6152 23.5466 23.6046C23.7538 23.5963 23.9119 23.5709 24.0429 23.5532C24.2297 23.5281 24.3688 23.5132 24.5813 23.5043C24.6846 23.4999 24.7822 23.499 24.8787 23.5043C24.9951 23.5107 25.1102 23.5287 25.2326 23.5532C25.4961 23.6059 25.7634 23.7076 25.7634 23.7076L25.764 19.56L21.7841 19.5588V22.3937C21.7841 22.3937 21.7922 22.5322 21.7995 22.5782Z" fill="#FEDF00"/>
<path d="M22.2614 23.3051L22.4479 23.4136L22.7035 23.5056L22.7033 19.5578H22.2614L22.2614 23.3051ZM24.4724 23.4847L24.4729 19.5577H24.0302V23.5475C24.0302 23.5475 24.3332 23.5087 24.4723 23.4997L24.4724 23.4847ZM25.3556 19.5582H24.9143V23.4988C25.0636 23.5146 25.2114 23.5419 25.3564 23.5803L25.3556 19.5582ZM23.5887 19.5582V23.5933C23.5843 23.5937 23.2933 23.6085 23.1445 23.5931L23.1446 19.5589L23.5887 19.5582Z" fill="#D52B1E" stroke="#D52B1E" stroke-width="0.0248407"/>
<path d="M30.1528 22.5768C30.1415 22.6483 30.116 22.7711 30.048 22.8968C29.9765 23.0098 30.0029 23.0067 29.841 23.1874C29.7613 23.2763 29.637 23.3525 29.5394 23.405C29.4416 23.4578 29.3692 23.4836 29.2082 23.5259C28.8926 23.6087 28.6711 23.6139 28.4056 23.6033C28.1985 23.595 28.0403 23.5695 27.9093 23.5519C27.7225 23.5268 27.5834 23.5118 27.371 23.5029C27.2677 23.4986 27.17 23.4976 27.0736 23.5029C26.9571 23.5093 26.842 23.5274 26.7197 23.5519C26.4562 23.6046 26.1854 23.7062 26.1854 23.7062L26.1882 19.5586L30.1682 19.5575V22.3923C30.1682 22.3923 30.16 22.5308 30.1528 22.5768V22.5768Z" fill="#FEDF00"/>
<path d="M27.2058 19.8904C27.2058 19.8904 27.1881 19.8988 27.177 19.904C27.1626 19.9198 27.1554 19.9291 27.1392 19.9433C27.1177 19.9622 27.102 19.9677 27.0787 19.9841C27.0675 19.9921 27.0583 19.9946 27.0499 20.0054C27.0377 20.0209 27.0461 20.0359 27.0378 20.0538C27.0288 20.0734 27.0199 20.0827 27.006 20.0992C26.9883 20.1202 26.9746 20.1287 26.9546 20.1476C26.9343 20.1668 26.9261 20.1828 26.9016 20.196C26.8951 20.1995 26.892 20.2029 26.885 20.2051C26.8745 20.2083 26.868 20.2046 26.8577 20.2081C26.8389 20.2146 26.833 20.2354 26.8199 20.2429C26.8253 20.2535 26.8251 20.2609 26.8305 20.2717C26.8382 20.2873 26.8646 20.3305 26.8698 20.3413C26.88 20.356 26.8829 20.3752 26.8956 20.3791C26.9216 20.3872 26.9371 20.3865 26.9591 20.3851C26.9975 20.3939 27.0211 20.3928 27.0575 20.4078C27.0871 20.4201 27.0992 20.4357 27.1286 20.4487C27.1515 20.4589 27.166 20.4652 27.1906 20.4699C27.2094 20.4735 27.2201 20.4763 27.239 20.4744C27.2511 20.4733 27.2573 20.4686 27.2693 20.4669C27.2717 20.4664 27.2732 20.4669 27.2754 20.4669L27.2739 20.485C27.2736 20.485 27.2741 20.4864 27.2739 20.4865V20.4895H27.2769L27.3768 20.5334C27.373 20.5391 27.37 20.5452 27.3677 20.5516C27.363 20.5671 27.3622 20.5849 27.3647 20.5924C27.3952 20.6839 27.4208 20.741 27.4358 20.7468C27.4656 20.7582 27.4748 20.7887 27.4918 20.8194C27.4858 20.8258 27.4808 20.8291 27.4751 20.8345C27.4454 20.8631 27.4193 20.8834 27.3949 20.9223C27.3588 20.9799 27.3345 20.9806 27.3798 21.0569C27.4064 21.1018 27.4192 21.1102 27.4539 21.1735C27.4715 21.2055 27.4812 21.2303 27.4918 21.2688C27.5018 21.3053 27.5052 21.3265 27.5069 21.3642L27.5538 21.3823L27.5856 21.3505L27.6159 21.2931L27.6173 21.2492C27.6058 21.2394 27.6025 21.2262 27.6052 21.2113C27.6086 21.1935 27.6301 21.1973 27.6401 21.1811C27.6538 21.1587 27.624 21.1455 27.6083 21.1281C27.579 21.0957 27.539 21.0878 27.5296 21.0388C27.5271 21.0256 27.5334 21.0182 27.5477 21.004C27.5892 20.9633 27.6025 20.9569 27.6431 20.9163C27.6548 20.9232 27.6727 20.9256 27.69 20.9223C27.7036 20.9198 27.7157 20.9284 27.7581 20.9405C27.7876 20.9489 27.8004 20.9447 27.8171 20.9419L27.8353 20.9374C27.8377 20.9477 27.8406 20.9575 27.8413 20.9707C27.8439 21.022 27.8338 21.1157 27.8489 21.1402C27.8552 21.1505 27.8579 21.1563 27.8625 21.1674C27.8673 21.1791 27.8728 21.1866 27.8731 21.1992C27.8736 21.2329 27.8754 21.2544 27.8731 21.29C27.871 21.3235 27.8681 21.3405 27.8625 21.3747C27.8589 21.3966 27.8545 21.4093 27.8413 21.4262C27.8276 21.4438 27.8125 21.4464 27.7944 21.4595L27.7899 21.5079L27.8444 21.5306L27.9064 21.5457L27.9397 21.5321C27.9397 21.5198 27.9416 21.5127 27.9472 21.5019C27.9534 21.4899 27.9585 21.4806 27.97 21.4761C27.9875 21.4692 28.0067 21.4824 28.0138 21.4716C28.0215 21.4599 28.0167 21.4552 28.0153 21.4353C28.0131 21.4032 28.0064 21.3873 28.0017 21.355C27.9938 21.3013 27.9915 21.2734 27.9941 21.2219C27.9956 21.192 27.996 21.1756 28.0017 21.1462C28.01 21.1035 28.0252 21.0828 28.035 21.0403C28.0459 20.993 28.0478 20.9625 28.0532 20.9208C28.2067 20.9427 28.3344 20.94 28.5056 20.9026C28.5138 20.9008 28.5419 20.8905 28.5419 20.8905C28.5807 20.9239 28.6246 20.9517 28.6736 20.9692C28.6733 20.9741 28.6728 21.0101 28.6736 21.0161C28.6753 21.03 28.6716 21.0394 28.6796 21.0509C28.6847 21.0582 28.6891 21.0625 28.6978 21.0645C28.7105 21.0675 28.7198 21.0656 28.7296 21.0569C28.7405 21.0472 28.7385 21.035 28.7417 21.0206C28.7432 21.0139 28.742 20.9933 28.7417 20.9874C28.7594 20.99 28.7654 20.9904 28.7841 20.9904C28.8013 20.9904 28.8097 20.991 28.8264 20.9889C28.8267 20.9927 28.8274 21.0067 28.8279 21.0115C28.8292 21.0234 28.8242 21.0326 28.8294 21.0433C28.8348 21.0545 28.8415 21.0607 28.8536 21.063C28.858 21.0641 28.8625 21.0643 28.867 21.0635C28.8714 21.0627 28.8756 21.061 28.8793 21.0584C28.8937 21.0495 28.8921 21.0343 28.8945 21.0176C28.8952 21.0123 28.895 20.9841 28.8945 20.9798C28.9048 20.9765 28.9346 20.9656 28.9444 20.9616C28.944 20.9748 28.9424 20.988 28.9399 21.0009C28.9373 21.0164 28.9333 21.0316 28.9278 21.0463C28.9178 21.0738 28.9064 21.0878 28.8915 21.1129C28.8732 21.1436 28.8638 21.1606 28.8416 21.1886C28.8313 21.2014 28.8242 21.2073 28.8143 21.2204C28.8019 21.2367 28.7978 21.2478 28.7856 21.2642C28.7699 21.2855 28.7609 21.2993 28.7401 21.3157C28.7066 21.3423 28.6844 21.321 28.6388 21.3565L28.6281 21.4065L28.6978 21.4322L28.7598 21.4443L28.781 21.4322C28.7804 21.4176 28.7826 21.4073 28.7916 21.3959C28.8019 21.3828 28.813 21.3789 28.8294 21.3762C28.8469 21.3733 28.8656 21.3778 28.8793 21.3656C28.8963 21.3506 28.8962 21.3214 28.9096 21.2945C28.9512 21.211 28.9881 21.1704 29.0549 21.1054C29.0846 21.0765 29.11 21.0687 29.1351 21.0357C29.147 21.0201 29.1603 21.013 29.1608 20.9934C29.1612 20.9797 29.1539 20.9733 29.1502 20.9601C29.1452 20.9418 29.1412 20.9117 29.1412 20.9117C29.2148 20.9477 29.1881 20.943 29.2017 20.9798C29.2126 21.0095 29.2001 21.0301 29.2047 21.0615C29.2101 21.0981 29.2273 21.1154 29.2304 21.1522C29.2342 21.1961 29.2235 21.221 29.2153 21.2642C29.208 21.3023 29.209 21.3261 29.1926 21.3611C29.177 21.3945 29.165 21.4132 29.1366 21.4367C29.1264 21.4452 29.1187 21.4488 29.1079 21.4564L29.1018 21.5063L29.1563 21.5245L29.235 21.5457L29.2531 21.5291C29.2611 21.4973 29.2505 21.4508 29.2728 21.4473C29.2924 21.4443 29.3063 21.4473 29.3106 21.4322C29.3124 21.4258 29.3135 21.4164 29.3152 21.402C29.3259 21.3106 29.3356 21.2254 29.3454 21.1841C29.3566 21.1372 29.3558 21.127 29.3651 21.0917C29.3736 21.0596 29.361 21.0781 29.3848 21.01C29.4203 20.9085 29.3747 20.895 29.3333 20.833C29.3109 20.7994 29.3032 20.7873 29.3 20.7604C29.2953 20.7208 29.308 20.688 29.3061 20.6272C29.3045 20.5808 29.3045 20.5344 29.3061 20.488C29.3117 20.4854 29.3168 20.4821 29.3228 20.4789C29.3794 20.4478 29.402 20.4384 29.4378 20.3593C29.448 20.337 29.4531 20.3128 29.4529 20.2882C29.4526 20.2722 29.4497 20.2567 29.4483 20.2383C29.4469 20.219 29.4391 20.2074 29.4332 20.1929C29.4269 20.1775 29.4175 20.1658 29.4059 20.152C29.3686 20.1073 29.3198 20.0972 29.2743 20.0809C29.2025 20.0552 29.153 20.0599 29.0746 20.0537C28.9936 20.0473 28.9484 20.046 28.8672 20.0507C28.7701 20.0562 28.7158 20.0758 28.6191 20.087C28.5264 20.0977 28.4749 20.1049 28.3815 20.1067C28.2721 20.1087 28.1675 20.0844 28.1016 20.09C27.9829 20.1002 27.9809 20.1269 27.802 20.1415C27.74 20.1463 27.678 20.1493 27.6159 20.1505L27.5114 20.1173C27.5529 20.1024 27.5631 20.0936 27.5826 20.0673C27.5957 20.0496 27.5938 20.0345 27.6098 20.0159C27.6227 20.0008 27.6313 19.9857 27.6476 19.9689C27.6344 19.9584 27.6188 19.9511 27.6022 19.9478C27.5846 19.9441 27.5745 19.9458 27.5568 19.9478C27.5329 19.9505 27.5195 19.9538 27.4978 19.9644C27.4804 19.973 27.4676 19.9817 27.4569 19.9932C27.4569 19.9932 27.3947 19.9531 27.351 19.9342C27.2969 19.9107 27.2736 19.8997 27.2058 19.8903V19.8904ZM27.3011 20.4669H27.3041C27.3035 20.4674 27.3032 20.4679 27.3027 20.4684L27.3011 20.4669Z" fill="#D52B1E"/>
<path d="M29.3436 20.501L29.3066 20.5128C29.2647 20.5323 29.2302 20.5331 29.1807 20.5369C29.0527 20.5466 28.9739 20.4857 28.8419 20.4958C28.7739 20.5011 28.7438 20.5535 28.6743 20.5708C28.6474 20.5779 28.6198 20.5825 28.592 20.5845L28.6168 20.5344C28.6168 20.5344 28.5546 20.5471 28.5144 20.5472C28.4896 20.5476 28.4649 20.5455 28.4406 20.5409L28.4899 20.4949C28.4899 20.4949 28.4505 20.4884 28.4272 20.4786C28.4086 20.4712 28.3913 20.4609 28.3759 20.4481C28.4034 20.4435 28.4307 20.4378 28.4577 20.431C28.5331 20.4124 28.5565 20.3755 28.6461 20.3668C28.7018 20.3615 28.7929 20.3646 29.0162 20.4016C29.1632 20.4259 29.2284 20.4145 29.2843 20.3891C29.3211 20.3724 29.3332 20.3402 29.3377 20.3025C29.3421 20.2649 29.3181 20.2345 29.2954 20.2148C29.2894 20.2097 29.2739 20.1986 29.2415 20.1973" stroke="#FEDF00" stroke-width="0.0477928" stroke-linecap="round"/>
<path d="M27.2145 20.0696C27.1888 20.0664 27.1716 20.0701 27.1496 20.0836C27.1263 20.098 27.1234 20.1174 27.1066 20.1389C27.1281 20.1438 27.1404 20.1564 27.1619 20.1512C27.1787 20.1472 27.1874 20.1397 27.1987 20.1267C27.214 20.1091 27.2196 20.094 27.2194 20.0707L27.2145 20.0696Z" fill="#FCD900" stroke="#FEDF00" stroke-width="0.0248407"/>
<path d="M27.5524 20.7262C27.5907 20.7347 27.5788 20.8889 27.6391 20.9242M27.7587 20.7078C27.7587 20.7078 27.7715 20.731 27.7784 20.7465C27.7904 20.7733 27.7966 20.789 27.8038 20.8175C27.8135 20.8562 27.8093 20.8797 27.8154 20.9191C27.8165 20.926 27.8178 20.9319 27.8191 20.9373L27.8167 20.992L27.7587 20.7078ZM28.1461 20.6555C28.1461 20.6555 28.1355 20.6948 28.1289 20.72C28.1119 20.7855 28.0962 20.8211 28.0832 20.8875C28.0811 20.8987 28.0795 20.9089 28.0782 20.9187L28.1461 20.6555Z" stroke="#FEDF00" stroke-width="0.0477928" stroke-linecap="round"/>
<path d="M28.9247 20.9978L28.9433 20.9857C28.992 20.9658 29.0363 20.9363 29.0734 20.899" stroke="#FEDF00" stroke-width="0.0477928"/>
<path d="M28.5499 20.9126H28.5503C28.7213 20.8698 28.8352 20.7844 28.9173 20.7737" stroke="#FEDF00" stroke-width="0.0477928" stroke-linecap="round"/>
<path d="M28.7238 20.699C28.7383 20.6985 28.7521 20.6974 28.764 20.6957C28.835 20.6856 28.8465 20.729 28.896 20.7566C28.9859 20.807 28.9975 20.8684 29.1042 20.9191C29.1098 20.9218 29.115 20.9243 29.1197 20.9267L29.1607 20.9474" stroke="#FEDF00" stroke-width="0.0477928" stroke-linecap="round"/>
<path d="M26.8707 20.2594C26.8836 20.2626 26.8916 20.2632 26.9049 20.262C26.921 20.2605 26.9283 20.2504 26.9445 20.2499C26.9575 20.2494 26.9668 20.2484 26.9776 20.256C26.9844 20.2608 26.9873 20.2652 26.9911 20.2725C26.9954 20.2806 26.999 20.2862 26.9971 20.2951C26.9942 20.3088 26.9815 20.3153 26.9674 20.3154C26.9559 20.3154 26.9464 20.3124 26.9411 20.3023C26.9394 20.2994 26.9384 20.2963 26.9381 20.293C26.9377 20.2898 26.9381 20.2865 26.9392 20.2834C26.9254 20.2886 26.9155 20.2888 26.9016 20.2842C26.895 20.2824 26.8889 20.2792 26.8836 20.2749C26.8783 20.2707 26.8739 20.2654 26.8707 20.2594Z" fill="#FCD900" stroke="#FEDF00" stroke-width="0.0248407"/>
<path d="M27.2305 20.7261C27.1919 20.7147 27.1353 20.6861 27.1353 20.6861C27.1509 20.674 27.1637 20.6733 27.1771 20.6593C27.1959 20.6395 27.1951 20.6211 27.2058 20.5954C27.2162 20.5702 27.2147 20.5492 27.2383 20.5304C27.2523 20.5192 27.2752 20.5173 27.2924 20.5224C27.3095 20.5278 27.3292 20.5418 27.3335 20.5595C27.3401 20.5866 27.3257 20.6024 27.3216 20.6299C27.3174 20.6574 27.3074 20.6732 27.3121 20.7006C27.3153 20.7187 27.3231 20.7257 27.3293 20.7445C27.3293 20.7445 27.2681 20.7373 27.2305 20.7261V20.7261ZM27.1825 20.7721C27.1824 20.7661 27.1841 20.7602 27.1874 20.7552C27.1906 20.7501 27.1953 20.7461 27.2008 20.7438C27.2064 20.7414 27.2125 20.7407 27.2184 20.7417C27.2243 20.7428 27.2297 20.7456 27.2341 20.7498C27.2384 20.754 27.2414 20.7593 27.2427 20.7652C27.2439 20.7711 27.2434 20.7772 27.2412 20.7828C27.239 20.7884 27.2352 20.7932 27.2303 20.7966C27.2254 20.8001 27.2195 20.8019 27.2135 20.8021C27.2095 20.8021 27.2055 20.8014 27.2018 20.8C27.1981 20.7985 27.1947 20.7963 27.1918 20.7935C27.1889 20.7908 27.1866 20.7874 27.185 20.7838C27.1834 20.7801 27.1826 20.7761 27.1825 20.7721ZM27.0973 19.9727C27.0973 19.9727 27.093 19.9698 27.0903 19.9676C27.0718 19.9526 27.07 19.936 27.0612 19.9139C27.0529 19.8929 27.0488 19.8804 27.046 19.858C27.0436 19.8384 27.046 19.827 27.046 19.8073C27.046 19.7894 27.0479 19.7793 27.046 19.7616C27.044 19.7434 27.0445 19.7319 27.0358 19.7158C27.0311 19.7071 27.0167 19.6995 27.0206 19.6955C27.0252 19.6909 27.0331 19.6945 27.0409 19.6955C27.0603 19.6979 27.0715 19.7035 27.0866 19.7158C27.1049 19.7307 27.1121 19.7435 27.1192 19.7666C27.1272 19.7932 27.1312 19.8101 27.1389 19.8377C27.1429 19.852 27.1452 19.8604 27.1526 19.8733C27.1604 19.8866 27.1681 19.8918 27.178 19.9037L27.1775 19.9048C27.163 19.9207 27.156 19.931 27.1398 19.9452C27.1251 19.9583 27.1127 19.9647 27.0989 19.973L27.0973 19.9725L27.0973 19.9727ZM27.2716 20.4879L27.3796 20.5378C27.4353 20.5071 27.4994 20.4447 27.5489 20.3481C27.5916 20.2649 27.5983 20.2197 27.615 20.1392L27.5284 20.1111L27.5111 20.1146C27.4844 20.198 27.4775 20.2455 27.4327 20.3176C27.3939 20.3801 27.3495 20.4292 27.3045 20.4645L27.2716 20.4879ZM27.5108 21.3653C27.5283 21.3414 27.5357 21.3261 27.5555 21.3041C27.5776 21.2796 27.5942 21.2701 27.619 21.2484C27.6265 21.2491 27.6352 21.2478 27.6423 21.2519C27.6409 21.2782 27.6396 21.2979 27.6335 21.3265C27.6287 21.3497 27.6245 21.3626 27.6168 21.3851C27.6102 21.4039 27.6091 21.416 27.5979 21.4325C27.5904 21.4434 27.5839 21.4478 27.5749 21.4576C27.5502 21.4216 27.5105 21.3947 27.5108 21.3653V21.3653ZM29.1093 21.4549C29.137 21.4651 29.1538 21.468 29.1804 21.4809C29.2099 21.4955 29.2237 21.5088 29.2514 21.5267C29.2527 21.5341 29.2565 21.5421 29.2545 21.55C29.2288 21.5559 29.2096 21.5601 29.1804 21.5622C29.1601 21.5637 29.1397 21.5637 29.1194 21.5622C29.0996 21.5611 29.0876 21.5634 29.0687 21.5571C29.0561 21.5529 29.0501 21.5478 29.0382 21.5419C29.0659 21.5082 29.0808 21.4626 29.1093 21.4549ZM28.6367 21.3561C28.6644 21.3663 28.6812 21.3692 28.7077 21.3822C28.7373 21.3967 28.7511 21.41 28.7788 21.4279C28.7801 21.4353 28.7839 21.4433 28.7819 21.4512C28.7562 21.4572 28.737 21.4613 28.7078 21.4634C28.6841 21.4652 28.6706 21.4647 28.6468 21.4634C28.627 21.4623 28.615 21.4646 28.5961 21.4583C28.5835 21.4542 28.5775 21.449 28.5656 21.4431C28.5933 21.4094 28.6082 21.3639 28.6367 21.3561ZM27.797 21.4592C27.8248 21.4694 27.8416 21.4723 27.8681 21.4853C27.8977 21.4998 27.9115 21.5132 27.9392 21.531C27.9405 21.5385 27.9442 21.5465 27.9423 21.5544C27.9165 21.5603 27.8973 21.5644 27.8681 21.5666C27.8444 21.5683 27.8309 21.5679 27.8072 21.5666C27.7874 21.5655 27.7753 21.5677 27.7564 21.5615C27.7438 21.5573 27.7378 21.5522 27.7259 21.5463C27.7537 21.5126 27.7685 21.467 27.797 21.4592ZM27.3622 20.0163C27.3325 20.0028 27.3113 19.9657 27.3302 19.9391C27.3377 19.9284 27.3502 19.9307 27.3576 19.9199C27.3668 19.9067 27.3645 19.8954 27.3642 19.8793C27.3638 19.8611 27.3572 19.8516 27.354 19.8336C27.3506 19.814 27.3473 19.8028 27.3475 19.7829C27.3477 19.7525 27.3456 19.7308 27.3642 19.7067C27.376 19.6913 27.3961 19.678 27.4041 19.6771C27.4112 19.6836 27.4014 19.7014 27.4025 19.7169C27.4043 19.7392 27.4089 19.7516 27.4165 19.7727C27.4262 19.8 27.4397 19.8119 27.4505 19.8387C27.4606 19.8637 27.4699 19.8778 27.4708 19.9047C27.4716 19.9268 27.4696 19.9403 27.4607 19.9606C27.4527 19.9785 27.4461 19.9886 27.4311 20.0012C27.4181 20.0121 27.409 20.0169 27.3926 20.0215C27.3822 20.0226 27.3716 20.0208 27.3622 20.0163Z" fill="#0065BD"/>
<path d="M21.7844 15.1614H25.7637V19.1332H21.7844V15.1614ZM26.188 15.1614H30.1673V19.1332H26.188V15.1614ZM21.7995 22.5778C21.8107 22.6493 21.8363 22.7721 21.9042 22.8978C21.9757 23.0107 21.9493 23.0077 22.1112 23.1884C22.1909 23.2774 22.3152 23.3535 22.4128 23.406C22.5106 23.4588 22.5831 23.4846 22.7441 23.5269C23.0596 23.6097 23.2811 23.6149 23.5466 23.6043C23.7538 23.596 23.9119 23.5705 24.0429 23.5528C24.2297 23.5278 24.3688 23.5128 24.5813 23.5039C24.6846 23.4996 24.7822 23.4986 24.8787 23.5039C24.9951 23.5104 25.1102 23.5284 25.2326 23.5528C25.4961 23.6056 25.7634 23.7072 25.7634 23.7072L25.764 19.5596L21.7841 19.5585V22.3933C21.7841 22.3933 21.7922 22.5318 21.7995 22.5778ZM30.1528 22.5768C30.1415 22.6484 30.116 22.7711 30.0481 22.8968C29.9765 23.0098 30.0029 23.0067 29.841 23.1874C29.7613 23.2763 29.637 23.3526 29.5395 23.405C29.4416 23.4578 29.3692 23.4836 29.2082 23.5259C28.8926 23.6087 28.6712 23.6139 28.4057 23.6033C28.1985 23.595 28.0404 23.5695 27.9093 23.5519C27.7226 23.5268 27.5835 23.5118 27.371 23.503C27.2677 23.4986 27.1701 23.4976 27.0736 23.503C26.9571 23.5094 26.8421 23.5274 26.7197 23.5519C26.4562 23.6046 26.1855 23.7062 26.1855 23.7062L26.1882 19.5586L30.1682 19.5575V22.3923C30.1682 22.3923 30.1601 22.5308 30.1528 22.5768V22.5768Z" stroke="#703D29" stroke-width="0.0385926"/>
</g>
<path d="M11.7035 1.61228C6.53056 2.04084 2.23921 5.77712 1.57724 11.0101C1.25164 13.5841 1 16.6548 1 20C1 23.3452 1.25164 26.4159 1.57724 28.9899C2.23922 34.2229 6.53056 37.9592 11.7035 38.3877C15.5784 38.7087 20.5852 39 26 39C31.4148 39 36.4216 38.7087 40.2965 38.3877C45.4694 37.9592 49.7608 34.2229 50.4228 28.9899C50.7484 26.4159 51 23.3452 51 20C51 16.6548 50.7484 13.5841 50.4228 11.0101C49.7608 5.77712 45.4694 2.04084 40.2965 1.61228C36.4216 1.29127 31.4148 1 26 1C20.5852 1 15.5784 1.29127 11.7035 1.61228Z" stroke="#E6E6FA" stroke-width="2"/>
</svg>
