<svg width="52" height="40" viewBox="0 0 52 40" fill="none" xmlns="http://www.w3.org/2000/svg">
<mask id="mask0_1_31975" style="mask-type:alpha" maskUnits="userSpaceOnUse" x="2" y="2" width="48" height="36">
<path d="M2.56934 11.1356C3.16681 6.41247 7.0415 3.00193 11.7861 2.60887C15.6412 2.28949 20.6196 2 26 2C31.3804 2 36.3588 2.28949 40.2139 2.60887C44.9585 3.00193 48.8332 6.41247 49.4307 11.1356C49.752 13.6759 50 16.704 50 20C50 23.296 49.752 26.3241 49.4307 28.8644C48.8332 33.5875 44.9585 36.9981 40.2139 37.3911C36.3588 37.7105 31.3804 38 26 38C20.6196 38 15.6412 37.7105 11.7861 37.3911C7.0415 36.9981 3.16681 33.5875 2.56934 28.8644C2.248 26.3241 2 23.296 2 20C2 16.704 2.248 13.6759 2.56934 11.1356Z" fill="#00D0BF"/>
</mask>
<g mask="url(#mask0_1_31975)">
<rect x="2" y="2" width="48" height="36" fill="white"/>
<rect x="2" y="26" width="48" height="12" fill="#75AAFA"/>
<rect x="2" y="2" width="48" height="12" fill="#75AAFA"/>
</g>
<path d="M11.7035 1.61228C6.53056 2.04084 2.23921 5.77712 1.57724 11.0101C1.25164 13.5841 1 16.6548 1 20C1 23.3452 1.25164 26.4159 1.57724 28.9899C2.23922 34.2229 6.53056 37.9592 11.7035 38.3877C15.5784 38.7087 20.5852 39 26 39C31.4148 39 36.4216 38.7087 40.2965 38.3877C45.4694 37.9592 49.7608 34.2229 50.4228 28.9899C50.7484 26.4159 51 23.3452 51 20C51 16.6548 50.7484 13.5841 50.4228 11.0101C49.7608 5.77712 45.4694 2.04084 40.2965 1.61228C36.4216 1.29127 31.4148 1 26 1C20.5852 1 15.5784 1.29127 11.7035 1.61228Z" stroke="#E6E6FA" stroke-width="2"/>
<circle cx="26" cy="20" r="2" fill="#FCD95E"/>
<path d="M26 16V24" stroke="#FCD95E" stroke-width="0.5"/>
<path d="M30 20L22 20" stroke="#FCD95E" stroke-width="0.5"/>
<path d="M26.9463 16.1363L25.0537 23.8637" stroke="#FCD95E" stroke-width="0.5"/>
<path d="M29.5317 21.0353L22.4683 18.9647" stroke="#FCD95E" stroke-width="0.5"/>
<path d="M27.8281 16.5359L24.1719 23.4641" stroke="#FCD95E" stroke-width="0.5"/>
<path d="M29.1664 22L22.8336 18" stroke="#FCD95E" stroke-width="0.5"/>
<path d="M28.5853 17.1716L23.4146 22.8284" stroke="#FCD95E" stroke-width="0.5"/>
<path d="M28.5854 22.8284L23.4147 17.1716" stroke="#FCD95E" stroke-width="0.5"/>
<path d="M29.1664 18L22.8336 22" stroke="#FCD95E" stroke-width="0.5"/>
<path d="M27.8281 23.4641L24.1719 16.5359" stroke="#FCD95E" stroke-width="0.5"/>
<path d="M29.5316 18.9647L22.4683 21.0353" stroke="#FCD95E" stroke-width="0.5"/>
<path d="M26.9464 23.8637L25.0537 16.1363" stroke="#FCD95E" stroke-width="0.5"/>
</svg>
