<svg width="52" height="40" viewBox="0 0 52 40" fill="none" xmlns="http://www.w3.org/2000/svg">
<mask id="mask0_1_34064" style="mask-type:alpha" maskUnits="userSpaceOnUse" x="2" y="2" width="48" height="36">
<path d="M2.56934 11.1356C3.16681 6.41247 7.0415 3.00193 11.7861 2.60887C15.6412 2.28949 20.6196 2 26 2C31.3804 2 36.3588 2.28949 40.2139 2.60887C44.9585 3.00193 48.8332 6.41247 49.4307 11.1356C49.752 13.6759 50 16.704 50 20C50 23.296 49.752 26.3241 49.4307 28.8644C48.8332 33.5875 44.9585 36.9981 40.2139 37.3911C36.3588 37.7105 31.3804 38 26 38C20.6196 38 15.6412 37.7105 11.7861 37.3911C7.0415 36.9981 3.16681 33.5875 2.56934 28.8644C2.248 26.3241 2 23.296 2 20C2 16.704 2.248 13.6759 2.56934 11.1356Z" fill="#00D0BF"/>
</mask>
<g mask="url(#mask0_1_34064)">
<rect x="2" y="2" width="48" height="36" fill="#2E50A6"/>
<path d="M51 36.5772L4.9523 20L51 3.42283V36.5772Z" fill="white" stroke="#EE5757" stroke-width="2"/>
</g>
<path d="M11.7035 1.61228C6.53056 2.04084 2.23921 5.77712 1.57724 11.0101C1.25164 13.5841 1 16.6548 1 20C1 23.3452 1.25164 26.4159 1.57724 28.9899C2.23922 34.2229 6.53056 37.9592 11.7035 38.3877C15.5784 38.7087 20.5852 39 26 39C31.4148 39 36.4216 38.7087 40.2965 38.3877C45.4694 37.9592 49.7608 34.2229 50.4228 28.9899C50.7484 26.4159 51 23.3452 51 20C51 16.6548 50.7484 13.5841 50.4228 11.0101C49.7608 5.77712 45.4694 2.04084 40.2965 1.61228C36.4216 1.29127 31.4148 1 26 1C20.5852 1 15.5784 1.29127 11.7035 1.61228Z" stroke="#E6E6FA" stroke-width="2"/>
<path d="M33.5247 21.0376C33.8889 21.0656 33.8764 21.4267 33.8764 21.4267L35.166 21.4554C35.331 21.0058 35.5022 21.0579 35.8155 21.2799C36.1132 21.4909 36.438 21.5851 36.438 21.5851C36.5625 20.9398 37.4776 21.0703 37.4776 21.0703C37.8677 20.1384 37.9009 20.1508 37.6685 20.0328C37.4361 19.9148 37.3413 19.7151 37.3413 19.7151C37.1207 19.4489 37.0045 19.0637 36.9796 18.8274C36.9547 18.5912 36.6808 18.9457 36.631 18.8711C36.5812 18.7966 36.1745 18.8401 36.1745 18.8401C36.2741 18.9457 35.9338 18.8836 35.9338 18.8836C35.967 18.9084 35.9338 19.0078 35.9338 19.0078C35.9006 18.9643 35.6433 18.9208 35.6433 18.9208C35.6184 18.9767 35.5603 19.0388 35.5603 19.0388C35.4192 18.9767 35.137 18.9891 35.137 18.9891C34.722 18.9829 34.473 19.1134 34.3568 19.1817C34.2405 19.2501 33.8255 19.4613 33.4852 19.7905C33.1449 20.1198 32.954 20.0825 32.954 20.0825C32.8544 20.4491 32.041 20.8963 32.041 20.8963C31.9083 21.0144 31.5015 21.0703 31.2941 20.8963C31.0866 20.7224 31.2941 20.4118 31.2941 20.4118C31.3708 20.2666 31.4469 20.2726 31.4554 19.7687C31.4611 19.4279 31.8129 19.1577 32.1739 18.7617C32.6153 18.2775 33.2322 17.4804 33.2322 17.4804C33.2353 17.725 33.3691 17.7646 33.3691 17.7646C33.4905 17.5154 33.6648 17.315 33.6648 17.315C33.6741 17.336 33.6991 17.35 33.6991 17.35C33.836 17.1636 33.92 17.0891 33.92 17.0891C33.8734 17.0704 33.4905 17.0891 33.1325 17.4012C32.7746 17.7134 32.5287 17.6086 32.5287 17.6086C32.2797 17.5293 32.2579 17.3383 32.2579 17.3383C32.0761 16.556 32.7902 15.9965 32.7902 15.9965C31.8315 15.7682 32.5225 14.5521 33.7115 14.0349C34.9004 13.5178 34.888 13.2848 34.888 13.2848C34.9564 13.364 35.0125 13.5038 35.0125 13.5038C35.025 13.4944 35.1121 13.364 35.7969 13.0611C36.4816 12.7583 36.8115 12.4973 36.8115 12.4973C36.8987 12.6651 36.88 12.7862 36.88 12.7862C38.7537 12.1293 40.5995 10.622 40.5995 10.622C40.6524 10.7478 40.6244 10.9388 40.6244 10.9388C40.9294 10.6569 42.0313 10 42.0313 10C42.05 10.4193 41.7045 10.5801 41.7045 10.5801C41.7419 10.6407 41.7636 10.7501 41.7636 10.7501C41.9441 10.6522 42.7845 10.0652 42.7845 10.0652C43.0926 10.3307 42.8125 10.7664 42.8125 10.7664C42.9215 10.7501 43.0024 10.6546 43.0024 10.6546C43.0802 11.1065 42.5791 11.5049 42.5791 11.5049C42.6663 11.5073 42.8125 11.421 42.8125 11.421C42.7192 11.9149 41.7823 12.4624 41.7823 12.4624C41.9192 12.5835 41.7885 12.7443 41.6765 12.8165C41.5644 12.8887 41.3652 13.0471 41.4275 13.1124C41.4897 13.1776 41.9037 12.8864 41.9037 12.8864C41.9753 13.0937 41.443 13.5014 41.443 13.5014C41.8134 13.5503 42.8437 13.0821 42.8437 13.0821C42.7596 13.4805 42.3706 13.7903 41.8912 13.9697C41.4119 14.1491 41.4368 14.177 41.4368 14.177C41.5208 14.2446 42.1838 14.0513 42.1838 14.0513C41.9846 14.4962 41.2936 14.8014 41.2936 14.8014C41.4835 14.9622 41.7418 14.7758 42.0001 14.5988C42.2585 14.4217 42.6102 14.2703 42.9992 14.1398C43.3883 14.0094 43.6622 14.1072 43.6622 14.1072C43.9859 14.0047 44.2598 14.1491 44.2598 14.1491C44.8823 14.2004 44.9446 14.4264 44.9446 14.4264C45.013 14.4427 45.066 14.4706 45.2247 14.5871C45.3834 14.7036 45.3741 15.0647 45.3679 15.2418C45.3616 15.4188 45.3118 15.4188 45.2807 15.4678C45.2496 15.5167 45.2464 15.5726 45.2464 15.6402C45.2464 15.7077 45.0908 16.1271 44.129 16.1317C43.1673 16.1363 42.6713 16.1317 42.6713 16.1317C42.592 16.1317 42.497 16.1783 42.497 16.1783C42.0924 16.3787 42.3061 16.0417 41.8247 16.4377C41.3434 16.8337 41.0985 16.7654 41.0985 16.7654C41.0196 16.8601 40.5154 17.3291 40.227 17.5155C39.9385 17.7019 39.9904 17.6848 40.2415 17.7935C40.4926 17.9023 40.8723 17.7935 40.8723 17.7935C40.6295 17.9551 40.7976 18.0296 40.7976 18.0296C41.1172 17.8354 41.3101 17.9069 41.3101 17.9069C41.4118 18.1849 41.0466 18.6245 41.0466 18.6245C41.1877 18.6431 41.4533 18.6245 41.4533 18.6245C41.389 18.8124 41.1234 19.019 40.9283 19.0826C40.7332 19.1463 40.7685 19.1711 40.8266 19.2892C40.8847 19.4072 40.8349 19.5268 40.8349 19.5268C40.4946 19.2907 40.4822 19.5019 40.4822 19.5019C40.4429 19.7817 40.449 20.1822 40.449 20.1822C40.2083 20.0611 40.1958 20.2226 40.1958 20.2226C40.1336 20.4773 39.8389 20.7724 39.8389 20.7724C39.8264 20.614 39.6812 20.5736 39.6812 20.5736C39.5277 20.8686 39.2454 21.0457 39.2454 21.0457C39.2081 21.3004 39.2787 21.6577 39.2787 21.6577C39.0961 21.6204 39.0297 21.6235 39.0006 21.667C38.9715 21.7105 39.0421 21.7322 39.0421 21.7322L41.4201 21.7912C41.4534 21.7944 41.5944 21.8099 41.5986 22.0677C41.6027 22.3255 41.3911 22.3379 41.3911 22.3379L38.789 22.2758C38.789 22.2758 38.8014 22.3472 38.6645 22.4187C38.5275 22.4902 38.5731 22.3379 38.5358 22.6578C38.4984 22.9778 37.9796 22.633 37.9796 22.633C37.8966 22.7572 37.6933 22.9188 37.6933 22.9188C37.5771 22.5677 37.4567 22.4591 37.27 22.7635C37.0832 23.0679 37.6061 23.0151 37.6061 23.0151C37.6061 23.0151 40.6606 22.5647 40.8266 22.5492C40.9926 22.5336 41.1752 22.5429 41.2499 22.7759C41.3246 23.0089 40.8805 23.0462 40.8805 23.0462L37.7472 23.3878C37.6808 23.5742 37.4194 23.5587 37.4194 23.5587C37.4401 23.7357 37.2534 23.8476 37.1579 23.9128C37.0624 23.9781 36.7637 23.947 36.7637 23.947C36.3985 24.1955 36.22 23.9998 36.22 23.9998C35.9835 24.1023 35.834 24.0588 35.639 23.9749C35.4439 23.891 35.4606 23.655 35.4606 23.655L33.4831 23.86C33.3897 23.8926 33.3254 23.9547 33.3254 23.9547C33.3959 24.0448 33.1837 24.2541 33.1837 24.2541C33.2429 24.2949 33.3565 24.409 33.372 24.656C33.3885 24.9172 33.053 24.9612 33.2211 25.1429C33.3891 25.3246 33.6957 25.1744 34.0381 25.0101C34.3805 24.8459 34.7166 24.8669 34.8629 24.868C35.0092 24.8691 35.417 24.9717 35.6706 25.0614C35.9243 25.151 36.0114 25.0975 36.0285 24.967C36.0456 24.8365 36.1593 24.7993 36.1593 24.7993C36.1281 24.9274 36.1967 24.9845 36.1967 24.9845C36.2947 24.9915 36.4659 24.896 36.4659 24.896C36.4503 24.9903 36.3258 25.0497 36.3258 25.0497C36.0768 25.2163 36.4192 25.1546 36.4192 25.1546C37.1009 25.0148 37.3436 25.0288 37.521 25.0474C37.6985 25.0661 38.5357 25.4225 38.5357 25.4225C38.5669 25.3386 38.5451 25.1313 38.5451 25.1313C38.7599 25.1896 38.847 25.313 38.847 25.313C38.9279 25.2245 38.875 25.0754 38.875 25.0754C39.566 25.4621 38.7319 25.6368 38.5109 25.7114C38.2899 25.7859 38.293 25.8768 38.293 25.8768C38.4767 25.8185 38.6042 25.7975 38.7568 25.7859C38.9093 25.7743 38.8564 25.7836 39.2206 25.7114C39.5848 25.6391 39.7715 25.7929 39.7715 25.7929C39.4665 25.8092 39.3763 25.9 39.3763 25.9C39.5692 26.0328 39.3856 26.1447 39.3856 26.1447C39.1086 25.7952 38.872 26.1587 38.872 26.1587C38.9669 26.1447 39.2456 26.2029 39.3249 26.253C39.3863 26.2918 39.5303 26.3625 39.7093 26.4452C39.962 26.562 39.9147 26.4871 40.1108 26.5617C40.3068 26.6363 40.2322 26.8249 40.2322 26.8249C40.1482 26.6712 39.9676 26.6176 39.9676 26.6176C39.9521 26.8249 39.7435 26.8599 39.7435 26.8599C39.9988 26.5756 39.4478 26.4522 39.1895 26.4568C38.9312 26.4615 38.7382 26.6269 38.7382 26.6269C39.258 27.1138 39.619 26.9554 39.619 26.9554C39.5537 27.1324 39.1241 27.0625 39.1241 27.0625C39.3234 27.2139 39.3016 27.3211 39.3016 27.3211C39.1957 27.2186 39.0214 27.2699 38.648 27.0276C38.2745 26.7853 37.9414 26.8646 37.9414 26.8646C38.3056 27.2536 37.8076 27.4842 37.8076 27.4842C37.6239 27.5891 37.8854 27.7312 37.8854 27.7312C37.6551 27.7731 37.6239 27.5425 37.6239 27.5425C37.5025 27.5192 37.3282 27.666 37.3282 27.666C37.3407 27.4283 37.6519 27.5472 37.6613 27.3002C37.6706 27.0532 37.3718 26.8623 36.4909 26.9834C35.6101 27.1045 35.3517 26.8227 35.3517 26.8227C35.277 26.825 35.2614 26.8995 35.2614 26.8995C35.4077 27.0393 35.4731 27.0975 35.4482 27.1954C35.4233 27.2933 35.4949 27.3259 35.4949 27.3259C35.333 27.3165 35.3206 27.1232 35.3206 27.1232C35.3175 27.2025 35.2832 27.2095 35.2303 27.2933C35.1774 27.3771 35.2272 27.4843 35.2272 27.4843C35.1587 27.4237 35.0342 27.3515 35.1525 27.1791C35.2436 27.0464 34.9626 26.8763 34.9626 26.8763C34.8537 26.7645 34.5642 26.8693 34.5642 26.8693C33.9635 26.9881 33.6118 26.6084 33.6118 26.6084C33.5433 26.6084 33.4126 26.5711 33.4126 26.5711C32.7776 26.8553 32.2205 26.2403 32.2205 26.2403C31.7412 26.3312 31.5233 26.1005 31.377 25.8745C31.2307 25.6485 31.2027 25.6299 31.0097 25.5135C30.8167 25.397 30.6363 25.0674 30.8136 24.8938C30.9682 24.7424 30.9226 24.7074 30.9226 24.7074C30.6736 24.2889 31.3666 24.1539 31.3791 24.0537C31.3972 23.9076 31.542 23.8152 31.6976 23.8058C31.8532 23.7965 31.8532 23.8105 31.9559 23.7057C32.0586 23.6008 32.2547 23.7313 32.2547 23.7313C32.2952 23.701 32.6376 23.4354 32.9426 23.5729C33.2477 23.7104 33.4998 23.6125 33.4998 23.6125C33.7146 23.5659 35.498 23.3236 35.498 23.3236C35.6132 23.1512 35.6941 22.9439 36.1859 22.8321C36.6777 22.7203 37.0512 22.4151 37.0512 22.4151C36.964 22.3219 36.8178 22.3266 36.7431 22.3172C36.6684 22.3079 36.5128 22.1751 36.5128 22.1751C36.4225 22.2147 36.3762 22.1953 35.7315 22.5874C35.1557 22.9377 35.1391 22.2427 35.1391 22.2427L33.8827 22.245C33.8609 22.5105 33.6586 22.6154 33.6586 22.6154L33.2011 22.6387C32.9458 22.5035 32.9427 22.054 32.9427 22.054C31.5608 22.0749 30.792 22.5688 30.792 22.5688C29.2263 21.7674 28 21.5857 28 21.5857C29.9018 21.3783 30.9071 20.8495 30.9071 20.8495C31.956 21.4785 32.9427 21.4948 32.9427 21.4948C32.9801 21.1151 33.2353 21.0219 33.2353 21.0219L33.5247 21.0376Z" fill="black"/>
<path d="M31.2636 24.1933C30.8662 24.4264 30.9381 24.5536 30.9727 24.6252C31.008 24.6982 31.0121 24.7681 30.9042 24.8768C30.7963 24.9856 30.8067 25.0233 30.8067 25.0233C30.8233 25.4096 31.0969 25.4916 31.211 25.5863C31.3065 25.6657 31.4686 25.9143 31.4686 25.9143C31.672 26.2063 31.8877 26.2093 32.0475 26.2093C32.2073 26.2093 32.1931 26.1958 32.1118 26.1239C32.0354 26.0563 31.8753 25.9252 31.8753 25.9252C32.089 25.9997 32.2923 26.2233 32.2923 26.2233C32.6961 26.6652 33.0684 26.607 33.2323 26.5852C33.3962 26.5635 33.3672 26.4687 33.3672 26.4687C33.3585 26.453 33.1991 26.4407 33.1991 26.4407C32.5932 26.3833 32.4106 25.9857 32.4106 25.9857C32.7758 26.3445 33.3485 26.4175 33.5249 26.4109C33.7012 26.4042 33.6909 26.4547 33.6535 26.4641C33.6161 26.4734 33.5622 26.4641 33.4813 26.4578C33.4003 26.4516 33.4003 26.4718 33.419 26.506C33.4377 26.5401 33.5139 26.5436 33.6104 26.5401C33.7069 26.5366 33.6291 26.5471 33.8796 26.7416C34.1302 26.9362 34.7543 26.7789 34.7543 26.7789C34.3512 26.6788 34.2952 26.497 34.2952 26.497C33.7474 26.5611 33.5248 26.2326 33.5248 26.2326C33.4268 26.1348 33.1341 25.9835 33.1341 25.9835C32.8245 25.8506 32.7762 25.5704 32.7762 25.5704C32.8634 25.6944 33.033 25.8366 33.2478 25.896C33.4625 25.9554 33.5232 25.9868 33.5232 25.9868C33.4205 26.002 33.3598 25.9682 33.3598 25.9682C33.145 25.9053 33.2664 25.9927 33.2664 25.9927C33.503 26.1814 33.5684 26.1674 33.5684 26.1674C34.1893 26.2315 33.8812 25.9834 33.8812 25.9834C34.3232 26.0883 34.3963 25.9228 34.3963 25.9228C34.4881 26.1173 34.8227 26.0474 34.8227 26.0474C34.3776 26.2617 34.7154 26.2005 34.7154 26.2005C35.1651 26.1162 35.2533 26.2307 35.2533 26.2307C35.375 26.3439 35.4982 26.3282 35.4982 26.3282C35.4982 26.3282 35.5791 26.3305 35.7503 26.3648C35.9215 26.3991 36.1829 26.5448 36.4319 26.514C36.6809 26.4832 36.7214 26.5613 36.7214 26.5613C36.6747 26.5452 36.5658 26.5286 36.3728 26.6148C36.1798 26.701 35.8468 26.7289 35.3612 26.6148C34.8757 26.5006 34.8383 26.5146 34.8383 26.5146C34.9535 26.6008 35.0562 26.722 35.078 26.8058C35.0998 26.8896 35.1838 26.8943 35.1838 26.8943C35.2181 26.7872 35.3643 26.7406 35.3643 26.7406C35.4601 26.8291 35.7161 26.9456 35.7161 26.9456C35.7441 26.8873 35.7161 26.8466 35.7161 26.8466C35.9028 27.0248 36.1207 26.9712 36.1207 26.9712C36.1797 26.9294 36.1612 26.8291 36.1612 26.8291C36.2359 26.8267 36.2483 26.8733 36.3012 26.9083C36.3541 26.9433 36.5222 26.9199 36.5222 26.9199C36.4599 26.8943 36.4163 26.7988 36.4163 26.7988C36.6622 26.6288 37.1945 26.7033 37.1945 26.7033C37.5789 26.7708 37.5306 27.0224 37.5306 27.0224C37.6084 27.0597 37.7111 27.1762 37.7111 27.1762C37.7438 27.0877 37.7143 26.998 37.7143 26.998C37.8901 27.0818 37.9275 27.2868 37.9275 27.2868C38.1313 27.0539 37.7329 26.7918 37.7329 26.7918C37.9259 26.7673 38.1391 26.7848 38.2683 26.8034C38.3975 26.8221 38.5827 26.8897 38.7336 27.0155C38.8846 27.1412 39.1554 27.1995 39.1554 27.1995C39.1471 27.1475 39.0029 27.0597 38.9702 27.0411C38.9376 27.0224 38.9236 26.977 38.9236 26.977C39.0558 27.0003 39.1476 26.9887 39.1476 26.9887C38.6823 26.7044 38.5656 26.5694 38.5656 26.5694C38.7399 26.5915 38.8364 26.4831 38.8364 26.4831C38.4691 26.4913 38.4567 26.3958 38.4567 26.3958C38.5018 26.4086 38.6683 26.4494 38.8878 26.4063C39.1072 26.3632 39.4122 26.4074 39.4122 26.4074C39.2535 26.1523 38.6387 26.1954 38.4427 26.2059C38.2466 26.2164 38.1703 26.1908 38.1703 26.1908C38.2015 26.1756 38.2342 26.143 38.3882 26.1419C38.5423 26.1407 38.6932 26.1535 38.8675 26.0335C39.0418 25.9135 39.281 25.9531 39.281 25.9531C39.2229 25.8382 38.9469 25.7978 38.7041 25.9531C38.4614 26.1084 38.2414 26.0588 38.2414 26.0588C38.6253 26.0044 38.7373 25.8693 38.7373 25.8693C38.6211 25.8413 38.5568 25.8786 38.3265 25.9236C38.0961 25.9686 38.0339 25.8895 38.0339 25.8895C38.287 25.7388 38.4634 25.6782 38.4634 25.6782C38.2476 25.6332 38.0484 25.5411 38.0484 25.5411C37.8243 25.7518 37.65 25.8708 37.2205 25.6456C36.7909 25.4204 36.5669 25.4468 36.5669 25.4468C36.9445 25.2232 37.3325 25.3195 37.6148 25.4887C37.897 25.658 37.9779 25.5198 37.9779 25.5198C37.8887 25.4639 37.9011 25.4157 37.9011 25.4157C38.5859 25.7652 38.8826 25.5478 39.0341 25.4452C39.1856 25.3427 38.9656 25.2061 38.9656 25.2061C38.9511 25.4282 38.671 25.5291 38.451 25.4546C38.2311 25.3801 38.0277 25.2853 37.7113 25.1533C37.3949 25.0213 36.9985 25.0896 36.6292 25.1673C36.2598 25.2449 36.2121 25.2077 36.1789 25.1782C36.1456 25.1487 36.127 25.0586 35.9382 25.1363C35.7493 25.2139 35.3094 25.0074 35.0355 24.9421C34.7616 24.8769 34.3132 24.9126 33.9254 25.1254C33.5375 25.3382 33.3465 25.2854 33.2302 25.2325C33.114 25.1797 33.0414 25.0338 33.1659 24.9033C33.2905 24.7728 33.3008 24.7371 33.2905 24.5491C33.2801 24.3612 33.0954 24.2494 33.0954 24.2494C33.2655 24.0739 33.3071 24.0351 33.2489 23.959C33.1909 23.8829 33.2822 23.8844 33.3797 23.8409C33.4772 23.7975 33.4336 23.7912 33.4108 23.7338C33.388 23.6763 33.332 23.6857 33.332 23.6857C33.1058 23.695 32.9813 23.6329 32.9813 23.6329C32.6067 23.4605 32.2592 23.7959 32.2592 23.7959C32.0464 23.6329 31.9977 23.7384 31.9603 23.7788C31.923 23.8192 31.8483 23.8472 31.7487 23.8565C31.6581 23.8649 31.5211 23.9004 31.4737 23.985C31.4737 23.985 31.4317 24.0531 31.484 24.1275C31.484 24.1275 31.5422 24.2152 31.4364 24.3212C31.3306 24.4272 31.2932 24.4528 31.3259 24.553C31.3586 24.6531 31.3492 24.73 31.3088 24.7952C31.3088 24.7952 31.2606 24.7393 31.273 24.6706C31.2855 24.6019 31.2855 24.5623 31.2699 24.525C31.2699 24.525 31.1657 24.6275 31.147 24.7009C31.147 24.7009 31.1034 24.5879 31.2543 24.4365C31.4053 24.2851 31.474 24.2097 31.4318 24.1511C31.4006 24.108 31.2902 24.1778 31.2636 24.1933Z" fill="#FFC221"/>
<path d="M31.6925 25.8632C31.6925 25.8632 31.5037 25.7187 31.5265 25.5184C31.5494 25.318 31.5456 25.2932 31.5246 25.2512C31.5246 25.2512 31.4902 25.2712 31.4912 25.3491C31.4922 25.4222 31.4819 25.4982 31.4746 25.5121C31.4746 25.5121 31.3771 25.346 31.3377 25.3149C31.3377 25.3149 31.3709 25.141 31.3169 25.0664C31.263 24.9919 31.2108 24.9872 31.1489 25.0105C31.0632 25.0427 30.9985 25.1223 31.2864 25.3584C31.2864 25.3584 31.3937 25.4438 31.4685 25.6333C31.5432 25.8228 31.6677 25.8523 31.6925 25.8632ZM32.6284 25.3087C32.6284 25.3087 32.6139 25.1953 32.7156 24.995C32.8173 24.7946 32.7563 24.6458 32.7334 24.596C32.7106 24.5463 32.6969 24.5648 32.7994 24.4787C32.9257 24.3727 32.7508 24.239 32.9583 24.0532C32.9583 24.0532 33.0953 23.9358 33.1264 23.8876C33.1264 23.8876 32.9065 24.0057 32.7633 24.0647C32.6201 24.1237 32.0723 24.3923 32.1927 24.5725C32.313 24.7526 32.3006 24.762 32.2819 24.8365C32.2819 24.8365 31.9561 24.6641 32.0702 24.3846C32.0702 24.3846 32.122 24.272 32.2591 24.1454C32.3836 24.0305 32.3088 24.1703 32.562 24.0258C32.562 24.0258 32.7633 23.9062 32.8691 23.7447C32.8691 23.7447 32.7363 23.8286 32.6885 23.8426C32.6885 23.8426 32.3959 23.8953 32.2777 24.0196C32.1594 24.1438 31.9083 24.3597 31.9934 24.6004C31.9934 24.6004 31.7008 24.5647 31.6344 24.2603C31.6344 24.2603 31.0928 24.9281 32.2299 25.2387C32.23 25.2388 32.4375 25.294 32.6284 25.3087Z" fill="black"/>
<path d="M37.6301 23.0759C38.0548 23.0117 40.5159 22.6398 40.7396 22.6171C40.9844 22.5923 41.0782 22.5596 41.1587 22.7569C41.25 22.9805 40.8226 22.9836 40.8226 22.9836L37.8884 23.3163C37.7445 23.3329 37.7123 23.278 37.7123 23.278C37.6869 23.2311 37.6379 23.1687 37.604 23.1278C37.604 23.1278 37.5654 23.0857 37.6301 23.0759Z" fill="#FFC221"/>
<path d="M31.6199 24.4108C31.6199 24.4108 31.3024 25.0794 32.5505 25.2448C32.5505 25.2448 32.5536 25.1703 32.6034 25.0654C32.6532 24.9606 32.7622 24.7486 32.6594 24.6111C32.5567 24.4737 32.7435 24.5459 32.7715 24.3665C32.7995 24.1871 32.7528 24.2127 32.84 24.0963C32.84 24.0963 32.4478 24.2384 32.2984 24.4108C32.149 24.5832 32.5007 24.7136 32.2921 24.9023C32.2921 24.9023 32.1178 24.8394 32.0151 24.6507C32.0152 24.6507 31.7724 24.6554 31.6199 24.4108Z" fill="#5A3719"/>
<path d="M32.84 25.2321C32.84 25.2321 33.1481 25.4988 33.5154 25.4872C33.8827 25.4755 34.0383 25.3777 34.1317 25.2321C34.1317 25.2321 34.2031 25.3449 34.2033 25.4196C34.2033 25.4196 34.5207 25.1563 35.0686 25.3846C35.6164 25.6129 35.4483 25.5502 35.5697 25.5664C35.5697 25.5664 35.3368 25.525 34.804 25.769C34.2562 26.0199 32.8275 25.9344 32.84 25.2321Z" fill="black"/>
<path d="M32.3295 24.0522C32.3295 24.0522 32.468 24.0732 32.6065 23.9171C32.6065 23.9171 32.4198 23.952 32.3295 24.0522ZM31.2829 25.2939C31.2829 25.2939 31.0253 25.0912 31.1903 25.0516C31.1903 25.0516 31.3078 25.033 31.2829 25.2939Z" fill="#5A3719"/>
<path d="M36.8893 26.5613C36.8893 26.5613 37.0263 26.3165 37.4216 26.3165C37.8169 26.3165 37.8636 26.4983 38.3616 26.5332C38.3616 26.5332 37.7636 26.7017 37.3469 26.5472C37.129 26.4664 36.9329 26.5336 36.8893 26.5613Z" fill="black"/>
<path d="M32.9769 25.4103C32.9769 25.4103 33.5683 25.7691 34.0943 25.38C34.0943 25.38 34.1379 25.422 34.1753 25.5175C34.1753 25.5175 34.5736 25.133 35.2864 25.5477C35.2864 25.5477 35.1988 25.538 34.8631 25.6829C34.4258 25.8716 33.3318 25.9951 32.9769 25.4103Z" fill="#5A3719"/>
<path d="M35.2584 25.7738C35.2584 25.7738 35.8248 25.8395 36.3042 25.8111C36.5987 25.7936 36.9174 25.7397 36.7586 25.8395C36.5999 25.9392 36.6777 25.9485 37.3562 25.8857C38.0348 25.8228 37.35 26.0138 37.8169 26.0743C37.8169 26.0743 36.6853 26.652 35.2584 25.7738Z" fill="black"/>
<path d="M36.7462 25.4127C36.7462 25.4127 37.0792 25.2915 37.3874 25.4359C37.6955 25.5804 37.6489 25.5921 37.8543 25.613C37.8543 25.613 37.7111 25.818 37.3719 25.6526C37.0326 25.4872 36.9427 25.4553 36.7462 25.4127ZM37.1166 26.4354C37.1166 26.4354 37.4434 26.2724 37.8046 26.4418C37.8498 26.463 37.9483 26.5039 38.041 26.5239C38.041 26.5239 37.7643 26.6097 37.4807 26.5215C37.3629 26.4849 37.2691 26.4564 37.1166 26.4354ZM35.5012 25.8506C35.5012 25.8506 36.2295 25.9181 36.6248 25.8394C36.6248 25.8394 36.1672 26.0603 37.3158 25.9578C37.3158 25.9578 37.571 25.9298 37.5398 25.9694C37.5087 26.009 37.4901 26.0393 37.6145 26.0765C37.6146 26.0766 36.7618 26.4586 35.5012 25.8506Z" fill="#5A3719"/>
<path d="M31.8625 25.2321C31.8625 25.2321 31.8687 25.288 32.0306 25.3602C32.1924 25.4324 32.2796 25.5617 32.3138 25.6316C32.3481 25.7015 32.4305 25.8061 32.5644 25.8394C32.5644 25.8394 31.9934 25.9586 31.7375 25.6615C31.7375 25.6615 31.5435 25.4476 31.8563 25.2321" fill="black"/>
<path d="M36.3572 26.5495C36.3572 26.5495 36.13 26.5355 35.8219 26.4283C35.5137 26.3212 35.4328 26.412 35.2585 26.2816C35.0842 26.1511 34.7325 26.2326 34.6671 26.2419C34.6018 26.2513 34.415 26.2419 34.6485 26.0905C34.6485 26.0905 34.4617 26.0859 34.3901 25.9927C34.3901 25.9927 34.3061 26.0742 33.9917 26.0439C33.9917 26.0439 34.1318 26.2639 33.5684 26.2005C33.5684 26.2005 33.7365 26.3957 33.9388 26.4353C34.1412 26.4749 34.2255 26.4618 34.3559 26.4237C34.3559 26.4237 34.3185 26.5937 34.58 26.659C34.8414 26.7242 34.8943 26.7754 35.0282 26.829C35.0282 26.829 35.0469 26.7195 34.6983 26.4656C34.6983 26.4656 34.885 26.4562 35.1527 26.5215C35.4203 26.5867 36.0272 26.7428 36.3572 26.5495ZM36.4983 26.8104C36.4983 26.8104 36.5543 26.9408 36.7265 26.9113C36.8988 26.8818 37.182 26.8313 37.4559 26.9711C37.4559 26.9711 37.5026 26.7381 36.9527 26.7218C36.9527 26.7218 36.6083 26.7405 36.4983 26.8104ZM31.842 25.3147C31.842 25.3147 31.6303 25.4887 31.8222 25.6696C31.9976 25.8349 32.2684 25.8203 32.398 25.8156C32.398 25.8156 32.3202 25.7714 32.2518 25.6689C32.1833 25.5664 32.1809 25.4971 32.037 25.4312C31.8876 25.3629 31.8699 25.3451 31.842 25.3147ZM31.6199 24.4109C31.6199 24.4109 31.3024 25.0795 32.5505 25.2449C32.5505 25.2449 32.5536 25.1703 32.6034 25.0655C32.6532 24.9606 32.7622 24.7487 32.6594 24.6112C32.5567 24.4737 32.7435 24.546 32.7715 24.3666C32.7995 24.1872 32.7528 24.2128 32.84 24.0963C32.84 24.0963 32.4478 24.2384 32.2984 24.4108C32.149 24.5832 32.5007 24.7137 32.2921 24.9024C32.2921 24.9024 32.1178 24.8395 32.0151 24.6508C32.0152 24.6508 31.7724 24.6555 31.6199 24.4109Z" fill="#5A3719"/>
<path d="M34.9005 25.9533C34.9005 25.9533 35.162 25.9114 35.828 26.1607C36.4941 26.41 36.7711 26.3471 36.8707 26.3401C36.8707 26.3401 36.495 26.5364 35.9131 26.2801C35.3986 26.0535 35.3643 26.1397 34.9005 25.9533Z" fill="black"/>
<path d="M39.0702 25.804C39.0702 25.804 39.2223 25.7988 39.3109 25.8405C39.3109 25.8405 39.369 25.7908 39.508 25.7761C39.508 25.7761 39.4167 25.6844 39.0702 25.804ZM38.6148 25.4352C38.6148 25.4352 38.7673 25.4282 38.813 25.3552C38.813 25.3552 38.7362 25.2574 38.6189 25.2108C38.6189 25.2107 38.6428 25.3148 38.6148 25.4352ZM33.4967 23.733C33.4967 23.733 33.4687 23.6585 33.6274 23.6351C33.7862 23.6119 35.8612 23.316 35.8612 23.316C35.8612 23.316 35.9712 23.3158 35.9867 23.3882C36.0036 23.4665 35.9743 23.525 35.4732 23.5836C34.9721 23.6421 33.6492 23.8075 33.6492 23.8075C33.6492 23.8075 33.5091 23.8309 33.4967 23.733Z" fill="#FFC221"/>
<path d="M35.5209 23.6437C35.5209 23.6437 35.5209 23.9372 35.8197 23.9807C36.1096 24.0229 36.2093 23.9626 36.2866 23.81C36.3069 23.7699 36.3958 23.4634 36.2671 23.44C36.2165 23.4308 36.1267 23.4361 36.0625 23.4635C35.9625 23.5062 35.8698 23.5563 35.9028 23.6064C35.9733 23.7135 35.9871 23.7384 35.9608 23.7462C35.8892 23.7674 35.8364 23.7044 35.8218 23.6608C35.8036 23.6063 35.8613 23.5713 35.6662 23.6002C35.5864 23.612 35.5209 23.6095 35.5209 23.6437Z" fill="#FFC221"/>
<path d="M36.7638 23.4181C36.9165 23.4357 36.9049 23.7587 36.7223 23.9047C36.5257 24.0619 36.338 24.0056 36.338 24.0056C36.2388 23.9637 36.2513 23.9777 36.328 23.8612C36.4007 23.751 36.435 23.6025 36.3944 23.4993C36.3815 23.4663 36.4173 23.4396 36.4679 23.4287C36.468 23.4286 36.6062 23.3999 36.7638 23.4181Z" fill="#FFC221"/>
<path d="M36.8966 23.4465C36.8966 23.4465 37.0056 23.5836 36.8696 23.8363C36.8696 23.8363 36.8094 23.9108 36.9443 23.8999C37.0792 23.889 37.3801 23.7446 37.3489 23.5598C37.3489 23.5598 37.3385 23.5148 37.2597 23.5194C37.1808 23.5241 37.2452 23.4759 37.2784 23.4666C37.3116 23.4573 37.4143 23.4193 37.1477 23.2476C37.1477 23.2476 37.1037 23.208 37.0522 23.2243C37.0116 23.2372 36.8696 23.2955 36.8696 23.3781C36.8696 23.412 36.8966 23.4465 36.8966 23.4465Z" fill="#FFC221"/>
<path d="M37.1882 23.2143C37.1882 23.2143 37.4009 23.3667 37.3999 23.412C37.3988 23.4573 37.3801 23.5187 37.4362 23.5133C37.4922 23.5078 37.7226 23.4589 37.6592 23.3067C37.596 23.1545 37.5326 23.1009 37.4258 23.0637C37.3189 23.0264 37.292 23.0769 37.2007 23.146C37.2007 23.146 37.1343 23.1863 37.1882 23.2143ZM36.0376 23.4294C36.0376 23.4294 36.0729 23.316 35.882 23.2741C35.882 23.2741 35.9629 23.2073 36.1247 23.2431C36.2855 23.2785 36.2683 23.3844 36.2671 23.3983C36.2671 23.3983 36.1413 23.3936 36.0376 23.4294ZM36.4526 23.403C36.4526 23.403 36.6738 23.3642 36.7722 23.3766C36.7722 23.3766 36.6632 23.1328 36.3686 23.2158C36.3686 23.2158 36.4744 23.3355 36.4526 23.403ZM36.8313 23.3424C36.8313 23.3424 36.8313 23.2679 37.0191 23.1933C37.0191 23.1933 36.9279 23.1075 36.8012 23.1156C36.656 23.125 36.6269 23.1778 36.6269 23.1778C36.6269 23.1778 36.7846 23.2325 36.8313 23.3424ZM36.9049 23.0877C36.9049 23.0877 37.0212 23.1172 37.0938 23.1793C37.0938 23.1793 37.2039 23.0591 37.2971 23.0333C37.2971 23.0333 37.1145 22.9355 36.9049 23.0877Z" fill="#FFC221"/>
<path d="M30.795 22.5007C30.795 22.5007 31.3077 22.0663 31.595 22.1186C31.8821 22.1709 31.7381 22.1349 32.0525 22.086C32.3669 22.0371 32.6906 22.0045 32.8213 22.0208C32.8213 22.0208 32.4416 21.7482 31.763 21.7529C31.763 21.7529 31.2837 21.9183 30.9537 22.1373C30.9537 22.1373 30.3188 21.7831 29.662 21.9951C29.662 21.9951 30.3748 22.2537 30.795 22.5007Z" fill="#5A3719"/>
<path d="M36.2466 23.2531L36.3322 23.2387C36.3322 23.2387 36.4767 23.4176 36.3717 23.4196C36.2897 23.4213 36.3228 23.3944 36.3073 23.3424C36.2917 23.2903 36.2638 23.2671 36.2466 23.2531ZM35.6024 23.2671C35.6024 23.2671 35.551 23.3309 35.6475 23.316C35.765 23.2978 35.7424 23.3199 35.8716 23.2325C35.8716 23.2325 35.951 23.1482 36.0988 23.2007C36.0988 23.2007 36.2233 23.2414 36.3244 23.1925C36.4256 23.1436 36.4489 23.1471 36.5034 23.1518C36.5578 23.1564 36.5542 23.1682 36.6269 23.1151C36.6995 23.0621 36.8255 23.1028 36.9049 23.0364C36.9843 22.97 37.0839 23.0259 36.9049 22.8978C36.9049 22.8978 36.8675 22.8605 36.8707 22.8291C36.8707 22.8291 36.9391 22.8489 36.9936 22.8978C37.0481 22.9467 37.1383 22.9316 37.1539 22.9234C37.1539 22.9234 37.1633 22.7638 37.322 22.6171C37.4807 22.4703 37.4823 22.4587 37.3889 22.4575C37.2956 22.4563 37.1383 22.4202 37.0855 22.4575C37.0326 22.4947 36.5672 22.7999 36.2964 22.8511C36.0257 22.9025 35.7767 22.9793 35.6024 23.2671ZM28.3766 21.5975C28.3766 21.5975 29.2076 21.8118 29.3944 21.9019C29.3944 21.9019 29.439 21.7629 29.0613 21.6542C29.0613 21.6542 29.9785 21.6262 30.9496 22.0673C30.9496 22.0673 31.4177 21.6659 32.9241 21.7902C32.9241 21.7902 32.9271 21.6571 32.9375 21.5548C32.9375 21.5548 31.8792 21.5238 30.9081 20.9336C30.9081 20.9335 30.0387 21.3614 28.3766 21.5975ZM32.9956 21.999C32.9375 21.1494 33.2632 21.0734 33.2632 21.0734C33.2632 21.0734 33.4167 21.0742 33.5828 21.0998C33.5828 21.0998 33.3255 21.4057 33.3939 22.013C33.3939 22.013 33.4209 22.1108 33.203 22.1108C32.9886 22.1108 32.9956 21.999 32.9956 21.999Z" fill="#FFC221"/>
<path d="M33.2176 22.5613C33.2176 22.5613 33.0599 22.3997 33.0433 22.2134C33.0433 22.2134 33.0391 22.1652 33.1989 22.1699C33.3587 22.1745 33.3795 22.1545 33.4188 22.2475C33.4571 22.3379 33.5578 22.5286 33.5828 22.5504L33.2176 22.5613Z" fill="#5A3719"/>
<path d="M33.5588 22.1371C33.5444 22.026 33.5388 21.9312 33.5413 21.8142C33.5517 21.3405 33.6303 21.3826 33.6615 21.4417L33.8235 21.4446C33.8235 21.4446 33.7052 20.9104 33.5662 21.2225C33.4296 21.5292 33.4396 21.7288 33.4562 21.9711C33.4658 22.1106 33.4842 22.1975 33.4998 22.2498L33.5588 22.1371Z" fill="#FFC221"/>
<path d="M35.3891 22.1384C35.3891 22.1384 35.7019 22.1861 35.2226 22.3003C35.2226 22.3003 35.2459 22.8795 35.8124 22.4738C35.8124 22.4738 36.147 22.2599 36.3789 22.1729C36.3789 22.1729 36.4956 22.1325 36.4816 22.0452C36.4816 22.0452 36.4909 21.9423 36.3695 21.9624C36.3695 21.9624 36.2739 21.9647 36.2123 21.9422C36.2123 21.9422 36.1454 21.8634 36.1003 21.8937C36.0551 21.924 35.9493 21.9065 36.0318 22.0067C36.1143 22.1069 36.1392 22.0812 36.1797 22.0521C36.2201 22.023 36.3991 21.952 36.2341 22.0999C36.0692 22.2478 35.94 22.0183 35.8871 21.9764L35.3891 22.1384ZM33.8235 22.204L33.6845 22.2009C33.6845 22.2009 33.6098 22.3127 33.5588 22.1371L33.4998 22.2497C33.4998 22.2497 33.672 22.8716 33.8235 22.204Z" fill="#5A3719"/>
<path d="M33.6264 21.4865C33.6264 21.4865 33.5558 21.8934 33.6451 22.145L35.1495 22.173C35.1495 22.173 35.1308 21.881 35.1536 21.4866H34.9399C34.9399 21.4866 34.9109 21.8142 34.9379 22.0161L34.9026 22.0168C34.9026 22.0168 34.8756 21.7335 34.9046 21.4866H34.7283C34.7283 21.4866 34.6992 21.7894 34.722 22.0192H34.6888C34.6888 22.0192 34.6639 21.7537 34.693 21.4866H34.5187C34.5187 21.4866 34.4866 21.7608 34.5209 22.0155L34.4793 22.0146C34.4793 22.0146 34.444 21.7366 34.4813 21.4866H34.2884C34.2884 21.4866 34.2407 21.7428 34.2863 22.0177H34.2468C34.2468 22.0177 34.2033 21.7552 34.251 21.4866H34.058C34.058 21.4866 34.0124 21.777 34.0518 22.0177H34.0144C34.0144 22.0177 33.9832 21.7366 34.0248 21.4866H33.8442C33.8442 21.4866 33.7965 21.7319 33.8359 22.0177H33.7965C33.7965 22.0177 33.7674 21.8049 33.8048 21.4866H33.6264V21.4865ZM35.2159 22.2289C35.2159 22.2289 35.1742 21.4927 35.3155 21.3033C35.4567 21.1139 35.4856 21.1511 35.7263 21.3033C35.967 21.4555 36.2783 21.6201 36.3281 21.6387C36.3779 21.6574 36.4485 21.676 36.4485 21.8096C36.4485 21.9432 36.4734 21.9835 36.2658 21.8158C36.2348 21.7907 36.1377 21.7019 36.0677 21.6795C35.8817 21.6202 36.1124 21.7212 36.1787 21.8158C36.2349 21.896 36.2783 21.8872 36.1331 21.9245C35.9878 21.9619 35.4856 22.1295 35.2159 22.2289Z" fill="#FFC221"/>
<path d="M35.7425 21.7017C35.7425 21.7017 35.6335 21.5641 35.7721 21.5326C35.9106 21.5012 35.9214 21.7504 35.9448 21.9007C35.9682 22.0509 35.7705 21.7488 35.7425 21.7017ZM35.5402 22.3433C35.5402 22.3433 35.3784 22.4027 35.4842 22.4551C35.59 22.5075 35.8888 22.2595 35.7862 22.2757C35.6834 22.2921 35.5402 22.3433 35.5402 22.3433ZM35.7597 22.1162C35.7597 22.1162 35.9028 22.1022 35.8748 22.1639C35.8468 22.2257 35.7954 22.1865 35.7737 22.1728C35.7518 22.1593 35.6507 22.1243 35.7597 22.1162Z" fill="black"/>
<path d="M36.5221 21.9236C36.5221 21.9236 36.5605 22.204 36.8012 22.275C36.8012 22.275 36.9402 22.3096 36.9112 22.1869C36.9112 22.1869 36.8873 22.0844 36.8676 22.0417C36.8479 21.9989 36.7514 21.9718 36.741 21.9671C36.7307 21.9625 36.7182 21.933 36.7846 21.9547C36.851 21.9765 36.8614 21.9788 36.8562 21.9322C36.851 21.8856 36.812 21.9044 36.751 21.8746C36.7275 21.8631 36.7535 21.8476 36.7784 21.8531C36.8033 21.8585 36.8625 21.8763 36.8635 21.7801C36.8635 21.7801 36.8767 21.7265 36.8033 21.7226C36.7234 21.7183 36.7297 21.6826 36.7546 21.6772C36.7795 21.6718 36.8631 21.7297 36.8863 21.6344C36.9102 21.5366 36.7711 21.5929 36.7898 21.5424C36.8085 21.4919 36.907 21.5713 36.9152 21.5114C36.9232 21.4531 37.0028 21.4278 36.8672 21.409C36.8029 21.4001 36.8623 21.3716 36.9346 21.3817C37.0119 21.3926 37.0586 21.2971 37.1032 21.266C37.1478 21.235 37.4 21.0843 37.0638 21.134C36.7276 21.1837 36.6291 21.3468 36.6073 21.3794C36.5854 21.4119 36.492 21.6045 36.5221 21.9236Z" fill="#FFC221"/>
<path d="M37.3053 22.1409C37.3485 22.1326 37.3893 22.1443 37.404 22.1744C37.4593 22.288 37.3324 22.2474 37.2619 22.3313C37.1913 22.4152 37.1893 22.3981 37.0896 22.3687C36.99 22.3394 36.9527 22.1884 36.9527 22.1884C36.9416 22.1421 36.9846 22.1382 37.0362 22.1441C37.0362 22.1441 37.2013 22.1609 37.3053 22.1409ZM36.9412 22.0805C36.9412 22.0805 36.9482 22.1145 37.0053 22.1191C37.0623 22.1238 37.2281 22.1382 37.3267 22.1064C37.3267 22.1064 37.363 22.0992 37.3467 22.035C37.3467 22.035 37.3454 21.9934 37.2566 22.0102C37.1679 22.0271 37.0395 22.0102 36.9968 22.0009C36.954 21.9916 36.9192 22.0017 36.9412 22.0805ZM36.9277 21.8771C36.9277 21.8771 36.9246 21.9656 37.0139 21.9772C37.1031 21.9889 37.2142 21.9884 37.2605 21.9793C37.2958 21.9723 37.3594 21.9594 37.3645 21.9074C37.3697 21.8553 37.3843 21.8165 37.2743 21.8437C37.1643 21.8709 37.0315 21.853 37.018 21.8499C37.0045 21.8468 36.9298 21.8243 36.9277 21.8771ZM36.9682 21.6985C36.9682 21.6985 36.9464 21.7388 36.9495 21.7777C36.9527 21.8165 37.017 21.8297 37.1332 21.8313C37.2494 21.8329 37.3531 21.8158 37.3604 21.7769C37.3677 21.7381 37.3957 21.6931 37.3044 21.707C37.2131 21.721 37.0979 21.7249 37.0523 21.7063C37.0066 21.6876 36.9759 21.6811 36.9682 21.6985Z" fill="#FFC221"/>
<path d="M41.2345 22.1489C41.2345 22.1489 41.233 22.2298 41.2967 22.3096L38.0714 22.217C38.0714 22.217 38.1184 22.1879 38.1305 22.0623L41.2345 22.1489Z" fill="#5A3719"/>
<path d="M36.9942 21.5649C36.9942 21.5649 36.9662 21.6465 37.0243 21.6628C37.0824 21.6791 37.182 21.6969 37.3138 21.676C37.3138 21.676 37.3802 21.6807 37.403 21.61C37.4258 21.5394 37.4235 21.579 37.2359 21.5417C37.2359 21.5417 37.1768 21.5244 37.348 21.5238C37.348 21.5238 37.4435 21.5269 37.458 21.5106C37.4726 21.4943 37.5991 21.3941 37.4352 21.4003C37.2713 21.4065 37.3522 21.3716 37.4352 21.3716C37.5182 21.3716 37.5441 21.3887 37.5711 21.3622C37.5981 21.3358 37.5732 21.3537 37.5285 21.3086C37.4839 21.2636 37.515 21.2768 37.5472 21.3016C37.5794 21.3265 37.5991 21.3342 37.6354 21.3024C37.6717 21.2705 37.6074 21.224 37.6354 21.2294C37.6634 21.2348 37.6769 21.288 37.7827 21.2368C37.8885 21.1855 38.0317 21.2123 38.0706 21.2414C38.1095 21.2705 38.22 21.3078 38.2869 21.2391C38.3539 21.1703 38.2075 21.1144 38.2698 21.1051C38.3321 21.0957 38.3757 21.1179 38.4006 21.0678C38.4255 21.0177 38.3041 20.97 38.4208 20.9385C38.5375 20.9071 38.4395 20.5798 38.399 20.5495C38.399 20.5495 38.2683 20.6264 38.1251 20.8582C37.9819 21.0899 37.8979 21.2251 37.7033 21.154C37.4227 21.0515 37.2792 21.1989 37.2358 21.2255C37.1685 21.2666 37.3765 21.2868 37.2551 21.2891C37.1337 21.2915 37.1337 21.3019 37.1213 21.3206C37.1089 21.3392 37.1197 21.3556 37.1415 21.3567C37.1633 21.3579 37.21 21.4045 37.1353 21.4021C37.0606 21.3998 37.0077 21.3881 37.0296 21.4675C37.0296 21.4675 37.031 21.4848 37.0746 21.4895C37.1182 21.4941 37.1337 21.5396 37.0528 21.5396C37.0009 21.5397 36.9957 21.5598 36.9942 21.5649ZM37.2925 22.3737C37.2925 22.3737 37.2349 22.4144 37.3143 22.4191C37.3937 22.4237 37.4357 22.4389 37.4605 22.3963C37.4855 22.3538 37.5928 22.3713 37.5212 22.3119C37.4497 22.2525 37.4014 22.2863 37.2925 22.3737Z" fill="#FFC221"/>
<path d="M37.6254 21.4034C37.6254 21.4034 37.894 21.1507 38.1185 21.3219C38.3429 21.4931 38.3647 21.5188 38.3678 21.5223C38.3709 21.5258 38.3942 21.5444 38.3335 21.598C38.2728 21.6516 38.3319 21.6504 38.3989 21.6178C38.4658 21.5852 38.4704 21.6154 38.5031 21.6515C38.5358 21.6877 38.5795 21.7086 38.476 21.7098C38.3724 21.7109 38.1499 21.7098 38.1499 21.7098C38.1499 21.7098 37.9989 21.7226 38.0752 21.6609C38.1515 21.5991 38.1405 21.5258 38.1016 21.5211C38.0627 21.5165 38.0985 21.5584 38.0752 21.5875C38.0518 21.6166 37.9989 21.6434 37.946 21.6423C37.8931 21.6411 37.8464 21.6806 37.9304 21.7109C38.0145 21.7413 37.9211 21.7612 37.8775 21.76C37.834 21.7588 37.6238 21.7762 37.8371 21.8019C38.0503 21.8275 37.8179 21.8213 37.974 21.9105C38.1468 22.0092 38.0223 22.2189 37.9569 22.2375C37.9569 22.2375 37.8854 22.2765 37.9756 22.2657C38.0659 22.255 38.1157 22.2422 38.0519 22.2911C37.9881 22.34 37.8605 22.5031 37.6831 22.3784C37.6831 22.3784 37.6022 22.34 37.7469 22.333C37.8916 22.326 37.6286 22.2951 37.5851 22.2657C37.5415 22.2363 37.375 22.0663 37.4792 22.0873C37.5835 22.1082 37.5461 22.0476 37.4839 22.0255C37.4216 22.0034 37.4092 21.9079 37.4792 21.9288C37.5493 21.9498 37.6317 21.9888 37.6878 21.9862C37.7438 21.9836 37.7283 21.9603 37.6084 21.923C37.4886 21.8857 37.4387 21.8799 37.4668 21.7786C37.4948 21.6773 37.6255 21.8182 37.5944 21.7425C37.5633 21.6667 37.4497 21.7041 37.5104 21.6038C37.5711 21.5037 37.5851 21.5467 37.6131 21.5596C37.6411 21.5724 37.6859 21.5629 37.6069 21.5037C37.557 21.4663 37.6113 21.4158 37.6254 21.4034Z" fill="#FFC221"/>
<path d="M37.8185 21.4733C37.8185 21.4733 37.8169 21.4395 37.8652 21.4453C37.9134 21.4512 37.9009 21.4279 37.9149 21.4209C37.9289 21.4139 38.0497 21.4568 37.9367 21.4977C37.895 21.5129 37.8294 21.5021 37.8185 21.4733Z" fill="black"/>
<path d="M38.0753 21.7598C38.0753 21.7598 37.9845 21.8061 38.0667 21.9013C38.1368 21.9825 38.1364 22.0082 38.1305 22.0622C38.1246 22.1162 41.2345 22.1488 41.2345 22.1488C41.2345 22.1488 41.229 21.949 41.3621 21.8367C41.3621 21.8367 39.6627 21.7971 38.0753 21.7598Z" fill="#FFC221"/>
<path d="M41.2874 22.0941C41.2874 22.0941 41.3 21.9256 41.3933 21.8698C41.4446 21.839 41.5124 21.8569 41.5419 21.9928C41.584 22.186 41.4203 22.3503 41.3442 22.277C41.2718 22.2071 41.2874 22.0941 41.2874 22.0941Z" fill="#5A3719"/>
<path d="M37.7238 22.8208C37.7238 22.8208 37.9307 22.6449 37.9619 22.5657C37.9619 22.5657 38.5222 22.9626 38.4879 22.5981C38.4879 22.5981 38.4895 22.5004 38.505 22.4073C38.505 22.4073 38.7076 22.4271 38.7384 22.2654L38.2155 22.25C38.2155 22.25 38.161 22.2384 38.0801 22.3257C37.9992 22.4131 37.8327 22.5087 37.677 22.4253C37.677 22.4253 37.6119 22.3688 37.5456 22.4165C37.4794 22.4643 37.4762 22.4783 37.5307 22.5295C37.5852 22.5808 37.702 22.7381 37.7238 22.8208ZM38.9268 21.7247L38.6202 21.713C38.6202 21.713 38.5081 21.5558 38.2903 21.3811C38.2903 21.3811 38.2265 21.3531 38.3494 21.2553C38.4723 21.1574 38.5081 21.0526 38.5128 21.0048C38.5175 20.9571 38.5051 20.8826 38.5517 20.9396C38.5984 20.9967 38.9159 21.2832 38.961 21.1982C39.0062 21.1132 39.0139 21.0736 39.0217 21.048C39.0296 21.0223 39.0404 20.9431 39.0856 21.0258C39.1307 21.1086 39.1617 21.0874 39.1634 21.3019C39.1634 21.3019 39.1711 21.5139 39.2039 21.5908C39.2038 21.5908 38.8022 21.4621 38.9268 21.7247ZM37.5961 21.0724C37.5961 21.0724 37.8295 21.2029 37.9447 21.0258C38.0599 20.8487 38.1377 20.8208 38.0506 20.6507C37.9634 20.4807 38.053 20.4015 38.1187 20.3316C38.1844 20.2617 38.2404 20.2733 38.2498 20.0031C38.2591 19.7328 38.4459 19.642 38.5299 19.5581C38.614 19.4743 38.8256 19.3461 38.505 19.2926C38.1844 19.239 37.5495 19.0736 37.3845 18.8267C37.2195 18.5797 37.1448 18.7265 37.1417 18.7358C37.1386 18.7451 37.0857 18.9268 37.2507 19.2553C37.4156 19.5838 37.5557 19.795 37.7145 19.9014C37.8732 20.0078 38.0164 20.066 37.9354 20.285C37.8545 20.504 37.7144 20.8954 37.5961 21.0724Z" fill="#7B3C20"/>
<path d="M38.4581 20.374C38.4581 20.374 38.4986 20.9354 38.9095 21.1358C38.9095 21.1358 39.0029 20.9168 38.9655 20.7001C38.9655 20.7001 39.0993 20.7117 39.1367 20.7723C39.1367 20.7723 39.1429 20.6093 38.9499 20.5498C38.7569 20.4905 38.8503 20.1247 38.9188 20.0828C38.9872 20.0409 38.9654 19.9679 38.9188 19.9019C38.8721 19.8359 38.8596 19.7357 39.0215 19.7776C39.1833 19.8195 39.1584 19.7334 39.062 19.6541C38.9655 19.5749 38.9686 19.4771 39.1055 19.4771C39.2425 19.4771 39.4697 19.3443 39.3327 19.3024C39.1958 19.2604 39.1522 19.2162 39.339 19.1626C39.5257 19.109 39.616 19.0414 39.4759 19.0252C39.3358 19.0089 39.2425 18.9599 39.3794 18.9366C39.5163 18.9134 39.3545 18.7736 39.1957 18.7666C39.037 18.7596 38.6946 18.8248 38.9654 18.6082C39.2362 18.3916 38.5763 18.55 38.8471 18.4078C39.1179 18.2657 38.7569 18.3286 38.7071 18.3263C38.6573 18.324 38.6579 18.3263 38.6762 18.2541C38.6946 18.1818 38.6386 18.1492 38.5608 18.1935C38.483 18.2377 38.483 18.2377 38.4861 18.1376C38.4892 18.0374 38.3927 18.112 38.3336 18.1376C38.2744 18.1632 38.125 18.275 38.0659 18.2145C38.0068 18.1539 37.9725 18.091 37.7889 18.2028C37.6052 18.3146 37.6488 18.2145 37.6519 18.1656C37.655 18.1167 37.7235 17.9233 37.4714 18.1306C37.2193 18.3379 37.4247 17.9069 37.2255 18.0537C37.0263 18.2005 37.0045 18.2261 36.9734 18.1609C36.9423 18.0956 36.9046 18.0421 36.6853 18.1818C36.466 18.3216 36.6279 18.098 36.659 18.0491C36.6901 18.0002 36.7835 17.6833 36.5905 17.9303C36.5905 17.9303 36.4972 18.1027 36.2886 17.7951C36.2886 17.7951 36.0676 18.1006 36.0116 17.9654C35.9556 17.8301 35.8995 17.8161 35.8279 17.9046C35.7563 17.9932 35.8092 17.9 35.7781 17.8254C35.747 17.7508 35.7284 17.6134 35.3611 17.8813C34.9938 18.1492 35.4887 17.9536 35.2086 18.0747C34.9284 18.1958 34.253 18.5779 34.8724 18.4894C35.4918 18.4008 34.5705 18.7316 34.7853 18.7922C35.0001 18.8528 34.9315 19.0391 35.7377 18.8179C36.5439 18.5966 36.4131 18.7829 36.824 18.6059C37.2348 18.4288 36.7306 18.6664 37.2815 18.6548C37.8325 18.6431 37.3749 18.6571 37.4807 18.7712C37.5866 18.8854 38.0534 19.1556 38.4892 19.1999C38.9249 19.2442 39.0308 19.0811 38.9063 19.2698C38.7817 19.4585 38.7382 19.5307 38.6635 19.5959C38.5888 19.6612 38.3833 19.8102 38.3802 20.0712C38.3771 20.3321 38.0379 20.3741 38.1624 20.6629C38.1625 20.6628 38.3555 20.4765 38.4581 20.374Z" fill="#5A3719"/>
<path d="M39.175 21.0018C39.175 21.0018 39.0754 20.9319 39.0774 20.8077C39.0774 20.8077 39.148 20.8201 39.175 20.8651C39.175 20.8651 39.4261 20.5809 39.1262 20.4785C38.8264 20.3759 38.9757 20.1042 39.0774 20.1026C39.1791 20.101 39.1968 20.0731 39.1112 19.9597C39.0255 19.8463 39.0318 19.8417 39.2019 19.8122C39.3721 19.7827 39.349 19.7469 39.2733 19.705C39.1978 19.6631 39.1398 19.5948 39.1398 19.5948C39.1398 19.5948 39.6211 19.3851 39.4654 19.2888C39.3097 19.1925 39.4654 19.2174 39.6044 19.118C39.7434 19.0186 39.7621 18.9999 39.7829 18.9611C39.7829 18.9611 39.6454 18.9751 39.544 18.9549C39.544 18.9549 39.6641 18.8958 39.544 18.798C39.4239 18.7001 39.3741 18.6116 39.1832 18.6566C38.9923 18.7017 39.0545 18.638 39.1292 18.5588C39.2039 18.4795 39.1686 18.4345 39.0338 18.4144C39.0338 18.4144 39.0504 18.3336 39.1521 18.2326C39.1521 18.2326 38.8927 18.2513 38.8056 18.2062C38.8056 18.2062 38.9093 18.1348 38.9176 18.0494C38.9176 18.0494 38.7745 18.096 38.5939 18.0789C38.5939 18.0789 38.6998 17.9872 38.6998 17.9065C38.6998 17.9065 38.3865 17.9764 38.2412 18.0866C38.2412 18.0866 38.21 18.0804 38.1852 18.0462C38.1603 18.0121 38.1416 17.9779 37.795 18.0882C37.795 18.0882 37.8345 17.9344 37.9175 17.8723C38.0005 17.8101 37.988 17.6859 37.4485 18.0229C37.4485 18.0229 37.3759 17.9794 37.3157 17.8179C37.3157 17.8179 37.1995 17.9825 37.1103 18.0384C37.1103 18.0384 37.0356 18.0698 37.0449 17.9648C37.0543 17.8599 36.992 17.9347 36.936 17.9648C36.88 17.995 36.8426 18.0695 36.8706 17.8575C36.8987 17.6455 36.7959 17.6013 36.7959 17.6013C36.7959 17.6013 36.6279 17.8389 36.5314 17.8645C36.5314 17.8645 36.3539 17.6921 36.2917 17.578C36.2295 17.4638 36.2295 17.4219 36.1672 17.6199C36.105 17.8179 36.0271 17.8342 36.0271 17.8342C36.0271 17.8342 35.9213 17.7433 35.9088 17.6944C35.9088 17.6944 35.8902 17.748 35.856 17.7713C35.856 17.7713 35.7626 17.6618 35.7657 17.5034C35.7657 17.5034 35.1868 17.8225 35.1152 18.0159C35.1152 18.0159 34.5674 17.9833 34.3402 18.0253C34.3402 18.0253 34.3962 17.8482 34.5394 17.7597C34.5394 17.7597 34.3962 17.7434 34.39 17.5967C34.39 17.5967 34.5052 17.6129 34.5768 17.5943C34.6483 17.5757 34.4772 17.3683 34.6577 17.3637C34.8382 17.359 34.9534 17.4498 34.8724 17.2099C34.7915 16.97 34.8289 16.97 34.8289 16.97C34.8289 16.97 35.1432 17.1564 35.1931 17.1098C35.2429 17.0632 35.1526 16.963 35.4327 17.0096C35.7129 17.0562 35.635 16.8955 35.7439 16.8885C35.8529 16.8815 35.912 16.9584 35.8436 16.4505C35.7751 15.9427 36.1828 16.7021 35.9058 15.9357C35.9058 15.9357 35.8357 15.7039 35.6692 15.6049C35.6692 15.6049 35.6319 15.7727 35.4436 15.6247C35.2553 15.4767 34.8849 15.4243 35.0405 15.3079C35.1961 15.1914 35.2693 15.0353 35.2241 14.9375C35.2241 14.9375 35.0406 15.1293 34.7215 14.9922C34.4693 14.8839 34.4165 15.0831 34.1581 15.0248C34.1581 15.0248 34.1628 14.9585 34.3807 14.7872C34.5986 14.616 34.2546 14.8443 34.1192 14.8746C33.9838 14.9049 33.9449 14.8804 34.2313 14.6591C34.5176 14.4378 35.0841 14.0464 35.0063 13.7249C35.0063 13.7249 35.1401 13.8949 35.4918 13.7715C35.8436 13.6481 36.105 13.6038 36.2108 13.4221C36.3167 13.2403 36.5937 13.0563 36.6653 13.0167C36.7369 12.9771 36.8334 12.9492 36.7244 13.1216C36.6155 13.2939 36.438 13.5898 35.9525 13.7901C35.467 13.9905 35.2802 14.1373 35.1931 14.2421C35.1059 14.3469 34.6639 14.5822 34.9503 14.5426C35.2367 14.503 35.7347 14.5496 35.5012 14.482C35.2678 14.4145 35.0032 14.5239 35.218 14.3282C35.4327 14.1326 35.4701 14.0673 35.7813 13.9368C36.0925 13.8064 36.438 13.5082 36.4038 13.825C36.3696 14.1418 35.7907 14.4796 35.6475 14.5821C35.5043 14.6846 35.5572 14.6683 35.5603 14.7102C35.5635 14.7521 35.5385 14.8384 35.4794 14.878C35.4203 14.9176 35.4389 14.9618 35.4545 15.0504C35.4701 15.1389 35.4389 15.1739 35.4825 15.1878C35.5261 15.2017 35.5697 15.2088 35.5822 15.2717C35.5946 15.3345 35.6273 15.3427 35.7113 15.3357C35.7954 15.3287 35.8483 15.3368 35.8545 15.3858C35.8607 15.4347 35.94 15.5011 35.9494 15.352C35.9587 15.2029 36.0132 15.1738 35.8607 15.2425C35.7082 15.3113 35.6755 15.2868 35.6786 15.2158C35.6818 15.1447 35.6647 15.161 35.6008 15.1552C35.537 15.1493 35.5152 15.0597 35.6289 15.0003C35.7425 14.9409 35.7409 15.0014 35.8826 14.8838C36.0242 14.7661 36.0242 14.7335 36.046 14.6788C36.0678 14.624 35.8437 14.8384 35.7363 14.8873C35.6289 14.9362 35.6569 14.8535 35.6756 14.7312C35.6943 14.6088 35.962 14.4493 36.0849 14.4469C36.2078 14.4446 36.4849 14.5168 36.365 14.6845C36.2452 14.8523 35.906 15.0515 36.0522 15.0666C36.1985 15.0817 36.2219 15.0247 36.3059 15.0992C36.39 15.1737 36.3121 15.3252 36.2732 15.4056C36.2343 15.486 36.1534 15.5873 36.1176 15.6059C36.1176 15.6059 35.9635 15.3311 35.9682 15.5488C35.9729 15.7666 35.9356 15.8447 35.9682 15.8529C36.0009 15.861 36.1721 15.9752 36.2266 15.9775C36.2811 15.9799 35.9309 16.1418 36.0772 16.1522C36.2235 16.1627 36.4554 16.0882 36.5363 15.9367C36.5363 15.9367 36.239 15.8645 36.1192 15.7527C36.1192 15.7527 36.4663 15.6712 36.3698 15.3369C36.3698 15.3369 36.7153 15.4313 36.5659 15.5873C36.4165 15.7434 36.3262 15.7201 36.4554 15.7644C36.5846 15.8086 36.6484 15.8459 36.6484 15.8459C36.6484 15.8459 36.7368 15.8901 36.6856 15.9624C36.6344 16.0346 36.6328 16.1441 36.6764 16.1418C36.7199 16.1394 36.8663 16.0719 36.7433 15.9973C36.6204 15.9228 36.8834 15.9356 36.7713 15.8727C36.6593 15.8098 36.6297 15.7947 36.6002 15.7644C36.5706 15.7341 38.007 14.8919 37.2818 15.2076C37.2818 15.2076 37.4328 14.8803 37.6444 14.8791C37.856 14.8779 37.8716 15.0456 37.7518 15.1726C37.6319 15.2996 37.5541 15.4976 37.2725 15.5441C37.2725 15.5441 37.675 15.7414 37.1993 16.0637C37.1993 16.0637 37.0961 16.1126 37.1334 16.1483C37.1708 16.184 37.4529 16.0241 37.4924 15.934C37.5318 15.8439 37.592 15.774 37.6999 15.7212C37.8078 15.6685 38.339 15.3066 38.4988 15.0332C38.6586 14.7598 38.7022 14.7506 39.0134 14.5005C39.3246 14.2505 39.2707 14.3001 39.3102 14.2396C39.3496 14.1791 39.3662 14.0796 39.5094 13.9989C39.6526 13.9181 40.2087 13.6091 40.383 13.4832C40.5573 13.3574 40.9142 13.126 41.0677 12.9303C41.2213 12.7346 41.6348 12.4847 41.7379 12.5312C41.8412 12.5777 41.7276 12.7238 41.4848 12.9086C41.242 13.0934 40.6403 13.5795 40.5427 13.654C40.4452 13.7286 39.9348 14.1013 39.7438 14.1262C39.5529 14.151 39.5737 14.2178 39.4595 14.3421C39.3454 14.4663 39.0819 14.7272 38.9926 14.7987C38.9034 14.8701 38.6917 15.0161 38.6793 15.1186C38.6669 15.2211 38.7167 15.2335 38.5466 15.3935C38.3764 15.5535 37.8784 15.9153 37.6979 15.9728C37.6979 15.9728 38.0174 16.0784 37.8265 16.2943C37.6356 16.5102 37.6481 16.4791 37.6335 16.4931C37.6335 16.4931 38.1187 16.4217 37.7746 16.799C37.7746 16.799 37.7082 16.9078 37.8618 16.7944C38.0259 16.6732 37.9551 16.5071 37.9364 16.4837C37.9364 16.4837 38.1937 16.3238 38.4905 16.3191C38.7873 16.3145 38.7769 16.2943 38.5113 16.2181C38.5113 16.2181 38.7001 15.9883 38.8599 16.1016C39.0196 16.215 38.9678 16.2803 38.7997 16.3703C38.6316 16.4604 38.3826 16.4977 38.198 16.6002C38.198 16.6002 38.5486 16.6685 38.7375 16.5257C38.9263 16.3828 38.9346 16.4542 38.9595 16.479C38.9844 16.5039 39.0052 16.5505 38.9221 16.6701C38.8391 16.7897 38.8308 16.7959 38.835 16.8223C38.8391 16.8487 38.8287 16.931 38.6586 16.959C38.4884 16.9869 38.4117 17.0583 38.4697 17.1391C38.5278 17.2199 38.5299 17.4202 38.3847 17.4016C38.2394 17.383 38.2788 17.2681 38.2228 17.223C38.1668 17.178 38.088 17.1081 37.8348 17.2401C37.5816 17.3721 37.5608 17.2152 37.5733 17.1329C37.5733 17.1329 37.4094 17.2758 37.2724 17.1438C37.1355 17.0118 37.2599 16.9605 37.3388 16.8938C37.4176 16.827 37.7392 16.6872 37.5463 16.712C37.3534 16.7368 37.0649 16.7493 36.9985 16.6002C36.9321 16.4511 37.1416 16.4682 37.1749 16.4822C37.2081 16.4962 37.345 16.6065 37.3492 16.462C37.3533 16.3176 37.567 16.302 37.4944 16.2725C37.4218 16.243 37.3201 16.3346 37.291 16.3704C37.291 16.3704 37.1416 16.1622 36.901 16.2306C36.6603 16.299 36.9777 16.271 37.042 16.2818C37.1063 16.2927 37.069 16.4123 36.8532 16.6065C36.6374 16.8006 36.7349 16.7416 36.8947 16.7416C37.0545 16.7416 37.4467 16.7431 37.2184 16.9295C36.9901 17.1159 36.8989 17.209 36.7806 17.1764C36.6623 17.1438 36.7951 17.0662 36.847 17.0335C36.8988 17.0009 36.93 16.9434 36.8179 16.9854C36.7058 17.0274 36.6664 17.0351 36.5772 16.8767C36.488 16.7183 36.5254 16.7649 36.5627 16.6608C36.6 16.5567 36.6872 16.4465 36.5834 16.4853C36.4797 16.5241 36.4901 16.5272 36.4984 16.4076C36.5067 16.288 36.3801 16.2616 36.3801 16.2616C36.3801 16.2616 36.4298 16.3812 36.3842 16.4573C36.3386 16.5334 36.3365 16.5598 36.4112 16.58C36.4859 16.6002 36.5564 16.6638 36.4548 16.7337C36.3531 16.8036 36.3655 16.7943 36.4298 16.8362C36.4942 16.8781 36.5875 16.9263 36.4879 17.0241C36.3883 17.1219 36.4713 17.0925 36.5211 17.0925C36.571 17.0925 36.6837 17.1344 36.6854 17.2307C36.6871 17.327 36.6788 17.3503 36.8407 17.2602C37.0025 17.1701 37.3262 17.181 37.3221 17.3068C37.3179 17.4326 37.2805 17.4637 37.4528 17.3566C37.6251 17.2494 37.7018 17.4575 37.8201 17.3566C37.9384 17.2556 38.0131 17.1578 38.15 17.3302C38.287 17.5026 38.2443 17.5547 38.0774 17.6765C37.9105 17.7983 38.1583 17.7045 38.2849 17.6392C38.4115 17.574 38.7663 17.5305 38.9697 17.6206C39.1731 17.7107 39.2312 17.6905 39.3805 17.6284C39.5299 17.5662 39.6067 17.5522 39.8329 17.7029C40.0591 17.8535 40.2354 17.8815 40.3537 17.8784C40.3537 17.8784 40.1027 17.9763 39.8204 17.9949C39.5382 18.0135 39.3972 18.0663 39.3411 18.1098C39.3411 18.1098 39.5109 18.2123 39.5443 18.3381C39.5443 18.3381 39.7292 18.3132 39.8205 18.3505C39.8205 18.3505 39.7728 18.484 39.8869 18.5555C40.001 18.6269 40.0799 18.6534 39.9948 18.7512C39.9097 18.849 40.1256 18.8071 40.0031 18.9453C39.8807 19.0835 39.8475 19.1534 39.8433 19.2652C39.8392 19.3771 39.8703 19.3941 39.7603 19.405C39.6504 19.4159 39.779 19.5385 39.7292 19.6845C39.6794 19.8305 39.3723 19.815 39.3847 20.2063C39.3847 20.2063 39.4698 20.0153 39.6524 19.8476C39.835 19.6798 39.8413 19.6643 39.8371 19.5633C39.833 19.4624 39.8247 19.4857 39.9222 19.4096C40.0197 19.3335 39.8786 19.262 39.9761 19.1533C40.0737 19.0446 39.9886 19.0663 40.1027 18.9561C40.2169 18.8458 40.0031 18.8318 40.1193 18.7184C40.2356 18.6051 39.8392 18.4762 39.9533 18.4032C40.0675 18.3302 40.2646 18.2292 39.6006 18.2401C39.6006 18.2401 39.7603 17.9761 40.3206 18.0336C40.3206 18.0336 40.1733 18.1376 40.1609 18.2401C40.1609 18.2401 40.2252 18.2727 40.2646 18.282C40.2646 18.282 40.2429 18.3571 40.136 18.4482C40.136 18.4482 40.4327 18.6143 40.4804 18.7122C40.4804 18.7122 40.2999 18.7681 40.2543 18.8473C40.2543 18.8473 40.3331 18.9374 40.3601 19.0539C40.3601 19.0539 40.1588 19.029 40.1319 19.1797C40.1049 19.3303 40.0447 19.2278 40.0447 19.3163C40.0447 19.4048 40.051 19.4406 39.9804 19.4545C39.9099 19.4685 39.968 19.5431 39.9804 19.5928C39.9929 19.6425 40.0157 19.7558 40.0054 19.7916C40.0054 19.7916 39.9037 19.7931 39.856 19.8071C39.856 19.8071 39.8871 20.023 39.7667 20.054C39.6464 20.085 39.831 20.1285 39.7024 20.1519C39.5737 20.1751 39.5904 20.1829 39.4327 20.4656C39.4327 20.4656 39.5675 20.3895 39.7066 20.2979C39.8456 20.2062 39.6962 20.2342 39.9265 20.0075C40.1568 19.7807 40.1153 19.7636 40.0967 19.6487C40.078 19.5338 40.0738 19.4406 40.1568 19.3319C40.2398 19.2231 40.2668 19.0989 40.5614 19.1145C40.5614 19.1145 40.4743 18.9184 40.3664 18.8674C40.3664 18.8674 40.5074 18.7697 40.6569 18.7558C40.6569 18.7558 40.5261 18.5989 40.2585 18.4467C40.2585 18.4467 40.4784 18.2572 40.5303 18.1672C40.5303 18.1672 40.4287 18.1827 40.3477 18.1641C40.3477 18.1641 40.3859 18.0734 40.5843 17.9435C40.5843 17.9435 40.6901 18.046 40.686 18.1532C40.686 18.1532 41.0263 17.9575 41.2192 17.9793C41.2192 17.9793 41.3168 18.2246 40.8436 18.6843C40.8436 18.6843 41.1362 18.7123 41.2607 18.6952C41.2607 18.6952 41.1902 18.922 40.8353 19.0555C40.4805 19.189 40.9121 19.3452 40.549 19.318C40.1859 19.2908 40.2979 19.4159 40.3083 19.6007C40.3187 19.7855 40.3311 19.9749 40.3228 20.0262C40.3228 20.0262 40.0323 19.9314 40.0385 20.2126C40.0447 20.4937 39.8891 20.5527 39.858 20.5791C39.858 20.5791 39.7737 20.5038 39.6463 20.4595C39.646 20.4598 39.4658 20.8019 39.175 21.0018Z" fill="#5A3719"/>
<path d="M38.7598 17.4781C38.7598 17.4781 38.8594 17.4618 39.0275 17.5666C39.1955 17.6714 39.3605 17.4548 39.1737 17.3988C38.987 17.3429 39.1768 17.2777 39.3449 17.4128C39.513 17.5479 39.5783 17.4803 39.6406 17.4338C39.7029 17.3872 39.7776 17.3616 39.6624 17.2824C39.5473 17.2032 39.7402 17.2405 39.8274 17.2964C39.9145 17.3523 39.8803 17.4105 39.8679 17.4269C39.8555 17.4432 39.8461 17.6249 40.0173 17.4548C40.1885 17.2848 40.2725 17.1147 40.2694 17.0308C40.2694 17.0308 40.3628 17.0891 40.3752 17.1962C40.3877 17.3034 40.5184 17.138 40.562 17.0797C40.6055 17.0215 40.6803 16.8745 40.6709 16.764C40.6709 16.764 40.7861 16.9421 40.9573 16.764C41.1285 16.5858 41.0538 16.6977 41.2592 16.6441C41.4647 16.5905 41.723 16.4391 41.8631 16.269C42.0031 16.099 42.0125 16.2131 42.193 16.1712C42.3735 16.1293 42.7377 15.8776 42.7719 15.7402C42.8062 15.6027 42.7999 15.5189 42.747 15.5654C42.6941 15.612 42.7159 15.5748 42.638 15.5258C42.5602 15.4769 42.4451 15.5887 42.4451 15.5887C42.4451 15.5887 42.5602 15.6772 42.4731 15.7145C42.3859 15.7517 42.3019 15.8752 42.1369 15.8286C41.972 15.782 41.8008 15.98 41.8008 15.98C41.8008 15.98 41.9439 16.0988 41.751 16.1734C41.558 16.2479 41.5892 16.2736 41.4709 16.192C41.4709 16.192 41.2654 16.4529 41.1472 16.5065C41.1472 16.5065 41.0912 16.5019 41.0538 16.4529C41.0538 16.4529 40.92 16.6044 40.8515 16.6347C40.8515 16.6347 40.7674 16.5532 40.6896 16.5275C40.6896 16.5275 40.5278 16.7279 40.3908 16.7908C40.3908 16.7908 40.3503 16.7163 40.2632 16.665C40.2632 16.665 40.2201 16.9271 39.9332 17.082C39.9332 17.082 39.9519 17.0121 39.8087 16.9166C39.8087 16.9166 39.4539 17.2241 39.3138 17.2544C39.1738 17.2847 39.3045 17.1892 39.3232 17.1496C39.3419 17.1099 39.429 16.9795 39.2578 16.9259C39.0866 16.8723 39.1147 16.9632 39.0773 16.9795C39.0399 16.9958 39.0368 16.9492 38.9217 16.9655C38.8065 16.9818 38.8252 17.0331 38.7754 17.0517C38.7256 17.0704 38.5264 17.0191 38.5357 17.1519C38.5451 17.2847 38.6385 17.3755 38.4642 17.4524C38.2898 17.5293 38.5295 17.513 38.7598 17.4781Z" fill="#7B3C20"/>
<path d="M39.4788 17.1032C39.4788 17.1032 39.5193 16.9355 39.373 16.854C39.373 16.854 40.313 16.7096 39.6033 16.3508C39.6033 16.3508 40.4468 16.176 40.2476 15.9058C40.0484 15.6356 39.8547 15.6962 39.8255 15.7008C39.7963 15.7055 40.0048 15.5447 40.0609 15.5657C40.1169 15.5867 40.7954 15.8476 40.6211 15.624C40.4468 15.4003 40.4624 15.4143 40.4344 15.3491C40.4344 15.3491 40.6585 15.3491 40.9978 15.6799C40.9978 15.6799 41.0694 15.6053 41.06 15.4702C41.06 15.4702 41.3028 15.5377 41.3775 15.61C41.3775 15.61 41.418 15.5261 41.4024 15.4795C41.4024 15.4795 41.611 15.5913 41.6825 15.7101C41.6825 15.7101 41.779 15.6263 41.7946 15.5307C41.7946 15.5307 42.0032 15.617 42.0561 15.6821C42.0561 15.6821 42.1245 15.5913 42.0996 15.4609C42.0996 15.4609 42.4451 15.5634 42.4918 15.3491C42.4918 15.3491 42.8393 15.4244 42.6134 15.5597C42.3231 15.7336 42.5841 15.5168 42.2863 15.7241C42.0554 15.8849 41.9263 16.0735 41.8153 16.0347C41.7337 16.0062 41.6358 16.2436 41.5237 16.1271C41.4116 16.0106 41.4116 16.0642 41.3338 16.1854C41.256 16.3065 41.1346 16.43 41.1346 16.43C41.1346 16.43 41.074 16.395 41.028 16.3485C41.028 16.3485 40.9603 16.4603 40.8731 16.5442C40.8731 16.5442 40.8047 16.4533 40.6957 16.3974C40.6957 16.3974 40.5245 16.5954 40.4187 16.6629C40.4187 16.6629 40.3191 16.5651 40.2132 16.5325C40.2132 16.5325 40.1977 16.8004 39.9892 16.9378C39.9892 16.9378 39.9456 16.8493 39.8118 16.7957C39.8119 16.7957 39.706 16.9651 39.4788 17.1032Z" fill="#5A3719"/>
<path d="M38.9843 16.6928C38.9843 16.6928 38.8701 16.7806 38.9438 16.8746C39.0175 16.9685 39.0216 16.8583 39.115 16.849C39.2084 16.8396 40.36 16.6416 39.3173 16.3294C39.3173 16.3294 39.3609 16.2898 39.5414 16.2735C39.7219 16.2573 40.3755 16.0802 40.0705 15.8472C39.7655 15.6142 39.5118 15.9264 39.7686 15.6469C39.9741 15.4232 39.8091 15.3137 39.8091 15.3137C39.8091 15.3137 39.2021 15.7191 39.0683 15.7936C38.9345 15.8682 38.7415 16.0103 38.9687 16.0848C39.1959 16.1593 39.3516 15.8379 39.3733 15.9101C39.3951 15.9823 38.9158 16.2479 38.9843 16.3713C39.0528 16.4948 39.0372 16.5973 39.1555 16.574C39.2738 16.5507 39.5944 16.6346 39.3329 16.6253C39.0714 16.6159 38.9843 16.6928 38.9843 16.6928Z" fill="#5A3719"/>
<path d="M39.4012 16.113C39.4012 16.113 39.2954 16.1874 39.4355 16.1501C39.5755 16.1128 39.8557 16.0522 39.8028 15.9801C39.7498 15.9078 39.5631 15.9944 39.4012 16.113Z" fill="black"/>
<path d="M41.2503 14.911C41.2503 14.911 41.7856 14.897 42.0066 15.0462C42.2276 15.1953 42.3334 15.2931 42.3987 15.3141C42.3987 15.3141 42.3894 15.5167 42.047 15.3723C42.047 15.3723 42.0657 15.4702 42.0283 15.5657C42.0283 15.5657 41.9007 15.4818 41.7544 15.4445C41.7544 15.4445 41.7295 15.5214 41.6828 15.5657C41.6828 15.5657 41.5303 15.4119 41.3592 15.3653C41.3592 15.3653 41.3249 15.4422 41.2938 15.4702C41.2938 15.4702 41.1102 15.3653 40.9701 15.3677C40.9701 15.3677 40.9981 15.4795 40.9701 15.5238C40.9701 15.5238 40.581 15.2186 40.2355 15.2582C40.2355 15.2582 40.4036 15.5028 40.5126 15.624C40.5126 15.624 39.8122 15.5681 39.9274 15.1907C40.0426 14.8133 39.9181 14.9081 40.3756 14.9108C40.8332 14.9134 41.2503 14.911 41.2503 14.911Z" fill="#7B3C20"/>
<path d="M37.9664 15.9536C37.9664 15.9536 37.8855 16.0195 37.9664 16.0755C38.0473 16.1314 38.3243 15.9311 38.3617 15.9031C38.399 15.8751 38.4986 15.8798 38.3617 15.9823C38.2247 16.0848 38.0846 16.1966 37.9975 16.3085C37.9975 16.3085 38.4613 16.1827 38.7632 15.9218C39.065 15.6609 38.7491 15.8299 39.2643 15.5816C39.7794 15.3334 40.0486 14.934 39.7716 14.9759C39.4946 15.0178 39.2456 15.3347 39.0308 15.4558C38.8161 15.577 38.6947 15.5933 38.7289 15.5234C38.7632 15.4535 38.9219 15.4815 39.2175 15.2438C39.5133 15.0062 39.4479 15.0225 39.451 14.9387C39.4541 14.8548 39.3389 14.6475 39.784 14.4145C40.2291 14.1815 41.6142 13.3708 41.7324 13.0936C41.7324 13.0936 41.3278 13.1379 40.7956 13.5316C40.2633 13.9253 39.9784 14.1093 39.8314 14.1582C39.6844 14.2071 39.7031 14.1745 39.6066 14.2887C39.5101 14.4029 38.9841 14.9108 38.8876 14.9853C38.7911 15.0598 38.763 15.1088 38.7548 15.2607C38.7512 15.33 38.15 15.7828 37.9664 15.9536Z" fill="#5A3719"/>
<path d="M39.7963 14.8979C39.7963 14.8979 39.6935 14.9456 39.5939 14.8979C39.4943 14.8502 39.5255 14.6358 39.7651 14.5077C40.0048 14.3796 40.4405 14.1886 40.6615 14.1606C40.6615 14.1606 40.6304 14.4378 39.9425 14.6708C39.9425 14.6708 39.9861 14.8151 39.7963 14.8979Z" fill="#5A3719"/>
<path d="M40.0394 14.7176C40.0394 14.7176 40.0594 14.7858 40.0394 14.8481C40.0394 14.8481 41.3187 14.9716 41.9786 14.1934C41.9786 14.1934 41.0728 14.2773 40.7118 14.494C40.7118 14.494 40.939 14.2097 41.6176 13.9744C42.2961 13.7392 42.5731 13.4479 42.6322 13.2872C42.6322 13.2872 41.7741 13.5878 41.3654 13.5878C41.3654 13.5878 41.2845 13.5854 41.2067 13.6297C41.1289 13.6739 40.5811 14.0723 40.4348 14.1398C40.4348 14.1398 40.7429 14.1142 40.8519 14.0141C40.8518 14.0141 40.6377 14.5899 40.0394 14.7176Z" fill="#AA5323"/>
<path d="M37.5899 15.4487C37.5899 15.4487 37.425 15.5652 37.4934 15.6234C37.5619 15.6817 37.6798 15.6933 37.9305 15.4837C38.1813 15.274 38.7882 14.7521 38.4047 14.7312C38.4047 14.7312 37.9136 14.7009 37.9305 15.0015C37.9477 15.3049 37.6146 15.4296 37.5899 15.4487ZM36.457 15.2716C36.457 15.2716 36.7806 15.4603 36.6593 15.6164C36.6593 15.6164 37.6522 14.7731 37.3721 14.5913C37.0919 14.4096 36.871 14.7521 36.9394 14.787C37.0079 14.822 37.1542 14.7567 37.1013 14.822C37.0484 14.8872 36.5192 15.2437 36.457 15.2716ZM36.1986 14.9991C36.1986 14.9991 36.4165 15.0643 36.4258 15.1575C36.4351 15.2506 37.0825 14.7008 36.9113 14.4702C36.8328 14.3645 36.4725 14.3211 36.4569 14.5285C36.4413 14.7359 36.7806 14.5075 36.6623 14.6566C36.5073 14.8521 36.2453 14.9664 36.1986 14.9991ZM38.5286 14.5396C38.5286 14.5396 38.3899 14.6403 38.5144 14.7009C38.6389 14.7615 38.7198 14.6659 38.7821 14.61C38.8443 14.5541 39.1525 14.3281 39.2241 14.1837C39.2956 14.0393 39.4015 13.995 39.5135 13.9205C39.6256 13.8459 40.4162 13.4522 40.9017 13.0165C41.3873 12.5809 41.185 12.6927 41.6892 12.4131C42.1934 12.1336 42.5234 11.8773 42.6292 11.5745C42.6292 11.5745 42.3958 11.6513 42.1903 11.7841C41.9849 11.9169 41.5211 12.2081 41.4278 12.2477C41.3344 12.2872 41.2037 12.2943 41.1352 12.3665C41.0667 12.4387 41.0729 12.5249 40.8301 12.7252C40.5873 12.9256 39.333 13.8108 39.1804 13.9366C39.0279 14.0626 38.5286 14.5396 38.5286 14.5396Z" fill="#5A3719"/>
<path d="M37.5194 14.8329C37.5194 14.8329 37.6563 14.7574 37.9136 14.775C38.1709 14.7925 39.1877 13.8079 39.4824 13.6091C39.777 13.4103 40.6983 12.7456 40.8229 12.6244C40.9474 12.5033 40.9681 12.3728 41.076 12.3014C41.1839 12.23 41.2835 12.2393 41.5325 12.0964C41.7815 11.9535 42.9767 11.2391 42.9062 10.8229C42.9062 10.8229 41.1258 11.8914 40.7149 12.2393C40.3041 12.5872 39.1628 13.3761 38.9595 13.5035C38.7561 13.6308 38.5942 13.8514 38.2539 14.1278C37.9136 14.4042 37.5775 14.6372 37.5194 14.8329Z" fill="#AA5323"/>
<path d="M37.1457 14.4542C37.1457 14.4542 37.4752 14.4205 37.5192 14.5816C37.5192 14.5816 38.2247 14.097 38.3866 13.8982C38.5484 13.6995 38.3326 13.8144 38.7352 13.5503C39.1377 13.2863 40.4741 12.3514 40.665 12.1836C40.8559 12.0159 41.217 11.7953 41.5074 11.5997C41.7979 11.404 42.9351 10.848 42.8064 10.3914C42.8064 10.3914 41.9722 10.9504 41.7855 11.0716C41.5987 11.1928 41.5199 11.1244 41.329 11.2735C41.1381 11.4226 40.7189 11.7208 40.6442 11.814C40.5695 11.9071 39.9304 12.3979 39.6192 12.606C39.3079 12.8142 38.6107 13.218 38.2745 13.51C37.9383 13.8019 37.2868 14.3424 37.1457 14.4542Z" fill="#AA5323"/>
<path d="M36.119 14.3586C36.119 14.3586 36.2857 14.361 36.3354 14.4263C36.3354 14.4263 36.6436 14.156 36.9715 14.4231C36.9715 14.4231 38.175 13.6093 38.2953 13.4043C38.4157 13.1993 38.6107 13.1961 39.0797 12.8545C39.5487 12.5128 39.8433 12.3699 40.1546 12.1276C40.4658 11.8854 40.7273 11.612 40.9514 11.4661C41.1755 11.3201 41.7399 10.9504 41.6445 10.6305C41.6445 10.6305 41.188 10.8914 40.8892 11.2176C40.5904 11.5437 40.6153 11.2642 40.3123 11.5375C40.0094 11.8108 39.5404 12.1835 39.1503 12.3761C38.7602 12.5688 38.9968 12.547 38.7145 12.7272C38.4323 12.9073 38.4531 12.8794 38.3493 12.9042C38.2456 12.9291 38.0879 13.0036 37.9841 13.1247C37.8803 13.2459 37.6023 13.4105 37.2994 13.5814C36.9964 13.7522 36.2515 14.1956 36.119 14.3586Z" fill="#AA5323"/>
<path d="M36.4818 13.7341C36.4818 13.7341 36.4164 13.5989 36.5316 13.5034C36.6467 13.4079 36.8553 13.1563 36.8895 12.9979C36.9238 12.8395 36.8989 12.8651 37.2319 12.7276C37.5649 12.5902 38.3213 12.2361 38.7477 11.9728C39.1741 11.7096 39.8216 11.2856 39.9554 11.1831C40.0892 11.0806 40.414 10.8523 40.5457 10.7452C40.5457 10.7452 40.609 10.9246 40.4658 11.0481C40.3227 11.1715 39.7717 11.5582 39.6815 11.6188C39.5912 11.6794 39.0839 12.0195 38.9283 12.1057C38.7726 12.1919 38.3867 12.3876 38.2497 12.5018C38.1128 12.6159 38.1304 12.6509 37.5193 12.949C36.9082 13.2472 36.8802 13.2775 36.8989 13.3008C36.9175 13.3241 37.1915 13.2053 37.3222 13.1284C37.4529 13.0516 37.954 12.8233 38.1034 12.7044C38.2528 12.5856 38.5049 12.3993 38.6139 12.3387C38.7228 12.2781 39.6254 11.7376 39.8838 11.5466C40.1421 11.3556 40.2137 11.2927 40.2697 11.3253C40.3257 11.3579 40.416 11.3603 40.3009 11.4697C40.1857 11.5792 39.8185 11.9007 39.6784 11.9939C39.5383 12.087 39.0995 12.348 38.978 12.4109C38.8566 12.4738 38.81 12.5903 38.7415 12.6392C38.673 12.6881 38.4738 12.8302 38.2311 12.8861C37.9883 12.942 37.9447 13.1237 37.786 13.2262C37.6272 13.3287 36.4976 13.9368 36.4633 13.9671C36.4633 13.9671 36.5316 13.8971 36.4818 13.7341Z" fill="#AA5323"/>
<path d="M40.3908 11.1973C40.3908 11.1973 40.3285 11.2525 40.3627 11.2836C40.4079 11.3245 40.5651 11.435 40.7611 11.2404C40.9572 11.0459 41.484 10.6219 41.6548 10.5218C41.8256 10.4216 41.9066 10.3261 41.9003 10.1886C41.9004 10.1886 41.0911 10.6196 40.3908 11.1973ZM41.5051 11.1228C41.5051 11.1228 41.6296 10.9154 41.9346 10.7198C42.2396 10.5241 42.6975 10.2392 42.7594 10.17C42.7594 10.17 42.8683 10.2935 42.6287 10.4449C42.389 10.5963 41.9221 10.9062 41.8661 10.9504C41.8101 10.9947 41.7167 11.0622 41.5051 11.1228Z" fill="#AA5323"/>
<path d="M35.3021 13.38C35.3021 13.38 34.9628 13.5617 35.0842 13.6759C35.2056 13.79 35.3862 13.7551 35.4609 13.7225C35.5356 13.6899 35.6787 13.6549 35.7005 13.648C35.7223 13.641 36.018 13.5571 36.0927 13.4197C36.1674 13.2822 36.3666 13.1238 36.5253 13.0096C36.684 12.8955 36.74 12.7814 36.7183 12.6998C36.7182 12.6998 35.3822 13.3309 35.3021 13.38ZM33.2851 14.9478C33.2851 14.9478 33.5195 14.8085 33.8485 14.8966C33.8485 14.8966 33.833 14.8164 33.7832 14.775C33.7832 14.775 34.1816 14.6706 34.2687 14.4936C34.3559 14.3165 34.3746 14.3538 34.4524 14.3025C34.5302 14.2513 35.0686 13.818 35.0064 13.7248C34.9442 13.6316 34.9317 13.5105 34.885 13.4615C34.885 13.4615 34.7729 13.6153 34.25 13.8692C33.7271 14.1231 33.1451 14.3141 32.7218 14.8849C32.2985 15.4557 32.342 15.7865 32.8587 15.9309C32.8587 15.9309 33.2229 15.7026 34.11 15.7818C34.9971 15.861 35.299 16.1941 35.355 16.2547C35.411 16.3153 35.5916 16.5342 35.4173 16.9046C35.4173 16.9046 35.5947 16.9815 35.6102 16.8115C35.6258 16.6414 35.6352 16.681 35.6756 16.7066C35.7161 16.7322 35.7659 16.7369 35.7472 16.6065C35.7285 16.476 35.6663 16.1848 35.5853 16.0846C35.5044 15.9845 35.5947 16.0287 35.6476 16.0497C35.7005 16.0707 35.8872 16.2221 35.7752 15.9425C35.6631 15.663 35.6352 15.8004 35.632 15.8144C35.6289 15.8284 35.6071 15.8983 35.3644 15.7165C35.1216 15.5348 34.9006 15.4463 34.7356 15.3997C34.5707 15.3532 34.6858 15.3531 34.7823 15.3182C34.8788 15.2832 35.0095 15.2623 35.0531 15.1552C35.0531 15.1552 34.9566 15.1784 34.7792 15.1155C34.6017 15.0526 34.2469 15.0457 33.9605 15.26C33.9605 15.26 34.0508 14.9292 33.7894 14.9478C33.5279 14.9664 33.3443 14.9594 33.0672 15.1784C33.0672 15.1784 33.0517 14.8453 33.3131 14.6729C33.5746 14.5005 33.5403 14.6054 33.6866 14.5611C33.833 14.5168 33.8454 14.3701 33.7831 14.3235C33.7831 14.3235 34.1255 14.3817 34.7013 13.9042C34.7013 13.9042 34.3919 14.3095 34.0159 14.3911C34.0159 14.3911 33.9563 14.6068 33.615 14.6543C33.2737 14.7018 33.282 14.8989 33.2851 14.9478Z" fill="#7B3C20"/>
<path d="M32.3023 16.9223C32.3023 16.9223 32.4703 15.9185 33.4104 15.8458C34.2341 15.7822 34.4956 15.8847 34.6596 15.9374C34.8235 15.9902 35.2239 16.1083 35.0683 16.2372C34.9127 16.3661 34.8235 16.3428 34.8235 16.3428C34.8235 16.3428 35.004 16.1425 34.8401 16.1083C34.6762 16.0742 34.6616 16.1735 34.6388 16.2574C34.616 16.3413 34.6056 16.4422 34.5246 16.5075C34.5246 16.5075 34.4417 16.4112 34.3234 16.4951C34.2051 16.5789 34.3067 16.582 34.3545 16.5681C34.4022 16.5541 34.4645 16.5292 34.452 16.6022C34.4396 16.6752 34.3732 16.801 34.1781 16.9035C33.9831 17.006 33.9934 16.9998 33.761 17.037C33.5287 17.0743 33.3128 17.1659 33.0161 17.4207C32.7194 17.6753 32.3947 17.5904 32.3293 17.3058C32.2733 17.0617 32.3023 16.9223 32.3023 16.9223Z" fill="#5A3719"/>
<path d="M33.3784 16.8909C33.3784 16.8909 33.4687 16.6929 33.3069 16.6021C33.3069 16.6021 32.8119 16.6869 32.6656 16.5368C32.6656 16.5368 33.2041 16.5088 33.5372 16.3784C33.8702 16.2479 33.7706 16.1571 33.6555 16.1361C33.5403 16.1152 33.3287 16.1664 33.3069 16.2713C33.3069 16.2713 33.2415 16.1595 33.3255 16.0849C33.4096 16.0103 33.5403 15.9964 33.6586 16.0313C33.7769 16.0663 33.8827 16.1175 34.2718 15.9148C34.2718 15.9148 34.4958 15.966 34.5021 16.1175C34.5083 16.2689 34.4865 16.3318 34.4678 16.3551C34.4491 16.3784 34.4211 16.4226 34.3744 16.418C34.3278 16.4133 34.2686 16.4017 34.2095 16.5065C34.1503 16.6114 34.1148 16.7022 34.0159 16.772C34.0159 16.772 34.1317 16.4459 33.8453 16.369C33.8453 16.369 33.6087 16.5088 33.4282 16.5158C33.4282 16.5159 33.6586 16.7302 33.3784 16.8909Z" fill="black"/>
<path d="M33.8951 16.2922C33.8951 16.2922 33.7861 16.1722 33.9293 16.1595C34.0725 16.1467 34.2624 16.2515 34.2251 16.34C34.1877 16.4285 34.0196 16.425 33.8951 16.2922Z" fill="#5A3719"/>
<path d="M41.9846 14.7012C41.9846 14.7012 41.7232 14.7757 41.9659 14.9365C42.2087 15.0972 42.327 15.237 42.5044 15.2836C42.6818 15.3302 42.8655 15.3954 42.8624 15.5725C42.8592 15.7495 42.825 15.8194 42.7285 15.9405C42.632 16.0617 42.7814 16.1153 42.9091 16.0454C43.0367 15.9755 43.1456 15.9383 43.2297 15.8893C43.3137 15.8403 43.4537 15.8474 43.3261 15.9126C43.1985 15.9778 43.0647 16.0174 43.2297 16.0221C43.3946 16.0267 44.3875 16.0453 44.596 15.9778C44.8046 15.9103 45.0754 15.8893 45.1003 15.619C45.1003 15.619 45.1096 15.4991 45.1874 15.449C45.2652 15.3989 45.3182 15.2836 45.2045 15.3616C45.0909 15.4397 45.0038 15.4793 44.982 15.456C44.9602 15.4327 44.9539 15.4164 45.0364 15.378C45.119 15.3396 45.1656 15.3756 45.2419 15.2627C45.3182 15.1497 45.3107 15.1683 45.2701 15.1253C45.2294 15.0821 45.1439 15.0507 45.1859 14.996C45.2279 14.9412 45.2699 14.7782 45.0879 14.8737C44.9058 14.9692 44.5473 15.2154 44.3813 15.2542C44.2153 15.2931 44.0887 15.3435 43.8646 15.389C43.6405 15.4344 43.5015 15.4825 43.2629 15.6145C43.0243 15.7465 43.0409 15.5416 43.0823 15.5136C43.0823 15.5136 43.1736 15.6735 43.4164 15.4654C43.6592 15.2573 43.5802 15.4524 44.1738 15.2573C44.7674 15.0621 44.622 15.0305 44.8544 14.9094C45.0868 14.7882 45.3068 14.7836 45.1449 14.6221C44.9831 14.4606 44.9644 14.4466 44.7548 14.6221C44.5452 14.7976 43.9663 15.0802 43.6198 15.088C43.6198 15.088 44.9582 14.5102 44.8212 14.4264C44.6843 14.3425 44.5369 14.268 44.4435 14.2478C44.3502 14.2276 44.3252 14.2043 44.1095 14.3006C43.8937 14.3968 43.8584 14.4202 43.7962 14.4264C43.7339 14.4325 43.5534 14.4683 43.2982 14.6003C43.0429 14.7323 42.906 14.7851 42.7358 14.8892C42.7358 14.8892 42.8541 14.65 43.3812 14.4916C43.9082 14.3332 44.178 14.1872 44.1199 14.1608C44.0618 14.1344 43.931 14.1127 43.8314 14.1282C43.7318 14.1437 43.7609 14.1204 43.4393 14.2478C43.1176 14.3752 43.2546 14.3472 42.9952 14.4031C42.7358 14.459 42.63 14.5165 42.5013 14.5708C42.5013 14.5708 42.5538 14.5009 42.7285 14.4368C42.8183 14.404 42.6303 14.3701 42.8795 14.36C42.8998 14.3592 42.9248 14.3651 42.9495 14.3581C43.2717 14.2657 43.6239 14.1391 43.57 14.1298C43.516 14.1204 43.2027 14.0879 42.8852 14.2338C42.5677 14.3798 42.713 14.3301 42.6009 14.3534C42.4888 14.3767 42.2523 14.5258 42.1735 14.5895C42.0945 14.6531 41.9846 14.7012 41.9846 14.7012Z" fill="white"/>
<path d="M34.1459 16.1476C34.1459 16.1476 34.2704 16.1848 34.3015 16.2722C34.3326 16.3596 34.4105 16.2338 34.4074 16.1942C34.4043 16.1546 34.328 15.9799 34.1926 16.0614C34.0572 16.1429 34.1251 16.14 34.1459 16.1476Z" fill="#5A3719"/>
<path d="M33.7986 17.874C33.7986 17.874 34.0643 17.749 34.2873 17.7645C34.2873 17.7645 34.2001 17.45 34.3557 17.5036C34.5113 17.5572 34.4678 17.5362 34.4989 17.5339C34.4989 17.5339 34.5082 17.3265 34.4677 17.245C34.4677 17.245 34.6265 17.2822 34.7883 17.2846C34.7883 17.2846 34.6358 16.9864 34.8039 16.7814C34.8039 16.7814 34.8962 16.9771 35.1037 17.026C35.1037 17.026 35.1047 16.9422 35.1037 16.8536C35.1037 16.8536 35.2272 16.8396 35.3237 16.8909C35.4202 16.9422 35.5011 16.3505 35.2147 16.22C35.2147 16.22 35.1463 16.3318 34.8786 16.3877C34.6109 16.4436 34.6131 16.4974 34.503 16.6988C34.393 16.9003 34.2966 16.9026 34.0724 17.047C33.8483 17.1914 33.7121 17.485 33.6993 17.5106C33.6994 17.5106 33.8173 17.655 33.7986 17.874Z" fill="#7B3C20"/>
<path d="M42.7283 14.4368C42.8256 14.4197 42.6301 14.3701 42.8793 14.36C42.8996 14.3591 42.9245 14.365 42.9493 14.358C43.2714 14.2656 43.6236 14.139 43.5697 14.1297C43.5158 14.1204 43.2024 14.0878 42.885 14.2337C42.5675 14.3797 42.7127 14.33 42.6007 14.3533C42.4886 14.3766 42.2521 14.5257 42.1732 14.5894C42.0944 14.653 41.9844 14.7012 41.9844 14.7012C41.9844 14.7012 41.7229 14.7757 41.9657 14.9365C42.2085 15.0972 42.3267 15.237 42.5042 15.2836C42.6816 15.3302 42.8652 15.3954 42.8621 15.5725C42.859 15.7495 42.8247 15.8194 42.7283 15.9405C42.6318 16.0617 42.7812 16.1153 42.9088 16.0454C43.0365 15.9755 43.1454 15.9382 43.2294 15.8893C43.3134 15.8403 43.4535 15.8474 43.3259 15.9126C43.1983 15.9778 43.0644 16.0174 43.2294 16.0221C43.3944 16.0267 44.3873 16.0453 44.5958 15.9778C44.8043 15.9103 45.0751 15.8893 45.1 15.619C45.1 15.619 45.1094 15.499 45.1872 15.449C45.265 15.3989 45.3179 15.2836 45.2043 15.3616C45.0907 15.4397 45.0035 15.4793 44.9817 15.456C44.9599 15.4327 44.9537 15.4164 45.0362 15.378C45.1187 15.3396 45.1654 15.3756 45.2417 15.2627C45.3179 15.1497 45.3104 15.1683 45.2698 15.1253C45.249 15.1031 45.2163 15.0841 45.1951 15.0634C45.1951 15.0634 45.1353 15.0111 45.0658 15.0554C44.9963 15.0996 44.6913 15.2285 44.5689 15.2433C44.4464 15.258 44.3199 15.31 44.0999 15.4172C43.8799 15.5243 43.5147 15.7426 43.4566 15.5399C43.4566 15.5399 43.2973 15.5967 43.2626 15.6144C43.0173 15.7394 43.0387 15.562 43.082 15.5135C43.082 15.5135 42.9534 15.6579 42.9586 15.5266C42.9637 15.3954 43.0467 15.4179 43.1899 15.376C43.3331 15.3341 43.5593 15.2409 43.4659 15.1632C43.3725 15.0856 43.2739 15.2403 43.1702 15.2876C43.0664 15.3349 42.8589 15.3768 42.8268 15.2261C42.7946 15.0755 42.7956 14.9706 42.5145 14.9543C42.2334 14.9381 42.2437 14.7625 42.3205 14.6872C42.3972 14.6119 42.4648 14.483 42.7283 14.4368Z" fill="#999999"/>
<path d="M43.6218 15.7991C43.6218 15.7991 44.0597 15.5972 44.4622 15.5024C44.8647 15.4077 44.5494 15.5149 44.4809 15.5366C44.4124 15.5583 43.7858 15.7649 43.6385 15.8332C43.4911 15.9016 43.5215 15.8431 43.6218 15.7991ZM43.7235 15.8876C43.7235 15.8876 44.2153 15.7246 44.3066 15.7929C44.3979 15.8612 44.3232 15.827 44.2153 15.8426C44.1074 15.8581 43.8107 15.9078 43.7318 15.9062C43.6529 15.9047 43.7235 15.8876 43.7235 15.8876ZM44.512 15.7168C44.512 15.7168 44.6054 15.6997 44.6158 15.7339C44.6262 15.7681 44.5743 15.7728 44.5224 15.7665C44.4705 15.7603 44.4249 15.7307 44.512 15.7168Z" fill="black"/>
<path d="M31.5231 20.0017C31.5231 20.0017 31.5047 19.57 31.7226 19.351C31.9404 19.132 32.9987 18.0307 33.1606 17.7228C33.1606 17.7228 33.2975 17.818 33.3037 17.9928C33.3037 17.9928 33.4811 17.6872 33.6212 17.5721C33.6212 17.5721 33.7457 17.6992 33.7239 17.9531C33.7239 17.9531 33.9791 17.818 34.3744 17.8157C34.3744 17.8157 34.2282 17.9881 34.2219 18.0883C34.2219 18.0883 34.7698 18.0277 35.0561 18.0743C35.0561 18.0743 34.3029 18.4959 34.5145 18.5332C34.7261 18.5705 34.9471 18.5309 34.9471 18.5309C34.9471 18.5309 34.7075 18.7755 34.3246 18.8244C34.3246 18.8244 34.8101 18.8174 34.9066 18.9269C34.9066 18.9269 34.4335 18.9991 34.0538 19.288C34.0538 19.288 34.0184 19.2717 34.0158 19.1645C34.0158 19.1645 34.004 19.26 33.8951 19.3508C33.7861 19.4417 33.5247 19.6351 33.4282 19.7329C33.3317 19.8308 33.1512 20.0241 32.9582 20.0148C32.9582 20.0148 33.0017 19.8657 32.8586 19.8191C32.7154 19.7725 32.5504 19.8051 32.4353 19.9286C32.4353 19.9286 31.9248 19.9356 31.763 19.9589C31.763 19.9589 31.8781 19.7749 31.9839 19.7795C32.0898 19.7841 32.5162 19.8424 32.5535 19.5512C32.5909 19.26 32.2796 19.3369 32.3979 19.1645C32.5162 18.9921 32.4881 18.9991 32.4913 18.9828C32.4913 18.9828 32.3948 19.0364 32.3388 19.1902C32.2828 19.3439 32.2423 19.4627 32.0399 19.6165C31.8376 19.7702 31.7538 19.8633 31.6978 19.9705C31.6979 19.9706 31.6056 19.9834 31.5231 20.0017Z" fill="white"/>
<path d="M32.0139 19.7407C32.0139 19.7407 32.0305 19.6817 32.1799 19.6568C32.3292 19.632 32.3355 19.5606 32.3168 19.5295C32.2981 19.4984 32.2089 19.4984 32.3542 19.3338C32.3542 19.3338 32.406 19.3478 32.4413 19.3882C32.4766 19.4285 32.6405 19.7796 32.0139 19.7407Z" fill="white"/>
<path d="M31.6552 19.4358C31.663 19.7235 32.04 19.6166 32.04 19.6166C31.9057 19.7187 31.8236 19.794 31.7672 19.8645C31.7921 19.7248 31.5546 19.6898 31.5546 19.6898C31.5741 19.6043 31.6054 19.5139 31.6552 19.4358ZM33.0415 17.8983C33.0961 17.8269 33.1374 17.7669 33.1606 17.7229C33.1606 17.7229 33.2975 17.8181 33.3037 17.9928C33.3037 17.9928 33.4811 17.6873 33.6212 17.5721C33.6212 17.5721 33.7457 17.6993 33.7239 17.9532C33.7239 17.9532 33.9791 17.8181 34.3744 17.8158C34.3744 17.8158 34.2281 17.9882 34.2219 18.0883C34.2219 18.0883 34.7697 18.0277 35.056 18.0743C35.056 18.0743 34.3028 18.496 34.5144 18.5333C34.7261 18.5705 34.9471 18.5309 34.9471 18.5309C34.9471 18.5309 34.7074 18.7755 34.3246 18.8244C34.3246 18.8244 34.8101 18.8175 34.9066 18.927C34.9066 18.927 34.7684 18.948 34.5814 19.0131C34.5814 19.0131 34.4418 18.8819 34.0372 18.9006C34.0372 18.9006 34.3519 18.7245 34.6015 18.6676C34.6015 18.6676 34.4915 18.5232 34.3193 18.6552C34.3193 18.6552 33.9769 18.4191 34.2592 18.2188C34.2592 18.2188 34.0599 18.1768 33.9292 18.27C33.9292 18.27 33.9355 18.1085 34.0807 18.0355C34.0807 18.0355 33.6968 17.9734 33.6014 18.256C33.6014 18.256 33.5288 18.1395 33.5619 18.0075C33.5619 18.0075 33.3296 18.1412 33.2237 18.2926C33.2238 18.2926 33.1888 18.0055 33.0415 17.8983ZM32.2975 19.7242C32.2286 19.7412 32.1364 19.7484 32.0141 19.7408C32.0141 19.7408 32.0246 19.7036 32.1036 19.6759C32.1036 19.6759 32.1263 19.7231 32.2975 19.7242Z" fill="#999999"/>
<path d="M32.9955 18.6358C32.9955 18.6358 33.1698 18.7732 33.2321 18.8571C33.2321 18.8571 33.3908 18.7453 33.4499 18.6545C33.4499 18.6545 33.5745 18.736 33.618 18.8571C33.618 18.8571 33.7052 18.7965 33.7238 18.7127C33.7238 18.7127 33.9436 18.7593 34.0158 18.8315C34.0158 18.8315 34.0494 18.6195 34.0158 18.4867C34.0158 18.4867 34.1689 18.4984 34.2623 18.538C34.2623 18.538 34.1755 18.3982 34.6189 18.2188C34.6189 18.2188 34.2836 18.2908 34.1565 18.4378C34.1565 18.4378 34.0133 18.4448 33.951 18.4005C33.951 18.4005 33.9604 18.6148 33.9542 18.7174C33.9542 18.7174 33.8678 18.6824 33.6993 18.6428C33.6993 18.6428 33.6585 18.7127 33.6305 18.729C33.6305 18.729 33.5246 18.6451 33.478 18.538C33.478 18.538 33.3161 18.685 33.2539 18.7476C33.2539 18.7476 33.1014 18.6405 32.9955 18.6358Z" fill="black"/>
<path d="M31.9931 20.8166C31.9931 20.8166 32.0616 20.8492 32.2234 20.7187C32.3853 20.5882 32.8428 20.297 32.8864 20.0641C32.9299 19.8311 32.7401 19.8171 32.5906 19.8847C32.4413 19.9522 32.5035 20.0827 32.5097 20.1246C32.516 20.1665 32.5191 20.3296 32.2763 20.5556C32.0335 20.7817 31.9931 20.8166 31.9931 20.8166Z" fill="#FFC221"/>
<path d="M31.9405 20.8909C31.9405 20.8909 31.5732 20.7371 31.9031 20.5718C32.233 20.4064 32.3793 20.3621 32.4167 20.2246C32.454 20.0871 32.4322 20.1105 32.3108 20.1687C32.1894 20.227 31.7226 20.4366 31.651 20.241C31.651 20.241 31.844 20.3155 32.0836 20.199C32.3233 20.0826 32.5194 20.0476 32.3669 19.9987C32.2144 19.9498 31.6634 20.0103 31.5732 20.0359C31.4829 20.0616 31.5047 20.0569 31.4891 20.1477C31.4736 20.2386 31.3708 20.4296 31.3335 20.4855C31.2962 20.5414 31.2059 20.7744 31.374 20.8769C31.542 20.9794 31.8085 20.9724 31.9405 20.8909Z" fill="#FFC221"/>
<path d="M31.7974 20.0895C31.7974 20.0895 31.7132 20.1011 31.7288 20.1338C31.7444 20.1664 31.7663 20.1617 31.7974 20.164C31.8284 20.1663 31.8751 20.1478 31.8813 20.1268C31.8875 20.1058 31.8286 20.0826 31.7974 20.0895Z" fill="black"/>
<path d="M31.9187 20.8094C31.9187 20.8094 31.7444 20.7255 31.9405 20.6184C32.1366 20.5112 32.3482 20.4087 32.3762 20.3644C32.3762 20.3644 32.2829 20.4972 31.9187 20.8094Z" fill="white"/>
</svg>
