<svg width="52" height="40" viewBox="0 0 52 40" fill="none" xmlns="http://www.w3.org/2000/svg">
<mask id="mask0_1_34162" style="mask-type:alpha" maskUnits="userSpaceOnUse" x="2" y="2" width="48" height="36">
<path d="M2.56934 11.1356C3.16681 6.41247 7.0415 3.00193 11.7861 2.60887C15.6412 2.28949 20.6196 2 26 2C31.3804 2 36.3588 2.28949 40.2139 2.60887C44.9585 3.00193 48.8332 6.41247 49.4307 11.1356C49.752 13.6759 50 16.704 50 20C50 23.296 49.752 26.3241 49.4307 28.8644C48.8332 33.5875 44.9585 36.9981 40.2139 37.3911C36.3588 37.7105 31.3804 38 26 38C20.6196 38 15.6412 37.7105 11.7861 37.3911C7.0415 36.9981 3.16681 33.5875 2.56934 28.8644C2.248 26.3241 2 23.296 2 20C2 16.704 2.248 13.6759 2.56934 11.1356Z" fill="#75AAFA"/>
</mask>
<g mask="url(#mask0_1_34162)">
<rect x="2" y="2" width="48" height="36" fill="#3F6FEB"/>
<path d="M15.0136 19.2008C14.7651 18.7035 14.7651 18.7035 14.7651 18.2063C14.6407 18.2063 14.6174 18.2297 14.5456 18.2101C14.4737 18.1908 14.4465 18.6687 14.2134 18.5754C14.1746 18.5288 14.3805 18.1831 14.1571 18.0394C14.0852 17.9926 14.1746 17.7091 14.1435 17.5848C14.1435 17.5848 13.8599 17.7323 13.6463 17.2119C13.5413 17.0758 13.3976 17.3361 13.3976 17.3361C13.3976 17.3361 13.4598 17.4954 13.3472 17.5343C13.1879 17.4177 13.0713 17.4788 12.8693 17.3186C12.6673 17.1584 12.9121 16.9749 12.5275 16.8389C12.7761 16.2174 12.7761 16.3416 13.3976 16.0931C13.0247 15.8444 13.0247 15.8444 12.7761 15.4715C12.4032 15.3472 12.2788 15.2229 11.9059 14.9743C11.4087 14.3527 11.16 13.1096 11.16 12.2395C11.4747 11.9481 11.9059 13.2339 12.5275 13.6068L13.3976 13.9798C13.8948 14.2284 14.0192 14.477 14.3921 14.7256L15.5109 15.0986C16.0081 15.4715 16.2568 15.9687 16.6297 16.0931C17.0337 16.0931 17.1115 15.8604 17.2411 15.8459C17.9719 15.8084 18.3448 15.7143 18.4905 15.4948C18.638 15.32 18.9916 15.5958 19.986 15.2229L19.8618 14.7256C19.8618 14.7256 20.1259 14.5081 20.4833 14.6013C20.4736 14.3741 20.4503 13.7681 20.8023 13.4947C20.5885 13.2704 20.7319 13.1096 20.7319 13.1096C20.7319 13.1096 20.9301 12.9192 20.9534 12.8182C20.8485 12.2705 21.0443 12.262 21.0882 12.1008C21.1321 11.9397 20.9191 11.9949 20.9792 11.7728C21.0391 11.5506 21.3992 11.4978 21.4474 11.3148C21.4958 11.1318 21.3448 11.04 21.3535 10.9963C21.4312 10.8215 21.3652 10.4097 21.3535 10.2505C22.0217 10.0718 22.2392 9.52791 22.4723 9.75322C22.5966 9.00736 22.7209 8.75874 23.4668 8.75874C23.5717 8.52955 23.1948 8.3353 23.3424 8.2615C23.5911 8.23042 23.7814 8.24596 24.0729 8.62278C24.1649 8.7422 24.1816 8.44797 24.2748 8.41688C24.368 8.38581 24.5911 8.38532 24.6243 8.23819C24.6594 8.08668 24.7099 7.88857 24.8342 7.63995C24.9391 7.43795 25.0206 7.71765 25.1139 8.11388C25.6384 8.1333 26.8231 8.24985 27.3204 8.38581C27.6933 8.48293 27.9419 8.28868 28.2993 8.24984C28.5635 8.514 28.8121 8.31589 28.9519 8.87916C29.1494 9.1831 29.4725 8.90636 29.5424 8.9957C29.9581 10.1417 31.3877 9.36863 31.4964 9.38806C31.679 9.38806 31.902 9.90045 32.0457 9.88772C32.2792 9.84839 32.2131 9.68913 32.4171 9.75322C32.3626 10.1844 32.8173 10.6817 32.8173 11.0041C32.8173 11.0041 32.9279 11.0585 33.0304 10.9628C33.1329 10.8672 33.2271 10.6215 33.3183 10.6273C33.5359 10.6584 33.624 10.6863 33.8747 10.7301C34.5488 10.9604 34.8921 11.0123 35.1539 11.1303C35.2757 11.3532 35.3937 11.4674 35.6406 11.4257C35.8446 11.5627 35.6958 11.7422 35.8162 11.7538C36.0649 11.6295 36.1464 11.4935 36.395 11.6179C36.6436 11.7422 36.8923 11.9908 37.0166 12.2395C37.0166 12.3637 36.8923 12.861 37.0166 13.6068C37.0787 13.8555 37.1088 14.0526 37.3759 14.479C37.305 14.917 37.712 15.6541 37.712 15.8406C37.712 16.0891 37.5138 16.2174 37.3895 16.466C37.8868 16.8389 37.3895 17.4604 37.1409 17.8334C39.0056 18.2063 38.1354 18.9522 39.6271 18.5792C39.2541 19.4494 39.3862 19.3795 39.7591 20.2497C39.0132 20.747 39.7437 20.8984 39.2465 21.5199C39.2154 21.5588 39.5416 22.0599 40 22.0599C39.8757 23.0544 39.5028 22.6815 39.6271 24.1732C38.6481 24.1538 39.0443 25.2882 38.384 25.1677C38.4228 25.8786 38.7608 25.9408 38.6326 26.6594C38.1354 26.7837 38.1354 26.7837 37.8868 27.1567L37.5138 27.0323C37.3895 27.6539 37.1409 27.7782 37.5138 28.3998C37.5138 28.3998 37.0321 28.4153 36.8923 28.3998C36.8806 28.6135 37.1059 28.6717 37.1409 28.897C37.1215 28.9863 36.4338 29.3787 35.8978 29.3943C35.758 29.7012 36.2707 30.0275 36.2397 30.1829C35.6569 30.2955 35.4005 31.0103 35.4005 31.0103C35.4005 31.0103 35.6996 31.1307 35.6492 31.2589C35.4899 31.1423 35.4005 31.1346 35.1519 31.1346C35.0276 31.1657 34.7247 31.127 34.4341 31.6173C34.1153 31.7224 33.9648 31.6844 33.7229 32.0043C33.6158 31.6996 33.4618 32.0071 33.2734 32.1253C33.0853 32.2437 32.8318 32.5379 32.7978 32.5254C32.8055 32.4398 32.9143 32.1291 32.9143 32.1291L32.2928 32.2534C32.2928 32.2534 32.265 32.2561 32.2162 32.2611C32.1673 32.2659 32.1804 31.8982 32.0626 31.9115C31.9448 31.925 31.6078 32.374 31.4929 32.388C31.3783 32.4021 31.3419 32.2452 31.2431 32.2588C31.1443 32.2725 30.9516 32.7324 30.8816 32.7446C30.8116 32.7568 30.534 32.4651 30.2961 32.5058C29.0724 32.9371 28.8781 31.6552 28.6878 32.3777C28.4314 32.2417 28.4758 32.3206 28.2153 32.3889C28.0491 32.4317 28.0339 32.1691 27.8861 32.1732C27.5904 32.1815 27.6059 32.4612 27.4447 32.3777C27.3127 31.7949 26.5162 31.8998 26.4385 31.6512C26.3754 31.3919 26.7836 31.3932 26.9156 31.2175C27.0166 30.964 26.8102 30.8678 27.2198 30.6233C27.7537 30.2622 27.4468 30.1259 27.5404 29.8545C27.7078 29.4627 27.7088 29.367 27.569 29.0213C27.569 29.0213 27.1533 27.9025 27.0717 27.9025C26.8231 27.8327 26.8231 28.3142 26.4579 28.4464C25.7121 28.695 24.3952 27.817 24.166 27.817C23.9563 27.8209 22.9848 28.0471 23.0215 27.5627C22.8763 28.0336 22.3421 27.6733 22.3092 27.6733C21.8119 27.6733 22.0022 28.0579 21.6681 28.0423C21.5166 27.9919 19.986 27.9025 19.986 27.9025V28.1511L18.9916 27.6539L18.1214 27.4053C17.3756 27.1567 17.7485 26.5351 16.5054 26.908V26.1622H15.8839C16.1324 24.6704 15.8839 25.4163 15.7595 24.0489L15.2623 24.1732C14.7651 23.5012 15.9537 23.6293 14.8894 23.1787C14.8894 23.1787 14.9088 22.4367 14.6407 22.6815C14.5863 22.7126 14.7651 23.0544 14.7651 23.0544C13.7706 22.9301 13.5219 22.6815 13.5219 21.687C13.5219 21.687 14.3416 21.8036 14.2678 21.687C14.1513 21.5005 13.9998 20.2885 14.0269 20.207C14.0153 20.0438 14.7884 19.632 14.6388 19.2396C14.734 19.2046 15.0136 19.2008 15.0136 19.2008Z" fill="white"/>
</g>
<path d="M11.7035 1.61228C6.53056 2.04084 2.23921 5.77712 1.57724 11.0101C1.25164 13.5841 1 16.6548 1 20C1 23.3452 1.25164 26.4159 1.57724 28.9899C2.23922 34.2229 6.53056 37.9592 11.7035 38.3877C15.5784 38.7087 20.5852 39 26 39C31.4148 39 36.4216 38.7087 40.2965 38.3877C45.4694 37.9592 49.7608 34.2229 50.4228 28.9899C50.7484 26.4159 51 23.3452 51 20C51 16.6548 50.7484 13.5841 50.4228 11.0101C49.7608 5.77712 45.4694 2.04084 40.2965 1.61228C36.4216 1.29127 31.4148 1 26 1C20.5852 1 15.5784 1.29127 11.7035 1.61228Z" stroke="#E6E6FA" stroke-width="2"/>
</svg>
