<svg width="52" height="40" viewBox="0 0 52 40" fill="none" xmlns="http://www.w3.org/2000/svg">
<mask id="mask0_1_41712" style="mask-type:alpha" maskUnits="userSpaceOnUse" x="2" y="2" width="48" height="36">
<path d="M2.56934 11.1356C3.16681 6.41247 7.0415 3.00193 11.7861 2.60887C15.6412 2.28949 20.6196 2 26 2C31.3804 2 36.3588 2.28949 40.2139 2.60887C44.9585 3.00193 48.8332 6.41247 49.4307 11.1356C49.752 13.6759 50 16.704 50 20C50 23.296 49.752 26.3241 49.4307 28.8644C48.8332 33.5875 44.9585 36.9981 40.2139 37.3911C36.3588 37.7105 31.3804 38 26 38C20.6196 38 15.6412 37.7105 11.7861 37.3911C7.0415 36.9981 3.16681 33.5875 2.56934 28.8644C2.248 26.3241 2 23.296 2 20C2 16.704 2.248 13.6759 2.56934 11.1356Z" fill="#00D0BF"/>
</mask>
<g mask="url(#mask0_1_41712)">
<rect x="2" y="2" width="48" height="36" fill="#2E50A6"/>
<rect x="27" y="21" width="26" height="20" transform="rotate(-180 27 21)" fill="white"/>
<rect x="26" y="20" width="8" height="18" transform="rotate(-180 26 20)" fill="#EE5757"/>
<rect x="18" y="20" width="8" height="18" transform="rotate(-180 18 20)" fill="white"/>
<rect x="10" y="20" width="8" height="18" transform="rotate(-180 10 20)" fill="#3F6FEB"/>
<path d="M34.5921 22L35.3262 23.1689H37.4144V27.2456L35.8465 24.7939L33.7368 28.1579H34.7631L35.8465 26.2193L38.0701 30.2105L40.2938 26.2193L41.3772 28.1579H42.4035L40.2938 24.7939L38.7259 27.2456V24.9934H39.6666L40.3651 23.8816H38.7259V23.1689H40.8141L41.5482 22H34.5921ZM37.0438 26.989H34.7631V27.7873H37.0438V26.989ZM41.3772 26.989H39.0965V27.7873H41.3772V26.989Z" fill="white"/>
<path d="M32.3684 23.3684L32.6757 24.314H33.6699L32.8655 24.8983L33.1728 25.8439L32.3684 25.2595L31.5641 25.8439L31.8713 24.8983L31.067 24.314H32.0612L32.3684 23.3684Z" fill="white"/>
<path d="M44 23.3684L44.3072 24.314H45.3015L44.4971 24.8983L44.8044 25.8439L44 25.2595L43.1957 25.8439L43.5029 24.8983L42.6986 24.314H43.6928L44 23.3684Z" fill="white"/>
<path d="M40.579 28.8421L40.8862 29.7877H41.8804L41.0761 30.372L41.3833 31.3176L40.579 30.7332L39.7747 31.3176L40.0819 30.372L39.2775 29.7877H40.2718L40.579 28.8421Z" fill="white"/>
<path d="M35.1052 28.8421L35.4125 29.7877H36.4067L35.6023 30.372L35.9096 31.3176L35.1052 30.7332L34.3009 31.3176L34.6081 30.372L33.8038 29.7877H34.798L35.1052 28.8421Z" fill="white"/>
<path d="M38.0474 32.2632L38.3546 33.2087H39.3488L38.5445 33.7931L38.8517 34.7387L38.0474 34.1543L37.243 34.7387L37.5503 33.7931L36.7459 33.2087H37.7401L38.0474 32.2632Z" fill="white"/>
</g>
<path d="M11.7035 1.61228C6.53056 2.04084 2.23921 5.77712 1.57724 11.0101C1.25164 13.5841 1 16.6548 1 20C1 23.3452 1.25164 26.4159 1.57724 28.9899C2.23922 34.2229 6.53056 37.9592 11.7035 38.3877C15.5784 38.7087 20.5852 39 26 39C31.4148 39 36.4216 38.7087 40.2965 38.3877C45.4694 37.9592 49.7608 34.2229 50.4228 28.9899C50.7484 26.4159 51 23.3452 51 20C51 16.6548 50.7484 13.5841 50.4228 11.0101C49.7608 5.77712 45.4694 2.04084 40.2965 1.61228C36.4216 1.29127 31.4148 1 26 1C20.5852 1 15.5784 1.29127 11.7035 1.61228Z" stroke="#E6E6FA" stroke-width="2"/>
</svg>
