<svg width="52" height="40" viewBox="0 0 52 40" fill="none" xmlns="http://www.w3.org/2000/svg">
<mask id="mask0_1_36620" style="mask-type:alpha" maskUnits="userSpaceOnUse" x="2" y="2" width="48" height="36">
<path d="M2.56934 11.1356C3.16681 6.41247 7.0415 3.00193 11.7861 2.60887C15.6412 2.28949 20.6196 2 26 2C31.3804 2 36.3588 2.28949 40.2139 2.60887C44.9585 3.00193 48.8332 6.41247 49.4307 11.1356C49.752 13.6759 50 16.704 50 20C50 23.296 49.752 26.3241 49.4307 28.8644C48.8332 33.5875 44.9585 36.9981 40.2139 37.3911C36.3588 37.7105 31.3804 38 26 38C20.6196 38 15.6412 37.7105 11.7861 37.3911C7.0415 36.9981 3.16681 33.5875 2.56934 28.8644C2.248 26.3241 2 23.296 2 20C2 16.704 2.248 13.6759 2.56934 11.1356Z" fill="#00D0BF"/>
</mask>
<g mask="url(#mask0_1_36620)">
<rect x="2" y="2" width="48" height="36" fill="#2E50A6"/>
<mask id="mask1_1_36620" style="mask-type:alpha" maskUnits="userSpaceOnUse" x="2" y="2" width="24" height="18">
<rect x="2" y="2" width="24" height="18" fill="#C4C4C4"/>
</mask>
<g mask="url(#mask1_1_36620)">
<path d="M2 2L26 20L2 2ZM26 2L2 20L26 2Z" fill="black"/>
<path d="M26 2L2 20M2 2L26 20L2 2Z" stroke="white" stroke-width="2.4"/>
<path d="M2 2L26 20L2 2ZM26 2L2 20L26 2Z" fill="black"/>
<path d="M26 2L2 20M2 2L26 20L2 2Z" stroke="#EE5757" stroke-width="1.6"/>
<path d="M14 2V23V2ZM2 11H30H2Z" fill="black"/>
<path d="M2 11H30M14 2V23V2Z" stroke="white" stroke-width="4"/>
<path d="M14 2V23V2ZM2 11H30H2Z" fill="black"/>
<path d="M2 11H30M14 2V23V2Z" stroke="#EE5757" stroke-width="2.4"/>
</g>
<path d="M37.2926 12.0195L37.693 10.7744L38.9161 11.2376L38.1924 10.1482L39.3171 9.48079L38.0142 9.36744L38.1936 8.07193L37.2926 9.01995L36.3916 8.07193L36.571 9.36744L35.2681 9.48079L36.3928 10.1482L35.669 11.2376L36.8922 10.7744L37.2926 12.0195Z" fill="white"/>
<path d="M30.0245 23.5272L30.425 22.2822L31.6481 22.7454L30.9243 21.656L32.0491 20.9885L30.7461 20.8752L30.9255 19.5797L30.0245 20.5277L29.1235 19.5797L29.303 20.8752L28 20.9885L29.1247 21.656L28.401 22.7454L29.6241 22.2822L30.0245 23.5272Z" fill="white"/>
<path d="M14 32L14.7912 29.4768L17.2077 30.4155L15.7778 28.2078L18 26.8552L15.4257 26.6254L15.7802 24L14 25.9212L12.2198 24L12.5743 26.6254L10 26.8552L12.2222 28.2078L10.7922 30.4155L13.2088 29.4768L14 32Z" fill="white"/>
<path d="M37.2926 31.401L37.693 30.1559L38.9161 30.6191L38.1924 29.5298L39.3171 28.8623L38.0142 28.749L38.1936 27.4535L37.2926 28.4015L36.3916 27.4535L36.571 28.749L35.2681 28.8623L36.3928 29.5298L35.669 30.6191L36.8922 30.1559L37.2926 31.401Z" fill="white"/>
<path d="M43.7531 25.4654L44.1535 24.2203L45.3767 24.6835L44.6529 23.5942L45.7776 22.9267L44.4747 22.8134L44.6541 21.5179L43.7531 22.4659L42.8521 21.5179L43.0315 22.8134L41.7286 22.9267L42.8533 23.5942L42.1296 24.6835L43.3527 24.2203L43.7531 25.4654Z" fill="white"/>
<path d="M40.1998 19.6336L40.5163 18.8578L41.3519 18.7966L40.7119 18.2559L40.9119 17.4423L40.1998 17.8839L39.4878 17.4423L39.6878 18.2559L39.0478 18.7966L39.8834 18.8578L40.1998 19.6336Z" fill="white"/>
</g>
<path d="M11.7035 1.61228C6.53056 2.04084 2.23921 5.77712 1.57724 11.0101C1.25164 13.5841 1 16.6548 1 20C1 23.3452 1.25164 26.4159 1.57724 28.9899C2.23922 34.2229 6.53056 37.9592 11.7035 38.3877C15.5784 38.7087 20.5852 39 26 39C31.4148 39 36.4216 38.7087 40.2965 38.3877C45.4694 37.9592 49.7608 34.2229 50.4228 28.9899C50.7484 26.4159 51 23.3452 51 20C51 16.6548 50.7484 13.5841 50.4228 11.0101C49.7608 5.77712 45.4694 2.04084 40.2965 1.61228C36.4216 1.29127 31.4148 1 26 1C20.5852 1 15.5784 1.29127 11.7035 1.61228Z" stroke="#E6E6FA" stroke-width="2"/>
</svg>
