<svg width="52" height="40" viewBox="0 0 52 40" fill="none" xmlns="http://www.w3.org/2000/svg">
<mask id="mask0_1_29818" style="mask-type:alpha" maskUnits="userSpaceOnUse" x="2" y="2" width="48" height="36">
<path d="M2.56934 11.1356C3.16681 6.41247 7.0415 3.00193 11.7861 2.60887C15.6412 2.28949 20.6196 2 26 2C31.3804 2 36.3588 2.28949 40.2139 2.60887C44.9585 3.00193 48.8332 6.41247 49.4307 11.1356C49.752 13.6759 50 16.704 50 20C50 23.296 49.752 26.3241 49.4307 28.8644C48.8332 33.5875 44.9585 36.9981 40.2139 37.3911C36.3588 37.7105 31.3804 38 26 38C20.6196 38 15.6412 37.7105 11.7861 37.3911C7.0415 36.9981 3.16681 33.5875 2.56934 28.8644C2.248 26.3241 2 23.296 2 20C2 16.704 2.248 13.6759 2.56934 11.1356Z" fill="#00D0BF"/>
</mask>
<g mask="url(#mask0_1_29818)">
<rect x="2" y="26" width="48" height="12" fill="#59C785"/>
<rect x="2" y="14" width="48" height="12" fill="#EE5757"/>
<path fill-rule="evenodd" clip-rule="evenodd" d="M28.444 23.1584C27.4858 24.4288 25.9638 25.25 24.25 25.25C21.3505 25.25 19 22.8995 19 20C19 17.1005 21.3505 14.75 24.25 14.75C25.9638 14.75 27.4858 15.5712 28.444 16.8416C27.6581 16.088 26.5915 15.625 25.4167 15.625C23.0004 15.625 21.0417 17.5838 21.0417 20C21.0417 22.4162 23.0004 24.375 25.4167 24.375C26.5915 24.375 27.6581 23.912 28.444 23.1584Z" fill="white"/>
<path d="M30.0834 17.0833L30.6414 18.6527L32.1457 17.9376L31.4307 19.4419L33 20L31.4307 20.5581L32.1457 22.0624L30.6414 21.3473L30.0834 22.9166L29.5253 21.3473L28.021 22.0624L28.736 20.5581L27.1667 20L28.736 19.4419L28.021 17.9376L29.5253 18.6527L30.0834 17.0833Z" fill="white"/>
<rect x="2" y="2" width="48" height="12" fill="#75AAFA"/>
</g>
<path d="M11.7035 1.61228C6.53056 2.04084 2.23921 5.77712 1.57724 11.0101C1.25164 13.5841 1 16.6548 1 20C1 23.3452 1.25164 26.4159 1.57724 28.9899C2.23922 34.2229 6.53056 37.9592 11.7035 38.3877C15.5784 38.7087 20.5852 39 26 39C31.4148 39 36.4216 38.7087 40.2965 38.3877C45.4694 37.9592 49.7608 34.2229 50.4228 28.9899C50.7484 26.4159 51 23.3452 51 20C51 16.6548 50.7484 13.5841 50.4228 11.0101C49.7608 5.77712 45.4694 2.04084 40.2965 1.61228C36.4216 1.29127 31.4148 1 26 1C20.5852 1 15.5784 1.29127 11.7035 1.61228Z" stroke="#E6E6FA" stroke-width="2"/>
</svg>
