<svg width="52" height="40" viewBox="0 0 52 40" fill="none" xmlns="http://www.w3.org/2000/svg">
<mask id="mask0_1_34310" style="mask-type:alpha" maskUnits="userSpaceOnUse" x="2" y="2" width="48" height="36">
<path d="M2.56934 11.1356C3.16681 6.41247 7.0415 3.00193 11.7861 2.60887C15.6412 2.28949 20.6196 2 26 2C31.3804 2 36.3588 2.28949 40.2139 2.60887C44.9585 3.00193 48.8332 6.41247 49.4307 11.1356C49.752 13.6759 50 16.704 50 20C50 23.296 49.752 26.3241 49.4307 28.8644C48.8332 33.5875 44.9585 36.9981 40.2139 37.3911C36.3588 37.7105 31.3804 38 26 38C20.6196 38 15.6412 37.7105 11.7861 37.3911C7.0415 36.9981 3.16681 33.5875 2.56934 28.8644C2.248 26.3241 2 23.296 2 20C2 16.704 2.248 13.6759 2.56934 11.1356Z" fill="#00D0BF"/>
</mask>
<g mask="url(#mask0_1_34310)">
<path d="M2 2H50V38H2V2Z" fill="#59C785"/>
<path d="M26 18L2.5 36L26 48L49.5 36L26 18Z" fill="white"/>
<path d="M26 22L49.5 4L26 -8L2.5 4L26 22Z" fill="white"/>
<path d="M26 22L6 37L26 52L46 37L26 22Z" fill="#EE5757"/>
<path d="M26 -12L6 3L26 18L46 3L26 -12Z" fill="#EE5757"/>
</g>
<path d="M11.7035 1.61228C6.53056 2.04084 2.23921 5.77712 1.57724 11.0101C1.25164 13.5841 1 16.6548 1 20C1 23.3452 1.25164 26.4159 1.57724 28.9899C2.23922 34.2229 6.53056 37.9592 11.7035 38.3877C15.5784 38.7087 20.5852 39 26 39C31.4148 39 36.4216 38.7087 40.2965 38.3877C45.4694 37.9592 49.7608 34.2229 50.4228 28.9899C50.7484 26.4159 51 23.3452 51 20C51 16.6548 50.7484 13.5841 50.4228 11.0101C49.7608 5.77712 45.4694 2.04084 40.2965 1.61228C36.4216 1.29127 31.4148 1 26 1C20.5852 1 15.5784 1.29127 11.7035 1.61228Z" stroke="#E6E6FA" stroke-width="2"/>
<circle cx="26" cy="20" r="9" fill="white"/>
<path d="M26 14.2483L26.617 15.3072L26.653 15.369L26.7245 15.3693L27.95 15.3741L27.3415 16.4379L27.306 16.5L27.3415 16.5621L27.95 17.6259L26.7245 17.6307L26.653 17.631L26.617 17.6928L26 18.7517L25.383 17.6928L25.347 17.631L25.2755 17.6307L24.05 17.6259L24.6585 16.5621L24.694 16.5L24.6585 16.4379L24.05 15.3741L25.2755 15.3693L25.347 15.369L25.383 15.3072L26 14.2483Z" fill="#EE5757" stroke="#59C785" stroke-width="0.25"/>
<path d="M29.5 20.7483L30.117 21.8072L30.153 21.869L30.2245 21.8693L31.45 21.8741L30.8415 22.9379L30.806 23L30.8415 23.0621L31.45 24.1259L30.2245 24.1307L30.153 24.131L30.117 24.1928L29.5 25.2517L28.883 24.1928L28.847 24.131L28.7755 24.1307L27.55 24.1259L28.1585 23.0621L28.194 23L28.1585 22.9379L27.55 21.8741L28.7755 21.8693L28.847 21.869L28.883 21.8072L29.5 20.7483Z" fill="#EE5757" stroke="#59C785" stroke-width="0.25"/>
<path d="M22.5 20.7483L23.117 21.8072L23.153 21.869L23.2245 21.8693L24.45 21.8741L23.8415 22.9379L23.806 23L23.8415 23.0621L24.45 24.1259L23.2245 24.1307L23.153 24.131L23.117 24.1928L22.5 25.2517L21.883 24.1928L21.847 24.131L21.7755 24.1307L20.55 24.1259L21.1585 23.0621L21.194 23L21.1585 22.9379L20.55 21.8741L21.7755 21.8693L21.847 21.869L21.883 21.8072L22.5 20.7483Z" fill="#EE5757" stroke="#59C785" stroke-width="0.25"/>
</svg>
