<svg width="52" height="40" viewBox="0 0 52 40" fill="none" xmlns="http://www.w3.org/2000/svg">
<mask id="mask0_1_40150" style="mask-type:alpha" maskUnits="userSpaceOnUse" x="2" y="2" width="48" height="36">
<path d="M2.56934 11.1356C3.16681 6.41247 7.0415 3.00193 11.7861 2.60887C15.6412 2.28949 20.6196 2 26 2C31.3804 2 36.3588 2.28949 40.2139 2.60887C44.9585 3.00193 48.8332 6.41247 49.4307 11.1356C49.752 13.6759 50 16.704 50 20C50 23.296 49.752 26.3241 49.4307 28.8644C48.8332 33.5875 44.9585 36.9981 40.2139 37.3911C36.3588 37.7105 31.3804 38 26 38C20.6196 38 15.6412 37.7105 11.7861 37.3911C7.0415 36.9981 3.16681 33.5875 2.56934 28.8644C2.248 26.3241 2 23.296 2 20C2 16.704 2.248 13.6759 2.56934 11.1356Z" fill="#00D0BF"/>
</mask>
<g mask="url(#mask0_1_40150)">
<rect x="2" y="2" width="48" height="36" fill="#2E50A6"/>
<path d="M42 38L6 2H42V38Z" fill="#FCD95E"/>
<path d="M15.5 14L16.2858 16.4184H18.8287L16.7714 17.9131L17.5572 20.3316L15.5 18.8369L13.4428 20.3316L14.2286 17.9131L12.1713 16.4184H14.7142L15.5 14Z" fill="white"/>
<path d="M20.5 19L21.2858 21.4184H23.8287L21.7714 22.9131L22.5572 25.3316L20.5 23.8369L18.4428 25.3316L19.2286 22.9131L17.1713 21.4184H19.7142L20.5 19Z" fill="white"/>
<path d="M25.5 24L26.2858 26.4184H28.8287L26.7714 27.9131L27.5572 30.3316L25.5 28.8369L23.4428 30.3316L24.2286 27.9131L22.1713 26.4184H24.7142L25.5 24Z" fill="white"/>
<path d="M30.5 29L31.2858 31.4184H33.8287L31.7714 32.9131L32.5572 35.3316L30.5 33.8369L28.4428 35.3316L29.2286 32.9131L27.1713 31.4184H29.7142L30.5 29Z" fill="white"/>
<path d="M35.5 34L36.2858 36.4184H38.8287L36.7714 37.9131L37.5572 40.3316L35.5 38.8369L33.4428 40.3316L34.2286 37.9131L32.1713 36.4184H34.7142L35.5 34Z" fill="white"/>
<path d="M10.5 9L11.2858 11.4184H13.8287L11.7714 12.9131L12.5572 15.3316L10.5 13.8369L8.44275 15.3316L9.22855 12.9131L7.1713 11.4184H9.7142L10.5 9Z" fill="white"/>
<path d="M5.5 4L6.2858 6.41844H8.8287L6.77145 7.91312L7.55725 10.3316L5.5 8.83688L3.44275 10.3316L4.22855 7.91312L2.1713 6.41844H4.7142L5.5 4Z" fill="white"/>
</g>
<path d="M11.7035 1.61228C6.53056 2.04084 2.23921 5.77712 1.57724 11.0101C1.25164 13.5841 1 16.6548 1 20C1 23.3452 1.25164 26.4159 1.57724 28.9899C2.23922 34.2229 6.53056 37.9592 11.7035 38.3877C15.5784 38.7087 20.5852 39 26 39C31.4148 39 36.4216 38.7087 40.2965 38.3877C45.4694 37.9592 49.7608 34.2229 50.4228 28.9899C50.7484 26.4159 51 23.3452 51 20C51 16.6548 50.7484 13.5841 50.4228 11.0101C49.7608 5.77712 45.4694 2.04084 40.2965 1.61228C36.4216 1.29127 31.4148 1 26 1C20.5852 1 15.5784 1.29127 11.7035 1.61228Z" stroke="#E6E6FA" stroke-width="2"/>
</svg>
