<svg width="52" height="40" viewBox="0 0 52 40" fill="none" xmlns="http://www.w3.org/2000/svg">
<mask id="mask0_1_28944" style="mask-type:alpha" maskUnits="userSpaceOnUse" x="2" y="2" width="48" height="36">
<path d="M2.56934 11.1356C3.16681 6.41247 7.0415 3.00193 11.7861 2.60887C15.6412 2.28949 20.6196 2 26 2C31.3804 2 36.3588 2.28949 40.2139 2.60887C44.9585 3.00193 48.8332 6.41247 49.4307 11.1356C49.752 13.6759 50 16.704 50 20C50 23.296 49.752 26.3241 49.4307 28.8644C48.8332 33.5875 44.9585 36.9981 40.2139 37.3911C36.3588 37.7105 31.3804 38 26 38C20.6196 38 15.6412 37.7105 11.7861 37.3911C7.0415 36.9981 3.16681 33.5875 2.56934 28.8644C2.248 26.3241 2 23.296 2 20C2 16.704 2.248 13.6759 2.56934 11.1356Z" fill="#00D0BF"/>
</mask>
<g mask="url(#mask0_1_28944)">
<rect x="11" y="26" width="39" height="12" fill="#59C785"/>
<path d="M6.50802 2.10394V3.38237H6.15508V2.10394H6.50802ZM2 4.33923H2.63369V3.82943H2.95455V3.20982H3.40374V2.66865H3.77273V2.10394H4.8877V2.66865H5.24866V3.20982H5.69786V3.82943H6.01872V4.33923H6.50802V5.13139H6.01872V5.64119H5.69786V6.2608H5.24866V6.80198H4.8877V7.38237H4.63102V7.86864H4.02941V7.38237H3.77273V6.80198H3.40374V6.2608H2.95455V5.64119H2.63369V5.13139H2V4.33923ZM2 2.37061H2.63369V3.07649H2V2.37061ZM4.48663 3.28825H4.15775V3.76669H3.84492V4.37061H3.54011V5.1157H3.84492V5.71962H4.15775V6.19021H4.48663V5.71962H4.79947V5.1157H5.1123V4.37061H4.79947V3.76669H4.48663V3.28825ZM4.51872 4.37845V5.08433H4.12567V4.37845H4.51872ZM2 6.22943H2.63369V6.99021H2V6.22943ZM6.50802 6.30001V7.37452H6.15508V6.30001H6.50802ZM5.64171 7.49217V8.0255H6.02674V8.57452H6.50802V9.29609H6.02674V9.85295H5.64171V10.3863H5.19251V9.85295H4.80749V9.29609H4.48663V8.57452H4.80749V8.0255H5.19251V7.49217H5.64171ZM2 8.57452H2.63369V8.0255H3.01872V7.49217H3.45989V8.0255H3.84492V8.57452H4.16578V9.29609H3.84492V9.85295H3.45989V10.3863H3.01872V9.85295H2.63369V9.29609H2V8.57452ZM5.58556 8.59021H5.25668V9.27256H5.58556V8.59021ZM3.41176 8.59021H3.08289V9.27256H3.41176V8.59021ZM3.54011 19.8922V19.5235H3.26738V18.9667H2.90642V18.6294H2.63369V18.0882H2V16.8333H2.63369V17.1941H2.90642V17.7196H3.26738V18.3471H3.78075V17.7824H4.15775V17.3667H4.43048V16.8725H4.79144V16.3471H5.05615V15.8137H5.31283V15.2647H5.65775V14.5275H5.20053V13.8608H4.70321V13.4608H3.86898V14.0412H4.35027V14.5667H4.02941V15.2098H3.65241V15.7745H3.17914V15.2098H2.7861V14.5667H2.54545V14.0412H2V13.0451H2.63369V12.402H2.87433V11.9079H3.09893V11.3431H3.41979V10.7863H3.73262V10.4177H4.10963V9.86079H4.56684V10.4177H4.94385V10.7863H5.26471V11.3431H5.57754V11.9079H5.83422V12.3941H6.09091V12.8177H6.50802V15.9314H6.03476V16.4569H5.8984V17.0059H5.54545V17.5392H5.32888V17.9314H5.10428V18.3471H4.71925V18.7549H4.16578V19.8922H3.54011ZM6.50802 10.3784V11.4529H6.15508V10.3784H6.50802ZM2 10.5824H2.63369V11.3431H2V10.5824ZM2 15.1549H2.63369V15.9157H2V15.1549ZM6.49198 17.0843V17.7745H6.15508V17.0843H6.49198ZM6.02674 19.8922V19.4608H5.81818V19.1235H5.51337V18.1118H5.81818V18.5196H6.13904V19.1157H6.49198V19.8843L6.02674 19.8922ZM4.7754 19.8843V19.3823H5.1123V19.8843" fill="#CE1720"/>
<path d="M6.49198 37.696L6.49198 36.4176L6.84492 36.4176L6.84492 37.696L6.49198 37.696ZM11 35.4608L10.3663 35.4608L10.3663 35.9706L10.0455 35.9706L10.0455 36.5902L9.59626 36.5902L9.59626 37.1313L9.22727 37.1313L9.22727 37.696L8.1123 37.696L8.1123 37.1313L7.75134 37.1313L7.75134 36.5902L7.30214 36.5902L7.30214 35.9706L6.98128 35.9706L6.98128 35.4608L6.49198 35.4608L6.49198 34.6686L6.98128 34.6686L6.98128 34.1588L7.30214 34.1588L7.30214 33.5392L7.75134 33.5392L7.75134 32.998L8.1123 32.998L8.1123 32.4176L8.36898 32.4176L8.36898 31.9313L8.97059 31.9313L8.97059 32.4176L9.22727 32.4176L9.22727 32.998L9.59626 32.998L9.59626 33.5392L10.0455 33.5392L10.0455 34.1588L10.3663 34.1588L10.3663 34.6686L11 34.6686L11 35.4608ZM11 37.4294L10.3663 37.4294L10.3663 36.7235L11 36.7235L11 37.4294ZM8.51337 36.5117L8.84225 36.5117L8.84225 36.0333L9.15508 36.0333L9.15508 35.4294L9.45989 35.4294L9.45989 34.6843L9.15508 34.6843L9.15508 34.0804L8.84225 34.0804L8.84225 33.6098L8.51337 33.6098L8.51337 34.0804L8.20054 34.0804L8.20054 34.6843L7.8877 34.6843L7.8877 35.4294L8.20054 35.4294L8.20054 36.0333L8.51337 36.0333L8.51337 36.5117ZM8.48128 35.4215L8.48128 34.7157L8.87433 34.7157L8.87433 35.4215L8.48128 35.4215ZM11 33.5706L10.3663 33.5706L10.3663 32.8098L11 32.8098L11 33.5706ZM6.49198 33.5L6.49198 32.4255L6.84492 32.4255L6.84492 33.5L6.49198 33.5ZM7.35829 32.3078L7.35829 31.7745L6.97326 31.7745L6.97326 31.2255L6.49198 31.2255L6.49198 30.5039L6.97326 30.5039L6.97326 29.947L7.35829 29.947L7.35829 29.4137L7.80749 29.4137L7.80749 29.947L8.19251 29.947L8.19251 30.5039L8.51337 30.5039L8.51337 31.2255L8.19251 31.2255L8.19251 31.7745L7.80749 31.7745L7.80749 32.3078L7.35829 32.3078ZM11 31.2255L10.3663 31.2255L10.3663 31.7745L9.98128 31.7745L9.98128 32.3078L9.54011 32.3078L9.54011 31.7745L9.15508 31.7745L9.15508 31.2255L8.83423 31.2255L8.83423 30.5039L9.15508 30.5039L9.15508 29.947L9.54011 29.947L9.54011 29.4137L9.98128 29.4137L9.98128 29.947L10.3663 29.947L10.3663 30.5039L11 30.5039L11 31.2255ZM7.41444 31.2098L7.74332 31.2098L7.74332 30.5274L7.41444 30.5274L7.41444 31.2098ZM9.58824 31.2098L9.91711 31.2098L9.91711 30.5274L9.58824 30.5274L9.58824 31.2098ZM9.4599 19.9078L9.4599 20.2765L9.73262 20.2765L9.73262 20.8333L10.0936 20.8333L10.0936 21.1706L10.3663 21.1706L10.3663 21.7118L11 21.7118L11 22.9667L10.3663 22.9667L10.3663 22.6059L10.0936 22.6059L10.0936 22.0804L9.73262 22.0804L9.73262 21.4529L9.21925 21.4529L9.21925 22.0176L8.84225 22.0176L8.84225 22.4333L8.56952 22.4333L8.56952 22.9274L8.20856 22.9274L8.20856 23.4529L7.94385 23.4529L7.94385 23.9863L7.68717 23.9863L7.68717 24.5353L7.34225 24.5353L7.34225 25.2725L7.79947 25.2725L7.79947 25.9392L8.29679 25.9392L8.29679 26.3392L9.13102 26.3392L9.13102 25.7588L8.64973 25.7588L8.64973 25.2333L8.97059 25.2333L8.97059 24.5902L9.3476 24.5902L9.3476 24.0255L9.82086 24.0255L9.82086 24.5902L10.2139 24.5902L10.2139 25.2333L10.4545 25.2333L10.4545 25.7588L11 25.7588L11 26.7549L10.3663 26.7549L10.3663 27.398L10.1257 27.398L10.1257 27.8921L9.90107 27.8921L9.90107 28.4568L9.58021 28.4568L9.58021 29.0137L9.26738 29.0137L9.26738 29.3823L8.89038 29.3823L8.89038 29.9392L8.43316 29.9392L8.43316 29.3823L8.05615 29.3823L8.05615 29.0137L7.7353 29.0137L7.7353 28.4568L7.42246 28.4568L7.42246 27.8921L7.16578 27.8921L7.16578 27.4059L6.90909 27.4059L6.90909 26.9823L6.49198 26.9823L6.49198 23.8686L6.96524 23.8686L6.96524 23.3431L7.10161 23.3431L7.10161 22.7941L7.45455 22.7941L7.45455 22.2608L7.67112 22.2608L7.67112 21.8686L7.89572 21.8686L7.89572 21.4529L8.28075 21.4529L8.28075 21.0451L8.83423 21.0451L8.83423 19.9078L9.4599 19.9078ZM6.49198 29.4215L6.49198 28.347L6.84492 28.347L6.84492 29.4215L6.49198 29.4215ZM11 29.2176L10.3663 29.2176L10.3663 28.4568L11 28.4568L11 29.2176ZM11 24.6451L10.3663 24.6451L10.3663 23.8843L11 23.8843L11 24.6451ZM6.50802 22.7157L6.50802 22.0255L6.84492 22.0255L6.84492 22.7157L6.50802 22.7157ZM6.97326 19.9078L6.97326 20.3392L7.18182 20.3392L7.18182 20.6765L7.48663 20.6765L7.48663 21.6882L7.18182 21.6882L7.18182 21.2804L6.86096 21.2804L6.86096 20.6843L6.50802 20.6843L6.50802 19.9157L6.97326 19.9078ZM8.2246 19.9157L8.2246 20.4176L7.8877 20.4176L7.8877 19.9157" fill="#CE1720"/>
<path d="M6.49198 2.10394V3.38237H6.84492V2.10394H6.49198ZM11 4.33923H10.3663V3.82943H10.0455V3.20982H9.59626V2.66865H9.22727V2.10394H8.1123V2.66865H7.75134V3.20982H7.30214V3.82943H6.98128V4.33923H6.49198V5.13139H6.98128V5.64119H7.30214V6.2608H7.75134V6.80198H8.1123V7.38237H8.36898V7.86864H8.97059V7.38237H9.22727V6.80198H9.59626V6.2608H10.0455V5.64119H10.3663V5.13139H11V4.33923ZM11 2.37061H10.3663V3.07649H11V2.37061ZM8.51337 3.28825H8.84225V3.76669H9.15508V4.37061H9.45989V5.1157H9.15508V5.71962H8.84225V6.19021H8.51337V5.71962H8.20053V5.1157H7.8877V4.37061H8.20053V3.76669H8.51337V3.28825ZM8.48128 4.37845V5.08433H8.87433V4.37845H8.48128ZM11 6.22943H10.3663V6.99021H11V6.22943ZM6.49198 6.30001V7.37452H6.84492V6.30001H6.49198ZM7.35829 7.49217V8.0255H6.97326V8.57452H6.49198V9.29609H6.97326V9.85295H7.35829V10.3863H7.80749V9.85295H8.19251V9.29609H8.51337V8.57452H8.19251V8.0255H7.80749V7.49217H7.35829ZM11 8.57452H10.3663V8.0255H9.98128V7.49217H9.54011V8.0255H9.15508V8.57452H8.83422V9.29609H9.15508V9.85295H9.54011V10.3863H9.98128V9.85295H10.3663V9.29609H11V8.57452ZM7.41444 8.59021H7.74332V9.27256H7.41444V8.59021ZM9.58824 8.59021H9.91711V9.27256H9.58824V8.59021ZM9.45989 19.8922V19.5235H9.73262V18.9667H10.0936V18.6294H10.3663V18.0882H11V16.8333H10.3663V17.1941H10.0936V17.7196H9.73262V18.3471H9.21925V17.7824H8.84225V17.3667H8.56952V16.8725H8.20856V16.3471H7.94385V15.8137H7.68717V15.2647H7.34225V14.5275H7.79947V13.8608H8.29679V13.4608H9.13102V14.0412H8.64973V14.5667H8.97059V15.2098H9.34759V15.7745H9.82086V15.2098H10.2139V14.5667H10.4545V14.0412H11V13.0451H10.3663V12.402H10.1257V11.9079H9.90107V11.3431H9.58021V10.7863H9.26738V10.4177H8.89037V9.86079H8.43316V10.4177H8.05615V10.7863H7.73529V11.3431H7.42246V11.9079H7.16578V12.3941H6.90909V12.8177H6.49198V15.9314H6.96524V16.4569H7.1016V17.0059H7.45455V17.5392H7.67112V17.9314H7.89572V18.3471H8.28075V18.7549H8.83422V19.8922H9.45989ZM6.49198 10.3784V11.4529H6.84492V10.3784H6.49198ZM11 10.5824H10.3663V11.3431H11V10.5824ZM11 15.1549H10.3663V15.9157H11V15.1549ZM6.50802 17.0843V17.7745H6.84492V17.0843H6.50802ZM6.97326 19.8922V19.4608H7.18182V19.1235H7.48663V18.1118H7.18182V18.5196H6.86096V19.1157H6.50802V19.8843L6.97326 19.8922ZM8.2246 19.8843V19.3823H7.8877V19.8843" fill="#CE1720"/>
<path d="M6.50802 37.696L6.50802 36.4176L6.15508 36.4176L6.15508 37.696L6.50802 37.696ZM2 35.4608L2.63369 35.4608L2.63369 35.9706L2.95455 35.9706L2.95455 36.5902L3.40374 36.5902L3.40374 37.1313L3.77273 37.1313L3.77273 37.696L4.8877 37.696L4.8877 37.1313L5.24866 37.1313L5.24866 36.5902L5.69786 36.5902L5.69786 35.9706L6.01872 35.9706L6.01872 35.4608L6.50802 35.4608L6.50802 34.6686L6.01872 34.6686L6.01872 34.1588L5.69786 34.1588L5.69786 33.5392L5.24866 33.5392L5.24866 32.998L4.8877 32.998L4.8877 32.4176L4.63102 32.4176L4.63102 31.9313L4.02941 31.9313L4.02941 32.4176L3.77273 32.4176L3.77273 32.998L3.40374 32.998L3.40374 33.5392L2.95455 33.5392L2.95455 34.1588L2.63369 34.1588L2.63369 34.6686L2 34.6686L2 35.4608ZM2 37.4294L2.63369 37.4294L2.63369 36.7235L2 36.7235L2 37.4294ZM4.48663 36.5117L4.15775 36.5117L4.15775 36.0333L3.84492 36.0333L3.84492 35.4294L3.54011 35.4294L3.54011 34.6843L3.84492 34.6843L3.84492 34.0804L4.15775 34.0804L4.15775 33.6098L4.48663 33.6098L4.48663 34.0804L4.79947 34.0804L4.79947 34.6843L5.1123 34.6843L5.1123 35.4294L4.79947 35.4294L4.79947 36.0333L4.48663 36.0333L4.48663 36.5117ZM4.51872 35.4215L4.51872 34.7157L4.12567 34.7157L4.12567 35.4215L4.51872 35.4215ZM2 33.5706L2.63369 33.5706L2.63369 32.8098L2 32.8098L2 33.5706ZM6.50802 33.5L6.50802 32.4255L6.15508 32.4255L6.15508 33.5L6.50802 33.5ZM5.64171 32.3078L5.64171 31.7745L6.02674 31.7745L6.02674 31.2255L6.50802 31.2255L6.50802 30.5039L6.02674 30.5039L6.02674 29.947L5.64171 29.947L5.64171 29.4137L5.19251 29.4137L5.19251 29.947L4.80749 29.947L4.80749 30.5039L4.48663 30.5039L4.48663 31.2255L4.80749 31.2255L4.80749 31.7745L5.19251 31.7745L5.19251 32.3078L5.64171 32.3078ZM2 31.2255L2.63369 31.2255L2.63369 31.7745L3.01872 31.7745L3.01872 32.3078L3.45989 32.3078L3.45989 31.7745L3.84492 31.7745L3.84492 31.2255L4.16578 31.2255L4.16578 30.5039L3.84492 30.5039L3.84492 29.947L3.45989 29.947L3.45989 29.4137L3.01872 29.4137L3.01872 29.947L2.63369 29.947L2.63369 30.5039L2 30.5039L2 31.2255ZM5.58556 31.2098L5.25669 31.2098L5.25669 30.5274L5.58556 30.5274L5.58556 31.2098ZM3.41177 31.2098L3.08289 31.2098L3.08289 30.5274L3.41177 30.5274L3.41177 31.2098ZM3.54011 19.9078L3.54011 20.2765L3.26738 20.2765L3.26738 20.8333L2.90642 20.8333L2.90642 21.1706L2.63369 21.1706L2.63369 21.7118L2 21.7118L2 22.9667L2.63369 22.9667L2.63369 22.6059L2.90642 22.6059L2.90642 22.0804L3.26738 22.0804L3.26738 21.4529L3.78075 21.4529L3.78075 22.0176L4.15776 22.0176L4.15776 22.4333L4.43048 22.4333L4.43048 22.9274L4.79145 22.9274L4.79145 23.4529L5.05615 23.4529L5.05615 23.9863L5.31284 23.9863L5.31284 24.5353L5.65776 24.5353L5.65776 25.2725L5.20054 25.2725L5.20054 25.9392L4.70321 25.9392L4.70321 26.3392L3.86899 26.3392L3.86899 25.7588L4.35027 25.7588L4.35027 25.2333L4.02941 25.2333L4.02941 24.5902L3.65241 24.5902L3.65241 24.0255L3.17915 24.0255L3.17915 24.5902L2.7861 24.5902L2.7861 25.2333L2.54546 25.2333L2.54546 25.7588L2 25.7588L2 26.7549L2.63369 26.7549L2.63369 27.398L2.87433 27.398L2.87433 27.8921L3.09893 27.8921L3.09893 28.4568L3.41979 28.4568L3.41979 29.0137L3.73262 29.0137L3.73262 29.3823L4.10963 29.3823L4.10963 29.9392L4.56685 29.9392L4.56685 29.3823L4.94385 29.3823L4.94385 29.0137L5.26471 29.0137L5.26471 28.4568L5.57754 28.4568L5.57754 27.8921L5.83423 27.8921L5.83423 27.4059L6.09091 27.4059L6.09091 26.9823L6.50802 26.9823L6.50802 23.8686L6.03476 23.8686L6.03476 23.3431L5.8984 23.3431L5.8984 22.7941L5.54546 22.7941L5.54546 22.2608L5.32888 22.2608L5.32888 21.8686L5.10428 21.8686L5.10428 21.4529L4.71925 21.4529L4.71925 21.0451L4.16578 21.0451L4.16578 19.9078L3.54011 19.9078ZM6.50802 29.4215L6.50802 28.347L6.15508 28.347L6.15508 29.4215L6.50802 29.4215ZM2 29.2176L2.63369 29.2176L2.63369 28.4568L2 28.4568L2 29.2176ZM2 24.6451L2.63369 24.6451L2.63369 23.8843L2 23.8843L2 24.6451ZM6.49198 22.7157L6.49198 22.0255L6.15508 22.0255L6.15508 22.7157L6.49198 22.7157ZM6.02674 19.9078L6.02674 20.3392L5.81818 20.3392L5.81818 20.6765L5.51337 20.6765L5.51337 21.6882L5.81818 21.6882L5.81818 21.2804L6.13904 21.2804L6.13904 20.6843L6.49198 20.6843L6.49198 19.9157L6.02674 19.9078ZM4.7754 19.9157L4.7754 20.4176L5.1123 20.4176L5.1123 19.9157" fill="#CE1720"/>
<rect x="11" y="2" width="39" height="24" fill="#EE5757"/>
</g>
<path d="M11.7035 1.61228C6.53056 2.04084 2.23921 5.77712 1.57724 11.0101C1.25164 13.5841 1 16.6548 1 20C1 23.3452 1.25164 26.4159 1.57724 28.9899C2.23922 34.2229 6.53056 37.9592 11.7035 38.3877C15.5784 38.7087 20.5852 39 26 39C31.4148 39 36.4216 38.7087 40.2965 38.3877C45.4694 37.9592 49.7608 34.2229 50.4228 28.9899C50.7484 26.4159 51 23.3452 51 20C51 16.6548 50.7484 13.5841 50.4228 11.0101C49.7608 5.77712 45.4694 2.04084 40.2965 1.61228C36.4216 1.29127 31.4148 1 26 1C20.5852 1 15.5784 1.29127 11.7035 1.61228Z" stroke="#E6E6FA" stroke-width="2"/>
</svg>
