<svg width="52" height="40" viewBox="0 0 52 40" fill="none" xmlns="http://www.w3.org/2000/svg">
<mask id="mask0_1_36639" style="mask-type:alpha" maskUnits="userSpaceOnUse" x="2" y="2" width="48" height="36">
<path d="M2.56934 11.1356C3.16681 6.41247 7.0415 3.00193 11.7861 2.60887C15.6412 2.28949 20.6196 2 26 2C31.3804 2 36.3588 2.28949 40.2139 2.60887C44.9585 3.00193 48.8332 6.41247 49.4307 11.1356C49.752 13.6759 50 16.704 50 20C50 23.296 49.752 26.3241 49.4307 28.8644C48.8332 33.5875 44.9585 36.9981 40.2139 37.3911C36.3588 37.7105 31.3804 38 26 38C20.6196 38 15.6412 37.7105 11.7861 37.3911C7.0415 36.9981 3.16681 33.5875 2.56934 28.8644C2.248 26.3241 2 23.296 2 20C2 16.704 2.248 13.6759 2.56934 11.1356Z" fill="#00D0BF"/>
</mask>
<g mask="url(#mask0_1_36639)">
<rect x="2" y="2" width="48" height="36" fill="#EE5757"/>
<path d="M43.9793 11.7971V23.9131C43.9793 27.1494 37.5096 28.2009 37.5096 28.2009C37.5096 28.2009 31.04 27.1494 31.04 23.9131V11.7971H43.9793Z" fill="white"/>
<path d="M43.9793 23.9131C43.9793 27.1494 37.5096 28.2009 37.5096 28.2009C37.5096 28.2009 31.04 27.1494 31.04 23.9131C31.04 23.9131 31.04 23.6525 31.1716 23.5042C31.1716 23.5042 31.1003 24.0425 31.5139 24.4497C31.5139 24.4497 31.1895 23.8753 31.5067 23.3109C31.5067 23.3109 31.3891 24.0371 31.8418 24.4541C31.8418 24.4541 31.5923 23.8609 31.8739 23.1994C31.8739 23.1994 31.7349 24.2816 32.2269 24.4973C32.2269 24.4973 32.3623 23.8753 32.1663 23.4763C32.1663 23.4763 32.505 23.6129 32.4871 24.5152C32.4871 24.5152 32.5941 24.3822 32.6226 23.7315C32.6226 23.7315 32.6368 24.4756 32.8935 24.6482C32.8935 24.6482 32.972 24.5728 32.865 24.2348C32.7581 23.8968 32.9114 23.7782 32.9363 23.7854C32.9363 23.7854 32.8801 24.1593 33.1934 24.4397C33.1934 24.4397 33.0576 23.8537 33.2465 23.7746C33.2465 23.7746 33.2073 24.2707 33.5995 24.3822C33.5995 24.3822 33.628 24.2384 33.5424 24.0766C33.5424 24.0766 33.4676 23.8848 33.5246 23.738C33.5246 23.738 33.6494 24.1881 33.8205 24.2636C33.8205 24.2636 33.7171 23.9998 33.8133 23.738C33.8133 23.738 33.8347 24.1126 34.1698 24.2671C34.1698 24.2671 33.949 23.9772 34.0362 23.6583L36.1912 23.7638L37.3071 23.817L40.6547 23.5805L41.2322 23.0844C41.2322 23.0844 41.4604 23.4007 41.1003 23.9005C41.1003 23.9005 41.4568 23.8357 41.5709 23.2785C41.5709 23.2785 41.7171 23.5877 41.5174 23.9292C41.5174 23.9292 41.9132 23.5338 41.9702 23.0844C41.9702 23.0844 42.1235 23.5194 41.7491 23.9867C41.7491 23.9867 42.0842 23.8753 42.2269 23.3792C42.2269 23.3792 42.341 23.678 42.0165 24.1002C42.0165 24.1002 42.6225 23.7782 42.6048 23.1131C42.6048 23.1131 42.8578 23.4798 42.5691 23.9831C42.5691 23.9831 42.8792 23.7063 42.9078 23.2929C42.9078 23.2929 43.079 23.4798 42.8936 23.9939C42.8936 23.9939 43.2714 23.638 43.3285 23.2533C43.3285 23.2533 43.4105 23.6092 43.086 24.0586C43.086 24.0586 43.3071 24.0047 43.5174 23.566C43.5174 23.566 43.5745 23.7386 43.382 24.055C43.382 24.055 43.5888 24.0191 43.7278 23.6236C43.7278 23.6236 43.7527 23.8609 43.6921 24.073C43.6921 24.073 43.8526 23.9688 43.8882 23.5194C43.8882 23.5194 43.9779 23.6668 43.9794 23.8501C43.9808 24.0335 43.9793 23.9131 43.9793 23.9131Z" fill="#2F8F22"/>
<path d="M40.6477 16.909C40.6477 16.909 40.4229 16.9472 40.1342 16.8592C39.8454 16.7713 39.7287 16.807 39.6391 16.8592C39.6391 16.8592 39.7563 16.6272 39.4711 16.444C39.4711 16.444 39.5638 16.6782 39.4354 16.7876C39.4354 16.7876 39.3784 16.8413 39.3106 16.7605C39.3106 16.7605 39.2108 16.658 39.1057 16.5789C39.1057 16.5789 39.3481 16.4944 39.3035 16.2482C39.259 16.0019 39.1271 15.9695 39.0558 15.939C39.0558 15.939 39.0807 16.0504 39.0558 16.1259C39.0558 16.1259 38.792 15.9785 39.1502 15.77C39.5085 15.5615 39.4426 15.4393 39.3784 15.3332C39.3142 15.2271 39.177 15.1103 39.1092 15.0689C39.1092 15.0689 39.1805 15.1804 39.168 15.2757C39.1556 15.3709 38.9933 15.432 39.0254 15.2649C39.0575 15.0977 39.0237 15.1265 39.0201 14.9485C39.0201 14.9485 39.3391 15.0564 39.4639 14.7454C39.4639 14.7454 39.5869 14.4236 39.1841 14.2636C39.1841 14.2636 39.2821 14.3948 39.234 14.4937C39.234 14.4937 39.1484 14.6555 39.0468 14.5243C38.9452 14.3931 38.881 14.3679 38.8917 14.2133C38.8917 14.2133 39.2571 14.2636 39.1573 13.8663C39.1573 13.8663 39.0985 14.1306 38.6244 13.7747C38.6244 13.7747 38.9327 13.4583 38.8133 13.203C38.8133 13.203 38.7759 13.0862 38.4407 13.1545C38.4407 13.1545 38.7313 12.9712 38.6083 12.8148C38.6083 12.8148 38.5459 12.7105 38.275 12.8471C38.275 12.8471 38.3801 12.6655 38.1145 12.4696C38.1145 12.4696 37.9363 12.5631 37.8418 12.6493C37.8418 12.6493 37.66 12.4192 37.5441 12.3276C37.5441 12.3276 37.3338 12.4085 37.2803 12.6493C37.2803 12.6493 37.1823 12.5325 36.9595 12.4786C36.9595 12.4786 36.8525 12.6763 36.9916 12.8489C36.9916 12.8489 36.8882 12.8453 36.6992 12.7626C36.6992 12.7626 36.4836 12.6601 36.5156 12.8453C36.5477 13.0304 36.5637 13.0718 36.6065 13.158C36.6065 13.158 36.1226 13.0457 36.1431 13.3072C36.1573 13.4888 36.2251 13.6452 36.3749 13.7764C36.3749 13.7764 36.1039 14.1305 35.8722 13.8644C35.8722 13.8644 35.7919 13.9507 35.9649 14.1772C35.9649 14.1772 36.1378 14.3678 35.9952 14.4882C35.9952 14.4882 35.8045 14.641 35.7118 14.3444C35.7118 14.3444 35.4034 14.6518 35.767 14.8873C35.767 14.8873 36.0006 15.0203 36.2394 14.8154C36.2394 14.8154 36.1663 15.405 35.9381 15.2917C35.9381 15.2917 35.8009 15.1911 36.0469 15.0706C36.0469 15.0706 35.6921 15.0257 35.6351 15.369C35.6351 15.369 35.5913 15.6422 35.9007 15.7412C35.9007 15.7412 36.1395 15.8275 35.8917 16.0126C35.8917 16.0126 35.717 16.1457 35.8311 16.3434C35.8311 16.3434 35.9684 16.5609 35.6208 16.5824C35.6208 16.5824 35.4318 16.5807 35.3641 16.5555C35.3641 16.5555 35.2879 16.6972 35.3411 16.8592C35.3411 16.8592 35.168 16.7302 34.7741 16.8729C34.3801 17.0157 34.4104 16.915 34.3783 16.9582C34.3462 17.0013 34.2696 17.1469 34.2696 17.1469C34.2696 17.1469 34.4764 17.3985 34.4799 17.3932C34.4835 17.3878 34.4407 17.6808 34.4407 17.6808L34.5424 17.7293L35.3534 17.368L36.177 16.9388L36.8391 16.9794L37.259 17.0794L37.8106 17.1195L38.2056 16.9088H38.7777L39.4071 17.2224L40.1253 17.651L40.4997 17.7166L40.7881 17.7012V17.1195L40.6477 16.909Z" fill="#C8102E" stroke="black" stroke-width="0.0475516" stroke-linejoin="round"/>
<path d="M34.115 17.5892C34.115 17.5892 34.4287 17.7492 34.5597 17.5551C34.5597 17.5551 34.7308 17.2288 34.3551 17.1155C34.3551 17.1155 34.5597 16.8702 34.3404 16.6437C34.3404 16.6437 34.2255 16.5224 34.0249 16.6114C34.0249 16.6114 33.942 16.4388 33.7468 16.4442C33.7468 16.4442 33.5757 16.4415 33.5169 16.6302C33.5169 16.6302 33.2816 16.5331 33.1505 16.6733C33.1505 16.6733 32.934 16.916 33.2361 17.1075L33.4535 17.1273L33.6674 17.0284L33.9063 17.0967C33.9065 17.0967 33.8449 17.3385 34.115 17.5892Z" fill="#C8102E" stroke="black" stroke-width="0.0475516" stroke-linejoin="round"/>
<path d="M41.1181 17.0155C41.496 16.9799 41.6295 17.2988 41.6295 17.2988C41.8276 17.7636 41.4069 18.0117 41.4069 18.0117C41.439 18.116 41.4425 18.2526 41.4425 18.2526C42.0343 18.3245 41.9309 18.9896 41.9309 18.9896L41.7349 18.8278C41.3926 18.6948 41.0397 18.986 40.7866 19.4749C40.5335 19.9639 40.6547 20.194 40.6975 20.7728C40.7403 21.3516 41.6814 21.6968 41.6814 21.6968C41.6814 21.6968 41.2357 22.8436 40.947 23.5806C40.6583 24.3176 40.0557 24.012 39.8811 23.8568C39.7064 23.7015 39.6627 23.7878 39.5745 23.8568C39.4862 23.9258 39.9702 24.3032 39.0896 24.6591C38.209 25.0151 38.0557 25.2883 37.9096 25.3782C37.7634 25.4681 37.1538 25.407 37.0932 25.3315C37.0326 25.256 37.0683 25.256 36.8401 25.1157C36.612 24.9755 36.2269 24.8533 35.8062 24.6483C35.3855 24.4434 35.3962 24.1809 35.3998 24.127C35.4034 24.0731 35.546 23.6345 35.0533 23.9832C34.5606 24.332 34.1413 23.8172 34.1413 23.8172C34.0451 23.6907 33.6351 22.5919 33.6351 22.5919C33.5246 22.1821 33.3071 21.7039 33.3071 21.7039C33.3178 21.7003 33.2857 21.7543 33.6493 21.5457C34.013 21.3372 34.1758 20.9903 34.3017 20.647C34.4276 20.3036 34.3053 19.7158 34.2589 19.5972C34.2126 19.4785 33.9416 18.9346 33.6061 18.8206C33.2706 18.7066 33.0456 18.9896 33.0456 18.9896C33.0456 18.9896 32.9421 18.3245 33.534 18.2526C33.534 18.2526 33.5375 18.116 33.5696 18.0117C33.5696 18.0117 33.1489 17.7636 33.347 17.2988C33.347 17.2988 33.4805 16.9799 33.8584 17.0155L33.767 17.1884C33.767 17.1884 33.6718 18.1375 35.0611 17.5012C36.4504 16.8648 36.4087 16.7462 37.2002 17.1452L37.7777 17.1345C37.7777 17.1345 38.6119 16.7486 38.8793 16.9146C39.1467 17.0806 40.1092 17.6198 40.1092 17.6198C40.1092 17.6198 41.0397 17.9688 41.2215 17.3252L41.1181 17.0155Z" fill="#64B4D1" stroke="black" stroke-width="0.0356494"/>
<path d="M36.938 21.1304C36.938 21.1304 36.8897 20.8391 36.839 20.6505C36.839 20.6505 36.7359 20.3544 36.9118 20.1466L37.1299 19.8955C37.1299 19.8955 37.2655 19.7132 37.4333 19.6884C37.4333 19.6884 37.6011 19.6834 37.6171 19.6492C37.6332 19.6151 37.8168 19.3129 38.2535 19.6492C38.2535 19.6492 38.3926 19.4264 38.6065 19.3886C38.6065 19.3886 38.8375 19.3185 38.9493 19.4911C38.9493 19.4911 39.209 19.2942 39.4318 19.6111C39.4318 19.6111 39.7401 19.4376 39.9647 19.7825C39.9647 19.7825 40.2696 19.6338 40.4567 19.9507C40.6439 20.2676 40.6065 20.3971 40.6065 20.3971L40.7454 20.9004L41.2375 21.508L40.0932 21.9394H39.5798L38.5531 22.2144L36.7296 22.3546L36.2216 21.756L36.938 21.1304Z" fill="white" stroke="#012169" stroke-width="0.0475345" stroke-miterlimit="10"/>
<path d="M35.3967 24.1612C35.3967 24.1612 35.124 24.1774 34.9849 24.2475C34.8459 24.3176 34.7389 24.3931 34.5785 24.4955C34.5785 24.4955 34.5037 24.5953 34.1882 24.5346C34.1882 24.5346 33.6427 24.4039 33.6427 24.8299C33.6427 24.8299 32.9903 24.8838 33.2577 25.4554C33.2577 25.4554 33.4395 25.903 33.8138 25.5849C33.8138 25.5849 33.5732 25.93 34.0384 26.0649C34.0384 26.0649 34.37 26.1458 34.4662 25.806C34.4662 25.806 34.5197 25.6712 34.3914 25.504C34.3914 25.504 34.5518 25.4716 34.6641 25.2991C34.6641 25.2991 34.3218 25.7316 34.6962 25.8874C34.6962 25.8874 35.1666 26.0055 35.1935 25.5147C35.1935 25.5147 35.1551 25.2882 35.3374 25.2073C35.3374 25.2073 35.7122 25.121 35.8833 24.7031C35.8834 24.7031 35.3444 24.4161 35.3967 24.1612Z" fill="#C8102E" stroke="black" stroke-width="0.0475516" stroke-linejoin="round"/>
<path d="M34.2953 19.8599C34.2953 19.8599 33.8746 19.6662 33.675 19.8599C33.675 19.8599 33.3969 19.6877 33.1046 19.8599C33.1046 19.8599 32.8265 20.0417 32.634 20.2418C32.634 20.2418 32.4986 20.3578 32.5485 20.7235C32.5485 20.7235 32.6198 20.9812 32.577 21.1107C32.577 21.1107 32.4843 21.0923 32.2989 21.312C32.2989 21.312 32.0636 21.5845 31.8568 21.344C31.8568 21.344 31.921 21.6787 32.3096 21.6248C32.3096 21.6248 32.1206 21.7722 32.2846 22.1533C32.2846 22.1533 32.4058 22.4229 32.2133 22.7609C32.2133 22.7609 32.552 22.6243 32.5377 22.2252C32.5377 22.2252 32.5092 21.9556 32.609 21.765C32.609 21.765 32.5092 21.9383 32.7409 22.3079C32.7409 22.3079 32.9191 22.5739 32.773 22.8507C32.773 22.8507 33.1081 22.7285 33.076 22.3222C33.044 21.916 32.8407 22.0849 32.9726 21.7111C32.9726 21.7111 33.0047 21.9026 33.1045 21.9992C33.2043 22.0958 33.3327 22.2575 33.2792 22.5272C33.2792 22.5272 33.4789 22.2791 33.4325 22.0238C33.3862 21.7686 33.3363 21.6914 33.3363 21.6914L33.9673 21.3336L34.281 20.7655L34.2953 19.8599Z" fill="#C8102E" stroke="black" stroke-width="0.0475516" stroke-linejoin="round"/>
<path d="M33.3364 21.463C33.3364 21.463 33.0761 21.445 33.0333 21.2437" stroke="black" stroke-width="0.0475345" stroke-miterlimit="10"/>
<path d="M32.577 21.1107C32.577 21.1107 32.6677 21.1071 32.7497 21.1898C32.7497 21.1898 32.8123 21.2833 32.9014 21.2724" stroke="black" stroke-width="0.0475345" stroke-miterlimit="10"/>
<path d="M33.7213 20.6972C33.7213 20.6972 33.5859 20.6972 33.511 20.6325C33.511 20.6325 33.4325 20.5786 33.3862 20.6648C33.3862 20.6648 33.3149 20.787 33.4468 20.841C33.4468 20.841 33.6108 20.9237 33.3505 21.0891C33.3505 21.0891 33.6607 20.9776 33.5359 20.8266C33.5359 20.8266 33.4005 20.7296 33.4504 20.6936C33.4504 20.6936 33.4646 20.6648 33.5181 20.7008C33.5716 20.7367 33.6786 20.7224 33.7213 20.6972Z" fill="black"/>
<path d="M37.9736 21.3841L36.9312 17.7841L36.893 17.7943L37.8142 21.438L37.9736 21.3841Z" fill="#784421" stroke="black" stroke-width="0.0356494"/>
<path d="M34.3432 25.4228C34.3432 25.4228 34.0972 25.2846 33.894 25.4464C33.894 25.4464 33.9148 25.3565 34.0702 25.317C34.0702 25.317 34.1543 25.0797 34.3896 25.1012C34.3896 25.1012 34.2933 25.2163 34.165 25.3134C34.165 25.3134 34.3005 25.3274 34.3432 25.4228Z" fill="black"/>
<path d="M33.4769 25.9947C33.4769 25.9947 33.0866 25.7493 33.2978 25.3368C33.2978 25.3368 33.3593 25.2181 33.4769 25.2424C33.4769 25.2424 33.7202 25.3179 33.5304 25.655C33.5304 25.655 33.4341 25.8734 33.4769 25.9947Z" fill="#64B4D1" stroke="#012169" stroke-width="0.0356494" stroke-miterlimit="2.613"/>
<path d="M34.2684 26.383C34.2684 26.383 33.7122 26.1295 33.8833 25.6981C33.8833 25.6981 33.9362 25.5524 34.0595 25.5633C34.0595 25.5633 34.274 25.574 34.2311 25.8598C34.2311 25.8598 34.1668 26.1403 34.2684 26.383Z" fill="#64B4D1" stroke="#012169" stroke-width="0.0356494" stroke-miterlimit="2.613"/>
<path d="M34.1507 24.7729C34.1507 24.7729 33.9837 24.8964 33.9157 24.9791C33.9157 24.9791 33.8477 24.8946 33.7586 24.8433C33.7586 24.8433 33.8612 24.8298 33.9157 24.876C33.9157 24.876 34.001 24.7933 34.1507 24.7729Z" fill="black"/>
<path d="M34.6454 26.2751C34.6454 26.2751 35.0812 26.1646 35.001 25.7143C35.001 25.7143 34.9582 25.5175 34.7737 25.5444C34.7737 25.5444 34.5514 25.6012 34.6962 25.8874C34.6962 25.8874 34.7817 26.0918 34.6454 26.2751Z" fill="#64B4D1" stroke="#012169" stroke-width="0.0356494" stroke-miterlimit="2.613"/>
<path d="M36.6145 16.7489C36.6145 16.7489 36.8952 16.835 37.0477 16.8971C37.0477 16.8971 37.4541 17.0804 37.9702 16.8971C37.9702 16.8971 38.3191 16.7589 38.3657 16.7489L38.0984 17.156L38.0851 17.3663L38.2523 17.6116C38.2523 17.6116 38.1519 17.6521 37.8524 17.4687C37.8524 17.4687 37.5209 17.2126 37.1252 17.4687C37.1252 17.4687 36.9086 17.6154 36.7268 17.6116L36.9835 17.325L36.8845 17.0669L36.6145 16.7489Z" fill="#F5CE00" stroke="black" stroke-width="0.0475345" stroke-miterlimit="2.613"/>
<path d="M34.8138 25.7372C34.8138 25.7372 34.8298 25.7156 34.8111 25.7062C34.8111 25.7062 34.7924 25.6981 34.779 25.7244C34.779 25.7244 34.7336 25.7965 34.772 25.8952C34.772 25.8952 34.8084 25.9637 34.7908 26.0352C34.7908 26.0352 34.7883 26.0554 34.8044 26.0581C34.8044 26.0581 34.8198 26.0527 34.8228 26.0379C34.8228 26.0379 34.8445 25.9681 34.8071 25.8999C34.8072 25.8998 34.7617 25.7939 34.8138 25.7372Z" fill="white"/>
<path d="M40.8507 17.5892C40.8507 17.5892 40.5369 17.7492 40.4059 17.5551C40.4059 17.5551 40.2348 17.2288 40.6105 17.1155C40.6105 17.1155 40.4059 16.8702 40.6252 16.6437C40.6252 16.6437 40.7402 16.5224 40.9407 16.6114C40.9407 16.6114 41.0237 16.4388 41.2188 16.4442C41.2188 16.4442 41.3899 16.4415 41.4488 16.6302C41.4488 16.6302 41.6841 16.5331 41.815 16.6733C41.815 16.6733 42.0316 16.916 41.7295 17.1075L41.512 17.1273L41.2982 17.0284L41.0593 17.0967C41.0592 17.0967 41.1207 17.3385 40.8507 17.5892Z" fill="#C8102E" stroke="black" stroke-width="0.0475516" stroke-linejoin="round"/>
<path d="M38.3658 17.3358C38.3658 17.3358 38.3579 17.4005 38.2937 17.4077C38.2937 17.4077 38.2268 17.4293 38.1878 17.3459C38.1878 17.3459 38.1832 17.327 38.1822 17.3178C38.1777 17.2788 38.1644 17.1668 38.2856 17.0751C38.2856 17.0751 38.4835 16.9134 38.8614 17.1093C38.8614 17.1093 39.1608 17.2531 39.3676 17.3753C39.3676 17.3753 39.9024 17.6629 39.9666 17.6845C39.9666 17.6845 40.2019 17.8031 40.5619 17.8175C40.5619 17.8175 41.0539 17.8535 41.2624 17.5084C41.2624 17.5084 41.421 17.2459 41.2624 17.0787C41.2624 17.0787 41.1983 17.0033 41.0928 17.0172C41.0485 17.023 40.9995 17.0434 40.9523 17.0985C40.9523 17.0985 40.8757 17.21 40.9647 17.2927C40.9647 17.2927 41.0806 17.3637 41.1216 17.2136C41.1216 17.2136 41.1234 17.2029 41.1269 17.2163C41.1292 17.225 41.1554 17.3394 41.094 17.4365C41.094 17.4365 40.7971 17.8856 39.9808 17.4202L38.9041 16.8163C38.9041 16.8163 38.364 16.5395 38.0414 16.9727C38.0414 16.9727 37.7811 17.3322 38.1162 17.5677C38.1162 17.5677 38.3658 17.7169 38.5226 17.4796C38.5226 17.4796 38.6527 17.2459 38.4478 17.1435C38.4478 17.1435 38.2678 17.0591 38.1965 17.2388C38.1252 17.4185 38.3355 17.4653 38.3551 17.3377C38.3551 17.3376 38.3605 17.307 38.3658 17.3358Z" fill="#F5CE00" stroke="black" stroke-width="0.0475345" stroke-miterlimit="2.613"/>
<path d="M34.0981 19.189C34.0981 19.189 34.0981 18.6282 34.0981 18.5149C34.0981 18.462 34.0985 18.4179 34.1786 18.3532C34.2588 18.2885 34.3444 18.186 34.4674 18.4772C34.4674 18.4772 34.708 18.2238 34.7882 18.186C34.7882 18.186 34.9273 18.0674 35.0235 18.2399C35.0235 18.2399 35.1519 18.0458 35.2534 17.9973C35.2534 17.9973 35.4941 17.8409 35.5048 18.31L35.6919 18.1374C35.6919 18.1374 35.8363 18.0188 35.9968 18.1806C35.9968 18.1806 36.2695 18.4448 36.3069 18.5203C36.3069 18.5203 36.3671 18.6021 36.3717 18.7311C36.3717 18.7311 36.3711 18.8762 36.4459 18.9571C36.4459 18.9571 36.5314 19.0326 36.6143 19.0488C36.6143 19.0488 36.8095 19.0541 36.879 19.2375C36.879 19.2375 36.9111 19.2057 37.0074 20.0844V21.6858L35.9271 22.9747L34.1945 22.4785L33.5047 22.1927L33.3496 21.6858L34.0181 21.2544L34.3817 20.2729L34.2641 19.5826L34.0981 19.189Z" fill="#E4CB5E" stroke="black" stroke-width="0.0356494" stroke-miterlimit="2.613"/>
<path d="M38.8721 20.0393L38.9541 19.9171L39.1502 19.7661C39.1502 19.7661 39.4496 20.5519 39.4639 20.7234V20.9673C39.4639 20.9673 39.9131 21.0819 39.9916 21.7722L39.6208 22.4553L39.0397 22.1317L38.8722 22.0094V20.0393H38.8721Z" fill="#784421" stroke="black" stroke-width="0.0356494"/>
<path d="M33.3686 25.4352C33.3686 25.4352 33.39 25.4069 33.3753 25.3948C33.3753 25.3948 33.3659 25.3813 33.3406 25.4136C33.3406 25.4136 33.2225 25.5457 33.3165 25.7487C33.3165 25.7487 33.3272 25.7776 33.3459 25.7682C33.3459 25.7682 33.3619 25.7601 33.3472 25.7359C33.3473 25.7359 33.263 25.5687 33.3686 25.4352Z" fill="white"/>
<path d="M35.1204 25.3027C35.1204 25.3027 35.1382 25.2416 35.0955 25.1768C35.0955 25.1768 35.067 25.1301 35.0776 25.069" stroke="black" stroke-width="0.0475345" stroke-miterlimit="10"/>
<path d="M35.5049 18.3101C35.5049 18.3101 35.5065 18.4786 35.5547 18.6027C35.6028 18.7268 35.7653 18.9413 35.776 19.0572" stroke="black" stroke-width="0.0356494" stroke-miterlimit="10"/>
<path d="M39.5798 24.1612C39.5798 24.1612 39.8525 24.1774 39.9915 24.2475C40.1306 24.3176 40.2375 24.3931 40.3979 24.4955C40.3979 24.4955 40.4728 24.5953 40.7883 24.5346C40.7883 24.5346 41.3337 24.4039 41.3337 24.8299C41.3337 24.8299 41.9861 24.8838 41.7188 25.4554C41.7188 25.4554 41.537 25.903 41.1626 25.5849C41.1626 25.5849 41.4033 25.93 40.938 26.0649C40.938 26.0649 40.6065 26.1458 40.5102 25.806C40.5102 25.806 40.4567 25.6712 40.5851 25.504C40.5851 25.504 40.4246 25.4716 40.3124 25.2991C40.3124 25.2991 40.6546 25.7316 40.2803 25.8874C40.2803 25.8874 39.8098 26.0055 39.783 25.5147C39.783 25.5147 39.8214 25.2882 39.6391 25.2073C39.6391 25.2073 39.2642 25.121 39.0931 24.7031C39.0931 24.7031 39.6321 24.4161 39.5798 24.1612Z" fill="#C8102E" stroke="black" stroke-width="0.0475516" stroke-linejoin="round"/>
<path d="M35.2898 19.0569L35.7349 22.6493" stroke="black" stroke-width="0.0356494" stroke-miterlimit="10"/>
<path d="M35.3926 19.0491L35.8918 22.3977" stroke="black" stroke-width="0.0356494" stroke-miterlimit="10"/>
<path d="M35.4862 19.0336L36.0611 22.3546" stroke="black" stroke-width="0.0356494" stroke-miterlimit="10"/>
<path d="M36.5549 22.0148L35.5123 18.4148L35.4742 18.425L36.3954 22.0688L36.5549 22.0148Z" fill="#784421" stroke="black" stroke-width="0.0356494"/>
<path d="M35.8051 18.9017L36.8579 21.5619" stroke="black" stroke-width="0.0356494" stroke-miterlimit="10"/>
<path d="M35.7349 18.9448L36.7509 21.7236" stroke="black" stroke-width="0.0356494" stroke-miterlimit="10"/>
<path d="M34.067 26.1277C34.067 26.1277 33.9448 26.0106 33.9618 25.8006C33.9618 25.8006 33.9689 25.7557 33.9465 25.7494C33.9465 25.7494 33.9226 25.7395 33.9191 25.7916C33.9191 25.7916 33.8852 26.0109 34.0332 26.1367C34.0332 26.1367 34.0432 26.1493 34.0596 26.1457C34.0595 26.1457 34.077 26.1418 34.067 26.1277Z" fill="white"/>
<path d="M35.8526 18.8656L36.938 21.2922" stroke="black" stroke-width="0.0356494" stroke-miterlimit="10"/>
<path d="M35.5557 19.0164L36.2215 22.2845" stroke="black" stroke-width="0.0356494" stroke-miterlimit="10"/>
<path d="M41.0018 21.438C40.5263 21.1682 40.422 20.5696 40.422 20.5696C40.3071 19.9737 40.5397 19.5018 40.5397 19.5018C40.8472 18.852 41.3741 18.7311 41.3741 18.7311C41.3741 18.7311 40.8579 19.0892 40.7135 19.5719C40.7135 19.5719 40.6012 19.979 40.6654 20.3808C40.7296 20.7826 40.7055 20.6801 40.8045 20.9902L41.0018 21.438Z" fill="#F5CE00" stroke="black" stroke-width="0.0475345" stroke-miterlimit="2.613"/>
<path d="M38.9541 19.9171L36.9561 20.5479L36.8471 21.438C36.373 22.1248 35.4095 22.2467 35.4095 22.2467L36.1591 23.0448L37.5994 23.3468L38.3552 22.7644L39.0397 22.1317C38.9684 21.7937 39.0076 21.2922 39.0076 21.2922C39.0076 21.2078 39.0397 21.01 39.0397 21.01C39.0397 21.01 38.922 20.1975 38.9541 19.9171Z" fill="#784421" stroke="black" stroke-width="0.0217673"/>
<path d="M36.8745 21.2144C36.8745 21.2144 38.1904 20.8035 38.9751 20.4735" stroke="black" stroke-width="0.0356494" stroke-miterlimit="10"/>
<path d="M36.2429 21.9645C36.2429 21.9645 37.8846 21.6679 39.0396 21.01L39.4639 20.7234" stroke="black" stroke-width="0.0356494" stroke-miterlimit="10"/>
<path d="M39.4639 20.9673L39.0075 21.2923C39.0075 21.2923 37.1715 22.1389 35.7736 22.1615" stroke="black" stroke-width="0.0356494" stroke-miterlimit="10"/>
<path d="M39.0072 21.8939C39.0072 21.8939 37.5958 22.6206 36.7865 22.6315" stroke="black" stroke-width="0.0356494" stroke-miterlimit="10"/>
<path d="M40.6903 19.8599C40.6903 19.8599 41.111 19.6662 41.3107 19.8599C41.3107 19.8599 41.5888 19.6877 41.881 19.8599C41.881 19.8599 42.1591 20.0417 42.3516 20.2418C42.3516 20.2418 42.4871 20.3578 42.4372 20.7235C42.4372 20.7235 42.3659 20.9812 42.4087 21.1107C42.4087 21.1107 42.5014 21.0923 42.6868 21.312C42.6868 21.312 42.9221 21.5845 43.1288 21.344C43.1288 21.344 43.0647 21.6787 42.6761 21.6248C42.6761 21.6248 42.865 21.7722 42.701 22.1533C42.701 22.1533 42.5798 22.4229 42.7723 22.7609C42.7723 22.7609 42.4336 22.6243 42.4479 22.2252C42.4479 22.2252 42.4764 21.9556 42.3766 21.765C42.3766 21.765 42.4764 21.9383 42.2447 22.3079C42.2447 22.3079 42.0665 22.5739 42.2126 22.8507C42.2126 22.8507 41.8776 22.7285 41.9096 22.3222C41.9417 21.916 42.1449 22.0849 42.013 21.7111C42.013 21.7111 41.9809 21.9025 41.8811 21.9992C41.7813 22.0958 41.653 22.2575 41.7064 22.5272C41.7064 22.5272 41.5068 22.2791 41.5531 22.0238C41.5995 21.7686 41.6494 21.6914 41.6494 21.6914L41.0184 21.3336L40.7046 20.7655L40.6903 19.8599Z" fill="#C8102E" stroke="black" stroke-width="0.0475516" stroke-linejoin="round"/>
<path d="M33.5424 22.1335C33.5424 22.1335 33.6012 21.8548 33.8686 21.9645C33.8686 21.9645 33.9595 21.5079 34.4461 21.4918C34.9327 21.4756 34.9595 21.9663 34.9595 21.9987C34.9595 21.9987 35.1024 21.788 35.3411 21.8124C35.3411 21.8124 35.7526 21.7882 35.5993 22.4489L35.6771 22.5317C35.6771 22.5317 35.9915 21.7937 36.6386 21.9879C36.6386 21.9879 37.2696 22.1802 36.8579 22.7914C36.8579 22.7914 37.1693 23.1959 37.4334 23.1581C37.6974 23.1203 37.9327 23.0395 38.1947 22.5757C38.4568 22.1119 39.0664 22.0418 39.2215 22.0687C39.3766 22.0957 39.4991 22.1964 39.5244 22.306C39.5244 22.306 39.8472 21.2287 41.0076 21.398L41.4728 21.632L41.6493 21.7129L41.3862 22.4553L40.7454 23.9038L40.2589 24.0534L39.7508 23.7622L39.5744 23.8568L39.56 24.2906L38.8899 24.773L38.4247 24.9647L37.9113 25.3152L37.7919 25.6286C37.7919 25.6286 37.5084 25.5092 37.1884 25.6286L37.0825 25.3692L36.783 25.0834L35.6197 24.5346L35.4095 23.8568L35.1972 23.7622L34.9595 24.0344L34.6119 24.075L34.0932 23.7244L33.5424 22.1335Z" fill="white" stroke="#012169" stroke-width="0.0475345" stroke-miterlimit="10"/>
<path d="M38.6083 16.8594C38.6083 16.8594 38.1643 16.8396 38.1804 17.2998" stroke="black" stroke-width="0.0475345" stroke-miterlimit="2.613"/>
<path d="M41.529 21.7479C40.7562 21.5106 40.545 20.6801 40.545 20.6801C40.3873 20.0572 40.6413 19.5126 40.6413 19.5126C40.9942 18.6837 41.5914 18.6839 41.5914 18.6839C41.8908 18.6758 41.9268 18.932 41.9268 18.932C41.955 19.1135 41.8276 19.1791 41.8276 19.1791C41.6226 19.2906 41.4934 19.1396 41.4934 19.1396C41.4078 19.0281 41.4737 18.9293 41.4737 18.9293C41.5263 18.8556 41.627 18.8879 41.627 18.8879C41.7068 18.9126 41.6983 19.0124 41.6983 19.0124C41.6988 19.015 41.7006 19.015 41.7006 19.015C41.7041 19.0141 41.7028 19.0128 41.7028 19.0128C41.7028 19.0128 41.7206 18.8906 41.6012 18.878C41.6012 18.878 41.3686 18.8276 41.0959 19.1674C41.0959 19.1674 40.7367 19.6258 40.7376 20.219C40.7376 20.219 40.6922 21.3326 41.8526 21.6211C41.8526 21.6211 41.7269 21.8018 41.505 22.4543C41.505 22.4543 41.2537 23.2929 41.0137 23.7462C41.0137 23.7462 40.6948 24.393 39.9836 24.1287C39.9836 24.1287 39.5601 23.9427 39.5611 23.6353C39.5611 23.6353 39.5317 23.3548 39.7857 23.3333C39.7857 23.3333 40.0344 23.3144 40.0317 23.5274C40.0317 23.5274 40.0384 23.758 39.767 23.7054C39.767 23.7054 39.6721 23.6852 39.6894 23.5921C39.6894 23.5921 39.7046 23.5085 39.8191 23.5449C39.8191 23.5449 39.8227 23.5454 39.8231 23.5436C39.8231 23.5436 39.8244 23.5416 39.8204 23.5404C39.8204 23.5404 39.7761 23.5206 39.7293 23.537C39.7293 23.537 39.6874 23.5509 39.6841 23.6163C39.6841 23.6163 39.6814 23.6689 39.7376 23.6986C39.7376 23.6986 39.8058 23.7228 39.8592 23.7175C39.8592 23.7175 39.9312 23.8626 40.0939 23.9118C40.3204 23.9803 40.507 23.9144 40.6213 23.8233C40.7455 23.7241 40.8258 23.5509 40.8499 23.5085C40.8739 23.466 41.0825 22.9989 41.2393 22.4964C41.2393 22.4964 41.3766 22.0632 41.4862 21.8367L41.529 21.7479Z" fill="#F5CE00" stroke="black" stroke-width="0.0475345" stroke-miterlimit="2.613"/>
<path d="M39.3485 23.8592C39.3485 23.8592 39.4929 23.8396 39.4929 23.9684C39.4929 23.9684 39.4841 24.1565 39.2549 24.1153C39.2549 24.1153 39.029 24.0659 39.1091 23.8133C39.1091 23.8133 39.1626 23.6353 39.3765 23.661C39.3765 23.661 39.5837 23.6704 39.6747 23.9536C39.6747 23.9536 39.7442 24.1922 39.6252 24.3971C39.4924 24.6257 39.1564 24.7759 38.9942 24.8424C38.9942 24.8424 38.3445 25.0977 38.1507 25.2437C38.1507 25.2437 37.8535 25.4644 37.9849 25.6698C37.9849 25.6698 38.0357 25.748 38.1119 25.748C38.1119 25.748 38.1988 25.752 38.2136 25.6631C38.2136 25.6631 38.214 25.6613 38.2126 25.659C38.2126 25.659 38.2113 25.659 38.2109 25.6612C38.2109 25.6612 38.2046 25.7156 38.1574 25.7358C38.1574 25.7358 38.0941 25.7678 38.0277 25.7116C38.0277 25.7116 37.9573 25.6442 38.0161 25.5395C38.0161 25.5395 38.0932 25.4105 38.2728 25.4869C38.2728 25.4869 38.4311 25.5651 38.366 25.7332C38.366 25.7332 38.3081 25.8878 38.1173 25.8874C38.1173 25.8874 37.9737 25.8827 37.8818 25.7864C37.7385 25.6361 37.7307 25.3434 37.8571 25.1921C37.8571 25.1921 37.9765 25.0312 38.2162 24.9332C38.3551 24.8764 38.6173 24.7624 38.89 24.6555C39.0817 24.5803 39.2573 24.4903 39.3713 24.3553C39.3713 24.3553 39.473 24.2421 39.5024 24.0479C39.5024 24.0479 39.5305 23.9023 39.4418 23.8704C39.4418 23.8704 39.3967 23.8502 39.3473 23.8569C39.3473 23.8569 39.346 23.857 39.3456 23.8578C39.3455 23.8579 39.3435 23.8601 39.3485 23.8592Z" fill="#F5CE00" stroke="black" stroke-width="0.0475345" stroke-miterlimit="2.613"/>
<path d="M39.3605 23.8582C39.3605 23.8582 39.5201 23.8295 39.6199 24.0192C39.6199 24.0192 39.6787 24.1414 39.6882 24.2121" stroke="black" stroke-width="0.0475345" stroke-miterlimit="2.613"/>
<path d="M39.7402 23.5341C39.7402 23.5341 39.5804 23.5618 39.6627 23.7878C39.7402 24.0008 39.8843 24.0707 39.927 24.1003" stroke="black" stroke-width="0.0475345" stroke-miterlimit="2.613"/>
<path d="M36.6144 17.3357C36.6144 17.3357 36.6223 17.4004 36.6865 17.4077C36.6865 17.4077 36.7534 17.4292 36.7924 17.3459C36.7924 17.3459 36.797 17.327 36.798 17.3178C36.8024 17.2788 36.8158 17.1667 36.6946 17.0751C36.6946 17.0751 36.4967 16.9133 36.1188 17.1092C36.1188 17.1092 35.8194 17.253 35.6126 17.3753C35.6126 17.3753 35.0778 17.6629 35.0136 17.6844C35.0136 17.6844 34.7783 17.8031 34.4183 17.8175C34.4183 17.8175 33.9263 17.8534 33.7178 17.5083C33.7178 17.5083 33.5592 17.2459 33.7178 17.0787C33.7178 17.0787 33.7819 17.0032 33.8874 17.0171C33.9317 17.0229 33.9807 17.0433 34.0279 17.0985C34.0279 17.0985 34.1045 17.21 34.0154 17.2926C34.0154 17.2926 33.8996 17.3636 33.8586 17.2136C33.8586 17.2136 33.8568 17.2028 33.8532 17.2162C33.8509 17.2249 33.8247 17.3394 33.8862 17.4364C33.8862 17.4364 34.183 17.8856 34.9994 17.4201L36.076 16.8163C36.076 16.8163 36.6161 16.5394 36.9388 16.9726C36.9388 16.9726 37.199 17.3322 36.8639 17.5676C36.8639 17.5676 36.6144 17.7168 36.4575 17.4796C36.4575 17.4796 36.3274 17.2459 36.5324 17.1435C36.5324 17.1435 36.7124 17.059 36.7837 17.2387C36.855 17.4185 36.6446 17.4652 36.6251 17.3376C36.6251 17.3376 36.6197 17.307 36.6144 17.3357Z" fill="#F5CE00" stroke="black" stroke-width="0.0475345" stroke-miterlimit="2.613"/>
<path d="M33.9784 21.438C34.4539 21.1682 34.5582 20.5696 34.5582 20.5696C34.6732 19.9737 34.4406 19.5018 34.4406 19.5018C34.133 18.852 33.6061 18.7311 33.6061 18.7311C33.6061 18.7311 34.1223 19.0892 34.2667 19.5719C34.2667 19.5719 34.379 19.979 34.3148 20.3808C34.2507 20.7826 34.2747 20.6801 34.1758 20.9902L33.9784 21.438Z" fill="#F5CE00" stroke="black" stroke-width="0.0475345" stroke-miterlimit="2.613"/>
<path d="M36.3719 16.8594C36.3719 16.8594 36.8159 16.8396 36.7998 17.2998" stroke="black" stroke-width="0.0475345" stroke-miterlimit="2.613"/>
<path d="M33.4512 21.7479C34.2239 21.5106 34.4352 20.6801 34.4352 20.6801C34.5929 20.0572 34.3389 19.5126 34.3389 19.5126C33.986 18.6837 33.3888 18.6839 33.3888 18.6839C33.0893 18.6758 33.0534 18.932 33.0534 18.932C33.0251 19.1135 33.1526 19.1791 33.1526 19.1791C33.3575 19.2906 33.4868 19.1396 33.4868 19.1396C33.5724 19.0281 33.5064 18.9293 33.5064 18.9293C33.4539 18.8556 33.3531 18.8879 33.3531 18.8879C33.2734 18.9126 33.2818 19.0124 33.2818 19.0124C33.2814 19.015 33.2796 19.015 33.2796 19.015C33.2761 19.0141 33.2774 19.0128 33.2774 19.0128C33.2774 19.0128 33.2595 18.8906 33.379 18.878C33.379 18.878 33.6116 18.8276 33.8843 19.1674C33.8843 19.1674 34.2435 19.6258 34.2426 20.219C34.2426 20.219 34.288 21.3326 33.1276 21.6211C33.1276 21.6211 33.2533 21.8018 33.4752 22.4543C33.4752 22.4543 33.7265 23.2929 33.9664 23.7462C33.9664 23.7462 34.2854 24.393 34.9966 24.1287C34.9966 24.1287 35.4201 23.9427 35.4191 23.6353C35.4191 23.6353 35.4485 23.3548 35.1945 23.3333C35.1945 23.3333 34.9458 23.3144 34.9485 23.5274C34.9485 23.5274 34.9418 23.758 35.2132 23.7054C35.2132 23.7054 35.3081 23.6852 35.2907 23.5921C35.2907 23.5921 35.2756 23.5085 35.1611 23.5449C35.1611 23.5449 35.1575 23.5454 35.1571 23.5436C35.1571 23.5436 35.1558 23.5416 35.1598 23.5404C35.1598 23.5404 35.204 23.5206 35.2509 23.537C35.2509 23.537 35.2928 23.5509 35.2961 23.6163C35.2961 23.6163 35.2988 23.6689 35.2426 23.6986C35.2426 23.6986 35.1744 23.7228 35.121 23.7175C35.121 23.7175 35.049 23.8626 34.8863 23.9118C34.6597 23.9803 34.4731 23.9144 34.3589 23.8233C34.2347 23.7241 34.1544 23.5509 34.1303 23.5085C34.1063 23.466 33.8977 22.9989 33.7409 22.4964C33.7409 22.4964 33.6036 22.0632 33.494 21.8367L33.4512 21.7479Z" fill="#F5CE00" stroke="black" stroke-width="0.0475345" stroke-miterlimit="2.613"/>
<path d="M35.6317 23.8592C35.6317 23.8592 35.4873 23.8396 35.4873 23.9684C35.4873 23.9684 35.4961 24.1565 35.7253 24.1153C35.7253 24.1153 35.9512 24.0659 35.8711 23.8133C35.8711 23.8133 35.8176 23.6353 35.6037 23.661C35.6037 23.661 35.3965 23.6704 35.3055 23.9536C35.3055 23.9536 35.236 24.1923 35.355 24.3971C35.4878 24.6257 35.8238 24.7759 35.986 24.8424C35.986 24.8424 36.6357 25.0977 36.8295 25.2437C36.8295 25.2437 37.1267 25.4644 36.9953 25.6698C36.9953 25.6698 36.9445 25.748 36.8683 25.748C36.8683 25.748 36.7813 25.752 36.7666 25.6631C36.7666 25.6631 36.7662 25.6613 36.7676 25.659C36.7676 25.659 36.7689 25.659 36.7693 25.6612C36.7693 25.6612 36.7756 25.7156 36.8228 25.7358C36.8228 25.7358 36.8861 25.7678 36.9525 25.7116C36.9525 25.7116 37.0229 25.6442 36.9641 25.5395C36.9641 25.5395 36.887 25.4105 36.7074 25.4869C36.7074 25.4869 36.5491 25.5651 36.6142 25.7332C36.6142 25.7332 36.6721 25.8878 36.8629 25.8874C36.8629 25.8874 37.0065 25.8827 37.0984 25.7864C37.2417 25.6361 37.2495 25.3434 37.1231 25.1921C37.1231 25.1921 37.0037 25.0312 36.764 24.9332C36.6251 24.8764 36.3629 24.7624 36.0902 24.6555C35.8985 24.5803 35.7229 24.4903 35.6089 24.3553C35.6089 24.3553 35.5072 24.2421 35.4778 24.0479C35.4778 24.0479 35.4497 23.9023 35.5384 23.8704C35.5384 23.8704 35.5835 23.8502 35.6329 23.8569C35.6329 23.8569 35.6342 23.857 35.6346 23.8578C35.6347 23.8578 35.6367 23.8601 35.6317 23.8592Z" fill="#F5CE00" stroke="black" stroke-width="0.0475345" stroke-miterlimit="2.613"/>
<path d="M35.6196 23.8582C35.6196 23.8582 35.4601 23.8295 35.3603 24.0192C35.3603 24.0192 35.3015 24.1414 35.292 24.2121" stroke="black" stroke-width="0.0475345" stroke-miterlimit="2.613"/>
<path d="M35.2401 23.5339C35.2401 23.5339 35.3998 23.5616 35.3175 23.7877C35.24 24.0007 35.096 24.0706 35.0532 24.1002" stroke="black" stroke-width="0.0475345" stroke-miterlimit="2.613"/>
<path d="M37.1038 17.2738C37.1038 17.2738 37.4901 17.032 37.8846 17.2998" stroke="black" stroke-width="0.0475345" stroke-miterlimit="2.613"/>
<path d="M34.906 19.6367C34.906 19.6367 34.9595 19.4209 34.7135 19.0434C34.7135 19.0434 34.553 18.6983 34.4675 18.4772" stroke="black" stroke-width="0.0356494" stroke-miterlimit="2.613"/>
<path d="M35.0236 18.2399C35.0236 18.2399 35.1629 18.5792 35.2108 18.7311C35.2108 18.7311 35.3835 19.1567 35.4202 19.243" stroke="black" stroke-width="0.0356494" stroke-miterlimit="2.613"/>
<path d="M35.0932 19.8739C35.0932 19.8739 35.2384 20.0303 35.222 20.2945" stroke="black" stroke-width="0.0356494" stroke-miterlimit="10"/>
<path d="M34.6119 19.7068C34.6119 19.7068 34.7723 19.7841 34.7617 20.2101C34.7617 20.2101 34.7456 20.5211 34.9862 20.6775" stroke="black" stroke-width="0.0356494" stroke-miterlimit="10"/>
<path d="M34.5901 20.7871C34.5901 20.7871 35.0923 20.7323 35.1199 21.0415C35.1199 21.0415 35.1306 21.3381 35.3017 21.3705C35.3017 21.3705 35.558 21.3947 35.6088 21.632" stroke="black" stroke-width="0.0356494" stroke-miterlimit="10"/>
<path d="M34.7482 21.1304C34.7482 21.1304 34.8365 21.2626 34.922 21.3192" stroke="black" stroke-width="0.0356494" stroke-miterlimit="10"/>
<path d="M35.3926 20.8042C35.3926 20.8042 35.5202 20.9974 35.5442 21.1107" stroke="black" stroke-width="0.0356494" stroke-miterlimit="10"/>
<path d="M35.9452 18.4772C35.9452 18.4772 36.0628 18.6372 36.1769 18.7126" stroke="black" stroke-width="0.0356494" stroke-miterlimit="10"/>
<path d="M36.4158 19.4246C36.4158 19.4246 36.6654 19.5468 36.6226 20.1759C36.6226 20.1759 36.5905 20.5449 36.6939 20.7463" stroke="black" stroke-width="0.0356494" stroke-miterlimit="10"/>
<path d="M35.2402 18.9976L35.2563 19.057C35.2563 19.057 35.7037 19.0759 35.9452 18.7711L35.9193 18.7127C35.9193 18.7127 35.529 18.6929 35.2402 18.9976Z" fill="#784421" stroke="black" stroke-width="0.0356494"/>
<path d="M36.8521 21.398C36.8521 21.398 38.3995 20.9367 38.9958 20.6677" stroke="black" stroke-width="0.0356494" stroke-miterlimit="10"/>
<path d="M36.668 18.4934L37.4334 18.2022L37.4515 18.2534L36.6859 18.5442L36.668 18.4934Z" fill="#784421" stroke="black" stroke-width="0.0217673"/>
<path d="M36.7509 18.5195L37.2589 21.01" stroke="black" stroke-width="0.0356494" stroke-miterlimit="10"/>
<path d="M36.8391 18.486L37.4209 20.9651" stroke="black" stroke-width="0.0356494" stroke-miterlimit="10"/>
<path d="M36.938 18.4484L37.5744 20.9094" stroke="black" stroke-width="0.0356494" stroke-miterlimit="10"/>
<path d="M37.1875 18.3536L38.055 20.2009" stroke="black" stroke-width="0.0356494" stroke-miterlimit="10"/>
<path d="M37.3023 18.3101L38.2274 20.1465" stroke="black" stroke-width="0.0356494" stroke-miterlimit="10"/>
<path d="M37.3873 18.2778L38.388 20.0958" stroke="black" stroke-width="0.0356494" stroke-miterlimit="10"/>
<path d="M37.2245 21.0298L37.6172 20.9004" stroke="black" stroke-width="0.0356494" stroke-miterlimit="10"/>
<path d="M36.9272 20.7833C36.9272 20.7833 38.0782 20.4472 38.9493 20.0958" stroke="black" stroke-width="0.0356494" stroke-miterlimit="10"/>
<path d="M36.9118 20.9094C36.9118 20.9094 38.3705 20.5234 38.9493 20.2418" stroke="black" stroke-width="0.0356494" stroke-miterlimit="10"/>
<path d="M37.3569 22.0957L37.4333 22.3294L37.6421 22.2626L37.5708 22.031" stroke="black" stroke-width="0.0356494" stroke-miterlimit="10"/>
<path d="M37.9461 21.9279L38.0225 22.1615L38.2314 22.0947L38.16 21.8632" stroke="black" stroke-width="0.0356494" stroke-miterlimit="10"/>
<path d="M36.9561 20.548L36.938 20.2318L38.8507 19.6511L38.9541 19.9171" stroke="black" stroke-width="0.0356494" stroke-miterlimit="10"/>
<path d="M37.7491 19.9855L37.8533 20.2647" stroke="black" stroke-width="0.0356494" stroke-miterlimit="10"/>
<path d="M38.4178 19.7825L38.5396 20.0479" stroke="black" stroke-width="0.0356494" stroke-miterlimit="10"/>
<path d="M38.5764 19.7344L38.6903 19.9855" stroke="black" stroke-width="0.0356494" stroke-miterlimit="10"/>
<path d="M38.7278 19.6884L38.8476 19.9507" stroke="black" stroke-width="0.0356494" stroke-miterlimit="10"/>
<path d="M38.8507 19.651L39.0611 19.5324L39.1502 19.766" stroke="black" stroke-width="0.0356494" stroke-miterlimit="10"/>
<path d="M38.9541 19.5927L39.0612 19.8346" stroke="black" stroke-width="0.0356494" stroke-miterlimit="10"/>
<path d="M34.2107 23.2336C34.2107 23.2336 33.8364 22.8545 34.2107 22.4832C34.2107 22.4832 33.8044 22.2845 33.8685 21.9645" stroke="#012169" stroke-width="0.0475345" stroke-miterlimit="10"/>
<path d="M34.8792 23.534C34.8792 23.534 34.4915 23.5868 34.6065 22.8318C34.6065 22.8318 34.446 23.1311 34.3907 23.2849C34.3494 23.4001 34.3767 23.5859 34.5408 23.6864C34.6064 23.7266 34.954 23.8171 35.0663 23.5868" stroke="#012169" stroke-width="0.0475345" stroke-miterlimit="10"/>
<path d="M34.446 22.3788C34.446 22.3788 34.2883 22.5245 34.4006 22.7914" stroke="#012169" stroke-width="0.0475345" stroke-miterlimit="10"/>
<path d="M34.6091 22.4139C34.6091 22.4139 34.6278 22.6728 34.7562 22.8183" stroke="#012169" stroke-width="0.0475345" stroke-miterlimit="10"/>
<path d="M34.72 22.3115C34.72 22.3115 34.7188 22.6162 34.938 22.8049" stroke="#012169" stroke-width="0.0475345" stroke-miterlimit="10"/>
<path d="M34.829 22.2063C34.829 22.2063 34.8311 22.5487 35.0851 22.7591" stroke="#012169" stroke-width="0.0475345" stroke-miterlimit="10"/>
<path d="M36.0905 22.7078C36.0905 22.7078 36.2188 22.4273 36.4888 22.4408C36.4888 22.4408 36.3578 22.5002 36.3605 22.6314C36.3605 22.6314 36.3445 22.848 36.5771 22.8695C36.5771 22.8695 36.7642 22.8938 36.8578 22.7913" stroke="#012169" stroke-width="0.0475345" stroke-miterlimit="10"/>
<path d="M36.7295 23.9885C36.7295 23.9885 36.0637 23.6758 36.1333 23.2255C36.1333 23.2255 36.16 22.9505 36.4289 22.821" stroke="#012169" stroke-width="0.0475345" stroke-miterlimit="10"/>
<path d="M36.2883 23.1068C36.2883 23.1068 36.2295 23.301 36.3605 23.4358" stroke="#012169" stroke-width="0.0475345" stroke-miterlimit="10"/>
<path d="M36.438 22.9747C36.438 22.9747 36.3578 23.1878 36.4915 23.3468" stroke="#012169" stroke-width="0.0475345" stroke-miterlimit="10"/>
<path d="M36.5983 22.8713C36.5983 22.8713 36.5022 23.0475 36.6171 23.2066" stroke="#012169" stroke-width="0.0475345" stroke-miterlimit="10"/>
<path d="M35.9915 24.0344C35.9915 24.0344 36.3552 24.3499 36.6386 24.3526" stroke="#012169" stroke-width="0.0475345" stroke-miterlimit="10"/>
<path d="M35.8765 24.1342C35.8765 24.1342 36.2164 24.4092 36.4288 24.4496" stroke="#012169" stroke-width="0.0475345" stroke-miterlimit="10"/>
<path d="M35.7482 24.212C35.7482 24.212 36.1682 24.5817 36.4288 24.6087" stroke="#012169" stroke-width="0.0475345" stroke-miterlimit="10"/>
<path d="M37.4568 24.9485C37.4568 24.9485 37.0438 25.171 37.3639 25.4062" stroke="#012169" stroke-width="0.0475345" stroke-miterlimit="10"/>
<path d="M37.1947 24.7031C37.1947 24.7031 37.6626 24.4578 37.8658 24.3661" stroke="#012169" stroke-width="0.0475345" stroke-miterlimit="10"/>
<path d="M37.3632 24.8299C37.3632 24.8299 38.0396 24.4173 38.2401 24.3284" stroke="#012169" stroke-width="0.0475345" stroke-miterlimit="10"/>
<path d="M37.7108 24.8568C37.7108 24.8568 38.2883 24.4713 38.5984 24.3041" stroke="#012169" stroke-width="0.0475345" stroke-miterlimit="10"/>
<path d="M38.0931 24.8433C38.0931 24.8433 38.4915 24.5306 38.8765 24.3041" stroke="#012169" stroke-width="0.0475345" stroke-miterlimit="10"/>
<path d="M39.0129 23.9131C39.0129 23.9131 38.8177 23.6273 38.176 23.9131C38.176 23.9131 38.4113 23.6995 38.8765 23.534" stroke="#012169" stroke-width="0.0475345" stroke-miterlimit="10"/>
<path d="M39.5244 22.306C39.5244 22.306 39.5769 22.5379 39.5208 22.6781" stroke="#012169" stroke-width="0.0475345" stroke-miterlimit="10"/>
<path d="M38.4835 23.4305C38.4835 23.4305 38.6171 23.2336 38.9567 23.1366C38.9567 23.1366 39.0483 23.3657 39.3124 23.3145C39.3124 23.3145 39.7108 23.2363 39.5905 22.7995C39.5905 22.7995 39.5076 22.4732 39.0526 22.4409" stroke="#012169" stroke-width="0.0475345" stroke-miterlimit="10"/>
<path d="M40.406 21.8939C40.406 21.8939 40.8685 21.9771 40.8605 22.3546C40.8605 22.3546 40.898 22.9208 40.3017 23.0314" stroke="#012169" stroke-width="0.0475345" stroke-miterlimit="10"/>
<path d="M40.7949 22.1263C40.7949 22.1263 40.922 21.8504 41.2054 21.7371" stroke="#012169" stroke-width="0.0475345" stroke-miterlimit="10"/>
<path d="M40.861 21.5753C40.861 21.5753 40.9873 21.7779 41.0737 21.8074" stroke="#012169" stroke-width="0.0475345" stroke-miterlimit="10"/>
<path d="M40.7949 21.7371C40.7949 21.7371 40.9139 21.8826 40.9541 21.907" stroke="#012169" stroke-width="0.0475345" stroke-miterlimit="10"/>
<path d="M40.7562 21.8773C40.7562 21.8773 40.8189 21.97 40.8745 21.9991" stroke="#012169" stroke-width="0.0475345" stroke-miterlimit="10"/>
<path d="M38.3765 19.6883C38.3765 19.6883 38.4665 19.5422 38.6903 19.6043" stroke="#012169" stroke-width="0.0475345" stroke-miterlimit="10"/>
<path d="M39.6038 20.7833C39.6038 20.7833 39.7456 20.1921 40.2402 20.4105" stroke="#012169" stroke-width="0.0475345" stroke-miterlimit="10"/>
<path d="M40.0396 20.3621C40.0396 20.3621 40.0904 20.0895 39.9674 19.9507" stroke="#012169" stroke-width="0.0475345" stroke-miterlimit="10"/>
<path d="M39.7027 20.3431C39.7027 20.3431 39.7657 20.4558 39.7118 20.5479" stroke="#012169" stroke-width="0.0475345" stroke-miterlimit="10"/>
<path d="M40.7081 26.383C40.7081 26.383 41.2643 26.1295 41.0932 25.6981C41.0932 25.6981 41.0403 25.5524 40.917 25.5633C40.917 25.5633 40.7025 25.574 40.7454 25.8598C40.7454 25.8599 40.8097 26.1403 40.7081 26.383Z" fill="#64B4D1" stroke="#012169" stroke-width="0.0356494" stroke-miterlimit="2.613"/>
<path d="M40.9095 26.1277C40.9095 26.1277 41.0317 26.0106 41.0147 25.8006C41.0147 25.8006 41.0075 25.7557 41.03 25.7494C41.03 25.7494 41.0539 25.7394 41.0574 25.7915C41.0574 25.7915 41.0913 26.0109 40.9433 26.1367C40.9433 26.1367 40.9333 26.1492 40.9169 26.1456C40.917 26.1457 40.8994 26.1418 40.9095 26.1277Z" fill="white"/>
<path d="M41.4996 25.9947C41.4996 25.9947 41.8899 25.7493 41.6787 25.3368C41.6787 25.3368 41.6172 25.2181 41.4996 25.2424C41.4996 25.2424 41.2563 25.3179 41.4461 25.655C41.4461 25.655 41.5423 25.8734 41.4996 25.9947Z" fill="#64B4D1" stroke="#012169" stroke-width="0.0356494" stroke-miterlimit="2.613"/>
<path d="M41.5971 25.4352C41.5971 25.4352 41.5757 25.4068 41.5904 25.3947C41.5904 25.3947 41.5998 25.3812 41.6252 25.4136C41.6252 25.4136 41.7433 25.5456 41.6493 25.7486C41.6493 25.7486 41.6385 25.7776 41.6198 25.7681C41.6198 25.7681 41.6038 25.7601 41.6185 25.7358C41.6185 25.7358 41.7028 25.5687 41.5971 25.4352Z" fill="white"/>
<path d="M40.3311 26.2751C40.3311 26.2751 39.8953 26.1646 39.9754 25.7143C39.9754 25.7143 40.0182 25.5175 40.2027 25.5444C40.2027 25.5444 40.425 25.6012 40.2802 25.8874C40.2802 25.8874 40.1947 26.0917 40.3311 26.2751Z" fill="#64B4D1" stroke="#012169" stroke-width="0.0356494" stroke-miterlimit="2.613"/>
<path d="M40.1626 25.7372C40.1626 25.7372 40.1466 25.7156 40.1653 25.7062C40.1653 25.7062 40.184 25.6981 40.1974 25.7244C40.1974 25.7244 40.2428 25.7965 40.2044 25.8952C40.2044 25.8952 40.168 25.9637 40.1857 26.0352C40.1857 26.0352 40.1881 26.0554 40.172 26.0581C40.172 26.0581 40.1566 26.0527 40.1536 26.0379C40.1536 26.0379 40.1319 25.9681 40.1693 25.8999C40.1693 25.8998 40.2148 25.7939 40.1626 25.7372Z" fill="white"/>
<path d="M40.6439 25.4228C40.6439 25.4228 40.8899 25.2846 41.0931 25.4464C41.0931 25.4464 41.0724 25.3565 40.917 25.317C40.917 25.317 40.8329 25.0797 40.5976 25.1012C40.5976 25.1012 40.6938 25.2163 40.8222 25.3134C40.8222 25.3134 40.6867 25.3274 40.6439 25.4228Z" fill="black"/>
<path d="M40.8257 24.7729C40.8257 24.7729 40.9928 24.8964 41.0608 24.9791C41.0608 24.9791 41.1288 24.8946 41.2179 24.8433C41.2179 24.8433 41.1153 24.8298 41.0608 24.876C41.0608 24.876 40.9754 24.7933 40.8257 24.7729Z" fill="black"/>
<path d="M39.8561 25.3027C39.8561 25.3027 39.8383 25.2416 39.8811 25.1768C39.8811 25.1768 39.9096 25.1301 39.8989 25.069" stroke="black" stroke-width="0.0475345" stroke-miterlimit="10"/>
<path d="M41.6493 21.463C41.6493 21.463 41.9095 21.445 41.9523 21.2437" stroke="black" stroke-width="0.0475345" stroke-miterlimit="10"/>
<path d="M42.4087 21.1107C42.4087 21.1107 42.318 21.1071 42.236 21.1898C42.236 21.1898 42.1734 21.2833 42.0842 21.2724" stroke="black" stroke-width="0.0475345" stroke-miterlimit="10"/>
<path d="M41.2643 20.6972C41.2643 20.6972 41.3997 20.6972 41.4746 20.6325C41.4746 20.6325 41.5531 20.5786 41.5994 20.6648C41.5994 20.6648 41.6707 20.787 41.5388 20.841C41.5388 20.841 41.3748 20.9237 41.6351 21.0891C41.6351 21.0891 41.3249 20.9776 41.4497 20.8266C41.4497 20.8266 41.5851 20.7296 41.5352 20.6936C41.5352 20.6936 41.521 20.6648 41.4675 20.7008C41.414 20.7367 41.307 20.7224 41.2643 20.6972Z" fill="black"/>
<path d="M41.4485 17.4233C41.4485 17.4233 41.5097 17.3401 41.4847 17.0902C41.4597 16.8404 41.6766 16.8117 41.7601 16.8835C41.7601 16.8835 41.8463 16.9582 41.767 17.1166C41.7212 17.208 41.6481 17.3264 41.4485 17.4233Z" fill="#64B4D1" stroke="#012169" stroke-width="0.0356494" stroke-miterlimit="2.613"/>
<path d="M41.53 17.2368C41.53 17.2368 41.6113 17.1493 41.5725 16.9595C41.5725 16.9595 41.5723 16.9408 41.583 16.9396C41.583 16.9396 41.6028 16.9346 41.6061 16.9533C41.6061 16.9533 41.6497 17.1556 41.558 17.2656C41.558 17.2656 41.5412 17.2818 41.53 17.2656C41.53 17.2655 41.5177 17.2539 41.53 17.2368Z" fill="white"/>
<path d="M41.3792 17.3324C41.3792 17.3324 41.3728 17.2317 41.1988 17.0606C41.0247 16.8894 41.1678 16.7317 41.2744 16.733C41.2744 16.733 41.3849 16.7348 41.4246 16.903C41.4476 17.0003 41.467 17.1347 41.3792 17.3324Z" fill="#64B4D1" stroke="#012169" stroke-width="0.0356494" stroke-miterlimit="2.613"/>
<path d="M41.3521 17.1135C41.3521 17.1135 41.3552 16.9901 41.1976 16.8614C41.1976 16.8614 41.1848 16.8464 41.1921 16.8384C41.1921 16.8384 41.2038 16.8217 41.219 16.8346C41.219 16.8346 41.3888 16.9704 41.3929 17.1188C41.3929 17.1188 41.391 17.1427 41.3715 17.1368C41.3715 17.1367 41.3542 17.1353 41.3521 17.1135Z" fill="white"/>
<path d="M41.1428 17.2567C41.1428 17.2567 41.0973 17.1747 40.8823 17.0984C40.6674 17.0221 40.7254 16.8343 40.8159 16.7941C40.8159 16.7941 40.9098 16.7528 41.0103 16.8787C41.0684 16.9515 41.1382 17.0567 41.1428 17.2567Z" fill="#64B4D1" stroke="#012169" stroke-width="0.0356494" stroke-miterlimit="2.613"/>
<path d="M41.0487 17.1059C41.0487 17.1059 40.9998 16.9928 40.803 16.9432C40.803 16.9432 40.7851 16.9351 40.7884 16.9248C40.7884 16.9248 40.7919 16.9046 40.8111 16.9099C40.8111 16.9099 41.0219 16.9606 41.0878 17.0933C41.0878 17.0933 41.0961 17.1158 41.076 17.1188C41.076 17.1188 41.0597 17.1249 41.0487 17.1059Z" fill="white"/>
<path d="M41.2775 17.3389C41.2775 17.3389 41.1773 17.3671 40.9471 17.256C40.7169 17.1449 40.616 17.3382 40.6564 17.4416C40.6564 17.4416 40.6986 17.5486 40.8767 17.5299C40.9796 17.519 41.1174 17.4921 41.2775 17.3389Z" fill="#64B4D1" stroke="#012169" stroke-width="0.0356494" stroke-miterlimit="2.613"/>
<path d="M40.7422 17.4123C40.7422 17.4123 40.8466 17.4767 41.036 17.4034C41.036 17.4034 41.0553 17.3997 41.0584 17.4101C41.0584 17.4101 41.067 17.4287 41.0482 17.4355C41.0482 17.4355 40.8467 17.5158 40.7173 17.4452C40.7173 17.4452 40.6976 17.4316 40.7124 17.4176C40.7125 17.4176 40.7224 17.4031 40.7422 17.4123Z" fill="white"/>
<path d="M40.9407 16.6113C40.9407 16.6113 41.0557 16.6671 41.029 16.8019" stroke="black" stroke-width="0.0475345" stroke-miterlimit="2.613"/>
<path d="M41.4488 16.6302C41.4488 16.6302 41.4938 16.7726 41.4441 16.8493" stroke="black" stroke-width="0.0475345" stroke-miterlimit="10"/>
<path d="M33.5172 17.4233C33.5172 17.4233 33.456 17.3401 33.481 17.0902C33.506 16.8404 33.2891 16.8117 33.2057 16.8835C33.2057 16.8835 33.1195 16.9582 33.1988 17.1166C33.2445 17.208 33.3176 17.3264 33.5172 17.4233Z" fill="#64B4D1" stroke="#012169" stroke-width="0.0356494" stroke-miterlimit="2.613"/>
<path d="M33.4356 17.2368C33.4356 17.2368 33.3543 17.1493 33.3931 16.9595C33.3931 16.9595 33.3934 16.9408 33.3826 16.9396C33.3826 16.9396 33.3629 16.9346 33.3596 16.9533C33.3596 16.9533 33.3159 17.1556 33.4077 17.2656C33.4077 17.2656 33.4245 17.2818 33.4357 17.2656C33.4356 17.2655 33.448 17.2539 33.4356 17.2368Z" fill="white"/>
<path d="M33.5864 17.3324C33.5864 17.3324 33.5928 17.2317 33.7669 17.0606C33.941 16.8894 33.7978 16.7317 33.6912 16.733C33.6912 16.733 33.5808 16.7348 33.541 16.903C33.5181 17.0003 33.4986 17.1347 33.5864 17.3324Z" fill="#64B4D1" stroke="#012169" stroke-width="0.0356494" stroke-miterlimit="2.613"/>
<path d="M33.6136 17.1135C33.6136 17.1135 33.6105 16.9901 33.7681 16.8614C33.7681 16.8614 33.7809 16.8464 33.7736 16.8384C33.7736 16.8384 33.7619 16.8217 33.7467 16.8346C33.7467 16.8346 33.5769 16.9704 33.5728 17.1188C33.5728 17.1188 33.5747 17.1427 33.5942 17.1368C33.5942 17.1367 33.6114 17.1353 33.6136 17.1135Z" fill="white"/>
<path d="M33.8228 17.2567C33.8228 17.2567 33.8683 17.1747 34.0833 17.0984C34.2983 17.0221 34.2402 16.8343 34.1497 16.7941C34.1497 16.7941 34.0558 16.7528 33.9553 16.8787C33.8973 16.9515 33.8274 17.0567 33.8228 17.2567Z" fill="#64B4D1" stroke="#012169" stroke-width="0.0356494" stroke-miterlimit="2.613"/>
<path d="M33.917 17.1059C33.917 17.1059 33.9659 16.9928 34.1627 16.9432C34.1627 16.9432 34.1806 16.9351 34.1773 16.9248C34.1773 16.9248 34.1738 16.9046 34.1546 16.9099C34.1546 16.9099 33.9438 16.9606 33.8779 17.0933C33.8779 17.0933 33.8696 17.1158 33.8897 17.1188C33.8897 17.1188 33.906 17.1249 33.917 17.1059Z" fill="white"/>
<path d="M33.6881 17.3389C33.6881 17.3389 33.7884 17.3671 34.0186 17.256C34.2488 17.1449 34.3496 17.3382 34.3093 17.4416C34.3093 17.4416 34.2671 17.5486 34.0889 17.5299C33.986 17.519 33.8482 17.4921 33.6881 17.3389Z" fill="#64B4D1" stroke="#012169" stroke-width="0.0356494" stroke-miterlimit="2.613"/>
<path d="M34.2234 17.4123C34.2234 17.4123 34.1191 17.4767 33.9297 17.4034C33.9297 17.4034 33.9104 17.3997 33.9072 17.4101C33.9072 17.4101 33.8986 17.4287 33.9174 17.4355C33.9174 17.4355 34.1189 17.5158 34.2483 17.4452C34.2483 17.4452 34.268 17.4316 34.2532 17.4176C34.2531 17.4176 34.2433 17.4031 34.2234 17.4123Z" fill="white"/>
<path d="M34.0249 16.6113C34.0249 16.6113 33.91 16.6671 33.9367 16.8019" stroke="black" stroke-width="0.0475345" stroke-miterlimit="2.613"/>
<path d="M33.5169 16.6302C33.5169 16.6302 33.4719 16.7726 33.5216 16.8493" stroke="black" stroke-width="0.0475345" stroke-miterlimit="10"/>
<path d="M38.5076 15.3224C38.5076 15.3224 38.5804 15.5304 38.549 15.7188C38.5209 15.8873 38.5592 15.9309 38.6201 15.9643C38.6728 15.9931 38.7949 15.9426 38.8096 15.8105C38.8096 15.8105 38.954 16.0923 38.6733 16.2824C38.6733 16.2824 38.4714 16.4064 38.3003 16.2406C38.24 16.1822 38.2134 16.0208 38.2428 15.8712C38.2428 15.8712 38.287 15.6682 38.2134 15.46C38.2134 15.46 38.3283 15.5826 38.2989 15.8273C38.2989 15.8273 38.2401 16.2662 38.565 16.2446C38.565 16.2446 38.7895 16.2419 38.7962 15.9696C38.7962 15.9696 38.712 16.0666 38.6078 16.0343C38.5339 16.0114 38.466 15.9399 38.4781 15.8273C38.4907 15.7091 38.5236 15.5031 38.5076 15.3224Z" fill="black"/>
<path d="M38.1395 16.0433C38.1395 16.0433 38.1216 16.3902 37.8044 16.4747C37.8044 16.4747 37.8489 16.4118 37.7776 16.2392C37.7776 16.2392 37.7081 16.1386 37.7135 15.9822C37.7135 15.9822 37.6125 16.0612 37.7277 16.2698C37.7973 16.3956 37.7367 16.5466 37.7153 16.552C37.6938 16.5574 38.2393 16.4801 38.1395 16.0433Z" fill="black"/>
<path d="M37.7277 15.6982C37.7277 15.6982 37.6511 15.6119 37.6457 15.4123C37.6404 15.2128 37.6029 15.1643 37.5762 15.1409C37.5762 15.1409 37.6154 15.3135 37.6047 15.4195C37.594 15.5255 37.6118 15.5867 37.6261 15.637C37.6261 15.637 37.4531 15.6639 37.3444 15.4123C37.2405 15.1717 37.1358 15.1912 37.0842 15.1929C37.0842 15.1929 37.1444 15.1996 37.266 15.4194C37.3874 15.639 37.4211 15.6838 37.7277 15.6982Z" fill="black"/>
<path d="M36.9185 15.1768C36.9185 15.1768 37.0183 15.4159 37.0219 15.5417C37.0219 15.5417 36.7901 15.4644 36.7277 15.2631C36.7277 15.2631 36.48 15.3476 36.5709 15.6334C36.5709 15.6334 36.357 15.5579 36.2607 15.3835C36.2607 15.3835 36.3802 15.4734 36.4907 15.5129C36.4907 15.5129 36.4782 15.2829 36.7669 15.1966C36.7669 15.1966 36.8099 15.4027 36.9541 15.4518C36.9541 15.4519 36.9434 15.3224 36.9185 15.1768Z" fill="black"/>
<path d="M37.2999 14.767C37.2999 14.767 37.3802 14.8839 37.5442 14.8893C37.6225 14.8918 37.7069 14.8741 37.7884 14.767C37.7884 14.767 37.7777 14.9702 37.5442 14.9719C37.5442 14.9719 37.2999 14.9809 37.2999 14.767Z" fill="black"/>
<path d="M36.2897 16.1556C36.2897 16.1556 36.4113 16.2662 36.4367 16.3026C36.4367 16.3026 36.5223 16.3862 36.5958 16.2781C36.5958 16.2781 36.6894 16.1052 36.8044 16.1098C36.8044 16.1098 36.7228 16.1664 36.6312 16.3298C36.6312 16.3298 36.6065 16.3902 36.5383 16.3969C36.5064 16.4001 36.4661 16.4104 36.4051 16.3467C36.4051 16.3467 36.3525 16.2824 36.2897 16.1556Z" fill="black"/>
<path d="M37.5441 13.9527C37.2999 13.9526 37.5058 14.1414 37.5058 14.1414C37.5111 14.4407 37.271 14.5328 37.1074 14.4461C36.9439 14.3594 37.0718 14.1414 37.0718 14.1414C37.0718 14.1414 36.8873 14.2627 37.0049 14.438C37.1226 14.6133 37.4309 14.535 37.5441 14.3733C37.6573 14.535 37.9657 14.6133 38.0833 14.438C38.201 14.2627 38.0165 14.1414 38.0165 14.1414C38.0165 14.1414 38.1444 14.3594 37.9808 14.4461C37.8173 14.5328 37.5771 14.4407 37.5825 14.1414C37.5824 14.1415 37.7883 13.9526 37.5441 13.9527Z" fill="black"/>
<path d="M37.6921 13.6292C37.6921 13.6292 37.7776 13.7748 37.7589 13.9958C37.7589 13.9958 37.8364 13.7747 37.6921 13.6292Z" fill="black"/>
<path d="M36.9434 13.9715C36.9434 13.9715 36.9247 13.8125 36.7697 13.799C36.7697 13.799 36.9006 13.8934 36.9434 13.9715Z" fill="black"/>
<path d="M38.1466 13.9715C38.1466 13.9715 38.1653 13.8125 38.3204 13.799C38.3204 13.799 38.1894 13.8934 38.1466 13.9715Z" fill="black"/>
<path d="M36.6974 14.2142C36.6974 14.2142 36.8204 14.252 36.8953 14.1603C36.8953 14.1603 36.7535 14.198 36.6974 14.2142Z" fill="black"/>
<path d="M36.299 13.2381C36.299 13.2381 36.4421 13.2219 36.5851 13.435C36.5851 13.435 36.4434 13.5105 36.4086 13.5563C36.4086 13.5563 36.4086 13.4862 36.4782 13.4242C36.4781 13.4242 36.4514 13.3164 36.299 13.2381Z" fill="black"/>
<path d="M38.6947 13.2381C38.6947 13.2381 38.5517 13.2219 38.4086 13.435C38.4086 13.435 38.5504 13.5105 38.5851 13.5563C38.5851 13.5563 38.5851 13.4862 38.5156 13.4242C38.5156 13.4242 38.5423 13.3164 38.6947 13.2381Z" fill="black"/>
<path d="M37.5905 13.3971C37.5905 13.3971 37.7188 13.4323 37.8792 13.3433C37.8792 13.3433 38.0771 13.2381 38.2027 13.3433C38.2027 13.3433 38.0931 13.2945 37.8819 13.3971C37.8819 13.3971 37.6706 13.5129 37.5905 13.3971Z" fill="black"/>
<path d="M37.7242 13.5267C37.7242 13.5267 37.8338 13.3344 38.1681 13.3726C38.1681 13.3726 38.0771 13.6399 37.7242 13.5267Z" fill="white"/>
<path d="M37.9547 13.5508C37.9912 13.5508 38.0208 13.5133 38.0208 13.467C38.0208 13.4207 37.9912 13.3832 37.9547 13.3832C37.9182 13.3832 37.8886 13.4207 37.8886 13.467C37.8886 13.5133 37.9182 13.5508 37.9547 13.5508Z" fill="#784421"/>
<path d="M37.9547 13.5184C37.9764 13.5184 37.994 13.4954 37.994 13.467C37.994 13.4387 37.9764 13.4156 37.9547 13.4156C37.933 13.4156 37.9155 13.4387 37.9155 13.467C37.9155 13.4954 37.933 13.5184 37.9547 13.5184Z" fill="black"/>
<path d="M37.0076 13.1168C37.0076 13.1168 37.2188 13.1303 37.3471 13.2112C37.3471 13.2112 37.4835 13.2921 37.6386 13.1761C37.6386 13.1761 37.8072 13.0791 37.9154 12.9442C37.9154 12.9442 37.6573 13.1222 37.561 13.1492C37.561 13.1492 37.4728 13.0818 37.438 12.9847C37.438 12.9847 37.4514 12.9119 37.5904 12.7771C37.5904 12.7771 37.4033 12.8337 37.3658 12.9928C37.3658 12.9928 37.4006 13.0899 37.4728 13.1654C37.4728 13.1654 37.438 13.1816 37.3471 13.125C37.3471 13.1249 37.1493 13.0575 37.0076 13.1168Z" fill="black"/>
<path d="M37.5442 14.3854C37.3614 14.5432 37.5442 14.527 37.5442 14.527C37.5442 14.527 37.7269 14.5432 37.5442 14.3854Z" fill="black"/>
<path d="M37.4384 13.3971C37.4384 13.3971 37.31 13.4323 37.1496 13.3433C37.1496 13.3433 36.9517 13.2381 36.826 13.3433C36.826 13.3433 36.9357 13.2945 37.1469 13.3971C37.147 13.3971 37.3582 13.5129 37.4384 13.3971Z" fill="black"/>
<path d="M37.3047 13.5267C37.3047 13.5267 37.1951 13.3344 36.8608 13.3726C36.8608 13.3726 36.9518 13.6399 37.3047 13.5267Z" fill="white"/>
<path d="M37.0741 13.5508C37.1107 13.5508 37.1402 13.5133 37.1402 13.467C37.1402 13.4207 37.1107 13.3832 37.0741 13.3832C37.0376 13.3832 37.0081 13.4207 37.0081 13.467C37.0081 13.5133 37.0376 13.5508 37.0741 13.5508Z" fill="#784421"/>
<path d="M37.0742 13.5184C37.0958 13.5184 37.1134 13.4954 37.1134 13.467C37.1134 13.4387 37.0958 13.4156 37.0742 13.4156C37.0525 13.4156 37.0349 13.4387 37.0349 13.467C37.0349 13.4954 37.0525 13.5184 37.0742 13.5184Z" fill="black"/>
<path d="M44 11.7971V23.9131C44 27.1494 37.5303 28.2009 37.5303 28.2009C37.5303 28.2009 31.0607 27.1494 31.0607 23.9131V11.7971H44Z" stroke="black" stroke-width="0.114444"/>
<mask id="mask1_1_36639" style="mask-type:alpha" maskUnits="userSpaceOnUse" x="2" y="2" width="24" height="18">
<rect x="2" y="2" width="24" height="18" fill="#C4C4C4"/>
</mask>
<g mask="url(#mask1_1_36639)">
<rect x="2" y="2" width="24" height="18" fill="#2E50A6"/>
<path d="M2 2L26 20L2 2ZM26 2L2 20L26 2Z" fill="black"/>
<path d="M26 2L2 20M2 2L26 20L2 2Z" stroke="white" stroke-width="2.4"/>
<path d="M2 2L26 20L2 2ZM26 2L2 20L26 2Z" fill="black"/>
<path d="M26 2L2 20M2 2L26 20L2 2Z" stroke="#EE5757" stroke-width="1.6"/>
<path d="M14 2V23V2ZM2 11H30H2Z" fill="black"/>
<path d="M2 11H30M14 2V23V2Z" stroke="white" stroke-width="4"/>
<path d="M14 2V23V2ZM2 11H30H2Z" fill="black"/>
<path d="M2 11H30M14 2V23V2Z" stroke="#EE5757" stroke-width="2.4"/>
</g>
</g>
<path d="M11.7035 1.61228C6.53056 2.04084 2.23921 5.77712 1.57724 11.0101C1.25164 13.5841 1 16.6548 1 20C1 23.3452 1.25164 26.4159 1.57724 28.9899C2.23922 34.2229 6.53056 37.9592 11.7035 38.3877C15.5784 38.7087 20.5852 39 26 39C31.4148 39 36.4216 38.7087 40.2965 38.3877C45.4694 37.9592 49.7608 34.2229 50.4228 28.9899C50.7484 26.4159 51 23.3452 51 20C51 16.6548 50.7484 13.5841 50.4228 11.0101C49.7608 5.77712 45.4694 2.04084 40.2965 1.61228C36.4216 1.29127 31.4148 1 26 1C20.5852 1 15.5784 1.29127 11.7035 1.61228Z" stroke="#E6E6FA" stroke-width="2"/>
</svg>
