<svg width="52" height="40" viewBox="0 0 52 40" fill="none" xmlns="http://www.w3.org/2000/svg">
<mask id="mask0_1_41609" style="mask-type:alpha" maskUnits="userSpaceOnUse" x="2" y="2" width="48" height="36">
<path d="M2.56934 11.1356C3.16681 6.41247 7.0415 3.00193 11.7861 2.60887C15.6412 2.28949 20.6196 2 26 2C31.3804 2 36.3588 2.28949 40.2139 2.60887C44.9585 3.00193 48.8332 6.41247 49.4307 11.1356C49.752 13.6759 50 16.704 50 20C50 23.296 49.752 26.3241 49.4307 28.8644C48.8332 33.5875 44.9585 36.9981 40.2139 37.3911C36.3588 37.7105 31.3804 38 26 38C20.6196 38 15.6412 37.7105 11.7861 37.3911C7.0415 36.9981 3.16681 33.5875 2.56934 28.8644C2.248 26.3241 2 23.296 2 20C2 16.704 2.248 13.6759 2.56934 11.1356Z" fill="#00D0BF"/>
</mask>
<g mask="url(#mask0_1_41609)">
<rect x="2" y="2" width="48" height="12" fill="#EE5757"/>
<rect x="2" y="2" width="16" height="36" fill="#2E50A6"/>
<rect x="18" y="2" width="16" height="36" fill="#FCD95E"/>
<path fill-rule="evenodd" clip-rule="evenodd" d="M26.0973 12.3016C26.1052 12.28 26.1131 12.2584 26.121 12.2369L26.125 12.3122L26.129 12.2369C26.1369 12.2584 26.1449 12.28 26.1528 12.3016C26.666 13.7017 27.1978 15.1522 28.3162 16.2667C27.9637 16.1505 27.3468 16.0463 26.9502 16.0564V22.0289L28.6366 22.2793C28.6967 22.2733 28.7168 22.1791 28.7168 22.051C28.879 20.1963 29.3176 18.6381 29.8223 17.0258C29.8335 16.9576 29.9024 16.83 29.9776 16.6906C30.1454 16.3796 30.3449 16.0101 30.0046 16.1124C29.988 16.1147 29.9257 16.1367 29.8465 16.1648C29.6388 16.2384 29.3143 16.3534 29.3897 16.2607C30.287 15.3313 31.5989 14.6624 32.8727 14.4641C32.9849 14.436 33.051 14.4921 32.9508 14.6223C31.2604 17.224 29.8464 20.2944 29.8584 23.9377C29.5302 23.9377 28.9685 23.8407 28.4063 23.7436C27.8434 23.6464 27.2799 23.5491 26.9502 23.5491V27.7632H26.119L25.2998 27.7631V23.5491C24.9701 23.5491 24.4067 23.6464 23.8437 23.7436C23.2816 23.8407 22.7199 23.9377 22.3917 23.9377C22.4037 20.2944 20.9896 17.224 19.2992 14.6223C19.1991 14.4921 19.2652 14.436 19.3773 14.4641C20.6512 14.6624 21.963 15.3313 22.8603 16.2606C22.9357 16.3534 22.6113 16.2384 22.4036 16.1648C22.3243 16.1367 22.262 16.1146 22.2455 16.1124C21.9052 16.0101 22.1046 16.3796 22.2725 16.6906C22.3477 16.83 22.4166 16.9576 22.4277 17.0257C22.9324 18.6381 23.3711 20.1963 23.5333 22.051C23.5333 22.1791 23.5533 22.2733 23.6134 22.2793L25.2998 22.0289V16.0564C24.9033 16.0463 24.2864 16.1505 23.9339 16.2667C25.0523 15.1522 25.584 13.7017 26.0973 12.3016Z" fill="#2C2929"/>
<rect x="34" y="2" width="16" height="36" fill="#2E50A6"/>
</g>
<path d="M11.7035 1.61228C6.53056 2.04084 2.23921 5.77712 1.57724 11.0101C1.25164 13.5841 1 16.6548 1 20C1 23.3452 1.25164 26.4159 1.57724 28.9899C2.23922 34.2229 6.53056 37.9592 11.7035 38.3877C15.5784 38.7087 20.5852 39 26 39C31.4148 39 36.4216 38.7087 40.2965 38.3877C45.4694 37.9592 49.7608 34.2229 50.4228 28.9899C50.7484 26.4159 51 23.3452 51 20C51 16.6548 50.7484 13.5841 50.4228 11.0101C49.7608 5.77712 45.4694 2.04084 40.2965 1.61228C36.4216 1.29127 31.4148 1 26 1C20.5852 1 15.5784 1.29127 11.7035 1.61228Z" stroke="#E6E6FA" stroke-width="2"/>
</svg>
