<svg width="52" height="40" viewBox="0 0 52 40" fill="none" xmlns="http://www.w3.org/2000/svg">
<mask id="mask0_1_41621" style="mask-type:alpha" maskUnits="userSpaceOnUse" x="2" y="2" width="48" height="36">
<path d="M2.56934 11.1356C3.16681 6.41247 7.0415 3.00193 11.7861 2.60887C15.6412 2.28949 20.6196 2 26 2C31.3804 2 36.3588 2.28949 40.2139 2.60887C44.9585 3.00193 48.8332 6.41247 49.4307 11.1356C49.752 13.6759 50 16.704 50 20C50 23.296 49.752 26.3241 49.4307 28.8644C48.8332 33.5875 44.9585 36.9981 40.2139 37.3911C36.3588 37.7105 31.3804 38 26 38C20.6196 38 15.6412 37.7105 11.7861 37.3911C7.0415 36.9981 3.16681 33.5875 2.56934 28.8644C2.248 26.3241 2 23.296 2 20C2 16.704 2.248 13.6759 2.56934 11.1356Z" fill="#00D0BF"/>
</mask>
<g mask="url(#mask0_1_41621)">
<rect x="2" y="2" width="48" height="36" fill="#FCD95E"/>
<path d="M0 17V11L52 30V36L0 17Z" fill="black"/>
<path d="M0 11V5L52 24V30L0 11Z" fill="white"/>
<path d="M24.7628 29.3861C23.7977 29.2607 22.9128 28.96 22.2982 28.548C22.179 28.468 22.0669 28.4026 22.0494 28.4026C22.0315 28.4026 22.017 28.4914 22.017 28.6012C22.017 28.9122 21.8894 29.0689 21.5684 29.1504C21.2613 29.2285 20.7927 29.0708 20.4128 28.7623C20.0195 28.4426 19.5654 28.1985 19.181 28.1009C18.8645 28.0199 18.4442 28.0331 18.1406 28.1326C17.9995 28.179 17.839 28.2444 17.7832 28.2781C17.7279 28.3118 17.6655 28.3391 17.6456 28.3391C17.5918 28.3391 17.5992 28.0047 17.6556 27.8978C17.7298 27.7577 17.9128 27.6196 18.1262 27.5435C18.2338 27.5049 18.3221 27.4556 18.3221 27.4336C18.3221 27.4117 18.2857 27.3311 18.2413 27.2555C18.0967 27.0075 18.1561 26.7673 18.4083 26.5784C18.6665 26.3851 19.1037 26.352 19.4901 26.496C19.5873 26.5321 19.678 26.5618 19.6915 26.5618C19.7423 26.5618 19.7114 26.492 19.5713 26.2924C19.4098 26.061 19.3779 25.9468 19.3979 25.6715C19.4238 25.323 19.7139 25.0379 20.0693 25.0125C20.3595 24.992 20.5399 25.0877 20.9682 25.487C22.2468 26.681 23.6372 27.3389 25.2588 27.5171C25.6681 27.562 26.4916 27.5381 26.9747 27.4668C28.4338 27.2516 29.9039 26.533 31.052 25.4743C31.37 25.1809 31.5231 25.1033 31.7838 25.1024C32.0106 25.1014 32.1697 25.1731 32.3322 25.3489C32.4802 25.5099 32.5306 25.6627 32.5146 25.9073C32.5042 26.064 32.4782 26.1411 32.383 26.2929C32.2424 26.5169 32.2664 26.5374 32.5445 26.432C32.9204 26.2885 33.3835 26.3549 33.6333 26.5872C33.8531 26.7918 33.8741 26.9963 33.7031 27.2735C33.6408 27.3751 33.5899 27.4702 33.5899 27.4854C33.5899 27.5132 33.6373 27.5264 33.8656 27.5625C34.1642 27.6094 34.3352 27.8266 34.3352 28.1585C34.3352 28.2581 34.3227 28.3391 34.3073 28.3391C34.2923 28.3391 34.1791 28.2986 34.056 28.2488C33.708 28.1082 33.5101 28.0721 33.1034 28.0745C32.7938 28.0765 32.6871 28.0907 32.4712 28.1595C32.1407 28.2654 31.7873 28.4694 31.4992 28.7208C31.1816 28.9981 30.9817 29.0854 30.6726 29.083C30.3855 29.0801 30.1891 28.9986 30.0854 28.838C30.0301 28.7521 30.0221 28.6998 30.0355 28.5056C30.0445 28.3791 30.0425 28.2756 30.032 28.2756C30.0211 28.2756 29.9094 28.345 29.7833 28.4304C29.4523 28.653 29.2414 28.7633 28.8625 28.9102C27.707 29.3578 26.0395 29.5516 24.7628 29.3861Z" fill="#CF1126"/>
<path d="M25.2912 27.2115C23.3679 27.0307 21.5278 26.0499 20.4089 24.4948C19.194 22.8725 18.8111 20.7305 19.182 18.772C19.3791 17.8803 19.7766 16.9881 20.4554 16.3532C19.9145 17.476 19.7317 18.763 20.0202 19.9794C20.4683 22.408 22.5644 24.4638 25.0721 24.8195C26.0641 25.1007 27.0904 24.8037 28.038 24.5025C30.1285 23.7811 31.7209 21.8382 31.9152 19.6662C32.0816 18.4909 31.8973 17.2689 31.3566 16.2047C31.6648 16.3642 32.0538 16.9899 32.2832 17.4107C33.081 18.924 33.1174 20.7375 32.6478 22.3524C32.0107 24.4073 30.4062 26.2075 28.2853 26.8618C27.3228 27.1697 26.2991 27.2636 25.2913 27.2117L25.2912 27.2115Z" fill="#CF1126"/>
<path d="M15.6042 24.5136C15.4781 24.4943 15.3392 24.6157 15.3867 24.7429C15.4776 24.8714 15.6341 24.9343 15.7754 24.9957C16.114 25.1286 16.4823 25.1804 16.8458 25.1717C16.7205 25.1714 16.8888 25.173 16.9356 25.1717C17.2234 25.1725 17.5097 25.1217 17.7802 25.0262C17.9307 24.9744 18.1224 24.9274 18.1841 24.7645C18.2442 24.6583 18.1352 24.5523 18.0253 24.5736C17.8721 24.6063 17.729 24.6743 17.5771 24.713C17.2495 24.8035 16.9044 24.8385 16.565 24.8112C16.3168 24.7816 16.0763 24.7038 15.8466 24.609C15.767 24.5746 15.6923 24.5244 15.6041 24.5136L15.6042 24.5136Z" fill="#CF1126"/>
<path d="M15.7443 24.007C15.6168 23.9884 15.5071 24.132 15.5602 24.2466C15.6582 24.3856 15.8228 24.4596 15.9768 24.5247C16.2445 24.6296 16.5353 24.6735 16.823 24.6651C16.7137 24.6648 16.8605 24.6664 16.901 24.6651C17.1456 24.6654 17.389 24.618 17.6151 24.5269C17.7534 24.4742 17.9227 24.4232 17.9802 24.2742C18.0249 24.1923 17.9909 24.0732 17.8855 24.0668C17.7894 24.0622 17.7064 24.1221 17.6174 24.149C17.2942 24.2799 16.9384 24.3354 16.5898 24.3059C16.3726 24.2785 16.1651 24.2001 15.9682 24.1091C15.8942 24.0741 15.8276 24.0195 15.7443 24.007L15.7443 24.007Z" fill="#CF1126"/>
<path d="M15.9163 23.5213C15.8071 23.5085 15.7319 23.6291 15.7503 23.7254C15.7666 23.8101 15.8442 23.8669 15.9083 23.9188C16.174 24.109 16.5107 24.19 16.8368 24.1794C16.7101 24.179 17.0068 24.1815 16.9163 24.1791C17.1229 24.1783 17.327 24.1288 17.5128 24.0412C17.6369 23.9884 17.7826 23.9272 17.8244 23.7885C17.8444 23.7239 17.8569 23.631 17.7825 23.5947C17.7045 23.552 17.6271 23.6177 17.5562 23.6443C17.3175 23.7632 17.0515 23.8294 16.7832 23.8282C16.5514 23.8359 16.3329 23.7404 16.1317 23.6375C16.0588 23.6011 15.9986 23.5378 15.9163 23.5213L15.9163 23.5213Z" fill="#CF1126"/>
<path d="M14.0842 16.3522C13.9218 16.5114 14.0458 16.8048 14.0371 17.0133C14.1212 17.6556 14.2257 18.306 14.4706 18.9106C14.7705 19.5014 15.4074 19.8172 15.7933 20.3393C15.9313 20.5909 15.8823 20.8935 15.9114 21.1688C15.9342 21.9188 15.9271 22.6694 15.9137 23.4196C16.2596 23.5895 16.6352 23.7606 17.0331 23.6952C17.269 23.6401 17.7067 23.6058 17.7558 23.3758C17.7367 22.0823 17.7244 20.7883 17.7068 19.4949C17.5727 19.0987 17.1609 18.8936 16.8529 18.64C16.5987 18.3947 16.3622 18.1307 16.1456 17.8542C16.0149 17.6386 15.5041 17.5609 15.6889 17.936C15.7973 18.2608 16.0738 18.5028 16.143 18.8441C16.1581 19.0311 16.3862 19.3751 16.1915 19.4842C16.0677 19.2781 15.8883 19.1027 15.659 18.9981C15.4381 18.8368 15.0728 18.7697 14.9931 18.4848C14.9345 18.0806 14.7231 17.7144 14.4503 17.4116C14.5206 17.0486 14.4506 16.5946 14.1301 16.3626L14.0842 16.3522H14.0842L14.0842 16.3522Z" fill="#CF1126"/>
<path d="M14.5783 16.4249C14.4306 16.4483 14.4356 16.6326 14.5039 16.7295C14.5766 16.9388 14.5964 17.1661 14.5571 17.384C14.8197 17.685 15.023 18.0451 15.0843 18.4403C15.0858 18.5889 15.2454 18.638 15.349 18.7114C15.5918 18.8628 15.8648 18.9727 16.0811 19.1621C16.1266 19.2098 16.1609 19.2611 16.1287 19.1638C16.095 19.0395 16.0776 18.9023 15.9782 18.8082C15.8418 18.6648 15.6716 18.5367 15.473 18.4929C15.4565 18.2921 15.3588 18.1077 15.2686 17.93C15.1685 17.7602 15.064 17.5783 14.8926 17.4681C14.8995 17.1705 14.8946 16.8582 14.7637 16.5836C14.7254 16.513 14.6689 16.4292 14.5783 16.4249H14.5783Z" fill="#CF1126"/>
<path d="M14.9915 16.5436C14.8886 16.5735 14.9083 16.6978 14.9408 16.7738C14.9901 16.9845 14.9979 17.202 14.9938 17.4173C15.1828 17.5638 15.301 17.7761 15.4087 17.9829C15.4761 18.121 15.5401 18.2636 15.566 18.4156C15.7193 18.4653 15.8535 18.5594 15.9733 18.6634C15.9258 18.5228 15.8199 18.4139 15.7488 18.2854C15.6714 18.1518 15.5976 18.0125 15.5648 17.8611C15.4173 17.707 15.3361 17.4887 15.3684 17.2777C15.375 17.0446 15.2981 16.8037 15.1388 16.628C15.0986 16.5893 15.0507 16.5465 14.9915 16.5436L14.9915 16.5436Z" fill="#CF1126"/>
<path d="M15.4616 16.6095C15.4057 16.6192 15.3716 16.6713 15.3417 16.7138C15.3301 16.7564 15.3834 16.8022 15.3919 16.8485C15.4574 17.0092 15.4821 17.1855 15.4625 17.3574C15.4582 17.4795 15.5028 17.5988 15.5664 17.7023C15.5847 17.626 15.657 17.5711 15.7352 17.5636C15.7637 17.5587 15.8055 17.5728 15.789 17.5303C15.7691 17.2967 15.7327 17.0618 15.6493 16.8411C15.617 16.7623 15.5803 16.6793 15.5106 16.6254C15.4964 16.6155 15.4795 16.6071 15.4616 16.6095L15.4616 16.6095Z" fill="#CF1126"/>
<path d="M36.3958 24.5136C36.5219 24.4943 36.6608 24.6157 36.6133 24.7429C36.5224 24.8714 36.3659 24.9343 36.2246 24.9957C35.886 25.1286 35.5177 25.1804 35.1542 25.1717C35.2795 25.1714 35.1112 25.173 35.0644 25.1717C34.7766 25.1725 34.4903 25.1217 34.2198 25.0262C34.0693 24.9744 33.8776 24.9274 33.8159 24.7645C33.7558 24.6583 33.8648 24.5523 33.9747 24.5736C34.1279 24.6063 34.271 24.6743 34.4229 24.713C34.7505 24.8035 35.0956 24.8385 35.435 24.8112C35.6832 24.7816 35.9237 24.7038 36.1534 24.609C36.233 24.5746 36.3077 24.5244 36.3959 24.5136L36.3958 24.5136Z" fill="#CF1126"/>
<path d="M36.2557 24.007C36.3832 23.9884 36.4929 24.132 36.4398 24.2466C36.3418 24.3856 36.1772 24.4596 36.0232 24.5247C35.7555 24.6296 35.4647 24.6735 35.177 24.6651C35.2863 24.6648 35.1395 24.6664 35.099 24.6651C34.8544 24.6654 34.611 24.618 34.3849 24.5269C34.2466 24.4742 34.0773 24.4232 34.0198 24.2742C33.9751 24.1923 34.0091 24.0732 34.1145 24.0668C34.2106 24.0622 34.2936 24.1221 34.3826 24.149C34.7058 24.2799 35.0616 24.3354 35.4102 24.3059C35.6274 24.2785 35.8349 24.2001 36.0318 24.1091C36.1058 24.0741 36.1724 24.0195 36.2557 24.007L36.2557 24.007Z" fill="#CF1126"/>
<path d="M36.0837 23.5213C36.1929 23.5085 36.2681 23.6291 36.2497 23.7254C36.2334 23.8101 36.1558 23.8669 36.0917 23.9188C35.826 24.109 35.4893 24.19 35.1632 24.1794C35.2899 24.179 34.9932 24.1815 35.0837 24.1791C34.8771 24.1783 34.673 24.1288 34.4872 24.0412C34.3631 23.9884 34.2174 23.9272 34.1756 23.7885C34.1556 23.7239 34.1431 23.631 34.2175 23.5947C34.2955 23.552 34.3729 23.6177 34.4438 23.6443C34.6825 23.7632 34.9485 23.8294 35.2168 23.8282C35.4486 23.8359 35.6671 23.7404 35.8683 23.6375C35.9412 23.6011 36.0014 23.5378 36.0837 23.5213L36.0837 23.5213Z" fill="#CF1126"/>
<path d="M37.9158 16.3522C38.0782 16.5114 37.9542 16.8048 37.9629 17.0133C37.8788 17.6556 37.7743 18.306 37.5294 18.9106C37.2295 19.5014 36.5926 19.8172 36.2067 20.3393C36.0687 20.5909 36.1177 20.8935 36.0886 21.1688C36.0658 21.9188 36.0729 22.6694 36.0863 23.4196C35.7404 23.5895 35.3648 23.7606 34.9669 23.6952C34.731 23.6401 34.2933 23.6058 34.2442 23.3758C34.2633 22.0823 34.2756 20.7883 34.2932 19.4949C34.4273 19.0987 34.8391 18.8936 35.1471 18.64C35.4013 18.3947 35.6378 18.1307 35.8544 17.8542C35.9851 17.6386 36.4959 17.5609 36.3111 17.936C36.2027 18.2608 35.9262 18.5028 35.857 18.8441C35.8419 19.0311 35.6138 19.3751 35.8085 19.4842C35.9323 19.2781 36.1117 19.1027 36.341 18.9981C36.5619 18.8368 36.9272 18.7697 37.0069 18.4848C37.0655 18.0806 37.2769 17.7144 37.5497 17.4116C37.4794 17.0486 37.5494 16.5946 37.8699 16.3626L37.9158 16.3522H37.9158L37.9158 16.3522Z" fill="#CF1126"/>
<path d="M37.4217 16.4249C37.5694 16.4483 37.5644 16.6326 37.4961 16.7295C37.4234 16.9388 37.4036 17.1661 37.4429 17.384C37.1803 17.685 36.977 18.0451 36.9157 18.4403C36.9142 18.5889 36.7546 18.638 36.651 18.7114C36.4082 18.8628 36.1352 18.9727 35.9189 19.1621C35.8734 19.2098 35.8391 19.2611 35.8713 19.1638C35.905 19.0395 35.9224 18.9023 36.0218 18.8082C36.1582 18.6648 36.3284 18.5367 36.527 18.4929C36.5435 18.2921 36.6412 18.1077 36.7314 17.93C36.8315 17.7602 36.936 17.5783 37.1074 17.4681C37.1005 17.1705 37.1054 16.8582 37.2363 16.5836C37.2746 16.513 37.3311 16.4292 37.4217 16.4249H37.4217Z" fill="#CF1126"/>
<path d="M37.0085 16.5436C37.1114 16.5735 37.0917 16.6978 37.0592 16.7738C37.0099 16.9845 37.0021 17.202 37.0062 17.4173C36.8172 17.5638 36.699 17.7761 36.5913 17.9829C36.5239 18.121 36.4599 18.2636 36.434 18.4156C36.2807 18.4653 36.1465 18.5594 36.0267 18.6634C36.0742 18.5228 36.1801 18.4139 36.2512 18.2854C36.3286 18.1518 36.4024 18.0125 36.4352 17.8611C36.5827 17.707 36.6639 17.4887 36.6316 17.2777C36.625 17.0446 36.7019 16.8037 36.8612 16.628C36.9014 16.5893 36.9493 16.5465 37.0085 16.5436L37.0085 16.5436Z" fill="#CF1126"/>
<path d="M36.5384 16.6095C36.5943 16.6192 36.6284 16.6713 36.6583 16.7138C36.6699 16.7564 36.6166 16.8022 36.6081 16.8485C36.5426 17.0092 36.5179 17.1855 36.5375 17.3574C36.5418 17.4795 36.4972 17.5988 36.4336 17.7023C36.4153 17.626 36.343 17.5711 36.2648 17.5636C36.2363 17.5587 36.1945 17.5728 36.211 17.5303C36.2309 17.2967 36.2673 17.0618 36.3507 16.8411C36.383 16.7623 36.4197 16.6793 36.4894 16.6254C36.5036 16.6155 36.5205 16.6071 36.5384 16.6095L36.5384 16.6095Z" fill="#CF1126"/>
<path d="M25.7563 24.8105C25.0837 24.7478 24.4768 24.2677 24.2693 23.639C24.2805 23.5307 24.4182 23.6996 24.4832 23.7109C24.6054 23.7773 24.7375 23.832 24.8781 23.8405C25.0554 23.9151 25.1651 24.0862 25.3343 24.1755C25.4129 24.2354 25.691 24.3532 25.6393 24.1626C25.5742 24.063 25.5294 23.9368 25.5854 23.8228C25.6798 23.6202 25.8248 23.4438 25.9708 23.2748C26.0781 23.2396 26.15 23.4469 26.2268 23.5167C26.333 23.6768 26.4611 23.8721 26.3986 24.0709C26.3378 24.1445 26.2978 24.366 26.4604 24.2916C26.6609 24.2052 26.8251 24.0601 26.9914 23.9246C27.1369 23.8251 27.3231 23.8181 27.4756 23.7309C27.5463 23.7133 27.6935 23.5749 27.7241 23.6517C27.6406 23.8707 27.5007 24.0669 27.3512 24.2477C27.1089 24.5186 26.7813 24.7224 26.4147 24.7799C26.198 24.8187 25.9757 24.8269 25.7563 24.8105L25.7563 24.8105Z" fill="#CF1126"/>
<path d="M26.5469 24.0412C26.5617 23.909 26.531 23.774 26.462 23.6539C26.3562 23.4427 26.2067 23.2552 26.061 23.07C25.9235 22.9912 25.8472 23.2486 25.7558 23.3224C25.6134 23.5312 25.4346 23.745 25.426 24.0076C25.3459 24.1297 25.1964 23.9079 25.132 23.835C25.009 23.6646 24.9159 23.463 24.9312 23.2499C24.9166 22.9065 24.9839 22.5645 25.1116 22.2453C25.2081 21.9728 25.3647 21.708 25.3488 21.4103C25.3599 21.1863 25.3135 20.9389 25.1281 20.7882C24.9517 20.6527 25.2423 20.6239 25.3346 20.6941C25.4926 20.7045 25.578 20.96 25.7223 20.8968C25.7798 20.7633 25.7913 20.6041 25.9098 20.5C26.0261 20.344 26.1477 20.5662 26.1875 20.6702C26.2696 20.7616 26.1829 20.9878 26.3162 20.9938C26.476 20.8841 26.59 20.6998 26.7944 20.6597C26.8772 20.6134 27.0189 20.6535 26.9096 20.7468C26.7583 20.8856 26.6291 21.0592 26.6016 21.2657C26.5553 21.5248 26.6215 21.7875 26.7368 22.0208C26.9585 22.4792 27.1299 22.9969 27.0178 23.5069C26.9657 23.7335 26.8085 23.9289 26.6174 24.0604C26.5932 24.0747 26.5551 24.0737 26.5469 24.0412V24.0412Z" fill="#CF1126"/>
<path d="M26.3076 20.5955C26.2351 20.4674 26.1469 20.3412 26.0248 20.2541C25.9061 20.2539 25.8329 20.4005 25.7523 20.4773C25.6957 20.5803 25.627 20.7525 25.4878 20.6178C25.2662 20.4913 25.227 20.2139 25.2285 19.9853C25.2145 19.6148 25.3669 19.2691 25.5023 18.9316C25.5884 18.7204 25.5672 18.4826 25.5146 18.2661C25.4485 18.0176 25.2447 17.8452 25.0879 17.6513C25.0986 17.5763 25.299 17.6173 25.3744 17.6316C25.5419 17.6731 25.642 17.8183 25.7668 17.9208C25.8556 17.8945 25.8194 17.7188 25.8607 17.6361C25.8638 17.5198 26.0219 17.3665 26.0871 17.533C26.1847 17.6388 26.0839 17.8485 26.2101 17.9144C26.3303 17.8709 26.3896 17.7422 26.5026 17.684C26.6137 17.6098 26.7707 17.6016 26.8903 17.6598C26.9324 17.7678 26.7587 17.8577 26.7084 17.9516C26.5064 18.1959 26.4354 18.5329 26.5219 18.8357C26.5905 19.0731 26.712 19.2948 26.754 19.5402C26.8045 19.8161 26.8028 20.1059 26.7298 20.3778C26.6863 20.5429 26.5403 20.6531 26.3896 20.7217C26.3524 20.6878 26.3328 20.638 26.3076 20.5956L26.3076 20.5955Z" fill="#CF1126"/>
<path d="M25.5539 17.533C25.3864 17.413 25.3311 17.2982 25.3311 17.0713C25.3311 16.9551 25.353 16.8921 25.4313 16.7867C25.5464 16.6305 25.5255 16.5812 25.3625 16.6271C25.1003 16.7008 24.9751 16.6334 24.9662 16.4147C24.9622 16.3078 24.9851 16.2625 25.1322 16.0897C25.2498 15.951 25.2927 15.8783 25.2693 15.8554C25.2463 15.8329 25.1072 15.951 24.8216 16.2356C24.5938 16.4626 24.3375 16.6944 24.2523 16.7511C23.7618 17.0752 23.2932 17.1255 23.0793 16.876C22.9696 16.7486 22.9756 16.6769 23.1022 16.5997C23.1606 16.5646 23.2588 16.4836 23.3211 16.4196C23.4681 16.2698 23.9063 15.9603 24.1237 15.8529C24.3002 15.7655 24.342 15.7065 24.2274 15.7065C24.0788 15.7065 23.6022 16.0101 23.2408 16.3352C23.1346 16.4313 22.9816 16.5382 22.9013 16.5729C22.7209 16.651 22.3664 16.6798 22.2089 16.629C22.0977 16.5929 21.8949 16.4055 21.8949 16.3386C21.8949 16.321 21.9412 16.282 21.9975 16.2522C22.0539 16.2229 22.1551 16.1512 22.2219 16.0941C22.511 15.8456 23.0589 15.5898 23.4936 15.5005C23.6317 15.4722 23.5808 15.4038 23.4268 15.4107C23.1282 15.4234 22.5354 15.6953 22.1815 15.9813C21.7667 16.3161 21.1411 16.2844 20.9397 15.9183C20.9048 15.8554 20.8844 15.7963 20.8943 15.787C20.9038 15.7777 21.0269 15.7416 21.168 15.7065C21.3206 15.6689 21.6227 15.5464 21.9113 15.4053C22.3654 15.1837 22.5 15.1364 22.8126 15.0871C22.9532 15.0651 22.9607 14.9977 22.8241 14.9821C22.6481 14.9616 22.3784 15.048 21.9018 15.2774C21.2897 15.5722 21.1182 15.623 20.7956 15.6045C20.5015 15.5869 20.3355 15.5132 20.0967 15.2921C19.9407 15.1471 19.7194 14.779 19.7627 14.7366C19.7732 14.7263 19.845 14.7366 19.9223 14.7585C20.008 14.7834 20.2538 14.8 20.5499 14.8005C20.9641 14.8015 21.0743 14.7908 21.2951 14.7283C21.6645 14.6238 22.1556 14.3793 22.4916 14.1337C23.1341 13.6632 23.6581 13.4743 24.3261 13.4714C24.9427 13.4689 25.3351 13.6085 25.6825 13.9536C25.8002 14.0703 25.9004 14.146 25.9168 14.1298C25.9323 14.1147 25.9492 13.9107 25.9542 13.6764C25.9542 13.6764 26.1357 13.6593 26.1741 13.7091C26.1741 14.0893 26.1785 14.1191 26.2349 14.1191C26.2718 14.1191 26.3111 14.082 26.3356 14.0244C26.3884 13.8999 26.5838 13.7296 26.7927 13.6261C27.2439 13.4021 28.0245 13.3952 28.6516 13.6095C28.9158 13.7003 29.209 13.8624 29.4881 14.0732C29.7683 14.2841 30.3411 14.5662 30.6796 14.6604C31.022 14.7556 31.6257 14.7795 31.9353 14.7107C32.0629 14.6824 32.1826 14.659 32.2015 14.659C32.3157 14.659 32.1213 15.0314 31.8929 15.2496C31.4757 15.6489 30.9328 15.6469 30.1691 15.2437C29.693 14.9928 29.1237 14.8557 29.1237 14.9924C29.1237 15.0207 29.1536 15.0397 29.198 15.0397C29.3635 15.0397 29.6831 15.1486 30.1287 15.3555C30.6108 15.5801 30.8815 15.6748 31.042 15.6748C31.1586 15.6748 31.1621 15.7455 31.0535 15.9017C30.9383 16.0682 30.7429 16.1507 30.4667 16.1502C30.203 16.1492 30.0564 16.0926 29.8206 15.9008C29.4263 15.5796 28.4438 15.2213 28.4817 15.4126C28.4891 15.4507 28.5365 15.4741 28.6377 15.4893C28.9797 15.5405 29.381 15.728 29.7917 16.0291C29.9184 16.1224 30.05 16.2141 30.0834 16.2337C30.1397 16.2659 30.1407 16.2756 30.0963 16.3571C30.0225 16.4919 29.8366 16.5963 29.6352 16.6168C29.3745 16.6432 29.1477 16.567 28.9129 16.3747C28.4173 15.9686 27.9502 15.6748 27.8007 15.6748C27.6786 15.6748 27.7334 15.7406 27.9487 15.8524C28.2319 15.9994 28.523 16.198 28.7374 16.3908C28.8386 16.4826 28.9527 16.5734 28.9906 16.5934C29.0804 16.6403 29.0769 16.7091 28.9782 16.8355C28.8775 16.9644 28.711 17.021 28.4951 16.9985C28.0644 16.9541 27.7284 16.7506 27.2005 16.2141C26.9941 16.0047 26.8101 15.8334 26.7912 15.8334C26.7209 15.8334 26.7623 15.9266 26.8984 16.076C27.0669 16.2605 27.0993 16.3645 27.0355 16.5143C26.9791 16.6471 26.8854 16.6778 26.693 16.6271C26.4961 16.5749 26.4652 16.6222 26.5943 16.7794C26.7867 17.0142 26.7583 17.3017 26.5225 17.4994C26.4492 17.5604 26.3725 17.6106 26.3515 17.6106C26.3311 17.6106 26.2792 17.5584 26.2359 17.4945C26.0843 17.269 25.9512 17.2704 25.8037 17.4984C25.7523 17.5779 25.7089 17.6424 25.7074 17.6419C25.7055 17.6414 25.6362 17.5926 25.5539 17.533Z" fill="#CF1126"/>
<path d="M26.3047 12.9515L26.049 13.1497L25.8196 12.9803V14.3343L26.3047 14.3402V12.9515Z" fill="#CF1126"/>
<path d="M24.7204 11.5467C24.6696 12.1866 24.5036 12.6332 24.2728 13.1258L24.8261 12.6235L25.211 13.0711L25.6277 12.6157L26.0529 13.0003L26.4617 12.6001L26.8865 13.0867L27.2553 12.6865L27.8805 13.1258C27.6537 12.6332 27.3466 12.2159 27.385 11.5228C26.7793 11.9635 25.3401 12.0431 24.7204 11.5467Z" fill="#CF1126"/>
<path d="M25.8201 11.2201C25.5978 11.224 25.3635 11.2269 25.1526 11.2674C25.0066 11.2958 24.874 11.3421 24.7633 11.4188C24.7813 11.8351 26.8072 12.0089 27.3506 11.4266C27.2364 11.3451 27.0968 11.2967 26.9433 11.2674C26.7404 11.2289 26.5161 11.225 26.3032 11.2216C26.3032 11.3358 26.3042 11.4505 26.3042 11.5652L25.8201 11.5637V11.2201Z" fill="#CF1126"/>
<path d="M26.2164 9.09241L25.9019 9.09485V11.5052L26.2229 11.5067L26.2164 9.09241Z" fill="#CF1126"/>
<path d="M26.216 9.15436L26.0958 10.3083L27.3082 10.8882L26.6945 10.0847L27.5325 9.81869L26.216 9.15436Z" fill="#CF1126"/>
<path d="M26.0808 8.8537C25.8969 8.8537 25.7608 8.92106 25.7608 9.00111C25.7608 9.08116 25.8969 9.14901 26.0808 9.14901C26.2648 9.14901 26.3999 9.08116 26.3999 9.00111C26.3999 8.92106 26.2648 8.8537 26.0808 8.8537Z" fill="#CF1126"/>
<path d="M25.526 29.0981C25.7249 29.0337 25.8381 28.9156 25.9193 28.6881C25.9597 28.5749 25.9871 28.4572 25.9801 28.4265C25.9632 28.3537 25.8774 28.3576 25.7827 28.4348C25.7179 28.488 25.7099 28.5148 25.7284 28.6232C25.7757 28.8965 25.6765 28.9644 25.1481 29.02C25.0958 29.0254 24.9442 29.0166 24.8106 29.0005C24.5594 28.9697 24.4696 28.9942 24.5609 29.0684C24.5883 29.0908 24.6581 29.1211 24.7159 29.1352C24.857 29.1709 25.3749 29.1469 25.526 29.0981Z" fill="#F7E017"/>
<path d="M26.6212 29.0527C26.6511 29.0258 26.7538 28.9795 26.8495 28.9492C26.9771 28.9092 27.0429 28.8662 27.0968 28.7876C27.2518 28.5616 27.2229 28.3669 26.9951 28.1043C26.8715 27.9617 26.8166 27.9656 26.7179 28.1238C26.6327 28.2605 26.6347 28.2692 26.7573 28.3005C26.8216 28.3166 26.8834 28.363 26.9173 28.4201C27.0509 28.6466 27.0115 28.7867 26.8136 28.7881C26.6342 28.7896 26.5848 28.8145 26.5365 28.9282C26.511 28.9873 26.4906 29.0502 26.4906 29.0683C26.4906 29.1161 26.5584 29.1078 26.6212 29.0527Z" fill="#F7E017"/>
<path d="M26.2617 28.797C26.2956 28.7071 26.3076 28.5456 26.3036 28.2161C26.3011 27.9652 26.2912 27.7524 26.2812 27.7426C26.2513 27.7133 26.1037 27.8066 26.0843 27.8666C26.0743 27.8978 26.0908 27.9701 26.1207 28.0267C26.1665 28.1141 26.1725 28.1956 26.1586 28.5378C26.1406 28.9702 26.1695 29.043 26.2617 28.797Z" fill="#F7E017"/>
<path d="M25.4183 28.591C25.4363 28.5104 25.4592 28.3454 25.4697 28.2249C25.4801 28.1043 25.5056 27.952 25.5255 27.8861C25.5763 27.7172 25.525 27.6728 25.3889 27.7675L25.2877 27.8383L25.3086 28.0809C25.3281 28.2996 25.2927 28.7071 25.2413 28.8653C25.2274 28.9073 25.2473 28.8965 25.3037 28.8321C25.349 28.7804 25.4009 28.6715 25.4183 28.591Z" fill="#F7E017"/>
<path d="M24.6701 28.7086C24.8521 28.5595 24.8312 28.3049 24.8714 28.0974C24.8673 27.9596 24.9614 27.7942 24.9007 27.6736C24.7306 27.7041 24.6257 27.8618 24.7128 28.0189C24.72 28.2014 24.7134 28.4001 24.6176 28.5614C24.5394 28.6669 24.2915 28.6406 24.3029 28.4911C24.3651 28.2662 24.09 28.3756 23.9826 28.4346C23.8995 28.4912 23.7242 28.4954 23.7851 28.3537C23.7449 28.165 23.497 28.283 23.3623 28.2822C23.2351 28.2799 23.3518 28.0298 23.1692 28.0737C22.83 28.0475 22.4554 28.0767 22.1617 27.876C21.9898 27.795 22.0153 27.5926 22.1048 27.4616C22.2117 27.2827 22.2422 27.059 22.4119 26.9201C22.5798 26.7624 22.2535 26.829 22.18 26.8822C22.0164 26.9698 22.1684 27.1957 22.0344 27.3209C21.9562 27.4508 21.8532 27.6302 21.672 27.6055C21.4108 27.5571 21.2602 27.3192 21.073 27.1597C20.9126 27.1284 21.0028 27.4146 21.0856 27.4748C21.2495 27.5949 21.441 27.6825 21.6385 27.7344C21.8351 27.7036 21.8415 27.9557 22.0096 27.9952C22.3181 28.136 22.6618 28.1781 22.9983 28.1953C23.1305 28.2061 23.0562 28.4366 23.2299 28.391C23.327 28.4157 23.5464 28.3556 23.5574 28.4661C23.4102 28.6372 23.6986 28.6334 23.8054 28.6028C23.9421 28.5823 24.1168 28.5312 24.1529 28.7147C24.267 28.8324 24.4765 28.8151 24.6155 28.7477C24.635 28.7366 24.6534 28.7235 24.67 28.7086L24.6701 28.7086Z" fill="#F7E017"/>
<path d="M21.6909 27.2311C21.7463 27.1622 21.829 27.0231 21.8749 26.9216C21.9203 26.8196 21.9886 26.7039 22.0259 26.6643C22.1137 26.5716 22.0648 26.5145 21.9233 26.5452C21.8485 26.5613 21.8181 26.5882 21.8056 26.6517C21.7632 26.8586 21.6865 27.0705 21.6182 27.1691C21.4945 27.3477 21.4915 27.355 21.5424 27.355C21.5688 27.355 21.6356 27.2994 21.6909 27.2311Z" fill="#F7E017"/>
<path d="M19.8235 26.0849C19.6839 26.0849 19.678 26.1713 19.8141 26.2177C19.8799 26.2401 19.9357 26.2943 19.9806 26.3827C20.1132 26.6409 20.1909 26.6868 20.5429 26.7165L20.7687 26.7365L20.7797 26.8708C20.7852 26.945 20.8031 27.0065 20.8205 27.0065C20.838 27.0065 20.9252 26.9694 21.0135 26.9254C21.179 26.8434 21.336 26.6521 21.336 26.5335C21.336 26.4559 21.2039 26.3719 21.0838 26.3719C21.0304 26.3719 20.9287 26.4139 20.8485 26.471C20.5972 26.6492 20.3285 26.613 20.1815 26.3812C20.0608 26.1898 19.9347 26.0849 19.8235 26.0849ZM21.0429 26.5608C21.1097 26.5608 21.1261 26.6091 21.0897 26.7014C21.0648 26.7649 20.9836 26.7668 20.9591 26.7043C20.9302 26.6306 20.9706 26.5608 21.0429 26.5608Z" fill="#F7E017"/>
<path d="M30.5006 26.2607C30.4094 26.2641 30.3825 26.2836 30.3246 26.3676C30.2299 26.5052 30.2204 26.8034 30.3077 26.9089C30.362 26.9743 30.37 26.9758 30.4852 26.9289C30.6457 26.863 30.6726 26.8654 30.6721 26.9499C30.6711 27.1656 30.355 27.5815 30.024 27.8026C29.9348 27.8622 29.855 27.9286 29.8466 27.9505C29.8226 28.012 29.9453 27.9984 30.0958 27.9232C30.3012 27.8207 30.5709 27.5513 30.6816 27.3389C30.7693 27.1695 30.7818 27.1119 30.7922 26.8156C30.8017 26.5428 30.7942 26.4627 30.7469 26.3719C30.694 26.2699 30.6771 26.2607 30.5445 26.2607C30.5285 26.2607 30.5141 26.2602 30.5006 26.2607ZM30.5116 26.451C30.5804 26.451 30.5923 26.4662 30.6003 26.5628C30.6073 26.6429 30.5928 26.6917 30.5475 26.7317C30.4857 26.7864 30.4807 26.7859 30.4258 26.7044C30.3491 26.5892 30.3964 26.451 30.5116 26.451Z" fill="#F7E017"/>
<path d="M28.9981 28.5343C29.2897 28.3937 29.4617 28.2356 29.5723 28.0067C29.6247 27.8978 29.6676 27.7953 29.6676 27.7777C29.6676 27.7382 29.524 27.6728 29.4377 27.6728C29.352 27.6728 29.3346 27.6147 29.3714 27.4541C29.4073 27.2974 29.364 27.1012 29.2937 27.1012C29.2683 27.1012 29.2234 27.1378 29.1935 27.1822C29.1476 27.2511 29.1451 27.2803 29.179 27.3804C29.2289 27.5288 29.1895 27.6396 29.0539 27.7343C28.9896 27.7792 28.9542 27.8309 28.9542 27.8812C28.9542 27.9237 28.9597 27.9583 28.9662 27.9583C28.9731 27.9583 29.0439 27.9222 29.1237 27.8788L29.2693 27.7992L29.355 27.8651C29.4019 27.9012 29.4407 27.9603 29.4407 27.9964C29.4407 28.1702 28.9348 28.4621 28.5873 28.4894C28.4023 28.5041 28.3709 28.4977 28.3066 28.4352C28.2543 28.384 28.2393 28.341 28.2523 28.2805C28.2623 28.2341 28.2802 28.1497 28.2922 28.0931C28.3241 27.9417 28.2578 27.9622 28.1431 28.1389C28.0489 28.2849 28.021 28.4406 28.0738 28.5226C28.1172 28.5895 28.4053 28.6534 28.6092 28.6412C28.7373 28.6339 28.864 28.5988 28.9981 28.5343Z" fill="#F7E017"/>
<path d="M30.9443 27.4712C31.1277 27.292 31.2055 27.0738 31.2065 26.7366L31.207 26.4832L31.3585 26.4129C31.5554 26.3212 31.7419 26.1386 31.7419 26.0371C31.7419 25.9326 31.6945 25.938 31.6088 26.0517C31.5465 26.1342 31.4632 26.184 31.1586 26.3212C31.0818 26.3558 31.0769 26.3744 31.0594 26.6897C31.039 27.0533 30.9886 27.1895 30.7812 27.438C30.6541 27.5893 30.6496 27.6093 30.7379 27.6093C30.7743 27.6093 30.867 27.5473 30.9443 27.4712Z" fill="#F7E017"/>
<path d="M28.9462 27.2681C28.9637 27.2159 28.8625 27.1788 28.8186 27.2212C28.8002 27.2393 28.7952 27.2705 28.8077 27.2906C28.8366 27.3359 28.9283 27.3208 28.9462 27.2681Z" fill="#F7E017"/>
<path d="M31.7015 26.5696C31.7195 26.5174 31.6178 26.4803 31.5744 26.5228C31.5555 26.5413 31.5505 26.5725 31.5629 26.5926C31.5918 26.6379 31.6836 26.6228 31.7015 26.5696Z" fill="#F7E017"/>
<path d="M28.3854 24.6787C28.3142 24.7119 28.2772 24.7872 28.2277 24.8448C28.192 24.8685 28.2206 24.8907 28.2411 24.913C28.3669 25.0457 28.4201 25.2248 28.4798 25.3918C28.5385 25.589 28.6124 25.8008 28.551 26.0063C28.5269 26.085 28.4636 26.1664 28.3692 26.1403C28.2182 26.1311 28.0695 26.0918 27.918 26.0934C27.7832 26.1003 27.6789 26.2204 27.5411 26.2073C27.453 26.213 27.4567 26.0307 27.3749 26.0795C27.3343 26.1745 27.3543 26.2805 27.3495 26.3811C27.3647 26.3955 27.4075 26.3829 27.4332 26.3871H27.7047C27.7238 26.4789 27.7214 26.5841 27.7888 26.6571C27.883 26.6899 27.989 26.6616 28.0785 26.6257C28.1745 26.582 28.1873 26.469 28.2145 26.3809C28.2433 26.2863 28.3698 26.3111 28.4445 26.2739C28.6272 26.2217 28.7469 26.0358 28.7362 25.8529C28.7244 25.5735 28.6156 25.3108 28.5331 25.0464C28.4915 24.93 28.4627 24.8085 28.4146 24.6948C28.4089 24.685 28.3973 24.6767 28.3854 24.6787L28.3854 24.6787ZM27.9333 26.2758C28.0348 26.2693 28.0789 26.3915 28.0574 26.4725C28.0194 26.5826 27.8812 26.512 27.8532 26.4326C27.8019 26.3618 27.8336 26.2665 27.9333 26.2758L27.9333 26.2758Z" fill="#F7E017"/>
<path d="M24.1745 25.3591C24.1291 25.3581 24.0783 25.3747 24.028 25.4094C23.7632 25.591 23.6954 25.8057 23.8754 25.8897C24.0075 25.9517 23.9741 26.0244 23.7662 26.1264C23.4686 26.2719 23.2059 26.2538 22.7069 26.0518C22.5843 26.002 22.5524 26.021 22.5808 26.1308C22.6082 26.2387 22.7089 26.2978 22.9591 26.3534C23.2283 26.4139 23.5539 26.3944 23.7632 26.3061C23.8654 26.2631 23.9866 26.1728 24.0888 26.064L24.2508 25.8897L24.4392 25.9126C24.6715 25.9405 24.676 25.9429 24.676 26.0518C24.676 26.1382 24.681 26.1401 24.8944 26.1596C25.0145 26.1709 25.1725 26.1811 25.2463 26.1811C25.3405 26.1816 25.3939 26.1977 25.4253 26.2407C25.4671 26.2978 25.4921 26.3007 25.843 26.2699C26.171 26.2407 26.2353 26.2431 26.3834 26.2924C26.4886 26.3275 26.6042 26.3417 26.692 26.3324C26.9432 26.3046 27.2897 26.1035 27.34 25.9556C27.346 25.9375 27.4373 25.9058 27.5424 25.8853C27.7962 25.8355 27.8071 25.7813 27.5704 25.7525C27.4677 25.7398 27.3136 25.7032 27.2279 25.67C27.1416 25.6369 27.024 25.609 26.9662 25.609C26.8385 25.609 26.7184 25.6871 26.7184 25.7677C26.7184 25.8204 26.7373 25.8258 26.8884 25.8106C27.0305 25.7965 27.0718 25.8043 27.1466 25.8624C27.196 25.9004 27.2289 25.9453 27.2184 25.9615C27.185 26.0147 26.8884 26.1469 26.7573 26.1674C26.6695 26.1811 26.5988 26.1718 26.53 26.1372C26.4148 26.0786 26.2453 26.0698 26.2134 26.1201C26.2 26.1421 26.1636 26.1279 26.1137 26.082L26.0359 26.0103L25.86 26.082C25.681 26.1548 25.6152 26.1518 25.6152 26.0684C25.6152 26.0303 25.5629 26.0259 25.2991 26.0425C25.0085 26.061 24.9781 26.0562 24.9238 25.9966C24.8734 25.9419 24.8724 25.9229 24.9083 25.8668C24.9412 25.815 24.9412 25.7926 24.9098 25.7618C24.8784 25.7311 24.8375 25.7315 24.7229 25.7618C24.4337 25.8375 24.352 25.795 24.352 25.5739C24.352 25.4411 24.2742 25.3606 24.1745 25.3591ZM24.1027 25.5622C24.1182 25.5622 24.1311 25.5714 24.1511 25.591C24.1765 25.6159 24.19 25.6593 24.179 25.6871C24.1531 25.753 24.0304 25.7506 24.0045 25.6842C23.9921 25.652 24.008 25.6159 24.0449 25.5895C24.0708 25.571 24.0873 25.5617 24.1027 25.5622Z" fill="#F7E017"/>
<path d="M23.5843 25.7681C23.7603 25.6588 23.7563 25.6671 23.7817 25.3634C23.7992 25.1492 23.7962 25.133 23.7368 25.133C23.6506 25.133 23.6057 25.2258 23.6057 25.4025C23.6057 25.5157 23.5878 25.5665 23.526 25.6265C23.3794 25.77 23.0155 25.7046 22.9696 25.5265C22.9542 25.4655 22.9741 25.4103 23.0504 25.3044C23.2094 25.0833 23.1735 25.0291 22.9786 25.197C22.8445 25.3117 22.8206 25.3151 22.846 25.216C22.8694 25.1247 22.8206 25.0886 22.7114 25.1155C22.6556 25.1291 22.6252 25.1633 22.6117 25.2297C22.5988 25.2946 22.5683 25.3307 22.5155 25.3434C22.4273 25.3654 22.2767 25.2834 22.2767 25.2136C22.2767 25.1618 22.502 24.8924 22.7912 24.5985C22.9003 24.4873 22.9896 24.3838 22.9896 24.3682C22.9896 24.3525 22.9313 24.3398 22.86 24.3398C22.7558 24.3398 22.7304 24.3511 22.7304 24.3984C22.7304 24.4306 22.5848 24.6176 22.4063 24.8143C22.0344 25.2243 22.0035 25.3097 22.1875 25.4191C22.3355 25.5079 22.5255 25.5011 22.6745 25.402L22.7952 25.3215V25.4674C22.7952 25.6539 22.8331 25.7207 22.9826 25.7984C23.1705 25.8955 23.3979 25.8838 23.5843 25.7681Z" fill="#F7E017"/>
<path d="M31.3889 23.2343C31.251 23.3149 31.3589 23.4843 31.3798 23.5969C31.3235 23.7504 31.122 23.7918 30.9751 23.8203C30.7671 23.854 30.6196 24.0245 30.5405 24.2055C30.4976 24.3231 30.3941 24.5055 30.2813 24.3264C30.1833 24.2291 30.003 24.152 29.8871 24.2656C29.799 24.3477 29.7767 24.4685 29.7438 24.5781C29.6919 24.4939 29.6686 24.3684 29.5584 24.3418C29.3825 24.366 29.4461 24.5831 29.5288 24.6726C29.6039 24.7769 29.6761 24.9146 29.6025 25.0385C29.5375 25.1875 29.3129 25.288 29.1809 25.1605C29.0577 25.0968 29.1401 24.8694 29.0187 24.8569C28.9587 24.8993 28.9537 25.1373 28.8576 25.0083C28.7883 24.8981 28.8251 24.7471 28.7403 24.6479C28.64 24.6601 28.5594 24.829 28.5928 24.9198C28.7265 25.0964 28.7815 25.3179 28.8336 25.5283C28.8661 25.6126 28.8289 25.7835 28.9094 25.8169C28.9652 25.6812 28.9134 25.5274 28.9573 25.3904C29.0878 25.3744 29.233 25.4327 29.3699 25.4017C29.5657 25.3768 29.717 25.215 29.7857 25.0427C29.8065 24.9131 29.7818 24.7816 29.7781 24.6513C29.9328 24.6748 30.0936 24.6743 30.2424 24.7235C30.3162 24.8344 30.219 24.9895 30.1986 25.1106C30.1209 25.3572 29.9236 25.5362 29.7317 25.7011C29.6514 25.7476 29.6406 25.8708 29.7592 25.8045C30.0171 25.6965 30.2093 25.4678 30.3199 25.2202C30.4006 25.0298 30.3357 24.8176 30.3884 24.6229C30.4663 24.4766 30.6537 24.5074 30.7924 24.5079C30.9359 24.5025 31.0584 24.3388 31.0105 24.2022C30.9648 24.0437 31.136 23.9674 31.253 23.9108C31.4082 23.8341 31.5271 23.6784 31.5151 23.5028C31.5087 23.4129 31.5133 23.2425 31.3889 23.2343L31.3889 23.2343ZM30.839 24.1495C31.0052 24.1927 30.8089 24.5035 30.7206 24.3066C30.6934 24.2315 30.758 24.1468 30.839 24.1495ZM30.0678 24.3721C30.2841 24.3597 30.2064 24.6689 30.0237 24.5285C29.929 24.4819 29.9603 24.3663 30.0678 24.3721Z" fill="#F7E017"/>
<path d="M22.2383 25.567C22.2443 25.5362 22.2284 25.5143 22.1999 25.5143C22.1396 25.5143 22.1032 25.566 22.1317 25.6109C22.1611 25.6573 22.2259 25.6309 22.2383 25.567Z" fill="#F7E017"/>
<path d="M24.7728 25.2898C24.7728 25.2444 24.7553 25.2273 24.7164 25.2346C24.6317 25.2502 24.6222 25.3557 24.7055 25.3557C24.7518 25.3557 24.7728 25.3352 24.7728 25.2898Z" fill="#F7E017"/>
<path d="M21.6366 23.8C21.5354 23.7797 21.4718 23.8635 21.4372 23.9434C21.3615 24.0679 21.2692 24.1952 21.1334 24.2611C21.0358 24.2877 20.9294 24.2513 20.8452 24.2021C20.7448 24.1531 20.7676 24.0348 20.7246 23.9531C20.6519 23.8972 20.5231 23.9771 20.526 24.064C20.518 24.1804 20.6292 24.2477 20.7216 24.2927C20.8001 24.3398 20.9139 24.366 20.9453 24.4613C20.9431 24.5423 20.9764 24.6349 21.0771 24.6037C21.1897 24.6018 21.2189 24.7362 21.1734 24.8168C21.1271 24.9077 21.0958 25.0141 21.118 25.1153C21.1718 25.1597 21.2268 25.0406 21.2658 25.0066C21.2923 24.9721 21.3188 24.9375 21.3453 24.9029C21.5446 24.9135 21.7437 24.9384 21.9435 24.9314C22.0856 24.9289 22.2066 24.843 22.297 24.7423C22.4248 24.6114 22.5298 24.4577 22.6757 24.3448C22.7796 24.32 22.7238 24.1284 22.6153 24.1838C22.5175 24.2197 22.4868 24.3278 22.419 24.3967C22.3036 24.5335 22.1859 24.6724 22.0405 24.7796C21.9345 24.8226 21.8126 24.8038 21.7038 24.7796C21.6584 24.7407 21.794 24.709 21.8129 24.6658C21.8753 24.6048 21.9494 24.5468 21.9856 24.4666C21.951 24.3927 21.8451 24.3867 21.7706 24.3852C21.5868 24.4068 21.4465 24.5578 21.2609 24.5721C21.1201 24.5769 21.1934 24.4275 21.2569 24.3766C21.3811 24.2321 21.5153 24.0961 21.645 23.9564C21.6818 23.9131 21.8149 23.8719 21.7298 23.811C21.7 23.8005 21.6678 23.8005 21.6366 23.8L21.6366 23.8ZM21.7269 24.5307C21.8196 24.5817 21.6678 24.6653 21.6039 24.6538C21.52 24.6785 21.5185 24.5947 21.593 24.578C21.6349 24.5567 21.6791 24.5344 21.7269 24.5307ZM21.4419 24.7214C21.4946 24.7204 21.6051 24.77 21.5013 24.8018C21.4291 24.8566 21.3475 24.7459 21.4419 24.7214Z" fill="#F7E017"/>
<path d="M23.6865 24.8476C23.6865 24.7787 23.5604 24.7885 23.5464 24.8583C23.5374 24.9032 23.5519 24.9139 23.6107 24.9056C23.6526 24.8998 23.6865 24.8739 23.6865 24.8476Z" fill="#F7E017"/>
<path d="M29.2723 24.3633C29.2852 24.2974 29.1915 24.2535 29.1422 24.3018C29.0928 24.3501 29.1382 24.4419 29.205 24.4292C29.2359 24.4233 29.2663 24.3936 29.2723 24.3633Z" fill="#F7E017"/>
<path d="M20.5793 23.6931C20.667 23.6194 20.668 23.6145 20.6301 23.4525C20.5763 23.2255 20.5798 23.2011 20.668 23.1796C20.7797 23.1518 21.0633 23.3007 21.1261 23.4198C21.175 23.512 21.1735 23.5184 21.0907 23.5935C21.0015 23.6741 21.002 23.7683 21.0912 23.7683C21.165 23.7683 21.3689 23.5794 21.3689 23.5115C21.3689 23.4173 21.1426 23.1947 20.9636 23.1132C20.853 23.0625 20.7423 23.039 20.6142 23.0385C20.3849 23.0385 20.3539 23.0869 20.4158 23.348C20.4885 23.6541 20.3898 23.6955 20.1381 23.4647C19.9512 23.2933 19.8774 23.1152 19.8784 22.8345C19.8789 22.5333 19.9965 22.3844 20.2617 22.3493C20.4377 22.3264 20.4332 22.2858 20.2523 22.2595C19.988 22.2204 19.7647 22.3932 19.68 22.7017C19.5857 23.0439 19.8016 23.4608 20.1835 23.6755C20.3834 23.7878 20.4631 23.7912 20.5793 23.6931Z" fill="#F7E017"/>
<path d="M30.9901 23.3177C31.0116 23.2968 31.029 23.2494 31.029 23.2128C31.029 23.1762 31.0654 23.0976 31.1098 23.0385C31.1546 22.9795 31.191 22.9189 31.191 22.9043C31.191 22.8443 31.0898 22.8462 31.0101 22.9082C30.9283 22.9707 30.867 22.9722 30.867 22.9111C30.867 22.896 30.9059 22.8648 30.9537 22.8418C31.0724 22.7852 31.0823 22.7291 30.9821 22.6842C30.8535 22.627 30.7244 22.7315 30.711 22.9038C30.7025 23.019 30.712 23.039 30.8027 23.0913C30.8854 23.1391 30.9009 23.1645 30.8869 23.2328C30.863 23.3514 30.9134 23.3929 30.9901 23.3177Z" fill="#F7E017"/>
<path d="M31.9687 23.2094C32.0405 23.1464 32.0988 23.0747 32.0988 23.0507C32.0988 23.0268 32.1606 22.9634 32.2364 22.9102C32.4512 22.7588 32.4986 22.6061 32.4024 22.3713C32.365 22.279 32.2474 22.1516 31.9916 21.9261C31.7952 21.7523 31.6142 21.6103 31.5908 21.6103C31.521 21.6103 31.5335 21.8617 31.6043 21.8836C31.7319 21.9237 31.8092 21.9749 32.0101 22.1521C32.2434 22.3586 32.351 22.5514 32.2922 22.6588C32.2359 22.7627 32.1611 22.7305 31.9552 22.5143C31.8471 22.4006 31.7399 22.3078 31.7179 22.3078C31.694 22.3083 31.6771 22.3493 31.6771 22.4069C31.6771 22.4791 31.7164 22.548 31.8231 22.6641C31.9971 22.8535 32.0141 22.9673 31.8834 23.0678C31.8366 23.1039 31.7882 23.1337 31.7763 23.1337C31.7648 23.1337 31.7264 23.0771 31.6915 23.0083C31.6187 22.8638 31.1736 22.4035 31.1068 22.4035C31.0764 22.4035 31.0614 22.4406 31.0614 22.5138C31.0614 22.6022 31.0793 22.6334 31.1511 22.6695C31.2394 22.7144 31.4577 22.9297 31.6771 23.1894C31.7399 23.2636 31.8017 23.3236 31.8151 23.3241C31.8281 23.3241 31.8974 23.2723 31.9687 23.2094Z" fill="#F7E017"/>
<path d="M32.4054 21.9857C32.3765 21.8944 31.7793 21.2925 31.718 21.2925C31.6861 21.2925 31.6761 21.3296 31.6836 21.4253C31.692 21.5415 31.705 21.5615 31.7868 21.5825C31.8376 21.5957 31.9951 21.7167 32.1362 21.851C32.2768 21.9852 32.4004 22.0872 32.4104 22.077C32.4204 22.0672 32.4184 22.0262 32.4054 21.9857Z" fill="#F7E017"/>
<path d="M28.8385 28.7598C28.8385 28.781 28.8292 28.8012 28.8125 28.8162C28.7959 28.8311 28.7733 28.8395 28.7498 28.8395C28.7262 28.8395 28.7037 28.8311 28.687 28.8162C28.6704 28.8012 28.661 28.781 28.661 28.7598C28.661 28.7387 28.6704 28.7185 28.687 28.7035C28.7037 28.6886 28.7262 28.6802 28.7498 28.6802C28.7733 28.6802 28.7959 28.6886 28.8125 28.7035C28.8292 28.7185 28.8385 28.7387 28.8385 28.7598Z" fill="#F7E017"/>
<path d="M29.1521 28.6573C29.1521 28.6784 29.1428 28.6987 29.1261 28.7136C29.1095 28.7286 29.0869 28.737 29.0634 28.737C29.0398 28.737 29.0173 28.7286 29.0006 28.7136C28.984 28.6987 28.9746 28.6784 28.9746 28.6573C28.9746 28.6362 28.984 28.6159 29.0006 28.601C29.0173 28.586 29.0398 28.5776 29.0634 28.5776C29.0869 28.5776 29.1095 28.586 29.1261 28.601C29.1428 28.6159 29.1521 28.6362 29.1521 28.6573Z" fill="#F7E017"/>
</g>
<path d="M11.7035 1.61228C6.53056 2.04084 2.23921 5.77712 1.57724 11.0101C1.25164 13.5841 1 16.6548 1 20C1 23.3452 1.25164 26.4159 1.57724 28.9899C2.23922 34.2229 6.53056 37.9592 11.7035 38.3877C15.5784 38.7087 20.5852 39 26 39C31.4148 39 36.4216 38.7087 40.2965 38.3877C45.4694 37.9592 49.7608 34.2229 50.4228 28.9899C50.7484 26.4159 51 23.3452 51 20C51 16.6548 50.7484 13.5841 50.4228 11.0101C49.7608 5.77712 45.4694 2.04084 40.2965 1.61228C36.4216 1.29127 31.4148 1 26 1C20.5852 1 15.5784 1.29127 11.7035 1.61228Z" stroke="#E6E6FA" stroke-width="2"/>
</svg>
