<svg width="52" height="40" viewBox="0 0 52 40" fill="none" xmlns="http://www.w3.org/2000/svg">
<mask id="mask0_1_40572" style="mask-type:alpha" maskUnits="userSpaceOnUse" x="2" y="2" width="48" height="36">
<path d="M2.56934 11.1356C3.16681 6.41247 7.0415 3.00193 11.7861 2.60887C15.6412 2.28949 20.6196 2 26 2C31.3804 2 36.3588 2.28949 40.2139 2.60887C44.9585 3.00193 48.8332 6.41247 49.4307 11.1356C49.752 13.6759 50 16.704 50 20C50 23.296 49.752 26.3241 49.4307 28.8644C48.8332 33.5875 44.9585 36.9981 40.2139 37.3911C36.3588 37.7105 31.3804 38 26 38C20.6196 38 15.6412 37.7105 11.7861 37.3911C7.0415 36.9981 3.16681 33.5875 2.56934 28.8644C2.248 26.3241 2 23.296 2 20C2 16.704 2.248 13.6759 2.56934 11.1356Z" fill="#00D0BF"/>
</mask>
<g mask="url(#mask0_1_40572)">
<path d="M2 2H50L2 38V2Z" fill="#FCD95E"/>
<path d="M50 38L2 38L50 2L50 38Z" fill="#EE5757"/>
<path d="M26.8782 13.8434C26.6127 13.7532 26.4554 13.9 26.4884 14.255C26.5212 14.61 26.7108 14.8091 26.9604 14.6685L26.8782 13.8434L26.8782 13.8434Z" fill="white" stroke="black" stroke-width="0.0285386"/>
<path d="M27.0899 13.1743C26.8596 12.9992 26.6619 13.0827 26.5852 13.4255C26.5085 13.7682 26.6316 14.0191 26.9172 13.973L27.0899 13.1743L27.0899 13.1743Z" fill="white" stroke="black" stroke-width="0.0285386"/>
<path d="M27.4042 12.5128C27.213 12.3035 27.0152 12.3515 26.8935 12.6722C26.7719 12.993 26.8512 13.258 27.1263 13.2613L27.4042 12.5128ZM27.3834 15.6362C27.0887 15.7689 27.0868 16.2297 27.2968 16.5071C27.5065 16.7845 27.8606 16.8273 28.0298 16.4857L27.3835 15.6359L27.3834 15.6362Z" fill="white" stroke="black" stroke-width="0.0285386"/>
<path d="M26.8674 14.6505C26.5571 14.5524 26.3142 14.9902 26.2944 15.3796C26.2696 15.8703 25.6245 16.0491 26.0377 16.7768C26.0805 16.3034 26.3571 16.0371 26.5913 16.0126C26.8257 15.9881 27.1753 15.9246 27.3057 15.618L26.8674 14.6505ZM27.9587 16.5259C27.6115 16.6249 27.5956 17.1243 27.8728 17.4727C28.1099 17.771 28.7805 17.6783 28.7427 17.3765L27.9587 16.5259ZM29.1685 19.4937C29.1629 19.1731 28.6666 19.0626 28.4353 19.1316C28.2041 19.2006 27.749 19.1424 27.6253 18.8786C27.5561 19.0944 27.6942 19.3221 28.043 19.4279C28.3068 19.508 28.3151 19.7052 28.2455 19.7963C28.4416 19.8263 29.0136 19.81 29.1685 19.4937L29.1685 19.4937Z" fill="white" stroke="black" stroke-width="0.0285386"/>
<path d="M28.7725 17.4332C28.4059 17.2804 28.2127 17.5342 28.0937 17.7784C27.9191 18.1366 27.2723 17.7017 27.0974 18.1777C27.3701 18.0433 27.6756 18.3052 27.8155 18.3932C28.2151 18.6448 28.9459 18.5428 29.0068 17.925L28.7725 17.4332Z" fill="white" stroke="black" stroke-width="0.0285386"/>
<path d="M28.9783 17.8436C28.642 18.1348 28.5266 18.4745 28.5513 18.7012C28.5759 18.9278 28.9145 19.4185 29.2464 19.4365C29.4088 19.0228 29.4441 18.1579 28.9784 17.8436L28.9783 17.8436ZM27.6252 19.6364C27.6157 19.5002 27.8029 19.4405 27.9362 19.4822C28.0697 19.5239 28.2787 19.6545 28.2195 19.8017L27.6252 19.6364ZM25.6108 18.947C25.5647 18.7846 25.7967 18.4962 26.1462 18.6411C26.4953 18.7859 26.5598 19.0842 26.429 19.2061L25.6108 18.947L25.6108 18.947Z" fill="white" stroke="black" stroke-width="0.0285386"/>
<path d="M26.429 19.3066C26.3964 19.215 26.6289 19.024 27.0549 19.1229C27.4813 19.222 27.6036 19.5044 27.6035 19.7271L26.4289 19.3066L26.429 19.3066ZM25.5357 19.0263C25.742 18.845 25.6365 18.515 25.4328 18.419C25.0623 18.2443 25.1605 17.7609 24.9271 17.6749C24.694 17.5889 24.4644 17.4288 24.4443 17.263C24.3466 17.4968 24.4309 17.7071 24.5983 17.8504C24.7654 17.9938 24.5272 18.6012 24.7386 18.7525L25.5357 19.0263ZM20.8483 19.0266C20.6442 18.7272 20.2115 18.7946 20.0427 19.0119C19.874 19.2292 19.9217 19.5422 20.1057 19.6757L20.8483 19.0266ZM21.8648 18.5454C21.7672 18.1414 21.3014 18.108 21.0553 18.2165C20.8091 18.325 20.6623 18.7358 20.8484 19.0265L21.8649 18.5454L21.8648 18.5454Z" fill="white" stroke="black" stroke-width="0.0285386"/>
<path d="M22.5505 18.5115C22.6898 18.176 22.3385 17.693 21.9738 17.6316C21.6695 17.5804 21.3148 17.592 21.1775 17.2867C21.1236 17.5571 21.3282 17.7216 21.5616 17.8673C21.7948 18.0131 21.5571 18.4142 21.9325 18.6276L22.5505 18.5116L22.5505 18.5115Z" fill="white" stroke="black" stroke-width="0.0285386"/>
<path d="M22.5327 18.5061C22.4403 18.2694 22.5713 17.9475 22.8832 17.961C23.1952 17.9746 23.3885 18.2048 23.2724 18.5027L22.5326 18.5061L22.5327 18.5061Z" fill="white" stroke="black" stroke-width="0.0285386"/>
<path d="M23.2364 18.4914C23.1764 18.2456 23.3501 17.9487 23.6586 18.0075C23.9671 18.0662 24.1284 18.3205 23.9729 18.5961L23.2364 18.4914Z" fill="white" stroke="black" stroke-width="0.0285386"/>
<path d="M23.7913 18.5712C23.7431 18.3238 23.9307 18.0377 24.2358 18.1121C24.5409 18.1865 24.6897 18.4476 24.5211 18.7133L23.7913 18.5712ZM18.8937 22.826C18.3178 22.8422 18.1872 22.9892 18.148 23.6108C18.0992 24.3849 19.1113 24.4462 18.8937 22.826Z" fill="white" stroke="black" stroke-width="0.0285386"/>
<path d="M18.7297 22.0301C17.8209 21.7057 17.4431 23.1796 16.5492 22.9446C16.8991 23.4554 17.6221 22.9152 17.9093 22.96C18.3963 23.036 19.4218 22.8185 18.7297 22.0301L18.7297 22.0301ZM18.2951 24.0444C17.8428 23.8507 17.4199 24.5629 17.5272 24.8651C17.6635 25.2489 18.6396 24.9055 18.2951 24.0444ZM16.4643 27.1125C16.7097 27.1771 17.0116 27.3124 16.9943 27.7976C16.9768 28.2828 16.1707 29.2931 15.3847 29.3692C14.5988 29.4453 14.3855 30.4477 13.6878 30.1891C14.3142 30.0459 14.2612 29.2932 14.7427 29.0463C14.3726 28.922 14.2437 29.7786 13.7802 29.7917C13.3167 29.8048 13.1478 30.5815 12.5774 30.5437C12.007 30.5061 12.0173 31.4994 10.8846 31.5432C10.0181 31.5765 9.01962 32.6641 8.60114 32.2182C9.43357 32.069 9.73877 31.5728 10.2029 31.0237C10.9492 30.141 11.8863 30.5004 12.1416 29.7302C11.7908 30.0004 11.3705 30.1379 10.9492 30.141C10.4204 30.1445 9.90371 31.0503 9.28359 30.6727C9.6238 30.6183 9.83629 30.4597 10.1691 30.0552C10.5098 29.6411 11.07 29.8867 11.4691 29.462C12.0932 28.7979 12.7063 29.3193 13.2932 28.4947C13.1066 28.4103 12.7248 28.4839 12.3781 28.6911C12.0314 28.8984 11.5445 28.5799 11.1489 28.8246C11.1631 28.2947 12.1459 28.5699 12.7211 28.1877C13.3703 27.7565 13.9411 27.8614 14.481 27.8956C13.7339 27.9123 13.39 27.1812 12.375 27.4253C11.9324 27.532 11.5226 26.8032 11.1028 27.192C11.096 26.9141 11.5481 26.6768 12.0478 26.932C12.5474 27.1872 12.7057 26.6778 13.7066 27.2801C14.1198 27.5287 14.7683 27.0884 15.217 27.3541C15.1492 27.1855 14.897 27.0848 14.6111 27.1154C14.7642 26.7252 15.9308 26.7414 16.4644 27.1125L16.4643 27.1125Z" fill="white" stroke="black" stroke-width="0.0285386"/>
<path d="M17.2739 26.4677C16.8718 26.1717 16.3702 26.5564 15.9968 26.4222C16.0146 26.6747 16.1623 27.0503 16.5703 27.1834C16.685 27.0899 17.195 26.5784 17.2739 26.4677Z" fill="white" stroke="black" stroke-width="0.0285386"/>
<path d="M17.8406 25.5862C17.2246 25.2887 17.1763 26.0726 16.7001 25.9241C16.7332 26.1481 16.925 26.4215 17.3081 26.4737L17.8407 25.5862L17.8406 25.5862Z" fill="white" stroke="black" stroke-width="0.0285386"/>
<path d="M18.2349 24.89C17.3534 24.5589 17.3048 25.4332 16.7891 25.2788C16.9277 25.5776 17.6611 25.7169 18.0233 25.5997L18.2349 24.89ZM19.1454 21.043C18.8951 20.7118 18.4356 21.001 18.3877 21.4032C18.3399 21.8053 18.5636 22.36 18.8742 22.2264L19.1453 21.043L19.1454 21.043Z" fill="white" stroke="black" stroke-width="0.0285386"/>
<path d="M19.8035 19.9592C19.3963 19.8724 18.9396 19.9301 19.0196 20.3391C18.8713 20.4148 18.8657 20.9425 19.2911 21.0466L19.8035 19.9591L19.8035 19.9592Z" fill="white" stroke="black" stroke-width="0.0285386"/>
<path d="M19.9226 19.6756C19.522 19.2086 19.1111 19.2318 18.894 19.4397C18.4933 19.8237 18.066 19.6234 18.0785 19.9954C18.321 19.7711 18.5629 20.0255 18.7662 19.9398C18.9696 19.8541 19.1513 20.292 19.7168 20.0894L19.9226 19.6756ZM19.5031 26.8419C19.5669 26.9553 19.9155 26.9983 20.0711 26.7988C20.2774 26.5342 19.9828 25.8261 19.6263 25.7834C19.2697 25.7406 19.2942 26.5998 19.5031 26.8419Z" fill="white" stroke="black" stroke-width="0.0285386"/>
<path d="M18.9945 26.8609C19.5485 27.0513 19.747 26.5796 19.435 26.2926C19.3648 26.3932 19.1074 26.7591 18.9945 26.8609Z" fill="white" stroke="black" stroke-width="0.0285386"/>
<path d="M17.2867 27.6839C17.2058 28.0116 16.6734 28.0808 16.1391 29.108C15.6047 30.1351 14.9956 29.7274 14.8974 30.426C15.5807 29.7924 16.1798 30.1838 16.5698 29.5658C17.1624 28.6273 17.7129 28.7442 17.9238 28.1179C18.2248 27.2239 19.8173 27.1972 19.8061 25.8058C19.2624 25.7126 17.6726 27.2574 17.2867 27.6839L17.2867 27.6839ZM29.9745 13.6635C30.6829 13.8786 30.7661 14.8161 31.5831 15.1005C32.4004 15.3848 32.5303 16.1222 33.166 15.9236C32.5487 15.7692 32.5405 15.0374 31.8966 14.8747C31.1413 14.6839 30.7785 13.5143 30.1776 13.3505L29.9745 13.6635ZM33.4925 18.472C33.6339 18.7572 33.6528 19.2718 33.2299 19.4193C33.4741 19.5661 33.8097 19.412 33.9766 19.073C33.7375 19.7394 33.9696 20.3294 34.4275 20.434C34.1789 19.9801 34.6481 19.75 34.4716 19.4567C34.7659 19.575 35.0451 19.9739 35.0541 20.2266C35.3957 19.7833 34.7065 19.2242 34.799 18.815L33.4925 18.4721L33.4925 18.472ZM29.3387 23.2336C28.8877 22.8576 28.7413 23.3519 28.521 23.1887C28.3155 23.0363 28.0544 23.021 27.9661 23.1817C28.3303 23.1851 28.1734 23.4831 28.8834 23.5355C28.182 23.6049 28.3695 24.4221 27.8953 24.3947C28.4318 24.8767 28.6253 23.9314 29.0425 24.0734C28.9239 24.1128 29.2562 24.4017 29.0679 24.8046C29.4175 24.7858 29.5246 24.2767 29.5496 24.0139L29.3387 23.2336ZM20.3037 27.7077C20.1385 27.5768 19.6844 27.5262 19.5191 27.6394C19.3537 27.7523 19.4162 27.7777 19.625 27.7901C19.8338 27.8022 20.1264 28.1449 19.6782 28.1771C19.4713 28.1918 19.5772 28.7131 19.1474 28.7614C19.3405 28.9819 19.836 28.8188 20.0001 28.5658C19.9798 28.7696 20.2522 28.9472 20.1656 29.1937C20.4881 29.2209 20.2521 28.5136 20.7605 28.5353C20.5548 28.5683 20.6756 29.0528 21.0299 28.9164C20.8213 29.0307 20.9521 29.2891 21.1898 29.2192C21.038 29.2777 21.0006 29.4865 21.2251 29.5979C21.4117 29.2944 21.1034 28.2366 20.3037 27.7077L20.3037 27.7077ZM38.4393 17.2273C39.1012 17.2087 39.5984 16.6339 39.5498 15.9435C39.5013 15.2532 38.9254 14.7085 38.2636 14.7271C37.6015 14.7457 37.1043 15.3205 37.1528 16.0108C37.2013 16.7012 37.7772 17.2458 38.4393 17.2273Z" fill="white" stroke="black" stroke-width="0.0285386"/>
<path d="M32.4029 18.87C32.7403 18.4996 33.2802 18.3041 33.6789 18.5635C34.0778 18.8229 35.3612 19.1115 35.9512 18.6439C36.541 18.1763 36.8181 17.934 37.0981 17.9803C37.3284 18.2986 37.5894 18.4445 37.9021 18.4628C38.0046 18.5682 38.3478 18.6488 38.5358 18.6163C38.8171 18.6806 39.1475 18.5812 39.3935 18.2675C39.8125 18.3189 40.1781 17.9839 40.2906 17.4937C40.727 17.4273 40.7169 16.9134 40.4166 16.5791C40.1538 16.5324 40.2885 15.6175 39.3599 15.824C39.775 16.0649 39.5081 16.5775 39.8528 16.8024C39.6283 16.8087 39.3461 16.9159 39.3017 17.269C39.3709 17.0234 39.2603 16.8642 39.1959 16.8119C39.19 16.6046 38.714 16.1083 38.3125 16.3045C38.6151 16.3636 38.482 16.868 38.7111 17.051C38.5562 17.0644 38.3979 17.15 38.3131 17.2967C38.1863 17.0928 37.774 16.8879 37.531 16.8767C37.5259 16.8046 37.5028 16.661 37.4676 16.5899C37.3444 16.3768 37.2357 16.1228 37.2557 15.793C37.065 16.0328 36.9151 16.3618 36.828 16.5988C36.4836 16.374 35.696 16.7388 35.3224 16.8395C34.9489 16.9402 33.6559 16.7601 33.3395 16.4442C33.0233 16.1284 32.4395 15.9464 31.8929 15.7994C31.1411 15.5973 31.0755 14.758 30.2234 14.2046C30.2797 15.2494 32.0324 18.5196 32.403 18.87L32.4029 18.87ZM24.502 27.0656C25.1409 27.0476 25.6209 26.493 25.574 25.8268C25.5271 25.1606 24.9711 24.6351 24.3322 24.653C23.6933 24.671 23.2133 25.2256 23.2602 25.8918C23.3071 26.558 23.8631 27.0836 24.502 27.0656Z" fill="white" stroke="black" stroke-width="0.0285386"/>
<path d="M21.3776 26.2533C21.6304 26.5595 22.0222 26.5306 22.1827 26.4991C22.3458 26.8704 22.781 26.8492 22.9834 27.0493C23.1859 27.2497 23.8254 27.2137 24.0053 27.092C23.8333 27.0791 23.6035 26.9782 23.3766 26.7965C23.1028 26.5773 23.1921 26.1212 22.9757 25.9662C23.1169 25.7831 23.1218 25.4875 23.0795 25.3723C23.235 25.2694 23.3433 25.1051 23.3547 25.0242C23.6355 24.9983 23.8725 24.8394 23.967 24.7204C24.1223 24.8592 24.4765 24.6611 24.6901 24.8968C24.6913 24.3057 24.1309 24.0082 23.7858 24.215C23.6348 24.1388 23.2542 24.2033 23.1933 24.3125C23.0699 24.2622 22.7492 24.4504 22.6036 24.571C22.7676 24.4679 22.7724 24.1722 22.6965 24.0669C22.8374 24.0002 22.9853 23.79 22.9917 23.6377C23.1993 23.6676 23.4968 23.5159 23.636 23.5478C23.3926 23.2502 23.0176 23.1534 22.6434 23.1909C22.2562 23.2243 22.1097 23.5149 22.0801 23.8247C21.8595 23.9743 21.8165 24.459 21.9139 24.6263C21.7811 24.6257 21.6667 24.7632 21.6208 24.8406C21.4357 24.7652 21.1752 24.7145 20.9915 24.7197L21.3776 26.2533ZM21.0385 24.2304C20.9452 24.0003 21.0324 23.7882 21.0714 23.6027C21.1708 23.1299 21.0812 23.0115 20.684 23.0854C20.6655 23.3098 20.9222 24.0368 21.0385 24.2304Z" fill="white" stroke="black" stroke-width="0.0285386"/>
<path d="M20.6805 23.1705C20.7898 23.2745 21.1535 23.3132 21.1679 22.9736C21.1845 22.5837 21.0242 22.4376 20.7126 22.5982C20.6935 22.6881 20.6894 23.0542 20.6805 23.1705Z" fill="white" stroke="black" stroke-width="0.0285386"/>
<path d="M20.7359 22.5902C20.8767 22.6444 21.1796 22.7522 21.3186 22.4171C21.4353 22.1359 21.2413 21.9268 20.9607 21.9526C20.898 22.0351 20.7814 22.3248 20.7359 22.5902Z" fill="white" stroke="black" stroke-width="0.0285386"/>
<path d="M20.967 21.9285C21.0087 22.0348 21.3843 22.3823 21.6225 22.1159C21.8607 21.8494 21.8336 21.4652 21.4389 21.3331C21.3376 21.3538 21.0563 21.7379 20.967 21.9285Z" fill="white" stroke="black" stroke-width="0.0285386"/>
<path d="M21.4672 21.3298C21.5603 21.5517 21.8279 21.9303 22.2619 21.7385C22.6959 21.5466 22.466 20.9694 22.2516 20.8587C22.1319 20.871 21.6588 21.1179 21.4672 21.3298Z" fill="white" stroke="black" stroke-width="0.0285386"/>
<path d="M22.2766 20.8486C22.2561 21.0471 22.3284 21.5846 22.9388 21.5584C23.5491 21.5323 23.3246 20.7921 23.1621 20.6887C22.9125 20.6958 22.4915 20.7166 22.2766 20.8486Z" fill="white" stroke="black" stroke-width="0.0285386"/>
<path d="M23.2099 20.6988C23.1518 20.8534 23.0673 21.8629 24.2453 21.5516C24.3977 21.5113 24.7375 20.5747 23.2099 20.6988Z" fill="white" stroke="black" stroke-width="0.0285386"/>
<path d="M23.8839 20.7556C23.7722 20.8848 24.1541 21.8927 24.9532 21.6989C25.7522 21.5052 25.0029 20.5618 23.8839 20.7556Z" fill="white" stroke="black" stroke-width="0.0285386"/>
<path d="M24.5944 20.8742C24.4848 21.1565 24.7372 21.9781 25.7371 21.9499C26.6434 21.9244 25.613 20.8635 24.5944 20.8742Z" fill="white" stroke="black" stroke-width="0.0285386"/>
<path d="M25.4065 21.077C25.3524 21.2335 25.3346 22.1136 26.5201 22.1549C27.3785 22.1848 27.0827 20.9307 25.4065 21.077Z" fill="white" stroke="black" stroke-width="0.0285386"/>
<path d="M26.7158 21.3852C26.5881 21.6597 26.4799 22.34 27.78 22.3577C28.613 22.3691 28.0308 21.3663 26.7158 21.3852Z" fill="white" stroke="black" stroke-width="0.0285386"/>
<path d="M27.8263 21.5482C27.6563 21.8223 27.8326 22.3456 28.3184 22.432C28.9282 22.5404 28.9724 21.9467 28.5402 21.6716C28.1078 21.3966 27.8263 21.5482 27.8263 21.5482Z" fill="white" stroke="black" stroke-width="0.0285386"/>
<path d="M28.1415 21.6422C28.0229 21.8959 28.1498 22.5001 29.0528 22.4745C29.2401 22.4691 29.9014 21.6816 28.1415 21.6422ZM21.9699 33.4754C22.7012 33.4546 23.2505 32.8163 23.1967 32.0499C23.1428 31.2833 22.5063 30.6787 21.775 30.6995C21.0436 30.7203 20.4943 31.3586 20.5482 32.1252C20.602 32.8917 21.2385 33.4962 21.9699 33.4754Z" fill="white" stroke="black" stroke-width="0.0285386"/>
<path d="M30.4872 13.0253C30.3914 13.136 30.1992 13.4652 30.1648 13.5921C29.8158 15.0053 31.0845 16.0178 31.8894 17.5017C32.524 18.6713 32.5867 20.5407 31.8092 21.75C31.5432 22.1637 31.6393 22.2766 31.2896 22.7003C31.1555 22.8628 31.0049 23.0682 31.0971 23.6413C31.3319 23.5447 31.6926 23.7685 31.7754 23.9641C31.9412 23.8694 32.185 23.8985 32.2785 24.0038C32.5609 23.852 32.8071 23.9169 33.0856 24.197C33.307 24.1548 33.5506 24.1839 33.7921 24.429C33.8949 24.1742 34.1297 24.0776 34.3055 24.1266C34.2656 23.8039 34.5591 23.5618 34.8434 23.6797C34.7269 23.2511 35.083 22.9172 35.4535 23.0327C35.7455 22.7726 36.3642 22.7372 36.7007 23.1055C36.1383 22.9595 36.1986 23.5695 35.7298 23.5287C35.8757 23.8845 35.5803 24.0997 35.2787 24.2251C35.4696 24.1208 35.6767 23.998 35.7544 24.1217C35.9155 23.9598 36.2639 24.0085 36.3558 24.0868C36.5784 24.0041 36.8023 24.0563 36.9256 24.3406C37.2496 24.5294 37.4916 25.0264 37.2944 25.4098C37.1977 25.0167 36.9407 25.0419 36.8259 24.8832C36.5911 24.9798 36.3501 24.9866 36.2698 24.8269C36.1423 24.9745 35.6863 25.1133 35.4645 24.9036C35.4097 25.229 35.1619 25.5059 34.8518 25.5146C34.9558 25.7636 34.745 26.2014 34.5708 26.4221C34.875 26.5754 34.8141 26.9371 34.7604 27.1545C35.2131 27.2136 34.8634 27.6373 35.6571 27.8848C35.2874 28.0212 34.5381 27.9163 34.4006 27.4345C34.0205 27.4273 33.7344 27.0395 33.7227 26.6258C33.4096 26.3468 33.3375 25.9351 33.722 25.6364C33.3851 25.7538 33.1552 25.1846 32.6723 25.4321C32.4322 25.5552 31.7628 25.3768 31.7544 25.1341C31.6636 25.3166 31.0302 25.2625 30.9225 24.9597C30.7241 25.0822 30.228 24.8982 30.2158 24.6017C29.9577 24.735 29.5805 24.5207 29.5774 24.2329C29.3253 24.204 29.283 23.9713 29.2863 23.7734C29.0547 23.6719 29.0993 23.4457 29.1664 23.174C28.9988 22.9988 29.0499 22.7455 29.154 22.5086C28.9692 22.3339 28.9885 22.1174 29.0223 21.8646C28.1908 21.8161 27.1408 21.6374 24.7134 20.9426C21.0512 19.8943 20.2767 22.6149 21.1877 24.2805C22.2387 26.2023 21.2513 26.6537 21.6638 28.0995C21.9959 28.1621 22.1883 28.4444 22.1927 28.7503C22.3869 28.7536 22.5379 28.9383 22.4944 29.2995C22.6557 29.2635 22.8702 29.3068 23.018 29.4465C23.1221 29.2098 23.5144 29.1447 23.7399 29.4083C24.185 29.3596 24.4354 29.7305 24.4512 30.1978C24.7237 30.64 24.6762 31.1901 24.4427 31.5474C24.4552 31.3582 24.4104 31.0896 24.3906 30.9283C24.3536 30.6316 23.9519 30.5808 23.9779 30.3371C23.7725 30.3608 23.5663 30.2498 23.4861 30.0902C23.3731 30.2012 23.2035 30.2421 23.0533 30.1923C23.2934 30.2935 23.5045 30.7193 23.4559 31.0084C23.5916 31.2207 23.5935 31.6165 23.4592 31.7912C23.415 32.1431 23.1656 32.2761 22.8191 32.1329C22.9997 32.002 23.0528 31.7756 23.0308 31.5871C22.9028 31.4829 22.8279 31.2781 22.8105 31.1526C22.4785 31.2159 21.9928 30.9328 21.8988 30.8181C21.1591 30.8389 20.6036 31.4812 20.6579 32.2527C20.6033 31.9662 20.2348 31.693 20.2608 31.4494C20.0074 30.7908 20.2565 30.163 21.0913 30.0138C20.9703 29.7652 21.3135 29.4945 21.1555 29.2112C20.9537 28.8492 20.5968 28.3813 20.0755 27.8383C20.3315 27.3092 20.1961 26.6115 19.9936 26.1853C19.7027 25.5734 19.4786 25.7321 18.6713 26.7623C17.3556 28.4414 15.4145 28.0416 13.8031 29.1665C13.3749 29.4654 12.9356 29.5868 13.3823 29.0705C13.8289 28.5541 15.0677 28.0156 15.8637 27.5612C17.3545 26.7105 18.57 25.3259 18.9019 22.6897C19.6817 16.4949 24.2925 18.3997 27.1971 19.4693C29.9241 20.4735 29.2704 18.0434 27.8237 16.6089C26.0849 14.8846 26.3097 13.485 26.9889 12.3504C28.3351 12.1145 30.9786 12.5348 30.4869 13.0255L30.4872 13.0253Z" fill="white" stroke="black" stroke-width="0.0285386"/>
<path d="M36.4735 27.766C37.2821 27.7431 37.8894 27.0395 37.8299 26.1944C37.7704 25.3492 37.0666 24.6827 36.2581 24.7056C35.4495 24.7285 34.8422 25.4322 34.9017 26.2774C34.9612 27.1225 35.665 27.7889 36.4735 27.766Z" fill="white" stroke="black" stroke-width="0.0285386"/>
<path d="M30.0349 13.1795C29.8324 14.6731 30.126 15.3375 30.6067 15.9786C31.5997 17.3038 32.5201 20.3676 31.6152 22.4129" stroke="black" stroke-width="0.0285386"/>
<path d="M30.3538 14.8928C30.4011 14.8603 30.5464 14.803 30.5162 14.675M32.2007 20.6577C32.3191 20.6011 32.5352 20.4263 32.5639 20.1322L32.2007 20.6577ZM32.237 20.0081C32.2532 19.7499 32.5896 19.6295 32.5736 19.3544L32.237 20.0081ZM32.1581 19.0055C32.112 18.7402 32.4605 18.4905 32.3836 18.2261L32.1581 19.0055ZM31.8757 18.0539C31.8318 17.9041 32.1457 17.6109 32.0328 17.3742L31.8757 18.0539ZM31.5416 17.1303C31.4578 16.9637 31.6717 16.7623 31.5565 16.5877L31.5416 17.1303ZM31.108 16.3954C31.075 16.2809 31.1955 16.0242 31.1056 15.8757L31.108 16.3954ZM30.663 15.5284C30.6898 15.4832 30.8038 15.3734 30.7422 15.2419L30.663 15.5284Z" stroke="black" stroke-width="0.0285386" stroke-linecap="round"/>
<path d="M38.3212 15.697C38.0789 15.7124 37.8549 15.4753 37.8523 15.2683C37.8666 15.421 38.2005 15.4842 38.2918 15.3828M23.0322 31.9141C22.6849 31.7972 22.2824 31.9879 22.2271 32.2955L23.0322 31.9141ZM22.5047 32.567C22.5181 32.2608 22.9416 32.1145 23.0892 32.2546C22.7973 32.1004 22.7169 32.6784 22.9619 32.6901L22.5047 32.567ZM24.5405 25.3942C24.3493 25.5073 24.3277 25.9039 24.6154 26.1934L24.5405 25.3942ZM24.8506 25.4761C24.72 25.6055 24.7635 25.9824 24.9817 26.0667C24.7929 25.9366 24.9472 25.6986 25.0723 25.6863C25.1971 25.674 25.296 25.8333 25.1603 25.9989L24.8506 25.4761ZM36.719 26.0536C36.2369 25.9314 35.914 26.5249 36.3905 27.0344C36.3351 26.5318 36.6394 26.1908 37.0588 26.2697L36.719 26.0536ZM36.9024 26.6224C36.7869 26.6254 36.7311 26.7238 36.7399 26.8179C36.7491 26.9167 36.8376 27.0089 36.9677 27.0055C37.0517 27.0033 37.1091 26.8983 37.1016 26.8175L36.9024 26.6224ZM37.526 15.5558C37.6302 15.8591 38.0363 15.9744 38.3398 15.8944L37.526 15.5558Z" stroke="black" stroke-width="0.0285386" stroke-linecap="round" stroke-linejoin="round"/>
<path d="M38.8684 17.2175C38.8493 17.3313 38.7893 17.5096 38.703 17.5889M22.5332 26.4063C22.4482 26.2272 22.7033 26.0392 22.6957 25.8671C22.688 25.6951 22.9728 25.5518 23.3093 25.8694L22.5332 26.4063ZM22.9843 23.9472C22.9274 23.9758 22.8798 24.0133 22.8305 24.0327L22.9843 23.9472ZM23.6632 24.9174C23.5914 24.9238 23.4419 24.9186 23.3556 24.8619L23.6632 24.9174ZM23.3982 25.2689C23.3417 25.3021 23.215 25.3598 23.1402 25.3799L23.3982 25.2689ZM20.9949 30.8066C21.0017 30.9697 21.1767 31.2008 21.2684 31.2709L20.9949 30.8066ZM21.6216 30.4007C21.5493 30.5384 21.5204 30.775 21.5866 30.9364L21.6216 30.4007ZM22.9384 30.9107C22.7752 30.806 22.851 30.5229 22.817 30.3427C22.7831 30.1622 22.9514 29.8678 23.3568 30.102L22.9384 30.9107ZM21.4143 29.9167C21.5647 29.8856 21.727 29.8903 21.8332 29.9329L21.4143 29.9167ZM23.3035 29.3509C23.2448 29.4521 23.238 29.5611 23.2363 29.6337L23.3035 29.3509ZM24.0155 29.3144C23.8965 29.3175 23.8031 29.4105 23.7606 29.5024L24.0155 29.3144ZM21.9328 24.7267C22.0735 24.773 22.4478 24.9944 22.483 25.2338L21.9328 24.7267ZM23.2676 23.5135C22.8503 23.5152 22.6465 23.0672 22.9609 23.0591L23.2676 23.5135ZM24.0724 24.0998C23.9178 24.1763 24.0223 24.4728 24.2653 24.6116L24.0724 24.0998ZM23.344 26.9654C23.253 26.8591 23.3296 26.5399 23.602 26.6279L23.344 26.9654ZM24.2737 30.2505C24.2647 29.9743 24.5768 29.8029 24.7378 30.1116L24.2737 30.2505ZM23.1405 31.0682C23.0909 30.7658 23.226 30.6627 23.3518 30.6413C23.4776 30.62 23.6709 30.7281 23.7746 30.9249L23.1405 31.0682ZM20.6292 31.3601C20.6293 31.1787 20.756 30.9851 20.9115 31.0083L20.6292 31.3601ZM35.4291 22.9272C35.3265 23.0161 35.2904 23.4022 35.7144 23.4276L35.4291 22.9272ZM34.8428 23.5771C34.847 23.6223 34.9082 23.6842 34.9448 23.7104L34.8428 23.5771ZM36.9162 24.2488C36.7973 24.1612 36.5468 24.5349 36.8312 24.795L36.9162 24.2488ZM34.4985 27.3574C34.4106 27.1013 34.6294 27.0276 34.847 27.0764L34.4985 27.3574ZM33.7835 25.5445C33.9024 25.4508 34.0207 25.348 34.1779 25.2987L33.7835 25.5445ZM33.8086 26.5407C33.7883 26.3237 33.8732 26.1403 33.9616 26.0836L33.8086 26.5407ZM34.3223 24.0258C34.33 24.2885 34.4558 24.5391 34.545 24.6728L34.3223 24.0258ZM36.347 23.9915C36.2275 24.0355 36.1216 24.088 36.0852 24.1978L36.347 23.9915ZM36.2803 24.7366C36.3349 24.6808 36.3969 24.6158 36.4224 24.5698L36.2803 24.7366ZM38.7529 16.7581C38.7766 17.0113 38.4919 17.1547 38.2813 16.9969L38.7529 16.7581ZM39.3999 16.7504C39.5416 16.8555 39.9865 16.7398 39.854 16.4622L39.3999 16.7504ZM38.9836 18.2209C38.8885 18.2052 38.7168 18.1008 38.6403 18.0122L38.9836 18.2209ZM39.8483 17.4461C39.6988 17.4863 39.5933 17.4527 39.5133 17.4185L39.8483 17.4461ZM37.5193 18.413C37.6042 18.4108 37.8047 18.3694 37.9379 18.2889L37.5193 18.413ZM37.1143 16.819C37.0026 16.8084 36.9238 16.833 36.8644 16.8799L37.1143 16.819Z" stroke="black" stroke-width="0.0285386" stroke-linecap="round"/>
<path d="M38.4918 17.2606C38.4335 17.3614 38.4057 17.5157 38.4099 17.6509M37.5075 17.684C37.7093 17.5794 38.0428 18.3379 38.5239 18.0546L37.5075 17.684Z" stroke="black" stroke-width="0.0285386" stroke-linecap="round" stroke-linejoin="round"/>
<path d="M28.2573 16.2557C28.578 16.6261 29.0441 16.848 29.4226 16.1959M27.8579 16.4841C27.9265 16.4732 28.0456 16.4427 28.0652 16.3517L27.8579 16.4841ZM19.5518 25.129C19.822 25.2751 20.022 25.5315 19.9368 25.9224L19.5518 25.129ZM30.7905 15.5705C30.8722 15.6225 31.1663 15.6142 31.3261 15.5465L30.7905 15.5705ZM31.5471 15.7301C31.5472 15.8566 31.6155 16.3335 31.3891 16.4392L31.5471 15.7301ZM31.4713 16.3737C31.6925 16.4398 32.123 16.4006 32.2321 15.9819L31.4713 16.3737ZM31.9539 16.3417C32.0789 16.5189 32.1381 16.8696 31.8144 17.0684L31.9539 16.3417ZM32.0613 16.6373C32.3183 16.7204 32.8983 16.7131 32.8015 16.2009L32.0613 16.6373ZM32.6322 16.6212C32.8229 16.8689 33.6048 17.1451 33.4469 16.6255L32.6322 16.6212ZM31.9832 17.3708C32.2821 17.4347 32.6827 17.2156 32.4717 16.6795L31.9832 17.3708ZM33.3205 16.9269C33.3783 17.1331 34.3618 17.3224 34.1993 16.8571L33.3205 16.9269ZM34.0367 17.133C34.2489 17.5608 35.2059 17.4978 34.8628 16.9291L34.0367 17.133ZM34.7389 17.3839C34.9463 17.622 35.7836 17.4539 35.4051 16.8773L34.7389 17.3839ZM35.4295 17.3555C35.9861 17.7555 36.5581 17.1431 35.8619 16.7289L35.4295 17.3555ZM36.1982 17.1987C36.6925 17.5733 37.2137 16.8539 36.7933 16.6669L36.1982 17.1987ZM32.4949 17.1398C32.6451 17.1808 32.9551 17.154 33.0046 16.8725L32.4949 17.1398ZM32.9013 17.065C32.913 17.4758 33.5856 17.615 33.7207 17.1368L32.9013 17.065ZM33.5185 17.4001C33.6586 17.6673 34.2453 17.7592 34.3131 17.3688L33.5185 17.4001ZM34.2309 17.5519C34.345 17.8198 34.8446 17.7787 34.9632 17.4952L34.2309 17.5519ZM34.7942 17.6809C34.9745 18.0282 35.6143 18.0103 35.7252 17.4921L34.7942 17.6809ZM35.629 17.7204C35.891 17.8757 36.4228 17.7974 36.3438 17.2937L35.629 17.7204ZM36.2655 17.6576C36.6593 17.9628 37.1653 17.6414 36.8685 17.1166L36.2655 17.6576ZM36.9085 18.0549C37.1049 18.0133 37.1793 17.5955 36.9643 17.4932L36.9085 18.0549ZM32.3055 18.2564C32.7039 18.0104 32.7538 17.6114 32.4412 17.2317L32.3055 18.2564ZM32.632 17.8499C32.9029 18.0049 33.3835 17.8198 33.442 17.4206L32.632 17.8499ZM32.9897 17.8848C33.1504 18.079 33.1935 18.3218 33.0192 18.5525L32.9897 17.8848ZM33.1283 18.134C33.5655 17.8236 34.1748 18.3577 33.7746 18.7032L33.1283 18.134ZM33.6538 18.0923C33.7557 18.0624 33.9233 17.8589 33.9246 17.633L33.6538 18.0923ZM33.8757 18.2938C34.0513 18.081 35.3782 18.4685 34.5871 18.9244L33.8757 18.2938ZM34.441 17.7088C34.6987 17.8009 34.8544 18.167 34.4829 18.304L34.441 17.7088ZM34.8332 18.6015C35.0888 18.2961 35.9668 18.4612 35.6822 18.8487L34.8332 18.6015ZM35.4474 18.4664C35.5642 17.9119 36.5134 18.2286 36.2267 18.4626L35.4474 18.4664ZM35.2185 17.9216C35.2521 18.0291 35.2797 18.2994 35.117 18.4485L35.2185 17.9216ZM35.9892 17.7916C36.03 17.8809 36.0335 18.0524 35.9632 18.1628L35.9892 17.7916ZM36.5774 17.7841C36.6363 17.8818 36.7359 18.0688 36.5565 18.2275L36.5774 17.7841ZM28.8851 13.8436C28.9298 14.3573 29.1269 14.6952 29.7698 14.3519L28.8851 13.8436ZM29.1356 14.4512C28.8394 14.9203 29.246 15.4059 29.8596 14.8917L29.1356 14.4512ZM28.1396 14.7048C28.6246 15.1972 29.4027 14.8049 28.83 14.0529L28.1396 14.7048ZM29.4499 15.1019C29.3982 15.6003 29.7943 15.6886 30.0983 15.4541L29.4499 15.1019ZM27.7478 14.7971C27.8648 15.2935 28.3813 15.6739 28.8353 15.354L27.7478 14.7971ZM28.3842 15.4663C28.4343 16.1787 29.3824 16.2334 29.5465 15.4879L28.3842 15.4663ZM29.2409 15.948C29.5891 16.5887 30.2278 16.3088 30.416 15.906L29.2409 15.948ZM28.502 14.9298C28.6452 15.242 28.9121 15.5869 29.4556 15.3096L28.502 14.9298ZM26.7623 14.8248C26.8586 15.0841 27.3303 15.3871 27.8237 15.0118L26.7623 14.8248ZM27.1054 15.1497C26.8584 15.5813 27.4397 15.9625 28.061 15.3126L27.1054 15.1497ZM27.4709 15.6637C27.6251 16.2557 27.8834 16.7273 28.6422 15.938L27.4709 15.6637Z" stroke="black" stroke-width="0.0285386"/>
<path d="M29.6762 20.4241C29.5173 21.034 29.7246 21.2416 30.177 21.2375M29.7961 16.3442C29.8018 16.789 29.9007 17.0087 30.2259 16.9815C30.4822 16.9602 30.712 16.7362 30.8382 16.5012L29.7961 16.3442ZM30.1675 16.9837C30.1941 17.4903 30.5983 17.8792 31.2656 17.3438L30.1675 16.9837ZM30.5014 17.5702C30.394 17.956 30.8386 18.5662 31.6031 18.2239L30.5014 17.5702ZM28.7662 16.6054C28.75 17.0954 29.1995 17.4118 29.842 16.7614L28.7662 16.6054ZM29.1386 17.1377C29.1914 17.5367 29.6513 18.0041 30.231 17.2932L29.1386 17.1377ZM29.4746 17.6356C29.4718 18.321 30.0794 18.4994 30.5452 17.9609L29.4746 17.6356ZM28.5444 17.1547C28.6789 17.1598 28.779 17.0323 28.8397 16.9415L28.5444 17.1547ZM28.8632 17.6437C28.9822 17.667 29.1752 17.5457 29.2323 17.4017L28.8632 17.6437ZM29.2124 18.4437C29.3567 18.5909 29.8011 18.4713 29.8455 18.2653L29.2124 18.4437ZM29.7139 18.4205C30.0081 19.035 30.6754 18.9892 30.903 18.2795L29.7139 18.4205ZM30.7946 18.5321C30.9453 18.8927 31.2794 19.1145 31.7895 18.9753L30.7946 18.5321ZM31.0715 18.8979C30.8138 19.4126 31.2398 19.9967 31.8518 19.3917L31.0715 18.8979ZM31.2829 19.6482C31.2717 19.9689 31.573 20.3252 31.9526 20.3588L31.2829 19.6482ZM29.9795 18.7512C29.9289 19.4736 30.4383 19.8061 31.0228 19.4066L29.9795 18.7512ZM29.2925 19.1181C29.4606 19.2468 29.7465 19.2564 30.0068 19.1421L29.2925 19.1181ZM30.362 19.5502C30.2531 20.1586 30.8691 20.5771 31.3244 19.8875L30.362 19.5502ZM29.5253 19.2093C29.5554 19.52 29.8633 19.8493 30.3501 19.7374L29.5253 19.2093ZM31.7737 20.3197C31.4555 20.5691 31.418 20.9974 31.9059 21.2593L31.7737 20.3197ZM30.9448 20.2185C30.9869 20.5822 31.16 20.782 31.5389 20.8067L30.9448 20.2185ZM30.4386 20.0462C29.9704 20.5492 30.5033 21.1035 31.0642 20.6068L30.4386 20.0462ZM30.8404 20.7645C30.7118 21.3289 31.3628 21.6484 31.6581 21.0703L30.8404 20.7645ZM29.7204 19.604C29.5744 20.16 29.8341 20.5175 30.2583 20.4697L29.7204 19.604ZM29.0518 19.5165C29.0997 19.8444 29.3754 19.9522 29.6718 19.8725L29.0518 19.5165ZM29.2682 19.8575C29.0743 20.3259 29.4346 20.5648 29.8743 20.3742L29.2682 19.8575ZM31.318 21.365C31.2629 21.6603 31.3195 21.8723 31.7363 21.9583L31.318 21.365ZM31.3719 21.782C30.8947 22.0361 30.888 22.5436 31.2956 22.8612L31.3719 21.782ZM30.9352 21.2295C30.6932 21.4857 30.773 21.915 31.0693 22.0756L30.9352 21.2295ZM28.6266 19.6714C28.3626 19.9771 28.6916 20.7909 29.288 20.3244L28.6266 19.6714ZM30.3303 20.6636C29.9686 21.0122 30.1869 21.62 30.8111 21.433L30.3303 20.6636Z" stroke="black" stroke-width="0.0285386"/>
<path d="M27.4673 20.9143C27.0552 20.9439 26.8897 21.1644 26.9106 21.4607M28.0779 19.6643C27.7446 19.9525 27.8671 20.3449 28.0348 20.5201C28.2024 20.6953 28.4892 20.6062 28.5675 20.3702L28.0779 19.6643ZM27.3202 19.4431C26.9616 19.984 27.4018 20.6013 27.9483 20.397L27.3202 19.4431ZM29.5491 20.9545C29.1552 21.1186 28.8736 21.5104 29.1455 21.8385C29.3058 22.0319 29.9447 22.0409 30.0717 21.2726L29.5491 20.9545ZM28.7822 20.481C28.5745 20.8377 28.6752 21.1678 29.1177 21.3262L28.7822 20.481ZM28.8028 21.1376C28.5632 21.2883 28.4116 21.4635 28.4941 21.7761L28.8028 21.1376ZM28.2048 20.6057C28.1399 21.0303 28.27 21.2876 28.5284 21.4062L28.2048 20.6057ZM28.2317 21.1084C27.8423 21.0924 27.6564 21.2686 27.8133 21.66L28.2317 21.1084ZM27.8167 21.2191C27.4278 21.0861 27.3433 20.7466 27.4816 20.3829L27.8167 21.2191Z" stroke="black" stroke-width="0.0285386"/>
<path d="M23.9972 19.9497C23.502 19.9007 23.4663 20.4956 23.6495 20.7693M26.7473 19.3139C26.4555 19.4571 26.3905 19.8817 26.5188 20.1121C26.6474 20.3424 27.0017 20.3505 27.2062 20.1917L26.7473 19.3139ZM25.8804 19.0057C25.6277 19.3367 25.9905 19.9564 26.4707 19.7899L25.8804 19.0057ZM25.1566 18.774C24.9249 19.1584 25.2534 19.7791 25.9037 19.5808L25.1566 18.774ZM26.0615 21.3308C25.9609 20.8837 26.3878 20.5748 26.9801 21.143L26.0615 21.3308ZM26.6494 20.2439C26.4966 20.4012 26.4363 20.6458 26.4759 20.8426L26.6494 20.2439ZM24.4354 18.5786C24.1867 19.0895 24.5636 19.5378 25.1622 19.3409L24.4354 18.5786ZM26.1162 19.7816C25.7412 20.215 25.9087 20.6332 26.2272 20.8672L26.1162 19.7816ZM25.8927 20.2831C25.2821 20.3092 25.2996 21.0466 25.8156 21.266L25.8927 20.2831ZM25.376 19.5599C25.1391 19.7465 25.0963 20.2425 25.5408 20.428L25.376 19.5599ZM25.4368 20.6648C25.1696 20.5464 24.8704 20.7078 24.9184 21.0213L25.4368 20.6648ZM25.0496 20.6847C24.7766 20.1165 24.1034 20.2345 24.2056 20.8255L25.0496 20.6847ZM25.1889 19.9698C25.0447 20.0009 24.7581 20.0989 24.6627 20.3355L25.1889 19.9698ZM24.6358 19.3376C24.3831 19.6686 24.6253 20.0487 24.855 20.1232L24.6358 19.3376ZM23.754 18.4536C23.7295 18.8412 23.8892 19.0257 24.3516 18.9766L23.754 18.4536ZM23.952 18.9432C23.804 19.4152 24.0596 19.615 24.5226 19.575L23.952 18.9432ZM24.0957 19.5149C23.8443 19.8639 24.0597 20.2268 24.3373 20.3719L24.0957 19.5149Z" stroke="black" stroke-width="0.0285386"/>
<path d="M23.3336 19.3405C23.12 19.7377 23.3556 20.0242 23.6206 20.1321M23.4727 18.4657C23.1918 18.6072 23.0528 19.0023 23.2268 19.2372C23.4008 19.4721 23.7103 19.3832 23.8758 19.254L23.4727 18.4657Z" stroke="black" stroke-width="0.0285386"/>
<path d="M20.8533 22.599C20.4606 22.4894 20.4184 22.0116 20.7474 21.8233M22.2132 18.4609C22.032 18.6808 22.1823 19.1152 22.661 19.1106C23.0465 19.1068 23.2152 18.7189 23.0768 18.4543L22.2132 18.4609ZM22.5928 19.1123C22.4643 19.474 22.5852 19.8554 23.1615 19.7764L22.5928 19.1123ZM23.4488 20.3324C23.0783 20.1729 22.612 20.3562 22.8484 20.7971L23.4488 20.3324ZM22.721 19.7175C22.5909 19.936 22.6636 20.2383 22.839 20.4213L22.721 19.7175ZM22.7358 20.2898C22.4998 20.3413 22.2787 20.4818 22.4516 20.8708L22.7358 20.2898ZM22.3943 20.5503C22.08 20.4608 21.7036 20.7042 21.9659 21.0278L22.3943 20.5503ZM21.8932 20.7169C21.6254 20.6797 21.3302 20.9834 21.6071 21.271L21.8932 20.7169ZM21.4876 21.0325C21.2529 21.1018 20.9913 21.3957 21.2546 21.612L21.4876 21.0325ZM22.5929 19.5961C22.2626 19.7665 22.2568 20.1695 22.4398 20.4597L22.5929 19.5961ZM22.1816 18.8649C21.6838 19.0849 21.7426 19.7993 22.3219 20.0066L22.1816 18.8649ZM22.0715 19.8522C21.7773 20.0485 21.7427 20.4075 21.964 20.6339L22.0715 19.8522ZM21.4456 18.6172C21.2457 18.6945 21.3093 19.355 21.8546 19.3216L21.4456 18.6172ZM20.8981 18.8562C20.5084 19.1537 21.0545 19.8632 21.684 19.3263L20.8981 18.8562ZM21.3292 19.5151C21.2902 19.8117 21.3897 20.1311 21.8447 20.154L21.3292 19.5151ZM21.3824 19.9079C21.0667 20.0421 21.056 20.7406 21.6489 20.7775L21.3824 19.9079ZM20.3051 19.3029C19.915 19.7167 20.6995 20.0436 20.9403 19.4549L20.3051 19.3029ZM19.7714 19.9891C19.5847 20.254 20.3497 20.9126 20.5858 19.7691L19.7714 19.9891ZM20.6612 19.7493C20.6971 20.0168 20.8622 20.1732 21.1793 20.1821L20.6612 19.7493ZM21.1893 20.4416C20.6912 20.5363 20.5755 21.2019 21.1491 21.3289L21.1893 20.4416ZM20.2522 20.3786C20.2527 20.6292 20.5148 20.8277 20.7934 20.775L20.2522 20.3786ZM21.088 21.3124C20.6345 21.4327 20.6187 22.0597 21.0261 22.0123L21.088 21.3124Z" stroke="black" stroke-width="0.0285386"/>
<path d="M21.9316 28.731C21.7877 28.7528 21.6455 28.8591 21.7758 29.1844C21.8661 29.41 22.186 29.4124 22.2221 29.2736M20.3193 22.1735C20.0184 22.3866 20.1762 22.8708 20.3468 22.937C20.5175 23.0032 20.644 22.9107 20.6502 22.7595L20.3193 22.1735ZM20.6721 23.4431C20.7211 23.6728 19.9152 23.6072 20.2762 22.8769L20.6721 23.4431ZM20.314 23.4938C20.0757 23.9539 20.5402 24.3094 20.7914 23.9155L20.314 23.4938ZM20.389 24.0382C20.3062 24.405 20.7344 24.6549 20.9801 24.3634L20.389 24.0382ZM19.2599 20.6575C19.1332 20.99 19.8876 21.0927 19.8911 20.4171L19.2599 20.6575ZM19.0864 21.1517C18.981 21.7946 20.0991 21.6291 19.7524 20.8125L19.0864 21.1517ZM19.8063 21.2375C19.9704 21.3305 20.4435 21.3258 20.5224 20.7813L19.8063 21.2375ZM20.2137 21.2434C20.2584 21.411 20.4133 21.6109 20.5502 21.6692L20.2137 21.2434ZM19.6867 21.4276C19.6607 21.7749 20.0034 22.0495 20.3746 22.0121L19.6867 21.4276ZM19.7675 21.7631C19.6035 22.0345 19.5807 22.5507 20.1551 22.5697L19.7675 21.7631ZM18.9035 21.8769C18.8312 22.1545 19.3894 22.4229 19.6733 21.9614L18.9035 21.8769ZM18.7857 22.5821C18.7544 22.7919 19.2585 23.0573 19.4711 22.1624L18.7857 22.5821ZM19.2868 22.6212C19.418 22.8396 19.8198 23.0058 20.0303 22.5642L19.2868 22.6212ZM19.6589 22.8418C19.5807 23.1551 19.8743 23.44 20.1998 23.3417L19.6589 22.8418ZM19.0326 22.7886C18.9967 23.2341 19.4951 23.4775 19.7776 23.2382L19.0326 22.7886ZM18.7308 22.9928C18.6289 23.5646 19.3232 23.7579 19.5509 23.3247L18.7308 22.9928ZM19.3887 23.4984C19.4355 23.817 19.9186 24.0785 20.265 23.8019L19.3887 23.4984ZM18.578 23.7884C18.5546 23.9313 19.1197 24.0572 19.1685 23.558L18.578 23.7884ZM18.9099 23.9031C19.0674 24.2629 19.5211 24.3387 19.7477 23.8878L18.9099 23.9031ZM19.6106 24.0695C19.6917 24.4049 20.1106 24.5795 20.4512 24.3385L19.6106 24.0695ZM20.6093 24.4675C20.5492 24.9225 21.0134 25.2735 21.2699 25.0173L20.6093 24.4675ZM19.8995 24.4079C19.801 24.9085 20.4006 25.1756 20.705 24.8913L19.8995 24.4079ZM19.1863 24.1794C19.1848 24.6416 19.5435 24.9068 19.919 24.6916L19.1863 24.1794ZM18.4515 24.2453C18.3562 24.5503 18.9866 24.7809 19.259 24.5154L18.4515 24.2453ZM18.1266 25.0813C18.2975 25.2718 18.8311 25.0609 18.851 24.6248L18.1266 25.0813ZM18.7242 24.9481C18.9401 25.1908 19.4217 25.3102 19.5758 24.7724L18.7242 24.9481ZM19.4288 25.0525C19.4467 25.4342 20.1038 25.6908 20.2629 24.984L19.4288 25.0525ZM21.0221 25.0999C20.9769 25.2878 21.1341 25.5811 21.4224 25.6083L21.0221 25.0999ZM20.488 24.9999C20.4611 25.214 20.7717 25.5027 21.0701 25.3742L20.488 24.9999ZM21.1346 25.4611C21.0675 25.6941 21.1608 26.0247 21.4506 26.0119L21.1346 25.4611ZM21.193 25.8906C20.9909 26.0919 21.1057 26.4353 21.4175 26.4397L21.193 25.8906ZM21.1037 26.2217C20.8123 26.4522 20.9535 26.937 21.3578 26.8989L21.1037 26.2217ZM20.1109 25.3084C20.1437 25.7874 20.7039 25.8423 20.7812 25.3957L20.1109 25.3084ZM20.5851 25.6856C20.5217 25.9719 20.756 26.2407 21.0904 26.151L20.5851 25.6856ZM20.8864 29.1079C20.969 29.2212 21.2623 29.0172 21.166 28.8245C21.0697 28.6317 20.7521 28.7471 20.8009 28.9504L20.8864 29.1079ZM21.0856 28.7466C21.1002 28.3551 20.665 28.3055 20.5803 28.6456L21.0856 28.7466ZM20.7244 28.4461C20.8188 28.2478 20.4359 27.9923 20.3061 28.2804L20.7244 28.4461ZM20.4309 28.1608C20.5109 27.874 20.088 27.7619 20.0725 28.0201L20.4309 28.1608ZM19.9558 27.65C19.9958 27.5067 20.466 27.5819 20.2872 27.8804L19.9558 27.65ZM20.668 28.2252C20.8382 28.0425 20.5066 27.6877 20.3251 27.8263L20.668 28.2252Z" stroke="black" stroke-width="0.0285386"/>
<path d="M18.205 25.6401C18.2005 25.8192 18.3072 26.1204 18.7334 25.9831M21.7036 28.9004C21.5517 28.8064 21.2477 28.9805 21.4154 29.2979C21.5415 29.5368 21.8092 29.4298 21.8431 29.3036L21.7036 28.9004ZM20.9211 29.3834C21.0029 29.5152 21.3613 29.447 21.415 29.2978L20.9211 29.3834ZM21.1374 28.9343C21.2104 28.8785 21.3558 28.9413 21.3904 29.0075L21.1374 28.9343ZM20.9571 26.7341C20.7217 26.9108 20.9117 27.4243 21.286 27.2794L20.9571 26.7341ZM20.9098 27.1562C20.7249 27.3224 20.9393 27.8174 21.2928 27.6196L20.9098 27.1562ZM21.003 27.6276C20.8766 27.7743 21.0367 28.1679 21.3853 28.0819L21.003 27.6276ZM20.9654 27.8254C20.8861 27.7918 20.6876 27.8243 20.6116 27.9605L20.9654 27.8254ZM20.6167 26.0235C20.4423 26.2163 20.5588 26.5978 20.9107 26.6191L20.6167 26.0235ZM20.576 26.4182C20.317 26.5642 20.3563 27.1221 20.8952 27.1293L20.576 26.4182ZM20.5991 27.0483C20.4586 27.1776 20.565 27.6576 20.9444 27.5841L20.5991 27.0483ZM20.7596 27.5717C20.7082 27.6313 20.7101 27.779 20.7614 27.8401L20.7596 27.5717ZM20.5761 27.3935C20.44 27.4018 20.2681 27.5097 20.2315 27.6583L20.5761 27.3935ZM19.9478 27.1474C19.9889 27.0031 20.4117 27.0001 20.4711 27.419L19.9478 27.1474ZM20.4784 26.9178C20.4197 26.9329 20.3086 26.9942 20.2873 27.1156L20.4784 26.9178ZM20.2031 25.6151C20.0319 25.7944 19.9811 26.3461 20.5472 26.4373L20.2031 25.6151ZM19.912 26.7594C19.9016 26.6119 20.2724 26.4761 20.42 26.6912L19.912 26.7594ZM19.6125 25.967C19.6758 26.0771 19.9509 26.2214 20.1042 26.0918L19.6125 25.967ZM18.1777 25.1313C18.1874 25.3904 18.4084 25.6168 18.6874 25.5731C18.9663 25.5294 19.0078 25.2687 18.9106 25.1015L18.1777 25.1313ZM18.7306 25.5808C18.5599 25.8271 18.8141 26.1599 19.0205 26.0557L18.7306 25.5808ZM18.9322 25.405C19.04 25.3572 19.403 25.2932 19.5264 25.4686L18.9322 25.405ZM17.7515 25.5102C17.6756 25.6466 18.2139 25.7655 18.3747 25.5014L17.7515 25.5102Z" stroke="black" stroke-width="0.0285386"/>
<path d="M17.6249 25.7277C17.5123 25.9646 18.0413 26.3768 18.2974 25.974M18.8113 26.2963C18.8694 26.1418 18.5248 25.8998 18.2949 26.185C18.0651 26.4701 18.3711 26.7762 18.5184 26.6641L18.8113 26.2963Z" stroke="black" stroke-width="0.0285386"/>
<path d="M17.3024 26.1484C17.1354 26.3465 17.384 26.6946 17.6475 26.5793C17.9108 26.4639 17.8642 26.1685 17.7943 26.0941" stroke="black" stroke-width="0.0285386"/>
<path d="M21.6523 29.6815C21.8159 29.8028 22.081 29.6516 22.0677 29.463M17.2674 26.5239C17.131 26.667 17.296 26.9905 17.4981 26.9848C17.7002 26.9791 17.8133 26.8097 17.7597 26.5999L17.2674 26.5239ZM18.0867 26.474C18.0754 26.681 18.378 26.8163 18.5536 26.6182L18.0867 26.474ZM18.536 26.2407C18.5586 26.1951 18.5318 26.1194 18.4863 26.0847L18.536 26.2407ZM16.9734 26.8108C16.8156 26.9546 17.204 27.3302 17.4068 26.9694L16.9734 26.8108ZM18.262 26.698C18.1621 26.8086 18.354 27.0863 18.52 26.9961L18.262 26.698ZM17.6872 26.9119C17.7266 27.1039 18.0979 27.2372 18.305 26.9349L17.6872 26.9119ZM17.8984 27.0991C17.8511 27.2219 17.9765 27.4118 18.1123 27.3809L17.8984 27.0991ZM21.3997 28.1111C21.2857 28.3884 21.7338 28.695 22.0201 28.3542L21.3997 28.1111ZM21.7378 28.5103C21.6837 28.6601 21.7757 28.8643 21.8972 28.9372L21.7378 28.5103ZM21.3557 28.831C21.3763 28.6955 21.5523 28.5647 21.7245 28.6228L21.3557 28.831ZM21.1068 28.4829C21.1241 28.3612 21.2703 28.2356 21.3887 28.2639L21.1068 28.4829ZM30.8392 22.599C30.2292 22.6252 30.5593 23.6407 31.0694 23.4195L30.8392 22.599ZM30.6947 23.3586C30.5888 23.5684 30.8441 23.8893 31.0884 23.6891L30.6947 23.3586ZM31.0229 23.7313C30.8643 24.0504 31.5432 24.5122 31.7664 24.0115L31.0229 23.7313ZM31.5734 24.2056C31.6028 24.5014 32.4418 24.6665 32.2798 24.0777L31.5734 24.2056ZM32.2249 24.4027C32.4473 24.747 33.1896 24.7621 33.0754 24.2439L32.2249 24.4027ZM32.9375 24.6077C33.1088 24.8366 33.8413 24.9597 33.7814 24.476L32.9375 24.6077ZM29.7962 21.7388C29.9189 22.014 30.2785 22.1028 30.6542 21.9304L29.7962 21.7388ZM29.5868 21.9424C29.839 22.0971 29.5383 22.8428 29.1477 22.5571L29.5868 21.9424ZM29.619 22.4C29.8952 22.5271 30.215 22.4191 30.2818 22.0217L29.619 22.4ZM30.1399 22.3311C30.1802 22.5368 30.4755 22.6902 30.8396 22.599L30.1399 22.3311ZM29.4926 22.5655C29.8583 22.8608 29.4037 23.5029 29.1597 23.2221L29.4926 22.5655ZM29.6383 22.7948C29.8105 22.9158 30.2269 22.8322 30.2465 22.499L29.6383 22.7948ZM30.0769 22.7824C30.1266 22.9968 30.2957 23.0729 30.5285 23.0753L30.0769 22.7824ZM29.5646 23.0934C29.7542 23.3398 30.1893 23.3994 30.3551 23.0622L29.5646 23.0934ZM30.1789 23.2559C30.1788 23.4987 30.4507 23.6887 30.7136 23.6274L30.1789 23.2559ZM29.2797 23.8207C29.5114 23.931 29.7213 23.4846 29.5106 23.185L29.2797 23.8207ZM29.5707 24.2799C29.8386 24.2903 29.8431 23.8677 29.5774 23.6414L29.5707 24.2799ZM30.2085 24.6483C30.4285 24.5882 30.3234 24.0787 29.7784 24.0492L30.2085 24.6483ZM30.9142 25.0065C31.1248 24.9376 30.9129 24.3772 30.3221 24.4299L30.9142 25.0065ZM31.7455 25.1807C31.8751 24.9434 31.3657 24.5622 30.9848 24.7797L31.7455 25.1807ZM32.1722 25.492C32.4446 25.5653 32.5732 24.8245 31.7387 24.9649L32.1722 25.492ZM32.6626 25.4782C32.8906 25.4088 33.023 24.9646 32.3537 25.1273L32.6626 25.4782ZM33.1813 25.4999C33.3952 25.6017 33.4456 24.971 32.8297 25.1592L33.1813 25.4999ZM29.577 23.6414C29.8458 23.7867 30.2374 23.5958 30.1789 23.2559L29.577 23.6414ZM30.0966 23.5553C30.1942 23.7143 30.1818 24.0294 30.0241 24.1147L30.0966 23.5553ZM30.1489 23.9313C30.326 23.9983 30.5538 23.9289 30.6711 23.6379L30.1489 23.9313ZM30.4502 23.9228C30.5105 24.047 30.5456 24.2977 30.4424 24.4265L30.4502 23.9228ZM30.5086 24.1367C30.7055 24.2391 30.9188 24.0892 30.9989 23.8802L30.5086 24.1367ZM30.891 24.0629C31.0349 24.1487 31.1851 24.567 30.9649 24.744L30.891 24.0629ZM31.0801 24.5434C31.2441 24.5477 31.485 24.5409 31.6246 24.3212L31.0801 24.5434ZM31.521 24.441C31.6704 24.4818 31.86 24.7281 31.8157 24.9541L31.521 24.441ZM31.8186 24.8727C31.9809 24.8501 32.2562 24.7255 32.3192 24.517L31.8186 24.8727ZM32.2512 24.6538C32.3947 24.7307 32.5013 24.8985 32.4979 25.0964L32.2512 24.6538ZM32.4875 24.9526C32.6502 24.9391 32.7902 24.8453 32.8198 24.6556L32.4875 24.9526ZM32.786 24.7828C32.9096 24.8243 33.066 24.9637 33.0867 25.134L32.786 24.7828ZM33.0617 25.0264C33.1809 25.005 33.2611 24.9219 33.3298 24.794L33.0617 25.0264ZM33.6553 24.7673C33.8217 24.9244 33.6532 25.4685 33.328 25.3788L33.6553 24.7673ZM29.5858 13.9865C29.2813 14.1928 28.3737 14.1556 28.7659 13.3624L29.5858 13.9865ZM29.6344 13.4546C29.025 13.7325 28.2153 13.252 28.9853 12.6819L29.6344 13.4546ZM28.7578 12.5088C28.2331 12.5236 27.9425 13.4128 28.6694 13.6979L28.7578 12.5088ZM26.7455 12.9341C26.6275 13.2161 27.1392 13.5073 27.4551 13.2197C27.6997 12.997 27.6394 12.4145 27.4689 12.1945L26.7455 12.9341ZM26.5257 13.6054C26.3954 14.2024 27.6623 14.2026 27.398 13.2661L26.5257 13.6054ZM26.5188 14.4868C26.5934 14.9342 27.7531 14.7576 27.3105 13.8622L26.5188 14.4868ZM27.4305 13.6067C27.5345 13.7386 27.809 13.9646 28.2444 13.9074L27.4305 13.6067ZM27.5918 12.9639C27.6419 13.1242 27.913 13.2425 28.24 13.1119L27.5918 12.9639ZM16.8191 26.9453C16.5379 27.1736 17.0181 27.506 17.1588 27.12L16.8191 26.9453ZM16.5987 27.1224C16.3175 27.3504 16.7977 27.6829 16.9385 27.2968L16.5987 27.1224ZM16.3652 27.2954C16.0839 27.5237 16.5641 27.8561 16.7049 27.4701L16.3652 27.2954ZM16.1179 27.4554C15.8451 27.6204 16.2034 27.9967 16.4675 27.6476L16.1179 27.4554ZM15.8489 27.6115C15.5761 27.7763 15.9345 28.1529 16.1986 27.8038L15.8489 27.6115ZM17.2572 27.1083C17.269 27.3371 17.6928 27.4196 17.8192 27.0743L17.2572 27.1083ZM17.5344 27.3121C17.4174 27.4862 17.6689 27.6904 17.7925 27.6103L17.5344 27.3121ZM16.9771 27.296C16.9778 27.4893 17.3469 27.5913 17.5084 27.3755L16.9771 27.296ZM17.1896 27.4927C17.0845 27.653 17.3273 27.8574 17.4691 27.7903L17.1896 27.4927ZM16.749 27.4778C16.7726 27.6299 16.9914 27.799 17.2081 27.694L16.749 27.4778ZM16.8966 27.6802C16.8163 27.7635 16.8726 27.9508 16.9971 28.0057L16.8966 27.6802ZM16.4485 27.6795C16.4239 27.8195 16.6692 28.0599 16.89 27.8918L16.4485 27.6795ZM16.5069 27.8397C16.3772 27.9558 16.4064 28.1257 16.5843 28.143L16.5069 27.8397ZM16.1749 27.8312C16.1643 27.9258 16.2912 28.0751 16.4362 28.0531L16.1749 27.8312ZM15.4386 27.8431C15.3064 27.9231 15.6865 28.3035 15.8802 27.9339L15.4386 27.8431ZM15.1101 28.0137C14.9441 28.104 15.4003 28.5225 15.5585 28.0776L15.1101 28.0137ZM16.2228 27.9645C16.0917 27.9996 16.02 28.2041 16.1374 28.2814L16.2228 27.9645ZM15.7935 28.0486C15.782 28.1299 15.955 28.2597 16.0848 28.2068L15.7935 28.0486ZM15.6844 28.088C15.5614 28.1769 15.647 28.4125 15.795 28.3725L15.6844 28.088ZM15.2355 28.2576C15.1217 28.355 15.2167 28.5412 15.3813 28.4917L15.2355 28.2576ZM15.4536 28.238C15.4614 28.2871 15.5743 28.3605 15.6624 28.3266L15.4536 28.238ZM14.8116 28.1752C14.6659 28.2467 14.7023 28.6413 15.1946 28.4117L14.8116 28.1752ZM14.4829 28.3419C14.2797 28.4556 14.3694 28.7497 14.8096 28.4541L14.4829 28.3419ZM14.8499 28.4756C14.7972 28.522 14.7509 28.7211 14.9561 28.6388L14.8499 28.4756ZM14.4697 28.5802C14.3894 28.6634 14.457 28.8279 14.6419 28.7596L14.4697 28.5802ZM14.0287 28.62C13.8806 28.7186 14.2291 28.8347 14.4393 28.5769L14.0287 28.62ZM14.14 28.7335C14.0763 28.8073 14.0911 29.018 14.2663 28.9368L14.14 28.7335ZM13.7074 28.8312C13.6099 28.9149 13.7938 29.0177 14.1059 28.8604L13.7074 28.8312ZM13.8444 28.944C13.7312 29.0505 13.7533 29.1802 13.9268 29.1348L13.8444 28.944ZM13.4916 29.0126C13.3672 29.142 13.5667 29.2217 13.7916 29.1119L13.4916 29.0126ZM13.5057 29.1518C13.2853 29.2658 13.3982 29.4603 13.5347 29.3802L13.5057 29.1518ZM21.1658 29.6232C21.1213 29.7434 21.3014 29.8351 21.463 29.8036C21.6181 29.7734 21.7587 29.6342 21.6274 29.4485L21.1658 29.6232Z" stroke="black" stroke-width="0.0285386"/>
<path d="M30.2682 10.5035C29.5465 10.1576 28.0549 9.52222 27.6837 10.0814C28.0465 9.9067 29.1553 10.0496 30.1212 10.9009L30.2681 10.5035L30.2682 10.5035Z" fill="white" stroke="black" stroke-width="0.0285386"/>
<path d="M30.7323 10.4693C29.8576 9.50168 29.3977 9.73647 28.7942 9.41155C28.2273 9.10626 27.355 9.06487 27.2218 9.57907C27.9899 9.14853 28.7639 9.7564 29.218 9.81991C29.8418 9.90713 30.2243 10.3998 30.4206 10.6257L30.7324 10.4693L30.7323 10.4693ZM33.7626 10.2584C33.2744 9.25934 32.3974 9.54812 31.9725 9.12979C31.3543 8.52104 29.8582 7.9826 29.2861 8.4311C30.6065 8.32083 31.2421 9.3412 31.9756 9.68202C32.4991 9.92527 33.0775 10.4615 33.7626 10.2584L33.7626 10.2584Z" fill="white" stroke="black" stroke-width="0.0285386"/>
<path d="M32.118 10.172C31.343 9.26966 30.1942 8.48653 29.7134 8.80801C30.3743 8.82572 30.6157 9.29911 31.1053 9.59338C31.5946 9.88767 31.4177 10.3365 32.118 10.172ZM28.8525 11.8944C28.087 11.626 26.6214 11.5221 26.0075 12.4272C27.1479 12.5944 28.8384 12.4384 28.8525 11.8944Z" fill="white" stroke="black" stroke-width="0.0285386"/>
<path d="M28.7133 12.2541C27.9421 11.9127 27.395 12.435 26.6891 12.3833C25.3442 12.2849 24.396 12.3931 24.3214 13.0665C25.0346 12.3298 26.3592 12.8825 26.8693 12.723C27.3795 12.5636 29.3135 12.6364 29.9394 12.8911C29.5994 12.5014 29.1063 12.4064 28.7133 12.2541ZM30.9096 10.1147C30.6945 9.5219 30.6588 8.88787 31.5205 8.90911C31.284 8.63451 30.4762 8.51195 30.4194 9.56596C29.4236 8.86807 28.3827 8.77018 28.2358 9.40031C28.6909 8.95209 29.4674 9.24787 30.4439 10.2911C30.5189 10.2436 30.7206 10.1472 30.9095 10.1147L30.9096 10.1147Z" fill="white" stroke="black" stroke-width="0.0285386"/>
<path d="M29.676 10.9794C29.1115 10.6301 28.3399 10.0585 29.6019 9.78613C29.0325 9.49178 28.2419 9.65066 28.4023 10.7047C26.8983 10.1261 25.8637 10.3644 25.6856 10.9811C25.4888 11.6618 26.4194 12.01 26.546 11.5776C26.3859 11.6551 25.8068 11.4705 26.0758 11.0797C26.345 10.6891 27.8802 10.9339 29.3762 11.6812C29.7914 11.8887 31.1628 11.8139 29.6759 10.9794L29.676 10.9794Z" fill="white" stroke="black" stroke-width="0.0285386"/>
<path d="M29.4473 11.9267C28.9692 11.0467 27.6747 11.8937 27.3427 11.0377C27.0584 12.3133 29.3024 11.5494 29.4473 11.9267ZM38.1051 12.6549C38.3984 12.7947 38.6273 12.5558 38.1814 12.3859C38.4751 12.5255 38.7065 12.2922 38.2607 12.1222C38.5543 12.2618 38.7858 12.0285 38.3399 11.8585C38.2328 11.9837 38.0984 12.4356 38.1051 12.6549ZM38.1338 10.9349C38.7126 10.2237 38.0173 10.0052 38.7337 9.2719C39.3202 8.67191 38.7861 8.29776 39.349 7.82796C39.5304 7.67661 39.9279 7.37283 39.9426 7.07976C40.2404 7.72996 39.2109 7.8501 39.3538 8.9071C39.4449 9.5801 39.0062 9.53328 38.9183 10.6753C38.8998 10.9136 38.7799 11.4474 38.1338 10.9349Z" fill="white" stroke="black" stroke-width="0.0285386"/>
<path d="M38.4957 11.1203C38.7881 10.3321 39.1872 10.3359 39.3573 10.026C39.6811 9.43643 40.5001 10.0937 41.1144 9.55957C41.0529 10.2959 40.1589 10.0579 39.8103 10.5393C39.4618 11.0207 39.1648 11.2467 38.4957 11.1203L38.4957 11.1203Z" fill="white" stroke="black" stroke-width="0.0285386"/>
<path d="M38.4923 11.3227C39.0626 10.8005 39.5325 11.125 39.9326 10.8484C40.9412 10.1511 41.4215 10.9421 42.3423 10.5999C42.1356 11.2384 40.7049 10.7363 40.1323 11.2224C39.5595 11.7085 37.463 12.2195 38.4923 11.3227ZM36.9798 14.9721C36.9508 14.6836 36.6653 14.321 36.2988 14.2861C35.9325 14.2512 35.7488 13.8586 35.4708 13.8483C35.1927 13.838 34.9705 13.2657 34.5904 13.2854C34.2104 13.3051 34.0908 13.8238 35.0146 14.2679C35.9387 14.7121 36.9628 15.2257 36.9798 14.9721L36.9798 14.9721ZM35.8721 15.2475C35.4927 15.2762 35.4812 15.8551 35.1193 15.8833C35.6405 16.1489 35.9755 15.7327 36.2097 15.3646L35.8721 15.2475Z" fill="white" stroke="black" stroke-width="0.0285386"/>
<path d="M36.0757 15.2935C35.7757 15.5872 35.7244 16.1856 36.1991 16.3413C35.8933 15.9446 36.6466 15.7404 36.3849 15.3737L36.0757 15.2935L36.0757 15.2935Z" fill="white" stroke="black" stroke-width="0.0285386"/>
<path d="M36.4221 15.2949C36.2053 15.8179 36.8578 15.8615 36.7166 16.2576C37.0807 16.1581 37.0885 15.4184 36.7381 15.2324L36.4221 15.2949Z" fill="white" stroke="black" stroke-width="0.0285386"/>
<path d="M33.8023 14.2877C34.4236 14.234 35.0187 14.5702 35.4411 15.1294C35.709 15.4842 36.5334 15.606 36.7905 15.3089C37.0474 15.0119 36.8485 14.4015 36.1694 14.6198C35.9746 14.3174 35.4796 14.4399 35.2195 14.1936C34.9592 13.9473 33.9728 13.2503 33.8023 14.2877Z" fill="white" stroke="black" stroke-width="0.0285386"/>
<path d="M36.1738 14.6124C36.0113 14.6534 35.98 14.9546 36.0948 15.1062L36.1738 14.6124ZM36.5426 14.7842C36.6011 14.8736 36.575 15.0017 36.5534 15.0661L36.5426 14.7842ZM34.7928 14.2778C35.1154 14.287 35.1934 14.5306 35.5471 14.6117L34.7928 14.2778Z" fill="white"/>
<path d="M34.7928 14.2778C35.1154 14.287 35.1934 14.5306 35.5471 14.6117M36.1738 14.6124C36.0113 14.6534 35.98 14.9546 36.0948 15.1062L36.1738 14.6124ZM36.5426 14.7842C36.6011 14.8736 36.575 15.0017 36.5534 15.0661L36.5426 14.7842Z" stroke="black" stroke-width="0.0285386" stroke-linecap="round"/>
<path d="M34.5509 13.4228C35.6882 13.69 36.5922 13.9264 37.1645 14.2466C37.7368 14.5667 38.5943 14.6364 39.3239 14.3924C40.0537 14.1483 41.4759 13.9038 41.4717 14.8931C41.8288 14.3886 41.2963 13.8714 40.2969 13.8056C40.2822 13.3208 39.766 12.8964 39.4357 13.1948C39.7561 13.1393 40.0787 13.7743 39.4581 14.0527C39.5495 13.565 39.0678 13.1396 38.6124 13.3668C38.9202 13.4516 39.2613 13.9817 38.6008 14.2069C38.1839 14.3491 37.5521 14.1986 37.0711 13.9132C36.59 13.6278 33.9282 12.6187 34.5509 13.4228Z" fill="white" stroke="black" stroke-width="0.0285386"/>
<path d="M37.3164 12.9308C36.9867 13.1011 37.2346 13.4697 36.7212 13.699C36.2075 13.9282 35.8754 14.4295 36.0242 14.8456C36.3247 14.0143 36.9581 14.0321 37.1571 13.7044C37.3563 13.3768 37.6471 12.8945 37.3164 12.9308Z" fill="white" stroke="black" stroke-width="0.0285386"/>
<path d="M37.4246 12.9753C37.4533 13.6273 36.9469 13.4039 37.2023 14.3141C37.2821 14.598 37.4254 15.0589 37.2704 15.5283C37.7907 15.0932 37.3754 14.2221 37.5991 13.8825C37.7072 13.7185 37.843 13.4642 37.8878 13.2483C37.7861 13.6267 37.8435 14.3227 38.2054 14.4912C37.8754 13.8031 38.8753 13.2023 38.1029 12.4195C38.0145 12.6188 37.7148 12.976 37.4246 12.9754L37.4246 12.9753ZM35.6402 12.3733C35.735 12.5048 35.8439 12.8415 35.7802 13.0311C35.9433 12.9192 36.1712 12.6355 36.2346 12.4459C36.5878 12.4895 36.756 12.9408 36.4375 13.1465C36.6421 13.1407 36.9915 13.1308 37.1705 12.8843C36.9126 12.6144 36.1412 12.207 35.6403 12.3733L35.6402 12.3733Z" fill="white" stroke="black" stroke-width="0.0285386"/>
<path d="M30.091 11.3086C30.0309 11.2563 29.9323 11.2078 29.7593 11.1758C29.2245 11.0771 29.4621 10.5713 29.911 10.5633C30.7923 9.44117 31.3883 10.2707 32.5306 9.8913C32.9304 9.75858 33.2132 9.78668 33.4425 9.88137C33.9394 9.50163 34.5591 9.58666 35.0328 10.0034C35.0765 9.91969 35.1384 9.85502 35.2295 9.82532C35.6302 9.69485 35.9862 10.0513 36.1321 10.5229C36.4466 10.4521 36.8222 10.6074 37.0774 10.829C37.3967 10.6411 37.6245 10.6268 37.7213 10.8081C38.0072 10.6538 38.3843 10.5516 38.6099 11.0392C38.8356 11.5268 38.1814 11.3987 38.1489 12.4423C38.1289 13.0861 37.4624 13.3578 36.8961 12.9894C35.9903 12.4 35.141 12.3248 34.7875 13.2676C34.4343 14.2104 34.1445 14.7605 33.1103 14.485C32.7373 14.3856 32.2773 14.5448 32.0105 14.973C31.7436 15.4011 31.2638 15.0212 30.7274 15.0818C31.3986 14.9534 31.1262 14.7815 31.7144 14.7251C32.2515 14.6735 32.0756 14.148 32.4186 14.0653C31.086 14.4683 31.1016 13.9373 30.0129 14.3334C30.4547 13.6626 31.246 14.0064 31.6024 13.6124C30.5914 13.6222 30.092 12.9429 29.6584 13.2457C28.9763 13.7221 29.3794 15.0129 27.5092 14.9519C26.6002 14.9223 26.0346 15.0662 25.5342 15.6472C26.3328 13.5762 27.6893 14.664 28.263 13.998C28.6021 13.6045 28.8603 13.3045 29.0264 12.9341C29.0849 12.8037 29.1711 12.7277 29.2831 12.6961C27.6984 12.228 28.5802 11.4055 30.0911 11.3086L30.091 11.3086Z" fill="white" stroke="black" stroke-width="0.0285386"/>
<path d="M37.7934 10.7769C37.8199 10.8263 37.8362 10.891 37.8418 10.9713C37.8691 11.363 37.312 11.3968 37.3186 11.9765C37.3219 12.2797 37.3007 12.4498 37.1035 12.4197C36.9066 12.3897 36.7149 12.074 36.875 11.6948" fill="white"/>
<path d="M37.7934 10.7769C37.8199 10.8263 37.8362 10.891 37.8418 10.9713C37.8691 11.363 37.312 11.3968 37.3186 11.9765C37.3219 12.2797 37.3007 12.4498 37.1035 12.4197C36.9066 12.3897 36.7149 12.074 36.875 11.6948" stroke="black" stroke-width="0.0285386" stroke-linecap="round"/>
<path d="M30.3864 10.712C30.2354 10.6106 30.0888 10.5719 29.9599 10.5742L30.3864 10.712ZM33.4761 9.89428C33.9497 10.0889 34.2084 10.5805 34.877 10.5862C35.5206 10.5917 35.9871 11.5525 37.0176 10.8889C37.0456 10.871 37.0729 10.8541 37.0995 10.8385L33.4761 9.89428ZM35.0635 10.0177C34.9788 10.1795 34.9726 10.402 35.0124 10.5961L35.0635 10.0177ZM33.1085 12.1228C32.2937 12.1456 32.1158 12.5858 32.1449 13.0021C32.1741 13.4184 32.5934 13.9507 33.2698 13.9318C33.9458 13.9128 34.2797 13.4683 34.2468 12.9977C34.2139 12.5271 33.7672 12.1043 33.1085 12.1228Z" fill="white" stroke="black" stroke-width="0.0285386"/>
<path d="M33.3385 13.8692C33.3051 13.6365 32.9033 13.6838 32.9079 13.5039C32.9124 13.3241 33.1139 13.2465 33.0963 12.9954C33.0786 12.7443 33.4383 12.7161 33.5726 12.91C33.7069 13.1039 34.0952 13.4793 34.1588 13.2799L33.3385 13.8692ZM33.573 12.9103C33.3977 13.1129 33.3401 13.5189 33.6115 13.8257L33.573 12.9103ZM33.8524 13.2077C33.8018 13.3439 33.7991 13.5507 33.8767 13.6742L33.8524 13.2077Z" fill="white"/>
<path d="M33.8524 13.2077C33.8018 13.3439 33.7991 13.5507 33.8767 13.6742M33.3385 13.8692C33.3051 13.6365 32.9033 13.6838 32.9079 13.5039C32.9124 13.3241 33.1139 13.2465 33.0963 12.9954C33.0786 12.7443 33.4383 12.7161 33.5726 12.91C33.7069 13.1039 34.0952 13.4793 34.1588 13.2799L33.3385 13.8692ZM33.573 12.9103C33.3977 13.1129 33.3401 13.5189 33.6115 13.8257L33.573 12.9103Z" stroke="black" stroke-width="0.0285386"/>
<path d="M36.2325 10.5098C35.9941 10.2255 35.487 10.1414 35.5217 10.7583M37.1431 12.4406C37.7754 12.4764 37.8315 11.7494 37.3581 11.7181L37.1431 12.4406Z" stroke="black" stroke-width="0.0285386"/>
<path d="M35.4315 11.5014C35.1742 10.9351 34.6097 10.8674 34.3323 11.1618C34.1016 11.4069 34.1378 12.0275 34.6792 12.142C34.8468 11.9061 35.1839 11.5915 35.4315 11.5015L35.4315 11.5014ZM35.1667 11.1479C34.8322 10.8611 34.4076 11.4325 34.8617 11.9333L35.1667 11.1479ZM29.2832 12.7121C29.49 12.6535 29.8049 12.7539 30.2925 12.9753C30.5995 13.1148 31.5115 13.4041 32.0486 13.0747C31.4875 13.3123 30.9882 12.4011 30.5592 12.5239C30.1302 12.6468 29.3431 12.8397 28.9841 12.512C29.8083 12.5447 30.2027 11.8451 31.1813 12.4142C31.4548 12.5732 31.7941 12.6748 32.0895 12.6481C31.2546 11.6908 30.2847 12.3465 30.1257 11.5555C30.6244 12.069 31.7108 11.3914 32.3544 12.3633L29.2832 12.7121ZM30.3018 11.6985C30.1841 11.5593 30.2232 11.4163 30.0996 11.3073L30.3018 11.6985Z" fill="white"/>
<path d="M30.3018 11.6985C30.1841 11.5593 30.2232 11.4163 30.0996 11.3073M35.4315 11.5014C35.1742 10.9351 34.6097 10.8674 34.3323 11.1618C34.1016 11.4069 34.1378 12.0275 34.6792 12.142C34.8468 11.9061 35.1839 11.5915 35.4315 11.5015L35.4315 11.5014ZM35.1667 11.1479C34.8322 10.8611 34.4076 11.4325 34.8617 11.9333L35.1667 11.1479ZM29.2832 12.7121C29.49 12.6535 29.8049 12.7539 30.2925 12.9753C30.5995 13.1148 31.5115 13.4041 32.0486 13.0747C31.4875 13.3123 30.9882 12.4011 30.5592 12.5239C30.1302 12.6468 29.3431 12.8397 28.9841 12.512C29.8083 12.5447 30.2027 11.8451 31.1813 12.4142C31.4548 12.5732 31.7941 12.6748 32.0895 12.6481C31.2546 11.6908 30.2847 12.3465 30.1257 11.5555C30.6244 12.069 31.7108 11.3914 32.3544 12.3633L29.2832 12.7121Z" stroke="black" stroke-width="0.0285386"/>
<path d="M36.2349 10.5278C36.032 10.3249 35.6226 10.5033 35.7627 10.9223C35.8438 10.7235 36.031 10.5523 36.2349 10.5278ZM35.1109 11.7071C35.2376 11.6048 35.3695 11.52 35.4824 11.4798C35.4113 11.3235 35.3144 11.2069 35.2055 11.1269C35.1021 11.0599 34.8366 11.4628 35.1109 11.7071Z" fill="black"/>
<path d="M33.0265 11.2662C32.6843 11.2123 32.4052 11.3198 32.5961 11.4413M34.5104 11.0067C34.1832 10.7984 33.8986 10.8245 33.8159 11.0081C33.5901 11.0054 33.4157 11.1824 33.4311 11.5263L34.5104 11.0067ZM33.9223 11.6576C33.5311 11.4013 33.0266 11.5151 33.1032 12.1111L33.9223 11.6576ZM32.9016 12.4563C33.0728 12.2975 33.3251 12.1817 33.5435 12.4474L32.9016 12.4563ZM35.6424 11.7907C35.58 11.8921 35.5388 12.0473 35.6678 12.2794C35.5159 12.0934 35.1694 12.1031 34.8321 12.6199L35.6424 11.7907ZM36.4636 11.7407C36.0168 11.8076 36.0471 12.1148 36.4204 12.2403L36.4636 11.7407ZM33.177 10.6816C32.7901 10.6108 32.5293 10.8538 33.0718 11.0379L33.177 10.6816ZM33.8858 10.3898C33.3389 10.2692 33.1324 10.4199 33.3839 10.5398L33.8858 10.3898ZM32.4921 12.6857C32.4888 12.8852 32.611 13.1445 32.9021 12.8373L32.4921 12.6857ZM32.6383 13.2794C32.6421 13.3337 32.6378 13.3972 32.6062 13.4434L32.6383 13.2794ZM31.2045 10.6642C30.8682 10.574 30.7855 10.2591 31.1688 10.2755L31.2045 10.6642ZM31.1433 11.4C30.7704 11.2835 30.7444 10.9127 31.0502 10.9404L31.1433 11.4ZM31.8061 11.1911C31.3739 11.0945 31.3351 10.7875 31.659 10.8237L31.8061 11.1911ZM31.7919 10.2492C31.5655 10.2374 31.2371 10.5094 31.8285 10.6469L31.7919 10.2492ZM32.4617 10.7562C31.9274 10.6896 31.9519 10.9155 32.2738 11.0515L32.4617 10.7562ZM32.8233 10.2203C32.4103 10.1503 32.2894 10.4074 32.5742 10.5082L32.8233 10.2203ZM31.6506 11.8209C31.5448 11.7378 31.4338 11.3286 31.9188 11.4374L31.6506 11.8209ZM32.6295 11.6668C32.3027 11.5854 32.0222 11.9194 32.33 12.1012L32.6295 11.6668Z" stroke="black" stroke-width="0.0285386" stroke-linecap="round"/>
<path d="M36.2251 10.5276C36.0352 10.5702 35.8694 10.691 35.7702 10.9222L36.2251 10.5276Z" fill="white"/>
<path d="M36.2251 10.5276C36.0352 10.5702 35.8694 10.691 35.7702 10.9222" stroke="black" stroke-width="0.0285386"/>
</g>
<path d="M11.7035 1.61228C6.53056 2.04084 2.23921 5.77712 1.57724 11.0101C1.25164 13.5841 1 16.6548 1 20C1 23.3452 1.25164 26.4159 1.57724 28.9899C2.23922 34.2229 6.53056 37.9592 11.7035 38.3877C15.5784 38.7087 20.5852 39 26 39C31.4148 39 36.4216 38.7087 40.2965 38.3877C45.4694 37.9592 49.7608 34.2229 50.4228 28.9899C50.7484 26.4159 51 23.3452 51 20C51 16.6548 50.7484 13.5841 50.4228 11.0101C49.7608 5.77712 45.4694 2.04084 40.2965 1.61228C36.4216 1.29127 31.4148 1 26 1C20.5852 1 15.5784 1.29127 11.7035 1.61228Z" stroke="#E6E6FA" stroke-width="2"/>
</svg>
