<svg width="52" height="40" viewBox="0 0 52 40" fill="none" xmlns="http://www.w3.org/2000/svg">
<mask id="mask0_1_32499" style="mask-type:alpha" maskUnits="userSpaceOnUse" x="2" y="2" width="48" height="36">
<path d="M2.56934 11.1356C3.16681 6.41247 7.0415 3.00193 11.7861 2.60887C15.6412 2.28949 20.6196 2 26 2C31.3804 2 36.3588 2.28949 40.2139 2.60887C44.9585 3.00193 48.8332 6.41247 49.4307 11.1356C49.752 13.6759 50 16.704 50 20C50 23.296 49.752 26.3241 49.4307 28.8644C48.8332 33.5875 44.9585 36.9981 40.2139 37.3911C36.3588 37.7105 31.3804 38 26 38C20.6196 38 15.6412 37.7105 11.7861 37.3911C7.0415 36.9981 3.16681 33.5875 2.56934 28.8644C2.248 26.3241 2 23.296 2 20C2 16.704 2.248 13.6759 2.56934 11.1356Z" fill="#00D0BF"/>
</mask>
<g mask="url(#mask0_1_32499)">
<rect x="2" y="-4" width="13" height="49" fill="#EE5757"/>
<rect x="15" y="-4" width="22" height="49" fill="white"/>
<path d="M26.4355 30.0417L26.2177 25.8659C26.2146 25.7972 26.2269 25.7287 26.2537 25.6654C26.2805 25.6021 26.3212 25.5456 26.3727 25.5001C26.4242 25.4546 26.4853 25.4213 26.5514 25.4025C26.6176 25.3837 26.6871 25.38 26.7548 25.3917L30.9113 26.1223L30.35 24.5739C30.3272 24.5123 30.3243 24.4451 30.3417 24.3818C30.359 24.3184 30.3958 24.2621 30.4468 24.2207L35 20.5336L33.9742 20.0546C33.9049 20.0219 33.85 19.9649 33.8197 19.8946C33.7894 19.8242 33.7858 19.7452 33.8097 19.6723L34.7097 16.9046L32.0871 17.461C32.016 17.4759 31.9421 17.4656 31.8777 17.4321C31.8133 17.3986 31.7625 17.3439 31.7339 17.2772L31.2258 16.082L29.179 18.2788C29.1322 18.3281 29.0707 18.361 29.0036 18.3724C28.9366 18.3839 28.8676 18.3732 28.8071 18.3422C28.7466 18.3111 28.6978 18.2613 28.668 18.2001C28.6382 18.1389 28.6291 18.0698 28.6419 18.003L29.629 12.9127L28.0468 13.8272C28.0096 13.8489 27.9684 13.8629 27.9257 13.868C27.8829 13.8732 27.8396 13.8696 27.7983 13.8573C27.757 13.8451 27.7187 13.8245 27.6857 13.7968C27.6527 13.7692 27.6257 13.735 27.6065 13.6965L26 10.5417L24.3935 13.6965C24.3743 13.735 24.3473 13.7692 24.3143 13.7968C24.2813 13.8245 24.243 13.8451 24.2017 13.8573C24.1604 13.8696 24.1171 13.8732 24.0743 13.868C24.0316 13.8629 23.9904 13.8489 23.9532 13.8272L22.371 12.9127L23.3581 18.003C23.3709 18.0698 23.3618 18.1389 23.332 18.2001C23.3022 18.2613 23.2534 18.3111 23.1929 18.3422C23.1324 18.3732 23.0634 18.3839 22.9964 18.3724C22.9293 18.361 22.8678 18.3281 22.821 18.2788L20.7742 16.082L20.2661 17.2772C20.2375 17.3439 20.1867 17.3986 20.1223 17.4321C20.0579 17.4656 19.984 17.4759 19.9129 17.461L17.2903 16.9046L18.1903 19.6723C18.2142 19.7452 18.2106 19.8242 18.1803 19.8946C18.15 19.9649 18.0951 20.0219 18.0258 20.0546L17 20.5336L21.5532 24.2207C21.6042 24.2621 21.641 24.3184 21.6583 24.3818C21.6757 24.4451 21.6728 24.5123 21.65 24.5739L21.0887 26.1223L25.2452 25.3917C25.3129 25.38 25.3824 25.3837 25.4486 25.4025C25.5147 25.4213 25.5758 25.4546 25.6273 25.5001C25.6788 25.5456 25.7195 25.6021 25.7463 25.6654C25.7731 25.7287 25.7854 25.7972 25.7823 25.8659L25.5645 30.0417H26.4355Z" fill="#EE5757"/>
<rect x="37" y="-4" width="13" height="49" fill="#EE5757"/>
</g>
<path d="M11.7035 1.61228C6.53056 2.04084 2.23921 5.77712 1.57724 11.0101C1.25164 13.5841 1 16.6548 1 20C1 23.3452 1.25164 26.4159 1.57724 28.9899C2.23922 34.2229 6.53056 37.9592 11.7035 38.3877C15.5784 38.7087 20.5852 39 26 39C31.4148 39 36.4216 38.7087 40.2965 38.3877C45.4694 37.9592 49.7608 34.2229 50.4228 28.9899C50.7484 26.4159 51 23.3452 51 20C51 16.6548 50.7484 13.5841 50.4228 11.0101C49.7608 5.77712 45.4694 2.04084 40.2965 1.61228C36.4216 1.29127 31.4148 1 26 1C20.5852 1 15.5784 1.29127 11.7035 1.61228Z" stroke="#E6E6FA" stroke-width="2"/>
</svg>
