<svg width="52" height="40" viewBox="0 0 52 40" fill="none" xmlns="http://www.w3.org/2000/svg">
<mask id="mask0_1_34325" style="mask-type:alpha" maskUnits="userSpaceOnUse" x="2" y="2" width="48" height="36">
<path d="M2.56934 11.1356C3.16681 6.41247 7.0415 3.00193 11.7861 2.60887C15.6412 2.28949 20.6196 2 26 2C31.3804 2 36.3588 2.28949 40.2139 2.60887C44.9585 3.00193 48.8332 6.41247 49.4307 11.1356C49.752 13.6759 50 16.704 50 20C50 23.296 49.752 26.3241 49.4307 28.8644C48.8332 33.5875 44.9585 36.9981 40.2139 37.3911C36.3588 37.7105 31.3804 38 26 38C20.6196 38 15.6412 37.7105 11.7861 37.3911C7.0415 36.9981 3.16681 33.5875 2.56934 28.8644C2.248 26.3241 2 23.296 2 20C2 16.704 2.248 13.6759 2.56934 11.1356Z" fill="#00D0BF"/>
</mask>
<g mask="url(#mask0_1_34325)">
<rect x="2" y="-4" width="48" height="49" fill="#59C785"/>
<path fill-rule="evenodd" clip-rule="evenodd" d="M31 24.6062C29.8932 25.6145 28.4215 26.2293 26.8062 26.2293C23.3659 26.2293 20.5769 23.4403 20.5769 20C20.5769 16.5596 23.3659 13.7706 26.8062 13.7706C28.4215 13.7706 29.8932 14.3854 31 15.3937C30.3204 15.0609 29.5563 14.8741 28.7486 14.8741C25.9177 14.8741 23.6228 17.169 23.6228 20C23.6228 22.8309 25.9177 25.1258 28.7486 25.1258C29.5564 25.1258 30.3204 24.939 31 24.6062Z" fill="#FCD95E"/>
<path d="M12 17C14.7614 17 17 14.7614 17 12C17 9.23858 14.7614 7 12 7C9.23858 7 7 9.23858 7 12C7 14.7614 9.23858 17 12 17Z" fill="#FCD95E"/>
<path d="M11.655 15.77H12.9035C12.9035 15.77 12.9599 15.6556 12.891 15.5983C12.822 15.5411 12.5536 15.5285 12.6261 15.3261C12.7752 14.91 12.796 15.0383 12.8897 14.0499C12.9833 13.0615 13.0284 11.5113 13.0284 11.5113H12.848C12.848 11.5113 12.8827 11.9933 12.7787 12.6211C12.6746 13.2488 12.6434 13.3042 12.529 13.7863C12.4145 14.2683 12.3972 14.31 12.2932 14.5909C12.1891 14.8718 12.1787 14.8857 12.0157 15.1457C11.8527 15.4058 11.9117 15.3087 11.8215 15.4648C11.7764 15.5428 11.7209 15.522 11.6906 15.5788C11.6602 15.6356 11.655 15.77 11.655 15.77L11.655 15.77Z" fill="#802000" stroke="#7B3100" stroke-width="0.106059"/>
<path d="M12.6077 8.35729C12.6181 8.55121 12.5986 8.80792 12.5182 9.01684C12.4367 9.24964 12.3481 9.4817 12.3525 9.72279C12.2229 9.76686 12.0894 9.44244 11.9647 9.6333C12.0584 9.89701 12.2749 10.1058 12.4232 10.3434C12.4482 10.4171 12.6615 10.6094 12.5381 10.6541C12.2265 10.5475 12.151 10.1527 11.9577 9.91297C11.7332 9.50953 11.3148 9.22438 10.8486 9.2047C10.6735 9.20929 10.1042 9.1613 10.2523 9.46115C10.4705 9.60948 10.7393 9.7062 10.9547 9.87268C11.1152 9.8877 11.4061 10.1556 11.3892 10.2569C11.1069 10.1425 10.9747 10.0055 10.6706 9.88524C10.2585 9.72608 9.68852 9.82181 9.46038 10.2308C9.41785 10.3373 9.35505 10.6477 9.48881 10.6773C9.6451 10.4333 9.86867 10.1605 10.1999 10.2337C10.4601 10.254 9.9096 10.7184 10.1202 10.625C10.1869 10.5954 10.341 10.4942 10.4479 10.4836C10.5548 10.4731 10.6145 10.5531 10.6957 10.5642C10.8579 10.5863 10.9025 10.6543 10.8875 10.6939C10.8698 10.7406 10.8182 10.7007 10.6533 10.753C10.5709 10.7791 10.5278 10.8516 10.4316 10.8848C10.3354 10.9179 10.1354 10.9203 10.0606 10.8909C9.79904 10.7773 9.3702 10.797 9.28866 11.1248C9.28859 11.269 9.16031 11.1089 9.10103 11.1712C9.05658 11.3285 9.04508 11.49 8.81179 11.4757C8.67018 11.6242 8.52516 11.7781 8.34534 11.8838C8.45086 12.126 8.86897 11.6405 8.84943 11.8452C8.66665 12.0944 8.94347 12.1469 9.06465 11.9551C9.26959 11.7385 9.52342 11.4749 9.82924 11.6932C9.97489 11.8303 10.0595 11.6206 10.165 11.6319C10.2314 11.8022 10.3149 11.6403 10.3903 11.5921C10.5137 11.5767 10.479 11.7462 10.6257 11.6418C10.9179 11.4484 11.2774 11.6109 11.5629 11.4227C11.8668 11.2843 11.6056 11.5343 11.5217 11.632C11.3882 11.8909 11.504 12.2309 11.2144 12.3917C11.0981 12.7003 11.3518 13.1071 11.093 13.3355C11.0553 13.4786 11.4259 13.4622 11.5299 13.5211C11.7121 13.5283 11.522 13.104 11.7028 13.0471C11.9453 13.1972 11.934 12.7787 11.8839 12.6496C11.9074 12.3562 11.924 12.0354 12.0698 11.7696C12.2248 11.4439 12.3682 11.9023 12.1947 12.0312C12.0962 12.3308 11.9527 12.7056 12.1768 12.9842C12.2414 12.9986 12.2944 13.1552 12.3781 13.2033C12.4617 13.2514 12.5759 13.1911 12.5968 13.0487C12.7041 12.6197 12.65 12.1584 12.8032 11.7412C12.9113 11.612 13.0605 11.7204 13.1276 11.8392C13.3422 12.0885 13.4931 12.4001 13.7531 12.6054C13.9897 12.7162 14.199 12.8837 14.3081 13.1273C14.3066 13.3153 14.8419 13.3441 14.682 13.1351C14.5285 12.9317 14.6297 12.7283 14.7852 12.593C14.8685 12.6136 14.8439 12.4645 14.7786 12.5234C14.6741 12.4988 14.6674 12.3075 14.8127 12.3984C15.0574 12.4774 14.7936 12.2213 14.7051 12.2135C14.4982 12.0852 14.2605 11.9377 14.1588 11.7147C14.4281 11.7175 14.7077 11.8628 14.983 11.7726C15.2036 11.6593 15.4274 11.7821 15.5044 11.9766C15.675 11.9494 15.6022 11.7783 15.5044 11.7214C15.6291 11.6699 15.7154 11.5632 15.5642 11.469C15.4843 11.3648 15.6713 11.187 15.4414 11.1944C15.4489 11.0188 15.3798 10.8581 15.1884 10.7975C14.9967 10.6351 14.4341 11.0367 14.4504 10.6707C14.3937 10.4715 14.679 10.6441 14.7587 10.5448C14.841 10.3348 14.3662 10.3553 14.5229 10.1925C14.6252 10.1266 15.1054 10.032 14.7288 9.96148C14.5409 10.0131 14.3796 9.97489 14.2317 9.88188C14.0969 10.1073 13.712 9.75943 13.7806 10.1603C13.7279 10.3113 13.3838 10.7038 13.2907 10.4031C13.3699 10.1675 13.7776 10.0904 13.6511 9.77267C13.6317 9.57432 13.4673 9.80716 13.3898 9.79237C13.3506 9.66891 13.5085 9.52338 13.6185 9.49408C13.8369 9.66202 13.8435 9.2822 14.0511 9.3131C14.2028 9.27941 14.0022 9.21438 13.9599 9.18584C14.0015 9.07486 14.2342 9.01815 14.006 8.92178C13.8046 8.77236 13.6553 9.07051 13.4892 9.08641C13.3298 8.90643 13.634 8.81992 13.7179 8.72514C13.7225 8.65449 13.5406 8.70382 13.5953 8.64228C13.6428 8.55732 13.9649 8.551 13.8141 8.42353C13.5869 8.34556 13.2939 8.365 13.076 8.46601C12.9387 8.51045 12.8983 8.82087 12.78 8.808C12.7243 8.66983 12.7981 8.39722 12.6076 8.35724L12.6077 8.35729ZM13.6816 11.39C13.8546 11.3607 13.6852 11.6528 13.602 11.6485C13.6094 11.5435 13.3517 11.5536 13.5116 11.4622C13.5634 11.4287 13.6212 11.4032 13.6816 11.39Z" fill="#008000"/>
<path d="M40.1913 13.1306L39.5033 12.4866L38.807 13.1216L38.8816 12.1825L37.9509 12.034L38.7319 11.5066L38.2676 10.6866L39.167 10.9682L39.5186 10.0939L39.8591 10.9727L40.762 10.7026L40.2872 11.5165L41.0613 12.0539L40.1288 12.1905L40.1913 13.1306L40.1913 13.1306Z" fill="#FCD95E"/>
<path d="M36.2403 20.0447L35.5523 19.4007L34.8561 20.0358L34.9307 19.0966L34 18.9481L34.781 18.4207L34.3167 17.6007L35.216 17.8824L35.5677 17.0081L35.9082 17.8868L36.8111 17.6167L36.3362 18.4307L37.1104 18.968L36.1779 19.1046L36.2404 20.0447L36.2403 20.0447Z" fill="#FCD95E"/>
<path d="M42.1667 28.9343L41.4787 28.2903L40.7825 28.9253L40.8571 27.9862L39.9264 27.8377L40.7074 27.3103L40.2431 26.4903L41.1424 26.772L41.4941 25.8976L41.8346 26.7764L42.7375 26.5063L42.2626 27.3203L43.0368 27.8576L42.1043 27.9942L42.1668 28.9343L42.1667 28.9343Z" fill="#FCD95E"/>
<path d="M45.13 16.0938L44.442 15.4498L43.7457 16.0848L43.8203 15.1457L42.8896 14.9972L43.6707 14.4698L43.2063 13.6498L44.1057 13.9314L44.4574 13.0571L44.7978 13.9359L45.7007 13.6657L45.2259 14.4797L46.0001 15.0171L45.0675 15.1537L45.13 16.0938L45.13 16.0938Z" fill="#FCD95E"/>
<path d="M42.6318 20.9321L41.8897 20.4375L41.1672 20.959L41.4214 20.119L40.6886 19.6109L41.5879 19.5869L41.857 18.7508L42.1589 19.5763L43.0582 19.5679L42.3454 20.1022L42.6318 20.9321L42.6318 20.9321Z" fill="#FCD95E"/>
</g>
<path d="M11.7035 1.61228C6.53056 2.04084 2.23921 5.77712 1.57724 11.0101C1.25164 13.5841 1 16.6548 1 20C1 23.3452 1.25164 26.4159 1.57724 28.9899C2.23922 34.2229 6.53056 37.9592 11.7035 38.3877C15.5784 38.7087 20.5852 39 26 39C31.4148 39 36.4216 38.7087 40.2965 38.3877C45.4694 37.9592 49.7608 34.2229 50.4228 28.9899C50.7484 26.4159 51 23.3452 51 20C51 16.6548 50.7484 13.5841 50.4228 11.0101C49.7608 5.77712 45.4694 2.04084 40.2965 1.61228C36.4216 1.29127 31.4148 1 26 1C20.5852 1 15.5784 1.29127 11.7035 1.61228Z" stroke="#E6E6FA" stroke-width="2"/>
</svg>
