<svg width="52" height="40" viewBox="0 0 52 40" fill="none" xmlns="http://www.w3.org/2000/svg">
<mask id="mask0_1_40749" style="mask-type:alpha" maskUnits="userSpaceOnUse" x="2" y="2" width="48" height="36">
<path d="M2.56934 11.1356C3.16681 6.41247 7.0415 3.00193 11.7861 2.60887C15.6412 2.28949 20.6196 2 26 2C31.3804 2 36.3588 2.28949 40.2139 2.60887C44.9585 3.00193 48.8332 6.41247 49.4307 11.1356C49.752 13.6759 50 16.704 50 20C50 23.296 49.752 26.3241 49.4307 28.8644C48.8332 33.5875 44.9585 36.9981 40.2139 37.3911C36.3588 37.7105 31.3804 38 26 38C20.6196 38 15.6412 37.7105 11.7861 37.3911C7.0415 36.9981 3.16681 33.5875 2.56934 28.8644C2.248 26.3241 2 23.296 2 20C2 16.704 2.248 13.6759 2.56934 11.1356Z" fill="#00D0BF"/>
</mask>
<g mask="url(#mask0_1_40749)">
<rect x="2" y="2" width="48" height="36" fill="#2E50A6"/>
<mask id="mask1_1_40749" style="mask-type:alpha" maskUnits="userSpaceOnUse" x="2" y="2" width="24" height="18">
<rect x="2" y="2" width="24" height="18" fill="#C4C4C4"/>
</mask>
<g mask="url(#mask1_1_40749)">
<path d="M2 2L26 20L2 2ZM26 2L2 20L26 2Z" fill="black"/>
<path d="M26 2L2 20M2 2L26 20L2 2Z" stroke="white" stroke-width="2.4"/>
<path d="M2 2L26 20L2 2ZM26 2L2 20L26 2Z" fill="black"/>
<path d="M26 2L2 20M2 2L26 20L2 2Z" stroke="#EE5757" stroke-width="1.6"/>
<path d="M14 2V23V2ZM2 11H30H2Z" fill="black"/>
<path d="M2 11H30M14 2V23V2Z" stroke="white" stroke-width="4"/>
<path d="M14 2V23V2ZM2 11H30H2Z" fill="black"/>
<path d="M2 11H30M14 2V23V2Z" stroke="#EE5757" stroke-width="2.4"/>
</g>
</g>
<path d="M11.7035 1.61228C6.53056 2.04084 2.23921 5.77712 1.57724 11.0101C1.25164 13.5841 1 16.6548 1 20C1 23.3452 1.25164 26.4159 1.57724 28.9899C2.23922 34.2229 6.53056 37.9592 11.7035 38.3877C15.5784 38.7087 20.5852 39 26 39C31.4148 39 36.4216 38.7087 40.2965 38.3877C45.4694 37.9592 49.7608 34.2229 50.4228 28.9899C50.7484 26.4159 51 23.3452 51 20C51 16.6548 50.7484 13.5841 50.4228 11.0101C49.7608 5.77712 45.4694 2.04084 40.2965 1.61228C36.4216 1.29127 31.4148 1 26 1C20.5852 1 15.5784 1.29127 11.7035 1.61228Z" stroke="#E6E6FA" stroke-width="2"/>
<path d="M37.5 11L37.7726 11.8391H38.6548L37.9411 12.3576L38.2137 13.1967L37.5 12.6781L36.7863 13.1967L37.0589 12.3576L36.3451 11.8391H37.2274L37.5 11Z" fill="white"/>
<path d="M37.5 28L37.2274 27.1609L36.3452 27.1609L37.0589 26.6424L36.7863 25.8033L37.5 26.3219L38.2137 25.8033L37.9411 26.6424L38.6549 27.1609L37.7726 27.1609L37.5 28Z" fill="white"/>
<path d="M41.75 12.1388L41.5666 13.0017L42.3306 13.4428L41.4532 13.535L41.2698 14.398L40.911 13.592L40.0336 13.6843L40.6892 13.0939L40.3304 12.288L41.0944 12.7291L41.75 12.1388Z" fill="white"/>
<path d="M33.25 26.8612L33.4335 25.9983L32.6694 25.5571L33.5468 25.4649L33.7302 24.602L34.0891 25.4079L34.9665 25.3157L34.3109 25.906L34.6697 26.712L33.9057 26.2709L33.25 26.8612Z" fill="white"/>
<path d="M44.8612 15.25L44.2709 15.9056L44.712 16.6696L43.9061 16.3108L43.3157 16.9664L43.408 16.089L42.602 15.7302L43.4649 15.5468L43.5572 14.6694L43.9983 15.4334L44.8612 15.25Z" fill="white"/>
<path d="M30.1388 23.75L30.7291 23.0944L30.288 22.3303L31.0939 22.6892L31.6843 22.0336L31.592 22.911L32.398 23.2698L31.5351 23.4532L31.4428 24.3306L31.0017 23.5666L30.1388 23.75Z" fill="white"/>
<path d="M46 19.5L45.1609 19.7726L45.1609 20.6548L44.6424 19.9411L43.8033 20.2137L44.3219 19.5L43.8033 18.7863L44.6424 19.0589L45.1609 18.3451L45.1609 19.2274L46 19.5Z" fill="white"/>
<path d="M29 19.5L29.8391 19.2274L29.8391 18.3452L30.3576 19.0589L31.1967 18.7863L30.6781 19.5L31.1967 20.2137L30.3576 19.9411L29.8391 20.6549L29.8391 19.7726L29 19.5Z" fill="white"/>
<path d="M44.8612 23.75L43.9983 23.5666L43.5572 24.3306L43.465 23.4532L42.602 23.2698L43.408 22.9109L43.3157 22.0335L43.9061 22.6892L44.712 22.3303L44.2709 23.0944L44.8612 23.75Z" fill="white"/>
<path d="M30.1388 15.25L31.0017 15.4335L31.4428 14.6694L31.535 15.5468L32.398 15.7302L31.592 16.0891L31.6843 16.9665L31.0939 16.3109L30.288 16.6697L30.7291 15.9057L30.1388 15.25Z" fill="white"/>
<path d="M41.75 26.8612L41.0943 26.2709L40.3303 26.712L40.6891 25.906L40.0335 25.3157L40.9109 25.4079L41.2698 24.602L41.4532 25.4649L42.3306 25.5571L41.5665 25.9983L41.75 26.8612Z" fill="white"/>
<path d="M33.25 12.1388L33.9056 12.7291L34.6696 12.288L34.3108 13.0939L34.9664 13.6843L34.089 13.592L33.7302 14.398L33.5468 13.5351L32.6694 13.4428L33.4334 13.0017L33.25 12.1388Z" fill="white"/>
</svg>
