<svg width="52" height="40" viewBox="0 0 52 40" fill="none" xmlns="http://www.w3.org/2000/svg">
<mask id="mask0_1_37000" style="mask-type:alpha" maskUnits="userSpaceOnUse" x="2" y="2" width="48" height="36">
<path d="M2.56934 11.1356C3.16681 6.41247 7.0415 3.00193 11.7861 2.60887C15.6412 2.28949 20.6196 2 26 2C31.3804 2 36.3588 2.28949 40.2139 2.60887C44.9585 3.00193 48.8332 6.41247 49.4307 11.1356C49.752 13.6759 50 16.704 50 20C50 23.296 49.752 26.3241 49.4307 28.8644C48.8332 33.5875 44.9585 36.9981 40.2139 37.3911C36.3588 37.7105 31.3804 38 26 38C20.6196 38 15.6412 37.7105 11.7861 37.3911C7.0415 36.9981 3.16681 33.5875 2.56934 28.8644C2.248 26.3241 2 23.296 2 20C2 16.704 2.248 13.6759 2.56934 11.1356Z" fill="#00D0BF"/>
</mask>
<g mask="url(#mask0_1_37000)">
<rect x="2" y="2" width="48" height="36" fill="#2E50A6"/>
<rect x="2" y="27" width="48" height="3" fill="white"/>
<rect x="2" y="24" width="48" height="3" fill="#EE5757"/>
<rect x="2" y="21" width="48" height="3" fill="white"/>
</g>
<path d="M11.7035 1.61228C6.53056 2.04084 2.23921 5.77712 1.57724 11.0101C1.25164 13.5841 1 16.6548 1 20C1 23.3452 1.25164 26.4159 1.57724 28.9899C2.23922 34.2229 6.53056 37.9592 11.7035 38.3877C15.5784 38.7087 20.5852 39 26 39C31.4148 39 36.4216 38.7087 40.2965 38.3877C45.4694 37.9592 49.7608 34.2229 50.4228 28.9899C50.7484 26.4159 51 23.3452 51 20C51 16.6548 50.7484 13.5841 50.4228 11.0101C49.7608 5.77712 45.4694 2.04084 40.2965 1.61228C36.4216 1.29127 31.4148 1 26 1C20.5852 1 15.5784 1.29127 11.7035 1.61228Z" stroke="#E6E6FA" stroke-width="2"/>
<path d="M18.5 16L18.8368 17.0365H19.9266L19.0449 17.6771L19.3817 18.7135L18.5 18.0729L17.6183 18.7135L17.9551 17.6771L17.0734 17.0365H18.1632L18.5 16Z" fill="#FCD95E"/>
<path d="M23.5 18L23.8368 19.0365H24.9266L24.0449 19.6771L24.3817 20.7135L23.5 20.0729L22.6183 20.7135L22.9551 19.6771L22.0734 19.0365H23.1632L23.5 18Z" fill="#FCD95E"/>
<path d="M13.5 18L13.8368 19.0365H14.9266L14.0449 19.6771L14.3817 20.7135L13.5 20.0729L12.6183 20.7135L12.9551 19.6771L12.0734 19.0365H13.1632L13.5 18Z" fill="#FCD95E"/>
<path d="M26.5 22L26.8368 23.0365H27.9266L27.0449 23.6771L27.3817 24.7135L26.5 24.0729L25.6183 24.7135L25.9551 23.6771L25.0734 23.0365H26.1632L26.5 22Z" fill="#FCD95E"/>
<path d="M10.5 22L10.8368 23.0365H11.9266L11.0449 23.6771L11.3817 24.7135L10.5 24.0729L9.61832 24.7135L9.95509 23.6771L9.07342 23.0365H10.1632L10.5 22Z" fill="#FCD95E"/>
<path d="M18.5 32L18.8368 33.0365H19.9266L19.0449 33.6771L19.3817 34.7135L18.5 34.0729L17.6183 34.7135L17.9551 33.6771L17.0734 33.0365H18.1632L18.5 32Z" fill="#FCD95E"/>
<path d="M23.5 30L23.8368 31.0365H24.9266L24.0449 31.6771L24.3817 32.7135L23.5 32.0729L22.6183 32.7135L22.9551 31.6771L22.0734 31.0365H23.1632L23.5 30Z" fill="#FCD95E"/>
<path d="M13.5 30L13.8368 31.0365H14.9266L14.0449 31.6771L14.3817 32.7135L13.5 32.0729L12.6183 32.7135L12.9551 31.6771L12.0734 31.0365H13.1632L13.5 30Z" fill="#FCD95E"/>
<path d="M26.5 26L26.8368 27.0365H27.9266L27.0449 27.6771L27.3817 28.7135L26.5 28.0729L25.6183 28.7135L25.9551 27.6771L25.0734 27.0365H26.1632L26.5 26Z" fill="#FCD95E"/>
<path d="M10.5 26L10.8368 27.0365H11.9266L11.0449 27.6771L11.3817 28.7135L10.5 28.0729L9.61832 28.7135L9.95509 27.6771L9.07342 27.0365H10.1632L10.5 26Z" fill="#FCD95E"/>
</svg>
