<svg width="52" height="40" viewBox="0 0 52 40" fill="none" xmlns="http://www.w3.org/2000/svg">
<mask id="mask0_1_32030" style="mask-type:alpha" maskUnits="userSpaceOnUse" x="2" y="2" width="48" height="36">
<path d="M2.56934 11.1356C3.16681 6.41247 7.0415 3.00193 11.7861 2.60887C15.6412 2.28949 20.6196 2 26 2C31.3804 2 36.3588 2.28949 40.2139 2.60887C44.9585 3.00193 48.8332 6.41247 49.4307 11.1356C49.752 13.6759 50 16.704 50 20C50 23.296 49.752 26.3241 49.4307 28.8644C48.8332 33.5875 44.9585 36.9981 40.2139 37.3911C36.3588 37.7105 31.3804 38 26 38C20.6196 38 15.6412 37.7105 11.7861 37.3911C7.0415 36.9981 3.16681 33.5875 2.56934 28.8644C2.248 26.3241 2 23.296 2 20C2 16.704 2.248 13.6759 2.56934 11.1356Z" fill="#00D0BF"/>
</mask>
<g mask="url(#mask0_1_32030)">
<rect x="2" y="-4" width="48" height="49" fill="#59C785"/>
<path d="M44.4571 16.8232C44.3031 16.2175 42.9247 14.9132 41.8889 14.0832C41.6416 13.9157 41.4804 14.0155 41.5127 14.2542C41.6416 14.468 41.7383 14.703 41.8673 14.9167C41.9033 15.0592 41.9712 15.159 42.0073 15.3014C42.0073 15.3014 42.0179 15.5472 42.0395 15.5686C42.3619 15.9214 42.4051 16.2205 42.4051 16.2205C42.5914 16.5768 42.7564 16.8368 43.0826 17.1289C43.4482 17.357 43.1793 18.0657 43.1899 18.4434C43.1899 18.682 43.0181 18.6537 42.8675 18.6251C41.6811 17.5421 40.5053 17.5387 39.4694 17.2251C39.0643 17.1825 39.0571 17.3747 39.1899 17.4814C39.914 18.2511 40.5948 18.7747 41.491 19.2127C41.6416 19.3054 41.7922 19.3982 41.9428 19.4909C42.1146 19.6334 42.2868 19.7759 42.4586 19.9184C42.8565 20.1747 42.8891 20.4099 42.8891 20.431C42.8998 20.912 42.6415 21.2859 42.5664 21.4356C42.4306 21.9456 42.1579 22.0342 42.1579 22.0342C39.9424 23.5198 38.781 23.9042 35.1894 23.4447C35.1356 23.4165 34.7916 23.4734 35.1894 23.6159C36.1035 23.9186 38.3489 24.4041 40.5213 23.3818C41.0428 23.0184 41.3918 23.1375 41.7696 22.92C42.3901 22.5397 43.2761 22.0662 43.4373 22.0131C43.9213 21.7564 45.2761 21.468 45.5883 21.2113C45.9463 21.1826 46.3181 21.1359 46.3431 20.8298C46.4607 20.7541 46.6329 20.8095 46.7607 20.5599C47.0448 20.5109 46.997 20.4099 46.997 20.4099C46.9253 20.2105 46.6598 20.1283 46.4701 19.9824C46.1902 19.8897 45.9968 19.8611 45.7923 19.961C45.7279 19.9896 45.6634 20.0179 45.5989 20.0465C45.5989 20.0465 45.2977 20.0036 45.2977 19.9824C44.6287 19.9459 44.6939 17.7422 44.4572 16.8231L44.4571 16.8232Z" fill="#FCD95E"/>
<path d="M50 38L2 2V38H50Z" fill="#2E50A6"/>
<path d="M10.2682 16.0744L9.57161 15.4223L8.86671 16.0653L8.94226 15.1145L8 14.9641L8.79072 14.4302L8.32063 13.6L9.23114 13.8852L9.58718 13L9.93187 13.8897L10.846 13.6162L10.3653 14.4403L11.149 14.9843L10.2049 15.1226L10.2682 16.0744L10.2682 16.0744Z" fill="white"/>
<path d="M6.26815 23.0744L5.57161 22.4223L4.86671 23.0653L4.94226 22.1145L4 21.9641L4.79072 21.4302L4.32063 20.6L5.23114 20.8852L5.58718 20L5.93187 20.8897L6.846 20.6162L6.36525 21.4403L7.14904 21.9843L6.20492 22.1226L6.26821 23.0744L6.26815 23.0744Z" fill="white"/>
<path d="M12.2682 32.0744L11.5716 31.4223L10.8667 32.0653L10.9423 31.1145L10 30.9641L10.7907 30.4302L10.3206 29.6L11.2311 29.8852L11.5872 29L11.9319 29.8897L12.846 29.6162L12.3653 30.4403L13.149 30.9843L12.2049 31.1226L12.2682 32.0744L12.2682 32.0744Z" fill="white"/>
<path d="M15.2682 19.0744L14.5716 18.4223L13.8667 19.0653L13.9423 18.1145L13 17.9641L13.7907 17.4302L13.3206 16.6L14.2311 16.8852L14.5872 16L14.9319 16.8897L15.846 16.6162L15.3653 17.4403L16.149 17.9843L15.2049 18.1226L15.2682 19.0744L15.2682 19.0744Z" fill="white"/>
<path d="M12.7389 23.9728L11.9877 23.4721L11.2562 24L11.5135 23.1496L10.7716 22.6352L11.6821 22.6109L11.9546 21.7644L12.2602 22.6001L13.1706 22.5917L12.449 23.1326L12.7389 23.9728L12.7389 23.9728Z" fill="white"/>
<path d="M26 27C29.866 27 33 23.866 33 20C33 16.134 29.866 13 26 13C22.134 13 19 16.134 19 20C19 23.866 22.134 27 26 27Z" fill="#FCD95E"/>
<path d="M22.2574 17.288C22.6959 17.9121 23.3605 18.9586 23.895 18.6854C24.3121 18.6869 24.5274 18.7173 24.584 19.0053C25.5676 19.179 27.221 18.7485 28.2498 17.3585C28.2498 17.3585 28.3363 17.3703 28.3063 16.8419C28.312 16.6118 28.6096 16.6579 28.6168 16.7328C28.6583 16.8471 28.6511 16.9325 28.7069 16.9354C28.8335 16.8916 29.0067 16.597 29.1519 16.41C29.1913 16.3276 29.1698 16.2408 29.1791 16.1369C29.2556 15.9417 29.4467 15.984 29.4867 16.0864C29.5232 16.1524 29.5239 16.2029 29.5597 16.269C29.7536 16.4033 30.1034 16.2779 30.1306 16.2779C30.1649 16.1139 30.2665 16.1294 30.2665 16.1294C30.396 16.0997 30.3452 16.1116 30.4304 16.1576C30.3552 17.0416 30.5978 17.0809 30.5777 17.5343C30.5863 18.0405 30.4304 18.1845 30.4304 18.3774C30.4797 18.6134 31.1994 18.6216 30.9462 18.8212C30.7237 18.9444 30.9469 19.1752 30.6121 19.265C29.6377 19.7779 29.4509 20.218 29.4509 20.218C29.4509 20.218 29.2063 20.6974 29.1791 20.6974C29.016 21.0173 28.8092 20.8429 28.694 20.9988C28.6368 21.1947 28.5724 21.6288 28.6869 21.8545C28.7441 22.1647 28.6797 22.3339 28.6082 22.6441C28.5438 23.2913 28.2963 23.3893 28.2676 23.6164C28.1532 23.8591 28.292 24.999 28.1832 24.999C27.4578 25.0139 26.9019 24.855 26.615 24.7957C26.8947 23.5451 26.786 22.4467 26.786 22.3339C26.7145 21.4396 25.4947 21.6571 25.308 21.5383C25.1534 21.5042 25.0561 21.3736 25.0018 21.3172C24.8293 21.2979 24.7649 21.2571 24.5925 21.2385C24.5067 21.283 24.5582 21.3291 24.3665 21.3907C23.88 21.4515 23.6654 20.9506 23.6654 20.9506C23.689 20.7821 22.5715 20.9847 21.9641 20.8385C21.7151 20.9825 21.6064 21.4085 21.4025 21.4589C21.3967 21.591 21.0669 21.3506 21.0004 21.2207C20.9868 20.8429 21.318 20.676 21.318 20.676C21.5813 20.4837 21.7373 20.4526 21.8639 20.3197C21.9276 19.9909 21.8954 19.7475 22.0306 19.5003C22.1451 19.3118 22.3139 19.4001 22.4284 19.3155C22.5514 19.2309 22.6037 18.6773 22.4899 18.5259C22.4899 18.5259 21.9977 18.065 21.9705 18.0368C21.8103 17.5604 22.158 17.2531 22.2574 17.288L22.2574 17.288Z" fill="#59C785"/>
</g>
<path d="M11.7035 1.61228C6.53056 2.04084 2.23921 5.77712 1.57724 11.0101C1.25164 13.5841 1 16.6548 1 20C1 23.3452 1.25164 26.4159 1.57724 28.9899C2.23922 34.2229 6.53056 37.9592 11.7035 38.3877C15.5784 38.7087 20.5852 39 26 39C31.4148 39 36.4216 38.7087 40.2965 38.3877C45.4694 37.9592 49.7608 34.2229 50.4228 28.9899C50.7484 26.4159 51 23.3452 51 20C51 16.6548 50.7484 13.5841 50.4228 11.0101C49.7608 5.77712 45.4694 2.04084 40.2965 1.61228C36.4216 1.29127 31.4148 1 26 1C20.5852 1 15.5784 1.29127 11.7035 1.61228Z" stroke="#E6E6FA" stroke-width="2"/>
</svg>
