<svg width="52" height="40" viewBox="0 0 52 40" fill="none" xmlns="http://www.w3.org/2000/svg">
<mask id="mask0_1_32508" style="mask-type:alpha" maskUnits="userSpaceOnUse" x="2" y="2" width="48" height="36">
<path d="M2.56934 11.1356C3.16681 6.41247 7.0415 3.00193 11.7861 2.60887C15.6412 2.28949 20.6196 2 26 2C31.3804 2 36.3588 2.28949 40.2139 2.60887C44.9585 3.00193 48.8332 6.41247 49.4307 11.1356C49.752 13.6759 50 16.704 50 20C50 23.296 49.752 26.3241 49.4307 28.8644C48.8332 33.5875 44.9585 36.9981 40.2139 37.3911C36.3588 37.7105 31.3804 38 26 38C20.6196 38 15.6412 37.7105 11.7861 37.3911C7.0415 36.9981 3.16681 33.5875 2.56934 28.8644C2.248 26.3241 2 23.296 2 20C2 16.704 2.248 13.6759 2.56934 11.1356Z" fill="#00D0BF"/>
</mask>
<g mask="url(#mask0_1_32508)">
<rect x="2" y="2" width="48" height="36" fill="#2E50A6"/>
<path d="M42.597 16.1351V20.9241C42.597 25.0747 40.6323 26.4991 38.0044 27.6288C35.3766 26.4991 33.3873 25.0746 33.3873 20.9241V16.1351H42.597H42.597Z" fill="white" stroke="white" stroke-width="0.49197" stroke-linejoin="round"/>
<path d="M30.5384 27.2359C30.6857 27.6288 31.7418 28.1446 32.9697 27.4815C33.8047 27.0149 34.345 26.3518 34.8608 25.1729C35.0081 24.8782 35.0818 24.5098 34.738 24.2888C34.4678 24.0923 34.0258 23.8713 33.8293 23.6748C33.7311 23.5766 33.6328 23.5029 33.5591 23.4292C33.6083 23.4783 33.6574 23.5274 33.7065 23.6011C34.1977 24.1905 33.6819 25.0501 33.1416 25.5659C32.7487 25.9342 32.0365 26.8429 31.005 25.9834C30.7839 25.7869 30.2682 26.5973 30.5383 27.2359L30.5384 27.2359Z" fill="#FCEA83" stroke="black" stroke-width="0.0736776"/>
<path d="M45.4703 27.2359C45.2984 27.6288 44.2423 28.1446 43.0389 27.4815C42.2039 27.0149 41.6636 26.3518 41.1233 25.1729C41.0005 24.8782 40.9268 24.5098 41.2707 24.2888C41.5408 24.0923 41.9829 23.8713 42.1793 23.6748C42.2776 23.5766 42.3513 23.5029 42.4495 23.4292C42.4004 23.4783 42.3513 23.5274 42.3021 23.6011C41.811 24.1905 42.3267 25.0501 42.8425 25.5659C43.2354 25.9342 43.9722 26.8429 45.0037 25.9834C45.2247 25.7869 45.7159 26.5973 45.4703 27.2359V27.2359Z" fill="#FCEA83" stroke="black" stroke-width="0.0736776"/>
<path d="M38.0044 29.348C39.9691 29.348 42.9899 28.4639 44.6108 25.3694C44.881 24.8537 44.6108 24.5835 44.2916 24.4116C43.9477 24.2643 43.5302 23.9204 43.3092 23.6994C43.7021 24.0924 43.6285 24.3625 43.3583 24.8046C42.1058 26.8921 40.3866 27.9482 38.0044 27.9482C35.6221 27.9482 33.903 26.8921 32.6505 24.8046C32.3803 24.3625 32.3066 24.0924 32.675 23.6994C32.4786 23.9204 32.0365 24.2643 31.6927 24.4116C31.3734 24.5835 31.1032 24.8537 31.3734 25.3694C32.9943 28.4639 36.0397 29.348 38.0044 29.348H38.0044Z" fill="#FCEA83" stroke="black" stroke-width="0.0736776"/>
<path d="M33.4609 25.1975C33.4118 24.9519 33.0926 25.0501 32.9943 25.3449C32.8715 25.1729 32.7487 25.001 32.6505 24.8046C32.3558 24.3625 32.3067 24.0678 32.7242 23.6503C32.9206 23.4538 33.3136 23.2328 33.5837 23.4783C34.1486 23.945 33.8539 24.7063 33.4609 25.1975V25.1975Z" fill="#C8102E" stroke="black" stroke-width="0.0736776"/>
<path d="M42.5233 25.1975C42.5724 24.9519 42.9163 25.0501 43.0145 25.3449C43.1373 25.1729 43.2601 25.001 43.3583 24.8046C43.6531 24.3625 43.7022 24.0678 43.2601 23.6503C43.0882 23.4538 42.6952 23.2328 42.4005 23.4783C41.8602 23.945 42.1304 24.7063 42.5233 25.1975L42.5233 25.1975Z" fill="#C8102E" stroke="black" stroke-width="0.0736776"/>
<path d="M30.5384 27.2359C30.2928 26.8675 30.0963 25.9097 30.0472 25.6641C29.9735 25.4431 29.9489 25.2466 30.2191 25.1483C30.4892 25.0501 30.7348 25.3939 30.8576 25.6886C30.9804 25.9834 31.1769 26.4254 31.3979 26.9657C30.8576 26.6465 30.4156 26.8675 30.5384 27.2359H30.5384Z" fill="#C8102E" stroke="black" stroke-width="0.0736776"/>
<path d="M45.4703 27.2359C45.6913 26.8675 45.8878 25.9097 45.9615 25.6641C46.0106 25.4431 46.0597 25.2466 45.7896 25.1483C45.5194 25.0501 45.2738 25.3939 45.151 25.6886C45.0282 25.9834 44.8318 26.4254 44.6107 26.9657C45.151 26.6465 45.5685 26.8675 45.4703 27.2359Z" fill="#C8102E" stroke="black" stroke-width="0.0736776"/>
<path d="M31.9628 25.0256L31.7663 25.1238C31.7172 25.1484 31.7172 25.1975 31.7172 25.222H31.6927L31.5944 25.001H31.619C31.619 25.0256 31.6435 25.0501 31.6927 25.0256L32.1102 24.8045C32.1593 24.78 32.1593 24.7554 32.1347 24.7309L32.1593 24.7063L32.2821 24.9519H32.2575C32.233 24.9273 32.2084 24.9028 32.1593 24.9273L31.9874 25.0256L32.061 25.1729L32.2575 25.0992C32.3066 25.0747 32.2821 25.0256 32.2821 25.001H32.3066L32.4049 25.222C32.3803 25.1975 32.3558 25.1729 32.3066 25.1975L31.8891 25.4185C31.84 25.4431 31.84 25.4676 31.8646 25.4922L31.84 25.5168L31.7172 25.2957L31.7418 25.2712C31.7663 25.2957 31.7909 25.3203 31.84 25.2957L32.0365 25.1975L31.9628 25.0256Z" fill="#00493D"/>
<path d="M32.3803 25.3448C32.4295 25.3203 32.4295 25.2957 32.4049 25.2466H32.4295L32.6751 25.615L32.5031 25.7378V25.7132C32.6014 25.6395 32.6014 25.5413 32.5768 25.5167C32.5523 25.4922 32.5277 25.4676 32.5277 25.4431C32.5031 25.4431 32.5031 25.4185 32.454 25.4676C32.4295 25.4922 32.2821 25.5904 32.2821 25.5904C32.3067 25.615 32.3312 25.6887 32.454 25.615H32.4786L32.2084 25.8114V25.7869C32.3312 25.6887 32.2821 25.615 32.2576 25.5904L32.0856 25.7132C32.0365 25.7378 32.0365 25.7623 32.0365 25.7869C32.0611 25.7869 32.0611 25.8114 32.0856 25.836C32.1102 25.8851 32.1839 25.9342 32.3067 25.8851L32.3312 25.9097L32.1348 25.9834L31.8892 25.5904H31.9137C31.9383 25.615 31.9628 25.6395 32.012 25.615L32.3803 25.3448Z" fill="#00493D"/>
<path d="M32.7732 26.2781L32.6013 26.4255C32.5768 26.45 32.5768 26.4992 32.6013 26.5237H32.5768L32.4048 26.3518L32.4294 26.3272C32.454 26.3518 32.4785 26.3764 32.5276 26.3272L32.8469 26.008C32.896 25.9834 32.896 25.9588 32.8715 25.9097L33.0434 26.1062C33.0188 26.0816 32.9697 26.0816 32.9452 26.1062L32.7978 26.2536L32.9206 26.3764L33.0679 26.2536C33.1171 26.2044 33.0925 26.1799 33.0679 26.1553L33.0925 26.1308L33.2644 26.3272H33.2399C33.2153 26.3272 33.1907 26.3027 33.1416 26.3518L32.8224 26.6465C32.7732 26.6956 32.7732 26.7202 32.7978 26.7447V26.7693L32.6259 26.5728C32.6504 26.5728 32.6996 26.5974 32.7241 26.5728L32.896 26.4009L32.7732 26.2781Z" fill="#00493D"/>
<path d="M33.1416 26.7938L33.2153 26.8675C33.3135 26.6465 33.3136 26.6465 33.3136 26.6465C33.3136 26.6465 33.2399 26.671 33.1171 26.7447L33.1416 26.7938L33.1171 26.8184L33.068 26.7693C33.0434 26.7938 33.0188 26.7938 32.9943 26.8184C32.9206 26.8675 32.9452 26.8921 32.9697 26.9166V26.9412L32.8469 26.8184H32.8715L32.9697 26.7938C33.4609 26.5237 33.4609 26.5237 33.4609 26.5237L33.4855 26.5482C33.4855 26.5482 33.4609 26.5728 33.2399 27.064C33.2399 27.1131 33.2153 27.1377 33.2399 27.1868L33.0434 27.0149L33.068 26.9903C33.0925 27.0394 33.1416 27.0394 33.1662 26.9903C33.1662 26.9658 33.1908 26.9166 33.1908 26.8921L33.1171 26.8184L33.1416 26.7938V26.7938Z" fill="#00493D"/>
<path d="M33.3381 27.2851L33.3627 27.2605C33.3873 27.2851 33.4118 27.2851 33.4609 27.2605L33.7802 26.843L33.7556 26.8185C33.7065 26.7939 33.6328 26.7939 33.5592 26.8676V26.843L33.6574 26.7202L34.0258 26.9904L33.903 27.1377H33.8784C33.9521 27.064 33.9276 26.9658 33.8784 26.9412V26.9167L33.5592 27.3342C33.51 27.3588 33.5346 27.4079 33.5592 27.4324H33.5346L33.3381 27.2851Z" fill="#00493D"/>
<path d="M33.9767 27.3833L33.8539 27.5552C33.8293 27.6043 33.8539 27.6289 33.8784 27.6535L33.8539 27.678L33.6574 27.5307V27.5061C33.7065 27.5307 33.7311 27.5307 33.7556 27.4815L34.0258 27.1132C34.0504 27.064 34.0258 27.0395 34.0012 27.0149L34.0258 26.9904L34.2223 27.1377V27.1623C34.1732 27.1377 34.1486 27.1377 34.124 27.1868L34.0012 27.3587L34.1486 27.457L34.2714 27.2851C34.2959 27.2359 34.2714 27.2114 34.2468 27.1868L34.2714 27.1623L34.4679 27.3096V27.3342C34.4433 27.3096 34.3942 27.3096 34.3696 27.3587L34.124 27.7517C34.0749 27.7763 34.0995 27.8008 34.124 27.8254V27.8499L33.903 27.7026H33.9276C33.9521 27.7026 33.9767 27.7026 34.0012 27.678L34.124 27.4815L33.9767 27.3833Z" fill="#00493D"/>
<path d="M34.4678 28.0709L34.4924 28.0463C34.517 28.0709 34.5661 28.0709 34.5906 28.0218L34.7871 27.6043C34.8117 27.5552 34.7871 27.5306 34.7625 27.506L35.1801 27.7025L35.0818 27.899L35.0573 27.8744C35.1309 27.7762 35.0573 27.678 35.0327 27.6534C35.0081 27.6534 34.9836 27.6288 34.959 27.6288C34.9345 27.6288 34.9345 27.6288 34.9099 27.678C34.8853 27.7025 34.8117 27.8499 34.8117 27.8499C34.8362 27.8744 34.8853 27.9236 34.9836 27.8008H35.0081L34.8608 28.0955L34.8362 28.0709C34.9099 27.9235 34.8117 27.899 34.7871 27.899L34.6889 28.0955C34.6643 28.1446 34.6889 28.1691 34.7134 28.1691V28.1937L34.4678 28.0709Z" fill="#00493D"/>
<path d="M35.1801 28.4148C35.1064 28.3657 35.1064 28.2183 35.1801 28.0709C35.2292 27.9236 35.3274 27.8008 35.4257 27.8499C35.4993 27.8745 35.4748 28.0218 35.4257 28.1692C35.352 28.3411 35.2537 28.4393 35.1801 28.4148H35.1555C35.3274 28.4885 35.4502 28.3902 35.5239 28.2183C35.5976 28.0709 35.573 27.899 35.4257 27.8253C35.2783 27.7517 35.1309 27.8499 35.0573 28.0218C34.9836 28.1937 35.0081 28.3657 35.1555 28.4148H35.1801Z" fill="#00493D"/>
<path d="M35.9414 28.4639L36.0396 28.1692C36.0642 28.1201 36.0396 28.0955 36.0151 28.0709L36.1379 28.0955V28.1201C36.1133 28.1201 36.0888 28.1201 36.0642 28.1692L35.966 28.4639C35.9168 28.5867 35.8432 28.6849 35.6958 28.6358C35.5976 28.6112 35.5239 28.4884 35.573 28.3657L35.6958 28.0464C35.7204 27.9973 35.6958 27.9727 35.6712 27.9481V27.9236L35.8923 28.0218V28.0464C35.8677 28.0218 35.8186 28.0218 35.8186 28.0709L35.6958 28.3902C35.6712 28.4884 35.6712 28.5867 35.7449 28.6112C35.8186 28.6358 35.8923 28.5867 35.9414 28.4639Z" fill="#00493D"/>
<path d="M36.1625 28.1446C36.1625 28.1201 36.1625 28.1201 36.1379 28.1201L36.3098 28.1446L36.4572 28.6112L36.5308 28.3165C36.5554 28.2674 36.5308 28.2429 36.5063 28.2183L36.6536 28.2429L36.6291 28.2674C36.6045 28.2674 36.58 28.2674 36.5554 28.3165L36.4326 28.8568H36.408L36.2116 28.2674L36.0888 28.6604C36.0888 28.734 36.1133 28.734 36.1379 28.7586V28.7832L35.9905 28.734V28.7095C36.0151 28.734 36.0642 28.7095 36.0642 28.6604L36.187 28.2183L36.1625 28.1446V28.1446Z" fill="#00493D"/>
<path d="M36.9974 28.6358C36.9483 28.8568 36.8501 28.906 36.801 28.906H36.7519C36.7519 28.906 36.7273 28.8814 36.7519 28.8568L36.8255 28.3657C36.8501 28.3411 36.8501 28.3165 36.8747 28.3411H36.9238C36.9729 28.3411 37.022 28.4393 36.9974 28.6358L37.0711 28.6604C37.1202 28.4148 37.022 28.3165 36.8992 28.292C36.801 28.2674 36.6536 28.2429 36.6536 28.2429V28.2674C36.6782 28.292 36.7273 28.292 36.7027 28.3657L36.6291 28.8077C36.6045 28.8568 36.5799 28.8814 36.5554 28.8814H36.5308L36.7764 28.9305C36.8992 28.9551 37.022 28.9305 37.0711 28.6604L36.9974 28.6358Z" fill="#00493D"/>
<path d="M37.2185 28.4393C37.2185 28.3902 37.1694 28.3656 37.1448 28.3656V28.3411L37.5869 28.3902L37.5624 28.5867C37.5624 28.4639 37.4887 28.4147 37.4396 28.4147C37.415 28.3902 37.3904 28.3902 37.3659 28.3902C37.3413 28.3902 37.3413 28.3902 37.3413 28.4639C37.3413 28.4884 37.3168 28.6603 37.3168 28.6603C37.3413 28.6603 37.415 28.6849 37.4641 28.5375L37.4396 28.8568H37.415C37.415 28.7095 37.3413 28.7095 37.3168 28.7095L37.2922 28.9305C37.2922 28.9796 37.2922 28.9796 37.3168 28.9796L37.3659 29.0042C37.4396 29.0042 37.5132 28.9796 37.5624 28.8322H37.5869L37.5378 29.0287L37.0712 28.9796C37.1203 28.9796 37.1448 28.955 37.1694 28.9059L37.2185 28.4393Z" fill="#00493D"/>
<path d="M38.0289 28.7341C38.0289 28.9551 37.9553 29.0288 37.8816 29.0288C37.857 29.0042 37.857 29.0042 37.8325 29.0042L37.8079 28.9797L37.8325 28.4639C37.8325 28.4394 37.8325 28.4394 37.857 28.4394H37.9061C37.9553 28.4394 38.0289 28.5131 38.0289 28.7341H38.1272C38.1272 28.4885 38.0044 28.4148 37.8816 28.4148C37.7833 28.3903 37.636 28.3903 37.636 28.3903V28.4148C37.6605 28.4148 37.7097 28.4394 37.7097 28.4885L37.6851 28.9551C37.6851 29.0042 37.6605 29.0288 37.636 29.0288V29.0534H37.857C37.9798 29.0534 38.1026 29.0042 38.1272 28.7341H38.0289V28.7341Z" fill="#00493D"/>
<path d="M38.7412 28.9305C38.7412 28.9796 38.7658 28.9796 38.8149 28.9796V29.0042L38.5447 29.0288C38.5693 29.0042 38.6184 28.9796 38.6184 28.9305L38.5693 28.4639C38.5447 28.4148 38.5202 28.4148 38.4711 28.4148V28.3902L38.7412 28.3657C38.7167 28.3902 38.6675 28.4148 38.6921 28.4639L38.7412 28.9305Z" fill="#00493D"/>
<path d="M38.9868 28.9797V28.9551C39.0113 28.9551 39.0359 28.9305 39.0359 28.8814L38.9376 28.3657H38.9131C38.864 28.3902 38.8148 28.4393 38.8394 28.5376H38.8148L38.7903 28.3657L39.2324 28.292L39.2569 28.4639H39.2324C39.2324 28.3657 39.1587 28.3411 39.085 28.3411H39.0604L39.1587 28.8569C39.1587 28.906 39.1832 28.9305 39.2324 28.9305V28.9551L38.9868 28.9797Z" fill="#00493D"/>
<path d="M40.0428 28.4884L39.9446 28.1937C39.9446 28.1446 39.8955 28.1446 39.8709 28.1446V28.12L39.9937 28.0709V28.0955C39.9691 28.12 39.9691 28.12 39.9691 28.1692L40.0674 28.4884C40.0919 28.5867 40.0919 28.734 39.9446 28.7831C39.8463 28.8077 39.7235 28.7586 39.699 28.6112L39.6007 28.292C39.5762 28.2428 39.5516 28.2428 39.5271 28.2428L39.5025 28.2183L39.7481 28.1446V28.1692C39.7235 28.1937 39.699 28.2183 39.7235 28.2674L39.7972 28.5867C39.8218 28.6849 39.8955 28.734 39.9691 28.734C40.0428 28.7095 40.0674 28.6112 40.0428 28.4884Z" fill="#00493D"/>
<path d="M40.313 28.3166C40.4358 28.2674 40.4112 28.1938 40.3866 28.1201C40.3621 28.0464 40.313 27.9973 40.2638 28.0218C40.2393 28.0218 40.2147 28.0464 40.2393 28.071L40.313 28.3166L40.3375 28.3411L40.3866 28.5376C40.4112 28.5867 40.4603 28.5867 40.4849 28.5621V28.5867L40.2638 28.6849L40.2393 28.6604C40.2884 28.6358 40.2884 28.6113 40.2884 28.5621L40.1165 28.1446C40.0919 28.071 40.0674 28.0955 40.0182 28.0955V28.071L40.2638 27.9727C40.3621 27.9482 40.4603 27.9727 40.5094 28.071C40.534 28.1938 40.4849 28.2674 40.3866 28.3166C40.3621 28.3166 40.3375 28.3411 40.3375 28.3411L40.313 28.3166Z" fill="#00493D"/>
<path d="M40.927 28.3902C40.8533 28.4147 40.755 28.3165 40.6814 28.1446C40.6077 27.9972 40.6077 27.8499 40.6814 27.8253C40.755 27.8007 40.8533 27.899 40.927 28.0463C41.0006 28.1937 41.0006 28.341 40.927 28.3902C41.0743 28.341 41.1234 28.1691 41.0498 27.9972C40.9761 27.8499 40.8287 27.7516 40.6814 27.8007C40.534 27.8744 40.4849 28.0463 40.5586 28.1937C40.6322 28.3656 40.7796 28.4638 40.927 28.3902Z" fill="#00493D"/>
<path d="M40.9515 27.7026H40.927H40.9024L41.0498 27.6043L41.4918 27.8499L41.3445 27.5798C41.3199 27.5306 41.2708 27.5306 41.2462 27.5306V27.5061L41.369 27.457C41.3445 27.4815 41.3199 27.5061 41.369 27.5552L41.6146 28.0464L41.5901 28.071L41.0498 27.7762L41.2462 28.1446C41.2708 28.1937 41.3199 28.1937 41.3445 28.1692V28.1937L41.2217 28.2674V28.2429C41.2462 28.2183 41.2462 28.1937 41.2217 28.1446L41.0252 27.7517L40.9515 27.7026Z" fill="#00493D"/>
<path d="M42.0566 27.7763V27.7517C42.0566 27.7272 42.0812 27.7026 42.0566 27.6535L41.7619 27.236H41.7374C41.6882 27.2605 41.6637 27.3588 41.7374 27.4324L41.7128 27.457L41.6146 27.2851L41.983 27.0395L42.0812 27.1868C42.0075 27.1132 41.9338 27.1132 41.8847 27.1377L41.8602 27.1623L42.1549 27.5798C42.1794 27.6289 42.2285 27.6289 42.2531 27.6044V27.6289L42.0566 27.7763Z" fill="#00493D"/>
<path d="M42.3269 27.1868L42.4742 27.3587C42.4988 27.3833 42.5479 27.3833 42.5725 27.3587V27.3833L42.376 27.5552V27.5307C42.4005 27.5061 42.4005 27.4815 42.376 27.4324L42.0813 27.064C42.0567 27.0149 42.0322 27.0395 41.983 27.0395L42.1795 26.8676V26.8921C42.1795 26.9167 42.1549 26.9412 42.1795 26.9904L42.3023 27.1377L42.4497 27.0395L42.3269 26.8676C42.3023 26.8184 42.2532 26.843 42.2286 26.843L42.4251 26.6711V26.6956C42.4005 26.7202 42.4005 26.7448 42.4251 26.7939L42.7198 27.1623C42.7444 27.1868 42.7689 27.1868 42.7935 27.1623L42.818 27.1868L42.6216 27.3587L42.597 27.3342C42.6216 27.3096 42.6461 27.2851 42.6216 27.2359L42.4742 27.064L42.3269 27.1868Z" fill="#00493D"/>
<path d="M42.5479 26.6711C42.5233 26.6465 42.4742 26.6465 42.4496 26.6711V26.6465L42.7689 26.3518L42.9163 26.4992H42.8917C42.818 26.4009 42.7198 26.45 42.6707 26.4746C42.6707 26.4992 42.6461 26.4992 42.6216 26.5237C42.6216 26.5237 42.6216 26.5483 42.6461 26.5974C42.6707 26.622 42.7935 26.7448 42.7935 26.7448C42.818 26.7202 42.8917 26.6711 42.7935 26.5483H42.818L43.0145 26.7693V26.7939C42.8917 26.6711 42.8426 26.7448 42.818 26.7693L42.9654 26.9167C42.9899 26.9658 43.0145 26.9658 43.0145 26.9658C43.0391 26.9412 43.0636 26.9167 43.0882 26.8921C43.1127 26.8676 43.1373 26.7939 43.0882 26.6465H43.1127L43.211 26.8184L42.8917 27.1377L42.8672 27.1131C42.8917 27.0886 42.9163 27.064 42.8672 27.0149L42.5479 26.6711Z" fill="#00493D"/>
<path d="M43.137 25.9834C43.1125 26.0079 43.1125 26.057 43.1616 26.0816C43.2107 26.1307 43.2598 26.1307 43.3581 26.0816C43.4072 26.057 43.5054 26.0325 43.5791 26.1062C43.7019 26.2289 43.6528 26.3272 43.6282 26.3763C43.6037 26.4009 43.5545 26.4254 43.53 26.45C43.5054 26.45 43.5054 26.45 43.5054 26.4745V26.4991L43.3335 26.3517H43.3581C43.4563 26.4009 43.5545 26.4254 43.6036 26.3517C43.6528 26.3026 43.6037 26.2535 43.5791 26.2289C43.53 26.1798 43.4809 26.1798 43.4072 26.2289C43.3335 26.2535 43.2353 26.2535 43.1616 26.2044C43.0633 26.1062 43.0633 26.0325 43.1125 25.9588C43.137 25.9342 43.1861 25.9097 43.2107 25.8851C43.2353 25.8851 43.2353 25.8851 43.2107 25.836L43.3826 25.9588H43.3581C43.2353 25.9097 43.1616 25.9342 43.137 25.9834Z" fill="#00493D"/>
<path d="M43.3585 25.7869C43.3093 25.7623 43.2848 25.7869 43.2602 25.8115H43.2357L43.5058 25.4185L43.6777 25.5413L43.6532 25.5659C43.5549 25.4922 43.4567 25.5413 43.4321 25.5659C43.4321 25.5904 43.4076 25.615 43.4076 25.6396C43.383 25.6396 43.383 25.6641 43.4321 25.6887C43.4567 25.7132 43.604 25.8115 43.604 25.8115C43.6286 25.7869 43.6777 25.7378 43.5795 25.6396V25.615L43.8251 25.8115C43.6777 25.7378 43.6532 25.8115 43.6286 25.836L43.8005 25.9588C43.8496 25.9834 43.8742 25.9834 43.8742 25.9834C43.8742 25.9588 43.8988 25.9343 43.9233 25.9097C43.9479 25.8606 43.9724 25.7869 43.8742 25.6887L43.8988 25.6641L44.0216 25.8115L43.776 26.1799H43.7514C43.776 26.1307 43.776 26.1062 43.7268 26.0571L43.3585 25.7869Z" fill="#00493D"/>
<path d="M44.0216 25.3448L43.9479 25.4676C43.8497 25.3694 43.8006 25.2957 43.8006 25.2957L44.0216 25.3448H44.0707C44.0953 25.3448 44.1444 25.3694 44.1689 25.3694C44.2426 25.394 44.2181 25.4185 44.1935 25.4676H44.2181L44.3409 25.2466C44.2917 25.2957 44.2672 25.2712 44.2181 25.2712C43.7023 25.1729 43.6532 25.1484 43.6532 25.1484V25.1729L44.0461 25.615C44.0707 25.6396 44.0707 25.6887 44.0707 25.7132H44.0953L44.1689 25.5904L44.1444 25.5659C44.1198 25.615 44.0953 25.6396 44.0461 25.5659C44.0216 25.5413 43.997 25.5168 43.997 25.5168L44.0707 25.3448H44.0216Z" fill="#00493D"/>
<path d="M43.874 24.8045C43.8494 24.8291 43.8494 24.8782 43.9231 24.9028C43.9968 24.9273 44.0213 24.9028 44.095 24.8537C44.1687 24.8045 44.2424 24.7554 44.3406 24.8045C44.488 24.8782 44.4634 25.001 44.4388 25.0501C44.4143 25.0747 44.3897 25.1238 44.3652 25.1484V25.1729V25.1975L44.1687 25.0993C44.2915 25.1238 44.3897 25.0993 44.4143 25.0256C44.4388 24.9765 44.3897 24.9273 44.3652 24.9028C44.316 24.8782 44.2669 24.9028 44.1932 24.9519C44.1196 25.0256 44.0459 25.0501 43.9476 25.001C43.8494 24.9519 43.8003 24.8782 43.8494 24.8045C43.8494 24.7554 43.8985 24.7309 43.9231 24.7063C43.9231 24.6817 43.9231 24.6817 43.8985 24.6572V24.6326L44.095 24.7309H44.0704C43.9476 24.7063 43.874 24.7554 43.874 24.8045Z" fill="#00493D"/>
<path d="M36.1133 16.1105C35.794 16.1842 35.573 16.2088 35.2783 15.9386C35.0818 15.7422 35.1309 15.3983 35.3274 15.2755C35.5484 15.1282 35.7449 15.0299 36.0151 15.1036C36.2852 15.1773 36.9974 15.8404 36.8255 15.8649C36.6536 15.8649 36.3834 16.0369 36.1133 16.1105L36.1133 16.1105Z" fill="white" stroke="black" stroke-width="0.0736776"/>
<path d="M36.8746 14.9317C36.9729 14.858 37.0957 14.8089 37.4149 14.7843C37.7097 14.7597 37.9307 14.7597 38.0044 14.9808C38.1026 15.2509 38.1763 15.5702 38.3728 15.7176C38.25 15.7912 37.636 15.8649 37.4149 15.7421C37.1202 15.5948 37.0465 15.0299 36.8746 14.9317H36.8746Z" fill="white" stroke="black" stroke-width="0.0736776"/>
<path d="M38.9868 14.9563C39.085 14.8826 39.2078 14.8826 39.5271 14.9071C39.8463 14.9317 39.9691 14.9563 40.0428 15.1773C40.1165 15.4229 40.0428 15.7422 40.1902 15.9632C40.0428 16.0123 39.5516 16.0123 39.3797 15.8404C39.1096 15.6439 39.1341 15.0791 38.9868 14.9563L38.9868 14.9563Z" fill="white" stroke="black" stroke-width="0.0736776"/>
<path d="M40.4603 15.1036C40.2392 15.0544 40.0919 15.0299 39.9937 15.1036C40.1164 15.2509 40.0182 15.8404 40.2638 16.0368C40.4357 16.1596 40.8778 16.1842 40.976 15.914C41.0988 15.6684 41.0988 15.3 40.4603 15.1036V15.1036Z" fill="#073163" stroke="black" stroke-width="0.0736776"/>
<path d="M37.9307 14.858C38.0044 14.7843 38.1518 14.7598 38.4465 14.7598C38.7657 14.7598 38.9622 14.8089 39.0605 15.0054C39.1587 15.251 39.1341 15.5702 39.306 15.7667C39.2324 15.8649 38.5693 15.8649 38.3728 15.7176C38.1026 15.5457 38.0781 14.9808 37.9307 14.858L37.9307 14.858Z" fill="#073163" stroke="black" stroke-width="0.0736776"/>
<path d="M35.8431 15.079C35.8431 14.9562 36.0151 14.9317 36.4571 14.9071C36.8992 14.858 36.9237 14.8825 37.0711 15.2018C37.1448 15.3737 37.243 15.6684 37.4395 15.7667C36.8992 15.8895 36.7273 15.9631 36.4326 15.7912C36.2115 15.6684 35.9659 15.3737 35.9168 15.2509C35.8923 15.1772 35.8923 15.1036 35.8431 15.079L35.8431 15.079Z" fill="#073163" stroke="black" stroke-width="0.0736776"/>
<path d="M37.022 12.574C36.5062 12.1811 35.8923 11.8127 35.3274 11.739C35.6958 11.96 36.7273 12.7705 36.9974 13.0407" fill="#F9D050"/>
<path d="M37.022 12.574C36.5062 12.1811 35.8923 11.8127 35.3274 11.739C35.6958 11.96 36.7273 12.7705 36.9974 13.0407" stroke="black" stroke-width="0.0331516"/>
<path d="M37.3167 12.2056C36.7027 11.7881 35.9905 11.3215 35.3029 11.2723C35.8186 11.5425 36.5799 12.181 36.9974 12.6968" fill="#F9D050"/>
<path d="M37.3167 12.2056C36.7027 11.7881 35.9905 11.3215 35.3029 11.2723C35.8186 11.5425 36.5799 12.181 36.9974 12.6968" stroke="black" stroke-width="0.0331516"/>
<path d="M38.1026 11.518C38.4464 10.7566 38.8148 10.3391 39.306 9.8725C39.0604 10.3882 38.7903 11.4443 38.6675 11.8618" fill="#F9D050"/>
<path d="M38.1026 11.518C38.4464 10.7566 38.8148 10.3391 39.306 9.8725C39.0604 10.3882 38.7903 11.4443 38.6675 11.8618" stroke="black" stroke-width="0.0331516"/>
<path d="M38.6429 11.3952C38.8885 10.8549 39.2569 10.3883 39.8955 10.0936C39.5762 10.4128 39.085 11.3706 38.9622 11.8864" fill="#F9D050"/>
<path d="M38.6429 11.3952C38.8885 10.8549 39.2569 10.3883 39.8955 10.0936C39.5762 10.4128 39.085 11.3706 38.9622 11.8864" stroke="black" stroke-width="0.0331516"/>
<path d="M38.864 11.8864C39.1587 11.4688 39.7481 10.683 40.8041 10.2654C40.1902 10.8794 39.2815 12.0092 39.0604 12.4512" fill="#F9D050"/>
<path d="M38.864 11.8864C39.1587 11.4688 39.7481 10.683 40.8041 10.2654C40.1902 10.8794 39.2815 12.0092 39.0604 12.4512" stroke="black" stroke-width="0.0331516"/>
<path d="M39.2078 12.4266C39.6498 12.181 40.534 11.7881 41.1725 11.9109C40.7796 12.0583 39.6007 12.5986 39.085 13.0897" fill="#F9D050"/>
<path d="M39.2078 12.4266C39.6498 12.181 40.534 11.7881 41.1725 11.9109C40.7796 12.0583 39.6007 12.5986 39.085 13.0897" stroke="black" stroke-width="0.0331516"/>
<path d="M39.1095 12.2547C39.527 11.8126 40.2884 11.1495 41.0988 10.8794C40.5094 11.4443 39.2569 12.7213 39.085 12.9178" fill="#F9D050"/>
<path d="M39.1095 12.2547C39.527 11.8126 40.2884 11.1495 41.0988 10.8794C40.5094 11.4443 39.2569 12.7213 39.085 12.9178" stroke="black" stroke-width="0.0331516"/>
<path d="M37.9307 11.9846C37.636 11.0759 37.1939 10.2163 36.5308 9.94617C36.8992 10.4865 37.3658 11.2724 37.6114 12.4512" fill="#F9D050"/>
<path d="M37.9307 11.9846C37.636 11.0759 37.1939 10.2163 36.5308 9.94617C36.8992 10.4865 37.3658 11.2724 37.6114 12.4512" stroke="black" stroke-width="0.0331516"/>
<path d="M37.3658 11.96C36.8746 11.3706 36.2115 10.7812 35.4502 10.6584C35.9659 10.9531 36.8255 11.8127 37.1448 12.6477" fill="#F9D050"/>
<path d="M37.3658 11.96C36.8746 11.3706 36.2115 10.7812 35.4502 10.6584C35.9659 10.9531 36.8255 11.8127 37.1448 12.6477" stroke="black" stroke-width="0.0331516"/>
<path d="M37.636 11.9355C37.022 10.8304 36.5554 10.6339 36.2852 10.4128C36.5063 10.8304 37.0466 11.9355 37.3658 12.4021" fill="#F9D050"/>
<path d="M37.636 11.9355C37.022 10.8304 36.5554 10.6339 36.2852 10.4128C36.5063 10.8304 37.0466 11.9355 37.3658 12.4021" stroke="black" stroke-width="0.0331516"/>
<path d="M36.408 11.8618C36.7027 12.0337 37.1448 12.4512 37.2922 12.7214" stroke="black" stroke-width="0.0331516"/>
<path d="M36.408 12.3776C36.5554 12.5004 36.8255 12.6477 37.0711 12.8687L36.408 12.3776Z" fill="#F9D050"/>
<path d="M36.408 12.3776C36.5554 12.5004 36.8255 12.6477 37.0711 12.8687" stroke="black" stroke-width="0.0331516"/>
<path d="M39.3306 12.7459C39.5762 12.5494 40.1165 12.2301 40.3866 12.1319L39.3306 12.7459Z" fill="#F9D050"/>
<path d="M39.3306 12.7459C39.5762 12.5494 40.1165 12.2301 40.3866 12.1319" stroke="black" stroke-width="0.0331516"/>
<path d="M39.1587 12.574C39.4043 12.2548 39.8955 11.8127 40.0674 11.6653L39.1587 12.574Z" fill="#F9D050"/>
<path d="M39.1587 12.574C39.4043 12.2548 39.8955 11.8127 40.0674 11.6653" stroke="black" stroke-width="0.0331516"/>
<path d="M39.8463 11.0513C39.6253 11.2969 39.1096 11.9109 38.9131 12.2056L39.8463 11.0513Z" fill="#F9D050"/>
<path d="M39.8463 11.0513C39.6253 11.2969 39.1096 11.9109 38.9131 12.2056" stroke="black" stroke-width="0.0331516"/>
<path d="M39.2078 10.8303C39.0359 11.0514 38.692 11.6899 38.5938 11.9109L39.2078 10.8303Z" fill="#F9D050"/>
<path d="M39.2078 10.8303C39.0359 11.0514 38.692 11.6899 38.5938 11.9109" stroke="black" stroke-width="0.0331516"/>
<path d="M37.2676 10.8795C37.4149 11.2724 37.6851 11.9355 37.7833 12.2057L37.2676 10.8795Z" fill="#F9D050"/>
<path d="M37.2676 10.8795C37.4149 11.2724 37.6851 11.9355 37.7833 12.2057" stroke="black" stroke-width="0.0331516"/>
<path d="M37.0466 11.2969C37.1448 11.4443 37.3413 11.7881 37.415 12.0337L37.0466 11.2969Z" fill="#F9D050"/>
<path d="M37.0466 11.2969C37.1448 11.4443 37.3413 11.7881 37.415 12.0337" stroke="black" stroke-width="0.0331516"/>
<path d="M37.8816 11.1741C37.8816 10.9531 38.0289 10.7075 38.1763 10.7075C38.3482 10.7075 38.471 11.0022 38.471 11.1741C38.471 11.3706 38.3237 11.5425 38.1763 11.5425C38.0289 11.5425 37.8816 11.3951 37.8816 11.1741Z" fill="#F9D050" stroke="black" stroke-width="0.0331516"/>
<path d="M37.5623 11.3706C37.5869 11.125 37.7588 10.9285 37.9061 10.9531C38.0535 10.9776 38.1272 11.2723 38.1026 11.4443C38.078 11.6407 37.9061 11.7881 37.7833 11.7635C37.6605 11.7635 37.5377 11.5916 37.5623 11.3706Z" fill="#F9D050" stroke="black" stroke-width="0.0331516"/>
<path d="M38.2254 11.4443C38.1763 11.2233 38.2745 10.9777 38.4219 10.9531C38.5693 10.9286 38.7166 11.1742 38.7412 11.3706C38.7903 11.5671 38.6675 11.7636 38.5447 11.7636C38.4219 11.7881 38.25 11.6653 38.2254 11.4443Z" fill="#F9D050" stroke="black" stroke-width="0.0331516"/>
<path d="M37.857 11.6408C37.857 11.3952 38.0044 11.1741 38.1517 11.1741C38.3236 11.1741 38.4464 11.4443 38.4464 11.6408C38.4464 11.8372 38.2991 12.0092 38.1517 12.0092C38.0044 12.0092 37.857 11.8618 37.857 11.6408Z" fill="#F9D050" stroke="black" stroke-width="0.0331516"/>
<path d="M37.415 11.7636C37.415 11.5425 37.5869 11.2969 37.7342 11.2969C37.8816 11.2969 38.029 11.5916 38.029 11.7636C38.029 11.96 37.857 12.132 37.7342 12.132C37.5869 12.132 37.415 11.9846 37.415 11.7636Z" fill="#F9D050" stroke="black" stroke-width="0.0331516"/>
<path d="M38.3237 11.6653C38.3237 11.4443 38.471 11.1987 38.6184 11.1987C38.7903 11.1987 38.9131 11.4934 38.9131 11.6653C38.9131 11.8618 38.7657 12.0337 38.6184 12.0337C38.471 12.0337 38.3237 11.8863 38.3237 11.6653Z" fill="#F9D050" stroke="black" stroke-width="0.0331516"/>
<path d="M38.2254 11.8618C38.2254 11.6162 38.3973 11.3951 38.5447 11.3951C38.692 11.3951 38.8394 11.6653 38.8394 11.8618C38.8394 12.0582 38.692 12.2302 38.5447 12.2302C38.3973 12.2302 38.2254 12.0828 38.2254 11.8618Z" fill="#F9D050" stroke="black" stroke-width="0.0331516"/>
<path d="M37.8325 12.0828C37.8325 11.8372 37.9798 11.6162 38.1272 11.6162C38.2991 11.6162 38.4219 11.9109 38.4219 12.0828C38.4219 12.2793 38.2745 12.4512 38.1272 12.4512C37.9798 12.4512 37.8325 12.3039 37.8325 12.0828Z" fill="#F9D050" stroke="black" stroke-width="0.0331516"/>
<path d="M37.2185 12.0828C37.2185 11.8372 37.3413 11.6162 37.4641 11.6162C37.5869 11.6162 37.6851 11.9109 37.6851 12.0828C37.6851 12.2793 37.5623 12.4512 37.4641 12.4512C37.3413 12.4512 37.2185 12.3039 37.2185 12.0828Z" fill="#F9D050" stroke="black" stroke-width="0.0331516"/>
<path d="M38.5938 12.0337C38.5938 11.8127 38.7166 11.5917 38.8394 11.5917C38.9622 11.5917 39.085 11.8618 39.085 12.0337C39.085 12.2548 38.9376 12.4021 38.8394 12.4021C38.7166 12.4021 38.5938 12.2548 38.5938 12.0337Z" fill="#F9D050" stroke="black" stroke-width="0.0331516"/>
<path d="M38.7412 12.4512C38.7903 12.2056 38.9377 12.0091 39.0359 12.0337C39.1341 12.0583 39.1587 12.353 39.1096 12.5249C39.085 12.7459 38.9377 12.8687 38.8394 12.8442C38.7412 12.8196 38.6921 12.6477 38.7412 12.4512Z" fill="#F9D050" stroke="black" stroke-width="0.0331516"/>
<path d="M38.2745 12.3775C38.2991 12.1565 38.4464 11.9354 38.5692 11.96C38.7166 11.96 38.7903 12.2547 38.7657 12.4266C38.7412 12.6477 38.6184 12.795 38.4956 12.7705C38.3728 12.7705 38.25 12.5985 38.2745 12.3775Z" fill="#F9D050" stroke="black" stroke-width="0.0331516"/>
<path d="M37.5869 12.4513C37.5132 12.2057 37.3658 12.0337 37.2676 12.0583C37.1694 12.0829 37.1448 12.3776 37.1939 12.5495C37.243 12.746 37.3904 12.8688 37.4886 12.8442C37.5623 12.8196 37.636 12.6477 37.5869 12.4513Z" fill="#F9D050" stroke="black" stroke-width="0.0331516"/>
<path d="M37.415 12.4021C37.415 12.1811 37.5378 11.96 37.6606 11.96C37.8079 11.96 37.9062 12.2302 37.9062 12.4021C37.9062 12.6231 37.7834 12.7705 37.6606 12.7705C37.5623 12.7705 37.415 12.6231 37.415 12.4021Z" fill="#F9D050" stroke="black" stroke-width="0.0331516"/>
<path d="M37.7833 12.5003C37.7833 12.2547 37.9307 12.0337 38.078 12.0337C38.25 12.0337 38.3727 12.3038 38.3727 12.5003C38.3727 12.6968 38.2254 12.8687 38.078 12.8687C37.9307 12.8687 37.7833 12.7214 37.7833 12.5003Z" fill="#F9D050" stroke="black" stroke-width="0.0331516"/>
<path d="M37.9062 9.79879C37.857 9.99526 37.6851 10.1672 37.8079 10.4373C37.5869 10.3637 37.3904 10.3391 37.2185 10.5356C37.4395 10.511 37.636 10.5847 37.7342 10.732C37.5378 10.7075 37.4395 10.8057 37.3904 10.9285C37.5623 10.8794 37.7342 10.8303 37.8079 10.8548C37.7342 10.9285 37.6115 11.0513 37.5869 11.1496C37.7342 11.0268 37.9062 11.0513 38.0044 10.9776C37.9307 11.1496 38.0781 11.3215 38.2009 11.4934C38.1763 11.2478 38.3237 11.0759 38.25 10.9531C38.471 11.0022 38.4956 11.1987 38.8149 11.1987C38.6921 11.125 38.6184 10.8794 38.471 10.8794C38.5447 10.8548 38.8394 10.8303 38.8885 10.8794C38.8394 10.7812 38.6675 10.6829 38.5693 10.6829C38.6675 10.5847 38.8394 10.3882 38.9622 10.3391C38.7903 10.3637 38.5201 10.3882 38.4219 10.5356C38.6675 10.3391 38.6184 9.97071 38.8885 9.92159C38.7412 9.89703 38.5201 9.99526 38.3482 10.1672C38.4219 10.0198 38.4219 9.82335 38.5201 9.77423C38.3237 9.82335 38.1026 10.0689 38.029 10.1917C38.029 10.0689 37.9553 9.87247 37.9062 9.79879Z" fill="#F9D050" stroke="black" stroke-width="0.0331516"/>
<path d="M38.029 10.1918C38.029 10.2655 38.029 10.4128 38.0044 10.4619L38.029 10.1918Z" fill="#F9D050"/>
<path d="M38.029 10.1918C38.029 10.2655 38.029 10.4128 38.0044 10.4619" stroke="black" stroke-width="0.0331516"/>
<path d="M38.3482 10.1672C38.2991 10.2163 38.2009 10.3882 38.2009 10.5356L38.3482 10.1672Z" fill="#F9D050"/>
<path d="M38.3482 10.1672C38.2991 10.2163 38.2009 10.3882 38.2009 10.5356" stroke="black" stroke-width="0.0331516"/>
<path d="M38.4955 10.4619C38.4218 10.511 38.3482 10.5847 38.3236 10.6829" stroke="black" stroke-width="0.0331516"/>
<path d="M35.8923 12.8932C35.7204 12.8932 35.573 12.8196 35.4748 12.6968C35.3029 12.4757 34.8362 12.3775 34.6398 12.574C34.5661 12.6231 34.4679 12.6231 34.3942 12.6476C34.2714 12.6476 34.124 12.7704 34.1731 13.016C34.2714 12.9424 34.2959 13.016 34.3696 13.016C34.4187 12.9915 34.3942 13.0406 34.3942 13.0897C34.3942 13.2125 34.6643 13.4581 34.9099 13.4335C35.1801 13.4335 35.3029 13.5318 35.352 13.5809C35.4257 13.6546 35.3766 13.63 35.4257 13.7528C35.4993 13.8265 35.5239 13.8511 35.4011 13.9493C35.2292 14.0966 35.1064 14.4405 35.4011 14.7106C35.7204 14.9562 36.5308 15.3246 37.4395 14.6124C38.3237 13.9247 39.699 14.3177 39.7972 14.5633C39.92 14.8089 39.9691 14.9562 39.9937 15.079C40.0183 15.1773 40.1411 15.2755 40.313 15.2509C40.4849 15.2509 40.6814 15.3246 40.7796 15.3983C40.9024 15.472 41.0743 15.4474 41.0252 15.2264C40.927 14.5387 40.5094 14.4405 40.4603 14.1212C40.7059 14.1458 40.8778 14.1458 40.9761 14.0475C41.0498 13.9493 41.148 13.7774 41.2462 13.7283C41.3199 13.6791 41.3199 13.63 41.2217 13.6546C41.0989 13.6791 41.0252 13.7283 40.8042 13.7037C39.6744 13.5809 36.5063 12.7213 35.8923 12.8932H35.8923Z" fill="#059334" stroke="black" stroke-width="0.0736776"/>
<path d="M40.9024 13.7283C40.7796 13.8019 40.6568 13.9247 40.4358 14.2195C40.1902 14.5387 39.4534 14.858 38.5447 14.858C37.6606 14.858 37.1203 14.7106 36.7273 14.3914C36.5063 14.2195 36.3344 14.1212 36.187 14.0475C35.9169 13.9247 35.8678 13.6546 35.9414 13.4336C35.8678 13.5563 35.8186 13.6791 35.6713 13.6546C35.573 13.6546 35.3766 13.6546 35.4257 13.7528C35.4011 13.7037 35.4011 13.63 35.3766 13.6055C35.352 13.5809 35.3275 13.5563 35.3275 13.5563C35.4011 13.6055 35.573 13.4581 35.6958 13.4581C35.7941 13.4827 35.9169 13.3599 35.8923 13.2125C35.8678 13.0897 35.8432 12.9915 35.8186 12.8932C36.0151 12.795 38.5938 13.2616 39.1096 13.3108C39.6253 13.3353 41.0989 13.5563 40.9024 13.7283V13.7283Z" fill="black" stroke="black" stroke-width="0.0736776"/>
<path d="M36.2362 12.795C36.4818 12.5494 36.7765 12.4266 37.0712 12.5003H37.1449C37.2922 12.3775 37.6361 12.3529 37.8325 12.4512H37.9308C38.2255 12.3529 38.7903 12.4512 38.9868 12.6477L39.0605 12.6968C39.7236 12.6477 40.1165 12.9424 40.5832 13.409C40.6323 13.4581 40.706 13.5563 40.8288 13.5809C40.9761 13.6055 41.0007 13.6791 40.8779 13.7528C40.7305 13.8265 40.6077 13.9493 40.3621 14.2195C40.1411 14.5142 39.4289 14.8089 38.5447 14.8089C37.6852 14.8089 37.1694 14.6615 36.7765 14.3668C36.5554 14.1949 36.3835 14.0967 36.2607 14.023C36.1134 13.9739 35.9169 13.7774 35.9906 13.5809C36.0397 13.3844 35.9169 13.1388 35.8187 12.8932C35.8923 12.8441 36.0888 12.7704 36.1871 12.8196L36.2362 12.795L36.2362 12.795Z" fill="#059334" stroke="black" stroke-width="0.0736776"/>
<path d="M40.5831 13.409C40.1165 12.9424 39.7236 12.6477 39.0604 12.6968C39.0604 12.7214 39.0604 12.795 39.0359 12.8442C39.4288 12.9915 39.9937 13.4336 40.2393 13.7528C40.3375 13.6546 40.5094 13.5318 40.5831 13.409L40.5831 13.409Z" fill="#00493D" stroke="black" stroke-width="0.0736776"/>
<path d="M38.9868 12.6477C38.7903 12.4512 38.2254 12.353 37.9307 12.4512C37.9307 12.5494 37.9307 12.6968 37.8816 12.795C38.0535 12.8687 38.2009 13.0406 38.3482 13.2125C38.4465 13.188 38.692 13.1143 38.8148 13.0897C38.864 12.9915 38.9622 12.7705 38.9868 12.6477H38.9868Z" fill="#00493D" stroke="black" stroke-width="0.0736776"/>
<path d="M37.8325 12.4512C37.636 12.3529 37.2922 12.3775 37.1448 12.5003C37.0957 12.5985 37.0712 12.795 37.0712 12.8932C37.1694 12.8932 37.3168 12.9669 37.3659 13.016C37.5132 12.9669 37.7097 12.8687 37.7834 12.795C37.8079 12.6968 37.8571 12.5494 37.8325 12.4512Z" fill="#00493D" stroke="black" stroke-width="0.0736776"/>
<path d="M36.2361 12.795C36.4817 12.5494 36.7765 12.4266 37.0712 12.5003C37.022 12.574 36.9975 12.7213 36.9975 12.8687C36.7273 12.8441 36.3835 12.9178 36.2361 13.016V12.795Z" fill="#00493D" stroke="black" stroke-width="0.0736776"/>
<path d="M40.1411 13.802C39.9201 13.4827 39.3797 13.1143 39.0114 12.9424C39.0114 12.9669 38.9622 13.0652 38.9377 13.1389C39.085 13.3599 39.3798 13.8511 39.5025 14.1212C39.6253 14.0721 39.9692 13.9248 40.1411 13.802V13.802Z" fill="#00493D" stroke="black" stroke-width="0.0736776"/>
<path d="M38.2745 14.3423C38.3237 13.9984 38.3482 13.5072 38.3482 13.3353C38.471 13.3108 38.7166 13.2371 38.8148 13.2125C38.9376 13.409 39.2324 13.9247 39.3551 14.1703C39.0604 14.244 38.5693 14.3668 38.2745 14.3423V14.3423Z" fill="#00493D" stroke="black" stroke-width="0.0736776"/>
<path d="M37.415 13.1634C37.5378 13.1143 37.7097 13.016 37.8325 12.9178C37.9307 12.9915 38.1272 13.1634 38.2009 13.2616C38.2009 13.4826 38.1272 14.1212 38.1026 14.3422C37.9062 14.3422 37.5869 14.2931 37.415 14.1949C37.4395 13.8265 37.4641 13.409 37.415 13.1634L37.415 13.1634Z" fill="#00493D" stroke="black" stroke-width="0.0736776"/>
<path d="M36.187 13.4581C36.2116 13.409 36.2361 13.237 36.2361 13.1634C36.4326 13.0406 36.9238 12.9178 37.2922 13.1142C37.3167 13.3598 37.2922 13.9738 37.2676 14.1212C36.9484 13.8756 36.4326 13.5317 36.187 13.4581L36.187 13.4581Z" fill="#00493D" stroke="black" stroke-width="0.0736776"/>
<path d="M34.959 13.016C34.9099 13.016 34.8853 12.8687 34.7871 12.8687C34.7625 12.8687 34.6889 12.8932 34.6643 12.8687C34.6643 12.9178 34.6889 12.9669 34.7134 12.9914C34.738 13.0651 34.8608 13.016 34.959 13.016Z" fill="black"/>
<path d="M34.959 13.4335C35.2537 13.4335 35.3028 13.0651 35.4502 13.0406" stroke="black" stroke-width="0.0736776"/>
<path d="M35.1309 13.4581C35.352 13.5563 35.5239 13.0406 35.6958 13.0651" stroke="black" stroke-width="0.0736776"/>
<path d="M34.6889 12.8196C34.7626 12.8196 34.8117 12.7213 34.9345 12.8441C34.9836 12.8932 35.0573 12.9178 35.1064 12.9178" stroke="black" stroke-width="0.0736776"/>
<path d="M35.0572 13.188C34.959 13.3353 34.7871 13.4336 34.6888 13.3845" stroke="black" stroke-width="0.0736776"/>
<path d="M34.6397 12.574C34.5661 12.6231 34.517 12.7213 34.4678 12.795" stroke="black" stroke-width="0.0736776"/>
<path d="M34.3942 12.9423V13.0651" stroke="black" stroke-width="0.0736776"/>
<path d="M42.5975 16.1341V20.9232C42.5975 25.0737 40.6327 26.4983 38.0049 27.6278C35.3771 26.4981 33.3878 25.0737 33.3878 20.9232V16.1341H42.5973H42.5975Z" fill="white"/>
<path d="M38.0052 20.1856C38.2263 20.1856 38.5701 19.9891 38.8648 19.6944C39.1841 19.3506 39.7244 19.2278 40.2893 19.6944C40.8541 20.161 41.198 19.9646 41.4926 19.6944C41.7873 19.4243 42.0329 19.326 42.5978 19.326V16.1333H33.3882V19.326C33.9531 19.326 34.1987 19.4243 34.4934 19.6944C34.7881 19.9646 35.132 20.161 35.6969 19.6944C36.2863 19.2278 36.8021 19.3506 37.1459 19.6944C37.416 19.9891 37.7599 20.1856 38.0054 20.1856H38.0052Z" fill="#CF142B"/>
<path d="M38.0042 22.6419C38.299 22.6419 38.8884 22.3226 39.0357 22.2489C39.576 21.9297 39.969 22.2244 40.2883 22.3717C40.6321 22.5191 41.2706 22.691 41.6636 22.3717C42.0565 22.0525 42.2776 22.077 42.5477 22.077C42.5968 21.7086 42.5968 21.3402 42.5968 20.9227V20.628C42.253 20.5543 42.0811 20.6526 41.7127 20.9718C41.3443 21.2911 40.9268 21.2174 40.3865 21.021C39.8707 20.7999 39.355 20.407 38.8392 21.021C38.6919 21.1929 38.3481 21.4385 38.0042 21.4385C37.6358 21.4385 37.3165 21.1929 37.1692 21.021C36.6289 20.407 36.1377 20.7999 35.622 21.021C35.0817 21.2174 34.6396 21.2911 34.2712 20.9718C33.9274 20.6526 33.7554 20.5543 33.3871 20.628V20.9227C33.3871 21.3402 33.4116 21.7087 33.4608 22.077C33.7309 22.077 33.9274 22.0525 34.3203 22.3717C34.7133 22.691 35.3764 22.5191 35.6956 22.3717C36.0395 22.2244 36.4324 21.9297 36.9727 22.2489C37.1201 22.3226 37.6849 22.6419 38.0042 22.6419H38.0042Z" fill="#0B50A0"/>
<path d="M38.0043 23.6976C38.3727 23.6976 38.8147 23.5502 39.2076 23.3292C39.6988 23.059 40.0427 23.1818 40.5339 23.4274C41.0496 23.673 41.4671 23.5993 41.7618 23.4274C41.9092 23.3292 42.032 23.1327 42.3513 23.2064C42.2039 23.8204 41.9829 24.3607 41.7127 24.8027C41.2216 24.9255 40.9514 24.9255 40.4357 24.7045C39.9199 24.4589 39.2814 24.3116 38.9376 24.5326C38.6183 24.7291 38.2745 24.8273 38.0043 24.8273C37.7342 24.8273 37.3903 24.7291 37.0711 24.5326C36.7272 24.3116 36.0887 24.4589 35.573 24.7045C35.0572 24.9255 34.787 24.9255 34.2959 24.8027C34.0257 24.3607 33.8047 23.8204 33.6573 23.2064C33.9766 23.1327 34.0994 23.3292 34.2468 23.4274C34.5169 23.5993 34.959 23.673 35.4502 23.4274C35.9659 23.1818 36.3097 23.059 36.8009 23.3292C37.1939 23.5502 37.636 23.6976 38.0043 23.6976H38.0043Z" fill="#0B50A0"/>
<path d="M38.0043 27.6272C38.9866 27.2097 39.8953 26.7431 40.6321 26.1045C40.4356 26.0308 40.3128 26.0799 40.1409 25.9571C39.969 25.8343 39.4532 25.7852 39.0112 26.0308C38.5445 26.2518 38.3481 26.3009 38.0042 26.3009C37.6604 26.3009 37.4639 26.2518 36.9973 26.0308C36.5552 25.7852 36.0395 25.8343 35.8675 25.9571C35.6956 26.0799 35.5728 26.0308 35.3763 26.1045C36.1131 26.743 36.9973 27.2097 38.0042 27.6272H38.0043Z" fill="#0B50A0"/>
<path d="M34.4682 23.8451L35.6962 20.063L36.9242 23.8451L33.7069 21.512H37.6855L34.4682 23.8451Z" fill="#F9D050"/>
<path d="M34.7137 23.5013L37.2679 21.6347H34.1243L36.6539 23.5013L35.6961 20.505L34.7137 23.5013Z" fill="#024919"/>
<path d="M42.5975 16.1341V20.9232C42.5975 25.0737 40.6327 26.4983 38.0049 27.6278C35.3771 26.4981 33.3878 25.0737 33.3878 20.9232V16.1341H42.5973H42.5975Z" stroke="black" stroke-width="0.0736776"/>
<path d="M36.0624 18.5807C36.0624 18.5807 35.9068 18.5794 35.8445 18.5429C35.7767 18.5033 35.7041 18.363 35.7041 18.363C35.7041 18.363 35.5325 18.3909 35.4536 18.3738C35.3712 18.3559 35.2532 18.2616 35.2532 18.2616C35.332 18.25 35.3909 18.2381 35.4672 18.1764C35.4672 18.1764 35.3153 18.1683 35.2288 18.135C35.1535 18.106 35.0305 18.0099 35.0305 18.0099C35.1008 17.9925 35.1767 17.9947 35.232 17.926C35.232 17.926 35.0833 17.9274 35.0159 17.9027C34.9486 17.8781 34.8417 17.7835 34.8417 17.7835C34.9235 17.7764 35.0013 17.7612 35.0538 17.6952C35.0538 17.6952 34.9031 17.7003 34.8393 17.6752C34.7512 17.6406 34.6163 17.5252 34.6163 17.5252C34.7011 17.5189 34.7855 17.5115 34.8496 17.4634L34.8019 17.3666C34.7444 17.2498 34.6238 17.291 34.5437 17.2588C34.465 17.2271 34.4209 17.1409 34.4166 17.0925C34.4091 17.0073 34.4527 16.877 34.6451 16.9042C34.5494 16.7584 34.649 16.6536 34.7509 16.6117C34.8487 16.5713 34.9351 16.5824 35.0015 16.742C35.0015 16.742 35.0908 16.6698 35.1392 16.6591C35.2065 16.6442 35.2824 16.6665 35.3063 16.7295C35.3162 16.7554 35.3198 16.8096 35.3033 16.842C35.2771 16.8932 35.2196 16.9282 35.2009 17.0031C35.1796 17.0879 35.2579 17.2357 35.2579 17.2357C35.2579 17.2357 35.6278 17.5288 35.798 17.6893C35.8885 17.7747 36.0529 17.9595 36.0529 17.9595L36.062 17.9542H36.4287L36.4614 18.5729L36.0624 18.5807L36.0624 18.5807Z" fill="#E4C900" stroke="#806600" stroke-width="0.0357333"/>
<path d="M35.5805 17.6369C35.4718 17.5403 35.1814 17.3246 35.1814 17.3246C35.1814 17.3246 35.1149 17.1634 35.1062 17.0528C35.1023 17.0038 35.1125 16.9518 35.1351 16.9082C35.1583 16.8634 35.2264 16.8471 35.2392 16.7983C35.2433 16.7829 35.2379 16.7642 35.2277 16.752C35.2154 16.7375 35.1946 16.7277 35.1756 16.7289C35.104 16.7331 34.9905 16.8388 34.9905 16.8388C34.9905 16.8388 34.9196 16.7113 34.8575 16.6826C34.8312 16.6705 34.7975 16.6715 34.7707 16.6826C34.7455 16.693 34.7207 16.7143 34.7129 16.7404C34.688 16.8234 34.7649 16.9949 34.7649 16.9949C34.7649 16.9949 34.598 16.9525 34.5336 16.9949C34.5091 17.0111 34.4965 17.0466 34.4989 17.0759C34.5016 17.1079 34.5249 17.1382 34.5509 17.1569C34.622 17.2078 34.8054 17.2205 34.8054 17.2205L35.0194 17.5097L34.7939 17.5733C34.8798 17.6201 34.9471 17.6359 35.1814 17.6369C35.1337 17.7372 35.0637 17.7716 35.0021 17.8162L35.3954 17.874C35.3612 17.9725 35.2584 17.9816 35.2103 18.0244C35.2857 18.0746 35.3942 18.0999 35.5119 18.1183C35.5306 18.1212 35.5496 18.1239 35.5687 18.1266C35.4907 18.1158 35.504 17.6264 35.5805 17.6369L35.5805 17.6369Z" fill="#FEE46E"/>
<path d="M35.5007 17.7473C35.2911 17.3835 35.244 17.4417 34.9819 17.2572C35.1671 17.5858 35.1507 17.5589 35.5007 17.7473Z" fill="#FFEFA7"/>
<path d="M35.0419 16.5378C35.112 16.6248 35.12 16.6646 35.104 16.7661C35.1372 16.8007 35.169 16.809 35.1966 16.8007C35.2519 16.7838 35.2777 16.7397 35.2649 16.6786C35.2238 16.6528 35.2171 16.5752 35.0419 16.5378L35.0419 16.5378ZM34.6231 16.5839C34.5942 16.5828 34.559 16.5858 34.5152 16.5955C34.615 16.6456 34.6388 16.6785 34.6663 16.7776C34.7108 16.7952 34.7432 16.7897 34.7648 16.7707C34.8082 16.7324 34.8135 16.6815 34.7765 16.6312C34.7404 16.6264 34.7099 16.587 34.6231 16.5839L34.6231 16.5839ZM34.499 16.9773C34.4526 16.9914 34.3896 16.9456 34.2467 17.0536C34.3583 17.0575 34.3936 17.0776 34.4599 17.1561C34.5077 17.1537 34.5349 17.1351 34.5466 17.1088C34.5701 17.0559 34.5537 17.0075 34.499 16.9773H34.499Z" fill="#377BC8" stroke="#2C5AA0" stroke-width="0.0357333"/>
<path d="M37.8768 18.8647C37.8122 18.8458 37.7333 18.7609 37.6647 18.7613C37.5925 18.7617 37.5416 18.802 37.5053 18.8561C37.488 18.8819 37.5152 18.9786 37.5422 18.9972L37.6666 19.0827C37.6666 19.0827 37.5887 19.1721 37.5828 19.2224C37.5777 19.2662 37.5997 19.3013 37.631 19.3358C37.6719 19.3808 37.6819 19.3982 37.7471 19.4077C37.7859 19.4134 37.878 19.3964 37.878 19.3964C37.878 19.3964 37.8758 19.4682 37.8986 19.5013C37.9398 19.5613 38.0097 19.6142 38.0897 19.6057C38.1521 19.5991 38.1723 19.5897 38.2053 19.5432C38.2315 19.5064 38.2262 19.4123 38.2687 19.3735L38.4414 19.2157C38.516 19.2608 38.514 19.3281 38.5048 19.3975C38.5048 19.3975 38.6156 19.3275 38.6486 19.2773C38.683 19.225 38.6965 19.1016 38.6965 19.1016C38.7667 19.1649 38.79 19.2215 38.7749 19.2971C38.7749 19.2971 38.8878 19.2266 38.9241 19.1769C38.965 19.1209 39.0002 18.9999 39.0002 18.9999C39.0516 19.0499 39.0624 19.121 39.0428 19.2079C39.0428 19.2079 39.1689 19.1234 39.2026 19.0553C39.2293 19.0015 39.2453 18.9074 39.2453 18.9074C39.3985 18.9185 39.4975 18.8518 39.5042 18.7828C39.5095 18.7292 39.4488 18.6562 39.3254 18.6351C39.3254 18.6351 39.2799 18.567 39.2627 18.5167C39.2508 18.4822 39.2499 18.4429 39.2627 18.4085C39.2881 18.3398 39.3475 18.282 39.4081 18.2327C39.4916 18.1648 39.6731 18.0793 39.6731 18.0793L39.62 17.8134L39.0017 17.7187L38.3183 17.8871C38.4428 17.9443 38.7218 18.1397 38.6991 18.2137C38.6905 18.2415 38.6312 18.2677 38.6028 18.3048C38.5819 18.3321 38.5978 18.3758 38.6184 18.404C38.6471 18.4435 38.7158 18.4525 38.7379 18.4897C38.7578 18.5231 38.7668 18.5529 38.7431 18.5844C38.6963 18.6465 38.5389 18.6726 38.4625 18.7061C38.3234 18.7672 38.0878 18.9002 38.0878 18.9002C38.0146 18.9098 37.9443 18.8844 37.8768 18.8647L37.8768 18.8647Z" fill="#E4C900" stroke="#806600" stroke-width="0.0357333"/>
<path d="M38.1174 18.9953C38.1174 18.9953 38.2891 18.9049 38.3804 18.8598C38.5242 18.7887 38.7756 18.77 38.8388 18.6225C38.8388 18.6225 38.8567 18.5898 38.8508 18.5443C38.8421 18.4764 38.7236 18.4202 38.7607 18.3459L38.7907 18.2858C38.7907 18.2858 38.9168 18.3401 38.953 18.382C38.9825 18.4161 38.9867 18.4728 39.0252 18.4962C39.0647 18.5203 39.1635 18.5083 39.1635 18.5083L39.2236 18.6826C39.2236 18.6826 39.3151 18.6819 39.3498 18.7247C39.36 18.7373 39.3619 18.7578 39.3558 18.7728C39.3462 18.7966 39.2906 18.8026 39.2664 18.8111C39.2191 18.8277 39.1461 18.7742 39.1461 18.7742C39.1461 18.7742 39.1714 18.8925 39.159 18.9308C39.1504 18.9572 39.1169 19.0029 39.1169 19.0029C39.0903 18.9577 39.073 18.9358 38.953 18.875C38.953 18.875 38.9386 18.9758 38.9064 19.0391C38.8914 19.0684 38.8462 19.1173 38.8462 19.1173C38.8462 19.1173 38.8188 19.0616 38.7981 19.0391C38.7594 18.9969 38.6464 18.9772 38.6464 18.9772C38.6464 18.9772 38.6242 19.1009 38.5924 19.1668C38.5807 19.1911 38.5607 19.2269 38.5607 19.2269C38.5607 19.2269 38.5391 19.1701 38.5186 19.1487C38.4944 19.1234 38.4285 19.0946 38.4285 19.0946L38.1955 19.287C38.1955 19.287 38.1603 19.4008 38.1055 19.4374C38.0738 19.4586 38.0568 19.4483 38.0226 19.4314C38.006 19.4233 37.9911 19.4072 37.9865 19.3893C37.9717 19.3319 38.0092 19.2598 38.0092 19.2598C38.0092 19.2598 37.8839 19.3089 37.8014 19.2855C37.7701 19.2766 37.7309 19.2519 37.7293 19.2194C37.7255 19.1442 37.8348 19.0734 37.8348 19.0734C37.8348 19.0734 37.7114 19.0444 37.6602 18.9741C37.6435 18.9512 37.6317 18.913 37.6482 18.89C37.6672 18.8635 37.7124 18.8656 37.7444 18.8719C37.8054 18.8841 37.8332 18.9569 37.8949 18.9652L38.1174 18.9952L38.1174 18.9953Z" fill="#FFE66F"/>
<path d="M38.9184 18.768C38.6157 18.7525 38.3791 18.899 38.1373 19.0621C38.4475 19.0636 38.6851 18.96 38.9184 18.768Z" fill="#FFEFA7"/>
<path d="M39.1267 18.0277C39.1267 18.0277 39.115 18.2488 39.0226 18.3055C38.9828 18.3298 38.9271 18.3399 38.8837 18.3228C38.8416 18.3062 38.8123 18.2611 38.7969 18.2186C38.787 18.1914 38.7708 18.1232 38.7708 18.1232C38.7708 18.1232 38.6296 18.0585 38.5538 18.0537C38.4422 18.0466 38.2239 18.1145 38.2239 18.1145C38.2612 17.9986 38.3615 17.9037 38.467 17.8106L38.8316 17.7846L39.1267 18.0277L39.1267 18.0277Z" fill="#EFD300" stroke="#806600" stroke-width="0.0357333"/>
<path d="M39.8328 16.5575C39.9191 16.546 40.0962 16.5034 40.1557 16.433C40.1834 16.4002 40.2611 16.3086 40.2611 16.3086C40.2447 16.5155 40.1571 16.6496 39.9712 16.7405C39.8229 16.813 39.6517 16.8298 39.4902 16.8137C39.3885 16.8036 39.2003 16.7405 39.2003 16.7405C39.3035 16.8745 39.251 16.9692 39.1212 17.0333C39.1212 17.0333 39.1404 16.9049 39.1014 16.8869C39.0173 16.848 38.9224 16.8987 38.8331 16.9582C38.7671 17.0021 38.6672 17.0226 38.5999 17.0217C38.4878 17.0202 38.4256 17.0187 38.3208 16.9745C38.2576 16.9479 38.1479 16.8464 38.1014 16.8565C38.0011 16.8783 37.8743 16.8905 37.8172 16.9847C37.7974 17.0174 37.7998 17.0687 37.8172 17.1031C37.8563 17.1802 37.944 17.2205 38.0215 17.2412C38.2519 17.3025 38.44 17.3021 38.6674 17.2631C38.9018 17.223 39.1756 17.1427 39.4099 17.0942C39.6422 17.0461 39.9417 16.9552 40.1178 16.9113C40.4289 16.8338 40.5685 16.8231 40.8013 16.8272C41.2091 16.8344 41.3426 17.0749 41.3302 17.3374C41.3174 17.6071 41.0717 17.7291 40.8614 17.8048C40.4915 17.9378 39.9836 17.8621 39.6644 17.853C39.6644 17.853 39.7714 17.9525 39.82 17.998C39.8768 18.0513 39.9053 18.1628 39.9755 18.19C40.0719 18.2273 40.2193 18.1533 40.3211 18.1468C40.4636 18.1376 40.7057 18.1564 40.7057 18.1564C40.7427 18.1145 40.7667 18.0854 40.8053 18.0728C40.8329 18.0638 40.8763 18.0633 40.8985 18.0727C40.9424 18.0913 40.9719 18.1486 40.9535 18.2554C40.9535 18.2554 40.9839 18.3026 41.0303 18.3135C41.0794 18.3251 41.1367 18.3149 41.1647 18.3247C41.2109 18.3409 41.2857 18.3919 41.2857 18.3919C41.2857 18.3919 41.2064 18.4198 41.1734 18.4421C41.1509 18.4574 41.1208 18.5079 41.1208 18.5079C41.1208 18.5079 41.2293 18.51 41.2747 18.5323C41.3233 18.5563 41.3681 18.6239 41.3681 18.6239C41.3681 18.6239 41.3028 18.6188 41.2716 18.6406C41.2478 18.6573 41.2087 18.7033 41.2087 18.7033C41.2087 18.7033 41.3358 18.6919 41.3791 18.7339C41.4175 18.7711 41.4616 18.8377 41.4616 18.8377C41.4616 18.8377 41.393 18.8361 41.3606 18.8464C41.3394 18.8532 41.3022 18.8804 41.3022 18.8804C41.3022 18.8804 41.39 18.9313 41.4286 18.9903C41.4594 19.0375 41.4671 19.143 41.4671 19.143C41.4671 19.143 41.4153 19.0999 41.3836 19.0841C41.3637 19.0742 41.3187 19.0758 41.3187 19.0758L41.3392 19.2924C41.3443 19.3457 41.4115 19.4034 41.4235 19.4446C41.4386 19.4965 41.4348 19.516 41.4077 19.5616C41.373 19.6199 41.3012 19.6318 41.2392 19.6201C41.2049 19.6136 41.1568 19.5656 41.1568 19.5656C41.1568 19.5656 41.1218 19.6375 41.0982 19.6595C41.0587 19.6964 41.0416 19.6918 40.99 19.6896C40.9505 19.6879 40.9152 19.6796 40.8878 19.6478C40.8563 19.6113 40.8345 19.5018 40.8345 19.5018L40.7128 19.5285C40.6864 19.5343 40.6063 19.4895 40.5974 19.4613C40.5787 19.4021 40.5768 19.3423 40.6132 19.2943C40.6477 19.2487 40.743 19.2464 40.7916 19.2213C40.8539 19.1891 40.9137 19.0961 40.9137 19.0961C40.9137 19.0961 40.7105 18.9223 40.6225 18.8143C40.5742 18.7549 40.491 18.616 40.491 18.616C40.491 18.616 40.2318 18.7028 40.1341 18.7204C39.893 18.7639 39.6363 18.7204 39.6363 18.7204C39.2678 18.7204 39.0226 18.0918 38.6876 17.9482C38.5853 17.9044 38.5372 17.9113 38.4302 17.9378C38.042 18.034 37.6275 18.5805 37.2429 18.6933C37.085 18.7395 36.7544 18.7559 36.7544 18.7559C36.7544 18.7559 36.7003 18.8854 36.6491 18.9223C36.5935 18.9625 36.4537 18.9652 36.4537 18.9652C36.4537 18.9652 36.418 19.12 36.377 19.1788C36.3342 19.2403 36.2167 19.2999 36.2167 19.2999C36.2341 19.2292 36.2444 19.1752 36.2199 19.0859C36.2199 19.0859 36.1614 19.2095 36.1046 19.268C36.0551 19.3189 35.9344 19.3818 35.9344 19.3818C35.9441 19.316 35.9718 19.2534 35.9344 19.1788C35.9344 19.1788 35.8847 19.3037 35.8415 19.3498C35.7984 19.3958 35.6843 19.4459 35.6843 19.4459C35.7064 19.3747 35.7205 19.3035 35.6843 19.2323C35.6843 19.2323 35.6371 19.3602 35.5947 19.4032C35.5363 19.4625 35.3957 19.5275 35.3957 19.5275C35.4194 19.454 35.4422 19.3805 35.4247 19.307L35.329 19.3068C35.2136 19.3066 35.2062 19.4243 35.1525 19.4779C35.0997 19.5306 35.014 19.5317 34.9729 19.5153C34.9004 19.4864 34.8359 19.3847 34.9239 19.2352C34.7717 19.2548 34.6924 19.1397 34.6928 19.0374C34.6932 18.939 34.7228 18.8521 34.8763 18.8626C34.8763 18.8626 34.8565 18.7775 34.8642 18.7326C34.875 18.6702 34.9192 18.6161 34.979 18.6221C35.0036 18.6246 35.0493 18.644 35.0702 18.6712C35.1032 18.7142 35.1123 18.7767 35.1673 18.8233C35.2295 18.8761 35.3774 18.8719 35.3774 18.8719C35.3774 18.8719 35.6649 18.684 35.8546 18.6082C35.9555 18.5679 36.2421 18.507 36.2421 18.507L36.251 17.6572C36.4232 17.67 36.3492 17.6718 36.4948 17.6665C36.704 17.659 37.2536 17.7614 37.2536 17.7614L37.6449 17.729C37.6449 17.729 38.2976 17.6102 38.6081 17.573C38.7645 17.5543 38.9225 17.5408 39.0796 17.5507C39.3162 17.5656 39.5194 17.6365 39.7418 17.651C39.9288 17.6633 40.0565 17.6863 40.2435 17.6733C40.5104 17.6548 40.9876 17.6765 41.1392 17.3852C41.1785 17.3096 41.1583 17.206 41.0996 17.1478C41.0221 17.071 40.967 17.042 40.8637 17.0684C40.8092 17.0824 40.7399 17.1286 40.7331 17.1855C40.7294 17.2163 40.734 17.2548 40.7573 17.2912C40.7974 17.3538 40.8426 17.3727 40.8426 17.3727C40.8426 17.3727 40.7268 17.3914 40.6741 17.3446C40.6186 17.2953 40.5688 17.1386 40.5688 17.1386C40.5427 17.1786 40.5235 17.2224 40.5279 17.2793C40.5317 17.3284 40.5277 17.3591 40.5772 17.4335C40.5772 17.4335 40.4547 17.424 40.396 17.3493C40.3566 17.299 40.3244 17.148 40.3244 17.148C40.2896 17.1861 40.2684 17.2478 40.267 17.2933C40.2648 17.359 40.2905 17.3879 40.3033 17.4569C40.3033 17.4569 40.1826 17.4175 40.1348 17.3446C40.0977 17.288 40.078 17.1394 40.078 17.1394C39.9391 17.1779 39.6739 17.2322 39.3852 17.3011C39.1818 17.3497 38.8711 17.4242 38.6515 17.4549C38.2745 17.5075 38 17.4803 37.7682 17.371C37.6476 17.3141 37.5932 17.2594 37.5621 17.1303C37.5445 17.057 37.5705 16.9532 37.6304 16.8723C37.7138 16.7596 37.8588 16.6752 38.0207 16.6307C38.0207 16.6307 38.4497 16.5027 38.6995 16.4769C39.1 16.4356 39.2629 16.4978 39.4302 16.5212C39.539 16.5364 39.6561 16.5114 39.6903 16.466C39.7191 16.4278 39.7668 16.3866 39.7026 16.2944C39.7026 16.2944 39.784 16.2962 39.838 16.4073C39.8601 16.4526 39.8329 16.5575 39.8329 16.5575H39.8329L39.8328 16.5575Z" fill="#FEE46E"/>
<path d="M40.2616 16.3087C40.2616 16.3087 40.1451 16.5069 40.0608 16.5661C39.9545 16.6408 39.8245 16.6821 39.7025 16.6997C39.5839 16.7168 39.4629 16.6869 39.3442 16.671C39.2065 16.6526 39.0016 16.5614 39.0016 16.5614C39.0432 16.6345 39.0853 16.7076 39.0962 16.7807C39.0962 16.7807 38.9666 16.7462 38.8983 16.7688C38.8445 16.7865 38.7423 16.8363 38.6902 16.8605C38.6093 16.8982 38.4795 16.8598 38.3935 16.8474C38.3047 16.8346 38.2734 16.7872 38.1936 16.8129L38.1158 16.8379L38.3678 16.9857L38.6198 17.0239L38.7772 16.9905L38.9505 16.8856L39.0883 16.8761L39.1277 16.9381L39.1316 17.0477L39.2221 16.9572L39.2458 16.8808L39.2182 16.7473L39.4033 16.8045L39.6395 16.8236L39.8836 16.7759L40.1002 16.671L40.2065 16.5375L40.2616 16.3087L40.2616 16.3087ZM40.9067 16.972C40.8518 16.9738 40.7953 16.9899 40.7421 17.0243C40.6696 17.0939 40.6756 17.1771 40.6765 17.2467C40.6393 17.1821 40.6099 17.0704 40.5771 16.9789C40.4868 17.0716 40.482 17.2052 40.4572 17.3149C40.4064 17.218 40.3832 17.103 40.3522 17.0062C40.2479 17.0939 40.2205 17.1998 40.1873 17.2876C40.1612 17.2313 40.1357 17.1726 40.1292 17.0334C40.1158 17.0384 40.1073 17.0422 40.0958 17.0467C39.7861 17.0888 39.089 17.3162 38.5478 17.3707C38.2479 17.4009 37.9206 17.381 37.7316 17.2461C37.6484 17.1867 37.592 17.1049 37.5767 16.9953L37.5489 17.1233L37.6379 17.2916L37.8381 17.4061L38.2162 17.4937L38.6277 17.4532L38.8613 17.4263L40.0839 17.1449L40.1104 17.3035L40.1929 17.4079L40.3035 17.4578L40.2604 17.3171L40.2773 17.2218L40.3204 17.1605L40.3822 17.3375L40.4666 17.4079L40.5809 17.4374L40.534 17.3511L40.5303 17.2377L40.5659 17.1537L40.624 17.3035L40.6915 17.3602L40.8433 17.3738L40.7496 17.2672L40.7308 17.1718L40.7927 17.0946L40.9351 17.0606L41.0457 17.1037L41.1319 17.1855L41.1582 17.3126L41.1355 17.4073C41.3488 17.2184 41.1426 16.9641 40.9067 16.972L40.9067 16.972ZM41.1355 17.4073C41.1336 17.409 41.132 17.4107 41.13 17.4124L41.1338 17.4147L41.1355 17.4073H41.1355ZM41.3233 17.1693C41.3118 17.3126 41.2622 17.425 41.1844 17.51C40.8152 17.9129 39.991 17.7783 39.5955 17.6404L39.4176 17.6121C39.3923 17.6004 39.3643 17.5883 39.3292 17.5742C39.197 17.5451 39.2255 17.5599 39.0797 17.5507C38.9226 17.5408 38.7646 17.5543 38.6081 17.573C38.2976 17.6102 37.6449 17.729 37.6449 17.729L37.2536 17.7614C37.2536 17.7614 36.7041 17.659 36.4949 17.6666C36.3492 17.6718 36.4233 17.67 36.2511 17.6571L36.2496 17.8004C36.2496 17.8004 36.4296 17.8477 36.5969 17.8816L36.5483 17.8849L36.3062 18.3126C36.2957 18.2324 36.2625 18.1125 36.2625 18.1125L36.2371 18.4345L36.1907 18.5166L35.9063 18.5877L35.6172 18.7189L35.39 18.8815L35.1629 18.819L35.0751 18.6627C35.0751 18.6627 35.096 18.8433 35.1474 18.9002C35.2105 18.9702 35.3952 18.9815 35.3952 18.9815C35.3952 18.9815 35.6635 18.7914 35.8082 18.7252C35.871 18.6965 35.9362 18.6764 36.0019 18.6586C36.0246 18.6845 36.0549 18.7153 36.089 18.7399C36.1215 18.7633 36.1912 18.7998 36.1912 18.7998C36.1993 18.6034 36.3125 18.6057 36.4826 18.5028L36.5001 18.6229C36.5001 18.6229 36.8206 18.5135 36.9077 18.4157C36.966 18.3504 37.0224 18.2736 37.0478 18.1825C37.0666 18.1147 37.0634 18.0004 37.0588 17.9248C37.1302 17.9243 37.2019 17.9223 37.2764 17.9196C37.6037 17.908 37.9547 17.7598 38.2801 17.7159C38.5407 17.6807 38.8289 17.6296 39.066 17.6738C39.2652 17.7108 39.3417 17.7905 39.5134 17.918C39.6579 18.0253 39.8045 18.3139 39.998 18.3139C39.998 18.3139 40.1075 18.3072 40.1788 18.2971C40.2688 18.2843 40.332 18.2467 40.4223 18.2381C40.5451 18.2264 40.714 18.2511 40.714 18.2511C40.7936 18.1388 40.8344 18.1366 40.8572 18.1508C40.9076 18.1823 40.9144 18.252 40.8691 18.3225C40.9191 18.3606 40.9511 18.4233 41.1035 18.4143C41.0364 18.4735 41.0162 18.503 40.9886 18.5758C41.0458 18.5549 41.1057 18.5747 41.1914 18.6021C41.1308 18.6594 41.1141 18.7165 41.0932 18.767C41.15 18.7588 41.1925 18.7725 41.2947 18.7918C41.2364 18.8256 41.1926 18.8416 41.1828 18.8885C41.2493 18.9305 41.2432 18.9139 41.34 19.0048C41.2785 19.0137 41.2409 19.0138 41.2169 19.0616L41.3343 19.2684L41.3187 19.0758C41.3187 19.0758 41.3638 19.0742 41.3836 19.0841C41.4154 19.0999 41.4671 19.143 41.4671 19.143C41.4671 19.143 41.4595 19.0375 41.4286 18.9903C41.3901 18.9313 41.3022 18.8804 41.3022 18.8804C41.3022 18.8804 41.3395 18.8532 41.3606 18.8464C41.3931 18.8361 41.4616 18.8376 41.4616 18.8376C41.4616 18.8376 41.4175 18.771 41.3792 18.7338C41.3358 18.6918 41.2088 18.7033 41.2088 18.7033C41.2088 18.7033 41.2478 18.6573 41.2716 18.6406C41.3028 18.6188 41.3682 18.6239 41.3682 18.6239C41.3682 18.6239 41.3233 18.5562 41.2748 18.5323C41.2294 18.51 41.1208 18.5079 41.1208 18.5079C41.1208 18.5079 41.1509 18.4573 41.1735 18.4421C41.2065 18.4197 41.2857 18.3919 41.2857 18.3919C41.2857 18.3919 41.211 18.3409 41.1648 18.3247C41.1368 18.3149 41.0794 18.3251 41.0303 18.3135C40.9839 18.3026 40.9535 18.2553 40.9535 18.2553C40.9719 18.1486 40.9424 18.0913 40.8985 18.0727C40.8764 18.0633 40.8329 18.0638 40.8053 18.0728C40.7668 18.0853 40.7428 18.1145 40.7057 18.1564C40.7057 18.1564 40.4637 18.1376 40.3212 18.1468C40.2193 18.1533 40.0719 18.2273 39.9756 18.19C39.9053 18.1628 39.8769 18.0513 39.82 17.998C39.7715 17.9525 39.6645 17.8529 39.6645 17.8529C39.6618 17.849 39.6598 17.8461 39.6572 17.8423L40.0207 17.865L40.3871 17.8705H40.6177C40.883 17.8057 41.192 17.7349 41.3188 17.4104L41.3233 17.1693L41.3233 17.1693ZM38.5802 17.7881C38.4842 17.7861 38.375 17.8179 38.2883 17.8552C38.0404 17.9618 37.652 18.2846 37.652 18.2846C37.5421 18.3532 37.3842 18.4668 37.267 18.5144C37.0879 18.5871 36.7046 18.5991 36.7046 18.5991C36.7046 18.5991 36.6526 18.7969 36.5827 18.8346C36.5208 18.8681 36.3824 18.7925 36.3824 18.7925C36.3824 18.7925 36.3847 18.9045 36.3766 18.9647C36.3693 19.0196 36.3156 19.1229 36.3156 19.1229C36.3156 19.1229 36.3018 19.0412 36.2837 19.0069C36.2572 18.9566 36.1763 18.8839 36.1763 18.8839C36.1763 18.8839 36.1546 18.9976 36.1328 19.0491C36.1046 19.1153 36.0225 19.2283 36.0225 19.2283C36.0225 19.2283 36.0115 19.1606 35.9992 19.1299C35.9768 19.074 35.9092 18.9788 35.9092 18.9788C35.9092 18.9788 35.8819 19.0964 35.8599 19.151C35.8412 19.1974 35.7902 19.2811 35.7902 19.2811C35.7902 19.2811 35.7769 19.2376 35.767 19.2178C35.7396 19.1628 35.6683 19.0666 35.6683 19.0666C35.6683 19.0666 35.6194 19.1924 35.587 19.2495C35.5669 19.2851 35.5174 19.3479 35.5174 19.3479C35.5174 19.3479 35.5163 19.2347 35.4854 19.2002C35.4565 19.168 35.3993 19.1541 35.3606 19.1615C35.2336 19.1859 35.1842 19.3117 35.0994 19.4236C35.0812 19.4477 35.042 19.4616 35.0571 19.4342C35.0803 19.3921 35.0627 19.3531 35.0462 19.3313C35.0275 19.3068 34.9916 19.2921 34.9659 19.308C34.9266 19.3322 35.0591 19.144 35.0559 19.144C35.0559 19.144 34.9221 19.1485 34.8584 19.1334C34.8217 19.1247 34.8908 19.1454 34.8823 19.0349C34.8742 18.9308 34.7926 18.941 34.8151 18.9329C34.8776 18.9106 34.9804 18.9577 34.9804 18.9577C34.9804 18.9577 34.9328 18.9083 34.9543 18.8643C34.964 18.8442 35.0206 18.8033 35.0295 18.7515C35.0425 18.676 34.9813 18.6164 34.979 18.6221C34.9521 18.6872 34.8749 18.6702 34.8641 18.7326C34.8564 18.7774 34.8762 18.8626 34.8762 18.8626C34.7227 18.8521 34.6931 18.9389 34.6928 19.0373C34.6924 19.1397 34.7717 19.2548 34.9239 19.2351C34.8359 19.3846 34.9003 19.4863 34.9728 19.5153C35.0139 19.5317 35.0996 19.5305 35.1524 19.4778C35.2062 19.4243 35.2135 19.3065 35.329 19.3068L35.4246 19.307C35.4421 19.3804 35.4193 19.4539 35.3956 19.5274C35.3956 19.5274 35.5362 19.4625 35.5946 19.4031C35.637 19.3602 35.6843 19.2322 35.6843 19.2322C35.7205 19.3034 35.7064 19.3746 35.6843 19.4459C35.6843 19.4459 35.7983 19.3958 35.8414 19.3497C35.8846 19.3036 35.9343 19.1788 35.9343 19.1788C35.9717 19.2534 35.944 19.3159 35.9343 19.3818C35.9343 19.3818 36.055 19.3188 36.1045 19.2679C36.1613 19.2094 36.2198 19.0859 36.2198 19.0859C36.2443 19.1751 36.234 19.2292 36.2166 19.2998C36.2166 19.2998 36.3342 19.2402 36.3769 19.1788C36.4179 19.1199 36.4536 18.9651 36.4536 18.9651C36.4536 18.9651 36.5934 18.9625 36.649 18.9223C36.7002 18.8853 36.7544 18.7558 36.7544 18.7558C36.7544 18.7558 37.0849 18.7395 37.2428 18.6932C37.6274 18.5805 38.0419 18.034 38.4301 17.9377C38.5371 17.9112 38.5852 17.9043 38.6875 17.9481C39.0225 18.0916 39.2677 18.7203 39.6362 18.7203C39.8021 18.7203 39.893 18.7638 40.134 18.7203C40.2318 18.7027 40.491 18.616 40.491 18.616C40.491 18.616 40.5741 18.7548 40.6225 18.8142C40.7104 18.9223 40.9136 19.096 40.9136 19.096C40.9136 19.096 40.8538 19.189 40.7915 19.2212C40.7429 19.2463 40.6475 19.2487 40.613 19.2942C40.5767 19.3422 40.5786 19.402 40.5973 19.4612C40.6062 19.4894 40.6863 19.5342 40.7127 19.5284L40.8344 19.5017C40.8344 19.5017 40.8562 19.6112 40.8878 19.6477C40.9151 19.6795 40.9504 19.701 40.9899 19.7027C41.0415 19.7049 41.0586 19.6963 41.0981 19.6594C41.1217 19.6374 41.1567 19.5655 41.1567 19.5655C41.1567 19.5655 41.2048 19.6136 41.2391 19.62C41.3011 19.6317 41.3729 19.6198 41.4076 19.5615C41.4347 19.5159 41.4006 19.402 41.3855 19.35C41.3855 19.35 41.3841 19.4603 41.3937 19.4985C41.3511 19.4025 41.2339 19.4054 41.1956 19.5023C41.1378 19.4659 41.1222 19.4029 41.1222 19.4029L41.092 19.5288C41.0767 19.5527 41.0887 19.5853 41.0589 19.6025C41.0543 19.4811 40.9752 19.4688 40.9055 19.5002C40.8836 19.4564 40.895 19.383 40.895 19.383C40.895 19.383 40.8267 19.4158 40.7774 19.4294C40.748 19.4375 40.7672 19.409 40.7594 19.3738C40.7501 19.3326 40.6918 19.3437 40.7035 19.3366C40.766 19.2989 40.8328 19.2848 40.8923 19.2406C40.9467 19.2001 41.0127 19.0682 41.0127 19.0682C41.0127 19.0682 40.8011 18.8893 40.7045 18.7708C40.6268 18.6756 40.5336 18.4777 40.5336 18.4777C40.5336 18.4777 40.1518 18.5977 39.9382 18.6074C39.8109 18.6132 39.6314 18.608 39.5145 18.5465C39.3061 18.4369 39.1767 18.1655 38.9862 18.0155C38.8649 17.9201 38.7641 17.8103 38.6204 17.7911C38.6073 17.7893 38.5938 17.7884 38.5801 17.7881L38.5802 17.7881Z" fill="#E4C900"/>
<path d="M39.757 16.3062C39.757 16.3062 39.7594 16.3117 39.7604 16.3141L39.7611 16.3111L39.757 16.3062H39.757ZM39.7604 16.3141L39.7409 16.3993L39.6478 16.4924L39.5386 16.5267L39.3565 16.5071L39.0814 16.4679H38.774L38.4301 16.5169L38.0943 16.6002L37.9042 16.6834C37.9042 16.6834 38.0335 16.707 38.0983 16.7031C38.2915 16.6914 38.4771 16.6064 38.6688 16.5757C38.7841 16.5572 38.9004 16.537 39.0167 16.5414C39.1679 16.547 39.3147 16.6128 39.4658 16.6198C39.5455 16.6234 39.6326 16.642 39.7045 16.6002C39.7458 16.5762 39.7869 16.5317 39.7975 16.4777C39.8076 16.4259 39.769 16.3338 39.7604 16.3141H39.7604ZM40.7274 16.8283L40.3289 16.8567L39.8543 16.9703C40.3977 17.0672 41.0509 16.6599 41.3018 17.207L41.3055 17.1218L41.1962 16.9561L41.0321 16.8622L40.7274 16.8283H40.7274ZM41.3018 17.207L41.3016 17.2115L41.3075 17.2187C41.3057 17.2146 41.3037 17.211 41.3018 17.207H41.3018ZM38.8089 17.7291C39.4156 18.1221 39.4885 18.719 40.2853 18.4552C39.569 18.5118 39.5242 17.8131 38.8089 17.7291ZM38.197 17.8222C37.4928 18.1012 37.312 18.0906 37.2228 18.1913C37.1851 18.2339 37.1837 18.2906 37.1492 18.3495C37.115 18.4081 37.0477 18.469 36.968 18.5204C37.4659 18.5103 37.8587 17.9827 38.197 17.8222L38.197 17.8222ZM40.6026 18.4002C40.6744 18.6906 40.854 18.8643 41.0479 19.0373C40.963 18.7446 40.8166 18.5555 40.6026 18.4002ZM35.9824 18.7705C35.5933 18.8047 35.5737 18.9594 35.4182 19.0312C35.831 18.9909 35.7983 18.9385 35.9824 18.7705Z" fill="#FFF1A1"/>
<path d="M39.8328 16.5575C39.9191 16.546 40.0962 16.5034 40.1557 16.433C40.1834 16.4002 40.2611 16.3086 40.2611 16.3086C40.2447 16.5155 40.1571 16.6496 39.9712 16.7405C39.8229 16.813 39.6517 16.8298 39.4902 16.8137C39.3885 16.8036 39.2003 16.7405 39.2003 16.7405C39.3035 16.8745 39.251 16.9692 39.1212 17.0333C39.1212 17.0333 39.1404 16.9049 39.1014 16.8869C39.0173 16.848 38.9224 16.8987 38.8331 16.9582C38.7671 17.0021 38.6672 17.0226 38.5999 17.0217C38.4878 17.0202 38.4256 17.0187 38.3208 16.9745C38.2576 16.9479 38.1479 16.8464 38.1014 16.8565C38.0011 16.8783 37.8743 16.8905 37.8172 16.9847C37.7974 17.0174 37.7998 17.0687 37.8172 17.1031C37.8563 17.1802 37.944 17.2205 38.0215 17.2412C38.2519 17.3025 38.44 17.3021 38.6674 17.2631C38.9018 17.223 39.1756 17.1426 39.4099 17.0941C39.6422 17.0461 39.9417 16.9552 40.1178 16.9113C40.4289 16.8337 40.5685 16.8231 40.8013 16.8272C41.2091 16.8344 41.3426 17.0749 41.3302 17.3374C41.3174 17.607 41.0717 17.7291 40.8614 17.8048C40.4915 17.9378 39.9836 17.862 39.6644 17.853C39.6644 17.853 39.7714 17.9525 39.82 17.998C39.8768 18.0513 39.9053 18.1628 39.9755 18.19C40.0719 18.2273 40.2193 18.1533 40.3211 18.1468C40.4636 18.1376 40.7057 18.1564 40.7057 18.1564C40.7427 18.1145 40.7667 18.0854 40.8053 18.0728C40.8329 18.0638 40.8763 18.0633 40.8985 18.0727C40.9424 18.0913 40.9719 18.1486 40.9535 18.2553C40.9535 18.2553 40.9839 18.3026 41.0303 18.3135C41.0794 18.3251 41.1367 18.3149 41.1647 18.3247C41.2109 18.3409 41.2857 18.3919 41.2857 18.3919C41.2857 18.3919 41.2064 18.4198 41.1734 18.4421C41.1509 18.4574 41.1208 18.5079 41.1208 18.5079C41.1208 18.5079 41.2293 18.51 41.2747 18.5323C41.3233 18.5563 41.3681 18.6239 41.3681 18.6239C41.3681 18.6239 41.3028 18.6188 41.2716 18.6406C41.2478 18.6573 41.2087 18.7033 41.2087 18.7033C41.2087 18.7033 41.3358 18.6919 41.3791 18.7339C41.4175 18.771 41.4616 18.8377 41.4616 18.8377C41.4616 18.8377 41.393 18.8361 41.3606 18.8464C41.3394 18.8532 41.3022 18.8804 41.3022 18.8804C41.3022 18.8804 41.39 18.9313 41.4286 18.9903C41.4594 19.0375 41.4671 19.143 41.4671 19.143C41.4671 19.143 41.4153 19.0999 41.3836 19.0841C41.3637 19.0742 41.3187 19.0758 41.3187 19.0758L41.3392 19.2924C41.3443 19.3457 41.4115 19.4033 41.4235 19.4446C41.4386 19.4965 41.4348 19.516 41.4077 19.5616C41.373 19.6199 41.3012 19.6318 41.2392 19.6201C41.2049 19.6136 41.1568 19.5656 41.1568 19.5656C41.1568 19.5656 41.1218 19.6375 41.0982 19.6595C41.0586 19.6964 41.0396 19.7066 40.988 19.7044C40.9484 19.7027 40.9152 19.6796 40.8878 19.6478C40.8563 19.6113 40.8345 19.5017 40.8345 19.5017L40.7128 19.5285C40.6864 19.5343 40.6063 19.4895 40.5974 19.4613C40.5787 19.4021 40.5768 19.3423 40.6132 19.2943C40.6477 19.2487 40.743 19.2464 40.7916 19.2213C40.8539 19.1891 40.9137 19.0961 40.9137 19.0961C40.9137 19.0961 40.7105 18.9223 40.6225 18.8143C40.5742 18.7549 40.491 18.616 40.491 18.616C40.491 18.616 40.2318 18.7028 40.1341 18.7204C39.893 18.7638 39.6363 18.7204 39.6363 18.7204C39.2678 18.7204 39.0226 18.0917 38.6876 17.9482C38.5853 17.9044 38.5372 17.9113 38.4302 17.9378C38.042 18.034 37.6275 18.5805 37.2429 18.6933C37.085 18.7395 36.7544 18.7559 36.7544 18.7559C36.7544 18.7559 36.7003 18.8854 36.6491 18.9223C36.5935 18.9625 36.4537 18.9652 36.4537 18.9652C36.4537 18.9652 36.418 19.12 36.377 19.1788C36.3342 19.2403 36.2167 19.2999 36.2167 19.2999C36.2341 19.2292 36.2444 19.1752 36.2199 19.0859C36.2199 19.0859 36.1614 19.2095 36.1046 19.268C36.0551 19.3189 35.9344 19.3818 35.9344 19.3818C35.9441 19.316 35.9718 19.2534 35.9344 19.1788C35.9344 19.1788 35.8847 19.3037 35.8415 19.3498C35.7984 19.3958 35.6843 19.4459 35.6843 19.4459C35.7064 19.3747 35.7205 19.3035 35.6843 19.2322C35.6843 19.2322 35.6371 19.3602 35.5947 19.4032C35.5363 19.4625 35.3957 19.5275 35.3957 19.5275C35.4194 19.454 35.4422 19.3805 35.4247 19.307L35.329 19.3068C35.2136 19.3066 35.2062 19.4243 35.1525 19.4779C35.0997 19.5306 35.014 19.5317 34.9729 19.5153C34.9004 19.4864 34.8359 19.3847 34.9239 19.2352C34.7717 19.2548 34.6924 19.1397 34.6928 19.0374C34.6932 18.939 34.7228 18.8521 34.8763 18.8626C34.8763 18.8626 34.8565 18.7775 34.8642 18.7326C34.875 18.6702 34.9192 18.6161 34.979 18.6221C35.0036 18.6246 35.0493 18.644 35.0702 18.6712C35.1032 18.7142 35.1123 18.7767 35.1673 18.8233C35.2295 18.8761 35.3774 18.8718 35.3774 18.8718C35.3774 18.8718 35.6649 18.684 35.8546 18.6082C35.9555 18.5679 36.2421 18.507 36.2421 18.507L36.251 17.6572C36.4232 17.67 36.3492 17.6718 36.4948 17.6665C36.704 17.659 37.2536 17.7614 37.2536 17.7614L37.6449 17.729C37.6449 17.729 38.2976 17.6102 38.6081 17.573C38.7645 17.5543 38.9225 17.5408 39.0796 17.5507C39.3162 17.5656 39.5194 17.6365 39.7418 17.651C39.9288 17.6633 40.0565 17.6863 40.2435 17.6733C40.5104 17.6548 40.9876 17.6765 41.1392 17.3852C41.1785 17.3096 41.1583 17.206 41.0996 17.1478C41.0221 17.071 40.967 17.042 40.8637 17.0684C40.8092 17.0824 40.7399 17.1286 40.7331 17.1855C40.7294 17.2163 40.734 17.2435 40.7573 17.2799C40.7974 17.3425 40.8426 17.3727 40.8426 17.3727C40.8426 17.3727 40.7081 17.3801 40.6554 17.3332C40.5999 17.2839 40.5688 17.1386 40.5688 17.1386C40.5427 17.1786 40.5235 17.2224 40.5279 17.2793C40.5317 17.3284 40.5277 17.3591 40.5772 17.4335C40.5772 17.4335 40.4547 17.424 40.396 17.3493C40.3566 17.299 40.3244 17.148 40.3244 17.148C40.2896 17.1861 40.2684 17.2478 40.267 17.2933C40.2648 17.359 40.2905 17.3879 40.3033 17.4569C40.3033 17.4569 40.1826 17.4175 40.1348 17.3446C40.0977 17.288 40.078 17.1394 40.078 17.1394C39.9391 17.1779 39.6739 17.2323 39.3852 17.3011C39.1818 17.3497 38.8711 17.4242 38.6515 17.4549C38.2745 17.5075 38 17.4803 37.7682 17.371C37.6476 17.3141 37.5932 17.2594 37.5621 17.1303C37.5445 17.057 37.5705 16.9532 37.6304 16.8723C37.7138 16.7596 37.8588 16.6752 38.0207 16.6307C38.0207 16.6307 38.4497 16.5027 38.6995 16.4769C39.1 16.4356 39.2629 16.4978 39.4302 16.5212C39.539 16.5364 39.6561 16.5114 39.6903 16.466C39.7191 16.4278 39.7668 16.3866 39.7026 16.2944C39.7026 16.2944 39.784 16.2962 39.838 16.4073C39.8601 16.4526 39.8329 16.5575 39.8329 16.5575H39.8329L39.8328 16.5575Z" stroke="#806600" stroke-width="0.0357333"/>
<path d="M36.9326 17.7679C37.0256 17.8258 37.1277 17.7499 37.1488 17.7422C37.1488 17.7422 37.1042 17.7111 37.0741 17.6365C37.0539 17.5863 37.0468 17.4976 37.045 17.456C37.038 17.3016 37.0996 17.2776 37.1016 17.2893C37.1016 17.2893 37.204 17.2542 37.2464 17.2215C37.2866 17.1906 37.3052 17.1369 37.3163 17.0874C37.3329 17.0131 37.3037 16.9041 37.3037 16.9041C37.155 16.8955 37.1172 16.9152 37.0824 16.9607C37.0824 16.9607 37.0793 16.8848 37.0586 16.8155C37.0483 16.781 37.0246 16.7296 37.0002 16.6963C36.9751 16.6621 36.9496 16.6465 36.9496 16.6465C36.9487 16.6859 36.9133 16.7219 36.8952 16.7494C36.8952 16.7494 36.8801 16.5985 36.8422 16.5444C36.8131 16.5026 36.7325 16.447 36.7331 16.4472C36.7337 16.4474 36.6416 16.4525 36.5945 16.4719C36.5335 16.4971 36.4395 16.6161 36.4395 16.6161C36.439 16.5832 36.4286 16.5338 36.449 16.5001C36.449 16.5001 36.4191 16.4995 36.3796 16.5149C36.3411 16.5298 36.2934 16.5603 36.2661 16.5838C36.2114 16.6311 36.1679 16.6933 36.1679 16.6933C36.1655 16.6337 36.1452 16.5994 36.012 16.5264C36.012 16.5264 35.9286 16.6025 35.9026 16.674C35.8853 16.7217 35.872 16.777 35.8892 16.8247C35.9073 16.8751 35.9747 16.9598 35.9747 16.9598C35.9826 16.951 36.0216 17.0044 35.9326 17.1308C35.9086 17.1648 35.8549 17.2357 35.8108 17.2671C35.7452 17.3138 35.691 17.316 35.691 17.316C35.7241 17.4022 35.7331 17.4374 35.8592 17.4541C35.5718 17.6604 35.5392 17.9895 35.7599 18.2699C35.7743 18.2362 35.8235 18.1597 35.8526 18.1304C35.8495 18.1279 35.8564 18.2924 35.9384 18.3761C35.965 18.4033 35.978 18.5545 36.0164 18.6021C36.0515 18.6454 36.1008 18.6926 36.1008 18.6926C36.1008 18.6926 36.1391 18.5727 36.1952 18.554C36.2517 18.5352 36.3572 18.505 36.392 18.4941C36.4621 18.472 36.5868 18.3227 36.5868 18.3227L36.5649 18.5052C36.9431 18.3712 37.0294 18.1144 36.9326 17.7679L36.9326 17.7679Z" fill="#FEE46E"/>
<path d="M36.1994 17.3021C36.2159 17.4103 36.1641 17.6244 36.1232 17.6828L36.3691 17.7814L36.6117 17.8094C36.5919 17.71 36.6891 17.5159 36.7375 17.4499L36.5592 17.4537L36.4796 17.3742L36.334 17.4065L36.1994 17.3021L36.1994 17.3021Z" fill="#504416"/>
<path d="M36.2479 17.3635C36.2157 17.4798 36.2342 17.5013 36.2402 17.5473L36.3111 17.3954L36.2479 17.3635V17.3635ZM36.5921 17.4755L36.5721 17.642C36.6014 17.6061 36.6285 17.5976 36.6626 17.4819L36.5921 17.4755V17.4755ZM36.2406 17.5927C36.2112 17.6286 36.1842 17.6371 36.1501 17.7528L36.2206 17.7592L36.2406 17.5927L36.2406 17.5927ZM36.5498 17.681L36.4789 17.8329L36.5422 17.8647C36.5743 17.7484 36.5558 17.727 36.5498 17.681V17.681Z" fill="white"/>
<path d="M36.4335 16.7022C36.3847 16.702 36.3373 16.7044 36.3022 16.71C36.2134 16.7241 36.2096 16.7611 36.2096 16.7611C36.3717 16.7652 36.4873 16.8264 36.5848 16.91L36.4919 17.0457C36.4919 17.0457 36.5205 17.0942 36.545 17.1024C36.5695 17.1107 36.6214 17.0896 36.6214 17.0896L36.6072 16.9109C36.7472 16.91 36.8799 16.9342 37.0029 16.9928C37.0029 16.9928 37.0122 16.9538 36.9487 16.8967C36.8732 16.8287 36.7175 16.7393 36.6406 16.7196C36.6004 16.7094 36.5149 16.7024 36.4335 16.7022L36.4335 16.7022ZM36.3762 17.1815C36.3592 17.1813 36.3426 17.1865 36.3291 17.1965C36.3155 17.2064 36.3057 17.2205 36.3011 17.2366C36.2984 17.2462 36.2976 17.2563 36.2988 17.2663C36.3 17.2763 36.3032 17.286 36.3082 17.2948C36.3132 17.3036 36.32 17.3114 36.328 17.3176C36.336 17.3239 36.3452 17.3286 36.3551 17.3314C36.3649 17.3342 36.3752 17.3351 36.3854 17.334C36.3955 17.3329 36.4053 17.3299 36.4142 17.325C36.4232 17.3202 36.431 17.3137 36.4373 17.3058C36.4436 17.298 36.4483 17.289 36.451 17.2793C36.4566 17.2599 36.454 17.2389 36.4439 17.2212C36.4338 17.2034 36.4169 17.1902 36.397 17.1845C36.3903 17.1826 36.3833 17.1816 36.3762 17.1815ZM36.6097 17.2481C36.5927 17.2479 36.5761 17.2532 36.5626 17.2631C36.549 17.2731 36.5392 17.2872 36.5346 17.3032C36.5319 17.3129 36.5311 17.323 36.5323 17.333C36.5335 17.3429 36.5367 17.3526 36.5417 17.3614C36.5467 17.3702 36.5535 17.378 36.5615 17.3843C36.5695 17.3906 36.5787 17.3953 36.5886 17.3981C36.5984 17.4009 36.6087 17.4018 36.6189 17.4007C36.629 17.3996 36.6388 17.3965 36.6477 17.3917C36.6566 17.3868 36.6645 17.3803 36.6708 17.3725C36.6771 17.3646 36.6818 17.3556 36.6845 17.346C36.6901 17.3265 36.6875 17.3056 36.6774 17.2878C36.6672 17.27 36.6504 17.2569 36.6305 17.2512C36.6238 17.2492 36.6167 17.2482 36.6097 17.2481V17.2481ZM36.1335 17.4867C35.967 17.4868 35.7833 17.6993 35.7852 17.9486C35.9036 17.7855 36.1529 17.5967 36.1495 17.4874C36.1442 17.4869 36.1389 17.4867 36.1335 17.4867L36.1335 17.4867ZM36.7028 17.707C36.6817 17.8093 36.7675 18.0248 36.7429 18.2146C36.8524 17.9716 36.8163 17.7492 36.7028 17.707ZM36.0611 17.8823C36.0611 17.8823 36.0175 17.9708 36.0153 18.0425C36.0139 18.0905 36.0153 18.1408 36.0329 18.1855C36.0511 18.2317 36.1664 18.319 36.1664 18.319L36.1353 18.4271C36.1353 18.4271 36.2592 18.3736 36.2848 18.3318C36.3043 18.2998 36.3634 18.1682 36.3634 18.1682L36.2336 18.2692C36.2336 18.2692 36.1027 18.1657 36.0813 18.109C36.0483 18.0219 36.0611 17.8823 36.0611 17.8823H36.0611H36.0611Z" fill="#FFEFA7"/>
<path d="M36.2717 16.8761C36.2256 16.8735 36.1932 16.8902 36.1827 16.9268C36.1688 16.9756 36.203 17.0281 36.2753 17.0487C36.3475 17.0694 36.4179 17.0325 36.4318 16.9837C36.4457 16.935 36.3942 16.9058 36.322 16.8852C36.3039 16.88 36.287 16.877 36.2717 16.8761H36.2717ZM36.778 17.0227C36.7418 17.0212 36.7155 17.0317 36.7068 17.0622C36.6928 17.111 36.7331 17.1794 36.8054 17.2C36.8777 17.2206 36.9345 17.1941 36.9484 17.1453C36.9623 17.0965 36.9243 17.0571 36.8521 17.0365C36.825 17.0287 36.7997 17.0235 36.778 17.0227L36.778 17.0227Z" fill="white"/>
<path d="M36.2722 16.864C36.2555 16.8632 36.24 16.8646 36.2264 16.8686C36.1991 16.8764 36.1793 16.8956 36.1713 16.9237C36.1633 16.9517 36.1695 16.9809 36.1873 17.0053C36.205 17.0298 36.2339 17.0502 36.2721 17.0611C36.3501 17.0833 36.4264 17.0446 36.4428 16.987C36.451 16.9582 36.4387 16.9327 36.4162 16.9149C36.3937 16.8971 36.3626 16.8838 36.3257 16.8733C36.307 16.868 36.2889 16.8648 36.2722 16.864H36.2722ZM36.2714 16.888C36.2857 16.8888 36.3017 16.8917 36.3191 16.8966C36.3545 16.9067 36.3834 16.9201 36.4012 16.9342C36.4191 16.9483 36.4252 16.9604 36.4195 16.9803C36.4081 17.0203 36.3454 17.0568 36.2788 17.0378C36.2448 17.0281 36.2208 17.0112 36.2069 16.9921C36.1929 16.9729 36.1886 16.9511 36.1946 16.9303C36.2005 16.9095 36.2132 16.8972 36.234 16.8912C36.2445 16.8882 36.2571 16.8871 36.2714 16.888H36.2714ZM36.7786 17.011C36.7708 17.0108 36.7634 17.0111 36.7563 17.012C36.7278 17.0152 36.7038 17.0303 36.6956 17.0591C36.6792 17.1167 36.7235 17.1899 36.8015 17.2121C36.8397 17.2231 36.875 17.221 36.9029 17.2096C36.9309 17.1982 36.9517 17.1767 36.9597 17.1487C36.9677 17.1207 36.961 17.0938 36.9419 17.0728C36.9229 17.0518 36.8926 17.0351 36.8551 17.0244C36.8274 17.0165 36.8017 17.0116 36.7786 17.011L36.7786 17.011ZM36.7773 17.0355C36.7974 17.036 36.8218 17.0401 36.8484 17.0477C36.8831 17.0576 36.9089 17.0719 36.9235 17.088C36.938 17.104 36.9423 17.1213 36.9364 17.1421C36.9304 17.1628 36.9153 17.179 36.8934 17.188C36.8714 17.1969 36.8421 17.1986 36.8081 17.1888C36.7415 17.1698 36.7075 17.1058 36.7189 17.0658C36.7246 17.0458 36.7362 17.0389 36.7588 17.0363C36.7644 17.0356 36.7706 17.0354 36.7773 17.0355V17.0355Z" fill="#D1B948"/>
<path d="M36.2747 16.7678C36.2416 16.7633 36.2019 16.7689 36.178 16.7921C36.1636 16.806 36.1614 16.8503 36.1614 16.8503L36.2131 16.8509L36.2714 16.8676L36.397 16.9239L36.5346 16.9159C36.5346 16.9159 36.4594 16.8852 36.4226 16.8643C36.3729 16.8362 36.3312 16.7754 36.2747 16.7678L36.2747 16.7678ZM36.934 16.9559C36.8865 16.9438 36.832 16.969 36.7821 16.9669C36.7399 16.9652 36.6568 16.9508 36.6568 16.9508L36.7695 17.0302L36.9059 17.0487L36.9627 17.0649L37.007 17.0917C37.007 17.0917 37.0285 17.0528 37.0236 17.0335C37.0155 17.0011 36.9847 16.9754 36.9544 16.9618C36.9478 16.9588 36.9408 16.9577 36.934 16.9559V16.9559Z" fill="#E4C900"/>
<path d="M36.1352 17.6869C36.0032 18.0062 36.5139 18.1677 36.5886 17.8163C36.4515 17.8067 36.308 17.7817 36.1352 17.6869Z" fill="#E4C900"/>
<path d="M36.123 17.6544L36.1126 17.6797C36.0773 17.7653 36.0852 17.8443 36.1192 17.9051C36.1531 17.9659 36.2122 18.0077 36.2778 18.0275C36.3435 18.0473 36.4161 18.0451 36.4789 18.0125C36.5416 17.9799 36.5919 17.9159 36.6119 17.8222L36.6179 17.7956L36.59 17.7939C36.4547 17.7845 36.3155 17.7602 36.1461 17.6672L36.123 17.6544H36.123H36.123ZM36.139 17.6934C36.2883 17.7698 36.4674 17.8074 36.5886 17.8182C36.5685 17.8832 36.5279 17.9609 36.4841 17.9837C36.4341 18.0096 36.3373 18.0165 36.2825 17.9999C36.2276 17.9834 36.1566 17.9152 36.1296 17.8669C36.1058 17.8243 36.1195 17.7561 36.139 17.6934L36.139 17.6934L36.139 17.6934Z" fill="#806600"/>
<path d="M36.3453 17.4073C36.2817 17.6174 36.2263 17.8548 36.2694 18.0735C36.4214 17.9105 36.4992 17.6816 36.556 17.4696C36.5563 17.4611 36.5143 17.4421 36.5089 17.4354C36.4957 17.4187 36.4734 17.3795 36.4734 17.3795C36.4734 17.3795 36.4309 17.4063 36.4069 17.412C36.3864 17.4168 36.3453 17.4073 36.3453 17.4073L36.3453 17.4073Z" fill="#377BC8" stroke="#2C5AA0" stroke-width="0.0357333"/>
<path d="M36.7285 16.4459C36.7291 16.4461 36.637 16.4512 36.5899 16.4706C36.5289 16.4958 36.4349 16.6149 36.4349 16.6149C36.4345 16.5819 36.424 16.5325 36.4444 16.4988C36.4444 16.4988 36.4145 16.4983 36.375 16.5136C36.3365 16.5285 36.2888 16.559 36.2615 16.5825C36.2068 16.6298 36.1634 16.692 36.1634 16.692C36.2116 16.6903 36.3188 16.5936 36.3603 16.603C36.3955 16.611 36.3711 16.7051 36.4051 16.7094C36.4514 16.7153 36.4926 16.6428 36.5502 16.592C36.6013 16.547 36.6723 16.5128 36.7063 16.5239C36.7404 16.5351 36.7829 16.6018 36.8009 16.6671C36.8223 16.7442 36.838 16.8272 36.8734 16.8446C36.9086 16.8618 36.9391 16.7662 36.9749 16.7782C37.0174 16.7925 37.0372 16.938 37.0778 16.9594C37.0778 16.9594 37.0747 16.8835 37.054 16.8142C37.0437 16.7797 37.02 16.7283 36.9956 16.695C36.9705 16.6608 36.945 16.6452 36.945 16.6452C36.9441 16.6846 36.9087 16.7206 36.8906 16.7481C36.8906 16.7481 36.8755 16.5972 36.8377 16.5431C36.8085 16.5013 36.7279 16.4458 36.7285 16.4459H36.7285ZM36.1154 16.9843C36.063 17.0732 36.1288 17.1586 36.2349 17.1776L36.1938 17.2821L36.254 17.4L36.3637 17.4382L36.4675 17.3972L36.5365 17.4908L36.6328 17.5125L36.7567 17.438L36.8063 17.354L36.8837 17.3493L36.9499 17.3176L36.9734 17.2351C36.9118 17.2792 36.8511 17.3223 36.7265 17.2705C36.7229 17.3365 36.7068 17.3775 36.6839 17.4009C36.6567 17.4288 36.6198 17.4317 36.5833 17.4221C36.5377 17.4101 36.4987 17.3586 36.4807 17.3313C36.4356 17.3583 36.3971 17.3788 36.3692 17.3697C36.311 17.3507 36.2783 17.3161 36.2688 17.2761C36.2587 17.2337 36.2746 17.1854 36.3134 17.1433C36.0826 17.0824 36.1654 17.021 36.1154 16.9843H36.1154ZM35.9962 17.0142C35.9723 17.0482 35.8549 17.2358 35.8108 17.2671C35.7452 17.3138 35.6909 17.316 35.6909 17.316C35.7241 17.4021 35.7331 17.4374 35.8592 17.4541C35.5717 17.6604 35.5391 17.9895 35.7598 18.2699C35.7742 18.2362 35.8235 18.1597 35.8526 18.1304C35.8495 18.128 35.8563 18.2924 35.9384 18.3762C35.965 18.4033 35.978 18.5545 36.0164 18.602C36.0515 18.6454 36.1008 18.6926 36.1008 18.6926C36.1008 18.6926 36.1391 18.5727 36.1952 18.554C36.2517 18.5352 36.3571 18.5051 36.392 18.4941C36.462 18.472 36.5868 18.3227 36.5868 18.3227L36.5649 18.5052C36.9431 18.3712 37.0294 18.1144 36.9325 17.7679C37.0255 17.8258 37.1277 17.75 37.1487 17.7422C37.1487 17.7422 37.1042 17.7111 37.074 17.6365C37.0538 17.5863 37.0482 17.4975 37.0449 17.456L37.0359 17.3423C37.0359 17.3423 36.9932 17.47 36.983 17.5055C36.9729 17.5411 36.9866 17.6674 36.9866 17.6674C36.9252 17.6458 36.8634 17.6256 36.8092 17.5786C36.8092 17.5786 36.8742 17.835 36.8812 17.9571C36.885 18.0231 36.8625 18.1403 36.8371 18.2013C36.8101 18.266 36.6788 18.3652 36.6788 18.3652C36.6788 18.3652 36.7103 18.2011 36.7097 18.1448C36.7088 18.0648 36.6771 17.8618 36.6771 17.8618C36.6771 17.8618 36.6317 18.0699 36.5956 18.1319C36.5546 18.2025 36.4793 18.327 36.4793 18.327C36.5004 18.1279 36.4899 18.1165 36.4642 18.0412C36.4642 18.0412 36.4171 18.2888 36.3296 18.3952C36.3078 18.4218 36.2249 18.4431 36.1776 18.4677C36.125 18.4951 36.1088 18.5246 36.1088 18.5246C36.1088 18.5246 36.0592 18.3861 36.0455 18.3541C36.0149 18.2832 35.9543 18.2087 35.9337 18.1344C35.9033 18.0251 36.0498 17.7902 36.0498 17.7902C35.9955 17.7911 35.9413 17.8549 35.8828 17.9251C35.835 17.9824 35.7804 18.043 35.7541 18.0867C35.7541 18.0867 35.7073 17.9159 35.708 17.8653C35.7091 17.7935 35.7361 17.7216 35.773 17.66C35.8329 17.5601 36.0962 17.3549 36.0962 17.3549C36.0237 17.3744 35.9581 17.4002 35.8207 17.3602C35.8207 17.3602 35.9294 17.2327 35.9472 17.2027C36.0018 17.1108 35.9813 17.076 35.9962 17.0142L35.9962 17.0142ZM36.4868 17.1191C36.4323 17.1181 36.3638 17.1254 36.3638 17.1254L36.3711 17.1725L36.4206 17.1916L36.4875 17.2912L36.658 17.2455L36.6807 17.2065C36.6807 17.2065 36.5845 17.1351 36.5336 17.1234C36.5216 17.1207 36.505 17.1195 36.4868 17.1191L36.4868 17.1191Z" fill="#E4C900"/>
<path d="M36.9326 17.7679C37.0256 17.8258 37.1277 17.7499 37.1488 17.7422C37.1488 17.7422 37.1042 17.7111 37.0741 17.6365C37.0538 17.5863 37.0468 17.4976 37.045 17.456C37.038 17.3016 37.0996 17.2776 37.1016 17.2893C37.1016 17.2893 37.204 17.2542 37.2464 17.2215C37.2866 17.1906 37.3052 17.1369 37.3163 17.0874C37.3329 17.0131 37.3037 16.9041 37.3037 16.9041C37.155 16.8955 37.1172 16.9152 37.0824 16.9607C37.0824 16.9607 37.0793 16.8848 37.0586 16.8155C37.0483 16.781 37.0245 16.7296 37.0002 16.6963C36.9751 16.6621 36.9496 16.6465 36.9496 16.6465C36.9487 16.6859 36.9133 16.7219 36.8952 16.7494C36.8784 16.6101 36.8473 16.5306 36.7331 16.4472C36.6004 16.4503 36.5237 16.5148 36.4395 16.6161C36.439 16.5832 36.4286 16.5338 36.449 16.5001C36.449 16.5001 36.4191 16.4995 36.3796 16.5149C36.3411 16.5298 36.2934 16.5603 36.2661 16.5838C36.2114 16.6311 36.1679 16.6933 36.1679 16.6933C36.1655 16.6337 36.1452 16.5993 36.012 16.5264C36.012 16.5264 35.9286 16.6025 35.9026 16.674C35.8853 16.7217 35.872 16.777 35.8892 16.8247C35.9073 16.8751 35.9747 16.9598 35.9747 16.9598C35.9826 16.951 36.0216 17.0044 35.9326 17.1308C35.9086 17.1648 35.8549 17.2357 35.8108 17.2671C35.7452 17.3138 35.691 17.316 35.691 17.316C35.7241 17.4022 35.7331 17.4374 35.8592 17.4541C35.5718 17.6604 35.5392 17.9895 35.7599 18.2699C35.7743 18.2362 35.8235 18.1597 35.8526 18.1304C35.8495 18.1279 35.8564 18.2924 35.9384 18.3761C35.965 18.4033 35.978 18.5545 36.0164 18.6021C36.0515 18.6454 36.1008 18.6926 36.1008 18.6926C36.1008 18.6926 36.1391 18.5727 36.1952 18.554C36.2517 18.5352 36.3572 18.505 36.392 18.4941C36.4621 18.472 36.5868 18.3227 36.5868 18.3227L36.5649 18.5052C36.9431 18.3712 37.0294 18.1144 36.9326 17.7679L36.9326 17.7679Z" stroke="#806600" stroke-width="0.0357333"/>
<path d="M36.012 16.6296C36.012 16.6296 35.9513 16.7232 35.9603 16.7842C35.9675 16.8327 36.0509 16.9418 36.0509 16.9418C36.0509 16.9418 36.1021 16.7833 36.0941 16.7245C36.0881 16.6813 36.012 16.6296 36.012 16.6296L36.012 16.6296ZM36.217 16.8318C36.2062 16.8322 36.1952 16.8349 36.1839 16.8404C36.1612 16.8515 36.1458 16.8549 36.1362 16.8885C36.164 16.884 36.182 16.8739 36.2048 16.8637C36.2103 16.861 36.2186 16.861 36.2332 16.8666C36.2623 16.8779 36.3027 16.9103 36.3474 16.9232C36.4113 16.9416 36.494 16.9198 36.5265 16.9163C36.523 16.9297 36.5168 16.9692 36.5026 16.9898C36.4954 17.0003 36.4422 17.0207 36.4177 17.0439C36.4055 17.0555 36.3935 17.0674 36.3834 17.0784C36.3732 17.0895 36.3647 17.0983 36.3596 17.1123C36.3494 17.1405 36.355 17.1704 36.355 17.1704L36.3562 17.1864L36.3715 17.1913C36.4278 17.2097 36.4376 17.2303 36.4516 17.2741L36.4538 17.281L36.4589 17.285C36.4649 17.2903 36.4693 17.2945 36.4745 17.2978C36.4798 17.3012 36.4868 17.304 36.4929 17.3047C36.5053 17.3061 36.5076 17.3036 36.5191 17.3043L36.5288 17.305L36.5364 17.2983C36.5715 17.2685 36.5911 17.2563 36.6487 17.2704L36.6638 17.2742L36.6737 17.2614C36.6737 17.2614 36.6938 17.2388 36.7 17.2094C36.703 17.1949 36.696 17.1873 36.6932 17.1726C36.6905 17.1579 36.6865 17.1415 36.6823 17.1252C36.6737 17.0925 36.6466 17.0329 36.646 17.0202C36.6449 16.9952 36.658 16.9618 36.6621 16.9486C36.6881 16.9688 36.7465 17.0373 36.8102 17.0553C36.855 17.0679 36.9064 17.0617 36.9371 17.0675C36.9524 17.0704 36.9595 17.0749 36.9627 17.08L37.0079 17.1373C37.0174 17.1037 37.0061 17.0823 36.9927 17.061C36.9793 17.0396 36.9675 17.042 36.946 17.0379C36.9028 17.0297 36.8531 17.0348 36.8236 17.0265C36.7509 17.006 36.6812 16.9283 36.6812 16.9283L36.6607 16.9104L36.6454 16.9331C36.6454 16.9331 36.6174 16.9753 36.6205 17.0423C36.6216 17.0682 36.6473 17.1188 36.6557 17.1508C36.6599 17.1669 36.6637 17.1825 36.666 17.195C36.6684 17.2074 36.6679 17.2177 36.668 17.2174C36.6668 17.2231 36.6615 17.231 36.6567 17.2387C36.6023 17.2308 36.5421 17.2565 36.5085 17.2831C36.5026 17.2832 36.4945 17.2828 36.495 17.2829C36.4943 17.2824 36.4921 17.2804 36.4904 17.279C36.476 17.238 36.43 17.1752 36.3791 17.153C36.3791 17.1439 36.3787 17.1344 36.3807 17.129C36.3806 17.1293 36.3861 17.1204 36.3947 17.1111C36.4033 17.1017 36.4147 17.0905 36.4268 17.079C36.4508 17.0562 36.5012 17.0338 36.5158 17.0124C36.5538 16.9572 36.5523 16.9066 36.5523 16.9066L36.5508 16.879L36.524 16.8834C36.524 16.8834 36.431 16.9131 36.3585 16.8921C36.329 16.8836 36.2894 16.8531 36.2485 16.8373C36.2382 16.8333 36.2277 16.8314 36.217 16.8318L36.217 16.8318ZM36.1187 16.9617C36.079 17.0152 36.0727 17.0725 36.0958 17.1168C36.115 17.1537 36.1537 17.1771 36.1989 17.1921C36.1962 17.1993 36.1956 17.2005 36.1924 17.2111C36.1855 17.2341 36.1784 17.2611 36.1811 17.2871C36.1868 17.3405 36.2165 17.3834 36.2549 17.4161C36.2883 17.4447 36.3334 17.4567 36.3753 17.4546C36.401 17.4533 36.4239 17.4435 36.4421 17.434C36.4486 17.4307 36.4493 17.4298 36.4546 17.4267C36.4648 17.4475 36.4801 17.4729 36.5088 17.4927C36.5432 17.5166 36.5874 17.53 36.6309 17.5234C36.6807 17.5159 36.7286 17.4951 36.7616 17.4528C36.7777 17.4321 36.7858 17.4055 36.7922 17.3823C36.7944 17.374 36.794 17.3736 36.7955 17.367C36.844 17.3815 36.8899 17.3772 36.9245 17.3533C36.9657 17.3248 36.988 17.2728 36.9865 17.2109C36.951 17.2289 36.9827 17.2818 36.9048 17.33C36.8795 17.3475 36.8428 17.3514 36.7954 17.3301L36.7592 17.3004L36.7615 17.3518C36.7615 17.3518 36.7584 17.3692 36.7527 17.3899C36.7471 17.4107 36.7374 17.4349 36.7307 17.4436C36.7067 17.4743 36.6655 17.4897 36.6238 17.496C36.5958 17.5003 36.5614 17.4905 36.5364 17.4732C36.5125 17.4566 36.4907 17.4109 36.4896 17.4064L36.4778 17.3567L36.4527 17.3845C36.4465 17.3913 36.4293 17.3985 36.4143 17.4062C36.3994 17.4139 36.3818 17.4202 36.3674 17.4209C36.337 17.4225 36.3022 17.4125 36.2807 17.3941C36.2486 17.3667 36.2186 17.3209 36.2145 17.2822C36.2134 17.2713 36.2179 17.2456 36.2241 17.2249C36.2302 17.2043 36.2424 17.1878 36.2424 17.1878L36.2629 17.1613L36.2215 17.1639C36.1737 17.1537 36.14 17.13 36.1258 17.1027C36.0743 17.0458 36.1208 17.0045 36.1187 16.9617L36.1187 16.9617ZM37.241 16.9804C37.241 16.9804 37.149 16.9841 37.1212 17.0177C37.0833 17.0634 37.0432 17.225 37.0432 17.225C37.0432 17.225 37.1716 17.1763 37.2033 17.139C37.2431 17.0919 37.241 16.9804 37.241 16.9804Z" fill="#806600"/>
<path d="M36.3117 16.9089C36.3006 16.9089 36.2897 16.9124 36.2808 16.9191C36.2718 16.9258 36.2653 16.9352 36.2623 16.946C36.2604 16.9524 36.2599 16.9592 36.2607 16.9658C36.2614 16.9725 36.2635 16.9789 36.2668 16.9848C36.27 16.9906 36.2744 16.9958 36.2796 16.9999C36.2849 17.0041 36.2909 17.0072 36.2974 17.009C36.3104 17.0127 36.3243 17.0111 36.3362 17.0046C36.348 16.998 36.3567 16.987 36.3604 16.974C36.3641 16.961 36.3625 16.947 36.356 16.9352C36.3494 16.9234 36.3384 16.9146 36.3254 16.9109C36.3209 16.9096 36.3163 16.909 36.3117 16.9089L36.3117 16.9089ZM36.8207 17.0547C36.8098 17.0549 36.7993 17.0586 36.7907 17.0653C36.782 17.0719 36.7758 17.0812 36.7728 17.0917C36.7709 17.0981 36.7704 17.1049 36.7711 17.1115C36.7719 17.1182 36.774 17.1246 36.7772 17.1305C36.7805 17.1363 36.7849 17.1415 36.7901 17.1457C36.7954 17.1498 36.8014 17.1529 36.8079 17.1548C36.8143 17.1566 36.8211 17.1572 36.8277 17.1564C36.8344 17.1556 36.8408 17.1535 36.8467 17.1503C36.8525 17.147 36.8577 17.1426 36.8618 17.1374C36.866 17.1321 36.8691 17.1261 36.8709 17.1197C36.8746 17.1067 36.873 17.0927 36.8665 17.0809C36.8599 17.0691 36.8489 17.0603 36.8359 17.0566C36.8309 17.0552 36.8258 17.0546 36.8207 17.0547L36.8207 17.0547Z" fill="#2B2200"/>
<path d="M34.9224 18.6321C34.885 18.6494 34.8304 18.6081 34.7189 18.7258C34.811 18.722 34.8413 18.7395 34.9004 18.8132C34.9396 18.8075 34.9609 18.787 34.9691 18.76C34.9854 18.7056 34.9691 18.6585 34.9224 18.6321V18.6321ZM37.5435 18.7828C37.4983 18.8003 37.4321 18.7592 37.2974 18.8773C37.409 18.8731 37.4457 18.8906 37.5175 18.9641C37.5651 18.9581 37.5908 18.9376 37.6005 18.9105C37.6201 18.8561 37.6002 18.809 37.5435 18.7828ZM34.7292 18.9576C34.7006 18.9915 34.637 18.9796 34.5729 19.1411C34.6563 19.0935 34.6899 19.0951 34.7683 19.1346C34.8025 19.1104 34.8153 19.0815 34.814 19.0528C34.8112 18.995 34.7808 18.9595 34.7292 18.9576V18.9576ZM37.5987 19.2081C37.5661 19.244 37.4885 19.2369 37.4209 19.4028C37.5188 19.3491 37.5595 19.3483 37.6566 19.3818C37.6964 19.3552 37.7103 19.3254 37.7069 19.2968C37.7 19.2393 37.6611 19.2062 37.5987 19.2081L37.5987 19.2081ZM34.9318 19.3442C34.9166 19.3434 34.9001 19.3482 34.8828 19.3588C34.8711 19.4052 34.8107 19.4319 34.8187 19.6108C34.8728 19.5205 34.9029 19.5023 34.9873 19.4913C35.0077 19.4502 35.0075 19.4173 34.9949 19.3929C34.979 19.3623 34.9572 19.3455 34.9318 19.3442L34.9318 19.3442ZM40.6329 19.3633C40.6221 19.3639 40.6107 19.3669 40.5986 19.3724C40.5828 19.417 40.5203 19.4355 40.5121 19.6144C40.5741 19.5318 40.6056 19.5177 40.6905 19.5179C40.7145 19.4797 40.7172 19.447 40.7069 19.4211C40.6913 19.382 40.6653 19.3617 40.6329 19.3633L40.6329 19.3633ZM37.9907 19.4843C37.9722 19.4854 37.9529 19.4923 37.9333 19.505C37.9241 19.5527 37.8541 19.5869 37.8826 19.7638C37.9383 19.667 37.9726 19.6452 38.073 19.6234C38.0932 19.58 38.0895 19.5472 38.0718 19.5246C38.0494 19.4961 38.0214 19.4823 37.9906 19.4843L37.9907 19.4843ZM41.3 19.4965C41.2692 19.4936 41.242 19.5131 41.2232 19.554C41.2348 19.6004 41.1969 19.6633 41.2858 19.8065C41.2892 19.6949 41.3059 19.6596 41.3708 19.5935C41.3689 19.5456 41.3535 19.5185 41.3319 19.5067C41.321 19.5008 41.3103 19.4974 41.3 19.4964V19.4965ZM40.9352 19.5484C40.9155 19.5502 40.896 19.5622 40.878 19.5846C40.8792 19.633 40.829 19.6817 40.884 19.8481C40.9114 19.7415 40.935 19.7126 41.012 19.6693C41.0204 19.6225 41.0115 19.5915 40.9931 19.5733C40.9746 19.555 40.9548 19.5466 40.9352 19.5484L40.9352 19.5484Z" fill="#377BC8" stroke="#2C5AA0" stroke-width="0.0357333"/>
<mask id="mask1_1_32508" style="mask-type:alpha" maskUnits="userSpaceOnUse" x="2" y="2" width="24" height="18">
<rect x="2" y="2" width="24" height="18" fill="#C4C4C4"/>
</mask>
<g mask="url(#mask1_1_32508)">
<path d="M2 2L26 20L2 2ZM26 2L2 20L26 2Z" fill="black"/>
<path d="M26 2L2 20M2 2L26 20L2 2Z" stroke="white" stroke-width="2.4"/>
<path d="M2 2L26 20L2 2ZM26 2L2 20L26 2Z" fill="black"/>
<path d="M26 2L2 20M2 2L26 20L2 2Z" stroke="#EE5757" stroke-width="1.6"/>
<path d="M14 2V23V2ZM2 11H30H2Z" fill="black"/>
<path d="M2 11H30M14 2V23V2Z" stroke="white" stroke-width="4"/>
<path d="M14 2V23V2ZM2 11H30H2Z" fill="black"/>
<path d="M2 11H30M14 2V23V2Z" stroke="#EE5757" stroke-width="2.4"/>
</g>
</g>
<path d="M11.7035 1.61228C6.53056 2.04084 2.23921 5.77712 1.57724 11.0101C1.25164 13.5841 1 16.6548 1 20C1 23.3452 1.25164 26.4159 1.57724 28.9899C2.23922 34.2229 6.53056 37.9592 11.7035 38.3877C15.5784 38.7087 20.5852 39 26 39C31.4148 39 36.4216 38.7087 40.2965 38.3877C45.4694 37.9592 49.7608 34.2229 50.4228 28.9899C50.7484 26.4159 51 23.3452 51 20C51 16.6548 50.7484 13.5841 50.4228 11.0101C49.7608 5.77712 45.4694 2.04084 40.2965 1.61228C36.4216 1.29127 31.4148 1 26 1C20.5852 1 15.5784 1.29127 11.7035 1.61228Z" stroke="#E6E6FA" stroke-width="2"/>
</svg>
