<svg width="52" height="40" viewBox="0 0 52 40" fill="none" xmlns="http://www.w3.org/2000/svg">
<mask id="mask0_1_40342" style="mask-type:alpha" maskUnits="userSpaceOnUse" x="2" y="2" width="48" height="36">
<path d="M2.56934 11.1356C3.16681 6.41247 7.0415 3.00193 11.7861 2.60887C15.6412 2.28949 20.6196 2 26 2C31.3804 2 36.3588 2.28949 40.2139 2.60887C44.9585 3.00193 48.8332 6.41247 49.4307 11.1356C49.752 13.6759 50 16.704 50 20C50 23.296 49.752 26.3241 49.4307 28.8644C48.8332 33.5875 44.9585 36.9981 40.2139 37.3911C36.3588 37.7105 31.3804 38 26 38C20.6196 38 15.6412 37.7105 11.7861 37.3911C7.0415 36.9981 3.16681 33.5875 2.56934 28.8644C2.248 26.3241 2 23.296 2 20C2 16.704 2.248 13.6759 2.56934 11.1356Z" fill="#00D0BF"/>
</mask>
<g mask="url(#mask0_1_40342)">
<rect x="2" y="-4" width="48" height="49" fill="white"/>
<path d="M26.6151 32.9999C26.6069 32.9965 26.5996 32.9913 26.5936 32.9848L26.5858 32.9775C26.5513 32.9453 26.5186 32.9113 26.4877 32.8756C26.4051 32.7818 26.2943 32.6444 26.1969 32.5231C26.0037 32.2823 25.8441 32.0748 25.814 32.0358L25.7648 31.9718L25.2832 31.8233L24.9315 31.6593L25.1194 31.4481L25.7648 31.7244L26.2465 31.8233L27.1372 32.4784C27.1354 32.4798 27.0069 32.5867 26.88 32.7022C26.8234 32.7536 26.752 32.82 26.7016 32.8747C26.6808 32.897 26.6615 32.9206 26.6439 32.9454C26.6333 32.963 26.6237 32.9812 26.6151 32.9999ZM23.3073 32.0066C22.8728 32.0026 22.4471 31.8835 22.0736 31.6613C22.119 31.5856 22.1794 31.5196 22.2516 31.4686C22.372 31.3802 22.5891 31.2746 22.94 31.2733H22.9472C23.3627 31.2733 23.8712 31.4145 24.4586 31.6932C24.1104 31.9001 23.7124 32.0084 23.3073 32.0066ZM21.486 31.6029C21.4117 31.6043 21.3403 31.5743 21.2894 31.5202C21.2455 31.4691 21.2152 31.4076 21.2014 31.3417C21.1815 31.256 21.1742 31.1679 21.1796 31.0802C21.2102 31.0669 21.2431 31.0594 21.2765 31.0582H21.2834C21.4391 31.0582 21.5619 31.1933 21.6144 31.3272C21.6431 31.3864 21.6492 31.454 21.6314 31.5173C21.605 31.5727 21.5472 31.6069 21.486 31.6029ZM24.6908 31.2314C23.6143 31.0777 23.1581 30.6885 22.9648 30.3891C22.8425 30.2074 22.7849 29.9899 22.8015 29.7714L22.8023 29.7706C22.8564 29.7582 22.9117 29.752 22.9671 29.7524C23.2535 29.7524 23.9857 29.897 24.6908 31.2314ZM22.4844 31.0181C22.0245 31.0181 21.6744 30.9387 21.4437 30.7824C21.3456 30.7196 21.2666 30.6311 21.2151 30.5266C21.1964 30.487 21.184 30.4447 21.1783 30.4012C21.3315 30.339 21.4946 30.3044 21.6598 30.2989C21.6836 30.2977 21.7075 30.2971 21.7326 30.297C22.0881 30.297 22.6286 30.413 23.199 30.9655C22.962 30.9982 22.7236 31.016 22.4844 31.0181ZM20.2575 30.9325C19.7726 30.9325 19.1064 30.7844 18.6909 30.369C19.0068 30.2944 19.33 30.2511 19.6543 30.2406C19.6846 30.2399 19.7151 30.2395 19.7458 30.2395C20.2005 30.2395 20.5485 30.3276 20.7803 30.5015C20.8451 30.5403 20.8932 30.6019 20.9154 30.674C20.9205 30.7273 20.8952 30.7789 20.8499 30.8074C20.7455 30.8862 20.5589 30.9282 20.2952 30.9324L20.258 30.9337L20.2575 30.9325ZM18.6861 30.1263C18.6267 30.1265 18.5702 30.0999 18.5324 30.054C18.4974 30.008 18.4739 29.9544 18.4637 29.8976C18.4479 29.8227 18.4418 29.7461 18.4457 29.6697V29.6686C18.4694 29.6577 18.4951 29.6519 18.5211 29.6516C18.582 29.6538 18.6395 29.6795 18.6817 29.7234C18.7286 29.7694 18.7644 29.8255 18.7864 29.8874C18.8083 29.9391 18.8123 29.9966 18.7975 30.0508C18.7794 30.0965 18.7353 30.1268 18.6861 30.1263ZM22.3157 30.0445C22.2415 30.0459 22.1701 30.0159 22.1192 29.9618C22.0752 29.9107 22.0449 29.8493 22.031 29.7834C22.0111 29.6977 22.0038 29.6096 22.0092 29.5218C22.0398 29.5086 22.0727 29.5011 22.1061 29.4999H22.113C22.2687 29.4999 22.3915 29.635 22.444 29.7688C22.4727 29.8281 22.4788 29.8957 22.461 29.959C22.4347 30.0144 22.3769 30.0486 22.3157 30.0445ZM20.5478 29.9713C19.5719 29.937 19.0657 29.6596 18.8124 29.4329C18.7041 29.338 18.6149 29.2233 18.5495 29.0951C18.5251 29.047 18.5062 28.9962 18.4932 28.9439L18.4945 28.9433C18.5726 28.9196 18.6538 28.9075 18.7354 28.9074H18.7582C19.0873 28.9074 19.7577 29.0458 20.5478 29.9713ZM21.6076 29.8727C20.8224 29.7532 20.3776 29.4161 20.1427 29.1543C19.9977 28.9986 19.8875 28.8139 19.8194 28.6124C19.8988 28.5943 19.9799 28.5845 20.0613 28.5833C20.0718 28.5833 20.0827 28.5829 20.0938 28.5829C20.1049 28.5829 20.1164 28.5829 20.1281 28.5833C20.523 28.592 21.2404 28.7712 21.6076 29.8727ZM17.5767 29.4957C17.3268 29.4965 17.0777 29.4667 16.8351 29.4069C16.424 29.3041 16.2476 29.1471 16.1721 29.0335C16.1395 28.9864 16.1178 28.9328 16.1082 28.8764C16.1047 28.8543 16.1041 28.832 16.1062 28.8098L16.1082 28.8091C16.3205 28.7565 16.5383 28.7288 16.7571 28.7268C16.7719 28.7268 16.7868 28.7264 16.802 28.7264C16.9803 28.7261 17.1582 28.7433 17.3331 28.7779C17.7298 28.8608 18.0833 29.0841 18.3286 29.4067C18.0826 29.4668 17.8299 29.4973 17.5767 29.4957ZM19.3993 28.8334C19.3253 28.8354 19.2539 28.8061 19.2026 28.7528C19.1585 28.701 19.1282 28.639 19.1145 28.5724C19.0946 28.4875 19.0873 28.4 19.0928 28.3129C19.1234 28.2996 19.1563 28.2922 19.1896 28.291H19.1966C19.352 28.291 19.4749 28.4261 19.5277 28.56C19.5557 28.6187 19.5611 28.6857 19.5427 28.7481C19.5175 28.8038 19.4602 28.8376 19.3993 28.8334ZM18.0288 28.6455C17.7679 28.5716 17.5183 28.4626 17.2867 28.3215C16.9429 28.1098 16.5223 27.7354 16.4711 27.1538C16.4972 27.1482 16.5245 27.145 16.5512 27.1442C16.5574 27.1442 16.5646 27.1438 16.5719 27.1438C16.6746 27.1438 16.8848 27.1727 17.1391 27.3661C17.4628 27.6129 17.7617 28.0433 18.029 28.6467L18.0288 28.6455ZM18.9237 28.6126C18.7107 28.5159 18.5129 28.3888 18.3365 28.2353C17.8804 27.8428 17.5249 27.3467 17.2999 26.7886C17.356 26.7622 17.4168 26.7472 17.4788 26.7441C17.485 26.7436 17.4912 26.7435 17.4978 26.7435C17.5071 26.7435 17.5167 26.7435 17.5265 26.7441C17.676 26.7483 17.9037 26.8104 18.1562 27.0828C18.4462 27.3958 18.705 27.9101 18.9251 28.6115L18.9258 28.6135L18.9237 28.6126ZM16.605 28.545C16.306 28.545 16.2037 28.3829 16.1736 28.3131C16.1436 28.2404 16.1318 28.1615 16.1392 28.0832V28.082C16.1879 28.0698 16.2379 28.0633 16.2881 28.0625H16.2983C16.4938 28.0577 16.6799 28.1461 16.7996 28.3007C16.8154 28.3242 16.8639 28.4057 16.8238 28.4694C16.7915 28.5197 16.7185 28.545 16.605 28.545ZM15.9427 27.7097C15.7112 27.7102 15.48 27.6904 15.2518 27.6506C14.9855 27.6022 14.8346 27.3758 14.7549 27.1944C14.7013 27.0705 14.6638 26.9401 14.6433 26.8066C15.4669 26.8308 15.8567 27.0715 16.038 27.2691C16.1503 27.3859 16.2203 27.5371 16.2368 27.6983C16.2368 27.6983 16.1194 27.7097 15.9427 27.7097ZM16.8003 26.8526C16.8003 26.8526 16.7052 26.7348 16.6123 26.5904C16.5147 26.4388 16.4245 26.2804 16.4245 26.1512C16.4245 26.0261 16.3951 25.7626 16.3775 25.6167C16.3553 25.4316 16.3329 25.2731 16.331 25.2597C16.3519 25.2673 16.847 25.4528 16.847 25.9164C16.847 26.3801 16.8008 26.848 16.8003 26.8526ZM16.1598 26.8086C16.1545 26.8086 16.1494 26.8081 16.1443 26.8073C15.9981 26.7829 15.7412 26.6713 15.4576 26.5085C15.1424 26.3278 14.8865 26.1342 14.737 25.9634C14.6006 25.8076 14.52 25.563 14.4964 25.2362C14.486 25.0883 14.4878 24.9397 14.5018 24.792C14.5281 24.7835 14.5557 24.7793 14.5833 24.7796C14.6927 24.7814 14.8095 24.8307 14.9671 24.9392C15.1108 25.0415 15.2454 25.1559 15.3696 25.2812C15.5272 25.4378 15.6762 25.6028 15.8161 25.7755L15.8181 25.778C15.8345 25.8074 15.9754 26.0614 16.0852 26.3087C16.14 26.4225 16.1821 26.542 16.2107 26.665C16.2215 26.701 16.2215 26.7394 16.2107 26.7754C16.2061 26.7871 16.1976 26.7969 16.1868 26.8032C16.1782 26.8069 16.1691 26.8087 16.1598 26.8086Z" fill="#1C6864"/>
<path d="M24.6762 32.9999C24.6844 32.9965 24.6917 32.9913 24.6977 32.9848L24.7055 32.9775C24.7399 32.9453 24.7727 32.9113 24.8036 32.8756C24.8862 32.7818 24.997 32.6444 25.0944 32.5231C25.2876 32.2823 25.4472 32.0748 25.4773 32.0358L25.5264 31.9718L26.0081 31.8233L26.3598 31.6593L26.1719 31.4481L25.5264 31.7244L25.0448 31.8233L24.1541 32.4784C24.1559 32.4798 24.2843 32.5867 24.4113 32.7022C24.4679 32.7536 24.5393 32.82 24.5897 32.8747C24.6105 32.897 24.6297 32.9206 24.6473 32.9454C24.658 32.963 24.6676 32.9812 24.6762 32.9999ZM27.9839 32.0066C28.4185 32.0026 28.8442 31.8835 29.2177 31.6613C29.1722 31.5856 29.1119 31.5196 29.0396 31.4686C28.9193 31.3802 28.7022 31.2746 28.3513 31.2733H28.344C27.9286 31.2733 27.4201 31.4145 26.8326 31.6932C27.1809 31.9001 27.5789 32.0084 27.9839 32.0066ZM29.8052 31.6029C29.8795 31.6043 29.9509 31.5743 30.0018 31.5202C30.0458 31.4691 30.0761 31.4076 30.0899 31.3417C30.1097 31.256 30.1171 31.1679 30.1116 31.0802C30.081 31.0669 30.0481 31.0594 30.0148 31.0582H30.0078C29.8521 31.0582 29.7294 31.1933 29.6768 31.3272C29.6482 31.3864 29.6421 31.454 29.6598 31.5173C29.6862 31.5727 29.744 31.6069 29.8052 31.6029ZM26.6004 31.2314C27.6769 31.0777 28.1332 30.6885 28.3264 30.3891C28.4488 30.2074 28.5063 29.9899 28.4898 29.7714L28.489 29.7706C28.4349 29.7582 28.3796 29.752 28.3241 29.7524C28.0378 29.7524 27.3055 29.897 26.6004 31.2314ZM28.8068 31.0181C29.2667 31.0181 29.6168 30.9387 29.8475 30.7824C29.9456 30.7196 30.0246 30.6311 30.0761 30.5266C30.0949 30.487 30.1073 30.4447 30.113 30.4012C29.9597 30.339 29.7967 30.3044 29.6314 30.2989C29.6077 30.2977 29.5837 30.2971 29.5586 30.297C29.2032 30.297 28.6627 30.413 28.0923 30.9655C28.3292 30.9982 28.5677 31.016 28.8068 31.0181ZM31.0337 30.9325C31.5187 30.9325 32.1849 30.7844 32.6003 30.369C32.2845 30.2944 31.9612 30.2511 31.6369 30.2406C31.6066 30.2399 31.5761 30.2395 31.5454 30.2395C31.0908 30.2395 30.7428 30.3276 30.5109 30.5015C30.4462 30.5403 30.3981 30.6019 30.3759 30.674C30.3707 30.7273 30.3961 30.7789 30.4414 30.8074C30.5457 30.8862 30.7323 30.9282 30.9961 30.9324L31.0333 30.9337L31.0337 30.9325ZM32.6051 30.1263C32.6646 30.1265 32.721 30.0999 32.7588 30.054C32.7938 30.008 32.8174 29.9544 32.8276 29.8976C32.8434 29.8227 32.8494 29.7461 32.8456 29.6697V29.6686C32.8219 29.6577 32.7962 29.6519 32.7701 29.6516C32.7093 29.6538 32.6517 29.6795 32.6096 29.7234C32.5626 29.7694 32.5269 29.8255 32.5049 29.8874C32.4829 29.9391 32.479 29.9966 32.4937 30.0508C32.5118 30.0965 32.5559 30.1268 32.6051 30.1263ZM28.9755 30.0445C29.0498 30.0459 29.1212 30.0159 29.1721 29.9618C29.2161 29.9107 29.2464 29.8493 29.2603 29.7834C29.2801 29.6977 29.2875 29.6096 29.282 29.5218C29.2514 29.5086 29.2185 29.5011 29.1852 29.4999H29.1782C29.0225 29.4999 28.8998 29.635 28.8472 29.7688C28.8186 29.8281 28.8125 29.8957 28.8302 29.959C28.8566 30.0144 28.9143 30.0486 28.9755 30.0445ZM30.7435 29.9713C31.7194 29.937 32.2256 29.6596 32.4789 29.4329C32.5871 29.338 32.6764 29.2233 32.7418 29.0951C32.7662 29.047 32.785 28.9962 32.7981 28.9439L32.7968 28.9433C32.7187 28.9196 32.6375 28.9075 32.5559 28.9074H32.5331C32.204 28.9074 31.5336 29.0458 30.7435 29.9713ZM29.6837 29.8727C30.4688 29.7532 30.9137 29.4161 31.1486 29.1543C31.2935 28.9986 31.4037 28.8139 31.4718 28.6124C31.3925 28.5943 31.3114 28.5845 31.23 28.5833C31.2195 28.5833 31.2086 28.5829 31.1975 28.5829C31.1864 28.5829 31.1749 28.5829 31.1632 28.5833C30.7683 28.592 30.0509 28.7712 29.6837 29.8727ZM33.7145 29.4957C33.9644 29.4965 34.2135 29.4667 34.4562 29.4069C34.8673 29.3041 35.0436 29.1471 35.1192 29.0335C35.1517 28.9864 35.1735 28.9328 35.1831 28.8764C35.1865 28.8543 35.1872 28.832 35.185 28.8098L35.1831 28.8091C34.9708 28.7565 34.753 28.7288 34.5342 28.7268C34.5194 28.7268 34.5044 28.7264 34.4892 28.7264C34.311 28.7261 34.133 28.7433 33.9582 28.7779C33.5615 28.8608 33.208 29.0841 32.9627 29.4067C33.2086 29.4668 33.4613 29.4973 33.7145 29.4957ZM31.892 28.8334C31.966 28.8354 32.0374 28.8061 32.0887 28.7528C32.1328 28.701 32.1631 28.639 32.1767 28.5724C32.1966 28.4875 32.204 28.4 32.1985 28.3129C32.1679 28.2996 32.135 28.2922 32.1016 28.291H32.0947C31.9393 28.291 31.8164 28.4261 31.7636 28.56C31.7355 28.6187 31.7302 28.6857 31.7485 28.7481C31.7737 28.8038 31.831 28.8376 31.892 28.8334ZM33.2624 28.6455C33.5234 28.5716 33.773 28.4626 34.0046 28.3215C34.3483 28.1098 34.7689 27.7354 34.8202 27.1538C34.7941 27.1482 34.7667 27.145 34.7401 27.1442C34.7339 27.1442 34.7266 27.1438 34.7194 27.1438C34.6167 27.1438 34.4065 27.1727 34.1521 27.3661C33.8284 27.6129 33.5295 28.0433 33.2623 28.6467L33.2624 28.6455ZM32.3676 28.6126C32.5806 28.5159 32.7783 28.3888 32.9548 28.2353C33.4109 27.8428 33.7664 27.3467 33.9914 26.7886C33.9352 26.7622 33.8744 26.7472 33.8124 26.7441C33.8062 26.7436 33.8 26.7435 33.7935 26.7435C33.7842 26.7435 33.7745 26.7435 33.7647 26.7441C33.6152 26.7483 33.3875 26.8104 33.1351 27.0828C32.8451 27.3958 32.5863 27.9101 32.3661 28.6115L32.3655 28.6135L32.3676 28.6126ZM34.6863 28.545C34.9852 28.545 35.0875 28.3829 35.1177 28.3131C35.1477 28.2404 35.1595 28.1615 35.152 28.0832V28.082C35.1034 28.0698 35.0534 28.0633 35.0032 28.0625H34.993C34.7975 28.0577 34.6114 28.1461 34.4917 28.3007C34.4758 28.3242 34.4274 28.4057 34.4675 28.4694C34.4997 28.5197 34.5728 28.545 34.6863 28.545ZM35.3486 27.7097C35.5801 27.7102 35.8113 27.6904 36.0394 27.6506C36.3057 27.6022 36.4567 27.3758 36.5363 27.1944C36.5899 27.0705 36.6274 26.9401 36.648 26.8066C35.8243 26.8308 35.4346 27.0715 35.2533 27.2691C35.141 27.3859 35.071 27.5371 35.0545 27.6983C35.0545 27.6983 35.1718 27.7097 35.3486 27.7097ZM34.4909 26.8526C34.4909 26.8526 34.5861 26.7348 34.679 26.5904C34.7765 26.4388 34.8668 26.2804 34.8668 26.1512C34.8668 26.0261 34.8962 25.7626 34.9137 25.6167C34.9359 25.4316 34.9584 25.2731 34.9602 25.2597C34.9393 25.2673 34.4442 25.4528 34.4442 25.9164C34.4442 26.3801 34.4905 26.848 34.4909 26.8526ZM35.1315 26.8086C35.1367 26.8086 35.1419 26.8081 35.147 26.8073C35.2931 26.7829 35.5501 26.6713 35.8337 26.5085C36.1488 26.3278 36.4047 26.1342 36.5543 25.9634C36.6907 25.8076 36.7713 25.563 36.7949 25.2362C36.8053 25.0883 36.8034 24.9397 36.7895 24.792C36.7631 24.7835 36.7356 24.7793 36.7079 24.7796C36.5985 24.7814 36.4818 24.8307 36.3241 24.9392C36.1804 25.0415 36.0458 25.1559 35.9217 25.2812C35.764 25.4378 35.615 25.6028 35.4752 25.7755L35.4732 25.778C35.4568 25.8074 35.3159 26.0614 35.2061 26.3087C35.1512 26.4225 35.1091 26.542 35.0806 26.665C35.0698 26.701 35.0698 26.7394 35.0806 26.7754C35.0852 26.7871 35.0936 26.7969 35.1045 26.8032C35.1131 26.8069 35.1221 26.8087 35.1315 26.8086Z" fill="#1C6864"/>
<path d="M42.9884 7.41196L42.8423 7.47012L42.7851 7.49295L42.6081 7.48321L42.4423 7.56277L42.1484 7.76363L42.1354 7.77293L42.0259 7.80152L41.9241 7.75761L41.8663 7.78391L41.8464 7.90297L41.7914 7.98849L41.7237 8.03605L41.4891 8.06005L41.2913 8.16206L41.0339 8.09317L40.9144 8.13998L40.6601 8.36894L40.5302 8.43045L40.4848 8.42785L40.3125 8.41898L40.2398 8.44279L40.1311 8.54778L39.9256 8.56378L39.8615 8.60812L39.7612 8.81028L39.6525 8.9224L39.5904 8.93554L39.523 8.91074L39.4724 8.91967L39.4494 9.04903L39.4003 9.10323L39.2626 9.1506L39.1527 9.2422L39.0562 9.29181L38.927 9.28858H38.8973L38.7685 9.35965L38.5267 9.38086L38.426 9.47691L38.4038 9.49744L38.3568 9.52584L38.2799 9.57173L38.2613 9.58314L38.1682 9.56658L38.0597 9.60956L38.0158 9.54203L37.9407 9.58711L37.8415 9.59139L37.7175 9.53626L37.6231 9.49422L37.5541 9.5042L37.5301 9.6245L37.5277 9.63728L37.4551 9.73383L37.3197 9.81587L37.3011 9.83987L37.147 10.0388L36.8541 10.3468L36.6065 10.4725L36.3499 10.5506L36.17 10.6982L35.6987 10.9318L34.9549 11.3022L34.8028 11.3509L34.5845 11.3858L34.1952 11.5292L33.8517 11.6328L33.8326 11.6386L33.7644 11.6592L33.28 11.8057L33.0546 11.7819L32.9211 11.8304L32.5735 11.7918L32.3317 11.7966L32.1787 11.8284L31.8911 11.9663L31.4058 12.1996L31.2454 12.3464L30.9957 12.4766L30.7033 12.5692L30.704 12.4463L30.7022 12.4411L30.6008 12.4732L30.5276 12.4963L30.2904 12.5329H30.1584L30.0765 12.5091L30.0641 12.5134L29.5793 12.6727L29.0386 12.7249L28.768 12.8117L28.5658 12.8085L28.4395 12.8461L28.1914 12.8764L28.1029 12.8528L28.0829 12.8473L27.3542 12.8789L27.0211 12.8413L26.8621 12.8774L26.5955 12.7878L26.2067 12.7427L26.1159 12.7155L25.9112 12.6548L25.8187 12.7081L25.7495 12.7155L25.5842 12.6555L25.5246 12.654L25.3882 12.7036L25.3096 12.6835L25.2366 12.6253L25.0654 12.5998L24.9611 12.5121L24.3782 12.5894L24.22 12.5429L23.6895 12.3883L23.6051 12.3926L23.4997 12.4714L23.3417 12.529L23.2045 12.5647L23.0178 12.5709L22.8007 12.514L22.5771 12.4056L22.4944 12.3859L22.31 12.4045L22.2536 12.4096L21.9146 12.2278L21.4779 11.9549L21.1816 11.8123L21.0704 11.7943L21.0554 11.8472L21.1106 12.0208L21.1292 12.1928L21.1236 12.3518L21.1206 12.4502L21.1482 12.5385L21.2552 12.6571L21.2998 12.7762L21.3324 13.1038L21.332 13.4364L21.28 13.9666L21.2624 14.0472L21.2004 14.322L21.1437 14.5743L20.9238 15.2461L20.8634 15.3294L20.7152 15.4305L20.3791 15.6592L20.1317 15.8018L20.0534 15.8343L19.8525 15.8495L19.7274 15.8433L19.5715 15.7589L19.4186 15.7195L19.2181 15.5754L18.9949 15.5292L18.7505 15.388L18.6869 15.3115L18.5538 15.2991L18.3692 15.2437V15.2434L18.3015 15.2231L18.2546 15.2095L18.019 15.2033L17.7995 15.102L17.6839 15.074L17.5259 15.066L17.3606 15.1429L17.2768 15.1819L17.171 15.1398L17.0944 15.1446L17.0076 15.2758L16.9969 15.2958L16.9371 15.3274L16.8627 15.3264L16.8045 15.3248L16.7415 15.3524L16.6566 15.3891L16.5817 15.4218L16.5451 15.4376L16.5445 15.437L16.522 15.4415L16.482 15.4485L16.4324 15.458L16.345 15.4069L16.2985 15.3795L16.2205 15.3636L16.1785 15.3939L16.1703 15.5365L16.1319 15.622L16.0103 15.7295L15.8867 15.8384L15.8006 15.9653L15.5727 16.4856L15.43 16.6955L15.3857 16.7444L15.2357 16.9094L15.1033 17.0121L14.7981 17.2487L14.5091 17.3567L14.2603 17.4075L14.1393 17.408L13.9099 17.3775L13.7038 17.3143L13.4774 17.1727L13.2294 16.9732L12.8701 16.6183L12.8192 16.5877L12.8086 16.5806L12.6955 16.5083L12.6115 16.5104L12.5786 16.5646L12.5606 16.643L12.5454 16.7124L12.5043 17.1073L12.5073 17.1301L12.529 17.2927L12.8018 17.6741L12.886 17.8767L12.8999 17.8998L12.9562 17.9944L12.999 18.0665L13.0033 18.0738L13.0963 18.3522L13.0308 18.5093L13.0639 18.6147L12.981 18.679L12.9658 18.7699L13.2108 19.077L13.2643 19.2125L13.2046 19.4004L13.1093 19.504L13.0827 19.5323L13.0961 19.6117L13.2089 19.7131L13.4004 19.8836L13.5026 20.137L13.5803 20.2052L13.6705 20.186L13.7208 20.2243L13.7969 20.223L13.8718 20.2979L13.9203 20.3214L13.997 20.3596L14.0576 20.4385L14.071 20.681L14.1839 20.9824L14.1857 21.1458L14.1863 21.169L14.2566 21.2898L14.2787 21.3852L14.2415 21.6375L14.3311 21.7185L14.4283 21.6987L14.491 21.7086L14.5919 21.7926L14.714 21.9786L14.8334 21.9611L14.9092 21.9976L15.2751 22.3284L15.3581 22.3703L15.3627 22.3729L15.4224 22.4029L15.4968 22.4778L15.6119 22.4014L15.6247 22.4001L15.7498 22.3891L15.8048 22.4263L15.9102 22.4975L16.0487 22.4957L16.3491 22.5878L16.4805 22.6215L16.7448 22.7857L16.8571 22.8551L16.9235 22.9092L17.0118 22.9811L17.1883 23.0571L17.3396 23.0933L17.4216 23.1127L17.4836 23.1366L17.4851 23.1327H17.486L17.4845 23.1366L17.8122 23.2621L17.9897 23.3035L18.1539 23.364L18.2734 23.4074L18.3611 23.4088L18.4851 23.3045L18.6052 23.2975L18.705 23.3223L18.8023 23.306L18.9564 23.2111L18.9865 23.1665L19.0958 23.1145L19.4644 23.0687L19.5721 23.1037L19.8487 22.9834L20.034 23.0349L20.198 22.9767L20.5564 23.0564L20.6516 23.1234L20.7581 23.2453L20.7711 23.2458L20.8897 23.2481L20.8401 23.3307L20.9965 23.4948L21.1379 23.7084L21.1474 23.7366L21.2502 24.0383L21.3266 24.1451L21.38 24.2943L21.3826 24.3915L21.2995 24.4549L21.2859 24.491L21.2812 24.5044L21.298 24.545L21.3294 24.5279L21.3891 24.4949L21.4618 24.4836L21.5899 24.4972L21.6745 24.5061L21.8081 24.4398L21.8966 24.3958L22.0388 24.457L22.195 24.4552L22.2607 24.4845L22.4467 24.5687L22.5415 24.5776L22.5765 24.5546L22.5989 24.5015L22.5874 24.4395L22.516 24.3577L22.3591 24.1755L22.2948 24.0819L22.2459 23.9463L22.2308 23.7729L22.22 23.656L22.2394 23.5024L22.2816 23.4476L22.3126 23.3256H22.3132L22.3212 23.2936L22.4084 23.1779L22.6393 23.0295L22.8874 22.8074L23.0834 22.6781L23.2856 22.5905L23.291 22.5657L23.3135 22.5748L23.8277 22.4L23.8362 22.399L24.0652 22.3591L25.6105 22.4679L25.6678 22.4506V22.4503L25.7193 22.3058L25.747 22.279L25.7656 22.2615L25.9355 22.1867L26.015 22.1754L26.2355 22.2298L26.3258 22.2521L26.4704 22.171L26.5729 22.1728L26.7848 22.057L26.9158 22.0603L26.9654 22.0404L27.2204 21.8572L27.466 21.7868L27.5299 21.7528L27.5524 21.7404L27.8041 21.6074L27.9641 21.4846L28.1021 21.4112L28.2533 21.3722L28.6489 21.3444L28.7285 21.2118L28.8987 21.1891L29.0014 21.0731L29.1192 21.0253L29.2035 20.9039L29.2742 20.8022L29.3728 20.745L29.6891 20.7252L30.0639 20.7716L30.1136 20.7416L30.1983 20.4393L30.2869 20.3825L30.5258 20.0345L30.5266 19.9077V19.8018L30.5658 19.6509L30.5392 19.3787L30.5708 19.1029L30.7192 18.7526L30.85 18.6112L31.0609 18.4686L31.1681 18.4219L31.3199 18.3964V18.3964L31.3423 18.3927L31.381 18.386L31.9039 18.3788C31.9112 18.3734 32.0941 18.3762 32.0941 18.3762L32.2685 18.3739L32.7098 18.4522L32.7412 18.4577L32.89 18.506L33.062 18.6398L33.2442 18.8177L33.2784 18.8509L33.3962 18.9005L33.4319 18.916L33.5293 18.9005L33.668 18.8282L33.7727 18.7397L33.9153 18.6618L33.9188 18.6568L33.9991 18.536L34.0015 18.5335L34.0032 18.534V18.5333H34.0019L34.0336 18.4852L34.3093 18.3778L34.6337 18.3592L34.6701 18.3394L34.6904 18.3286L34.7761 18.2279L34.8564 18.2273L35.0508 18.2976L35.1872 18.2705L35.2958 18.3139L35.3801 18.3039L35.5392 18.2853L35.7099 18.4054L35.8095 18.4178L36.1603 18.6231L36.1786 18.6261L36.188 18.6278L36.2081 18.6312L36.2497 18.6187L36.3117 18.6008L36.3199 18.5984L36.3277 18.6093L36.3676 18.6655L36.4223 18.6733L36.487 18.5869L36.4613 18.5477L36.4516 18.5335L36.3262 18.508L36.2137 18.3158L36.3208 18.2003L36.1527 17.9941L36.1248 17.9599L36.1153 17.9454L36.0572 17.8572L35.7629 17.4085L35.3795 17.1025L35.2453 16.9951L35.2444 16.9945L35.1974 16.9572L34.9928 16.749L34.8465 16.5549L34.8274 16.5131L34.7972 16.4473L34.7096 16.2564L34.5569 16.1386L34.4325 16.0027L34.4263 15.9947L34.1696 15.6458L34.1274 15.5873L34.0667 15.5523L33.9386 15.5514L33.9262 15.539L33.919 15.5315L33.9234 15.5269L33.9848 15.4658L34.0533 15.4486L34.0829 15.3811L33.9521 15.0028L33.9513 14.9896L33.9415 14.8687L34.0481 14.3195L34.0617 14.2526L34.2433 13.8832L34.3558 13.791L34.4786 13.5497L34.584 13.3954L34.6848 13.2973L34.7024 13.2868L34.8843 13.1767L35.0372 13.1552L35.1828 13.1347L35.437 13.213L35.6789 13.2083L35.7261 13.2033L35.8358 13.1909L36.0163 13.134L36.1016 13.0815L36.1458 13.0137L36.238 12.7044L36.2676 12.606L36.3245 12.4991L36.6535 12.1203L36.9023 11.8903L37.4616 11.4802L37.7353 11.3165L37.8751 11.233L39.1232 10.6782L39.4475 10.3496L39.6165 10.1785L39.9155 9.97791L40.2653 9.8346L40.5663 9.59635L40.632 9.51363L40.7149 9.24697L40.7839 9.23029L40.8459 9.09547L40.8636 9.05715L41.1093 8.88401L41.137 8.87018L42.0913 8.39207L42.2299 8.4111L42.3044 8.29992L42.582 8.25334L42.6331 8.24466L42.7013 8.21049L42.7595 8.11127V8.09168L42.7675 7.8267L42.8268 7.75507L42.8591 7.58044L42.8896 7.54014L42.9214 7.49822L43 7.44296L42.9864 7.41003L42.9884 7.41196Z" fill="#FFA654"/>
</g>
<path d="M11.7035 1.61228C6.53056 2.04084 2.23921 5.77712 1.57724 11.0101C1.25164 13.5841 1 16.6548 1 20C1 23.3452 1.25164 26.4159 1.57724 28.9899C2.23922 34.2229 6.53056 37.9592 11.7035 38.3877C15.5784 38.7087 20.5852 39 26 39C31.4148 39 36.4216 38.7087 40.2965 38.3877C45.4694 37.9592 49.7608 34.2229 50.4228 28.9899C50.7484 26.4159 51 23.3452 51 20C51 16.6548 50.7484 13.5841 50.4228 11.0101C49.7608 5.77712 45.4694 2.04084 40.2965 1.61228C36.4216 1.29127 31.4148 1 26 1C20.5852 1 15.5784 1.29127 11.7035 1.61228Z" stroke="#E6E6FA" stroke-width="2"/>
</svg>
