<svg width="52" height="40" viewBox="0 0 52 40" fill="none" xmlns="http://www.w3.org/2000/svg">
<mask id="mask0_1_37213" style="mask-type:alpha" maskUnits="userSpaceOnUse" x="2" y="2" width="48" height="36">
<path d="M2.56934 11.1356C3.16681 6.41247 7.0415 3.00193 11.7861 2.60887C15.6412 2.28949 20.6196 2 26 2C31.3804 2 36.3588 2.28949 40.2139 2.60887C44.9585 3.00193 48.8332 6.41247 49.4307 11.1356C49.752 13.6759 50 16.704 50 20C50 23.296 49.752 26.3241 49.4307 28.8644C48.8332 33.5875 44.9585 36.9981 40.2139 37.3911C36.3588 37.7105 31.3804 38 26 38C20.6196 38 15.6412 37.7105 11.7861 37.3911C7.0415 36.9981 3.16681 33.5875 2.56934 28.8644C2.248 26.3241 2 23.296 2 20C2 16.704 2.248 13.6759 2.56934 11.1356Z" fill="#00D0BF"/>
</mask>
<g mask="url(#mask0_1_37213)">
<rect x="2" y="2" width="48" height="36" fill="#1C6864"/>
<rect x="2" y="18.5" width="48" height="3" fill="#2C2929"/>
<rect x="2" y="15.5" width="48" height="3" fill="#FCD95E"/>
<rect x="2" y="21.5" width="48" height="3" fill="white"/>
<rect x="24.5" y="38" width="36" height="3" transform="rotate(-90 24.5 38)" fill="#2C2929"/>
<rect x="21.5" y="44" width="48" height="3" transform="rotate(-90 21.5 44)" fill="#FCD95E"/>
<rect x="27.5" y="44" width="48" height="3" transform="rotate(-90 27.5 44)" fill="white"/>
<path d="M26 28.0534C30.4183 28.0534 34 24.4717 34 20.0534C34 15.6351 30.4183 12.0534 26 12.0534C21.5817 12.0534 18 15.6351 18 20.0534C18 24.4717 21.5817 28.0534 26 28.0534Z" fill="#D41C30"/>
<path d="M25.7435 13.7382L26 13.0065L26.2331 13.7265L27.0144 13.7382L26.3963 14.2102L26.6763 15.0129L26 14.5174L25.3355 14.9894L25.592 14.2102L24.9856 13.7499L25.7435 13.7382Z" fill="#006B3F" stroke="black" stroke-width="0.0533333"/>
<path d="M27.2646 24.5208C27.5273 24.4935 27.6651 23.4185 27.5724 22.1199C27.4796 20.8213 27.1914 19.7908 26.9287 19.8182C26.666 19.8456 26.5282 20.9205 26.6209 22.2191C26.7137 23.5177 27.0019 24.5482 27.2646 24.5208Z" fill="#006B3F" stroke="black" stroke-width="0.0347147"/>
<path d="M27.735 24.5155C28.0129 24.4866 28.1626 23.4105 28.0693 22.112C27.976 20.8135 27.6751 19.7842 27.3972 19.8131C27.1193 19.842 26.9697 20.9181 27.063 22.2166C27.1562 23.5152 27.4571 24.5444 27.735 24.5155Z" fill="#006B3F" stroke="black" stroke-width="0.0357013"/>
<path d="M27.5251 24.8896C27.7474 24.8661 27.8465 23.6833 27.7464 22.2478C27.6464 20.8122 27.385 19.6676 27.1627 19.691C26.9404 19.7145 26.8413 20.8973 26.9414 22.3329C27.0415 23.7684 27.3028 24.9131 27.5251 24.8896Z" fill="#006B3F" stroke="black" stroke-width="0.0335748"/>
<path d="M23.642 23.3902C24.0504 23.3732 23.873 23.1547 24.0793 23.0384C24.2854 22.9223 24.5787 22.9991 24.6668 23.1443C24.7548 23.2895 24.6842 23.4322 24.7974 23.4341C24.9108 23.4361 27.9936 23.3068 28.1047 23.4285C28.2158 23.5501 28.2342 23.7899 28.119 23.8831C28.0039 23.9775 24.1065 24.0211 23.9723 23.9225C23.8381 23.8252 23.6415 23.4142 23.642 23.3902Z" fill="#9C4A00" stroke="black" stroke-width="0.035056"/>
<path d="M25.8199 23.6896C25.8125 23.9976 26.2681 23.9103 26.2744 24.1676C26.2606 24.4403 25.5104 24.1843 25.5032 23.6854C25.5344 23.187 26.2687 22.9407 26.2778 23.2254C26.2846 23.4619 25.8273 23.3815 25.8199 23.6896Z" fill="#FCD116" stroke="black" stroke-width="0.0337387"/>
<path d="M26.0887 23.694C26.0813 24.0021 26.5369 23.9148 26.5432 24.1721C26.5294 24.4448 25.7792 24.1888 25.772 23.6899C25.8032 23.1915 26.5375 22.9452 26.5466 23.2299C26.5533 23.4664 26.0961 23.386 26.0887 23.694Z" fill="#FCD116" stroke="black" stroke-width="0.0337387"/>
<path d="M26.3772 23.6832C26.3698 23.9912 26.8253 23.904 26.8316 24.1612C26.8179 24.434 26.0676 24.1779 26.0604 23.679C26.0916 23.1806 26.826 22.9344 26.835 23.219C26.8418 23.4556 26.3846 23.3752 26.3772 23.6832Z" fill="#FCD116" stroke="black" stroke-width="0.0337387"/>
<path d="M26.646 23.6867C26.6385 23.9947 27.0941 23.9075 27.1004 24.1648C27.0867 24.4375 26.3364 24.1814 26.3292 23.6825C26.3604 23.1842 27.0948 22.9379 27.1038 23.2226C27.1106 23.4591 26.6534 23.3787 26.646 23.6867Z" fill="#FCD116" stroke="black" stroke-width="0.0337387"/>
<path d="M27.9227 23.9115C28.0664 23.9136 28.1853 23.7972 28.1884 23.6514C28.1914 23.5056 28.0775 23.3857 27.9338 23.3835C27.7902 23.3814 27.6713 23.4978 27.6682 23.6436C27.6651 23.7894 27.7791 23.9093 27.9227 23.9115Z" fill="#9C4A00" stroke="black" stroke-width="0.0301597"/>
<path d="M26.4203 23.2725C26.5475 23.2533 26.6262 23.01 26.5962 22.729C26.5661 22.448 26.4387 22.2357 26.3115 22.2549C26.1843 22.2741 26.1056 22.5174 26.1357 22.7985C26.1657 23.0795 26.2932 23.2917 26.4203 23.2725Z" fill="#006B3F" stroke="black" stroke-width="0.0384963"/>
<path d="M26.028 23.2416C26.1552 23.2224 26.2339 22.979 26.2038 22.698C26.1738 22.417 26.0463 22.2048 25.9192 22.224C25.792 22.2431 25.7133 22.4865 25.7433 22.7675C25.7734 23.0485 25.9008 23.2608 26.028 23.2416Z" fill="#006B3F" stroke="black" stroke-width="0.0384963"/>
<path d="M25.747 22.7393C25.8742 22.7202 25.9529 22.4768 25.9228 22.1958C25.8928 21.9148 25.7653 21.7025 25.6382 21.7217C25.511 21.7409 25.4323 21.9843 25.4623 22.2653C25.4924 22.5463 25.6198 22.7585 25.747 22.7393Z" fill="#006B3F" stroke="black" stroke-width="0.0384962"/>
<path d="M26.1499 22.77C26.2722 22.7507 26.3446 22.4837 26.3117 22.1737C26.2787 21.8636 26.1529 21.628 26.0306 21.6473C25.9084 21.6667 25.836 21.9337 25.8689 22.2437C25.9019 22.5537 26.0277 22.7893 26.1499 22.77Z" fill="#006B3F" stroke="black" stroke-width="0.0396681"/>
<path d="M26.6951 22.74C26.8174 22.7211 26.8914 22.4701 26.8605 22.1794C26.8295 21.8887 26.7052 21.6684 26.5829 21.6873C26.4606 21.7062 26.3866 21.9572 26.4175 22.2479C26.4485 22.5386 26.5728 22.7589 26.6951 22.74Z" fill="#006B3F" stroke="black" stroke-width="0.0384082"/>
<path d="M26.3936 22.5583C26.5159 22.5394 26.5899 22.2884 26.559 21.9977C26.528 21.7071 26.4037 21.4867 26.2814 21.5057C26.1591 21.5246 26.0851 21.7755 26.116 22.0662C26.147 22.3569 26.2713 22.5772 26.3936 22.5583Z" fill="#006B3F" stroke="black" stroke-width="0.0384082"/>
<path d="M26.0132 22.2962C26.1355 22.2773 26.2095 22.0263 26.1785 21.7356C26.1475 21.4449 26.0233 21.2246 25.901 21.2435C25.7787 21.2624 25.7046 21.5134 25.7356 21.8041C25.7666 22.0948 25.8908 22.3151 26.0132 22.2962Z" fill="#006B3F" stroke="black" stroke-width="0.0384082"/>
<path d="M25.6609 22.1373C25.7832 22.1184 25.8572 21.8674 25.8262 21.5768C25.7952 21.2861 25.671 21.0658 25.5487 21.0847C25.4264 21.1036 25.3523 21.3545 25.3833 21.6452C25.4143 21.9359 25.5385 22.1562 25.6609 22.1373Z" fill="#006B3F" stroke="black" stroke-width="0.0384082"/>
<path d="M25.2142 17.2435C25.2142 17.2435 24.4326 17.9219 24.5203 19.7578C24.6187 21.6042 26.2479 22.4722 26.2479 22.4722C26.2479 22.4722 26.6632 21.9481 26.615 20.4645C26.4985 18.2956 25.7292 17.3372 25.7292 17.3372L25.2142 17.2435Z" fill="#9461C9" stroke="black" stroke-width="0.0306613"/>
<path d="M26.9374 23.3332C27.066 23.337 27.1868 23.1115 27.2073 22.8297C27.2278 22.5478 27.1402 22.3162 27.0117 22.3125C26.8831 22.3087 26.7623 22.5341 26.7418 22.816C26.7213 23.0978 26.8089 23.3294 26.9374 23.3332Z" fill="#006B3F" stroke="black" stroke-width="0.0384963"/>
<path d="M26.5569 23.2328C26.6854 23.2366 26.8063 23.0112 26.8268 22.7293C26.8473 22.4475 26.7597 22.2159 26.6311 22.2121C26.5026 22.2083 26.3818 22.4338 26.3612 22.7156C26.3407 22.9975 26.4283 23.2291 26.5569 23.2328Z" fill="#006B3F" stroke="black" stroke-width="0.0384963"/>
<path d="M26.3699 22.6886C26.4985 22.6924 26.6193 22.4669 26.6398 22.1851C26.6603 21.9032 26.5727 21.6717 26.4442 21.6679C26.3156 21.6641 26.1948 21.8895 26.1743 22.1714C26.1538 22.4532 26.2414 22.6848 26.3699 22.6886Z" fill="#006B3F" stroke="black" stroke-width="0.0384962"/>
<path d="M26.7609 22.7906C26.8847 22.7933 27.0035 22.5435 27.0264 22.2326C27.0492 21.9217 26.9674 21.6674 26.8436 21.6646C26.7199 21.6618 26.6011 21.9117 26.5782 22.2226C26.5554 22.5335 26.6372 22.7878 26.7609 22.7906Z" fill="#006B3F" stroke="black" stroke-width="0.0396681"/>
<path d="M27.3027 22.8581C27.4264 22.8613 27.544 22.6276 27.5653 22.336C27.5866 22.0445 27.5036 21.8055 27.3799 21.8024C27.2562 21.7992 27.1386 22.0329 27.1173 22.3245C27.096 22.616 27.179 22.8549 27.3027 22.8581Z" fill="#006B3F" stroke="black" stroke-width="0.0384082"/>
<path d="M27.0384 22.6257C27.1621 22.6289 27.2797 22.3951 27.301 22.1036C27.3223 21.812 27.2393 21.5731 27.1156 21.5699C26.9919 21.5667 26.8743 21.8004 26.853 22.092C26.8317 22.3835 26.9147 22.6225 27.0384 22.6257Z" fill="#006B3F" stroke="black" stroke-width="0.0384082"/>
<path d="M26.7108 22.2999C26.8345 22.3031 26.9521 22.0694 26.9734 21.7778C26.9947 21.4863 26.9117 21.2473 26.788 21.2441C26.6643 21.2409 26.5467 21.4747 26.5254 21.7662C26.504 22.0578 26.587 22.2967 26.7108 22.2999Z" fill="#006B3F" stroke="black" stroke-width="0.0384082"/>
<path d="M26.3925 22.0808C26.5162 22.084 26.6338 21.8503 26.6551 21.5587C26.6764 21.2672 26.5934 21.0282 26.4697 21.025C26.346 21.0218 26.2284 21.2556 26.2071 21.5472C26.1857 21.8387 26.2687 22.0776 26.3925 22.0808Z" fill="#006B3F" stroke="black" stroke-width="0.0384082"/>
<path d="M27.6698 22.2588C28.0094 22.1276 27.9275 21.1881 27.4868 20.1604C27.046 19.1326 26.4134 18.4058 26.0737 18.537C25.734 18.6683 25.816 19.6078 26.2567 20.6355C26.6974 21.6633 27.3301 22.39 27.6698 22.2588Z" fill="#D41C30" stroke="black" stroke-width="0.0110828"/>
<path d="M26.36 18.7495C26.5188 18.7524 26.6496 18.641 26.6521 18.5007C26.6546 18.3605 26.5279 18.2445 26.369 18.2417C26.2102 18.2388 26.0794 18.3502 26.0769 18.4905C26.0744 18.6307 26.2011 18.7467 26.36 18.7495Z" fill="#006B3F" stroke="black" stroke-width="0.0334722"/>
<path d="M26.5763 18.3906C26.7186 18.3931 26.8359 18.2814 26.8384 18.1412C26.8409 18.001 26.7276 17.8852 26.5853 17.8827C26.443 17.8801 26.3256 17.9918 26.3231 18.132C26.3206 18.2723 26.434 18.388 26.5763 18.3906Z" fill="#006B3F" stroke="black" stroke-width="0.0334712"/>
<path d="M26.2287 18.3844C26.371 18.3869 26.4883 18.2753 26.4908 18.135C26.4933 17.9948 26.38 17.879 26.2377 17.8765C26.0954 17.8739 25.978 17.9856 25.9755 18.1258C25.973 18.2661 26.0864 18.3818 26.2287 18.3844Z" fill="#006B3F" stroke="black" stroke-width="0.0334712"/>
<path d="M26.3056 18.1058C26.4545 18.1084 26.5771 18.0039 26.5795 17.8722C26.5818 17.7405 26.463 17.6317 26.3141 17.629C26.1652 17.6264 26.0425 17.7309 26.0402 17.8626C26.0378 17.9943 26.1567 18.1031 26.3056 18.1058Z" fill="#006B3F" stroke="black" stroke-width="0.0334721"/>
<path d="M26.2749 17.8046C26.4239 17.8072 26.5465 17.7026 26.5488 17.571C26.5512 17.4393 26.4324 17.3304 26.2834 17.3278C26.1345 17.3251 26.0119 17.4297 26.0095 17.5614C26.0072 17.693 26.126 17.8019 26.2749 17.8046Z" fill="#006B3F" stroke="black" stroke-width="0.0334721"/>
<path d="M25.8966 18.1815C26.0389 18.184 26.1563 18.0724 26.1588 17.9321C26.1613 17.7919 26.048 17.6761 25.9057 17.6736C25.7634 17.6711 25.646 17.7827 25.6435 17.9229C25.641 18.0632 25.7543 18.1789 25.8966 18.1815Z" fill="#006B3F" stroke="black" stroke-width="0.0334712"/>
<path d="M25.9744 17.8511C26.1167 17.8536 26.2341 17.7443 26.2365 17.6069C26.239 17.4695 26.1256 17.3561 25.9833 17.3536C25.841 17.351 25.7237 17.4603 25.7212 17.5977C25.7188 17.7351 25.8321 17.8485 25.9744 17.8511Z" fill="#006B3F" stroke="black" stroke-width="0.0334728"/>
<path d="M25.5486 17.8642C25.7074 17.8671 25.8382 17.7557 25.8407 17.6154C25.8432 17.4752 25.7165 17.3592 25.5576 17.3563C25.3988 17.3535 25.268 17.4649 25.2655 17.6052C25.263 17.7454 25.3897 17.8614 25.5486 17.8642Z" fill="#006B3F" stroke="black" stroke-width="0.0334722"/>
<path d="M26.0779 17.4278C26.2268 17.4305 26.3494 17.3259 26.3518 17.1942C26.3541 17.0626 26.2353 16.9537 26.0864 16.951C25.9374 16.9484 25.8148 17.053 25.8125 17.1846C25.8101 17.3163 25.9289 17.4252 26.0779 17.4278Z" fill="#006B3F" stroke="black" stroke-width="0.0334721"/>
<path d="M25.7172 17.4836C25.8595 17.4861 25.9769 17.3768 25.9793 17.2394C25.9818 17.1021 25.8684 16.9886 25.7261 16.9861C25.5838 16.9836 25.4665 17.0929 25.464 17.2303C25.4616 17.3677 25.5749 17.4811 25.7172 17.4836Z" fill="#006B3F" stroke="black" stroke-width="0.0334728"/>
<path d="M25.1707 17.8783C25.313 17.8808 25.4304 17.7691 25.4329 17.6289C25.4354 17.4887 25.3221 17.3729 25.1798 17.3704C25.0375 17.3678 24.9201 17.4795 24.9176 17.6197C24.9151 17.76 25.0284 17.8757 25.1707 17.8783Z" fill="#006B3F" stroke="black" stroke-width="0.0334712"/>
<path d="M25.2604 17.6836C25.4027 17.6861 25.52 17.5768 25.5225 17.4394C25.5249 17.302 25.4116 17.1886 25.2693 17.1861C25.127 17.1835 25.0096 17.2929 25.0072 17.4302C25.0047 17.5676 25.1181 17.6811 25.2604 17.6836Z" fill="#006B3F" stroke="black" stroke-width="0.0334728"/>
<path d="M25.3697 17.4743C25.512 17.4768 25.6294 17.3675 25.6318 17.2301C25.6342 17.0927 25.5209 16.9793 25.3786 16.9768C25.2363 16.9742 25.1189 17.0835 25.1165 17.2209C25.114 17.3583 25.2274 17.4717 25.3697 17.4743Z" fill="#006B3F" stroke="black" stroke-width="0.0334728"/>
<path d="M28.016 22.2983C28.4517 22.1445 28.3785 21.0279 27.8525 19.8042C27.3266 18.5805 26.5471 17.7132 26.1114 17.867C25.6758 18.0208 25.749 19.1374 26.2749 20.3611C26.8009 21.5848 27.5804 22.4521 28.016 22.2983Z" fill="#006B3F" stroke="black" stroke-width="0.0306947"/>
<path d="M27.9577 20.9309C28.0384 20.8925 28.0116 20.6549 27.8978 20.4002C27.784 20.1455 27.6263 19.9701 27.5455 20.0085C27.4648 20.0469 27.4916 20.2845 27.6054 20.5392C27.7192 20.7939 27.8769 20.9693 27.9577 20.9309Z" fill="#006B3F" stroke="black" stroke-width="0.0306644"/>
<path d="M27.678 20.4693C28.3612 21.3012 28.275 21.8295 28.2037 22.2765C27.9891 21.7611 27.8719 21.4367 27.1885 20.6046C26.5052 19.7726 26.8462 19.1887 26.8932 18.8811C26.9959 19.1474 26.9947 19.6373 27.678 20.4693Z" fill="#006B3F" stroke="black" stroke-width="0.0306613"/>
<path d="M27.7395 21.1413C28.4228 21.9732 28.3365 22.5014 28.2653 22.9484C28.0506 22.433 27.9334 22.1086 27.25 21.2765C26.5667 20.4445 26.9078 19.8607 26.9547 19.553C27.0574 19.8193 27.0562 20.3092 27.7395 21.1413Z" fill="#006B3F" stroke="black" stroke-width="0.0306613"/>
<path d="M27.7601 21.6825C28.4599 22.4997 28.3842 23.0297 28.3219 23.478C28.0969 22.9673 27.9733 22.6455 27.2734 21.8281C26.5736 21.0108 26.9029 20.4199 26.9437 20.1113C27.0517 20.3753 27.0603 20.8651 27.7601 21.6825Z" fill="#006B3F" stroke="black" stroke-width="0.0306613"/>
<path d="M27.6379 20.507C27.7979 20.4663 27.765 20.0654 27.5644 19.6116C27.3638 19.1577 27.0715 18.8228 26.9115 18.8636C26.7514 18.9043 26.7843 19.3052 26.9849 19.759C27.1855 20.2129 27.4779 20.5478 27.6379 20.507Z" fill="#006B3F" stroke="black" stroke-width="0.0308745"/>
<path d="M27.2859 20.8276C27.4298 20.8028 27.4201 20.4782 27.2641 20.1025C27.1082 19.7268 26.8651 19.4423 26.7211 19.467C26.5772 19.4918 26.5869 19.8164 26.7428 20.1921C26.8988 20.5678 27.1419 20.8523 27.2859 20.8276Z" fill="#006B3F" stroke="black" stroke-width="0.0310466"/>
<path d="M26.9478 21.1474C27.0923 21.1257 27.0893 20.8009 26.9412 20.422C26.7931 20.0431 26.5559 19.7536 26.4115 19.7753C26.267 19.797 26.27 20.1217 26.4181 20.5006C26.5662 20.8795 26.8034 21.1691 26.9478 21.1474Z" fill="#006B3F" stroke="black" stroke-width="0.031048"/>
<path d="M27.1904 19.8316C27.3068 19.8103 27.2925 19.566 27.1585 19.2859C27.0245 19.0058 26.8215 18.796 26.7052 18.8173C26.5888 18.8387 26.6031 19.083 26.7371 19.3631C26.8711 19.6431 27.074 19.8529 27.1904 19.8316Z" fill="#006B3F" stroke="black" stroke-width="0.03121"/>
<path d="M26.8838 20.0545C27.0013 20.0395 27.0023 19.7949 26.886 19.508C26.7696 19.2212 26.5801 19.0007 26.4625 19.0156C26.345 19.0305 26.3441 19.2752 26.4604 19.562C26.5767 19.8489 26.7663 20.0694 26.8838 20.0545Z" fill="#006B3F" stroke="black" stroke-width="0.0311846"/>
<path d="M26.4597 19.2125C26.6618 19.7061 26.7436 20.1499 26.6422 20.2033C26.5409 20.2566 26.2948 19.8992 26.0928 19.4056" fill="#006B3F"/>
<path d="M26.4597 19.2125C26.6618 19.7061 26.7436 20.1499 26.6422 20.2033C26.5409 20.2566 26.2948 19.8992 26.0928 19.4056" stroke="black" stroke-width="0.0306613"/>
<path d="M26.8506 19.4746C26.9681 19.4597 26.9691 19.2151 26.8528 18.9282C26.7364 18.6413 26.5469 18.4209 26.4293 18.4358C26.3118 18.4507 26.3109 18.6953 26.4272 18.9822C26.5435 19.2691 26.7331 19.4895 26.8506 19.4746Z" fill="#006B3F" stroke="black" stroke-width="0.0311846"/>
<path d="M26.5007 19.6414C26.6185 19.6288 26.625 19.3842 26.5151 19.0952C26.4052 18.8061 26.2206 18.582 26.1028 18.5946C25.9849 18.6072 25.9785 18.8517 26.0884 19.1408C26.1982 19.4299 26.3828 19.654 26.5007 19.6414Z" fill="#006B3F" stroke="black" stroke-width="0.0311751"/>
<path d="M26.1081 18.5421C26.3042 18.8756 26.4098 19.1871 26.3437 19.2374C26.2777 19.2876 26.0649 19.0577 25.8688 18.7242" fill="#006B3F"/>
<path d="M26.1081 18.5421C26.3042 18.8756 26.4098 19.1871 26.3437 19.2374C26.2777 19.2876 26.0649 19.0577 25.8688 18.7242" stroke="black" stroke-width="0.0306613"/>
<path d="M26.2439 18.3209C26.44 18.6544 26.5457 18.9659 26.4795 19.0162C26.4135 19.0664 26.2007 18.8365 26.0046 18.503" fill="#006B3F"/>
<path d="M26.2439 18.3209C26.44 18.6544 26.5457 18.9659 26.4795 19.0162C26.4135 19.0664 26.2007 18.8365 26.0046 18.503" stroke="black" stroke-width="0.0306613"/>
<path d="M26.8541 18.3677C27.1274 18.8233 27.2745 19.2488 27.1823 19.3176C27.0902 19.3864 26.7936 19.0724 26.5203 18.6168" fill="#006B3F"/>
<path d="M26.8541 18.3677C27.1274 18.8233 27.2745 19.2488 27.1823 19.3176C27.0902 19.3864 26.7936 19.0724 26.5203 18.6168" stroke="black" stroke-width="0.0306613"/>
<path d="M26.4508 18.129C26.6478 18.4973 26.7541 18.8409 26.6881 18.8962C26.6222 18.9515 26.4089 18.6975 26.2119 18.3292" fill="#006B3F"/>
<path d="M26.4508 18.129C26.6478 18.4973 26.7541 18.8409 26.6881 18.8962C26.6222 18.9515 26.4089 18.6975 26.2119 18.3292" stroke="black" stroke-width="0.0306613"/>
<path d="M26.4333 17.5955C26.3018 17.7279 26.4306 17.9754 26.5509 18.0649C26.6859 18.1872 27.4439 18.9868 27.9786 18.3141C27.5502 18.3063 26.7505 17.3005 26.4333 17.5955Z" fill="#9461C9" stroke="black" stroke-width="0.0314933"/>
<path d="M26.3397 17.2008C26.2082 17.3332 26.337 17.5808 26.4573 17.6702C26.5923 17.7926 27.3502 18.5921 27.885 17.9194C27.4565 17.9116 26.6569 16.9058 26.3397 17.2008Z" fill="#9461C9" stroke="black" stroke-width="0.0314933"/>
<path d="M26.2199 16.8227C26.0884 16.9551 26.2172 17.2026 26.3375 17.2921C26.4725 17.4145 27.2304 18.214 27.7652 17.5413C27.3367 17.5335 26.5371 16.5277 26.2199 16.8227Z" fill="#9461C9" stroke="black" stroke-width="0.0314933"/>
<path d="M25.9596 16.3901C25.8281 16.5225 25.9568 16.7701 26.0772 16.8595C26.2121 16.9819 26.9701 17.7814 27.5049 17.1087C27.0764 17.1009 26.2768 16.0951 25.9596 16.3901Z" fill="#9461C9" stroke="black" stroke-width="0.0314933"/>
<path d="M25.0255 15.9762C25.2965 15.7746 25.7941 15.7157 26.1819 15.9131C26.5048 16.0713 27.0431 16.7169 27.4477 16.8696C27.1629 16.9204 26.9896 16.8775 26.8076 16.79C26.4482 17.0503 26.3201 17.0893 25.9539 17.1404C25.4444 17.2139 25.0216 17.0813 24.873 16.8157C24.7216 16.565 24.7868 16.1629 25.0255 15.9762Z" fill="#9461C9" stroke="black" stroke-width="0.033472"/>
<path d="M25.5977 16.5135C25.7266 16.5158 25.8321 16.4571 25.8334 16.3824C25.8348 16.3076 25.7314 16.2452 25.6025 16.2429C25.4737 16.2406 25.3681 16.2993 25.3668 16.374C25.3655 16.4488 25.4688 16.5112 25.5977 16.5135Z" fill="#D41C30" stroke="black" stroke-width="0.0305082"/>
<path d="M24.9575 17.1118C25.1258 17.0491 25.2315 16.9152 25.1934 16.8125C25.1553 16.7099 24.988 16.6774 24.8196 16.7401C24.6512 16.8027 24.5456 16.9367 24.5837 17.0393C24.6218 17.142 24.7891 17.1744 24.9575 17.1118Z" fill="#FCD116" stroke="black" stroke-width="0.0330185"/>
<path d="M25.587 16.4417C25.6334 16.4426 25.6715 16.4107 25.6722 16.3707C25.6729 16.3306 25.636 16.2975 25.5896 16.2966C25.5433 16.2958 25.5052 16.3276 25.5044 16.3677C25.5037 16.4078 25.5407 16.4409 25.587 16.4417Z" fill="black"/>
<path d="M25.0866 16.5593C25.108 16.6632 25.0309 16.8037 24.8636 16.8534C24.6932 16.924 24.564 17.0839 24.4894 17.3455C24.2305 16.749 24.395 16.4967 24.6701 16.4353C24.9067 16.3599 25.0493 16.3694 25.0866 16.5593Z" fill="#FCD116" stroke="black" stroke-width="0.0390293"/>
</g>
<path d="M11.7035 1.61228C6.53056 2.04084 2.23921 5.77712 1.57724 11.0101C1.25164 13.5841 1 16.6548 1 20C1 23.3452 1.25164 26.4159 1.57724 28.9899C2.23922 34.2229 6.53056 37.9592 11.7035 38.3877C15.5784 38.7087 20.5852 39 26 39C31.4148 39 36.4216 38.7087 40.2965 38.3877C45.4694 37.9592 49.7608 34.2229 50.4228 28.9899C50.7484 26.4159 51 23.3452 51 20C51 16.6548 50.7484 13.5841 50.4228 11.0101C49.7608 5.77712 45.4694 2.04084 40.2965 1.61228C36.4216 1.29127 31.4148 1 26 1C20.5852 1 15.5784 1.29127 11.7035 1.61228Z" stroke="#E6E6FA" stroke-width="2"/>
</svg>
