<svg width="52" height="40" viewBox="0 0 52 40" fill="none" xmlns="http://www.w3.org/2000/svg">
<mask id="mask0_1_38717" style="mask-type:alpha" maskUnits="userSpaceOnUse" x="2" y="2" width="48" height="36">
<path d="M2.56934 11.1356C3.16681 6.41247 7.0415 3.00193 11.7861 2.60887C15.6412 2.28949 20.6196 2 26 2C31.3804 2 36.3588 2.28949 40.2139 2.60887C44.9585 3.00193 48.8332 6.41247 49.4307 11.1356C49.752 13.6759 50 16.704 50 20C50 23.296 49.752 26.3241 49.4307 28.8644C48.8332 33.5875 44.9585 36.9981 40.2139 37.3911C36.3588 37.7105 31.3804 38 26 38C20.6196 38 15.6412 37.7105 11.7861 37.3911C7.0415 36.9981 3.16681 33.5875 2.56934 28.8644C2.248 26.3241 2 23.296 2 20C2 16.704 2.248 13.6759 2.56934 11.1356Z" fill="#00D0BF"/>
</mask>
<g mask="url(#mask0_1_38717)">
<rect x="2" y="26" width="48" height="12" fill="#2C2929"/>
<rect x="2" y="14" width="48" height="12" fill="white"/>
<path d="M26.0412 19.8652L30 23.5403L29.7182 16.8657C29.6767 15.8542 28.7977 16.0862 28.1591 16.4512C27.5123 16.8657 26.7743 16.8657 25.9946 16.592C25.2152 16.8657 24.4771 16.8657 23.8302 16.4511C23.1917 16.0863 22.3128 15.8541 22.2713 16.8657L21.9893 23.5403L26.0412 19.8652Z" fill="white" stroke="#C09300" stroke-width="0.0734312" stroke-linejoin="round"/>
<path d="M22.7267 16.6334L22.453 23.1258L21.9886 23.5402L22.2706 16.8656C22.4032 16.7744 22.6355 16.6334 22.7267 16.6334V16.6334ZM23.2827 17.0981L23.0506 22.529L22.5863 23.0042L22.8682 16.7331C22.9595 16.8242 23.2332 17.0481 23.2827 17.0978V17.0981ZM23.7885 17.5126L23.6062 22.0421L23.233 22.4069L23.4653 17.2389C23.5563 17.3301 23.7387 17.4628 23.7885 17.5126ZM24.3359 17.7449L24.1535 21.6054L23.7886 21.9014L23.971 17.604C24.0623 17.6454 24.2447 17.7449 24.3359 17.7449ZM24.8417 17.7449L24.7089 20.9621L24.3358 21.327L24.4769 17.7864C24.5679 17.7864 24.8001 17.7864 24.8417 17.7449Z" fill="#C09300"/>
<path d="M29.2532 16.6334L29.5268 23.1258L29.9913 23.5402L29.7092 16.8656C29.5766 16.7744 29.3443 16.6334 29.2532 16.6334V16.6334ZM28.6971 17.0981L28.9293 22.529L29.3936 23.0042L29.1117 16.7331C29.0204 16.8242 28.7467 17.0481 28.6971 17.0978V17.0981ZM28.1913 17.5126L28.3737 22.0421L28.7468 22.4069L28.5146 17.2389C28.4236 17.3301 28.2412 17.4628 28.1913 17.5126ZM27.6439 17.7449L27.8264 21.6054L28.1913 21.9014L28.0088 17.604C27.9176 17.6454 27.7351 17.7449 27.6439 17.7449ZM27.1382 17.7449L27.2709 20.9621L27.644 21.327L27.503 17.7864C27.412 17.7864 27.1797 17.7864 27.1382 17.7449Z" fill="#C09300"/>
<path d="M26.1769 20.597L26.7326 23.1262L26.5501 23.3085L26.3593 23.1676L26.0442 20.9122L26.1769 23.1676L25.9944 23.3997L25.812 23.1676L25.9447 20.9122L25.6296 23.1676L25.4387 23.3085L25.2564 23.1262L25.812 20.597H26.1769V20.597Z" fill="#C09300" stroke="#C09300" stroke-width="0.0620729"/>
<path d="M24.7504 19.486L23.6475 23.3996L25.1651 23.6318L25.8118 20.6882L24.7503 19.486L24.7504 19.486Z" fill="white" stroke="#C09300" stroke-width="0.0687289" stroke-linejoin="round"/>
<path d="M24.3856 20.8213L24.5183 21.1446L25.2354 20.4597" stroke="#C09300" stroke-width="0.0734043" stroke-linejoin="round"/>
<path d="M25.3059 23.1263L25.1446 22.3634L25.0038 21.5875L24.6662 22.0446L24.5182 21.5175L24.0457 22.0022L24.286 22.8838L24.6176 22.3384L24.8 22.894L25.1405 22.3644M24.8821 20.0108L25.0322 21.4181L25.4883 20.8211L24.8821 20.0108ZM25.3058 21.053L25.555 21.9128L25.3058 21.053ZM25.6527 21.5969L25.1487 22.3623L25.6527 21.5969Z" stroke="#C09300" stroke-width="0.0734043" stroke-linejoin="round"/>
<path d="M23.9706 23.3085L24.2769 22.8782L24.4765 23.5405L24.7502 23.0762L24.9327 23.6319" stroke="#C09300" stroke-width="0.0734043" stroke-linejoin="round"/>
<path d="M27.2294 19.486L28.3323 23.3996L26.8147 23.6318L26.168 20.6882L27.2295 19.486L27.2294 19.486Z" fill="white" stroke="#C09300" stroke-width="0.0687289" stroke-linejoin="round"/>
<path d="M27.5942 20.8213L27.4615 21.1446L26.7444 20.4597" stroke="#C09300" stroke-width="0.0734043" stroke-linejoin="round"/>
<path d="M26.6739 23.1263L26.8352 22.3634L26.976 21.5875L27.3136 22.0446L27.4616 21.5175L27.9341 22.0022L27.6938 22.8838L27.3622 22.3384L27.1798 22.894L26.8393 22.3644M27.0977 20.0108L26.9476 21.4181L26.4915 20.8211L27.0977 20.0108ZM26.674 21.053L26.4248 21.9128L26.674 21.053ZM26.3271 21.5969L26.8311 22.3623L26.3271 21.5969Z" stroke="#C09300" stroke-width="0.0734043" stroke-linejoin="round"/>
<path d="M28.0092 23.3085L27.7029 22.8782L27.5033 23.5405L27.2296 23.0762L27.0471 23.6319" stroke="#C09300" stroke-width="0.0734043" stroke-linejoin="round"/>
<path d="M25.9943 25.149C27.1471 25.149 28.25 25.0578 28.8968 24.8754C29.1705 24.8257 29.1705 24.6848 29.1705 24.5022C29.4442 24.4111 29.3032 24.0878 29.4939 24.0878C29.3032 24.1376 29.2618 23.7644 29.0296 23.8143C29.0296 23.4908 28.7061 23.4494 28.4325 23.5404C27.8851 23.7229 26.9148 23.7644 25.9943 23.7644C25.0738 23.7229 24.1118 23.7229 23.5562 23.5404C23.2826 23.4494 22.9593 23.4908 22.9593 23.8143C22.727 23.7644 22.6856 24.1376 22.4949 24.0878C22.6856 24.0878 22.5446 24.4111 22.8182 24.5022C22.8182 24.6848 22.8182 24.8257 23.1002 24.8754C23.7386 25.0578 24.8417 25.149 25.9943 25.149H25.9943Z" fill="white" stroke="#C09300" stroke-width="0.137458" stroke-linecap="round" stroke-linejoin="round"/>
<path d="M24.4272 23.3993C24.8003 23.4491 25.215 23.4905 25.5385 23.4491C25.7208 23.4491 25.8535 23.7641 25.4887 23.814C25.1654 23.8553 24.6595 23.814 24.3858 23.7641C24.1536 23.7227 23.6477 23.6315 23.3243 23.5401C23.0009 23.3993 23.2332 23.1258 23.4154 23.1672C23.6974 23.2583 24.0624 23.3496 24.4273 23.3993L24.4272 23.3993ZM27.5619 23.3993C27.1887 23.4491 26.7742 23.4905 26.459 23.4491C26.2682 23.4491 26.1355 23.7641 26.5004 23.814C26.8239 23.8553 27.3297 23.814 27.6032 23.7641C27.8355 23.7227 28.3413 23.6315 28.6647 23.5401C28.9882 23.3993 28.7561 23.1258 28.5735 23.1672C28.2916 23.2583 27.9267 23.3496 27.5619 23.3993V23.3993Z" fill="white" stroke="#C09300" stroke-width="0.0734043" stroke-linecap="round" stroke-linejoin="round"/>
<path d="M23.2828 23.2172C23.0009 23.1675 22.8682 23.4907 22.9595 23.6731C23.0009 23.5819 23.1916 23.5819 23.2332 23.4907C23.2828 23.3499 23.1916 23.3499 23.2828 23.2172V23.2172ZM24.3857 24.0652C24.3857 23.883 24.568 23.9054 24.568 23.7229C24.568 23.6318 24.5184 23.4907 24.4271 23.4907C24.3359 23.4907 24.2446 23.5819 24.2446 23.6731C24.2031 23.8556 24.3857 23.883 24.3857 24.0652ZM25.6984 23.5404C25.9718 23.5404 25.9447 23.9053 25.812 24.0877C25.812 23.9551 25.5798 23.9053 25.5798 23.8142C25.5798 23.6731 25.7894 23.6731 25.6984 23.5404ZM28.7059 23.2172C28.9878 23.1675 29.1206 23.4907 29.0293 23.6731C28.9878 23.5819 28.7971 23.5819 28.7557 23.4907C28.7059 23.3499 28.7972 23.3499 28.7059 23.2172V23.2172ZM27.603 24.0652C27.603 23.883 27.4207 23.9054 27.4207 23.7229C27.4207 23.6318 27.4704 23.4907 27.5617 23.4907C27.6528 23.4907 27.7441 23.5819 27.7441 23.6731C27.7856 23.8556 27.603 23.883 27.603 24.0652ZM26.2903 23.5404C26.0167 23.5404 26.0439 23.9053 26.1766 24.0877C26.1766 23.9551 26.4087 23.9053 26.4087 23.8142C26.4087 23.6731 26.1991 23.6731 26.2903 23.5404H26.2903Z" fill="white" stroke="#C09300" stroke-width="0.0734043" stroke-linecap="round" stroke-linejoin="round"/>
<path d="M23.374 23.3085C23.4654 23.3085 23.6063 23.35 23.6478 23.3997L23.3738 23.3083L23.374 23.3085ZM23.8295 23.4496C23.8794 23.4496 24.0618 23.491 24.153 23.5406L23.8293 23.4493L23.8295 23.4496ZM25.4885 23.6316C25.3973 23.6316 25.2149 23.6316 25.1652 23.673L25.4883 23.6314L25.4885 23.6316ZM24.9827 23.6316C24.9331 23.5818 24.7506 23.5818 24.6594 23.6316H24.9825H24.9827ZM28.6151 23.3085C28.5239 23.3085 28.3911 23.35 28.3414 23.3997L28.6151 23.3085ZM28.159 23.4496C28.1093 23.4496 27.9268 23.491 27.8356 23.5406L28.1593 23.4493L28.159 23.4496ZM26.5001 23.6316C26.5914 23.6316 26.7738 23.6316 26.8235 23.673L26.4998 23.6314L26.5001 23.6316ZM27.0058 23.6316C27.0556 23.5818 27.2381 23.5818 27.3293 23.6316H27.0056H27.0058Z" fill="white" stroke="#C09300" stroke-width="0.0514962" stroke-linecap="round" stroke-linejoin="round"/>
<path d="M23.2972 24.0375C23.2664 24.0316 23.2501 24.0071 23.2579 23.9782C23.2674 23.943 23.2956 23.9229 23.3222 23.9323C23.3392 23.9383 23.3702 23.9696 23.3703 23.9808C23.3705 23.9937 23.3541 24.0243 23.347 24.0244C23.344 24.0244 23.3393 24.0271 23.3366 24.0303C23.3308 24.0371 23.3127 24.0404 23.2972 24.0374V24.0375ZM26.4724 24.264C26.4609 24.2598 26.4426 24.2341 26.4426 24.2222C26.4427 24.1998 26.4758 24.1634 26.4963 24.1632C26.5064 24.1631 26.5342 24.1775 26.5445 24.1883C26.5633 24.2078 26.5592 24.2399 26.5356 24.2581C26.524 24.2671 26.4893 24.2703 26.4724 24.264L26.4724 24.264ZM26.4932 24.4074C26.4689 24.3992 26.46 24.3873 26.458 24.3604C26.456 24.3323 26.4587 24.3279 26.4883 24.3118L26.5095 24.3002L26.5295 24.3092C26.5573 24.3216 26.5696 24.3349 26.5706 24.3535C26.5716 24.3736 26.5567 24.3942 26.5336 24.4046C26.5132 24.4137 26.512 24.4138 26.4932 24.4074V24.4074Z" fill="#C09300"/>
<path d="M23.5522 23.7779C23.5321 23.7773 23.5047 23.7957 23.4889 23.805C23.4514 23.8138 23.4077 23.8369 23.3715 23.8122C23.3358 23.8012 23.2884 23.8099 23.283 23.8538C23.2922 23.8915 23.345 23.913 23.3769 23.8881C23.4007 23.857 23.4655 23.8388 23.4727 23.8917C23.4463 23.9317 23.4493 23.9847 23.4275 24.0272C23.424 24.0536 23.413 24.0788 23.3986 24.1012C23.3719 24.1039 23.3435 24.1008 23.3209 24.1175C23.2848 24.1195 23.2478 24.1375 23.227 24.1681C23.2037 24.2015 23.1814 24.2354 23.1746 24.2765C23.1808 24.3184 23.2288 24.3304 23.2649 24.3325C23.3035 24.3431 23.3421 24.357 23.3806 24.3686C23.4433 24.3826 23.5021 24.4053 23.5648 24.4192C23.6564 24.4468 23.7525 24.4595 23.8448 24.4842C23.8545 24.4874 23.8635 24.4902 23.8737 24.4914C23.912 24.4994 23.9319 24.4577 23.9351 24.4264C23.9541 24.3594 23.9686 24.2912 23.9875 24.2241C24.0005 24.1972 24.0162 24.1364 23.964 24.15C23.9342 24.1679 23.909 24.1947 23.8719 24.197C23.8214 24.1999 23.8502 24.2516 23.8701 24.2728C23.8745 24.3068 23.8637 24.3474 23.8412 24.374C23.8111 24.3931 23.7735 24.3708 23.7418 24.3632C23.7086 24.3637 23.6422 24.3468 23.6732 24.3017C23.6842 24.2684 23.6852 24.2319 23.6985 24.1988C23.7154 24.1633 23.7179 24.1245 23.7256 24.0868C23.7047 24.0419 23.669 24.1016 23.6407 24.1067C23.6211 24.1202 23.5479 24.126 23.5865 24.1609C23.6197 24.1861 23.5942 24.23 23.5883 24.262C23.5861 24.3065 23.5399 24.3172 23.5034 24.3072C23.4671 24.3054 23.4166 24.2784 23.4474 24.2385C23.4544 24.2053 23.466 24.1726 23.4727 24.1392C23.4864 24.0989 23.4979 24.0604 23.5124 24.02C23.5187 23.9841 23.5316 23.9501 23.5485 23.9188C23.5495 23.8792 23.5761 23.8451 23.5756 23.805C23.5729 23.7854 23.5642 23.7783 23.5522 23.7779ZM23.3444 24.197C23.3491 24.1962 23.3525 24.1969 23.3571 24.1988C23.3715 24.2049 23.3719 24.2167 23.3571 24.2295C23.3506 24.2351 23.3432 24.2405 23.3408 24.2403C23.3138 24.238 23.3058 24.234 23.3047 24.2241C23.3037 24.2153 23.3064 24.2128 23.3246 24.2042C23.3335 24.1999 23.3397 24.1978 23.3444 24.197ZM23.2845 24.4872C23.2559 24.4602 23.2605 24.4405 23.3029 24.4089C23.321 24.3954 23.332 24.3969 23.3528 24.4159C23.3847 24.445 23.386 24.4634 23.3578 24.4884C23.3439 24.5007 23.3378 24.5033 23.3215 24.5034C23.3046 24.5036 23.2998 24.5015 23.2845 24.4872ZM23.4608 24.5403C23.4542 24.5388 23.448 24.5359 23.4426 24.5318C23.4372 24.5277 23.4326 24.5226 23.4292 24.5167C23.4259 24.5108 23.4237 24.5043 23.423 24.4975C23.4222 24.4908 23.4229 24.484 23.4249 24.4775C23.4323 24.4523 23.4366 24.4499 23.4734 24.4495C23.5147 24.4491 23.5228 24.456 23.5231 24.4924C23.5234 24.5129 23.5218 24.5176 23.5116 24.5271C23.4996 24.5382 23.4766 24.5442 23.4608 24.5403V24.5403ZM28.6117 24.545C28.5986 24.534 28.5959 24.5291 28.5958 24.5152C28.5956 24.4915 28.6093 24.4741 28.6389 24.4606C28.6783 24.4428 28.6944 24.4452 28.7092 24.4714C28.729 24.5061 28.728 24.5203 28.7044 24.5437C28.6913 24.5567 28.6889 24.5574 28.659 24.5577C28.6297 24.5579 28.6263 24.5571 28.6117 24.545ZM23.6949 24.6114C23.6739 24.6058 23.663 24.59 23.6627 24.5648C23.6625 24.5455 23.6639 24.5424 23.6774 24.5319C23.6861 24.525 23.6999 24.5192 23.7108 24.5177C23.7262 24.5156 23.7319 24.5169 23.7443 24.5256C23.7761 24.548 23.7829 24.5701 23.7645 24.5916C23.7448 24.6145 23.7262 24.6198 23.6949 24.6114ZM24.962 24.6681C24.9573 24.6623 24.947 24.6588 24.9459 24.6515C24.9478 24.6194 24.9493 24.5869 24.9596 24.5562C24.9651 24.526 24.9602 24.4944 24.9708 24.465C24.9816 24.4114 24.9816 24.3561 24.994 24.3029C24.9946 24.2755 24.9972 24.2481 25.0051 24.2217C25.0143 24.1799 25.0059 24.1363 25.0182 24.0951C25.0169 24.0796 25.0347 24.0383 25.0504 24.0628C25.0731 24.0961 25.1031 24.1232 25.1325 24.1504C25.1578 24.165 25.1346 24.1865 25.1171 24.1937C25.0931 24.2032 25.0873 24.2296 25.089 24.2528C25.0856 24.2768 25.076 24.2994 25.075 24.3239C25.0699 24.3599 25.0709 24.3964 25.0662 24.4323C25.0557 24.4676 25.0598 24.5052 25.0562 24.5415C25.0567 24.5645 25.0458 24.5854 25.0473 24.6085C25.0445 24.632 25.0434 24.6602 25.0237 24.6763C25.0047 24.6859 24.9772 24.6843 24.962 24.6681H24.962ZM26.6787 24.1016C26.6509 24.1227 26.6259 24.1476 26.6011 24.1721C26.5668 24.198 26.6292 24.2131 26.6372 24.2353C26.6463 24.2692 26.6457 24.3053 26.648 24.3401C26.6584 24.3719 26.663 24.4059 26.6607 24.4394C26.6577 24.4754 26.6108 24.4678 26.5902 24.4882C26.5618 24.5001 26.5505 24.5281 26.5288 24.5478C26.5146 24.5757 26.5108 24.61 26.509 24.6417C26.511 24.6676 26.4915 24.6966 26.509 24.7194C26.5112 24.7226 26.5139 24.727 26.5162 24.7302C26.522 24.7386 26.536 24.7319 26.5451 24.7338C26.5742 24.7322 26.6045 24.7366 26.6318 24.7248C26.7017 24.7127 26.7723 24.7117 26.8431 24.7085C26.8864 24.7099 26.9281 24.6949 26.9714 24.6959C27.0053 24.7034 27.0206 24.6666 27.0202 24.6399C27.0009 24.6021 27.0175 24.5573 27.0021 24.5189C26.9885 24.48 26.9939 24.4363 26.9876 24.3961C26.9868 24.3643 26.9465 24.3526 26.9262 24.3762C26.9065 24.3961 26.8746 24.4001 26.8594 24.425C26.8422 24.4598 26.8956 24.4598 26.9045 24.4864C26.9147 24.5132 26.9114 24.543 26.9136 24.5713C26.9202 24.6055 26.883 24.6075 26.8594 24.611C26.8284 24.6226 26.7848 24.6304 26.7673 24.593C26.7562 24.5652 26.7577 24.5356 26.7546 24.5062C26.7538 24.4547 26.7415 24.404 26.7384 24.3527C26.7354 24.2893 26.7244 24.2263 26.7203 24.163C26.7197 24.1367 26.7162 24.0938 26.6787 24.1016V24.1016ZM26.6426 24.5785L26.6607 24.5803L26.6625 24.602L26.6643 24.6236L26.6408 24.6309C26.6284 24.6345 26.6175 24.6363 26.6173 24.6363C26.6136 24.634 26.61 24.6316 26.6065 24.6291C26.5938 24.6199 26.597 24.6068 26.6137 24.5893C26.6231 24.5795 26.6275 24.5776 26.6426 24.5785H26.6426ZM24.9105 24.0421C24.8886 24.0499 24.8607 24.0821 24.8383 24.0818C24.7874 24.0854 24.7945 24.1349 24.8311 24.1523C24.8359 24.1673 24.8314 24.1862 24.8329 24.2028C24.84 24.2485 24.8112 24.2852 24.8166 24.3311C24.8141 24.3814 24.7989 24.4304 24.7967 24.481C24.7825 24.5332 24.7823 24.5869 24.7733 24.64C24.7672 24.6876 24.7328 24.6708 24.7028 24.658C24.7026 24.6374 24.7012 24.6173 24.701 24.5966C24.7135 24.5494 24.6755 24.5356 24.6378 24.5298C24.5981 24.5335 24.5787 24.4996 24.5872 24.4648C24.6042 24.4445 24.6471 24.4501 24.6739 24.4467C24.7306 24.4585 24.7283 24.3824 24.6992 24.3564C24.6793 24.3196 24.6299 24.3038 24.6161 24.2661C24.6216 24.216 24.5884 24.1659 24.5475 24.1414C24.4845 24.137 24.437 24.1913 24.4138 24.2444C24.3876 24.252 24.3615 24.2598 24.3361 24.2697C24.2951 24.2799 24.2367 24.351 24.2928 24.3781C24.3242 24.3867 24.4199 24.4086 24.3777 24.4521C24.3538 24.493 24.3082 24.4937 24.2675 24.4828C24.2256 24.4829 24.1791 24.4625 24.1808 24.4142C24.1722 24.3708 24.1736 24.3241 24.1537 24.2841C24.1451 24.2356 24.09 24.247 24.0868 24.2913C24.0445 24.3222 24.0501 24.3721 24.0796 24.4088C24.098 24.4509 24.0798 24.5 24.0616 24.5388C24.0505 24.5894 23.9947 24.5911 23.955 24.6075C23.9355 24.615 23.8608 24.603 23.8881 24.6454C23.9317 24.6608 23.9837 24.6746 24.029 24.6634C24.0766 24.6576 24.1179 24.625 24.141 24.584C24.173 24.5516 24.2279 24.5686 24.2693 24.5677C24.3139 24.5676 24.3596 24.5991 24.4029 24.5786C24.4155 24.5459 24.4736 24.4921 24.4915 24.5478C24.4884 24.5977 24.5325 24.6245 24.5782 24.6183C24.6281 24.6155 24.6096 24.6536 24.6089 24.6833C24.6122 24.7374 24.647 24.7657 24.692 24.7881C24.7073 24.7922 24.7235 24.7908 24.7389 24.7881C24.7822 24.7745 24.8287 24.7552 24.8419 24.7068C24.8594 24.6675 24.8599 24.623 24.8726 24.5822C24.8828 24.5169 24.8961 24.4515 24.8979 24.3853C24.9138 24.3253 24.9093 24.2618 24.9214 24.201C24.929 24.1559 24.9347 24.1107 24.9394 24.0656C24.9341 24.0415 24.9237 24.0374 24.9105 24.0421V24.0421ZM24.5186 24.2823C24.5273 24.2834 24.5322 24.2941 24.533 24.313C24.5339 24.3341 24.5449 24.3512 24.5583 24.3546C24.5688 24.3572 24.5679 24.3684 24.5565 24.3762C24.5498 24.3808 24.5379 24.3836 24.5168 24.3835C24.4833 24.3833 24.4626 24.3746 24.4445 24.3564L24.4337 24.3455L24.4499 24.3347C24.4613 24.3257 24.4722 24.3161 24.4824 24.3058C24.4989 24.289 24.5098 24.2812 24.5186 24.2823ZM28.3354 23.827C28.3026 23.8285 28.2697 23.8339 28.2397 23.8415C28.1795 23.8377 28.1493 23.9009 28.2072 23.9318C28.2419 24.0205 28.2962 23.9135 28.3517 23.921C28.4347 23.9371 28.4418 24.0269 28.4546 24.0944C28.4593 24.1612 28.4786 24.2263 28.498 24.2895C28.5536 24.3513 28.4563 24.3901 28.4149 24.3418C28.3795 24.3034 28.3039 24.2563 28.2613 24.3093C28.2091 24.3315 28.207 24.4013 28.1638 24.4213C28.0939 24.4426 28.0851 24.3567 28.0482 24.3202C28.0142 24.2725 27.9493 24.2684 27.8964 24.2515C27.8717 24.2013 27.8846 24.1159 27.8332 24.0817C27.7901 24.0993 27.7111 24.1801 27.7772 24.2172C27.8418 24.2727 27.749 24.2982 27.7194 24.3364C27.6771 24.3835 27.6704 24.4483 27.6634 24.508C27.5906 24.5482 27.5765 24.4625 27.5677 24.4087C27.562 24.3444 27.5078 24.3633 27.4701 24.387C27.4151 24.4093 27.3876 24.4616 27.3491 24.5026C27.3445 24.5401 27.3513 24.581 27.3509 24.62C27.3634 24.6669 27.4204 24.6449 27.4557 24.6417C27.5123 24.618 27.5354 24.678 27.49 24.7122C27.4593 24.7512 27.3617 24.7308 27.3708 24.7934C27.4022 24.7971 27.435 24.7959 27.4665 24.7934C27.5296 24.7762 27.5972 24.7317 27.6038 24.6616C27.6121 24.6004 27.7002 24.6115 27.7483 24.5984C27.8085 24.581 27.881 24.5766 27.8946 24.6525C27.9356 24.6956 28.0246 24.7441 28.0699 24.6851C28.1158 24.657 28.1378 24.6077 28.1349 24.555C28.1255 24.5096 28.2082 24.508 28.2288 24.5333C28.2589 24.5829 28.3531 24.5683 28.3986 24.5406C28.4469 24.5049 28.4574 24.442 28.5269 24.4412C28.6299 24.4103 28.7369 24.3926 28.8376 24.3545C28.9191 24.3367 28.8254 24.2853 28.805 24.2551C28.743 24.2245 28.689 24.3501 28.619 24.2877C28.5649 24.2463 28.5686 24.1676 28.5485 24.107C28.5348 24.0286 28.5383 23.9381 28.4817 23.8758C28.4428 23.8345 28.39 23.8245 28.3354 23.827H28.3354ZM27.9416 24.3744C27.9489 24.3742 27.9571 24.3778 27.9705 24.3852C27.9958 24.3992 28.0139 24.4224 28.0139 24.4412C28.0138 24.4535 28.0107 24.4543 27.9922 24.4629C27.9808 24.4681 27.9678 24.4738 27.9633 24.4737C27.9528 24.4736 27.9272 24.4531 27.9272 24.4448C27.9271 24.4414 27.9238 24.4283 27.9199 24.4177C27.9131 24.3992 27.9142 24.3994 27.9235 24.387C27.9295 24.3791 27.9343 24.3746 27.9416 24.3744H27.9416ZM28.3191 24.3942C28.3407 24.3928 28.3534 24.3995 28.3625 24.4159C28.373 24.4349 28.3659 24.4495 28.339 24.4611C28.3272 24.4662 28.3155 24.4703 28.3137 24.4701C28.3119 24.4699 28.3022 24.4642 28.292 24.4575C28.2764 24.4472 28.2742 24.4422 28.274 24.4304C28.2738 24.4121 28.2942 24.3959 28.3191 24.3942H28.3191ZM27.8025 24.3996C27.8088 24.3987 27.8146 24.402 27.8224 24.4087C27.8328 24.4176 27.8361 24.4248 27.8386 24.443C27.8405 24.4557 27.8402 24.472 27.8386 24.4791C27.8358 24.4922 27.8356 24.4916 27.8061 24.4918C27.7691 24.4921 27.7657 24.4881 27.7664 24.4538C27.7668 24.4321 27.7671 24.4262 27.779 24.4141C27.7883 24.4047 27.7962 24.4006 27.8025 24.3996ZM27.4846 24.4828C27.4961 24.4854 27.507 24.4942 27.5099 24.508C27.5137 24.5264 27.5103 24.5347 27.4954 24.5424C27.4826 24.5489 27.453 24.5511 27.4449 24.546C27.4422 24.5443 27.4368 24.54 27.434 24.5351C27.4301 24.5281 27.4308 24.5248 27.4358 24.5207C27.4393 24.5178 27.4431 24.5138 27.443 24.5117C27.443 24.5095 27.4469 24.5022 27.4521 24.4954C27.4605 24.4842 27.4731 24.48 27.4846 24.4828H27.4846ZM28.0193 24.5514C28.0296 24.5513 28.0383 24.5549 28.0446 24.5604C28.0553 24.5698 28.0549 24.5836 28.0428 24.5929C28.0349 24.599 27.9924 24.5984 27.9777 24.5929C27.9712 24.5905 27.9687 24.5872 27.9687 24.5803C27.9686 24.5722 27.9709 24.5671 27.985 24.5604C27.9968 24.5548 28.009 24.5515 28.0193 24.5514H28.0193ZM27.0267 24.8299C27.0212 24.8263 27.013 24.8232 27.0212 24.8171C27.0312 24.7996 27.0512 24.7936 27.0689 24.7871C27.1006 24.7734 27.1279 24.7501 27.1483 24.7224C27.1512 24.7032 27.1728 24.6927 27.1727 24.6726C27.1729 24.6452 27.1745 24.617 27.1678 24.5902C27.1604 24.5656 27.1417 24.5467 27.12 24.5339C27.1052 24.5222 27.0811 24.519 27.0756 24.4984C27.0726 24.4786 27.0903 24.4635 27.0964 24.4459C27.1093 24.4215 27.1202 24.3959 27.1341 24.3721C27.149 24.3555 27.1721 24.3712 27.1799 24.3873C27.1908 24.4034 27.2005 24.4206 27.206 24.4392C27.2234 24.4584 27.2389 24.4809 27.2452 24.5063C27.2538 24.5243 27.2674 24.5412 27.2666 24.5622C27.2666 24.5863 27.2801 24.6077 27.2793 24.6319C27.2801 24.6643 27.28 24.6981 27.2682 24.7287C27.2601 24.7457 27.2439 24.7558 27.2331 24.771C27.2147 24.7881 27.1944 24.8045 27.1707 24.8136C27.154 24.8189 27.1443 24.8382 27.1234 24.8335C27.0936 24.834 27.0635 24.8381 27.034 24.8333C27.0358 24.8364 27.0249 24.828 27.0267 24.83V24.8299ZM26.6308 24.8559C26.6167 24.8415 26.6137 24.8354 26.6135 24.8212C26.6134 24.8069 26.6161 24.8013 26.6299 24.7874C26.6552 24.7618 26.6676 24.7612 26.7113 24.7833C26.7531 24.8045 26.7672 24.8064 26.771 24.7914C26.7746 24.7769 26.7987 24.7637 26.8215 24.7636C26.836 24.7635 26.8441 24.7664 26.8557 24.7754C26.8703 24.7867 26.871 24.7885 26.8713 24.8146C26.8716 24.8414 26.8712 24.8424 26.8545 24.8572C26.8385 24.8713 26.8359 24.8722 26.8161 24.8702C26.7908 24.8676 26.7756 24.8561 26.7715 24.8362C26.7685 24.8217 26.7635 24.8183 26.7597 24.8281C26.7585 24.8312 26.7522 24.8351 26.7459 24.8367C26.7341 24.8397 26.7141 24.8523 26.7 24.8656C26.6946 24.8707 26.6852 24.8731 26.67 24.8732C26.6494 24.8734 26.6466 24.8722 26.6308 24.8559H26.6308ZM25.4851 24.3415C25.4467 24.3419 25.4053 24.3742 25.4002 24.4119C25.409 24.4554 25.4451 24.498 25.4219 24.5438C25.4379 24.6024 25.3779 24.6246 25.337 24.5908C25.3123 24.5346 25.2998 24.4731 25.2629 24.4228C25.2164 24.4096 25.1962 24.4839 25.1636 24.5095C25.1797 24.5531 25.2269 24.5923 25.2322 24.6468C25.2435 24.6997 25.2113 24.7584 25.1654 24.7859C25.1257 24.8237 25.0714 24.8102 25.0227 24.8184C24.9635 24.853 25.0661 24.8656 25.0931 24.8671C25.1537 24.8733 25.2165 24.8653 25.2611 24.8202C25.3056 24.799 25.3021 24.7221 25.355 24.7136C25.4469 24.7095 25.5379 24.7277 25.6296 24.7299C25.6787 24.7416 25.7547 24.724 25.7886 24.7606C25.7887 24.8246 25.8429 24.8641 25.8951 24.8888C25.924 24.8968 25.9543 24.8611 25.9837 24.8545C26.0394 24.8367 26.0225 24.7677 26.0559 24.7407C26.1513 24.7355 26.2476 24.7366 26.3431 24.7353C26.3613 24.7357 26.3667 24.7099 26.3793 24.6992C26.3772 24.6622 26.3758 24.6256 26.3702 24.589C26.3518 24.5423 26.3732 24.4823 26.3395 24.4426C26.2915 24.4296 26.2507 24.4735 26.2022 24.477C26.1487 24.5008 26.1036 24.5503 26.1011 24.6106C26.0694 24.6625 26.0186 24.6014 26.036 24.5583C26.034 24.5395 26.0401 24.5175 26.0342 24.5005C26.0049 24.4653 25.9536 24.4768 25.9132 24.4716C25.8543 24.4739 25.7969 24.4612 25.738 24.4625C25.6864 24.4586 25.6327 24.467 25.5826 24.4535C25.523 24.4518 25.5312 24.3935 25.5212 24.3523C25.5106 24.3445 25.4979 24.3414 25.4851 24.3415ZM25.6007 24.5546C25.6205 24.5551 25.6392 24.5576 25.6585 24.5601C25.6834 24.5642 25.71 24.5515 25.7344 24.5601C25.7908 24.5697 25.8473 24.5674 25.9042 24.5727C25.9192 24.5725 25.9299 24.5834 25.9403 24.5926C25.9404 24.6321 25.9404 24.6723 25.9403 24.7118C25.9386 24.7267 25.9447 24.7464 25.9313 24.757C25.927 24.7599 25.9221 24.7632 25.9168 24.7642C25.9012 24.7601 25.8846 24.7498 25.8771 24.7353C25.8747 24.7146 25.8781 24.6946 25.8789 24.6739C25.8785 24.6685 25.8812 24.6602 25.8789 24.6558C25.8666 24.6471 25.8527 24.6414 25.8373 24.6413C25.7882 24.6397 25.7401 24.636 25.691 24.6341C25.6502 24.6315 25.6082 24.6376 25.5682 24.6269C25.5527 24.6212 25.5325 24.6232 25.523 24.607C25.5095 24.5913 25.529 24.5725 25.5429 24.5655C25.5613 24.5571 25.5809 24.5543 25.6007 24.5546L25.6007 24.5546ZM26.2528 24.5691C26.262 24.569 26.2649 24.572 26.2691 24.589C26.2717 24.5998 26.2748 24.6131 26.2763 24.6179C26.2784 24.6247 26.275 24.6269 26.2654 24.6305C26.2369 24.6413 26.2085 24.6402 26.1986 24.6269C26.1941 24.6209 26.1994 24.6018 26.2076 24.5944C26.2244 24.5794 26.2429 24.5691 26.2528 24.5691Z" fill="#C09300"/>
<path d="M26.7058 17.0149C26.7444 17.0172 26.6537 16.8086 26.6537 16.8086C26.7557 16.9129 27.141 16.9378 27.141 16.9378C26.9098 16.8357 26.6787 16.0652 26.7058 15.4511C26.7308 14.8346 26.6175 14.5921 26.5268 14.5015C26.4112 14.3859 26.0396 14.2839 25.7948 14.2703C25.6565 14.2635 25.6792 14.3745 25.6792 14.3745C25.4231 14.3088 25.1671 14.2839 25.0515 14.3609C24.9426 14.4335 24.92 14.7961 24.9993 14.7326C25.1919 14.5785 25.3597 14.719 25.4752 14.8867C25.5772 15.0341 25.5704 15.4511 25.4231 15.9383C25.269 16.4505 24.8474 16.9627 24.8474 16.9627C25.0763 16.9627 25.3982 16.7588 25.3982 16.7588L25.3211 17.0783C25.5636 16.9627 25.7563 16.7837 25.7563 16.7837L25.9874 17.0261C26.0645 16.9242 26.2186 16.7837 26.2186 16.7837C26.2186 16.7837 26.4112 16.9877 26.7058 17.0149Z" fill="white" stroke="#C09300" stroke-width="0.0704046"/>
<path d="M26.3839 15.6056C26.3839 15.6056 26.436 16.4895 26.6536 16.809M25.77 15.5397C25.77 15.5397 25.6408 16.4893 25.3983 16.759L25.77 15.5397ZM25.974 15.5149C25.974 15.5149 25.9242 16.4757 25.7565 16.784L25.974 15.5149ZM26.155 15.5536C26.155 15.5536 26.155 16.6052 26.2184 16.7842L26.155 15.5536Z" stroke="#C09300" stroke-width="0.0734103"/>
<path d="M25.5365 15.0796C25.5252 14.9958 25.5048 14.93 25.4753 14.8869C25.3597 14.7193 25.192 14.5787 24.9994 14.7328C24.9994 14.7328 25.0651 14.5288 25.2056 14.5221C25.3144 14.5153 25.5614 14.6036 25.779 14.9753C25.779 14.9753 25.6181 14.9391 25.5796 14.9731C25.507 15.0365 25.5365 15.0796 25.5365 15.0796Z" fill="#C09300" stroke="#C09300" stroke-width="0.0204624"/>
<path d="M24.9793 14.4814C24.9951 14.4292 25.0201 14.3817 25.0518 14.3613C25.1674 14.2842 25.4235 14.3091 25.6796 14.3748C25.6796 14.3748 25.6569 14.2638 25.7952 14.2706C26.0399 14.2842 26.4116 14.3862 26.5272 14.5018C26.5543 14.5313 26.5861 14.5743 26.6133 14.64H26.6088C26.5521 14.5607 26.3912 14.5653 26.3527 14.5698C26.2914 14.5766 26.2529 14.5743 26.1713 14.5947C26.1328 14.6037 26.0739 14.6151 26.0421 14.64C26.0173 14.6604 25.9968 14.7352 25.9583 14.7352C25.8971 14.7352 25.9017 14.7194 25.8858 14.7012C25.8654 14.6763 25.854 14.64 25.8336 14.6422C25.7702 14.6536 25.6682 14.6037 25.5391 14.5018C25.4099 14.3998 25.36 14.3748 25.1923 14.3862C25.0269 14.3998 24.9747 14.4927 24.9747 14.4927L24.9793 14.4814Z" fill="#C09300" stroke="#C09300" stroke-width="0.0204624"/>
<path d="M25.9263 14.6309C25.9639 14.6309 25.9943 14.6005 25.9943 14.5629C25.9943 14.5254 25.9639 14.495 25.9263 14.495C25.8888 14.495 25.8583 14.5254 25.8583 14.5629C25.8583 14.6005 25.8888 14.6309 25.9263 14.6309Z" fill="white"/>
<path d="M25.9932 21.3004C27.88 19.8492 27.7182 17.7234 27.7182 17.7234C27.6684 17.7333 27.6211 17.7383 27.5713 17.7383C27.1755 17.7383 26.2316 17.5119 26.0113 17.2243C25.7754 17.4846 24.8107 17.7383 24.4174 17.7383C24.3677 17.7383 24.3179 17.7333 24.2706 17.7234C24.2706 17.7234 24.1063 19.8492 25.9931 21.3004H25.9932Z" fill="white" stroke="#C09300" stroke-width="0.0664743"/>
<mask id="mask1_1_38717" style="mask-type:alpha" maskUnits="userSpaceOnUse" x="24" y="17" width="4" height="5">
<path d="M27.5678 17.8791C27.5515 17.8801 27.5352 17.8806 27.5188 17.8806C27.1601 17.8806 26.3269 17.6965 26.0058 17.4206C25.6694 17.6755 24.8225 17.8806 24.4696 17.8806C24.453 17.8806 24.4367 17.8786 24.4205 17.8756C24.4196 17.956 24.4238 18.0393 24.4288 18.1151C24.4475 18.3984 24.4972 18.6827 24.5726 18.9563C24.8101 19.8172 25.2961 20.5489 25.993 21.104C26.6904 20.5485 27.177 19.8161 27.415 18.9545C27.4905 18.6809 27.5404 18.3967 27.5592 18.1134C27.5636 18.0341 27.5681 17.937 27.5678 17.8791Z" fill="#FFA654" stroke="#C09300" stroke-width="0.0529482"/>
</mask>
<g mask="url(#mask1_1_38717)">
<path fill-rule="evenodd" clip-rule="evenodd" d="M24.4113 17.4005H25.4667V21.1177H24.4113V17.4005Z" fill="#C09300"/>
<path fill-rule="evenodd" clip-rule="evenodd" d="M25.4667 17.4005H26.5221V21.1177H25.4667V17.4005Z" fill="white"/>
<path fill-rule="evenodd" clip-rule="evenodd" d="M26.5221 17.4005H27.5775V21.1177H26.5221V17.4005Z" fill="#C09300"/>
</g>
<path d="M27.5677 17.8791C27.5515 17.8801 27.5351 17.8806 27.5187 17.8806C27.16 17.8806 26.3269 17.6965 26.0057 17.4206C25.6693 17.6755 24.8224 17.8806 24.4695 17.8806C24.453 17.8806 24.4366 17.8786 24.4204 17.8756C24.4196 17.956 24.4238 18.0393 24.4287 18.1151C24.4474 18.3984 24.4971 18.6827 24.5725 18.9563C24.81 19.8172 25.296 20.5489 25.9929 21.104C26.6903 20.5485 27.1769 19.8161 27.4149 18.9545C27.4905 18.6809 27.5403 18.3967 27.5592 18.1134C27.5636 18.0341 27.568 17.937 27.5677 17.8791V17.8791Z" stroke="#C09300" stroke-width="0.0529482"/>
<rect x="2" y="2" width="48" height="12" fill="#EE5757"/>
</g>
<path d="M11.7035 1.61228C6.53056 2.04084 2.23921 5.77712 1.57724 11.0101C1.25164 13.5841 1 16.6548 1 20C1 23.3452 1.25164 26.4159 1.57724 28.9899C2.23922 34.2229 6.53056 37.9592 11.7035 38.3877C15.5784 38.7087 20.5852 39 26 39C31.4148 39 36.4216 38.7087 40.2965 38.3877C45.4694 37.9592 49.7608 34.2229 50.4228 28.9899C50.7484 26.4159 51 23.3452 51 20C51 16.6548 50.7484 13.5841 50.4228 11.0101C49.7608 5.77712 45.4694 2.04084 40.2965 1.61228C36.4216 1.29127 31.4148 1 26 1C20.5852 1 15.5784 1.29127 11.7035 1.61228Z" stroke="#E6E6FA" stroke-width="2"/>
</svg>
