<svg width="52" height="40" viewBox="0 0 52 40" fill="none" xmlns="http://www.w3.org/2000/svg">
<mask id="mask0_1_37305" style="mask-type:alpha" maskUnits="userSpaceOnUse" x="2" y="2" width="48" height="36">
<path d="M2.56934 11.1356C3.16681 6.41247 7.0415 3.00193 11.7861 2.60887C15.6412 2.28949 20.6196 2 26 2C31.3804 2 36.3588 2.28949 40.2139 2.60887C44.9585 3.00193 48.8332 6.41247 49.4307 11.1356C49.752 13.6759 50 16.704 50 20C50 23.296 49.752 26.3241 49.4307 28.8644C48.8332 33.5875 44.9585 36.9981 40.2139 37.3911C36.3588 37.7105 31.3804 38 26 38C20.6196 38 15.6412 37.7105 11.7861 37.3911C7.0415 36.9981 3.16681 33.5875 2.56934 28.8644C2.248 26.3241 2 23.296 2 20C2 16.704 2.248 13.6759 2.56934 11.1356Z" fill="#00D0BF"/>
</mask>
<g mask="url(#mask0_1_37305)">
<rect x="2" y="20" width="48" height="18" fill="#75AAFA"/>
<rect x="2" y="2" width="48" height="18" fill="#59C785"/>
<path d="M2 0L50 20L2 40V0Z" fill="#EE5757"/>
<path d="M18.3488 26.8273C17.7377 26.996 17.3873 27.4702 17.3963 27.9175L20.4044 27.9054C20.4315 27.4247 20.036 26.9802 19.434 26.8051C22.3792 26.7443 24.9378 25.641 25.4028 24.9332C24.9427 24.7335 24.4107 25.0549 24.0314 24.9809C24.9318 24.5647 27.6295 22.8186 27.191 20.9467C26.85 21.9864 25.8172 22.8467 25.3773 23.0777C26.3851 21.5475 27.7611 19.9544 26.5673 18.7207C26.6276 19.4357 26.1129 20.2226 25.8856 20.2818C26.4702 18.6649 27.028 16.635 25.7614 15.2968C25.9277 15.7804 25.8606 17.1449 25.6315 17.2062C25.561 16.1068 25.3734 13.7943 24.2156 13.8272C24.5833 14.1546 24.7442 15.0481 24.7524 15.9506C24.4885 15.3323 24.1887 14.8668 23.5473 14.4103C23.0284 13.4152 22.1052 12.5907 21.1819 12C21.2855 12.7243 21.3713 13.2958 22.3826 14.047C21.8554 14.0142 21.3282 13.0146 20.7647 12.9869C20.3164 12.9653 19.9647 13.3931 19.2322 13.1469C19.3133 13.3887 19.655 13.4958 19.7272 13.6747C19.5703 13.783 19.1978 13.6578 18.8882 13.4965C19.3141 14.0767 19.9741 14.4178 20.5344 14.3027C21.2008 14.1746 21.9152 14.2423 22.5966 14.6301C22.4226 14.7194 21.7452 14.7189 21.3105 14.6645C21.7056 15.0645 21.9706 15.3297 22.6577 15.3253C23.2713 15.3213 23.5931 14.9979 23.7506 15.1982C24.1355 15.6543 24.3946 16.1101 24.7165 16.647C24.0053 16.7256 24.2197 15.8427 23.4277 15.3911C22.9826 16.3122 23.9395 17.4041 24.5909 17.858C24.5997 18.5504 24.7009 19.1297 24.9945 19.6568C25.1925 20.0285 25.4484 20.4089 25.3519 21.2476C24.962 20.9636 24.5809 20.0058 24.7211 19.2455C24.2331 19.3786 24.0422 20.2368 24.2723 20.6688C24.4441 20.9977 24.5588 21.6271 24.3606 21.9084C24.1675 22.1706 24.1473 22.1413 24.1498 22.7039C24.1567 23.0405 23.9686 23.4386 23.6623 23.7162C23.7263 23.479 23.7992 23.0709 23.7283 22.8158C23.4862 23.2265 22.8787 23.6515 22.6875 24.0931C22.4996 24.5358 22.452 25.3024 21.543 25.4792C20.3735 25.7113 19.9699 25.914 19.2174 26.2219C19.1339 25.6504 19.3838 24.4585 19.8617 24.5264C20.3284 24.6095 21.7432 24.039 21.2371 22.8471C21.1371 23.2227 20.8037 23.5893 20.4432 23.6055C20.8327 23.1002 21.5278 22.577 21.1892 21.7303C21.0011 22.0902 20.7051 22.5221 20.2563 22.7652C20.7374 21.8431 20.3122 21.5673 19.7408 22.3267C19.5251 22.6197 19.3947 23.2067 19.2576 23.9523C19.0332 23.3459 19.048 22.5476 18.7821 21.8995C18.5043 21.1985 19.1508 21.0134 19.455 21.0697C20.1999 21.2686 21.4448 21.2684 21.3524 20.0378C21.0306 20.4541 20.4664 20.5827 19.8571 20.4328C20.5414 19.9331 21.0817 18.9932 20.3192 18.5025C20.2938 19.0229 19.8911 19.6063 19.3534 19.875C19.2276 19.436 19.2276 18.97 19.3355 18.4592C19.0353 18.7751 18.816 19.4326 18.6417 20.1801C18.6285 19.4413 18.7683 18.9089 18.8719 18.5115C19.0291 17.931 19.4196 18.3087 20.0174 18.3515C20.5931 18.3842 21.3857 18.066 21.2342 17.2853C21.0376 17.5942 20.6341 17.7144 20.2219 17.6817C20.7182 17.381 21.583 16.8467 21.1087 16.0249C20.9095 16.3361 20.845 16.6024 20.2683 16.6979C20.4194 16.3505 20.4445 15.8593 20.892 15.6647C20.0936 15.5058 19.6365 16.0297 19.4042 16.8503C19.31 16.2814 19.1978 16.0719 19.1755 15.6558C19.6071 15.1764 19.6523 14.2387 18.7179 14.0291C18.6625 14.5127 18.6789 14.628 18.7852 15.0218C18.3466 14.7613 17.7285 14.6175 17.3169 14.986C17.5957 15.2869 18.0273 15.5518 18.6925 15.2236C18.5354 15.7377 18.1267 15.6497 17.5651 15.4537C17.9084 16.0984 18.3416 16.2129 18.8196 16.1386C19.0699 16.7985 19.0809 17.2999 18.3495 18.261C18.3833 17.6638 18.3409 17.2188 17.8664 16.736C17.4598 16.3377 17.1293 16.753 17.7647 17.6383C17.3792 17.3545 16.943 16.7783 16.8116 16.2022C16.6845 16.9139 16.7989 17.7527 17.1929 18.2229C17.0066 18.422 16.7947 18.2017 16.4812 17.7146C16.5998 19.2735 17.2649 19.5743 18.1588 19.2268C18.1842 20.0825 18.1842 20.8748 18.235 21.9084C17.7139 21.1587 17.0531 20.5995 16.6845 20.4597C16.5702 20.8791 17.0023 21.4255 17.2437 21.7305C16.8752 21.6542 16.0745 21.0443 16.0745 21.0443C15.994 21.739 16.8922 22.3829 17.4725 22.671C16.7905 22.6413 16.4896 22.3829 16.0491 21.9593C16.0576 23.8868 18.1375 23.5521 18.5273 23.2555C18.5782 24.2045 18.6506 25.3015 18.7015 26.2504C18.1135 26.1478 18.1597 25.971 17.6566 25.9245C16.2602 25.8701 15.1525 24.2482 14.7856 23.0551C14.6804 23.2515 14.7639 23.4569 14.6676 23.6981C14.4409 23.1125 14.1513 22.3562 13.7628 22.0043C13.8618 22.3457 13.8722 22.6926 13.8378 23.3306C13.7045 22.9172 13.5805 22.7905 13.5715 22.3052C13.5801 21.9326 13.931 21.6577 13.9116 21.1336C13.8972 20.7511 13.5482 19.9218 13.4969 19.2799C13.3279 19.9406 13.2219 20.6371 12.9631 21.0461C13.0917 20.3405 13.0504 19.8536 13.268 19.3788C13.5193 18.8789 13.733 18.4326 13.5657 17.9281C13.4052 18.1229 13.4604 18.3 13.0573 18.7734C12.9697 18.2586 13.5786 17.4345 14.1694 17.1032C14.5862 16.8837 15.1115 16.0983 14.7693 15.5599C14.3774 15.8414 14.2014 16.2217 13.6478 16.8715C14.0427 15.3278 15.0687 14.924 16.2971 14.9187C16.5689 14.9174 17.1169 14.8193 17.2707 14.4596C16.9244 14.5933 16.5151 14.6103 16.1508 14.5374C16.4159 14.1481 16.9742 14.1987 17.4945 14.1964C17.9026 14.1945 18.5397 14.1391 18.7973 13.5579C18.2995 13.7736 17.523 13.8184 17.0342 13.6657C17.8116 13.2629 19.0294 13.2195 19.654 12.6908C18.9421 12.1595 17.1607 12.8146 16.0355 13.5863C16.35 13.2988 16.847 12.7886 17.1212 12.3768C16.5059 12.0818 14.9496 13.8059 14.4134 14.8303C13.9042 15.1179 13.7005 15.5687 13.5028 15.8833C13.7741 14.9664 13.8029 14.3011 14.0292 13.5461C12.2837 14.147 13.0092 17.3722 12.6295 18.1438C12.6742 17.2919 12.638 16.1975 12.2873 15.6332C11.7497 16.0434 11.7063 18.4576 12.2111 20.4674C12.0288 19.9295 11.6847 19.4275 11.5743 18.7728C10.7786 20.2241 12.0408 21.9363 13.0963 23.2888C12.3017 22.8749 11.5161 21.9847 11 21.2384C11.1424 23.8359 13.855 24.3756 14.2761 25.014C13.7045 24.748 12.6118 24.2215 12.1481 24.7732C12.903 24.9474 13.5051 25.1488 13.9902 25.4669C14.6942 26.3458 16.0272 26.7302 18.3488 26.8273Z" fill="#FCD95E"/>
</g>
<path d="M11.7035 1.61228C6.53056 2.04084 2.23921 5.77712 1.57724 11.0101C1.25164 13.5841 1 16.6548 1 20C1 23.3452 1.25164 26.4159 1.57724 28.9899C2.23922 34.2229 6.53056 37.9592 11.7035 38.3877C15.5784 38.7087 20.5852 39 26 39C31.4148 39 36.4216 38.7087 40.2965 38.3877C45.4694 37.9592 49.7608 34.2229 50.4228 28.9899C50.7484 26.4159 51 23.3452 51 20C51 16.6548 50.7484 13.5841 50.4228 11.0101C49.7608 5.77712 45.4694 2.04084 40.2965 1.61228C36.4216 1.29127 31.4148 1 26 1C20.5852 1 15.5784 1.29127 11.7035 1.61228Z" stroke="#E6E6FA" stroke-width="2"/>
</svg>
