<svg width="52" height="40" viewBox="0 0 52 40" fill="none" xmlns="http://www.w3.org/2000/svg">
<mask id="mask0_1_40775" style="mask-type:alpha" maskUnits="userSpaceOnUse" x="2" y="2" width="48" height="36">
<path d="M2.56934 11.1356C3.16681 6.41247 7.0415 3.00193 11.7861 2.60887C15.6412 2.28949 20.6196 2 26 2C31.3804 2 36.3588 2.28949 40.2139 2.60887C44.9585 3.00193 48.8332 6.41247 49.4307 11.1356C49.752 13.6759 50 16.704 50 20C50 23.296 49.752 26.3241 49.4307 28.8644C48.8332 33.5875 44.9585 36.9981 40.2139 37.3911C36.3588 37.7105 31.3804 38 26 38C20.6196 38 15.6412 37.7105 11.7861 37.3911C7.0415 36.9981 3.16681 33.5875 2.56934 28.8644C2.248 26.3241 2 23.296 2 20C2 16.704 2.248 13.6759 2.56934 11.1356Z" fill="#00D0BF"/>
</mask>
<g mask="url(#mask0_1_40775)">
<rect x="2" y="26" width="48" height="12" fill="#EE5757"/>
<rect x="2" y="14" width="48" height="12" fill="#FCD95E"/>
<rect x="2" y="2" width="48" height="12" fill="#59C785"/>
</g>
<path d="M11.7035 1.61228C6.53056 2.04084 2.23921 5.77712 1.57724 11.0101C1.25164 13.5841 1 16.6548 1 20C1 23.3452 1.25164 26.4159 1.57724 28.9899C2.23922 34.2229 6.53056 37.9592 11.7035 38.3877C15.5784 38.7087 20.5852 39 26 39C31.4148 39 36.4216 38.7087 40.2965 38.3877C45.4694 37.9592 49.7608 34.2229 50.4228 28.9899C50.7484 26.4159 51 23.3452 51 20C51 16.6548 50.7484 13.5841 50.4228 11.0101C49.7608 5.77712 45.4694 2.04084 40.2965 1.61228C36.4216 1.29127 31.4148 1 26 1C20.5852 1 15.5784 1.29127 11.7035 1.61228Z" stroke="#E6E6FA" stroke-width="2"/>
<path d="M26 31C32.0751 31 37 26.0751 37 20C37 13.9249 32.0751 9 26 9C19.9249 9 15 13.9249 15 20C15 26.0751 19.9249 31 26 31Z" fill="#0F47AF"/>
<path d="M26 11.2L25.6144 12.3866L27.2046 17.2807H25.0845L24.8462 18.014H31.6444L32.6538 17.2807H27.9757L26 11.2Z" fill="#FCDD09"/>
<path d="M28.3707 16.737L31.1725 12.8807L28.3707 16.737Z" fill="black"/>
<path d="M28.3707 16.737L31.1725 12.8807" stroke="#FCDD09" stroke-width="0.366667"/>
<path d="M33.8341 17.3628L32.6257 17.2713L28.7523 20.0851L28.0118 17.9575L27.265 17.9009L29.6394 24.7232L30.6555 25.5536L29.0216 20.8589L33.8341 17.3628Z" fill="#FCDD09"/>
<path d="M29.5686 21.268L34.102 22.741L29.5686 21.268Z" fill="black"/>
<path d="M29.5686 21.268L34.102 22.741" stroke="#FCDD09" stroke-width="0.366667"/>
<path d="M30.843 27.1426L30.4276 25.9214L26.1956 22.6405L27.8746 21.4697L27.6178 20.715L22.2343 24.469L21.8804 25.6495L25.585 23.0663L30.843 27.1426Z" fill="#FCDD09"/>
<path d="M20.5991 26.7147L21.6251 25.9193L23.3385 20.8822L25.0175 22.0529L25.6516 21.5613L20.2681 17.8074L19.0234 17.8732L22.7279 20.4564L20.5991 26.7147Z" fill="#FCDD09"/>
<path d="M22.0496 20.8007L17.5163 22.2736L22.0496 20.8007Z" fill="black"/>
<path d="M22.0496 20.8007L17.5163 22.2736" stroke="#FCDD09" stroke-width="0.366667"/>
<path d="M17.768 17.3274L18.7071 18.0096L23.6913 17.6318L22.9508 19.7595L23.5312 20.1811L25.9056 13.3588L25.5945 12.1634L23.9606 16.858L17.768 17.3274Z" fill="#FCDD09"/>
<path d="M23.7201 16.4345L20.9183 12.5782L23.7201 16.4345Z" fill="black"/>
<path d="M23.7201 16.4345L20.9183 12.5782" stroke="#FCDD09" stroke-width="0.366667"/>
</svg>
