<svg width="52" height="40" viewBox="0 0 52 40" fill="none" xmlns="http://www.w3.org/2000/svg">
<mask id="mask0_1_32894" style="mask-type:alpha" maskUnits="userSpaceOnUse" x="2" y="2" width="48" height="36">
<path d="M2.56934 11.1356C3.16681 6.41247 7.0415 3.00193 11.7861 2.60887C15.6412 2.28949 20.6196 2 26 2C31.3804 2 36.3588 2.28949 40.2139 2.60887C44.9585 3.00193 48.8332 6.41247 49.4307 11.1356C49.752 13.6759 50 16.704 50 20C50 23.296 49.752 26.3241 49.4307 28.8644C48.8332 33.5875 44.9585 36.9981 40.2139 37.3911C36.3588 37.7105 31.3804 38 26 38C20.6196 38 15.6412 37.7105 11.7861 37.3911C7.0415 36.9981 3.16681 33.5875 2.56934 28.8644C2.248 26.3241 2 23.296 2 20C2 16.704 2.248 13.6759 2.56934 11.1356Z" fill="#00D0BF"/>
</mask>
<g mask="url(#mask0_1_32894)">
<rect x="2" y="2" width="48" height="36" fill="#75AAFA"/>
<path d="M32 13V23.153C32 26.4738 38 28.4455 38 28.4455C38 28.4455 44 26.4736 44 23.153V13H32Z" fill="white"/>
<path d="M37.1683 16.5674V21.1388H32V22.8022H37.1683V28.1289L38 28.4456L38.8317 28.1289V22.8022H44V21.1388H38.8317V16.5674H37.1683Z" fill="#C8102E"/>
<path d="M32 13H44V16.9208H32V13Z" fill="#C8102E"/>
<path d="M32.9619 15.9324C33.3343 15.9324 33.6363 15.6894 33.6363 15.3897C33.6363 15.09 33.3343 14.847 32.9619 14.847C32.5894 14.847 32.2875 15.09 32.2875 15.3897C32.2875 15.6894 32.5894 15.9324 32.9619 15.9324Z" fill="white" stroke="black" stroke-width="0.0397525" stroke-miterlimit="3"/>
<path d="M32.9619 15.4113C33.2931 15.4113 33.5616 15.2756 33.5616 15.1082C33.5616 14.9408 33.2931 14.8051 32.9619 14.8051C32.6307 14.8051 32.3622 14.9408 32.3622 15.1082C32.3622 15.2756 32.6307 15.4113 32.9619 15.4113Z" fill="white" stroke="black" stroke-width="0.0398515" stroke-miterlimit="3"/>
<path d="M32.9619 16.0174C33.2931 16.0174 33.5616 15.8817 33.5616 15.7143C33.5616 15.5469 33.2931 15.4112 32.9619 15.4112C32.6307 15.4112 32.3622 15.5469 32.3622 15.7143C32.3622 15.8817 32.6307 16.0174 32.9619 16.0174Z" fill="white" stroke="black" stroke-width="0.0398515" stroke-miterlimit="3"/>
<path d="M32.9619 15.6929C33.2931 15.6929 33.5616 15.5572 33.5616 15.3898C33.5616 15.2224 33.2931 15.0867 32.9619 15.0867C32.6307 15.0867 32.3622 15.2224 32.3622 15.3898C32.3622 15.5572 32.6307 15.6929 32.9619 15.6929Z" fill="white" stroke="black" stroke-width="0.0398515" stroke-miterlimit="3"/>
<path d="M43.703 16.1431L43.6047 15.872C43.6047 15.872 43.3357 15.7623 43.3152 15.6194C43.2673 15.2385 43.1313 15.0958 42.9276 15.0413C42.7234 14.9869 42.5876 15.0754 42.5876 15.0754C42.5262 15.1639 42.22 15.1639 42.05 15.1705C41.88 15.1775 41.8771 15.0967 41.8771 15.0967C41.745 15.0976 41.6895 15.0006 41.6895 15.0006C41.6031 14.8279 41.5387 14.7634 41.496 14.7415C41.7166 14.7448 41.8828 14.643 42.1319 14.3816C42.4038 14.0959 42.598 14.2064 42.598 14.2064C42.466 14.4732 42.6419 14.4496 42.6419 14.4496C43.0023 14.2661 42.6894 13.8035 42.5806 13.8239C42.4718 13.8443 42.4408 13.771 42.4408 13.771C42.4441 13.8541 42.32 13.8871 42.32 13.8871C42.4131 13.3587 42.0978 13.2186 42.0978 13.2186C42.0501 13.2662 42.0227 13.3613 42.0227 13.3613C41.9344 13.6811 41.642 13.6335 41.3153 13.4769C40.9889 13.3206 40.1183 13.6403 39.8464 13.7491C39.5741 13.8579 39.0777 14.028 38.6288 13.7763C38.18 13.5245 38.0709 13.5721 37.8942 13.6198C37.7172 13.6673 37.4047 13.7424 37.2891 13.681C37.1733 13.6198 37.0414 13.616 37.0414 13.616C37.0729 13.5984 37.0237 13.5246 37.0237 13.5246C36.8878 13.341 37.0414 13.2285 37.0414 13.2285C37.0414 13.2285 36.7883 13.2998 36.889 13.7319L36.9352 13.7967C36.9352 13.7967 36.9692 13.9326 37.0442 13.9735L37.0414 14.0033C37.0414 14.0033 37.1055 13.9735 37.1256 14.0619C37.1463 14.1503 37.2415 14.0687 37.2823 13.994C37.2823 13.994 37.2141 14.3885 37.704 14.4836C37.704 14.4836 37.6492 14.4224 37.6697 14.3816C37.69 14.3408 37.6087 14.3065 37.6155 14.2455C37.6223 14.1845 37.4933 14.1572 37.5951 14.1094C37.6969 14.0618 37.7448 13.9665 37.9624 14.0958C38.1799 14.225 38.3502 14.198 38.3502 14.198C38.3502 14.198 38.2174 13.9256 38.2906 13.9258C38.3637 13.9259 38.6927 14.3332 38.8546 14.313C39.0166 14.2931 39.3295 14.1094 39.486 14.1774C39.486 14.1774 39.4994 14.0958 40.0979 13.9937C40.6965 13.8917 41.4348 13.5934 41.7117 13.8548C41.7117 13.8548 41.7441 14.0618 41.8596 14.1163C41.8596 14.1163 41.8389 14.5447 41.0979 14.3065L40.8291 14.2358C40.8291 14.2358 40.7878 14.1056 39.3784 14.4681C39.3784 14.4681 39.2955 14.4971 39.2411 14.538C39.1865 14.5786 39.1116 14.5175 38.8328 14.6194C38.5542 14.7217 37.5133 15.0618 36.8742 14.9392L36.8733 14.9409C36.7326 14.8989 36.6007 14.9206 36.5953 14.8984C36.5884 14.8712 36.6702 14.9053 36.6702 14.9053C36.6227 14.8508 36.6022 14.8464 36.6022 14.8464C36.0648 14.7874 36.1598 14.5447 36.1598 14.5447L36.1872 14.6196C36.2757 14.504 36.1529 14.2319 36.1529 14.2319L36.1478 14.2328C36.1464 14.2244 36.1449 14.2161 36.1428 14.2081L36.1872 14.1774C36.4457 13.9597 36.7451 13.9189 36.7451 13.9189C36.5681 13.7013 36.1939 13.817 36.1939 13.817C36.2008 13.5517 36.092 13.2456 36.092 13.2456C35.7245 13.2864 35.5139 13.5924 35.5139 13.5924C35.5003 13.3204 35.1533 13.1641 35.1533 13.1641C35.2824 13.3204 35.201 13.6945 35.201 13.6945L35.2146 13.7013C35.1931 13.7008 35.1805 13.7013 35.1805 13.7013L35.1728 13.7815L35.1601 13.7762C35.1601 13.7762 35.031 13.8237 34.8814 14.1638C34.8814 14.1638 34.8663 14.2442 34.8084 14.3166C34.8079 14.3073 34.8089 14.2988 34.8077 14.289C34.8077 14.289 34.6406 14.5079 34.2545 14.289C34.2545 14.289 33.7298 13.9777 33.5454 13.9892C33.361 14.0007 33.2398 14.0872 33.2515 14.139C33.2515 14.139 32.8305 14.1044 32.6865 14.3464C32.6865 14.3464 32.3695 14.4617 32.6405 14.7211C32.6405 14.7211 32.6768 14.8339 32.7556 14.8943C32.7556 14.8943 32.7444 14.6575 32.8018 14.7271C32.8018 14.7271 32.8167 14.7504 32.8451 14.7668C32.8526 14.8 32.8781 14.8922 32.9344 14.9392L32.9749 14.9263C32.9811 14.8673 32.9939 14.7927 33.007 14.7613C33.0132 14.7621 33.0181 14.7628 33.0204 14.763C33.0186 14.7647 33.0169 14.7658 33.0152 14.7673L33.0901 14.8826L33.1765 14.8365C33.217 14.8306 33.2688 14.8711 33.2688 14.8711L33.3668 14.7904C33.3662 14.7895 33.3656 14.7893 33.365 14.7884C33.4615 14.8045 33.4879 14.6174 33.4879 14.6174C33.5746 14.6402 33.6557 14.6147 33.7248 14.5729C33.7668 14.728 34.1105 14.8944 34.1105 14.8944C34.1105 14.8944 34.1164 14.8939 34.1253 14.8932C34.0962 14.9118 34.0789 14.9257 34.0789 14.9257C34.2352 15.0347 34.5278 15.0075 34.5278 15.0075C34.4054 15.0552 34.4225 15.2816 34.4225 15.2816C34.3511 15.3109 34.3441 15.3815 34.3441 15.3815C34.5822 15.4765 34.7448 15.3978 34.7448 15.3978C34.7579 15.4753 34.7386 15.4836 34.7386 15.4836C34.6435 15.6876 34.6027 15.8848 34.6027 15.8848C34.6047 15.8857 34.6072 15.8862 34.6092 15.8869C34.6063 15.8922 34.6027 15.8974 34.6004 15.9029C34.6004 15.9029 34.1854 16.047 34.001 16.2488C34.001 16.2488 33.9836 16.191 33.9317 16.191C33.8798 16.191 33.7184 16.0586 33.6434 16.0354C33.5687 16.0125 33.4591 16.0586 33.4302 16.0241C33.4041 15.9926 33.4158 15.7565 33.3659 15.7184C33.3661 15.7184 33.3669 15.7186 33.3669 15.7186L33.3149 15.5745C33.2804 15.6494 33.1363 15.632 33.1363 15.632C33.1306 15.6355 33.1084 15.6516 33.0771 15.675C33.0483 15.6766 33.0152 15.6667 33.0152 15.6667C33.0004 15.6697 32.9858 15.7112 32.9751 15.7516C32.9693 15.7558 32.9634 15.7603 32.9576 15.7647V15.7243C32.9289 15.7473 32.8712 15.7128 32.8481 15.7128C32.8368 15.7128 32.8228 15.7458 32.8115 15.7797C32.7528 15.7906 32.6751 15.7935 32.6751 15.7935C32.6521 15.805 32.6693 15.9837 32.6693 15.9837C32.5022 16.076 32.5828 16.2143 32.5828 16.2143C32.6751 16.6639 33.4417 16.4621 33.4994 16.5199C33.5569 16.5776 33.6896 16.5889 33.7588 16.5889C33.8279 16.5889 33.9142 16.7562 34.0124 16.7735C34.1104 16.7908 34.0124 16.6409 34.4669 16.5323C34.9213 16.4237 35.0728 16.2374 35.0728 16.2374C35.2152 16.2099 35.2548 16.0369 35.2654 15.9671C35.2668 15.9993 35.2706 16.0349 35.2758 16.0755C35.2963 16.232 35.1881 16.2889 35.1881 16.2889L35.5819 16.1707C35.7382 16.1299 35.7179 15.9938 35.7179 15.9938C35.8675 16.4223 36.1396 16.4495 36.1396 16.4495C36.1941 16.2862 36.1874 16.2386 36.1874 16.2386L36.3097 16.2319C36.3147 16.1397 36.2333 16.0722 36.1861 16.0409L36.3777 16.1571L36.4524 16.1435C36.4524 16.2115 36.5544 16.2725 36.5544 16.2725L36.5682 16.1843C36.6567 16.2999 36.8198 16.2591 36.8198 16.2591C36.8166 16.2385 36.8116 16.2172 36.8054 16.1956C37.1539 16.4107 37.7107 16.1367 37.7107 16.1367C37.8602 16.1707 37.8807 16.0822 37.8807 16.0822C38.0507 16.1025 38.0901 15.9863 38.0901 15.9863C38.4903 15.9517 38.7719 15.6672 38.7719 15.6672C38.969 15.6536 38.9754 15.5127 38.9754 15.5127C38.9754 15.5127 39.173 15.5517 39.3635 15.3136C39.8055 14.6811 40.4665 15.0104 40.4665 15.0104L40.0843 15.0346C39.0846 15.0279 39.4991 15.7078 39.4991 15.7078L39.5607 15.7012C39.6559 15.7216 39.9822 15.9801 39.8619 16.1726C39.86 16.176 39.8574 16.1791 39.8552 16.1822C39.6514 16.4612 39.2739 16.1951 39.1663 15.9596C39.0574 15.7217 38.8397 15.7761 38.8397 15.7761C38.8397 15.7761 38.2752 15.8714 38.5064 16.3202L38.5149 16.3205C38.5192 16.43 38.5879 16.5548 38.7892 16.6789C38.9023 16.8389 39.2741 16.8556 39.5471 16.7964C39.6742 16.7686 40.3448 16.4804 40.3448 16.4804C40.394 16.3343 40.5606 16.368 40.7102 16.1571C40.8598 15.9463 40.4993 15.8714 40.4177 15.7559C40.336 15.6401 40.4382 15.6606 40.4382 15.6606C40.7645 15.8375 40.7917 15.2729 40.7917 15.2729C40.8258 15.5992 41.1114 15.6877 41.1114 15.6877C41.2884 15.5111 41.1593 15.1505 41.1593 15.1505C41.581 15.9054 41.8364 15.7852 41.8364 15.7852C41.6094 15.6447 41.7237 15.4565 41.7237 15.4565C41.9275 16.2591 42.7643 15.5586 42.7643 15.5586C42.7235 15.6741 42.7645 15.742 42.8393 15.8169C42.914 15.8917 43.0024 15.9258 42.9618 16.0618C42.9209 16.1978 42.5334 16.1707 42.5334 16.1707C42.5334 16.1707 42.1523 16.1504 42.1866 16.4701C42.2065 16.5447 42.4583 16.5719 42.5536 16.5516C42.5536 16.5516 42.5143 16.5602 42.6551 16.579C42.7023 16.5851 42.7592 16.5861 42.8172 16.5842C42.9795 16.5792 43.1524 16.5516 43.1524 16.5516C43.3698 16.5042 43.3359 16.4291 43.3359 16.4291C43.6689 16.3677 43.7031 16.1431 43.7031 16.1431L43.703 16.1431Z" fill="#FEDD00" stroke="black" stroke-width="0.0594059" stroke-miterlimit="3"/>
<path d="M32.6512 14.7503C32.6515 14.7499 32.6691 14.7083 32.7027 14.7033C32.7286 14.6994 32.76 14.7186 32.7932 14.759L32.8114 14.7453C32.8106 14.7439 32.7216 14.6143 32.7571 14.5228C32.7729 14.4819 32.8122 14.454 32.8738 14.4401L32.8688 14.4177C32.7993 14.4336 32.7546 14.4663 32.7358 14.5146C32.7288 14.5327 32.7258 14.5518 32.7258 14.5709C32.7258 14.6156 32.7416 14.6609 32.7577 14.6957C32.7376 14.6831 32.718 14.6779 32.6992 14.6807C32.665 14.6859 32.6484 14.7105 32.6393 14.7265L32.6512 14.7503Z" fill="black"/>
<path d="M43.1485 16.5317C42.9213 16.5678 42.5877 16.5877 42.5612 16.519C42.5566 16.5067 42.5557 16.4577 42.7418 16.3365L42.7201 16.3032C42.5649 16.4043 42.5024 16.4774 42.5241 16.5332C42.5717 16.657 43.0587 16.5863 43.1559 16.5708L43.1485 16.5317Z" fill="black"/>
<path d="M38.802 16.6629C38.7502 16.5837 38.7735 16.4751 38.8712 16.34L38.839 16.3167C38.7304 16.4661 38.7068 16.5902 38.7686 16.6848L38.802 16.6629Z" fill="black"/>
<path d="M38.4951 16.3208C38.5001 16.4579 38.5968 16.5851 38.7822 16.6986L38.803 16.6647C38.6295 16.5586 38.5395 16.4424 38.5348 16.3195C38.528 16.1307 38.7274 15.9852 38.7293 15.9836L38.7061 15.9513C38.6971 15.9576 38.4874 16.1105 38.4951 16.3208Z" fill="black"/>
<path d="M42.3708 16.3718C42.3085 16.4639 42.3293 16.5753 42.3302 16.58L42.3692 16.5723C42.3689 16.5713 42.3508 16.4721 42.404 16.3939C42.436 16.3469 42.4875 16.3165 42.5573 16.3032L42.5502 16.2641C42.4692 16.2795 42.4091 16.3156 42.3708 16.3718Z" fill="black"/>
<path d="M33.4911 14.6312L33.4788 14.6282L33.4772 14.6408C33.4768 14.6421 33.4595 14.7628 33.4047 14.7956C33.3894 14.8048 33.3728 14.8058 33.3538 14.7988L33.2608 14.7423C33.2423 14.7259 33.2263 14.7139 33.1996 14.7218C33.1942 14.7149 33.1729 14.686 33.1729 14.6395C33.1729 14.6343 33.1732 14.6288 33.174 14.6232C33.1806 14.5687 33.2186 14.5162 33.2874 14.4672L33.2743 14.4486C33.1998 14.5019 33.1586 14.5597 33.1513 14.6209C33.143 14.6918 33.184 14.74 33.1858 14.7421L33.1914 14.7485L33.1989 14.745C33.2196 14.7359 33.2256 14.7413 33.2457 14.7591L33.3461 14.8201C33.3715 14.8295 33.3951 14.8278 33.4164 14.815C33.4731 14.7811 33.493 14.6823 33.4976 14.6549C33.739 14.7068 33.9333 14.4133 33.9418 14.4007L33.9225 14.3882C33.9207 14.3913 33.7224 14.6919 33.4911 14.6312Z" fill="black"/>
<path d="M32.9124 14.5862C32.9003 14.6351 32.9086 14.6831 32.9365 14.7289C32.9632 14.7723 32.9894 14.7954 33.0168 14.799C33.0502 14.8037 33.0769 14.7789 33.1004 14.7572C33.1175 14.7412 33.1338 14.7263 33.1471 14.7273L33.1679 14.7416L33.1858 14.7274L33.1487 14.7046C33.1254 14.7029 33.1058 14.721 33.0849 14.7405C33.064 14.7596 33.0426 14.7798 33.0198 14.7766C33.0001 14.7739 32.9787 14.7538 32.956 14.7169C32.9314 14.6766 32.924 14.6343 32.9344 14.5916C32.9604 14.4839 33.0892 14.4048 33.0906 14.404L33.0789 14.3846C33.0731 14.3879 32.9407 14.4692 32.9124 14.5862Z" fill="black"/>
<path d="M32.5802 16.1238C32.5917 16.0821 32.6237 16.0467 32.6752 16.0181C32.665 16.019 32.7256 16.0684 32.7776 16.0628C32.7776 16.0628 32.7987 16.0515 32.8114 16.0446C32.8251 16.0565 32.9151 16.1384 32.9151 16.2422C32.9151 16.264 32.9112 16.2864 32.9014 16.3092L32.9224 16.318C32.9883 16.1621 32.8227 16.0238 32.8212 16.0223L32.8151 16.0176L32.8049 16.0242L32.7754 16.0402C32.7328 16.0447 32.6774 15.9997 32.677 15.9993C32.6071 16.0297 32.5714 16.0701 32.5582 16.118L32.5802 16.1238Z" fill="black"/>
<path d="M33.349 15.7258C33.2993 15.73 33.1608 15.7564 33.1156 15.8283C33.0993 15.8544 33.0969 15.8831 33.1087 15.9141L33.1269 15.9625C33.17 16.0785 33.2148 16.1984 33.2637 16.2254L33.2747 16.2056C33.2333 16.1826 33.1881 16.0614 33.1482 15.9546L33.1301 15.9062C33.1209 15.8817 33.1224 15.8602 33.1348 15.8404C33.172 15.7815 33.2965 15.7531 33.3509 15.7485C33.3827 15.746 33.393 15.8631 33.3993 15.9331L33.4219 15.931C33.4128 15.8278 33.4033 15.7213 33.349 15.7258Z" fill="black"/>
<path d="M32.9693 15.8396C32.9402 15.8657 32.9461 15.9049 32.9465 15.9066C32.9467 15.9173 32.9596 16.2069 33.0972 16.2668L33.1062 16.246C32.9817 16.1917 32.9692 15.9071 32.969 15.9043C32.969 15.9026 32.9649 15.8739 32.9847 15.8565C33.0056 15.838 33.047 15.8366 33.1045 15.8524L33.1106 15.8305C33.0442 15.8122 32.9967 15.8152 32.9693 15.8396Z" fill="black"/>
<path d="M32.8604 15.8634C32.7996 15.9058 32.8021 16.0267 32.8022 16.0317L32.8249 16.0313C32.8249 16.0301 32.8226 15.9173 32.8734 15.8821C32.8924 15.869 32.9173 15.8685 32.9478 15.8807L32.9562 15.8597C32.9183 15.8442 32.886 15.8455 32.8604 15.8634V15.8634Z" fill="black"/>
<path d="M36.1352 14.2649C36.1362 14.2668 36.2 14.4107 36.2 14.5275C36.2 14.5483 36.1902 14.563 36.1856 14.5811C36.1831 14.5743 36.1608 14.5134 36.1608 14.5134L36.1416 14.5623C36.1407 14.565 36.1156 14.6308 36.1605 14.705C36.2199 14.8029 36.3677 14.8656 36.6003 14.891H36.6002C36.6002 14.8912 36.6031 14.8938 36.6034 14.8942C36.5938 14.8956 36.5866 14.8982 36.5844 14.9003L36.575 14.9082L36.5763 14.928C36.5823 14.9522 36.6098 14.9534 36.6646 14.9554C36.6738 14.956 36.6889 14.9582 36.6995 14.9587C36.7131 14.9625 36.7271 14.9663 36.7271 14.9663C36.7271 14.9663 36.7233 14.9619 36.7224 14.961C36.7754 14.9646 36.835 14.9777 36.8997 15.0018C36.8854 15.0056 36.8504 15.0143 36.8504 15.0143L36.9079 15.037C36.9123 15.0387 37.3361 15.209 37.5115 15.349C37.4617 15.3922 37.2491 15.551 36.881 15.4603L36.8193 15.4451L36.8611 15.4929C36.8637 15.4957 37.1035 15.7708 37.1532 15.9376C37.0697 15.9384 36.748 15.9355 36.6356 15.84L36.6065 15.8665C36.608 15.8689 36.7607 16.093 36.7948 16.2677C36.7511 16.2735 36.6463 16.2777 36.5843 16.1968L36.5558 16.1596C36.5558 16.1596 36.5442 16.2347 36.5402 16.2605C36.5103 16.2379 36.4726 16.2041 36.4726 16.168V16.1443C36.4726 16.1443 36.3938 16.1586 36.3819 16.1607C36.3714 16.1544 36.2408 16.0752 36.1955 16.0477C36.1794 16.0373 36.169 16.0314 36.1655 16.0297C36.1653 16.0295 36.1638 16.0285 36.1638 16.0285L36.1624 16.0278L36.1431 16.0627C36.1431 16.0627 36.1653 16.0759 36.1717 16.0799C36.2116 16.1059 36.2799 16.1626 36.2868 16.2378C36.2574 16.2395 36.1656 16.2445 36.1656 16.2445L36.1679 16.2656V16.2689C36.1679 16.2814 36.164 16.3335 36.1259 16.451C36.0686 16.4374 35.8601 16.3647 35.7369 16.0117L35.6985 16.0212C35.6987 16.0222 35.6992 16.0269 35.6992 16.0344C35.6992 16.0665 35.6878 16.1472 35.5772 16.1759C35.5765 16.1761 35.3717 16.2377 35.2577 16.2718C35.2791 16.2413 35.2985 16.1995 35.2985 16.1389C35.2985 16.126 35.2977 16.1122 35.296 16.0975C35.2891 16.0462 35.2849 16.0035 35.2849 15.9678C35.2849 15.8935 35.3032 15.8493 35.3545 15.8178L35.3366 15.7823C35.3318 15.7842 34.8605 15.9714 34.6268 15.8937C34.6375 15.8481 34.677 15.6877 34.7569 15.5167L34.7465 15.5265C34.7619 15.52 34.7775 15.496 34.7646 15.4193L34.7603 15.3931L34.7364 15.4047C34.7348 15.4054 34.5853 15.4721 34.3692 15.393C34.3736 15.3753 34.3851 15.3434 34.4303 15.3246L34.4436 15.3193L34.4423 15.3049C34.4423 15.3043 34.4418 15.2943 34.4418 15.2785C34.4418 15.2202 34.4509 15.0835 34.5349 15.0507L34.526 15.0123C34.5232 15.0126 34.2705 15.0328 34.1172 14.9476C34.1574 14.9198 34.2419 14.8688 34.3402 14.8546L34.3559 14.8524L34.3571 14.8366C34.3573 14.8358 34.3576 14.8312 34.3576 14.8238C34.3576 14.8038 34.3499 14.7634 34.3323 14.7227C34.3906 14.739 34.4606 14.7537 34.4853 14.7351L34.4938 14.7287L34.4865 14.5754L34.4468 14.5773C34.4468 14.5773 34.4516 14.679 34.4528 14.7041C34.4279 14.7055 34.3643 14.6927 34.3026 14.6731L34.2415 14.6537L34.2809 14.7044C34.3128 14.7454 34.3169 14.7964 34.3173 14.8198C34.1792 14.8455 34.071 14.9313 34.0664 14.9351L34.0461 14.9518L34.0676 14.9668C34.1864 15.0496 34.3722 15.0568 34.4676 15.0547C34.4114 15.118 34.4019 15.2241 34.4019 15.2771C34.4019 15.2879 34.4022 15.2908 34.4024 15.2962C34.3349 15.3326 34.3248 15.401 34.3243 15.4042L34.3229 15.4191L34.3368 15.4248C34.541 15.5062 34.6804 15.4669 34.7278 15.4494C34.7281 15.4557 34.7295 15.4644 34.7295 15.4689C34.7295 15.4876 34.726 15.4933 34.726 15.4933C34.6257 15.7036 34.5837 15.9035 34.5832 15.9054L34.5799 15.9219L34.5954 15.9281C34.7849 16.0038 35.1254 15.9004 35.2762 15.8472C35.2564 15.8813 35.2448 15.9196 35.2448 15.9674C35.2448 16.0075 35.2497 16.0525 35.2564 16.1026C35.2581 16.1153 35.2588 16.1271 35.2588 16.1384C35.2588 16.2513 35.1825 16.294 35.1789 16.2959L35.1941 16.3326L35.5879 16.2143C35.6789 16.1907 35.7131 16.1368 35.7276 16.0911C35.883 16.4596 36.127 16.4928 36.1378 16.494L36.1536 16.4954L36.1586 16.4804C36.1965 16.3672 36.2053 16.3097 36.207 16.282C36.2333 16.2808 36.3289 16.2754 36.3289 16.2754L36.3299 16.2576C36.3301 16.2545 36.3301 16.2515 36.3301 16.2486C36.3301 16.216 36.3199 16.1872 36.3059 16.1613C36.3304 16.1761 36.374 16.2025 36.374 16.2025C36.374 16.2025 36.4191 16.1943 36.4392 16.1907C36.4563 16.2565 36.5345 16.3082 36.5445 16.3143L36.5699 16.3296C36.5699 16.3296 36.5792 16.2696 36.5831 16.2434C36.6803 16.3304 36.8184 16.3045 36.8249 16.3029L36.8423 16.2985L36.8398 16.2808C36.82 16.1477 36.7307 15.9894 36.6782 15.9047C36.851 15.9833 37.1658 15.9776 37.1813 15.9771L37.2047 15.9763L37.2001 15.9533C37.1722 15.8134 36.9975 15.5933 36.9243 15.5057C37.3304 15.582 37.5484 15.3714 37.5578 15.3618L37.5721 15.3467L37.5564 15.3329C37.4199 15.214 37.1053 15.076 36.9789 15.0232C36.9858 15.0214 37.0232 15.012 37.0232 15.012L36.9794 14.9875C36.8738 14.9281 36.7617 14.9207 36.686 14.9175L36.6856 14.9169C36.6376 14.8619 36.6132 14.8531 36.607 14.8517C36.3324 14.8214 36.2318 14.7445 36.1952 14.6851C36.1921 14.6802 36.1937 14.6769 36.1914 14.6721C36.1973 14.6642 36.2035 14.6564 36.2035 14.6564C36.23 14.6219 36.2394 14.5757 36.2394 14.5268C36.2394 14.4008 36.1754 14.2567 36.1718 14.2484L36.1352 14.2649H36.1352Z" fill="black"/>
<path d="M34.8713 14.1842C34.8705 14.1881 34.8412 14.3386 34.7131 14.4091C34.6167 14.4621 34.4893 14.4577 34.3349 14.3959L34.3175 14.389L34.3193 14.4076C34.3197 14.4115 34.3299 14.4999 34.4133 14.5646C34.4827 14.6187 34.582 14.6376 34.7064 14.624C34.6648 14.6735 34.531 14.8444 34.531 15.0103C34.531 15.019 34.5315 15.0278 34.5324 15.0364C34.5494 15.0487 34.7591 15.1055 34.8563 14.9812C34.8598 15.0345 34.8751 15.205 34.9417 15.2717C34.9782 15.308 34.9868 15.3611 34.9868 15.4034C34.9868 15.4416 34.9795 15.4711 34.9795 15.4717L34.972 15.502L34.9973 15.4836C35.0054 15.4777 35.1981 15.3365 35.2597 15.1516C35.2595 15.1521 35.2906 15.1052 35.3501 15.086C35.3489 15.0941 35.3478 15.1024 35.3478 15.1139C35.3478 15.1854 35.3791 15.3151 35.5872 15.3946L35.6043 15.4012L35.6028 15.383C35.6026 15.3826 35.6014 15.3683 35.6014 15.3471C35.6014 15.2948 35.6086 15.1989 35.6584 15.1492C35.6911 15.1165 35.7009 15.0797 35.7009 15.0478C35.7009 15.0226 35.6954 15.0023 35.6897 14.9874C35.7317 14.998 35.831 15.03 35.8715 15.1057C35.9302 15.2157 36.1357 15.1281 36.1445 15.1245L36.1375 15.1028C36.1366 15.103 36.051 15.1222 35.997 15.0851C35.9733 15.0688 35.959 15.0437 35.954 15.0103L35.9445 14.896C35.9424 14.8442 35.9352 14.8113 35.9092 14.7836C35.9364 14.7811 35.991 14.782 36.0141 14.8331C36.0504 14.9132 36.175 14.9209 36.1802 14.9214L36.2228 14.9236L36.187 14.9004C36.1858 14.8997 36.0782 14.8283 36.0968 14.7353L36.1123 14.6672C36.1418 14.5444 36.1908 14.3388 36.1509 14.2126L36.1292 14.2196C36.1391 14.2511 36.1432 14.2884 36.1432 14.3283C36.1432 14.4402 36.1115 14.5731 36.0901 14.6619L36.0744 14.7309C36.0725 14.7399 36.0719 14.749 36.0719 14.7576C36.0719 14.8178 36.111 14.8638 36.1414 14.8915C36.1048 14.8836 36.054 14.8661 36.0349 14.8236C36.005 14.758 35.9246 14.755 35.8862 14.7627L35.8594 14.7681L35.8823 14.7834C35.9184 14.8075 35.9194 14.8355 35.922 14.8969L35.9316 15.0136C35.9373 15.0534 35.955 15.0838 35.9841 15.1039C36.0096 15.1213 36.0394 15.1237 36.0666 15.1256C36.0055 15.1416 35.9218 15.1515 35.8918 15.095C35.8351 14.9894 35.6793 14.9612 35.6728 14.96L35.649 14.9559L35.6609 14.9767C35.6622 14.979 35.6786 15.009 35.6786 15.0471C35.6786 15.0741 35.6704 15.1051 35.6423 15.133C35.5871 15.1887 35.5786 15.2898 35.5786 15.3457C35.5786 15.3566 35.5792 15.3582 35.5793 15.3648C35.4014 15.29 35.3699 15.1792 35.3699 15.1165C35.3699 15.0898 35.3751 15.0721 35.3758 15.0697L35.3809 15.0522L35.3629 15.0553C35.2764 15.0695 35.2405 15.1399 35.239 15.1429C35.1895 15.291 35.0553 15.4082 35.0067 15.4473C35.0083 15.4349 35.01 15.4205 35.01 15.403C35.01 15.3567 35 15.2977 34.958 15.2556C34.8873 15.1849 34.8776 14.9599 34.8776 14.9576L34.8761 14.917L34.8563 14.9523C34.778 15.0926 34.5494 15.0252 34.5472 15.0246C34.5375 14.8474 34.7386 14.6206 34.7407 14.6183L34.7617 14.595L34.7307 14.5995C34.5994 14.6186 34.4974 14.601 34.4276 14.547C34.3729 14.5046 34.3532 14.4506 34.3462 14.4234C34.4985 14.4801 34.6262 14.4832 34.7245 14.4289C34.8618 14.353 34.892 14.1975 34.8931 14.191C35.0374 13.8639 35.1634 13.8123 35.1648 13.8119L35.1569 13.7906C35.1511 13.7926 35.0212 13.8437 34.8713 14.1842Z" fill="black"/>
<path d="M35.2005 13.6995L35.1909 13.6999L35.0739 13.8603L35.1086 13.8637C35.7437 13.9255 36.0795 14.3087 36.0828 14.3126L36.0975 14.3297L36.2126 14.2046L36.2042 14.1917C35.8821 13.6846 35.2074 13.6993 35.2005 13.6995L35.2005 13.6995ZM35.2114 13.7393C35.2899 13.7395 35.8684 13.7574 36.1613 14.2013C36.147 14.2168 36.1151 14.2517 36.098 14.2704C36.0293 14.1992 35.7038 13.8951 35.1457 13.8295C35.1673 13.7997 35.2033 13.7504 35.2114 13.7393Z" fill="black"/>
<path d="M35.1089 14.0347C35.0547 14.1087 35.0043 14.2182 35.0043 14.2695C35.0043 14.2793 35.0061 14.287 35.0103 14.2919C35.0107 14.2924 35.0126 14.2925 35.0132 14.2933C34.9471 14.3526 34.9077 14.4515 34.9077 14.5634C34.9077 14.6249 34.9186 14.689 34.9415 14.7502L34.9542 14.7846C35.0165 14.9541 35.0702 15.1006 35.3397 15.0144C35.5993 14.9314 35.6095 14.9148 35.6749 14.807L35.6919 14.779C35.7276 14.7211 35.7665 14.7095 35.808 14.6972C35.8574 14.6824 35.9086 14.6672 35.9536 14.5784L35.9973 14.5129C36.0444 14.4479 36.1033 14.3674 36.1104 14.2642L36.0876 14.2627C36.0811 14.3592 36.0243 14.4369 35.9789 14.4994L35.9332 14.568C35.8926 14.6481 35.8484 14.6613 35.8014 14.6753C35.7576 14.6883 35.7127 14.7018 35.6724 14.767L35.6552 14.7951C35.5924 14.8989 35.5843 14.9122 35.3328 14.9928C35.084 15.0723 35.0385 14.9482 34.9755 14.7768L34.9628 14.742C34.8919 14.553 34.9473 14.3624 35.0395 14.2941L35.0712 14.2705C35.0712 14.2705 35.0319 14.2749 35.0273 14.2755C35.0268 14.2736 35.0263 14.272 35.0263 14.269C35.0263 14.2381 35.06 14.1397 35.1272 14.048C35.1845 13.9699 35.3198 13.8925 35.3212 13.8917L35.3098 13.872C35.3041 13.8754 35.169 13.9527 35.1089 14.0347Z" fill="black"/>
<path d="M34.9882 14.7183C35.0327 14.7492 35.0954 14.7471 35.171 14.7183C35.1713 14.7453 35.1773 14.8025 35.2243 14.844C35.2795 14.8929 35.3711 14.9023 35.4966 14.8724L35.4912 14.8503C35.3736 14.8784 35.2888 14.8705 35.2394 14.8271C35.1863 14.7803 35.1938 14.7058 35.1939 14.7052L35.196 14.6857L35.178 14.6933C35.1019 14.7261 35.0423 14.7281 35.001 14.6995C34.927 14.6481 34.9325 14.5136 34.9327 14.5121L34.9099 14.511C34.9098 14.5171 34.9036 14.6596 34.9882 14.7183Z" fill="black"/>
<path d="M35.1322 14.5371C35.0997 14.5449 35.0912 14.5721 35.0912 14.5931C35.0912 14.5982 35.0918 14.6029 35.0924 14.6069C35.0981 14.6654 35.1616 14.7044 35.2193 14.7211C35.2754 14.7373 35.3444 14.7384 35.3716 14.7034C35.3825 14.6895 35.3904 14.6643 35.3667 14.6237C35.28 14.4764 35.1399 14.5341 35.1322 14.5371ZM35.2256 14.6991C35.1752 14.6847 35.1196 14.6519 35.1151 14.6034C35.1141 14.5988 35.1086 14.5661 35.1373 14.5593L35.1396 14.5586C35.1448 14.5563 35.2689 14.5023 35.347 14.6353C35.3609 14.6591 35.3632 14.6772 35.3536 14.6894C35.3368 14.7112 35.2816 14.7155 35.2256 14.6991ZM35.1299 14.538C35.1301 14.5378 35.1322 14.5371 35.1322 14.5371L35.1299 14.538Z" fill="black"/>
<path d="M35.2104 14.8337C35.1958 14.9582 35.2047 14.9611 35.2137 14.9639L35.2216 14.9664L35.2305 14.9559L35.3026 14.8609L35.2121 14.818L35.2104 14.8337ZM35.2312 14.8523C35.2441 14.8584 35.256 14.864 35.2677 14.8695C35.2579 14.8821 35.2397 14.9064 35.2259 14.9245C35.2262 14.9058 35.2285 14.8793 35.2312 14.8523Z" fill="black"/>
<path d="M35.0228 14.7337L35.018 14.8513L35.1168 14.7319L35.0234 14.7215L35.0228 14.7337ZM35.045 14.7469C35.0538 14.7479 35.06 14.7484 35.0724 14.7498C35.0627 14.7614 35.0563 14.7692 35.0434 14.7848C35.0444 14.7665 35.0447 14.7563 35.045 14.7469Z" fill="black"/>
<path d="M34.957 14.6961C34.9578 14.6976 35.0305 14.8397 35.0433 14.8915C35.0516 14.9244 35.0936 14.9619 35.1437 14.9804C35.1936 14.9992 35.2404 14.9962 35.2753 14.9718L35.3409 14.9173C35.3628 14.8963 35.37 14.8904 35.3877 14.8934L35.3915 14.871C35.3618 14.866 35.3473 14.8798 35.3252 14.9008L35.2624 14.9532C35.2236 14.9802 35.1763 14.9687 35.1515 14.9592C35.1047 14.9418 35.0708 14.9083 35.0653 14.8859C35.0517 14.8317 34.9801 14.6919 34.9772 14.6859L34.957 14.6961Z" fill="black"/>
<path d="M35.0515 14.2703C34.9713 14.3073 34.9374 14.4046 34.936 14.4087L34.9575 14.4162C34.9579 14.4153 34.9899 14.3237 35.0611 14.2909C35.0959 14.275 35.1348 14.2755 35.1772 14.2922L35.1856 14.2712C35.1374 14.2517 35.0923 14.2515 35.0515 14.2703Z" fill="black"/>
<path d="M35.5906 14.5258C35.597 14.5305 35.7485 14.6453 35.6614 14.7853L35.6807 14.7974C35.779 14.6395 35.6058 14.5087 35.6042 14.5074L35.5906 14.5258Z" fill="black"/>
<path d="M35.1352 14.5481C35.1352 14.5481 35.1116 14.6337 35.2321 14.6639C35.2321 14.6639 35.1188 14.663 35.1116 14.6337C35.104 14.6045 35.1122 14.5396 35.1352 14.5481Z" fill="black"/>
<path d="M35.5035 14.6505C35.5035 14.658 35.4974 14.6641 35.4901 14.6641C35.4828 14.6641 35.4766 14.658 35.4766 14.6505C35.4766 14.6432 35.4828 14.6371 35.4901 14.6371C35.4975 14.6371 35.5035 14.6432 35.5035 14.6505Z" fill="black"/>
<path d="M35.5168 14.704C35.5168 14.7114 35.5108 14.7176 35.5034 14.7176C35.4961 14.7176 35.4902 14.7114 35.4902 14.704C35.4902 14.6967 35.4961 14.6906 35.5034 14.6906C35.5108 14.6906 35.5168 14.6968 35.5168 14.704Z" fill="black"/>
<path d="M35.4263 14.6909C35.4337 14.6909 35.4396 14.6849 35.4396 14.6775C35.4396 14.6701 35.4337 14.6642 35.4263 14.6642C35.4189 14.6642 35.4129 14.6701 35.4129 14.6775C35.4129 14.6849 35.4189 14.6909 35.4263 14.6909Z" fill="black"/>
<path d="M35.4629 14.758C35.4629 14.7652 35.4568 14.7712 35.4495 14.7712C35.4422 14.7712 35.4362 14.7652 35.4362 14.758C35.4362 14.7505 35.4423 14.7444 35.4495 14.7444C35.4568 14.7444 35.4629 14.7504 35.4629 14.758Z" fill="black"/>
<path d="M35.1114 14.3956C35.1114 14.403 35.1054 14.4091 35.0978 14.4091C35.0905 14.4091 35.0844 14.403 35.0844 14.3956C35.0844 14.3884 35.0905 14.3822 35.0978 14.3822C35.1054 14.3822 35.1114 14.3884 35.1114 14.3956Z" fill="black"/>
<path d="M35.1114 14.4629C35.1188 14.4629 35.1248 14.4569 35.1248 14.4496C35.1248 14.4422 35.1188 14.4362 35.1114 14.4362C35.104 14.4362 35.098 14.4422 35.098 14.4496C35.098 14.4569 35.104 14.4629 35.1114 14.4629Z" fill="black"/>
<path d="M35.0342 14.4362C35.0416 14.4362 35.0475 14.4302 35.0475 14.4228C35.0475 14.4154 35.0416 14.4095 35.0342 14.4095C35.0268 14.4095 35.0208 14.4154 35.0208 14.4228C35.0208 14.4302 35.0268 14.4362 35.0342 14.4362Z" fill="black"/>
<path d="M35.0708 14.503C35.0708 14.5103 35.0646 14.5164 35.0572 14.5164C35.0499 14.5164 35.0439 14.5103 35.0439 14.503C35.0439 14.4955 35.05 14.4894 35.0572 14.4894C35.0646 14.4895 35.0708 14.4955 35.0708 14.503Z" fill="black"/>
<path d="M35.3055 14.0302C35.3055 14.0302 35.4797 14.1374 35.312 14.3385C35.312 14.3385 35.3945 14.2773 35.4029 14.1721C35.4117 14.067 35.3431 13.9832 35.3055 14.0302Z" fill="black"/>
<path d="M35.9738 14.3193C35.9177 14.3482 35.837 14.2948 35.7965 14.2444C35.7562 14.1939 35.6728 14.181 35.6208 14.2731C35.5689 14.3654 35.4941 14.4 35.4941 14.4C35.4941 14.4 35.5672 14.3568 35.6425 14.276C35.7173 14.1955 35.7606 14.2602 35.8341 14.2991C35.9075 14.338 35.9191 14.3466 35.9709 14.3264L35.9738 14.3193Z" fill="black"/>
<path d="M35.9594 14.3327C35.9365 14.3499 35.8945 14.3644 35.85 14.3282C35.8054 14.2922 35.7679 14.2434 35.7117 14.2721C35.6554 14.301 35.5487 14.3816 35.5487 14.3816C35.5487 14.3816 35.7217 14.2619 35.7549 14.288C35.7879 14.314 35.8659 14.3773 35.9134 14.3587C35.961 14.3398 35.9594 14.3327 35.9594 14.3327Z" fill="black"/>
<path d="M35.8268 14.406C35.772 14.3642 35.7173 14.4549 35.6712 14.4436C35.6251 14.4319 35.5875 14.3555 35.5875 14.3555C35.5875 14.3555 35.6309 14.4363 35.6913 14.4175C35.7519 14.3988 35.7937 14.3613 35.8311 14.39C35.8686 14.419 35.8268 14.406 35.8268 14.406Z" fill="black"/>
<path d="M35.7411 14.4173C35.6331 14.4285 35.6224 14.3276 35.6224 14.3266C35.6224 14.3266 35.6565 14.4147 35.752 14.3987L35.7411 14.4173Z" fill="black"/>
<path d="M35.7376 14.3486C35.7447 14.3759 35.7432 14.3883 35.7142 14.3883C35.6851 14.3883 35.6653 14.3786 35.6653 14.3504C35.6653 14.3221 35.7334 14.331 35.7376 14.3486Z" fill="black"/>
<path d="M35.3495 14.1985C35.3495 14.2173 35.334 14.2325 35.3149 14.2325C35.2957 14.2325 35.292 14.2196 35.292 14.201C35.292 14.1824 35.2957 14.1649 35.3149 14.1649C35.334 14.1649 35.3495 14.18 35.3495 14.1985Z" fill="black"/>
<path d="M35.2302 14.0778C35.2302 14.0778 35.4154 14.0797 35.3237 14.3114C35.3237 14.3114 35.3942 14.1961 35.35 14.1131C35.3055 14.0302 35.2359 14.0511 35.2359 14.0511C35.2359 14.0511 35.2189 14.0668 35.2302 14.0778Z" fill="black"/>
<path d="M35.2248 14.1703C35.2243 14.2168 35.2553 14.2647 35.3167 14.3127L35.3308 14.2949C35.2752 14.2516 35.2472 14.2097 35.2476 14.1708C35.2479 14.1319 35.2778 14.1088 35.2782 14.1085L35.2646 14.0901C35.263 14.0915 35.2255 14.12 35.2248 14.1703Z" fill="black"/>
<path d="M35.2658 14.2095C35.2737 14.2361 35.2944 14.2563 35.3274 14.2695L35.3359 14.2484C35.3097 14.238 35.2935 14.2228 35.2877 14.2032C35.276 14.1638 35.3077 14.1179 35.308 14.1175L35.2896 14.1042C35.2878 14.1066 35.251 14.1597 35.2658 14.2095Z" fill="black"/>
<path d="M35.5198 14.3381C35.5198 14.3381 35.5543 14.413 35.504 14.4937C35.4535 14.5745 35.4549 14.5702 35.4549 14.5702C35.4549 14.5702 35.5155 14.4592 35.4924 14.413C35.4696 14.3669 35.5198 14.3381 35.5198 14.3381Z" fill="black"/>
<path d="M36.2401 15.1198C36.4303 15.1557 36.8594 15.4921 36.8639 15.4956L36.8885 15.4641C36.8705 15.4501 36.4472 15.1183 36.2475 15.0807L36.2401 15.1198Z" fill="black"/>
<path d="M36.4089 15.5946C36.4216 15.7634 36.6053 15.8683 36.6132 15.8725L36.6327 15.8379C36.6308 15.837 36.4598 15.7391 36.4485 15.5916L36.4089 15.5946Z" fill="black"/>
<path d="M35.953 15.6297C35.953 15.8191 36.1304 16.0481 36.1381 16.0578L36.1694 16.0332C36.1676 16.0311 35.9927 15.8054 35.9927 15.6297H35.953Z" fill="black"/>
<path d="M35.3515 15.651C35.3828 15.7135 35.3795 15.7452 35.3714 15.7607C35.362 15.7782 35.3427 15.7808 35.342 15.781L35.3467 15.8206C35.3613 15.8189 35.3906 15.8088 35.4061 15.7802C35.425 15.7456 35.4186 15.6961 35.3871 15.6335L35.3515 15.651Z" fill="black"/>
<path d="M32.6465 14.7174C32.6465 14.7174 32.6581 14.8441 32.756 14.9193C32.756 14.9193 32.7445 14.7807 32.7734 14.7233C32.7734 14.7232 32.7216 14.6656 32.6465 14.7174Z" fill="white" stroke="black" stroke-width="0.0178218" stroke-miterlimit="3"/>
<path d="M32.8421 14.798C32.8421 14.798 32.8653 14.9132 32.9344 14.9651L32.975 14.9536C32.975 14.9536 32.9922 14.8094 33.0153 14.7921C33.0383 14.775 32.9173 14.844 32.8421 14.798Z" fill="white" stroke="black" stroke-width="0.0178218" stroke-miterlimit="3"/>
<path d="M33.0154 14.7921L33.0903 14.9074L33.1767 14.8613L33.1594 14.7231C33.1594 14.7231 33.1076 14.7114 33.0154 14.7921Z" fill="white" stroke="black" stroke-width="0.0178218" stroke-miterlimit="3"/>
<path d="M33.3669 14.8154L33.2688 14.8961C33.2688 14.8961 33.217 14.8556 33.1766 14.8615L33.194 14.7346C33.194 14.7346 33.2631 14.6828 33.3669 14.8154Z" fill="white" stroke="black" stroke-width="0.0178218" stroke-miterlimit="3"/>
<path d="M32.6693 16.0084C32.6693 16.0084 32.6521 15.8298 32.6752 15.8182C32.6752 15.8182 32.7442 15.8413 32.7731 15.8123C32.7731 15.8123 32.8135 15.9566 32.8019 16.0142C32.7904 16.0718 32.7213 16.0489 32.6693 16.0084Z" fill="white" stroke="black" stroke-width="0.0178218" stroke-miterlimit="3"/>
<path d="M33.1134 15.8238C33.1134 15.8238 33.1077 15.6739 33.1364 15.6565C33.1364 15.6565 33.2805 15.6739 33.3151 15.599L33.367 15.7431C33.367 15.7431 33.2056 15.7257 33.1134 15.8238Z" fill="white" stroke="black" stroke-width="0.0178218" stroke-miterlimit="3"/>
<path d="M32.9579 15.8525C32.9579 15.8525 32.9867 15.6969 33.0156 15.6912C33.0156 15.6912 33.0905 15.7141 33.1136 15.6852L33.1079 15.8756C33.1079 15.8756 33.1136 15.7948 32.9579 15.8525Z" fill="white" stroke="black" stroke-width="0.0173267" stroke-miterlimit="3"/>
<path d="M32.7906 15.8758C32.7906 15.8758 32.8252 15.7374 32.8483 15.7374C32.8714 15.7374 32.9291 15.772 32.9578 15.749V15.8527C32.9578 15.8527 32.8308 15.824 32.8137 15.9968L32.7906 15.8758Z" fill="white" stroke="black" stroke-width="0.0173267" stroke-miterlimit="3"/>
<path d="M35.0376 18.7455C35.0376 18.7455 35.4294 19.1094 35.327 19.4266C35.327 19.4266 35.5788 18.8854 35.3084 18.7268C35.0376 18.5682 35.0283 18.6898 35.0376 18.7455V18.7455Z" fill="#00AD50" stroke="black" stroke-width="0.0386139" stroke-miterlimit="4.8"/>
<path d="M34.543 19.0995C34.543 19.0995 34.4405 19.2397 34.5523 19.3423C34.5523 19.3423 34.4312 19.5193 34.5246 19.6688C34.5246 19.6688 34.4498 19.8274 34.4685 19.9954C34.4685 19.9954 34.4031 20.2565 34.543 20.378C34.543 20.378 34.6924 20.4527 34.7578 20.3873C34.7578 20.3873 34.8883 20.1915 34.8043 19.9859C34.8043 19.9859 34.8976 19.8181 34.795 19.6035C34.795 19.6035 34.8231 19.4822 34.7391 19.3424C34.7391 19.3424 34.795 19.2489 34.7483 19.1744C34.7483 19.1744 34.5618 18.9783 34.543 19.0995Z" fill="#862633" stroke="black" stroke-width="0.0386139" stroke-miterlimit="4.8"/>
<path d="M34.6549 18.6426C34.6549 18.6426 34.1885 17.747 33.8619 17.7095C33.5353 17.6721 33.5167 17.355 33.5167 17.355C33.5167 17.355 33.554 17.5043 33.8153 17.5043C34.0766 17.5043 34.5804 17.8681 34.6363 18.148C34.6922 18.4279 34.7484 18.3907 34.7484 18.3907L34.6549 18.6426L34.6549 18.6426Z" fill="#00AD50" stroke="black" stroke-width="0.0386139" stroke-miterlimit="4.8"/>
<path d="M34.6549 18.5772C34.6549 18.5772 34.8229 17.4483 35.5602 17.4295C36.297 17.4107 36.0547 17.4855 36.2318 17.3641C36.2318 17.3641 35.7375 17.6256 35.4294 17.6627C35.1216 17.7 34.8696 18.297 34.879 18.4092C34.8882 18.5211 34.7111 18.7358 34.6271 18.6612C34.5431 18.5866 34.655 18.5772 34.655 18.5772L34.6549 18.5772Z" fill="#00AD50" stroke="black" stroke-width="0.0386139" stroke-miterlimit="4.8"/>
<path d="M34.8227 18.9975C34.8227 18.9975 34.9906 18.5497 35.2799 18.6991C35.2799 18.6991 35.0558 18.2697 34.6547 18.6429C34.6547 18.6429 34.8321 18.8855 34.8227 18.9975H34.8227Z" fill="#00AD50" stroke="black" stroke-width="0.0386139" stroke-miterlimit="4.8"/>
<path d="M34.2628 18.549C34.2628 18.549 34.5055 19.5475 34.1322 19.8553C34.1322 19.8553 34.1414 19.3424 33.9175 19.0344C33.6938 18.7263 34.1415 18.3907 34.2628 18.549V18.549Z" fill="#00AD50" stroke="black" stroke-width="0.0386139" stroke-miterlimit="4.8"/>
<path d="M34.2911 18.7267C34.2911 18.7267 34.7297 19.1467 34.7578 19.2866C34.7858 19.4266 34.8883 18.8668 34.6831 18.7083C34.4778 18.5495 34.2539 18.5215 34.2539 18.5215L34.2911 18.7267Z" fill="#00AD50" stroke="black" stroke-width="0.0386139" stroke-miterlimit="4.8"/>
<path d="M33.4822 19.8272C33.4822 19.8272 33.5219 20.0035 33.6301 20.0376C33.6301 20.0376 33.6357 20.1685 33.7325 20.2083C33.7325 20.2083 33.6811 20.3164 33.7667 20.3845C33.7667 20.3845 33.7494 20.6007 33.8292 20.6463C33.8292 20.6463 34.0228 20.635 34.0908 20.578C34.0908 20.578 34.1307 20.436 34.0228 20.2935C34.0228 20.2935 34.0396 20.157 33.9315 20.0832C33.9315 20.0832 33.9657 19.9009 33.8291 19.8328C33.8291 19.8328 33.8065 19.6847 33.721 19.6109C33.721 19.6109 33.5561 19.8441 33.4822 19.8272Z" fill="#862633" stroke="black" stroke-width="0.0386139" stroke-miterlimit="4.8"/>
<path d="M33.698 19.6109C33.698 19.6109 33.1234 19.4004 32.8048 19.7019C32.8048 19.7019 33.294 19.7703 33.3566 19.867C33.4192 19.9635 33.7206 19.7078 33.698 19.6109H33.698Z" fill="#00AD50" stroke="black" stroke-width="0.0386139" stroke-miterlimit="4.8"/>
<path d="M33.5218 19.9693C33.5218 19.9693 33.4763 19.9296 33.4195 19.8897C33.3625 19.8499 32.8791 19.719 32.8106 20.1855C32.8106 20.1855 32.6342 19.7247 32.8902 19.6621C33.1464 19.5994 33.3512 19.7474 33.5217 19.9693" fill="#00AD50"/>
<path d="M33.5218 19.9693C33.5218 19.9693 33.4763 19.9296 33.4195 19.8897C33.3625 19.8499 32.8791 19.719 32.8106 20.1855C32.8106 20.1855 32.6342 19.7247 32.8902 19.6621C33.1464 19.5994 33.3512 19.7474 33.5217 19.9693" stroke="black" stroke-width="0.0386139" stroke-miterlimit="4.8"/>
<path d="M33.1436 19.0158C33.1436 19.0158 33.3206 19.3983 33.3861 19.4172C33.4514 19.4356 33.498 19.3706 33.498 19.3706C33.498 19.3706 33.2648 19.0253 33.1436 19.0158Z" fill="#00AD50" stroke="black" stroke-width="0.0386139" stroke-miterlimit="4.8"/>
<path d="M33.0128 18.4282C33.0128 18.4282 32.8634 17.9338 32.6863 18.0644C32.509 18.195 32.5557 18.5494 32.5557 18.5494C32.5557 18.5494 32.2011 18.1857 32.4062 17.8963C32.6118 17.6072 33.0128 17.9244 33.0128 18.4282H33.0128Z" fill="#00AD50" stroke="black" stroke-width="0.0386139" stroke-miterlimit="4.8"/>
<path d="M33.4143 19.445C33.4143 19.445 33.4143 19.5383 33.4797 19.5662C33.545 19.5942 33.6662 19.6407 33.6662 19.585C33.6662 19.529 33.573 19.3144 33.5355 19.3424C33.4981 19.3705 33.4331 19.3702 33.4143 19.445Z" fill="#862633" stroke="black" stroke-width="0.0386139" stroke-miterlimit="4.8"/>
<path d="M33.3024 18.8668C33.3024 18.8668 33.2838 18.4377 33.5635 18.2789C33.5635 18.2789 33.6197 18.2885 33.6477 18.2046C33.6477 18.2046 33.4235 18.7455 33.4889 19.0161L33.4797 19.0535" fill="#00AD50"/>
<path d="M33.3024 18.8668C33.3024 18.8668 33.2838 18.4377 33.5635 18.2789C33.5635 18.2789 33.6197 18.2885 33.6477 18.2046C33.6477 18.2046 33.4235 18.7455 33.4889 19.0161L33.4797 19.0535" stroke="black" stroke-width="0.0386139" stroke-miterlimit="4.8"/>
<path d="M33.3584 18.3441C33.3584 18.3441 33.8622 17.2989 34.4781 17.6628C34.4781 17.6628 33.8343 17.7935 33.6012 18.2507L33.3678 18.5956L33.3584 18.344L33.3584 18.3441Z" fill="#00AD50" stroke="black" stroke-width="0.0386139" stroke-miterlimit="4.8"/>
<path d="M33.0876 18.7267C33.0876 18.7267 32.9383 18.027 32.845 17.9338C32.7516 17.8404 32.593 17.7378 32.4064 17.8964C32.4064 17.8964 32.733 17.607 33.0783 17.8498C33.4233 18.0924 33.3487 18.4749 33.3487 18.4749L33.3115 18.9601L33.0783 18.7455" fill="#00AD50"/>
<path d="M33.0876 18.7267C33.0876 18.7267 32.9383 18.027 32.845 17.9338C32.7516 17.8404 32.593 17.7378 32.4064 17.8964C32.4064 17.8964 32.733 17.607 33.0783 17.8498C33.4233 18.0924 33.3487 18.4749 33.3487 18.4749L33.3115 18.9601L33.0783 18.7455" stroke="black" stroke-width="0.0386139" stroke-miterlimit="4.8"/>
<path d="M33.6287 19.5569C33.6287 19.5569 33.0129 18.391 32.6118 19.2213C32.6118 19.2213 32.5369 19.4357 32.6209 19.5195C32.6209 19.5195 32.3969 19.3517 32.4996 18.9412C32.6021 18.5308 33.2832 18.7173 33.4793 19.0533C33.6752 19.3891 33.7313 19.5572 33.7033 19.5756C33.6752 19.5944 33.6287 19.5569 33.6287 19.5569L33.6287 19.5569Z" fill="#00AD50" stroke="black" stroke-width="0.0386139" stroke-miterlimit="4.8"/>
<path d="M35.3643 19.893C35.3643 19.893 35.8124 18.9693 36.0734 19.3891C36.0734 19.3891 36.148 19.5943 36.036 19.6785C36.036 19.6785 35.8589 19.4638 35.7003 19.7251C35.5416 19.9862 35.607 19.9678 35.607 19.9678C35.607 19.9678 35.439 20.0144 35.3643 19.893L35.3643 19.893Z" fill="#00AD50" stroke="black" stroke-width="0.0386139" stroke-miterlimit="4.8"/>
<path d="M36.0356 19.6782C36.0356 19.6782 36.2782 19.8086 36.1945 20.0699C36.1945 20.0699 36.5208 19.4449 36.0731 19.3888C36.0732 19.3888 36.1572 19.5849 36.0356 19.6782Z" fill="#00AD50" stroke="black" stroke-width="0.0386139" stroke-miterlimit="4.8"/>
<path d="M36.0638 19.044C36.0638 19.044 36.6518 19.2119 36.6704 19.464C36.6704 19.464 36.7731 18.9786 36.4371 18.8294C36.4372 18.8294 36.0358 18.8948 36.0638 19.044V19.044Z" fill="#00AD50" stroke="black" stroke-width="0.0386139" stroke-miterlimit="4.8"/>
<path d="M36.3252 18.2693C36.5772 17.7748 36.8944 18.4279 36.8944 18.4279C36.8944 18.4279 37.0063 17.9148 36.6892 17.8214C36.3718 17.7281 36.1666 18.9129 36.1666 18.9129L35.7933 18.9969C35.7933 18.9969 35.896 17.9615 36.4558 17.868L36.521 17.8774" fill="#00AD50"/>
<path d="M36.3252 18.2693C36.5772 17.7748 36.8944 18.4279 36.8944 18.4279C36.8944 18.4279 37.0063 17.9148 36.6892 17.8214C36.3718 17.7281 36.1666 18.9129 36.1666 18.9129L35.7933 18.9969C35.7933 18.9969 35.896 17.9615 36.4558 17.868L36.521 17.8774" stroke="black" stroke-width="0.0386139" stroke-miterlimit="4.8"/>
<path d="M35.8772 18.5678C35.8772 18.5678 35.5228 17.8401 35.2801 17.7655C35.0374 17.6909 35.4109 17.5789 35.5601 17.7188C35.7092 17.8586 35.9891 18.036 35.9612 18.4093L35.8772 18.5678L35.8772 18.5678Z" fill="#00AD50" stroke="black" stroke-width="0.0386139" stroke-miterlimit="4.8"/>
<path d="M35.5134 19.5663C35.5134 19.5663 35.616 19.072 35.8958 18.9226C36.1757 18.7732 36.437 18.8293 36.437 18.8293C36.437 18.8293 36.101 18.9038 36.0452 19.072C35.9891 19.2398 35.8958 19.2491 35.8958 19.2491L35.5134 19.5663V19.5663Z" fill="#00AD50" stroke="black" stroke-width="0.0386139" stroke-miterlimit="4.8"/>
<path d="M35.3643 19.8931C35.3643 19.8931 35.2058 20.1917 35.243 20.2382C35.243 20.2382 35.0751 20.4808 35.1404 20.6021C35.1404 20.6021 35.3084 20.7327 35.383 20.6766C35.383 20.6766 35.5787 20.4062 35.5228 20.2568C35.5228 20.2568 35.6534 20.0797 35.607 19.9678C35.607 19.9678 35.4111 19.9771 35.3643 19.8931Z" fill="#862633" stroke="black" stroke-width="0.0386139" stroke-miterlimit="4.8"/>
<path d="M34.5436 19.3599C34.5541 19.3652 34.6483 19.411 34.7117 19.3898L34.757 19.3511L34.7214 19.3334C34.6982 19.3795 34.5956 19.3415 34.5613 19.3245L34.5436 19.3599Z" fill="black"/>
<path d="M34.5282 19.6495L34.5205 19.6886C34.5285 19.6901 34.7179 19.7268 34.8082 19.6466L34.7817 19.6169C34.7062 19.6839 34.5301 19.65 34.5282 19.6495Z" fill="black"/>
<path d="M34.4802 19.9792L34.4568 20.0114C34.4591 20.0131 34.6791 20.1698 34.8199 19.9987L34.789 19.9734C34.6721 20.1154 34.488 19.9849 34.4802 19.9792Z" fill="black"/>
<path d="M33.6257 20.0267L33.634 20.048C33.6419 20.0448 33.8283 19.9699 33.8401 19.8336L33.8175 19.8315C33.8069 19.9539 33.6275 20.026 33.6257 20.0267Z" fill="black"/>
<path d="M33.7312 20.197L33.7328 20.2197C33.7401 20.2192 33.9122 20.2063 33.9422 20.086L33.92 20.0803C33.8941 20.1846 33.7329 20.1968 33.7312 20.197Z" fill="black"/>
<path d="M33.7668 20.3733L33.7656 20.3961C33.7738 20.3965 33.9666 20.4065 34.032 20.2997L34.0126 20.2877C33.9542 20.3831 33.7687 20.3734 33.7668 20.3733Z" fill="black"/>
<path d="M35.2287 20.2525C35.2321 20.2561 35.3153 20.3382 35.4123 20.3346C35.4598 20.3328 35.502 20.311 35.5376 20.27L35.5075 20.2439C35.4795 20.2762 35.4469 20.2935 35.4111 20.2948C35.3316 20.2977 35.2574 20.2251 35.2567 20.2242L35.2287 20.2525Z" fill="black"/>
<path d="M41.0228 20.9347C41.0125 20.9386 41.0021 20.9448 40.9927 20.9546L41.0228 20.9347Z" fill="#862633" stroke="black" stroke-width="0.0207921" stroke-miterlimit="4.8"/>
<path d="M41.7089 20.7629C41.7023 20.7458 41.6979 20.753 41.6891 20.7455C41.6766 20.7351 41.6694 20.7021 41.6583 20.6897C41.6518 20.6822 41.6442 20.6895 41.6372 20.6877C41.6211 20.6524 41.6022 20.6152 41.5854 20.5811C41.588 20.5772 41.5896 20.5725 41.59 20.5653C41.59 20.5639 41.5821 20.5367 41.5816 20.5355C41.5768 20.528 41.5691 20.5324 41.5645 20.5207C41.5593 20.509 41.5633 20.486 41.5614 20.4722C41.5601 20.4607 41.5555 20.4543 41.5563 20.4381C41.557 20.424 41.5645 20.4076 41.5636 20.3953C41.5633 20.3875 41.5542 20.3701 41.5514 20.3636C41.5404 20.3369 41.5311 20.3118 41.5298 20.2789C41.5284 20.2491 41.5344 20.2309 41.5366 20.205C41.5394 20.1741 41.523 20.1591 41.523 20.1305C41.5232 20.1086 41.5324 20.084 41.535 20.0644C41.5387 20.0376 41.539 19.9987 41.5367 19.9712C41.5347 19.9449 41.5273 19.929 41.5314 19.8994C41.5324 19.8922 41.5359 19.8863 41.5367 19.8762C41.5365 19.8689 41.5365 19.8619 41.5365 19.8549V19.8124C41.5365 19.7986 41.5379 19.7831 41.5367 19.7697C41.5355 19.7585 41.529 19.747 41.529 19.7382C41.529 19.723 41.5386 19.7158 41.5365 19.6953C41.5352 19.6805 41.5331 19.6771 41.5297 19.6642C41.5232 19.6397 41.5276 19.6151 41.5236 19.589C41.5217 19.5764 41.5178 19.5724 41.5166 19.5581C41.5149 19.5412 41.5201 19.5354 41.5217 19.5235C41.5235 19.5116 41.5252 19.496 41.5236 19.4834C41.5217 19.4682 41.5146 19.4575 41.5166 19.441L41.511 19.6283C41.5064 19.4649 41.4999 19.3137 41.4999 19.3137L41.2514 19.197C41.2514 19.197 41.2304 19.6531 41.2358 19.7166C41.2408 19.7803 41.2621 20.2154 41.2514 20.2684C41.2407 20.3215 41.2146 20.5867 41.2146 20.5867C41.2146 20.5867 41.0931 20.6716 41.0456 20.7669C40.9979 20.8624 41.0086 20.8943 40.9926 20.8943L41.1106 20.8759L41.0227 20.9345C41.0408 20.9277 41.0599 20.9292 41.0774 20.943C41.0795 20.9447 41.0926 20.9559 41.0943 20.9559C41.0989 20.9559 41.1053 20.9441 41.1109 20.942C41.1292 20.9359 41.1447 20.9701 41.162 20.9675C41.1714 20.9661 41.1841 20.9563 41.1917 20.9464C41.198 20.9379 41.2004 20.9231 41.207 20.9175C41.2131 20.9123 41.2279 20.9183 41.2342 20.9183C41.2516 20.9183 41.2691 20.9189 41.2865 20.9183C41.3096 20.9177 41.3283 20.8851 41.3496 20.8667C41.3695 20.85 41.3841 20.8441 41.4053 20.8454C41.4285 20.8471 41.4495 20.8688 41.4731 20.8701C41.491 20.871 41.5034 20.8732 41.5179 20.8545C41.5279 20.8414 41.5349 20.822 41.5444 20.8084L41.6031 20.7993C41.6147 20.8041 41.6266 20.8094 41.6366 20.8091C41.6515 20.8084 41.667 20.8065 41.6819 20.8089C41.6875 20.8096 41.6987 20.8228 41.7033 20.8196C41.7065 20.8171 41.7118 20.7993 41.715 20.7939C41.7137 20.7867 41.7115 20.7688 41.7089 20.7628V20.7629Z" fill="#862633" stroke="black" stroke-width="0.0207921" stroke-miterlimit="4.8"/>
<path d="M41.2065 20.9262C41.2215 20.9262 41.2352 20.9228 41.2478 20.9338C41.2499 20.9378 41.2517 20.9416 41.2537 20.9453C41.2578 20.9481 41.2621 20.9486 41.2661 20.947C41.2745 20.9527 41.2762 20.9559 41.2855 20.9581C41.2941 20.9599 41.3036 20.9577 41.3122 20.9579C41.3231 20.9582 41.3283 20.962 41.3385 20.9661C41.3562 20.9734 41.3679 20.9665 41.3832 20.9555C41.401 20.9424 41.4075 20.9524 41.4245 20.9688C41.4373 20.9809 41.4347 20.9798 41.4462 20.9715C41.4479 20.9676 41.4499 20.9638 41.4519 20.9604C41.4576 20.9581 41.4634 20.9565 41.4693 20.9555C41.4788 20.951 41.4882 20.9515 41.4972 20.9481C41.5066 20.9444 41.5135 20.9339 41.5235 20.9358C41.5321 20.9376 41.542 20.9446 41.5502 20.9472C41.5581 20.9499 41.5615 20.9515 41.5681 20.9563C41.5799 20.9319 41.6061 20.9246 41.6228 20.9128C41.6402 20.9007 41.6564 20.9153 41.6755 20.9155C41.6857 20.9155 41.6898 20.9096 41.697 20.9073C41.7051 20.9043 41.7144 20.9086 41.7221 20.9054C41.7304 20.9023 41.7319 20.8943 41.741 20.8933C41.7579 20.8912 41.7767 20.9187 41.7935 20.9239C41.803 20.9271 41.8468 20.9369 41.8404 20.9047C41.8342 20.874 41.8067 20.8952 41.8008 20.8737C41.7976 20.8615 41.8041 20.8441 41.8003 20.8303C41.797 20.8178 41.7832 20.8033 41.775 20.8006C41.7646 20.7973 41.7586 20.8081 41.7498 20.7997C41.7426 20.793 41.7398 20.7678 41.7335 20.7579C41.725 20.764 41.7197 20.7697 41.7085 20.7675C41.6958 20.7644 41.697 20.7601 41.6875 20.748C41.6668 20.7222 41.655 20.7635 41.6359 20.757C41.6214 20.7523 41.608 20.7159 41.5966 20.701C41.5906 20.6931 41.5735 20.6674 41.5648 20.6732C41.55 20.6828 41.5634 20.7107 41.5557 20.7231C41.5502 20.7317 41.5306 20.7229 41.5235 20.7242C41.5123 20.7267 41.5102 20.7296 41.5022 20.743C41.4858 20.77 41.4763 20.7915 41.4509 20.7885C41.4388 20.7871 41.4297 20.7749 41.418 20.7793C41.4054 20.7841 41.3984 20.7975 41.3846 20.7991C41.3746 20.7999 41.3631 20.8003 41.3533 20.7965C41.3437 20.7922 41.3328 20.7741 41.324 20.7692C41.3203 20.7661 41.3165 20.7654 41.3122 20.7669C41.3111 20.7664 41.2979 20.7586 41.2977 20.7586C41.2824 20.7542 41.2836 20.7547 41.2774 20.775C41.2737 20.7875 41.2724 20.8005 41.2677 20.8123C41.2633 20.8223 41.2535 20.8347 41.2478 20.8414C41.2371 20.8529 41.2319 20.8498 41.218 20.854C41.2069 20.8576 41.192 20.875 41.186 20.8526C41.1771 20.8189 41.2108 20.7684 41.1732 20.7772C41.1634 20.7795 41.1575 20.7813 41.1515 20.7958C41.1449 20.8125 41.1502 20.8233 41.1473 20.8416C41.1434 20.8647 41.0994 20.9034 41.1081 20.9243C41.1139 20.9389 41.1335 20.9164 41.1389 20.92C41.1478 20.9262 41.1453 20.9408 41.1516 20.9506C41.1649 20.971 41.2043 20.9192 41.2066 20.9472" fill="#862633"/>
<path d="M41.2065 20.9262C41.2215 20.9262 41.2352 20.9228 41.2478 20.9338C41.2499 20.9378 41.2517 20.9416 41.2537 20.9453C41.2578 20.9481 41.2621 20.9486 41.2661 20.947C41.2745 20.9527 41.2762 20.9559 41.2855 20.9581C41.2941 20.9599 41.3036 20.9577 41.3122 20.9579C41.3231 20.9582 41.3283 20.962 41.3385 20.9661C41.3562 20.9734 41.3679 20.9665 41.3832 20.9555C41.401 20.9424 41.4075 20.9524 41.4245 20.9688C41.4373 20.9809 41.4347 20.9798 41.4462 20.9715C41.4479 20.9676 41.4499 20.9638 41.4519 20.9604C41.4576 20.9581 41.4634 20.9565 41.4693 20.9555C41.4788 20.951 41.4882 20.9515 41.4972 20.9481C41.5066 20.9444 41.5135 20.9339 41.5235 20.9358C41.5321 20.9376 41.542 20.9446 41.5502 20.9472C41.5581 20.9499 41.5615 20.9515 41.5681 20.9563C41.5799 20.9319 41.6061 20.9246 41.6228 20.9128C41.6402 20.9007 41.6564 20.9153 41.6755 20.9155C41.6857 20.9155 41.6898 20.9096 41.697 20.9073C41.7051 20.9043 41.7144 20.9086 41.7221 20.9054C41.7304 20.9023 41.7319 20.8943 41.741 20.8933C41.7579 20.8912 41.7767 20.9187 41.7935 20.9239C41.803 20.9271 41.8468 20.9369 41.8404 20.9047C41.8342 20.874 41.8067 20.8952 41.8008 20.8737C41.7976 20.8615 41.8041 20.8441 41.8003 20.8303C41.797 20.8178 41.7832 20.8033 41.775 20.8006C41.7646 20.7973 41.7586 20.8081 41.7498 20.7997C41.7426 20.793 41.7398 20.7678 41.7335 20.7579C41.725 20.764 41.7197 20.7697 41.7085 20.7675C41.6958 20.7644 41.697 20.7601 41.6875 20.748C41.6668 20.7222 41.655 20.7635 41.6359 20.757C41.6214 20.7523 41.608 20.7159 41.5966 20.701C41.5906 20.6931 41.5735 20.6674 41.5648 20.6732C41.55 20.6828 41.5634 20.7107 41.5557 20.7231C41.5502 20.7317 41.5306 20.7229 41.5235 20.7242C41.5123 20.7267 41.5102 20.7296 41.5022 20.743C41.4858 20.77 41.4763 20.7915 41.4509 20.7885C41.4388 20.7871 41.4297 20.7749 41.418 20.7793C41.4054 20.7841 41.3984 20.7975 41.3846 20.7991C41.3746 20.7999 41.3631 20.8003 41.3533 20.7965C41.3437 20.7922 41.3328 20.7741 41.324 20.7692C41.3203 20.7661 41.3165 20.7654 41.3122 20.7669C41.3111 20.7664 41.2979 20.7586 41.2977 20.7586C41.2824 20.7542 41.2836 20.7547 41.2774 20.775C41.2737 20.7875 41.2724 20.8005 41.2677 20.8123C41.2633 20.8223 41.2535 20.8347 41.2478 20.8414C41.2371 20.8529 41.2319 20.8498 41.218 20.854C41.2069 20.8576 41.192 20.875 41.186 20.8526C41.1771 20.8189 41.2108 20.7684 41.1732 20.7772C41.1634 20.7795 41.1575 20.7813 41.1515 20.7958C41.1449 20.8125 41.1502 20.8233 41.1473 20.8416C41.1434 20.8647 41.0994 20.9034 41.1081 20.9243C41.1139 20.9389 41.1335 20.9164 41.1389 20.92C41.1478 20.9262 41.1453 20.9408 41.1516 20.9506C41.1649 20.971 41.2043 20.9192 41.2066 20.9472" stroke="black" stroke-width="0.0207921" stroke-miterlimit="4.8"/>
<path d="M41.0471 20.7455C41.047 20.7426 41.0464 20.7398 41.0462 20.7368C41.0357 20.7349 41.0238 20.7237 41.0142 20.7236C41.0051 20.723 40.9874 20.7452 40.9811 20.7559C40.9619 20.7877 40.9672 20.8311 40.9348 20.8304C40.9269 20.8302 40.9084 20.8249 40.9014 20.8297C40.8892 20.8383 40.8969 20.8638 40.8969 20.8812C40.8969 20.8975 40.9044 20.8812 40.8956 20.9024C40.893 20.9082 40.8851 20.9101 40.883 20.9179C40.8765 20.9456 40.8996 20.9368 40.9097 20.9365C40.9359 20.9363 40.9619 20.9363 40.9877 20.9365C41.0034 20.9368 41.0128 20.9313 41.0275 20.9256C41.0371 20.9223 41.0576 20.9225 41.0657 20.9139C41.0686 20.9106 41.0781 20.8888 41.0794 20.8836C41.0815 20.8729 41.0774 20.86 41.08 20.8511C41.0841 20.8354 41.0981 20.8414 41.1006 20.8203C41.1074 20.7684 41.052 20.8072 41.0607 20.7562" fill="#862633"/>
<path d="M41.0471 20.7455C41.047 20.7426 41.0464 20.7398 41.0462 20.7368C41.0357 20.7349 41.0238 20.7237 41.0142 20.7236C41.0051 20.723 40.9874 20.7452 40.9811 20.7559C40.9619 20.7877 40.9672 20.8311 40.9348 20.8304C40.9269 20.8302 40.9084 20.8249 40.9014 20.8297C40.8892 20.8383 40.8969 20.8638 40.8969 20.8812C40.8969 20.8975 40.9044 20.8812 40.8956 20.9024C40.893 20.9082 40.8851 20.9101 40.883 20.9179C40.8765 20.9456 40.8996 20.9368 40.9097 20.9365C40.9359 20.9363 40.9619 20.9363 40.9877 20.9365C41.0034 20.9368 41.0128 20.9313 41.0275 20.9256C41.0371 20.9223 41.0576 20.9225 41.0657 20.9139C41.0686 20.9106 41.0781 20.8888 41.0794 20.8836C41.0815 20.8729 41.0774 20.86 41.08 20.8511C41.0841 20.8354 41.0981 20.8414 41.1006 20.8203C41.1074 20.7684 41.052 20.8072 41.0607 20.7562" stroke="black" stroke-width="0.0207921" stroke-miterlimit="4.8"/>
<path d="M41.6737 19.304C41.6737 19.3711 41.6278 19.4252 41.5709 19.4252C41.5146 19.4252 41.4683 19.3711 41.4683 19.304C41.4683 19.237 41.5145 19.1826 41.5709 19.1826C41.6278 19.1827 41.6737 19.237 41.6737 19.304Z" fill="black" stroke="black" stroke-width="0.0386139" stroke-miterlimit="4.8"/>
<path d="M41.3381 19.1544C41.3381 19.2214 41.2921 19.2756 41.2355 19.2756C41.1787 19.2756 41.1326 19.2214 41.1326 19.1544C41.1326 19.0875 41.1787 19.0331 41.2355 19.0331C41.2921 19.0331 41.3381 19.0875 41.3381 19.1544Z" fill="black" stroke="black" stroke-width="0.0386139" stroke-miterlimit="4.8"/>
<path d="M41.5154 19.201C41.5154 19.2681 41.4694 19.3222 41.4127 19.3222C41.356 19.3222 41.3101 19.2681 41.3101 19.201C41.3101 19.1339 41.356 19.0797 41.4127 19.0797C41.4694 19.0797 41.5154 19.1339 41.5154 19.201Z" fill="black" stroke="black" stroke-width="0.0386139" stroke-miterlimit="4.8"/>
<path d="M41.3435 19.3119C41.3435 19.379 41.2974 19.4334 41.2408 19.4334C41.1842 19.4334 41.1382 19.379 41.1382 19.3119C41.1382 19.2449 41.1841 19.1907 41.2408 19.1907C41.2975 19.1907 41.3435 19.2449 41.3435 19.3119Z" fill="black" stroke="black" stroke-width="0.0386139" stroke-miterlimit="4.8"/>
<path d="M41.503 19.4045C41.503 19.4714 41.4567 19.5259 41.4003 19.5259C41.3436 19.5259 41.2975 19.4714 41.2975 19.4045C41.2975 19.3375 41.3436 19.2833 41.4003 19.2833C41.4566 19.2833 41.503 19.3375 41.503 19.4045Z" fill="black" stroke="black" stroke-width="0.0386139" stroke-miterlimit="4.8"/>
<path d="M41.5525 18.0812C41.5525 18.0812 42.588 16.6352 43.6984 18.1373C43.6984 18.1373 43.7077 18.2867 43.6051 18.4452L43.5771 18.324L43.5118 18.3426L43.4932 18.268L43.3716 18.2587L43.4092 18.1L43.2784 18.2027L43.2971 18.0906L43.1479 18.2402L43.1666 17.9228L43.0079 18.1934L43.0265 18.0069L42.9706 18.0907L42.9369 17.982L42.8868 18.0907L42.8119 18.0349V18.1095L42.6815 17.9975L42.6348 18.1467L42.5695 17.9882L42.5508 18.1001L42.4854 17.9695L42.4763 18.1095L42.2615 18.0161L42.3081 18.1467L42.2057 18.0722L42.2243 18.1467L42.0845 18.1189L42.0936 18.2027L41.9444 18.1747L41.9725 18.2493L41.7671 18.2215L41.8415 18.3054L41.8208 18.3396C41.8208 18.3396 42.9426 17.9696 43.0172 19.3691L42.8119 19.4717L42.868 19.36L42.8119 19.3225L42.6441 19.192L42.6907 19.0146L42.6348 19.0334L42.6254 18.9308L42.5975 18.9494L42.532 18.8468L42.5134 18.8841L42.4668 18.7626L42.4201 18.8468L42.392 18.6415L42.3175 18.7723L42.308 18.6976L42.28 18.7442L42.1867 18.6322L42.159 18.7069L42.1214 18.6509L42.0936 18.7161L41.9909 18.6227V18.6976L41.9257 18.6415L41.8974 18.6788L41.7391 18.5948L41.7294 18.6693L41.6457 18.5948L41.6176 18.6693C41.6176 18.6693 42.6348 19.248 42.3174 20.1904L42.2613 20.3115L42.2429 19.9945L42.1496 20.1623L42.2145 19.7985L42.1496 19.8637L42.14 19.7239L42.0563 19.8637L42.0279 19.7052L41.9909 19.7518L41.9346 19.5091L41.888 19.6119L41.8134 19.3413L41.7575 19.4532L41.7201 19.2201L41.6828 19.36L41.5707 19.1547L41.5523 19.2385L41.487 19.0707L41.4495 19.1268C41.4495 19.1268 41.2629 19.1173 41.207 19.0707C41.151 19.0242 40.9924 19.3507 40.9924 19.3507L41.0111 19.1547L40.9459 19.2851V19.1547L40.8245 19.5465L40.7964 19.2666L40.7312 19.5091L40.7031 19.4347L40.6845 19.5374L40.6471 19.4999L40.6145 19.61L40.5537 19.5653V19.7145L40.4977 19.6398L40.4511 19.8638L40.4232 19.7707V19.8731L40.3766 19.8174L40.3297 20.0414L40.2645 19.9481L40.2554 20.1065L40.2831 20.228L40.2086 20.1906L40.2367 20.3863C40.2367 20.3863 39.9474 19.8453 40.2927 19.3227C40.6377 18.8005 41.1043 18.6604 41.1043 18.6604L41.0575 18.6139L41.0482 18.5671L40.7683 18.707L40.7778 18.6228L40.703 18.6882L40.6845 18.595L40.6376 18.679L40.6286 18.6416L40.5631 18.7444L40.5256 18.595L40.4791 18.7724L40.4351 18.6483L40.3392 18.9121V18.7163L40.2645 18.9217L40.2366 18.6977L40.1807 18.9588V18.7256L40.0965 18.9588L40.0406 18.735L40.0032 18.9495L39.9473 18.7816L39.8912 19.0335L39.8074 18.8095L39.7607 19.1455L39.7048 19.0147L39.6954 19.2574L39.6303 19.1081L39.6954 19.4252L39.6114 19.304L39.6395 19.4999L39.5183 19.2852L39.5276 19.5374L39.4622 19.4532L39.4341 19.5465C39.4341 19.5465 39.4063 18.5762 40.0685 18.3895C40.7312 18.203 41.1604 18.4456 41.1604 18.4456L40.9085 18.2404L40.9365 18.175H40.8432L40.8805 18.1003L40.6846 18.1098L40.7405 18.0351L40.5911 18.0537V18.0071L40.4979 18.0816L40.5352 17.9977L40.4046 18.0816L40.3966 17.9575L40.3299 18.0631L40.2929 17.9511L39.9941 18.2495L40.078 17.9417L40.0221 18.0071L40.0129 17.9417L39.9289 18.0725L39.9102 17.9791L39.8728 18.0909L39.8447 17.9604L39.7796 18.0909L39.7142 17.9699L39.6863 18.1285L39.6395 18.0444L39.5836 18.1657L39.5091 18.0909L39.4996 18.1657L39.3503 18.1003L39.3877 18.2124L39.2757 18.1191L39.2476 18.2683L39.1824 18.1937L39.1358 18.3804L39.0892 18.203L39.0425 18.343C39.0425 18.343 39.626 16.8437 41.1022 17.8219C41.1022 17.8219 41.2629 17.9791 41.3003 18.091C41.3377 18.2031 41.3098 18.1099 41.3098 18.1099L41.2817 17.0742L41.3376 17.522L41.3749 17.3633L41.3657 17.5966L41.5148 17.27C41.5148 17.27 41.3377 17.8113 41.4028 18.0071C41.4028 18.0071 41.4683 17.3821 41.6924 17.3073L41.487 17.7551L41.5523 17.7458L41.5056 17.8392H41.5616L41.4939 17.9872L41.4589 18.0632L41.4961 18.1377L41.5525 18.0812L41.5525 18.0812Z" fill="#00AD50" stroke="black" stroke-width="0.0386139" stroke-miterlimit="4.8"/>
<path d="M41.399 18.6896L41.4285 18.7161C41.4324 18.712 41.5247 18.6137 41.6796 18.7445L41.7053 18.714C41.5201 18.5574 41.3999 18.6882 41.399 18.6896Z" fill="black"/>
<path d="M41.354 18.1817L41.3479 18.2176C41.3479 18.2176 41.4012 18.1949 41.4199 18.1869C41.4083 18.2074 41.3704 18.2734 41.3704 18.2734C41.3704 18.2734 41.4487 18.2474 41.4777 18.2377C41.4309 18.299 41.3447 18.4118 41.3447 18.4118L41.3763 18.4363L41.5881 18.159C41.5881 18.159 41.4906 18.1916 41.4565 18.2029C41.4703 18.179 41.513 18.1036 41.513 18.1036C41.513 18.1036 41.4266 18.1408 41.3992 18.1525C41.4067 18.1066 41.4227 18.0103 41.4227 18.0103L41.3833 18.0037L41.354 18.1817Z" fill="black"/>
<path d="M41.1565 18.1931C41.1565 18.1931 41.1826 18.2509 41.2023 18.294C41.1938 18.2905 41.1293 18.2646 41.1293 18.2646L41.3446 18.6456C41.3446 18.6456 41.3706 18.6123 41.3721 18.6103C41.3504 18.6659 41.3288 18.7219 41.3288 18.7219L41.3659 18.7364L41.4587 18.4977L41.4245 18.4783C41.4245 18.4783 41.3736 18.5435 41.3498 18.574C41.3296 18.5381 41.2551 18.4063 41.2198 18.344C41.2243 18.3457 41.2796 18.3679 41.2796 18.3679C41.2796 18.3679 41.2389 18.2782 41.22 18.2366C41.2451 18.2523 41.3007 18.287 41.3007 18.287V18.1451H41.2609V18.2153C41.23 18.196 41.1291 18.133 41.1291 18.133L41.1565 18.1931Z" fill="black"/>
<path d="M41.0208 18.6713L41.0367 18.7078C41.095 18.6828 41.143 18.6787 41.1795 18.6961C41.2222 18.7166 41.2351 18.7606 41.2352 18.7609L41.2736 18.7506C41.273 18.7481 41.2562 18.6888 41.1972 18.6604C41.1501 18.6377 41.0907 18.6414 41.0208 18.6713Z" fill="black"/>
<path d="M41.1552 18.8661L41.1879 19.0747L41.2274 19.0685L41.1947 18.8599L41.1552 18.8661Z" fill="black"/>
<path d="M41.4213 18.881L41.4745 19.0404L41.5124 19.0277L41.4592 18.8684L41.4213 18.881Z" fill="black"/>
<path d="M41.5397 18.999L41.5797 19.1582L41.6184 19.1485L41.5785 18.9893L41.5397 18.999Z" fill="black"/>
<path d="M33.6144 23.9456C33.6144 23.9456 33.4394 23.8661 33.3597 23.9242C33.2801 23.9827 33.291 24.0675 33.222 24.0621C33.222 24.0621 33.4871 24.1205 33.5453 24.0514C33.6036 23.9827 33.6144 23.9614 33.6144 23.9614" fill="#00AD50"/>
<path d="M33.6144 23.9456C33.6144 23.9456 33.4394 23.8661 33.3597 23.9242C33.2801 23.9827 33.291 24.0675 33.222 24.0621C33.222 24.0621 33.4871 24.1205 33.5453 24.0514C33.6036 23.9827 33.6144 23.9614 33.6144 23.9614" stroke="black" stroke-width="0.0386139" stroke-miterlimit="4.8"/>
<path d="M33.6466 24.0188C33.6466 24.0188 33.5314 24.1727 33.5712 24.2629C33.6109 24.3531 33.6961 24.3608 33.676 24.427C33.676 24.427 33.7899 24.1808 33.7352 24.1089C33.6805 24.0375 33.6622 24.0225 33.6622 24.0225" fill="#00AD50"/>
<path d="M33.6466 24.0188C33.6466 24.0188 33.5314 24.1727 33.5712 24.2629C33.6109 24.3531 33.6961 24.3608 33.676 24.427C33.676 24.427 33.7899 24.1808 33.7352 24.1089C33.6805 24.0375 33.6622 24.0225 33.6622 24.0225" stroke="black" stroke-width="0.0386139" stroke-miterlimit="4.8"/>
<path d="M33.4525 23.5926C33.4525 23.5926 33.2688 23.6496 33.2482 23.7458C33.2271 23.8422 33.2917 23.8986 33.2367 23.9404C33.2367 23.9404 33.4734 23.8078 33.4712 23.7173C33.469 23.6271 33.4631 23.6043 33.4631 23.6043" fill="#00AD50"/>
<path d="M33.4525 23.5926C33.4525 23.5926 33.2688 23.6496 33.2482 23.7458C33.2271 23.8422 33.2917 23.8986 33.2367 23.9404C33.2367 23.9404 33.4734 23.8078 33.4712 23.7173C33.469 23.6271 33.4631 23.6043 33.4631 23.6043" stroke="black" stroke-width="0.0386139" stroke-miterlimit="4.8"/>
<path d="M33.5604 23.6559C33.5604 23.6559 33.6475 23.4843 33.5927 23.4026C33.538 23.3202 33.4525 23.3273 33.4609 23.2588C33.4609 23.2588 33.3909 23.521 33.4573 23.5824C33.5238 23.6433 33.5446 23.6551 33.5446 23.6551" fill="#00AD50"/>
<path d="M33.5604 23.6559C33.5604 23.6559 33.6475 23.4843 33.5927 23.4026C33.538 23.3202 33.4525 23.3273 33.4609 23.2588C33.4609 23.2588 33.3909 23.521 33.4573 23.5824C33.5238 23.6433 33.5446 23.6551 33.5446 23.6551" stroke="black" stroke-width="0.0386139" stroke-miterlimit="4.8"/>
<path d="M33.3802 23.5936C33.3802 23.5936 33.3844 23.4017 33.2994 23.3516C33.2145 23.3013 33.1406 23.3445 33.1183 23.2789C33.1183 23.2789 33.1691 23.5457 33.2556 23.5724C33.3421 23.5984 33.3659 23.5999 33.3659 23.5999" fill="#00AD50"/>
<path d="M33.3802 23.5936C33.3802 23.5936 33.3844 23.4017 33.2994 23.3516C33.2145 23.3013 33.1406 23.3445 33.1183 23.2789C33.1183 23.2789 33.1691 23.5457 33.2556 23.5724C33.3421 23.5984 33.3659 23.5999 33.3659 23.5999" stroke="black" stroke-width="0.0386139" stroke-miterlimit="4.8"/>
<path d="M33.6941 23.9134C33.6941 23.9134 33.8955 23.8442 33.9115 24.0618C33.9274 24.2791 33.9008 24.205 33.9008 24.205C33.9008 24.205 33.7948 23.9717 33.6782 23.9345L33.6941 23.9134Z" fill="#00AD50" stroke="black" stroke-width="0.0386139" stroke-miterlimit="4.8"/>
<path d="M33.6431 24.0223C33.6431 24.0269 33.6642 24.1913 33.6642 24.1913L33.6925 24.1877L33.6712 24.0232C33.6719 24.0234 33.74 23.6618 33.74 23.6618L33.7119 23.6566L33.6431 24.0223Z" fill="black"/>
<path d="M33.4599 23.9688L33.4505 23.9957C33.5468 24.0295 33.6812 23.9237 33.6868 23.9192L33.669 23.8971C33.6678 23.8979 33.5414 23.9978 33.4599 23.9688Z" fill="black"/>
<path d="M33.2617 23.5287L33.7123 23.7567L33.7302 23.7211L33.2796 23.4932L33.2617 23.5287Z" fill="black"/>
<path d="M33.3576 23.6774L33.3856 23.7055L33.4758 23.6154L33.4477 23.5873L33.3576 23.6774Z" fill="black"/>
<path d="M33.4479 23.4547L33.5433 23.6617L33.5794 23.645L33.484 23.4381L33.4479 23.4547Z" fill="black"/>
<path d="M33.6768 23.9148L33.6793 23.9546C33.8019 23.9463 33.8318 24.0257 33.832 24.0266L33.8711 24.0184C33.8664 23.9958 33.8174 23.9054 33.6768 23.9148Z" fill="black"/>
<path d="M35.7441 24.0064C35.8943 23.9223 35.9244 23.6274 35.9244 23.6274C35.8885 23.7358 35.612 23.844 35.612 23.844C35.8163 23.7174 36.0626 23.1467 36.0626 23.1467C35.9965 23.3511 35.4617 23.5193 35.119 23.7116C34.7763 23.9039 34.9567 24.4571 34.9567 24.4571C34.8606 24.3909 34.6742 24.0965 34.6383 23.8378C34.602 23.5795 34.4999 23.4774 34.2654 23.4473C34.0309 23.4172 33.8927 23.6815 33.8927 23.6815L33.5442 23.8621L33.8986 23.8739C33.8986 23.8739 34.1514 23.9583 34.1514 24.1566C34.1514 24.3551 33.929 25.1484 34.2954 25.5933C34.5505 25.9025 35.4918 26.0801 35.4918 26.0801" fill="white"/>
<path d="M35.7441 24.0064C35.8943 23.9223 35.9244 23.6274 35.9244 23.6274C35.8885 23.7358 35.612 23.844 35.612 23.844C35.8163 23.7174 36.0626 23.1467 36.0626 23.1467C35.9965 23.3511 35.4617 23.5193 35.119 23.7116C34.7763 23.9039 34.9567 24.4571 34.9567 24.4571C34.8606 24.3909 34.6742 24.0965 34.6383 23.8378C34.602 23.5795 34.4999 23.4774 34.2654 23.4473C34.0309 23.4172 33.8927 23.6815 33.8927 23.6815L33.5442 23.8621L33.8986 23.8739C33.8986 23.8739 34.1514 23.9583 34.1514 24.1566C34.1514 24.3551 33.929 25.1484 34.2954 25.5933C34.5505 25.9025 35.4918 26.0801 35.4918 26.0801" stroke="black" stroke-width="0.0495049" stroke-miterlimit="4.8"/>
<path d="M35.053 24.6193C35.053 24.6193 35.1251 24.2646 35.3595 24.2766C35.5939 24.2886 35.66 24.0123 35.7983 23.9701C35.9365 23.9281 36.6519 23.7359 36.73 23.3931C36.73 23.3931 36.6639 23.9582 36.0088 24.2407C36.0088 24.2407 36.5376 24.0663 36.5978 23.952C36.5978 23.952 36.3632 24.457 35.7923 24.5351C35.7923 24.5351 36.3272 24.4931 36.4054 24.3489C36.4054 24.3489 36.1649 24.6674 35.7683 24.7096C35.7683 24.7096 36.1349 24.8598 36.2312 24.7335C36.2312 24.7335 36.0328 24.9679 35.7862 24.9858L35.8525 25.0039C35.8525 25.0039 35.6181 25.2805 35.3596 25.0941C35.1012 24.9077 35.095 25.1424 35.095 25.1424" fill="white"/>
<path d="M35.053 24.6193C35.053 24.6193 35.1251 24.2646 35.3595 24.2766C35.5939 24.2886 35.66 24.0123 35.7983 23.9701C35.9365 23.9281 36.6519 23.7359 36.73 23.3931C36.73 23.3931 36.6639 23.9582 36.0088 24.2407C36.0088 24.2407 36.5376 24.0663 36.5978 23.952C36.5978 23.952 36.3632 24.457 35.7923 24.5351C35.7923 24.5351 36.3272 24.4931 36.4054 24.3489C36.4054 24.3489 36.1649 24.6674 35.7683 24.7096C35.7683 24.7096 36.1349 24.8598 36.2312 24.7335C36.2312 24.7335 36.0328 24.9679 35.7862 24.9858L35.8525 25.0039C35.8525 25.0039 35.6181 25.2805 35.3596 25.0941C35.1012 24.9077 35.095 25.1424 35.095 25.1424" stroke="black" stroke-width="0.0495049" stroke-miterlimit="4.8"/>
<path d="M35.5866 25.154C35.5866 25.154 35.8885 25.659 35.9187 25.9295C35.9187 25.9295 36.4958 26.5667 36.7121 26.6025C36.7121 26.6025 36.6099 26.6445 36.4235 26.4884C36.4235 26.4884 36.5798 26.6507 36.6099 26.6567C36.6398 26.6629 36.4836 26.6447 36.4595 26.6025C36.4595 26.6025 36.5257 26.6989 36.5677 26.7109C36.6099 26.723 36.5257 26.6989 36.5257 26.6989C36.5257 26.6989 36.4474 26.6868 36.4114 26.6567C36.3753 26.6268 36.3994 26.7347 36.3994 26.7347C36.3994 26.7347 36.3092 26.7107 36.2792 26.6807C36.2491 26.6507 36.2913 26.7469 36.2913 26.7469L36.2132 26.7288L36.1591 26.7648C36.1591 26.7648 36.1531 26.8009 36.1168 26.7708C36.0809 26.7411 36.0147 26.7708 36.0147 26.7708C36.0147 26.7708 35.9665 26.813 35.9426 26.7829C35.9187 26.7529 35.8276 26.8985 35.8276 26.8985L35.4491 25.9849" fill="white"/>
<path d="M35.5866 25.154C35.5866 25.154 35.8885 25.659 35.9187 25.9295C35.9187 25.9295 36.4958 26.5667 36.7121 26.6025C36.7121 26.6025 36.6099 26.6445 36.4235 26.4884C36.4235 26.4884 36.5798 26.6507 36.6099 26.6567C36.6398 26.6629 36.4836 26.6447 36.4595 26.6025C36.4595 26.6025 36.5257 26.6989 36.5677 26.7109C36.6099 26.723 36.5257 26.6989 36.5257 26.6989C36.5257 26.6989 36.4474 26.6868 36.4114 26.6567C36.3753 26.6268 36.3994 26.7347 36.3994 26.7347C36.3994 26.7347 36.3092 26.7107 36.2792 26.6807C36.2491 26.6507 36.2913 26.7469 36.2913 26.7469L36.2132 26.7288L36.1591 26.7648C36.1591 26.7648 36.1531 26.8009 36.1168 26.7708C36.0809 26.7411 36.0147 26.7708 36.0147 26.7708C36.0147 26.7708 35.9665 26.813 35.9426 26.7829C35.9187 26.7529 35.8276 26.8985 35.8276 26.8985L35.4491 25.9849" stroke="black" stroke-width="0.0495049" stroke-miterlimit="4.8"/>
<path d="M35.4675 25.9008L35.9458 26.8113L35.996 26.7849L35.5177 25.8744L35.4675 25.9008Z" fill="black"/>
<path d="M35.5454 25.8336L36.3638 26.7499L36.4063 26.712L35.5879 25.7957L35.5454 25.8336Z" fill="black"/>
<path d="M35.6165 25.7988L36.5504 26.6691L36.5892 26.6275L35.6553 25.7572L35.6165 25.7988Z" fill="black"/>
<path d="M34.2099 23.7376C34.2099 23.7376 34.149 23.6285 34.0959 23.6695C34.043 23.7103 34.0125 23.7178 34.0034 23.715C34.0034 23.715 34.0566 23.7179 34.0868 23.6891C34.1172 23.6601 34.1688 23.6784 34.2099 23.7376Z" fill="black"/>
<path d="M33.8802 23.6876C33.8802 23.6876 33.9136 23.7568 33.9141 23.758C33.9107 23.7582 33.8763 23.8698 33.8763 23.8698L33.9037 23.8782L33.9409 23.7567C33.9402 23.7462 33.906 23.6754 33.906 23.6754L33.8802 23.6876Z" fill="black"/>
<path d="M34.196 23.7208C34.196 23.7208 34.1506 23.774 34.0883 23.7587C34.0263 23.7435 34.0263 23.7435 34.0263 23.7435C34.0263 23.7435 34.0791 23.7465 34.1142 23.7482C34.1489 23.7496 34.1944 23.7315 34.196 23.7208Z" fill="black"/>
<path d="M34.1812 23.7317C34.1812 23.7317 34.1252 23.6725 34.0872 23.6892C34.0872 23.6892 34.154 23.6679 34.1919 23.7253L34.1812 23.7317Z" fill="black"/>
<path d="M34.1718 23.7207C34.1718 23.7207 34.1081 23.7646 34.0382 23.7163L34.0339 23.713L34.043 23.7101C34.0431 23.7102 34.131 23.7465 34.1718 23.7207Z" fill="black"/>
<path d="M34.1175 23.729C34.1279 23.729 34.1364 23.7205 34.1364 23.7101C34.1364 23.6996 34.1279 23.6911 34.1175 23.6911C34.107 23.6911 34.0985 23.6996 34.0985 23.7101C34.0985 23.7205 34.107 23.729 34.1175 23.729Z" fill="black"/>
<path d="M34.1688 25.3891C34.1688 25.3891 34.1195 25.4799 34.1453 25.5346C34.1714 25.5892 34.2884 25.6175 34.304 25.6903C34.3196 25.7634 34.3587 25.7632 34.4133 25.753C34.468 25.7425 34.4783 25.74 34.4783 25.74C34.4783 25.74 34.2494 25.6175 34.1895 25.4201L34.1688 25.3891Z" fill="black"/>
<path d="M41.5688 23.5401C41.5688 23.5401 41.9855 22.9906 42.355 23.1349C42.7246 23.2793 42.9647 23.3489 42.9647 23.3489C42.9647 23.3489 42.9717 23.7189 42.7752 23.7189C42.5792 23.7189 42.3912 23.3493 42.2126 23.4592C42.0336 23.5688 41.8866 23.7191 41.875 23.7709C41.8635 23.8227 41.4017 23.8344 41.5688 23.5401H41.5688Z" fill="#862633" stroke="black" stroke-width="0.0237624" stroke-miterlimit="4.8"/>
<path d="M39.9871 26.1896C39.9871 26.1896 39.8719 26.3106 39.9239 26.3396C39.976 26.3684 40.0796 26.3336 40.0796 26.2934C40.0796 26.2527 40.0105 26.1781 39.9871 26.1896Z" fill="#862633" stroke="black" stroke-width="0.0386139" stroke-miterlimit="4.8"/>
<path d="M39.895 26.3049C39.895 26.3049 39.6816 26.1834 39.5141 26.4721C39.3465 26.7606 39.2081 27.2283 39.11 27.2919C39.0119 27.3553 40.0625 26.8301 40.0741 26.6108C40.0741 26.6108 40.1432 26.3278 40.0336 26.3335C39.924 26.3395 39.9181 26.3511 39.895 26.3049H39.895Z" fill="#862633" stroke="black" stroke-width="0.0386139" stroke-miterlimit="4.8"/>
<path d="M39.9238 26.3396C39.9238 26.3396 39.7045 26.3912 39.6583 26.7028C39.6122 27.0149 39.3061 27.1763 39.2889 27.1878" fill="#862633"/>
<path d="M39.9238 26.3396C39.9238 26.3396 39.7045 26.3912 39.6583 26.7028C39.6122 27.0149 39.3061 27.1763 39.2889 27.1878" stroke="black" stroke-width="0.0237624" stroke-miterlimit="4.8"/>
<path d="M42.9653 23.349C42.9653 23.349 42.6317 23.465 42.6894 23.696L42.9653 23.349Z" fill="#862633"/>
<path d="M42.9653 23.349C42.9653 23.349 42.6317 23.465 42.6894 23.696" stroke="black" stroke-width="0.0237624" stroke-miterlimit="4.8"/>
<path d="M40.403 24.0247C40.403 24.0247 40.4144 23.2338 41.0606 23.2684C41.183 23.2798 41.1246 23.4242 41.1246 23.4242C41.1246 23.4242 41.2644 23.3263 41.3283 23.4819C41.3283 23.4819 41.5321 23.3896 41.5553 23.5917C41.5553 23.5917 41.7765 23.563 41.7473 23.7418C41.7473 23.7418 41.8986 23.7072 41.893 23.8342C41.893 23.8342 42.0675 23.7649 42.0499 23.9439C42.0499 23.9439 42.242 23.8169 42.2131 24.0477C42.2131 24.0477 42.4111 23.9093 42.4806 24.1402C42.5505 24.371 42.2829 24.8616 42.0209 24.9886" fill="#FEDD00"/>
<path d="M40.403 24.0247C40.403 24.0247 40.4144 23.2338 41.0606 23.2684C41.183 23.2798 41.1246 23.4242 41.1246 23.4242C41.1246 23.4242 41.2644 23.3263 41.3283 23.4819C41.3283 23.4819 41.5321 23.3896 41.5553 23.5917C41.5553 23.5917 41.7765 23.563 41.7473 23.7418C41.7473 23.7418 41.8986 23.7072 41.893 23.8342C41.893 23.8342 42.0675 23.7649 42.0499 23.9439C42.0499 23.9439 42.242 23.8169 42.2131 24.0477C42.2131 24.0477 42.4111 23.9093 42.4806 24.1402C42.5505 24.371 42.2829 24.8616 42.0209 24.9886" stroke="black" stroke-width="0.0237624" stroke-miterlimit="4.8"/>
<path d="M42.1985 24.0727C42.1994 24.0789 42.2856 24.6914 41.9382 24.9156L41.9505 24.9349C42.3104 24.7027 42.2218 24.0757 42.2211 24.0694L42.1985 24.0728V24.0727Z" fill="black"/>
<path d="M41.7802 24.7435L41.7962 24.7599C42.0162 24.5458 42.0635 23.969 42.0652 23.9446L42.0427 23.9427C42.0421 23.9487 41.9943 24.5354 41.7802 24.7435V24.7435Z" fill="black"/>
<path d="M41.5747 24.6064L41.5974 24.6082C41.6257 24.252 41.9041 23.8446 41.9071 23.8405L41.8883 23.8277C41.8854 23.8317 41.6036 24.2442 41.5747 24.6064V24.6064Z" fill="black"/>
<path d="M41.4133 24.5024L41.436 24.5047C41.4756 24.075 41.7594 23.7524 41.7622 23.7493L41.7453 23.7341C41.7424 23.7373 41.4537 24.0652 41.4133 24.5024V24.5024Z" fill="black"/>
<path d="M41.1881 24.3589L41.2108 24.3597C41.2334 23.8524 41.5662 23.6033 41.5696 23.6009L41.5561 23.5825C41.5529 23.585 41.2112 23.8399 41.1881 24.3589V24.3589Z" fill="black"/>
<path d="M40.9802 24.2327L41.0031 24.2319C40.9864 23.7702 41.3414 23.4937 41.3451 23.4909L41.3313 23.4728C41.3277 23.4758 40.9633 23.759 40.9802 24.2326V24.2327Z" fill="black"/>
<path d="M40.6054 24.0639L40.6279 24.0667C40.6898 23.5668 41.1347 23.4367 41.1391 23.4355L41.1329 23.4136C41.1285 23.4148 40.6689 23.5487 40.6054 24.0639V24.0639Z" fill="black"/>
<path d="M40.0218 24.9832C40.0218 24.9832 39.9123 24.2498 40.3509 24.0192C40.3509 24.0192 40.4319 24.0018 40.4779 24.1057C40.4779 24.1057 40.7089 24.0077 40.7148 24.2036C40.7148 24.2036 40.8301 24.1114 40.859 24.2383C40.859 24.2383 41.1072 24.1865 41.061 24.3711C41.061 24.3711 41.2688 24.3134 41.2514 24.4922C41.2514 24.4922 41.4593 24.4172 41.4245 24.5731C41.4245 24.5731 41.6438 24.5213 41.592 24.7002C41.592 24.7002 41.8634 24.6714 41.7826 24.8618C41.7826 24.8618 41.9846 24.8099 41.9383 24.9658C41.9383 24.9658 42.2039 25.012 42.0826 25.1794C41.9614 25.3466 41.6554 25.6006 41.3555 25.7103" fill="#00AD50"/>
<path d="M40.0218 24.9832C40.0218 24.9832 39.9123 24.2498 40.3509 24.0192C40.3509 24.0192 40.4319 24.0018 40.4779 24.1057C40.4779 24.1057 40.7089 24.0077 40.7148 24.2036C40.7148 24.2036 40.8301 24.1114 40.859 24.2383C40.859 24.2383 41.1072 24.1865 41.061 24.3711C41.061 24.3711 41.2688 24.3134 41.2514 24.4922C41.2514 24.4922 41.4593 24.4172 41.4245 24.5731C41.4245 24.5731 41.6438 24.5213 41.592 24.7002C41.592 24.7002 41.8634 24.6714 41.7826 24.8618C41.7826 24.8618 41.9846 24.8099 41.9383 24.9658C41.9383 24.9658 42.2039 25.012 42.0826 25.1794C41.9614 25.3466 41.6554 25.6006 41.3555 25.7103" stroke="black" stroke-width="0.0237624" stroke-miterlimit="4.8"/>
<path d="M39.7851 25.7218C39.7851 25.7218 39.6061 25.1102 39.947 24.954C39.947 24.954 40.0101 24.9366 40.0217 25.0003C40.0217 25.0003 40.0969 24.902 40.1547 24.9888C40.1547 24.9888 40.3277 24.9079 40.3683 25.0349C40.3683 25.0349 40.4836 24.9366 40.5415 25.0808C40.5415 25.0808 40.6512 25.0349 40.6512 25.1502C40.6512 25.1502 40.8012 25.0867 40.8012 25.2253C40.8012 25.2253 40.9453 25.1676 40.9165 25.3233C40.9165 25.3233 41.136 25.3579 41.0725 25.4618C41.0725 25.4618 41.269 25.5136 41.1936 25.5947C41.1936 25.5947 41.4071 25.5716 41.2917 25.7158C41.2917 25.7158 41.4534 25.664 41.3611 25.8431C41.2686 26.0219 40.9802 26.2181 40.7781 26.2412" fill="#00AD50"/>
<path d="M39.7851 25.7218C39.7851 25.7218 39.6061 25.1102 39.947 24.954C39.947 24.954 40.0101 24.9366 40.0217 25.0003C40.0217 25.0003 40.0969 24.902 40.1547 24.9888C40.1547 24.9888 40.3277 24.9079 40.3683 25.0349C40.3683 25.0349 40.4836 24.9366 40.5415 25.0808C40.5415 25.0808 40.6512 25.0349 40.6512 25.1502C40.6512 25.1502 40.8012 25.0867 40.8012 25.2253C40.8012 25.2253 40.9453 25.1676 40.9165 25.3233C40.9165 25.3233 41.136 25.3579 41.0725 25.4618C41.0725 25.4618 41.269 25.5136 41.1936 25.5947C41.1936 25.5947 41.4071 25.5716 41.2917 25.7158C41.2917 25.7158 41.4534 25.664 41.3611 25.8431C41.2686 26.0219 40.9802 26.2181 40.7781 26.2412" stroke="black" stroke-width="0.0237624" stroke-miterlimit="4.8"/>
<path d="M39.9985 26.2064C39.9985 26.2064 39.6176 25.837 39.7968 25.7274C39.7968 25.7274 39.8773 25.7503 39.9062 25.8312C39.9062 25.8312 39.9985 25.6985 40.0507 25.8369C40.0507 25.8369 40.1893 25.7908 40.1893 25.8834L40.2987 25.9642C40.2987 25.9642 40.4259 25.9526 40.4029 26.0334C40.4029 26.0334 40.5414 26.016 40.5355 26.0911C40.5355 26.0911 40.6569 26.0968 40.6454 26.1775C40.6454 26.1775 40.8529 26.2121 40.7607 26.3162C40.7607 26.3162 40.397 26.3911 40.1431 26.2873C40.1431 26.2873 40.01 26.241 39.9985 26.2064H39.9985Z" fill="#00AD50" stroke="black" stroke-width="0.0237624" stroke-miterlimit="4.8"/>
<path d="M41.3049 25.596L41.3131 25.6172C41.5388 25.5303 41.9308 24.9952 41.9475 24.9724L41.9291 24.9588C41.925 24.9646 41.5244 25.5115 41.3049 25.596L41.3049 25.596Z" fill="black"/>
<path d="M41.1767 25.4985L41.1878 25.5183C41.3842 25.4087 41.7753 24.8908 41.7917 24.8687L41.7736 24.855C41.7697 24.8605 41.369 25.3913 41.1767 25.4985L41.1767 25.4985Z" fill="black"/>
<path d="M41.0654 25.453L41.08 25.4704C41.2874 25.2982 41.5895 24.7295 41.6024 24.7054L41.5823 24.6947C41.5792 24.7006 41.2694 25.2836 41.0654 25.453L41.0654 25.453Z" fill="black"/>
<path d="M40.9634 25.3218L40.986 25.3249C41.0253 25.0375 41.4292 24.585 41.4331 24.5805L41.4162 24.5653C41.3995 24.5841 41.0037 25.0275 40.9634 25.3218V25.3218Z" fill="black"/>
<path d="M40.155 24.9723L40.1777 24.9702C40.1438 24.5642 40.4837 24.1169 40.4872 24.1125L40.4691 24.0988C40.4655 24.1032 40.1204 24.5572 40.155 24.9723Z" fill="black"/>
<path d="M40.3688 25.0079L40.3914 25.004C40.3351 24.6784 40.7196 24.2154 40.7236 24.2109L40.7062 24.1961C40.69 24.2154 40.3109 24.6716 40.3688 25.0079Z" fill="black"/>
<path d="M40.6975 25.1277L40.7203 25.1271C40.7091 24.7554 41.0657 24.3829 41.0694 24.3791L41.053 24.3632C41.0494 24.367 40.686 24.7465 40.6975 25.1277V25.1277Z" fill="black"/>
<path d="M39.9134 25.801L39.9347 25.793C39.8052 25.4496 40.03 25.0099 40.0323 25.0056L40.0118 24.9951C40.0095 24.9996 39.7802 25.448 39.9134 25.801V25.801Z" fill="black"/>
<path d="M40.0629 25.8233L40.0846 25.8163C39.9716 25.4665 40.163 24.9977 40.1651 24.9931L40.1439 24.9844C40.1421 24.9889 39.9476 25.4656 40.0629 25.8233Z" fill="black"/>
<path d="M40.6817 26.1727L40.6895 26.1943C41.0578 26.0618 41.2986 25.7259 41.301 25.7227L41.2824 25.7094C41.2802 25.7127 41.0436 26.0429 40.6817 26.1727H40.6817Z" fill="black"/>
<path d="M40.6059 26.0926L40.6152 26.1134C40.9089 25.9809 41.1828 25.6111 41.1854 25.6073L41.1672 25.594C41.1644 25.5977 40.8942 25.9625 40.6059 26.0925L40.6059 26.0926Z" fill="black"/>
<path d="M40.5347 26.0648L40.548 26.0833C40.7778 25.9169 41.0729 25.4902 41.0761 25.4858L41.0573 25.4731C41.0543 25.4774 40.7614 25.9007 40.5347 26.0648L40.5347 26.0648Z" fill="black"/>
<path d="M40.1663 25.8505L40.1889 25.8472C40.1381 25.4802 40.3757 25.0448 40.3782 25.0405L40.3583 25.0295C40.3557 25.034 40.1145 25.4759 40.1663 25.8505V25.8505Z" fill="black"/>
<path d="M40.3262 25.95L40.3416 25.9669C40.5786 25.7529 40.6593 25.1762 40.6626 25.1518L40.64 25.1486C40.6393 25.1545 40.5572 25.7417 40.3262 25.95V25.95Z" fill="black"/>
<path d="M40.4886 26.0183L40.502 26.0367C40.8365 25.7948 40.9272 25.3301 40.928 25.3256L40.9057 25.3213C40.9048 25.3258 40.8159 25.7815 40.4886 26.0184V26.0183Z" fill="black"/>
<path d="M40.5272 25.0168C40.5272 25.0385 40.5283 25.0601 40.5303 25.0821C40.53 25.0802 40.2766 25.903 40.2766 25.903L40.2983 25.9097L40.5527 25.0843C40.5134 24.6852 40.8644 24.2497 40.8678 24.2454L40.8503 24.2311C40.8468 24.2351 40.5272 24.6318 40.5272 25.0168V25.0168Z" fill="black"/>
<path d="M40.7926 25.2178C40.7892 25.2293 40.712 25.7929 40.408 26.0009L40.4209 26.0196C40.7335 25.8058 40.8094 25.2501 40.8125 25.2267C40.9474 25.0661 41.2583 24.5032 41.2614 24.4976L41.2415 24.4866C41.2383 24.4922 40.9287 25.0534 40.7926 25.2178V25.2178Z" fill="black"/>
<path d="M39.895 25.8337C39.8973 25.8455 39.9481 26.1255 40.0062 26.2243L40.0258 26.2128C39.9696 26.1175 39.9181 25.8327 39.9176 25.8297L39.895 25.8337Z" fill="black"/>
<path d="M40.0391 25.8371C40.0416 25.9765 40.0423 26.2053 40.0345 26.2256L40.0556 26.2339C40.0673 26.2046 40.0629 25.8981 40.062 25.8369L40.0391 25.8371V25.8371Z" fill="black"/>
<path d="M40.052 26.2367L40.0727 26.2459C40.1703 26.0335 40.2003 25.887 40.2007 25.8857L40.1784 25.8812C40.178 25.8824 40.1485 26.0268 40.052 26.2367Z" fill="black"/>
<path d="M40.0737 26.2431L40.0853 26.2627C40.2663 26.1575 40.3083 25.9745 40.3098 25.9668L40.2876 25.9619C40.2871 25.9637 40.246 26.1431 40.0737 26.2431Z" fill="black"/>
<path d="M40.1074 26.2589L40.1097 26.2814C40.2871 26.2637 40.408 26.0482 40.4131 26.0391L40.3931 26.0281C40.392 26.0303 40.2729 26.2424 40.1074 26.2589Z" fill="black"/>
<path d="M40.1252 26.2703L40.1266 26.293C40.4115 26.2755 40.5397 26.1052 40.5448 26.098L40.5264 26.0845C40.5252 26.0861 40.3989 26.2536 40.1252 26.2703Z" fill="black"/>
<path d="M40.1455 26.2762L40.1409 26.2984C40.1562 26.3019 40.5192 26.3789 40.6434 26.1897L40.6244 26.1772C40.5088 26.3534 40.1491 26.2769 40.1455 26.2762Z" fill="black"/>
<path d="M32 13V23.153C32 26.4738 38 28.4455 38 28.4455C38 28.4455 44 26.4736 44 23.153V13H32Z" stroke="black" stroke-width="0.207921" stroke-miterlimit="4.8"/>
<mask id="mask1_1_32894" style="mask-type:alpha" maskUnits="userSpaceOnUse" x="2" y="2" width="24" height="18">
<rect x="2" y="2" width="24" height="18" fill="#C4C4C4"/>
</mask>
<g mask="url(#mask1_1_32894)">
<rect x="2" y="2" width="24" height="18" fill="#2E50A6"/>
<path d="M2 2L26 20L2 2ZM26 2L2 20L26 2Z" fill="black"/>
<path d="M26 2L2 20M2 2L26 20L2 2Z" stroke="white" stroke-width="2.4"/>
<path d="M2 2L26 20L2 2ZM26 2L2 20L26 2Z" fill="black"/>
<path d="M26 2L2 20M2 2L26 20L2 2Z" stroke="#EE5757" stroke-width="1.6"/>
<path d="M14 2V23V2ZM2 11H30H2Z" fill="black"/>
<path d="M2 11H30M14 2V23V2Z" stroke="white" stroke-width="4"/>
<path d="M14 2V23V2ZM2 11H30H2Z" fill="black"/>
<path d="M2 11H30M14 2V23V2Z" stroke="#EE5757" stroke-width="2.4"/>
</g>
</g>
<path d="M11.7035 1.61228C6.53056 2.04084 2.23921 5.77712 1.57724 11.0101C1.25164 13.5841 1 16.6548 1 20C1 23.3452 1.25164 26.4159 1.57724 28.9899C2.23922 34.2229 6.53056 37.9592 11.7035 38.3877C15.5784 38.7087 20.5852 39 26 39C31.4148 39 36.4216 38.7087 40.2965 38.3877C45.4694 37.9592 49.7608 34.2229 50.4228 28.9899C50.7484 26.4159 51 23.3452 51 20C51 16.6548 50.7484 13.5841 50.4228 11.0101C49.7608 5.77712 45.4694 2.04084 40.2965 1.61228C36.4216 1.29127 31.4148 1 26 1C20.5852 1 15.5784 1.29127 11.7035 1.61228Z" stroke="#E6E6FA" stroke-width="2"/>
</svg>
