<svg width="52" height="40" viewBox="0 0 52 40" fill="none" xmlns="http://www.w3.org/2000/svg">
<mask id="mask0_1_39809" style="mask-type:alpha" maskUnits="userSpaceOnUse" x="2" y="2" width="48" height="36">
<path d="M2.56934 11.1356C3.16681 6.41247 7.0415 3.00193 11.7861 2.60887C15.6412 2.28949 20.6196 2 26 2C31.3804 2 36.3588 2.28949 40.2139 2.60887C44.9585 3.00193 48.8332 6.41247 49.4307 11.1356C49.752 13.6759 50 16.704 50 20C50 23.296 49.752 26.3241 49.4307 28.8644C48.8332 33.5875 44.9585 36.9981 40.2139 37.3911C36.3588 37.7105 31.3804 38 26 38C20.6196 38 15.6412 37.7105 11.7861 37.3911C7.0415 36.9981 3.16681 33.5875 2.56934 28.8644C2.248 26.3241 2 23.296 2 20C2 16.704 2.248 13.6759 2.56934 11.1356Z" fill="#00D0BF"/>
</mask>
<g mask="url(#mask0_1_39809)">
<rect x="2" y="26" width="48" height="12" fill="#EE5757"/>
<rect x="2" y="14" width="48" height="12" fill="white"/>
<rect x="2" y="2" width="48" height="12" fill="white"/>
<path d="M26.8597 17.0583H18.5961V22.7386H26.8597V17.0583Z" fill="black"/>
<path d="M22.889 21.9082H17.8445L16.7263 22.6442V23.424H22.889" fill="#DA000C"/>
<path d="M22.889 21.9082H17.8445L16.7263 22.6442V23.424H22.889" stroke="black" stroke-width="0.129119" stroke-linecap="square"/>
<path d="M20.7779 18.6452C21.5042 18.6452 22.0973 19.2507 22.0973 19.997V21.9055H23.0456V14.6748H17.8445V21.9055H19.4585V19.997C19.4585 19.2799 20.0414 18.6452 20.7779 18.6452Z" fill="#DA000C" stroke="black" stroke-width="0.129119" stroke-linecap="square"/>
<path d="M22.0152 9.78354H19.6235V14.1683H22.0152V9.78354Z" fill="black"/>
<path d="M22.0086 13.4886H19.9157V12.7461H18.3812V13.4886H17.3401V12.7461H16.7188V14.0938H22.0086V13.4886ZM17.3401 14.0889H21.8555V14.6748H17.3401V14.0889Z" fill="#DA000C" stroke="black" stroke-width="0.129119" stroke-linecap="square"/>
<path d="M19.1317 8.19064V12.7461H19.9157V11.4953C19.9157 11.0267 20.2465 10.6432 20.7093 10.6197C20.7243 10.6189 20.7386 10.6197 20.7537 10.6197C21.2374 10.6197 21.6293 11.0116 21.6293 11.4953V12.7461H22.3758V8.19064H19.1317Z" fill="#DA000C" stroke="black" stroke-width="0.129119" stroke-linecap="square"/>
<path d="M18.8492 7.5733V8.19065H22.6259V7.5733H18.8492Z" fill="#DA000C" stroke="black" stroke-width="0.129119" stroke-linecap="square"/>
<path d="M18.365 6.39105V7.5733H22.8963V6.39105H22.1982V6.99226H21.3549V6.39105H20.0677V6.99226H19.2244V6.39105H18.365Z" fill="#DA000C" stroke="black" stroke-width="0.129119" stroke-linecap="square"/>
<path d="M16.7263 22.6441H22.9124H16.7263Z" fill="#DA000C"/>
<path d="M16.7263 22.6441H22.9124" stroke="black" stroke-width="0.129119" stroke-linecap="square"/>
<path d="M26.9151 22.2888H22.7268L21.4639 22.8981V23.806H26.9151" fill="#DA000C"/>
<path d="M26.9151 22.2888H22.7268L21.4639 22.8981V23.806H26.9151" stroke="black" stroke-width="0.129119" stroke-linecap="square"/>
<path d="M21.4625 22.8965H27.0442H21.4625Z" fill="#DA000C"/>
<path d="M21.4625 22.8965H27.0442" stroke="black" stroke-width="0.129119"/>
<path d="M25.859 17.0583H34.1226V22.7386H25.859V17.0583Z" fill="black"/>
<path d="M29.8297 21.9082H34.8742L35.9924 22.6442V23.424H29.8297" fill="#DA000C"/>
<path d="M29.8297 21.9082H34.8742L35.9924 22.6442V23.424H29.8297" stroke="black" stroke-width="0.129119" stroke-linecap="square"/>
<path d="M31.9408 18.6452C31.2146 18.6452 30.6214 19.2507 30.6214 19.997V21.9055H29.6732V14.6748H34.8743V21.9055H33.2603V19.997C33.2603 19.2799 32.6773 18.6452 31.9408 18.6452Z" fill="#DA000C" stroke="black" stroke-width="0.129119" stroke-linecap="square"/>
<path d="M30.7035 9.78354H33.0952V14.1683H30.7035V9.78354Z" fill="black"/>
<path d="M30.7102 13.4886H32.803V12.7461H34.3376V13.4886H35.3786V12.7461H36V14.0938H30.7102V13.4886ZM35.3786 14.0889H30.8633V14.6748H35.3786V14.0889Z" fill="#DA000C" stroke="black" stroke-width="0.129119" stroke-linecap="square"/>
<path d="M33.5871 8.19064V12.7461H32.803V11.4953C32.803 11.0267 32.4722 10.6432 32.0094 10.6197C31.9945 10.6189 31.9802 10.6197 31.965 10.6197C31.4813 10.6197 31.0895 11.0116 31.0895 11.4953V12.7461H30.343V8.19064H33.5871Z" fill="#DA000C" stroke="black" stroke-width="0.129119" stroke-linecap="square"/>
<path d="M33.8695 7.5733V8.19065H30.0928V7.5733H33.8695Z" fill="#DA000C" stroke="black" stroke-width="0.129119" stroke-linecap="square"/>
<path d="M34.3538 6.39105V7.5733H29.8225V6.39105H30.5205V6.99226H31.3639V6.39105H32.651V6.99226H33.4943V6.39105H34.3538Z" fill="#DA000C" stroke="black" stroke-width="0.129119" stroke-linecap="square"/>
<path d="M35.9924 22.6441H29.8063H35.9924Z" fill="#DA000C"/>
<path d="M35.9924 22.6441H29.8063" stroke="black" stroke-width="0.129119" stroke-linecap="square"/>
<path d="M25.8036 22.2888H29.9919L31.2549 22.8981V23.806H25.8036" fill="#DA000C"/>
<path d="M25.8036 22.2888H29.9919L31.2549 22.8981V23.806H25.8036" stroke="black" stroke-width="0.129119" stroke-linecap="square"/>
<path d="M31.2562 22.8965H25.6745H31.2562Z" fill="#DA000C"/>
<path d="M31.2562 22.8965H25.6745" stroke="black" stroke-width="0.129119"/>
<path d="M28.5029 21.4131C28.1602 21.5272 27.8504 21.719 27.5385 21.8977C27.1382 22.1342 26.75 22.3919 26.3888 22.6852C26.2617 22.769 26.1397 22.8609 26.0416 22.9787C25.9091 23.092 25.775 23.244 25.8003 23.4323C25.807 23.5153 25.9131 23.3348 25.9829 23.326C26.1045 23.2562 26.2519 23.2337 26.3886 23.2652C26.5527 23.0924 26.7643 22.9765 26.947 22.8254C27.335 22.5359 27.7523 22.2873 28.1769 22.0557C28.3251 21.9798 28.474 21.9026 28.632 21.8489C28.589 21.7037 28.5459 21.5584 28.5029 21.4131Z" fill="#F8D80E" stroke="black" stroke-width="0.0991633" stroke-linecap="round"/>
<path d="M26.8377 22.3635V22.8686V22.3635Z" fill="#F8D80E"/>
<path d="M26.8377 22.3635V22.8686" stroke="black" stroke-width="0.129119" stroke-linecap="round"/>
<path d="M27.1497 22.1432V22.6446V22.1432Z" fill="#F8D80E"/>
<path d="M27.1497 22.1432V22.6446" stroke="black" stroke-width="0.129119" stroke-linecap="round"/>
<path d="M27.4617 21.9489V22.447V21.9489Z" fill="#F8D80E"/>
<path d="M27.4617 21.9489V22.447" stroke="black" stroke-width="0.129119" stroke-linecap="round"/>
<path d="M27.7737 21.757V22.271V21.757Z" fill="#F8D80E"/>
<path d="M27.7737 21.757V22.271" stroke="black" stroke-width="0.129119" stroke-linecap="round"/>
<path d="M24.0604 21.4293C24.0093 21.5719 23.9582 21.7144 23.9071 21.857C24.622 22.1282 25.3027 22.4869 25.9469 22.8977C26.1652 23.0463 26.3946 23.1904 26.5661 23.3943C26.6039 23.499 26.4998 23.5866 26.3965 23.5549C26.3019 23.5228 26.2088 23.4863 26.109 23.5544C25.9662 23.6194 25.8371 23.8309 26.054 23.9019C26.353 24.1027 26.8393 24.0154 26.983 23.6636C27.0581 23.4827 27.0629 23.2511 26.9175 23.1027C26.6511 22.7974 26.298 22.5852 25.9592 22.3703C25.3537 22.0062 24.7232 21.6765 24.0604 21.4293L24.0604 21.4293Z" fill="#F8D80E" stroke="black" stroke-width="0.0991633" stroke-linecap="round"/>
<path d="M26.0178 22.4467L25.9774 22.8778L26.0178 22.4467Z" fill="#F8D80E"/>
<path d="M26.0178 22.4467L25.9774 22.8778" stroke="black" stroke-width="0.129119" stroke-linecap="round"/>
<path d="M26.3769 22.6667L26.2656 23.0888L26.3769 22.6667Z" fill="#F8D80E"/>
<path d="M26.3769 22.6667L26.2656 23.0888" stroke="black" stroke-width="0.129119" stroke-linecap="round"/>
<path d="M26.7607 22.9601L26.5272 23.2877L26.7607 22.9601Z" fill="#F8D80E"/>
<path d="M26.7607 22.9601L26.5272 23.2877" stroke="black" stroke-width="0.129119" stroke-linecap="round"/>
<path d="M26.8783 23.7566L26.5413 23.5758L26.8783 23.7566Z" fill="#F8D80E"/>
<path d="M26.8783 23.7566L26.5413 23.5758" stroke="black" stroke-width="0.129119" stroke-linecap="round"/>
<path d="M26.9833 23.4013L26.5965 23.4375L26.9833 23.4013Z" fill="#F8D80E"/>
<path d="M26.9833 23.4013L26.5965 23.4375" stroke="black" stroke-width="0.129119" stroke-linecap="round"/>
<path d="M26.4845 23.9611L26.458 23.6212L26.4845 23.9611Z" fill="#F8D80E"/>
<path d="M26.4845 23.9611L26.458 23.6212" stroke="black" stroke-width="0.129119" stroke-linecap="round"/>
<path d="M26.3429 23.5726L26.0236 23.8079L26.3429 23.5726Z" fill="#F8D80E"/>
<path d="M26.3429 23.5726L26.0236 23.8079" stroke="black" stroke-width="0.129119" stroke-linecap="round"/>
<path d="M24.8075 21.7883V22.1905V21.7883Z" fill="#F8D80E"/>
<path d="M24.8075 21.7883V22.1905" stroke="black" stroke-width="0.129119" stroke-linecap="round"/>
<path d="M25.6192 22.2153V22.6717V22.2153Z" fill="#F8D80E"/>
<path d="M25.6192 22.2153V22.6717" stroke="black" stroke-width="0.129119" stroke-linecap="round"/>
<path d="M25.2133 22.0022V22.4307V22.0022Z" fill="#F8D80E"/>
<path d="M25.2133 22.0022V22.4307" stroke="black" stroke-width="0.129119" stroke-linecap="round"/>
<path d="M23.6589 31.424V32.4609H24.3085V31.9404H25.1922V32.4609H25.8902V31.424H23.6589ZM23.6589 32.8523V33.8933H25.8902V32.8523H25.1922V33.3728H24.3085V32.8523H23.6589Z" fill="#F8D80E" stroke="black" stroke-width="0.129119"/>
<path d="M26.5332 27.0454H25.8889V34.5491H26.5332V27.0454Z" fill="#F8D80E" stroke="black" stroke-width="0.129119"/>
<path d="M26.5332 27.6945H25.8889V34.1583H26.5332V27.6945Z" fill="#F8D80E" stroke="black" stroke-width="0.129119"/>
<path d="M26.211 25.2061L27.5829 26.005L26.211 26.7999L24.8391 26.005L26.211 25.2061ZM24.3751 25.7185H24.016V26.2915H24.3751L26.211 27.3567L28.0469 26.2915H28.406V25.7185H28.0469L26.211 24.6533L24.3751 25.7185Z" fill="#F8D80E" stroke="black" stroke-width="0.132218"/>
<path d="M26.1848 23.2531C25.8725 23.2969 25.6391 23.6056 25.6562 23.916C25.6574 24.3986 25.6538 24.8814 25.658 25.3639C25.6746 25.6748 25.9463 25.9535 26.2616 25.9563C26.5179 25.9806 26.7753 25.8308 26.8829 25.5974C26.8089 25.553 26.7349 25.5087 26.6609 25.4643C26.6036 25.6171 26.4384 25.7119 26.2776 25.6943C26.0665 25.7002 25.8955 25.4949 25.9145 25.2896C25.9157 24.8101 25.912 24.3305 25.9163 23.8511C25.928 23.6555 26.1145 23.4954 26.3099 23.5154C26.3908 23.4922 26.502 23.6028 26.5519 23.5073C26.6273 23.4002 26.4984 23.3166 26.4269 23.2572C26.3477 23.2463 26.2649 23.2561 26.1848 23.2531L26.1848 23.2531ZM26.9313 23.7575C26.8801 23.8538 26.7742 23.911 26.6892 23.9615V24.9317C26.7752 24.9814 26.8613 25.0312 26.9474 25.0809C26.9464 24.6673 26.9494 24.2535 26.9459 23.8399C26.9418 23.8145 26.9449 23.7756 26.9313 23.7575H26.9313Z" fill="#F8D80E" stroke="black" stroke-width="0.132218"/>
<path d="M28.0941 6.99319H24.3073V13.8694H28.0941V6.99319Z" fill="black"/>
<path d="M24.0422 6.99628V12.7501H25.2446V11.0433C25.2446 10.6497 25.4967 10.1032 26.2695 10.1032C27.0422 10.1032 27.2944 10.6497 27.2944 11.0433V12.7501H28.4968V6.99628H24.0422ZM26.0839 7.64187H26.4551V9.61093H26.0839V7.64187ZM25.0186 8.02923H25.3939V9.46971H25.0186V8.02923ZM27.1451 8.02923H27.5203V9.46971H27.1451V8.02923Z" fill="#DA000C" stroke="black" stroke-width="0.129119"/>
<path d="M23.6346 6.1691V6.9882H28.9043V6.1691H23.6346Z" fill="#DA000C" stroke="black" stroke-width="0.129119"/>
<path d="M23.1384 5.21686V6.16911H29.4006V5.21686H28.6138V5.7414H27.7261V5.21686H26.7133V5.7414H25.8257V5.21686H24.8129V5.7414H23.9252V5.21686H23.1384Z" fill="#DA000C" stroke="black" stroke-width="0.129119"/>
<path d="M21.9763 14.6748V15.2679H30.5627V14.6748H21.9763Z" fill="#DA000C" stroke="black" stroke-width="0.129119"/>
<path d="M21.6252 12.7461V14.6748H30.9137V12.7461H30.0341V13.4885H28.864V12.7461H27.2944V13.4885H25.2446V12.7461H23.675V13.4885H22.5049V12.7461H21.6252Z" fill="#DA000C" stroke="black" stroke-width="0.129119"/>
<path d="M22.7429 15.2679V22.2847H24.4013V19.658C24.4013 18.4207 25.2272 17.8382 26.2695 17.8382C27.2713 17.8382 28.1377 18.4207 28.1377 19.658V22.2847H29.796V15.2679H22.7429Z" fill="#DA000C" stroke="black" stroke-width="0.129119" stroke-linejoin="round"/>
</g>
<path d="M11.7035 1.61228C6.53056 2.04084 2.23921 5.77712 1.57724 11.0101C1.25164 13.5841 1 16.6548 1 20C1 23.3452 1.25164 26.4159 1.57724 28.9899C2.23922 34.2229 6.53056 37.9592 11.7035 38.3877C15.5784 38.7087 20.5852 39 26 39C31.4148 39 36.4216 38.7087 40.2965 38.3877C45.4694 37.9592 49.7608 34.2229 50.4228 28.9899C50.7484 26.4159 51 23.3452 51 20C51 16.6548 50.7484 13.5841 50.4228 11.0101C49.7608 5.77712 45.4694 2.04084 40.2965 1.61228C36.4216 1.29127 31.4148 1 26 1C20.5852 1 15.5784 1.29127 11.7035 1.61228Z" stroke="#E6E6FA" stroke-width="2"/>
</svg>
