<svg width="52" height="40" viewBox="0 0 52 40" fill="none" xmlns="http://www.w3.org/2000/svg">
<g clip-path="url(#clip0_4988_6523)">
<mask id="mask0_4988_6523" style="mask-type:alpha" maskUnits="userSpaceOnUse" x="2" y="2" width="48" height="36">
<path d="M2.56934 11.1356C3.16681 6.41247 7.0415 3.00193 11.7861 2.60887C15.6412 2.28949 20.6196 2 26 2C31.3804 2 36.3588 2.28949 40.2139 2.60887C44.9585 3.00193 48.8332 6.41247 49.4307 11.1356C49.752 13.6759 50 16.704 50 20C50 23.296 49.752 26.3241 49.4307 28.8644C48.8332 33.5875 44.9585 36.9981 40.2139 37.3911C36.3588 37.7105 31.3804 38 26 38C20.6196 38 15.6412 37.7105 11.7861 37.3911C7.04151 36.9981 3.16681 33.5875 2.56934 28.8644C2.248 26.3241 2 23.296 2 20C2 16.704 2.248 13.6759 2.56934 11.1356Z" fill="#00D0BF"/>
</mask>
<g mask="url(#mask0_4988_6523)">
<path d="M74 2H2V38H74V2Z" fill="#2C2929"/>
<path d="M26 35C34.2843 35 41 28.2843 41 20C41 11.7157 34.2843 5 26 5C17.7157 5 11 11.7157 11 20C11 28.2843 17.7157 35 26 35Z" fill="#83D8DD"/>
<path d="M22.9832 26.8216C21.2486 25.0582 18.165 26.465 17.3941 25.5977C16.6232 24.7305 17.5868 23.8632 18.9359 23.8302C20.2851 23.7973 19.4178 21.165 18.0531 20.0417C16.6884 18.9186 16.1414 20.6832 14.5996 20.0007C13.7441 19.6221 13.4295 16.6381 13.6437 15.1659C13.8344 13.8547 14.9286 12.3278 15.9565 12.5984C16.9844 12.8689 16.3228 13.7904 17.1247 13.8437C17.9267 13.897 17.6697 12.7399 18.8261 12.4618C19.9084 12.2015 22.2659 11.7687 20.3166 6.11536C14.8506 8.35516 11 13.7275 11 20C11 21.3328 11.1747 22.6246 11.5009 23.8547C12.795 24.8399 14.61 24.5846 15.0143 25.8894C15.1772 26.4153 14.1903 27.1074 13.3309 28.0331C15.5369 31.5048 19.1302 34.0086 23.3311 34.763C24.6035 31.6848 24.1564 28.0143 22.9832 26.8216Z" fill="#7DBF63"/>
<path opacity="0.1" d="M27.4468 33.5532C19.1626 33.5532 12.4468 26.8376 12.4468 18.5532C12.4468 14.7793 13.8409 11.3313 16.1417 8.69495C12.991 11.4448 11 15.4897 11 20C11 28.2842 17.7158 35 26 35C30.5104 35 34.5553 33.009 37.3051 29.8583C34.6688 32.1591 31.2207 33.5532 27.4468 33.5532Z" fill="black"/>
<path d="M35.3477 8.26923C35.5283 9.78405 35.9274 11.5668 32.746 11.1247C31.1534 10.9034 29.2003 11.3898 29.2125 13.106C29.2204 14.2143 29.5337 17.217 30.6259 17.2813C31.718 17.3455 34.2236 17.7882 34.4806 15.8323C34.7376 13.8764 36.7245 12.9796 37.305 13.7491C37.7526 14.3425 39.4966 16.3792 40.7727 17.3874C40.1276 13.7142 38.1459 10.5019 35.3477 8.26923Z" fill="#7DBF63"/>
<path d="M34.6091 20.4148C33.3895 21.0303 30.9471 22.3155 31.975 24.8737C33.0029 27.4319 34.0951 29.5523 33.3884 31.6721C33.2087 32.2111 33.4073 32.5727 33.803 32.8128C37.8991 30.313 40.7023 25.9044 40.9772 20.8232C39.2427 20.0815 37.1286 19.1433 34.6091 20.4148Z" fill="#7DBF63"/>
<path opacity="0.2" d="M31.7038 6.12366C31.2274 6.83557 30.9492 7.69139 30.9492 8.61225C30.9492 11.087 32.9554 13.0931 35.4301 13.0931C36.6522 13.0931 37.7594 12.6034 38.5678 11.8101C36.918 9.28362 34.5273 7.28551 31.7038 6.12366Z" fill="white"/>
<path d="M27.2527 23.1763C26.7609 23.1763 26.3162 22.9704 26.0002 22.6404C25.6843 22.9705 25.2396 23.1763 24.7477 23.1763C23.7913 23.1763 23.0133 22.3982 23.0133 21.4418C23.0133 21.1757 23.229 20.96 23.4951 20.96C23.7613 20.96 23.9769 21.1758 23.9769 21.4418C23.9769 21.8668 24.3227 22.2126 24.7477 22.2126C25.1726 22.2126 25.5184 21.8668 25.5184 21.4418C25.5184 21.1757 25.734 20.96 26.0002 20.96C26.2664 20.96 26.482 21.1758 26.482 21.4418C26.482 21.8668 26.8278 22.2126 27.2527 22.2126C27.6777 22.2126 28.0234 21.8668 28.0234 21.4418C28.0234 21.1757 28.2391 20.96 28.5052 20.96C28.7714 20.96 28.9871 21.1758 28.9871 21.4418C28.9872 22.3982 28.2092 23.1763 27.2527 23.1763Z" fill="#394049"/>
<path d="M20.2147 20.0521C19.9485 20.0521 19.7329 19.8364 19.7329 19.5703V19.0383C19.7329 18.7721 19.9486 18.5565 20.2147 18.5565C20.4809 18.5565 20.6965 18.7722 20.6965 19.0383V19.5703C20.6966 19.8364 20.4809 20.0521 20.2147 20.0521Z" fill="#394049"/>
<path d="M31.7856 20.0521C31.5194 20.0521 31.3038 19.8364 31.3038 19.5703V19.0383C31.3038 18.7721 31.5195 18.5565 31.7856 18.5565C32.0517 18.5565 32.2674 18.7722 32.2674 19.0383V19.5703C32.2675 19.8364 32.0517 20.0521 31.7856 20.0521Z" fill="#394049"/>
</g>
<path d="M26 1C20.5852 1 15.5784 1.29127 11.7035 1.61228C6.53056 2.04084 2.23921 5.77712 1.57724 11.0101C1.25164 13.5841 1 16.6548 1 20C1 23.3452 1.25164 26.4159 1.57724 28.9899C2.23922 34.2229 6.53056 37.9592 11.7035 38.3877C15.5784 38.7087 20.5852 39 26 39C31.4148 39 36.4216 38.7087 40.2965 38.3877C45.4694 37.9592 49.7608 34.2229 50.4228 28.9899C50.7484 26.4159 51 23.3452 51 20C51 16.6548 50.7484 13.5841 50.4228 11.0101C49.7608 5.77712 45.4694 2.04084 40.2965 1.61228C36.4216 1.29127 31.4148 1 26 1Z" stroke="#E6E6FA" stroke-width="2"/>
</g>
<defs>
<clipPath id="clip0_4988_6523">
<rect width="52" height="40" fill="white"/>
</clipPath>
</defs>
</svg>
