<svg width="52" height="40" viewBox="0 0 52 40" fill="none" xmlns="http://www.w3.org/2000/svg">
<mask id="mask0_1_37142" style="mask-type:alpha" maskUnits="userSpaceOnUse" x="2" y="2" width="48" height="36">
<path d="M2.56934 11.1356C3.16681 6.41247 7.0415 3.00193 11.7861 2.60887C15.6412 2.28949 20.6196 2 26 2C31.3804 2 36.3588 2.28949 40.2139 2.60887C44.9585 3.00193 48.8332 6.41247 49.4307 11.1356C49.752 13.6759 50 16.704 50 20C50 23.296 49.752 26.3241 49.4307 28.8644C48.8332 33.5875 44.9585 36.9981 40.2139 37.3911C36.3588 37.7105 31.3804 38 26 38C20.6196 38 15.6412 37.7105 11.7861 37.3911C7.0415 36.9981 3.16681 33.5875 2.56934 28.8644C2.248 26.3241 2 23.296 2 20C2 16.704 2.248 13.6759 2.56934 11.1356Z" fill="#00D0BF"/>
</mask>
<g mask="url(#mask0_1_37142)">
<rect x="2" y="26" width="48" height="12" fill="#EE5757"/>
<rect x="2" y="14" width="48" height="12" fill="white"/>
<path d="M23.5062 16.8899H28.5971V22.2227C28.5971 24.0172 26.2577 22.6348 26.0583 23.5918C25.7127 22.6082 23.5195 24.0305 23.5195 22.1164C23.5195 20.2555 23.5062 16.8899 23.5062 16.8899Z" fill="white" stroke="black" stroke-width="0.0638024"/>
<path d="M26.4173 22.7411C26.4173 22.7411 26.3508 22.8076 26.2312 22.7544C26.1116 22.7013 26.0983 19.3384 26.0983 19.3384C26.3641 19.0459 26.5768 18.9529 26.5768 18.9529L26.7363 19.0858C26.1381 19.3915 26.1913 19.8302 26.2445 20.5878C26.2578 20.867 26.2578 21.2258 26.3242 21.5714C26.4173 22.0101 26.6034 22.3823 26.6167 22.6614C26.63 22.8342 26.4173 22.7411 26.4173 22.7411Z" fill="#73452B" stroke="black" stroke-width="0.0132922"/>
<path d="M26.0052 18.8731H26.2445C26.0451 20.8005 26.2179 21.9436 26.2179 22.5019C26.2179 22.688 26.3242 22.7544 26.3109 22.7544C26.0717 23.0203 25.952 22.7412 25.952 22.7412L26.0052 18.8731Z" fill="#73452B" stroke="black" stroke-width="0.0132922"/>
<path d="M25.6329 22.7411C25.407 22.8475 25.3804 22.6348 25.3937 22.6082C25.8855 21.6113 26.0982 19.4181 25.6462 19.1788L25.6728 18.9662C25.8456 19.0193 26.0051 19.2453 26.0051 19.2453C26.0716 21.7043 26.0051 22.7145 25.9652 22.7544C25.726 23.007 25.6329 22.7145 25.6196 22.688" fill="#A36629"/>
<path d="M25.6329 22.7411C25.407 22.8475 25.3804 22.6348 25.3937 22.6082C25.8855 21.6113 26.0982 19.4181 25.6462 19.1788L25.6728 18.9662C25.8456 19.0193 26.0051 19.2453 26.0051 19.2453C26.0716 21.7043 26.0051 22.7145 25.9652 22.7544C25.726 23.007 25.6329 22.7145 25.6196 22.688" stroke="black" stroke-width="0.0132922"/>
<path d="M25.6197 22.7013C25.5798 22.4886 25.9653 21.9436 25.9387 21.372" stroke="black" stroke-width="0.0132922"/>
<path d="M26.271 21.8373C26.3906 22.1696 26.4438 22.462 26.4172 22.7411" stroke="black" stroke-width="0.0132922"/>
<path d="M26.7894 17.9693C26.8692 17.8762 26.8692 17.8762 27.0154 17.8762C27.042 17.6768 27.3743 17.6768 27.4009 17.9294C27.6667 17.8762 27.7199 18.0357 27.6136 18.1952C27.8661 18.1288 28.0921 18.1952 28.0256 18.4876C28.4775 18.6073 28.3048 18.9263 28.1054 18.9928C28.0788 19.1921 27.8927 19.2586 27.6401 19.1788C27.3211 19.4048 27.135 19.3251 26.9888 19.0991C26.6299 19.1523 26.6034 19.0725 26.4438 18.8731C26.1647 18.9928 26.1115 18.9928 25.8723 18.8465C25.859 19.0326 25.7925 18.9795 25.6729 18.9662C25.6862 19.2054 25.5932 19.3118 25.3805 19.232C25.54 19.5643 25.1279 19.7105 24.9285 19.4314C24.7425 19.4447 24.7292 19.3915 24.6361 19.3251C24.5564 19.5909 24.2639 19.551 24.2108 19.4048C23.8386 19.3516 23.8785 19.1523 24.1842 19.139C24.2108 18.9263 24.3969 18.9662 24.5165 18.9928C24.5298 18.8598 24.6095 18.8864 24.676 18.913C24.6361 18.82 24.6627 18.7668 24.7823 18.7402C24.6095 18.5142 24.7159 18.4345 24.8887 18.3547C24.7956 18.1421 24.9551 18.1553 25.0748 18.1421C25.0615 17.9161 25.1279 17.8762 25.3672 17.8496C25.3406 17.7699 25.3805 17.7034 25.5134 17.7034C25.4336 17.4774 25.54 17.4256 25.7792 17.4642C25.8191 17.1358 26.5236 17.2914 26.4704 17.7433C26.6698 17.7699 26.7363 17.8097 26.7894 17.9693Z" fill="#009A3B" stroke="black" stroke-width="0.0132922"/>
<path d="M25.3672 17.8496C25.4204 17.8762 25.4868 17.8496 25.5001 17.9958C25.6064 17.8097 25.7394 17.9161 25.7394 18.1287" stroke="black" stroke-width="0.0132922"/>
<path d="M26.4705 17.7433C26.4173 17.823 26.2179 17.823 26.2445 18.0357C26.178 17.9427 26.0451 17.9161 25.9919 18.0091" stroke="black" stroke-width="0.0132922"/>
<path d="M26.7895 17.9692C26.7895 18.0224 26.7762 18.1819 26.723 18.2617" stroke="black" stroke-width="0.0132922"/>
<path d="M27.6135 18.1952C27.6268 18.2085 27.4274 18.1952 27.3344 18.2617" stroke="black" stroke-width="0.0132922"/>
<path d="M28.1053 18.9928C28.0522 18.9662 27.9458 18.8997 27.8661 19.0061C27.8661 18.9529 27.8661 18.8067 27.7198 18.8067" stroke="black" stroke-width="0.0132922"/>
<path d="M27.6401 19.1788C27.6401 19.0459 27.6135 19.006 27.5869 18.9662" stroke="black" stroke-width="0.0132922"/>
<path d="M27.2014 18.9927C27.0951 18.913 26.9888 19.0326 26.9888 19.0991" stroke="black" stroke-width="0.0132922"/>
<path d="M26.4305 18.8731C26.4305 18.82 26.3906 18.7136 26.4837 18.6737" stroke="black" stroke-width="0.0132922"/>
<path d="M24.9152 19.4314C24.9418 19.2985 25.0349 19.2985 25.0216 19.232C25.0083 19.1257 24.8886 19.0326 24.7424 19.1788" stroke="black" stroke-width="0.0132922"/>
<path d="M25.0216 19.232C25.1014 19.2054 25.1811 19.2187 25.2077 19.2586" stroke="black" stroke-width="0.0132922"/>
<path d="M24.7957 18.7402C24.8488 18.687 24.9817 18.7003 25.0615 18.7402" stroke="black" stroke-width="0.0132922"/>
<path d="M25.0614 18.4212C25.1279 18.4212 25.2475 18.3946 25.2874 18.5142C25.4336 18.2883 25.5399 18.3149 25.5665 18.368" stroke="black" stroke-width="0.0132922"/>
<path d="M25.8324 18.3414C25.9387 18.3016 26.1248 18.4079 26.2312 18.594C26.2843 18.4478 26.3641 18.4744 26.4438 18.4611" stroke="black" stroke-width="0.0132922"/>
<path d="M26.949 18.594C27.1218 18.5142 27.2281 18.6737 27.2813 18.7402C27.361 18.6338 27.4275 18.6338 27.5072 18.6338" stroke="black" stroke-width="0.0132922"/>
<path d="M25.3406 18.913C25.3805 18.8465 25.4735 18.8332 25.54 18.8731C25.5267 18.7535 25.6064 18.7003 25.6596 18.7269" stroke="black" stroke-width="0.0132922"/>
<path d="M25.8857 16.1429L25.5932 16.1562L25.447 16.4181L25.2875 16.1682L24.9951 16.1801L25.128 15.9169L24.9685 15.6671L25.2742 15.6538L25.4071 15.3919L25.5667 15.6418L25.8591 15.6298L25.7262 15.893L25.8857 16.1429Z" fill="#FFD700" stroke="black" stroke-width="0.0465226"/>
<path d="M24.6362 16.2399L24.3438 16.3117L24.264 16.5948L24.0514 16.3822L23.7722 16.4513L23.852 16.1682L23.6526 15.9528L23.9317 15.8824L24.0115 15.5979L24.2242 15.8106L24.5166 15.7415L24.4235 16.0259L24.6362 16.2399Z" fill="#FFD700" stroke="black" stroke-width="0.0465226"/>
<path d="M23.4266 16.4885L23.1607 16.6201L23.1474 16.9152L22.8949 16.753L22.629 16.8833L22.6556 16.5882L22.4031 16.4247L22.6689 16.2918L22.6955 15.9967L22.9348 16.1589L23.2006 16.0286L23.1873 16.3237L23.4266 16.4885Z" fill="#FFD700" stroke="black" stroke-width="0.0465226"/>
<path d="M26.2711 16.1429L26.5635 16.1562L26.6965 16.4181L26.856 16.1682L27.1484 16.1801L27.0155 15.9169L27.175 15.6671L26.8826 15.6538L26.7363 15.3919L26.5768 15.6418L26.2844 15.6298L26.4173 15.893L26.2711 16.1429Z" fill="#FFD700" stroke="black" stroke-width="0.0465226"/>
<path d="M27.5205 16.2399L27.7996 16.3117L27.8794 16.5948L28.0921 16.3822L28.3712 16.4513L28.2915 16.1682L28.5041 15.9528L28.2117 15.8824L28.1319 15.5979L27.9193 15.8106L27.6401 15.7415L27.7199 16.0259L27.5205 16.2399Z" fill="#FFD700" stroke="black" stroke-width="0.0465226"/>
<path d="M28.7168 16.4885L28.9826 16.6201L28.9959 16.9152L29.2485 16.753L29.5143 16.8833L29.501 16.5882L29.7403 16.4247L29.4744 16.2918L29.4612 15.9967L29.2086 16.1589L28.9428 16.0286L28.9693 16.3237L28.7168 16.4885Z" fill="#FFD700" stroke="black" stroke-width="0.0465226"/>
<path d="M29.0757 22.1164L29.408 22.5949L29.7137 22.143L29.501 21.7575L29.0757 22.1164Z" fill="white" stroke="black" stroke-width="0.0465226"/>
<path d="M26.9623 23.5121L26.9889 23.9906C26.9889 23.9906 27.1218 23.9906 27.2414 23.9507C27.3478 23.9108 27.4408 23.8311 27.4408 23.8311L27.4275 23.5785L26.9623 23.5121Z" fill="white" stroke="black" stroke-width="0.0465226"/>
<path d="M25.181 23.5121L25.1544 23.9773C25.1544 23.9773 25.0348 23.9773 24.9152 23.9507C24.8089 23.9241 24.7158 23.8577 24.7158 23.8577L24.5829 23.5387L25.181 23.5121Z" fill="white" stroke="black" stroke-width="0.0465226"/>
<path d="M23.041 22.1164L22.6954 22.5949L22.3232 21.9835L22.6024 21.6911L23.041 22.1164Z" fill="white" stroke="black" stroke-width="0.0465226"/>
<path d="M24.7025 24.4691C24.7025 24.9211 27.4407 24.9211 27.4407 24.4691V23.8311C27.4407 24.1634 24.7025 24.097 24.7025 23.8311V24.4691Z" fill="white" stroke="black" stroke-width="0.0465226"/>
<path d="M22.2568 22.9937C22.4961 24.2166 24.7026 24.2431 24.7026 24.2431V23.8311C24.6494 23.6716 24.7425 23.6184 25.1014 23.5652C25.2476 23.552 25.1811 23.3393 25.1811 23.3393C25.1811 23.3393 24.2241 23.5121 23.5462 23.2462C22.629 22.8741 22.4961 22.1563 22.4961 22.1563C22.4961 22.1563 22.4296 22.7146 22.2568 22.9937Z" fill="white" stroke="black" stroke-width="0.0465226"/>
<path d="M29.8732 22.9937C29.6473 24.2166 27.4408 24.2431 27.4408 24.2431V23.8311C27.4807 23.6716 27.3876 23.6184 27.0287 23.5652C26.8825 23.552 26.9623 23.3393 26.9623 23.3393C26.9623 23.3393 27.9193 23.5121 28.5972 23.2462C29.5011 22.8741 29.6074 22.1563 29.6074 22.1563C29.6074 22.1563 29.7004 22.7146 29.8732 22.9937Z" fill="white" stroke="black" stroke-width="0.0465226"/>
<path d="M22.4296 22.5285C21.8182 22.1962 22.2967 21.8506 22.3499 20.8669C22.4429 21.4651 23.1208 21.7176 23.041 22.1031C22.7619 22.1164 22.629 21.6911 22.4961 22.1563L22.4296 22.5285Z" fill="white" stroke="black" stroke-width="0.0465226"/>
<path d="M29.7005 22.5285C30.3119 22.1829 29.8068 21.8506 29.7536 20.8669C29.6606 21.4651 28.996 21.7176 29.0757 22.1031C29.3416 22.1164 29.4745 21.6911 29.6074 22.1563L29.7005 22.5152V22.5285Z" fill="white" stroke="black" stroke-width="0.0465226"/>
<path d="M22.8018 22.9804L22.8682 23.0335L22.722 23.1931C22.6635 23.2569 22.6494 23.2991 22.69 23.338C22.7405 23.3862 22.7759 23.3695 22.8284 23.3127L22.9879 23.1399L23.041 23.1931L22.8817 23.379C22.7952 23.4799 22.7149 23.4568 22.6475 23.3939C22.5888 23.3391 22.5552 23.2596 22.6415 23.1619L22.8023 22.9811L22.8018 22.9804Z" fill="black"/>
<path d="M23.0676 23.2064L23.1341 23.2462L23.1208 23.5652L23.267 23.3393L23.3335 23.3792L23.1208 23.7248L23.0411 23.6849L23.0543 23.3659L22.9081 23.5918L22.8417 23.552L23.0676 23.2064Z" fill="black"/>
<path d="M23.1873 23.7646L23.3733 23.3924L23.4398 23.4323L23.267 23.7912L23.1873 23.7646Z" fill="black"/>
<path d="M23.4796 23.4456L23.3329 23.8308L23.4796 23.8843C23.6164 23.9341 23.6806 23.8739 23.7241 23.7582C23.7679 23.6406 23.7488 23.5541 23.612 23.4991L23.4796 23.4456ZM23.5323 23.5389C23.6698 23.5868 23.6782 23.639 23.6407 23.7335C23.6044 23.8232 23.5706 23.8583 23.4398 23.7909L23.5323 23.5389Z" fill="black"/>
<path d="M23.9183 23.5918L23.6791 23.9507L23.7716 23.9778L23.825 23.8845L23.9845 23.9244L23.9981 24.0177L24.0906 24.0305L23.9981 23.6054L23.9183 23.5918ZM23.9447 23.6851L23.971 23.8446L23.8649 23.8311L23.9447 23.6851Z" fill="black"/>
<path d="M24.1456 23.6264L24.1312 24.0383L24.2877 24.0414C24.4331 24.0441 24.4745 23.9667 24.478 23.8432C24.4816 23.7176 24.4354 23.6418 24.288 23.6343L24.1456 23.6264L24.1456 23.6264ZM24.2254 23.6979C24.3712 23.6984 24.3961 23.745 24.3909 23.8467C24.3861 23.9433 24.365 23.9874 24.2197 23.9659L24.2254 23.6978L24.2254 23.6979Z" fill="black"/>
<path d="M25.5399 24.2032V24.6283H25.6333V24.4688C25.6333 24.4688 25.713 24.4736 25.7792 24.4561C25.8314 24.4425 25.8677 24.409 25.8689 24.3265C25.8701 24.2455 25.8231 24.2032 25.7417 24.2032H25.5397H25.5399ZM25.6333 24.2694L25.727 24.2706C25.8051 24.2706 25.7904 24.3891 25.7294 24.3891H25.6333V24.2694Z" fill="black"/>
<path d="M26.0185 24.2033L25.8455 24.6284H25.9388L25.9786 24.5223H26.1517L26.1916 24.6284H26.2841L26.1113 24.203H26.0183L26.0185 24.2033ZM26.0584 24.2966L26.1246 24.4561H26.005L26.0584 24.2966Z" fill="black"/>
<path d="M26.2843 24.5488L26.5103 24.2697H26.3109V24.2032H26.6299V24.2697L26.3906 24.5488H26.6299V24.6286H26.2843V24.5488Z" fill="black"/>
<path d="M27.6268 23.7247L27.7066 23.7115L27.7465 23.9507C27.7606 24.0358 27.7218 24.0938 27.6612 24.1161C27.5922 24.1416 27.5043 24.1183 27.4939 24.0039L27.5604 23.9906C27.5758 24.0591 27.6034 24.065 27.6353 24.0543C27.6606 24.0458 27.6737 24.0059 27.6667 23.964L27.6268 23.7247Z" fill="black"/>
<path d="M27.7598 23.7008L27.8385 23.6859L27.8749 23.885C27.8905 23.9702 27.9172 24.0064 27.9726 23.9968C28.0414 23.9848 28.0489 23.9462 28.0343 23.8703L27.9853 23.6579L28.0659 23.6458L28.1193 23.8667C28.1505 23.996 28.083 24.0472 27.9924 24.0641C27.9135 24.0789 27.8295 24.0588 27.802 23.9314L27.7598 23.7008Z" fill="black"/>
<path d="M28.1719 23.8842L28.2383 23.8577C28.2709 23.9162 28.3218 23.9132 28.3613 23.8957C28.4163 23.8714 28.4226 23.8234 28.3954 23.8071C28.3567 23.784 28.2642 23.8169 28.2144 23.7987C28.1549 23.777 28.1293 23.7435 28.1323 23.692C28.136 23.6299 28.1906 23.5958 28.2499 23.5774C28.3163 23.5568 28.3818 23.5641 28.4244 23.645L28.3447 23.6716C28.3187 23.6279 28.2853 23.6299 28.2556 23.6439C28.2308 23.6557 28.1921 23.6777 28.2128 23.7131C28.2298 23.7421 28.3275 23.7233 28.3789 23.7254C28.4322 23.7276 28.4752 23.7631 28.4824 23.8143C28.4924 23.8856 28.466 23.9243 28.3835 23.9565C28.2816 23.9962 28.1896 23.9517 28.1719 23.8842H28.1719Z" fill="black"/>
<path d="M28.5307 23.5519L28.4244 23.6051L28.3978 23.5386L28.6903 23.419L28.7168 23.4722L28.6105 23.5253L28.7301 23.8178L28.6637 23.8576L28.5307 23.5519Z" fill="black"/>
<path d="M28.7035 23.4057L28.77 23.3658L28.956 23.7114L28.8896 23.7513L28.7035 23.4057Z" fill="black"/>
<path d="M29.1554 23.4323L29.2352 23.4057C29.2727 23.4846 29.2164 23.6279 29.0786 23.625C28.8771 23.6206 28.8553 23.3986 28.887 23.3254C28.9402 23.2024 29.0893 23.2048 29.1554 23.2728L29.089 23.326C29.0468 23.2719 28.9532 23.306 28.9469 23.3557C28.9366 23.4369 28.9723 23.5124 29.0449 23.5482C29.1064 23.5786 29.2012 23.5022 29.1554 23.4323L29.1554 23.4323Z" fill="black"/>
<path d="M29.1156 23.1532L29.1821 23.1L29.4213 23.419L29.3549 23.4722L29.1156 23.1532Z" fill="black"/>
<path d="M29.3681 22.9538L29.3019 23.0072L29.4478 23.406L29.514 23.3398L29.4741 23.26L29.5938 23.1532L29.6735 23.1931L29.7405 23.1404L29.3681 22.9538ZM29.3944 23.0471L29.5276 23.1133L29.4478 23.1931L29.3944 23.0471Z" fill="black"/>
<rect x="2" y="2" width="48" height="12" fill="#59C785"/>
<path d="M15 20L2 2V38L15 20Z" fill="#3F6FEB"/>
</g>
<path d="M11.7035 1.61228C6.53056 2.04084 2.23921 5.77712 1.57724 11.0101C1.25164 13.5841 1 16.6548 1 20C1 23.3452 1.25164 26.4159 1.57724 28.9899C2.23922 34.2229 6.53056 37.9592 11.7035 38.3877C15.5784 38.7087 20.5852 39 26 39C31.4148 39 36.4216 38.7087 40.2965 38.3877C45.4694 37.9592 49.7608 34.2229 50.4228 28.9899C50.7484 26.4159 51 23.3452 51 20C51 16.6548 50.7484 13.5841 50.4228 11.0101C49.7608 5.77712 45.4694 2.04084 40.2965 1.61228C36.4216 1.29127 31.4148 1 26 1C20.5852 1 15.5784 1.29127 11.7035 1.61228Z" stroke="#E6E6FA" stroke-width="2"/>
</svg>
