<svg width="52" height="40" viewBox="0 0 52 40" fill="none" xmlns="http://www.w3.org/2000/svg">
<mask id="mask0_1_30708" style="mask-type:alpha" maskUnits="userSpaceOnUse" x="2" y="2" width="48" height="36">
<path d="M2.56934 11.1356C3.16681 6.41247 7.0415 3.00193 11.7861 2.60887C15.6412 2.28949 20.6196 2 26 2C31.3804 2 36.3588 2.28949 40.2139 2.60887C44.9585 3.00193 48.8332 6.41247 49.4307 11.1356C49.752 13.6759 50 16.704 50 20C50 23.296 49.752 26.3241 49.4307 28.8644C48.8332 33.5875 44.9585 36.9981 40.2139 37.3911C36.3588 37.7105 31.3804 38 26 38C20.6196 38 15.6412 37.7105 11.7861 37.3911C7.0415 36.9981 3.16681 33.5875 2.56934 28.8644C2.248 26.3241 2 23.296 2 20C2 16.704 2.248 13.6759 2.56934 11.1356Z" fill="#00D0BF"/>
</mask>
<g mask="url(#mask0_1_30708)">
<rect x="50" y="38" width="48" height="36" transform="rotate(-180 50 38)" fill="#EE5757"/>
<path d="M26 33L26.449 34.382H27.9021L26.7265 35.2361L27.1756 36.618L26 35.7639L24.8244 36.618L25.2735 35.2361L24.0979 34.382H25.551L26 33Z" fill="#FCD95E"/>
<path d="M26 3L26.449 4.38197H27.9021L26.7265 5.23607L27.1756 6.61803L26 5.76393L24.8244 6.61803L25.2735 5.23607L24.0979 4.38197H25.551L26 3Z" fill="#FCD95E"/>
<path d="M35 33L35.449 34.382H36.9021L35.7265 35.2361L36.1756 36.618L35 35.7639L33.8244 36.618L34.2735 35.2361L33.0979 34.382H34.551L35 33Z" fill="#FCD95E"/>
<path d="M35 3L35.449 4.38197H36.9021L35.7265 5.23607L36.1756 6.61803L35 5.76393L33.8244 6.61803L34.2735 5.23607L33.0979 4.38197H34.551L35 3Z" fill="#FCD95E"/>
<path d="M17 33L17.449 34.382H18.9021L17.7265 35.2361L18.1756 36.618L17 35.7639L15.8244 36.618L16.2735 35.2361L15.0979 34.382H16.551L17 33Z" fill="#FCD95E"/>
<path d="M17 3L17.449 4.38197H18.9021L17.7265 5.23607L18.1756 6.61803L17 5.76393L15.8244 6.61803L16.2735 5.23607L15.0979 4.38197H16.551L17 3Z" fill="#FCD95E"/>
<rect x="44" y="32" width="36" height="24" transform="rotate(-180 44 32)" fill="#FCD95E"/>
</g>
<path d="M11.7035 1.61228C6.53056 2.04084 2.23921 5.77712 1.57724 11.0101C1.25164 13.5841 1 16.6548 1 20C1 23.3452 1.25164 26.4159 1.57724 28.9899C2.23922 34.2229 6.53056 37.9592 11.7035 38.3877C15.5784 38.7087 20.5852 39 26 39C31.4148 39 36.4216 38.7087 40.2965 38.3877C45.4694 37.9592 49.7608 34.2229 50.4228 28.9899C50.7484 26.4159 51 23.3452 51 20C51 16.6548 50.7484 13.5841 50.4228 11.0101C49.7608 5.77712 45.4694 2.04084 40.2965 1.61228C36.4216 1.29127 31.4148 1 26 1C20.5852 1 15.5784 1.29127 11.7035 1.61228Z" stroke="#E6E6FA" stroke-width="2"/>
<path d="M26 20L8 8V32L26 20Z" fill="#59C785"/>
<path d="M26 20L44 32L44 8L26 20Z" fill="#59C785"/>
<circle cx="26" cy="20" r="4" fill="#EE5757"/>
<path d="M26 16L26.8981 18.7639H29.8042L27.4531 20.4721L28.3511 23.2361L26 21.5279L23.6489 23.2361L24.5469 20.4721L22.1958 18.7639H25.1019L26 16Z" fill="#FCD95E"/>
<path d="M12.8939 19.9322C13.3528 20.787 14.2454 21.7171 15.0249 22.0442C15.0374 21.1761 14.7294 20.0636 14.3083 19.1772L12.8939 19.9322Z" fill="#EE5757"/>
<path d="M12.1158 17C12.781 18.3866 10.3906 21.6947 14.3731 22.4701C13.8818 21.7997 13.5651 20.6932 13.6849 19.8048C14.5204 20.1227 15.3996 21.0529 15.7549 21.764C16.7971 17.9791 13.0815 18.2093 12.1158 17Z" fill="#FCD95E"/>
</svg>
