<svg width="52" height="40" viewBox="0 0 52 40" fill="none" xmlns="http://www.w3.org/2000/svg">
<mask id="mask0_1_33104" style="mask-type:alpha" maskUnits="userSpaceOnUse" x="2" y="2" width="48" height="36">
<path d="M2.56934 11.1356C3.16681 6.41247 7.0415 3.00193 11.7861 2.60887C15.6412 2.28949 20.6196 2 26 2C31.3804 2 36.3588 2.28949 40.2139 2.60887C44.9585 3.00193 48.8332 6.41247 49.4307 11.1356C49.752 13.6759 50 16.704 50 20C50 23.296 49.752 26.3241 49.4307 28.8644C48.8332 33.5875 44.9585 36.9981 40.2139 37.3911C36.3588 37.7105 31.3804 38 26 38C20.6196 38 15.6412 37.7105 11.7861 37.3911C7.0415 36.9981 3.16681 33.5875 2.56934 28.8644C2.248 26.3241 2 23.296 2 20C2 16.704 2.248 13.6759 2.56934 11.1356Z" fill="#00D0BF"/>
</mask>
<g mask="url(#mask0_1_33104)">
<rect x="50" y="38" width="48" height="36" transform="rotate(-180 50 38)" fill="#EE5757"/>
<rect x="48" y="36" width="44" height="32" rx="10" transform="rotate(-180 48 36)" fill="#2E50A6"/>
<path fill-rule="evenodd" clip-rule="evenodd" d="M26.0215 9.1666C26.0215 9.1666 19.3868 14.4458 19.3868 19.9297C19.3868 25.4143 26.0215 30.8334 26.0215 30.8334C26.0215 30.8334 32.6138 25.809 32.6138 19.9297C32.6138 14.0512 26.0215 9.1666 26.0215 9.1666H26.0215Z" fill="#92DBFC"/>
<path fill-rule="evenodd" clip-rule="evenodd" d="M20.1208 23.277C21.8475 27.4241 26.0215 30.8333 26.0215 30.8333C26.0215 30.8333 30.2697 27.5954 31.9456 23.2767" fill="#008CE7"/>
<path fill-rule="evenodd" clip-rule="evenodd" d="M31.9687 22.0802C30.9458 22.812 25.1903 22.4606 25.1903 22.4606L24.8685 23.2799L31.7216 23.3011C31.7501 23.1887 31.8186 23.0551 31.8424 22.9416L31.9687 22.0802Z" fill="#9C8431"/>
<path fill-rule="evenodd" clip-rule="evenodd" d="M21.6702 25.4714C21.9616 25.4809 22.2519 25.5424 22.5126 25.6823C22.9786 25.9268 23.2488 25.925 23.7511 25.9327C24.2768 25.9407 24.6894 26.3277 25.2576 26.3438C26.3043 26.3731 26.7444 26.893 25.9305 26.8926C25.5461 26.8922 24.722 26.6341 24.3237 26.6883C23.7182 26.7498 23.3682 26.7959 22.92 27.1522C22.4932 26.6396 22.0663 26.0758 21.6702 25.4714ZM23.7409 28.081C24.0004 27.9034 24.1791 27.7646 24.431 27.757C24.9204 27.742 25.0874 27.4392 25.653 27.4395C26.2959 27.5574 27.1672 27.3623 27.6772 27.2492C28.5826 27.0405 28.1531 26.4071 27.6051 26.1772C27.1621 25.9876 26.3318 26.1677 25.8167 25.9795C25.4268 25.8272 25.7482 25.5845 25.958 25.5329C26.1696 25.4941 26.3966 25.564 26.6598 25.6068C27.1299 25.6482 27.7204 25.6043 28.1334 25.5402C28.9868 25.4095 28.9516 25.1591 29.3635 25.1532C29.664 25.1393 29.8929 25.05 30.0979 24.9035C30.3388 24.7428 30.5896 24.413 30.881 24.4261L31.0523 24.4335C29.2525 27.9151 26.0202 30.2007 26.0202 30.2007C26.0202 30.2007 24.9757 29.4011 23.7409 28.081Z" fill="#FFDE52"/>
<path fill-rule="evenodd" clip-rule="evenodd" d="M27.8782 25.5307C27.9898 25.9627 28.1081 26.1095 28.5621 26.2204C29.0102 26.3314 29.6948 25.8957 29.2705 25.4728C28.8667 25.0796 28.4412 24.979 28.0795 24.6249C27.5183 24.0685 26.7484 22.9182 26.3826 21.8305C25.9825 20.6414 26.052 17.2937 26.07 15.5979C26.0704 15.5781 26.1187 15.5664 26.1242 15.5584C26.1502 15.521 26.1751 15.5705 26.1344 15.3219C26.1238 15.2582 26.0733 15.1923 26.0736 15.1278C26.074 15.0129 25.6768 15.2534 25.5721 15.4584C25.5483 15.5053 25.6482 15.6389 25.6482 15.6653C25.6618 17.2922 25.4868 20.5044 25.9188 21.9586C26.186 22.8589 26.6737 23.5541 27.1152 24.1973C27.3799 24.6096 27.7628 25.0544 27.8782 25.5307Z" fill="#8C4200"/>
<path d="M22.9277 20.7673C22.9226 20.7665 22.9024 20.764 22.883 20.7614C22.745 20.7446 22.5975 20.6864 22.4895 20.6058C22.3357 20.4913 22.2339 20.3078 22.1999 20.0827C22.1904 20.0197 22.1907 19.8575 22.2003 19.7957C22.2274 19.6218 22.2911 19.4684 22.3826 19.3563C22.4097 19.3234 22.4617 19.2729 22.4935 19.2491C22.5686 19.192 22.6656 19.1473 22.7677 19.1224C22.8409 19.1041 22.886 19.0986 22.9738 19.096C23.0961 19.0931 23.1821 19.1041 23.2788 19.1363C23.4025 19.1769 23.4985 19.2428 23.5662 19.3329C23.612 19.3937 23.6713 19.5288 23.6797 19.591C23.6841 19.6251 23.6705 19.6503 23.6405 19.6631C23.631 19.6672 23.5834 19.6814 23.5343 19.6946C23.4359 19.721 23.4219 19.7217 23.4 19.7034C23.3853 19.691 23.3802 19.6814 23.3674 19.6415C23.3615 19.6247 23.3473 19.5903 23.3352 19.5657C23.3165 19.528 23.3088 19.5167 23.2836 19.4914C23.2583 19.4658 23.2473 19.4581 23.2096 19.4398C23.1261 19.3992 23.0324 19.3853 22.9244 19.3984C22.8453 19.408 22.7597 19.4402 22.7058 19.4808C22.5861 19.5709 22.5195 19.7488 22.5265 19.9589C22.5356 20.2456 22.6572 20.4034 22.9072 20.4535C22.9552 20.4631 23.0599 20.4631 23.1111 20.4535C23.1858 20.4396 23.2953 20.3968 23.3571 20.3573L23.3795 20.3433V20.2522L23.3798 20.1607L23.1825 20.1592L22.9852 20.1577L22.9727 20.149C22.9658 20.1438 22.9563 20.1343 22.9515 20.1274C22.9427 20.1153 22.9427 20.1134 22.9427 20.0062C22.9431 19.8989 22.9431 19.8971 22.9519 19.885C22.9566 19.878 22.9665 19.8685 22.9735 19.8638L22.9859 19.8546L23.3238 19.8554L23.6621 19.8562L23.6742 19.8649C23.6812 19.8697 23.6907 19.8803 23.6958 19.8884L23.7046 19.9026L23.7053 20.1827C23.7061 20.4811 23.7053 20.4932 23.6874 20.5148C23.6823 20.521 23.6588 20.54 23.6358 20.5569C23.4761 20.6744 23.3063 20.7443 23.1316 20.7645C23.0866 20.7696 22.9555 20.7714 22.9277 20.7674L22.9277 20.7673ZM24.6956 20.7823C24.5188 20.7688 24.3852 20.716 24.2878 20.622C24.1919 20.5293 24.1443 20.4133 24.123 20.22C24.1168 20.1662 24.1164 20.1094 24.1168 19.6723C24.1175 19.2015 24.1179 19.1839 24.1252 19.1696C24.1293 19.1616 24.1388 19.1502 24.1461 19.1444L24.16 19.1341L24.2761 19.133C24.3881 19.1322 24.3929 19.1322 24.4093 19.1403C24.4196 19.1455 24.4298 19.1546 24.4353 19.163L24.4441 19.1773L24.4456 19.6825C24.4467 20.1277 24.4474 20.1925 24.4529 20.2277C24.4675 20.3192 24.4822 20.3532 24.525 20.3961C24.5788 20.4495 24.6348 20.4693 24.741 20.473C24.8388 20.4759 24.9058 20.4649 24.9632 20.4367C25.0295 20.4045 25.0595 20.3536 25.0822 20.2372C25.0906 20.1933 25.0906 20.1863 25.0939 19.6877C25.0972 19.1228 25.0947 19.1696 25.1251 19.1466L25.1393 19.1359H25.2602C25.3949 19.1363 25.3909 19.1356 25.4125 19.1641L25.4234 19.1784L25.4238 19.6317C25.4242 20.0864 25.422 20.1815 25.4099 20.2672C25.3839 20.4495 25.3235 20.5648 25.2071 20.6549C25.1679 20.6853 25.1518 20.6955 25.1133 20.7146C25.0544 20.7442 24.9863 20.7644 24.9091 20.7754C24.8688 20.7812 24.7366 20.7852 24.6956 20.7823L24.6956 20.7823ZM26.2779 20.7578C26.2728 20.7567 26.2614 20.7483 26.2523 20.7395C26.2336 20.7208 26.2285 20.7036 26.234 20.6802C26.2409 20.6512 26.8135 19.1737 26.8227 19.1619C26.8406 19.1378 26.8457 19.137 26.9797 19.1374C27.1137 19.1374 27.1189 19.1385 27.1372 19.1623C27.1419 19.1693 27.284 19.513 27.4527 19.9271C27.7207 20.585 27.7592 20.682 27.7592 20.6996C27.7592 20.7219 27.7504 20.7373 27.7295 20.7523C27.7171 20.7611 27.7167 20.7611 27.5827 20.7607H27.4484L27.4337 20.7494C27.415 20.7351 27.4154 20.7365 27.3286 20.5096C27.2891 20.406 27.2551 20.3181 27.2529 20.3144C27.2496 20.3078 27.2327 20.3075 26.9838 20.3071C26.7345 20.3067 26.718 20.3071 26.7154 20.3133C26.7139 20.317 26.6803 20.4093 26.6404 20.5183C26.6008 20.6271 26.5649 20.7219 26.5606 20.7289C26.5562 20.7358 26.547 20.7453 26.5404 20.7501C26.5283 20.7589 26.5261 20.7589 26.4075 20.7592C26.3413 20.7596 26.283 20.7589 26.2779 20.7578V20.7578ZM27.1357 20.0014C27.1298 19.9849 26.9878 19.6049 26.9841 19.5958C26.9827 19.5917 26.9808 19.5936 26.9779 19.6016C26.9713 19.6214 26.826 20.0091 26.8241 20.0124C26.823 20.0139 26.8941 20.0153 26.9816 20.0157H27.1412L27.1357 20.0014ZM28.349 20.7563C28.3321 20.7512 28.3138 20.7318 28.3091 20.7138C28.3065 20.7036 28.3058 20.4528 28.3076 19.9373L28.3102 19.1762L28.3204 19.1623C28.3409 19.1356 28.3391 19.1359 28.5225 19.1363C28.6752 19.1367 28.688 19.1371 28.7008 19.1436C28.7081 19.1477 28.718 19.1564 28.7224 19.163C28.7268 19.1693 28.8121 19.42 28.9117 19.7195C29.0116 20.019 29.094 20.2643 29.0951 20.2643C29.0962 20.2643 29.1811 20.0208 29.284 19.7235C29.4008 19.3853 29.4747 19.1769 29.481 19.1674C29.5015 19.1378 29.4996 19.1381 29.6677 19.1385C29.8108 19.1385 29.8174 19.1389 29.831 19.1466C29.8386 19.151 29.8493 19.1612 29.8548 19.1689L29.8643 19.1835L29.8632 19.9491C29.8617 20.6707 29.8614 20.7153 29.8548 20.727C29.8511 20.7336 29.8416 20.7442 29.8335 20.7501L29.8193 20.7611L29.7025 20.7607C29.5868 20.7607 29.5857 20.7607 29.5732 20.7515C29.5663 20.7468 29.5568 20.7373 29.552 20.7303L29.5428 20.7179L29.5417 20.2785L29.5407 19.8396L29.5202 19.8978C29.5088 19.93 29.4392 20.1292 29.3657 20.3404C29.2364 20.7105 29.2309 20.7255 29.2159 20.7409C29.2068 20.7504 29.1954 20.7578 29.1877 20.7592C29.1804 20.7607 29.1317 20.7618 29.079 20.7618C28.9871 20.7614 28.9823 20.761 28.9659 20.7526C28.9563 20.7479 28.945 20.7384 28.9406 20.7318C28.9362 20.7252 28.8648 20.5191 28.7821 20.2738C28.6993 20.0288 28.6302 19.8282 28.6287 19.8282C28.6269 19.8282 28.6254 20.0266 28.6247 20.2697C28.6239 20.7643 28.6261 20.7281 28.5954 20.7486L28.5796 20.7589L28.4705 20.7592C28.4105 20.7596 28.3559 20.7581 28.3494 20.756L28.349 20.7563Z" fill="white"/>
<path d="M22.9175 20.6996C22.719 20.6769 22.5404 20.589 22.4327 20.4609C22.3419 20.3532 22.2834 20.2112 22.264 20.0516C22.2577 19.9988 22.2581 19.8744 22.2647 19.8238C22.2874 19.6499 22.3562 19.4878 22.4547 19.3761C22.6228 19.1854 22.9716 19.1085 23.255 19.2C23.4337 19.2575 23.5398 19.3666 23.6002 19.5537C23.6087 19.5796 23.6149 19.6016 23.6142 19.6027C23.612 19.6042 23.4597 19.6455 23.4483 19.6477C23.4417 19.6488 23.4384 19.6426 23.4285 19.6133C23.4004 19.5306 23.3575 19.4618 23.3099 19.4237C23.206 19.3409 23.0595 19.3106 22.8878 19.3366C22.778 19.3534 22.6689 19.4098 22.6063 19.4823C22.5122 19.591 22.4657 19.7243 22.4598 19.9004C22.4543 20.0746 22.4858 20.2075 22.5587 20.3173C22.6769 20.496 22.9522 20.5758 23.1972 20.5026C23.2755 20.4792 23.3608 20.4385 23.4209 20.3957L23.4487 20.3759L23.4491 20.235V20.0937L23.2279 20.0933L23.0064 20.0929L23.0068 20.0065V19.9201L23.3231 19.9209L23.6394 19.9212L23.6387 20.1966L23.6383 20.4719L23.6035 20.4975C23.4611 20.6022 23.3183 20.6655 23.1657 20.6926C23.1093 20.7025 22.9746 20.7062 22.9175 20.6996V20.6996ZM24.67 20.7131C24.5265 20.6974 24.4148 20.6512 24.3357 20.5743C24.2636 20.5044 24.2223 20.4177 24.2007 20.2914C24.1853 20.2006 24.1842 20.1537 24.1849 19.6704L24.1856 19.1971L24.2827 19.1975H24.3793L24.3801 19.7023C24.3808 20.2394 24.3804 20.2306 24.4009 20.3115C24.4269 20.4147 24.5038 20.4913 24.6136 20.5231C24.7015 20.5487 24.8201 20.5491 24.9201 20.5242C25.0387 20.4946 25.1024 20.4309 25.1346 20.31C25.1595 20.2174 25.1591 20.2262 25.1617 19.6913L25.1642 19.1989L25.2613 19.1993H25.3579L25.3568 19.6558C25.3565 19.9187 25.3543 20.138 25.3517 20.1731C25.3352 20.4045 25.2752 20.5297 25.135 20.6245C25.0797 20.6623 25.0046 20.6908 24.9219 20.7062C24.886 20.7128 24.711 20.7175 24.67 20.7131L24.67 20.7131ZM26.3079 20.6714C26.3127 20.6593 26.4419 20.3243 26.5953 19.9267L26.8747 19.204L26.9794 19.2032L27.0845 19.2022L27.3854 19.9417C27.5509 20.3484 27.6874 20.6845 27.6889 20.6885C27.6915 20.6955 27.6849 20.6959 27.582 20.6959L27.4722 20.6955L27.4531 20.646C27.4425 20.619 27.4041 20.5175 27.3671 20.4213L27.3001 20.2463L26.9845 20.2448L26.6689 20.243L26.5869 20.4685L26.5049 20.694L26.402 20.6936H26.2995L26.3079 20.6714ZM27.2357 20.0764C27.2346 20.0724 27.1914 19.9571 27.1401 19.8202C27.0888 19.6833 27.031 19.5244 27.012 19.4665C26.9929 19.409 26.9765 19.3611 26.9757 19.36C26.9746 19.3589 26.9673 19.3841 26.9596 19.416C26.9344 19.5218 26.9102 19.5943 26.8201 19.8323C26.7714 19.9622 26.7301 20.0717 26.7286 20.0757C26.7257 20.0827 26.7396 20.083 26.9816 20.0834C27.2232 20.0838 27.2375 20.0834 27.2357 20.0765V20.0764ZM28.375 19.9468L28.3764 19.2004L28.5229 19.2018L28.669 19.2033L28.8666 19.7982C28.9754 20.1251 29.0706 20.4133 29.0779 20.4385C29.0856 20.4634 29.0925 20.4832 29.0936 20.4825C29.0944 20.4814 29.1189 20.4107 29.1478 20.325C29.1771 20.2397 29.276 19.9527 29.3678 19.6873L29.5352 19.2048L29.6662 19.204L29.7973 19.2032L29.7958 19.9493L29.7944 20.6958L29.7017 20.6954H29.6091L29.6102 20.0683C29.611 19.7234 29.6098 19.4433 29.6076 19.4455C29.6058 19.4477 29.5139 19.7084 29.4037 20.0247C29.2935 20.341 29.1958 20.6211 29.1866 20.6471L29.1698 20.6943H28.9948L28.7817 20.0624C28.6646 19.715 28.5672 19.428 28.5653 19.4243C28.5635 19.421 28.5613 19.7051 28.5606 20.0558L28.5591 20.6932H28.4665L28.3739 20.6928L28.375 19.9468Z" fill="#BD0728"/>
<path fill-rule="evenodd" clip-rule="evenodd" d="M21.8979 15.1172C21.9261 15.156 21.922 15.3234 21.922 15.3234C21.9451 15.3373 22.3193 15.0048 22.3193 15.0199C22.3196 15.0898 22.3281 15.234 22.3281 15.234C22.3281 15.234 22.7154 14.8657 22.7315 14.9045C22.7494 14.9481 22.73 15.1615 22.73 15.1615C22.73 15.1615 22.9878 14.8774 23.035 14.8262C23.069 14.7896 23.0636 14.8723 23.0669 15.0059C23.0676 15.0297 23.4893 14.6948 23.515 14.6889C23.5695 14.6772 23.5864 14.8628 23.5834 14.9093C23.5812 14.9437 23.9726 14.686 23.9554 14.72L23.9843 14.9181C24.0934 14.9031 24.3533 14.806 24.5097 14.8313C24.5598 14.8394 24.5573 14.8646 24.5126 14.8829C23.7592 15.1879 23.1796 15.6477 22.8421 16.2884C22.7271 16.5066 22.692 16.697 22.7223 16.7449C22.7223 16.7449 22.8578 16.4535 23.0105 16.4078C23.031 16.4019 23.0445 16.5945 23.0654 16.5835C23.0654 16.5835 23.1811 16.2913 23.2645 16.1837C23.2869 16.1548 23.3242 16.3371 23.348 16.31C23.348 16.31 23.4081 16.1145 23.5256 15.9783C23.5424 15.9589 23.5728 16.1632 23.5915 16.146C23.7134 16.0336 23.828 15.7517 23.8737 15.7308C23.9056 15.7059 23.9111 15.9651 23.9415 15.9428C23.9415 15.9428 24.1154 15.5935 24.2193 15.5302C24.286 15.4892 24.2834 15.7209 24.2834 15.7209C24.4159 15.5902 24.562 15.3735 24.6312 15.2794C24.6631 15.2362 24.6455 15.565 24.6795 15.5778C24.7231 15.5946 25.0087 15.3259 25.0409 15.3204C25.0621 15.3168 25.087 15.3969 25.0314 15.4614C25.027 15.4665 24.6784 15.8685 24.6784 15.8685C24.7462 15.8813 24.7725 15.8623 24.8212 15.8751C24.9658 15.9131 24.5503 16.1515 24.5573 16.1961C24.5573 16.1961 24.7575 16.1925 24.6905 16.2313C24.6422 16.2595 24.3775 16.6003 24.3775 16.5882C24.3775 16.582 24.5104 16.5912 24.5097 16.6292C24.5086 16.6999 24.2896 17.0642 24.2874 17.062C24.2754 17.0499 24.405 17.0462 24.4225 17.0821C24.4548 17.1484 24.1977 17.4431 24.2479 17.4933C24.2549 17.5002 24.3947 17.4954 24.4569 17.5094C24.487 17.5159 24.5712 18.0446 24.5499 18.0234C24.5452 18.0182 24.64 17.5277 24.6975 17.3783C24.7326 17.2879 24.845 17.5149 24.8542 17.4947C24.8494 17.4947 24.8315 17.1722 24.8472 17.0254C24.8516 16.9844 24.9325 17.0682 24.9314 17.029C24.9285 16.9401 24.9212 16.8449 24.9395 16.7581C24.9534 16.6926 25.0222 16.8764 25.0489 16.8269C25.0489 16.8269 24.9655 16.5077 25.0002 16.4176C25.0233 16.3583 25.079 16.5612 25.1156 16.5692C25.1156 16.5692 25.0951 16.321 25.1335 16.2569L25.2496 16.3814C25.2748 16.3415 25.2701 15.9549 25.2935 15.9186C25.3129 15.8883 25.4333 16.0636 25.4513 16.0362C25.4674 16.0113 25.4004 15.7242 25.4154 15.7015C25.4366 15.669 25.5688 15.7813 25.5714 15.7792C25.6252 15.725 25.6234 15.5899 25.6461 15.5397C25.7068 15.4039 26.0554 15.3863 26.0964 15.483C26.1165 15.5298 26.1026 15.5902 26.0945 15.6631C26.0978 15.666 26.2692 15.6785 26.2706 15.6653C26.2706 15.6653 26.2501 15.8253 26.2622 16.0014C26.264 16.0248 26.4361 15.9955 26.4383 16.019C26.454 16.1848 26.416 16.2002 26.416 16.2002C26.4174 16.2123 26.532 16.1826 26.5339 16.1954C26.5463 16.2763 26.5203 16.3748 26.4691 16.4696C26.4614 16.4832 26.6331 16.4564 26.6356 16.4722C26.6565 16.5967 26.6605 16.6955 26.6389 16.8712C26.6371 16.8855 26.807 16.7471 26.8095 16.7614C26.8352 16.9093 26.8055 17.0689 26.8209 17.222C26.8245 17.2575 26.9333 17.1162 26.9432 17.1572C26.953 17.1974 26.919 17.4903 26.9355 17.5068C26.9355 17.5068 27.1174 17.4976 27.1335 17.513C27.2778 17.6485 27.2503 17.885 27.2503 17.885C27.2899 17.8557 27.2748 17.5709 27.2349 17.3102C27.2305 17.2827 27.3748 17.2934 27.3704 17.2677C27.3704 17.2677 27.2122 17.1725 27.1603 16.9075C27.1493 16.8507 27.3129 16.8625 27.3129 16.8625C27.2675 16.7581 27.1877 16.7383 27.12 16.638C27.098 16.6051 27.2899 16.5901 27.2899 16.5806C27.2902 16.4806 27.128 16.433 27.0442 16.329C27.0083 16.2847 27.2192 16.2825 27.2192 16.2825C27.1573 16.1965 26.9534 16.1588 26.8494 16.0449C26.7927 15.9831 27.0563 15.9223 27.053 15.9117C27.0241 15.8205 26.7762 15.792 26.6561 15.6891C26.6312 15.6679 26.8128 15.5961 26.8128 15.5961C26.7945 15.5573 26.3988 15.297 26.6001 15.3208C26.6851 15.331 26.8575 15.4519 26.871 15.4336C26.871 15.4336 26.8637 15.2816 26.8813 15.2633C26.9476 15.1945 27.176 15.5555 27.2536 15.5408C27.2536 15.5408 27.2822 15.2824 27.3173 15.2754C27.4008 15.2597 27.5026 15.6517 27.5849 15.6517C27.5959 15.6517 27.6021 15.4251 27.6446 15.4127C27.6926 15.3988 27.7464 15.6668 27.8072 15.7261C27.8635 15.7806 27.8643 15.5167 27.8972 15.5668C27.9532 15.6477 27.9668 15.8165 28.0433 15.8908C28.0931 15.9391 28.1022 15.658 28.1575 15.6957C28.2216 15.7392 28.2066 15.885 28.2787 15.9567C28.3131 15.9908 28.3362 15.7711 28.3754 15.8033C28.4101 15.8315 28.4336 16.1002 28.4709 16.1427C28.5185 16.1969 28.5734 16.001 28.6228 16.0321C28.6584 16.0548 28.6499 16.2873 28.6829 16.3371C28.7502 16.4403 28.7854 16.2123 28.8301 16.2474C28.8612 16.2712 28.9285 16.5385 28.9567 16.5597C29.0193 16.6073 29.0537 16.4381 29.1013 16.4619C29.1358 16.4788 29.2053 16.8229 29.2339 16.8141C29.2525 16.8083 29.2987 16.0299 28.9992 15.7015C28.5112 15.1663 27.6373 14.8573 26.9241 14.8496C26.9241 14.8496 27.2825 14.7782 27.2921 14.7189C27.3111 14.6007 27.489 14.6146 27.6131 14.6417C27.6351 14.6464 27.6234 14.4326 27.6263 14.4315C27.7372 14.429 27.8365 14.4945 27.9426 14.5589C27.9756 14.5791 27.8756 14.3448 27.9108 14.3649C28.047 14.4436 28.1985 14.4667 28.2904 14.5622C28.3146 14.5875 28.2626 14.3817 28.2626 14.3817C28.3307 14.3653 28.4651 14.4634 28.5178 14.5553C28.5434 14.6007 28.5163 14.3155 28.5364 14.366C28.5364 14.366 28.7737 14.4465 28.7993 14.5465C28.7993 14.5465 28.8187 14.3656 28.8506 14.3751C28.9457 14.4 29.0292 14.5608 29.1035 14.5838C29.1035 14.5838 29.0728 14.4227 29.0969 14.429C29.2756 14.474 29.4696 14.5846 29.4693 14.5838C29.3686 14.3319 28.9868 14.068 28.315 13.9973C28.1916 13.9845 27.6911 13.964 27.2668 14.0625C26.919 14.143 26.6444 14.1888 26.7008 14.1339C26.9307 13.9087 27.3023 13.8813 27.4045 13.8289C27.4777 13.7916 27.1581 13.6682 27.2214 13.6506C27.2844 13.6356 27.5699 13.6118 27.5699 13.6118C27.6318 13.5635 27.3623 13.469 27.4026 13.3987C27.4832 13.2578 27.9595 13.3859 28.0001 13.3325C28.0133 13.3145 27.7954 13.1857 27.8046 13.1666C27.8394 13.0952 28.2633 13.2194 28.2732 13.1571C28.2732 13.1571 28.1447 13.0612 28.0532 12.9825C28.0422 12.973 28.4317 12.8683 28.4317 12.8683C28.4244 12.8609 28.3651 12.8192 28.2758 12.7844C28.1941 12.7526 28.6177 12.6424 28.6177 12.6424C28.081 12.3971 26.688 13.0949 26.4116 13.819C26.3398 13.9918 26.3376 13.804 26.3526 13.6576C26.3669 13.5002 26.3867 13.3621 26.3698 13.2175C26.3647 13.1747 26.256 13.3314 26.2487 13.2896C26.2208 13.1359 26.3032 12.9671 26.2655 12.7965C26.2531 12.739 26.1088 12.966 26.0898 12.9085C26.0371 12.7507 26.1293 12.5289 26.092 12.3114C26.0773 12.2265 25.9408 12.4934 25.895 12.4172C25.8416 12.329 25.865 12.0021 25.8397 11.9526C25.8192 11.9131 25.6977 12.1093 25.6874 12.0724C25.5227 11.473 25.7416 11.3984 25.4253 11.7363C25.4143 11.748 25.344 11.3819 25.3319 11.3943C25.2023 11.6718 24.99 11.1966 24.9175 11.2409C24.8633 11.2746 25.0654 11.4584 25.0676 11.5411C25.0687 11.581 24.8816 11.5836 24.8816 11.5836C24.8857 11.6521 25.2375 11.8439 25.2488 11.919C25.258 11.9808 24.9999 11.9655 24.9999 11.9655C25.0079 12.0493 25.3012 12.1291 25.3173 12.2181C25.3264 12.2671 25.18 12.2781 25.1848 12.3279C25.1925 12.4044 25.4681 12.5556 25.4773 12.6336C25.4835 12.6878 25.3012 12.7101 25.2968 12.7606C25.2913 12.8218 25.6629 13.0268 25.6633 13.0843C25.6636 13.1655 25.5154 13.1238 25.448 13.1648C25.3532 13.2223 25.7522 13.4551 25.7691 13.5214C25.7822 13.5796 25.6094 13.5283 25.6036 13.5814C25.5963 13.651 25.7991 13.7561 25.8456 13.8754C25.8921 13.9933 25.8445 14.0233 25.7779 13.9765C25.6442 13.8824 25.1053 13.3098 24.9622 13.1571C24.7542 12.9353 24.3284 12.6867 23.9038 12.672C23.8595 12.6856 24.1322 12.8785 24.134 12.9484C24.1344 12.9664 24.0114 12.9931 24.0169 12.9986C24.0923 13.074 24.327 13.1637 24.327 13.1637L24.2596 13.2849C24.2754 13.3204 24.3867 13.3299 24.565 13.3885C24.565 13.3885 24.4313 13.4712 24.4412 13.4789C24.5357 13.5543 24.7187 13.61 24.7187 13.61L24.5386 13.6704C24.528 13.7052 24.9439 13.8718 24.9439 13.8718C24.9439 13.8718 24.8139 13.9838 24.8198 13.9896C24.8516 14.0215 25.1573 14.0921 25.1573 14.0921C25.1624 14.0973 24.9413 14.1661 24.9428 14.1676C25.0229 14.2477 25.2441 14.2737 25.2957 14.4063C25.2957 14.4063 25.3261 14.4817 25.2386 14.4674C24.8944 14.3426 24.3614 14.0841 23.3279 14.1855C22.2713 14.3232 21.4662 15.2417 21.4802 15.3332C21.4802 15.3332 21.858 15.0623 21.8979 15.1172L21.8979 15.1172Z" fill="#109421"/>
<path d="M25.8536 15.3806C25.9573 15.3139 25.984 15.1706 25.9132 15.0607C25.8424 14.9507 25.701 14.9157 25.5973 14.9825C25.4936 15.0492 25.4669 15.1925 25.5377 15.3024C25.6084 15.4124 25.7499 15.4474 25.8536 15.3806Z" fill="#8C4200"/>
<path d="M25.9473 15.6246C25.8289 15.5484 25.7984 15.3848 25.8793 15.2592C25.9602 15.1337 26.1218 15.0937 26.2402 15.17C26.3586 15.2462 26.3891 15.4098 26.3082 15.5354C26.2273 15.6609 26.0658 15.7009 25.9473 15.6246Z" fill="#8C4200"/>
<path d="M25.6354 15.8514C25.509 15.77 25.4764 15.5954 25.5628 15.4613C25.6491 15.3273 25.8216 15.2846 25.948 15.366C26.0744 15.4474 26.107 15.6221 26.0206 15.7561C25.9343 15.8901 25.7618 15.9328 25.6354 15.8514Z" fill="#8C4200"/>
<path fill-rule="evenodd" clip-rule="evenodd" d="M23.7013 24.2094H24.0377V24.4609H23.7013V24.2094Z" fill="black"/>
<path fill-rule="evenodd" clip-rule="evenodd" d="M22.0187 24.3712C22.0187 24.3712 24.2289 24.5396 25.5842 24.2486C25.5842 24.2486 25.6981 24.3258 25.5344 24.5169C25.3708 24.7077 24.9567 24.7487 24.7293 24.7897C24.7293 24.7897 24.6748 24.9123 24.6792 24.976C24.6839 25.0397 24.8227 25.0332 24.8908 25.0192L24.9589 25.0057C24.9589 25.0057 24.927 25.2444 24.0905 25.2762C23.8159 25.2869 22.9105 25.3059 22.7191 25.0375C22.7191 25.0375 22.8849 25.0511 22.9281 25.0375C22.9713 25.024 22.9398 24.8512 22.9237 24.8259C22.908 24.801 22.3369 24.8259 22.037 24.5484C21.9627 24.4694 21.9272 24.3852 21.9272 24.3551C21.9272 24.3526 22.0187 24.3712 22.0187 24.3712ZM23.1705 24.8351C23.1705 24.8351 23.7753 24.9123 24.4712 24.8351C24.4712 24.8351 24.4895 24.9669 24.4577 25.017C24.4258 25.0672 23.623 25.1056 23.2181 25.0354C23.1529 25.0145 23.1507 24.9347 23.1705 24.8351Z" fill="#8C4200"/>
<path fill-rule="evenodd" clip-rule="evenodd" d="M22.3262 24.2636C22.3262 24.2636 23.1463 23.3916 22.8952 21.572C22.8952 21.572 23.7496 21.7921 24.6206 23.0489C24.6206 23.0489 24.8747 23.3041 25.1734 24.2142L22.3262 24.2636Z" fill="#FDF9FF"/>
<path fill-rule="evenodd" clip-rule="evenodd" d="M26.0228 8.53398C26.0228 8.53398 19.0005 13.7616 19.0005 19.9257C19.0005 26.0905 26.0228 31.466 26.0228 31.466C26.0228 31.466 33 26.5338 33 19.9257C33 13.3179 26.0228 8.53398 26.0228 8.53398ZM26.0202 9.79924C26.0202 9.79924 19.773 14.4498 19.773 19.9337C19.773 25.4183 26.0202 30.2007 26.0202 30.2007C26.0202 30.2007 32.2275 25.813 32.2275 19.9337C32.2275 14.0552 26.0202 9.79924 26.0202 9.79924Z" fill="#EE5757"/>
</g>
<path d="M11.7035 1.61228C6.53056 2.04084 2.23921 5.77712 1.57724 11.0101C1.25164 13.5841 1 16.6548 1 20C1 23.3452 1.25164 26.4159 1.57724 28.9899C2.23922 34.2229 6.53056 37.9592 11.7035 38.3877C15.5784 38.7087 20.5852 39 26 39C31.4148 39 36.4216 38.7087 40.2965 38.3877C45.4694 37.9592 49.7608 34.2229 50.4228 28.9899C50.7484 26.4159 51 23.3452 51 20C51 16.6548 50.7484 13.5841 50.4228 11.0101C49.7608 5.77712 45.4694 2.04084 40.2965 1.61228C36.4216 1.29127 31.4148 1 26 1C20.5852 1 15.5784 1.29127 11.7035 1.61228Z" stroke="#E6E6FA" stroke-width="2"/>
</svg>
