<svg width="52" height="40" viewBox="0 0 52 40" fill="none" xmlns="http://www.w3.org/2000/svg">
<mask id="mask0_1_32084" style="mask-type:alpha" maskUnits="userSpaceOnUse" x="2" y="2" width="48" height="36">
<path d="M2.56934 11.1356C3.16681 6.41247 7.0415 3.00193 11.7861 2.60887C15.6412 2.28949 20.6196 2 26 2C31.3804 2 36.3588 2.28949 40.2139 2.60887C44.9585 3.00193 48.8332 6.41247 49.4307 11.1356C49.752 13.6759 50 16.704 50 20C50 23.296 49.752 26.3241 49.4307 28.8644C48.8332 33.5875 44.9585 36.9981 40.2139 37.3911C36.3588 37.7105 31.3804 38 26 38C20.6196 38 15.6412 37.7105 11.7861 37.3911C7.0415 36.9981 3.16681 33.5875 2.56934 28.8644C2.248 26.3241 2 23.296 2 20C2 16.704 2.248 13.6759 2.56934 11.1356Z" fill="#00D0BF"/>
</mask>
<g mask="url(#mask0_1_32084)">
<rect x="50" y="38" width="48" height="36" transform="rotate(-180 50 38)" fill="#EE5757"/>
<path d="M25.5034 20.0208C18.2704 16.964 21.4767 7.54371 28.3941 8.01723C26.9947 8.73645 26.7919 10.0785 27.5911 11.3217C28.486 12.7135 27.5087 14.9531 26.2989 15.4972C24.3106 16.3922 23.9126 18.7783 25.5034 20.0208Z" fill="white"/>
<path d="M25.1123 13.2186L24.7055 13.8572L24.5581 13.1142L23.8244 12.9246L24.4857 12.5542L24.4396 11.7984L24.9952 12.313L25.6999 12.0353L25.3831 12.723L25.8642 13.3075L25.1123 13.2186Z" fill="#EE5757"/>
<path d="M25.5444 19.9415C24.6696 19.4925 23.9642 18.5566 23.6569 17.4382C23.3054 16.1553 23.5076 14.7761 24.2123 13.6564L24.0606 13.5606C23.3295 14.7238 23.1197 16.154 23.4844 17.4854C23.8093 18.6688 24.5298 19.6223 25.4625 20.101L25.5444 19.9415Z" fill="#EE5757"/>
<path d="M25.9417 19.6867C26.1911 11.3767 36.0346 12.2892 38.0593 19.6067C36.8968 18.3359 35.5849 18.4701 34.7209 19.6211C33.7536 20.91 31.3369 20.4693 30.4037 19.3508C28.8693 17.5128 26.5233 17.7123 25.9417 19.6867Z" fill="white"/>
<path d="M32.1253 17.4634L31.4018 17.2124L32.0258 16.8775L31.9407 16.0888L32.5097 16.6641L33.1809 16.4282L32.9078 17.1183L33.4078 17.7605L32.6711 17.6128L32.3085 18.2452L32.1253 17.4634Z" fill="#EE5757"/>
<path d="M25.9456 19.9658C26.0513 18.9024 26.6727 17.8928 27.6072 17.2646C28.6795 16.5451 30.0404 16.3977 31.3391 16.8616L31.3741 16.6725C30.0253 16.1915 28.6141 16.3442 27.5012 17.0909C26.5123 17.7553 25.88 18.7859 25.7673 19.9197L25.9456 19.9658Z" fill="#EE5757"/>
<path d="M25.6226 19.774C33.1386 18.4019 36.2925 28.0101 30.5789 31.3687C31.2442 30.0085 30.5956 28.7775 29.2202 28.1728C27.6801 27.496 27.0991 25.095 27.7211 23.984C28.7427 22.1575 27.6189 19.9485 25.6226 19.774Z" fill="white"/>
<path d="M30.0052 25.2073L29.9395 24.443L30.5065 24.9909L31.2014 24.7478L30.9032 25.4251L31.3978 26.0394L30.6467 25.9094L30.2581 26.5322L30.0916 25.7757L29.357 25.5457L30.0052 25.2073Z" fill="#EE5757"/>
<path d="M25.7078 19.9359C26.6583 19.8374 27.7677 20.2322 28.6759 20.9916C29.7168 21.8631 30.3838 23.1115 30.5038 24.4152L30.6793 24.4129C30.5539 23.059 29.8624 21.7644 28.7821 20.8599C27.8214 20.0563 26.6896 19.6551 25.6763 19.7602L25.7078 19.9359Z" fill="#EE5757"/>
<path d="M25.6646 20.2174C29.5009 26.6958 21.3147 32.8241 16.1712 28.6745C17.7023 28.8333 18.6692 27.8224 18.7903 26.3503C18.9257 24.7021 21.0407 23.3619 22.3176 23.564C24.4165 23.8955 26.1651 22.1185 25.6646 20.2174Z" fill="white"/>
<path d="M21.8955 26.0763L22.6042 25.7595L22.2702 26.4695L22.7352 27.0335L21.9879 26.9833L21.5662 27.6484L21.439 26.9072L20.7136 26.7547L21.381 26.3468L21.3551 25.5875L21.8955 26.0763Z" fill="#EE5757"/>
<path d="M25.5495 20.3907C25.9631 21.2313 25.9535 22.3835 25.5244 23.4727C25.0315 24.7216 24.0493 25.7529 22.8305 26.3L22.8915 26.4606C24.157 25.8917 25.1755 24.8224 25.6871 23.5263C26.1413 22.3739 26.1496 21.1991 25.7087 20.3029L25.5495 20.3907Z" fill="#EE5757"/>
<path d="M25.5637 19.941C20.1655 26.6787 12.6044 20.9209 15.5039 13.847C15.6702 15.4877 16.8378 16.0438 18.2707 15.5322C19.8749 14.9592 21.596 16.5518 21.668 17.9502C21.7871 20.2485 23.8497 21.2762 25.5637 19.941Z" fill="white"/>
<path d="M19.1041 18.5377L19.5422 19.1086L18.8146 19.0713L18.3847 19.765L18.28 19.0042L17.5764 18.8614L18.2395 18.4291L18.2342 17.6477L18.7485 18.14L19.4489 17.8004L19.1041 18.5377Z" fill="#EE5757"/>
<path d="M25.6392 19.9628C24.9061 20.7881 23.7789 21.3015 22.624 21.3367C21.2996 21.3761 20.0837 20.7922 19.2905 19.7346L19.1466 19.8729C19.9711 20.9706 21.2318 21.5762 22.6063 21.5355C23.8282 21.4985 24.9772 20.9734 25.7588 20.0934L25.6392 19.9628Z" fill="#EE5757"/>
</g>
<path d="M11.7035 1.61228C6.53056 2.04084 2.23921 5.77712 1.57724 11.0101C1.25164 13.5841 1 16.6548 1 20C1 23.3452 1.25164 26.4159 1.57724 28.9899C2.23922 34.2229 6.53056 37.9592 11.7035 38.3877C15.5784 38.7087 20.5852 39 26 39C31.4148 39 36.4216 38.7087 40.2965 38.3877C45.4694 37.9592 49.7608 34.2229 50.4228 28.9899C50.7484 26.4159 51 23.3452 51 20C51 16.6548 50.7484 13.5841 50.4228 11.0101C49.7608 5.77712 45.4694 2.04084 40.2965 1.61228C36.4216 1.29127 31.4148 1 26 1C20.5852 1 15.5784 1.29127 11.7035 1.61228Z" stroke="#E6E6FA" stroke-width="2"/>
</svg>
