<svg width="52" height="40" viewBox="0 0 52 40" fill="none" xmlns="http://www.w3.org/2000/svg">
<mask id="mask0_1_32111" style="mask-type:alpha" maskUnits="userSpaceOnUse" x="2" y="2" width="48" height="36">
<path d="M2.56934 11.1356C3.16681 6.41247 7.0415 3.00193 11.7861 2.60887C15.6412 2.28949 20.6196 2 26 2C31.3804 2 36.3588 2.28949 40.2139 2.60887C44.9585 3.00193 48.8332 6.41247 49.4307 11.1356C49.752 13.6759 50 16.704 50 20C50 23.296 49.752 26.3241 49.4307 28.8644C48.8332 33.5875 44.9585 36.9981 40.2139 37.3911C36.3588 37.7105 31.3804 38 26 38C20.6196 38 15.6412 37.7105 11.7861 37.3911C7.0415 36.9981 3.16681 33.5875 2.56934 28.8644C2.248 26.3241 2 23.296 2 20C2 16.704 2.248 13.6759 2.56934 11.1356Z" fill="#00D0BF"/>
</mask>
<g mask="url(#mask0_1_32111)">
<rect x="2" y="2" width="48" height="36" fill="#2E50A6"/>
<path d="M37.7391 12.7958L36.8791 11.9908L36.0088 12.7846L36.1021 11.6107L34.9387 11.4251L35.915 10.7658L35.3346 9.74084L36.4588 10.0929L36.8984 9L37.3239 10.0985L38.4526 9.76077L37.859 10.7783L38.8267 11.45L37.6611 11.6207L37.7392 12.7959L37.7391 12.7958Z" fill="white"/>
<path d="M32.8004 21.4385L31.9404 20.6335L31.0701 21.4273L31.1634 20.2534L30 20.0678L30.9763 19.4085L30.3959 18.3835L31.5201 18.7356L31.9596 17.6427L32.3852 18.7412L33.5139 18.4035L32.9203 19.421L33.888 20.0927L32.7223 20.2634L32.8005 21.4386L32.8004 21.4385Z" fill="white"/>
<path d="M40.2084 32.5505L39.3484 31.7455L38.4781 32.5393L38.5713 31.3654L37.408 31.1797L38.3842 30.5205L37.8038 29.4955L38.928 29.8476L39.3676 28.7547L39.7932 29.8532L40.9218 29.5155L40.3283 30.533L41.296 31.2047L40.1303 31.3754L40.2084 32.5506L40.2084 32.5505Z" fill="white"/>
<path d="M43.9125 16.4999L43.0525 15.6948L42.1822 16.4887L42.2754 15.3148L41.1121 15.1291L42.0883 14.4699L41.5079 13.4449L42.6321 13.7969L43.0717 12.704L43.4973 13.8025L44.6259 13.4648L44.0324 14.4823L45.0001 15.154L43.8344 15.3247L43.9125 16.4999L43.9125 16.4999Z" fill="white"/>
<path d="M18.3216 29.9999L16.9945 28.7275L15.6514 29.9822L15.7953 28.1267L14 27.8332L15.5066 26.7912L14.6109 25.171L16.3458 25.7275L17.0241 24L17.6809 25.7364L19.4226 25.2025L18.5066 26.8108L20 27.8726L18.2011 28.1424L18.3217 30L18.3216 29.9999Z" fill="white"/>
<path d="M40.7895 22.5478L39.862 21.9296L38.9589 22.5814L39.2766 21.5314L38.3606 20.8963L39.4847 20.8663L39.8212 19.8212L40.1985 20.853L41.3226 20.8425L40.4316 21.5104L40.7896 22.5479L40.7895 22.5478Z" fill="white"/>
<mask id="mask1_1_32111" style="mask-type:alpha" maskUnits="userSpaceOnUse" x="2" y="2" width="24" height="18">
<rect x="2" y="2" width="24" height="18" fill="#C4C4C4"/>
</mask>
<g mask="url(#mask1_1_32111)">
<path d="M2 2L26 20L2 2ZM26 2L2 20L26 2Z" fill="black"/>
<path d="M26 2L2 20M2 2L26 20L2 2Z" stroke="white" stroke-width="2.4"/>
<path d="M2 2L26 20L2 2ZM26 2L2 20L26 2Z" fill="black"/>
<path d="M26 2L2 20M2 2L26 20L2 2Z" stroke="#EE5757" stroke-width="1.6"/>
<path d="M14 2V23V2ZM2 11H30H2Z" fill="black"/>
<path d="M2 11H30M14 2V23V2Z" stroke="white" stroke-width="4"/>
<path d="M14 2V23V2ZM2 11H30H2Z" fill="black"/>
<path d="M2 11H30M14 2V23V2Z" stroke="#EE5757" stroke-width="2.4"/>
</g>
</g>
<path d="M11.7035 1.61228C6.53056 2.04084 2.23921 5.77712 1.57724 11.0101C1.25164 13.5841 1 16.6548 1 20C1 23.3452 1.25164 26.4159 1.57724 28.9899C2.23922 34.2229 6.53056 37.9592 11.7035 38.3877C15.5784 38.7087 20.5852 39 26 39C31.4148 39 36.4216 38.7087 40.2965 38.3877C45.4694 37.9592 49.7608 34.2229 50.4228 28.9899C50.7484 26.4159 51 23.3452 51 20C51 16.6548 50.7484 13.5841 50.4228 11.0101C49.7608 5.77712 45.4694 2.04084 40.2965 1.61228C36.4216 1.29127 31.4148 1 26 1C20.5852 1 15.5784 1.29127 11.7035 1.61228Z" stroke="#E6E6FA" stroke-width="2"/>
</svg>
