<svg width="52" height="40" viewBox="0 0 52 40" fill="none" xmlns="http://www.w3.org/2000/svg">
<mask id="mask0_1_40376" style="mask-type:alpha" maskUnits="userSpaceOnUse" x="2" y="2" width="48" height="36">
<path d="M2.56934 11.1356C3.16681 6.41247 7.0415 3.00193 11.7861 2.60887C15.6412 2.28949 20.6196 2 26 2C31.3804 2 36.3588 2.28949 40.2139 2.60887C44.9585 3.00193 48.8332 6.41247 49.4307 11.1356C49.752 13.6759 50 16.704 50 20C50 23.296 49.752 26.3241 49.4307 28.8644C48.8332 33.5875 44.9585 36.9981 40.2139 37.3911C36.3588 37.7105 31.3804 38 26 38C20.6196 38 15.6412 37.7105 11.7861 37.3911C7.0415 36.9981 3.16681 33.5875 2.56934 28.8644C2.248 26.3241 2 23.296 2 20C2 16.704 2.248 13.6759 2.56934 11.1356Z" fill="#00D0BF"/>
</mask>
<g mask="url(#mask0_1_40376)">
<rect x="50" y="38" width="48" height="36" transform="rotate(-180 50 38)" fill="#EE5757"/>
<path d="M17.5617 16.5406C17.5858 16.5653 17.876 16.7406 17.881 16.7309C17.886 16.7212 18.6404 16.5472 18.6354 16.5569C18.6303 16.5666 18.2127 17.063 18.2321 17.0731C18.2514 17.0831 18.6685 17.5825 18.6782 17.5875C18.6879 17.5925 17.8884 17.5218 17.8884 17.5218L17.3596 17.9482L17.2412 17.3948C17.2412 17.3948 16.576 17.1601 16.5663 17.1551C16.5567 17.1501 17.1356 16.9587 17.1356 16.9587L17.3084 16.5074C17.3084 16.5074 17.5323 16.5499 17.5617 16.5406Z" fill="#F9DD16" stroke="black" stroke-width="0.110005"/>
<path d="M27.2967 17.625C27.2982 17.1586 26.3798 15.0483 26.2286 14.7238C25.9472 14.3717 25.6496 13.8141 25.5216 13.3325C25.4388 12.8464 25.1788 12.4652 24.8122 12.3359C24.3893 12.1113 23.9762 12.1994 23.5786 12.2339C23.3836 12.2754 23.2168 12.3807 23.1226 12.5358C22.908 12.8429 22.7912 12.8195 22.6427 12.9519C21.4202 13.1424 20.2641 13.7732 19.3845 14.2032C18.9188 14.5265 18.5234 14.7143 18.3403 14.7538C17.8437 14.7556 17.4826 14.5203 17.3101 14.3952C16.7477 13.8839 16.1854 13.3724 15.623 12.8611C15.1355 12.4973 15.015 13.0224 15.1086 13.1027C15.2713 13.4524 14.919 13.6653 16.2568 14.9255C16.4257 15.2725 16.5946 15.6196 16.7635 15.9665C16.7635 15.9665 16.7354 16.2512 16.759 16.2635C17.0032 16.8453 17.3912 16.7003 17.5743 16.5371C17.7068 16.4164 17.8393 16.2957 17.9718 16.175C17.9718 16.175 18.7595 15.9257 18.7717 15.9021C19.6164 16.0279 21.793 15.6132 22.1519 15.4429C22.4753 15.2617 22.496 15.4152 22.7762 15.1869C23.0104 15.0319 22.8816 15.1553 23.3144 14.7598C23.4476 14.6453 23.553 14.8308 23.5778 14.9605C23.6019 16.1892 23.7524 16.9743 23.8645 18.1993L25.7052 19.1425L27.2967 17.625Z" fill="white" stroke="black" stroke-width="0.143006"/>
<path d="M16.6673 13.8934C16.6841 13.9083 16.3632 14.9528 16.3632 14.9528C16.3632 14.9528 16.0674 14.6579 16.07 14.653L16.277 13.5555L16.6673 13.8934Z" fill="#F9DD16"/>
<path d="M16.1762 13.3756C16.1827 13.3891 16.2064 13.4839 16.2099 13.545C16.1987 13.609 16.1809 13.8385 16.1564 13.916C16.1369 14.0023 16.1199 14.0893 16.1084 14.176C16.0839 14.2702 16.0743 14.3321 16.0467 14.4289C16.0404 14.5126 16.0253 14.5907 16.0065 14.6738M16.6763 13.8546C16.6617 13.9252 16.5995 14.2401 16.5706 14.3261C16.5464 14.4214 16.5248 14.5176 16.5087 14.613C16.479 14.7172 16.4661 14.7855 16.433 14.8927C16.4225 14.9846 16.4032 15.0708 16.3798 15.1628L16.6763 13.8546Z" stroke="black" stroke-width="0.124305"/>
<path d="M21.5502 13.2723C21.9438 13.7103 22.0658 14.4222 21.9945 14.8208" stroke="black" stroke-width="0.110005"/>
<path d="M20.0274 15.8669C20.0298 15.8623 20.0322 15.8578 20.0345 15.8532C20.0122 15.8961 20.0295 15.8716 19.9874 15.7765C19.9427 15.7272 19.9113 15.4877 19.98 15.3553C20.0063 15.2879 20.0504 15.1862 20.0837 15.1222C20.0931 15.104 20.1199 15.0859 20.1294 15.0676" stroke="black" stroke-width="0.110005"/>
<path d="M17.2126 14.3881C17.2102 14.3927 17.2079 14.3972 17.2055 14.4018C17.215 14.3835 17.1865 14.4383 17.177 14.4565C17.1402 14.5276 17.0905 14.5923 17.0567 14.6549C17.0211 14.7234 16.9661 14.7819 16.9306 14.8504C16.8849 14.9144 16.8448 14.9994 16.7975 15.0656C16.7532 15.1444 16.7039 15.2006 16.6606 15.284C16.6231 15.35 16.593 15.3805 16.5543 15.455L16.6606 15.284C16.6231 15.35 16.593 15.3805 16.5543 15.455" stroke="black" stroke-width="0.110005"/>
<path d="M15.7833 13.0548C15.7901 13.0676 15.8167 13.157 15.8223 13.2141C15.8135 13.2735 15.8039 13.4871 15.7825 13.5587C15.7663 13.6385 15.7527 13.7192 15.7443 13.7997C15.7235 13.8868 15.7162 13.9443 15.6924 14.0336C15.6891 14.1116 15.677 14.184 15.6614 14.2609" stroke="black" stroke-width="0.110005"/>
<path d="M17.4982 15.5737C17.4059 15.4765 17.3516 15.512 17.2922 15.5076C17.2265 15.5193 17.1069 15.5743 16.9856 15.6963C16.9413 15.7446 16.9041 15.7801 16.8455 15.8322C16.8191 15.8732 16.7974 15.8888 16.7683 15.9139" stroke="black" stroke-width="0.110005"/>
<path d="M24.4376 12.296C24.4353 12.3005 24.4329 12.3052 24.4305 12.3097C24.4528 12.2667 24.4367 12.2911 24.4569 12.393C24.4835 12.4633 24.4868 12.5121 24.5162 12.5802" stroke="black" stroke-width="0.110005"/>
<path d="M23.0013 12.6763C22.9966 12.6855 22.9846 13.6793 23.0257 13.8074C23.038 13.8895 23.0602 13.9583 23.0716 14.0562C23.0717 14.1153 23.0856 14.1648 23.0898 14.2222C23.1234 14.2856 23.1306 14.3493 23.165 14.4003C23.1818 14.4705 23.238 14.4733 23.2682 14.5387C23.3103 14.5841 23.3794 14.6641 23.4208 14.6999" stroke="black" stroke-width="0.110005"/>
<path d="M22.3109 15.3973C22.2803 15.3869 22.2018 15.3247 22.1347 15.2914C22.0591 15.2487 21.8727 15.0262 21.8638 14.8695" stroke="black" stroke-width="0.110005"/>
<path d="M23.0545 13.9867C23.0521 13.9913 22.9508 14.091 22.7851 14.2594C22.5732 14.4556 21.9965 14.7931 21.9271 14.8203C21.8607 14.8504 21.7778 14.9228 21.7122 14.933C21.6368 14.963 21.5617 14.9748 21.4904 14.9918C21.4034 15.0101 21.3296 15.0259 21.262 15.0297C21.0593 15.1179 19.9911 15.0835 19.9359 15.0716C19.8788 15.0711 19.8011 15.0669 19.7497 15.0618C19.6989 15.074 19.6387 15.069 19.57 15.0729C19.487 15.0662 19.4394 15.0821 19.3695 15.0906C19.3145 15.1196 19.2229 15.1496 19.1609 15.191C19.076 15.2253 19.0245 15.2721 18.966 15.2984C18.905 15.3488 18.0738 15.8338 18.0336 15.8554C17.9463 15.8939 17.6331 15.9869 17.5547 15.7667C17.5345 15.6801 17.4946 15.5908 17.4922 15.5245C17.467 15.4451 17.4813 15.3603 17.4854 15.2863C17.5582 14.9112 17.6786 14.7634 17.7118 14.6994C17.7237 14.6766 17.7356 14.6538 17.7474 14.6309" stroke="black" stroke-width="0.110005"/>
<path d="M25.4724 13.2506C25.47 13.2551 25.4676 13.2598 25.4653 13.2643C25.4845 13.2273 25.4755 13.2467 25.4231 13.312C25.3696 13.3552 25.3037 13.4236 25.2551 13.4682C25.2061 13.5168 25.159 13.5855 25.1149 13.6041C25.0707 13.662 25.015 13.6803 24.9545 13.7121C24.8728 13.7426 24.8165 13.7691 24.7459 13.8125C24.6557 13.8604 24.5995 13.9062 24.5159 13.954C24.4644 14.0198 24.412 14.0606 24.3682 14.1381C24.3248 14.2099 24.2816 14.2715 24.2407 14.3502C24.2075 14.4141 24.1743 14.478 24.1411 14.542L24.2407 14.3502C24.2075 14.4141 24.1743 14.478 24.1411 14.542" stroke="black" stroke-width="0.110005"/>
<path d="M24.7779 18.5072C24.7827 18.4981 24.7874 18.4889 24.7922 18.4798C24.7659 18.5305 24.7751 18.5172 24.7998 18.4316C24.8 18.329 24.8244 18.2049 24.8254 18.1144C24.8408 18.0186 24.8565 17.9151 24.8575 17.8181C24.8517 17.7045 24.8519 17.6028 24.8349 17.4933C24.8336 17.3925 24.8218 17.288 24.8188 17.1893C24.8169 17.0915 24.8096 17.0077 24.7884 16.9127C24.7865 16.8416 24.7821 16.7441 24.7648 16.6569C24.774 16.5883 24.7545 16.5251 24.7399 16.4702C24.7133 16.3644 24.7031 16.3027 24.6751 16.193C24.6583 16.1343 24.6418 16.0592 24.6164 15.9713C24.6073 15.8879 24.5627 15.7797 24.5445 15.7079C24.5197 15.655 24.4948 15.5834 24.4852 15.5206C24.4592 15.4626 24.4223 15.3918 24.4122 15.3261C24.3849 15.2761 24.3558 15.1983 24.3255 15.1246C24.2995 15.0641 24.2803 14.9895 24.2526 14.9303C24.2246 14.8553 24.1905 14.7913 24.173 14.715C24.1463 14.6891 24.1402 14.6607 24.1259 14.6384" stroke="black" stroke-width="0.110005"/>
<path d="M24.5932 12.7333C24.5002 12.9458 24.2608 13.2563 24.2572 13.2631C24.2572 13.2632 24.0293 13.7187 24.0293 13.7187C23.929 13.9681 23.993 14.0679 24.0368 14.1399C24.1275 14.3001 24.1435 14.3866 24.2106 14.5085C24.2359 14.6607 23.9659 14.7119 23.9624 14.7187C23.4002 14.9137 23.1151 14.3744 23.1121 14.3468C23.0358 14.0638 23.0458 14.0167 23.2181 13.9584C23.4155 13.913 23.4949 13.9108 23.5926 13.8398C23.7777 13.7012 23.9083 13.282 23.9119 13.2751C23.9154 13.2683 23.9396 13.0374 23.9396 13.0374C23.9541 12.926 23.9026 12.8239 23.9595 12.6477C24.0333 12.4774 24.0778 12.4309 24.2529 12.4174C24.4809 12.3968 24.658 12.5582 24.5932 12.7333V12.7333Z" fill="#F9DD16" stroke="black" stroke-width="0.110005"/>
<path d="M26.2133 21.2734C26.0182 21.174 25.8693 21.1542 25.7982 21.2023C25.6852 20.5702 25.5857 19.9374 25.4405 19.3072C24.2419 18.8082 23.9886 18.6942 23.5953 18.5232C23.7789 18.4039 23.8705 18.2849 23.8644 18.1993C24.4683 18.4174 25.0662 18.6477 25.6845 18.837C26.716 18.0485 26.9413 17.8861 27.286 17.6311C27.2976 17.8497 27.3548 17.9886 27.432 18.0261C26.9412 18.44 26.4428 18.8426 25.9697 19.2834C26.1368 20.571 26.1648 20.8473 26.2133 21.2734L26.2133 21.2734Z" fill="#F9DD16" stroke="black" stroke-width="0.143006"/>
<path d="M31.9623 13.268C31.9292 13.2794 31.6313 13.4689 31.6366 13.4776C31.642 13.4864 31.3869 14.2502 31.3816 14.2415C31.3762 14.2327 31.1876 13.6374 31.169 13.6508C31.1505 13.6642 30.5184 13.8299 30.5092 13.8365C30.5 13.8432 30.9806 13.1436 30.9806 13.1436L30.9085 12.477L31.4273 12.6073C31.4273 12.6073 31.9722 12.101 31.9815 12.0943C31.9907 12.0877 31.8426 12.6988 31.8426 12.6988L32.1235 13.0511C32.1235 13.0511 31.9702 13.2372 31.9623 13.268Z" fill="#F9DD16" stroke="black" stroke-width="0.110005"/>
<path d="M26.1138 21.5991C26.4958 21.8001 28.7107 21.8699 29.0566 21.8716C29.4935 21.7671 30.1076 21.7356 30.5701 21.8256C31.0126 21.9584 31.4622 21.8857 31.761 21.6086C32.1678 21.321 32.3127 20.9086 32.4934 20.5331C32.5619 20.3386 32.5631 20.1422 32.4853 19.9904C32.3462 19.6643 32.4268 19.5684 32.3962 19.377C32.8826 18.1866 32.9727 16.868 33.0823 15.8862C33.0618 15.3254 33.1156 14.8864 33.1794 14.7034C33.4391 14.2522 33.8221 14.0252 34.0155 13.9223C34.7308 13.631 35.4462 13.3397 36.1616 13.0484C36.7165 12.7619 36.3488 12.4278 36.2338 12.4784C35.8612 12.4764 35.8717 12.0657 34.134 12.74C33.7604 12.7447 33.3868 12.7494 33.0132 12.7542C33.0132 12.7542 32.7943 12.6069 32.7719 12.623C32.1659 12.5956 32.0809 13.0096 32.1186 13.2456C32.148 13.4174 32.1774 13.5892 32.2068 13.7611C32.2068 13.7611 31.9972 14.5822 32.0101 14.6034C31.4628 15.3158 30.6587 17.4676 30.6098 17.866C30.5884 18.2369 30.4517 18.19 30.4916 18.5418C30.4957 18.8206 30.4622 18.6509 30.5592 19.2127C30.5832 19.3826 30.3755 19.3988 30.256 19.3658C29.2349 18.862 28.5114 18.6626 27.4471 18.2401L25.7052 19.5062L26.1138 21.5991Z" fill="white" stroke="black" stroke-width="0.143006"/>
<path d="M34.7095 13.8821C34.6877 13.8916 33.9764 13.1043 33.9764 13.1043C33.9764 13.1043 34.3869 12.9525 34.3897 12.9571L35.2077 13.6583L34.7095 13.8821Z" fill="#F9DD16"/>
<path d="M35.4154 13.6459C35.4004 13.6461 35.3069 13.6257 35.2531 13.6011C35.2048 13.5608 35.0196 13.4382 34.967 13.3787C34.9044 13.3201 34.8396 13.2636 34.7723 13.2126C34.7056 13.1455 34.6582 13.1077 34.5911 13.0364C34.5234 12.9918 34.4652 12.9413 34.4048 12.8847M34.7363 13.9144C34.6843 13.8678 34.4507 13.6626 34.3933 13.5949C34.3255 13.5275 34.2556 13.4623 34.1833 13.4029C34.1109 13.326 34.0599 13.2821 33.9869 13.2007C33.9145 13.1483 33.8518 13.0899 33.7864 13.0248L34.7363 13.9144Z" stroke="black" stroke-width="0.124305"/>
<path d="M32.8253 18.3503C32.2372 18.5359 31.5638 18.3264 31.2629 18.0711" stroke="black" stroke-width="0.110005"/>
<path d="M31.3445 15.802C31.3471 15.8065 31.3497 15.811 31.3523 15.8155C31.3278 15.7732 31.3393 15.8019 31.4437 15.8043C31.5102 15.7828 31.7322 15.8636 31.8078 15.9944C31.8511 16.0523 31.9139 16.1441 31.9504 16.2072C31.9608 16.2252 31.9616 16.2604 31.9721 16.2785" stroke="black" stroke-width="0.110005"/>
<path d="M34.0018 14.0922C33.9992 14.088 33.9967 14.0837 33.9941 14.0793C34.0044 14.0966 33.9736 14.045 33.9634 14.0278C33.9235 13.9609 33.8958 13.8847 33.8613 13.8245C33.8229 13.7601 33.8034 13.6816 33.7649 13.6171C33.7356 13.545 33.6857 13.4689 33.6555 13.3943C33.6131 13.3168 33.5925 13.2449 33.5456 13.1663C33.5103 13.1011 33.5009 13.0589 33.459 12.9887L33.5456 13.1663C33.5103 13.1011 33.5009 13.0589 33.459 12.9887" stroke="black" stroke-width="0.110005"/>
<path d="M35.8912 13.515C35.8764 13.5159 35.785 13.5002 35.7328 13.4786C35.6867 13.4411 35.5083 13.329 35.4586 13.2728C35.3989 13.218 35.337 13.1654 35.2724 13.1183C35.2089 13.0553 35.1635 13.0203 35.0998 12.9531C35.0346 12.9124 34.979 12.8653 34.9215 12.8125" stroke="black" stroke-width="0.110005"/>
<path d="M32.8426 13.7519C32.9708 13.7096 32.9703 13.6452 33.0051 13.5933C33.03 13.5286 33.0478 13.3967 33.0116 13.2346C32.9952 13.1738 32.9857 13.1249 32.9738 13.0495C32.954 13.0081 32.9527 12.9817 32.9474 12.9447" stroke="black" stroke-width="0.110005"/>
<path d="M32.2269 21.386C32.2243 21.3816 32.2216 21.3771 32.2191 21.3727C32.2435 21.4146 32.2316 21.3874 32.1337 21.3601C32.0592 21.3538 32.0158 21.3343 31.9417 21.3318" stroke="black" stroke-width="0.110005"/>
<path d="M32.6156 19.9032C32.6104 19.8942 31.7661 19.4141 31.6339 19.3951C31.557 19.3688 31.486 19.3587 31.3958 19.324C31.3452 19.2963 31.2953 19.2869 31.2438 19.2641C31.1711 19.268 31.1127 19.2452 31.0501 19.2558C30.9809 19.2396 30.9477 19.2948 30.8752 19.2942C30.8133 19.3151 30.707 19.3469 30.6536 19.3717" stroke="black" stroke-width="0.110005"/>
<path d="M30.6047 18.0341C30.6297 18.0101 30.7238 17.964 30.7875 17.9159C30.8637 17.864 31.1496 17.7876 31.2853 17.8483" stroke="black" stroke-width="0.110005"/>
<path d="M31.3479 19.3522C31.3454 19.3481 31.3171 19.2158 31.2667 18.997C31.2177 18.7252 31.2434 18.0681 31.2574 17.9947C31.2675 17.9227 31.2519 17.8182 31.2777 17.7553C31.2925 17.6753 31.3219 17.6033 31.3452 17.5324C31.3755 17.447 31.401 17.3744 31.433 17.3124C31.4667 17.0943 32.0492 16.1541 32.0875 16.1099C32.1175 16.059 32.1612 15.9913 32.192 15.9475C32.2085 15.897 32.2439 15.8454 32.2764 15.7823C32.3249 15.711 32.3367 15.6617 32.3661 15.5957C32.3712 15.5344 32.3943 15.4399 32.393 15.3672C32.4093 15.2769 32.3981 15.2112 32.4071 15.1478C32.398 15.0722 32.4364 14.1257 32.4397 14.0807C32.4538 13.9866 32.541 13.6676 32.7602 13.6901C32.8409 13.7084 32.934 13.7103 32.989 13.736C33.0664 13.7468 33.1276 13.7952 33.1855 13.8299C33.4518 14.0525 33.509 14.2222 33.5437 14.2788C33.556 14.2989 33.5684 14.3191 33.5807 14.3393" stroke="black" stroke-width="0.110005"/>
<path d="M30.8387 21.8144C30.8362 21.8102 30.8336 21.806 30.8311 21.8018C30.8516 21.8358 30.8403 21.819 30.8139 21.7419C30.8065 21.6734 30.7848 21.5823 30.7736 21.5178C30.7593 21.4512 30.7273 21.3775 30.7354 21.3284C30.7108 21.2622 30.7253 21.2025 30.7311 21.1325C30.7493 21.0434 30.7573 20.9797 30.7589 20.8952C30.7672 20.7906 30.7591 20.7185 30.7639 20.6201C30.7367 20.5436 30.7307 20.4771 30.6896 20.4027C30.6529 20.3311 30.6248 20.264 30.5812 20.1918C30.5457 20.133 30.5102 20.0744 30.4748 20.0156L30.5812 20.1918C30.5457 20.133 30.5102 20.0744 30.4748 20.0156" stroke="black" stroke-width="0.110005"/>
<path d="M26.6816 18.6778C26.6868 18.6869 26.6921 18.696 26.6973 18.7051C26.6683 18.6546 26.6746 18.6702 26.7344 18.7356C26.8222 18.7844 26.9152 18.8677 26.9922 18.9115C27.0659 18.9724 27.146 19.0371 27.2286 19.084C27.3291 19.1318 27.4162 19.1801 27.5193 19.2148C27.6064 19.2611 27.7024 19.2986 27.7887 19.3423C27.8735 19.3867 27.9493 19.419 28.0423 19.4425C28.1043 19.4741 28.1903 19.5158 28.2745 19.5396C28.3282 19.5814 28.393 19.5916 28.4481 19.6028C28.5534 19.6261 28.6119 19.6448 28.7211 19.6685C28.7807 19.6794 28.8541 19.6981 28.9433 19.7142C29.0198 19.7444 29.137 19.7505 29.2085 19.7662C29.2674 19.7662 29.3424 19.7748 29.4015 19.7948C29.4654 19.7961 29.5463 19.7923 29.6081 19.8132C29.666 19.8092 29.7486 19.8167 29.8283 19.821C29.8944 19.8233 29.9688 19.8393 30.0348 19.8393C30.1143 19.8465 30.1879 19.8423 30.2629 19.8608C30.2997 19.8461 30.3274 19.8534 30.3544 19.8494" stroke="black" stroke-width="0.110005"/>
<path d="M31.7197 21.3273C31.5911 21.1443 31.4591 20.7788 31.4553 20.7724C31.4552 20.7723 31.195 20.353 31.195 20.353C31.0394 20.1465 30.921 20.1626 30.8368 20.1719C30.6534 20.1863 30.572 20.1627 30.4334 20.1719C30.2918 20.1278 30.3942 19.8492 30.3903 19.8428C30.5292 19.2233 31.1361 19.1942 31.161 19.2037C31.44 19.2579 31.4742 19.2883 31.4304 19.4776C31.3622 19.6849 31.3213 19.761 31.3284 19.8853C31.3453 20.1225 31.6273 20.4335 31.6312 20.44C31.635 20.4464 31.816 20.5724 31.816 20.5724C31.9019 20.6359 32.0155 20.6327 32.133 20.7653C32.2364 20.9114 32.2516 20.9743 32.1686 21.1461C32.0631 21.3713 31.832 21.4669 31.7197 21.3273L31.7197 21.3273Z" fill="#F9DD16" stroke="black" stroke-width="0.110005"/>
<path d="M23.6 18.5838C23.7862 18.4486 23.8815 18.3205 23.879 18.2338C24.4668 18.4105 25.0482 18.6 25.6514 18.7463C26.7025 17.8661 26.9317 17.6839 27.2826 17.3983C27.2851 17.62 27.3361 17.7571 27.4109 17.7895C26.9092 18.2477 26.4005 18.695 25.9152 19.1793C26.0283 20.4776 26.0447 20.7568 26.0755 21.1869C25.8867 21.1005 25.7404 21.0915 25.6682 21.1458C25.5821 20.5108 25.5094 19.874 25.3914 19.2434C24.2273 18.8253 23.9816 18.7283 23.6 18.5838L23.6 18.5838Z" fill="#F9DD16" stroke="black" stroke-width="0.143006"/>
<path d="M27.5101 27.3723C27.5178 27.3396 27.509 26.9991 27.4983 26.9986C27.4877 26.9982 26.9457 26.3843 26.9563 26.3848C26.967 26.3852 27.5969 26.5526 27.595 26.5306C27.593 26.5086 27.7844 25.9126 27.7834 25.9015C27.7825 25.8906 28.1465 26.6511 28.1465 26.6511L28.7774 26.9503L28.3837 27.2968C28.3837 27.2968 28.5417 28.0054 28.5426 28.0164C28.5436 28.0274 28.08 27.5812 28.08 27.5812L27.6165 27.6178C27.6165 27.6178 27.5333 27.3951 27.5101 27.3723Z" fill="#F9DD16" stroke="black" stroke-width="0.110005"/>
<path d="M23.3052 18.3345C22.9216 18.5327 21.6725 20.2687 21.4857 20.5447C21.3446 20.9505 21.0435 21.4591 20.7156 21.7812C20.3602 22.0644 20.184 22.4634 20.2706 22.8511C20.3087 23.3309 20.5981 23.6679 20.8356 24.0138C20.972 24.1729 21.1462 24.2792 21.323 24.2982C21.688 24.3616 21.7301 24.4775 21.9168 24.5555C22.716 25.583 23.8416 26.3617 24.6569 26.9756C25.1672 27.2597 25.5292 27.538 25.6579 27.6872C25.9205 28.1369 25.9172 28.5652 25.9053 28.7752C25.7813 29.5041 25.6572 30.233 25.5332 30.9619C25.4909 31.5597 25.9853 31.4444 26.0019 31.3251C26.2034 31.0279 26.5634 31.2564 26.8943 29.5037C27.0903 29.202 27.2863 28.9003 27.4823 28.5986C27.4823 28.5986 27.7307 28.5023 27.7284 28.4757C28.0775 28.0052 27.7544 27.7153 27.5242 27.619C27.3555 27.5505 27.1868 27.4819 27.018 27.4134C27.018 27.4134 26.3993 26.8056 26.3735 26.8045C26.0326 25.9845 24.5479 24.1876 24.2194 23.9349C23.9006 23.7191 24.0157 23.6347 23.6811 23.4782C23.4306 23.332 23.5997 23.3961 23.0475 23.1727C22.8835 23.1009 22.9803 22.9259 23.0737 22.8479C24.0694 22.3003 24.6346 21.8279 25.5812 21.2021L25.3875 19.1289L23.3052 18.3345Z" fill="white" stroke="black" stroke-width="0.143006"/>
<path d="M25.6285 29.4688C25.632 29.4457 26.6917 29.2799 26.6917 29.2799C26.6917 29.2799 26.6021 29.7008 26.5967 29.7006L25.5539 30.0008L25.6285 29.4688Z" fill="#F9DD16"/>
<path d="M25.4538 30.1806C25.4617 30.168 25.5294 30.1014 25.5794 30.0699C25.6399 30.0515 25.8444 29.9636 25.9237 29.952C26.0076 29.9315 26.0907 29.908 26.1706 29.8796C26.264 29.8602 26.3218 29.8412 26.419 29.8238C26.4936 29.7915 26.5681 29.7704 26.649 29.7506M25.5886 29.4726C25.6565 29.4545 25.9578 29.3708 26.0467 29.3595C26.1409 29.3394 26.2343 29.3164 26.3241 29.2884C26.4288 29.2695 26.4938 29.2508 26.6028 29.2339C26.6867 29.202 26.7704 29.1813 26.8613 29.162L25.5886 29.4726Z" stroke="black" stroke-width="0.124305"/>
<path d="M22.6764 25.597C22.835 25.0053 23.3752 24.5546 23.7539 24.4402" stroke="black" stroke-width="0.110005"/>
<path d="M25.6597 25.6318C25.6545 25.6315 25.6493 25.6313 25.6441 25.6311C25.693 25.6332 25.6626 25.6275 25.6043 25.7142C25.5867 25.7819 25.399 25.9256 25.2482 25.9189C25.1762 25.9242 25.0651 25.9278 24.9922 25.9246C24.9715 25.9237 24.9414 25.9055 24.9206 25.9045" stroke="black" stroke-width="0.110005"/>
<path d="M25.7904 28.7397C25.7954 28.7399 25.8005 28.7401 25.8057 28.7403C25.7852 28.7394 25.8467 28.742 25.8671 28.7428C25.9468 28.7461 26.0281 28.7643 26.099 28.7684C26.1759 28.7716 26.2547 28.7977 26.3316 28.8009C26.4101 28.8156 26.5032 28.8157 26.5845 28.831C26.6748 28.8379 26.7486 28.8596 26.8422 28.8635C26.918 28.8696 26.9598 28.8845 27.0434 28.888L26.8422 28.8635C26.918 28.8696 26.9598 28.8845 27.0434 28.888" stroke="black" stroke-width="0.110005"/>
<path d="M25.3523 30.6808C25.3595 30.6676 25.4217 30.5977 25.4678 30.5646C25.5237 30.5451 25.7125 30.4526 25.7858 30.4403C25.8633 30.4186 25.9401 30.3939 26.0139 30.3639C26.1002 30.3434 26.1536 30.3234 26.2435 30.3049C26.3123 30.2709 26.3812 30.2487 26.4559 30.2278" stroke="black" stroke-width="0.110005"/>
<path d="M26.6711 27.9305C26.64 28.0558 26.6977 28.0898 26.7253 28.1455C26.7695 28.2002 26.8774 28.2851 27.0412 28.3431C27.1041 28.3626 27.1528 28.3812 27.2264 28.4121C27.2738 28.4185 27.298 28.4316 27.3339 28.4472" stroke="black" stroke-width="0.110005"/>
<path d="M20.3695 23.5838C20.3747 23.584 20.3799 23.5842 20.3851 23.5845C20.3363 23.5824 20.3658 23.587 20.4417 23.5198C20.4871 23.4608 20.527 23.435 20.569 23.3743" stroke="black" stroke-width="0.110005"/>
<path d="M21.4335 24.6374C21.4439 24.6379 22.3013 24.1819 22.3884 24.0802C22.4519 24.0292 22.4987 23.9746 22.5763 23.9169C22.6268 23.889 22.6616 23.8518 22.7084 23.8205C22.7443 23.7569 22.7949 23.7197 22.8197 23.6611C22.8706 23.6112 22.8422 23.5534 22.8818 23.4923C22.8976 23.4286 22.9281 23.3216 22.9362 23.263" stroke="black" stroke-width="0.110005"/>
<path d="M24.0993 23.8757C24.1069 23.9089 24.0971 24.0098 24.1052 24.0872C24.11 24.1768 24.024 24.4494 23.8978 24.5268" stroke="black" stroke-width="0.110005"/>
<path d="M22.5219 23.7834C22.5269 23.7836 22.6602 23.8322 22.8827 23.9095C23.1518 24.0165 23.7247 24.39 23.7828 24.4406C23.8416 24.4873 23.9434 24.531 23.9857 24.5853C24.0492 24.6401 24.0977 24.7022 24.1485 24.7588C24.2085 24.8289 24.2596 24.8881 24.2977 24.947C24.4744 25.091 25.0012 26.06 25.0201 26.1143C25.0494 26.1655 25.0863 26.2368 25.1089 26.2848C25.1451 26.3251 25.1723 26.381 25.2111 26.4407C25.2487 26.5177 25.2864 26.5536 25.3295 26.6125C25.3816 26.6495 25.4535 26.7187 25.5192 26.7567C25.5911 26.8181 25.6557 26.8445 25.7075 26.8858C25.78 26.9191 26.6046 27.4581 26.643 27.485C26.7194 27.5468 26.9574 27.7876 26.8197 27.9501C26.7599 28.0045 26.7082 28.0777 26.6558 28.1077C26.6045 28.1636 26.5284 28.1864 26.4662 28.2138C26.1244 28.3064 25.9421 28.2608 25.873 28.258C25.8484 28.257 25.8237 28.256 25.799 28.255" stroke="black" stroke-width="0.110005"/>
<path d="M20.6754 22.1297C20.6804 22.1299 20.6855 22.1301 20.6905 22.1303C20.6495 22.1287 20.6704 22.1285 20.7527 22.1486C20.8172 22.1794 20.9092 22.2106 20.9722 22.2362C21.0388 22.2604 21.121 22.274 21.16 22.3068C21.2317 22.3225 21.2767 22.3662 21.3354 22.4084C21.4044 22.4708 21.4564 22.5114 21.5302 22.5579C21.6181 22.6207 21.6862 22.6528 21.7705 22.7094C21.8527 22.7285 21.9146 22.7592 22.0024 22.7659C22.0853 22.7748 22.1596 22.788 22.2468 22.7915C22.3177 22.7944 22.3886 22.7972 22.4595 22.8001L22.2468 22.7915C22.3177 22.7944 22.3886 22.7972 22.4595 22.8001" stroke="black" stroke-width="0.110005"/>
<path d="M25.5438 20.1955C25.5334 20.195 25.5229 20.1945 25.5125 20.1941C25.5703 20.1967 25.5539 20.1936 25.467 20.2092C25.379 20.2575 25.2593 20.2916 25.1812 20.3333C25.0906 20.3631 24.9933 20.3963 24.9096 20.4412C24.8155 20.5007 24.7282 20.5486 24.6437 20.6176C24.558 20.6665 24.4749 20.7279 24.392 20.7776C24.3092 20.8257 24.2414 20.8727 24.1716 20.939C24.1117 20.9746 24.0306 21.0252 23.9653 21.0839C23.9015 21.107 23.858 21.1565 23.8189 21.1973C23.7428 21.2741 23.6956 21.3137 23.6169 21.3937C23.5758 21.4384 23.5205 21.4907 23.459 21.5578C23.3926 21.6065 23.3243 21.7027 23.2727 21.755C23.241 21.805 23.1933 21.864 23.1447 21.9034C23.1092 21.9571 23.0688 22.0279 23.0181 22.0691C22.9901 22.1203 22.9394 22.1865 22.8928 22.2518C22.8552 22.3067 22.8018 22.3614 22.7662 22.4174C22.7174 22.481 22.6812 22.5457 22.6254 22.5994C22.6178 22.6387 22.5968 22.6582 22.5856 22.6833" stroke="black" stroke-width="0.110005"/>
<path d="M20.6595 23.1242C20.8882 23.1173 21.2782 23.2054 21.2858 23.2057C21.2859 23.2057 21.7916 23.218 21.7916 23.218C22.0553 23.2016 22.1047 23.0964 22.1417 23.0227C22.2274 22.8653 22.2916 22.8115 22.3579 22.6935C22.4722 22.6015 22.6607 22.8343 22.6684 22.8346C23.1351 23.2799 22.8352 23.7909 22.8136 23.8061C22.6168 24.0048 22.5719 24.0164 22.43 23.8793C22.2855 23.7125 22.2409 23.6383 22.1286 23.5775C21.9124 23.4642 21.4897 23.5277 21.4819 23.5274C21.4742 23.5271 21.2671 23.6073 21.2671 23.6073C21.1657 23.6434 21.1076 23.7378 20.9288 23.7627C20.7459 23.7688 20.6828 23.7475 20.5772 23.5877C20.437 23.3809 20.4773 23.141 20.6595 23.1242L20.6595 23.1242Z" fill="#F9DD16" stroke="black" stroke-width="0.110005"/>
<path d="M27.1769 17.6227C27.1971 17.8462 27.2593 17.9919 27.3371 18.0359C26.8689 18.4204 26.3928 18.7928 25.9431 19.206C26.1603 20.5294 26.1991 20.8128 26.2643 21.2502C26.0675 21.1344 25.9196 21.1031 25.8513 21.1467C25.714 20.4947 25.5902 19.8429 25.4212 19.1905C24.2168 18.5924 23.9619 18.4574 23.5664 18.2538C23.743 18.1461 23.8287 18.0318 23.8192 17.9442C24.4247 18.2116 25.0247 18.491 25.6433 18.7302C26.6306 18.0049 26.8466 17.8565 27.1769 17.6228L27.1769 17.6227Z" fill="#F9DD16" stroke="black" stroke-width="0.143006"/>
</g>
<path d="M11.7035 1.61228C6.53056 2.04084 2.23921 5.77712 1.57724 11.0101C1.25164 13.5841 1 16.6548 1 20C1 23.3452 1.25164 26.4159 1.57724 28.9899C2.23922 34.2229 6.53056 37.9592 11.7035 38.3877C15.5784 38.7087 20.5852 39 26 39C31.4148 39 36.4216 38.7087 40.2965 38.3877C45.4694 37.9592 49.7608 34.2229 50.4228 28.9899C50.7484 26.4159 51 23.3452 51 20C51 16.6548 50.7484 13.5841 50.4228 11.0101C49.7608 5.77712 45.4694 2.04084 40.2965 1.61228C36.4216 1.29127 31.4148 1 26 1C20.5852 1 15.5784 1.29127 11.7035 1.61228Z" stroke="#E6E6FA" stroke-width="2"/>
</svg>
