<svg width="52" height="40" viewBox="0 0 52 40" fill="none" xmlns="http://www.w3.org/2000/svg">
<mask id="mask0_1_41232" style="mask-type:alpha" maskUnits="userSpaceOnUse" x="2" y="2" width="48" height="36">
<path d="M2.56934 11.1356C3.16681 6.41247 7.0415 3.00193 11.7861 2.60887C15.6412 2.28949 20.6196 2 26 2C31.3804 2 36.3588 2.28949 40.2139 2.60887C44.9585 3.00193 48.8332 6.41247 49.4307 11.1356C49.752 13.6759 50 16.704 50 20C50 23.296 49.752 26.3241 49.4307 28.8644C48.8332 33.5875 44.9585 36.9981 40.2139 37.3911C36.3588 37.7105 31.3804 38 26 38C20.6196 38 15.6412 37.7105 11.7861 37.3911C7.0415 36.9981 3.16681 33.5875 2.56934 28.8644C2.248 26.3241 2 23.296 2 20C2 16.704 2.248 13.6759 2.56934 11.1356Z" fill="#00D0BF"/>
</mask>
<g mask="url(#mask0_1_41232)">
<rect x="2" y="26" width="48" height="12" fill="#59C785"/>
<rect x="2" y="14" width="48" height="12" fill="white"/>
<path d="M26 25C28.7614 25 31 22.7614 31 20C31 17.2386 28.7614 15 26 15C23.2386 15 21 17.2386 21 20C21 22.7614 23.2386 25 26 25Z" fill="#2E50A6"/>
<path d="M26 24.375C28.4162 24.375 30.375 22.4162 30.375 20C30.375 17.5838 28.4162 15.625 26 15.625C23.5838 15.625 21.625 17.5838 21.625 20C21.625 22.4162 23.5838 24.375 26 24.375Z" fill="white"/>
<path d="M26 20.875C26.4832 20.875 26.875 20.4832 26.875 20C26.875 19.5168 26.4832 19.125 26 19.125C25.5168 19.125 25.125 19.5168 25.125 20C25.125 20.4832 25.5168 20.875 26 20.875Z" fill="#2E50A6"/>
<path d="M30.309 20.788C30.4288 20.8038 30.5387 20.7194 30.5544 20.5997C30.5702 20.4799 30.4859 20.37 30.3661 20.3542C30.2463 20.3385 30.1364 20.4228 30.1207 20.5426C30.1049 20.6623 30.1892 20.7722 30.309 20.788Z" fill="#2E50A6"/>
<path d="M21.5919 19.6707C21.7117 19.6865 21.8216 19.6022 21.8373 19.4824C21.8531 19.3626 21.7688 19.2527 21.649 19.2369C21.5292 19.2212 21.4193 19.3055 21.4036 19.4253C21.3878 19.545 21.4721 19.6549 21.5919 19.6707Z" fill="#2E50A6"/>
<path d="M25.3343 24.4198C25.3229 24.5393 25.4118 24.6467 25.533 24.6598C25.6541 24.6729 25.7616 24.5866 25.773 24.4672C25.7844 24.3477 25.6954 24.2402 25.5743 24.2272C25.4532 24.2141 25.3457 24.3003 25.3343 24.4198Z" fill="#2E50A6"/>
<path d="M26.2041 15.6745C26.1927 15.794 26.2816 15.9014 26.4027 15.9145C26.5239 15.9276 26.6313 15.8413 26.6427 15.7218C26.6541 15.6024 26.5652 15.4949 26.4441 15.4818C26.3229 15.4688 26.2155 15.555 26.2041 15.6745Z" fill="#2E50A6"/>
<path d="M28.342 23.7455C28.4121 23.8457 28.5485 23.8717 28.6468 23.8035C28.745 23.7354 28.7678 23.599 28.6977 23.4988C28.6277 23.3986 28.4912 23.3727 28.393 23.4408C28.2948 23.5089 28.2719 23.6454 28.342 23.7455Z" fill="#2E50A6"/>
<path d="M23.2645 16.5723C23.3346 16.6724 23.471 16.6984 23.5692 16.6303C23.6675 16.5621 23.6903 16.4257 23.6202 16.3255C23.5502 16.2253 23.4137 16.1994 23.3155 16.2675C23.2172 16.3357 23.1944 16.4721 23.2645 16.5723Z" fill="#2E50A6"/>
<path d="M22.3211 22.5368C22.2244 22.6086 22.2048 22.7457 22.2772 22.843C22.3497 22.9402 22.4867 22.9609 22.5834 22.8891C22.68 22.8172 22.6996 22.6802 22.6272 22.5829C22.5548 22.4857 22.4177 22.465 22.3211 22.5368Z" fill="#2E50A6"/>
<path d="M29.3476 17.258C29.2509 17.3299 29.2313 17.4669 29.3037 17.5642C29.3762 17.6614 29.5132 17.6821 29.6099 17.6103C29.7065 17.5385 29.7261 17.4014 29.6537 17.3041C29.5813 17.2069 29.4442 17.1862 29.3476 17.258Z" fill="#2E50A6"/>
<path d="M29.3532 22.8547C29.4458 22.9213 29.5831 22.8921 29.6597 22.7895C29.7363 22.6868 29.7234 22.5496 29.6308 22.483C29.5382 22.4164 29.4009 22.4456 29.3243 22.5482C29.2477 22.6509 29.2606 22.7881 29.3532 22.8547Z" fill="#2E50A6"/>
<path d="M22.3314 17.5698C22.424 17.6364 22.5612 17.6072 22.6378 17.5045C22.7145 17.4019 22.7015 17.2647 22.6089 17.1981C22.5163 17.1315 22.3791 17.1607 22.3025 17.2633C22.2258 17.366 22.2388 17.5032 22.3314 17.5698Z" fill="#2E50A6"/>
<path d="M23.2619 23.5426C23.1878 23.6476 23.2041 23.7842 23.2984 23.8477C23.3928 23.9113 23.5294 23.8777 23.6036 23.7728C23.6778 23.6678 23.6614 23.5312 23.5671 23.4676C23.4728 23.4041 23.3361 23.4376 23.2619 23.5426Z" fill="#2E50A6"/>
<path d="M28.3457 16.3738C28.2716 16.4787 28.2879 16.6154 28.3822 16.6789C28.4766 16.7425 28.6132 16.7089 28.6874 16.604C28.7616 16.499 28.7452 16.3624 28.6509 16.2988C28.5566 16.2352 28.4199 16.2688 28.3457 16.3738Z" fill="#2E50A6"/>
<path d="M26.1947 24.4284C26.2112 24.5552 26.318 24.6541 26.4332 24.6492C26.5484 24.6443 26.6284 24.5376 26.612 24.4107C26.5955 24.2839 26.4887 24.185 26.3735 24.1899C26.2583 24.1948 26.1782 24.3016 26.1947 24.4284Z" fill="#2E50A6"/>
<path d="M25.3326 15.6823C25.3491 15.8092 25.4559 15.908 25.5711 15.9032C25.6863 15.8983 25.7663 15.7915 25.7498 15.6647C25.7333 15.5378 25.6266 15.439 25.5114 15.4439C25.3961 15.4487 25.3161 15.5555 25.3326 15.6823Z" fill="#2E50A6"/>
<path d="M21.5589 20.3898C21.4442 20.3975 21.3675 20.5068 21.3875 20.6338C21.4076 20.7608 21.5168 20.8575 21.6315 20.8498C21.7462 20.8421 21.8229 20.7329 21.8029 20.6058C21.7828 20.4788 21.6736 20.3821 21.5589 20.3898Z" fill="#2E50A6"/>
<path d="M30.277 19.2802C30.1623 19.2879 30.0856 19.3971 30.1056 19.5241C30.1256 19.6512 30.2349 19.7479 30.3496 19.7402C30.4643 19.7325 30.541 19.6232 30.521 19.4962C30.5009 19.3692 30.3917 19.2725 30.277 19.2802Z" fill="#2E50A6"/>
<path d="M29.8359 21.8781C29.9412 21.918 30.0674 21.8565 30.1178 21.7408C30.1682 21.625 30.1236 21.4987 30.0183 21.4588C29.9129 21.4189 29.7867 21.4804 29.7363 21.5961C29.6859 21.7119 29.7305 21.8382 29.8359 21.8781Z" fill="#2E50A6"/>
<path d="M21.815 18.5879C21.9204 18.6278 22.0466 18.5663 22.097 18.4505C22.1474 18.3347 22.1028 18.2085 21.9974 18.1686C21.8921 18.1287 21.7659 18.1901 21.7155 18.3059C21.6651 18.4217 21.7097 18.5479 21.815 18.5879Z" fill="#2E50A6"/>
<path d="M24.2518 23.9968C24.2047 24.1133 24.2531 24.238 24.3599 24.2753C24.4667 24.3125 24.5914 24.2482 24.6384 24.1317C24.6855 24.0151 24.6371 23.8904 24.5303 23.8532C24.4236 23.8159 24.2989 23.8802 24.2518 23.9968Z" fill="#2E50A6"/>
<path d="M27.3133 15.8859C27.2663 16.0024 27.3147 16.1271 27.4214 16.1644C27.5282 16.2017 27.6529 16.1374 27.7 16.0208C27.747 15.9042 27.6986 15.7795 27.5918 15.7423C27.4851 15.705 27.3604 15.7693 27.3133 15.8859Z" fill="#2E50A6"/>
<path d="M27.2389 24.1229C27.2838 24.2425 27.4078 24.3126 27.5156 24.2794C27.6235 24.2462 27.6745 24.1222 27.6295 24.0026C27.5845 23.8829 27.4606 23.8129 27.3527 23.8461C27.2448 23.8793 27.1939 24.0032 27.2389 24.1229Z" fill="#2E50A6"/>
<path d="M24.2323 15.9915C24.2773 16.1112 24.4012 16.1812 24.5091 16.148C24.6169 16.1148 24.6679 15.9909 24.6229 15.8712C24.5779 15.7516 24.454 15.6815 24.3461 15.7147C24.2382 15.7479 24.1873 15.8719 24.2323 15.9915Z" fill="#2E50A6"/>
<path d="M21.8945 21.4265C21.7875 21.4633 21.7395 21.5888 21.7874 21.7068C21.8352 21.8249 21.9607 21.8907 22.0677 21.854C22.1747 21.8172 22.2226 21.6917 22.1748 21.5736C22.127 21.4556 22.0015 21.3897 21.8945 21.4265Z" fill="#2E50A6"/>
<path d="M29.9374 18.1906C29.8304 18.2274 29.7824 18.3529 29.8303 18.4709C29.8781 18.589 30.0036 18.6548 30.1106 18.6181C30.2176 18.5813 30.2655 18.4558 30.2177 18.3377C30.1699 18.2197 30.0444 18.1538 29.9374 18.1906Z" fill="#2E50A6"/>
<path d="M29.8359 21.8781C29.9412 21.918 30.0674 21.8565 30.1178 21.7408C30.1682 21.625 30.1236 21.4987 30.0183 21.4588C29.9129 21.4189 29.7867 21.4804 29.7363 21.5961C29.6859 21.7119 29.7305 21.8382 29.8359 21.8781Z" fill="#2E50A6"/>
<path d="M21.815 18.5879C21.9204 18.6278 22.0466 18.5663 22.097 18.4505C22.1474 18.3347 22.1028 18.2085 21.9974 18.1686C21.8921 18.1287 21.7659 18.1901 21.7155 18.3059C21.6651 18.4217 21.7097 18.5479 21.815 18.5879Z" fill="#2E50A6"/>
<path d="M24.2518 23.9968C24.2047 24.1133 24.2531 24.238 24.3599 24.2753C24.4667 24.3125 24.5914 24.2482 24.6384 24.1317C24.6855 24.0151 24.6371 23.8904 24.5303 23.8532C24.4236 23.8159 24.2989 23.8802 24.2518 23.9968Z" fill="#2E50A6"/>
<path d="M27.3133 15.8859C27.2663 16.0024 27.3147 16.1271 27.4214 16.1644C27.5282 16.2017 27.6529 16.1374 27.7 16.0208C27.747 15.9042 27.6986 15.7795 27.5918 15.7423C27.4851 15.705 27.3604 15.7693 27.3133 15.8859Z" fill="#2E50A6"/>
<path d="M27.2389 24.1229C27.2838 24.2425 27.4078 24.3126 27.5156 24.2794C27.6235 24.2462 27.6745 24.1222 27.6295 24.0026C27.5845 23.8829 27.4606 23.8129 27.3527 23.8461C27.2448 23.8793 27.1939 24.0032 27.2389 24.1229Z" fill="#2E50A6"/>
<path d="M24.2323 15.9915C24.2773 16.1112 24.4012 16.1812 24.5091 16.148C24.6169 16.1148 24.6679 15.9909 24.6229 15.8712C24.5779 15.7516 24.454 15.6815 24.3461 15.7147C24.2382 15.7479 24.1873 15.8719 24.2323 15.9915Z" fill="#2E50A6"/>
<path d="M21.8945 21.4265C21.7875 21.4633 21.7395 21.5888 21.7874 21.7068C21.8352 21.8249 21.9607 21.8907 22.0677 21.854C22.1747 21.8172 22.2226 21.6917 22.1748 21.5736C22.127 21.4556 22.0015 21.3897 21.8945 21.4265Z" fill="#2E50A6"/>
<path d="M29.9374 18.1906C29.8304 18.2274 29.7824 18.3529 29.8303 18.4709C29.8781 18.589 30.0036 18.6548 30.1106 18.6181C30.2176 18.5813 30.2655 18.4558 30.2177 18.3377C30.1699 18.2197 30.0444 18.1538 29.9374 18.1906Z" fill="#2E50A6"/>
<path d="M26 24.375L26.15 21.75L26 20.5L25.85 21.75L26 24.375Z" fill="#2E50A6"/>
<path d="M26 15.625L25.85 18.25L26 19.5L26.15 18.25L26 15.625Z" fill="#2E50A6"/>
<path d="M21.625 20.0001L24.25 20.1501L25.5 20.0001L24.25 19.8501L21.625 20.0001Z" fill="#2E50A6"/>
<path d="M30.375 20.0001L27.75 19.8501L26.5 20.0001L27.75 20.1501L30.375 20.0001Z" fill="#2E50A6"/>
<path d="M22.9064 23.0936L24.8687 21.3435L25.6465 20.3536L24.6565 21.1314L22.9064 23.0936Z" fill="#2E50A6"/>
<path d="M29.0936 16.9064L27.1314 18.6565L26.3536 19.6465L27.3435 18.8686L29.0936 16.9064Z" fill="#2E50A6"/>
<path d="M22.9064 16.9064L24.6565 18.8686L25.6464 19.6465L24.8686 18.6565L22.9064 16.9064Z" fill="#2E50A6"/>
<path d="M29.0936 23.0936L27.3435 21.1314L26.3536 20.3536L27.1314 21.3435L29.0936 23.0936Z" fill="#2E50A6"/>
<path d="M24.8494 24.2364L25.6802 21.7151L25.889 20.4726L25.4271 21.6584L24.8494 24.2364Z" fill="#2E50A6"/>
<path d="M27.1507 15.7637L26.3199 18.285L26.1111 19.5275L26.573 18.3418L27.1507 15.7637Z" fill="#2E50A6"/>
<path d="M21.7811 18.9072L24.2614 19.7175L25.5101 19.8312L24.353 19.3488L21.7811 18.9072Z" fill="#2E50A6"/>
<path d="M30.2189 21.093L27.7387 20.2827L26.49 20.1689L27.647 20.6513L30.2189 21.093Z" fill="#2E50A6"/>
<path d="M22.2178 22.1648L24.5638 21.0356L25.5604 20.2727L24.4005 20.7305L22.2178 22.1648Z" fill="#2E50A6"/>
<path d="M29.7823 17.8352L27.4363 18.9644L26.4397 19.7273L27.5996 19.2696L29.7823 17.8352Z" fill="#2E50A6"/>
<path d="M23.8027 16.199L25.0085 18.5516L25.7599 19.5792L25.2486 18.426L23.8027 16.199Z" fill="#2E50A6"/>
<path d="M28.1974 23.8011L26.9916 21.4484L26.2402 20.4209L26.7515 21.5741L28.1974 23.8011Z" fill="#2E50A6"/>
<path d="M23.8027 23.8011L25.2486 21.5741L25.7598 20.4209L25.0084 21.4485L23.8027 23.8011Z" fill="#2E50A6"/>
<path d="M28.1973 16.199L26.7514 18.426L26.2402 19.5792L26.9916 18.5517L28.1973 16.199Z" fill="#2E50A6"/>
<path d="M22.2178 17.8352L24.4005 19.2695L25.5604 19.7273L24.5638 18.9644L22.2178 17.8352Z" fill="#2E50A6"/>
<path d="M29.7823 22.1648L27.5995 20.7305L26.4397 20.2727L27.4363 21.0357L29.7823 22.1648Z" fill="#2E50A6"/>
<path d="M21.7811 21.0929L24.353 20.6513L25.5101 20.1689L24.2614 20.2826L21.7811 21.0929Z" fill="#2E50A6"/>
<path d="M30.2189 18.9071L27.647 19.3488L26.49 19.8312L27.7387 19.7174L30.2189 18.9071Z" fill="#2E50A6"/>
<path d="M24.8493 15.7637L25.4271 18.3418L25.889 19.5276L25.6801 18.285L24.8493 15.7637Z" fill="#2E50A6"/>
<path d="M27.1507 24.2364L26.573 21.6584L26.1111 20.4726L26.3199 21.7151L27.1507 24.2364Z" fill="#2E50A6"/>
<rect x="2" y="2" width="48" height="12" fill="#FFA654"/>
</g>
<path d="M11.7035 1.61228C6.53056 2.04084 2.23921 5.77712 1.57724 11.0101C1.25164 13.5841 1 16.6548 1 20C1 23.3452 1.25164 26.4159 1.57724 28.9899C2.23922 34.2229 6.53056 37.9592 11.7035 38.3877C15.5784 38.7087 20.5852 39 26 39C31.4148 39 36.4216 38.7087 40.2965 38.3877C45.4694 37.9592 49.7608 34.2229 50.4228 28.9899C50.7484 26.4159 51 23.3452 51 20C51 16.6548 50.7484 13.5841 50.4228 11.0101C49.7608 5.77712 45.4694 2.04084 40.2965 1.61228C36.4216 1.29127 31.4148 1 26 1C20.5852 1 15.5784 1.29127 11.7035 1.61228Z" stroke="#E6E6FA" stroke-width="2"/>
</svg>
