<svg width="52" height="40" viewBox="0 0 52 40" fill="none" xmlns="http://www.w3.org/2000/svg">
<mask id="mask0_1_40176" style="mask-type:alpha" maskUnits="userSpaceOnUse" x="2" y="2" width="48" height="36">
<path d="M2.56934 11.1356C3.16681 6.41247 7.0415 3.00193 11.7861 2.60887C15.6412 2.28949 20.6196 2 26 2C31.3804 2 36.3588 2.28949 40.2139 2.60887C44.9585 3.00193 48.8332 6.41247 49.4307 11.1356C49.752 13.6759 50 16.704 50 20C50 23.296 49.752 26.3241 49.4307 28.8644C48.8332 33.5875 44.9585 36.9981 40.2139 37.3911C36.3588 37.7105 31.3804 38 26 38C20.6196 38 15.6412 37.7105 11.7861 37.3911C7.0415 36.9981 3.16681 33.5875 2.56934 28.8644C2.248 26.3241 2 23.296 2 20C2 16.704 2.248 13.6759 2.56934 11.1356Z" fill="#00D0BF"/>
</mask>
<g mask="url(#mask0_1_40176)">
<rect x="2" y="2" width="48" height="36" fill="white"/>
<path d="M52 34.555C51.4173 34.9056 50.9168 35.7248 49.3688 35.7248C46.2738 35.7248 45.4999 34 43.1785 34C41.6309 34 40.8571 35.7248 39.3096 35.7248C36.2143 35.7248 35.4405 34 33.1191 34C31.5715 34 30.7976 35.7248 29.25 35.7248C26.1548 35.7248 25.3809 34 23.0596 34C21.5119 34 20.7381 35.7248 19.1905 35.7248C16.0953 35.7248 15.3215 34 13 34C11.4523 34 10.6785 35.7248 9.13094 35.7248C6.03573 35.7248 5.26188 34 2.94051 34C1.39282 34 0.928547 35.2291 0 35.2291V37.4496C0.928547 37.4496 1.39282 36.2206 2.94051 36.2206C5.26188 36.2206 6.03573 37.9453 9.13094 37.9453C10.6785 37.9453 11.4523 36.2206 13 36.2206C15.3214 36.2206 16.0953 37.9453 19.1905 37.9453C20.7381 37.9453 21.5119 36.2206 23.0596 36.2206C25.3809 36.2206 26.1548 37.9453 29.25 37.9453C30.7976 37.9453 31.5715 36.2206 33.1191 36.2206C35.4405 36.2206 36.2143 37.9453 39.3096 37.9453C40.8571 37.9453 41.6309 36.2206 43.1785 36.2206C45.4999 36.2206 46.2738 37.9453 49.3688 37.9453C50.9168 37.9453 51.4173 37.4565 52 37.106V34.555Z" fill="#2E50A6"/>
<path d="M52 28.555C51.4173 28.9056 50.9168 29.7248 49.3688 29.7248C46.2738 29.7248 45.4999 28 43.1785 28C41.6309 28 40.8571 29.7248 39.3096 29.7248C36.2143 29.7248 35.4405 28 33.1191 28C31.5715 28 30.7976 29.7248 29.25 29.7248C26.1548 29.7248 25.3809 28 23.0596 28C21.5119 28 20.7381 29.7248 19.1905 29.7248C16.0953 29.7248 15.3215 28 13 28C11.4523 28 10.6785 29.7248 9.13094 29.7248C6.03573 29.7248 5.26188 28 2.94051 28C1.39282 28 0.928547 29.2291 0 29.2291V31.4496C0.928547 31.4496 1.39282 30.2206 2.94051 30.2206C5.26188 30.2206 6.03573 31.9453 9.13094 31.9453C10.6785 31.9453 11.4523 30.2206 13 30.2206C15.3214 30.2206 16.0953 31.9453 19.1905 31.9453C20.7381 31.9453 21.5119 30.2206 23.0596 30.2206C25.3809 30.2206 26.1548 31.9453 29.25 31.9453C30.7976 31.9453 31.5715 30.2206 33.1191 30.2206C35.4405 30.2206 36.2143 31.9453 39.3096 31.9453C40.8571 31.9453 41.6309 30.2206 43.1785 30.2206C45.4999 30.2206 46.2738 31.9453 49.3688 31.9453C50.9168 31.9453 51.4173 31.4565 52 31.106V28.555Z" fill="#2E50A6"/>
<path d="M52 22.555C51.4173 22.9056 50.9168 23.7248 49.3688 23.7248C46.2738 23.7248 45.4999 22 43.1785 22C41.6309 22 40.8571 23.7248 39.3096 23.7248C36.2143 23.7248 35.4405 22 33.1191 22C31.5715 22 30.7976 23.7248 29.25 23.7248C26.1548 23.7248 25.3809 22 23.0596 22C21.5119 22 20.7381 23.7248 19.1905 23.7248C16.0953 23.7248 15.3215 22 13 22C11.4523 22 10.6785 23.7248 9.13094 23.7248C6.03573 23.7248 5.26188 22 2.94051 22C1.39282 22 0.928547 23.2291 0 23.2291V25.4496C0.928547 25.4496 1.39282 24.2206 2.94051 24.2206C5.26188 24.2206 6.03573 25.9453 9.13094 25.9453C10.6785 25.9453 11.4523 24.2206 13 24.2206C15.3214 24.2206 16.0953 25.9453 19.1905 25.9453C20.7381 25.9453 21.5119 24.2206 23.0596 24.2206C25.3809 24.2206 26.1548 25.9453 29.25 25.9453C30.7976 25.9453 31.5715 24.2206 33.1191 24.2206C35.4405 24.2206 36.2143 25.9453 39.3096 25.9453C40.8571 25.9453 41.6309 24.2206 43.1785 24.2206C45.4999 24.2206 46.2738 25.9453 49.3688 25.9453C50.9168 25.9453 51.4173 25.4565 52 25.106V22.555Z" fill="#2E50A6"/>
<path d="M52 16.555C51.4173 16.9056 50.9168 17.7248 49.3688 17.7248C46.2738 17.7248 45.4999 16 43.1785 16C41.6309 16 40.8571 17.7248 39.3096 17.7248C36.2143 17.7248 35.4405 16 33.1191 16C31.5715 16 30.7976 17.7248 29.25 17.7248C26.1548 17.7248 25.3809 16 23.0596 16C21.5119 16 20.7381 17.7248 19.1905 17.7248C16.0953 17.7248 15.3215 16 13 16C11.4523 16 10.6785 17.7248 9.13094 17.7248C6.03573 17.7248 5.26188 16 2.94051 16C1.39282 16 0.928547 17.2291 0 17.2291V19.4496C0.928547 19.4496 1.39282 18.2206 2.94051 18.2206C5.26188 18.2206 6.03573 19.9453 9.13094 19.9453C10.6785 19.9453 11.4523 18.2206 13 18.2206C15.3214 18.2206 16.0953 19.9453 19.1905 19.9453C20.7381 19.9453 21.5119 18.2206 23.0596 18.2206C25.3809 18.2206 26.1548 19.9453 29.25 19.9453C30.7976 19.9453 31.5715 18.2206 33.1191 18.2206C35.4405 18.2206 36.2143 19.9453 39.3096 19.9453C40.8571 19.9453 41.6309 18.2206 43.1785 18.2206C45.4999 18.2206 46.2738 19.9453 49.3688 19.9453C50.9168 19.9453 51.4173 19.4565 52 19.106V16.555Z" fill="#2E50A6"/>
<path d="M52 10.555C51.4173 10.9056 50.9168 11.7248 49.3688 11.7248C46.2738 11.7248 45.4999 10 43.1785 10C41.6309 10 40.8571 11.7248 39.3096 11.7248C36.2143 11.7248 35.4405 10 33.1191 10C31.5715 10 30.7976 11.7248 29.25 11.7248C26.1548 11.7248 25.3809 10 23.0596 10C21.5119 10 20.7381 11.7248 19.1905 11.7248C16.0953 11.7248 15.3215 10 13 10C11.4523 10 10.6785 11.7248 9.13094 11.7248C6.03573 11.7248 5.26188 10 2.94051 10C1.39282 10 0.928547 11.2291 0 11.2291V13.4496C0.928547 13.4496 1.39282 12.2206 2.94051 12.2206C5.26188 12.2206 6.03573 13.9453 9.13094 13.9453C10.6785 13.9453 11.4523 12.2206 13 12.2206C15.3214 12.2206 16.0953 13.9453 19.1905 13.9453C20.7381 13.9453 21.5119 12.2206 23.0596 12.2206C25.3809 12.2206 26.1548 13.9453 29.25 13.9453C30.7976 13.9453 31.5715 12.2206 33.1191 12.2206C35.4405 12.2206 36.2143 13.9453 39.3096 13.9453C40.8571 13.9453 41.6309 12.2206 43.1785 12.2206C45.4999 12.2206 46.2738 13.9453 49.3688 13.9453C50.9168 13.9453 51.4173 13.4565 52 13.106V10.555Z" fill="#2E50A6"/>
<path d="M52 4.55501C51.4173 4.90558 50.9168 5.72484 49.3688 5.72484C46.2738 5.72484 45.4999 4 43.1785 4C41.6309 4 40.8571 5.72484 39.3096 5.72484C36.2143 5.72484 35.4405 4 33.1191 4C31.5715 4 30.7976 5.72484 29.25 5.72484C26.1548 5.72484 25.3809 4 23.0596 4C21.5119 4 20.7381 5.72484 19.1905 5.72484C16.0953 5.72484 15.3215 4 13 4C11.4523 4 10.6785 5.72484 9.13094 5.72484C6.03573 5.72484 5.26188 4 2.94051 4C1.39282 4 0.928547 5.22911 0 5.22911V7.44959C0.928547 7.44959 1.39282 6.22057 2.94051 6.22057C5.26188 6.22057 6.03573 7.94533 9.13094 7.94533C10.6785 7.94533 11.4523 6.22057 13 6.22057C15.3214 6.22057 16.0953 7.94533 19.1905 7.94533C20.7381 7.94533 21.5119 6.22057 23.0596 6.22057C25.3809 6.22057 26.1548 7.94533 29.25 7.94533C30.7976 7.94533 31.5715 6.22057 33.1191 6.22057C35.4405 6.22057 36.2143 7.94533 39.3096 7.94533C40.8571 7.94533 41.6309 6.22057 43.1785 6.22057C45.4999 6.22057 46.2738 7.94533 49.3688 7.94533C50.9168 7.94533 51.4173 7.45653 52 7.10605V4.55501Z" fill="#2E50A6"/>
<path d="M37.8431 12.8555L37.6287 33.217C37.6287 34.2886 38.5977 34.2886 38.7004 33.217L38.4861 12.8555H37.8431Z" fill="#A24300" stroke="white" stroke-width="0.129297"/>
<path d="M40.1569 20.491L39.479 19.7141L39.3824 20.442L39.0301 19.3521L38.819 19.8725L38.6868 18.7299L38.4757 19.2503L38.3434 18.1077L38.1323 18.6281L37.8856 17.2781L37.6745 17.7985L37.4278 16.4485L37.2167 16.9689L36.97 15.6189L36.8466 14.9438L36.9522 14.6836L37.2866 14.8382L37.85 15.4077L38.9767 16.5465L38.3078 16.2373L39.4345 17.3761L38.7656 17.0669L39.8923 18.2057L39.2234 17.8965L40.2357 18.828L39.5668 18.5187L40.5791 19.4502L39.9101 19.141L40.7024 20.1252L39.9191 19.6086L40.1569 20.491Z" fill="#006D00" stroke="white" stroke-width="0.112423"/>
<path d="M40.0592 20.4221L37.0499 14.7525" stroke="black" stroke-width="0.0136271"/>
<path d="M39.1024 16.6035L37.4356 15.5094L37.2354 17.0574" stroke="black" stroke-width="0.0136271"/>
<path d="M39.5322 17.4134L37.8654 16.3194L37.6653 17.8674" stroke="black" stroke-width="0.0136271"/>
<path d="M39.9622 18.2233L38.2954 17.1293L38.0952 18.6773" stroke="black" stroke-width="0.0136271"/>
<path d="M40.2846 18.826L38.731 17.9416L38.4063 19.2848" stroke="black" stroke-width="0.0136271"/>
<path d="M40.607 19.4334L39.0534 18.549L38.7286 19.8922" stroke="black" stroke-width="0.0136271"/>
<path d="M40.685 20.0944L39.2664 18.9623L39.2995 20.4296" stroke="black" stroke-width="0.0136271"/>
<path d="M43.021 8.82215L41.9209 9.60122L41.8118 8.82489L41.111 9.93734L41.0419 9.42054L40.4516 10.5557L40.4214 10.0469L39.9416 11.2047L39.762 10.6652L39.2615 12.0701L39.0819 11.5306L38.5814 12.9355L38.4018 12.396L37.9014 13.801L37.6511 14.5034L37.7409 14.7732L38.1707 14.6102L38.9406 14.0146L40.4803 12.8233L39.6207 13.1492L41.1604 11.9579L40.3008 12.2838L41.8405 11.0925L40.9808 11.4184L42.4999 10.4741L41.4909 10.7693L43.1204 9.84776L42.1503 10.151L43.3707 9.1453L42.341 9.68756L43.021 8.82215Z" fill="#006D00" stroke="white" stroke-width="0.129542"/>
<path d="M42.5255 9.27625L40.9587 10.6833L37.8275 14.7317" stroke="black" stroke-width="0.015702"/>
<path d="M40.2457 12.9537L38.4424 13.8937L38.4052 12.5711" stroke="black" stroke-width="0.015702"/>
<path d="M40.9249 12.1107L39.095 13.0459L39.0578 11.7224" stroke="black" stroke-width="0.015702"/>
<path d="M41.5636 11.2596L39.7474 12.1969L39.7231 10.8769" stroke="black" stroke-width="0.015702"/>
<path d="M42.0932 10.6382L40.4078 11.3479L40.307 10.2655" stroke="black" stroke-width="0.015702"/>
<path d="M42.7037 10.0305L40.9011 10.7156L40.9192 9.65804" stroke="black" stroke-width="0.015702"/>
<path d="M42.934 9.46902L41.2685 10.3939L41.6829 9.08476" stroke="black" stroke-width="0.015702"/>
<path d="M30.6739 15.9403L32.144 14.7938L31.4381 14.4254L32.688 14.5993L32.2762 14.0016L33.482 14.4396L33.0701 13.8419L34.276 14.2798L33.8641 13.6821L35.3199 14.1548L34.9081 13.5571L36.3198 14.2939L35.908 13.6962L37.3637 14.169L38.0696 14.5374L38.2756 14.8363L37.9815 15.0656L37.1875 15.2253L35.8942 15.856L36.1436 15.3503L34.5557 15.6697L35.1437 15.2111L33.5117 15.7947L34.0998 15.3361L32.7177 15.9545L33.3498 15.2318L31.9238 16.1142L32.5559 15.3915L31.3798 16.3087L32.0559 15.322L30.6739 15.9403Z" fill="#006D00" stroke="white" stroke-width="0.117138"/>
<path d="M31.1234 15.6526L32.6373 14.8529L33.4355 14.6852L34.099 14.6389L35.2394 14.6603L36.2681 14.6586L38.3002 14.814" stroke="black" stroke-width="0.0141986"/>
<path d="M36.1203 15.6882L37.2509 14.9196L36.1558 14.0329" stroke="black" stroke-width="0.0141986"/>
<path d="M34.8466 15.5935L36.2353 14.7617L35.1422 13.8763" stroke="black" stroke-width="0.0141986"/>
<path d="M33.9285 15.568L35.2048 14.7155L34.0987 13.8973" stroke="black" stroke-width="0.0141986"/>
<path d="M32.2217 15.7707L33.4042 14.655L32.4989 14.1578" stroke="black" stroke-width="0.0141986"/>
<path d="M31.6919 15.8315L32.6144 14.7729L31.916 14.5253" stroke="black" stroke-width="0.0141986"/>
<path d="M33.0177 15.6569L34.1818 14.6469L33.2963 14.0354" stroke="black" stroke-width="0.0141986"/>
<path d="M45.3482 14.3901L44.0417 14.077L44.4814 13.3605L43.2383 13.6559L43.5335 13.1819L42.3543 13.5898L42.672 13.1554L41.5566 13.6758L41.7879 13.0893L40.493 13.7904L40.7243 13.204L39.4294 13.9051L39.6608 13.3186L38.3658 14.0197L37.7183 14.3703L37.6026 14.6635L38.0188 14.8994L38.9667 15.078L40.8625 15.4351L40.0303 14.9633L41.9261 15.3205L41.0938 14.8487L42.9897 15.2058L42.1574 14.734L43.8737 15.2719L42.9551 14.648L44.7352 15.2984L43.8391 14.7141L45.3827 14.9479L44.2846 14.5047L45.3482 14.3901Z" fill="#006D00" stroke="white" stroke-width="0.129542"/>
<path d="M44.7559 14.339L42.6533 14.0763L37.6096 14.674" stroke="black" stroke-width="0.015702"/>
<path d="M40.5108 15.311L38.6669 14.6L39.4852 13.6017" stroke="black" stroke-width="0.015702"/>
<path d="M41.5867 15.1961L39.7283 14.4612L40.5466 13.4632" stroke="black" stroke-width="0.015702"/>
<path d="M42.6408 15.0459L40.7896 14.3229L41.6152 13.3366" stroke="black" stroke-width="0.015702"/>
<path d="M43.4587 14.9706L41.8518 14.1866L42.4677 13.3256" stroke="black" stroke-width="0.015702"/>
<path d="M44.3202 14.9728L42.6482 14.0809L43.3301 13.3293" stroke="black" stroke-width="0.015702"/>
<path d="M44.8932 14.7392L43.1339 14.1146L44.2704 13.4597" stroke="black" stroke-width="0.015702"/>
<path d="M32.3646 9.60449L34.0445 10.135L33.8614 9.33696L34.5102 10.4671L34.6631 9.77517L35.1058 11.0252L35.2586 10.3333L35.7013 11.5834L35.8542 10.8915L36.4266 12.3676L36.5795 11.6757L36.9456 13.2717L37.0985 12.5798L37.6709 14.0559L37.854 14.8539L37.7776 15.1999L37.4416 15.0938L36.846 14.5356L35.6246 13.8455L36.1208 13.7514L34.9298 12.6351L35.6017 12.8473L34.2045 11.851L34.8764 12.0631L33.6089 11.2928L34.4871 11.3851L33.0134 10.7346L33.8916 10.8269L32.5477 10.4025L33.6321 10.3748L32.3646 9.60449Z" fill="#006D00" stroke="white" stroke-width="0.117138"/>
<path d="M32.8678 9.81482L34.3056 10.5964L34.8985 11.1518L35.3309 11.666L36.0084 12.6068L36.6332 13.4436L37.7642 15.1862" stroke="black" stroke-width="0.0141986"/>
<path d="M35.9013 13.8309L37.1738 14.312L37.115 12.813" stroke="black" stroke-width="0.0141986"/>
<path d="M35.162 12.7664L36.6476 13.4305L36.5887 11.9299" stroke="black" stroke-width="0.0141986"/>
<path d="M34.5979 12.0529L36.0246 12.6062L35.9093 11.1397" stroke="black" stroke-width="0.0141986"/>
<path d="M33.3473 10.8653L34.9153 11.1761L34.6943 10.0741" stroke="black" stroke-width="0.0141986"/>
<path d="M32.9555 10.5085L34.319 10.6321L34.0488 9.86582" stroke="black" stroke-width="0.0141986"/>
<path d="M33.9417 11.4066L35.4216 11.7692L35.2962 10.611" stroke="black" stroke-width="0.0141986"/>
<path d="M32.4351 18.1467L33.4179 17.927L33.0948 18.6128L33.9846 17.9118L33.8696 18.4953L34.6088 17.605L34.4938 18.1884L35.2331 17.2981L35.118 17.8816L36.0654 16.8889L35.9503 17.4724L36.8977 16.4798L36.7826 17.0632L37.73 16.0706L38.2037 15.5743L38.2613 15.2825L37.9026 15.1954L37.1278 15.3128L35.5783 15.5477L36.2955 15.722L34.746 15.9568L35.4632 16.1311L33.9137 16.366L34.6309 16.5403L33.2895 16.6729L34.0067 16.8472L32.6652 16.9798L33.3825 17.1541L32.1916 17.4761L33.1169 17.5481L32.4351 18.1467Z" fill="#006D00" stroke="white" stroke-width="0.112423"/>
<path d="M32.4521 18.0977L38.2443 15.3316" stroke="black" stroke-width="0.013627"/>
<path d="M35.5565 15.5568L37.4269 15.7046L36.7744 17.1263" stroke="black" stroke-width="0.013627"/>
<path d="M34.729 15.952L36.5995 16.0998L35.9469 17.5215" stroke="black" stroke-width="0.013627"/>
<path d="M33.9016 16.3472L35.772 16.495L35.1195 17.9167" stroke="black" stroke-width="0.013627"/>
<path d="M33.2809 16.6381L34.9437 16.8928L34.5007 18.213" stroke="black" stroke-width="0.013627"/>
<path d="M32.6604 16.9344L34.3231 17.1892L33.8802 18.5094" stroke="black" stroke-width="0.013627"/>
<path d="M32.1946 17.434L33.9088 17.3861L33.1059 18.604" stroke="black" stroke-width="0.013627"/>
<path d="M36.9028 6.79781L37.3106 8.04956L37.9571 7.48964L37.7794 8.78081L38.2067 8.40606L37.9164 9.65241L38.304 9.2619L37.9011 10.4635L38.441 10.1335L37.8808 11.5448L38.4207 11.2149L37.8604 12.6262L38.4003 12.2963L37.84 13.7076L37.5599 14.4133L37.29 14.5783L37.0302 14.2025L36.7806 13.2861L36.2815 11.4533L36.801 12.2047L36.3018 10.3719L36.8213 11.1233L36.3222 9.29052L36.8417 10.042L36.1852 8.41891L36.857 9.23092L36.0879 7.56307L36.72 8.35932L36.368 6.8574L36.8824 7.87919L36.9028 6.79781Z" fill="#006D00" stroke="white" stroke-width="0.129542"/>
<path d="M37.0622 7.40143L37.3775 9.45636L37.238 14.5434" stroke="black" stroke-width="0.015702"/>
<path d="M36.506 11.7501L37.3888 13.5044L38.3199 12.4643" stroke="black" stroke-width="0.015702"/>
<path d="M36.4613 10.669L37.3696 12.4342L38.3007 11.3933" stroke="black" stroke-width="0.015702"/>
<path d="M36.4549 9.60431L37.3504 11.3636L38.2688 10.3184" stroke="black" stroke-width="0.015702"/>
<path d="M36.398 8.78534L37.336 10.2893L38.1493 9.4767" stroke="black" stroke-width="0.015702"/>
<path d="M36.269 7.93353L37.3219 9.48278L38.0188 8.62426" stroke="black" stroke-width="0.015702"/>
<path d="M36.4243 7.33522L37.205 9.00417L37.758 7.72397" stroke="black" stroke-width="0.015702"/>
<path d="M42.7452 19.8879L42.2158 18.1764L43.0188 18.2719L41.8827 17.7246L42.5798 17.4779L41.3224 17.1634L42.0196 16.9167L40.7621 16.6021L41.4592 16.3554L39.9746 15.9314L40.6717 15.6847L39.0658 15.4936L39.7629 15.2468L38.2783 14.8229L37.4753 14.7273L37.1267 14.8506L37.2326 15.193L37.7929 15.7542L38.4843 16.9612L38.5804 16.4249L39.701 17.5474L39.4893 16.8628L40.4885 18.2181L40.2768 17.5335L41.0488 18.7793L40.9584 17.8619L41.6091 19.3405L41.5187 18.4231L41.9422 19.7923L41.9731 18.6421L42.7452 19.8879Z" fill="#006D00" stroke="white" stroke-width="0.117138"/>
<path d="M42.5579 19.4152L41.7681 17.9608L41.2057 17.3904L40.6848 16.9882L39.7313 16.375L38.8832 15.8055L37.1166 14.8034" stroke="black" stroke-width="0.0141986"/>
<path d="M38.4305 16.6098L37.9637 15.3781L39.4294 15.263" stroke="black" stroke-width="0.0141986"/>
<path d="M39.5184 17.279L38.8744 15.8558L40.3391 15.7408" stroke="black" stroke-width="0.0141986"/>
<path d="M40.2679 17.8107L39.7312 16.4324L41.1641 16.3783" stroke="black" stroke-width="0.0141986"/>
<path d="M41.5203 18.9907L41.2229 17.451L42.2924 17.5459" stroke="black" stroke-width="0.0141986"/>
<path d="M41.909 19.3627L41.7931 18.0101L42.5347 18.1927" stroke="black" stroke-width="0.0141986"/>
<path d="M40.9482 18.4256L40.6003 16.9807L41.7245 16.9731" stroke="black" stroke-width="0.0141986"/>
<path d="M35.7315 27.1515L38.2283 26.7035L40.8291 27.1515L39.6223 27.6532L37.396 27.6891L35.7315 27.1515Z" fill="#9D9D9D" stroke="black" stroke-width="0.0255414"/>
<path d="M38.2473 23.1168C37.8109 23.2685 37.3274 22.9033 36.5405 23.4993C36.5405 23.4993 35.1685 22.9124 35.0643 24.2688C35.0601 24.3238 35.2815 24.6546 35.3123 24.6309C35.4847 24.4986 35.2304 24.7595 35.2304 24.7972C35.2304 24.8352 35.2557 24.8563 35.2643 24.873C35.2727 24.8899 35.2937 24.9152 35.298 24.9869C35.3021 25.0586 35.1424 25.2541 35.2099 25.3257C35.2772 25.3974 35.2814 25.604 35.2814 25.663C35.2814 25.7219 35.3236 25.8864 35.3531 25.9202C35.3826 25.9539 35.4332 26.0381 35.4332 26.1098C35.4332 26.1815 35.4626 26.3796 35.4499 26.43C35.4373 26.4806 35.5258 26.5439 35.606 26.5691C35.686 26.5944 36.7192 26.6124 38.1693 26.5871C39.6195 26.5618 40.1034 26.7912 40.7025 26.5733C40.7951 26.5397 40.812 26.4638 40.8037 26.4216C40.7951 26.3796 40.8037 26.2448 40.829 26.2109C40.8542 26.1773 41.0229 25.9075 40.989 25.8569C41.0209 25.8282 41.2574 25.9935 41.1067 25.8459C41.0681 25.808 41.1284 25.4096 41.1491 25.3257C41.1701 25.2416 41.2022 25.0838 41.2409 25.0544C41.2797 25.0251 41.1751 24.9154 41.1825 24.8956C41.19 24.8756 41.2182 24.8138 41.2575 24.7856C41.2575 24.7856 41.3306 24.4428 41.2856 24.2743C41.2408 24.1057 41.076 23.3474 40.0475 23.4993C40.0475 23.4993 38.6706 22.9697 38.2473 23.1168Z" fill="#C8102E" stroke="black" stroke-width="0.0412767"/>
<path d="M36.4302 23.9698C36.3695 23.992 36.3455 24.5793 36.4116 24.7714C36.4573 24.9045 36.508 24.9951 36.5374 25.0507C36.4779 24.9577 36.3453 24.7788 36.2091 24.7874C36.0379 24.7982 36.1235 25.4115 36.1346 25.4506C36.1347 25.4507 36.1347 25.4511 36.1348 25.4512C36.1348 25.4513 36.1352 25.4517 36.1353 25.4518C36.1353 25.4518 36.1356 25.4518 36.1356 25.4518C36.1408 25.4367 36.1655 25.1794 36.3349 25.1687C36.4463 25.1617 36.5585 25.3 36.6012 25.3592C36.6046 25.3785 36.6082 25.3971 36.6116 25.416C36.5967 25.4753 36.6048 25.6133 36.5576 25.7905C36.5006 26.0047 36.2175 26.0442 36.1696 26.0493L36.7903 26.0102C36.7909 26.0101 36.7917 26.0102 36.7923 26.0101C36.7925 26.0101 36.7928 26.01 36.793 26.01C36.7936 26.01 36.7944 26.0099 36.795 26.0099L37.4157 25.9707C37.3671 25.9717 37.071 25.9688 36.9406 25.7664C36.8327 25.5989 36.798 25.4626 36.7628 25.4064C36.7595 25.3875 36.7565 25.3689 36.7531 25.3496C36.7743 25.2864 36.8358 25.1371 36.9473 25.1301C37.1167 25.1194 37.2305 25.368 37.2407 25.3821C37.2408 25.3821 37.2411 25.382 37.2411 25.3821C37.2411 25.382 37.2414 25.3815 37.2414 25.3814C37.2414 25.3813 37.2413 25.3809 37.2413 25.3807C37.2386 25.3411 37.1087 24.7307 36.9375 24.7415C36.8013 24.7501 36.7339 24.9416 36.7081 25.04C36.7175 24.9818 36.731 24.8614 36.7297 24.7514C36.7274 24.552 36.4971 23.9657 36.4333 23.9696C36.4323 23.9697 36.4311 23.9695 36.4302 23.9698ZM36.5396 25.0545C36.5458 25.0642 36.5512 25.0726 36.5556 25.0799C36.5557 25.0801 36.5731 25.1403 36.5732 25.1405C36.5734 25.1418 36.6428 25.3465 36.6429 25.3478C36.6382 25.34 36.5461 25.0665 36.5396 25.0545ZM36.7072 25.0439C36.7051 25.0564 36.7075 25.3356 36.7056 25.3439C36.7053 25.3425 36.7009 25.0727 36.7006 25.0714C36.7006 25.0712 36.7058 25.1323 36.7057 25.1321C36.7075 25.1244 36.7046 25.0542 36.7072 25.0439Z" fill="#F7D917" stroke="black" stroke-width="0.0206379"/>
<path d="M36.5492 25.345C36.5492 25.345 36.5947 25.3028 36.6471 25.2996C36.6996 25.2963 36.7591 25.3321 36.7591 25.3321L36.7777 25.436C36.7777 25.436 36.7182 25.4002 36.6658 25.4035C36.6133 25.4067 36.5678 25.4489 36.5678 25.4489L36.5492 25.345Z" fill="#F7D917" stroke="black" stroke-width="0.0206379"/>
<path d="M35.2451 24.9861L35.5117 24.661C35.5117 24.661 35.5365 24.6932 35.5117 24.661C34.9651 23.9545 34.9375 23.5491 34.999 23.3439C35.0605 23.1386 35.1836 22.9162 35.5117 22.6425C35.8398 22.3688 36.0662 22.5209 36.3738 22.5209C36.6814 22.5209 36.7635 22.5893 37.03 22.6236C37.2966 22.6578 38.0144 22.692 38.0144 22.692V22.5038C38.0144 22.5038 38.0427 22.5091 38.0144 22.5038C37.6975 22.4447 37.2966 22.5038 37.03 22.4354C36.7635 22.367 36.5379 22.3499 36.2508 22.3499C35.9637 22.3499 35.7578 22.2661 35.5732 22.3859C35.3886 22.5056 35.163 22.7109 34.999 22.882C34.8349 23.0531 34.7529 23.3952 34.7734 23.6175C34.7939 23.8399 34.876 24.0281 34.999 24.1992C35.1221 24.3702 35.1015 24.5071 35.1426 24.6268C35.1836 24.7466 35.2451 25.0031 35.2451 24.9861Z" fill="#F7D917" stroke="black" stroke-width="0.0196712"/>
<path d="M41.1588 24.9861L40.8922 24.661C40.8673 24.6932 40.8922 24.661 40.8922 24.661C41.4387 23.9545 41.4664 23.5491 41.4048 23.3439C41.3433 23.1386 41.2203 22.9162 40.8922 22.6425C40.5641 22.3688 40.3376 22.5209 40.03 22.5209C39.7224 22.5209 39.6404 22.5893 39.3738 22.6236C39.1072 22.6578 38.3895 22.692 38.3895 22.692V22.5038C38.3612 22.5091 38.3895 22.5038 38.3895 22.5038C38.7064 22.4447 39.1072 22.5038 39.3738 22.4354C39.6404 22.367 39.866 22.3499 40.1531 22.3499C40.4402 22.3499 40.6461 22.2661 40.8307 22.3859C41.0152 22.5056 41.2408 22.7109 41.4048 22.882C41.5689 23.0531 41.6509 23.3952 41.6304 23.6175C41.6099 23.8399 41.5279 24.0281 41.4048 24.1992C41.2818 24.3702 41.3023 24.5071 41.2613 24.6268C41.2203 24.7466 41.1588 25.0031 41.1588 24.9861Z" fill="#F7D917" stroke="black" stroke-width="0.0196712"/>
<path d="M37.7554 22.3488H38.7063V24.2992H37.7554V22.3488Z" fill="#F7D917" stroke="black" stroke-width="0.0229727"/>
<path d="M37.8695 20.6293C37.8695 20.6293 37.9719 20.7126 38.0504 20.8197C38.129 20.9268 38.1837 21.0577 38.1837 21.0577C38.1837 21.0577 38.0528 21.003 37.9457 20.9244C37.8386 20.8459 37.7552 20.7435 37.7552 20.7435V21.4672C37.7552 21.4672 37.8386 21.3648 37.9457 21.2863C38.0528 21.2077 38.1837 21.1529 38.1837 21.1529C38.1837 21.1529 38.1415 21.261 38.1143 21.391C38.0898 21.5079 37.8892 21.7779 37.8892 21.7779L38.4752 21.8172C38.4752 21.8172 38.3778 21.5079 38.3385 21.391C38.2963 21.2651 38.2789 21.1529 38.2789 21.1529C38.2789 21.1529 38.4098 21.2077 38.517 21.2863C38.6241 21.3648 38.7074 21.4672 38.7074 21.4672V20.7435C38.7074 20.7435 38.6241 20.8459 38.517 20.9244C38.4098 21.003 38.2789 21.0577 38.2789 21.0577C38.2789 21.0577 38.3337 20.9268 38.4122 20.8197C38.4908 20.7126 38.5931 20.6293 38.5931 20.6293H37.8695Z" fill="#F7D917" stroke="black" stroke-width="0.0137561"/>
<path d="M38.7026 21.9189C38.7026 22.044 38.6529 22.164 38.5644 22.2524C38.476 22.3409 38.356 22.3905 38.2309 22.3905C38.1058 22.3905 37.9859 22.3409 37.8974 22.2524C37.809 22.164 37.7593 22.044 37.7593 21.9189C37.7593 21.7938 37.809 21.6739 37.8974 21.5854C37.9859 21.497 38.1058 21.4473 38.2309 21.4473C38.356 21.4473 38.476 21.497 38.5644 21.5854C38.6529 21.6739 38.7026 21.7938 38.7026 21.9189Z" fill="#F7D917" stroke="black" stroke-width="0.0137561"/>
<path d="M37.7698 21.9866H38.708C38.708 21.9866 38.7216 21.8051 38.6537 21.7372C38.5883 21.7372 38.3622 21.7372 38.3622 21.7372L38.3573 21.4651H38.2488H38.081L38.0761 21.7372C38.0761 21.7372 37.88 21.747 37.7897 21.747C37.7487 21.8582 37.755 21.8675 37.755 21.8675L37.7698 21.9866Z" fill="#F7D917" stroke="black" stroke-width="0.0137561"/>
<path d="M37.6268 24.2339C37.6268 24.2339 37.7977 24.373 37.9289 24.5518C38.06 24.7307 38.1514 24.9493 38.1514 24.9493C38.1514 24.9493 37.9328 24.8579 37.754 24.7267C37.5751 24.5956 37.436 24.4247 37.436 24.4247V25.6329C37.436 25.6329 37.5751 25.462 37.754 25.3308C37.9328 25.1997 38.1514 25.1083 38.1514 25.1083C38.1514 25.1083 38.06 25.3269 37.9289 25.5057C37.7977 25.6846 37.6268 25.8237 37.6268 25.8237H38.835C38.835 25.8237 38.6641 25.6846 38.533 25.5057C38.4018 25.3269 38.3104 25.1083 38.3104 25.1083C38.3104 25.1083 38.529 25.1997 38.7078 25.3308C38.8867 25.462 39.0258 25.6329 39.0258 25.6329V24.4247C39.0258 24.4247 38.8867 24.5956 38.7078 24.7267C38.529 24.8579 38.3104 24.9493 38.3104 24.9493C38.3104 24.9493 38.4018 24.7307 38.533 24.5518C38.6641 24.373 38.835 24.2339 38.835 24.2339H37.6268Z" fill="#F7D917" stroke="black" stroke-width="0.0206342"/>
<path d="M35.3257 26.2852L35.9207 26.1803C35.9207 26.1803 35.7282 26.0729 35.568 25.9196C35.4078 25.7662 35.2798 25.5668 35.2798 25.5668C35.2798 25.5668 35.511 25.6189 35.7099 25.717C35.9088 25.8151 36.0754 25.9593 36.0754 25.9593L35.8656 24.7694C35.8656 24.7694 35.7583 24.9618 35.605 25.1221C35.4516 25.2823 35.2522 25.4102 35.2522 25.4102C35.2522 25.4102 35.3043 25.1791 35.4024 24.9802C35.5005 24.7813 35.6446 24.6146 35.6446 24.6146L35.0497 24.7195L35.3257 26.2852Z" fill="#F7D917" stroke="black" stroke-width="0.0206342"/>
<path d="M40.8172 24.6146C40.8172 24.6146 40.9613 24.7813 41.0594 24.9802C41.1575 25.1791 41.2096 25.4102 41.2096 25.4102C41.2096 25.4102 41.0102 25.2823 40.8568 25.1221C40.7035 24.9618 40.5962 24.7694 40.5962 24.7694L40.3864 25.9593C40.3864 25.9593 40.553 25.8151 40.7519 25.717C40.9508 25.6189 41.182 25.5668 41.182 25.5668C41.182 25.5668 41.054 25.7662 40.8938 25.9196C40.7336 26.0729 40.5411 26.1803 40.5411 26.1803L41.1361 26.2852L41.4121 24.7195L40.8172 24.6146Z" fill="#F7D917" stroke="black" stroke-width="0.0206342"/>
<path d="M35.3319 26.2234L35.336 27.0902C35.336 27.0902 36.7845 26.5969 38.233 26.5969C39.6814 26.5969 41.1299 27.0902 41.1299 27.0902V26.2234C41.1299 26.2234 39.6804 25.7301 38.2309 25.7301C36.7814 25.7301 35.3319 26.2234 35.3319 26.2234Z" fill="#F7D917" stroke="black" stroke-width="0.0206342"/>
<path d="M35.1976 24.5246C35.1979 24.5537 35.1924 24.5826 35.1814 24.6096C35.1705 24.6366 35.1543 24.6611 35.1338 24.6818C35.1133 24.7025 35.0889 24.7189 35.062 24.7301C35.0351 24.7413 35.0062 24.7471 34.9771 24.7471C34.948 24.7471 34.9191 24.7413 34.8923 24.7301C34.8654 24.7189 34.841 24.7025 34.8205 24.6818C34.8 24.6611 34.7838 24.6366 34.7728 24.6096C34.7618 24.5826 34.7563 24.5537 34.7566 24.5246C34.7563 24.4955 34.7618 24.4666 34.7728 24.4396C34.7838 24.4126 34.8 24.3881 34.8205 24.3674C34.841 24.3467 34.8654 24.3302 34.8923 24.319C34.9191 24.3078 34.948 24.3021 34.9771 24.3021C35.0062 24.3021 35.0351 24.3078 35.062 24.319C35.0889 24.3302 35.1133 24.3467 35.1338 24.3674C35.1543 24.3881 35.1705 24.4126 35.1814 24.4396C35.1924 24.4666 35.1979 24.4955 35.1976 24.5246Z" fill="white" stroke="black" stroke-width="0.018192"/>
<path d="M38.5137 24.9787C38.5137 25.0542 38.4837 25.1267 38.4303 25.1802C38.3768 25.2336 38.3044 25.2636 38.2288 25.2636C38.1532 25.2636 38.0807 25.2336 38.0273 25.1802C37.9739 25.1267 37.9438 25.0542 37.9438 24.9787C37.9438 24.9031 37.9739 24.8306 38.0273 24.7772C38.0807 24.7237 38.1532 24.6937 38.2288 24.6937C38.3044 24.6937 38.3768 24.7237 38.4303 24.7772C38.4837 24.8306 38.5137 24.9031 38.5137 24.9787Z" fill="white" stroke="black" stroke-width="0.0275122"/>
<path d="M37.8165 25.9459H38.6974V26.3299H37.8165V25.9459Z" fill="#012169" stroke="black" stroke-width="0.0213098"/>
<path d="M39.2193 26.2302C39.2207 26.2853 39.2636 26.3423 39.3387 26.3888C39.4137 26.4352 39.5148 26.4673 39.6196 26.4779C39.7244 26.4886 39.8243 26.4769 39.8975 26.4455C39.9706 26.4141 40.0109 26.3655 40.0096 26.3104C40.0082 26.2553 39.9652 26.1983 39.8902 26.1518C39.8151 26.1054 39.7141 26.0733 39.6093 26.0627C39.5045 26.052 39.4045 26.0637 39.3314 26.0951C39.2582 26.1266 39.2179 26.1751 39.2193 26.2302Z" fill="#3E8225" stroke="black" stroke-width="0.0307138"/>
<path d="M35.3371 26.4322L35.1164 26.6528L35.3723 26.8006L35.9676 26.6411L35.8615 26.304L35.3371 26.4322Z" fill="#C8102E" stroke="black" stroke-width="0.0275178"/>
<path d="M41.1768 26.4322L41.3975 26.6528L41.1415 26.8006L40.5463 26.6411L40.6524 26.304L41.1768 26.4322Z" fill="#C8102E" stroke="black" stroke-width="0.0275178"/>
<path d="M37.2946 26.2302C37.2933 26.2853 37.2503 26.3423 37.1752 26.3888C37.1002 26.4352 36.9991 26.4673 36.8943 26.4779C36.7895 26.4886 36.6896 26.4769 36.6164 26.4455C36.5433 26.4141 36.503 26.3655 36.5044 26.3104C36.5057 26.2553 36.5487 26.1983 36.6237 26.1518C36.6988 26.1054 36.7999 26.0733 36.9047 26.0627C37.0095 26.052 37.1094 26.0637 37.1825 26.0951C37.2557 26.1266 37.296 26.1751 37.2946 26.2302Z" fill="#3E8225" stroke="black" stroke-width="0.0307138"/>
<path d="M37.626 25.9746C37.626 26.0034 37.6146 26.0309 37.5943 26.0513C37.574 26.0716 37.5464 26.083 37.5176 26.083C37.4889 26.083 37.4613 26.0716 37.441 26.0513C37.4207 26.0309 37.4092 26.0034 37.4092 25.9746C37.4092 25.9459 37.4207 25.9183 37.441 25.898C37.4613 25.8776 37.4889 25.8662 37.5176 25.8662C37.5464 25.8662 37.574 25.8776 37.5943 25.898C37.6146 25.9183 37.626 25.9459 37.626 25.9746Z" fill="white" stroke="black" stroke-width="0.0253387"/>
<path d="M40.4454 27.7325C40.5282 27.7181 41.0276 27.5994 41.1328 27.5358C41.0649 27.4135 40.9431 27.3178 41.0379 27.358C41.0889 27.3797 41.1293 27.2111 40.9812 27.0822C40.5511 27.2233 39.5196 27.481 38.2236 27.481C36.8972 27.481 35.8528 27.2097 35.4228 27.0687C35.2746 27.1975 35.3208 27.3439 35.3118 27.3986C35.3118 27.3991 35.3119 27.4677 35.3389 27.5223C35.4847 27.6807 35.957 27.7587 36.0398 27.7731C36.4288 27.8407 36.8179 27.9428 38.2227 27.9428C39.5223 27.9428 40.0564 27.8 40.4454 27.7325Z" fill="white" stroke="black" stroke-width="0.0434305"/>
<path d="M35.9966 26.8402C35.9138 26.8546 35.3873 27.0411 35.2822 27.1046C35.2823 27.105 35.2821 27.1059 35.2822 27.1063C35.2911 27.161 35.1908 27.4159 35.3389 27.5447C35.769 27.4037 36.9766 26.9833 38.2726 26.9833C39.599 26.9833 40.6976 27.4037 41.1276 27.5447C41.2758 27.4159 41.1754 27.161 41.1844 27.1063C41.1845 27.1059 41.1843 27.105 41.1844 27.1046C41.0792 27.0411 40.5527 26.8546 40.4699 26.8402C40.0809 26.7727 39.6784 26.5215 38.2735 26.5215C36.9739 26.5215 36.3856 26.7727 35.9966 26.8402Z" fill="white" stroke="black" stroke-width="0.0434143"/>
<path d="M35.6152 27.1577C35.6163 27.1623 35.6164 27.1669 35.6157 27.1712C35.615 27.1755 35.6134 27.1795 35.6111 27.183C35.6087 27.1864 35.6056 27.1893 35.602 27.1913C35.5983 27.1933 35.5942 27.1945 35.5899 27.1948C35.5856 27.1951 35.5811 27.1945 35.5767 27.193C35.5724 27.1915 35.5682 27.1891 35.5645 27.1861C35.5608 27.183 35.5576 27.1793 35.5552 27.1752C35.5527 27.1711 35.551 27.1666 35.5502 27.1621C35.5491 27.1576 35.549 27.153 35.5497 27.1486C35.5504 27.1443 35.552 27.1403 35.5544 27.1368C35.5567 27.1334 35.5598 27.1306 35.5634 27.1285C35.5671 27.1265 35.5712 27.1253 35.5755 27.125C35.5798 27.1247 35.5843 27.1254 35.5887 27.1269C35.5931 27.1284 35.5972 27.1307 35.6009 27.1337C35.6046 27.1368 35.6078 27.1405 35.6102 27.1446C35.6127 27.1487 35.6144 27.1532 35.6152 27.1577Z" fill="black" stroke="black" stroke-width="0.0183271"/>
<path d="M35.5943 27.2322L35.89 27.0899L35.7503 27.1915L35.8495 27.1813L35.7646 27.2321L35.9149 27.232L35.5943 27.2322Z" fill="black" stroke="black" stroke-width="0.0366835"/>
<mask id="mask1_1_40176" style="mask-type:alpha" maskUnits="userSpaceOnUse" x="2" y="2" width="24" height="18">
<rect x="2" y="2" width="24" height="18" fill="#C4C4C4"/>
</mask>
<g mask="url(#mask1_1_40176)">
<rect x="2" y="2" width="24" height="18" fill="#2E50A6"/>
<path d="M2 2L26 20L2 2ZM26 2L2 20L26 2Z" fill="black"/>
<path d="M26 2L2 20M2 2L26 20L2 2Z" stroke="white" stroke-width="2.4"/>
<path d="M2 2L26 20L2 2ZM26 2L2 20L26 2Z" fill="black"/>
<path d="M26 2L2 20M2 2L26 20L2 2Z" stroke="#EE5757" stroke-width="1.6"/>
<path d="M14 2V23V2ZM2 11H30H2Z" fill="black"/>
<path d="M2 11H30M14 2V23V2Z" stroke="white" stroke-width="4"/>
<path d="M14 2V23V2ZM2 11H30H2Z" fill="black"/>
<path d="M2 11H30M14 2V23V2Z" stroke="#EE5757" stroke-width="2.4"/>
</g>
</g>
<path d="M11.7035 1.61228C6.53056 2.04084 2.23921 5.77712 1.57724 11.0101C1.25164 13.5841 1 16.6548 1 20C1 23.3452 1.25164 26.4159 1.57724 28.9899C2.23922 34.2229 6.53056 37.9592 11.7035 38.3877C15.5784 38.7087 20.5852 39 26 39C31.4148 39 36.4216 38.7087 40.2965 38.3877C45.4694 37.9592 49.7608 34.2229 50.4228 28.9899C50.7484 26.4159 51 23.3452 51 20C51 16.6548 50.7484 13.5841 50.4228 11.0101C49.7608 5.77712 45.4694 2.04084 40.2965 1.61228C36.4216 1.29127 31.4148 1 26 1C20.5852 1 15.5784 1.29127 11.7035 1.61228Z" stroke="#E6E6FA" stroke-width="2"/>
</svg>
