<svg width="52" height="40" viewBox="0 0 52 40" fill="none" xmlns="http://www.w3.org/2000/svg">
<mask id="mask0_1_33301" style="mask-type:alpha" maskUnits="userSpaceOnUse" x="2" y="2" width="48" height="36">
<path d="M2.56934 11.1356C3.16681 6.41247 7.0415 3.00193 11.7861 2.60887C15.6412 2.28949 20.6196 2 26 2C31.3804 2 36.3588 2.28949 40.2139 2.60887C44.9585 3.00193 48.8332 6.41247 49.4307 11.1356C49.752 13.6759 50 16.704 50 20C50 23.296 49.752 26.3241 49.4307 28.8644C48.8332 33.5875 44.9585 36.9981 40.2139 37.3911C36.3588 37.7105 31.3804 38 26 38C20.6196 38 15.6412 37.7105 11.7861 37.3911C7.0415 36.9981 3.16681 33.5875 2.56934 28.8644C2.248 26.3241 2 23.296 2 20C2 16.704 2.248 13.6759 2.56934 11.1356Z" fill="#00D0BF"/>
</mask>
<g mask="url(#mask0_1_33301)">
<rect x="2" y="26" width="48" height="12" fill="#EE5757"/>
<rect x="2" y="14" width="48" height="12" fill="white"/>
<path d="M23.8073 23.2023C24.609 23.4628 25.4761 23.4376 26.2612 23.1311C27.0464 22.8246 27.7013 22.2557 28.1145 21.521C28.5277 20.7864 28.6737 19.9313 28.5278 19.1011C28.3819 18.271 27.9531 17.5169 27.3141 16.9672C27.7299 17.5824 27.9662 18.3011 27.9966 19.043C28.027 19.7849 27.8504 20.5206 27.4864 21.1678C27.1224 21.8149 26.5854 22.348 25.9357 22.7073C25.2859 23.0667 24.549 23.238 23.8073 23.2023Z" fill="#EE5757"/>
<path d="M28.1926 23.2023C27.3909 23.4628 26.5238 23.4376 25.7386 23.1311C24.9534 22.8246 24.2986 22.2557 23.8854 21.521C23.4722 20.7864 23.3261 19.9313 23.472 19.1011C23.6179 18.271 24.0468 17.5169 24.6857 16.9672C24.27 17.5824 24.0337 18.3011 24.0033 19.043C23.9729 19.7849 24.1495 20.5206 24.5135 21.1678C24.8775 21.8149 25.4144 22.348 26.0642 22.7073C26.714 23.0667 27.4509 23.238 28.1926 23.2023Z" fill="#EE5757"/>
<path d="M28.4733 22.5024C29.0002 22.1979 29.4241 21.743 29.6908 21.1961C29.9575 20.6491 30.0549 20.0349 29.9704 19.4323C29.8858 18.8297 29.6233 18.266 29.2164 17.8135C28.8095 17.361 28.2768 17.0403 27.6865 16.8925C28.1071 17.2087 28.4612 17.6048 28.7285 18.0582C28.9958 18.5115 29.171 19.013 29.2441 19.5342C29.3171 20.0553 29.2867 20.5857 29.1544 21.0951C29.0222 21.6044 28.7907 22.0827 28.4733 22.5024Z" fill="#EE5757"/>
<path d="M23.5266 22.5024C22.9997 22.1979 22.5758 21.743 22.309 21.1961C22.0423 20.6491 21.945 20.0349 22.0295 19.4323C22.114 18.8297 22.3766 18.266 22.7834 17.8135C23.1903 17.361 23.7231 17.0403 24.3134 16.8925C23.8927 17.2087 23.5386 17.6048 23.2714 18.0582C23.0041 18.5115 22.8289 19.013 22.7558 19.5342C22.6827 20.0553 22.7132 20.5857 22.8454 21.0951C22.9777 21.6044 23.2092 22.0827 23.5266 22.5024Z" fill="#EE5757"/>
<path d="M25.9999 23.8568L25.7999 19.8567L25.9999 16.7076C26.1214 16.8773 26.2838 17.0137 26.4721 17.1039V19.4551L26.3112 23.4284L25.9999 23.8568Z" fill="#EE5757"/>
<path d="M26.0276 23.8948L26.2276 19.8947L26.0276 16.7456C25.9061 16.9153 25.7437 17.0517 25.5555 17.1419V19.4931L25.7164 23.4664L26.0276 23.8948Z" fill="#EE5757"/>
<path d="M25.9199 16.4567L25.9999 16.5318C26.0813 16.6475 26.2023 16.7293 26.34 16.7617C26.4777 16.794 26.6225 16.7747 26.7469 16.7073C26.8713 16.64 26.9666 16.5293 27.0148 16.3963C27.063 16.2633 27.0606 16.1172 27.0082 15.9859C26.9876 16.0953 26.9339 16.1958 26.8545 16.2738C26.7751 16.3519 26.6737 16.4037 26.564 16.4225C26.4542 16.4412 26.3413 16.426 26.2405 16.3787C26.1397 16.3315 26.0557 16.2545 25.9999 16.1582" fill="#EE5757"/>
<path d="M26.08 16.4567L26 16.5318C25.9186 16.6475 25.7975 16.7293 25.6598 16.7617C25.5221 16.794 25.3773 16.7747 25.253 16.7073C25.1286 16.64 25.0332 16.5293 24.9851 16.3963C24.9369 16.2633 24.9392 16.1172 24.9916 15.9859C25.0123 16.0953 25.0659 16.1958 25.1453 16.2738C25.2248 16.3519 25.3262 16.4037 25.4359 16.4225C25.5457 16.4412 25.6585 16.426 25.7594 16.3787C25.8602 16.3315 25.9441 16.2545 26 16.1582" fill="#EE5757"/>
<rect x="2" y="2" width="48" height="12" fill="#59C785"/>
<path d="M6.432 12.0317V12.9677M2.99982 12.1357H5.70396H2.99982ZM3.10382 13.0717V12.5517H3.93587V12.9677H4.76791V12.5517H4.24788L3.10382 13.0717ZM3.41584 12.9677H3.62385H3.41584ZM5.70396 12.9677H5.18394V12.5517H6.01598L5.70396 12.9677ZM6.01598 12.0317V12.9677H6.84803V12.0317H6.01598Z" stroke="white" stroke-width="0.208011"/>
<path d="M5.07993 13.4878H6.95203M2.99982 13.4878H4.87192H2.99982Z" stroke="white" stroke-width="0.416023"/>
<path d="M6.432 26V26.9361M2.99982 26.104H5.70396H2.99982ZM3.10382 27.0401V26.52H3.93587V26.9361H4.76791V26.52H4.24788L3.10382 27.0401ZM3.41584 26.9361H3.62385H3.41584ZM5.70396 26.9361H5.18394V26.52H6.01598L5.70396 26.9361ZM6.01598 26V26.9361H6.84803V26H6.01598Z" stroke="white" stroke-width="0.208011"/>
<path d="M5.07993 27.4561H6.95203M2.99982 27.4561H4.87192H2.99982Z" stroke="white" stroke-width="0.416023"/>
<path d="M10.6368 12.0317V12.9677M7.20459 12.1357H9.90874H7.20459ZM7.3086 13.0717V12.5517H8.14064V12.9677H8.97269V12.5517H8.45266L7.3086 13.0717ZM7.62061 12.9677H7.82862H7.62061ZM9.90874 12.9677H9.38871V12.5517H10.2208L9.90874 12.9677ZM10.2208 12.0317V12.9677H11.0528V12.0317H10.2208Z" stroke="white" stroke-width="0.208011"/>
<path d="M9.2847 13.4878H11.1568M7.20459 13.4878H9.07669H7.20459Z" stroke="white" stroke-width="0.416023"/>
<path d="M10.6368 26V26.9361M7.20459 26.104H9.90874H7.20459ZM7.3086 27.0401V26.52H8.14064V26.9361H8.97269V26.52H8.45266L7.3086 27.0401ZM7.62061 26.9361H7.82862H7.62061ZM9.90874 26.9361H9.38871V26.52H10.2208L9.90874 26.9361ZM10.2208 26V26.9361H11.0528V26H10.2208Z" stroke="white" stroke-width="0.208011"/>
<path d="M9.2847 27.4561H11.1568M7.20459 27.4561H9.07669H7.20459Z" stroke="white" stroke-width="0.416023"/>
<path d="M14.8415 12.0317V12.9677M11.4094 12.1357H14.1135H11.4094ZM11.5134 13.0717V12.5517H12.3454V12.9677H13.1775V12.5517H12.6574L11.5134 13.0717ZM11.8254 12.9677H12.0334H11.8254ZM14.1135 12.9677H13.5935V12.5517H14.4255L14.1135 12.9677ZM14.4255 12.0317V12.9677H15.2576V12.0317H14.4255Z" stroke="white" stroke-width="0.208011"/>
<path d="M13.4895 13.4878H15.3616M11.4094 13.4878H13.2815H11.4094Z" stroke="white" stroke-width="0.416023"/>
<path d="M14.8415 26V26.9361M11.4094 26.104H14.1135H11.4094ZM11.5134 27.0401V26.52H12.3454V26.9361H13.1775V26.52H12.6574L11.5134 27.0401ZM11.8254 26.9361H12.0334H11.8254ZM14.1135 26.9361H13.5935V26.52H14.4255L14.1135 26.9361ZM14.4255 26V26.9361H15.2576V26H14.4255Z" stroke="white" stroke-width="0.208011"/>
<path d="M13.4895 27.4561H15.3616M11.4094 27.4561H13.2815H11.4094Z" stroke="white" stroke-width="0.416023"/>
<path d="M19.0464 12.0317V12.9677M15.6142 12.1357H18.3183H15.6142ZM15.7182 13.0717V12.5517H16.5502V12.9677H17.3823V12.5517H16.8623L15.7182 13.0717ZM16.0302 12.9677H16.2382H16.0302ZM18.3183 12.9677H17.7983V12.5517H18.6304L18.3183 12.9677ZM18.6304 12.0317V12.9677H19.4624V12.0317H18.6304Z" stroke="white" stroke-width="0.208011"/>
<path d="M17.6943 13.4878H19.5664M15.6142 13.4878H17.4863H15.6142Z" stroke="white" stroke-width="0.416023"/>
<path d="M19.0464 26V26.9361M15.6142 26.104H18.3183H15.6142ZM15.7182 27.0401V26.52H16.5502V26.9361H17.3823V26.52H16.8623L15.7182 27.0401ZM16.0302 26.9361H16.2382H16.0302ZM18.3183 26.9361H17.7983V26.52H18.6304L18.3183 26.9361ZM18.6304 26V26.9361H19.4624V26H18.6304Z" stroke="white" stroke-width="0.208011"/>
<path d="M17.6943 27.4561H19.5664M15.6142 27.4561H17.4863H15.6142Z" stroke="white" stroke-width="0.416023"/>
<path d="M23.2512 12.0317V12.9677M19.819 12.1357H22.5231H19.819ZM19.923 13.0717V12.5517H20.755V12.9677H21.5871V12.5517H21.067L19.923 13.0717ZM20.235 12.9677H20.443H20.235ZM22.5231 12.9677H22.0031V12.5517H22.8351L22.5231 12.9677ZM22.8351 12.0317V12.9677H23.6672V12.0317H22.8351Z" stroke="white" stroke-width="0.208011"/>
<path d="M21.8991 13.4878H23.7712M19.819 13.4878H21.6911H19.819Z" stroke="white" stroke-width="0.416023"/>
<path d="M23.2512 26V26.9361M19.819 26.104H22.5231H19.819ZM19.923 27.0401V26.52H20.755V26.9361H21.5871V26.52H21.067L19.923 27.0401ZM20.235 26.9361H20.443H20.235ZM22.5231 26.9361H22.0031V26.52H22.8351L22.5231 26.9361ZM22.8351 26V26.9361H23.6672V26H22.8351Z" stroke="white" stroke-width="0.208011"/>
<path d="M21.8991 27.4561H23.7712M19.819 27.4561H21.6911H19.819Z" stroke="white" stroke-width="0.416023"/>
<path d="M27.456 12.0317V12.9677M24.0238 12.1357H26.728H24.0238ZM24.1278 13.0717V12.5517H24.9599V12.9677H25.7919V12.5517H25.2719L24.1278 13.0717ZM24.4398 12.9677H24.6478H24.4398ZM26.728 12.9677H26.2079V12.5517H27.04L26.728 12.9677ZM27.04 12.0317V12.9677H27.872V12.0317H27.04Z" stroke="white" stroke-width="0.208011"/>
<path d="M26.1039 13.4878H27.976M24.0238 13.4878H25.8959H24.0238Z" stroke="white" stroke-width="0.416023"/>
<path d="M27.456 26V26.9361M24.0238 26.104H26.728H24.0238ZM24.1278 27.0401V26.52H24.9599V26.9361H25.7919V26.52H25.2719L24.1278 27.0401ZM24.4398 26.9361H24.6478H24.4398ZM26.728 26.9361H26.2079V26.52H27.04L26.728 26.9361ZM27.04 26V26.9361H27.872V26H27.04Z" stroke="white" stroke-width="0.208011"/>
<path d="M26.1039 27.4561H27.976M24.0238 27.4561H25.8959H24.0238Z" stroke="white" stroke-width="0.416023"/>
<path d="M31.6608 12.0317V12.9677M28.2286 12.1357H30.9327H28.2286ZM28.3326 13.0717V12.5517H29.1646V12.9677H29.9967V12.5517H29.4766L28.3326 13.0717ZM28.6446 12.9677H28.8526H28.6446ZM30.9327 12.9677H30.4127V12.5517H31.2447L30.9327 12.9677ZM31.2447 12.0317V12.9677H32.0768V12.0317H31.2447Z" stroke="white" stroke-width="0.208011"/>
<path d="M30.3087 13.4878H32.1808M28.2286 13.4878H30.1007H28.2286Z" stroke="white" stroke-width="0.416023"/>
<path d="M31.6608 26V26.9361M28.2286 26.104H30.9327H28.2286ZM28.3326 27.0401V26.52H29.1646V26.9361H29.9967V26.52H29.4766L28.3326 27.0401ZM28.6446 26.9361H28.8526H28.6446ZM30.9327 26.9361H30.4127V26.52H31.2447L30.9327 26.9361ZM31.2447 26V26.9361H32.0768V26H31.2447Z" stroke="white" stroke-width="0.208011"/>
<path d="M30.3087 27.4561H32.1808M28.2286 27.4561H30.1007H28.2286Z" stroke="white" stroke-width="0.416023"/>
<path d="M35.8655 12.0317V12.9677M32.4333 12.1357H35.1375H32.4333ZM32.5374 13.0717V12.5517H33.3694V12.9677H34.2014V12.5517H33.6814L32.5374 13.0717ZM32.8494 12.9677H33.0574H32.8494ZM35.1375 12.9677H34.6175V12.5517H35.4495L35.1375 12.9677ZM35.4495 12.0317V12.9677H36.2816V12.0317H35.4495Z" stroke="white" stroke-width="0.208011"/>
<path d="M34.5135 13.4878H36.3856M32.4333 13.4878H34.3055H32.4333Z" stroke="white" stroke-width="0.416023"/>
<path d="M35.8655 26V26.9361M32.4333 26.104H35.1375H32.4333ZM32.5374 27.0401V26.52H33.3694V26.9361H34.2014V26.52H33.6814L32.5374 27.0401ZM32.8494 26.9361H33.0574H32.8494ZM35.1375 26.9361H34.6175V26.52H35.4495L35.1375 26.9361ZM35.4495 26V26.9361H36.2816V26H35.4495Z" stroke="white" stroke-width="0.208011"/>
<path d="M34.5135 27.4561H36.3856M32.4333 27.4561H34.3055H32.4333Z" stroke="white" stroke-width="0.416023"/>
<path d="M40.0704 12.0317V12.9677M36.6382 12.1357H39.3423H36.6382ZM36.7422 13.0717V12.5517H37.5742V12.9677H38.4063V12.5517H37.8863L36.7422 13.0717ZM37.0542 12.9677H37.2622H37.0542ZM39.3423 12.9677H38.8223V12.5517H39.6543L39.3423 12.9677ZM39.6543 12.0317V12.9677H40.4864V12.0317H39.6543Z" stroke="white" stroke-width="0.208011"/>
<path d="M38.7183 13.4878H40.5904M36.6382 13.4878H38.5103H36.6382Z" stroke="white" stroke-width="0.416023"/>
<path d="M40.0704 26V26.9361M36.6382 26.104H39.3423H36.6382ZM36.7422 27.0401V26.52H37.5742V26.9361H38.4063V26.52H37.8863L36.7422 27.0401ZM37.0542 26.9361H37.2622H37.0542ZM39.3423 26.9361H38.8223V26.52H39.6543L39.3423 26.9361ZM39.6543 26V26.9361H40.4864V26H39.6543Z" stroke="white" stroke-width="0.208011"/>
<path d="M38.7183 27.4561H40.5904M36.6382 27.4561H38.5103H36.6382Z" stroke="white" stroke-width="0.416023"/>
<path d="M44.2752 12.0317V12.9677M40.843 12.1357H43.5472H40.843ZM40.947 13.0717V12.5517H41.7791V12.9677H42.6111V12.5517H42.0911L40.947 13.0717ZM41.259 12.9677H41.4671H41.259ZM43.5472 12.9677H43.0271V12.5517H43.8592L43.5472 12.9677ZM43.8592 12.0317V12.9677H44.6912V12.0317H43.8592Z" stroke="white" stroke-width="0.208011"/>
<path d="M42.9231 13.4878H44.7952M40.843 13.4878H42.7151H40.843Z" stroke="white" stroke-width="0.416023"/>
<path d="M44.2752 26V26.9361M40.843 26.104H43.5472H40.843ZM40.947 27.0401V26.52H41.7791V26.9361H42.6111V26.52H42.0911L40.947 27.0401ZM41.259 26.9361H41.4671H41.259ZM43.5472 26.9361H43.0271V26.52H43.8592L43.5472 26.9361ZM43.8592 26V26.9361H44.6912V26H43.8592Z" stroke="white" stroke-width="0.208011"/>
<path d="M42.9231 27.4561H44.7952M40.843 27.4561H42.7151H40.843Z" stroke="white" stroke-width="0.416023"/>
<path d="M48.48 12.0317V12.9677M45.0478 12.1357H47.7519H45.0478ZM45.1518 13.0717V12.5517H45.9838V12.9677H46.8159V12.5517H46.2959L45.1518 13.0717ZM45.4638 12.9677H45.6718H45.4638ZM47.7519 12.9677H47.2319V12.5517H48.064L47.7519 12.9677ZM48.064 12.0317V12.9677H48.896V12.0317H48.064Z" stroke="white" stroke-width="0.208011"/>
<path d="M47.1279 13.4878H49M45.0478 13.4878H46.9199H45.0478Z" stroke="white" stroke-width="0.416023"/>
<path d="M48.48 26V26.9361M45.0478 26.104H47.7519H45.0478ZM45.1518 27.0401V26.52H45.9838V26.9361H46.8159V26.52H46.2959L45.1518 27.0401ZM45.4638 26.9361H45.6718H45.4638ZM47.7519 26.9361H47.2319V26.52H48.064L47.7519 26.9361ZM48.064 26V26.9361H48.896V26H48.064Z" stroke="white" stroke-width="0.208011"/>
<path d="M47.1279 27.4561H49M45.0478 27.4561H46.9199H45.0478Z" stroke="white" stroke-width="0.416023"/>
</g>
<path d="M11.7035 1.61228C6.53056 2.04084 2.23921 5.77712 1.57724 11.0101C1.25164 13.5841 1 16.6548 1 20C1 23.3452 1.25164 26.4159 1.57724 28.9899C2.23922 34.2229 6.53056 37.9592 11.7035 38.3877C15.5784 38.7087 20.5852 39 26 39C31.4148 39 36.4216 38.7087 40.2965 38.3877C45.4694 37.9592 49.7608 34.2229 50.4228 28.9899C50.7484 26.4159 51 23.3452 51 20C51 16.6548 50.7484 13.5841 50.4228 11.0101C49.7608 5.77712 45.4694 2.04084 40.2965 1.61228C36.4216 1.29127 31.4148 1 26 1C20.5852 1 15.5784 1.29127 11.7035 1.61228Z" stroke="#E6E6FA" stroke-width="2"/>
</svg>
