<svg width="52" height="40" viewBox="0 0 52 40" fill="none" xmlns="http://www.w3.org/2000/svg">
<mask id="mask0_1_35801" style="mask-type:alpha" maskUnits="userSpaceOnUse" x="2" y="2" width="48" height="36">
<path d="M2.56934 11.1356C3.16681 6.41247 7.0415 3.00193 11.7861 2.60887C15.6412 2.28949 20.6196 2 26 2C31.3804 2 36.3588 2.28949 40.2139 2.60887C44.9585 3.00193 48.8332 6.41247 49.4307 11.1356C49.752 13.6759 50 16.704 50 20C50 23.296 49.752 26.3241 49.4307 28.8644C48.8332 33.5875 44.9585 36.9981 40.2139 37.3911C36.3588 37.7105 31.3804 38 26 38C20.6196 38 15.6412 37.7105 11.7861 37.3911C7.0415 36.9981 3.16681 33.5875 2.56934 28.8644C2.248 26.3241 2 23.296 2 20C2 16.704 2.248 13.6759 2.56934 11.1356Z" fill="#00D0BF"/>
</mask>
<g mask="url(#mask0_1_35801)">
<rect x="2" y="26" width="48" height="12" fill="#2C2929"/>
<rect x="2" y="14" width="48" height="12" fill="white"/>
<path d="M32.8483 17.0794C32.753 17.029 32.6456 16.9481 32.6099 16.8992C32.5562 16.8244 32.5873 16.8213 32.8087 16.8815C33.2049 16.9892 33.4606 16.9469 33.7143 16.7322L33.9379 16.5437L34.2011 16.6777C34.3461 16.7509 34.4999 16.8016 34.5444 16.7898C34.6584 16.7598 34.8948 16.4565 34.8871 16.3516C34.8779 16.2216 34.9875 16.2545 35.0403 16.3967C35.1454 16.6753 34.9924 16.9953 34.7215 17.0664C34.5893 17.1006 34.4671 17.0881 34.2668 17.0186C34.021 16.9327 33.9789 16.9341 33.8557 17.0285C33.5791 17.2404 33.1941 17.2601 32.8482 17.0797L32.8483 17.0794ZM33.8285 16.1833C33.7323 16.0608 33.6165 15.5981 33.6541 15.4846C33.687 15.3861 33.7225 15.3649 33.8104 15.3945C33.9673 15.4435 34.0035 15.5517 33.9801 15.9182C33.9618 16.2169 33.9176 16.2953 33.8287 16.1832L33.8285 16.1833ZM22.2874 15.8524C22.2558 16.0746 22.6849 16.6333 22.8785 16.7341C22.7469 16.7931 22.5832 16.7662 22.4625 16.8326C21.7876 17.5074 19.3229 19.9105 18.8728 20.4848C20.2061 20.5112 21.6844 20.4667 22.9343 20.4096C22.9331 19.5037 23.792 19.4572 24.3667 19.1272C24.6625 19.5931 25.4052 19.5573 25.498 20.2583L25.4997 23.2747H14.1091C13.9087 24.1595 13.1101 24.8345 11.9973 24.5568C12.3416 24.1971 12.9212 24.0735 13.1289 23.5766C13.304 22.4886 12.7792 21.8166 12.44 21.1995C13.0014 20.9953 13.0865 20.9441 13.6571 20.5607C13.2564 21.7778 14.6998 21.6441 15.7687 21.6163C15.8029 21.2031 15.7858 20.7154 15.4668 20.6549C15.8764 20.5062 15.9444 20.4553 16.5985 19.9007V21.5405L24.4855 21.5235C24.4855 21.0103 24.6214 20.186 24.2155 20.186C23.8274 20.186 24.1972 21.2412 23.8958 21.2412H17.8053L17.8013 20.1942C18.0578 19.9378 18.0287 19.9583 19.7924 18.1948C19.9682 18.0187 21.2054 16.9011 22.2881 15.8507L22.2874 15.8524ZM37.5112 15.8073C37.9363 16.0363 38.2731 16.3543 38.7936 16.4863C38.7331 16.7016 38.5413 16.7871 38.491 17.0139V21.6122C39.0725 21.7404 39.1949 21.4108 39.4717 21.2353C39.5472 21.9715 40.0163 22.6934 39.9995 23.2694H37.5105L37.5108 15.8039L37.5112 15.8073ZM34.1929 18.2708L35.0982 17.4772V21.4915L35.7502 21.4905L35.73 16.9883C35.9946 16.7233 36.5129 16.3387 36.6425 16.0724V23.2621L30.9258 23.2641C30.8415 21.7718 30.8272 20.2265 32.5668 20.5589V19.9498C32.5155 19.8472 32.4184 19.9749 32.3962 19.8395C32.6723 19.5631 32.7659 19.4925 33.5138 18.8392L33.5275 21.4888L34.1868 21.4894C34.187 21.4898 34.1929 18.3738 34.1929 18.2707V18.2708ZM32.0473 21.4506C32.1697 21.6344 32.5865 21.6311 32.567 21.3216C32.4986 21.0664 31.9489 21.1636 32.0473 21.4506Z" fill="#1C6864"/>
<path d="M15.4983 24.4696C15.6911 24.4696 15.8474 24.3133 15.8474 24.1205C15.8474 23.9277 15.6911 23.7715 15.4983 23.7715C15.3056 23.7715 15.1493 23.9277 15.1493 24.1205C15.1493 24.3133 15.3056 24.4696 15.4983 24.4696Z" fill="#1C6864"/>
<path d="M26.2713 15.8148C26.6966 16.0439 27.0332 16.3601 27.5537 16.4934C27.4934 16.7088 27.3014 16.7943 27.2515 17.0211V21.6211C27.8327 21.7493 27.9552 21.4194 28.232 21.244C28.3072 21.9804 28.7764 22.7017 28.7599 23.2781H26.271L26.2713 15.8128V15.8148Z" fill="#1C6864"/>
<rect x="2" y="2" width="48" height="12" fill="#EE5757"/>
</g>
<path d="M11.7035 1.61228C6.53056 2.04084 2.23921 5.77712 1.57724 11.0101C1.25164 13.5841 1 16.6548 1 20C1 23.3452 1.25164 26.4159 1.57724 28.9899C2.23922 34.2229 6.53056 37.9592 11.7035 38.3877C15.5784 38.7087 20.5852 39 26 39C31.4148 39 36.4216 38.7087 40.2965 38.3877C45.4694 37.9592 49.7608 34.2229 50.4228 28.9899C50.7484 26.4159 51 23.3452 51 20C51 16.6548 50.7484 13.5841 50.4228 11.0101C49.7608 5.77712 45.4694 2.04084 40.2965 1.61228C36.4216 1.29127 31.4148 1 26 1C20.5852 1 15.5784 1.29127 11.7035 1.61228Z" stroke="#E6E6FA" stroke-width="2"/>
</svg>
