<svg width="52" height="40" viewBox="0 0 52 40" fill="none" xmlns="http://www.w3.org/2000/svg">
<mask id="mask0_1_41332" style="mask-type:alpha" maskUnits="userSpaceOnUse" x="2" y="2" width="48" height="36">
<path d="M2.56934 11.1356C3.16681 6.41247 7.0415 3.00193 11.7861 2.60887C15.6412 2.28949 20.6196 2 26 2C31.3804 2 36.3588 2.28949 40.2139 2.60887C44.9585 3.00193 48.8332 6.41247 49.4307 11.1356C49.752 13.6759 50 16.704 50 20C50 23.296 49.752 26.3241 49.4307 28.8644C48.8332 33.5875 44.9585 36.9981 40.2139 37.3911C36.3588 37.7105 31.3804 38 26 38C20.6196 38 15.6412 37.7105 11.7861 37.3911C7.0415 36.9981 3.16681 33.5875 2.56934 28.8644C2.248 26.3241 2 23.296 2 20C2 16.704 2.248 13.6759 2.56934 11.1356Z" fill="#00D0BF"/>
</mask>
<g mask="url(#mask0_1_41332)">
<rect x="2" y="-4" width="48" height="49" fill="#18BEBE"/>
<path d="M30.9368 22.19C33.5399 22.19 35.6501 20.0798 35.6501 17.4767C35.6501 14.8736 33.5399 12.7633 30.9368 12.7633C28.3337 12.7633 26.2234 14.8736 26.2234 17.4767C26.2234 20.0798 28.3337 22.19 30.9368 22.19Z" fill="#FCD95E"/>
<path d="M30.9368 12.1205C31.217 12.117 31.3221 11.9419 31.3221 11.7317C31.3221 11.4514 30.9368 10.1168 30.9368 10.1168C30.9368 10.1168 30.5515 11.4514 30.5515 11.7317C30.5515 11.9419 30.6565 12.1205 30.9368 12.1205Z" fill="#FCD95E"/>
<path d="M30.9368 22.6612C30.6566 22.6647 30.5515 22.8398 30.5515 23.05C30.5515 23.3303 30.9368 24.6649 30.9368 24.6649C30.9368 24.6649 31.3221 23.3303 31.3221 23.05C31.3221 22.8398 31.2171 22.6612 30.9368 22.6612Z" fill="#FCD95E"/>
<path d="M31.8338 12.2186C32.0909 12.2522 32.2224 12.0909 32.2649 11.8805C32.3216 11.6 32.2388 10.213 32.2388 10.213C32.2388 10.213 31.6166 11.4977 31.5599 11.7782C31.5174 11.9886 31.5775 12.1814 31.8338 12.2186Z" fill="#FCD95E"/>
<path d="M30.0398 22.5632C29.7827 22.5295 29.6512 22.6908 29.6087 22.9012C29.552 23.1817 29.6348 24.5687 29.6348 24.5687C29.6348 24.5687 30.257 23.284 30.3137 23.0035C30.3561 22.7931 30.2961 22.6003 30.0398 22.5632Z" fill="#FCD95E"/>
<path d="M32.7094 12.4652C32.9541 12.5374 33.11 12.3963 33.1875 12.1929C33.2909 11.9218 33.4488 10.5266 33.4488 10.5266C33.4488 10.5266 32.6216 11.7139 32.5182 11.9851C32.4407 12.1884 32.466 12.3896 32.7094 12.4652Z" fill="#FCD95E"/>
<path d="M29.1642 22.3165C28.9195 22.2444 28.7636 22.3855 28.686 22.5888C28.5826 22.86 28.4247 24.2552 28.4247 24.2552C28.4247 24.2552 29.2519 23.0678 29.3553 22.7967C29.4329 22.5933 29.4075 22.3921 29.1642 22.3165Z" fill="#FCD95E"/>
<path d="M33.5578 12.8556C33.789 12.9734 33.9659 12.8624 34.0749 12.6749C34.2203 12.4249 34.5973 11.0678 34.5973 11.0678C34.5973 11.0678 33.5894 12.0924 33.444 12.3424C33.335 12.53 33.3283 12.7347 33.5578 12.8556Z" fill="#FCD95E"/>
<path d="M28.3158 21.9261C28.0845 21.8083 27.9076 21.9193 27.7986 22.1068C27.6532 22.3569 27.2762 23.714 27.2762 23.714C27.2762 23.714 28.2841 22.6893 28.4295 22.4393C28.5385 22.2518 28.5452 22.047 28.3158 21.9261Z" fill="#FCD95E"/>
<path d="M34.2564 13.3165C34.4708 13.4809 34.6622 13.4054 34.7964 13.2395C34.9752 13.0184 35.5352 11.7356 35.5352 11.7356C35.5352 11.7356 34.3916 12.5588 34.2127 12.7799C34.0786 12.9457 34.0441 13.1493 34.2564 13.3165Z" fill="#FCD95E"/>
<path d="M27.6172 21.4652C27.4027 21.3008 27.2113 21.3763 27.0772 21.5422C26.8983 21.7633 26.3383 23.0461 26.3383 23.0461C26.3383 23.0461 27.482 22.2229 27.6608 22.0018C27.795 21.836 27.8294 21.6324 27.6172 21.4652Z" fill="#FCD95E"/>
<path d="M34.8916 13.8936C35.0827 14.108 35.2839 14.075 35.4406 13.9378C35.6496 13.7548 36.3856 12.5857 36.3856 12.5857C36.3856 12.5857 35.1314 13.1589 34.9225 13.3418C34.7658 13.479 34.7032 13.6769 34.8916 13.8936Z" fill="#FCD95E"/>
<path d="M26.9819 20.8882C26.7909 20.6737 26.5896 20.7068 26.4329 20.844C26.224 21.0269 25.4879 22.1961 25.4879 22.1961C25.4879 22.1961 26.7421 21.6229 26.9511 21.44C27.1078 21.3028 27.1703 21.1049 26.9819 20.8882Z" fill="#FCD95E"/>
<path d="M35.4517 14.6153C35.6105 14.8777 35.8161 14.8915 35.9927 14.7893C36.2282 14.6531 37.1354 13.641 37.1354 13.641C37.1354 13.641 35.7997 13.9269 35.5642 14.0632C35.3876 14.1654 35.2959 14.3513 35.4517 14.6153Z" fill="#FCD95E"/>
<path d="M26.4218 20.1664C26.2631 19.904 26.0575 19.8902 25.8809 19.9924C25.6454 20.1287 24.7381 21.1408 24.7381 21.1408C24.7381 21.1408 26.0739 20.8548 26.3094 20.7185C26.486 20.6163 26.5777 20.4304 26.4218 20.1664Z" fill="#FCD95E"/>
<path d="M35.8603 15.4155C35.9797 15.7089 36.183 15.7634 36.3747 15.6962C36.6302 15.6066 37.6873 14.775 37.6873 14.775C37.6873 14.775 36.3105 14.7966 36.0549 14.8862C35.8633 14.9534 35.744 15.1209 35.8603 15.4155Z" fill="#FCD95E"/>
<path d="M26.0133 19.3662C25.8938 19.0728 25.6905 19.0183 25.4989 19.0855C25.2433 19.1751 24.1863 20.0068 24.1863 20.0068C24.1863 20.0068 25.5631 19.9851 25.8186 19.8955C26.0103 19.8283 26.1296 19.6608 26.0133 19.3662Z" fill="#FCD95E"/>
<path d="M36.1192 16.3132C36.1895 16.614 36.3836 16.6989 36.5862 16.6651C36.8565 16.62 38.0515 15.9908 38.0515 15.9908C38.0515 15.9908 36.6724 15.7911 36.4021 15.8361C36.1994 15.87 36.0522 16.0117 36.1192 16.3132Z" fill="#FCD95E"/>
<path d="M25.7543 18.4686C25.6839 18.1677 25.4899 18.0828 25.2872 18.1166C25.017 18.1617 23.8219 18.7909 23.8219 18.7909C23.8219 18.7909 25.2011 18.9907 25.4714 18.9456C25.6741 18.9118 25.8212 18.77 25.7543 18.4686Z" fill="#FCD95E"/>
<path d="M36.2072 17.1701C36.2251 17.4566 36.4048 17.5586 36.6139 17.5521C36.8927 17.5433 38.2006 17.1077 38.2006 17.1077C38.2006 17.1077 36.853 16.7552 36.5742 16.764C36.3651 16.7705 36.1928 16.8836 36.2072 17.1701Z" fill="#FCD95E"/>
<path d="M25.6663 17.6116C25.6484 17.3251 25.4688 17.2231 25.2597 17.2297C24.9809 17.2384 23.6729 17.674 23.6729 17.674C23.6729 17.674 25.0205 18.0265 25.2993 18.0177C25.5084 18.0112 25.6808 17.8981 25.6663 17.6116Z" fill="#FCD95E"/>
<path d="M36.1746 18.1013C36.1329 18.3989 36.2875 18.5284 36.4934 18.5501C36.7679 18.579 38.1373 18.3081 38.1373 18.3081C38.1373 18.3081 36.892 17.7617 36.6175 17.7328C36.4116 17.7111 36.2197 17.8041 36.1746 18.1013Z" fill="#FCD95E"/>
<path d="M25.699 16.6805C25.7406 16.3829 25.586 16.2534 25.3801 16.2317C25.1056 16.2028 23.7362 16.4736 23.7362 16.4736C23.7362 16.4736 24.9816 17.02 25.2561 17.049C25.4619 17.0707 25.6539 16.9777 25.699 16.6805Z" fill="#FCD95E"/>
<path d="M35.9806 19.0258C35.8857 19.3271 36.0125 19.4845 36.209 19.5384C36.4709 19.6101 37.8533 19.5389 37.8533 19.5389C37.8533 19.5389 36.741 18.7842 36.4791 18.7124C36.2827 18.6586 36.0788 18.7255 35.9806 19.0258Z" fill="#FCD95E"/>
<path d="M25.8929 15.7559C25.9879 15.4547 25.861 15.2972 25.6646 15.2434C25.4027 15.1716 24.0202 15.2429 24.0202 15.2429C24.0202 15.2429 25.1325 15.9976 25.3944 16.0694C25.5909 16.1232 25.7947 16.0563 25.8929 15.7559Z" fill="#FCD95E"/>
<path d="M35.6312 19.8595C35.4932 20.1396 35.5929 20.3176 35.776 20.4058C36.0201 20.5234 37.3767 20.7004 37.3767 20.7004C37.3767 20.7004 36.4081 19.7573 36.164 19.6397C35.9809 19.5514 35.7723 19.5809 35.6312 19.8595Z" fill="#FCD95E"/>
<path d="M26.2424 14.9222C26.3804 14.6422 26.2807 14.4642 26.0976 14.376C25.8535 14.2584 24.4969 14.0813 24.4969 14.0813C24.4969 14.0813 25.4655 15.0245 25.7096 15.1421C25.8927 15.2303 26.1013 15.2008 26.2424 14.9222Z" fill="#FCD95E"/>
<path d="M35.126 20.619C34.9521 20.8574 35.0234 21.0493 35.1885 21.1732C35.4085 21.3384 36.6991 21.8001 36.6991 21.8001C36.6991 21.8001 35.8941 20.6883 35.6741 20.5231C35.5091 20.3992 35.3026 20.3825 35.126 20.619Z" fill="#FCD95E"/>
<path d="M26.7476 14.1628C26.9214 13.9243 26.8502 13.7324 26.6851 13.6085C26.4651 13.4433 25.1745 12.9816 25.1745 12.9816C25.1745 12.9816 25.9795 14.0934 26.1995 14.2586C26.3645 14.3825 26.571 14.3992 26.7476 14.1628Z" fill="#FCD95E"/>
<path d="M34.5564 21.2159C34.3566 21.4082 34.4015 21.6073 34.5463 21.7608C34.7394 21.9655 35.9371 22.6794 35.9371 22.6794C35.9371 22.6794 35.2955 21.4437 35.1024 21.239C34.9576 21.0855 34.7587 21.0262 34.5564 21.2159Z" fill="#FCD95E"/>
<path d="M27.3171 13.5659C27.5169 13.3736 27.4721 13.1745 27.3272 13.021C27.1342 12.8163 25.9365 12.1023 25.9365 12.1023C25.9365 12.1023 26.578 13.338 26.7711 13.5427C26.9159 13.6963 27.1149 13.7556 27.3171 13.5659Z" fill="#FCD95E"/>
<path d="M35.9806 19.0258C35.8857 19.3271 36.0125 19.4845 36.209 19.5384C36.4709 19.6101 37.8533 19.5389 37.8533 19.5389C37.8533 19.5389 36.741 18.7842 36.4791 18.7124C36.2827 18.6586 36.0788 18.7255 35.9806 19.0258Z" fill="#FCD95E"/>
<path d="M25.8929 15.7559C25.9879 15.4547 25.861 15.2972 25.6646 15.2434C25.4027 15.1716 24.0202 15.2429 24.0202 15.2429C24.0202 15.2429 25.1325 15.9976 25.3944 16.0694C25.5909 16.1232 25.7947 16.0563 25.8929 15.7559Z" fill="#FCD95E"/>
<path d="M35.6312 19.8595C35.4932 20.1396 35.5929 20.3176 35.776 20.4058C36.0201 20.5234 37.3767 20.7004 37.3767 20.7004C37.3767 20.7004 36.4081 19.7573 36.164 19.6397C35.9809 19.5514 35.7723 19.5809 35.6312 19.8595Z" fill="#FCD95E"/>
<path d="M26.2424 14.9222C26.3804 14.6422 26.2807 14.4642 26.0976 14.376C25.8535 14.2584 24.4969 14.0813 24.4969 14.0813C24.4969 14.0813 25.4655 15.0245 25.7096 15.1421C25.8927 15.2303 26.1013 15.2008 26.2424 14.9222Z" fill="#FCD95E"/>
<path d="M35.126 20.619C34.9521 20.8574 35.0234 21.0493 35.1885 21.1732C35.4085 21.3384 36.6991 21.8001 36.6991 21.8001C36.6991 21.8001 35.8941 20.6883 35.6741 20.5231C35.5091 20.3992 35.3026 20.3825 35.126 20.619Z" fill="#FCD95E"/>
<path d="M26.7476 14.1628C26.9214 13.9243 26.8502 13.7324 26.6851 13.6085C26.4651 13.4433 25.1745 12.9816 25.1745 12.9816C25.1745 12.9816 25.9795 14.0934 26.1995 14.2586C26.3645 14.3825 26.571 14.3992 26.7476 14.1628Z" fill="#FCD95E"/>
<path d="M34.5564 21.2159C34.3566 21.4082 34.4015 21.6073 34.5463 21.7608C34.7394 21.9655 35.9371 22.6794 35.9371 22.6794C35.9371 22.6794 35.2955 21.4437 35.1024 21.239C34.9576 21.0855 34.7587 21.0262 34.5564 21.2159Z" fill="#FCD95E"/>
<path d="M27.3171 13.5659C27.5169 13.3736 27.4721 13.1745 27.3272 13.021C27.1342 12.8163 25.9365 12.1023 25.9365 12.1023C25.9365 12.1023 26.578 13.338 26.7711 13.5427C26.9159 13.6963 27.1149 13.7556 27.3171 13.5659Z" fill="#FCD95E"/>
<path d="M33.7052 21.8407C33.4807 21.9737 33.4912 22.1755 33.6055 22.3592C33.7581 22.6041 34.7956 23.5918 34.7956 23.5918C34.7956 23.5918 34.3805 22.2468 34.228 22.0019C34.1137 21.8182 33.9315 21.7108 33.7052 21.8407Z" fill="#FCD95E"/>
<path d="M28.1684 12.941C28.3928 12.808 28.3824 12.6062 28.268 12.4225C28.1155 12.1776 27.0779 11.1899 27.0779 11.1899C27.0779 11.1899 27.493 12.5349 27.6455 12.7799C27.7599 12.9635 27.942 13.0709 28.1684 12.941Z" fill="#FCD95E"/>
<path d="M32.8689 22.2552C32.6292 22.3419 32.6085 22.5408 32.6921 22.7419C32.8036 23.0101 33.666 24.1727 33.666 24.1727C33.666 24.1727 33.4666 22.7809 33.3551 22.5127C33.2715 22.3116 33.11 22.1719 32.8689 22.2552Z" fill="#FCD95E"/>
<path d="M29.0046 12.5266C29.2443 12.4399 29.265 12.241 29.1814 12.0399C29.0699 11.7717 28.2075 10.6091 28.2075 10.6091C28.2075 10.6091 28.407 12.0009 28.5185 12.269C28.6021 12.4702 28.7635 12.6099 29.0046 12.5266Z" fill="#FCD95E"/>
<path d="M32.069 22.5115C31.8173 22.562 31.7662 22.754 31.8185 22.9633C31.8882 23.2423 32.5675 24.5065 32.5675 24.5065C32.5675 24.5065 32.5827 23.1131 32.513 22.834C32.4607 22.6248 32.3215 22.4645 32.069 22.5115Z" fill="#FCD95E"/>
<path d="M29.8046 12.2702C30.0562 12.2197 30.1074 12.0277 30.0551 11.8184C29.9853 11.5394 29.306 10.2752 29.306 10.2752C29.306 10.2752 29.2908 11.6687 29.3605 11.9477C29.4128 12.1569 29.552 12.3172 29.8046 12.2702Z" fill="#FCD95E"/>
<path d="M30.0959 27.6869C29.9698 27.6939 29.8472 27.7102 29.7269 27.7487C29.5622 27.7709 29.4046 27.8282 29.2412 27.855L29.1757 27.8655L29.066 27.876C29.073 27.9064 29.0777 27.9367 29.0777 27.9671C29.0777 27.9986 29.0742 28.029 29.066 28.0547C29.059 28.0792 29.0368 28.1096 29.0193 28.1283C28.9959 28.1539 28.9714 28.1761 28.9422 28.1901C28.9142 28.2041 28.8826 28.21 28.8511 28.2123C28.8196 28.2135 28.7869 28.2123 28.7565 28.2006C28.725 28.1901 28.6958 28.1703 28.669 28.1469C28.6363 28.1551 28.6024 28.1609 28.5709 28.1644C28.5382 28.1679 28.5078 28.1679 28.4786 28.1644C28.446 28.1551 28.4121 28.1446 28.3806 28.1318C28.3488 28.1186 28.3183 28.1026 28.2895 28.0839C28.1704 28.1539 28.0373 28.2205 27.9649 28.3431C27.924 28.3991 27.9158 28.4634 27.9065 28.5299C27.9006 28.6117 27.9217 28.6981 27.9567 28.774C27.9695 28.7961 27.9801 28.6934 28.0197 28.6794C28.0863 28.6245 28.1692 28.5848 28.2533 28.5626C28.3245 28.5264 28.3152 28.5649 28.286 28.621C28.279 28.6502 28.2393 28.7611 28.293 28.7051C28.53 28.6 28.7928 28.579 29.0485 28.5591C29.4198 28.5206 29.7923 28.5124 30.1648 28.5077C30.5151 28.5124 30.8654 28.5171 31.2157 28.5299C31.3827 28.5346 31.5508 28.572 31.7155 28.5439C31.7551 28.5334 31.817 28.5311 31.8404 28.5077C31.7657 28.4646 31.6781 28.4634 31.5952 28.4529H30.9273C30.7416 28.4342 30.5478 28.4318 30.3726 28.3618C30.3259 28.3431 30.2827 28.2987 30.2383 28.3466C30.1718 28.37 30.1006 28.3863 30.0305 28.391C29.9079 28.4003 29.7853 28.3746 29.672 28.3291C29.7537 28.2158 29.8518 28.1166 29.9418 28.0115C29.8694 27.9998 29.7993 27.9846 29.7269 27.9671C29.8542 27.8795 29.9721 27.7803 30.0959 27.6869Z" fill="#FCD95E"/>
<path d="M35.5513 28.8969C35.2975 29.0493 35.1038 28.7792 34.8916 28.6981C34.7401 28.7804 34.726 29.0557 34.5844 29.1861C34.415 29.3788 34.2075 29.1323 34.2229 28.9421C34.0204 29.1129 33.9179 29.4999 33.5904 29.4482C33.4352 29.3215 33.3199 29.0558 33.2013 29.3583C33.1046 29.5062 32.8472 29.7167 32.7138 29.4934C32.6726 29.2961 32.5737 29.0642 32.4664 29.3775C32.3928 29.599 32.1564 29.762 31.9277 29.665C31.8025 29.5627 32.0281 29.1842 31.8687 29.2111C31.6305 29.3686 31.492 29.7596 31.1596 29.7283C31.0305 29.5834 31.2379 29.3379 31.0963 29.1771C30.9293 29.3916 30.7438 29.7057 30.4548 29.7283C30.3151 29.6151 30.4603 29.2904 30.371 29.2423C30.0744 29.4202 29.7615 29.7372 29.3884 29.638C29.5338 29.0819 30.1412 28.8868 30.6521 28.8435C31.531 28.7354 32.4556 28.9341 33.3012 28.6168C33.4379 28.5337 33.7689 28.4158 33.651 28.223C33.5466 28.0707 33.9226 28.1303 33.9588 27.9524C33.9364 27.7272 34.1314 27.7582 34.3218 27.7384C35.1757 27.7016 36.0192 27.8814 36.8706 27.912C36.9349 28.3268 36.4747 28.6181 36.1042 28.49C35.9273 28.5187 35.6619 28.0831 35.7139 28.4C35.6783 28.5663 35.7032 28.7859 35.5513 28.897V28.8969ZM28.286 28.0476C28.4836 28.2285 28.6223 28.0135 28.807 27.9349C29.4268 27.7218 29.9675 27.3492 30.5006 26.977C30.8236 26.7098 31.1036 26.3631 31.5374 26.2764C32.3836 26.0206 33.2831 26.0517 34.1325 25.8155C34.7793 24.93 35.8779 24.614 36.7982 24.105C37.0048 24.0408 37.0847 23.8707 37.1507 23.683C37.5019 23.1284 37.9805 22.6371 38.5464 22.3014C38.8142 22.1551 39.1337 22.0708 39.4368 22.1377C39.4151 22.4988 39.208 22.8188 38.9579 23.0685C39.1626 23.064 39.3384 22.9347 39.5453 22.942C39.6161 23.3126 39.216 23.5065 39.0031 23.7372C39.1216 23.7648 39.5759 23.7991 39.3284 23.9179C39.0129 24.1369 38.6527 24.2872 38.3614 24.5414C38.6301 24.5897 38.6607 24.6468 38.3875 24.744C38.2396 24.8442 37.9552 24.8793 37.9277 25.0745C38.1307 25.1993 37.8342 25.3232 37.7199 25.3637C37.5012 25.4147 37.2716 25.5096 37.562 25.6757C37.4522 25.8417 37.2164 25.8771 37.0241 25.8607C37.0825 26.0488 37.1669 26.2593 36.9228 26.3423C36.3755 26.756 35.7331 27.057 35.0452 27.1258C35.9046 27.1919 36.7899 27.0324 37.5243 26.565C37.6213 26.4503 38.1297 26.3271 37.8453 26.2307C37.7115 26.175 37.4244 26.1131 37.405 26.011C37.8028 25.7656 38.304 25.8529 38.732 25.7071C38.743 25.5685 38.4065 25.6071 38.281 25.5756C37.9817 25.551 37.9993 25.4747 38.2878 25.4464C38.6529 25.3497 39.0664 25.3307 39.3735 25.0926C39.1235 24.9768 38.809 25.0788 38.5422 24.9842C38.9944 24.7862 39.528 24.7664 39.9338 24.4691C40.1186 24.2635 39.697 24.3277 39.5741 24.3327C39.3237 24.3763 39.2079 24.2564 39.4924 24.1523C39.9783 23.7941 40.5936 23.5614 40.9349 23.042C41.0157 22.9257 41.1252 22.5754 40.8673 22.7014C40.5282 22.8142 40.2298 23.1954 39.8434 23.0775C40.6048 22.4874 41.3292 21.8157 41.8495 20.9991C41.8764 20.7636 41.5068 20.7381 41.4105 20.923C40.9214 21.3943 40.4787 21.9506 39.8525 22.2461C40.4522 21.6672 40.9481 20.9818 41.3807 20.2714C41.4735 20.0601 41.7228 19.806 41.5875 19.5714C41.3694 19.3909 41.0966 19.5561 40.9833 19.7721C40.603 20.2685 40.3143 20.8478 39.8254 21.2521C40.2534 20.4352 40.6966 19.5655 40.7074 18.6232C40.7061 18.4292 40.6671 18.1435 40.4037 18.1798C40.1949 18.2172 40.2445 18.5298 40.1584 18.6879C39.9688 19.3316 39.8798 20.0288 39.491 20.5925C39.5785 20.0694 39.7316 19.524 39.6141 18.9958C39.5592 18.7597 39.1779 18.8613 39.227 19.0949C38.7716 21.402 37.2235 23.4198 35.1989 24.587C34.2719 25.1115 33.2364 25.4497 32.1829 25.6029C31.8995 25.665 31.593 25.6286 31.3222 25.7252C30.6658 26.2285 30.2684 27.0706 29.4374 27.3343C29.065 27.5194 28.5793 27.557 28.313 27.903C28.29 27.9472 28.285 27.9985 28.2859 28.0476" fill="#FCD95E"/>
<path d="M30.7731 25.7071C30.6505 25.9296 30.5783 26.1855 30.4207 26.3848C29.9464 25.9532 29.2587 25.9674 28.657 25.9387C28.1604 25.9122 27.6203 25.8664 27.2361 25.5122C26.8319 25.1811 26.5019 24.7512 26.0502 24.4825C25.638 24.3704 25.2224 24.2302 24.8909 23.9476C24.1826 23.3702 23.7769 22.5135 23.0848 21.9182C22.9529 21.7883 22.7972 21.6876 22.6494 21.5774C22.5089 21.6117 22.5725 21.9148 22.4006 21.7603C22.3071 21.6937 22.0732 21.6872 22.0521 21.7802C22.2637 22.0591 22.4755 22.3775 22.5048 22.7341C22.3605 22.7489 22.1039 22.7036 22.0324 22.7574C22.224 23.0446 22.4697 23.2994 22.7488 23.5022C22.6149 23.5237 22.3511 23.512 22.2998 23.566C22.5769 23.7918 22.874 24.0226 23.2368 24.0806C23.311 24.1784 23.1282 24.3675 23.282 24.451C23.3711 24.4875 23.6653 24.5484 23.4627 24.6498C23.3236 24.7435 23.3752 24.962 23.5531 24.9571C23.6655 25.0145 23.918 25.0286 23.9377 25.128C23.8381 25.2294 23.5279 25.3497 23.7919 25.4447C24.0385 25.5814 24.3197 25.6702 24.6013 25.68C24.46 25.7989 24.2859 25.8663 24.1404 25.9782C24.7902 26.3592 25.5106 26.6098 26.2224 26.8511C26.5058 26.9458 26.7925 27.0341 27.0862 27.0897C26.2326 27.0404 25.4075 26.7877 24.6301 26.4418C24.2271 26.2651 23.8214 26.0943 23.4085 25.9421C23.5895 25.8478 23.799 25.8248 23.9868 25.7433C23.597 25.6652 23.1711 25.6396 22.8284 25.4253C22.881 25.3316 23.08 25.3272 23.1901 25.2794C23.3972 25.2298 23.5257 25.1697 23.2337 25.1517C22.9393 25.0717 22.6016 25.1076 22.3421 24.93C22.3588 24.8235 22.6304 24.8606 22.741 24.8146C22.8802 24.7907 23.0351 24.7707 23.1464 24.677C22.6912 24.4882 22.0958 24.622 21.7393 24.22C21.657 24.0668 21.9946 24.1902 22.0907 24.1647C22.335 24.1647 22.5975 24.2423 22.8301 24.1438C22.1668 23.8526 21.4564 23.58 20.9505 23.0414C20.8944 22.9548 20.7261 22.7182 20.8619 22.689C21.2556 22.7411 21.5406 23.1708 21.9617 23.1039C22.0176 23.0285 21.717 22.9049 21.642 22.7971C21.028 22.2702 20.4321 21.6984 20.0017 21.0082C19.9721 20.7777 20.3344 20.7432 20.4298 20.9212C20.8994 21.3735 21.3236 21.9012 21.9084 22.21C22.1159 22.3106 21.7892 22.0909 21.7457 22.0112C21.2053 21.3837 20.6909 20.7209 20.3132 19.9818C20.2456 19.8486 20.1335 19.6075 20.3358 19.5366C20.538 19.4353 20.7387 19.5733 20.8412 19.747C21.2385 20.2481 21.5309 20.8437 22.0258 21.2612C21.6042 20.4429 21.154 19.5816 21.1431 18.64C21.153 18.4574 21.1647 18.1813 21.4122 18.1888C21.6201 18.1573 21.5873 18.4234 21.6554 18.5503C21.8601 19.242 21.9494 19.9908 22.3602 20.6015C22.2695 20.0884 22.1359 19.5599 22.2247 19.0382C22.2451 18.8669 22.438 18.8151 22.5638 18.9186C22.6656 19.1677 22.6868 19.4753 22.7795 19.7415C23.3071 21.5463 24.4916 23.1336 26.0353 24.1988C27.3066 25.0707 28.8154 25.5912 30.3552 25.682C30.4943 25.6941 30.6339 25.6983 30.7732 25.7069" fill="#FCD95E"/>
<path d="M28.8184 28.0998C28.8642 28.0998 28.9013 28.0626 28.9013 28.0169C28.9013 27.9711 28.8642 27.9339 28.8184 27.9339C28.7726 27.9339 28.7355 27.9711 28.7355 28.0169C28.7355 28.0626 28.7726 28.0998 28.8184 28.0998Z" fill="#FCD95E"/>
<path d="M28.8114 28.0374C28.8301 28.0374 28.8452 28.0222 28.8452 28.0035C28.8452 27.9849 28.8301 27.9697 28.8114 27.9697C28.7927 27.9697 28.7776 27.9849 28.7776 28.0035C28.7776 28.0222 28.7927 28.0374 28.8114 28.0374Z" fill="#FCD95E" stroke="#00AFCA" stroke-width="0.0133466"/>
<path d="M10.1495 4.82108C10.1495 4.82108 9.80522 4.53177 9.68829 4.67689C9.50022 4.91028 10.2665 6.07286 10.2665 6.48226C10.2665 7.15427 9.81808 7.33701 9.26439 7.43298C8.89286 7.49739 8.28787 7.40604 8.28787 7.40604C8.40179 7.25296 8.47588 7.20786 8.66782 7.19565C8.45413 7.0847 8.23654 6.84386 8.23654 6.469C8.23654 5.89088 8.47452 5.65258 8.47452 5.00084C8.47452 4.63928 8.17804 4.17902 8.17804 4.17902C8.7021 4.23146 8.96182 4.71669 8.81405 5.10448C8.89745 5.11648 8.97318 5.09768 9.03824 5.03606C9.07657 5.14353 9.01602 5.2683 8.93496 5.37581C9.00026 5.4107 9.04823 5.38978 9.15226 5.36829C9.14237 5.47905 9.07603 5.5967 8.91368 5.70746C9.38479 5.58513 9.67468 5.91349 9.67468 6.25725C9.67468 6.5169 9.49273 6.703 9.31486 6.703C9.2574 6.703 9.17297 6.67932 9.12536 6.64375C9.09176 6.71522 9.10906 6.81087 9.14363 6.88233C9.0133 6.84787 8.93055 6.77046 8.98944 6.60932C8.88932 6.60012 8.80968 6.5663 8.75552 6.50185C8.8104 6.43153 8.89369 6.39105 8.98944 6.39435C8.91654 6.24389 8.99779 6.1597 9.11619 6.09142C9.11619 6.09142 9.04089 6.39435 9.23315 6.39435C9.31959 6.39435 9.39837 6.36619 9.39837 6.23876C9.39837 6.12782 9.30139 5.97414 9.07718 5.98392C8.85299 5.99369 8.67122 6.13849 8.67122 6.49641C8.67122 6.82656 8.93753 6.99077 9.28846 7.00138C9.60489 7.01116 9.84373 6.83974 9.84373 6.51328C9.84373 6.07881 9.21653 5.08847 9.21653 4.70132C9.21653 4.41079 9.47775 4.24866 9.73336 4.24866C10.0648 4.24866 10.3444 4.57684 10.3444 4.57684L10.1497 4.82097L10.1495 4.82108Z" fill="#FCD95E"/>
<path d="M10.2218 12.6743C10.2218 13.4004 9.56993 13.7736 9.05766 13.7736C8.36748 13.7736 8 13.361 8 12.8208C8 12.5146 8.0561 12.3224 8.19728 12.0294C8.19728 12.0294 9.33575 9.66174 9.779 8.74602C9.83427 8.63181 9.85211 8.50177 9.85211 8.31119C9.85211 8.01683 9.5666 7.77624 9.26722 7.76886C8.99432 7.76205 8.69698 8.02328 8.69698 8.32097C8.69698 8.68254 8.88456 8.84375 9.07714 8.84375C9.31415 8.84375 9.40858 8.74631 9.40858 8.57991C9.40858 8.46394 9.35259 8.41379 9.2721 8.41379C9.06883 8.41379 9.1259 8.68741 9.1259 8.68741C9.02495 8.66531 8.94198 8.56214 8.98941 8.43332C8.91276 8.41638 8.84356 8.37528 8.79202 8.31606C8.84651 8.26323 8.90902 8.22246 8.98941 8.20859C8.9418 8.0514 9.00542 7.97463 9.14295 7.94232C9.11519 8.00275 9.11426 8.05839 9.12346 8.11087C9.33994 8.04929 9.67178 8.14726 9.67178 8.52126C9.67178 8.89257 9.41406 9.20524 8.93091 9.12711C9.04583 9.18206 9.1043 9.29451 9.11612 9.42025C9.02835 9.38608 8.93091 9.38121 8.93091 9.38121C8.98741 9.4808 9.06586 9.56667 9.06249 9.76226C8.97293 9.72153 8.88971 9.64612 8.77494 9.69384C8.95513 10.0484 8.73374 10.5361 8.17056 10.6515C8.37668 10.4099 8.4776 10.149 8.4776 9.88929C8.4776 9.04758 8.24367 8.90611 8.24367 8.32094C8.24367 8.07608 8.36952 7.8117 8.61896 7.63201V7.64179C8.4541 7.59762 8.34849 7.51645 8.28777 7.40615C8.66446 7.29932 9.21202 7.30129 9.50599 7.41696C9.84395 7.45612 10.0799 7.71538 10.1494 7.84699C10.2189 7.97846 10.3539 8.45431 10.1494 8.88272C9.92548 9.35158 8.87005 11.5896 8.54097 12.2931C8.47119 12.4423 8.42884 12.6005 8.42884 12.7719C8.42884 13.2028 8.82362 13.3533 9.04788 13.3533C9.31594 13.3533 9.58888 13.1491 9.58888 12.894C9.58888 12.7324 9.50112 12.6351 9.37441 12.6351C9.07141 12.6351 9.08982 12.8928 9.15022 13.0553C8.96165 12.9705 8.85203 12.8191 8.88216 12.6595C8.7754 12.6449 8.67377 12.5943 8.57998 12.4885C8.65378 12.3954 8.74377 12.3249 8.88216 12.3224C8.82172 12.0748 8.98748 11.9701 9.15022 11.912C9.09874 12.0937 9.06496 12.3029 9.37441 12.3029C9.6001 12.3029 9.77771 12.342 9.88131 12.4885C9.8874 12.2931 9.90567 11.5211 9.90567 11.5211C9.91871 11.231 9.51741 11.2393 9.26235 11.3257C9.35861 10.9915 9.55603 10.8109 10.0129 10.8566C9.90202 10.8102 9.78383 10.7059 9.78383 10.5048C9.78391 10.2328 10.0046 9.93149 10.1495 9.8424L10.2219 12.6743L10.2218 12.6743Z" fill="#FCD95E"/>
<path d="M10.1295 4.82107C10.1295 4.82107 10.4738 4.53176 10.5907 4.67688C10.7788 4.91028 10.0125 6.07286 10.0125 6.48225C10.0125 7.15426 10.4609 7.337 11.0146 7.43297C11.3861 7.49738 11.9911 7.40603 11.9911 7.40603C11.8772 7.25296 11.8031 7.20786 11.6112 7.19564C11.8249 7.08469 12.0425 6.84385 12.0425 6.46899C12.0425 5.89087 11.8045 5.65258 11.8045 5.00084C11.8045 4.63927 12.101 4.17901 12.101 4.17901C11.5769 4.23145 11.3172 4.71668 11.4649 5.10447C11.3815 5.11648 11.3058 5.09767 11.2408 5.03605C11.2024 5.14352 11.263 5.2683 11.344 5.3758C11.2787 5.41069 11.2308 5.38977 11.1267 5.36828C11.1366 5.47905 11.203 5.59669 11.3653 5.70746C10.8942 5.58512 10.6043 5.91348 10.6043 6.25724C10.6043 6.51689 10.7863 6.70299 10.9641 6.70299C11.0216 6.70299 11.106 6.67931 11.1536 6.64374C11.1872 6.71521 11.1699 6.81086 11.1354 6.88233C11.2657 6.84786 11.3484 6.77045 11.2895 6.60932C11.3897 6.60011 11.4693 6.56629 11.5235 6.50184C11.4686 6.43152 11.3853 6.39104 11.2895 6.39434C11.3624 6.24388 11.2812 6.15969 11.1628 6.09141C11.1628 6.09141 11.2381 6.39434 11.0458 6.39434C10.9594 6.39434 10.8806 6.36618 10.8806 6.23876C10.8806 6.12781 10.9776 5.97413 11.2018 5.98391C11.426 5.99369 11.6078 6.13849 11.6078 6.4964C11.6078 6.82655 11.3415 6.99076 10.9905 7.00137C10.6741 7.01115 10.4353 6.83973 10.4353 6.51327C10.4353 6.0788 11.0625 5.08846 11.0625 4.70132C11.0625 4.41079 10.8012 4.24865 10.5456 4.24865C10.2142 4.24865 9.93456 4.57683 9.93456 4.57683L10.1293 4.82097L10.1295 4.82107Z" fill="#FCD95E"/>
<path d="M10.0571 12.6742C10.0571 13.4004 10.7091 13.7736 11.2213 13.7736C11.9115 13.7736 12.279 13.3609 12.279 12.8208C12.279 12.5145 12.2229 12.3224 12.0817 12.0293C12.0817 12.0293 10.9432 9.66173 10.5 8.74601C10.4447 8.63181 10.4269 8.50177 10.4269 8.31119C10.4269 8.01682 10.7124 7.77623 11.0118 7.76885C11.2847 7.76205 11.582 8.02327 11.582 8.32096C11.582 8.68253 11.3944 8.84374 11.2018 8.84374C10.9648 8.84374 10.8704 8.7463 10.8704 8.5799C10.8704 8.46394 10.9264 8.41378 11.0069 8.41378C11.2102 8.41378 11.1531 8.6874 11.1531 8.6874C11.254 8.6653 11.337 8.56213 11.2896 8.43331C11.3662 8.41637 11.4354 8.37527 11.487 8.31606C11.4325 8.26322 11.37 8.22245 11.2896 8.20859C11.3372 8.05139 11.2736 7.97462 11.136 7.94231C11.1638 8.00274 11.1647 8.05838 11.1555 8.11086C10.939 8.04928 10.6072 8.14726 10.6072 8.52125C10.6072 8.89257 10.8649 9.20523 11.3481 9.1271C11.2332 9.18206 11.1747 9.29451 11.1629 9.42025C11.2506 9.38607 11.3481 9.3812 11.3481 9.3812C11.2916 9.48079 11.2131 9.56666 11.2165 9.76225C11.3061 9.72152 11.3893 9.64611 11.5041 9.69383C11.3239 10.0484 11.5453 10.5361 12.1084 10.6515C11.9023 10.4099 11.8014 10.149 11.8014 9.88928C11.8014 9.04757 12.0353 8.90611 12.0353 8.32093C12.0353 8.07608 11.9095 7.8117 11.66 7.63201V7.64179C11.8249 7.59762 11.9305 7.51644 11.9912 7.40614C11.6145 7.29931 11.067 7.30128 10.773 7.41696C10.435 7.45611 10.1991 7.71537 10.1296 7.84698C10.0601 7.97846 9.9251 8.4543 10.1296 8.88271C10.3535 9.35157 11.4089 11.5895 11.738 12.293C11.8078 12.4423 11.8501 12.6005 11.8501 12.7719C11.8501 13.2028 11.4554 13.3533 11.2311 13.3533C10.963 13.3533 10.6901 13.1491 10.6901 12.894C10.6901 12.7324 10.7779 12.6351 10.9046 12.6351C11.2076 12.6351 11.1892 12.8928 11.1288 13.0553C11.3173 12.9705 11.427 12.8191 11.3968 12.6595C11.5036 12.6449 11.6052 12.5943 11.699 12.4885C11.6252 12.3954 11.5352 12.3249 11.3968 12.3224C11.4573 12.0748 11.2915 11.9701 11.1288 11.912C11.1802 12.0937 11.214 12.3029 10.9046 12.3029C10.6789 12.3029 10.5013 12.3419 10.3977 12.4885C10.3916 12.2931 10.3733 11.5211 10.3733 11.5211C10.3603 11.231 10.7616 11.2393 11.0166 11.3257C10.9204 10.9915 10.723 10.8109 10.2661 10.8566C10.377 10.8102 10.4952 10.7059 10.4952 10.5048C10.4951 10.2328 10.2744 9.93148 10.1295 9.84239L10.0571 12.6743L10.0571 12.6742Z" fill="#FCD95E"/>
<path d="M10.1295 35.5929C10.1295 35.5929 10.4738 35.8822 10.5907 35.7371C10.7788 35.5037 10.0125 34.3411 10.0125 33.9318C10.0125 33.2597 10.4609 33.077 11.0146 32.981C11.3861 32.9166 11.9911 33.008 11.9911 33.008C11.8772 33.161 11.8031 33.2061 11.6112 33.2184C11.8249 33.3293 12.0425 33.5701 12.0425 33.945C12.0425 34.5231 11.8045 34.7614 11.8045 35.4132C11.8045 35.7747 12.101 36.235 12.101 36.235C11.5769 36.1825 11.3172 35.6973 11.4649 35.3095C11.3815 35.2975 11.3058 35.3163 11.2408 35.378C11.2024 35.2705 11.263 35.1457 11.344 35.0382C11.2787 35.0033 11.2308 35.0242 11.1267 35.0457C11.1366 34.935 11.203 34.8173 11.3653 34.7065C10.8942 34.8289 10.6043 34.5005 10.6043 34.1568C10.6043 33.8971 10.7863 33.711 10.9641 33.711C11.0216 33.711 11.106 33.7347 11.1536 33.7703C11.1872 33.6988 11.1699 33.6031 11.1354 33.5317C11.2657 33.5661 11.3484 33.6436 11.2895 33.8047C11.3897 33.8139 11.4693 33.8477 11.5235 33.9122C11.4686 33.9825 11.3853 34.023 11.2895 34.0197C11.3624 34.1701 11.2812 34.2543 11.1628 34.3226C11.1628 34.3226 11.2381 34.0197 11.0458 34.0197C10.9594 34.0197 10.8806 34.0478 10.8806 34.1752C10.8806 34.2862 10.9776 34.4399 11.2018 34.4301C11.426 34.4203 11.6078 34.2755 11.6078 33.9176C11.6078 33.5875 11.3415 33.4232 10.9905 33.4126C10.6741 33.4029 10.4353 33.5743 10.4353 33.9007C10.4353 34.3352 11.0625 35.3255 11.0625 35.7127C11.0625 36.0032 10.8012 36.1654 10.5456 36.1654C10.2142 36.1654 9.93456 35.8372 9.93456 35.8372L10.1293 35.593L10.1295 35.5929Z" fill="#FCD95E"/>
<path d="M10.0571 27.7398C10.0571 27.0136 10.7091 26.6404 11.2213 26.6404C11.9115 26.6404 12.279 27.0531 12.279 27.5932C12.279 27.8995 12.2229 28.0916 12.0817 28.3847C12.0817 28.3847 10.9432 30.7523 10.5 31.668C10.4447 31.7822 10.4269 31.9122 10.4269 32.1028C10.4269 32.3972 10.7124 32.6378 11.0118 32.6451C11.2847 32.652 11.582 32.3907 11.582 32.093C11.582 31.7315 11.3944 31.5703 11.2018 31.5703C10.9648 31.5703 10.8704 31.6677 10.8704 31.8341C10.8704 31.9501 10.9264 32.0002 11.0069 32.0002C11.2102 32.0002 11.1531 31.7266 11.1531 31.7266C11.254 31.7487 11.337 31.8519 11.2896 31.9807C11.3662 31.9976 11.4354 32.0387 11.487 32.0979C11.4325 32.1508 11.37 32.1916 11.2896 32.2054C11.3372 32.3626 11.2736 32.4394 11.136 32.4717C11.1638 32.4113 11.1647 32.3556 11.1555 32.3031C10.939 32.3647 10.6072 32.2667 10.6072 31.8927C10.6072 31.5214 10.8649 31.2088 11.3481 31.2869C11.2332 31.2319 11.1747 31.1195 11.1629 30.9938C11.2506 31.0279 11.3481 31.0328 11.3481 31.0328C11.2916 30.9332 11.2131 30.8473 11.2165 30.6517C11.3061 30.6925 11.3893 30.7679 11.5041 30.7202C11.3239 30.3656 11.5453 29.8779 12.1084 29.7625C11.9023 30.0041 11.8014 30.265 11.8014 30.5247C11.8014 31.3664 12.0353 31.5079 12.0353 32.0931C12.0353 32.3379 11.9095 32.6023 11.66 32.782L11.66 32.7722C11.8249 32.8164 11.9305 32.8976 11.9912 33.0079C11.6145 33.1147 11.067 33.1127 10.773 32.997C10.435 32.9579 10.1991 32.6986 10.1296 32.567C10.0601 32.4355 9.9251 31.9597 10.1296 31.5313C10.3535 31.0624 11.4089 28.8245 11.738 28.121C11.8078 27.9717 11.8501 27.8135 11.8501 27.6421C11.8501 27.2112 11.4554 27.0607 11.2311 27.0607C10.963 27.0607 10.6901 27.2649 10.6901 27.52C10.6901 27.6816 10.7779 27.7789 10.9046 27.7789C11.2076 27.7789 11.1892 27.5212 11.1288 27.3587C11.3173 27.4435 11.427 27.5949 11.3968 27.7545C11.5036 27.7691 11.6052 27.8198 11.699 27.9255C11.6252 28.0186 11.5352 28.0891 11.3968 28.0916C11.4573 28.3392 11.2915 28.4439 11.1288 28.502C11.1802 28.3203 11.214 28.1111 10.9046 28.1111C10.6789 28.1111 10.5013 28.0721 10.3977 27.9255C10.3916 28.1209 10.3733 28.8929 10.3733 28.8929C10.3603 29.183 10.7616 29.1747 11.0166 29.0883C10.9204 29.4225 10.723 29.6031 10.2661 29.5574C10.377 29.6038 10.4952 29.7081 10.4952 29.9092C10.4951 30.1812 10.2744 30.4825 10.1295 30.5716L10.0571 27.7397L10.0571 27.7398Z" fill="#FCD95E"/>
<path d="M10.1495 35.5929C10.1495 35.5929 9.80522 35.8822 9.68829 35.7371C9.50022 35.5037 10.2665 34.3411 10.2665 33.9317C10.2665 33.2597 9.81808 33.077 9.26439 32.981C8.89286 32.9166 8.28787 33.0079 8.28787 33.0079C8.40179 33.161 8.47588 33.2061 8.66782 33.2183C8.45413 33.3293 8.23654 33.5701 8.23654 33.945C8.23654 34.5231 8.47452 34.7614 8.47452 35.4131C8.47452 35.7747 8.17804 36.235 8.17804 36.235C8.7021 36.1825 8.96182 35.6973 8.81405 35.3095C8.89745 35.2975 8.97318 35.3163 9.03824 35.3779C9.07657 35.2705 9.01602 35.1457 8.93496 35.0382C9.00026 35.0033 9.04823 35.0242 9.15226 35.0457C9.14237 34.9349 9.07603 34.8173 8.91368 34.7065C9.38479 34.8289 9.67468 34.5005 9.67468 34.1567C9.67468 33.8971 9.49273 33.711 9.31487 33.711C9.2574 33.711 9.17297 33.7347 9.12536 33.7702C9.09176 33.6988 9.10906 33.6031 9.14363 33.5317C9.0133 33.5661 8.93055 33.6435 8.98944 33.8047C8.88932 33.8139 8.80968 33.8477 8.75552 33.9121C8.8104 33.9825 8.89369 34.0229 8.98944 34.0196C8.91654 34.1701 8.99779 34.2543 9.11619 34.3226C9.11619 34.3226 9.04089 34.0196 9.23315 34.0196C9.31959 34.0196 9.39837 34.0478 9.39837 34.1752C9.39837 34.2862 9.3014 34.4399 9.07718 34.4301C8.85299 34.4203 8.67122 34.2755 8.67122 33.9176C8.67122 33.5874 8.93754 33.4232 9.28846 33.4126C9.60489 33.4028 9.84373 33.5742 9.84373 33.9007C9.84373 34.3352 9.21653 35.3255 9.21653 35.7127C9.21653 36.0032 9.47775 36.1653 9.73336 36.1653C10.0648 36.1653 10.3444 35.8371 10.3444 35.8371L10.1497 35.593L10.1495 35.5929Z" fill="#FCD95E"/>
<path d="M10.2218 27.7397C10.2219 27.0136 9.56993 26.6404 9.05766 26.6404C8.36748 26.6404 8 27.053 8 27.5932C8 27.8994 8.0561 28.0916 8.19728 28.3846C8.19728 28.3846 9.33575 30.7522 9.779 31.668C9.83427 31.7822 9.85211 31.9122 9.85211 32.1028C9.85211 32.3972 9.5666 32.6377 9.26722 32.6451C8.99432 32.6519 8.69698 32.3907 8.69698 32.093C8.69698 31.7314 8.88456 31.5702 9.07714 31.5702C9.31415 31.5702 9.40858 31.6677 9.40858 31.8341C9.40858 31.95 9.35259 32.0002 9.2721 32.0002C9.06883 32.0002 9.1259 31.7266 9.1259 31.7266C9.02495 31.7487 8.94198 31.8518 8.98941 31.9807C8.91276 31.9976 8.84356 32.0387 8.79202 32.0979C8.84651 32.1508 8.90902 32.1915 8.98941 32.2054C8.9418 32.3626 9.00542 32.4394 9.14295 32.4717C9.11519 32.4112 9.11426 32.3556 9.12346 32.3031C9.33995 32.3647 9.67178 32.2667 9.67178 31.8927C9.67178 31.5214 9.41406 31.2087 8.93091 31.2869C9.04583 31.2319 9.1043 31.1195 9.11612 30.9937C9.02835 31.0279 8.93091 31.0328 8.93091 31.0328C8.98741 30.9332 9.06586 30.8473 9.06249 30.6517C8.97293 30.6925 8.88971 30.7679 8.77494 30.7201C8.95513 30.3656 8.73374 29.8779 8.17056 29.7625C8.37669 30.0041 8.4776 30.265 8.4776 30.5247C8.4776 31.3664 8.24367 31.5079 8.24367 32.093C8.24367 32.3379 8.36952 32.6023 8.61896 32.782L8.61896 32.7722C8.4541 32.8164 8.34849 32.8975 8.28777 33.0078C8.66446 33.1147 9.21202 33.1127 9.50599 32.997C9.84395 32.9579 10.0799 32.6986 10.1494 32.567C10.2189 32.4355 10.3539 31.9597 10.1494 31.5313C9.92548 31.0624 8.87005 28.8244 8.54097 28.1209C8.47119 27.9717 8.42884 27.8135 8.42884 27.6421C8.42884 27.2112 8.82362 27.0607 9.04788 27.0607C9.31594 27.0607 9.58888 27.2649 9.58888 27.52C9.58888 27.6816 9.50112 27.7789 9.37441 27.7789C9.07141 27.7789 9.08983 27.5211 9.15022 27.3587C8.96165 27.4435 8.85203 27.5949 8.88216 27.7545C8.7754 27.7691 8.67377 27.8197 8.57998 27.9255C8.65378 28.0186 8.74377 28.0891 8.88216 28.0916C8.82172 28.3392 8.98748 28.4439 9.15022 28.502C9.09875 28.3203 9.06496 28.1111 9.37441 28.1111C9.6001 28.1111 9.77771 28.072 9.88131 27.9254C9.8874 28.1209 9.90567 28.8929 9.90567 28.8929C9.91871 29.183 9.51742 29.1747 9.26235 29.0883C9.35861 29.4224 9.55603 29.6031 10.0129 29.5574C9.90202 29.6037 9.78384 29.7081 9.78384 29.9091C9.78391 30.1811 10.0046 30.4825 10.1495 30.5716L10.2219 27.7397L10.2218 27.7397Z" fill="#FCD95E"/>
<path d="M10.0571 14.8433C10.0571 14.1172 10.7091 13.7439 11.2213 13.7439C11.9115 13.7439 12.279 14.1566 12.279 14.6968C12.279 15.003 12.2229 15.1951 12.0817 15.4882C12.0817 15.4882 10.9432 17.8558 10.5 18.7715C10.4447 18.8857 10.4269 19.0158 10.4269 19.2064C10.4269 19.5007 10.7124 19.7413 11.0118 19.7487C11.2847 19.7555 11.582 19.4943 11.582 19.1966C11.582 18.835 11.3944 18.6738 11.2018 18.6738C10.9648 18.6738 10.8704 18.7712 10.8704 18.9376C10.8704 19.0536 10.9264 19.1038 11.0069 19.1038C11.2102 19.1038 11.1531 18.8301 11.1531 18.8301C11.254 18.8522 11.337 18.9554 11.2896 19.0842C11.3662 19.1012 11.4354 19.1423 11.487 19.2015C11.4325 19.2543 11.37 19.2951 11.2896 19.309C11.3372 19.4661 11.2736 19.5429 11.136 19.5752C11.1638 19.5148 11.1647 19.4592 11.1555 19.4067C10.939 19.4683 10.6072 19.3703 10.6072 18.9963C10.6072 18.625 10.8649 18.3123 11.3481 18.3904C11.2332 18.3355 11.1747 18.223 11.1629 18.0973C11.2506 18.1315 11.3481 18.1363 11.3481 18.1363C11.2916 18.0368 11.2131 17.9509 11.2165 17.7553C11.3061 17.796 11.3893 17.8714 11.5041 17.8237C11.3239 17.4691 11.5453 16.9814 12.1084 16.866C11.9023 17.1077 11.8014 17.3685 11.8014 17.6283C11.8014 18.47 12.0353 18.6114 12.0353 19.1966C12.0353 19.4415 11.9095 19.7058 11.66 19.8855L11.66 19.8758C11.8249 19.9199 11.9305 20.0011 11.9912 20.1114C11.6145 20.2182 11.067 20.2163 10.773 20.1006C10.435 20.0614 10.1991 19.8022 10.1296 19.6706C10.0601 19.5391 9.9251 19.0632 10.1296 18.6348C10.3535 18.166 11.4089 15.928 11.738 15.2245C11.8078 15.0753 11.8501 14.917 11.8501 14.7457C11.8501 14.3147 11.4554 14.1643 11.2311 14.1643C10.963 14.1643 10.6901 14.3685 10.6901 14.6235C10.6901 14.7851 10.7779 14.8825 10.9046 14.8825C11.2076 14.8825 11.1892 14.6247 11.1288 14.4623C11.3173 14.5471 11.427 14.6984 11.3968 14.858C11.5036 14.8727 11.6052 14.9233 11.699 15.029C11.6252 15.1222 11.5352 15.1926 11.3968 15.1952C11.4573 15.4428 11.2915 15.5475 11.1288 15.6055C11.1802 15.4238 11.214 15.2147 10.9046 15.2147C10.6789 15.2147 10.5013 15.1756 10.3977 15.029C10.3916 15.2245 10.3733 15.9964 10.3733 15.9964C10.3603 16.2865 10.7616 16.2782 11.0166 16.1919C10.9204 16.526 10.723 16.7067 10.2661 16.6609C10.377 16.7073 10.4952 16.8117 10.4952 17.0127C10.4951 17.2847 10.2744 17.5861 10.1295 17.6751L10.0571 14.8433L10.0571 14.8433Z" fill="#FCD95E"/>
<path d="M10.2218 14.8433C10.2219 14.1171 9.56993 13.7439 9.05766 13.7439C8.36748 13.7439 8 14.1566 8 14.6968C8 15.003 8.0561 15.1951 8.19728 15.4882C8.19728 15.4882 9.33575 17.8558 9.779 18.7715C9.83427 18.8857 9.85211 19.0158 9.85211 19.2063C9.85211 19.5007 9.5666 19.7413 9.26722 19.7487C8.99432 19.7555 8.69698 19.4943 8.69698 19.1966C8.69698 18.835 8.88456 18.6738 9.07714 18.6738C9.31415 18.6738 9.40858 18.7712 9.40858 18.9376C9.40858 19.0536 9.35259 19.1037 9.2721 19.1037C9.06883 19.1037 9.1259 18.8301 9.1259 18.8301C9.02495 18.8522 8.94198 18.9554 8.98941 19.0842C8.91276 19.1012 8.84356 19.1423 8.79202 19.2015C8.84651 19.2543 8.90902 19.2951 8.98941 19.3089C8.9418 19.4661 9.00542 19.5429 9.14295 19.5752C9.11519 19.5148 9.11426 19.4591 9.12346 19.4067C9.33995 19.4682 9.67178 19.3703 9.67178 18.9963C9.67178 18.625 9.41406 18.3123 8.93091 18.3904C9.04583 18.3355 9.1043 18.223 9.11612 18.0973C9.02835 18.1315 8.93091 18.1363 8.93091 18.1363C8.98741 18.0367 9.06586 17.9509 9.06249 17.7553C8.97293 17.796 8.88971 17.8714 8.77494 17.8237C8.95513 17.4691 8.73374 16.9814 8.17056 16.866C8.37669 17.1077 8.4776 17.3685 8.4776 17.6282C8.4776 18.47 8.24367 18.6114 8.24367 19.1966C8.24367 19.4414 8.36952 19.7058 8.61896 19.8855L8.61896 19.8757C8.4541 19.9199 8.34849 20.0011 8.28777 20.1114C8.66446 20.2182 9.21202 20.2162 9.50599 20.1006C9.84395 20.0614 10.0799 19.8022 10.1494 19.6705C10.2189 19.5391 10.3539 19.0632 10.1494 18.6348C9.92548 18.166 8.87005 15.928 8.54097 15.2245C8.47119 15.0753 8.42884 14.917 8.42884 14.7457C8.42884 14.3147 8.82362 14.1642 9.04788 14.1642C9.31594 14.1642 9.58888 14.3684 9.58888 14.6235C9.58888 14.7851 9.50112 14.8824 9.37441 14.8824C9.07141 14.8824 9.08983 14.6247 9.15022 14.4623C8.96165 14.5471 8.85203 14.6984 8.88216 14.858C8.7754 14.8727 8.67377 14.9233 8.57998 15.029C8.65378 15.1222 8.74377 15.1926 8.88216 15.1951C8.82172 15.4428 8.98748 15.5475 9.15022 15.6055C9.09875 15.4238 9.06496 15.2147 9.37441 15.2147C9.6001 15.2147 9.77771 15.1756 9.88131 15.029C9.8874 15.2244 9.90567 15.9964 9.90567 15.9964C9.91871 16.2865 9.51742 16.2782 9.26235 16.1919C9.35861 16.526 9.55603 16.7066 10.0129 16.6609C9.90202 16.7073 9.78384 16.8116 9.78384 17.0127C9.78391 17.2847 10.0046 17.586 10.1495 17.6751L10.2219 14.8432L10.2218 14.8433Z" fill="#FCD95E"/>
<path d="M10.2218 25.5384C10.2218 26.2645 9.56993 26.6377 9.05766 26.6377C8.36748 26.6377 8 26.2251 8 25.6849C8 25.3787 8.0561 25.1866 8.19728 24.8935C8.19728 24.8935 9.33575 22.5259 9.779 21.6102C9.83427 21.4959 9.85211 21.3659 9.85211 21.1753C9.85211 20.881 9.5666 20.6404 9.26722 20.633C8.99432 20.6262 8.69698 20.8874 8.69698 21.1851C8.69698 21.5467 8.88456 21.7079 9.07714 21.7079C9.31415 21.7079 9.40858 21.6104 9.40858 21.444C9.40858 21.3281 9.35259 21.2779 9.2721 21.2779C9.06883 21.2779 9.1259 21.5515 9.1259 21.5515C9.02495 21.5294 8.94198 21.4263 8.98941 21.2975C8.91276 21.2805 8.84356 21.2394 8.79202 21.1802C8.84651 21.1274 8.90902 21.0866 8.98941 21.0727C8.9418 20.9155 9.00542 20.8388 9.14295 20.8065C9.11519 20.8669 9.11426 20.9225 9.12346 20.975C9.33994 20.9134 9.67178 21.0114 9.67178 21.3854C9.67178 21.7567 9.41406 22.0694 8.93091 21.9912C9.04583 22.0462 9.1043 22.1586 9.11612 22.2844C9.02835 22.2502 8.93091 22.2453 8.93091 22.2453C8.98741 22.3449 9.06586 22.4308 9.06249 22.6264C8.97293 22.5857 8.88971 22.5103 8.77494 22.558C8.95513 22.9126 8.73374 23.4003 8.17056 23.5156C8.37668 23.274 8.4776 23.0131 8.4776 22.7534C8.4776 21.9117 8.24367 21.7703 8.24367 21.1851C8.24367 20.9402 8.36952 20.6758 8.61896 20.4961V20.5059C8.4541 20.4618 8.34849 20.3806 8.28777 20.2703C8.66446 20.1635 9.21202 20.1654 9.50599 20.2811C9.84395 20.3203 10.0799 20.5795 10.1494 20.7111C10.2189 20.8426 10.3539 21.3184 10.1494 21.7469C9.92548 22.2157 8.87005 24.4537 8.54097 25.1572C8.47119 25.3064 8.42884 25.4647 8.42884 25.636C8.42884 26.067 8.82362 26.2174 9.04788 26.2174C9.31594 26.2174 9.58888 26.0132 9.58888 25.7582C9.58888 25.5966 9.50112 25.4992 9.37441 25.4992C9.07141 25.4992 9.08982 25.757 9.15022 25.9194C8.96165 25.8346 8.85203 25.6833 8.88216 25.5237C8.7754 25.509 8.67377 25.4584 8.57998 25.3526C8.65378 25.2595 8.74377 25.189 8.88216 25.1865C8.82172 24.9389 8.98748 24.8342 9.15022 24.7761C9.09874 24.9579 9.06496 25.167 9.37441 25.167C9.6001 25.167 9.77771 25.2061 9.88131 25.3527C9.8874 25.1572 9.90567 24.3853 9.90567 24.3853C9.91871 24.0952 9.51741 24.1034 9.26235 24.1898C9.35861 23.8557 9.55603 23.675 10.0129 23.7208C9.90202 23.6744 9.78383 23.57 9.78383 23.369C9.78391 23.097 10.0046 22.7956 10.1495 22.7065L10.2219 25.5384L10.2218 25.5384Z" fill="#FCD95E"/>
<path d="M10.0571 25.5384C10.0571 26.2645 10.7091 26.6377 11.2213 26.6377C11.9115 26.6377 12.279 26.2251 12.279 25.6849C12.279 25.3787 12.2229 25.1866 12.0817 24.8935C12.0817 24.8935 10.9432 22.5259 10.5 21.6101C10.4447 21.4959 10.4269 21.3659 10.4269 21.1753C10.4269 20.881 10.7124 20.6404 11.0118 20.633C11.2847 20.6262 11.582 20.8874 11.582 21.1851C11.582 21.5467 11.3944 21.7079 11.2018 21.7079C10.9648 21.7079 10.8704 21.6104 10.8704 21.444C10.8704 21.3281 10.9264 21.2779 11.0069 21.2779C11.2102 21.2779 11.1531 21.5515 11.1531 21.5515C11.254 21.5294 11.337 21.4263 11.2896 21.2974C11.3662 21.2805 11.4354 21.2394 11.487 21.1802C11.4325 21.1273 11.37 21.0866 11.2896 21.0727C11.3372 20.9155 11.2736 20.8388 11.136 20.8064C11.1638 20.8669 11.1647 20.9225 11.1555 20.975C10.939 20.9134 10.6072 21.0114 10.6072 21.3854C10.6072 21.7567 10.8649 22.0694 11.3481 21.9912C11.2332 22.0462 11.1747 22.1586 11.1629 22.2844C11.2506 22.2502 11.3481 22.2453 11.3481 22.2453C11.2916 22.3449 11.2131 22.4308 11.2165 22.6264C11.3061 22.5857 11.3893 22.5102 11.5041 22.558C11.3239 22.9125 11.5453 23.4002 12.1084 23.5156C11.9023 23.274 11.8014 23.0131 11.8014 22.7534C11.8014 21.9117 12.0353 21.7702 12.0353 21.1851C12.0353 20.9402 11.9095 20.6758 11.66 20.4961V20.5059C11.8249 20.4617 11.9305 20.3806 11.9912 20.2703C11.6145 20.1634 11.067 20.1654 10.773 20.2811C10.435 20.3202 10.1991 20.5795 10.1296 20.7111C10.0601 20.8426 9.9251 21.3184 10.1296 21.7468C10.3535 22.2157 11.4089 24.4537 11.738 25.1572C11.8078 25.3064 11.8501 25.4646 11.8501 25.636C11.8501 26.0669 11.4554 26.2174 11.2311 26.2174C10.963 26.2174 10.6901 26.0132 10.6901 25.7582C10.6901 25.5966 10.7779 25.4992 10.9046 25.4992C11.2076 25.4992 11.1892 25.757 11.1288 25.9194C11.3173 25.8346 11.427 25.6832 11.3968 25.5237C11.5036 25.509 11.6052 25.4584 11.699 25.3526C11.6252 25.2595 11.5352 25.189 11.3968 25.1865C11.4573 24.9389 11.2915 24.8342 11.1288 24.7761C11.1802 24.9579 11.214 25.167 10.9046 25.167C10.6789 25.167 10.5013 25.2061 10.3977 25.3527C10.3916 25.1572 10.3733 24.3852 10.3733 24.3852C10.3603 24.0951 10.7616 24.1034 11.0166 24.1898C10.9204 23.8557 10.723 23.675 10.2661 23.7208C10.377 23.6744 10.4952 23.57 10.4952 23.369C10.4951 23.097 10.2744 22.7956 10.1295 22.7065L10.0571 25.5384L10.0571 25.5384Z" fill="#FCD95E"/>
</g>
<path d="M11.7035 1.61228C6.53056 2.04084 2.23921 5.77712 1.57724 11.0101C1.25164 13.5841 1 16.6548 1 20C1 23.3452 1.25164 26.4159 1.57724 28.9899C2.23922 34.2229 6.53056 37.9592 11.7035 38.3877C15.5784 38.7087 20.5852 39 26 39C31.4148 39 36.4216 38.7087 40.2965 38.3877C45.4694 37.9592 49.7608 34.2229 50.4228 28.9899C50.7484 26.4159 51 23.3452 51 20C51 16.6548 50.7484 13.5841 50.4228 11.0101C49.7608 5.77712 45.4694 2.04084 40.2965 1.61228C36.4216 1.29127 31.4148 1 26 1C20.5852 1 15.5784 1.29127 11.7035 1.61228Z" stroke="#E6E6FA" stroke-width="2"/>
</svg>
