<svg width="52" height="40" viewBox="0 0 52 40" fill="none" xmlns="http://www.w3.org/2000/svg">
<mask id="mask0_1_30735" style="mask-type:alpha" maskUnits="userSpaceOnUse" x="2" y="2" width="48" height="36">
<path d="M2.56934 11.1356C3.16681 6.41247 7.0415 3.00193 11.7861 2.60887C15.6412 2.28949 20.6196 2 26 2C31.3804 2 36.3588 2.28949 40.2139 2.60887C44.9585 3.00193 48.8332 6.41247 49.4307 11.1356C49.752 13.6759 50 16.704 50 20C50 23.296 49.752 26.3241 49.4307 28.8644C48.8332 33.5875 44.9585 36.9981 40.2139 37.3911C36.3588 37.7105 31.3804 38 26 38C20.6196 38 15.6412 37.7105 11.7861 37.3911C7.0415 36.9981 3.16681 33.5875 2.56934 28.8644C2.248 26.3241 2 23.296 2 20C2 16.704 2.248 13.6759 2.56934 11.1356Z" fill="#00D0BF"/>
</mask>
<g mask="url(#mask0_1_30735)">
<rect x="2" y="22" width="48" height="16" fill="#59C785"/>
<rect x="2" y="2" width="48" height="16" fill="#2C2929"/>
<rect x="1" y="13" width="50" height="14" fill="#EE5757" stroke="white" stroke-width="2"/>
<path d="M18.4065 30.8188L18.8275 31.0619L30.3151 11.1647C30.9821 10.9819 31.351 10.3429 31.7199 9.70402C31.9658 9.27807 32.9495 7.57429 33.3831 5.36463C31.6864 6.84503 30.7027 8.54882 30.4568 8.97476C30.0879 9.61368 29.719 10.2526 29.8941 10.9216L18.4065 30.8188Z" fill="white"/>
<path d="M33.1726 31.0619L33.5937 30.8188L22.1061 10.9217C22.2812 10.2527 21.9123 9.61376 21.5434 8.97484C21.2975 8.54889 20.3138 6.84511 18.617 5.3647C19.0507 7.57436 20.0344 9.27814 20.2803 9.70409C20.6492 10.343 21.0181 10.9819 21.685 11.1648L33.1726 31.0619Z" fill="white"/>
<path d="M21.3815 26.0979C22.1107 28.0653 24.5416 32 26.0001 32C27.4586 32 29.8894 28.0653 30.6187 26.0979V14.2938C29.8894 12.3264 27.4586 8.39169 26.0001 8.39169C24.5416 8.39169 22.1107 12.3264 21.3815 14.2938V26.0979Z" fill="#EE5757"/>
<path d="M30.6187 26.098C31.348 24.1306 31.8342 22.1633 31.8342 20.1959C31.8342 18.2285 31.348 16.2612 30.6187 14.2938C29.8895 16.2612 29.4033 18.2285 29.4033 20.1959C29.4033 22.1633 29.8895 24.1306 30.6187 26.098Z" fill="black"/>
<path d="M21.5112 26.098C22.2404 24.1306 22.7266 22.1633 22.7266 20.1959C22.7266 18.2285 22.2404 16.2612 21.5112 14.2938C20.7819 16.2612 20.2958 18.2285 20.2958 20.1959C20.2958 22.1633 20.7819 24.1306 21.5112 26.098Z" fill="black"/>
<path d="M26.0002 21.6714C26.5372 21.6714 26.9725 21.0108 26.9725 20.1959C26.9725 19.381 26.5372 18.7204 26.0002 18.7204C25.4632 18.7204 25.0278 19.381 25.0278 20.1959C25.0278 21.0108 25.4632 21.6714 26.0002 21.6714Z" fill="white"/>
<path d="M26.2433 21.6346C26.2433 21.6346 27.2156 23.6019 27.2156 26.7989C27.2156 29.9958 26.2433 31.9632 26.2433 31.9632V21.6346Z" fill="white"/>
<path d="M26.2433 8.43061C26.2433 8.43061 27.2156 10.398 27.2156 13.5949C27.2156 16.7919 26.2433 18.7593 26.2433 18.7593V8.43061Z" fill="white"/>
<path d="M25.9353 31.9631C25.9353 31.9631 24.963 29.9958 24.963 26.7988C24.963 23.6019 25.9353 21.6345 25.9353 21.6345L25.9353 31.9631Z" fill="white"/>
<path d="M25.9353 18.7592C25.9353 18.7592 24.963 16.7918 24.963 13.5949C24.963 10.3979 25.9353 8.43056 25.9353 8.43056L25.9353 18.7592Z" fill="white"/>
</g>
<path d="M11.7035 1.61228C6.53056 2.04084 2.23921 5.77712 1.57724 11.0101C1.25164 13.5841 1 16.6548 1 20C1 23.3452 1.25164 26.4159 1.57724 28.9899C2.23922 34.2229 6.53056 37.9592 11.7035 38.3877C15.5784 38.7087 20.5852 39 26 39C31.4148 39 36.4216 38.7087 40.2965 38.3877C45.4694 37.9592 49.7608 34.2229 50.4228 28.9899C50.7484 26.4159 51 23.3452 51 20C51 16.6548 50.7484 13.5841 50.4228 11.0101C49.7608 5.77712 45.4694 2.04084 40.2965 1.61228C36.4216 1.29127 31.4148 1 26 1C20.5852 1 15.5784 1.29127 11.7035 1.61228Z" stroke="#E6E6FA" stroke-width="2"/>
</svg>
