<svg width="52" height="40" viewBox="0 0 52 40" fill="none" xmlns="http://www.w3.org/2000/svg">
<mask id="mask0_1_40443" style="mask-type:alpha" maskUnits="userSpaceOnUse" x="2" y="2" width="48" height="36">
<path d="M2.56934 11.1356C3.16681 6.41247 7.0415 3.00193 11.7861 2.60887C15.6412 2.28949 20.6196 2 26 2C31.3804 2 36.3588 2.28949 40.2139 2.60887C44.9585 3.00193 48.8332 6.41247 49.4307 11.1356C49.752 13.6759 50 16.704 50 20C50 23.296 49.752 26.3241 49.4307 28.8644C48.8332 33.5875 44.9585 36.9981 40.2139 37.3911C36.3588 37.7105 31.3804 38 26 38C20.6196 38 15.6412 37.7105 11.7861 37.3911C7.0415 36.9981 3.16681 33.5875 2.56934 28.8644C2.248 26.3241 2 23.296 2 20C2 16.704 2.248 13.6759 2.56934 11.1356Z" fill="#00D0BF"/>
</mask>
<g mask="url(#mask0_1_40443)">
<rect x="50" y="38" width="48" height="36" transform="rotate(-180 50 38)" fill="#EE5757"/>
<path d="M22.8406 16.9993C22.0387 16.5012 21.1882 16.0881 20.3134 15.7479C19.5601 16.8657 19.1227 18.2022 19.1227 19.648C19.1227 20.3649 19.2321 21.0574 19.4386 21.7135C19.8031 20.8752 20.2648 20.0611 20.8237 19.2835C21.4191 18.433 22.0994 17.6676 22.8406 16.9993ZM20.7022 15.2376C21.6499 15.5656 22.5611 15.9909 23.4359 16.489C23.6303 16.3189 23.8369 16.1731 24.0313 16.0273C23.1079 15.517 22.1237 15.1039 21.1153 14.788C20.9695 14.9338 20.8237 15.0796 20.7022 15.2376ZM21.5527 14.3749C22.6462 14.6665 23.6911 15.0675 24.6752 15.5899C24.9061 15.4441 25.1369 15.3105 25.3556 15.1768C24.3107 14.6422 23.2051 14.2534 22.063 13.974C21.8808 14.0955 21.7107 14.2291 21.5527 14.3749ZM22.5854 13.646C23.7883 13.8889 24.9547 14.2777 26.0482 14.8123C27.1538 14.2777 28.3202 13.8889 29.5109 13.646C28.5025 13.0506 27.3118 12.7104 26.0482 12.7104C24.7846 12.7104 23.606 13.0506 22.5854 13.646ZM30.0334 13.9861C28.8913 14.2534 27.7856 14.6544 26.7407 15.1768C26.9716 15.3105 27.1903 15.4441 27.4211 15.5899C28.4174 15.0675 29.4623 14.6665 30.5436 14.3749C30.3857 14.2291 30.2156 14.0955 30.0334 13.9861ZM30.981 14.8002C29.9726 15.1039 29.0006 15.517 28.0651 16.0273C28.2716 16.1731 28.4782 16.3311 28.6726 16.489C29.5352 15.9909 30.4464 15.5656 31.3941 15.2376C31.2726 15.0796 31.139 14.9338 30.981 14.8002ZM31.7829 15.76C30.9081 16.0881 30.0698 16.5012 29.2679 16.9993C30.0091 17.6676 30.6773 18.433 31.2848 19.2835C31.8315 20.0611 32.2932 20.8752 32.6699 21.7135C32.8643 21.0453 32.9736 20.3649 32.9736 19.648C32.9736 18.2022 32.5362 16.8657 31.7829 15.76ZM31.1876 20.5228C30.4586 19.3443 29.5838 18.2994 28.6118 17.4124C28.3931 17.5704 28.1623 17.7283 27.9557 17.8863C29.596 19.4172 30.9203 21.3369 31.7586 23.5724C31.953 23.2808 32.1353 22.9771 32.2811 22.6733C31.9773 21.9444 31.6128 21.2275 31.1876 20.5228ZM27.3361 17.3638C27.5548 17.2059 27.7735 17.0479 28.0043 16.9021C27.8099 16.732 27.6034 16.5741 27.3968 16.4161C27.166 16.5619 26.9351 16.7077 26.7043 16.8657H26.7164C26.923 17.0236 27.1295 17.1937 27.3361 17.3638ZM26.0482 16.3918C26.279 16.246 26.522 16.1002 26.7407 15.9666C26.5099 15.8208 26.279 15.675 26.0482 15.5413C25.8173 15.675 25.5986 15.8208 25.3678 15.9666C25.5986 16.1002 25.8173 16.246 26.0482 16.3918ZM25.3921 16.8657C25.1612 16.7077 24.9425 16.5619 24.7117 16.4161C24.5051 16.5741 24.2986 16.732 24.092 16.89C24.3229 17.0479 24.5416 17.1937 24.7603 17.3517C24.9668 17.1816 25.1734 17.0236 25.3921 16.8657ZM26.0482 17.3517C25.8416 17.5096 25.6351 17.6797 25.4164 17.862C25.6351 18.0321 25.8416 18.2143 26.0482 18.3966C26.2547 18.2143 26.4613 18.0321 26.68 17.862C26.4734 17.6919 26.2669 17.5096 26.0482 17.3517ZM26.0482 19.6237C25.1248 20.62 24.3107 21.7621 23.6546 23.0378C23.2051 23.8883 22.8527 24.7753 22.5854 25.6622C23.606 26.2333 24.7846 26.5735 26.0482 26.5735C27.3118 26.5735 28.4903 26.2333 29.5109 25.6622C29.2436 24.7753 28.8913 23.8883 28.4417 23.0378C27.7856 21.7621 26.9837 20.62 26.0482 19.6237ZM22.0387 24.2285C22.8284 22.2117 23.9948 20.4499 25.4285 18.9919C25.222 18.7975 25.0154 18.6153 24.7967 18.4209C23.1322 20.0368 21.7957 22.0416 20.9817 24.3622C21.2125 24.6173 21.4555 24.8482 21.7228 25.0669C21.82 24.7874 21.9293 24.508 22.0387 24.2285ZM26.6678 18.9919C28.1015 20.4499 29.2679 22.2117 30.0698 24.2285C30.1792 24.508 30.2764 24.7874 30.3736 25.0669C30.6409 24.8482 30.896 24.6173 31.1268 24.3622C30.3007 22.0416 28.9642 20.0368 27.2996 18.4209C27.0809 18.6153 26.8744 18.7975 26.6678 18.9919ZM20.3377 23.5724C21.1761 21.3369 22.5004 19.4293 24.1528 17.8984C23.9341 17.7283 23.7154 17.5704 23.4845 17.4124C22.5125 18.3115 21.6378 19.3564 20.9088 20.535C20.4835 21.2275 20.119 21.9444 19.8153 22.6733C19.9611 22.9892 20.1433 23.2808 20.3377 23.5724ZM26.0846 12.1515C30.3614 12.1515 33.8484 15.6385 33.8484 19.9153C33.8484 24.1921 30.3614 27.6791 26.0846 27.6791C21.8078 27.6791 18.3208 24.1921 18.3208 19.9153C18.3208 15.6385 21.8078 12.1515 26.0846 12.1515ZM29.5109 10.4505C29.2922 10.7057 29.0492 11.0337 28.8062 11.5562C28.7455 11.4225 28.7455 11.2646 28.7819 11.0945C28.8427 10.5356 29.0006 10.1954 29.2922 9.72152C29.3894 9.55142 29.4866 9.40563 29.5352 9.22338C29.7175 8.67663 29.681 7.94763 29.2801 7.37659C29.3408 8.02053 29.1464 8.55513 28.9277 8.88318C28.8913 8.94393 28.8548 8.98038 28.8062 9.02898C28.5754 9.25983 28.3202 9.49068 27.9922 10.0253C27.8099 10.3169 27.6277 10.6692 27.4576 11.2281C27.3847 11.1066 27.3604 10.9608 27.3725 10.7907C27.3482 10.2197 27.4454 9.86732 27.652 9.34488C27.7249 9.16263 27.7978 9.00468 27.8221 8.81028C27.9071 8.25138 27.7613 7.53454 27.2753 7.03639C27.4333 7.65604 27.3361 8.21493 27.166 8.57943C27.1295 8.64018 27.1052 8.68878 27.0688 8.73738C26.8744 9.00468 26.6678 9.27198 26.4127 9.84302C26.2912 10.1711 26.1575 10.5477 26.0846 11.1188C25.9874 11.0094 25.9388 10.8636 25.9267 10.6935C25.8173 10.1346 25.8538 9.77012 25.9753 9.22338C26.0239 9.04113 26.0725 8.87103 26.0603 8.67663C26.0603 8.10558 25.8052 7.42519 25.2463 6.99994C25.5014 7.59529 25.4893 8.16633 25.3799 8.55513C25.3556 8.60373 25.3313 8.66448 25.307 8.71308C25.1612 9.01683 24.9911 9.30843 24.8332 9.91592C24.7603 10.2561 24.6874 10.6571 24.6995 11.2281C24.6023 11.1309 24.5294 10.9973 24.4808 10.8393C24.2864 10.2926 24.2621 9.94022 24.3107 9.36918C24.3229 9.17478 24.335 9.00468 24.3107 8.82243C24.2135 8.25138 23.849 7.61959 23.2415 7.29154C23.5817 7.83828 23.6546 8.40933 23.606 8.79813C23.5939 8.85888 23.5817 8.91963 23.5696 8.98038C23.4724 9.29628 23.3509 9.61217 23.2901 10.244C23.2658 10.5842 23.2537 10.9851 23.363 11.5562C23.2415 11.4711 23.1565 11.3496 23.0836 11.2038C22.8041 10.6935 22.7312 10.3412 22.6826 9.78227C22.6705 9.58787 22.6583 9.41778 22.5854 9.23553C22.4153 8.68878 21.9537 8.11773 21.2976 7.89903C21.7228 8.37288 21.8929 8.91963 21.8929 9.32058C21.8929 9.38133 21.8929 9.44208 21.8808 9.50282C21.8322 9.83087 21.7714 10.1711 21.8079 10.7907C21.8443 11.1309 21.8929 11.5319 22.0873 12.0786C21.9536 12.0179 21.8443 11.9085 21.7471 11.7749C21.3948 11.3253 21.2733 10.9851 21.1396 10.4384C21.091 10.244 21.0546 10.086 20.9574 9.90377C20.7022 9.40563 20.1555 8.90748 19.4751 8.78598C19.9611 9.19908 20.2162 9.72152 20.2891 10.1103C20.3013 10.1711 20.3013 10.2318 20.3013 10.2926C20.3134 10.6206 20.3013 10.9608 20.4349 11.5805C20.52 11.9085 20.6293 12.2973 20.9088 12.7955C20.7751 12.759 20.6536 12.674 20.5321 12.5525C20.1069 12.1637 19.9246 11.8478 19.7181 11.3253C19.6452 11.1431 19.5723 10.9851 19.4629 10.8272C19.1227 10.3776 18.5152 9.97667 17.8105 9.96452C18.3694 10.2926 18.6975 10.7543 18.8311 11.1309C18.8433 11.1917 18.8554 11.2524 18.8676 11.3132C18.9283 11.6412 18.9648 11.9814 19.1956 12.5646C19.3293 12.8805 19.5115 13.245 19.8639 13.6946C19.7181 13.6824 19.5844 13.6095 19.4508 13.5123C18.9769 13.1964 18.7461 12.9048 18.4423 12.431C18.3451 12.2609 18.2601 12.1151 18.1143 11.9814C17.7133 11.5805 17.0451 11.2767 16.3525 11.3739C16.9479 11.6169 17.3488 12.03 17.5432 12.3824C17.5675 12.431 17.5918 12.4917 17.6161 12.5525C17.7255 12.8562 17.8105 13.1843 18.1264 13.731C18.3087 14.0226 18.5395 14.3506 18.9648 14.7516C18.819 14.7516 18.6732 14.703 18.5274 14.6301C18.0049 14.3871 17.7376 14.1441 17.3731 13.7189C17.2395 13.5731 17.1301 13.4394 16.9722 13.3179C16.5105 12.9899 15.8058 12.7955 15.1375 13.002C15.7693 13.1478 16.231 13.488 16.4619 13.8039C16.5105 13.8525 16.5348 13.9011 16.5591 13.9618C16.717 14.2534 16.8628 14.5693 17.2638 15.0432C17.4825 15.3105 17.7619 15.6021 18.2358 15.9301C18.1021 15.9544 17.9563 15.9301 17.7862 15.8694C17.2395 15.7236 16.9357 15.517 16.5105 15.1525C16.3647 15.031 16.231 14.9217 16.0609 14.8245C15.5506 14.5693 14.8216 14.4964 14.1898 14.8002C14.8338 14.8366 15.3441 15.1161 15.6357 15.3834C15.6721 15.432 15.7086 15.4684 15.745 15.5292C15.9516 15.7843 16.1338 16.0759 16.6077 16.489C16.8628 16.7077 17.1909 16.9507 17.7133 17.2059C17.5797 17.2545 17.4217 17.2545 17.2638 17.218C16.6927 17.1573 16.3647 16.9993 15.8787 16.7077C15.7086 16.6105 15.5628 16.5133 15.3805 16.4647C14.8338 16.2825 14.1169 16.3189 13.5459 16.7199C14.1777 16.6591 14.7244 16.8535 15.0525 17.0722C15.1011 17.1087 15.1497 17.1451 15.1861 17.1937C15.4291 17.4246 15.66 17.6797 16.1824 18.0078C16.474 18.19 16.8385 18.3844 17.3853 18.5424C17.2638 18.6153 17.118 18.6396 16.9479 18.6396C16.3768 18.6517 16.0245 18.5545 15.502 18.348C15.3198 18.2751 15.1618 18.2022 14.9674 18.1779C14.4085 18.0928 13.6917 18.2386 13.1936 18.7246C13.8132 18.5667 14.3842 18.6639 14.7366 18.834C14.7973 18.8704 14.8459 18.8947 14.8945 18.9312C15.1618 19.1256 15.4291 19.3321 16.0123 19.5873C16.3282 19.7088 16.7049 19.8424 17.2759 19.9153C17.1666 20.0125 17.0208 20.0611 16.8628 20.0733C16.2918 20.1948 15.9394 20.1462 15.3805 20.0247C15.1983 19.9761 15.0282 19.9396 14.8338 19.9396C14.2627 19.9396 13.5823 20.1948 13.1693 20.7537C13.7524 20.4985 14.3235 20.5107 14.7123 20.62C14.773 20.6443 14.8216 20.6686 14.8824 20.6929C15.174 20.8387 15.4777 21.0088 16.0852 21.1668C16.4133 21.2397 16.8142 21.3126 17.3853 21.3004C17.2881 21.3976 17.1544 21.4705 16.9965 21.5191C16.4619 21.7135 16.0974 21.7378 15.5385 21.6892C15.3441 21.6771 15.174 21.6649 14.9796 21.6892C14.4207 21.7864 13.7889 22.1509 13.4608 22.7705C13.9954 22.4182 14.5665 22.3453 14.9674 22.3939C15.0282 22.406 15.0768 22.4182 15.1375 22.4303C15.4534 22.5397 15.7693 22.649 16.4011 22.7098C16.7413 22.7341 17.1423 22.7462 17.7133 22.6369C17.6283 22.7584 17.5068 22.8434 17.361 22.9163C16.8628 23.1958 16.4983 23.2687 15.9394 23.3173C15.745 23.3416 15.5749 23.3537 15.3927 23.4145C14.8459 23.5846 14.287 24.0463 14.0562 24.7024C14.5422 24.2771 15.0889 24.1192 15.4899 24.107C15.5506 24.107 15.6114 24.107 15.6721 24.1192C15.988 24.1678 16.3282 24.2285 16.96 24.1921C17.3002 24.1678 17.7012 24.107 18.2358 23.9126C18.1872 24.0463 18.0778 24.1556 17.932 24.2528C17.4825 24.6052 17.1423 24.7267 16.5955 24.8603C16.4133 24.9089 16.2432 24.9454 16.0731 25.0426C15.5628 25.2977 15.0768 25.8445 14.9553 26.5249C15.3562 26.0389 15.8787 25.7837 16.2675 25.7108C16.3282 25.6987 16.389 25.6987 16.4497 25.6987C16.7778 25.6865 17.1301 25.6987 17.7376 25.565C18.0657 25.48 18.4545 25.3706 18.9648 25.0912C18.9283 25.2248 18.8311 25.3585 18.7096 25.4678C18.3208 25.8931 18.0049 26.0753 17.4825 26.2819C17.3124 26.3669 17.1544 26.4277 16.9965 26.537C16.5348 26.8772 16.1338 27.4847 16.1217 28.1894C16.4497 27.6305 16.9236 27.3025 17.3002 27.1688C17.361 27.1567 17.4096 27.1445 17.4703 27.1324C17.7984 27.0716 18.1386 27.0352 18.7218 26.8043C19.0377 26.6707 19.4022 26.4884 19.8639 26.1482C19.8396 26.2819 19.7788 26.4155 19.6695 26.5492C19.3536 27.023 19.0741 27.2539 18.5881 27.5576C18.4302 27.6548 18.2844 27.7399 18.1386 27.8857C17.7376 28.2866 17.446 28.9549 17.5432 29.6474C17.7741 29.0521 18.1872 28.6511 18.5395 28.4567C18.6003 28.4324 18.6489 28.4081 18.7096 28.3838C19.0255 28.2866 19.3536 28.1894 19.8882 27.8735C20.1798 27.6913 20.5078 27.4604 20.9088 27.0352C20.9209 27.181 20.8723 27.3268 20.7873 27.4726C20.5443 27.995 20.3013 28.2623 19.876 28.6268C19.7302 28.7605 19.5966 28.8698 19.4872 29.0278C19.1592 29.4895 18.9648 30.1942 19.1713 30.8624C19.305 30.2306 19.6452 29.7689 19.9732 29.5381C20.0218 29.5016 20.0704 29.4652 20.119 29.4409C20.4106 29.2829 20.7265 29.1371 21.2125 28.7362C21.4677 28.5175 21.7593 28.238 22.0873 27.7642C22.1116 27.8978 22.0873 28.0558 22.0387 28.2137C21.8807 28.7605 21.6864 29.0642 21.3097 29.4895C21.1882 29.6353 21.0789 29.7689 20.9938 29.9512C20.7387 30.4615 20.6536 31.1783 20.9574 31.8101C21.006 31.1661 21.2733 30.6559 21.5527 30.3764C21.5892 30.3278 21.6378 30.2914 21.6864 30.2549C21.9537 30.0484 22.2331 29.8661 22.6462 29.3923C22.8649 29.1371 23.1079 28.8091 23.363 28.2866C23.4116 28.4203 23.4116 28.5782 23.3873 28.7362C23.3144 29.3072 23.1686 29.6353 22.877 30.1213C22.7677 30.2914 22.6826 30.4372 22.6219 30.6194C22.4518 31.1661 22.4882 31.8951 22.8892 32.4662C22.8284 31.8222 23.0107 31.2755 23.2415 30.9474C23.278 30.8988 23.3144 30.8502 23.3509 30.8138C23.5817 30.5708 23.8369 30.34 24.1771 29.8175C24.3472 29.5259 24.5416 29.1614 24.6995 28.6147C24.7724 28.7362 24.7967 28.882 24.7967 29.0521C24.821 29.6231 24.7238 29.9755 24.5051 30.4979C24.4322 30.6802 24.3715 30.8381 24.335 31.0325C24.25 31.5914 24.3958 32.3082 24.8818 32.8064C24.7238 32.1867 24.821 31.6157 25.0033 31.2633C25.0276 31.2026 25.0519 31.154 25.0883 31.1054C25.2827 30.8381 25.5014 30.5708 25.7444 29.9876C25.8781 29.6717 26.0117 29.2951 26.0846 28.724C26.1697 28.8334 26.2183 28.9792 26.2426 29.1371C26.3519 29.7082 26.3155 30.0605 26.1818 30.6194C26.1332 30.8017 26.0968 30.9717 26.0968 31.1661C26.0968 31.7372 26.3641 32.4176 26.923 32.8307C26.6678 32.2475 26.6678 31.6764 26.7893 31.2876C26.8015 31.2269 26.8258 31.1783 26.8501 31.1175C26.9959 30.826 27.166 30.5222 27.3239 29.9147C27.3968 29.5867 27.4697 29.1857 27.4576 28.6147C27.5669 28.7119 27.6277 28.8455 27.6763 29.0035C27.8828 29.5381 27.895 29.9026 27.8585 30.4736C27.8342 30.6558 27.8221 30.8259 27.8585 31.0203C27.9436 31.5914 28.3081 32.2232 28.9277 32.5512C28.5875 32.0045 28.5025 31.4334 28.5632 31.0446C28.5632 30.9839 28.5754 30.9232 28.5997 30.8624C28.6969 30.5465 28.8184 30.2306 28.8791 29.5988C28.8913 29.2586 28.9034 28.8577 28.8062 28.2866C28.9156 28.3717 29.0128 28.4932 29.0857 28.639C29.3651 29.1371 29.438 29.5016 29.4866 30.0605C29.4988 30.2549 29.5109 30.425 29.5717 30.6073C29.7539 31.154 30.2035 31.7129 30.8717 31.9437C30.4464 31.4577 30.2764 30.911 30.2642 30.5101C30.2642 30.4493 30.2642 30.3886 30.2764 30.3278C30.325 30.0119 30.3979 29.6717 30.3493 29.0399C30.325 28.6997 30.2642 28.2988 30.082 27.7642C30.2034 27.8249 30.3128 27.9221 30.41 28.0679C30.7624 28.5175 30.896 28.8577 31.0296 29.4044C31.0661 29.5867 31.1147 29.7568 31.1997 29.9269C31.467 30.4372 32.0016 30.9231 32.6942 31.0446C32.196 30.6437 31.9409 30.1213 31.868 29.7325C31.8558 29.6717 31.8558 29.611 31.8558 29.5502C31.8558 29.2222 31.868 28.882 31.7343 28.2623C31.6493 27.9343 31.5278 27.5455 31.2483 27.0352C31.3941 27.0716 31.5156 27.1688 31.625 27.2903C32.0502 27.6791 32.2325 27.995 32.4512 28.5175C32.5241 28.6876 32.5848 28.8455 32.7063 29.0035C33.0465 29.4652 33.654 29.8661 34.3466 29.8783C33.7998 29.5502 33.4718 29.0764 33.3381 28.6997C33.3138 28.639 33.3017 28.5904 33.2895 28.5296C33.2409 28.2016 33.1923 27.8614 32.9615 27.2782C32.8278 26.9623 32.6577 26.5978 32.3054 26.1482C32.4512 26.1604 32.5848 26.2211 32.7185 26.3305C33.1923 26.6464 33.4232 26.9258 33.7148 27.4118C33.812 27.5698 33.9092 27.7277 34.0428 27.8614C34.4438 28.2623 35.112 28.5539 35.8046 28.4567C35.2092 28.2259 34.8083 27.8128 34.626 27.4604C34.5896 27.3997 34.5653 27.3511 34.5531 27.2903C34.4438 26.9744 34.3466 26.6464 34.0307 26.1118C33.8484 25.8202 33.6176 25.4921 33.2045 25.0912C33.3381 25.0912 33.4839 25.1276 33.6419 25.2127C34.1522 25.4557 34.4316 25.6987 34.7961 26.1239C34.9176 26.2697 35.027 26.4034 35.1849 26.5127C35.6466 26.8529 36.3513 27.0352 37.0196 26.8408C36.3999 26.695 35.9382 26.3548 35.6952 26.0267C35.6588 25.9781 35.6223 25.9295 35.598 25.8809C35.4401 25.5893 35.3064 25.2734 34.9055 24.7874C34.6746 24.5323 34.3952 24.2407 33.9213 23.9126C34.0671 23.8883 34.2129 23.9126 34.3709 23.9612C34.9176 24.1192 35.2214 24.3257 35.6588 24.6902C35.8046 24.8117 35.9382 24.9211 36.1083 25.0061C36.6186 25.2613 37.3355 25.3463 37.9673 25.0426C37.3233 24.994 36.8252 24.7267 36.5336 24.4472C36.485 24.4108 36.4485 24.3622 36.4121 24.3136C36.2177 24.0463 36.0233 23.7668 35.5616 23.3537C35.2943 23.135 34.9662 22.892 34.4559 22.6369C34.5896 22.5883 34.7354 22.5883 34.9055 22.6126C35.4644 22.6855 35.8046 22.8313 36.2784 23.135C36.4485 23.2322 36.5943 23.3173 36.7766 23.378C37.3233 23.5481 38.0523 23.5117 38.6234 23.1107C37.9794 23.1715 37.4448 22.9892 37.1168 22.7584C37.0682 22.7219 37.0196 22.6855 36.971 22.649C36.7401 22.4182 36.5093 22.1631 35.9747 21.8229C35.6831 21.6528 35.3307 21.4584 34.7718 21.3004C34.8933 21.2275 35.0513 21.2032 35.2092 21.2032C35.7924 21.1789 36.1448 21.2761 36.6551 21.4948C36.8373 21.5677 36.9953 21.6285 37.1897 21.6649C37.7486 21.75 38.4654 21.6042 38.9635 21.1182C38.3439 21.2761 37.785 21.1789 37.4205 20.9967C37.3719 20.9724 37.3112 20.9481 37.2626 20.9116C36.9953 20.7172 36.728 20.5107 36.1569 20.2555C35.841 20.134 35.4522 20.0004 34.8812 19.9153C34.9905 19.8303 35.1363 19.7817 35.3064 19.7574C35.8653 19.648 36.2298 19.6845 36.7766 19.8181C36.9588 19.8667 37.1289 19.9032 37.3233 19.9032C37.8944 19.9032 38.5748 19.6359 39 19.0891C38.4047 19.3321 37.8336 19.3321 37.457 19.2106C37.3962 19.1985 37.3355 19.1742 37.2869 19.1499C36.9831 19.0041 36.6915 18.834 36.084 18.676C35.7438 18.6031 35.355 18.5302 34.7718 18.5424C34.869 18.433 35.0027 18.3723 35.1606 18.3237C35.7074 18.1171 36.0719 18.105 36.6308 18.1414C36.8252 18.1657 36.9953 18.1779 37.1897 18.1414C37.7486 18.0564 38.3804 17.6919 38.7084 17.0722C38.1617 17.4124 37.6028 17.4975 37.2018 17.4489C37.1411 17.4367 37.0803 17.4246 37.0196 17.4003C36.7037 17.3031 36.3878 17.1816 35.7681 17.1208C35.4279 17.1087 35.0148 17.0965 34.4559 17.2059C34.5288 17.0844 34.6503 16.9872 34.8083 16.9143C35.3064 16.6348 35.6588 16.5619 36.2177 16.5133C36.4121 16.5012 36.5822 16.489 36.7644 16.4283C37.3112 16.246 37.8822 15.7965 38.1009 15.1282C37.6271 15.5535 37.0803 15.7236 36.6794 15.7357C36.6186 15.7357 36.5579 15.7357 36.4971 15.7236C36.1691 15.675 35.8289 15.6021 35.2092 15.6507C34.869 15.675 34.4681 15.7357 33.9213 15.9301C33.9821 15.7965 34.0914 15.6871 34.2251 15.5899C34.6746 15.2376 35.0148 15.1039 35.5616 14.9703C35.756 14.9338 35.9139 14.8852 36.0962 14.8002C36.5943 14.5329 37.0925 13.9983 37.214 13.3058C36.8009 13.8039 36.2906 14.059 35.8896 14.1319C35.8289 14.1441 35.7681 14.1441 35.7074 14.1441C35.3793 14.1441 35.0391 14.1319 34.4316 14.2656C34.0914 14.3506 33.7026 14.4721 33.2045 14.7516C33.2409 14.6058 33.326 14.4843 33.4475 14.3749C33.8363 13.9497 34.1522 13.7674 34.6746 13.5488C34.8569 13.4759 35.0148 13.4151 35.1728 13.2936C35.6223 12.9534 36.0233 12.3459 36.0354 11.6534C35.7074 12.2001 35.2457 12.5282 34.869 12.6618C34.8083 12.6861 34.7475 12.6983 34.6868 12.7104C34.3587 12.7712 34.0185 12.8076 33.4353 13.0385C33.1316 13.1721 32.7671 13.3422 32.3054 13.6946C32.3175 13.5609 32.3904 13.4151 32.4876 13.2815C32.8035 12.8076 33.0951 12.5768 33.569 12.2852C33.7391 12.188 33.8849 12.0908 34.0185 11.9571C34.4195 11.5562 34.7232 10.8879 34.626 10.1954C34.383 10.7907 33.9699 11.1917 33.6176 11.3861C33.569 11.4104 33.5082 11.4347 33.4596 11.4468C33.1437 11.5562 32.8157 11.6534 32.2689 11.9693C31.9773 12.1515 31.6493 12.3824 31.2483 12.7955C31.2483 12.6618 31.2969 12.516 31.3698 12.3702C31.6128 11.8478 31.8558 11.5805 32.2811 11.2038C32.4269 11.0823 32.5605 10.973 32.682 10.815C33.0101 10.3533 33.2045 9.64862 32.9979 8.98038C32.8521 9.60002 32.5119 10.0617 32.196 10.3047C32.1474 10.3412 32.0988 10.3776 32.0381 10.4019C31.7465 10.5599 31.4306 10.6935 30.9567 11.0945C30.6895 11.3253 30.3978 11.6048 30.082 12.0786C30.0455 11.945 30.0698 11.787 30.1306 11.6291C30.2885 11.0823 30.4829 10.7786 30.8474 10.3412C30.9689 10.1954 31.0904 10.0739 31.1754 9.89162C31.4306 9.38133 31.5035 8.66448 31.1997 8.03268C31.1633 8.67663 30.896 9.17478 30.6166 9.46638C30.568 9.51498 30.5315 9.55142 30.4829 9.58787C30.2156 9.78227 29.924 9.97667 29.5109 10.4505Z" fill="#FCD95E"/>
</g>
<path d="M11.7035 1.61228C6.53056 2.04084 2.23921 5.77712 1.57724 11.0101C1.25164 13.5841 1 16.6548 1 20C1 23.3452 1.25164 26.4159 1.57724 28.9899C2.23922 34.2229 6.53056 37.9592 11.7035 38.3877C15.5784 38.7087 20.5852 39 26 39C31.4148 39 36.4216 38.7087 40.2965 38.3877C45.4694 37.9592 49.7608 34.2229 50.4228 28.9899C50.7484 26.4159 51 23.3452 51 20C51 16.6548 50.7484 13.5841 50.4228 11.0101C49.7608 5.77712 45.4694 2.04084 40.2965 1.61228C36.4216 1.29127 31.4148 1 26 1C20.5852 1 15.5784 1.29127 11.7035 1.61228Z" stroke="#E6E6FA" stroke-width="2"/>
</svg>
