<svg width="52" height="40" viewBox="0 0 52 40" fill="none" xmlns="http://www.w3.org/2000/svg">
<mask id="mask0_1_40660" style="mask-type:alpha" maskUnits="userSpaceOnUse" x="2" y="2" width="48" height="36">
<path d="M2.56934 11.1356C3.16681 6.41247 7.0415 3.00193 11.7861 2.60887C15.6412 2.28949 20.6196 2 26 2C31.3804 2 36.3588 2.28949 40.2139 2.60887C44.9585 3.00193 48.8332 6.41247 49.4307 11.1356C49.752 13.6759 50 16.704 50 20C50 23.296 49.752 26.3241 49.4307 28.8644C48.8332 33.5875 44.9585 36.9981 40.2139 37.3911C36.3588 37.7105 31.3804 38 26 38C20.6196 38 15.6412 37.7105 11.7861 37.3911C7.0415 36.9981 3.16681 33.5875 2.56934 28.8644C2.248 26.3241 2 23.296 2 20C2 16.704 2.248 13.6759 2.56934 11.1356Z" fill="#00D0BF"/>
</mask>
<g mask="url(#mask0_1_40660)">
<rect x="2" y="29" width="48" height="9" fill="#2E50A6"/>
<rect x="2" y="11" width="48" height="18" fill="#EE5757"/>
<path d="M21.2008 19.0325H30.8949V22.7626H21.2008V19.0325Z" fill="white" stroke="black" stroke-width="0.085488" stroke-linejoin="bevel"/>
<path d="M30.3949 21.0923H30.7003V22.4975H30.3949V21.0923ZM21.2008 20.3981H30.8949V20.8317H21.2008V20.3981ZM21.2008 19.8103H30.8949V20.1928H21.2008V19.8103Z" fill="white" stroke="black" stroke-width="0.085488" stroke-linejoin="bevel"/>
<path d="M21.2008 19.2233H30.8949V19.5942H21.2008V19.2233Z" fill="white" stroke="black" stroke-width="0.0841522" stroke-linejoin="bevel"/>
<path d="M23.753 21.0923H24.0584V22.4975H23.753V21.0923ZM27.9262 21.0923H28.2317V22.4975H27.9262V21.0923ZM21.2775 21.0923H21.5829V22.4975H21.2775V21.0923ZM21.8763 21.0923H22.1818V22.4975H21.8763V21.0923ZM22.5152 21.0923H22.8207V22.4975H22.5152V21.0923ZM23.1541 21.0923H23.4596V22.4975H23.1541V21.0923ZM28.5055 21.0923H28.8109V22.4975H28.5055V21.0923ZM29.1443 21.0923H29.4498V22.4975H29.1443V21.0923ZM29.7832 21.0923H30.0887V22.4975H29.7832V21.0923Z" fill="white" stroke="black" stroke-width="0.085488" stroke-linejoin="bevel"/>
<path d="M17.4092 22.9587C17.5591 22.8823 17.7301 22.7045 17.786 22.5056H34.2328C34.2888 22.7045 34.4598 22.8823 34.6097 22.9587H17.4092Z" fill="white" stroke="black" stroke-width="0.085488"/>
<path d="M25.7991 13.3541C25.7991 13.3541 25.7869 13.0038 25.9908 13C26.1949 13.0037 26.1825 13.3541 26.1825 13.3541H25.7991ZM24.7352 18.0001V17.5285C24.7283 17.2928 24.5 17.2757 24.4934 17.1038C24.4934 17.1038 24.4639 16.846 24.5319 16.7283C24.6242 17.0731 24.7922 17.0098 24.7922 16.868C24.7922 16.7442 24.6971 16.6292 24.5019 16.3288C24.4396 16.2327 24.4781 15.9318 24.5656 15.8242C24.5994 16.0858 24.6381 16.211 24.7504 16.211C24.819 16.211 24.8749 16.1663 24.8749 16.0353C24.8749 15.8686 24.7621 15.7845 24.7065 15.6328C24.6418 15.4558 24.6864 15.2754 24.7939 15.1745C24.8401 15.4326 24.8263 15.5355 24.9411 15.5355C25.1722 15.4624 24.9411 15.1278 24.8916 15.0433C24.8349 14.945 24.9681 14.7486 24.9681 14.7486C25.0416 14.9777 25.0652 14.9965 25.1444 14.9752C25.2444 14.9484 25.2315 14.8001 25.1095 14.6802C25.0325 14.6044 25.0406 14.4918 25.1234 14.4013C25.2064 14.5636 25.3127 14.5538 25.3229 14.4574L25.2562 14.0832H26.726L26.6531 14.4453C26.6322 14.5488 26.772 14.5713 26.8589 14.4014C26.9417 14.4919 26.9498 14.6046 26.8728 14.6803C26.7508 14.8001 26.7379 14.9484 26.8379 14.9753C26.9171 14.9966 26.9408 14.9778 27.0142 14.7487C27.0142 14.7487 27.1337 14.8824 27.0906 15.0434C27.0412 15.1278 26.8101 15.4625 27.0412 15.5355C27.1559 15.5355 27.1422 15.4326 27.1882 15.1746C27.2958 15.2755 27.3404 15.4559 27.2756 15.6329C27.2203 15.7845 27.1073 15.8687 27.1073 16.0354C27.1073 16.1664 27.1633 16.2111 27.2317 16.2111C27.3441 16.2111 27.3829 16.0858 27.4168 15.8243C27.5041 15.9319 27.5427 16.2328 27.4803 16.3288C27.2853 16.6292 27.19 16.7442 27.19 16.868C27.19 17.0098 27.3579 17.0731 27.4504 16.7283C27.5183 16.8459 27.4887 17.1038 27.4887 17.1038C27.4821 17.2757 27.2538 17.2928 27.247 17.5285V18.0001H24.7352ZM25.3502 14.0799L25.3164 13.8137H26.6655L26.6318 14.0799H25.3502ZM25.4405 13.8082L25.4115 13.5892H26.5703L26.5413 13.8082H25.4405ZM25.6245 13.5816L25.6052 13.3626H26.3768L26.3575 13.5816H25.6245ZM28.4373 22.9588C28.2646 22.8923 28.0134 22.71 28.0134 22.5269V20.4571L28.2381 20.1711H23.7424L23.9579 20.4573V22.527C23.9579 22.7101 23.7853 22.8924 23.6127 22.9589L28.4373 22.9588Z" fill="white" stroke="black" stroke-width="0.085488"/>
<path d="M24.5417 21.0923H24.8472V22.4975H24.5417V21.0923ZM27.1246 21.0923H27.43V22.4975H27.1246V21.0923Z" fill="white" stroke="black" stroke-width="0.085488" stroke-linejoin="bevel"/>
<path d="M23.6617 17.8153V20.1712H28.2637V19.6637L28.2704 17.8152C28.0823 17.8891 28.0492 18.0597 28.0492 18.0597V19.063H23.8964V18.0598C23.8964 18.0598 23.8501 17.8892 23.6618 17.8153H23.6617Z" fill="white" stroke="black" stroke-width="0.085488"/>
<path d="M27.6392 22.9588C27.4887 22.8923 27.1611 22.71 27.1611 22.5269V20.2107C27.1933 20.0814 27.3686 20.005 27.4814 19.9246H24.4299C24.5751 20.0015 24.7371 20.0653 24.7949 20.2108V22.527C24.7949 22.7102 24.5359 22.8925 24.3855 22.9589L27.6392 22.9588Z" fill="white" stroke="black" stroke-width="0.085488"/>
<path d="M28.0489 19.9491V18.2806H27.6307V18.1179H24.3221V18.2806H23.9038V19.9491H28.0489ZM26.9799 22.9588C26.8325 22.8923 26.6178 22.71 26.6178 22.5269V20.5494L26.739 20.3696H25.232L25.353 20.5494V22.5269C25.353 22.7103 25.1383 22.8924 24.9909 22.9588L26.9799 22.9588Z" fill="white" stroke="black" stroke-width="0.085488"/>
<path d="M25.604 20.37H26.3678V22.9577H25.604V20.37Z" fill="white" stroke="black" stroke-width="0.087358"/>
<path d="M26.7685 19.8009C26.7702 19.6306 27.2658 19.6229 27.5208 19.4777H24.4583C24.7133 19.6228 25.1972 19.6347 25.1972 19.8009L25.3009 20.1316L26.5687 20.1826L26.7685 19.8009Z" fill="white" stroke="black" stroke-width="0.085488" stroke-linejoin="bevel"/>
<path d="M27.3674 18.0001C27.3674 17.5827 27.3849 17.4221 27.5131 17.4221V18.7493C27.1988 18.8634 26.9743 19.2646 26.9743 19.2646H24.9971C24.9971 19.2646 24.7727 18.8634 24.4583 18.7493V17.4221C24.6163 17.4221 24.6173 17.5901 24.6173 18.0001H27.3674ZM27.5131 17.8289C27.5131 17.3503 27.9262 17.2965 27.9262 17.2965V17.7224C27.7691 17.7156 27.6932 17.8569 27.6932 18.0669C27.6932 18.277 27.8198 18.2804 27.8198 18.2804V19.4892H27.5132L27.5131 17.8289Z" fill="white" stroke="black" stroke-width="0.085488"/>
<path d="M24.46 17.8289C24.46 17.3503 24.0469 17.2965 24.0469 17.2965V17.7224C24.204 17.7156 24.2799 17.8569 24.2799 18.0669C24.2799 18.277 24.1533 18.2804 24.1533 18.2804V19.4892H24.4599L24.46 17.8289Z" fill="white" stroke="black" stroke-width="0.085488"/>
<path d="M24.6901 16.9856H27.2819M25.2744 14.5314H26.7335H25.2744ZM25.1015 14.9871H26.8836H25.1015ZM24.9286 15.54H27.05H24.9286ZM24.748 16.2155H27.264H24.748Z" stroke="black" stroke-width="0.07124"/>
<path d="M23.9038 19.4977H28.0489H23.9038ZM25.2191 19.4985H26.7555V20.0633H25.2191V19.4985Z" stroke="black" stroke-width="0.085488"/>
<path d="M25.0265 18.2471C25.2812 18.5529 25.2576 19.0717 25.2548 19.3775H26.7321C26.7291 19.0717 26.7055 18.5529 26.9602 18.2471H25.0265ZM25.857 14.7434L25.6546 14.6392V14.3413C25.7373 14.366 25.8303 14.3762 25.8393 14.5081C25.8681 14.3198 25.9201 14.329 26.0018 14.2557C26.0833 14.3289 26.1353 14.3198 26.1641 14.5081C26.1732 14.3762 26.266 14.3661 26.3489 14.3411V14.6391L26.1463 14.7434L25.857 14.7434Z" fill="white" stroke="black" stroke-width="0.085488"/>
<path d="M25.8433 15.2324L25.5072 15.0013V14.7268C25.625 14.754 25.7573 14.7651 25.7703 14.9099C25.8113 14.7034 25.8853 14.5968 26.0015 14.5164C26.1178 14.5968 26.1918 14.7034 26.2328 14.9099C26.2458 14.7651 26.3781 14.754 26.496 14.7268V15.0013L26.1597 15.2324H25.8433Z" fill="white" stroke="black" stroke-width="0.085488"/>
<path d="M25.8196 15.9948L25.433 15.6554V15.2519C25.5685 15.292 25.7207 15.3083 25.7356 15.5208C25.7827 15.2175 25.8678 15.0608 26.0014 14.9426C26.1351 15.0608 26.2203 15.2174 26.2674 15.5207C26.2823 15.3082 26.4344 15.2919 26.5698 15.2518V15.6551L26.1834 15.9946L25.8196 15.9948ZM26.5326 16.4455L26.183 16.929H25.7872L25.4376 16.4455H26.5326ZM25.2361 17.2573C25.411 17.3529 25.4755 17.5433 25.4942 17.9007H26.4781C26.4968 17.5433 26.5613 17.3529 26.7362 17.2573H25.2361Z" fill="white" stroke="black" stroke-width="0.085488"/>
<path d="M26.7506 16.4455V15.9597C26.5845 16.0055 26.4769 16.1037 26.4289 16.2373C26.4289 16.076 26.2168 15.7043 25.9854 15.5192C25.7533 15.7263 25.5376 16.0626 25.5419 16.2373C25.5025 16.1102 25.3864 16.0056 25.2203 15.9597V16.4455H26.7506Z" fill="white" stroke="black" stroke-width="0.085488" stroke-linejoin="bevel"/>
<path d="M26.8247 17.2573V16.7716C26.6426 16.8173 26.5247 16.9155 26.4721 17.0491C26.4721 16.8879 26.2395 16.516 25.9859 16.331C25.7316 16.5382 25.495 16.8745 25.4998 17.0491C25.4565 16.922 25.3292 16.8174 25.1471 16.7716V17.2573H26.8247Z" fill="white" stroke="black" stroke-width="0.085488" stroke-linejoin="bevel"/>
<path d="M27.0292 18.2539V17.6937C26.8026 17.7522 26.6619 17.9197 26.5905 18.0174C26.5905 17.7141 26.248 17.2516 25.9857 17.1001C25.7165 17.2556 25.3808 17.7335 25.3808 18.0174C25.3076 17.9203 25.1687 17.7522 24.9421 17.6937V18.2539H27.0292Z" fill="white" stroke="black" stroke-width="0.085488" stroke-linejoin="bevel"/>
<path d="M26.9065 19.4977V18.9216C26.7067 19 26.6469 19.1925 26.584 19.3234C26.6087 18.7391 26.255 18.1113 25.9857 17.952C25.7162 18.1113 25.3559 18.7527 25.3873 19.3234C25.3228 19.1934 25.2647 19 25.0648 18.9216V19.4977H26.9065Z" fill="white" stroke="black" stroke-width="0.085488" stroke-linejoin="bevel"/>
<path d="M26.7668 20.3699V19.7939C26.5574 19.8438 26.5445 19.9208 26.4779 20.05C26.5026 19.701 26.2555 19.3029 25.9861 19.1436C25.7166 19.3029 25.4695 19.7011 25.4942 20.05C25.4278 19.9209 25.4195 19.8438 25.2054 19.7939V20.3699H26.7668Z" fill="white" stroke="black" stroke-width="0.085488"/>
<path d="M17.7862 22.5056V20.7644C17.7291 20.5427 17.5408 20.3466 17.3994 20.3073V18.7745L17.718 18.9469L18.0819 20.5492V22.5056H17.7862Z" fill="white" stroke="black" stroke-width="0.085488"/>
<path d="M17.7862 22.5124V20.7644C17.7291 20.5427 17.5408 20.3466 17.3994 20.3074V18.6682C17.6132 18.6682 17.718 18.947 17.718 18.947L18.0819 20.5493V22.4989L17.7862 22.5124Z" fill="white" stroke="black" stroke-width="0.085488"/>
<path d="M17.5596 22.9588C17.7069 22.8923 17.9216 22.71 17.9216 22.5269V20.3507L17.8205 20.1711H21.528L21.3834 20.3507V22.5269C21.3834 22.71 21.5307 22.8923 21.6781 22.9588H17.5596Z" fill="white" stroke="black" stroke-width="0.085488"/>
<path d="M20.9299 22.9588C20.7826 22.8923 20.5679 22.71 20.5679 22.5269V20.4571L20.8763 20.1709L18.3558 20.1711L18.6642 20.4571V22.5269C18.6642 22.71 18.4495 22.8923 18.3021 22.9588H20.9299Z" fill="white" stroke="black" stroke-width="0.085488"/>
<path d="M20.5764 22.9588C20.429 22.8923 20.2144 22.71 20.2144 22.5269V20.6558L20.4162 20.3696H18.8149L19.0168 20.6558V22.5269C19.0168 22.71 18.8022 22.8923 18.6548 22.9588H20.5764Z" fill="white" stroke="black" stroke-width="0.085488"/>
<path d="M19.233 20.37H19.9982V22.959H19.233V20.37Z" fill="white" stroke="black" stroke-width="0.085488"/>
<path d="M18.1921 21.0923H18.4975V22.4975H18.1921V21.0923ZM20.8115 21.0923H21.117V22.4975H20.8115V21.0923ZM17.9314 18.7225H18.2994V20.163H17.9314V18.7225ZM17.9314 18.4516H18.2973V18.7191H17.9314V18.4516Z" fill="white" stroke="black" stroke-width="0.085488" stroke-linejoin="bevel"/>
<path d="M20.958 19.0326H21.4828V20.1446H20.958V19.0326Z" fill="white" stroke="black" stroke-width="0.0920777" stroke-linejoin="bevel"/>
<path d="M18.2934 20.1519V17.6867C18.3984 17.6867 18.4145 18.0479 18.6554 18.0479C18.7807 18.0479 18.7674 17.8983 18.697 17.7764C18.6347 17.6684 18.5576 17.5193 18.6623 17.2414C18.7342 17.454 18.9275 17.5215 18.8918 17.3882C18.8305 17.1592 18.6537 17.1215 18.7862 16.7662C18.8324 17.0626 19.0225 17.0496 18.9763 16.8772C18.9244 16.683 18.8168 16.6034 18.9494 16.3297C19.0238 16.6406 19.1242 16.6223 19.1242 16.4293C19.1242 16.1443 19.1133 15.8368 19.4823 15.7227C19.4823 15.7227 19.5036 15.4614 19.6366 15.4614C19.7697 15.4614 19.7911 15.7227 19.7911 15.7227C20.1599 15.8369 20.149 16.1444 20.149 16.4294C20.149 16.6224 20.2495 16.6407 20.3238 16.3297C20.4565 16.6035 20.3489 16.6831 20.297 16.8773C20.2506 17.0496 20.4409 17.0628 20.4869 16.7662C20.6195 17.1216 20.4428 17.1593 20.3813 17.3883C20.3457 17.5216 20.5389 17.4541 20.6108 17.2416C20.7156 17.5193 20.6385 17.6684 20.5761 17.7765C20.5058 17.8984 20.4924 18.048 20.6179 18.048C20.8586 18.048 20.8748 17.6868 20.9797 17.6868V20.1521L18.2934 20.1519ZM17.717 18.2898V20.1707H17.9309V18.285C17.8538 18.2461 17.7814 18.2401 17.717 18.2898Z" fill="white" stroke="black" stroke-width="0.085488"/>
<path d="M17.7238 19.5071C17.9889 19.6425 18.2515 19.7995 18.3179 20.1709H17.7238V19.5071ZM21.401 18.944V20.1713H21.5743V18.9409C21.5202 18.9155 21.4463 18.9115 21.401 18.944Z" fill="white" stroke="black" stroke-width="0.085488"/>
<path d="M21.5748 19.4977C21.3097 19.6331 21.047 19.7901 20.9806 20.1615H21.5748V19.4977Z" fill="white" stroke="black" stroke-width="0.085488"/>
<path d="M19.8216 16.6312L19.9761 16.5013V16.3349C19.9195 16.3404 19.8887 16.3599 19.847 16.4146C19.8114 16.3043 19.7333 16.2183 19.6287 16.1648C19.5239 16.2183 19.4459 16.3005 19.4104 16.4107C19.3687 16.356 19.3378 16.3404 19.2812 16.3349V16.5013L19.4359 16.6312H19.8216Z" fill="white" stroke="black" stroke-width="0.085488"/>
<path d="M19.9042 17.0477L19.976 16.8923V16.6759C19.9194 16.6816 19.8886 16.7013 19.8468 16.7568C19.8113 16.645 19.7332 16.5577 19.6286 16.5035C19.5238 16.5577 19.4458 16.6411 19.4103 16.7529C19.3685 16.6975 19.3377 16.6817 19.2811 16.6761V16.8924L19.353 17.0478L19.9042 17.0477Z" fill="white" stroke="black" stroke-width="0.085488"/>
<path d="M19.9153 17.6125L20.1449 17.3325V17.0562C20.0609 17.0656 20.015 17.0991 19.953 17.1931C19.9002 17.0038 19.7843 16.9624 19.6288 16.8705C19.4733 16.9624 19.3573 16.997 19.3046 17.1863C19.2426 17.0924 19.1967 17.0657 19.1129 17.0562V17.3325L19.3423 17.6125H19.9153Z" fill="white" stroke="black" stroke-width="0.085488"/>
<path d="M19.9826 18.1671C19.9826 18.1671 20.2501 17.9337 20.266 17.8055V17.5102C20.1624 17.5223 20.0643 17.5492 19.9877 17.6705C19.9226 17.426 19.8208 17.3579 19.6289 17.2393C19.437 17.3579 19.3353 17.426 19.2701 17.6705C19.1935 17.5491 19.0955 17.5223 18.9918 17.5101V17.8054C19.0256 17.9335 19.2751 18.1669 19.2751 18.1669L19.9826 18.1671Z" fill="white" stroke="black" stroke-width="0.085488"/>
<path d="M20.0967 19.191C20.0967 19.191 20.463 18.7855 20.4715 18.6274V18.1669C20.3344 18.1859 20.2047 18.2802 20.1035 18.4693C20.0173 18.0882 19.8829 17.8224 19.629 17.6376C19.3752 17.8224 19.2406 18.0882 19.1545 18.4694C19.0532 18.2801 18.9234 18.1857 18.7864 18.1668V18.6273C18.8126 18.7854 19.1612 19.1909 19.1612 19.1909L20.0967 19.191Z" fill="white" stroke="black" stroke-width="0.085488"/>
<path d="M20.0967 19.7967C20.0967 19.7967 20.4098 19.4779 20.4715 19.3396V18.8791C20.3344 18.8981 20.2047 18.9924 20.1035 19.1815C20.0173 18.8004 19.8829 18.5821 19.629 18.3973C19.3752 18.5821 19.2406 18.8004 19.1545 19.1816C19.0532 18.9922 18.9234 18.8979 18.7864 18.879V19.3395C18.8659 19.4779 19.1612 19.7966 19.1612 19.7966L20.0967 19.7967Z" fill="white" stroke="black" stroke-width="0.085488"/>
<path d="M20.2228 20.1485C20.1314 19.7508 20.0528 19.4559 19.6126 19.1569C19.1725 19.4559 19.0938 19.7508 19.0024 20.1485H20.2228Z" fill="white" stroke="black" stroke-width="0.085488"/>
<path d="M20.4494 20.37V19.794C20.2496 19.8723 20.0689 19.9882 20.0022 20.1172C19.9279 19.7975 19.7845 19.6566 19.6059 19.463C19.4273 19.6566 19.3078 19.7975 19.2332 20.1172C19.1666 19.9882 18.986 19.8723 18.786 19.794V20.37H20.4494Z" fill="white" stroke="black" stroke-width="0.085488"/>
<path d="M30.5181 22.4542V20.713C30.461 20.4913 30.2728 20.2952 30.1313 20.2559V18.7231L30.4499 18.8955L30.8139 20.4978V22.4542H30.5181Z" fill="white" stroke="black" stroke-width="0.085488"/>
<path d="M30.5181 22.461V20.713C30.461 20.4913 30.2728 20.2953 30.1313 20.256V18.6168C30.3452 18.6168 30.4499 18.8956 30.4499 18.8956L30.8139 20.4979V22.4475L30.5181 22.461Z" fill="white" stroke="black" stroke-width="0.085488"/>
<path d="M30.2915 22.9074C30.4389 22.8409 30.6535 22.6586 30.6535 22.4755V20.2993L30.5524 20.1197H34.26L34.1153 20.2993V22.4755C34.1153 22.6586 34.2627 22.8409 34.4101 22.9074H30.2915Z" fill="white" stroke="black" stroke-width="0.085488"/>
<path d="M33.6619 22.9074C33.5145 22.8409 33.2998 22.6586 33.2998 22.4755V20.4057L33.6082 20.1195L31.0877 20.1197L31.3961 20.4057V22.4755C31.3961 22.6586 31.1814 22.8409 31.0341 22.9074H33.6619Z" fill="white" stroke="black" stroke-width="0.085488"/>
<path d="M33.3083 22.9074C33.161 22.8409 32.9463 22.6586 32.9463 22.4755V20.6044L33.1482 20.3182H31.5469L31.7488 20.6044V22.4755C31.7488 22.6586 31.5341 22.8409 31.3867 22.9074H33.3083Z" fill="white" stroke="black" stroke-width="0.085488"/>
<path d="M31.965 20.3186H32.7301V22.9076H31.965V20.3186Z" fill="white" stroke="black" stroke-width="0.085488"/>
<path d="M30.924 21.041H31.2295V22.4461H30.924V21.041ZM33.5435 21.041H33.8489V22.4461H33.5435V21.041ZM30.6633 18.6711H31.0313V20.1116H30.6633V18.6711ZM30.6633 18.4002H31.0292V18.6677H30.6633V18.4002Z" fill="white" stroke="black" stroke-width="0.085488" stroke-linejoin="bevel"/>
<path d="M33.6899 18.9812H34.2147V20.0932H33.6899V18.9812Z" fill="white" stroke="black" stroke-width="0.0920777" stroke-linejoin="bevel"/>
<path d="M31.0253 20.1005V17.6353C31.1303 17.6353 31.1465 17.9965 31.3874 17.9965C31.5126 17.9965 31.4993 17.8469 31.4289 17.725C31.3666 17.617 31.2895 17.4679 31.3943 17.19C31.4662 17.4026 31.6595 17.4701 31.6238 17.3368C31.5624 17.1078 31.3857 17.0702 31.5181 16.7148C31.5643 17.0112 31.7544 16.9982 31.7083 16.8258C31.6563 16.6316 31.5487 16.5521 31.6814 16.2783C31.7557 16.5892 31.8562 16.5709 31.8562 16.3779C31.8562 16.0929 31.8452 15.7854 32.2142 15.6713C32.2142 15.6713 32.2355 15.41 32.3685 15.41C32.5016 15.41 32.523 15.6713 32.523 15.6713C32.8918 15.7855 32.8809 16.093 32.8809 16.378C32.8809 16.571 32.9815 16.5893 33.0557 16.2784C33.1885 16.5521 33.0809 16.6317 33.0289 16.8259C32.9826 16.9983 33.1729 17.0114 33.2189 16.7148C33.3514 17.0702 33.1747 17.1079 33.1132 17.3369C33.0776 17.4702 33.2708 17.4027 33.3427 17.1902C33.4475 17.4679 33.3704 17.617 33.3081 17.7251C33.2377 17.847 33.2243 17.9966 33.3498 17.9966C33.5905 17.9966 33.6067 17.6354 33.7117 17.6354V20.1007L31.0253 20.1005ZM30.449 18.2384V20.1193H30.6628V18.2336C30.5858 18.1947 30.5134 18.1887 30.449 18.2384Z" fill="white" stroke="black" stroke-width="0.085488"/>
<path d="M30.4558 19.4557C30.7209 19.5911 30.9835 19.7481 31.05 20.1195H30.4558V19.4557ZM34.133 18.8926V20.1199H34.3064V18.8895C34.2523 18.8642 34.1783 18.8602 34.133 18.8926Z" fill="white" stroke="black" stroke-width="0.085488"/>
<path d="M34.3067 19.4463C34.0416 19.5817 33.779 19.7387 33.7125 20.1101H34.3067V19.4463Z" fill="white" stroke="black" stroke-width="0.085488"/>
<path d="M32.5536 16.5798L32.7082 16.4499V16.2835C32.6516 16.2891 32.6208 16.3085 32.579 16.3633C32.5435 16.2529 32.4654 16.1669 32.3608 16.1134C32.256 16.1669 32.178 16.2491 32.1424 16.3593C32.1007 16.3046 32.0699 16.2891 32.0133 16.2835V16.4499L32.1679 16.5798H32.5536Z" fill="white" stroke="black" stroke-width="0.085488"/>
<path d="M32.6362 16.9963L32.708 16.8409V16.6245C32.6515 16.6302 32.6206 16.6499 32.5789 16.7054C32.5434 16.5936 32.4653 16.5063 32.3607 16.4521C32.2559 16.5064 32.1778 16.5897 32.1423 16.7015C32.1006 16.6461 32.0697 16.6303 32.0132 16.6247V16.841L32.0851 16.9964L32.6362 16.9963Z" fill="white" stroke="black" stroke-width="0.085488"/>
<path d="M32.6473 17.5611L32.8769 17.2811V17.0049C32.7929 17.0142 32.7471 17.0477 32.6851 17.1417C32.6323 16.9524 32.5164 16.911 32.3609 16.8192C32.2054 16.911 32.0894 16.9457 32.0366 17.1349C31.9746 17.041 31.9288 17.0143 31.845 17.0049V17.2811L32.0744 17.5611H32.6473Z" fill="white" stroke="black" stroke-width="0.085488"/>
<path d="M32.7147 18.1157C32.7147 18.1157 32.9822 17.8823 32.9981 17.7542V17.4588C32.8944 17.4709 32.7964 17.4978 32.7198 17.6191C32.6546 17.3747 32.5528 17.3065 32.361 17.1879C32.1691 17.3065 32.0673 17.3747 32.0022 17.6191C31.9255 17.4977 31.8275 17.4709 31.7239 17.4587V17.754C31.7576 17.8821 32.0072 18.1155 32.0072 18.1155L32.7147 18.1157Z" fill="white" stroke="black" stroke-width="0.085488"/>
<path d="M32.8288 19.1396C32.8288 19.1396 33.1951 18.7341 33.2036 18.576V18.1155C33.0664 18.1345 32.9368 18.2288 32.8356 18.4179C32.7494 18.0368 32.6149 17.771 32.3611 17.5862C32.1072 17.771 31.9726 18.0368 31.8866 18.418C31.7852 18.2287 31.6555 18.1344 31.5184 18.1154V18.576C31.5447 18.734 31.8932 19.1395 31.8932 19.1395L32.8288 19.1396Z" fill="white" stroke="black" stroke-width="0.085488"/>
<path d="M32.8288 19.7453C32.8288 19.7453 33.1419 19.4266 33.2036 19.2882V18.8277C33.0664 18.8467 32.9368 18.941 32.8356 19.1301C32.7494 18.749 32.6149 18.5307 32.3611 18.3459C32.1072 18.5307 31.9726 18.749 31.8866 19.1302C31.7852 18.9408 31.6555 18.8465 31.5184 18.8276V19.2881C31.5979 19.4265 31.8932 19.7452 31.8932 19.7452L32.8288 19.7453Z" fill="white" stroke="black" stroke-width="0.085488"/>
<path d="M32.9549 20.0971C32.8635 19.6994 32.7848 19.4045 32.3447 19.1055C31.9045 19.4045 31.8259 19.6994 31.7345 20.0971H32.9549Z" fill="white" stroke="black" stroke-width="0.085488"/>
<path d="M33.1815 20.3186V19.7426C32.9816 19.8209 32.801 19.9368 32.7343 20.0658C32.66 19.7461 32.5165 19.6052 32.338 19.4116C32.1593 19.6052 32.0398 19.7461 31.9653 20.0658C31.8987 19.9368 31.7181 19.8209 31.5181 19.7426V20.3186H33.1815Z" fill="white" stroke="black" stroke-width="0.085488"/>
<path d="M16.9749 22.9358V23.4616H35.0249V22.9357L16.9749 22.9358ZM16.6482 23.4665V24.1522H35.3515V23.4665H16.6482ZM35.3515 24.1522L16.6482 24.1573L16.1014 24.1522V25.057H35.8984V24.1524L35.3515 24.1522ZM15.5507 25.0628L15.5509 26.1285H36.4494L36.4493 25.0628H15.5507ZM36.4494 26.1285V26.1302H15.5509V26.1285H15V27.1942H37V26.1285H36.4494Z" fill="white" stroke="black" stroke-width="0.085488"/>
<path d="M18.934 22.9383H20.2974V27.192H18.934V22.9383Z" fill="white" stroke="black" stroke-width="0.0930572"/>
<path d="M19.2356 22.9383H19.9952V27.1921H19.2356V22.9383Z" fill="white" stroke="black" stroke-width="0.0928791"/>
<path d="M25.2948 22.9383H26.6583V27.192H25.2948V22.9383Z" fill="white" stroke="black" stroke-width="0.0930572"/>
<path d="M25.6057 22.9383H26.3653V27.1921H25.6057V22.9383Z" fill="white" stroke="black" stroke-width="0.0928791"/>
<path d="M31.6931 22.9383H33.0565V27.192H31.6931V22.9383Z" fill="white" stroke="black" stroke-width="0.0930572"/>
<path d="M31.9946 22.9383H32.7542V27.1921H31.9946V22.9383Z" fill="white" stroke="black" stroke-width="0.0928791"/>
<path d="M31.981 23.4631H32.7685M17.7861 22.5056H34.2329H17.7861ZM19.2219 26.6576H20.0094H19.2219ZM19.2219 26.1251H20.0094H19.2219ZM19.2219 25.5927H20.0094H19.2219ZM19.2219 25.0603H20.0094H19.2219ZM19.2219 24.5279H20.0094H19.2219ZM19.2219 23.9955H20.0094H19.2219ZM19.2219 23.4631H20.0094H19.2219ZM25.6091 26.6584H26.3423H25.6091ZM25.6091 26.1257H26.3423H25.6091ZM25.6091 25.593H26.3423H25.6091ZM25.6091 25.0603H26.3423H25.6091ZM25.6091 24.5277H26.3423H25.6091ZM25.6091 23.995H26.3423H25.6091ZM25.6091 23.4623H26.3423H25.6091ZM31.981 26.6576H32.7685H31.981ZM31.981 26.1251H32.7685H31.981ZM31.981 25.5927H32.7685H31.981ZM31.981 25.0603H32.7685H31.981ZM31.981 24.5279H32.7685H31.981ZM31.981 23.9955H32.7685H31.981Z" stroke="black" stroke-width="0.085488"/>
<rect x="2" y="2" width="48" height="9" fill="#2E50A6"/>
</g>
<path d="M11.7035 1.61228C6.53056 2.04084 2.23921 5.77712 1.57724 11.0101C1.25164 13.5841 1 16.6548 1 20C1 23.3452 1.25164 26.4159 1.57724 28.9899C2.23922 34.2229 6.53056 37.9592 11.7035 38.3877C15.5784 38.7087 20.5852 39 26 39C31.4148 39 36.4216 38.7087 40.2965 38.3877C45.4694 37.9592 49.7608 34.2229 50.4228 28.9899C50.7484 26.4159 51 23.3452 51 20C51 16.6548 50.7484 13.5841 50.4228 11.0101C49.7608 5.77712 45.4694 2.04084 40.2965 1.61228C36.4216 1.29127 31.4148 1 26 1C20.5852 1 15.5784 1.29127 11.7035 1.61228Z" stroke="#E6E6FA" stroke-width="2"/>
</svg>
