<svg width="52" height="40" viewBox="0 0 52 40" fill="none" xmlns="http://www.w3.org/2000/svg">
<mask id="mask0_1_33385" style="mask-type:alpha" maskUnits="userSpaceOnUse" x="2" y="2" width="48" height="36">
<path d="M2.56934 11.1356C3.16681 6.41247 7.0415 3.00193 11.7861 2.60887C15.6412 2.28949 20.6196 2 26 2C31.3804 2 36.3588 2.28949 40.2139 2.60887C44.9585 3.00193 48.8332 6.41247 49.4307 11.1356C49.752 13.6759 50 16.704 50 20C50 23.296 49.752 26.3241 49.4307 28.8644C48.8332 33.5875 44.9585 36.9981 40.2139 37.3911C36.3588 37.7105 31.3804 38 26 38C20.6196 38 15.6412 37.7105 11.7861 37.3911C7.0415 36.9981 3.16681 33.5875 2.56934 28.8644C2.248 26.3241 2 23.296 2 20C2 16.704 2.248 13.6759 2.56934 11.1356Z" fill="#00D0BF"/>
</mask>
<g mask="url(#mask0_1_33385)">
<rect y="1" width="52" height="22" fill="#EE5757"/>
<path d="M26.1126 7.19404C23.8336 6.25161 22.4385 6.07841 20.8797 6.06289C18.6222 6.07841 17.5448 7.04832 15.3923 7.1379C16.2452 8.05644 19.3364 8.281 20.6396 7.07459C22.577 7.27646 23.0166 7.79963 23.5362 8.45061C22.7275 8.32281 21.7958 8.08989 21.023 8.94512C20.3708 9.07651 20.0686 8.94512 18.953 8.94512C18.4322 8.94512 18.2519 9.20073 18.259 9.6618C18.5959 9.19596 20.9239 9.47068 21.4948 9.6618C21.9332 9.80871 22.399 10.4167 22.9545 10.5158C24.4105 10.775 26.4996 10.0142 28.4263 9.49577L32.5926 8.94512H29.7342L33.3092 8.22844C31.6454 8.22844 30.5488 8.22844 29.4225 8.22844C29.34 8.13408 29.143 8.01225 28.9853 7.90833C29.9851 7.26451 30.869 6.09394 31.0947 5.52896C32.8972 5.51105 34.0606 5.34382 35.4593 5.01654C26.2404 3.99647 28.3391 5.09657 26.1126 7.19404Z" fill="#F8D000" stroke="black" stroke-width="0.0549452" stroke-miterlimit="22.9256"/>
<path d="M21.8496 8.69308C21.9487 8.69308 22.0287 8.77311 22.0287 8.87225C22.0287 8.97139 21.9487 9.05142 21.8496 9.05142C21.7516 9.05142 21.6704 8.97139 21.6704 8.87225C21.6704 8.77311 21.7516 8.69308 21.8496 8.69308Z" fill="black"/>
<path d="M21.8496 8.69308C21.9487 8.69308 22.0287 8.77311 22.0287 8.87225C22.0287 8.97139 21.9487 9.05142 21.8496 9.05142C21.7516 9.05142 21.6704 8.97139 21.6704 8.87225C21.6704 8.77311 21.7516 8.69308 21.8496 8.69308Z" stroke="black" stroke-width="0.0179169" stroke-miterlimit="22.9256"/>
<path d="M24.2469 8.50198C24.2469 8.50198 23.498 8.94512 23.0011 8.94512" stroke="black" stroke-width="0.0549452" stroke-miterlimit="22.9256"/>
<path d="M28.4263 9.49577C28.4263 9.49577 29.1107 8.94512 29.7342 8.94512" stroke="black" stroke-width="0.0549452" stroke-miterlimit="22.9256"/>
<path d="M17.5209 6.86675C17.5209 6.86675 18.0775 6.57531 18.3403 6.49767" stroke="black" stroke-width="0.0549452" stroke-miterlimit="22.9256"/>
<path d="M19.8274 6.45109C19.8274 6.45109 20.7101 6.07005 21.6931 6.08917" stroke="black" stroke-width="0.0549452" stroke-miterlimit="22.9256"/>
<path d="M22.2139 6.54426C22.2139 6.54426 23.3713 6.34956 24.4403 6.58726" stroke="black" stroke-width="0.0549452" stroke-miterlimit="22.9256"/>
<path d="M23.5446 6.82376C23.5446 6.82376 24.5049 6.66251 25.4258 6.9229" stroke="black" stroke-width="0.0549452" stroke-miterlimit="22.9256"/>
<path d="M24.5323 7.11641C24.5323 7.11641 25.5106 7.12955 25.9968 7.31827" stroke="black" stroke-width="0.0549452" stroke-miterlimit="22.9256"/>
<path d="M15.3923 7.1379C15.3923 7.1379 16.7648 7.51296 17.8804 6.97665" stroke="black" stroke-width="0.0549452" stroke-miterlimit="22.9256"/>
<path d="M15.5668 7.30034C15.5668 7.30034 17.3489 7.7399 18.1635 6.92409" stroke="black" stroke-width="0.0549452" stroke-miterlimit="22.9256"/>
<path d="M16.1639 7.60852C16.1639 7.60852 17.5065 8.04091 18.5624 6.92529" stroke="black" stroke-width="0.0549452" stroke-miterlimit="22.9256"/>
<path d="M17.411 7.87967C17.411 7.87967 18.4956 7.56911 18.9065 6.93007" stroke="black" stroke-width="0.0549452" stroke-miterlimit="22.9256"/>
<path d="M18.259 7.89758C18.259 7.89758 18.9865 7.39352 19.248 6.9444" stroke="black" stroke-width="0.0549452" stroke-miterlimit="22.9256"/>
<path d="M27.6307 7.32902C27.6307 7.32902 27.915 7.68616 28.9853 7.90833" stroke="black" stroke-width="0.0549452" stroke-miterlimit="22.9256"/>
<path d="M27.8195 7.1606C27.8195 7.1606 28.2793 7.62047 29.2373 7.73275" stroke="black" stroke-width="0.0549452" stroke-miterlimit="22.9256"/>
<path d="M28.0513 6.9444C28.0513 6.9444 28.5183 7.34574 29.5348 7.49505" stroke="black" stroke-width="0.0549452" stroke-miterlimit="22.9256"/>
<path d="M28.2817 6.71387C28.2817 6.71387 28.996 7.19046 29.8095 7.2454" stroke="black" stroke-width="0.0549452" stroke-miterlimit="22.9256"/>
<path d="M28.5636 6.41286C28.5636 6.41286 29.0641 6.8799 30.0567 6.99576" stroke="black" stroke-width="0.0549452" stroke-miterlimit="22.9256"/>
<path d="M28.7739 6.17278C28.7739 6.17278 29.3604 6.67684 30.2825 6.74612" stroke="black" stroke-width="0.0549452" stroke-miterlimit="22.9256"/>
<path d="M28.9805 5.92194C28.9805 5.92194 29.34 6.33762 30.5261 6.44631" stroke="black" stroke-width="0.0549452" stroke-miterlimit="22.9256"/>
<path d="M29.1908 5.6508C29.1908 5.6508 29.5909 6.09036 30.7173 6.18592" stroke="black" stroke-width="0.0549452" stroke-miterlimit="22.9256"/>
<path d="M29.3544 5.42744C29.3544 5.42744 30.0591 5.95897 30.8749 5.94822" stroke="black" stroke-width="0.0549452" stroke-miterlimit="22.9256"/>
<path d="M29.4941 5.22438C29.4941 5.22438 30.4258 5.78339 30.9812 5.76547" stroke="black" stroke-width="0.0549452" stroke-miterlimit="22.9256"/>
<path d="M29.6637 4.96638C29.6637 4.96638 30.4043 5.42744 31.0947 5.52897" stroke="black" stroke-width="0.0549452" stroke-miterlimit="22.9256"/>
<path d="M26.4817 7.55716C26.4817 7.55716 26.7803 7.78291 27.0598 7.77336" stroke="black" stroke-width="0.0549452" stroke-miterlimit="22.9256"/>
<path d="M26.6537 7.38994C26.6537 7.38994 26.9129 7.61091 27.2688 7.60972" stroke="black" stroke-width="0.0549452" stroke-miterlimit="22.9256"/>
<path d="M26.8628 7.18449C26.8628 7.18449 27.1566 7.45922 27.509 7.40905" stroke="black" stroke-width="0.0549452" stroke-miterlimit="22.9256"/>
<path d="M27.061 6.98621C27.061 6.98621 27.4122 7.2251 27.7264 7.21793" stroke="black" stroke-width="0.0549452" stroke-miterlimit="22.9256"/>
<path d="M27.2808 6.76045C27.2808 6.76045 27.5412 6.98621 27.9532 7.00771" stroke="black" stroke-width="0.0549452" stroke-miterlimit="22.9256"/>
<path d="M27.4767 6.51201C27.4767 6.51201 27.7825 6.78315 28.1719 6.79271" stroke="black" stroke-width="0.0549452" stroke-miterlimit="22.9256"/>
<path d="M27.6833 6.33284C27.6833 6.33284 27.9796 6.52276 28.3988 6.55859" stroke="black" stroke-width="0.0549452" stroke-miterlimit="22.9256"/>
<path d="M27.8708 6.12381C27.8708 6.12381 28.271 6.26476 28.6377 6.2994" stroke="black" stroke-width="0.0549452" stroke-miterlimit="22.9256"/>
<path d="M28.087 5.86819C28.087 5.86819 28.363 6.0617 28.8527 6.04975" stroke="black" stroke-width="0.0549452" stroke-miterlimit="22.9256"/>
<path d="M28.2817 5.61258C28.2817 5.61258 28.609 5.82997 29.0295 5.83475" stroke="black" stroke-width="0.0549452" stroke-miterlimit="22.9256"/>
<path d="M28.425 5.3701C28.425 5.3701 28.8646 5.61616 29.2433 5.56122" stroke="black" stroke-width="0.0549452" stroke-miterlimit="22.9256"/>
<path d="M28.5852 5.07985C28.5852 5.07985 28.8635 5.38444 29.3819 5.37369" stroke="black" stroke-width="0.0549452" stroke-miterlimit="22.9256"/>
<path d="M28.6974 4.94846C28.6974 4.94846 29.1967 5.22915 29.5347 5.15749" stroke="black" stroke-width="0.0549452" stroke-miterlimit="22.9256"/>
<path d="M28.9088 4.7896C28.9088 4.7896 29.2875 5.02013 29.6339 5.01057" stroke="black" stroke-width="0.0549452" stroke-miterlimit="22.9256"/>
<path d="M29.2935 4.67373C29.2935 4.67373 29.9683 5.01774 30.8809 4.64507" stroke="black" stroke-width="0.0549452" stroke-miterlimit="22.9256"/>
<path d="M29.868 4.91859C29.868 4.91859 31.2321 5.23154 31.8234 4.68448" stroke="black" stroke-width="0.0549452" stroke-miterlimit="22.9256"/>
<path d="M30.9382 4.99982C30.9382 4.99982 31.8759 5.09776 32.9246 4.7657" stroke="black" stroke-width="0.0549452" stroke-miterlimit="22.9256"/>
<path d="M31.5618 5.00579C31.5618 5.00579 32.9856 5.29246 35.4593 5.01654" stroke="black" stroke-width="0.0549452" stroke-miterlimit="22.9256"/>
<path d="M18.646 7.86533C18.646 7.86533 19.2826 7.44607 19.5466 6.96351" stroke="black" stroke-width="0.0549452" stroke-miterlimit="22.9256"/>
<path d="M19.1227 7.78769C19.1227 7.78769 19.6351 7.29079 19.7844 6.98262" stroke="black" stroke-width="0.0549452" stroke-miterlimit="22.9256"/>
<path d="M19.5957 7.65988C19.5957 7.65988 20.0173 7.28124 20.1105 7.01607" stroke="black" stroke-width="0.0549452" stroke-miterlimit="22.9256"/>
<path d="M17.5364 6.99337C17.5364 6.99337 18.4513 6.79389 20.6396 7.07459" stroke="black" stroke-width="0.0549452" stroke-miterlimit="22.9256"/>
<path d="M18.3821 6.62786C18.3821 6.62786 19.1489 6.25639 19.8322 6.14291" stroke="black" stroke-width="0.0549452" stroke-miterlimit="22.9256"/>
<path d="M19.1442 6.47378C19.1442 6.47378 19.7044 6.20981 20.5309 6.07841" stroke="black" stroke-width="0.0549452" stroke-miterlimit="22.9256"/>
<path d="M20.4175 6.42362C20.4175 6.42362 21.1927 6.09275 22.1411 6.12381" stroke="black" stroke-width="0.0549452" stroke-miterlimit="22.9256"/>
<path d="M21.3981 6.42958C21.3981 6.42958 22.4611 6.19188 23.4406 6.32566" stroke="black" stroke-width="0.0549452" stroke-miterlimit="22.9256"/>
<path d="M24.2445 6.94918C24.2445 6.94918 25.0555 6.91215 25.9884 7.14388" stroke="black" stroke-width="0.0549452" stroke-miterlimit="22.9256"/>
<path d="M22.8577 6.62308C22.8577 6.62308 24.0199 6.56097 24.8166 6.70789" stroke="black" stroke-width="0.0549452" stroke-miterlimit="22.9256"/>
<path d="M30.0448 4.95204C30.0448 4.95204 30.4461 5.29963 31.5642 5.5206" stroke="black" stroke-width="0.0549452" stroke-miterlimit="22.9256"/>
<path d="M30.6754 5.00818C30.6754 5.00818 31.3037 5.36532 32.2951 5.48955" stroke="black" stroke-width="0.0549452" stroke-miterlimit="22.9256"/>
<path d="M31.3348 5.01295C31.3348 5.01295 32.2163 5.39638 33.148 5.42027" stroke="black" stroke-width="0.0549452" stroke-miterlimit="22.9256"/>
<path d="M32.3107 5.09657C32.3107 5.09657 33.2089 5.31277 34.3221 5.25424" stroke="black" stroke-width="0.0549452" stroke-miterlimit="22.9256"/>
<path d="M20.9358 6.41048C20.9358 6.41048 21.545 6.15964 22.6248 6.17995" stroke="black" stroke-width="0.0549452" stroke-miterlimit="22.9256"/>
<path d="M24.9528 7.32304C24.9528 7.32304 25.3183 7.27885 25.7722 7.49504" stroke="black" stroke-width="0.0549452" stroke-miterlimit="22.9256"/>
<path d="M23.5361 8.45062C23.7882 8.49004 24.0283 8.5199 24.2468 8.50198C25.1021 8.03495 25.6862 7.59658 26.1126 7.19405" stroke="black" stroke-width="0.0549452" stroke-miterlimit="22.9256"/>
<path d="M19.2764 21.6982C18.454 21.6095 17.6753 21.3379 16.9913 20.9013C16.3074 20.4648 15.7338 19.8732 15.3082 19.1654C16.0108 19.5716 16.8022 19.8097 17.6303 19.8639C18.4584 19.9181 19.3044 19.7873 20.1127 19.48" fill="#F8D000"/>
<path d="M19.2764 21.6982C18.454 21.6095 17.6753 21.3379 16.9913 20.9013C16.3074 20.4648 15.7338 19.8732 15.3082 19.1654C16.0108 19.5716 16.8022 19.8097 17.6303 19.8639C18.4584 19.9181 19.3044 19.7873 20.1127 19.48" stroke="black" stroke-width="0.0549452" stroke-miterlimit="22.9256"/>
<path d="M19.2416 23.124L14.4243 21.619L19.5669 20.7313" fill="#F8D000"/>
<path d="M19.2416 23.124L14.4243 21.619L19.5669 20.7313" stroke="black" stroke-width="0.0549452" stroke-miterlimit="22.9256"/>
<path d="M20.3055 19.5583C19.6102 19.1519 19.0313 18.5866 18.6068 17.8996C18.1822 17.2126 17.9217 16.4195 17.8424 15.5724C18.2964 16.2375 18.9008 16.7755 19.6158 17.1509C20.3308 17.5264 21.1402 17.7308 21.9908 17.7507" fill="#F8D000"/>
<path d="M20.3055 19.5583C19.6102 19.1519 19.0313 18.5866 18.6068 17.8996C18.1822 17.2126 17.9217 16.4195 17.8424 15.5724C18.2964 16.2375 18.9008 16.7755 19.6158 17.1509C20.3308 17.5264 21.1402 17.7308 21.9908 17.7507" stroke="black" stroke-width="0.0549452" stroke-miterlimit="22.9256"/>
<path d="M31.3634 25.0236C32.1401 25.221 32.9685 25.2077 33.7939 24.9845C34.6193 24.7614 35.4231 24.3334 36.1524 23.7289C35.3254 23.913 34.5023 23.8861 33.7375 23.6498C32.9727 23.4136 32.2835 22.9733 31.7151 22.3581" fill="#F8D000"/>
<path d="M31.3634 25.0236C32.1401 25.221 32.9685 25.2077 33.7939 24.9845C34.6193 24.7614 35.4231 24.3334 36.1524 23.7289C35.3254 23.913 34.5023 23.8861 33.7375 23.6498C32.9727 23.4136 32.2835 22.9733 31.7151 22.3581" stroke="black" stroke-width="0.0549452" stroke-miterlimit="22.9256"/>
<path d="M19.6927 20.8434L16.0192 17.432L20.9463 18.6686" fill="#F8D000"/>
<path d="M19.6927 20.8434L16.0192 17.432L20.9463 18.6686" stroke="black" stroke-width="0.0549452" stroke-miterlimit="22.9256"/>
<path d="M30.7955 26.194L35.9344 26.3838L31.6646 23.7785" fill="#F8D000"/>
<path d="M30.7955 26.194L35.9344 26.3838L31.6646 23.7785" stroke="black" stroke-width="0.0549452" stroke-miterlimit="22.9256"/>
<path d="M22.2837 17.5191C21.8887 16.737 21.6526 15.8908 21.5908 15.0362C21.5291 14.1817 21.6431 13.3381 21.9254 12.561C22.0199 13.4151 22.2877 14.2537 22.7113 15.0215C23.1348 15.7893 23.7045 16.469 24.3828 17.0158" fill="#F8D000"/>
<path d="M22.2837 17.5191C21.8887 16.737 21.6526 15.8908 21.5908 15.0362C21.5291 14.1817 21.6431 13.3381 21.9254 12.561C22.0199 13.4151 22.2877 14.2537 22.7113 15.0215C23.1348 15.7893 23.7045 16.469 24.3828 17.0158" stroke="black" stroke-width="0.0549452" stroke-miterlimit="22.9256"/>
<path d="M29.1688 27.1755C29.7533 27.807 30.4591 28.3212 31.2399 28.6843C32.0206 29.0473 32.8585 29.251 33.6985 29.282C32.9307 28.8901 32.2442 28.3506 31.6842 27.699C31.1241 27.0473 30.7031 26.2983 30.4489 25.5012" fill="#F8D000"/>
<path d="M29.1688 27.1755C29.7533 27.807 30.4591 28.3212 31.2399 28.6843C32.0206 29.0473 32.8585 29.251 33.6985 29.282C32.9307 28.8901 32.2442 28.3506 31.6842 27.699C31.1241 27.0473 30.7031 26.2983 30.4489 25.5012" stroke="black" stroke-width="0.0549452" stroke-miterlimit="22.9256"/>
<path d="M21.0993 18.3047L19.4465 13.2442L22.9961 17.3178" fill="#F8D000"/>
<path d="M21.0993 18.3047L19.4465 13.2442L22.9961 17.3178" stroke="black" stroke-width="0.0549452" stroke-miterlimit="22.9256"/>
<path d="M28.0307 28.0278L32.2309 31.3888L29.692 26.7048" fill="#F8D000"/>
<path d="M28.0307 28.0278L32.2309 31.3888L29.692 26.7048" stroke="black" stroke-width="0.0549452" stroke-miterlimit="22.9256"/>
<path d="M25.0574 16.5974C25.079 15.7552 25.2712 14.922 25.6213 14.1527C25.9713 13.3833 26.4714 12.6952 27.0886 12.1337C26.7676 12.916 26.607 13.7555 26.6174 14.5969C26.6278 15.4384 26.8089 16.2626 27.1489 17.0155" fill="#F8D000"/>
<path d="M25.0574 16.5974C25.079 15.7552 25.2712 14.922 25.6213 14.1527C25.9713 13.3833 26.4714 12.6952 27.0886 12.1337C26.7676 12.916 26.607 13.7555 26.6174 14.5969C26.6278 15.4384 26.8089 16.2626 27.1489 17.0155" stroke="black" stroke-width="0.0549452" stroke-miterlimit="22.9256"/>
<path d="M27.8448 17.3466C28.2191 16.5827 28.7456 15.9033 29.3898 15.3531C30.034 14.803 30.7813 14.3945 31.5824 14.1547C30.9594 14.7298 30.4591 15.4291 30.1144 16.2066C29.7698 16.9842 29.5886 17.8223 29.5829 18.6659" fill="#F8D000"/>
<path d="M27.8448 17.3466C28.2191 16.5827 28.7456 15.9033 29.3898 15.3531C30.034 14.803 30.7813 14.3945 31.5824 14.1547C30.9594 14.7298 30.4591 15.4291 30.1145 16.2066C29.7698 16.9842 29.5886 17.8223 29.5829 18.6659" stroke="black" stroke-width="0.0549452" stroke-miterlimit="22.9256"/>
<path d="M30.1281 19.0331C30.8054 18.5091 31.5812 18.1316 32.4047 17.9254C33.2281 17.7193 34.0805 17.6892 34.9056 17.8372C34.09 18.0757 33.3287 18.4833 32.6719 19.0333C32.0151 19.5833 31.4777 20.2631 31.0949 21.0281" fill="#F8D000"/>
<path d="M30.1281 19.0331C30.8054 18.5091 31.5812 18.1316 32.4047 17.9254C33.2281 17.7193 34.0805 17.6892 34.9056 17.8372C34.09 18.0757 33.3287 18.4833 32.6719 19.0333C32.0151 19.5833 31.4777 20.2631 31.0949 21.0281" stroke="black" stroke-width="0.0549452" stroke-miterlimit="22.9256"/>
<path d="M26.77 28.4798C26.9785 29.2917 27.3626 30.0462 27.8971 30.6938C28.4315 31.3413 29.1042 31.8671 29.8709 32.2366C29.3639 31.5682 29.0113 30.7985 28.8363 29.9783C28.6614 29.158 28.668 28.3057 28.8558 27.4775" fill="#F8D000"/>
<path d="M26.77 28.4798C26.9785 29.2917 27.3626 30.0462 27.8971 30.6938C28.4315 31.3413 29.1042 31.8671 29.8709 32.2366C29.3639 31.5682 29.0113 30.7985 28.8363 29.9783C28.6614 29.158 28.668 28.3057 28.8558 27.4775" stroke="black" stroke-width="0.0549452" stroke-miterlimit="22.9256"/>
<path d="M23.4794 16.7732L24.599 11.5983L25.8867 16.6711" fill="#F8D000"/>
<path d="M23.4794 16.7732L24.599 11.5983L25.8867 16.6711" stroke="black" stroke-width="0.0549452" stroke-miterlimit="22.9256"/>
<path d="M26.5009 16.8945L29.5369 12.6017L28.4756 17.7575" fill="#F8D000"/>
<path d="M26.5009 16.8945L29.5369 12.6017L28.4756 17.7575" stroke="black" stroke-width="0.0549452" stroke-miterlimit="22.9256"/>
<path d="M29.1287 18.0268L33.7652 15.5284L30.5233 19.7265" fill="#F8D000"/>
<path d="M29.1287 18.0268L33.7652 15.5284L30.5233 19.7265" stroke="black" stroke-width="0.0549452" stroke-miterlimit="22.9256"/>
<path d="M31.3113 21.65C32.1409 21.5565 32.9756 21.6402 33.7605 21.8958C34.5455 22.1513 35.2628 22.5727 35.8654 23.1324C35.0701 22.9088 34.2317 22.8585 33.4055 22.9849C32.5793 23.1114 31.7839 23.4117 31.0717 23.866" fill="#F8D000"/>
<path d="M31.3113 21.65C32.1409 21.5565 32.9756 21.6402 33.7605 21.8958C34.5455 22.1513 35.2628 22.5727 35.8654 23.1324C35.0701 22.9088 34.2317 22.8585 33.4055 22.9849C32.5793 23.1114 31.7839 23.4117 31.0717 23.866" stroke="black" stroke-width="0.0549452" stroke-miterlimit="22.9256"/>
<path d="M30.9205 20.2486L36.1912 20.5701L31.1992 22.476" fill="#F8D000"/>
<path d="M30.9205 20.2486L36.1912 20.5701L31.1992 22.476" stroke="black" stroke-width="0.0549452" stroke-miterlimit="22.9256"/>
<path d="M25.364 28.7156L27.582 33.449L27.6642 28.204" fill="#F8D000"/>
<path d="M25.364 28.7156L27.582 33.449L27.6642 28.204" stroke="black" stroke-width="0.0549452" stroke-miterlimit="22.9256"/>
<path d="M25.4259 28.6537C28.7902 28.6537 31.5176 25.9264 31.5176 22.562C31.5176 19.1976 28.7902 16.4702 25.4259 16.4702C22.0615 16.4702 19.3341 19.1976 19.3341 22.562C19.3341 25.9264 22.0615 28.6537 25.4259 28.6537Z" fill="#F8D000" stroke="black" stroke-width="0.0549452" stroke-miterlimit="22.9256"/>
<rect x="2" y="24" width="48" height="22" fill="#2E50A6"/>
<path d="M-6 23.5714C-4.09524 22.8095 -2.19048 22.8095 -0.285714 23.5714C1.61905 24.3333 3.52381 24.3333 5.42857 23.5714C7.33333 22.8095 9.2381 22.8095 11.1429 23.5714C13.0476 24.3333 14.9524 24.3333 16.8571 23.5714C18.7619 22.8095 20.7619 22.8095 22.8571 23.5714C24.9524 24.3333 27.0476 24.3333 29.1429 23.5714C31.2381 22.8095 33.2381 22.8095 35.1429 23.5714C37.0476 24.3333 38.9524 24.3333 40.8571 23.5714C42.7619 22.8095 44.6667 22.8095 46.5714 23.5714C48.4762 24.3333 50.381 24.3333 52.2857 23.5714C54.1905 22.8095 56.0952 22.8095 58 23.5714" stroke="white" stroke-width="2.28571"/>
<path d="M-6 28.5714C-4.09524 27.8095 -2.19048 27.8095 -0.285714 28.5714C1.61905 29.3333 3.52381 29.3333 5.42857 28.5714C7.33333 27.8095 9.2381 27.8095 11.1429 28.5714C13.0476 29.3333 14.9524 29.3333 16.8571 28.5714C18.7619 27.8095 20.7619 27.8095 22.8571 28.5714C24.9524 29.3333 27.0476 29.3333 29.1429 28.5714C31.2381 27.8095 33.2381 27.8095 35.1429 28.5714C37.0476 29.3333 38.9524 29.3333 40.8571 28.5714C42.7619 27.8095 44.6667 27.8095 46.5714 28.5714C48.4762 29.3333 50.381 29.3333 52.2857 28.5714C54.1905 27.8095 56.0952 27.8095 58 28.5714" stroke="white" stroke-width="2.28571"/>
<path d="M-6 33.5714C-4.09524 32.8095 -2.19048 32.8095 -0.285714 33.5714C1.61905 34.3333 3.52381 34.3333 5.42857 33.5714C7.33333 32.8095 9.2381 32.8095 11.1429 33.5714C13.0476 34.3333 14.9524 34.3333 16.8571 33.5714C18.7619 32.8095 20.7619 32.8095 22.8571 33.5714C24.9524 34.3333 27.0476 34.3333 29.1429 33.5714C31.2381 32.8095 33.2381 32.8095 35.1429 33.5714C37.0476 34.3333 38.9524 34.3333 40.8571 33.5714C42.7619 32.8095 44.6667 32.8095 46.5714 33.5714C48.4762 34.3333 50.381 34.3333 52.2857 33.5714C54.1905 32.8095 56.0952 32.8095 58 33.5714" stroke="white" stroke-width="2.28571"/>
</g>
<path d="M11.7035 1.61228C6.53056 2.04084 2.23921 5.77712 1.57724 11.0101C1.25164 13.5841 1 16.6548 1 20C1 23.3452 1.25164 26.4159 1.57724 28.9899C2.23922 34.2229 6.53056 37.9592 11.7035 38.3877C15.5784 38.7087 20.5852 39 26 39C31.4148 39 36.4216 38.7087 40.2965 38.3877C45.4694 37.9592 49.7608 34.2229 50.4228 28.9899C50.7484 26.4159 51 23.3452 51 20C51 16.6548 50.7484 13.5841 50.4228 11.0101C49.7608 5.77712 45.4694 2.04084 40.2965 1.61228C36.4216 1.29127 31.4148 1 26 1C20.5852 1 15.5784 1.29127 11.7035 1.61228Z" stroke="#E6E6FA" stroke-width="2"/>
</svg>
