<svg width="52" height="40" viewBox="0 0 52 40" fill="none" xmlns="http://www.w3.org/2000/svg">
<mask id="mask0_1_35823" style="mask-type:alpha" maskUnits="userSpaceOnUse" x="2" y="2" width="48" height="36">
<path d="M2.56934 11.1356C3.16681 6.41247 7.0415 3.00193 11.7861 2.60887C15.6412 2.28949 20.6196 2 26 2C31.3804 2 36.3588 2.28949 40.2139 2.60887C44.9585 3.00193 48.8332 6.41247 49.4307 11.1356C49.752 13.6759 50 16.704 50 20C50 23.296 49.752 26.3241 49.4307 28.8644C48.8332 33.5875 44.9585 36.9981 40.2139 37.3911C36.3588 37.7105 31.3804 38 26 38C20.6196 38 15.6412 37.7105 11.7861 37.3911C7.0415 36.9981 3.16681 33.5875 2.56934 28.8644C2.248 26.3241 2 23.296 2 20C2 16.704 2.248 13.6759 2.56934 11.1356Z" fill="#00D0BF"/>
</mask>
<g mask="url(#mask0_1_35823)">
<rect x="2" y="-4" width="48" height="49" fill="white"/>
<path d="M8.23804 14.4752L12.9909 7.34588L8.23804 14.4752ZM10.0204 15.6634L14.7732 8.53409L10.0204 15.6634ZM11.8027 16.8516L16.5555 9.72231L11.8027 16.8516Z" fill="black"/>
<path d="M11.8027 16.8516L16.5555 9.72231M8.23804 14.4752L12.9909 7.34588L8.23804 14.4752ZM10.0204 15.6634L14.7732 8.53409L10.0204 15.6634Z" stroke="black" stroke-width="1.42805"/>
<path d="M34.3782 31.8369L39.131 24.7076L34.3782 31.8369ZM36.1605 33.0251L40.9133 25.8958L36.1605 33.0251ZM37.9428 34.2133L42.6957 27.084L37.9428 34.2133Z" fill="black"/>
<path d="M37.9428 34.2133L42.6957 27.084M34.3782 31.8369L39.131 24.7076L34.3782 31.8369ZM36.1605 33.0251L40.9133 25.8958L36.1605 33.0251Z" stroke="black" stroke-width="1.42805"/>
<path d="M13.2535 34.236L8.46432 27.1311L13.2535 34.236ZM15.0298 33.0387L10.2405 25.9338L15.0298 33.0387ZM16.806 31.8414L12.0168 24.7365L16.806 31.8414Z" fill="black"/>
<path d="M16.806 31.8414L12.0168 24.7365M13.2535 34.236L8.46432 27.1311L13.2535 34.236ZM15.0298 33.0387L10.2405 25.9338L15.0298 33.0387Z" stroke="black" stroke-width="1.42805"/>
<path d="M39.1674 16.831L34.3781 9.72611L39.1674 16.831ZM40.9436 15.6337L36.1544 8.5288L40.9436 15.6337ZM42.7198 14.4364L37.9306 7.3315L42.7198 14.4364Z" fill="black"/>
<path d="M42.7198 14.4364L37.9306 7.3315M39.1674 16.831L34.3781 9.72611L39.1674 16.831ZM40.9436 15.6337L36.1544 8.5288L40.9436 15.6337Z" stroke="black" stroke-width="1.42805"/>
<path d="M35.5669 27.5455L41.508 31.5062L35.5669 27.5455Z" fill="black"/>
<path d="M35.5669 27.5455L41.508 31.5062" stroke="white" stroke-width="0.714027"/>
<path d="M11.5056 30.12L13.2879 28.9318L11.5056 30.12ZM35.5669 14.0791L37.6463 12.6929L35.5669 14.0791ZM39.4286 11.5046L41.2109 10.3164L39.4286 11.5046Z" fill="black"/>
<path d="M39.4286 11.5046L41.2109 10.3164M11.5056 30.12L13.2879 28.9318L11.5056 30.12ZM35.5669 14.0791L37.6463 12.6929L35.5669 14.0791Z" stroke="white" stroke-width="0.714027"/>
<path d="M33.0132 24.0491C35.2494 20.1758 33.9224 15.2231 30.0491 12.9869C26.1758 10.7506 21.2231 12.0777 18.9869 15.951C16.7507 19.8242 18.0778 24.7769 21.951 27.0132C25.8243 29.2494 30.777 27.9223 33.0132 24.0491Z" fill="#EE5757"/>
<path d="M18.9869 15.951C18.45 16.881 18.3045 17.9862 18.5824 19.0235C18.8603 20.0608 19.539 20.9451 20.469 21.4821C21.399 22.019 22.5042 22.1645 23.5415 21.8866C24.5787 21.6086 25.4631 20.93 26.0001 20C26.537 19.07 27.4214 18.3914 28.4587 18.1135C29.4959 17.8355 30.6011 17.981 31.5312 18.518C32.4612 19.0549 33.1398 19.9393 33.4177 20.9766C33.6956 22.0139 33.5501 23.1191 33.0132 24.0491C31.9393 25.9091 30.1706 27.2663 28.096 27.8222C26.0214 28.378 23.811 28.087 21.951 27.0132C20.091 25.9393 18.7338 24.1705 18.1779 22.096C17.622 20.0214 17.913 17.811 18.9869 15.951Z" fill="#2E50A6"/>
</g>
<path d="M11.7035 1.61228C6.53056 2.04084 2.23921 5.77712 1.57724 11.0101C1.25164 13.5841 1 16.6548 1 20C1 23.3452 1.25164 26.4159 1.57724 28.9899C2.23922 34.2229 6.53056 37.9592 11.7035 38.3877C15.5784 38.7087 20.5852 39 26 39C31.4148 39 36.4216 38.7087 40.2965 38.3877C45.4694 37.9592 49.7608 34.2229 50.4228 28.9899C50.7484 26.4159 51 23.3452 51 20C51 16.6548 50.7484 13.5841 50.4228 11.0101C49.7608 5.77712 45.4694 2.04084 40.2965 1.61228C36.4216 1.29127 31.4148 1 26 1C20.5852 1 15.5784 1.29127 11.7035 1.61228Z" stroke="#E6E6FA" stroke-width="2"/>
</svg>
