<svg width="52" height="40" viewBox="0 0 52 40" fill="none" xmlns="http://www.w3.org/2000/svg">
<mask id="mask0_1_32425" style="mask-type:alpha" maskUnits="userSpaceOnUse" x="2" y="2" width="48" height="36">
<path d="M2.56934 11.1356C3.16681 6.41247 7.0415 3.00193 11.7861 2.60887C15.6412 2.28949 20.6196 2 26 2C31.3804 2 36.3588 2.28949 40.2139 2.60887C44.9585 3.00193 48.8332 6.41247 49.4307 11.1356C49.752 13.6759 50 16.704 50 20C50 23.296 49.752 26.3241 49.4307 28.8644C48.8332 33.5875 44.9585 36.9981 40.2139 37.3911C36.3588 37.7105 31.3804 38 26 38C20.6196 38 15.6412 37.7105 11.7861 37.3911C7.0415 36.9981 3.16681 33.5875 2.56934 28.8644C2.248 26.3241 2 23.296 2 20C2 16.704 2.248 13.6759 2.56934 11.1356Z" fill="#00D0BF"/>
</mask>
<g mask="url(#mask0_1_32425)">
<rect x="2" y="-4" width="48" height="49" fill="white"/>
<path d="M25.628 12.6583C25.319 13.309 24.7371 13.7637 24.181 14.1941C24.0895 14.274 23.862 14.4287 24.027 14.5465C24.1684 14.3885 24.5564 14.5977 24.3309 14.7677C24.1289 14.9567 23.8508 15.026 23.6265 15.182C23.4278 15.29 23.2263 15.4026 23.0688 15.5678C23.0581 15.826 23.389 15.6831 23.5233 15.7906C23.6982 15.9776 23.4492 16.2928 23.2196 16.2207C22.9262 16.2297 22.7235 16.4879 22.6124 16.7343C22.3829 17.0893 21.9479 17.1944 21.6015 17.3964C21.4033 17.5119 21.2111 17.6398 21.0266 17.7745C20.7888 17.9372 20.9957 18.2592 21.2488 18.1801C21.522 18.1529 21.7677 17.9383 22.0506 18.0001C22.307 18.0902 22.379 18.4254 22.2916 18.6595C22.2269 18.8468 22.07 18.9788 21.9443 19.1252C21.7402 19.3319 21.4733 19.4661 21.1919 19.5302C20.92 19.6215 20.6756 19.7881 20.4972 20.013C20.2902 20.2214 20.0839 20.4332 19.8459 20.607C19.7708 20.7988 19.9829 20.9622 20.1597 20.9571C20.5325 20.9336 20.7907 20.6287 21.1081 20.4719C21.3715 20.3535 21.6815 20.6374 21.6171 20.9118C21.5967 21.1788 21.3467 21.3142 21.1245 21.3964C20.4712 21.7248 19.904 22.201 19.4004 22.7264C19.2962 22.9389 19.0098 22.8764 18.8556 23.0245C18.7552 23.2119 19.0073 23.3108 19.1577 23.2915C19.804 23.2138 20.4071 22.9406 20.9785 22.64C21.1909 22.5384 21.3904 22.4048 21.6113 22.3238C21.8188 22.2725 22.1082 22.3627 22.1452 22.5988C22.145 22.8482 21.898 22.9862 21.7024 23.0836C21.0993 23.4005 20.4374 23.5757 19.7927 23.7852C19.5514 23.7177 19.3695 24.1471 19.6343 24.2243C19.9142 24.3203 20.2119 24.2433 20.4982 24.2307C21.3837 24.0951 22.1582 23.6159 22.9858 23.3062C23.33 23.194 23.7361 23.3505 23.9059 23.673C24.0766 23.9604 24.0609 24.3383 23.881 24.6176C23.5966 25.2261 23.1641 25.7854 22.5837 26.1353C22.2193 26.3157 21.794 26.3847 21.4817 26.6609C21.1928 26.7561 21.6265 27.1464 21.6891 26.8366C21.8627 26.5999 22.1688 26.5291 22.4464 26.5193C22.8637 26.4739 23.3069 26.397 23.6311 26.1081C23.9218 25.8824 24.2082 25.571 24.6029 25.5661C24.8211 25.592 25.0368 25.7673 25.2584 25.6603C25.4522 25.5715 25.7563 25.6235 25.8069 25.8619C25.8995 26.1407 26.1868 26.2676 26.4147 26.4167C26.4972 26.5326 26.7713 26.8313 26.8345 26.5679C26.7835 26.3801 26.8564 26.0926 27.1028 26.1554C27.3181 26.165 27.5232 26.2444 27.738 26.2574C28.0241 26.3166 28.2628 26.5125 28.4252 26.749C28.537 26.9034 28.7818 27.1685 28.9637 26.9639C29.0765 26.7522 28.8611 26.5757 28.6857 26.5001C28.4299 26.3416 28.2113 26.1306 27.9876 25.9307C27.658 25.6229 27.3734 25.2313 27.321 24.7715C27.2501 24.313 27.2874 23.8453 27.3473 23.3881C27.4226 23.0937 27.7991 22.933 28.0623 23.0894C28.4327 23.2584 28.8005 23.5002 29.2251 23.474C29.8387 23.4872 30.4693 23.3697 31.0689 23.5475C31.6525 23.7313 32.0697 24.2238 32.6381 24.4369C32.7653 24.5142 32.9281 24.4406 32.9748 24.3047C33.0311 24.1825 32.9913 24.0263 32.8737 23.9567C32.2149 23.2917 31.3146 22.9687 30.5523 22.4491C30.3124 22.3882 30.2687 22.002 30.4905 21.8906C30.7822 21.6786 31.1949 21.7773 31.4536 21.9959C31.6721 22.1238 31.9183 22.2197 32.1747 22.2199C32.4373 22.1377 32.31 21.7578 32.0749 21.7292C31.6488 21.4886 31.3437 21.0939 30.9746 20.781C30.762 20.6011 30.5294 20.4189 30.2438 20.384C30.0877 20.3556 29.9281 20.3494 29.7699 20.36C29.6215 20.1988 29.8192 19.9519 30.011 19.9721C30.2079 19.9854 30.4035 20 30.6001 19.9726C30.8198 19.9565 31.0393 19.9338 31.2597 19.9323C31.4377 20.0534 31.7933 19.8441 31.6327 19.6352C31.4572 19.4815 31.2035 19.4948 30.9939 19.4159C30.6258 19.2956 30.2509 19.197 29.8712 19.1208C29.6057 19.105 29.6385 18.7556 29.8719 18.717C30.0246 18.66 30.1573 18.7774 30.3039 18.7955C30.5543 18.8494 30.8128 18.8487 31.063 18.9032C31.2752 18.7985 31.1112 18.4885 30.9193 18.4704C30.4664 18.3085 30.075 18.0162 29.6923 17.7319C29.2699 17.4142 28.8867 17.0468 28.4591 16.7364C28.3039 16.6403 28.0496 16.6126 28.0088 16.3995C27.9944 16.2035 28.2251 16.1142 28.3887 16.16C28.6208 16.2286 28.837 16.3479 29.0735 16.4065C29.2591 16.438 29.4504 16.4929 29.6293 16.4696C29.8563 16.3269 29.5318 16.2357 29.4144 16.1862C29.1118 16.0229 28.8428 15.8054 28.5703 15.598C28.3401 15.4015 28.7656 15.3147 28.912 15.3904C29.1567 15.4927 29.1846 15.1361 29.0016 15.0464C28.7861 14.9548 28.6008 14.8027 28.4054 14.6699C28.0522 14.4186 27.6523 14.2196 27.2183 14.1644C26.7316 14.1155 26.2774 13.8356 26.0192 13.4194C25.8591 13.1823 25.7416 12.9199 25.628 12.6583ZM24.0298 15.3886C24.2806 15.396 24.2421 15.8481 23.9951 15.8179C23.7553 15.8025 23.77 15.34 24.0298 15.3886ZM26.3957 15.632C26.6398 15.5884 26.6915 16.0337 26.4477 16.0547C26.1935 16.1002 26.0994 15.6038 26.3957 15.632ZM25.7028 15.6901C25.9502 15.7388 25.9062 16.1698 25.6565 16.1736C25.4738 16.2143 25.2768 16.339 25.092 16.2455C24.9417 16.0865 25.159 15.8515 25.3267 15.7998C25.4554 15.7738 25.5739 15.7154 25.7028 15.6901ZM27.2976 15.692C27.5361 15.7789 27.452 16.1999 27.2004 16.1945C26.9626 16.2264 26.8518 15.8296 27.0736 15.7355C27.1454 15.7101 27.2206 15.6886 27.2976 15.692ZM24.6073 16.1694C24.7826 16.3363 24.679 16.6584 24.4628 16.7353C24.307 16.822 24.0946 17.0271 23.9249 16.8583C23.8327 16.6522 24.0639 16.4971 24.1999 16.3827C24.3212 16.2883 24.4552 16.2027 24.6073 16.1694ZM26.6097 17.1001C26.8608 17.2187 26.7333 17.6711 26.4578 17.643C26.2315 17.5856 26.2611 17.1975 26.489 17.1666C26.5321 17.15 26.5716 17.1258 26.6097 17.1001ZM25.8132 17.1451C26.048 17.255 25.8687 17.6468 25.6322 17.5903C25.387 17.5615 25.3915 17.1305 25.6619 17.1694C25.7129 17.1669 25.7655 17.1655 25.8132 17.1451ZM27.5303 17.3698C27.7876 17.29 28.0974 17.555 28.0139 17.8239C27.8993 18.0323 27.6157 18.0587 27.4125 17.9808C27.1792 17.9693 27.0223 17.6186 27.2301 17.4701C27.3161 17.4052 27.4245 17.3784 27.5303 17.3698ZM23.7292 17.4372C23.942 17.3214 24.1679 17.6694 23.9869 17.8228C23.8671 17.999 23.5593 18.071 23.4236 17.8751C23.3108 17.6837 23.4932 17.3621 23.7292 17.4372H23.7292ZM22.7475 17.602C22.9888 17.635 23.1461 17.8542 23.2353 18.063C23.2571 18.3174 22.8817 18.4569 22.718 18.2719C22.5339 18.1564 22.3727 17.9188 22.4692 17.6983C22.5287 17.6108 22.6472 17.5746 22.7475 17.602H22.7475ZM28.6207 18.5214C28.8827 18.4524 29.0728 18.871 28.8479 19.0225C28.6422 19.2092 28.2423 18.9618 28.3496 18.6953C28.4029 18.5964 28.5095 18.5308 28.6207 18.5214H28.6207ZM25.2866 18.9989C25.5063 19.0269 25.4351 19.4076 25.232 19.3948C25.0141 19.3544 25.064 18.9775 25.2866 18.9989ZM24.1725 19.2012C24.3516 19.0744 24.5827 19.3838 24.4337 19.5279C24.2551 19.6538 24.0234 19.3493 24.1725 19.2012ZM25.944 19.2386C26.1516 19.3648 26.2749 19.6001 26.3007 19.8374C26.2012 20.0593 25.8168 20.0058 25.7735 19.7696C25.6976 19.5828 25.7676 19.3425 25.9439 19.2387L25.944 19.2386ZM26.5622 19.6057C26.8298 19.5385 26.7337 20.0978 26.5103 19.9038C26.436 19.8156 26.4758 19.6705 26.5621 19.6057H26.5622ZM22.6796 19.9951C22.8568 19.9433 23.1151 19.9978 23.164 20.2012C23.1846 20.3923 22.9744 20.4917 22.8204 20.5391C22.5736 20.6153 22.3322 20.7403 22.0668 20.7235C21.8678 20.6098 21.7964 20.3771 21.7255 20.1741C21.9175 19.9941 22.2002 20.0469 22.4382 20.0019C22.5186 19.9977 22.5991 19.9958 22.6796 19.9951ZM28.7022 20.8715C28.9282 20.7607 29.1713 21.1195 28.9821 21.2871C28.7454 21.5595 28.2897 21.6101 28.0066 21.3813C27.9727 21.1402 28.2134 20.9651 28.4274 20.9305C28.5174 20.905 28.6069 20.8671 28.7022 20.8715ZM29.9726 21.1468C30.2295 21.1026 30.4318 21.469 30.2483 21.6586C30.0748 21.9203 29.6608 21.9889 29.4242 21.7744C29.3319 21.5574 29.5191 21.3314 29.7183 21.2617C29.8039 21.2253 29.885 21.1786 29.9726 21.1468ZM23.5848 21.5363C23.8227 21.5128 24.0405 21.7488 24.0093 21.9833C24.1815 22.1527 23.8766 22.4684 23.7051 22.2929C23.554 22.1098 23.5547 21.8613 23.4962 21.6421C23.4935 21.5934 23.5296 21.5303 23.5848 21.5363ZM25.4106 21.673C25.6565 21.5667 25.9746 21.8609 25.8408 22.1099C25.7451 22.3127 25.3723 22.2447 25.3847 22.0098C25.3841 21.8974 25.375 21.7821 25.4106 21.673V21.673ZM24.5224 21.8322C24.7689 21.7757 24.9951 22.0953 24.8581 22.3085C24.6123 22.3304 24.4847 22.0387 24.5224 21.8322Z" fill="#59C785"/>
<rect x="2" y="2" width="48" height="8" fill="#EE5757"/>
<rect x="2" y="30" width="48" height="8" fill="#EE5757"/>
</g>
<path d="M11.7035 1.61228C6.53056 2.04084 2.23921 5.77712 1.57724 11.0101C1.25164 13.5841 1 16.6548 1 20C1 23.3452 1.25164 26.4159 1.57724 28.9899C2.23922 34.2229 6.53056 37.9592 11.7035 38.3877C15.5784 38.7087 20.5852 39 26 39C31.4148 39 36.4216 38.7087 40.2965 38.3877C45.4694 37.9592 49.7608 34.2229 50.4228 28.9899C50.7484 26.4159 51 23.3452 51 20C51 16.6548 50.7484 13.5841 50.4228 11.0101C49.7608 5.77712 45.4694 2.04084 40.2965 1.61228C36.4216 1.29127 31.4148 1 26 1C20.5852 1 15.5784 1.29127 11.7035 1.61228Z" stroke="#E6E6FA" stroke-width="2"/>
</svg>
