<svg width="52" height="40" viewBox="0 0 52 40" fill="none" xmlns="http://www.w3.org/2000/svg">
<mask id="mask0_1_41448" style="mask-type:alpha" maskUnits="userSpaceOnUse" x="2" y="2" width="48" height="36">
<path d="M2.56934 11.1356C3.16681 6.41247 7.0415 3.00193 11.7861 2.60887C15.6412 2.28949 20.6196 2 26 2C31.3804 2 36.3588 2.28949 40.2139 2.60887C44.9585 3.00193 48.8332 6.41247 49.4307 11.1356C49.752 13.6759 50 16.704 50 20C50 23.296 49.752 26.3241 49.4307 28.8644C48.8332 33.5875 44.9585 36.9981 40.2139 37.3911C36.3588 37.7105 31.3804 38 26 38C20.6196 38 15.6412 37.7105 11.7861 37.3911C7.0415 36.9981 3.16681 33.5875 2.56934 28.8644C2.248 26.3241 2 23.296 2 20C2 16.704 2.248 13.6759 2.56934 11.1356Z" fill="#00D0BF"/>
</mask>
<g mask="url(#mask0_1_41448)">
<rect x="2" y="-4" width="48" height="49" fill="#2C2929"/>
<path d="M30.5065 16.3552C29.7042 14.9655 28.4657 13.8794 26.9831 13.2653C25.5006 12.6512 23.8568 12.5435 22.3068 12.9588C20.7567 13.3741 19.3871 14.2893 18.4102 15.5624C17.4333 16.8355 16.9038 18.3954 16.9038 20.0001C16.9038 21.6048 17.4333 23.1646 18.4102 24.4377C19.3871 25.7108 20.7567 26.626 22.3068 27.0413C23.8568 27.4567 25.5006 27.3489 26.9831 26.7348C28.4657 26.1207 29.7042 25.0346 30.5065 23.6449C29.7514 24.5881 28.7219 25.2734 27.5604 25.6062C26.3989 25.939 25.1627 25.9028 24.0227 25.5027C22.8827 25.1025 21.895 24.3581 21.1964 23.3724C20.4977 22.3867 20.1224 21.2083 20.1224 20.0001C20.1224 18.7918 20.4977 17.6134 21.1964 16.6277C21.895 15.642 22.8827 14.8976 24.0227 14.4974C25.1627 14.0973 26.3989 14.0611 27.5604 14.3939C28.7219 14.7267 29.7514 15.412 30.5065 16.3552ZM36 20.0001L29.4393 17.8618L33.5215 23.4505V16.5496L29.4393 22.1384L36 20.0001Z" fill="white"/>
<rect x="2" y="2" width="48" height="8" fill="#EE5757"/>
<rect x="2" y="30" width="48" height="8" fill="#59C785"/>
</g>
<path d="M11.7035 1.61228C6.53056 2.04084 2.23921 5.77712 1.57724 11.0101C1.25164 13.5841 1 16.6548 1 20C1 23.3452 1.25164 26.4159 1.57724 28.9899C2.23922 34.2229 6.53056 37.9592 11.7035 38.3877C15.5784 38.7087 20.5852 39 26 39C31.4148 39 36.4216 38.7087 40.2965 38.3877C45.4694 37.9592 49.7608 34.2229 50.4228 28.9899C50.7484 26.4159 51 23.3452 51 20C51 16.6548 50.7484 13.5841 50.4228 11.0101C49.7608 5.77712 45.4694 2.04084 40.2965 1.61228C36.4216 1.29127 31.4148 1 26 1C20.5852 1 15.5784 1.29127 11.7035 1.61228Z" stroke="#E6E6FA" stroke-width="2"/>
</svg>
