<svg width="52" height="40" viewBox="0 0 52 40" fill="none" xmlns="http://www.w3.org/2000/svg">
<mask id="mask0_1_41457" style="mask-type:alpha" maskUnits="userSpaceOnUse" x="2" y="2" width="48" height="36">
<path d="M2.56934 11.1356C3.16681 6.41247 7.0415 3.00193 11.7861 2.60887C15.6412 2.28949 20.6196 2 26 2C31.3804 2 36.3588 2.28949 40.2139 2.60887C44.9585 3.00193 48.8332 6.41247 49.4307 11.1356C49.752 13.6759 50 16.704 50 20C50 23.296 49.752 26.3241 49.4307 28.8644C48.8332 33.5875 44.9585 36.9981 40.2139 37.3911C36.3588 37.7105 31.3804 38 26 38C20.6196 38 15.6412 37.7105 11.7861 37.3911C7.0415 36.9981 3.16681 33.5875 2.56934 28.8644C2.248 26.3241 2 23.296 2 20C2 16.704 2.248 13.6759 2.56934 11.1356Z" fill="#00D0BF"/>
</mask>
<g mask="url(#mask0_1_41457)">
<rect x="2" y="20" width="48" height="18" fill="#EE5757"/>
<rect x="2" y="2" width="48" height="18" fill="#2E50A6"/>
<path d="M14.6458 9.76703L14.5191 14.0747H10.148C9.61026 13.0293 9.16614 12.1414 9.16614 10.939C9.16614 9.93273 9.95759 9.13354 11.0983 9.13354C12.3058 9.13354 13.6325 9.54044 14.6458 9.76703Z" fill="#FFD83D"/>
<path d="M9.68872 9.96502V12.4515V9.96502Z" fill="#FFD83D"/>
<path d="M9.68872 9.96502V12.4515" stroke="black" stroke-width="0.103385" stroke-linecap="round" stroke-linejoin="round"/>
<path d="M10.0398 9.71128V13.0219V9.71128Z" fill="#FFD83D"/>
<path d="M10.0398 9.71128V13.0219" stroke="black" stroke-width="0.103385" stroke-linecap="round" stroke-linejoin="round"/>
<path d="M10.3909 9.53707V13.4812V9.53707Z" fill="#FFD83D"/>
<path d="M10.3909 9.53707V13.4812" stroke="black" stroke-width="0.103385" stroke-linecap="round" stroke-linejoin="round"/>
<path d="M10.7419 9.45568V12.549V9.45568Z" fill="#FFD83D"/>
<path d="M10.7419 9.45568V12.549" stroke="black" stroke-width="0.103385" stroke-linecap="round" stroke-linejoin="round"/>
<path d="M11.093 9.44033V12.5644V9.44033Z" fill="#FFD83D"/>
<path d="M11.093 9.44033V12.5644" stroke="black" stroke-width="0.103385" stroke-linecap="round" stroke-linejoin="round"/>
<path d="M11.4441 9.33119V12.5627V9.33119Z" fill="#FFD83D"/>
<path d="M11.4441 9.33119V12.5627" stroke="black" stroke-width="0.103385" stroke-linecap="round" stroke-linejoin="round"/>
<path d="M11.795 9.33119V12.5627V9.33119Z" fill="#FFD83D"/>
<path d="M11.795 9.33119V12.5627" stroke="black" stroke-width="0.103385" stroke-linecap="round" stroke-linejoin="round"/>
<path d="M12.1461 9.36286V12.5943V9.36286Z" fill="#FFD83D"/>
<path d="M12.1461 9.36286V12.5943" stroke="black" stroke-width="0.103385" stroke-linecap="round" stroke-linejoin="round"/>
<path d="M12.4972 9.39454V12.626V9.39454Z" fill="#FFD83D"/>
<path d="M12.4972 9.39454V12.626" stroke="black" stroke-width="0.103385" stroke-linecap="round" stroke-linejoin="round"/>
<path d="M12.8483 9.60042V12.8319V9.60042Z" fill="#FFD83D"/>
<path d="M12.8483 9.60042V12.8319" stroke="black" stroke-width="0.103385" stroke-linecap="round" stroke-linejoin="round"/>
<path d="M13.1993 9.63209V13.2753V9.63209Z" fill="#FFD83D"/>
<path d="M13.1993 9.63209V13.2753" stroke="black" stroke-width="0.103385" stroke-linecap="round" stroke-linejoin="round"/>
<path d="M13.5504 9.63209V12.8636V9.63209Z" fill="#FFD83D"/>
<path d="M13.5504 9.63209V12.8636" stroke="black" stroke-width="0.103385" stroke-linecap="round" stroke-linejoin="round"/>
<path d="M13.9015 9.63209V12.8636V9.63209Z" fill="#FFD83D"/>
<path d="M13.9015 9.63209V12.8636" stroke="black" stroke-width="0.103385" stroke-linecap="round" stroke-linejoin="round"/>
<path d="M11.8901 9.46615C12.632 9.58852 14.2615 10.3509 14.0756 11.3824C13.8123 12.8443 12.9586 12.2576 11.8268 12.0476L10.9716 12.3327C10.6656 12.645 10.2149 12.9312 9.91047 12.5544H9.40369V14.534H15.01V9.75122L11.8901 9.46615Z" fill="black" stroke="black" stroke-width="0.103385" stroke-linecap="round" stroke-linejoin="round"/>
<path d="M14.4003 9.46613C14.5884 9.46613 14.7408 9.31368 14.7408 9.12563C14.7408 8.93758 14.5884 8.78513 14.4003 8.78513C14.2123 8.78513 14.0598 8.93758 14.0598 9.12563C14.0598 9.31368 14.2123 9.46613 14.4003 9.46613Z" fill="#FFD83D" stroke="black" stroke-width="0.137847" stroke-linecap="round" stroke-linejoin="round"/>
<path d="M13.6351 9.28196C13.8231 9.28196 13.9756 9.12952 13.9756 8.94147C13.9756 8.75341 13.8231 8.60097 13.6351 8.60097C13.447 8.60097 13.2946 8.75341 13.2946 8.94147C13.2946 9.12952 13.447 9.28196 13.6351 9.28196Z" fill="#FFD83D" stroke="black" stroke-width="0.137847" stroke-linecap="round" stroke-linejoin="round"/>
<path d="M12.8588 9.087C13.0469 9.087 13.1993 8.93455 13.1993 8.7465C13.1993 8.55844 13.0469 8.406 12.8588 8.406C12.6708 8.406 12.5183 8.55844 12.5183 8.7465C12.5183 8.93455 12.6708 9.087 12.8588 9.087Z" fill="#FFD83D" stroke="black" stroke-width="0.137847" stroke-linecap="round" stroke-linejoin="round"/>
<path d="M12.0795 8.95702C12.2676 8.95702 12.42 8.80458 12.42 8.61652C12.42 8.42847 12.2676 8.27602 12.0795 8.27602C11.8915 8.27602 11.739 8.42847 11.739 8.61652C11.739 8.80458 11.8915 8.95702 12.0795 8.95702Z" fill="#FFD83D" stroke="black" stroke-width="0.137847" stroke-linecap="round" stroke-linejoin="round"/>
<path d="M11.3002 8.88016C11.4883 8.88016 11.6407 8.72771 11.6407 8.53966C11.6407 8.3516 11.4883 8.19916 11.3002 8.19916C11.1122 8.19916 10.9597 8.3516 10.9597 8.53966C10.9597 8.72771 11.1122 8.88016 11.3002 8.88016Z" fill="#FFD83D" stroke="black" stroke-width="0.137847" stroke-linecap="round" stroke-linejoin="round"/>
<path d="M10.5361 8.92371C10.7241 8.92371 10.8766 8.77126 10.8766 8.58321C10.8766 8.39516 10.7241 8.24271 10.5361 8.24271C10.348 8.24271 10.1956 8.39516 10.1956 8.58321C10.1956 8.77126 10.348 8.92371 10.5361 8.92371Z" fill="#FFD83D" stroke="black" stroke-width="0.137847" stroke-linecap="round" stroke-linejoin="round"/>
<path d="M9.80754 9.17314C9.99559 9.17314 10.148 9.02069 10.148 8.83264C10.148 8.64459 9.99559 8.49214 9.80754 8.49214C9.61949 8.49214 9.46704 8.64459 9.46704 8.83264C9.46704 9.02069 9.61949 9.17314 9.80754 9.17314Z" fill="#FFD83D" stroke="black" stroke-width="0.137847" stroke-linecap="round" stroke-linejoin="round"/>
<path d="M9.19389 9.6245C9.38194 9.6245 9.53439 9.47205 9.53439 9.284C9.53439 9.09595 9.38194 8.9435 9.19389 8.9435C9.00584 8.9435 8.85339 9.09595 8.85339 9.284C8.85339 9.47205 9.00584 9.6245 9.19389 9.6245Z" fill="#FFD83D" stroke="black" stroke-width="0.137847" stroke-linecap="round" stroke-linejoin="round"/>
<path d="M8.75835 10.254C8.9464 10.254 9.09884 10.1016 9.09884 9.91353C9.09884 9.72547 8.9464 9.57303 8.75835 9.57303C8.57029 9.57303 8.41785 9.72547 8.41785 9.91353C8.41785 10.1016 8.57029 10.254 8.75835 10.254Z" fill="#FFD83D" stroke="black" stroke-width="0.137847" stroke-linecap="round" stroke-linejoin="round"/>
<path d="M8.54851 10.9944C8.73656 10.9944 8.88901 10.842 8.88901 10.6539C8.88901 10.4659 8.73656 10.3134 8.54851 10.3134C8.36045 10.3134 8.20801 10.4659 8.20801 10.6539C8.20801 10.842 8.36045 10.9944 8.54851 10.9944Z" fill="#FFD83D" stroke="black" stroke-width="0.137847" stroke-linecap="round" stroke-linejoin="round"/>
<path d="M8.55644 11.7625C8.74449 11.7625 8.89694 11.6101 8.89694 11.422C8.89694 11.234 8.74449 11.0815 8.55644 11.0815C8.36839 11.0815 8.21594 11.234 8.21594 11.422C8.21594 11.6101 8.36839 11.7625 8.55644 11.7625Z" fill="#FFD83D" stroke="black" stroke-width="0.137847" stroke-linecap="round" stroke-linejoin="round"/>
<path d="M8.70293 12.5148C8.89098 12.5148 9.04342 12.3623 9.04342 12.1743C9.04342 11.9862 8.89098 11.8338 8.70293 11.8338C8.51487 11.8338 8.36243 11.9862 8.36243 12.1743C8.36243 12.3623 8.51487 12.5148 8.70293 12.5148Z" fill="#FFD83D" stroke="black" stroke-width="0.137847" stroke-linecap="round" stroke-linejoin="round"/>
<path d="M14.5508 9.57699L14.5191 10.0204C13.672 9.89064 12.4711 9.41862 11.3517 9.41862C10.3174 9.41862 9.5146 9.83234 9.5146 10.8756C9.5146 11.9039 9.95004 12.8389 10.5282 13.7897L9.92636 14.0747C9.38858 13.0293 8.94446 12.1414 8.94446 10.939C8.94446 9.93273 9.73591 8.9435 11.0983 8.9435C12.3058 8.9435 13.5375 9.3504 14.5508 9.57699Z" fill="#FFD83D" stroke="black" stroke-width="0.137847" stroke-linecap="round" stroke-linejoin="round"/>
<path d="M15.3977 9.76703L15.5244 14.0747H19.8954C20.4332 13.0293 20.8773 12.1414 20.8773 10.939C20.8773 9.93273 20.0859 9.13354 18.9452 9.13354C17.7377 9.13354 16.411 9.54044 15.3977 9.76703Z" fill="#FFD83D"/>
<path d="M20.3547 9.96502V12.4515V9.96502Z" fill="#FFD83D"/>
<path d="M20.3547 9.96502V12.4515" stroke="black" stroke-width="0.103385" stroke-linecap="round" stroke-linejoin="round"/>
<path d="M20.0037 9.71128V13.0219V9.71128Z" fill="#FFD83D"/>
<path d="M20.0037 9.71128V13.0219" stroke="black" stroke-width="0.103385" stroke-linecap="round" stroke-linejoin="round"/>
<path d="M19.6526 9.53707V13.4812V9.53707Z" fill="#FFD83D"/>
<path d="M19.6526 9.53707V13.4812" stroke="black" stroke-width="0.103385" stroke-linecap="round" stroke-linejoin="round"/>
<path d="M19.3015 9.45568V12.549V9.45568Z" fill="#FFD83D"/>
<path d="M19.3015 9.45568V12.549" stroke="black" stroke-width="0.103385" stroke-linecap="round" stroke-linejoin="round"/>
<path d="M18.9504 9.44033V12.5644V9.44033Z" fill="#FFD83D"/>
<path d="M18.9504 9.44033V12.5644" stroke="black" stroke-width="0.103385" stroke-linecap="round" stroke-linejoin="round"/>
<path d="M18.5994 9.33119V12.5627V9.33119Z" fill="#FFD83D"/>
<path d="M18.5994 9.33119V12.5627" stroke="black" stroke-width="0.103385" stroke-linecap="round" stroke-linejoin="round"/>
<path d="M18.2484 9.33119V12.5627V9.33119Z" fill="#FFD83D"/>
<path d="M18.2484 9.33119V12.5627" stroke="black" stroke-width="0.103385" stroke-linecap="round" stroke-linejoin="round"/>
<path d="M17.8973 9.36286V12.5943V9.36286Z" fill="#FFD83D"/>
<path d="M17.8973 9.36286V12.5943" stroke="black" stroke-width="0.103385" stroke-linecap="round" stroke-linejoin="round"/>
<path d="M17.5463 9.39454V12.626V9.39454Z" fill="#FFD83D"/>
<path d="M17.5463 9.39454V12.626" stroke="black" stroke-width="0.103385" stroke-linecap="round" stroke-linejoin="round"/>
<path d="M17.1952 9.60042V12.8319V9.60042Z" fill="#FFD83D"/>
<path d="M17.1952 9.60042V12.8319" stroke="black" stroke-width="0.103385" stroke-linecap="round" stroke-linejoin="round"/>
<path d="M16.8441 9.63209V13.2753V9.63209Z" fill="#FFD83D"/>
<path d="M16.8441 9.63209V13.2753" stroke="black" stroke-width="0.103385" stroke-linecap="round" stroke-linejoin="round"/>
<path d="M16.493 9.63209V12.8636V9.63209Z" fill="#FFD83D"/>
<path d="M16.493 9.63209V12.8636" stroke="black" stroke-width="0.103385" stroke-linecap="round" stroke-linejoin="round"/>
<path d="M16.142 9.63209V12.8636V9.63209Z" fill="#FFD83D"/>
<path d="M16.142 9.63209V12.8636" stroke="black" stroke-width="0.103385" stroke-linecap="round" stroke-linejoin="round"/>
<path d="M18.1533 9.46615C17.4115 9.58852 15.782 10.3509 15.9678 11.3824C16.2312 12.8443 17.0849 12.2576 18.2167 12.0476L19.0719 12.3327C19.3779 12.645 19.8285 12.9312 20.133 12.5544H20.6398V14.534H15.0334V9.75122L18.1533 9.46615Z" fill="black" stroke="black" stroke-width="0.103385" stroke-linecap="round" stroke-linejoin="round"/>
<path d="M15.6431 9.46613C15.4551 9.46613 15.3026 9.31368 15.3026 9.12563C15.3026 8.93758 15.4551 8.78513 15.6431 8.78513C15.8312 8.78513 15.9836 8.93758 15.9836 9.12563C15.9836 9.31368 15.8312 9.46613 15.6431 9.46613Z" fill="#FFD83D" stroke="black" stroke-width="0.137847" stroke-linecap="round" stroke-linejoin="round"/>
<path d="M16.4084 9.28196C16.2204 9.28196 16.0679 9.12952 16.0679 8.94147C16.0679 8.75341 16.2204 8.60097 16.4084 8.60097C16.5965 8.60097 16.7489 8.75341 16.7489 8.94147C16.7489 9.12952 16.5965 9.28196 16.4084 9.28196Z" fill="#FFD83D" stroke="black" stroke-width="0.137847" stroke-linecap="round" stroke-linejoin="round"/>
<path d="M17.1846 9.087C16.9966 9.087 16.8441 8.93455 16.8441 8.7465C16.8441 8.55844 16.9966 8.406 17.1846 8.406C17.3727 8.406 17.5251 8.55844 17.5251 8.7465C17.5251 8.93455 17.3727 9.087 17.1846 9.087Z" fill="#FFD83D" stroke="black" stroke-width="0.137847" stroke-linecap="round" stroke-linejoin="round"/>
<path d="M17.9639 8.95702C17.7759 8.95702 17.6234 8.80458 17.6234 8.61652C17.6234 8.42847 17.7759 8.27602 17.9639 8.27602C18.152 8.27602 18.3044 8.42847 18.3044 8.61652C18.3044 8.80458 18.152 8.95702 17.9639 8.95702Z" fill="#FFD83D" stroke="black" stroke-width="0.137847" stroke-linecap="round" stroke-linejoin="round"/>
<path d="M18.7432 8.88016C18.5552 8.88016 18.4027 8.72771 18.4027 8.53966C18.4027 8.3516 18.5552 8.19916 18.7432 8.19916C18.9313 8.19916 19.0837 8.3516 19.0837 8.53966C19.0837 8.72771 18.9313 8.88016 18.7432 8.88016Z" fill="#FFD83D" stroke="black" stroke-width="0.137847" stroke-linecap="round" stroke-linejoin="round"/>
<path d="M19.5074 8.92371C19.3193 8.92371 19.1669 8.77126 19.1669 8.58321C19.1669 8.39516 19.3193 8.24271 19.5074 8.24271C19.6955 8.24271 19.8479 8.39516 19.8479 8.58321C19.8479 8.77126 19.6955 8.92371 19.5074 8.92371Z" fill="#FFD83D" stroke="black" stroke-width="0.137847" stroke-linecap="round" stroke-linejoin="round"/>
<path d="M20.2359 9.17314C20.0479 9.17314 19.8954 9.02069 19.8954 8.83264C19.8954 8.64459 20.0479 8.49214 20.2359 8.49214C20.424 8.49214 20.5764 8.64459 20.5764 8.83264C20.5764 9.02069 20.424 9.17314 20.2359 9.17314Z" fill="#FFD83D" stroke="black" stroke-width="0.137847" stroke-linecap="round" stroke-linejoin="round"/>
<path d="M20.8496 9.6245C20.6615 9.6245 20.5091 9.47205 20.5091 9.284C20.5091 9.09595 20.6615 8.9435 20.8496 8.9435C21.0376 8.9435 21.1901 9.09595 21.1901 9.284C21.1901 9.47205 21.0376 9.6245 20.8496 9.6245Z" fill="#FFD83D" stroke="black" stroke-width="0.137847" stroke-linecap="round" stroke-linejoin="round"/>
<path d="M21.2851 10.254C21.0971 10.254 20.9446 10.1016 20.9446 9.91353C20.9446 9.72547 21.0971 9.57303 21.2851 9.57303C21.4732 9.57303 21.6256 9.72547 21.6256 9.91353C21.6256 10.1016 21.4732 10.254 21.2851 10.254Z" fill="#FFD83D" stroke="black" stroke-width="0.137847" stroke-linecap="round" stroke-linejoin="round"/>
<path d="M21.495 10.9944C21.3069 10.9944 21.1545 10.842 21.1545 10.6539C21.1545 10.4659 21.3069 10.3134 21.495 10.3134C21.683 10.3134 21.8354 10.4659 21.8354 10.6539C21.8354 10.842 21.683 10.9944 21.495 10.9944Z" fill="#FFD83D" stroke="black" stroke-width="0.137847" stroke-linecap="round" stroke-linejoin="round"/>
<path d="M21.487 11.7625C21.299 11.7625 21.1465 11.6101 21.1465 11.422C21.1465 11.234 21.299 11.0815 21.487 11.0815C21.6751 11.0815 21.8275 11.234 21.8275 11.422C21.8275 11.6101 21.6751 11.7625 21.487 11.7625Z" fill="#FFD83D" stroke="black" stroke-width="0.137847" stroke-linecap="round" stroke-linejoin="round"/>
<path d="M21.3405 12.5148C21.1525 12.5148 21 12.3623 21 12.1743C21 11.9862 21.1525 11.8338 21.3405 11.8338C21.5286 11.8338 21.681 11.9862 21.681 12.1743C21.681 12.3623 21.5286 12.5148 21.3405 12.5148Z" fill="#FFD83D" stroke="black" stroke-width="0.137847" stroke-linecap="round" stroke-linejoin="round"/>
<path d="M15.4926 9.57699L15.5243 10.0204C16.3715 9.89064 17.5724 9.41862 18.6918 9.41862C19.726 9.41862 20.5289 9.83234 20.5289 10.8756C20.5289 11.9039 20.0934 12.8389 19.5153 13.7897L20.1171 14.0747C20.6549 13.0293 21.099 12.1414 21.099 10.939C21.099 9.93273 20.3075 8.9435 18.9451 8.9435C17.7376 8.9435 16.506 9.3504 15.4926 9.57699Z" fill="#FFD83D" stroke="black" stroke-width="0.137847" stroke-linecap="round" stroke-linejoin="round"/>
<path d="M15.0313 5.00002L14.6759 5.66556L15.0313 6.32895L15.3867 5.66556L15.0313 5.00002ZM15.0313 6.68003L14.6759 7.34341L15.0313 8.00895L15.3867 7.34341L15.0313 6.68003Z" fill="#FFD83D" stroke="black" stroke-width="0.137847" stroke-linecap="round" stroke-linejoin="round"/>
<path d="M13.7643 6.50449L14.3247 6.85987L14.8834 6.50449L14.3247 6.1491L13.7643 6.50449ZM15.179 6.50449L15.7376 6.85987L16.2981 6.50449L15.7376 6.1491L15.179 6.50449Z" fill="#FFD83D" stroke="black" stroke-width="0.137847" stroke-linecap="round" stroke-linejoin="round"/>
<path d="M15.0312 6.7817C15.1799 6.7817 15.3004 6.66116 15.3004 6.51247C15.3004 6.36378 15.1799 6.24324 15.0312 6.24324C14.8825 6.24324 14.762 6.36378 14.762 6.51247C14.762 6.66116 14.8825 6.7817 15.0312 6.7817Z" fill="#FFD83D" stroke="black" stroke-width="0.137847" stroke-linecap="round" stroke-linejoin="round"/>
<path d="M15.0313 8.95139C15.4292 8.95139 15.7518 8.62877 15.7518 8.2308C15.7518 7.83283 15.4292 7.51021 15.0313 7.51021C14.6333 7.51021 14.3107 7.83283 14.3107 8.2308C14.3107 8.62877 14.6333 8.95139 15.0313 8.95139Z" fill="#FFD83D" stroke="black" stroke-width="0.137847" stroke-linecap="round" stroke-linejoin="round"/>
<path d="M14.3334 8.40742C14.5605 8.36948 14.7934 8.34926 15.0312 8.34926C15.2691 8.34926 15.502 8.36948 15.7291 8.40742M14.8503 7.53295C14.8503 7.74761 14.8488 7.87234 14.8481 7.98957C14.6744 7.99728 14.5031 8.01553 14.3355 8.04341L14.8503 7.53295ZM15.7269 8.04341C15.5593 8.01553 15.388 7.99728 15.2143 7.98957C15.2143 7.87251 15.2143 7.74814 15.2143 7.53295L15.7269 8.04341Z" stroke="black" stroke-width="0.103385" stroke-linecap="round" stroke-linejoin="round"/>
<path d="M14.3269 9.44988C14.2586 10.6272 14.1196 11.8263 13.6614 12.6979L14.4066 12.3963C14.6669 11.4088 14.7216 10.1327 14.8008 9.52957L14.3269 9.44988ZM15.7355 9.44988L15.2617 9.52957C15.3409 10.1327 15.3956 11.4088 15.6558 12.3963L16.4011 12.6979C15.9429 11.8263 15.8039 10.6272 15.7355 9.44988Z" fill="#FFD83D" stroke="black" stroke-width="0.137847" stroke-linecap="round" stroke-linejoin="round"/>
<path d="M15.0302 12C14.1401 12 13.4864 12.4195 13.4471 13.4884C13.2295 13.1055 12.3092 11.9013 11.4505 12.0625C10.9398 12.1584 10.4885 12.8666 10.5652 13.6779C10.1424 12.4628 8.90372 12.2637 8 12.9822C8.80242 13.642 9.15936 15.5899 9.83508 16.4348H15.0302H20.2253C20.901 15.5899 21.2601 13.642 22.0625 12.9822C21.1588 12.2637 19.9201 12.4628 19.4973 13.6779C19.574 12.8666 19.1206 12.1584 18.6099 12.0625C17.7512 11.9013 16.833 13.1055 16.6154 13.4884C16.5761 12.4195 15.9202 12 15.0302 12Z" fill="#FFD83D" stroke="black" stroke-width="0.137847" stroke-linecap="round" stroke-linejoin="round"/>
<path d="M20.21 16.4344C20.21 16.8191 17.89 17.2421 15.0313 17.2421C12.1726 17.2421 9.85254 16.8191 9.85254 16.4344C9.85254 16.0498 12.1726 15.8485 15.0313 15.8485C17.89 15.8485 20.21 16.0498 20.21 16.4344Z" fill="black" stroke="black" stroke-width="0.103385" stroke-linecap="round" stroke-linejoin="round"/>
<path d="M15.0313 9.46787C15.1647 9.46787 15.2728 9.35974 15.2728 9.22635C15.2728 9.09297 15.1647 8.98484 15.0313 8.98484C14.8979 8.98484 14.7898 9.09297 14.7898 9.22635C14.7898 9.35974 14.8979 9.46787 15.0313 9.46787Z" fill="#FFD83D" stroke="black" stroke-width="0.103385" stroke-linecap="round" stroke-linejoin="round"/>
<path d="M15.0313 10.0063C15.1734 10.0063 15.2886 9.89111 15.2886 9.74898C15.2886 9.60684 15.1734 9.49162 15.0313 9.49162C14.8891 9.49162 14.7739 9.60684 14.7739 9.74898C14.7739 9.89111 14.8891 10.0063 15.0313 10.0063Z" fill="#FFD83D" stroke="black" stroke-width="0.103385" stroke-linecap="round" stroke-linejoin="round"/>
<path d="M15.0312 10.5923C15.1865 10.5923 15.3123 10.4664 15.3123 10.3112C15.3123 10.1559 15.1865 10.0301 15.0312 10.0301C14.876 10.0301 14.7501 10.1559 14.7501 10.3112C14.7501 10.4664 14.876 10.5923 15.0312 10.5923Z" fill="#FFD83D" stroke="black" stroke-width="0.103385" stroke-linecap="round" stroke-linejoin="round"/>
<path d="M15.0313 11.2575C15.2084 11.2575 15.352 11.1139 15.352 10.9368C15.352 10.7596 15.2084 10.6161 15.0313 10.6161C14.8542 10.6161 14.7106 10.7596 14.7106 10.9368C14.7106 11.1139 14.8542 11.2575 15.0313 11.2575Z" fill="#FFD83D" stroke="black" stroke-width="0.103385" stroke-linecap="round" stroke-linejoin="round"/>
<path d="M15.0312 11.986C15.2258 11.986 15.3836 11.8282 15.3836 11.6336C15.3836 11.439 15.2258 11.2812 15.0312 11.2812C14.8366 11.2812 14.6788 11.439 14.6788 11.6336C14.6788 11.8282 14.8366 11.986 15.0312 11.986Z" fill="#FFD83D" stroke="black" stroke-width="0.103385" stroke-linecap="round" stroke-linejoin="round"/>
<path d="M14.8913 12.3114C14.8532 12.311 14.8171 12.3431 14.8266 12.4041C14.8379 12.476 14.8519 12.6105 14.8654 12.7013C14.8806 12.8042 14.9406 12.7792 14.9559 12.6991C14.9711 12.6191 14.965 12.5678 14.9688 12.4191C14.9707 12.3448 14.9294 12.3119 14.8913 12.3114ZM15.1713 12.3114C15.1332 12.3119 15.0918 12.3448 15.0937 12.4191C15.0975 12.5678 15.0914 12.6191 15.1066 12.6991C15.1219 12.7792 15.1819 12.8042 15.1971 12.7013C15.2106 12.6105 15.2247 12.476 15.2359 12.4041C15.2454 12.3431 15.2094 12.311 15.1713 12.3114ZM14.6414 12.3502C14.6066 12.3551 14.5704 12.3902 14.5725 12.4278C14.5763 12.4963 14.5953 12.5786 14.6026 12.6819C14.6103 12.7886 14.6855 12.7472 14.6931 12.6862C14.7007 12.6252 14.7093 12.5351 14.7017 12.417C14.6989 12.3727 14.6795 12.3532 14.6565 12.3502C14.6517 12.3496 14.6464 12.3495 14.6414 12.3502ZM15.406 12.3502C15.383 12.3532 15.3637 12.3727 15.3608 12.417C15.3532 12.5351 15.3618 12.6252 15.3694 12.6862C15.3771 12.7472 15.4523 12.7886 15.4599 12.6819C15.4673 12.5786 15.4862 12.4963 15.49 12.4278C15.4921 12.3902 15.456 12.3551 15.4211 12.3502C15.4161 12.3495 15.4108 12.3496 15.406 12.3502ZM14.342 12.4708C14.3101 12.4791 14.2808 12.5175 14.2903 12.5613C14.3094 12.649 14.327 12.7459 14.327 12.8348C14.327 12.9111 14.3921 12.8839 14.3959 12.8305C14.3997 12.7772 14.4066 12.6642 14.4066 12.5613C14.4066 12.4845 14.374 12.4626 14.342 12.4708ZM15.699 12.4708C15.6763 12.4771 15.6559 12.5037 15.6559 12.5613C15.6559 12.6642 15.6629 12.7772 15.6667 12.8305C15.6705 12.8839 15.7356 12.9111 15.7356 12.8348C15.7356 12.7459 15.7531 12.649 15.7722 12.5613C15.7817 12.5175 15.7524 12.4791 15.7205 12.4708C15.7125 12.4688 15.7065 12.4687 15.699 12.4708ZM11.626 12.4826C11.5878 12.4813 11.561 12.5332 11.5873 12.5903C11.6292 12.6818 11.6737 12.7395 11.7165 12.838C11.7546 12.9257 11.8131 12.871 11.794 12.81C11.775 12.749 11.7543 12.6811 11.6971 12.5515C11.6757 12.5029 11.6489 12.4834 11.626 12.4826ZM18.4365 12.4826C18.4136 12.4834 18.3869 12.5029 18.3654 12.5515C18.3083 12.6811 18.2876 12.749 18.2685 12.81C18.2495 12.871 18.3079 12.9257 18.346 12.838C18.3888 12.7395 18.4334 12.6818 18.4753 12.5903C18.5015 12.5332 18.4747 12.4813 18.4365 12.4826ZM11.9017 12.4869C11.8736 12.4955 11.8566 12.5312 11.8737 12.5731C11.908 12.6569 11.9576 12.7429 11.9922 12.8337C12.0227 12.9137 12.0905 12.891 12.0676 12.8186C12.0447 12.7462 12.0379 12.7038 11.9922 12.5666C11.9693 12.498 11.9298 12.4783 11.9017 12.4869ZM18.1393 12.4869C18.1152 12.4921 18.0875 12.5152 18.0703 12.5666C18.0246 12.7038 18.0178 12.7462 17.995 12.8186C17.9721 12.891 18.0399 12.9137 18.0703 12.8337C18.105 12.7429 18.1545 12.6569 18.1888 12.5731C18.206 12.5312 18.1889 12.4955 18.1608 12.4869C18.1538 12.4848 18.1473 12.4852 18.1393 12.4869ZM12.2463 12.5537C12.2109 12.5604 12.1835 12.6145 12.2076 12.6808C12.2381 12.7646 12.2815 12.844 12.3196 12.9392C12.3577 13.0345 12.421 13.0153 12.4057 12.9543C12.3905 12.8933 12.3718 12.7923 12.326 12.6398C12.306 12.5731 12.2739 12.5484 12.2463 12.5537ZM17.8162 12.5537C17.7886 12.5484 17.7565 12.5731 17.7365 12.6398C17.6907 12.7923 17.6721 12.8933 17.6568 12.9543C17.6416 13.0153 17.7048 13.0345 17.743 12.9392C17.7811 12.844 17.8245 12.7646 17.855 12.6808C17.8791 12.6145 17.8516 12.5604 17.8162 12.5537ZM11.3934 12.6011C11.355 12.605 11.3201 12.6676 11.3439 12.7152C11.382 12.7915 11.4062 12.8174 11.4429 12.8983C11.4811 12.9822 11.5228 12.9172 11.5076 12.8638C11.4923 12.8105 11.4728 12.7484 11.4537 12.6722C11.4398 12.6163 11.4164 12.5987 11.3934 12.6011ZM18.6691 12.6011C18.6461 12.5987 18.6228 12.6163 18.6088 12.6722C18.5898 12.7484 18.5702 12.8105 18.555 12.8638C18.5397 12.9172 18.5815 12.9822 18.6196 12.8983C18.6564 12.8174 18.6805 12.7915 18.7187 12.7152C18.7425 12.6676 18.7075 12.605 18.6691 12.6011ZM14.0491 12.7939C14.0089 12.7939 13.9659 12.8473 13.9802 12.8973C14.003 12.9773 14.0384 13.0483 14.0642 13.1515C14.087 13.2429 14.152 13.1974 14.1482 13.1364C14.1444 13.0754 14.1339 12.9924 14.1073 12.8628C14.0973 12.8142 14.0732 12.7939 14.0491 12.7939ZM16.0134 12.7939C15.9893 12.7939 15.9653 12.8142 15.9553 12.8628C15.9286 12.9924 15.9182 13.0754 15.9143 13.1364C15.9105 13.1974 15.9755 13.2429 15.9983 13.1515C16.0241 13.0483 16.0595 12.9773 16.0823 12.8973C16.0966 12.8473 16.0537 12.7939 16.0134 12.7939ZM15.0313 12.8758C14.9817 12.8758 14.9748 12.9423 14.9731 12.9964C14.9674 13.1736 14.8939 13.3457 14.831 13.4315C14.7681 13.5172 14.6755 13.4944 14.5897 13.4487C14.504 13.403 14.4529 13.3687 14.3614 13.3001C14.2699 13.2315 14.2006 13.2716 14.3097 13.4271C14.628 13.8807 14.9731 14.2683 14.9731 15.0081C14.9731 15.1037 14.9898 15.133 15.0313 15.133C15.0727 15.133 15.0916 15.1037 15.0916 15.0081C15.0916 14.2683 15.4346 13.8807 15.7528 13.4271C15.862 13.2716 15.7926 13.2315 15.7011 13.3001C15.6097 13.3687 15.5586 13.403 15.4728 13.4487C15.387 13.4944 15.2944 13.5172 15.2316 13.4315C15.1687 13.3457 15.0951 13.1736 15.0894 12.9964C15.0877 12.9423 15.0808 12.8758 15.0313 12.8758ZM12.5996 12.7648C12.5952 12.7647 12.5905 12.7657 12.5866 12.7669C12.5681 12.7728 12.5558 12.7951 12.563 12.8337C12.5757 12.9028 12.6236 13.0382 12.6426 13.1029C12.6617 13.1677 12.7414 13.1539 12.7223 13.0663C12.7033 12.9786 12.7043 12.9522 12.6814 12.8531C12.6689 12.7989 12.6299 12.7656 12.5996 12.7648ZM17.463 12.7648C17.4326 12.7656 17.3936 12.7989 17.3811 12.8531C17.3583 12.9522 17.3593 12.9786 17.3402 13.0663C17.3212 13.1539 17.4008 13.1677 17.4199 13.1029C17.4389 13.0382 17.4868 12.9028 17.4996 12.8337C17.5067 12.7951 17.4944 12.7728 17.4759 12.7669C17.472 12.7657 17.4673 12.7647 17.463 12.7648ZM11.1543 12.7928C11.1144 12.7959 11.0858 12.846 11.1263 12.9198C11.17 12.9996 11.245 13.0996 11.2793 13.1568C11.3136 13.2139 11.3729 13.1754 11.3309 13.1029C11.289 13.0305 11.275 12.9473 11.2254 12.8445C11.2068 12.8059 11.1783 12.7909 11.1543 12.7928ZM18.9082 12.7928C18.8843 12.7909 18.8557 12.8059 18.8371 12.8445C18.7876 12.9473 18.7735 13.0305 18.7316 13.1029C18.6896 13.1754 18.749 13.2139 18.7833 13.1568C18.8176 13.0996 18.8925 12.9996 18.9362 12.9198C18.9767 12.846 18.9481 12.7959 18.9082 12.7928ZM8.97033 13.0222C8.9243 13.0198 8.90987 13.1029 8.95309 13.1579C9.016 13.2379 9.05977 13.2804 9.13186 13.3453C9.18905 13.3967 9.20568 13.33 9.1771 13.2785C9.14852 13.2271 9.10718 13.1748 9.05002 13.089C9.01868 13.042 8.99125 13.0233 8.97033 13.0222ZM21.0922 13.0222C21.0713 13.0233 21.0438 13.042 21.0125 13.089C20.9554 13.1748 20.914 13.2271 20.8854 13.2785C20.8569 13.33 20.8735 13.3967 20.9307 13.3453C21.0028 13.2804 21.0465 13.2379 21.1094 13.1579C21.1527 13.1029 21.1382 13.0198 21.0922 13.0222ZM9.3171 13.0911C9.28041 13.0916 9.25621 13.1187 9.28479 13.1816C9.32572 13.2716 9.3797 13.3736 9.41402 13.4422C9.44832 13.5108 9.55285 13.5338 9.51094 13.4271C9.46901 13.3204 9.46075 13.2656 9.42263 13.1665C9.40358 13.117 9.35378 13.0907 9.3171 13.0911ZM20.7454 13.0911C20.7088 13.0907 20.659 13.117 20.6399 13.1665C20.6018 13.2656 20.5935 13.3204 20.5516 13.4271C20.5097 13.5338 20.6142 13.5108 20.6485 13.4422C20.6828 13.3736 20.7368 13.2716 20.7777 13.1816C20.8063 13.1187 20.7821 13.0916 20.7454 13.0911ZM8.64509 13.1148C8.59176 13.1154 8.58717 13.1688 8.63432 13.2031C8.69723 13.2489 8.77219 13.2996 8.8454 13.3582C8.93114 13.4268 8.96436 13.3637 8.91863 13.3065C8.87291 13.2494 8.82836 13.1914 8.71402 13.1342C8.68543 13.1199 8.66287 13.1147 8.64509 13.1148ZM21.4174 13.1148C21.3997 13.1147 21.3771 13.1199 21.3485 13.1342C21.2342 13.1914 21.1896 13.2494 21.1439 13.3065C21.0982 13.3637 21.1314 13.4268 21.2171 13.3582C21.2903 13.2996 21.3653 13.2489 21.4282 13.2031C21.4754 13.1688 21.4708 13.1154 21.4174 13.1148ZM13.8596 13.1644C13.8297 13.1685 13.804 13.2024 13.8165 13.2462C13.8394 13.3262 13.8653 13.411 13.8811 13.4939C13.8964 13.574 13.989 13.5749 13.9737 13.5025C13.9585 13.4301 13.9508 13.3395 13.9242 13.229C13.9142 13.1875 13.8933 13.1676 13.8725 13.1644C13.8682 13.1637 13.8638 13.1638 13.8596 13.1644ZM16.19 13.1644C16.1692 13.1676 16.1484 13.1875 16.1383 13.229C16.1117 13.3395 16.104 13.4301 16.0888 13.5025C16.0736 13.5749 16.1662 13.574 16.1814 13.4939C16.1972 13.411 16.2232 13.3262 16.246 13.2462C16.2585 13.2024 16.2328 13.1685 16.203 13.1644C16.1987 13.1638 16.1944 13.1637 16.19 13.1644ZM11.7854 13.0275C11.762 13.034 11.7485 13.0788 11.766 13.1417C11.8632 13.4904 11.893 13.6741 11.8759 13.7599C11.8587 13.8456 11.8117 13.8574 11.7488 13.8288C11.6859 13.8002 11.6121 13.7589 11.5549 13.7189C11.4978 13.6789 11.4383 13.7268 11.5205 13.7943C11.9378 14.1373 12.2271 14.5293 12.3389 15.0048C12.3618 15.1019 12.4229 15.1134 12.4057 15.0048C12.3111 14.4058 12.2929 13.9135 12.4359 13.6048C12.4896 13.4888 12.4355 13.3774 12.3497 13.566C12.2926 13.6918 12.2001 13.7414 12.1257 13.6328C12.0514 13.5242 11.8979 13.2344 11.8522 13.1029C11.835 13.0536 11.8139 13.0308 11.7962 13.0275C11.7925 13.0269 11.7888 13.0266 11.7854 13.0275ZM18.2663 13.0275C18.2487 13.0308 18.2275 13.0536 18.2104 13.1029C18.1646 13.2344 18.0111 13.5242 17.9368 13.6328C17.8625 13.7414 17.77 13.6918 17.7128 13.566C17.627 13.3774 17.5729 13.4888 17.6267 13.6048C17.7696 13.9135 17.7514 14.4058 17.6568 15.0048C17.6397 15.1134 17.7007 15.1019 17.7236 15.0048C17.8355 14.5293 18.1247 14.1373 18.542 13.7943C18.6242 13.7268 18.5647 13.6789 18.5076 13.7189C18.4504 13.7589 18.3766 13.8002 18.3137 13.8288C18.2509 13.8574 18.2038 13.8456 18.1867 13.7599C18.1695 13.6741 18.1993 13.4904 18.2965 13.1417C18.314 13.0788 18.3006 13.034 18.2771 13.0275C18.2738 13.0266 18.27 13.0269 18.2663 13.0275ZM9.68756 13.1945C9.64992 13.195 9.61872 13.2214 9.63587 13.2785C9.66335 13.3701 9.72021 13.4691 9.73925 13.5262C9.75832 13.5834 9.81961 13.5567 9.80817 13.4767C9.79674 13.3967 9.79112 13.349 9.77587 13.2613C9.76824 13.2175 9.7252 13.1941 9.68756 13.1945ZM20.375 13.1945C20.3373 13.1941 20.2943 13.2175 20.2867 13.2613C20.2714 13.349 20.2658 13.3967 20.2544 13.4767C20.2429 13.5567 20.3042 13.5834 20.3233 13.5262C20.3423 13.4691 20.3992 13.3701 20.4267 13.2785C20.4438 13.2214 20.4126 13.195 20.375 13.1945ZM10.982 13.0749C10.9383 13.0671 10.932 13.18 10.9691 13.2257C11.0186 13.2867 11.0875 13.3604 11.1565 13.4432C11.2136 13.5119 11.249 13.4509 11.2146 13.3937C11.1803 13.3365 11.1295 13.2757 11.038 13.1309C11.0152 13.0947 10.9966 13.0775 10.982 13.0749ZM19.0805 13.0749C19.0659 13.0775 19.0474 13.0947 19.0245 13.1309C18.9331 13.2757 18.8822 13.3365 18.8479 13.3937C18.8136 13.4509 18.8489 13.5119 18.906 13.4432C18.9751 13.3604 19.0439 13.2867 19.0934 13.2257C19.1306 13.18 19.1243 13.0671 19.0805 13.0749ZM9.98264 13.3475C9.95548 13.3455 9.93244 13.3676 9.94387 13.4228C9.95981 13.4998 9.98295 13.5637 10.002 13.6361C10.0211 13.7085 10.0709 13.6961 10.0709 13.6275C10.0709 13.5589 10.0587 13.4823 10.0473 13.4099C10.0415 13.3737 10.0098 13.3494 9.98264 13.3475ZM20.0799 13.3475C20.0527 13.3494 20.021 13.3737 20.0153 13.4099C20.0038 13.4823 19.9916 13.5589 19.9916 13.6275C19.9916 13.6961 20.0415 13.7085 20.0605 13.6361C20.0796 13.5637 20.1027 13.4998 20.1187 13.4228C20.1301 13.3676 20.1071 13.3455 20.0799 13.3475ZM10.8851 13.4454C10.8424 13.4518 10.8049 13.4931 10.8549 13.5574C10.935 13.6603 11.0226 13.7325 11.0531 13.7706C11.0836 13.8087 11.1608 13.7947 11.1113 13.7146C11.0606 13.6328 10.984 13.5344 10.9497 13.4734C10.9369 13.4505 10.9107 13.4415 10.8851 13.4454ZM19.1602 13.4454C19.1414 13.4474 19.1225 13.4562 19.1128 13.4734C19.0785 13.5344 19.0019 13.6328 18.9513 13.7146C18.9017 13.7947 18.979 13.8087 19.0094 13.7706C19.0399 13.7325 19.1276 13.6603 19.2076 13.5574C19.2576 13.4931 19.2201 13.4518 19.1774 13.4454C19.171 13.4444 19.1665 13.4447 19.1602 13.4454ZM9.4614 13.733C9.42775 13.7299 9.41613 13.7571 9.4614 13.8191C9.56429 13.9601 9.67779 14.1735 9.6854 14.265C9.69305 14.3565 9.64782 14.3555 9.60571 14.3555C9.47993 14.3555 9.41849 14.2636 9.30417 14.237C9.18983 14.2103 9.17323 14.2704 9.25463 14.3296C9.67385 14.6345 10.094 14.9747 10.2626 15.2838C10.3312 15.4095 10.424 15.4555 10.3725 15.3355C10.2149 14.9676 10.1766 14.6561 10.2109 14.4675C10.2453 14.2788 10.292 14.1518 10.2863 14.0431C10.2806 13.9345 10.219 13.942 10.1937 14.0431C10.1766 14.1118 10.1433 14.2027 10.1205 14.237C10.0976 14.2713 10.0057 14.2905 9.91802 14.1724C9.83036 14.0542 9.6092 13.8268 9.53679 13.7696C9.50964 13.7482 9.4816 13.7348 9.4614 13.733ZM20.6011 13.733C20.5809 13.7348 20.5529 13.7482 20.5257 13.7696C20.4533 13.8268 20.2322 14.0542 20.1445 14.1724C20.0568 14.2905 19.9649 14.2713 19.942 14.237C19.9192 14.2027 19.886 14.1118 19.8688 14.0431C19.8435 13.942 19.7819 13.9345 19.7762 14.0431C19.7705 14.1518 19.8173 14.2788 19.8516 14.4675C19.8859 14.6561 19.8477 14.9676 19.69 15.3355C19.6386 15.4555 19.7313 15.4095 19.7999 15.2838C19.9685 14.9747 20.3887 14.6345 20.8079 14.3296C20.8893 14.2704 20.8727 14.2103 20.7584 14.237C20.644 14.2636 20.5826 14.3555 20.4568 14.3555C20.4147 14.3555 20.3695 14.3565 20.3771 14.265C20.3847 14.1735 20.4982 13.9601 20.6011 13.8191C20.6464 13.7571 20.6348 13.7299 20.6011 13.733Z" fill="black"/>
<path d="M10.0797 15.9951L10.2141 16.4206L10.0797 15.9951ZM10.3561 15.9144L10.4752 16.3445L10.3561 15.9144ZM10.6547 15.8653L10.7365 16.304L10.6547 15.8653ZM10.9318 15.8099L11.0194 16.2475L10.9318 15.8099ZM11.2872 15.7748L11.3583 16.2153L11.2872 15.7748ZM11.6652 15.7753L11.7418 16.2149L11.6652 15.7753ZM12.0342 15.6505L12.0895 16.0933L12.0342 15.6505ZM12.3813 15.6729L12.4367 16.1157L12.3813 15.6729ZM12.7173 15.6281L12.7727 16.0709L12.7173 15.6281ZM13.0545 15.5933L13.085 16.0385L13.0545 15.5933ZM13.4149 15.5932L13.4413 16.0386L13.4149 15.5932ZM13.7416 15.5706L13.7641 16.0163L13.7416 15.5706ZM14.1018 15.5482L14.1205 15.994L14.1018 15.5482ZM14.5162 15.537L14.5349 15.9828L14.5162 15.537ZM19.9829 15.9951L19.8485 16.4206L19.9829 15.9951ZM19.7064 15.9144L19.5874 16.3445L19.7064 15.9144ZM19.4079 15.8653L19.326 16.304L19.4079 15.8653ZM19.1308 15.8099L19.0432 16.2475L19.1308 15.8099ZM18.7754 15.7748L18.7042 16.2153L18.7754 15.7748ZM18.3974 15.7753L18.3207 16.2149L18.3974 15.7753ZM18.0284 15.6505L17.973 16.0933L18.0284 15.6505ZM17.6813 15.6729L17.6259 16.1157L17.6813 15.6729ZM17.3453 15.6281L17.2899 16.0709L17.3453 15.6281ZM17.0081 15.5933L16.9776 16.0385L17.0081 15.5933ZM16.6477 15.5932L16.6213 16.0386L16.6477 15.5932ZM16.321 15.5706L16.2985 16.0163L16.321 15.5706ZM15.9607 15.5482L15.942 15.994L15.9607 15.5482ZM15.5464 15.537L15.5277 15.9828L15.5464 15.537ZM15.0313 15.508V15.9989V15.508Z" fill="#FFD83D"/>
<path d="M15.0313 15.508V15.9989M10.0797 15.9951L10.2141 16.4206L10.0797 15.9951ZM10.3561 15.9144L10.4752 16.3445L10.3561 15.9144ZM10.6547 15.8653L10.7365 16.304L10.6547 15.8653ZM10.9318 15.8099L11.0194 16.2475L10.9318 15.8099ZM11.2872 15.7748L11.3583 16.2153L11.2872 15.7748ZM11.6652 15.7753L11.7418 16.2149L11.6652 15.7753ZM12.0342 15.6505L12.0895 16.0933L12.0342 15.6505ZM12.3813 15.6729L12.4367 16.1157L12.3813 15.6729ZM12.7173 15.6281L12.7727 16.0709L12.7173 15.6281ZM13.0545 15.5933L13.085 16.0385L13.0545 15.5933ZM13.4149 15.5932L13.4413 16.0386L13.4149 15.5932ZM13.7416 15.5706L13.7641 16.0163L13.7416 15.5706ZM14.1018 15.5482L14.1205 15.994L14.1018 15.5482ZM14.5162 15.537L14.5349 15.9828L14.5162 15.537ZM19.9829 15.9951L19.8485 16.4206L19.9829 15.9951ZM19.7064 15.9144L19.5874 16.3445L19.7064 15.9144ZM19.4079 15.8653L19.326 16.304L19.4079 15.8653ZM19.1308 15.8099L19.0432 16.2475L19.1308 15.8099ZM18.7754 15.7748L18.7042 16.2153L18.7754 15.7748ZM18.3974 15.7753L18.3207 16.2149L18.3974 15.7753ZM18.0284 15.6505L17.973 16.0933L18.0284 15.6505ZM17.6813 15.6729L17.6259 16.1157L17.6813 15.6729ZM17.3453 15.6281L17.2899 16.0709L17.3453 15.6281ZM17.0081 15.5933L16.9776 16.0385L17.0081 15.5933ZM16.6477 15.5932L16.6213 16.0386L16.6477 15.5932ZM16.321 15.5706L16.2985 16.0163L16.321 15.5706ZM15.9607 15.5482L15.942 15.994L15.9607 15.5482ZM15.5464 15.537L15.5277 15.9828L15.5464 15.537Z" stroke="black" stroke-width="0.103385" stroke-linecap="round" stroke-linejoin="round"/>
</g>
<path d="M11.7035 1.61228C6.53056 2.04084 2.23921 5.77712 1.57724 11.0101C1.25164 13.5841 1 16.6548 1 20C1 23.3452 1.25164 26.4159 1.57724 28.9899C2.23922 34.2229 6.53056 37.9592 11.7035 38.3877C15.5784 38.7087 20.5852 39 26 39C31.4148 39 36.4216 38.7087 40.2965 38.3877C45.4694 37.9592 49.7608 34.2229 50.4228 28.9899C50.7484 26.4159 51 23.3452 51 20C51 16.6548 50.7484 13.5841 50.4228 11.0101C49.7608 5.77712 45.4694 2.04084 40.2965 1.61228C36.4216 1.29127 31.4148 1 26 1C20.5852 1 15.5784 1.29127 11.7035 1.61228Z" stroke="#E6E6FA" stroke-width="2"/>
</svg>
