<svg width="52" height="40" viewBox="0 0 52 40" fill="none" xmlns="http://www.w3.org/2000/svg">
<mask id="mask0_1_29776" style="mask-type:alpha" maskUnits="userSpaceOnUse" x="2" y="2" width="48" height="36">
<path d="M2.56934 11.1356C3.16681 6.41247 7.0415 3.00193 11.7861 2.60887C15.6412 2.28949 20.6196 2 26 2C31.3804 2 36.3588 2.28949 40.2139 2.60887C44.9585 3.00193 48.8332 6.41247 49.4307 11.1356C49.752 13.6759 50 16.704 50 20C50 23.296 49.752 26.3241 49.4307 28.8644C48.8332 33.5875 44.9585 36.9981 40.2139 37.3911C36.3588 37.7105 31.3804 38 26 38C20.6196 38 15.6412 37.7105 11.7861 37.3911C7.0415 36.9981 3.16681 33.5875 2.56934 28.8644C2.248 26.3241 2 23.296 2 20C2 16.704 2.248 13.6759 2.56934 11.1356Z" fill="#00D0BF"/>
</mask>
<g mask="url(#mask0_1_29776)">
<rect x="48" y="36" width="44" height="32" rx="10" transform="rotate(-180 48 36)" fill="#8D0E44"/>
<path d="M30.8596 28.3186L31.0419 28.2134L31.1198 28.3188C31.2237 28.4593 31.511 28.4577 31.7017 28.3156L31.8475 28.207L31.9696 28.3156C32.1301 28.4584 32.4299 28.4586 32.6213 28.3161C32.7553 28.2163 32.774 28.2143 32.8626 28.2902C32.9154 28.3355 33.0704 28.387 33.2069 28.4048C33.4528 28.4367 33.4565 28.4349 33.6004 28.2191C33.7209 28.0383 33.7398 27.9652 33.711 27.7898C33.6919 27.6736 33.6714 27.4865 33.6654 27.3741C33.6545 27.1706 33.6556 27.1693 33.9521 27.0661C34.1158 27.0091 34.3054 26.9326 34.3733 26.8961C34.4917 26.8326 34.8182 26.4489 34.8182 26.3733C34.8182 26.3533 34.6906 26.3226 34.5348 26.3051C33.9147 26.2355 33.8097 25.9026 34.2128 25.2842C34.8701 24.2757 35.2668 23.2935 35.2694 22.6678C35.2706 22.3882 35.2865 22.2943 35.3225 22.3551C35.4693 22.6036 35.2062 23.6457 34.8077 24.3941L34.6472 24.6954L34.8003 24.6602C34.8846 24.6408 35.3797 24.4319 35.9007 24.1959C37.3267 23.55 37.8165 23.4235 38.7394 23.4623C39.5126 23.4949 39.8418 23.646 40.3877 24.2185C40.6769 24.5218 40.9555 24.7389 41.4651 25.0578C42.5509 25.7375 42.5962 25.7963 42.6478 26.5956C42.7001 27.4054 42.6741 27.4493 42.0616 27.5846C41.5381 27.7003 41.2099 27.9443 41.1219 28.2834C41.0749 28.4645 41.1738 28.4697 41.4377 28.3L41.6312 28.1757L41.7172 28.3C41.8302 28.4635 42.0706 28.4641 42.2702 28.3015L42.4209 28.1787L42.575 28.3015C42.8145 28.4923 43.133 28.4461 43.2228 28.2074C43.2401 28.1615 43.2862 28.1762 43.3796 28.2574C43.5545 28.4094 44.003 28.4746 44.0514 28.3551C44.0699 28.3095 44.0348 28.1968 43.9734 28.1047C43.7124 27.7135 43.6308 27.5269 43.6274 27.314C43.6227 27.0178 43.7111 26.8749 44.048 26.634C44.4572 26.3413 44.5837 25.9638 44.2725 25.9638C44.0803 25.9638 43.8866 25.7939 43.7631 25.5171C43.5119 24.9544 43.5611 24.3236 43.9381 23.2742C44.3209 22.2083 44.3634 22.0118 44.3649 21.2989C44.3661 20.7226 44.3516 20.6229 44.2205 20.3069C44.1403 20.1136 43.9776 19.826 43.8589 19.6676L43.6432 19.3796L43.9202 19.1501C44.766 18.4494 44.593 17.3026 43.5748 16.8607C43.2633 16.7256 43.1855 16.7136 42.6396 16.7173C42.3122 16.7195 41.8128 16.7626 41.53 16.8131C41.2417 16.8645 40.7536 16.9059 40.4188 16.9072C39.8869 16.9094 39.7966 16.8962 39.5916 16.7871C39.3779 16.6734 39.3412 16.6194 39.2994 16.3564C39.2908 16.3023 39.253 16.2484 39.2154 16.2366C39.1427 16.2136 38.807 16.505 38.7573 16.6341C38.7329 16.6978 38.7129 16.6934 38.6411 16.6084C38.5934 16.5521 38.5269 16.4225 38.4932 16.3205C38.4084 16.0641 38.5125 15.8718 38.8139 15.7277L39.0478 15.616L38.9099 15.5304C38.6253 15.3538 38.1414 15.4746 37.9664 15.7659C37.9169 15.8483 37.8629 15.9159 37.8464 15.9161C37.8299 15.9162 37.7358 15.8377 37.6373 15.7414C37.2699 15.3824 37.3962 14.8512 37.8877 14.689C38.1498 14.6025 38.3817 14.6685 38.4299 14.8432C38.5036 15.11 38.7326 14.7593 38.6915 14.4426C38.6642 14.2321 38.6683 14.2248 38.814 14.2248C39.0167 14.2248 39.4479 14.4907 39.5813 14.6979C39.7362 14.9386 39.725 15.3175 39.5545 15.5999L39.4206 15.8217L39.5957 15.7866C39.8525 15.7352 40.102 15.5757 40.2282 15.3823C40.3616 15.1779 40.376 14.7798 40.2577 14.5649C40.143 14.3567 40.1561 14.3237 40.3257 14.394C40.6139 14.5137 40.7681 14.6457 40.8837 14.8719C40.9878 15.0756 40.9936 15.1262 40.9372 15.3382C40.9025 15.469 40.8251 15.6411 40.7653 15.7206C40.6722 15.8444 40.669 15.8652 40.7432 15.8652C40.8813 15.8652 41.1698 15.7344 41.2723 15.6254C41.3241 15.5703 41.3995 15.4346 41.44 15.3239L41.5136 15.1226L41.5982 15.276C41.7177 15.493 41.9502 15.6883 42.2337 15.8098C42.5385 15.9405 42.6655 15.9479 42.5061 15.8256C42.3986 15.7432 42.2005 15.1619 42.2605 15.1051C42.2958 15.0716 42.7097 15.3901 43.1823 15.8143C43.6294 16.2156 43.9103 16.3471 44.3209 16.3471C44.8454 16.3471 45.1508 15.8905 44.915 15.4588C44.7776 15.2071 44.4714 15.1721 44.2924 15.3877C44.21 15.4868 44.1874 15.5657 44.2116 15.6696C44.2411 15.797 44.2296 15.814 44.1135 15.814C43.9611 15.814 43.6605 15.6189 43.1268 15.1736C42.3129 14.4944 41.324 13.9187 40.6098 13.7085C40.1516 13.5735 39.1726 13.5209 38.7068 13.6061C38.2026 13.6983 37.6062 13.9869 37.2813 14.2957C36.7057 14.8431 36.6965 15.5714 37.257 16.2346L37.4176 16.4246L37.3089 16.5935C37.1508 16.8391 37.1643 17.1697 37.3425 17.4132C37.421 17.5204 37.5001 17.6081 37.5184 17.6081C37.5367 17.608 37.5567 17.5391 37.5629 17.4548C37.5787 17.2418 37.6701 17.0991 37.827 17.0426C37.9684 16.9917 38.0598 17.0157 38.707 17.274C39.3879 17.5458 40.5076 17.5645 41.6982 17.3239C42.2819 17.206 42.9702 17.213 43.273 17.3398C43.8281 17.5723 43.9567 18.1773 43.5487 18.6365C43.3721 18.8353 43.2017 18.9163 42.6298 19.0733C42.1946 19.1927 42.0915 19.2006 41.1023 19.1908C40.2572 19.1823 39.9535 19.1985 39.6085 19.2706C39.234 19.3488 39.0036 19.3567 37.9035 19.3289L36.6315 19.2969L36.7725 19.4137C36.8501 19.4779 36.9597 19.557 37.0161 19.5893C37.112 19.6444 37.1088 19.6518 36.9662 19.7047C36.8824 19.7357 36.6964 19.7612 36.5529 19.7612H36.2919L36.2568 19.9829C36.2375 20.1049 36.239 20.2473 36.26 20.2994C36.2912 20.3762 36.2796 20.3873 36.1986 20.3578C36.1437 20.3379 35.9909 20.2987 35.8589 20.2707C35.727 20.2426 35.5494 20.1856 35.4643 20.1439C35.3211 20.0738 35.3052 20.0757 35.2525 20.169C35.2054 20.2523 34.7633 20.5813 34.6984 20.5813C34.688 20.5813 34.6745 20.5179 34.6684 20.4404C34.6624 20.3628 34.5986 20.161 34.5267 19.9918C34.4548 19.8227 34.3797 19.6381 34.3599 19.5817C34.3299 19.4967 34.3163 19.4923 34.2802 19.5561C34.2562 19.5984 34.2213 19.7137 34.2025 19.8124C34.1837 19.9111 34.1171 20.0714 34.0545 20.1686L33.9406 20.3455L33.868 20.1943C33.79 20.032 33.6606 19.8637 33.6137 19.8637C33.5979 19.8637 33.571 19.9156 33.5539 19.979C33.5182 20.1115 33.2112 20.4788 33.1363 20.4788C33.1087 20.4788 33.0861 20.375 33.0861 20.2481C33.0861 20.1213 33.0617 20.0174 33.032 20.0174C33.0022 20.0174 32.9778 20.0503 32.9778 20.0904C32.9778 20.1879 32.7157 20.4788 32.6278 20.4788C32.5895 20.4788 32.5277 20.5134 32.4907 20.5557C32.3941 20.666 32.315 20.6505 32.3556 20.5293C32.3747 20.4724 32.3623 20.3398 32.3281 20.2345C32.2939 20.1292 32.2576 20.0172 32.2473 19.9855C32.2344 19.9456 32.1405 19.9562 31.9417 20.0199C31.6205 20.1229 31.5128 20.1047 31.678 19.9753C31.7384 19.928 31.8303 19.7641 31.8821 19.6112C31.934 19.4582 32.0106 19.3225 32.0523 19.3096C32.1106 19.2915 32.1075 19.3139 32.0387 19.4069C31.9896 19.4733 31.9493 19.5629 31.9491 19.6059C31.9491 19.649 31.9119 19.7511 31.8669 19.8328C31.8219 19.9146 31.7936 19.9895 31.804 19.9994C31.8145 20.0093 31.9367 19.9628 32.0757 19.8962L32.3283 19.7751L32.3293 19.8834C32.3299 19.943 32.3604 20.1003 32.397 20.2329L32.4636 20.4739L32.6356 20.3949C32.8113 20.3141 32.9778 20.0261 32.9778 19.8028C32.9778 19.6924 33.041 19.7094 33.0669 19.8267C33.0745 19.8611 33.1142 19.9903 33.1551 20.1138L33.2295 20.3384L33.3473 20.1966C33.412 20.1186 33.4932 19.9657 33.5277 19.8567C33.5875 19.6676 33.6815 19.5862 33.6815 19.7236C33.6815 19.8226 33.9516 20.1776 34.0037 20.1471C34.0289 20.1323 34.079 19.9991 34.1151 19.851C34.1903 19.543 34.3114 19.3335 34.3884 19.3786C34.4173 19.3955 34.4286 19.4284 34.4134 19.4516C34.3983 19.4749 34.4605 19.6751 34.5517 19.8966C34.6429 20.1181 34.7345 20.3411 34.7552 20.3922C34.7886 20.4743 34.8187 20.4624 35.0142 20.2897C35.1359 20.1822 35.2463 20.0619 35.2596 20.0224C35.2797 19.9626 35.3068 19.9648 35.4206 20.0354C35.5797 20.1341 36.1147 20.2932 36.156 20.2541C36.1715 20.2394 36.1874 20.0989 36.1913 19.9418L36.1984 19.6563L36.3522 19.6882C36.4369 19.7057 36.6148 19.7046 36.7476 19.6858L36.9891 19.6515L36.7739 19.5038C36.6555 19.4226 36.5358 19.3175 36.5079 19.2702C36.4781 19.2199 36.3728 19.1772 36.2534 19.167C35.931 19.1396 35.3594 18.8191 35.3594 18.6656C35.3594 18.6368 35.4386 18.6858 35.5353 18.7745C35.75 18.9712 36.0482 19.0947 36.3086 19.0947H36.5035L36.3829 18.9344C36.3137 18.8422 36.2516 18.6675 36.237 18.5238C36.2137 18.2947 36.1895 18.2583 35.9503 18.092C35.8066 17.9921 35.6286 17.8423 35.5548 17.7592L35.4205 17.6081L35.352 17.7875C35.3144 17.8862 35.2683 17.9669 35.2497 17.9669C35.2311 17.9669 35.1587 17.9093 35.0888 17.8388C35.0189 17.7683 34.9476 17.7109 34.9305 17.7112C34.9133 17.7115 34.8514 17.8065 34.7928 17.9222L34.6864 18.1326L34.6041 18.0113C34.5588 17.9446 34.4519 17.8266 34.3665 17.7491C34.2811 17.6715 34.2362 17.6081 34.2667 17.6081C34.2972 17.6081 34.4026 17.6889 34.501 17.7876L34.6797 17.9671L34.7525 17.8356C34.7956 17.7575 34.8118 17.6377 34.7923 17.5408C34.7637 17.3995 34.7678 17.3913 34.8219 17.4799C34.8564 17.5363 34.9609 17.6444 35.0543 17.7202L35.2241 17.8579L35.3412 17.6433C35.4578 17.4297 35.4587 17.4293 35.5117 17.5568C35.5827 17.7274 36.0961 18.1483 36.5332 18.3942C36.6006 18.4321 36.5721 18.3018 36.4477 18.0021C36.4148 17.9227 36.3878 17.7796 36.3878 17.6841C36.3878 17.5424 36.3469 17.4793 36.1657 17.3414C35.9041 17.1423 35.8195 17.0007 35.7702 16.6795C35.7502 16.5494 35.7044 16.4047 35.6684 16.3579C35.615 16.2885 35.6062 16.3274 35.6205 16.5689C35.6301 16.7316 35.6089 16.934 35.5734 17.0186L35.5089 17.1724L35.459 17.0442C35.4315 16.9737 35.3101 16.8512 35.1892 16.7718C35.0683 16.6925 34.9834 16.6143 35.0006 16.598C35.0178 16.5817 35.1422 16.654 35.2771 16.7586C35.4825 16.9181 35.5277 16.9353 35.5562 16.8651C35.5896 16.7826 35.5562 16.4236 35.4916 16.1728C35.4593 16.0475 35.4622 16.0482 35.6167 16.2027C35.7307 16.3166 35.7937 16.4526 35.8425 16.6897C35.9045 16.9909 35.9358 17.0411 36.2144 17.2856C36.3816 17.4325 36.5272 17.5444 36.5379 17.5344C36.5485 17.5243 36.5696 17.1443 36.5848 16.69C36.6138 15.8189 36.581 15.6116 36.3712 15.3425L36.2634 15.2042L36.4328 15.0214C36.6539 14.7829 36.7554 14.5918 36.7994 14.331L36.8352 14.1189L36.644 14.3C36.4874 14.4483 36.4126 14.4811 36.2313 14.4811C36.0517 14.4811 35.9815 14.4511 35.8605 14.3221C35.7153 14.1674 35.458 14.0185 35.2105 13.946C35.1191 13.9193 35.0887 13.9309 35.0887 13.9927C35.0887 14.0381 35.0383 14.1689 34.9765 14.2834L34.8644 14.4917L34.6293 14.2593C34.4851 14.1168 34.314 14.0059 34.1867 13.9724C33.8614 13.8869 33.8438 13.8954 33.8438 14.1377C33.8438 14.5052 33.6869 14.5737 33.4044 14.3294C33.1891 14.1432 33.0105 14.1027 32.6023 14.1476L32.2869 14.1822L32.3437 14.3246C32.3911 14.4435 32.3804 14.4935 32.2789 14.6286C32.1142 14.8476 31.9 14.9425 31.5704 14.9425C31.4186 14.9425 31.2286 14.9739 31.1482 15.0123C31.0679 15.0507 30.8681 15.0949 30.7044 15.1106C30.5406 15.1263 30.3661 15.1543 30.3166 15.1728C30.239 15.2017 30.2305 15.1779 30.2555 15.0015C30.2937 14.7315 30.1051 14.5324 29.8113 14.5324C29.43 14.5324 29.2541 14.8734 29.4034 15.3233C29.4322 15.4099 29.4698 15.5465 29.487 15.6268C29.5049 15.7101 29.6766 15.9312 29.887 16.1417C30.0897 16.3445 30.2814 16.5557 30.3128 16.6108C30.3443 16.6659 30.4483 16.7544 30.5439 16.8074L30.7179 16.9038L30.6949 16.7177C30.6697 16.5132 30.7143 16.4811 30.8231 16.6254C30.862 16.677 30.9608 16.7604 31.0427 16.8107C31.1716 16.89 31.1915 16.8916 31.1915 16.8228C31.1915 16.7791 31.2178 16.6784 31.2499 16.599L31.3084 16.4547L31.4097 16.6511C31.4655 16.7591 31.6468 17.0045 31.8126 17.1965C32.1344 17.569 32.3305 17.9853 32.2293 18.0811C32.1883 18.12 32.0773 18.117 31.8474 18.0707C31.6691 18.0349 31.4486 18.016 31.3574 18.0287C31.1711 18.0545 31.1564 18.0305 31.271 17.887C31.3919 17.7356 31.3727 17.7106 31.1351 17.7106C30.8602 17.7106 30.1778 17.5789 29.9159 17.4752C29.6612 17.3744 29.6024 17.3995 29.5274 17.6411C29.4937 17.7498 29.4319 17.9468 29.3901 18.0789L29.3142 18.319L29.5898 18.2925C29.7414 18.2779 29.9363 18.2447 30.023 18.2187C30.1097 18.1928 30.1885 18.179 30.1981 18.1881C30.2077 18.1972 30.1691 18.291 30.1122 18.3966L30.0089 18.5885L30.1807 18.5535C30.2752 18.5343 30.4174 18.4871 30.4966 18.4488C30.6346 18.382 30.6457 18.3869 30.7545 18.5615C30.8882 18.7763 30.9953 18.7674 31.019 18.5397C31.0436 18.3043 31.121 18.3391 31.2667 18.6511C31.4068 18.9511 31.5525 19.057 31.5806 18.8792C31.5898 18.8201 31.6653 18.724 31.7483 18.6656C31.916 18.5474 32.0425 18.5828 32.1149 18.7684C32.19 18.9605 32.0226 19.1585 31.5359 19.4535C30.5608 20.0446 29.994 20.853 29.8322 21.8833C29.6863 22.8126 30.1421 23.773 31.0566 24.4627C31.4942 24.7928 32.1893 25.1412 32.1452 25.0082C31.9576 24.4437 31.9637 23.3666 32.1556 23.1849C32.1844 23.1576 32.1745 23.27 32.1336 23.4346C31.9812 24.0479 32.0474 24.5366 32.438 25.6819C32.7912 26.7178 32.7423 27.1605 32.2424 27.4532C32.0818 27.5471 31.9784 27.5626 31.5467 27.5574C31.0783 27.5517 31.0272 27.5611 30.8768 27.681C30.731 27.7972 30.542 28.1786 30.542 28.3567C30.542 28.4531 30.6491 28.4403 30.8595 28.3188L30.8596 28.3186Z" fill="#FCD95E"/>
<path d="M38.4635 28.2978L38.66 28.1715L38.7934 28.2978C38.9681 28.4632 39.1728 28.4595 39.3407 28.2879C39.414 28.213 39.4798 28.1611 39.487 28.1725C39.4941 28.184 39.5268 28.2395 39.5596 28.2959C39.6011 28.3673 39.6865 28.4032 39.8406 28.4141C40.0263 28.4272 40.0761 28.4092 40.1499 28.3026L40.2378 28.1754L40.4313 28.2998C40.9608 28.6401 41.243 28.283 41.0064 27.572C40.886 27.2104 40.9522 27.0072 41.3401 26.547C41.5036 26.353 41.6376 26.1458 41.6377 26.0867C41.6377 25.9925 41.6075 25.9799 41.3898 25.9842C41.1815 25.9884 41.1206 25.966 41.0109 25.8453C40.8326 25.649 40.8432 25.4242 41.0425 25.1747L41.2018 24.9754L40.9192 24.7836C40.7638 24.6781 40.4836 24.4286 40.2964 24.2291C39.8762 23.7811 39.463 23.5686 38.9181 23.5204L38.5527 23.4881L38.5533 23.7646C38.554 24.1206 38.7211 24.4631 39.1771 25.0432C39.6956 25.7028 39.7318 25.8049 39.7529 26.667L39.7706 27.3961L39.6206 27.5384C39.485 27.667 39.4238 27.6835 38.9863 27.7087C38.5698 27.7327 38.4823 27.7542 38.3601 27.8625C38.1978 28.0063 38.1492 28.0845 38.0991 28.2831C38.0699 28.3989 38.0817 28.4241 38.1652 28.4241C38.2212 28.4241 38.3554 28.3673 38.4635 28.2978L38.4635 28.2978Z" fill="#FCD95E"/>
<path d="M27.3184 26.4135C27.3647 26.3508 27.4026 26.2496 27.4026 26.1886C27.4026 26.0964 27.4438 26.0718 27.6464 26.043L27.8902 26.0084L27.7276 25.8789C27.5345 25.725 27.5166 25.6047 27.6868 25.6045C27.8564 25.6045 28.1435 25.4284 28.1871 25.2982C28.2074 25.2376 28.1947 25.1567 28.1583 25.1152C28.0632 25.0068 27.8845 25.0231 27.8513 25.1433C27.8157 25.2725 27.7559 25.2729 27.6205 25.1446C27.4168 24.9517 27.4122 24.5523 27.6111 24.3198C27.7048 24.2102 27.7039 24.203 27.5845 24.0899C27.456 23.9682 27.3642 23.7273 27.4246 23.6701C27.4438 23.6519 27.5453 23.6664 27.6502 23.7023C27.7992 23.7533 27.8581 23.7541 27.9195 23.7058C28.1055 23.5597 27.904 23.3717 27.6057 23.4131C27.4856 23.4298 27.436 23.4131 27.4188 23.3509C27.4058 23.3036 27.3008 23.242 27.1825 23.2121C26.9711 23.1586 26.9696 23.1593 26.9696 23.3049C26.9696 23.4645 26.8785 23.4946 26.7054 23.3922C26.5647 23.309 26.4283 23.3736 26.4283 23.5234C26.4283 23.6632 26.5689 23.7321 26.8208 23.7159C27.014 23.7034 27.0211 23.8471 26.8377 24.0536L26.7057 24.2021L26.8102 24.3523C26.9651 24.5747 26.952 24.9441 26.7829 25.1275L26.6503 25.2714L26.5633 25.156C26.4424 24.9958 26.2771 25.0065 26.2317 25.1776C26.202 25.2896 26.2266 25.3408 26.3669 25.4595C26.4612 25.5393 26.5988 25.6046 26.6728 25.6046C26.8558 25.6046 26.8486 25.7485 26.6584 25.8939L26.5095 26.0077L26.7396 26.0434C26.8661 26.063 26.9696 26.0999 26.9696 26.1254C26.9696 26.2232 27.129 26.5273 27.1803 26.5273C27.2099 26.5273 27.272 26.476 27.3184 26.4134L27.3184 26.4135Z" fill="#FCD95E"/>
<path d="M30.3138 25.1151C30.5228 25.0327 30.9751 24.6497 30.9751 24.5551C30.9751 24.5253 30.8502 24.388 30.6976 24.2499C30.3765 23.9594 30.0272 23.4701 29.9367 23.184C29.8895 23.0348 29.6615 22.7794 29.0192 22.1565L28.1644 21.3275L27.9181 21.3899C27.7826 21.4242 27.6173 21.4531 27.5507 21.4542C27.436 21.4559 27.4381 21.4625 27.5906 21.5805L27.7515 21.705L27.977 21.5798C28.1957 21.4585 28.2034 21.4577 28.2304 21.5554C28.2462 21.6126 28.2121 21.7116 28.1517 21.7844C28.0931 21.855 28.0597 21.935 28.0775 21.9623C28.0953 21.9895 28.039 22.0465 27.9524 22.0889C27.7919 22.1675 27.6805 22.4263 27.8072 22.4263C27.9211 22.4263 28.1724 22.1163 28.1434 22.0114C28.1286 21.9577 28.1358 21.9025 28.1594 21.8887C28.2572 21.8314 28.2511 22.0748 28.1517 22.1945C28.0931 22.265 28.0597 22.3451 28.0775 22.3723C28.0953 22.3996 28.039 22.4566 27.9524 22.499C27.793 22.5771 27.6804 22.8364 27.806 22.8364C27.929 22.8364 28.1762 22.5401 28.1456 22.4293C28.1296 22.3713 28.1358 22.3126 28.1594 22.2988C28.2253 22.2602 28.2608 22.4523 28.2052 22.5465C28.1754 22.5969 28.1757 22.6658 28.2059 22.7204C28.2606 22.8193 28.2051 23.0092 28.1043 23.0683C28.061 23.0936 28.0903 23.1432 28.1952 23.2224C28.347 23.3371 28.3499 23.3491 28.3499 23.8549C28.3499 24.2776 28.367 24.3867 28.4446 24.4602C28.5318 24.5428 28.5394 24.5431 28.5394 24.4639C28.5394 24.3774 28.6912 24.2717 28.8153 24.2717C28.852 24.2717 29.0809 24.4657 29.3239 24.7028C29.5685 24.9413 29.8244 25.1442 29.8969 25.1571C29.9689 25.17 30.0469 25.1836 30.0702 25.1875C30.0935 25.1913 30.2031 25.1588 30.3137 25.1151L30.3138 25.1151Z" fill="#FCD95E"/>
<path d="M27.7004 23.0702C27.7004 22.9339 27.4194 22.7885 27.0832 22.7508C26.8118 22.7203 26.8073 22.722 26.8073 22.8576C26.8073 22.9699 26.85 23.014 27.0374 23.0956C27.3384 23.2267 27.7004 23.2128 27.7004 23.0702L27.7004 23.0702Z" fill="#FCD95E"/>
<path d="M28.0084 23.0578C28.1455 22.9334 28.2105 22.7854 28.128 22.7854C28.0332 22.7854 27.7814 23.0113 27.7814 23.0965C27.7814 23.2293 27.8281 23.2214 28.0084 23.0578V23.0578Z" fill="#FCD95E"/>
<path d="M27.7163 22.6548C27.7279 22.5779 27.6804 22.5266 27.5378 22.4622C27.2304 22.3233 26.8628 22.259 26.7742 22.3286C26.6112 22.4568 26.7198 22.6289 26.9833 22.6598C27.0894 22.6723 27.2333 22.7046 27.303 22.7317C27.5056 22.8104 27.6982 22.7745 27.7163 22.6548Z" fill="#FCD95E"/>
<path d="M27.7163 22.2431C27.7329 22.1334 27.6627 22.0942 27.0902 21.8926C26.6628 21.7422 26.4736 21.8132 26.6102 22.0726C26.6578 22.163 26.7377 22.2043 26.9168 22.2311C27.05 22.2511 27.232 22.2901 27.3214 22.3178C27.56 22.3919 27.6978 22.3658 27.7163 22.2431L27.7163 22.2431Z" fill="#FCD95E"/>
<path d="M28.0031 21.8572C28.0895 21.7696 28.1601 21.6663 28.1601 21.6276C28.1601 21.5019 27.819 21.7242 27.7755 21.8782C27.7233 22.0629 27.8079 22.0551 28.0031 21.8572L28.0031 21.8572Z" fill="#FCD95E"/>
<path d="M27.7163 21.8313C27.7351 21.7064 27.5274 21.5936 27.1188 21.5068C26.8191 21.4432 26.6868 21.4793 26.7093 21.6186C26.7215 21.6946 26.8214 21.7502 27.1046 21.8386C27.5578 21.98 27.6941 21.9784 27.7163 21.8313L27.7163 21.8313Z" fill="#FCD95E"/>
<path d="M28.1159 21.2498C28.6394 21.0168 28.6847 20.4291 28.191 20.2748C27.9861 20.2107 27.8552 20.2453 27.7768 20.3841C27.7167 20.4904 27.7569 20.6837 27.839 20.6837C27.8668 20.6837 27.8895 20.7195 27.8895 20.7632C27.8895 20.9673 27.0902 21.0597 26.7624 20.8936C26.6472 20.8352 26.5971 20.6837 26.6929 20.6837C26.7645 20.6837 26.8141 20.5293 26.7775 20.4201C26.7276 20.2713 26.5777 20.2198 26.3602 20.2767C25.8694 20.405 25.8832 20.9816 26.3829 21.2263C26.7925 21.427 27.6907 21.4392 28.1159 21.2499L28.1159 21.2498Z" fill="#FCD95E"/>
<path d="M27.7903 20.798C27.8206 20.7693 27.8075 20.7252 27.7566 20.6852C27.6453 20.5977 27.6513 20.4676 27.7733 20.3187C27.865 20.2068 27.8765 20.0394 27.908 18.351C27.9624 15.4412 28.1788 13.2526 28.464 12.7276C28.5775 12.5186 28.5616 12.5177 28.2682 12.7174C27.8902 12.9745 27.6025 13.3094 27.3475 13.7887C26.8661 14.6938 26.6989 15.9114 26.6989 18.5105C26.6989 19.9862 26.7089 20.1793 26.793 20.318C26.8728 20.4498 26.8771 20.4985 26.821 20.6392C26.7846 20.7304 26.7681 20.8176 26.7843 20.833C26.8918 20.9347 27.6747 20.9077 27.7903 20.7983V20.798Z" fill="#FCD95E"/>
<path d="M32.1889 18.0233C32.2053 17.9982 32.1691 17.8713 32.1084 17.7414C32.0138 17.5388 31.9757 17.5051 31.8409 17.5051C31.4186 17.5051 30.7398 17.3164 30.04 17.0045C29.6359 16.8244 29.4963 16.783 29.4479 16.8289C29.3242 16.946 29.5297 17.224 29.848 17.37C30.1303 17.4997 30.9195 17.6589 31.2795 17.6589C31.4884 17.6589 31.4933 17.6683 31.3745 17.8401L31.287 17.9665L31.5233 17.9726C31.6533 17.9759 31.8326 17.9962 31.922 18.0178C32.1539 18.0737 32.1561 18.0737 32.189 18.0233L32.1889 18.0233Z" fill="#FCD95E"/>
<path d="M34.6555 19.3346C34.6555 19.2594 34.4347 19.0556 34.2108 18.9243C34.0351 18.8211 34.0061 18.818 34.0057 18.9021C34.0051 19.0298 33.8915 19.3507 33.8469 19.3507C33.8218 19.3507 33.7846 19.288 33.7643 19.2113C33.744 19.1347 33.6588 18.9837 33.5749 18.8757L33.4225 18.6795L33.3038 18.8613C33.1932 19.0309 33.0016 19.1969 32.9165 19.1969C32.8962 19.1969 32.8922 19.1076 32.9077 18.9985C32.9245 18.8799 32.9115 18.7859 32.8755 18.7648C32.8423 18.7454 32.8152 18.7521 32.8152 18.7798C32.8152 18.8437 32.549 19.1456 32.4927 19.1456C32.4695 19.1456 32.437 19.0591 32.4205 18.9534C32.404 18.8477 32.376 18.6804 32.3582 18.5817C32.3404 18.4831 32.3783 18.55 32.4424 18.7304L32.559 19.0586L32.6868 18.8586C32.7571 18.7486 32.8147 18.6284 32.8149 18.5915C32.8149 18.5546 32.8388 18.5383 32.8677 18.5552C32.8966 18.5721 32.9369 18.7043 32.9571 18.849L32.994 19.112L33.1346 18.9578C33.212 18.873 33.3026 18.7595 33.336 18.7055C33.3957 18.6092 33.3991 18.6093 33.5177 18.7099C33.5842 18.7663 33.6864 18.9012 33.7449 19.0096C33.8033 19.1181 33.859 19.1988 33.8685 19.189C33.8781 19.1793 33.8995 19.0675 33.9161 18.9406C33.9328 18.8137 33.9476 18.7052 33.9491 18.6994C33.9574 18.668 34.3727 18.938 34.5264 19.0747C34.6252 19.1626 34.719 19.2222 34.7349 19.2071C34.7508 19.1921 34.7638 19.0625 34.7638 18.919C34.7638 18.6968 34.7402 18.6372 34.6043 18.5157C34.448 18.376 34.4436 18.3753 34.3859 18.4775C34.3109 18.6101 34.2225 18.612 34.2225 18.481C34.2225 18.3854 33.9272 18.0179 33.8503 18.0179C33.8304 18.0179 33.7682 18.0986 33.7121 18.1973C33.656 18.2959 33.5956 18.3766 33.578 18.3765C33.5022 18.376 33.0858 17.9118 33.086 17.828C33.086 17.7613 33.1141 17.7784 33.1871 17.8897C33.2426 17.9743 33.3534 18.1005 33.4333 18.1703C33.5952 18.3115 33.6541 18.2772 33.7165 18.005C33.7343 17.9275 33.7653 17.8641 33.7853 17.8641C33.8545 17.8641 34.2169 18.249 34.2679 18.3767L34.3191 18.5048L34.3579 18.3639C34.4053 18.1915 34.4576 18.1851 34.5333 18.3424C34.5649 18.4081 34.721 18.5447 34.8803 18.646L35.1698 18.8301L35.2279 18.6449C35.2598 18.5431 35.3022 18.4845 35.3219 18.5148C35.3514 18.56 35.2762 18.8669 35.2194 18.9329C35.2109 18.9428 35.1171 18.8882 35.0109 18.8115L34.8179 18.6721L34.8172 18.9217C34.8166 19.0589 34.8018 19.2231 34.7838 19.2866C34.7487 19.4106 34.6555 19.4455 34.6555 19.3346L34.6555 19.3346Z" fill="black"/>
<path d="M33.2122 17.3449C32.8681 17.0576 32.8159 16.9919 32.8235 16.8557L32.8316 16.7108L32.854 16.8508C32.8672 16.9325 32.9588 17.055 33.0743 17.1452L33.2721 17.2995L33.3936 17.159C33.4605 17.0817 33.516 16.9896 33.5171 16.9543C33.5199 16.8624 33.5364 16.8701 33.7693 17.0723C33.9763 17.2518 33.9795 17.2527 34.0103 17.1363C34.0275 17.0715 34.0214 16.9493 33.9968 16.8649C33.9292 16.633 33.9424 16.598 34.0449 16.7379C34.096 16.8076 34.178 16.9061 34.2273 16.9569C34.3131 17.0452 34.3183 17.0441 34.3503 16.9312C34.3686 16.8664 34.3839 16.7477 34.3843 16.6675L34.3851 16.5217L34.5717 16.7332C34.746 16.9308 34.7621 16.9381 34.8153 16.844C34.8466 16.7886 34.8726 16.6552 34.8731 16.5476C34.8737 16.4086 34.8883 16.3736 34.9237 16.4265C34.9827 16.5148 34.9417 16.7554 34.8327 16.9605L34.7545 17.1076L34.6518 16.9477C34.5205 16.7431 34.4768 16.7464 34.3925 16.9671C34.3128 17.1757 34.2611 17.1916 34.1835 17.0312C34.1332 16.9274 34.1237 16.9401 34.088 17.1582L34.0484 17.4005L33.8111 17.2163L33.5737 17.0321L33.467 17.1534C33.4083 17.2201 33.3595 17.3035 33.3585 17.3388C33.3563 17.4152 33.2992 17.4175 33.2122 17.3449L33.2122 17.3449Z" fill="black"/>
<path d="M36.2727 16.2748C36.1475 16.162 36.0612 16.0544 36.081 16.0356C36.1008 16.0169 36.1231 16.0115 36.1305 16.0237C36.138 16.0359 36.2403 16.1435 36.358 16.2629C36.629 16.5378 36.5733 16.5456 36.2727 16.2748V16.2748Z" fill="black"/>
<path d="M32.196 15.8535C32.0821 15.6995 32.09 15.5974 32.2286 15.4305C32.3289 15.3098 32.3746 15.2934 32.5496 15.3157C32.6619 15.3299 32.9034 15.4291 33.0864 15.5361C33.2977 15.6596 33.5163 15.7423 33.6856 15.7629C33.8322 15.7807 33.9521 15.7874 33.9521 15.7778C33.9521 15.7682 33.8912 15.669 33.8168 15.5574C33.64 15.2922 33.6461 15.2637 33.8454 15.4226C34.0501 15.5857 34.2948 15.6334 34.8418 15.6167L35.109 15.6086L34.954 15.4554C34.7372 15.241 34.8039 15.2218 35.0433 15.4296C35.2679 15.6245 35.2538 15.6383 34.7812 15.6854C34.5803 15.7055 34.3644 15.6909 34.1848 15.6453C33.9162 15.577 33.9058 15.578 33.9567 15.6681C33.986 15.7199 34.0335 15.7624 34.0622 15.7624C34.091 15.7624 34.1145 15.7887 34.1145 15.8208C34.1145 15.9197 33.5343 15.8328 33.2571 15.6924C32.6238 15.3717 32.5441 15.344 32.3933 15.3915C32.3095 15.4179 32.2255 15.4953 32.1966 15.5728C32.1001 15.8314 32.4668 16.0325 32.6181 15.8038C32.662 15.7376 32.6517 15.6923 32.5747 15.6116C32.4691 15.5012 32.479 15.4854 32.6215 15.5372C32.7227 15.574 32.7363 15.8168 32.6422 15.9059C32.5345 16.0079 32.2888 15.979 32.196 15.8535L32.196 15.8535Z" fill="black"/>
<path d="M34.6906 15.2148C34.6114 15.1398 34.6735 15.1214 35.0286 15.1148C35.4678 15.1066 35.7346 15.0334 36.0493 14.8347C36.3015 14.6755 36.3699 14.7068 36.1305 14.8719C35.9122 15.0225 35.5716 15.1383 35.2427 15.1737C35.0835 15.1908 34.902 15.2145 34.8395 15.2264C34.7769 15.2383 34.7099 15.2331 34.6906 15.2148L34.6906 15.2148Z" fill="black"/>
<rect x="5" y="5" width="8" height="32" fill="#1C6864"/>
<rect x="13" y="5" width="8" height="32" fill="#FFA654"/>
<rect x="21" y="5" width="3" height="32" fill="#FCD95E"/>
<rect x="48.5" y="36.5" width="45" height="33" rx="8.5" transform="rotate(-180 48.5 36.5)" stroke="#FCD95E" stroke-width="3"/>
</g>
<path d="M11.7035 1.61228C6.53056 2.04084 2.23921 5.77712 1.57724 11.0101C1.25164 13.5841 1 16.6548 1 20C1 23.3452 1.25164 26.4159 1.57724 28.9899C2.23922 34.2229 6.53056 37.9592 11.7035 38.3877C15.5784 38.7087 20.5852 39 26 39C31.4148 39 36.4216 38.7087 40.2965 38.3877C45.4694 37.9592 49.7608 34.2229 50.4228 28.9899C50.7484 26.4159 51 23.3452 51 20C51 16.6548 50.7484 13.5841 50.4228 11.0101C49.7608 5.77712 45.4694 2.04084 40.2965 1.61228C36.4216 1.29127 31.4148 1 26 1C20.5852 1 15.5784 1.29127 11.7035 1.61228Z" stroke="#E6E6FA" stroke-width="2"/>
</svg>
