<svg width="52" height="40" viewBox="0 0 52 40" fill="none" xmlns="http://www.w3.org/2000/svg">
<mask id="mask0_1_34395" style="mask-type:alpha" maskUnits="userSpaceOnUse" x="2" y="2" width="48" height="36">
<path d="M2.56934 11.1356C3.16681 6.41247 7.0415 3.00193 11.7861 2.60887C15.6412 2.28949 20.6196 2 26 2C31.3804 2 36.3588 2.28949 40.2139 2.60887C44.9585 3.00193 48.8332 6.41247 49.4307 11.1356C49.752 13.6759 50 16.704 50 20C50 23.296 49.752 26.3241 49.4307 28.8644C48.8332 33.5875 44.9585 36.9981 40.2139 37.3911C36.3588 37.7105 31.3804 38 26 38C20.6196 38 15.6412 37.7105 11.7861 37.3911C7.0415 36.9981 3.16681 33.5875 2.56934 28.8644C2.248 26.3241 2 23.296 2 20C2 16.704 2.248 13.6759 2.56934 11.1356Z" fill="#00D0BF"/>
</mask>
<g mask="url(#mask0_1_34395)">
<rect x="2" y="-4" width="48" height="49" fill="white"/>
<path d="M26.4856 11.5057L26.412 11.5072C26.252 11.5107 26.1107 11.5956 26.0068 11.6744C25.9029 11.7531 25.8336 11.8318 25.8336 11.8318L25.8177 11.8501C25.273 11.9459 24.7761 12.1811 24.3802 12.5655C23.856 13.0745 23.522 13.8243 23.4169 14.7792C23.3092 15.7583 23.5775 16.85 23.858 17.7178C24.1385 18.5857 24.4453 19.2322 24.4453 19.2322L24.4998 19.347L20.9664 24.1049L20.256 23.8593L18.9766 26.5883L19.0345 26.6248C19.0345 26.6248 22.0733 28.5276 26.4786 28.4756C31.3087 28.4181 33.9466 26.5349 33.9466 26.5349L34 26.4969L32.6769 23.8011L32.0473 24.075L28.3802 19.2247L28.4087 19.2359C28.4087 19.2359 28.7307 18.5746 29.0184 17.6895C29.3062 16.8043 29.5765 15.6918 29.435 14.6959C29.3013 13.7548 29.0053 13.0164 28.4793 12.5145C28.0947 12.1475 27.601 11.9308 27.0256 11.8444V11.8291L27.0038 11.8068C27.0038 11.8068 26.9311 11.7311 26.8237 11.6569C26.7342 11.595 26.6155 11.5404 26.4868 11.5226L26.4856 11.5057ZM27.0239 12.6239C27.4125 12.6968 27.7092 12.847 27.9463 13.0732C28.3018 13.4125 28.551 13.9649 28.6703 14.8045C28.7795 15.5732 28.5543 16.6188 28.2839 17.4508C28.1178 17.9616 27.9718 18.316 27.8694 18.5489L27.314 17.8144L27.3076 16.0722H28.2238L27.0189 14.9406L27.0239 12.6239ZM25.8201 12.6353L25.837 14.9771L24.7473 16.1186H25.649L25.6427 17.808L25.0338 18.628C24.955 18.4572 24.7971 18.1125 24.5929 17.4804C24.3285 16.6623 24.0999 15.6313 24.1844 14.8637C24.275 14.04 24.5472 13.4798 24.9181 13.1197C25.1677 12.8773 25.4684 12.7166 25.8201 12.6353ZM32.0975 24.7553L32.2934 25.0402L31.7415 25.8591L31.1718 25.1292L32.0975 24.7553ZM20.7032 25.0226L20.9346 25.7347L20.2581 25.8771C20.2581 25.8771 20.6498 25.0938 20.7032 25.0226ZM21.4153 25.0395L22.4122 25.3422L22.6437 25.8407L21.7713 26.0899L21.4153 25.0395ZM30.5307 25.36L30.8155 25.6628L29.9788 26.3215L29.4625 25.6805L30.5307 25.36ZM32.4714 25.4674L32.8096 26.1439L32.1331 26.3753L32.0797 26.0549L32.4714 25.4674ZM23.2486 25.5739L24.2456 25.7876L24.5306 26.2148L23.6581 26.5531L23.2486 25.5739ZM28.6613 25.7528L28.9282 26.1445L27.9312 26.6251L27.504 25.8952L28.6613 25.7528ZM25.1176 25.8597L26.7378 25.9309L26.8802 26.2691L25.6161 26.732L25.1176 25.8597ZM30.9932 26.0187L31.5095 26.7132L30.4057 26.998L30.192 26.6242L30.9932 26.0187ZM21.094 26.0373L21.2364 26.607L20.3819 26.2688L21.094 26.0373ZM22.7857 26.1981L23.2484 27.1773L22.0912 26.8925L21.9666 26.4652L22.7857 26.1981ZM29.1412 26.4467L29.7465 27.1588L28.4113 27.3725L28.1442 26.9452L29.1412 26.4467ZM27.0943 26.5892L27.6819 27.4616L26.1153 27.515L25.8481 27.0521L27.0943 26.5892ZM24.7444 26.5895L25.3142 27.4797L23.961 27.284L23.8186 26.91L24.7444 26.5895Z" fill="#2C2929"/>
<rect x="2" y="2" width="48" height="8" fill="#3F6FEB"/>
<rect x="2" y="30" width="48" height="8" fill="#59C785"/>
</g>
<path d="M11.7035 1.61228C6.53056 2.04084 2.23921 5.77712 1.57724 11.0101C1.25164 13.5841 1 16.6548 1 20C1 23.3452 1.25164 26.4159 1.57724 28.9899C2.23922 34.2229 6.53056 37.9592 11.7035 38.3877C15.5784 38.7087 20.5852 39 26 39C31.4148 39 36.4216 38.7087 40.2965 38.3877C45.4694 37.9592 49.7608 34.2229 50.4228 28.9899C50.7484 26.4159 51 23.3452 51 20C51 16.6548 50.7484 13.5841 50.4228 11.0101C49.7608 5.77712 45.4694 2.04084 40.2965 1.61228C36.4216 1.29127 31.4148 1 26 1C20.5852 1 15.5784 1.29127 11.7035 1.61228Z" stroke="#E6E6FA" stroke-width="2"/>
</svg>
