<svg width="52" height="40" viewBox="0 0 52 40" fill="none" xmlns="http://www.w3.org/2000/svg">
<mask id="mask0_1_30764" style="mask-type:alpha" maskUnits="userSpaceOnUse" x="2" y="2" width="48" height="36">
<path d="M2.56934 11.1356C3.16681 6.41247 7.0415 3.00193 11.7861 2.60887C15.6412 2.28949 20.6196 2 26 2C31.3804 2 36.3588 2.28949 40.2139 2.60887C44.9585 3.00193 48.8332 6.41247 49.4307 11.1356C49.752 13.6759 50 16.704 50 20C50 23.296 49.752 26.3241 49.4307 28.8644C48.8332 33.5875 44.9585 36.9981 40.2139 37.3911C36.3588 37.7105 31.3804 38 26 38C20.6196 38 15.6412 37.7105 11.7861 37.3911C7.0415 36.9981 3.16681 33.5875 2.56934 28.8644C2.248 26.3241 2 23.296 2 20C2 16.704 2.248 13.6759 2.56934 11.1356Z" fill="#00D0BF"/>
</mask>
<g mask="url(#mask0_1_30764)">
<rect x="2" y="-4" width="48" height="49" fill="#1C6864"/>
<path d="M26.7892 10.0443L28.0664 9.11648H26.4877L26 7.61506L25.5122 9.11648H23.9336L25.2108 10.0443L24.7232 11.5452L26 10.6177L27.2767 11.5452L26.7892 10.0443Z" fill="#FFDE23"/>
<path d="M18.0375 15.4343L18.9924 14.9045L17.9086 14.7716L17.7002 13.6999L17.239 14.6894L16.155 14.5564L16.9538 15.3013L16.4923 16.2914L17.4474 15.7616L18.246 16.5064L18.0375 15.4343Z" fill="#FFDE23"/>
<path d="M20.9609 11.9504L22.0531 11.9694L21.1807 11.3123L21.5363 10.2794L20.6414 10.9061L19.7692 10.2491L20.0884 11.2933L19.1938 11.9198L20.2857 11.9387L20.6052 12.9836L20.9609 11.9504Z" fill="#FFDE23"/>
<path d="M18.2871 28.1571C18.4958 28.3359 18.7105 28.5077 18.9313 28.6719H26H33.0687C33.2896 28.5077 33.5043 28.3359 33.7129 28.1571H26H18.2871Z" fill="white"/>
<path d="M19.6823 29.1867C20.0649 29.4281 20.4619 29.6485 20.8723 29.8457H26H31.1278C31.5382 29.6485 31.9352 29.4281 32.3177 29.1867H26H19.6823Z" fill="white"/>
<path d="M21.6251 30.1752C22.9791 30.7133 24.4551 31.0092 26 31.0092C27.5449 31.0092 29.0209 30.7133 30.3749 30.1752H26H21.6251Z" fill="white"/>
<path d="M17.2451 27.148C17.3474 27.2598 17.4522 27.3697 17.5586 27.4775H26H34.4414C34.5478 27.3697 34.6526 27.2598 34.7548 27.148H26H17.2451Z" fill="white"/>
<path d="M28.6766 25.5242C27.3637 25.127 26.4737 24.4087 26 23.9605C25.5264 24.4087 24.6364 25.127 23.3235 25.5242C22.7105 25.7097 22.0604 25.8093 21.3871 25.8093H16.1866C16.3399 26.0346 16.5006 26.2545 16.6686 26.4683H21.696C23.3352 26.4684 24.837 25.877 26 24.8962C27.163 25.877 28.6648 26.4684 30.3041 26.4683H35.3315C35.4995 26.2545 35.6602 26.0346 35.8135 25.8093H30.6129C29.9396 25.8093 29.2895 25.7097 28.6766 25.5242Z" fill="white"/>
<path d="M30.3863 24.7385C29.9809 24.7385 29.5838 24.7023 29.1983 24.633C29.3795 24.6479 29.5629 24.6562 29.7479 24.6562C32.605 24.6562 35.0448 22.8599 36 20.3361C35.0705 19.9484 34.0507 19.7344 32.9812 19.7344C31.0673 19.7344 29.3126 20.4201 27.9493 21.5588C29.3769 20.0696 31.384 19.1405 33.6074 19.1371C33.7497 18.8614 33.9385 18.6138 34.1635 18.4041C34.0447 18.3988 33.9251 18.3958 33.805 18.3958C31.5699 18.3958 29.5521 19.3309 28.1212 20.8309C28.9428 19.7209 29.4289 18.3478 29.4289 16.8615C29.4289 15.6666 29.1146 14.5451 28.5646 13.5743C28.443 13.9796 28.2276 14.3442 27.9442 14.6438C28.3547 15.51 28.5845 16.4783 28.5845 17.4999C28.5845 19.038 28.0638 20.455 27.1893 21.5845C27.9014 20.5221 28.3168 19.2447 28.3168 17.8706C28.3168 17.2087 28.2203 16.5691 28.0408 15.9652C27.561 14.3521 26.5432 13.2999 26 12.813C25.4568 13.2999 24.439 14.3521 23.9592 15.9652C23.7797 16.5691 23.6832 17.2087 23.6832 17.8706C23.6832 19.2447 24.0986 20.5221 24.8107 21.5845C23.9362 20.455 23.4155 19.038 23.4155 17.4999C23.4155 16.4783 23.6453 15.51 24.0558 14.6438C23.7724 14.3442 23.557 13.9796 23.4354 13.5743C22.8854 14.5451 22.5711 15.6666 22.5711 16.8615C22.5711 18.3478 23.0572 19.7209 23.8788 20.8309C22.4479 19.3309 20.4301 18.3958 18.195 18.3958C18.0749 18.3958 17.9553 18.3988 17.8365 18.4041C18.0615 18.6138 18.2503 18.8614 18.3926 19.1371C20.616 19.1405 22.6231 20.0696 24.0507 21.5588C22.6874 20.4201 20.9327 19.7344 19.0188 19.7344C17.9493 19.7344 16.9295 19.9484 16 20.3361C16.9552 22.8599 19.395 24.6562 22.2521 24.6562C22.4371 24.6562 22.6205 24.6479 22.8017 24.633C22.4162 24.7023 22.0191 24.7385 21.6137 24.7385C19.811 24.7385 18.1748 24.0236 16.9723 22.862C16.722 22.9584 16.4536 23.0185 16.1737 23.0351C17.3984 24.4203 19.1881 25.2946 21.1811 25.2946C23.0742 25.2946 24.7838 24.5061 26 23.2397C27.2162 24.5061 28.9258 25.2946 30.8189 25.2946C32.8119 25.2946 34.6016 24.4203 35.8263 23.0351C35.5464 23.0185 35.278 22.9584 35.0277 22.862C33.8252 24.0236 32.189 24.7385 30.3863 24.7385Z" fill="white"/>
<path d="M35.0462 15.3013L35.845 14.5564L34.761 14.6894L34.2998 13.6999L34.0914 14.7716L33.0076 14.9045L33.9625 15.4343L33.7541 16.5064L34.5526 15.7616L35.5077 16.2914L35.0462 15.3013Z" fill="#FFDE23"/>
<path d="M31.7142 11.9387L32.8062 11.9198L31.9116 11.2933L32.2308 10.2491L31.3586 10.9061L30.4636 10.2794L30.8193 11.3123L29.9468 11.9694L31.039 11.9504L31.3948 12.9836L31.7142 11.9387Z" fill="#FFDE23"/>
</g>
<path d="M11.7035 1.61228C6.53056 2.04084 2.23921 5.77712 1.57724 11.0101C1.25164 13.5841 1 16.6548 1 20C1 23.3452 1.25164 26.4159 1.57724 28.9899C2.23922 34.2229 6.53056 37.9592 11.7035 38.3877C15.5784 38.7087 20.5852 39 26 39C31.4148 39 36.4216 38.7087 40.2965 38.3877C45.4694 37.9592 49.7608 34.2229 50.4228 28.9899C50.7484 26.4159 51 23.3452 51 20C51 16.6548 50.7484 13.5841 50.4228 11.0101C49.7608 5.77712 45.4694 2.04084 40.2965 1.61228C36.4216 1.29127 31.4148 1 26 1C20.5852 1 15.5784 1.29127 11.7035 1.61228Z" stroke="#E6E6FA" stroke-width="2"/>
</svg>
