<svg width="52" height="40" viewBox="0 0 52 40" fill="none" xmlns="http://www.w3.org/2000/svg">
<mask id="mask0_1_35857" style="mask-type:alpha" maskUnits="userSpaceOnUse" x="2" y="2" width="48" height="36">
<path d="M49.4307 28.8644C48.8332 33.5875 44.9585 36.9981 40.2139 37.3911C36.3588 37.7105 31.3804 38 26 38C20.6196 38 15.6412 37.7105 11.7861 37.3911C7.0415 36.9981 3.16681 33.5875 2.56934 28.8644C2.248 26.3241 2 23.296 2 20C2 16.704 2.248 13.6759 2.56934 11.1356C3.16682 6.41246 7.04151 3.00193 11.7861 2.60887C15.6412 2.28948 20.6196 2 26 2C31.3804 2 36.3588 2.28949 40.2139 2.60887C44.9585 3.00193 48.8332 6.41247 49.4307 11.1356C49.752 13.6759 50 16.704 50 20C50 23.296 49.752 26.3241 49.4307 28.8644Z" fill="#00D0BF"/>
</mask>
<g mask="url(#mask0_1_35857)">
<rect x="50" y="44" width="16" height="49" transform="rotate(-180 50 44)" fill="#EE5757"/>
<rect x="34" y="44" width="16" height="49" transform="rotate(-180 34 44)" fill="#FCD95E"/>
<path d="M24.4142 12.6661C24.3174 12.6661 24.2328 12.6908 24.1834 12.7292C24.2618 12.752 24.3189 12.8243 24.3189 12.9123L24.3189 13.1353L24.0958 13.1353C24.0084 13.1353 23.9361 13.0791 23.9127 13.0015C23.8743 13.0508 23.8496 13.1354 23.8496 13.2323C23.8496 13.3291 23.8743 13.4137 23.9127 13.463C23.9356 13.3846 24.0078 13.3276 24.0958 13.3276L24.3189 13.3276L24.3189 14.3999C24.3189 14.4842 24.2661 14.5541 24.1927 14.5799C24.2991 14.5944 24.3907 14.7372 24.4158 14.8153C24.4409 14.7374 24.5325 14.5944 24.6389 14.5799C24.5646 14.5546 24.5111 14.4848 24.5111 14.3999L24.5111 13.3275L24.7342 13.3275C24.8216 13.3275 24.894 13.3837 24.9173 13.4615C24.9557 13.4121 24.9804 13.3275 24.9804 13.2307C24.9804 13.1338 24.9558 13.0492 24.9173 12.9999C24.8945 13.0783 24.8222 13.1352 24.7342 13.1352L24.5111 13.1352L24.5111 12.9122C24.5111 12.8248 24.5673 12.7525 24.645 12.7291C24.5957 12.6907 24.5111 12.666 24.4142 12.666L24.4142 12.6661Z" fill="black"/>
<path d="M24.4143 12.7123C24.3639 12.7123 24.3195 12.7218 24.2821 12.7339C24.3321 12.7773 24.3651 12.8404 24.3651 12.9123L24.3651 13.1354C24.3651 13.1386 24.3642 13.1416 24.3636 13.1447L24.3636 13.18L24.3282 13.18C24.3252 13.1807 24.3221 13.1816 24.319 13.1816L24.0958 13.1816C24.0247 13.1816 23.9624 13.1491 23.919 13.1001C23.9065 13.1379 23.8959 13.1811 23.8959 13.2324C23.8959 13.2828 23.9053 13.3272 23.9174 13.3647C23.9609 13.3147 24.0239 13.2817 24.0958 13.2817L24.3651 13.2817C24.3648 13.2863 24.3635 13.2908 24.3635 13.2955L24.3635 13.3185C24.3642 13.3215 24.3651 13.3246 24.3651 13.3278L24.3651 14.4001C24.3651 14.4697 24.3292 14.5244 24.282 14.5678C24.3157 14.5886 24.3448 14.6148 24.3697 14.6447C24.3918 14.6713 24.4006 14.6973 24.4158 14.7247C24.4311 14.6974 24.4399 14.6713 24.462 14.6447C24.4865 14.6153 24.5151 14.59 24.5482 14.5693C24.5006 14.5261 24.4651 14.47 24.4651 14.4001L24.4651 13.2831L24.502 13.2831C24.505 13.2825 24.508 13.2816 24.5112 13.2816L24.7343 13.2816C24.8054 13.2816 24.8677 13.3141 24.9112 13.3631C24.9237 13.3253 24.9343 13.2821 24.9343 13.2308C24.9343 13.1804 24.9248 13.136 24.9128 13.0985C24.8693 13.1485 24.8063 13.1816 24.7343 13.1816L24.5112 13.1816C24.5081 13.1816 24.505 13.1806 24.502 13.18L24.4666 13.18L24.4666 13.1446C24.466 13.1416 24.4651 13.1386 24.465 13.1354L24.465 12.9123C24.465 12.8412 24.4976 12.7789 24.5466 12.7354C24.5087 12.7229 24.4656 12.7123 24.4143 12.7123" fill="#F5D402"/>
<path d="M27.2067 16.5953C27.0704 16.4985 26.9586 16.3891 26.879 16.2615C26.6875 15.9542 26.6067 15.5771 26.6067 15.1938C26.6067 15.0318 26.7882 14.8494 26.7882 14.7184C26.7882 14.5203 26.7698 14.4015 26.7698 14.4015C26.8342 14.4103 26.9467 14.5245 26.9467 14.5245C26.9467 14.5245 26.9428 14.1958 26.839 14.1384C26.839 14.1384 26.881 14.0952 27.0328 14.0907C26.9902 13.9826 26.779 13.8507 26.779 13.8507C26.7896 13.8318 26.8091 13.8155 26.8344 13.8015C26.8874 13.7721 26.962 13.7528 27.019 13.7415C26.9582 13.7289 26.8882 13.7096 26.8113 13.6845C26.6357 13.6273 26.4291 13.5434 26.2359 13.4507C25.8833 13.2816 25.6148 13.2707 25.4667 13.2707C25.3592 13.2707 25.201 13.2737 25.1083 13.3354C25.0234 13.3917 25.0303 13.465 25.0005 13.4907C24.9305 13.5513 24.8106 13.5492 24.7528 13.5492C24.379 13.5492 24.3651 13.9492 24.3651 13.9492C24.3651 13.9492 24.4607 13.8046 24.6297 13.8046C24.9107 13.8046 25.1236 13.9577 25.1236 14.0153C25.1236 14.0387 25.0946 14.043 25.0928 14.043C24.9093 14.043 24.6322 13.9373 24.4851 13.9322L24.4851 14.0045C24.8136 14.1188 25.1466 14.2806 25.1466 14.9938C25.1466 15.4429 25.0929 15.9011 24.8682 16.2615C24.7886 16.3891 24.6753 16.4983 24.539 16.5954L25.8728 16.8358L27.2067 16.5953Z" fill="black"/>
<path d="M25.8728 16.2949L24.539 16.5954C24.4783 16.5771 24.193 16.4884 23.9928 16.3769C23.6404 16.1806 23.4577 15.9853 23.0389 15.9662L23.0389 15.6477C23.0389 15.4775 23.1005 15.3242 23.1005 15.1615C22.924 15.1142 22.434 14.5151 21.982 14.2492C21.317 14.6799 20.802 15.3871 20.802 15.7123C20.802 15.7123 20.822 22.6998 20.802 25.1341C20.802 25.2744 20.7174 25.4726 20.7174 25.4726C20.9602 25.3698 21.4052 24.7609 21.499 24.5294L21.499 24.6402C21.8656 24.473 22.1341 24.0337 22.2544 23.8064C22.2565 23.8392 22.2621 23.9217 22.2621 23.9217C22.5896 23.6346 23.0067 21.9371 23.0067 21.9371L23.7016 22.6201C23.7016 22.6201 23.4503 23.1302 23.3524 23.2216C23.3524 23.2216 23.418 23.2299 23.4923 23.2293C23.4466 23.295 23.0972 23.798 22.9877 23.9877C22.8852 24.1652 22.8129 24.0862 22.6554 24.0862C22.5248 24.0862 22.2287 24.2943 22.18 24.3786C22.1289 24.4671 22.0908 24.5746 22.0908 24.6632C22.0908 24.7605 22.1939 24.894 22.1939 24.894C22.205 24.8473 22.2247 24.8309 22.2247 24.8309C22.2247 24.8309 22.4955 25.1683 22.5354 25.2124C22.5665 25.2467 22.7051 25.2691 22.7539 25.2247C22.8761 25.1136 22.9944 25.036 23.1032 24.8755C23.1591 24.7928 23.1634 24.6981 23.2278 24.6093C23.443 24.3124 23.8713 23.7438 23.9693 23.6139C23.9759 23.6501 23.9815 23.6802 23.9877 23.717C24.0987 23.4929 24.6323 23.0647 24.6323 23.0647L25.1907 23.3216C25.1907 23.3216 24.1482 25.7179 23.2229 26.0863C23.2229 26.0863 23.6255 26.2573 24.1199 26.514C24.192 26.5515 24.2663 26.5917 24.3414 26.6325C24.4037 26.5576 24.4692 26.4743 24.5337 26.3879C24.8293 25.9924 25.1184 25.534 25.1184 25.534C25.1385 25.653 24.9824 26.0207 24.7184 26.4741C24.6665 26.5632 24.6123 26.6563 24.5522 26.751C24.6192 26.7892 24.6857 26.8279 24.7522 26.8679C25.2419 27.1626 25.7018 27.5013 25.8722 27.8125L25.9924 27.5117L25.8722 27.2109L25.8722 16.6938L25.9323 16.5436L25.8728 16.2949Z" fill="black"/>
<path d="M25.8721 27.2109C25.6994 27.0235 25.3381 26.7946 24.9322 26.5833C25.423 25.7022 25.6663 24.3096 25.5521 24.0324C25.5521 24.0324 25.3506 24.7547 25.1044 25.1663C24.8764 25.5474 24.5958 25.9762 24.3244 26.294C24.1012 26.1988 23.8847 26.1189 23.6998 26.0632C24.513 25.4368 25.3444 23.3662 25.3444 23.3662L24.4846 22.9677C24.4846 22.9677 24.1629 23.3428 24.0584 23.4124C24.0584 23.4124 24.0138 23.2259 23.9877 23.1601C23.9877 23.1601 23.8644 23.2533 23.797 23.2555C23.797 23.2555 23.7768 23.1289 23.7615 23.0462C23.6767 23.1028 23.5354 23.0909 23.5354 23.0909C23.6594 23.0321 23.8062 22.6724 23.8062 22.6724L22.9851 21.5802C22.9851 21.5802 22.6967 22.9661 22.3682 23.251L22.3682 17.2831L22.6282 17.5247L23.022 17.157L23.022 16.877L22.6728 17.2031L22.6728 16.3585C22.7254 16.2789 22.7603 16.2194 22.7866 16.1723C22.8431 16.2709 23.0258 16.5729 23.2404 16.7585C23.2758 16.6149 23.5081 16.4785 23.5081 16.4785C23.5081 16.4785 23.5914 16.7041 23.7189 16.76C23.7637 16.681 24.0312 16.5062 24.0312 16.5062C24.0312 16.5062 23.8024 16.5409 23.7097 16.6277C23.6301 16.6099 23.6097 16.2954 23.6097 16.2954C23.6097 16.2954 23.2729 16.4595 23.2143 16.5769C23.1501 16.5596 23.0501 16.3068 23.0112 16.2031C23.0699 16.1967 23.1529 16.1893 23.262 16.1893C23.358 16.1893 23.4809 16.2348 23.6096 16.2954C23.7511 16.362 23.8991 16.4463 24.0312 16.5062C24.2005 16.5828 24.4565 16.5984 24.5312 16.6016C24.4457 16.6617 24.3517 16.7166 24.2497 16.7677C24.2497 16.7677 24.6527 16.764 24.9359 16.6231C25.0369 16.5581 25.1417 16.4934 25.2312 16.4169C25.1924 16.5249 25.1319 16.6525 25.0373 16.7616C25.4531 16.7264 25.6602 16.4889 25.7189 16.4093C25.7465 16.4806 25.7956 16.5952 25.8727 16.6938L26.023 16.6938L26.023 26.9117L25.8721 27.2109Z" fill="#B07F55"/>
<path d="M22.8081 15.1922L22.8158 15.383L22.8158 15.9446C22.6649 15.8927 22.4754 15.6449 22.3835 15.5138L22.3835 15.4369C22.3835 15.3645 22.4261 15.3117 22.4573 15.2831L22.3666 15.2508C22.3319 15.2902 22.2943 15.3488 22.2943 15.4246L22.2943 15.4692L22.0235 15.76L21.7574 15.3569L21.7574 15.2585C21.7574 15.1921 21.8084 15.1181 21.8512 15.0677L21.762 15.0354C21.7169 15.0938 21.6696 15.1724 21.6696 15.2462L21.6696 15.3261C21.607 15.3909 21.3635 15.6416 21.3635 15.6416C21.3635 15.6416 21.2413 15.379 21.2081 15.3077C21.3946 15.0494 21.697 14.7602 21.9819 14.5526C21.9819 14.5526 22.6 15.12 22.8081 15.1922Z" fill="#B07F55"/>
<path d="M21.2418 15.7369L21.2418 16.2L21.0264 16.4L21.0264 15.7123C21.0264 15.6465 21.054 15.5671 21.1002 15.48L21.2418 15.7369Z" fill="#B07F55"/>
<path d="M21.9126 15.9153L21.9126 16.2015L21.6649 16.4338L21.6649 15.5384L21.9126 15.9153Z" fill="#B07F55"/>
<path d="M21.5772 16.4323L21.3295 16.2015L21.3295 15.8662L21.5772 15.6062L21.5772 16.4323Z" fill="#B07F55"/>
<path d="M22.7079 16.0846C22.6504 16.1659 22.4997 16.3647 22.3372 16.4523L22.3372 15.6661C22.3745 15.7282 22.5455 16.0049 22.7079 16.0846Z" fill="#B07F55"/>
<path d="M22.2494 15.7061L22.2494 16.4323L22.0017 16.2015L22.0017 15.9446L22.2494 15.7061Z" fill="#B07F55"/>
<path d="M21.2418 16.4799L21.2418 17.2046L21.0264 17.003L21.0264 16.6815L21.2418 16.4799Z" fill="#B07F55"/>
<path d="M21.577 16.7123L21.577 16.9723L21.3292 17.203L21.3292 16.4815L21.577 16.7123Z" fill="#B07F55"/>
<path d="M21.9123 16.4816L21.9123 17.2031L21.6647 16.9708L21.6647 16.7139L21.9123 16.4816Z" fill="#B07F55"/>
<path d="M22.2493 16.7139L22.2493 16.9708L22.0016 17.2031L22.0016 16.4815L22.2493 16.7139Z" fill="#B07F55"/>
<path d="M22.5847 17.2046L22.3369 16.9723L22.3369 16.7308C22.4224 16.6786 22.5083 16.5828 22.5847 16.4815L22.5847 17.2046Z" fill="#B07F55"/>
<path d="M21.957 17.5246L22.2185 17.2815L22.2185 23.2509C22.2185 23.2509 22.2367 23.5471 22.2493 23.7401C22.133 23.8576 21.6954 24.3001 21.6954 24.3001L21.6954 17.2799L21.957 17.5246Z" fill="#B07F55"/>
<path d="M21.5461 24.077C21.5461 24.2689 21.1957 24.7163 21.0261 24.8186L21.0261 17.2832L21.2846 17.5247L21.5461 17.2816L21.5461 24.077Z" fill="#B07F55"/>
<path d="M23.7184 23.4293L23.9091 23.2985C23.9091 23.2985 23.9219 23.3616 23.9384 23.4478C23.8567 23.5595 23.3875 24.1998 23.1553 24.5124C23.0975 24.5901 23.0491 24.7878 23.0491 24.7878C23.0491 24.7878 22.9645 24.7478 22.9645 24.6755C22.9645 24.6045 22.9738 24.5201 22.9738 24.5201C22.9738 24.5201 22.9106 24.5924 22.8014 24.5924C22.8014 24.5052 22.9701 24.4105 22.9768 24.2863C22.8481 24.3817 22.7364 24.3327 22.5876 24.3786C22.4255 24.4285 22.3804 24.4966 22.3307 24.494C22.3014 24.4924 22.2749 24.4419 22.2861 24.4109C22.3054 24.3572 22.5059 24.2086 22.646 24.1817C22.6796 24.1753 22.9436 24.2392 22.9968 24.1571C23.2159 23.819 23.5717 23.27 23.606 23.2171C23.6286 23.2117 23.6494 23.206 23.666 23.1955C23.666 23.1955 23.664 23.3683 23.7184 23.4293Z" fill="#D10429"/>
<path d="M22.4917 24.4831C22.5023 24.4953 22.5014 24.5133 22.4901 24.5231L22.404 24.5984C22.3927 24.6082 22.3746 24.6061 22.364 24.5938C22.3534 24.5815 22.3543 24.5636 22.3656 24.5538L22.4517 24.4784C22.4574 24.4735 22.4646 24.4714 22.4717 24.4723C22.4789 24.4731 22.4864 24.4769 22.4917 24.4831Z" fill="#D10429"/>
<path d="M22.6226 24.5739C22.6483 24.6035 22.6467 24.6456 22.6195 24.6693L22.4102 24.8523C22.383 24.876 22.3391 24.8713 22.3133 24.8416C22.2875 24.8119 22.2891 24.7683 22.3164 24.7447L22.5256 24.5631C22.5358 24.5542 22.5497 24.5488 22.5625 24.5477C22.5839 24.546 22.6064 24.5553 22.6226 24.5739Z" fill="#D10429"/>
<path d="M22.7424 24.7154C22.7682 24.7451 22.7665 24.7871 22.7393 24.8108L22.5286 24.9939C22.5014 25.0175 22.459 25.0128 22.4332 24.9831C22.4074 24.9534 22.409 24.9098 22.4363 24.8862L22.6455 24.7047C22.6557 24.6958 22.668 24.6904 22.6809 24.6893C22.7023 24.6875 22.7263 24.6968 22.7424 24.7154Z" fill="#D10429"/>
<path d="M22.8147 24.8277C22.8361 24.826 22.8586 24.8337 22.8747 24.8523C22.9005 24.882 22.8988 24.9256 22.8716 24.9492L22.6623 25.1308C22.6351 25.1545 22.5927 25.1497 22.567 25.12C22.5412 25.0903 22.5413 25.0483 22.5685 25.0246L22.7793 24.8416C22.7894 24.8327 22.8018 24.8287 22.8147 24.8277Z" fill="#D10429"/>
<path d="M25.5636 13.3692C25.908 13.3692 26.1501 13.5262 26.476 13.6707C26.5614 13.7086 26.6398 13.7393 26.7098 13.763C26.6659 13.8019 26.6318 13.8409 26.6221 13.8738C26.6221 13.8738 26.7681 13.9009 26.8344 14.0231C26.8344 14.0231 26.6955 14.0388 26.6728 14.12C26.7506 14.1258 26.8279 14.2239 26.8282 14.3185L26.6313 14.2569C26.6313 14.2569 26.679 14.478 26.679 14.7184C26.679 14.8412 26.5021 14.9857 26.5021 15.1938C26.5021 15.847 26.6666 16.0981 26.7837 16.3C26.8294 16.379 26.8666 16.4699 26.9437 16.5384C26.6065 16.3589 26.3559 16.1346 26.3559 15.9262L26.3559 15.1369L26.2683 15.1369L26.2683 15.9262C26.2683 16.0773 26.3052 16.1477 26.3052 16.1477C26.3581 16.3149 26.4651 16.573 26.5313 16.6769C26.2212 16.5093 26.0636 16.2994 26.0636 16.2215L26.0636 15.1369L25.9759 15.1369L25.9759 16.2369L25.9928 16.3123C25.9552 16.3688 25.9064 16.4357 25.8728 16.4584C25.8394 16.4357 25.792 16.3687 25.7543 16.3123L25.7713 16.2369L25.7713 15.1369L25.6836 15.1369L25.6836 16.2215C25.6836 16.2994 25.526 16.5093 25.2159 16.6769C25.2821 16.573 25.3891 16.3149 25.442 16.1477C25.442 16.1477 25.4789 16.0773 25.4789 15.9262L25.4789 15.1369L25.3912 15.1369L25.3912 15.9262C25.3912 16.1343 25.1416 16.3591 24.8051 16.5384C24.8813 16.4698 24.918 16.3785 24.9635 16.3C25.0915 16.0792 25.2497 15.7986 25.2497 15C25.2497 14.7002 25.2053 14.4964 25.1281 14.3538C25.1046 14.3067 25.073 14.1815 25.2527 14.1815C25.3458 14.1815 25.5589 14.3461 25.5589 14.3461C25.5589 14.3461 25.5501 14.2148 25.442 14.14C25.424 14.1275 25.3943 14.0885 25.3943 14.0522C25.3943 14.0251 25.4409 13.958 25.4773 13.9415C25.5024 13.9301 25.1112 13.8619 25.1112 13.6845C25.1112 13.6476 25.1344 13.623 25.2158 13.623C25.3223 13.623 25.4956 13.7507 25.6497 13.7507C25.7635 13.7507 25.8084 13.723 25.925 13.723C26.0675 13.723 26.3648 13.9928 26.4665 13.983C26.3529 13.9116 26.1692 13.6414 25.8912 13.6414C25.7947 13.6414 25.7074 13.663 25.6173 13.663C25.5019 13.663 25.3882 13.5568 25.2634 13.5568C25.1798 13.5568 25.0865 13.5614 25.0726 13.5398C25.0484 13.5021 25.0702 13.4802 25.0927 13.4491C25.135 13.3903 25.2539 13.3732 25.3712 13.3691C25.4063 13.3679 25.4414 13.3673 25.4743 13.3676C25.5071 13.3679 25.5374 13.3692 25.5636 13.3692Z" fill="#B07F55"/>
<path d="M24.4455 13.7915C24.4455 13.7915 24.5182 13.6539 24.702 13.6539C24.7788 13.6539 25.0323 13.6485 25.0323 13.6485C25.0661 13.7363 25.2201 13.883 25.2201 14.0356C25.2201 14.0356 25.0638 13.7538 24.6274 13.7538C24.5177 13.7538 24.4454 13.7915 24.4454 13.7915L24.4455 13.7915Z" fill="#CC092F"/>
<path d="M25.1551 14.0893C25.1551 14.0893 25.0622 14.1873 25.042 14.2395C24.95 14.2047 24.7896 14.0393 24.7896 14.0393C24.7896 14.0393 24.9255 14.1187 25.1551 14.0893L25.1551 14.0893Z" fill="#D10429"/>
<path d="M25.0079 13.83C25.0079 13.83 24.9006 13.7956 24.9006 13.7596C24.9006 13.7138 24.9527 13.7138 24.9838 13.7495C25.0053 13.7741 25.0078 13.83 25.0078 13.83L25.0079 13.83Z" fill="black"/>
<path d="M25.4694 13.9542C25.5543 13.9542 25.6231 13.8998 25.6231 13.8327C25.6231 13.7656 25.5543 13.7112 25.4694 13.7112C25.3846 13.7112 25.3158 13.7656 25.3158 13.8327C25.3158 13.8998 25.3846 13.9542 25.4694 13.9542Z" fill="black"/>
<path d="M25.4694 13.9397C25.5285 13.9397 25.5764 13.8918 25.5764 13.8327C25.5764 13.7736 25.5285 13.7257 25.4694 13.7257C25.4103 13.7257 25.3624 13.7736 25.3624 13.8327C25.3624 13.8918 25.4103 13.9397 25.4694 13.9397Z" fill="#F5D402"/>
<path d="M25.4694 13.8781C25.4944 13.8781 25.5148 13.8578 25.5148 13.8327C25.5148 13.8076 25.4944 13.7873 25.4694 13.7873C25.4443 13.7873 25.424 13.8076 25.424 13.8327C25.424 13.8578 25.4443 13.8781 25.4694 13.8781Z" fill="black"/>
<path d="M25.8661 16.2948L27.1999 16.5954C27.2606 16.577 27.5459 16.4884 27.7461 16.3769C28.0985 16.1806 28.2812 15.9853 28.7 15.9661L28.7 15.6476C28.7 15.4775 28.6384 15.3242 28.6384 15.1615C28.8149 15.1141 29.3049 14.5151 29.7569 14.2491C30.4219 14.6799 30.9369 15.3871 30.9369 15.7123C30.9369 15.7123 30.9169 22.6998 30.9369 25.1341C30.9369 25.2743 31.0215 25.4725 31.0215 25.4725C30.7787 25.3698 30.3336 24.7609 30.2399 24.5294L30.2399 24.6402C29.8733 24.473 29.6048 24.0337 29.4845 23.8064C29.4824 23.8392 29.4768 23.9217 29.4768 23.9217C29.1492 23.6346 28.7322 21.9371 28.7322 21.9371L28.0373 22.6201C28.0373 22.6201 28.2886 23.1302 28.3865 23.2216C28.3865 23.2216 28.3209 23.2299 28.2466 23.2293C28.2923 23.295 28.6417 23.798 28.7512 23.9877C28.8536 24.1652 28.9259 24.0862 29.0835 24.0862C29.2141 24.0862 29.5102 24.2943 29.5589 24.3785C29.61 24.467 29.6481 24.5746 29.6481 24.6632C29.6481 24.7605 29.545 24.8939 29.545 24.8939C29.5339 24.8473 29.5142 24.8309 29.5142 24.8309C29.5142 24.8309 29.2434 25.1683 29.2035 25.2124C29.1724 25.2467 29.0338 25.2691 28.985 25.2247C28.8628 25.1136 28.7445 25.0359 28.6357 24.8755C28.5797 24.7928 28.5755 24.6981 28.5111 24.6093C28.2959 24.3124 27.8676 23.7438 27.7696 23.6139C27.763 23.6501 27.7574 23.6802 27.7512 23.717C27.6402 23.4929 27.1065 23.0647 27.1065 23.0647L26.5482 23.3216C26.5482 23.3216 27.5907 25.7179 28.5159 26.0863C28.5159 26.0863 28.1134 26.2573 27.619 26.514C27.5469 26.5515 27.4726 26.5917 27.3975 26.6325C27.3352 26.5576 27.2697 26.4743 27.2052 26.3878C26.9096 25.9924 26.6205 25.534 26.6205 25.534C26.6004 25.653 26.7565 26.0207 27.0205 26.4741C27.0724 26.5631 27.1266 26.6563 27.1867 26.7509C27.1197 26.7892 27.0532 26.8278 26.9867 26.8679C26.497 27.1626 26.0371 27.5013 25.8667 27.8125L25.7465 27.5117L25.8667 27.2109L25.8667 16.6938L25.8066 16.5436L25.8661 16.2948Z" fill="black"/>
<path d="M25.8667 27.2109C26.0395 27.0235 26.4008 26.7945 26.8067 26.5832C26.3159 25.7022 26.0726 24.3096 26.1867 24.0324C26.1867 24.0324 26.3883 24.7546 26.6345 25.1662C26.8625 25.5474 27.1431 25.9761 27.4145 26.294C27.6377 26.1987 27.8542 26.1188 28.0391 26.0632C27.2259 25.4368 26.3944 23.3662 26.3944 23.3662L27.2543 22.9677C27.2543 22.9677 27.576 23.3427 27.6805 23.4124C27.6805 23.4124 27.7251 23.2259 27.7512 23.16C27.7512 23.16 27.8745 23.2533 27.9419 23.2555C27.9419 23.2555 27.9621 23.1289 27.9773 23.0462C28.0622 23.1028 28.2035 23.0908 28.2035 23.0908C28.0795 23.0321 27.9327 22.6724 27.9327 22.6724L28.7538 21.5802C28.7538 21.5802 29.0422 22.9661 29.3707 23.251L29.3707 17.2831L29.1107 17.5246L28.7169 17.1569L28.7169 16.8769L29.0661 17.2031L29.0661 16.3584C29.0135 16.2788 28.9786 16.2194 28.9523 16.1723C28.8957 16.2708 28.7131 16.5729 28.4985 16.7585C28.4631 16.6149 28.2307 16.4784 28.2307 16.4784C28.2307 16.4784 28.1475 16.7041 28.02 16.76C27.9752 16.681 27.7077 16.5061 27.7077 16.5061C27.7077 16.5061 27.9365 16.5409 28.0292 16.6277C28.1088 16.6099 28.1292 16.2954 28.1292 16.2954C28.1292 16.2954 28.466 16.4594 28.5246 16.5769C28.5888 16.5595 28.6888 16.3068 28.7277 16.2031C28.669 16.1967 28.586 16.1892 28.4769 16.1892C28.3809 16.1892 28.258 16.2347 28.1293 16.2954C27.9878 16.362 27.8398 16.4463 27.7077 16.5062C27.5384 16.5828 27.2823 16.5984 27.2077 16.6016C27.2932 16.6617 27.3872 16.7165 27.4892 16.7677C27.4892 16.7677 27.0862 16.764 26.803 16.6231C26.702 16.5581 26.5972 16.4934 26.5077 16.4169C26.5465 16.5249 26.607 16.6525 26.7016 16.7615C26.2857 16.7263 26.0787 16.4889 26.02 16.4092C25.9924 16.4806 25.9433 16.5952 25.8662 16.6938L25.7159 16.6938L25.7159 26.9117L25.8667 27.2109Z" fill="#B07F55"/>
<path d="M28.9308 15.1922L28.9231 15.383L28.9231 15.9446C29.074 15.8927 29.2635 15.6449 29.3554 15.5138L29.3554 15.4369C29.3554 15.3645 29.3128 15.3116 29.2816 15.283L29.3723 15.2508C29.4069 15.2902 29.4446 15.3488 29.4446 15.4246L29.4446 15.4692L29.7154 15.76L29.9815 15.3569L29.9815 15.2585C29.9815 15.1921 29.9305 15.1181 29.8877 15.0677L29.9769 15.0354C30.022 15.0937 30.0692 15.1724 30.0692 15.2461L30.0692 15.3261C30.1318 15.3909 30.3754 15.6415 30.3754 15.6415C30.3754 15.6415 30.4976 15.379 30.5308 15.3077C30.3443 15.0494 30.0419 14.7602 29.7569 14.5526C29.7569 14.5526 29.1389 15.12 28.9308 15.1922Z" fill="#B07F55"/>
<path d="M30.4971 15.7369L30.4971 16.2L30.7125 16.4L30.7125 15.7123C30.7125 15.6464 30.6849 15.5671 30.6387 15.4799L30.4971 15.7369Z" fill="#B07F55"/>
<path d="M29.8263 15.9153L29.8263 16.2015L30.074 16.4338L30.074 15.5384L29.8263 15.9153Z" fill="#B07F55"/>
<path d="M30.1617 16.4323L30.4094 16.2015L30.4094 15.8662L30.1617 15.6061L30.1617 16.4323Z" fill="#B07F55"/>
<path d="M29.031 16.0846C29.0885 16.1659 29.2391 16.3647 29.4017 16.4523L29.4017 15.6661C29.3644 15.7282 29.1933 16.0049 29.031 16.0846Z" fill="#B07F55"/>
<path d="M29.4895 15.7061L29.4895 16.4322L29.7372 16.2015L29.7372 15.9446L29.4895 15.7061Z" fill="#B07F55"/>
<path d="M30.4971 16.4799L30.4971 17.2046L30.7125 17.003L30.7125 16.6815L30.4971 16.4799Z" fill="#B07F55"/>
<path d="M30.1619 16.7123L30.1619 16.9723L30.4097 17.203L30.4097 16.4815L30.1619 16.7123Z" fill="#B07F55"/>
<path d="M29.8266 16.4815L29.8266 17.2031L30.0742 16.9708L30.0742 16.7138L29.8266 16.4815Z" fill="#B07F55"/>
<path d="M29.4896 16.7138L29.4896 16.9708L29.7373 17.2031L29.7373 16.4815L29.4896 16.7138Z" fill="#B07F55"/>
<path d="M29.1542 17.2046L29.402 16.9723L29.402 16.7308C29.3165 16.6786 29.2306 16.5828 29.1542 16.4815L29.1542 17.2046Z" fill="#B07F55"/>
<path d="M29.7819 17.5246L29.5204 17.2815L29.5204 23.2508C29.5204 23.2508 29.5022 23.547 29.4896 23.7401C29.6059 23.8576 30.0435 24.3001 30.0435 24.3001L30.0435 17.2799L29.7819 17.5246Z" fill="#B07F55"/>
<path d="M30.1928 24.077C30.1928 24.2689 30.5432 24.7163 30.7128 24.8186L30.7128 17.2832L30.4543 17.5247L30.1928 17.2816L30.1928 24.077Z" fill="#B07F55"/>
<path d="M28.0205 23.4293L27.8298 23.2985C27.8298 23.2985 27.817 23.3616 27.8005 23.4478C27.8822 23.5595 28.3514 24.1998 28.5836 24.5124C28.6414 24.5901 28.6898 24.7878 28.6898 24.7878C28.6898 24.7878 28.7744 24.7478 28.7744 24.6755C28.7744 24.6045 28.7651 24.5201 28.7651 24.5201C28.7651 24.5201 28.8283 24.5924 28.9375 24.5924C28.9375 24.5052 28.7688 24.4105 28.7621 24.2863C28.8908 24.3817 29.0025 24.3327 29.1513 24.3786C29.3134 24.4285 29.3585 24.4966 29.4082 24.494C29.4375 24.4924 29.464 24.4419 29.4528 24.4109C29.4335 24.3572 29.233 24.2086 29.0929 24.1817C29.0593 24.1753 28.7953 24.2392 28.7421 24.1571C28.5229 23.8189 28.1672 23.27 28.1329 23.2171C28.1103 23.2117 28.0895 23.206 28.0729 23.1955C28.0729 23.1955 28.0749 23.3683 28.0205 23.4293Z" fill="#D10429"/>
<path d="M29.2472 24.4831C29.2366 24.4953 29.2375 24.5133 29.2488 24.523L29.3349 24.5984C29.3462 24.6082 29.3642 24.6061 29.3749 24.5938C29.3855 24.5815 29.3846 24.5636 29.3733 24.5538L29.2872 24.4784C29.2815 24.4735 29.2743 24.4714 29.2672 24.4723C29.26 24.4731 29.2525 24.4769 29.2472 24.4831Z" fill="#D10429"/>
<path d="M29.1163 24.5738C29.0906 24.6035 29.0922 24.6456 29.1194 24.6692L29.3287 24.8523C29.3559 24.876 29.3998 24.8712 29.4256 24.8416C29.4514 24.8119 29.4497 24.7683 29.4225 24.7446L29.2133 24.5631C29.2031 24.5542 29.1892 24.5488 29.1764 24.5477C29.155 24.5459 29.1325 24.5553 29.1163 24.5738Z" fill="#D10429"/>
<path d="M28.9965 24.7154C28.9707 24.7451 28.9724 24.7871 28.9996 24.8108L29.2103 24.9938C29.2375 25.0175 29.2799 25.0128 29.3057 24.9831C29.3315 24.9534 29.3299 24.9098 29.3026 24.8862L29.0934 24.7047C29.0832 24.6958 29.0709 24.6903 29.058 24.6893C29.0366 24.6875 29.0126 24.6968 28.9965 24.7154Z" fill="#D10429"/>
<path d="M28.9242 24.8277C28.9028 24.8259 28.8803 24.8337 28.8642 24.8523C28.8384 24.882 28.8401 24.9256 28.8673 24.9492L29.0765 25.1308C29.1038 25.1544 29.1461 25.1497 29.1719 25.12C29.1977 25.0903 29.1976 25.0482 29.1704 25.0246L28.9596 24.8415C28.9495 24.8326 28.9371 24.8287 28.9242 24.8277Z" fill="#D10429"/>
<path d="M23.5092 25.2145L23.0223 24.9489L22.9042 25.4907L23.3911 25.7563L23.5092 25.2145Z" fill="black"/>
<path d="M20.7541 19.7431L20.5787 19.8231L22.5603 24.1633L22.7711 24.1633L20.7541 19.7431ZM23.0911 24.8617L22.948 25.0094L23.0372 25.2063L23.2111 25.1263L23.0911 24.8617Z" fill="black"/>
<path d="M21.3699 23.1652C21.3699 23.1652 21.5368 23.51 21.6637 23.5572C21.5981 23.5393 21.385 23.6175 21.385 23.6175C21.385 23.6175 21.7607 23.9531 22.0793 23.9751C22.3494 23.9937 22.4806 23.8588 22.4806 23.8588L22.4265 23.5726C22.4265 23.5726 22.2612 23.373 21.9967 23.2809C21.7294 23.1878 21.3699 23.1653 21.3699 23.1653L21.3699 23.1652Z" fill="black"/>
<path d="M22.6282 22.5476C22.6282 22.5476 22.3977 22.7449 22.3346 22.9734C22.2715 23.202 22.3757 23.4617 22.3757 23.4617L22.5694 23.823C22.5694 23.823 22.8378 23.6801 22.952 23.4665C23.0661 23.2529 23.0243 22.9647 23.0243 22.9647C23.0243 22.9647 22.8117 23.0439 22.7846 23.0789C22.8295 22.842 22.6281 22.5476 22.6281 22.5476L22.6282 22.5476Z" fill="black"/>
<path d="M21.8874 22.4554C21.8874 22.4554 21.6253 22.5439 21.3707 22.5286C21.1283 22.514 20.9266 22.3104 20.9266 22.3104C20.9266 22.3104 21.1276 22.1744 21.2268 22.1925C21.1177 22.1526 20.9595 21.8792 20.9595 21.8792C20.9595 21.8792 21.1843 21.8113 21.3837 21.8865C21.5831 21.9617 21.7569 22.1801 21.7569 22.1801L21.8874 22.4554L21.8874 22.4554Z" fill="black"/>
<path d="M21.9776 21.1751C21.9776 21.1751 22.1087 21.4465 22.0776 21.5409C22.1183 21.4781 22.2721 21.3802 22.2721 21.3802C22.2721 21.3802 22.3652 21.8197 22.2762 22.0912C22.1873 22.3626 21.9164 22.4659 21.9164 22.4659L21.6175 21.8848C21.6175 21.8848 21.5731 21.6695 21.6662 21.499C21.7594 21.3285 21.9776 21.1751 21.9776 21.1751L21.9776 21.1751Z" fill="black"/>
<path d="M20.2721 20.4566C20.2721 20.4566 20.5554 20.4268 20.8146 20.5342C21.0313 20.6241 21.0977 20.7876 21.0977 20.7876L21.2044 21.0737C21.2044 21.0737 20.8961 21.1894 20.6524 21.1009C20.4088 21.0124 20.2297 20.7199 20.2297 20.7199C20.2297 20.7199 20.4 20.6553 20.4648 20.6795C20.3704 20.6377 20.2722 20.4566 20.2722 20.4566L20.2722 20.4566L20.2721 20.4566Z" fill="black"/>
<path d="M21.1632 19.9255C21.1632 19.9255 21.2876 20.0852 21.2913 20.2689C21.3244 20.1712 21.4797 20.0633 21.4797 20.0633C21.4797 20.0633 21.6393 20.4496 21.6043 20.7239C21.5692 20.9982 21.3395 21.1605 21.3395 21.1605L21.0531 20.6168C21.0531 20.6168 20.9597 20.3939 20.9872 20.2211C21.0148 20.0483 21.1632 19.9255 21.1632 19.9255L21.1632 19.9255Z" fill="black"/>
<path d="M20.182 18.8857C20.182 18.8857 20.1306 19.1819 20.218 19.3524C20.2961 19.5047 20.3458 19.538 20.3458 19.538C20.1969 19.4398 19.9718 19.4313 19.9718 19.4313C19.9718 19.4313 20.0519 19.7535 20.2434 19.9005C20.4349 20.0475 20.7301 20.0131 20.7301 20.0131C20.7301 20.0131 20.9242 19.7547 20.9107 19.4763C20.8972 19.1978 20.6761 18.8993 20.6761 18.8993C20.6761 18.8993 20.5888 19.0803 20.5811 19.2153C20.5247 19.0761 20.1819 18.8858 20.1819 18.8858L20.182 18.8857Z" fill="black"/>
<path d="M22.496 23.8465L22.504 23.9528C22.6806 23.9544 22.7069 23.9368 22.7521 23.9925C22.7823 24.0296 22.854 24.062 22.926 24.029C22.9982 23.9961 23.0305 23.9095 22.9975 23.8374C22.9646 23.7653 22.8976 23.7496 22.833 23.7624C22.7934 23.7702 22.7673 23.8019 22.7337 23.8192C22.6697 23.8523 22.496 23.8465 22.496 23.8465L22.496 23.8465Z" fill="black"/>
<path d="M22.4807 23.7653L22.5666 23.8283C22.4745 23.979 22.4457 23.992 22.4689 24.0599C22.4844 24.105 22.4739 24.183 22.4078 24.2267C22.3416 24.2705 22.2511 24.252 22.2073 24.1859C22.1636 24.1198 22.1859 24.0547 22.2309 24.0067C22.2585 23.9771 22.2991 23.9718 22.3316 23.9525C22.3936 23.9157 22.4807 23.7653 22.4807 23.7653L22.4807 23.7653Z" fill="black"/>
<path d="M21.8826 22.5031L21.8906 22.6094C22.0672 22.6111 22.0934 22.5935 22.1387 22.6491C22.1688 22.6862 22.2405 22.7186 22.3126 22.6857C22.3847 22.6527 22.4171 22.5662 22.3841 22.4941C22.3512 22.4219 22.2842 22.4063 22.2196 22.4191C22.1799 22.4269 22.1539 22.4585 22.1203 22.4759C22.0563 22.509 21.8826 22.5032 21.8826 22.5032L21.8826 22.5031Z" fill="black"/>
<path d="M21.9183 22.5407L21.9935 22.6164C21.879 22.7508 21.8485 22.7592 21.8609 22.8298C21.8692 22.8769 21.8467 22.9523 21.7745 22.9852C21.7024 23.0181 21.6159 22.9858 21.5829 22.9137C21.55 22.8416 21.5821 22.7807 21.634 22.7403C21.6659 22.7155 21.7069 22.7165 21.742 22.7025C21.809 22.6758 21.9183 22.5407 21.9183 22.5407L21.9183 22.5407Z" fill="black"/>
<path d="M21.2882 21.2454L21.2962 21.3517C21.4728 21.3534 21.4991 21.3358 21.5443 21.3915C21.5745 21.4285 21.6462 21.4609 21.7183 21.4279C21.7904 21.395 21.8227 21.3085 21.7898 21.2363C21.7568 21.1642 21.6898 21.1486 21.6252 21.1613C21.5855 21.1692 21.5595 21.2008 21.5259 21.2182C21.4619 21.2513 21.2882 21.2454 21.2882 21.2454L21.2882 21.2454Z" fill="black"/>
<path d="M21.3372 21.2232L21.4123 21.2988C21.2978 21.4333 21.2673 21.4417 21.2797 21.5123C21.288 21.5594 21.2655 21.6348 21.1934 21.6677C21.1213 21.7005 21.0347 21.6683 21.0017 21.5962C20.9689 21.524 21.0009 21.4632 21.0529 21.4227C21.0847 21.3979 21.1257 21.3989 21.1609 21.3849C21.2278 21.3582 21.3372 21.2232 21.3372 21.2232Z" fill="black"/>
<path d="M20.655 19.9177L20.6629 20.024C20.8395 20.0256 20.8658 20.0081 20.911 20.0637C20.9412 20.1008 21.0129 20.1331 21.085 20.1003C21.1571 20.0673 21.1894 19.9807 21.1565 19.9086C21.1236 19.8365 21.0565 19.8208 20.9919 19.8336C20.9523 19.8414 20.9262 19.8731 20.8926 19.8904C20.8286 19.9235 20.6549 19.9177 20.6549 19.9177L20.655 19.9177Z" fill="black"/>
<path d="M20.704 19.8955L20.779 19.9711C20.6646 20.1056 20.6341 20.114 20.6465 20.1846C20.6548 20.2317 20.6323 20.3071 20.5602 20.34C20.488 20.3729 20.4015 20.3406 20.3686 20.2685C20.3357 20.1964 20.3677 20.1354 20.4196 20.0951C20.4516 20.0703 20.4925 20.0712 20.5277 20.0572C20.5946 20.0306 20.7039 19.8955 20.7039 19.8955L20.704 19.8955Z" fill="black"/>
<path d="M23.3945 25.2672L23.0925 25.1024L23.0193 25.4385L23.3213 25.6033L23.3945 25.2672Z" fill="#F5D402"/>
<path d="M21.7706 22.1882C21.7073 22.2144 21.6134 21.9389 21.5445 21.7879C21.4737 21.633 21.3301 21.3942 21.3709 21.3756C21.4157 21.3552 21.4746 21.4805 21.547 21.6391C21.6194 21.7975 21.8299 22.1635 21.7706 22.1881L21.7706 22.1882Z" fill="#F5D402"/>
<path d="M21.1205 20.7369C21.0573 20.7633 20.988 20.5829 20.9191 20.4319C20.8484 20.277 20.7795 20.1676 20.8203 20.1489C20.8651 20.1285 20.9312 20.2642 20.9891 20.391C21.0451 20.5139 21.1798 20.7123 21.1205 20.737L21.1205 20.7369Z" fill="#F5D402"/>
<path d="M22.6243 24.0274C22.5747 24.0407 22.3578 23.5868 22.1825 23.2027C22.0072 22.8186 21.8766 22.5079 21.9174 22.4894C21.9622 22.4689 22.1041 22.8317 22.2795 23.2158C22.4549 23.5999 22.6616 24.0174 22.6244 24.0274L22.6243 24.0274Z" fill="#F5D402"/>
<path d="M20.2692 19.0657C20.2692 19.0657 20.2615 19.2821 20.3331 19.4049C20.4047 19.5277 20.5646 19.5766 20.5646 19.5766C20.5646 19.5766 20.5722 19.3603 20.5007 19.2375C20.429 19.1148 20.2692 19.0657 20.2692 19.0657Z" fill="#097754"/>
<path d="M20.1195 19.5553C20.1195 19.5553 20.3075 19.5664 20.4161 19.6495C20.5246 19.7327 20.5666 19.906 20.5666 19.906C20.5666 19.906 20.442 19.9187 20.3335 19.8355C20.225 19.7523 20.1195 19.5553 20.1195 19.5553Z" fill="#097754"/>
<path d="M20.7094 19.1183C20.7094 19.1183 20.6469 19.2617 20.6541 19.4162C20.6613 19.5708 20.7515 19.7449 20.7515 19.7449C20.7515 19.7449 20.833 19.5594 20.8259 19.4048C20.8187 19.2502 20.7313 19.1621 20.7094 19.1183Z" fill="#097754"/>
<path d="M20.3929 20.5116C20.3929 20.5116 20.4852 20.6404 20.6273 20.7107C20.7694 20.7809 20.9811 20.7835 20.9811 20.7835C20.9811 20.7835 20.8755 20.6464 20.7333 20.5762C20.5913 20.5059 20.3929 20.5115 20.3929 20.5115L20.3929 20.5116Z" fill="#097754"/>
<path d="M20.4386 20.8109C20.4386 20.8109 20.5065 20.9437 20.6305 21.0007C20.7546 21.0577 21.0084 21.053 21.0084 21.053C21.0084 21.053 20.911 20.9288 20.7869 20.8719C20.6629 20.8148 20.4386 20.8109 20.4386 20.8109L20.4386 20.8109Z" fill="#097754"/>
<path d="M21.153 20.1022C21.153 20.1022 21.078 20.2262 21.0853 20.3627C21.0927 20.4993 21.1823 20.6485 21.1823 20.6485C21.1823 20.6485 21.2453 20.4774 21.238 20.3409C21.2306 20.2043 21.153 20.1022 21.153 20.1022L21.153 20.1022Z" fill="#097754"/>
<path d="M21.4292 20.2775C21.4292 20.2775 21.3009 20.4497 21.2825 20.6267C21.2641 20.8037 21.3554 20.9856 21.3554 20.9856C21.3554 20.9856 21.5104 20.83 21.5289 20.653C21.5473 20.4759 21.4292 20.2775 21.4292 20.2775L21.4292 20.2775Z" fill="#097754"/>
<path d="M21.0754 21.9123C21.0754 21.9123 21.0909 21.976 21.1445 22.0436C21.1981 22.1112 21.2898 22.1828 21.2898 22.1828C21.2898 22.1828 21.3784 22.1543 21.4886 22.1781C21.5987 22.202 21.7452 22.3001 21.7452 22.3001C21.7452 22.3001 21.5876 22.0648 21.4238 21.9733C21.2601 21.8818 21.0755 21.9123 21.0755 21.9123L21.0754 21.9123Z" fill="#097754"/>
<path d="M21.0592 22.3168C21.0592 22.3168 21.2634 22.2296 21.4315 22.2521C21.5996 22.2746 21.7512 22.4075 21.7512 22.4075C21.7512 22.4075 21.524 22.4861 21.3559 22.4636C21.1877 22.4411 21.0592 22.3168 21.0592 22.3168L21.0592 22.3168Z" fill="#097754"/>
<path d="M21.922 21.3678C21.922 21.3678 21.7415 21.559 21.7263 21.725C21.7112 21.8909 21.8727 22.0456 21.8727 22.0456C21.8727 22.0456 21.8648 21.9392 21.8926 21.8691C21.9204 21.799 21.9795 21.7242 21.9795 21.7242C21.9795 21.7242 22.0047 21.6387 21.995 21.5702C21.9814 21.4745 21.922 21.3678 21.922 21.3678Z" fill="#097754"/>
<path d="M22.1811 21.5892C22.1811 21.5892 22.0109 21.7614 21.966 21.9458C21.921 22.1302 22.0011 22.3267 22.0011 22.3267C22.0011 22.3267 22.1559 22.2047 22.2009 22.0203C22.2459 21.8359 22.1811 21.5892 22.1811 21.5892L22.1811 21.5892Z" fill="#097754"/>
<path d="M22.6073 22.7006C22.6073 22.7006 22.6843 22.8615 22.7039 22.9961C22.7235 23.1306 22.7053 23.1772 22.7053 23.1772C22.7053 23.1772 22.6256 23.2556 22.5899 23.3016C22.544 23.3608 22.5372 23.4692 22.5372 23.4692C22.5372 23.4692 22.3772 23.2313 22.4019 23.0574C22.4265 22.8835 22.6073 22.7006 22.6073 22.7006L22.6073 22.7006Z" fill="#097754"/>
<path d="M22.9445 23.0729C22.9445 23.0729 22.7396 23.2083 22.6583 23.3471C22.5769 23.4859 22.6191 23.6281 22.6191 23.6281C22.6191 23.6281 22.7651 23.6152 22.8465 23.4764C22.9278 23.3376 22.9444 23.0729 22.9444 23.0729L22.9445 23.0729Z" fill="#097754"/>
<path d="M21.5981 23.6445C21.5981 23.6445 21.8933 23.6365 22.0738 23.6809C22.2543 23.7252 22.32 23.822 22.32 23.822C22.32 23.822 22.1171 23.917 21.9366 23.8726C21.7561 23.8283 21.598 23.6445 21.598 23.6445L21.5981 23.6445Z" fill="#097754"/>
<path d="M21.5482 23.2941C21.5482 23.2941 21.6814 23.5007 21.8537 23.5756C22.091 23.6789 22.3659 23.6288 22.3659 23.6288C22.3659 23.6288 22.2166 23.4458 22.0111 23.3651C21.8056 23.2843 21.5482 23.2942 21.5482 23.2942L21.5482 23.2941Z" fill="#097754"/>
<path d="M31.6584 19.2387L31.6969 19.3202C31.6969 19.3202 31.6344 19.3416 31.6061 19.3971C31.5778 19.4526 31.6245 19.5309 31.6245 19.5309C31.6245 19.5309 31.2999 19.5026 31.2492 19.5356C31.2032 19.5653 31.2686 19.7902 31.2384 19.9802C31.1962 20.245 31.0919 20.2227 31.0876 20.274C31.0835 20.3239 31.1276 20.4017 31.1276 20.4017C31.1276 20.4017 31.0667 20.4209 31.0537 20.4463C31.0328 20.4873 31.0683 20.5628 31.043 20.6125C30.9017 20.8896 30.6932 21.2988 30.5553 21.5694C30.536 21.6072 30.4843 21.6216 30.4583 21.6725C30.4344 21.7195 30.4537 21.7879 30.4537 21.7879C30.4537 21.7879 30.3623 21.7934 30.3306 21.8556C30.2969 21.9217 30.3168 22.011 30.3168 22.011C30.3168 22.011 30.259 22.0184 30.2306 22.074C30.2003 22.1336 30.2516 22.1648 30.2384 22.191C30.053 22.5547 29.8347 22.9834 29.7014 23.2449C29.6524 23.341 29.4809 23.3603 29.3814 23.5556C29.2848 23.7451 29.4229 23.8849 29.4229 23.8849C29.4229 23.8849 29.2795 23.8978 29.2414 23.9726C29.2026 24.0488 29.2333 24.1644 29.3368 24.2172C29.4403 24.2699 29.5534 24.2272 29.5922 24.151C29.6303 24.0763 29.5537 23.9526 29.5537 23.9526C29.5537 23.9526 29.7479 23.9806 29.8445 23.791C29.944 23.5956 29.8601 23.4472 29.9091 23.351C30.0423 23.0896 30.2607 22.6609 30.446 22.2971C30.4594 22.271 30.5142 22.2936 30.5445 22.2341C30.5729 22.1784 30.5445 22.1279 30.5445 22.1279C30.5445 22.1279 30.6293 22.091 30.663 22.0248C30.6947 21.9626 30.6461 21.8848 30.6461 21.8848C30.6461 21.8848 30.7129 21.861 30.7368 21.8141C30.7627 21.7632 30.7437 21.7134 30.7629 21.6756C30.9009 21.4049 31.1095 20.9958 31.2507 20.7187C31.276 20.6689 31.3575 20.6519 31.3784 20.6109C31.3913 20.5855 31.3707 20.5248 31.3707 20.5248C31.3707 20.5248 31.4605 20.5159 31.4984 20.4832C31.5374 20.4496 31.4582 20.3776 31.6476 20.1879C31.7835 20.0518 32.0028 19.9717 31.9999 19.9171C31.9968 19.8567 31.783 19.6109 31.783 19.6109C31.783 19.6109 31.8732 19.6033 31.9015 19.5479C31.9297 19.4924 31.9107 19.4279 31.9107 19.4279L31.9999 19.4125L31.9999 18.9894L31.6584 19.2387ZM28.7092 25.1312C28.6957 25.1575 28.6932 25.1936 28.7092 25.225C28.7092 25.225 28.6015 25.1913 28.5645 25.2096C28.5297 25.2268 28.5645 25.7342 28.5645 25.7342C28.5645 25.7342 28.9941 25.4632 28.9876 25.425C28.9807 25.3844 28.8907 25.3158 28.8907 25.3158C28.9255 25.3102 28.9526 25.2883 28.9661 25.2619C28.9802 25.2341 28.9821 25.1547 28.8845 25.105C28.848 25.0863 28.8154 25.0808 28.7891 25.0834C28.7454 25.0879 28.718 25.1138 28.7092 25.1312Z" fill="black"/>
<path d="M31.7366 19.2557L31.9396 19.3588L31.9366 19.1141L31.7366 19.2557Z" fill="#F5D402"/>
<path d="M31.6581 19.4034C31.632 19.4546 31.6573 19.5202 31.715 19.5495C31.7727 19.5789 31.8397 19.5607 31.8658 19.5096C31.8919 19.4583 31.8665 19.3928 31.8089 19.3634C31.7872 19.3524 31.7645 19.3481 31.7427 19.3495C31.7064 19.352 31.6744 19.3714 31.6581 19.4034Z" fill="#F5D402"/>
<path d="M31.3089 19.5895C31.2876 19.6034 31.3166 19.7862 31.3105 19.9418C31.3047 20.0885 31.2577 20.1299 31.232 20.1803C31.2083 20.2268 31.1228 20.2818 31.1228 20.2818L31.1935 20.3526C31.1935 20.3526 31.2396 20.2809 31.312 20.1387C31.3975 19.971 31.3947 19.6672 31.4198 19.651C31.4415 19.6369 31.6198 19.5926 31.6198 19.5926C31.6197 19.5926 31.4562 19.5837 31.3659 19.5849C31.3358 19.5853 31.3139 19.5863 31.3089 19.5895Z" fill="#F5D402"/>
<path d="M31.3275 20.4342C31.3275 20.4342 31.3512 20.3684 31.4337 20.2065C31.5332 20.0112 31.7456 19.8695 31.7506 19.8341C31.7557 19.7977 31.6767 19.6265 31.6767 19.6265C31.6767 19.6265 31.4893 19.6624 31.4628 19.688C31.4372 19.7128 31.4485 19.9665 31.349 20.1619C31.2665 20.3238 31.226 20.3834 31.226 20.3834L31.3275 20.4342Z" fill="#F5D402"/>
<path d="M31.8059 19.848C31.8075 19.8777 31.5606 20.0542 31.4751 20.2218C31.4027 20.364 31.3721 20.4434 31.3721 20.4434L31.4706 20.4588C31.4706 20.4588 31.4638 20.3576 31.4875 20.3111C31.5131 20.2607 31.5199 20.199 31.6352 20.108C31.7574 20.0116 31.9227 19.9273 31.9213 19.9018C31.9201 19.8783 31.7367 19.6511 31.7367 19.6511C31.7367 19.6511 31.8045 19.8221 31.8059 19.848Z" fill="#F5D402"/>
<path d="M31.0829 20.9449C31.2312 20.6538 31.2765 20.6339 31.2952 20.5973C31.3153 20.5578 31.3105 20.5047 31.2444 20.4711C31.2197 20.4585 31.1984 20.4553 31.1798 20.4573C31.1488 20.4606 31.1262 20.4803 31.1137 20.5049C31.095 20.5417 31.1051 20.5907 30.9567 20.8819L30.6198 21.5419C30.6198 21.5419 30.5845 21.6067 30.6505 21.6403C30.7166 21.674 30.7459 21.6065 30.7459 21.6065L31.0829 20.9449Z" fill="#F5D402"/>
<path d="M30.4875 21.7019C30.4692 21.738 30.5006 21.791 30.5583 21.8204C30.616 21.8497 30.6784 21.8441 30.6968 21.8081C30.7151 21.772 30.6822 21.719 30.6245 21.6896C30.5956 21.6749 30.5663 21.6689 30.5414 21.6711C30.5164 21.6733 30.4967 21.6839 30.4875 21.7019Z" fill="#F5D402"/>
<path d="M30.3628 21.8896C30.339 21.9362 30.3761 22.0033 30.4459 22.0389C30.5157 22.0744 30.5913 22.0655 30.6151 22.0188C30.6389 21.9721 30.6018 21.9052 30.532 21.8695C30.5058 21.8563 30.4799 21.8492 30.4551 21.848C30.4138 21.8461 30.3777 21.8604 30.3628 21.8896Z" fill="#F5D402"/>
<path d="M30.2844 22.0988C30.266 22.1349 30.2975 22.1879 30.3552 22.2173C30.4128 22.2467 30.4752 22.241 30.4937 22.205C30.512 22.1689 30.4805 22.1159 30.4229 22.0865C30.394 22.0718 30.3632 22.0658 30.3383 22.068C30.3134 22.0702 30.2936 22.0808 30.2844 22.0988Z" fill="#F5D402"/>
<path d="M30.2336 22.2989C30.2336 22.2989 29.8595 23.0351 29.7275 23.2942C29.6853 23.377 29.5078 23.4286 29.4382 23.565C29.3682 23.7023 29.4176 23.8308 29.509 23.8773C29.6003 23.9239 29.7344 23.89 29.8044 23.7527C29.8739 23.6163 29.8115 23.4416 29.8536 23.3589C29.9856 23.0997 30.3598 22.3635 30.3598 22.3635C30.3598 22.3635 30.3966 22.2987 30.3305 22.265C30.314 22.2566 30.2996 22.2558 30.2875 22.2573C30.251 22.262 30.2336 22.2989 30.2336 22.2989Z" fill="#F5D402"/>
<path d="M29.2872 24.0081C29.2592 24.0631 29.2913 24.1364 29.3595 24.1711C29.4278 24.2059 29.5069 24.1892 29.5349 24.1342C29.563 24.0792 29.5293 24.0059 29.4611 23.9711C29.4355 23.9581 29.4094 23.952 29.3842 23.9527C29.3421 23.9539 29.3047 23.9737 29.2872 24.0081Z" fill="#F5D402"/>
<path d="M28.7889 25.1327C28.7675 25.1334 28.7499 25.1402 28.7427 25.1543C28.7284 25.1824 28.758 25.2268 28.8089 25.2527C28.8598 25.2786 28.913 25.2762 28.9274 25.2481C28.9417 25.2199 28.912 25.1755 28.8612 25.1496C28.8358 25.1367 28.8103 25.132 28.7889 25.1327L28.7889 25.1327Z" fill="#F5D402"/>
<path d="M28.6135 25.2711L28.6135 25.6342L28.9089 25.4219C28.9089 25.4219 28.8689 25.3512 28.7812 25.3065C28.6936 25.2619 28.6135 25.2711 28.6135 25.2711L28.6135 25.2711Z" fill="#F5D402"/>
<path d="M28.8006 17.1847C28.8006 16.9855 29.0621 16.7893 29.0621 16.7893L22.6836 16.7893C22.6836 16.7893 22.9451 16.9855 22.9451 17.1847L22.9451 21.9325C22.9451 22.0576 22.9838 22.1391 23.0452 22.2187C23.1065 22.3044 23.2372 22.4229 23.3728 22.511C23.7918 22.7831 24.4922 23.0699 25.0221 23.311C25.4637 23.5119 25.6433 23.5929 25.8729 23.8772C26.1024 23.5929 26.2836 23.5119 26.7252 23.311C27.255 23.07 27.9555 22.7831 28.3744 22.511C28.5101 22.4229 28.6408 22.3044 28.7021 22.2187C28.7635 22.1391 28.8006 22.0576 28.8006 21.9325L28.8006 17.1847Z" fill="#F5D402"/>
<path d="M23.0959 19.8709L23.0959 17.1846C23.0959 17.0326 23.0189 16.94 23.0189 16.94L28.7267 16.94C28.7267 16.94 28.6498 17.0326 28.6498 17.1846L28.6514 19.8709L25.8737 20.7124L23.0959 19.8709Z" fill="#D10429"/>
<path d="M28.6515 19.8709L26.9315 19.8386L24.816 19.8386L23.0959 19.8709L23.0959 21.9325C23.0959 22.0362 23.2035 22.2789 23.8237 22.5879C24.8488 23.0987 25.6367 23.3372 25.8729 23.6279C26.1091 23.3372 26.897 23.0987 27.9222 22.5879C28.5423 22.2789 28.6499 22.0362 28.6499 21.9325L28.6515 19.8709Z" fill="#0B45BB"/>
<path d="M26.8899 19.7633C26.8899 19.7633 27.8822 19.5131 27.8822 18.4525C27.8822 17.6242 26.8873 17.2132 26.8591 17.0156C26.7618 17.3576 27.1914 17.83 27.1914 18.3894C27.1914 19.1133 26.6575 19.1479 26.6575 19.1479C26.5326 19.1479 26.482 19.2371 26.4329 19.2371C26.3278 19.2261 26.2783 19.0925 26.1744 19.0925C26.0768 19.0925 26.0019 19.2432 25.8729 19.2432C25.7439 19.2432 25.6705 19.0925 25.5729 19.0925C25.469 19.0925 25.4195 19.2261 25.3144 19.2371C25.2653 19.2371 25.2147 19.1479 25.0898 19.1479C25.0898 19.1479 24.5559 19.1133 24.5559 18.3894C24.5559 17.83 24.9855 17.3575 24.8883 17.0156C24.8601 17.2132 23.8652 17.6241 23.8652 18.4525C23.8652 19.5131 24.8575 19.7633 24.8575 19.7633L24.5744 20.2787C24.5744 20.2787 24.9845 20.2992 25.2022 20.4849C25.4646 20.7087 25.4391 21.183 25.4391 21.528C25.4391 21.7998 25.4047 22.0866 25.2652 22.2049C25.0779 22.3637 24.9513 22.3754 24.9513 22.5618C24.9513 22.7173 25.0709 22.7485 25.2652 22.8511C25.5143 22.9825 25.5027 23.1588 25.8729 23.1588C26.2432 23.1588 26.2331 22.9825 26.4821 22.8511C26.6765 22.7485 26.796 22.7173 26.796 22.5618C26.796 22.3754 26.6694 22.3637 26.4821 22.2049C26.3427 22.0866 26.3083 21.7997 26.3083 21.528C26.3083 21.183 26.2828 20.7087 26.5452 20.4849C26.7629 20.2992 27.1729 20.2787 27.1729 20.2787L26.8899 19.7633Z" fill="black"/>
<path d="M25.8728 17.0892L25.7005 17.5785L25.2312 17.3554L25.4543 17.8246L24.9651 17.9985L25.4543 18.1723L25.2312 18.64L25.7005 18.4169L25.8728 18.9062L26.0467 18.4169L26.5159 18.64L26.2929 18.1723L26.7821 17.9985L26.2929 17.8246L26.5159 17.3554L26.0467 17.5785L25.8728 17.0892Z" fill="black"/>
<path d="M24.8159 19.8387C24.8159 19.8387 24.2032 19.6889 23.9743 19.3864C23.5742 19.7463 23.0958 19.871 23.0958 19.871C23.0958 19.871 23.5949 20.0963 23.9743 20.3833C24.1491 20.1328 24.8159 19.8387 24.8159 19.8387Z" fill="black"/>
<path d="M26.9313 19.8387C26.9313 19.8387 27.598 20.1328 27.7729 20.3833C28.1522 20.0963 28.6513 19.871 28.6513 19.871C28.6513 19.871 28.1729 19.7463 27.7729 19.3864C27.544 19.6889 26.9313 19.8387 26.9313 19.8387Z" fill="black"/>
<path d="M25.0668 20.4908L24.8284 20.7293L25.0668 20.9677L25.3053 20.7293L25.0668 20.4908Z" fill="black"/>
<path d="M26.6806 20.4908L26.4421 20.7293L26.6806 20.9677L26.919 20.7293L26.6806 20.4908Z" fill="black"/>
<path d="M25.0068 21.8832C25.0068 22.1845 24.9775 22.3432 24.9775 22.3432C24.9775 22.3432 25.3137 22.2442 25.3807 21.9032C25.412 21.7433 25.447 21.1543 25.2853 21.0539L24.8468 20.9678C24.8941 21.0849 25.0068 21.4479 25.0068 21.8832Z" fill="black"/>
<path d="M26.4621 21.054C26.3004 21.1543 26.3353 21.7433 26.3667 21.9032C26.4336 22.2443 26.7698 22.3432 26.7698 22.3432C26.7698 22.3432 26.7406 22.1845 26.7406 21.8832C26.7406 21.448 26.8532 21.0849 26.9006 20.9678L26.4621 21.054Z" fill="black"/>
<path d="M23.973 21.071C23.8218 21.1089 23.7304 21.2629 23.7684 21.4141C23.7742 21.4372 23.7837 21.4586 23.7945 21.4787C23.7725 21.4714 23.7495 21.4665 23.7253 21.4648C23.7156 21.4642 23.7056 21.4645 23.6961 21.4648C23.553 21.4696 23.4337 21.5821 23.4238 21.728C23.4131 21.8834 23.5313 22.0173 23.6869 22.028C23.7101 22.0295 23.7326 22.0287 23.7545 22.0249C23.7411 22.0432 23.7296 22.0628 23.7207 22.0849C23.6625 22.2295 23.733 22.3959 23.8776 22.4541C24.0223 22.5123 24.1871 22.4403 24.2453 22.2957C24.2542 22.2736 24.2592 22.252 24.2623 22.2295C24.2756 22.248 24.2916 22.2649 24.3099 22.2803C24.4295 22.3803 24.6084 22.3644 24.7084 22.2449C24.8084 22.1253 24.7926 21.9479 24.673 21.848C24.6549 21.8328 24.6348 21.8209 24.6145 21.811C24.6363 21.8041 24.6574 21.7945 24.6776 21.7818C24.8097 21.699 24.8496 21.5231 24.7668 21.391C24.7099 21.3002 24.6099 21.2536 24.5099 21.2603C24.4644 21.2633 24.4189 21.2775 24.3776 21.3034C24.3574 21.316 24.3395 21.3301 24.3237 21.3464C24.3238 21.3237 24.3218 21.3003 24.3161 21.2772C24.2829 21.1449 24.1613 21.0577 24.0299 21.0633C24.0111 21.0642 23.9919 21.0663 23.973 21.071Z" fill="black"/>
<path d="M26.9728 21.8925C27.0034 22.1806 27.2375 22.422 27.5267 22.491C27.4773 22.4102 27.4445 22.3202 27.4343 22.2248C27.3981 21.8831 27.6624 21.6063 28.0236 21.6063C28.0805 21.6063 28.1356 21.6133 28.1897 21.6263C28.0624 21.4176 27.8226 21.2725 27.562 21.2725C27.2008 21.2725 26.9365 21.5509 26.9728 21.8925Z" fill="black"/>
<path d="M24.4113 18.3894C24.4113 18.9342 24.7018 19.2555 25.0898 19.2555C25.1638 19.2555 25.2447 19.3555 25.3144 19.3555C25.4281 19.3555 25.5037 19.2294 25.5729 19.2294C25.6609 19.2294 25.7201 19.3678 25.8729 19.3678C26.0256 19.3678 26.0865 19.2294 26.1744 19.2294C26.2436 19.2294 26.3192 19.3555 26.4329 19.3555C26.5026 19.3555 26.5835 19.2555 26.6575 19.2555C27.0455 19.2555 27.336 18.9342 27.336 18.3894C27.336 17.9451 26.9629 17.4034 27.0037 17.3155C27.0037 17.3155 27.7314 17.8375 27.7314 18.4524C27.7314 19.4431 26.7268 19.6879 26.7268 19.6879L26.9529 20.1971C26.9529 20.1971 26.6415 20.2438 26.4514 20.3971C26.1977 20.6016 26.1944 21.1542 26.1944 21.5279C26.1944 21.9681 26.2108 22.1546 26.3698 22.274C26.5375 22.4001 26.6636 22.4272 26.6636 22.5556C26.6636 22.6675 26.5331 22.7133 26.3636 22.7879C26.1709 22.8729 26.1517 23.0202 25.8729 23.0202C25.594 23.0202 25.5763 22.8729 25.3836 22.7879C25.2142 22.7133 25.0836 22.6675 25.0836 22.5556C25.0836 22.4272 25.2097 22.4001 25.3774 22.274C25.5365 22.1546 25.5528 21.9681 25.5528 21.5279C25.5528 21.1542 25.5495 20.6016 25.2959 20.3971C25.1057 20.2437 24.7943 20.1971 24.7943 20.1971L25.0205 19.6879C25.0205 19.6879 24.0159 19.4431 24.0159 18.4524C24.0159 17.8375 24.7436 17.3155 24.7436 17.3155C24.7844 17.4034 24.4113 17.9451 24.4113 18.3894ZM25.4928 22.4803C25.2955 22.4803 25.1698 22.522 25.1698 22.5819C25.1698 22.6418 25.2955 22.6819 25.4928 22.6819C25.5454 22.6819 25.6051 22.6513 25.6051 22.5819C25.6051 22.5125 25.5454 22.4803 25.4928 22.4803ZM26.2544 22.4803C26.2018 22.4803 26.1421 22.5125 26.1421 22.5819C26.142 22.6513 26.2018 22.6819 26.2544 22.6819C26.4517 22.6819 26.5774 22.6418 26.5774 22.5819C26.5774 22.5219 26.4517 22.4803 26.2544 22.4803Z" fill="#FFD200"/>
<path d="M25.8745 17.4186L25.9853 17.7309L26.2838 17.5879L26.1422 17.8878L26.453 17.9987L26.1422 18.1094L26.2838 18.4079L25.9853 18.2663L25.873 18.5771L25.7622 18.2663L25.4638 18.4079L25.6053 18.1094L25.2946 17.9987L25.6053 17.8878L25.4638 17.5879L25.7622 17.7309L25.8745 17.4186Z" fill="#FFD200"/>
<path d="M24.4881 19.8573C24.488 19.8573 23.9742 20.2388 23.9742 20.2388L23.968 20.2465L23.9573 20.2373L23.3881 19.8803C23.3881 19.8803 23.7513 19.7551 23.965 19.5373C24.1672 19.7688 24.4881 19.8573 24.4881 19.8573Z" fill="#FFD200"/>
<path d="M28.3589 19.8803C28.3589 19.8803 27.98 20.0691 27.7896 20.2373L27.7789 20.2465L27.7727 20.2388C27.5929 20.0323 27.2589 19.8573 27.2589 19.8573C27.2589 19.8573 27.5798 19.7688 27.782 19.5373C27.9957 19.7551 28.3589 19.8803 28.3589 19.8803Z" fill="#FFD200"/>
<path d="M25.0667 20.6048L25.1913 20.7293L25.0667 20.8555L24.9406 20.7293L25.0667 20.6048Z" fill="#FFD200"/>
<path d="M26.6805 20.6048L26.8067 20.7293L26.6805 20.8555L26.5559 20.7293L26.6805 20.6048Z" fill="#FFD200"/>
<path d="M25.236 21.1493C25.3231 21.2694 25.3083 21.4637 25.3083 21.7339C25.3083 22.0064 25.1037 22.1108 25.1037 22.1108C25.1037 21.4559 25.0362 21.2984 25.0006 21.1L25.236 21.1493Z" fill="#FFD200"/>
<path d="M26.7466 21.1C26.711 21.2984 26.6436 21.4559 26.6436 22.1108C26.6436 22.1108 26.4389 22.0064 26.4389 21.7339C26.4389 21.4636 26.4242 21.2694 26.5112 21.1493L26.7466 21.1Z" fill="#FFD200"/>
<path d="M24.2682 21.3479C24.2743 21.3724 24.275 21.3965 24.2728 21.4202C24.271 21.4399 24.2658 21.4577 24.259 21.4756C24.2249 21.4631 24.1881 21.4571 24.1498 21.4571C24.0548 21.4571 23.9698 21.4989 23.9113 21.5648C23.8959 21.5512 23.8826 21.5362 23.8713 21.5187C23.8587 21.4992 23.848 21.4778 23.8421 21.4541C23.8126 21.3365 23.8845 21.2174 24.0021 21.1879C24.0167 21.1842 24.0321 21.1823 24.0467 21.1817C24.1486 21.1774 24.2424 21.245 24.2682 21.3479Z" fill="#FFD200"/>
<path d="M24.1498 21.9912C24.2671 21.9912 24.3621 21.8961 24.3621 21.7788C24.3621 21.6616 24.2671 21.5665 24.1498 21.5665C24.0326 21.5665 23.9375 21.6616 23.9375 21.7788C23.9375 21.8961 24.0326 21.9912 24.1498 21.9912Z" fill="#FFD200"/>
<path d="M27.8773 21.4926C27.5248 21.5607 27.2712 21.8721 27.3081 22.2357C27.1957 22.1426 27.1135 22.0173 27.0988 21.8787C27.0703 21.6089 27.2663 21.4002 27.5619 21.4002C27.675 21.4002 27.7836 21.4349 27.8773 21.4926Z" fill="#FFD200"/>
<rect x="18" y="44" width="16" height="49" transform="rotate(-180 18 44)" fill="#3F6FEB"/>
</g>
<path d="M40.2965 38.3877C45.4694 37.9592 49.7608 34.2229 50.4228 28.9899C50.7484 26.4159 51 23.3452 51 20C51 16.6548 50.7484 13.5841 50.4228 11.0101C49.7608 5.77712 45.4694 2.04083 40.2965 1.61228C36.4216 1.29126 31.4148 0.999999 26 0.999998C20.5852 0.999998 15.5784 1.29126 11.7035 1.61228C6.53056 2.04083 2.23922 5.77712 1.57725 11.0101C1.25164 13.5841 1 16.6548 1 20C1 23.3452 1.25164 26.4159 1.57724 28.9899C2.23922 34.2229 6.53056 37.9592 11.7035 38.3877C15.5784 38.7087 20.5852 39 26 39C31.4148 39 36.4216 38.7087 40.2965 38.3877Z" stroke="#E6E6FA" stroke-width="2"/>
</svg>
