<svg width="52" height="40" viewBox="0 0 52 40" fill="none" xmlns="http://www.w3.org/2000/svg">
<mask id="mask0_1_39912" style="mask-type:alpha" maskUnits="userSpaceOnUse" x="2" y="2" width="48" height="36">
<path d="M2.56934 11.1356C3.16681 6.41247 7.0415 3.00193 11.7861 2.60887C15.6412 2.28949 20.6196 2 26 2C31.3804 2 36.3588 2.28949 40.2139 2.60887C44.9585 3.00193 48.8332 6.41247 49.4307 11.1356C49.752 13.6759 50 16.704 50 20C50 23.296 49.752 26.3241 49.4307 28.8644C48.8332 33.5875 44.9585 36.9981 40.2139 37.3911C36.3588 37.7105 31.3804 38 26 38C20.6196 38 15.6412 37.7105 11.7861 37.3911C7.0415 36.9981 3.16681 33.5875 2.56934 28.8644C2.248 26.3241 2 23.296 2 20C2 16.704 2.248 13.6759 2.56934 11.1356Z" fill="#00D0BF"/>
</mask>
<g mask="url(#mask0_1_39912)">
<rect x="2" y="-4" width="48" height="49" fill="#2E50A6"/>
<path d="M14 6L13.7097 12.1935L12.3548 8.80645L12.9355 12.3871L10.8065 9.48387L12.2581 12.7742L9.45161 10.4516L11.7742 13.2581L8.48387 11.8065L11.3871 13.9355L7.80645 13.3548L11.1935 14.7097L5 15L11.1935 15.3871L7.80645 16.7419L11.3871 16.1613L8.48387 18.2903L11.7742 16.7419L9.45161 19.5484L12.2581 17.3226L10.8065 20.6129L12.9355 17.7097L12.3548 21.2903L13.7097 17.8065L14 24L14.3871 17.8065L15.7419 21.2903L15.1613 17.7097L17.2903 20.6129L15.7419 17.3226L18.5484 19.5484L16.3226 16.7419L19.6129 18.2903L16.7097 16.1613L20.2903 16.7419L16.8065 15.3871L23 15L16.8065 14.7097L20.2903 13.3548L16.7097 13.9355L19.6129 11.8065L16.3226 13.2581L18.5484 10.4516L15.7419 12.7742L17.2903 9.48387L15.1613 12.3871L15.7419 8.80645L14.3871 12.1935L14 6Z" fill="white"/>
<path d="M2 37.3189L50 2V9.2973L2 38V37.3189Z" fill="#FFA654"/>
<path d="M2 37.4229L50 9V16.0697L2 38V37.4229Z" fill="white"/>
</g>
<path d="M11.7035 1.61228C6.53056 2.04084 2.23921 5.77712 1.57724 11.0101C1.25164 13.5841 1 16.6548 1 20C1 23.3452 1.25164 26.4159 1.57724 28.9899C2.23922 34.2229 6.53056 37.9592 11.7035 38.3877C15.5784 38.7087 20.5852 39 26 39C31.4148 39 36.4216 38.7087 40.2965 38.3877C45.4694 37.9592 49.7608 34.2229 50.4228 28.9899C50.7484 26.4159 51 23.3452 51 20C51 16.6548 50.7484 13.5841 50.4228 11.0101C49.7608 5.77712 45.4694 2.04084 40.2965 1.61228C36.4216 1.29127 31.4148 1 26 1C20.5852 1 15.5784 1.29127 11.7035 1.61228Z" stroke="#E6E6FA" stroke-width="2"/>
</svg>
