<svg width="52" height="40" viewBox="0 0 52 40" fill="none" xmlns="http://www.w3.org/2000/svg">
<mask id="mask0_1_33504" style="mask-type:alpha" maskUnits="userSpaceOnUse" x="2" y="2" width="48" height="36">
<path d="M2.56934 11.1356C3.16681 6.41247 7.0415 3.00193 11.7861 2.60887C15.6412 2.28949 20.6196 2 26 2C31.3804 2 36.3588 2.28949 40.2139 2.60887C44.9585 3.00193 48.8332 6.41247 49.4307 11.1356C49.752 13.6759 50 16.704 50 20C50 23.296 49.752 26.3241 49.4307 28.8644C48.8332 33.5875 44.9585 36.9981 40.2139 37.3911C36.3588 37.7105 31.3804 38 26 38C20.6196 38 15.6412 37.7105 11.7861 37.3911C7.0415 36.9981 3.16681 33.5875 2.56934 28.8644C2.248 26.3241 2 23.296 2 20C2 16.704 2.248 13.6759 2.56934 11.1356Z" fill="#00D0BF"/>
</mask>
<g mask="url(#mask0_1_33504)">
<rect x="50" y="38" width="48" height="36" transform="rotate(-180 50 38)" fill="#EE5757"/>
<path d="M-19 24.5V15.5L71 24.5V15.5L-19 24.5ZM21.5 -2.5H30.5L26 15.1786L21.5 -2.5ZM30.5 42.5H21.5L26 24.8214L30.5 42.5ZM-19 -2.5H-5.5L30.1336 22.4814L-19 -2.5ZM-19 42.5H-5.5L30.1336 17.5186L-19 42.5ZM71 -2.5H57.5L21.8664 22.4814L71 -2.5ZM71 42.5H57.5L21.8664 17.5186L71 42.5Z" fill="#FCD95E"/>
<path d="M26 28.0357C30.438 28.0357 34.0357 24.438 34.0357 20C34.0357 15.562 30.438 11.9643 26 11.9643C21.562 11.9643 17.9643 15.562 17.9643 20C17.9643 24.438 21.562 28.0357 26 28.0357Z" fill="#EE5757"/>
<path d="M26 26.4286C29.5504 26.4286 32.4286 23.5504 32.4286 20C32.4286 16.4496 29.5504 13.5714 26 13.5714C22.4496 13.5714 19.5714 16.4496 19.5714 20C19.5714 23.5504 22.4496 26.4286 26 26.4286Z" fill="#FCD95E"/>
</g>
<path d="M11.7035 1.61228C6.53056 2.04084 2.23921 5.77712 1.57724 11.0101C1.25164 13.5841 1 16.6548 1 20C1 23.3452 1.25164 26.4159 1.57724 28.9899C2.23922 34.2229 6.53056 37.9592 11.7035 38.3877C15.5784 38.7087 20.5852 39 26 39C31.4148 39 36.4216 38.7087 40.2965 38.3877C45.4694 37.9592 49.7608 34.2229 50.4228 28.9899C50.7484 26.4159 51 23.3452 51 20C51 16.6548 50.7484 13.5841 50.4228 11.0101C49.7608 5.77712 45.4694 2.04084 40.2965 1.61228C36.4216 1.29127 31.4148 1 26 1C20.5852 1 15.5784 1.29127 11.7035 1.61228Z" stroke="#E6E6FA" stroke-width="2"/>
</svg>
