<svg width="52" height="40" viewBox="0 0 52 40" fill="none" xmlns="http://www.w3.org/2000/svg">
<mask id="mask0_1_34404" style="mask-type:alpha" maskUnits="userSpaceOnUse" x="2" y="2" width="48" height="36">
<path d="M2.56934 11.1356C3.16681 6.41247 7.0415 3.00193 11.7861 2.60887C15.6412 2.28949 20.6196 2 26 2C31.3804 2 36.3588 2.28949 40.2139 2.60887C44.9585 3.00193 48.8332 6.41247 49.4307 11.1356C49.752 13.6759 50 16.704 50 20C50 23.296 49.752 26.3241 49.4307 28.8644C48.8332 33.5875 44.9585 36.9981 40.2139 37.3911C36.3588 37.7105 31.3804 38 26 38C20.6196 38 15.6412 37.7105 11.7861 37.3911C7.0415 36.9981 3.16681 33.5875 2.56934 28.8644C2.248 26.3241 2 23.296 2 20C2 16.704 2.248 13.6759 2.56934 11.1356Z" fill="#00D0BF"/>
</mask>
<g mask="url(#mask0_1_34404)">
<rect x="2" y="-4" width="24" height="49" fill="white"/>
<path d="M6 9.63631V12.3637H8.72731C8.72731 12.8182 9.18189 13.2728 9.63643 13.2728V16.0001H12.3636V13.2728C12.8181 13.2728 13.2727 12.8182 13.2727 12.3637H16V9.63631H13.2727C13.2727 9.18187 12.8181 8.72725 12.3636 8.72725V6H9.63643V8.72725C9.18186 8.72725 8.72731 9.18185 8.72731 9.63631H6Z" fill="#E60D2E"/>
<path d="M6.18188 9.818V12.1818H8.90902C8.90902 12.6363 9.36359 13.0908 9.81814 13.0908V15.8181H12.1817V13.0908C12.6362 13.0908 13.0908 12.6362 13.0908 12.1818H15.8179V9.818H13.0908C13.0908 9.36355 12.6362 8.90894 12.1817 8.90894V6.18169H9.81814V8.90894C9.36357 8.90894 8.90902 9.36354 8.90902 9.818H6.18188Z" fill="#96877D"/>
<path d="M6.27283 9.90901V12.0909H8.99996C8.99996 12.5453 9.45453 13 9.90908 13V15.7273H12.0908V13C12.5454 13 12.9999 12.5453 12.9999 12.0909H15.7271V9.90901H12.9999C12.9999 9.45458 12.5454 9 12.0908 9V6.27275H9.90908V9C9.45451 9 8.99996 9.4546 8.99996 9.90901H6.27283Z" fill="#CCCCCC"/>
<path d="M9.73891 8.96747C9.89867 9.12724 9.8555 9.42944 9.64249 9.64248C9.42947 9.8555 9.12728 9.89867 8.96754 9.73891C8.80779 9.57915 8.85096 9.27694 9.06397 9.06391C9.27698 8.8509 9.57917 8.80772 9.73891 8.96747Z" fill="#96877D"/>
<path d="M8.93531 9.44949L8.99958 9.38516L9.25672 9.51369L9.12814 9.25657L9.19242 9.19224L9.44955 9.70651L8.9353 9.44937L8.93531 9.44949Z" fill="#D0D0D0"/>
<path d="M9.32104 9.06385L9.38533 8.99957L9.77102 9.38526L9.70674 9.44955L9.32104 9.06385Z" fill="#D0D0D0"/>
<path d="M10.9999 12.9094C12.0544 12.9094 12.9092 12.0545 12.9092 11C12.9092 9.94556 12.0544 9.09072 10.9999 9.09072C9.94541 9.09072 9.09058 9.94556 9.09058 11C9.09058 12.0545 9.94541 12.9094 10.9999 12.9094Z" stroke="#96877D" stroke-width="0.0308401"/>
<path d="M10.9999 12.4548C11.8033 12.4548 12.4546 11.8035 12.4546 11.0001C12.4546 10.1967 11.8033 9.54536 10.9999 9.54536C10.1965 9.54536 9.54517 10.1967 9.54517 11.0001C9.54517 11.8035 10.1965 12.4548 10.9999 12.4548Z" stroke="#96877D" stroke-width="0.0308401"/>
<path d="M10.2727 12.6361C10.3229 12.6361 10.3636 12.5954 10.3636 12.5452C10.3636 12.495 10.3229 12.4543 10.2727 12.4543C10.2225 12.4543 10.1818 12.495 10.1818 12.5452C10.1818 12.5954 10.2225 12.6361 10.2727 12.6361Z" fill="black"/>
<path d="M11.7273 12.6361C11.7775 12.6361 11.8182 12.5954 11.8182 12.5452C11.8182 12.495 11.7775 12.4543 11.7273 12.4543C11.677 12.4543 11.6364 12.495 11.6364 12.5452C11.6364 12.5954 11.677 12.6361 11.7273 12.6361Z" fill="black"/>
<path d="M10.9397 12.5452V12.64H10.8185C10.6972 12.64 10.6972 12.7348 10.8185 12.7348H10.9397V12.8296C10.9401 12.9278 11.0455 12.9397 11.0532 12.8378L11.0609 12.7353H11.1821C11.3033 12.7353 11.3033 12.6405 11.1821 12.6405H11.0609V12.5457C11.0609 12.451 10.9397 12.451 10.9397 12.5457L10.9397 12.5452Z" fill="black"/>
<path d="M9.2239 11.4706L9.34891 11.4408L9.3351 11.3829C9.33194 11.3696 9.32668 11.3605 9.31934 11.3558C9.31201 11.351 9.29942 11.3496 9.28158 11.3517L9.2795 11.3431L9.38716 11.3174L9.38924 11.3261C9.37692 11.3292 9.36823 11.3329 9.36317 11.3374C9.35812 11.3418 9.35478 11.3471 9.35318 11.3531C9.35157 11.3592 9.35203 11.3676 9.35457 11.3782L9.36838 11.4362L9.4683 11.4123C9.4844 11.4085 9.49479 11.4049 9.49947 11.4017C9.50301 11.3992 9.50558 11.3951 9.50721 11.3894C9.50932 11.3817 9.50948 11.374 9.50769 11.3665L9.50495 11.355L9.51363 11.3529L9.54617 11.4894L9.53749 11.4915L9.53481 11.4803C9.53167 11.4671 9.52558 11.4585 9.5165 11.4544C9.5106 11.4518 9.49811 11.4528 9.47903 11.4574L9.27356 11.5063C9.25746 11.5102 9.24707 11.5137 9.24239 11.517C9.23885 11.5195 9.23626 11.5235 9.2346 11.529C9.23245 11.5366 9.23228 11.5443 9.23411 11.5519L9.23679 11.5632L9.22811 11.5653L9.1717 11.3286L9.24086 11.3089L9.24282 11.3171C9.22893 11.3247 9.21916 11.3321 9.21348 11.3391C9.20781 11.3462 9.20435 11.354 9.20311 11.3626C9.20186 11.3713 9.20321 11.3839 9.20717 11.4005L9.22388 11.4706L9.2239 11.4706ZM9.14336 10.9065C9.14575 10.8641 9.16391 10.8283 9.19784 10.799C9.23177 10.7698 9.27281 10.7565 9.32096 10.7593C9.37055 10.7621 9.41084 10.78 9.44182 10.8132C9.4728 10.8463 9.48703 10.8851 9.48453 10.9296C9.482 10.9745 9.4639 11.0114 9.43024 11.0401C9.39658 11.0689 9.35439 11.0819 9.30367 11.079C9.25183 11.0761 9.21053 11.056 9.17978 11.0189C9.1531 10.9866 9.14096 10.9492 9.14336 10.9065L9.14336 10.9065ZM9.16068 10.912C9.15904 10.9412 9.16855 10.9653 9.18922 10.9842C9.21494 11.0077 9.25381 11.0209 9.30581 11.0238C9.35909 11.0268 9.40074 11.0177 9.43075 10.9966C9.45356 10.9803 9.46578 10.9578 9.4674 10.9291C9.46913 10.8984 9.4586 10.8724 9.43581 10.8511C9.41302 10.8298 9.37587 10.8177 9.32435 10.8148C9.26849 10.8116 9.22623 10.8203 9.19754 10.8407C9.17472 10.8571 9.16243 10.8809 9.16068 10.912L9.16068 10.912ZM9.63432 10.315L9.60327 10.3965L9.42102 10.4456C9.4184 10.4534 9.41618 10.4597 9.41435 10.4645C9.4136 10.4664 9.41276 10.4685 9.41183 10.4707C9.4109 10.473 9.4099 10.4752 9.40883 10.4776L9.49762 10.5114C9.51685 10.5187 9.52959 10.5212 9.53585 10.5187C9.54464 10.5155 9.5512 10.5082 9.55555 10.4968L9.5601 10.4849L9.56843 10.488L9.51859 10.619L9.51025 10.6158L9.51463 10.6043C9.51955 10.5914 9.51886 10.5805 9.51256 10.5718C9.5091 10.5668 9.49866 10.5611 9.48124 10.5544L9.28383 10.4793C9.2646 10.472 9.25185 10.4695 9.2456 10.4719C9.23675 10.4753 9.23013 10.4827 9.22573 10.4943L9.22135 10.5058L9.21302 10.5026L9.2554 10.3913C9.26775 10.3589 9.27922 10.3358 9.28982 10.3222C9.30041 10.3086 9.3141 10.2989 9.33089 10.293C9.34767 10.2871 9.36485 10.2875 9.38243 10.2942C9.40121 10.3013 9.41518 10.3136 9.42434 10.3311C9.4335 10.3486 9.43604 10.3713 9.43197 10.3992L9.54366 10.3695C9.56928 10.3627 9.58737 10.3554 9.59792 10.3475C9.60848 10.3397 9.61783 10.3278 9.62598 10.3118L9.63432 10.315V10.315ZM9.39464 10.4722C9.39573 10.4693 9.39671 10.4669 9.39758 10.4648C9.39846 10.4627 9.39915 10.461 9.39967 10.4597C9.41076 10.4305 9.41282 10.4061 9.40583 10.3865C9.39885 10.3669 9.38559 10.3534 9.36606 10.346C9.34698 10.3387 9.32919 10.3388 9.3127 10.3462C9.29621 10.3536 9.28422 10.3671 9.27673 10.3868C9.27341 10.3955 9.27035 10.4078 9.26754 10.4238L9.39464 10.4722L9.39464 10.4722ZM10.0904 9.389L10.1536 9.47103L10.1465 9.47562C10.1254 9.45867 10.1056 9.44839 10.0872 9.4448C10.0606 9.43959 10.0345 9.44529 10.0089 9.46189C9.97397 9.48452 9.95634 9.51557 9.95604 9.55502C9.95592 9.58824 9.96629 9.62097 9.98718 9.65322C10.0041 9.6794 10.0247 9.7 10.0488 9.71503C10.0729 9.73007 10.0964 9.7373 10.1193 9.73673C10.1422 9.73617 10.1623 9.73029 10.1795 9.71911C10.1896 9.71255 10.1986 9.70494 10.2064 9.69625C10.2142 9.68757 10.2208 9.6779 10.2264 9.66723L10.175 9.58789C10.1661 9.57413 10.1592 9.5658 10.1543 9.5629C10.1495 9.56001 10.1442 9.55887 10.1383 9.55948C10.1325 9.56009 10.1241 9.56399 10.113 9.57115L10.108 9.56346L10.2143 9.49464L10.2193 9.50233L10.2142 9.5056C10.2037 9.51242 10.1987 9.5206 10.1994 9.53015C10.1999 9.53689 10.2049 9.54762 10.2144 9.56232L10.2688 9.64631C10.2587 9.66473 10.2474 9.68079 10.2348 9.69449C10.2223 9.70819 10.2067 9.72102 10.1882 9.73299C10.1352 9.76734 10.0839 9.77642 10.0344 9.76025C9.99722 9.74812 9.96785 9.72539 9.94627 9.69206C9.93062 9.66791 9.92144 9.64101 9.91871 9.61137C9.91543 9.57614 9.92121 9.54367 9.93605 9.51395C9.94856 9.48919 9.9685 9.46794 9.99589 9.4502C10.0059 9.44374 10.0155 9.43867 10.0247 9.435C10.0339 9.43133 10.0478 9.42742 10.0663 9.42325C10.0757 9.42118 10.0817 9.41932 10.0843 9.41767C10.0868 9.416 10.0883 9.41341 10.0886 9.40987C10.0889 9.40633 10.087 9.40098 10.0829 9.39384L10.0904 9.38899V9.389ZM10.6228 9.42587L10.5005 9.4584L10.4923 9.51397C10.4903 9.52765 10.4901 9.53751 10.4917 9.54357C10.493 9.54839 10.4964 9.55201 10.5019 9.55445C10.5075 9.55688 10.518 9.55661 10.5335 9.55365L10.5358 9.56228L10.4363 9.58873L10.434 9.58011C10.4466 9.57427 10.4544 9.56897 10.4572 9.56421C10.4632 9.55464 10.4679 9.53716 10.4715 9.51176L10.5135 9.22214L10.5217 9.21997L10.7015 9.45358C10.716 9.47235 10.7277 9.48393 10.7366 9.4883C10.7455 9.49267 10.7565 9.49353 10.7696 9.49088L10.7719 9.4995L10.6472 9.53265L10.6449 9.52403C10.6573 9.52006 10.6653 9.5157 10.6688 9.51095C10.6722 9.5062 10.6733 9.50126 10.6719 9.49613C10.6701 9.4893 10.6641 9.47933 10.654 9.46622L10.6228 9.42586L10.6228 9.42587ZM10.6117 9.41036L10.5242 9.29691L10.5031 9.43924L10.6117 9.41036L10.6117 9.41036ZM11.189 9.40866L11.1968 9.41066L11.1654 9.49824L10.9125 9.4884L10.9128 9.47948L10.9251 9.47996C10.9389 9.4805 10.949 9.47639 10.9553 9.46762C10.9588 9.46261 10.961 9.45079 10.9617 9.43216L10.9699 9.22133C10.9707 9.20093 10.969 9.18807 10.9647 9.18276C10.9587 9.17545 10.9495 9.17155 10.9371 9.17107L10.9248 9.17059L10.9252 9.16167L11.0731 9.16743L11.0728 9.17634C11.0554 9.17551 11.0432 9.17664 11.0361 9.17974C11.029 9.18284 11.024 9.18692 11.0213 9.19196C11.0185 9.197 11.0167 9.20923 11.016 9.22867L11.008 9.43395C11.0074 9.44729 11.0084 9.45649 11.0108 9.46157C11.0126 9.46502 11.0154 9.46763 11.0194 9.46939C11.0233 9.47115 11.0358 9.47244 11.0569 9.47326L11.0807 9.47419C11.1058 9.47516 11.1235 9.474 11.1337 9.4707C11.144 9.4674 11.1535 9.46121 11.1622 9.45214C11.1709 9.44307 11.1798 9.42857 11.189 9.40866L11.189 9.40866ZM11.6244 9.52518L11.6314 9.52928L11.577 9.60475L11.3366 9.52526L11.3394 9.51679L11.3511 9.52065C11.3642 9.52499 11.375 9.52382 11.3835 9.51715C11.3883 9.51332 11.3937 9.50256 11.3995 9.48485L11.4658 9.28454C11.4722 9.26515 11.474 9.25231 11.4714 9.24602C11.4676 9.23733 11.4599 9.23105 11.4482 9.22716L11.4365 9.2233L11.4393 9.21483L11.5798 9.26131L11.577 9.26978C11.5606 9.26418 11.5485 9.26188 11.5409 9.26289C11.5332 9.2639 11.5273 9.26645 11.5232 9.27052C11.5192 9.2746 11.5141 9.28587 11.508 9.30434L11.4435 9.49939C11.4393 9.51206 11.4376 9.52116 11.4385 9.5267C11.4393 9.53051 11.4413 9.53381 11.4446 9.5366C11.4479 9.53939 11.4596 9.54409 11.4796 9.5507L11.5022 9.55819C11.5261 9.56607 11.5433 9.56984 11.5541 9.56951C11.5649 9.56918 11.5757 9.56586 11.5866 9.55956C11.5975 9.55325 11.6101 9.5418 11.6244 9.52519L11.6244 9.52518ZM11.9753 9.71102L11.872 9.63789L11.8241 9.66719C11.8123 9.6744 11.8046 9.68056 11.8009 9.68568C11.7981 9.68974 11.7975 9.69469 11.7992 9.70051C11.8009 9.70633 11.8078 9.71426 11.82 9.72428L11.8149 9.73156L11.7308 9.67208L11.736 9.66479C11.7485 9.67072 11.7575 9.67327 11.763 9.67244C11.7742 9.67088 11.7907 9.66333 11.8125 9.6498L12.0618 9.49661L12.0687 9.50148L12.0044 9.78924C11.9993 9.81238 11.9979 9.82877 12.0002 9.8384C12.0026 9.84803 12.009 9.85703 12.0194 9.86539L12.0142 9.87268L11.9089 9.79815L11.9141 9.79087C11.9251 9.79787 11.9335 9.80118 11.9394 9.80081C11.9453 9.80044 11.9497 9.79808 11.9528 9.79376C11.9569 9.78798 11.9607 9.77701 11.9643 9.76083L11.9753 9.71102L11.9753 9.71102ZM11.9801 9.69256L12.0112 9.55266L11.8884 9.62763L11.9801 9.69255L11.9801 9.69256ZM12.3679 9.76402L12.4207 9.8353L12.3428 10.1419L12.4942 10.0296C12.5104 10.0177 12.5191 10.0084 12.5204 10.0018C12.5223 9.99302 12.5194 9.98345 12.5118 9.97312L12.505 9.96401L12.5122 9.9587L12.58 10.0501L12.5728 10.0554L12.5659 10.0461C12.5577 10.035 12.5485 10.0297 12.5383 10.03C12.5321 10.0302 12.5216 10.0358 12.5069 10.0467L12.2854 10.2108L12.2803 10.2038L12.3634 9.87385L12.2017 9.99375C12.1856 10.0057 12.1768 10.0149 12.1754 10.0214C12.1736 10.0303 12.1765 10.0399 12.184 10.0501L12.1909 10.0594L12.1837 10.0647L12.116 9.97325L12.1231 9.96794L12.1299 9.97704C12.1382 9.98827 12.1475 9.99373 12.1576 9.9934C12.1639 9.99318 12.1743 9.98762 12.1891 9.9767L12.3717 9.8413C12.375 9.82707 12.3766 9.81694 12.3765 9.81089C12.3764 9.80485 12.3748 9.79711 12.3716 9.78767C12.37 9.78306 12.3664 9.77695 12.3607 9.76933L12.3679 9.76402L12.3679 9.76402ZM12.7801 10.5237L12.7091 10.5527L12.706 10.5441C12.7182 10.5379 12.7264 10.5324 12.7309 10.5276C12.738 10.5198 12.7423 10.5113 12.7437 10.502C12.7451 10.4927 12.7436 10.4817 12.739 10.469L12.7237 10.4256L12.4882 10.5089C12.4692 10.5156 12.4581 10.5218 12.4549 10.5276C12.4506 10.5356 12.4505 10.5456 12.4548 10.5575L12.4585 10.5682L12.4501 10.5712L12.4039 10.4405L12.4123 10.4375L12.4162 10.4484C12.4208 10.4615 12.428 10.4693 12.4378 10.472C12.4438 10.4736 12.4555 10.4713 12.4727 10.4652L12.7082 10.3819L12.6951 10.3449C12.6901 10.3305 12.6854 10.3206 12.6811 10.3153C12.6754 10.3084 12.6675 10.3036 12.6574 10.3009C12.6472 10.2982 12.6349 10.2988 12.6206 10.3027L12.6176 10.294L12.6911 10.2721L12.7802 10.5237L12.7801 10.5237ZM12.5213 11.1037L12.5168 11.0165L12.6637 10.8981C12.663 10.8899 12.6625 10.8832 12.6622 10.8781C12.6621 10.876 12.662 10.8738 12.662 10.8714C12.6619 10.8689 12.6619 10.8664 12.6619 10.8639L12.5671 10.8688C12.5465 10.8699 12.5339 10.8728 12.5291 10.8775C12.5224 10.884 12.5193 10.8933 12.52 10.9055L12.5206 10.9183L12.5117 10.9188L12.5044 10.7789L12.5133 10.7784L12.514 10.7907C12.5147 10.8045 12.5197 10.8141 12.529 10.8196C12.5342 10.8227 12.546 10.8238 12.5647 10.8228L12.7756 10.8118C12.7962 10.8108 12.8088 10.8079 12.8135 10.8031C12.8203 10.7965 12.8233 10.787 12.8227 10.7746L12.8221 10.7623L12.831 10.7619L12.8371 10.8808C12.8389 10.9155 12.8377 10.9412 12.8335 10.9579C12.8293 10.9746 12.8208 10.9891 12.8078 11.0013C12.7948 11.0134 12.7789 11.02 12.7602 11.021C12.7401 11.022 12.7223 11.0164 12.7069 11.0041C12.6914 10.9918 12.68 10.972 12.6724 10.9449L12.5823 11.0172C12.5615 11.0337 12.5479 11.0477 12.5415 11.0592C12.535 11.0706 12.5312 11.0853 12.5302 11.1032L12.5213 11.1037L12.5213 11.1037ZM12.6771 10.8631C12.6773 10.8661 12.6774 10.8688 12.6774 10.871C12.6775 10.8733 12.6775 10.8751 12.6776 10.8766C12.6792 10.9077 12.6872 10.9308 12.7015 10.946C12.7158 10.9611 12.7334 10.9681 12.7542 10.967C12.7746 10.9659 12.7909 10.9587 12.803 10.9453C12.8151 10.9318 12.8206 10.9146 12.8195 10.8936C12.819 10.8843 12.8168 10.8717 12.8129 10.856L12.6771 10.8631H12.6771ZM12.7668 11.5357L12.7378 11.646L12.7292 11.6437L12.7308 11.6377C12.7318 11.6336 12.7316 11.6272 12.7301 11.6185C12.7285 11.6098 12.7252 11.6014 12.7202 11.5933C12.7152 11.5851 12.7064 11.5744 12.6938 11.5611L12.5937 11.4534L12.5144 11.4326C12.4949 11.4275 12.4822 11.4265 12.4763 11.4295C12.4682 11.4337 12.4625 11.4422 12.4591 11.455L12.4564 11.4652L12.4478 11.463L12.4831 11.3286L12.4917 11.3309L12.4887 11.3421C12.4852 11.3554 12.4868 11.366 12.4934 11.3737C12.4975 11.3784 12.5084 11.3831 12.5261 11.3878L12.601 11.4074L12.7562 11.3554C12.7745 11.3492 12.786 11.3448 12.7908 11.3422C12.7957 11.3396 12.8023 11.3332 12.8108 11.3231C12.8132 11.3204 12.8151 11.3161 12.8167 11.3102L12.8253 11.3125L12.7898 11.4478L12.7812 11.4455L12.783 11.4385C12.7849 11.4312 12.785 11.424 12.7832 11.417C12.7814 11.4099 12.7771 11.4055 12.7702 11.4037C12.7646 11.4022 12.7533 11.4043 12.7362 11.41L12.6169 11.4492L12.6982 11.5369C12.7103 11.55 12.72 11.5576 12.7271 11.5594C12.7315 11.5606 12.7357 11.5605 12.7397 11.5591C12.7437 11.5578 12.7472 11.5552 12.7503 11.5516C12.7533 11.5479 12.7559 11.5418 12.7581 11.5334L12.7668 11.5357L12.7668 11.5357Z" fill="black"/>
<path d="M12.0377 11.278C12.0696 11.2699 12.1223 11.2765 12.1223 11.2765C12.1223 11.2765 12.1269 11.2984 12.113 11.3057C12.1284 11.3145 12.1838 11.3118 12.1838 11.3118C12.1838 11.3118 12.1622 11.3283 12.1515 11.3349C12.1715 11.3368 12.1961 11.3625 12.1961 11.3625C12.1961 11.3625 12.1499 11.3702 12.13 11.3595C12.1423 11.3841 12.1407 11.4056 12.1407 11.4056C12.1407 11.4056 12.0662 11.3871 12.0393 11.3379" fill="#96877D"/>
<path d="M12.0377 11.278C12.0696 11.2699 12.1223 11.2765 12.1223 11.2765C12.1223 11.2765 12.1269 11.2984 12.113 11.3057C12.1284 11.3145 12.1838 11.3118 12.1838 11.3118C12.1838 11.3118 12.1622 11.3283 12.1515 11.3349C12.1715 11.3368 12.1961 11.3625 12.1961 11.3625C12.1961 11.3625 12.1499 11.3702 12.13 11.3595C12.1423 11.3841 12.1407 11.4056 12.1407 11.4056C12.1407 11.4056 12.0662 11.3871 12.0393 11.3379" stroke="black" stroke-width="0.01218"/>
<path d="M11.9129 11.2359C11.8948 11.2805 11.7622 11.1975 11.7622 11.1975C11.7622 11.1975 11.8206 11.2901 11.9082 11.3005" fill="#96877D"/>
<path d="M11.9129 11.2359C11.8948 11.2805 11.7622 11.1975 11.7622 11.1975C11.7622 11.1975 11.8206 11.2901 11.9082 11.3005" stroke="black" stroke-width="0.01218"/>
<path d="M10.2576 12.0862H11.8102L11.9301 11.9909L11.7303 11.8833L11.4228 11.7788L11.2998 11.7111L11.0723 11.7234L10.8817 11.8249L10.6203 11.8556L10.5589 11.9263L10.3652 11.9417L10.0608 11.9356L10.5681 12.0155L10.15 11.994L10.2576 12.0862L10.2576 12.0862Z" fill="#96877D" stroke="black" stroke-width="0.01218"/>
<path d="M11.0939 11.6404C10.8995 11.5359 10.8426 11.7934 10.7588 11.8556C10.8718 11.8748 10.9571 11.7688 11.0539 11.7173C11.1274 11.9172 11.243 11.7849 11.243 11.7849C11.243 11.7849 11.3637 11.9763 11.5243 11.8894C11.5682 11.9225 11.6166 11.8925 11.6166 11.8925C11.6166 11.8925 11.675 11.9033 11.6873 11.8771C11.718 11.8879 11.7519 11.8495 11.7519 11.8495C11.7519 11.8495 11.8187 11.8502 11.8318 11.8156C11.931 11.8333 12.0624 11.6127 12.0624 11.6127L12.1024 11.5359L12.1608 11.5236C12.1608 11.5236 12.1646 11.4851 12.1331 11.4867C12.1323 11.4636 12.1123 11.4513 12.0839 11.4559C12.0893 11.4421 12.0685 11.4313 12.0685 11.4313C12.0132 11.4452 12.0101 11.585 12.0101 11.585C12.0101 11.585 11.9133 11.6588 11.8779 11.6773C11.8764 11.5973 11.7426 11.489 11.7703 11.4375C11.798 11.386 11.8848 11.5166 11.9609 11.4928C12.037 11.469 12.0744 11.37 12.0778 11.293C12.0562 11.2407 12.004 11.1546 12.004 11.1546L11.9548 11.1515L11.9117 11.047C11.9117 11.047 11.821 11.1062 11.8226 11.1577C11.8241 11.2092 11.9179 11.253 11.9179 11.253C11.9179 11.253 11.8638 11.2868 11.8133 11.2714C11.8087 11.3237 11.8748 11.3137 11.8994 11.3145C11.9117 11.3522 11.9486 11.3729 11.9486 11.3729C11.9486 11.3729 11.9717 11.4306 11.9117 11.4252C11.8518 11.4198 11.781 11.2817 11.6965 11.3452C11.6066 11.4129 11.7365 11.5359 11.7365 11.5359C11.7365 11.5359 11.6573 11.5774 11.6104 11.6834C11.419 11.522 11.3068 11.5973 11.0939 11.6404L11.0939 11.6404Z" fill="#96877D" stroke="black" stroke-width="0.01218"/>
<path d="M10.8143 11.3668C10.8942 11.4421 10.8385 11.5673 10.8696 11.5912C10.9027 11.6166 10.9496 11.5789 10.9496 11.5789C11.0333 11.6012 11.1832 11.5544 11.1832 11.5544C11.2492 11.5912 11.2232 11.5368 11.2632 11.539C11.2985 11.6297 11.4169 11.6128 11.4169 11.6128C11.4169 11.6128 11.3085 11.5021 11.2417 11.4713C11.1902 11.5021 11.0403 11.5067 11.0141 11.5021C10.985 11.4969 11.0034 11.4613 10.9895 11.4406C11.0447 11.387 11.0011 11.2538 10.9711 11.2039C10.8489 11.1225 10.703 11.2619 10.8143 11.3668L10.8143 11.3668Z" fill="#96877D" stroke="black" stroke-width="0.01218"/>
<path d="M10.2826 11.1417C10.1821 11.1689 10.0076 11.0118 9.92609 11.0722C9.84456 11.1325 9.88261 11.2809 9.93696 11.3548C9.99006 11.427 9.85924 11.4532 9.82391 11.4961C9.7907 11.5365 9.83478 11.5831 9.83478 11.5831L9.87174 11.607L9.86522 11.6613L9.88478 11.7266C9.88478 11.7266 9.90272 11.7423 9.9087 11.7222C9.92555 11.739 9.91048 11.7878 9.95218 11.7939C9.93725 11.7627 9.96305 11.6765 9.96305 11.6765C9.96305 11.6765 10.0359 11.682 10.0544 11.6505C10.0728 11.6189 10.037 11.5505 10.037 11.5505H10.0587C10.0342 11.5336 10.0261 11.4831 10.0261 11.4831C10.0261 11.4831 10.1272 11.451 10.1261 11.3744C10.125 11.2977 9.96196 11.2162 10.0217 11.1765C10.0881 11.1325 10.2033 11.2907 10.3022 11.2178C10.4001 11.1458 10.337 11.2157 10.337 11.2157C10.337 11.2157 10.3817 11.115 10.2826 11.1417L10.2826 11.1417Z" fill="#96877D" stroke="black" stroke-width="0.01218"/>
<path d="M10.8017 10.0649C10.6672 10.0088 10.3924 10.0053 10.2391 9.9296C10.1718 9.93382 10.1418 9.98686 10.1392 10.008C10.0688 10.0045 10.0212 10.1152 10.0315 10.1371C9.90357 10.0852 9.84399 10.2878 9.8855 10.3293C9.77635 10.3339 9.78981 10.4734 9.77943 10.5122C9.74446 10.5972 9.78722 10.6257 9.85629 10.5952C9.86667 10.6321 9.85214 10.6528 9.82093 10.6598C10.0104 10.8766 10.1175 10.5264 10.2837 10.5276C10.4911 10.4668 10.5727 10.3646 10.5727 10.3646L10.6541 10.3754L10.8017 10.0649L10.8017 10.0649Z" fill="#96877D" stroke="black" stroke-width="0.01218"/>
<path d="M10.9754 10.1079C11.0849 10.1079 11.1737 10.0191 11.1737 9.90963C11.1737 9.80011 11.0849 9.71133 10.9754 9.71133C10.8659 9.71133 10.7771 9.80011 10.7771 9.90963C10.7771 10.0191 10.8659 10.1079 10.9754 10.1079Z" fill="#96877D" stroke="black" stroke-width="0.01218"/>
<path d="M10.6265 11.4712C10.5035 11.4489 10.2998 11.3213 10.2791 11.1545C10.3936 10.7049 10.9844 10.9397 11.0353 10.6015C11.0223 10.3784 11.0623 10.1575 11.186 9.97081C11.2437 9.89779 11.3182 9.87857 11.3182 9.87857C11.3182 9.87857 11.3316 9.9262 11.3121 9.95851C11.4097 9.94775 11.5434 10.0023 11.6349 10.0077C11.6618 10.0623 11.6595 10.0823 11.6533 10.1153C11.6472 10.1484 11.6103 10.1399 11.6103 10.1399C11.5864 10.1625 11.5578 10.1856 11.4935 10.1737C11.445 10.2106 11.3428 10.2198 11.3428 10.2198C11.3428 10.2198 11.5565 10.4451 11.5211 10.515C11.5657 10.5358 11.6318 10.6349 11.6318 10.6349C11.6318 10.6349 11.7779 10.558 11.8255 10.4873C11.9101 10.4873 12.0484 10.5757 12.1176 10.5857C12.2021 10.6541 12.2867 10.7241 12.2867 10.7241C12.2867 10.7241 12.186 10.7902 12.1422 10.7025C12.0891 10.7072 11.9746 10.5803 11.8163 10.6195C11.8117 10.7602 11.6564 10.8593 11.6564 10.8593C11.6564 10.8593 11.8013 10.8391 11.8808 10.887C11.9631 10.9562 12.0838 11.05 12.0838 11.05L12.1914 11.2344C12.1914 11.2344 12.093 11.2513 12.0561 11.1238C12.0192 11.2268 12.0177 11.06 11.8716 10.9823C11.8271 10.9877 11.8048 10.9908 11.7671 10.9608C11.6618 10.9892 11.5373 11.0507 11.3889 11.0346C11.2836 11.0676 11.2068 11.1553 11.0999 11.2037C10.9931 11.2521 10.9616 11.2283 10.9616 11.2283L10.8755 11.2314C10.8631 11.2832 10.8701 11.362 10.8232 11.3759C10.8532 11.4082 10.8017 11.5457 10.7494 11.5696C10.774 11.658 10.8461 11.685 10.9216 11.7294C10.9216 11.7294 10.9885 11.6987 11.0323 11.7387C11.0761 11.7786 11.1214 11.8924 11.1214 11.8924C11.1214 11.8924 11.0303 11.8985 11.0015 11.8862C10.9728 11.8739 10.97 11.844 10.937 11.8524C10.7287 11.6672 10.6188 11.7409 10.5988 11.6987C10.5782 11.6555 10.648 11.5427 10.6264 11.4712L10.6265 11.4712Z" fill="#96877D" stroke="black" stroke-width="0.01218"/>
<path d="M10.1261 10.6459C10.1369 10.6323 10.213 10.6611 10.213 10.6611L10.3522 10.7481L10.6348 10.9307L10.7348 11.0764L10.5544 11.0177L10.3043 10.8024L10.1696 10.7155C10.1696 10.7155 10.1152 10.6595 10.1261 10.6459L10.1261 10.6459Z" fill="#96877D" stroke="black" stroke-width="0.01218"/>
<path d="M11.7977 11.1088C11.7001 11.0842 11.4595 11.3763 11.4595 11.3763L11.6409 11.5731C11.6409 11.5731 11.6463 11.2379 11.7977 11.1088Z" fill="#96877D" stroke="black" stroke-width="0.01218"/>
<path d="M10.6081 10.2939C10.5549 10.3621 10.5501 10.4996 10.6194 10.5551C10.6259 10.6385 10.6969 10.8069 10.7526 10.8227C10.8136 10.84 11.057 10.8965 11.1523 10.8811C11.1341 11.0356 11.2553 11.1596 11.3675 11.2408C11.3667 11.2547 11.3665 11.2716 11.3795 11.2888C11.3921 11.3053 11.451 11.3084 11.4536 11.2992C11.4798 11.336 11.6065 11.3521 11.6156 11.3358C11.6246 11.3198 11.4293 11.1839 11.386 11.1424C11.3492 11.0738 11.2795 10.9208 11.263 10.7981C11.1672 10.6841 11.0026 10.6864 11.0026 10.6864L11.0078 10.463L11.017 10.2109L10.9279 10.1647C10.9279 10.1647 10.9459 10.1566 10.9556 10.1463C10.9772 10.1556 11.0179 10.1121 11.0232 10.0998C11.0437 10.1071 11.0623 10.107 11.0659 10.096C11.069 10.0863 11.0727 10.0433 11.0802 10.021C11.1474 9.96177 11.0704 9.83619 10.9675 9.83413C10.8657 9.83206 10.8429 9.95552 10.8449 9.9649C10.8544 10.0036 10.8524 10.0232 10.8449 10.0325C10.8372 10.0421 10.8018 10.0633 10.8018 10.0633C10.8018 10.0633 10.745 10.0364 10.6758 10.0633C10.6066 10.0902 10.529 10.1263 10.5251 10.1709C10.4936 10.1755 10.4421 10.2162 10.4329 10.2508C10.4052 10.2455 10.3691 10.2685 10.3099 10.3646C10.2038 10.4115 10.1977 10.6382 10.1977 10.6382C10.1977 10.6382 10.1691 10.6799 10.1677 10.702C10.1664 10.7241 10.1777 10.7443 10.1915 10.7405C10.1931 10.7551 10.2123 10.7681 10.2207 10.7635C10.2238 10.7781 10.2449 10.7863 10.2576 10.7843C10.2588 10.7943 10.2997 10.7918 10.303 10.7827C10.3066 10.7728 10.2989 10.7229 10.3038 10.7189C10.3082 10.7153 10.3422 10.7412 10.3514 10.7343C10.3606 10.7274 10.3497 10.7052 10.3445 10.6966C10.3399 10.689 10.3107 10.6805 10.3038 10.6444C10.2968 10.6082 10.3222 10.5583 10.3222 10.5583C10.3222 10.5583 10.4375 10.4676 10.4506 10.39C10.5374 10.3984 10.5833 10.3225 10.6081 10.2939L10.6081 10.2939Z" fill="#96877D" stroke="black" stroke-width="0.01218"/>
<path d="M10.4075 9.96875C10.4338 9.90438 10.5289 9.91033 10.5289 9.91033C10.5289 9.91033 10.5629 9.82079 10.6911 9.87421C10.7393 9.83693 10.8663 9.89035 10.8663 9.89035C10.8663 9.89035 10.9139 9.82698 10.9763 9.83424C11.0917 9.84769 11.111 9.95357 11.1039 9.97183C11.0406 9.98778 10.9311 9.92045 10.8479 9.93954C10.7993 9.96702 10.7205 9.99604 10.6911 10.0356C10.614 10.0437 10.5318 9.96471 10.4075 9.96875V9.96875Z" fill="#96877D" stroke="black" stroke-width="0.01218"/>
<path d="M10.6481 10.0756C10.6769 10.0579 10.7476 10.0268 10.7956 10.0648C10.846 10.119 10.9232 10.1694 10.9232 10.1694L11.0109 10.2063L11.0508 10.2309L11.0247 10.6321C10.9436 10.5491 10.8676 10.5346 10.8095 10.4369C10.7783 10.395 10.8022 10.2943 10.748 10.2278C10.6938 10.1613 10.6362 10.1163 10.6481 10.0756L10.6481 10.0756Z" fill="#96877D" stroke="black" stroke-width="0.01218"/>
<path d="M10.8588 10.1915C10.8588 10.1915 10.9047 10.1828 10.9175 10.1936C10.9335 10.1991 10.949 10.2037 10.9533 10.2176C10.9707 10.2227 10.9827 10.2317 10.9827 10.2447C10.999 10.2491 11.0055 10.2784 11.0055 10.2784L10.9903 10.3013C10.9903 10.3013 10.9729 10.285 10.9707 10.2676C10.9597 10.2621 10.9354 10.2564 10.9294 10.2404C10.9104 10.2385 10.8982 10.2287 10.8946 10.2121C10.877 10.2162 10.8588 10.1915 10.8588 10.1915V10.1915Z" fill="#96877D" stroke="black" stroke-width="0.01218"/>
<path d="M11.2475 9.9296C11.2214 9.90039 11.1753 9.92191 11.1753 9.92191L11.0523 10.1341L10.9985 10.1786L10.9939 10.3447L11.0385 10.4999L11.0231 10.6198C11.0231 10.6198 11.085 10.5617 11.0923 10.5291C11.0992 10.498 11.0692 10.3969 11.0692 10.3969C11.0692 10.3969 11.0323 10.3339 11.0769 10.2171C11.1215 10.1002 11.223 10.0034 11.2475 9.9296L11.2475 9.9296Z" fill="#96877D" stroke="black" stroke-width="0.01218"/>
<path d="M11.5512 10.1186C11.5512 10.1186 11.3591 10.393 11.0448 10.4907C10.9579 10.5114 10.9894 10.2877 10.9894 10.2877L10.9679 10.2939C10.9679 10.2939 10.9195 10.5129 11.0355 10.5152C11.3515 10.453 11.5885 10.1204 11.5885 10.1204L11.5507 10.1187L11.5512 10.1186Z" fill="#96877D" stroke="black" stroke-width="0.01218"/>
<path d="M11.6813 11.6962C11.6813 11.6962 11.6521 11.7177 11.6136 11.6962C11.5936 11.65 11.5398 11.647 11.5398 11.647C11.5398 11.647 11.5052 11.5474 11.4507 11.5763C11.4422 11.5248 11.383 11.5517 11.383 11.5517C11.383 11.5517 11.3815 11.4771 11.3123 11.4871C11.3354 11.4018 11.217 11.4072 11.217 11.4072C11.217 11.4072 11.2132 11.3111 11.0387 11.3303C11.4146 11.162 11.712 11.5947 11.712 11.5947" fill="#96877D"/>
<path d="M11.6813 11.6962C11.6813 11.6962 11.6521 11.7177 11.6136 11.6962C11.5936 11.65 11.5398 11.647 11.5398 11.647C11.5398 11.647 11.5052 11.5474 11.4507 11.5763C11.4422 11.5248 11.383 11.5517 11.383 11.5517C11.383 11.5517 11.3815 11.4771 11.3123 11.4871C11.3354 11.4018 11.217 11.4072 11.217 11.4072C11.217 11.4072 11.2132 11.3111 11.0387 11.3303C11.4146 11.162 11.712 11.5947 11.712 11.5947" stroke="black" stroke-width="0.01218"/>
<path d="M11.8595 11.7327C11.8595 11.7327 11.9464 11.8304 11.9917 11.8311C12.0371 11.8319 12.0409 11.7358 12.0409 11.7358C12.0409 11.7358 12.0555 11.7773 12.0778 11.7666C12.0755 11.7958 12.1055 11.8035 12.1055 11.8035C12.1055 11.8035 12.0271 11.9856 11.8042 11.8127" fill="#96877D"/>
<path d="M11.8595 11.7327C11.8595 11.7327 11.9464 11.8304 11.9917 11.8311C12.0371 11.8319 12.0409 11.7358 12.0409 11.7358C12.0409 11.7358 12.0555 11.7773 12.0778 11.7666C12.0755 11.7958 12.1055 11.8035 12.1055 11.8035C12.1055 11.8035 12.0271 11.9856 11.8042 11.8127" stroke="black" stroke-width="0.01218"/>
<path d="M11.1797 11.7699L11.1489 11.896C11.1489 11.896 11.1097 11.9314 11.1213 11.939C11.1328 11.9467 11.1951 11.9267 11.1951 11.9267C11.1951 11.9267 11.2919 11.9152 11.3211 11.8868C11.3411 11.9321 11.3857 11.936 11.3857 11.936C11.3857 11.936 11.3887 11.9167 11.3826 11.9052C11.4041 11.9091 11.4226 11.9021 11.4226 11.9021C11.4226 11.9021 11.4349 11.8668 11.4072 11.853C11.4103 11.8268 11.4233 11.8038 11.3765 11.8068C11.3419 11.8437 11.2565 11.886 11.235 11.8714C11.2135 11.8568 11.3196 11.8099 11.2904 11.7484" fill="#96877D"/>
<path d="M11.1797 11.7699L11.1489 11.896C11.1489 11.896 11.1097 11.9314 11.1213 11.939C11.1328 11.9467 11.1951 11.9267 11.1951 11.9267C11.1951 11.9267 11.2919 11.9152 11.3211 11.8868C11.3411 11.9321 11.3857 11.936 11.3857 11.936C11.3857 11.936 11.3887 11.9167 11.3826 11.9052C11.4041 11.9091 11.4226 11.9021 11.4226 11.9021C11.4226 11.9021 11.4349 11.8668 11.4072 11.853C11.4103 11.8268 11.4233 11.8038 11.3765 11.8068C11.3419 11.8437 11.2565 11.886 11.235 11.8714C11.2135 11.8568 11.3196 11.8099 11.2904 11.7484" stroke="black" stroke-width="0.01218"/>
<rect x="26" y="-4" width="24" height="49" fill="#EE5757"/>
</g>
<path d="M11.7035 1.61228C6.53056 2.04084 2.23921 5.77712 1.57724 11.0101C1.25164 13.5841 1 16.6548 1 20C1 23.3452 1.25164 26.4159 1.57724 28.9899C2.23922 34.2229 6.53056 37.9592 11.7035 38.3877C15.5784 38.7087 20.5852 39 26 39C31.4148 39 36.4216 38.7087 40.2965 38.3877C45.4694 37.9592 49.7608 34.2229 50.4228 28.9899C50.7484 26.4159 51 23.3452 51 20C51 16.6548 50.7484 13.5841 50.4228 11.0101C49.7608 5.77712 45.4694 2.04084 40.2965 1.61228C36.4216 1.29127 31.4148 1 26 1C20.5852 1 15.5784 1.29127 11.7035 1.61228Z" stroke="#E6E6FA" stroke-width="2"/>
</svg>
