<svg width="52" height="40" viewBox="0 0 52 40" fill="none" xmlns="http://www.w3.org/2000/svg">
<mask id="mask0_1_41790" style="mask-type:alpha" maskUnits="userSpaceOnUse" x="2" y="2" width="48" height="36">
<path d="M49.4307 28.8644C48.8332 33.5875 44.9585 36.9981 40.2139 37.3911C36.3588 37.7105 31.3804 38 26 38C20.6196 38 15.6412 37.7105 11.7861 37.3911C7.0415 36.9981 3.16681 33.5875 2.56934 28.8644C2.248 26.3241 2 23.296 2 20C2 16.704 2.248 13.6759 2.56934 11.1356C3.16682 6.41246 7.04151 3.00193 11.7861 2.60887C15.6412 2.28948 20.6196 2 26 2C31.3804 2 36.3588 2.28949 40.2139 2.60887C44.9585 3.00193 48.8332 6.41247 49.4307 11.1356C49.752 13.6759 50 16.704 50 20C50 23.296 49.752 26.3241 49.4307 28.8644Z" fill="#00D0BF"/>
</mask>
<g mask="url(#mask0_1_41790)">
<rect x="50" y="44" width="16" height="49" transform="rotate(-180 50 44)" fill="#EE5757"/>
<rect x="34" y="44" width="16" height="49" transform="rotate(-180 34 44)" fill="#3F6FEB"/>
<rect x="18" y="44" width="16" height="49" transform="rotate(-180 18 44)" fill="#EE5757"/>
<path d="M6 22.6369L7.81841 22.6369L7.81841 31.3652L6 31.3652L6 22.6369ZM12.1826 22.6369L14.001 22.6369L14.001 31.3652L12.1826 31.3652L12.1826 22.6369ZM8.18209 30.2742L10.0005 31.3652L11.8189 30.2742L8.18209 30.2742ZM8.18209 29.1832L11.8189 29.1832L11.8189 29.9105L8.18209 29.9105L8.18209 29.1832ZM8.18209 22.6369L10.0005 23.7279L11.8189 22.6369L8.18209 22.6369ZM8.18209 24.0916L11.8189 24.0916L11.8189 24.819L8.18209 24.819L8.18209 24.0916ZM10.8642 25.4028C10.9995 25.5867 11.0727 25.8089 11.073 26.0372C11.0733 26.6297 10.593 27.1103 10.0005 27.1104C9.77385 27.1105 9.55651 27.2005 9.39626 27.3607C9.23601 27.521 9.14596 27.7383 9.14594 27.965C9.14597 28.1916 9.23602 28.4089 9.39627 28.5692C9.55652 28.7294 9.77385 28.8194 10.0005 28.8195C11.0047 28.8195 11.8189 28.0053 11.8189 27.0011C11.8189 26.3335 11.4516 25.7199 10.8642 25.4028ZM10.0005 27.6013C10.0969 27.6013 10.1894 27.6396 10.2576 27.7078C10.3258 27.776 10.3642 27.8685 10.3642 27.965C10.3642 28.0614 10.3258 28.1539 10.2576 28.2221C10.1894 28.2903 10.0969 28.3286 10.0005 28.3286C9.90402 28.3286 9.81152 28.2903 9.74332 28.2221C9.67511 28.1539 9.6368 28.0614 9.6368 27.965C9.6368 27.8685 9.67511 27.776 9.74332 27.7078C9.81152 27.6396 9.90402 27.6013 10.0005 27.6013Z" fill="#FCD95E"/>
<path d="M9.13677 28.5993C9.00147 28.4155 8.92832 28.1932 8.92794 27.965C8.92767 27.3724 9.40796 26.8919 10.0005 26.8917C10.2271 26.8917 10.4445 26.8016 10.6047 26.6414C10.765 26.4811 10.855 26.2638 10.8551 26.0372C10.855 25.8105 10.765 25.5932 10.6047 25.433C10.4445 25.2727 10.2271 25.1827 10.0005 25.1827C8.99628 25.1827 8.1821 25.9968 8.1821 27.0011C8.1821 27.6686 8.54935 28.2822 9.13677 28.5993ZM10.0005 26.4009C9.90406 26.4009 9.81155 26.3625 9.74335 26.2943C9.67514 26.2261 9.63683 26.1336 9.63683 26.0372C9.63683 25.9407 9.67514 25.8482 9.74335 25.78C9.81155 25.7118 9.90406 25.6735 10.0005 25.6735C10.097 25.6735 10.1895 25.7118 10.2577 25.78C10.3259 25.8482 10.3642 25.9407 10.3642 26.0372C10.3642 26.1336 10.3259 26.2261 10.2577 26.2943C10.1895 26.3625 10.097 26.4009 10.0005 26.4009ZM8.00388 20.2331C8.00254 20.2464 8.00132 20.2597 8.00024 20.273C8.00024 20.8035 8.21098 21.3122 8.5861 21.6874C8.96122 22.0625 9.46999 22.2732 10.0005 22.2732C10.531 22.2732 11.0398 22.0625 11.4149 21.6874C11.79 21.3122 12.0007 20.8035 12.0007 20.273C12.0009 20.2608 12.0009 20.2487 12.0007 20.2366C11.831 20.6255 11.5514 20.9565 11.1964 21.189C10.8414 21.4216 10.4263 21.5455 10.0019 21.5457C9.57725 21.5451 9.16201 21.4205 8.80709 21.1874C8.45218 20.9542 8.17301 20.6225 8.00381 20.233L8.00388 20.2331Z" fill="#FCD95E"/>
<path d="M10.002 21.1821C10.8054 21.1821 11.4567 20.5308 11.4567 19.7274C11.4567 18.924 10.8054 18.2727 10.002 18.2727C9.19854 18.2727 8.54724 18.924 8.54724 19.7274C8.54724 20.5308 9.19854 21.1821 10.002 21.1821Z" fill="#FCD95E"/>
<path d="M10.1533 15C9.97259 15.082 9.90506 15.2299 9.89051 15.3772C9.88142 15.5012 9.93615 15.6409 9.94161 15.7622C9.94161 15.9709 9.72565 16.0396 9.72565 16.3375C9.72565 16.4399 9.82021 16.5527 9.82021 16.8184C9.80384 16.9579 9.72602 16.9894 9.63837 17.0003C9.59014 17.0003 9.54389 16.9811 9.50979 16.947C9.47569 16.9129 9.45653 16.8666 9.45653 16.8184C9.45666 16.7718 9.47469 16.727 9.5069 16.6933C9.51264 16.6868 9.51884 16.6807 9.52545 16.6751C9.5669 16.6333 9.62382 16.6171 9.62346 16.5067C9.62346 16.45 9.58673 16.3984 9.55163 16.2979C9.51853 16.2005 9.54254 16.0375 9.62128 15.9413C9.49399 15.9904 9.41554 16.1124 9.37554 16.2219C9.33335 16.3565 9.37008 16.434 9.31226 16.5458C9.27698 16.6182 9.23497 16.6482 9.19515 16.7086C9.14805 16.7744 9.09277 16.9283 9.09277 16.9998C9.09277 17.1192 9.11629 17.2374 9.16198 17.3477C9.20767 17.458 9.27465 17.5583 9.35907 17.6427C9.4435 17.7271 9.54373 17.7941 9.65404 17.8398C9.76435 17.8855 9.88258 17.909 10.002 17.909C10.2431 17.909 10.4744 17.8132 10.6449 17.6427C10.8154 17.4722 10.9112 17.2409 10.9112 16.9998C10.9112 16.9283 10.8566 16.7744 10.8095 16.7086C10.7697 16.6482 10.727 16.6182 10.6917 16.5458C10.6346 16.434 10.6713 16.3565 10.6291 16.2219C10.5891 16.1124 10.5106 15.9905 10.3834 15.9413C10.4621 16.0375 10.4861 16.2005 10.453 16.2979C10.4177 16.3983 10.3806 16.4499 10.3806 16.5067C10.3806 16.6171 10.4372 16.6333 10.4787 16.6751C10.4853 16.6807 10.4915 16.6868 10.4972 16.6933C10.5294 16.727 10.5474 16.7718 10.5476 16.8184C10.5476 16.8666 10.5284 16.9129 10.4943 16.947C10.4602 16.9811 10.414 17.0003 10.3657 17.0003C10.2652 16.9875 10.193 16.9406 10.1839 16.8184C10.1839 16.4683 10.3337 16.446 10.3337 16.187C10.3337 15.8171 10.002 15.6419 10.002 15.3715C10.002 15.2799 10.0235 15.1237 10.1533 15L10.1533 15Z" fill="#FCD95E"/>
</g>
<path d="M40.2965 38.3877C45.4694 37.9592 49.7608 34.2229 50.4228 28.9899C50.7484 26.4159 51 23.3452 51 20C51 16.6548 50.7484 13.5841 50.4228 11.0101C49.7608 5.77712 45.4694 2.04083 40.2965 1.61228C36.4216 1.29126 31.4148 0.999999 26 0.999998C20.5852 0.999998 15.5784 1.29126 11.7035 1.61228C6.53056 2.04083 2.23922 5.77712 1.57725 11.0101C1.25164 13.5841 1 16.6548 1 20C1 23.3452 1.25164 26.4159 1.57724 28.9899C2.23922 34.2229 6.53056 37.9592 11.7035 38.3877C15.5784 38.7087 20.5852 39 26 39C31.4148 39 36.4216 38.7087 40.2965 38.3877Z" stroke="#E6E6FA" stroke-width="2"/>
</svg>
