<svg width="52" height="40" viewBox="0 0 52 40" fill="none" xmlns="http://www.w3.org/2000/svg">
<mask id="mask0_1_40039" style="mask-type:alpha" maskUnits="userSpaceOnUse" x="2" y="2" width="48" height="36">
<path d="M2.56934 11.1356C3.16681 6.41247 7.0415 3.00193 11.7861 2.60887C15.6412 2.28949 20.6196 2 26 2C31.3804 2 36.3588 2.28949 40.2139 2.60887C44.9585 3.00193 48.8332 6.41247 49.4307 11.1356C49.752 13.6759 50 16.704 50 20C50 23.296 49.752 26.3241 49.4307 28.8644C48.8332 33.5875 44.9585 36.9981 40.2139 37.3911C36.3588 37.7105 31.3804 38 26 38C20.6196 38 15.6412 37.7105 11.7861 37.3911C7.0415 36.9981 3.16681 33.5875 2.56934 28.8644C2.248 26.3241 2 23.296 2 20C2 16.704 2.248 13.6759 2.56934 11.1356Z" fill="#00D0BF"/>
</mask>
<g mask="url(#mask0_1_40039)">
<rect x="2" y="2" width="48" height="12" fill="#1C6864"/>
<rect x="2" y="26" width="48" height="12" fill="#FCD95E"/>
<rect x="1" y="14" width="50" height="12" fill="#2C2929" stroke="white" stroke-width="2"/>
<path d="M27 20L1 2V38L27 20Z" fill="#EE5757"/>
<path d="M14.3728 24.9711L10.8435 22.3871L7.31905 24.9718L8.68592 20.8168L5.13862 18.2636L9.51266 18.2796L10.8448 14.1169L12.1812 18.2818L16.5518 18.2624L13.0037 20.8204L14.3728 24.9711Z" fill="#FCD95E"/>
<path fill-rule="evenodd" clip-rule="evenodd" d="M7.7804 22.0737H10.3228C10.5274 22.3032 10.9838 22.3968 11.4185 22.0709C12.2154 21.6346 13.757 22.0737 13.757 22.0737L14.0606 21.7512L13.3206 19.3226L13.055 19.038C13.055 19.038 12.4858 18.6965 11.4043 18.8103C10.3228 18.9241 9.94334 18.7724 9.94334 18.7724C9.94334 18.7724 8.99469 18.8862 8.72906 19.019C8.69986 19.0426 8.42549 19.3226 8.42549 19.3226L7.7804 22.0737Z" fill="white" stroke="#2C2929" stroke-width="0.0759677" stroke-linecap="round" stroke-linejoin="round"/>
<path d="M8.29266 21.4475C8.29266 21.4475 10.7212 21.144 11.4233 22.0736C11.0268 22.3449 10.6777 22.3673 10.3038 22.0927C10.3634 21.9934 11.1766 21.144 13.2447 21.4286" stroke="#2C2929" stroke-width="0.0759677" stroke-linecap="round" stroke-linejoin="round"/>
<path d="M10.892 19.019L10.8731 21.6943L10.892 19.019ZM13.055 19.0569L13.5104 21.1819L13.055 19.0569ZM8.75412 19.0236L8.5014 20.1194L8.75412 19.0236Z" fill="#2C2929"/>
<path d="M8.75412 19.0236L8.5014 20.1194M10.892 19.019L10.8731 21.6943L10.892 19.019ZM13.055 19.0569L13.5104 21.1819L13.055 19.0569Z" stroke="#2C2929" stroke-width="0.0759677" stroke-linecap="round" stroke-linejoin="round"/>
<path fill-rule="evenodd" clip-rule="evenodd" d="M6.12915 22.365L6.72706 23.066C6.79727 23.1079 6.85964 23.1052 6.922 23.066L7.80812 22.0027L8.18029 21.5419C8.23792 21.4736 8.25631 21.3975 8.25118 21.3292L8.96268 20.697C9.02089 20.701 9.05555 20.7076 9.11376 20.7115C9.04499 20.6937 8.99454 20.6602 9.04868 20.5849L9.20817 20.4608L9.33221 20.6203C9.33221 20.6203 9.15502 20.8507 9.13729 20.8507C9.11957 20.8507 8.94235 20.8507 8.94235 20.8507L8.57018 21.1875L8.73287 21.3313L8.97779 22.0027L9.27909 21.79L9.08412 21.0989L9.50949 20.6381L9.34995 20.3899L9.45631 20.2481C9.45631 20.2481 10.9284 21.1749 11.4955 20.9269C11.5108 20.9324 11.5298 20.2659 11.5298 20.2659C11.5298 20.2659 10.0057 20.1064 9.97022 19.8051C9.93478 19.5038 10.307 19.4684 10.307 19.4684L10.1474 19.238L10.1829 19.1139L10.4488 19.4507L11.0513 18.9367L14.5957 22.9774C14.7892 22.8989 14.8306 22.8516 14.8439 22.6584C14.8389 22.6535 11.3703 18.6709 11.3703 18.6709L11.6362 18.3874C11.6885 18.3283 11.707 18.3032 11.707 18.2101L12.1146 17.8557C12.2372 17.8978 12.3154 17.9712 12.3805 18.0683L13.5011 17.1186C13.5306 17.1481 13.6203 17.1777 13.6812 17.1444L15.5339 15.3661L13.5147 16.7923L13.4438 16.7391C13.4438 16.6801 13.5171 16.6655 13.4438 16.5619C13.3654 16.4678 13.2489 16.6505 13.2312 16.6505C13.2134 16.6505 12.9389 16.5535 12.8787 16.4306L12.859 16.7569L12.345 17.2354L11.9552 17.2177L11.388 17.767L11.3172 17.9797L11.4058 18.157C11.4058 18.157 11.1044 18.4228 11.1044 18.405C11.1044 18.3874 11.0435 18.3267 11.0409 18.3189L11.2994 18.086L11.3348 17.9265L11.2486 17.7919C11.2225 17.8109 10.8918 18.157 10.874 18.1215C10.8445 18.0884 9.9171 17.0404 9.9171 17.0404L9.97022 16.8455L9.3677 16.1898C9.14803 16.1139 8.80057 16.1011 8.72968 16.5796C8.67448 16.692 8.21573 16.5974 8.21573 16.5974L7.96762 16.6505L6.56756 18.6354L7.34734 19.5747L8.94235 17.5544L8.9897 16.982L9.32437 17.3562C9.43595 17.3706 9.54224 17.3718 9.64337 17.3208L10.5883 18.3756L10.431 18.5291C10.4842 18.5882 10.5208 18.6259 10.5739 18.685C10.6271 18.6495 10.6779 18.607 10.731 18.5715C10.7488 18.5952 10.7783 18.6401 10.7961 18.6638C10.7169 18.7068 10.6613 18.7642 10.5821 18.8073C10.4554 18.7247 10.3331 18.6219 10.3424 18.4582L9.81074 18.9013L9.793 18.9899L8.21573 20.3013L8.07395 20.3191L8.03851 20.7267L9.0664 19.876V19.7519L9.17274 19.8405L9.97022 19.2026C9.97022 19.2026 10.0234 19.2734 10.0057 19.2734C9.98796 19.2734 9.29678 19.9115 9.29678 19.9115L9.27909 19.9823L9.15502 20.0887L9.08412 20.0355L8.12712 20.8861H7.98534L7.45367 21.4179C7.31654 21.4298 7.19772 21.4443 7.08151 21.5242L6.12915 22.365Z" fill="#2C2929" stroke="#2C2929" stroke-width="0.0759677" stroke-linecap="round" stroke-linejoin="round"/>
</g>
<path d="M11.7035 1.61228C6.53056 2.04084 2.23921 5.77712 1.57724 11.0101C1.25164 13.5841 1 16.6548 1 20C1 23.3452 1.25164 26.4159 1.57724 28.9899C2.23922 34.2229 6.53056 37.9592 11.7035 38.3877C15.5784 38.7087 20.5852 39 26 39C31.4148 39 36.4216 38.7087 40.2965 38.3877C45.4694 37.9592 49.7608 34.2229 50.4228 28.9899C50.7484 26.4159 51 23.3452 51 20C51 16.6548 50.7484 13.5841 50.4228 11.0101C49.7608 5.77712 45.4694 2.04084 40.2965 1.61228C36.4216 1.29127 31.4148 1 26 1C20.5852 1 15.5784 1.29127 11.7035 1.61228Z" stroke="#E6E6FA" stroke-width="2"/>
</svg>
