<svg width="52" height="40" viewBox="0 0 52 40" fill="none" xmlns="http://www.w3.org/2000/svg">
<mask id="mask0_1_39933" style="mask-type:alpha" maskUnits="userSpaceOnUse" x="2" y="2" width="48" height="36">
<path d="M2.56934 11.1356C3.16681 6.41247 7.0415 3.00193 11.7861 2.60887C15.6412 2.28949 20.6196 2 26 2C31.3804 2 36.3588 2.28949 40.2139 2.60887C44.9585 3.00193 48.8332 6.41247 49.4307 11.1356C49.752 13.6759 50 16.704 50 20C50 23.296 49.752 26.3241 49.4307 28.8644C48.8332 33.5875 44.9585 36.9981 40.2139 37.3911C36.3588 37.7105 31.3804 38 26 38C20.6196 38 15.6412 37.7105 11.7861 37.3911C7.0415 36.9981 3.16681 33.5875 2.56934 28.8644C2.248 26.3241 2 23.296 2 20C2 16.704 2.248 13.6759 2.56934 11.1356Z" fill="#00D0BF"/>
</mask>
<g mask="url(#mask0_1_39933)">
<rect x="2" y="2" width="48" height="36" fill="#2E50A6"/>
<path d="M33.0133 13H44.514L44.5003 21.1835C44.596 24.4733 42.5455 26.5147 38.7727 27.4351C36.0939 26.7698 33.0046 25.3937 33 21.2769L33.0137 13H33.0133Z" fill="white"/>
<path d="M33.2679 13.2467H44.2588L44.2457 21.0885C44.3371 24.2408 42.3776 26.1969 38.772 27.0789C36.2117 26.4415 33.2593 25.1228 33.2549 21.1779L33.268 13.2467H33.2679Z" fill="#00A2BD" stroke="black" stroke-width="0.0811471"/>
<path d="M44.1735 22.0174C43.7736 25.0264 41.4562 26.3412 38.7717 27.039C36.3955 26.4015 33.8391 25.3839 33.3435 22.0325L44.1736 22.0174L44.1735 22.0174Z" fill="#A53D08"/>
<path d="M38.3365 14.7075L38.3212 13.7191L39.1027 13.7268L39.1103 14.7075H41.2478L41.2555 15.4736L39.1103 15.4813L39.0932 24.5167L38.3309 24.5215L38.3212 15.4736L36.1909 15.4813L36.1913 14.6998L38.3365 14.7075Z" fill="black"/>
<path fill-rule="evenodd" clip-rule="evenodd" d="M36.6061 22.3902L38.5627 24.4201C39.2393 23.6764 38.77 20.8968 37.8801 20.3848C37.7734 20.714 37.592 21.1086 37.3992 21.2359C36.975 21.5249 35.9356 21.8629 36.283 22.0793C36.3622 21.9696 36.5695 21.866 36.667 22.1099C36.7828 22.4939 36.2342 22.5183 36.2342 22.5183C36.2342 22.5183 35.8868 22.4755 35.8258 22.122C35.7649 21.7685 36.3434 21.4457 36.3927 21.4211C36.4415 21.4028 37.1973 21.2016 37.3253 20.5311C37.4838 19.8728 37.6484 19.9703 37.6789 19.9581C38.6663 20.0556 39.3124 21.8234 39.349 23.0668C39.3856 24.3103 38.8431 25.1332 38.7456 25.188C38.6481 25.2429 36.3927 22.5122 36.3927 22.5122L36.6061 22.3902L36.6061 22.3902Z" fill="#FF9A08" stroke="black" stroke-width="0.0433202"/>
<path d="M38.0324 20.5006L38.0446 24.164L38.0324 20.5006Z" fill="#FF9A08"/>
<path d="M38.0324 20.5006L38.0446 24.164" stroke="black" stroke-width="0.0433202"/>
<path d="M37.813 20.5677C37.813 20.5738 37.8251 23.8959 37.8251 23.8959L37.813 20.5677Z" fill="#FF9A08"/>
<path d="M37.813 20.5677C37.813 20.5738 37.8251 23.8959 37.8251 23.8959" stroke="black" stroke-width="0.0433202"/>
<path d="M37.5753 21.0492L37.5874 23.6947L37.5753 21.0492Z" fill="#FF9A08"/>
<path d="M37.5753 21.0492L37.5874 23.6947" stroke="black" stroke-width="0.0433202"/>
<path d="M37.3802 21.2382L37.3924 23.4265L37.3802 21.2382Z" fill="#FF9A08"/>
<path d="M37.3802 21.2382L37.3924 23.4265" stroke="black" stroke-width="0.0433202"/>
<path d="M37.173 21.3357V23.1827V21.3357Z" fill="#FF9A08"/>
<path d="M37.173 21.3357V23.1827" stroke="black" stroke-width="0.0433202"/>
<path d="M36.9474 21.4821V22.9449V21.4821Z" fill="#FF9A08"/>
<path d="M36.9474 21.4821V22.9449" stroke="black" stroke-width="0.0433202"/>
<path d="M36.7524 21.5979V22.7194V21.5979Z" fill="#FF9A08"/>
<path d="M36.7524 21.5979V22.7194" stroke="black" stroke-width="0.0433202"/>
<path d="M36.5756 22.6218L38.5932 24.932" stroke="#FFDF00" stroke-width="0.0433202" stroke-linecap="round"/>
<path d="M38.6907 21.1651C38.6907 21.1651 39.6051 23.1644 38.7577 24.8102" stroke="#FFDF00" stroke-width="0.0811471" stroke-linecap="round"/>
<path d="M36.3378 22.2013C36.3378 22.2013 36.4049 22.0245 36.4902 22.0977" stroke="#FFDF00" stroke-width="0.0811471" stroke-linecap="round"/>
<path d="M36.1794 21.6893C36.1794 21.6893 35.8137 22.0123 36.0148 22.2196" stroke="#FFDF00" stroke-width="0.0811471" stroke-linecap="round"/>
<path d="M39.1161 16.6048C39.2516 16.4887 39.3218 16.4176 39.4057 16.4306C39.4896 16.4435 39.6038 16.437 39.6877 16.4112C39.7718 16.3853 40.1881 16.3337 40.3592 16.3918C40.4173 16.3983 40.4947 16.4306 40.614 16.5306C40.7336 16.6306 40.9078 16.805 40.8497 17.2891C40.7917 17.7732 40.8106 17.9803 40.7851 18.2509C40.7401 18.7286 40.6341 19.122 40.4431 19.0901C40.7013 19.542 40.7271 19.9293 40.8948 20.2392C41.0628 20.549 41.166 21.1816 41.1014 21.8659C41.0371 22.5502 40.8563 24.0865 41.3983 25.1194C41.308 25.1839 41.0886 25.1194 40.8948 24.9128C40.7013 24.7062 40.6163 24.713 40.4559 24.8353C39.9654 25.2097 39.506 25.661 38.8294 25.2097C38.6744 25.1064 38.6253 24.9826 38.739 24.6675C39.0229 23.88 39.1609 22.7994 39.1161 22.2919V16.6048V16.6048Z" fill="#008021" stroke="black" stroke-width="0.0178501"/>
<path d="M39.5814 16.1207C39.6169 16.2304 39.6361 16.3724 39.578 16.5015C39.5199 16.6306 39.5072 16.7856 39.6038 16.9728C39.7588 16.7533 39.9784 16.7985 40.1074 16.6694C40.2366 16.5403 40.2624 16.4176 40.3593 16.3918C40.2624 16.3079 40.1139 16.2175 40.1462 15.9722C40.1785 15.7269 40.5205 15.5268 40.2108 15.1524C40.0107 14.9107 39.72 14.9781 39.5942 15.0717C39.535 15.1157 39.4845 15.1782 39.4653 15.2201C39.4457 15.2621 39.4701 15.3576 39.423 15.4138C39.391 15.4525 39.3519 15.491 39.3069 15.5235C39.278 15.5445 39.2598 15.5751 39.2907 15.6107C39.3032 15.6249 39.3258 15.628 39.3508 15.6366C39.3363 15.6657 39.3199 15.6946 39.3037 15.7156C39.2884 15.7353 39.295 15.7541 39.3134 15.7701C39.289 15.8476 39.336 15.856 39.3037 15.9141C39.2757 15.9644 39.2377 16.0238 39.3426 16.0819C39.3715 16.0981 39.5089 16.1299 39.5814 16.1207V16.1207Z" fill="#FFE1CF" stroke="black" stroke-width="0.0178501"/>
<path d="M38.3258 17.4053C38.145 17.4505 37.8546 17.3731 37.635 17.3988C37.5381 17.4103 37.4607 17.3601 37.4737 17.2633C37.4865 17.1665 37.4995 17.018 37.48 16.8824C37.4499 16.6712 37.5511 16.3789 37.6931 16.0561C37.835 15.7334 37.9061 15.5527 37.9061 15.4009C37.9061 15.3009 37.9158 15.1879 38.0062 15.1298C38.073 15.0869 38.0858 15.0452 38.1096 15.0104C38.1643 14.9297 38.2159 14.9104 38.2224 14.9588C38.2263 14.9876 38.2159 15.0136 38.1901 15.0524C38.2482 15.004 38.3468 14.9474 38.3692 14.9313C38.3918 14.9152 38.5066 14.8345 38.5128 14.9104C38.5582 14.8878 38.5888 14.8894 38.6001 14.9136C38.6123 14.9397 38.6049 14.9507 38.5823 14.9701C38.6146 14.9636 38.6517 15.0201 38.5871 15.0701C38.6211 15.0588 38.6548 15.1153 38.5953 15.1669C38.5335 15.2202 38.463 15.2573 38.4403 15.2993C38.4176 15.3412 38.2643 15.4591 38.2031 15.4849C38.1416 15.5107 38.1385 15.5461 38.1385 15.6366C38.1385 16.6307 38.0192 16.5499 38.0192 16.7888C38.0192 16.8534 38.0062 16.9115 38.0708 16.8921C38.1354 16.8727 38.2289 16.8437 38.3258 16.8437V17.4053V17.4053Z" fill="#FFE1CF" stroke="black" stroke-width="0.0178501"/>
<path d="M38.3644 19.5484C38.6562 19.4025 38.9906 19.3483 39.1649 19.3031C39.3392 19.2579 39.6168 19.1224 39.7523 19.0514C39.888 18.9804 39.9977 18.8835 40.075 18.8577C40.1527 18.8319 40.2394 18.7785 40.2881 18.6834C40.5398 18.1928 40.6755 17.7991 40.6755 17.4569C40.6755 17.231 40.6174 16.9792 40.3978 17.16C40.1915 17.3299 39.9668 17.6574 39.9073 17.8959C39.8169 18.2574 39.7395 18.3349 39.72 18.4058C39.7007 18.4769 39.6276 18.4768 39.5392 18.4962C39.1584 18.5802 39.068 18.6382 38.784 18.8513C38.5001 19.0643 38.1901 19.2515 37.9835 19.3677C37.777 19.4839 37.7384 19.4968 37.6931 19.5904C37.648 19.684 37.6061 19.755 37.5673 19.797C37.5284 19.8389 37.5174 19.888 37.5253 19.939C37.5318 19.9809 37.5123 20.1746 37.5092 20.2391C37.5058 20.3037 37.5219 20.3199 37.548 20.3231C37.5738 20.3263 37.6092 20.3134 37.6222 20.2359C37.6092 20.3134 37.7158 20.2875 37.7223 20.2295C37.7189 20.3134 37.8319 20.265 37.8385 20.1875C37.8385 20.2424 37.924 20.2044 37.932 20.1778C37.9512 20.1133 37.9674 20.0423 37.9932 19.9906C38.0309 19.9157 38.0711 19.8186 38.1451 19.7647C38.2289 19.7034 38.1901 19.6356 38.3644 19.5484V19.5484Z" fill="#FFE1CF" stroke="black" stroke-width="0.0178501"/>
<path d="M40.4559 24.8354C40.4754 24.9064 40.5108 24.9871 40.5236 25.0355C40.5366 25.0839 40.514 25.099 40.5012 25.1259C40.4335 25.2679 40.3607 25.4943 40.3493 25.6165C40.3431 25.6875 40.2946 25.7553 40.272 25.7972C40.247 25.8435 40.2567 25.8792 40.3139 25.9231C40.3414 25.9441 40.4301 25.9166 40.4397 25.8715C40.472 25.9037 40.5301 25.8908 40.5559 25.8424C40.5851 25.8715 40.6335 25.8521 40.6658 25.8037C40.6947 25.823 40.7367 25.7843 40.7528 25.7585C40.7982 25.7811 40.8466 25.7536 40.848 25.6649C40.8483 25.6471 40.8594 25.6165 40.8724 25.5955C40.8852 25.5745 40.89 25.5342 40.8886 25.4986C40.8869 25.4631 40.9095 25.3922 40.9401 25.3421C40.9707 25.2921 41.024 25.2033 41.0013 25.1194C40.9804 25.0412 40.9467 25.0484 40.9175 24.9355C40.8466 24.8612 40.7497 24.7579 40.6497 24.7514C40.5497 24.745 40.4916 24.8128 40.4559 24.8354Z" fill="#FFE1CF" stroke="black" stroke-width="0.0178501"/>
<path d="M38.6194 25.3905C38.7098 25.4809 38.9132 25.4841 39.0552 25.3324C39.0036 25.3098 38.8906 25.2582 38.839 25.2162C38.7679 25.2872 38.6871 25.3679 38.6194 25.3905Z" fill="#FFE1CF" stroke="black" stroke-width="0.0178501"/>
<path d="M39.533 15.1266C39.5684 14.8974 39.7307 14.9029 39.833 14.9265C39.875 14.9362 39.9784 14.9458 40.075 14.92C40.2666 14.869 40.4108 14.9362 40.3916 15.1202C40.4431 15.1589 40.4978 15.2492 40.4882 15.3267C40.4785 15.4042 40.4947 15.4365 40.5658 15.4461C40.6367 15.4558 40.7886 15.543 40.6882 15.6656C40.7852 15.7237 40.8594 15.8722 40.8078 15.9722C40.7562 16.0723 40.6012 16.0885 40.5366 15.9981C40.4658 16.0303 40.3493 16.0368 40.2785 15.9626C40.23 16.0206 40.1073 16.0142 40.0847 15.9626C40.0623 15.9109 40.024 15.8833 39.9784 15.869C39.9266 15.8528 39.9234 15.7108 40.0008 15.6947C39.9912 15.6527 39.9946 15.6043 40.0138 15.5817C40.0331 15.5591 40.0169 15.5172 39.9719 15.4816C39.9266 15.4461 39.888 15.3106 39.9331 15.2363C39.8557 15.2622 39.6846 15.1879 39.6491 15.1363C39.6134 15.0846 39.5653 15.0814 39.533 15.1266Z" fill="#870F00" stroke="black" stroke-width="0.0178501"/>
<path d="M39.5814 16.1207C39.7072 16.1045 39.7492 16.0271 39.8427 16.0335" stroke="black" stroke-width="0.0178501"/>
<path d="M39.3134 15.7701C39.3216 15.7774 39.3321 15.7833 39.344 15.7898C39.3695 15.8036 39.3972 15.8052 39.423 15.8084" stroke="black" stroke-width="0.0178501"/>
<path d="M39.3508 15.6366C39.3683 15.6426 39.387 15.6515 39.4038 15.6688" stroke="black" stroke-width="0.0178501"/>
<path d="M39.6426 15.1266C39.5684 15.0556 39.7684 14.9103 39.9784 15.1169C40.0175 15.1554 40.117 15.1556 40.1462 15.1459" stroke="black" stroke-width="0.0178501"/>
<path d="M39.9331 15.2363C40.03 15.2137 40.1751 15.2137 40.217 15.3234C40.2593 15.4332 40.3431 15.3622 40.4109 15.4913C40.4786 15.6204 40.5851 15.7656 40.6883 15.6656" stroke="black" stroke-width="0.0178501"/>
<path d="M40.2785 15.9625C40.2493 15.9238 40.2365 15.8398 40.2558 15.7817C40.217 15.7366 40.2331 15.643 40.2558 15.5978" stroke="black" stroke-width="0.0178501"/>
<path d="M40.0008 15.6946C40.0042 15.7333 40.0558 15.8043 40.1365 15.8172" stroke="black" stroke-width="0.0178501"/>
<path d="M40.5366 15.998C40.4916 15.94 40.4978 15.8883 40.5077 15.8173" stroke="black" stroke-width="0.0178501"/>
<path d="M40.0654 15.3557C40.0623 15.4138 40.0977 15.4913 40.1589 15.5171C40.172 15.5494 40.2366 15.6398 40.3655 15.6269" stroke="black" stroke-width="0.0178501"/>
<path d="M40.3916 15.1201C40.3207 15.0652 40.2247 14.9974 40.0977 14.9807" stroke="black" stroke-width="0.0178501"/>
<path d="M39.6038 16.9727C39.4941 17.1212 39.423 17.3277 39.4749 17.6183C39.5264 17.9088 39.6103 18.3348 39.3972 18.5284" stroke="black" stroke-width="0.0178501"/>
<path d="M40.4431 19.0901C40.2946 19.0578 40.0815 19.0578 39.9654 19.1417C39.8492 19.2256 39.6554 19.2321 39.5264 19.1675" stroke="black" stroke-width="0.0178501"/>
<path d="M40.13 19.0804C40.0008 19.103 39.9396 19.1933 39.9396 19.4322C39.9396 19.671 39.888 20.0196 39.9331 20.3617" stroke="black" stroke-width="0.0178501"/>
<path d="M39.8943 19.1805C39.8104 19.2031 39.7234 19.2063 39.7396 19.4322" stroke="black" stroke-width="0.0178501"/>
<path d="M39.4587 19.4387C39.4619 19.2999 39.5103 19.1708 39.6007 19.1933" stroke="black" stroke-width="0.0178501"/>
<path d="M40.3882 19.4645C40.3947 19.1579 40.327 19.0708 40.2366 19.074C40.3593 19.0772 40.4429 19.0922 40.4947 19.5936C40.5335 19.968 40.6117 20.1006 40.7013 20.3941C40.9337 21.1558 40.8175 22.3307 40.9337 22.7438" stroke="black" stroke-width="0.0178501"/>
<path d="M40.2107 19.5549C40.4558 20.265 40.585 21.0525 40.1849 22.3177C40.4558 23.0665 40.727 23.6088 40.7786 23.9186" stroke="black" stroke-width="0.0178501"/>
<path d="M39.436 21.2332C39.4811 21.0719 39.3199 21.0525 39.4618 20.4844C39.5233 20.2384 39.5329 20.0907 39.4941 20.0132" stroke="black" stroke-width="0.0178501"/>
<path d="M39.4942 20.3489C39.4361 20.6007 39.6815 21.0719 39.5588 21.414" stroke="black" stroke-width="0.0178501"/>
<path d="M39.2552 21.4786C39.2552 21.698 39.3068 21.9821 39.2941 22.2016C39.281 22.421 39.3706 22.5227 39.4749 22.7309C39.8492 23.4797 40.1039 24.014 40.0685 24.7191C40.0623 24.8482 40.1073 25.1194 39.9719 25.1968" stroke="black" stroke-width="0.0178501"/>
<path d="M39.2649 25.3872C39.3037 25.3904 39.3457 25.3711 39.3941 25.2549C39.4426 25.1387 39.5976 24.4415 39.533 23.9638" stroke="black" stroke-width="0.0178501"/>
<path d="M39.6103 24.5061C39.6296 24.6545 39.6296 24.9579 39.533 25.1968" stroke="black" stroke-width="0.0178501"/>
<path d="M39.8557 24.0606C39.9138 24.377 39.9073 24.661 39.8622 24.8611" stroke="black" stroke-width="0.0178501"/>
<path d="M39.7265 24.8611C39.733 24.9902 39.7911 25.313 39.6942 25.3388" stroke="black" stroke-width="0.0178501"/>
<path d="M40.2108 23.3635C40.4493 23.7379 40.6367 24.661 40.8367 24.8546" stroke="black" stroke-width="0.0178501"/>
<path d="M40.4173 24.7062C40.4108 24.6029 40.4043 24.4609 40.3462 24.3963" stroke="black" stroke-width="0.0178501"/>
<path d="M37.8384 20.1875C37.8416 20.1165 37.8288 20.0487 37.9062 19.939" stroke="black" stroke-width="0.0178501"/>
<path d="M37.7222 20.2295C37.7319 19.9809 37.7285 19.9583 37.7996 19.8905" stroke="black" stroke-width="0.0178501"/>
<path d="M37.6222 20.2359C37.6254 20.0584 37.6027 19.997 37.6738 19.8841" stroke="black" stroke-width="0.0178501"/>
<path d="M38.5129 14.9103C38.4854 14.9281 38.3241 15.0507 38.2564 15.1024" stroke="black" stroke-width="0.0178501"/>
<path d="M38.5822 14.97C38.5516 14.9748 38.4629 15.0475 38.3048 15.1701" stroke="black" stroke-width="0.0178501"/>
<path d="M38.5871 15.0701C38.5372 15.0927 38.442 15.1847 38.3547 15.246" stroke="black" stroke-width="0.0178501"/>
<path d="M38.1901 15.0523C38.166 15.0701 38.1193 15.1217 38.0966 15.1395" stroke="black" stroke-width="0.0178501"/>
<path d="M40.4398 25.8714C40.4253 25.8553 40.4253 25.7988 40.4511 25.7359" stroke="black" stroke-width="0.0178501"/>
<path d="M40.5559 25.8423C40.5383 25.8246 40.5559 25.7471 40.5738 25.6971" stroke="black" stroke-width="0.0178501"/>
<path d="M40.6659 25.8036C40.6449 25.7939 40.6384 25.7487 40.669 25.6874" stroke="black" stroke-width="0.0178501"/>
<path d="M40.7529 25.7584C40.7384 25.7536 40.7319 25.7293 40.7577 25.6584" stroke="black" stroke-width="0.0178501"/>
<path d="M39.4828 15.3299C39.5296 15.3912 39.578 15.3847 39.5865 15.4242C39.595 15.4638 39.6013 15.4666 39.6103 15.4784C39.6194 15.4901 39.5882 15.4877 39.5729 15.4814C39.5579 15.4751 39.52 15.4757 39.4967 15.4761C39.4738 15.4764 39.4463 15.4493 39.4636 15.4461C39.4806 15.4429 39.4783 15.4375 39.4757 15.4255C39.4732 15.4135 39.4854 15.3945 39.4925 15.391C39.4998 15.3875 39.4947 15.3881 39.4882 15.372C39.4814 15.3559 39.4729 15.3167 39.4828 15.3299L39.4828 15.3299Z" fill="black"/>
<path d="M39.5112 15.2737C39.5636 15.2799 39.654 15.3082 39.703 15.3624C39.7415 15.4051 39.7101 15.3938 39.6905 15.3954C39.671 15.397 39.6327 15.3832 39.6135 15.3589C39.5945 15.3347 39.5375 15.304 39.5072 15.296C39.4888 15.2912 39.4715 15.269 39.5112 15.2737Z" fill="black"/>
<mask id="mask1_1_39933" style="mask-type:alpha" maskUnits="userSpaceOnUse" x="2" y="2" width="24" height="18">
<rect x="2" y="2" width="24" height="18" fill="#C4C4C4"/>
</mask>
<g mask="url(#mask1_1_39933)">
<path d="M2 2L26 20L2 2ZM26 2L2 20L26 2Z" fill="black"/>
<path d="M26 2L2 20M2 2L26 20L2 2Z" stroke="white" stroke-width="2.4"/>
<path d="M2 2L26 20L2 2ZM26 2L2 20L26 2Z" fill="black"/>
<path d="M26 2L2 20M2 2L26 20L2 2Z" stroke="#EE5757" stroke-width="1.6"/>
<path d="M14 2V23V2ZM2 11H30H2Z" fill="black"/>
<path d="M2 11H30M14 2V23V2Z" stroke="white" stroke-width="4"/>
<path d="M14 2V23V2ZM2 11H30H2Z" fill="black"/>
<path d="M2 11H30M14 2V23V2Z" stroke="#EE5757" stroke-width="2.4"/>
</g>
</g>
<path d="M11.7035 1.61228C6.53056 2.04084 2.23921 5.77712 1.57724 11.0101C1.25164 13.5841 1 16.6548 1 20C1 23.3452 1.25164 26.4159 1.57724 28.9899C2.23922 34.2229 6.53056 37.9592 11.7035 38.3877C15.5784 38.7087 20.5852 39 26 39C31.4148 39 36.4216 38.7087 40.2965 38.3877C45.4694 37.9592 49.7608 34.2229 50.4228 28.9899C50.7484 26.4159 51 23.3452 51 20C51 16.6548 50.7484 13.5841 50.4228 11.0101C49.7608 5.77712 45.4694 2.04084 40.2965 1.61228C36.4216 1.29127 31.4148 1 26 1C20.5852 1 15.5784 1.29127 11.7035 1.61228Z" stroke="#E6E6FA" stroke-width="2"/>
</svg>
