<svg width="52" height="40" viewBox="0 0 52 40" fill="none" xmlns="http://www.w3.org/2000/svg">
<mask id="mask0_1_39921" style="mask-type:alpha" maskUnits="userSpaceOnUse" x="2" y="2" width="48" height="36">
<path d="M2.56934 11.1356C3.16681 6.41247 7.0415 3.00193 11.7861 2.60887C15.6412 2.28949 20.6196 2 26 2C31.3804 2 36.3588 2.28949 40.2139 2.60887C44.9585 3.00193 48.8332 6.41247 49.4307 11.1356C49.752 13.6759 50 16.704 50 20C50 23.296 49.752 26.3241 49.4307 28.8644C48.8332 33.5875 44.9585 36.9981 40.2139 37.3911C36.3588 37.7105 31.3804 38 26 38C20.6196 38 15.6412 37.7105 11.7861 37.3911C7.0415 36.9981 3.16681 33.5875 2.56934 28.8644C2.248 26.3241 2 23.296 2 20C2 16.704 2.248 13.6759 2.56934 11.1356Z" fill="#00D0BF"/>
</mask>
<g mask="url(#mask0_1_39921)">
<rect x="2" y="-4" width="48" height="49" fill="#2E50A6"/>
<path d="M11.9906 5.20203C11.7012 5.33469 11.472 5.52766 11.472 5.62414C11.472 5.73268 11.6409 5.73268 11.4238 5.80504C11.2187 5.87741 10.664 5.97389 10.278 5.96183C10.1454 5.96183 9.83182 5.87741 9.74739 5.87741C9.65091 5.88947 10.1574 6.09449 9.96448 6.04625C9.69915 5.97389 9.54237 5.94977 9.74739 6.08243C9.90418 6.17891 10.2539 6.17891 10.7484 6.11861C10.9414 6.09449 11.4479 5.98595 11.6288 5.96183C11.7494 5.94977 11.7494 6.05831 11.8218 6.05831C12.473 6.09449 13.6308 6.07037 14.1373 5.99801C14.5594 5.93771 14.7162 5.96183 14.8368 6.10655C15.078 6.38394 14.8248 6.62514 14.1373 6.76987C13.2931 6.95077 12.9434 7.10755 12.6177 7.4573C11.8338 8.30152 12.7504 9.25428 14.463 9.38695C15.464 9.47137 16.1152 9.66433 15.9584 9.82112C15.8981 9.88142 15.2348 9.9779 14.475 10.0382C12.8228 10.1709 12.0871 10.4 11.46 11.003C11.1102 11.3407 10.9896 11.5457 10.9896 11.8231C10.9896 12.2091 10.9896 12.2091 10.3504 12.2091C10.0127 12.2091 9.54237 12.1608 9.32528 12.0885C8.9876 12.004 8.93936 12.004 9.05996 12.1488C9.30116 12.4382 9.9886 12.6915 10.5554 12.6915C10.9896 12.6915 11.2308 12.7759 11.6167 13.0533C12.3886 13.6201 13.269 13.8372 14.7283 13.8251C16.6459 13.8131 17.7434 13.3065 17.7434 12.4503C17.7434 11.8111 17.0197 11.4372 15.5122 11.3045C14.7524 11.2322 13.2569 11.3528 12.6057 11.5457C12.4851 11.5819 12.6177 11.4975 12.9072 11.3528C13.2569 11.1839 13.8358 11.0633 14.6197 10.991C16.3564 10.8462 17.1403 10.4603 17.1403 9.7367C17.1403 9.0372 16.3685 8.63921 14.7162 8.48243C13.0881 8.3377 12.9675 8.04826 14.3424 7.62615C15.3192 7.3367 15.8137 6.90253 15.8137 6.31158C15.8137 5.40705 15.3192 5.10555 13.667 5.02112C12.666 4.97288 12.4248 4.997 11.9906 5.20203ZM12.8589 5.4553C12.8228 5.5156 12.7263 5.5759 12.666 5.5759C12.5936 5.5759 12.5816 5.5156 12.6177 5.4553C12.6539 5.38293 12.7504 5.33469 12.8107 5.33469C12.8831 5.33469 12.8951 5.38293 12.8589 5.4553ZM16.3444 12.2091C16.5735 12.2935 16.6579 12.3779 16.5856 12.4503C16.3806 12.6553 15.0539 12.8362 14.2459 12.7759C13.3534 12.6915 12.3886 12.402 12.678 12.2814C13.4861 11.9678 15.6087 11.9317 16.3444 12.2091Z" fill="white"/>
<path d="M36.9906 5.20203C36.7012 5.33469 36.472 5.52766 36.472 5.62414C36.472 5.73268 36.6409 5.73268 36.4238 5.80504C36.2187 5.87741 35.664 5.97389 35.278 5.96183C35.1454 5.96183 34.8318 5.87741 34.7474 5.87741C34.6509 5.88947 35.1574 6.09449 34.9645 6.04625C34.6992 5.97389 34.5424 5.94977 34.7474 6.08243C34.9042 6.17891 35.2539 6.17891 35.7484 6.11861C35.9414 6.09449 36.4479 5.98595 36.6288 5.96183C36.7494 5.94977 36.7494 6.05831 36.8218 6.05831C37.473 6.09449 38.6308 6.07037 39.1373 5.99801C39.5594 5.93771 39.7162 5.96183 39.8368 6.10655C40.078 6.38394 39.8248 6.62514 39.1373 6.76987C38.2931 6.95077 37.9434 7.10755 37.6177 7.4573C36.8338 8.30152 37.7504 9.25428 39.463 9.38695C40.464 9.47137 41.1152 9.66433 40.9584 9.82112C40.8981 9.88142 40.2348 9.9779 39.475 10.0382C37.8228 10.1709 37.0871 10.4 36.46 11.003C36.1102 11.3407 35.9896 11.5457 35.9896 11.8231C35.9896 12.2091 35.9896 12.2091 35.3504 12.2091C35.0127 12.2091 34.5424 12.1608 34.3253 12.0885C33.9876 12.004 33.9394 12.004 34.06 12.1488C34.3012 12.4382 34.9886 12.6915 35.5554 12.6915C35.9896 12.6915 36.2308 12.7759 36.6167 13.0533C37.3886 13.6201 38.269 13.8372 39.7283 13.8251C41.6459 13.8131 42.7434 13.3065 42.7434 12.4503C42.7434 11.8111 42.0197 11.4372 40.5122 11.3045C39.7524 11.2322 38.2569 11.3528 37.6057 11.5457C37.4851 11.5819 37.6177 11.4975 37.9072 11.3528C38.2569 11.1839 38.8358 11.0633 39.6197 10.991C41.3564 10.8462 42.1403 10.4603 42.1403 9.7367C42.1403 9.0372 41.3685 8.63921 39.7162 8.48243C38.0881 8.3377 37.9675 8.04826 39.3424 7.62615C40.3192 7.3367 40.8137 6.90253 40.8137 6.31158C40.8137 5.40705 40.3192 5.10555 38.667 5.02112C37.666 4.97288 37.4248 4.997 36.9906 5.20203ZM37.8589 5.4553C37.8228 5.5156 37.7263 5.5759 37.666 5.5759C37.5936 5.5759 37.5816 5.5156 37.6177 5.4553C37.6539 5.38293 37.7504 5.33469 37.8107 5.33469C37.8831 5.33469 37.8951 5.38293 37.8589 5.4553ZM41.3444 12.2091C41.5735 12.2935 41.6579 12.3779 41.5856 12.4503C41.3806 12.6553 40.0539 12.8362 39.2459 12.7759C38.3534 12.6915 37.3886 12.402 37.678 12.2814C38.4861 11.9678 40.6087 11.9317 41.3444 12.2091Z" fill="white"/>
<path d="M11.9906 26.202C11.7012 26.3347 11.472 26.5277 11.472 26.6241C11.472 26.7327 11.6409 26.7327 11.4238 26.805C11.2187 26.8774 10.664 26.9739 10.278 26.9618C10.1454 26.9618 9.83182 26.8774 9.74739 26.8774C9.65091 26.8895 10.1574 27.0945 9.96448 27.0462C9.69915 26.9739 9.54237 26.9498 9.74739 27.0824C9.90418 27.1789 10.2539 27.1789 10.7484 27.1186C10.9414 27.0945 11.4479 26.9859 11.6288 26.9618C11.7494 26.9498 11.7494 27.0583 11.8218 27.0583C12.473 27.0945 13.6308 27.0704 14.1373 26.998C14.5594 26.9377 14.7162 26.9618 14.8368 27.1066C15.078 27.3839 14.8248 27.6251 14.1373 27.7699C13.2931 27.9508 12.9434 28.1076 12.6177 28.4573C11.8338 29.3015 12.7504 30.2543 14.463 30.3869C15.464 30.4714 16.1152 30.6643 15.9584 30.8211C15.8981 30.8814 15.2348 30.9779 14.475 31.0382C12.8228 31.1709 12.0871 31.4 11.46 32.003C11.1102 32.3407 10.9896 32.5457 10.9896 32.8231C10.9896 33.2091 10.9896 33.2091 10.3504 33.2091C10.0127 33.2091 9.54237 33.1608 9.32528 33.0885C8.9876 33.004 8.93936 33.004 9.05996 33.1488C9.30116 33.4382 9.9886 33.6915 10.5554 33.6915C10.9896 33.6915 11.2308 33.7759 11.6167 34.0533C12.3886 34.6201 13.269 34.8372 14.7283 34.8251C16.6459 34.8131 17.7434 34.3065 17.7434 33.4503C17.7434 32.8111 17.0197 32.4372 15.5122 32.3045C14.7524 32.2322 13.2569 32.3528 12.6057 32.5457C12.4851 32.5819 12.6177 32.4975 12.9072 32.3528C13.2569 32.1839 13.8358 32.0633 14.6197 31.991C16.3564 31.8462 17.1403 31.4603 17.1403 30.7367C17.1403 30.0372 16.3685 29.6392 14.7162 29.4824C13.0881 29.3377 12.9675 29.0483 14.3424 28.6261C15.3192 28.3367 15.8137 27.9025 15.8137 27.3116C15.8137 26.4071 15.3192 26.1055 13.667 26.0211C12.666 25.9729 12.4248 25.997 11.9906 26.202ZM12.8589 26.4553C12.8228 26.5156 12.7263 26.5759 12.666 26.5759C12.5936 26.5759 12.5816 26.5156 12.6177 26.4553C12.6539 26.3829 12.7504 26.3347 12.8107 26.3347C12.8831 26.3347 12.8951 26.3829 12.8589 26.4553ZM16.3444 33.2091C16.5735 33.2935 16.6579 33.3779 16.5856 33.4503C16.3806 33.6553 15.0539 33.8362 14.2459 33.7759C13.3534 33.6915 12.3886 33.402 12.678 33.2814C13.4861 32.9678 15.6087 32.9317 16.3444 33.2091Z" fill="white"/>
<path d="M36.9906 26.202C36.7012 26.3347 36.472 26.5277 36.472 26.6241C36.472 26.7327 36.6409 26.7327 36.4238 26.805C36.2187 26.8774 35.664 26.9739 35.278 26.9618C35.1454 26.9618 34.8318 26.8774 34.7474 26.8774C34.6509 26.8895 35.1574 27.0945 34.9645 27.0462C34.6992 26.9739 34.5424 26.9498 34.7474 27.0824C34.9042 27.1789 35.2539 27.1789 35.7484 27.1186C35.9414 27.0945 36.4479 26.9859 36.6288 26.9618C36.7494 26.9498 36.7494 27.0583 36.8218 27.0583C37.473 27.0945 38.6308 27.0704 39.1373 26.998C39.5594 26.9377 39.7162 26.9618 39.8368 27.1066C40.078 27.3839 39.8248 27.6251 39.1373 27.7699C38.2931 27.9508 37.9434 28.1076 37.6177 28.4573C36.8338 29.3015 37.7504 30.2543 39.463 30.3869C40.464 30.4714 41.1152 30.6643 40.9584 30.8211C40.8981 30.8814 40.2348 30.9779 39.475 31.0382C37.8228 31.1709 37.0871 31.4 36.46 32.003C36.1102 32.3407 35.9896 32.5457 35.9896 32.8231C35.9896 33.2091 35.9896 33.2091 35.3504 33.2091C35.0127 33.2091 34.5424 33.1608 34.3253 33.0885C33.9876 33.004 33.9394 33.004 34.06 33.1488C34.3012 33.4382 34.9886 33.6915 35.5554 33.6915C35.9896 33.6915 36.2308 33.7759 36.6167 34.0533C37.3886 34.6201 38.269 34.8372 39.7283 34.8251C41.6459 34.8131 42.7434 34.3065 42.7434 33.4503C42.7434 32.8111 42.0197 32.4372 40.5122 32.3045C39.7524 32.2322 38.2569 32.3528 37.6057 32.5457C37.4851 32.5819 37.6177 32.4975 37.9072 32.3528C38.2569 32.1839 38.8358 32.0633 39.6197 31.991C41.3564 31.8462 42.1403 31.4603 42.1403 30.7367C42.1403 30.0372 41.3685 29.6392 39.7162 29.4824C38.0881 29.3377 37.9675 29.0483 39.3424 28.6261C40.3192 28.3367 40.8137 27.9025 40.8137 27.3116C40.8137 26.4071 40.3192 26.1055 38.667 26.0211C37.666 25.9729 37.4248 25.997 36.9906 26.202ZM37.8589 26.4553C37.8228 26.5156 37.7263 26.5759 37.666 26.5759C37.5936 26.5759 37.5816 26.5156 37.6177 26.4553C37.6539 26.3829 37.7504 26.3347 37.8107 26.3347C37.8831 26.3347 37.8951 26.3829 37.8589 26.4553ZM41.3444 33.2091C41.5735 33.2935 41.6579 33.3779 41.5856 33.4503C41.3806 33.6553 40.0539 33.8362 39.2459 33.7759C38.3534 33.6915 37.3886 33.402 37.678 33.2814C38.4861 32.9678 40.6087 32.9317 41.3444 33.2091Z" fill="white"/>
<path d="M26 1V39" stroke="white" stroke-width="6"/>
<path d="M51 20L1 20" stroke="white" stroke-width="6"/>
</g>
<path d="M11.7035 1.61228C6.53056 2.04084 2.23921 5.77712 1.57724 11.0101C1.25164 13.5841 1 16.6548 1 20C1 23.3452 1.25164 26.4159 1.57724 28.9899C2.23922 34.2229 6.53056 37.9592 11.7035 38.3877C15.5784 38.7087 20.5852 39 26 39C31.4148 39 36.4216 38.7087 40.2965 38.3877C45.4694 37.9592 49.7608 34.2229 50.4228 28.9899C50.7484 26.4159 51 23.3452 51 20C51 16.6548 50.7484 13.5841 50.4228 11.0101C49.7608 5.77712 45.4694 2.04084 40.2965 1.61228C36.4216 1.29127 31.4148 1 26 1C20.5852 1 15.5784 1.29127 11.7035 1.61228Z" stroke="#E6E6FA" stroke-width="2"/>
</svg>
