<svg width="52" height="40" viewBox="0 0 52 40" fill="none" xmlns="http://www.w3.org/2000/svg">
<mask id="mask0_1_40450" style="mask-type:alpha" maskUnits="userSpaceOnUse" x="2" y="2" width="48" height="36">
<path d="M2.56934 11.1356C3.16681 6.41247 7.0415 3.00193 11.7861 2.60887C15.6412 2.28949 20.6196 2 26 2C31.3804 2 36.3588 2.28949 40.2139 2.60887C44.9585 3.00193 48.8332 6.41247 49.4307 11.1356C49.752 13.6759 50 16.704 50 20C50 23.296 49.752 26.3241 49.4307 28.8644C48.8332 33.5875 44.9585 36.9981 40.2139 37.3911C36.3588 37.7105 31.3804 38 26 38C20.6196 38 15.6412 37.7105 11.7861 37.3911C7.0415 36.9981 3.16681 33.5875 2.56934 28.8644C2.248 26.3241 2 23.296 2 20C2 16.704 2.248 13.6759 2.56934 11.1356Z" fill="#00D0BF"/>
</mask>
<g mask="url(#mask0_1_40450)">
<path d="M2.56934 11.1356C3.16681 6.41247 7.0415 3.00193 11.7861 2.60887C15.6412 2.28949 20.6196 2 26 2C31.3804 2 36.3588 2.28949 40.2139 2.60887C44.9585 3.00193 48.8332 6.41247 49.4307 11.1356C49.752 13.6759 50 16.704 50 20C50 23.296 49.752 26.3241 49.4307 28.8644C48.8332 33.5875 44.9585 36.9981 40.2139 37.3911C36.3588 37.7105 31.3804 38 26 38C20.6196 38 15.6412 37.7105 11.7861 37.3911C7.0415 36.9981 3.16681 33.5875 2.56934 28.8644C2.248 26.3241 2 23.296 2 20C2 16.704 2.248 13.6759 2.56934 11.1356Z" fill="#EE5757"/>
<rect x="2" y="26" width="48" height="12" fill="#59C785"/>
<rect x="2" y="2" width="48" height="12" fill="#2C2929"/>
<path d="M25.7475 19.7703C28.7188 19.7703 31.1276 17.3616 31.1276 14.3903C31.1276 11.4189 28.7188 9.01019 25.7475 9.01019C22.7762 9.01019 20.3674 11.4189 20.3674 14.3903C20.3674 17.3616 22.7762 19.7703 25.7475 19.7703Z" fill="#EE5757"/>
<path d="M25.7475 5.88226C25.5668 5.88226 25.4973 6.15335 25.4973 6.42444C25.4973 7.07783 25.5773 7.41942 25.7475 8.38462C25.9177 7.41942 25.9977 7.07783 25.9977 6.42444C25.9977 6.15335 25.9282 5.88226 25.7475 5.88226Z" fill="#EE5757"/>
<path d="M26.6715 5.93175C26.4918 5.91245 26.3938 6.17457 26.3648 6.44411C26.2951 7.09376 26.3382 7.44194 26.4043 8.4198C26.6766 7.47829 26.7927 7.1472 26.8624 6.49755C26.8914 6.22801 26.8512 5.95105 26.6715 5.93175Z" fill="#EE5757"/>
<path d="M24.788 5.93561C24.6084 5.95565 24.5694 6.23277 24.5994 6.50219C24.6719 7.15155 24.7893 7.48216 25.0654 8.42253C25.1276 7.44442 25.1692 7.09606 25.0968 6.4467C25.0667 6.17728 24.9676 5.91557 24.788 5.93561Z" fill="#EE5757"/>
<path d="M27.5908 6.08086C27.4142 6.04236 27.2886 6.29242 27.2308 6.55729C27.0917 7.19569 27.0971 7.54649 27.0578 8.52579C27.4297 7.61899 27.5806 7.30229 27.7198 6.66389C27.7776 6.39902 27.7674 6.11935 27.5908 6.08086Z" fill="#EE5757"/>
<path d="M28.6054 6.3678C28.4348 6.30812 28.2797 6.54104 28.1901 6.79692C27.9744 7.41365 27.9371 7.76251 27.779 8.72976C28.2584 7.87492 28.4468 7.57893 28.6625 6.9622C28.7521 6.70632 28.776 6.42749 28.6054 6.3678Z" fill="#EE5757"/>
<path d="M30.3473 7.20598C30.1943 7.10991 29.9913 7.30259 29.8472 7.53221C29.4999 8.08566 29.3861 8.41754 29.0173 9.32556C29.6744 8.59847 29.9238 8.35168 30.2711 7.79823C30.4152 7.56861 30.5004 7.30204 30.3473 7.20598Z" fill="#EE5757"/>
<path d="M31.1038 7.73906C30.9618 7.62721 30.7394 7.79711 30.5717 8.01003C30.1672 8.52323 30.0187 8.84107 29.555 9.70451C30.286 9.05174 30.5603 8.83299 30.9647 8.31979C31.1325 8.10687 31.2457 7.85092 31.1038 7.73906Z" fill="#EE5757"/>
<path d="M29.5063 6.74121C29.3435 6.66271 29.1631 6.8767 29.0454 7.12089C28.7616 7.70943 28.6853 8.05188 28.4194 8.9952C28.9919 8.19972 29.2124 7.9268 29.4962 7.33826C29.6139 7.09408 29.6691 6.81971 29.5063 6.74121Z" fill="#EE5757"/>
<path d="M31.8031 8.35398C31.674 8.22752 31.4346 8.37254 31.2449 8.5662C30.7877 9.03297 30.6059 9.33301 30.0521 10.1416C30.849 9.57119 31.1453 9.38318 31.6025 8.9164C31.7922 8.72274 31.9322 8.48044 31.8031 8.35398Z" fill="#EE5757"/>
<path d="M32.51 9.13634C32.3973 8.99512 32.142 9.10995 31.9302 9.27911C31.4196 9.68681 31.2026 9.9625 30.5546 10.6978C31.415 10.2285 31.7319 10.0779 32.2425 9.6702C32.4543 9.50104 32.6228 9.27757 32.51 9.13634Z" fill="#EE5757"/>
<path d="M21.1261 7.21955C20.9733 7.31606 21.0593 7.58237 21.204 7.81157C21.5529 8.36399 21.803 8.61005 22.4624 9.33521C22.0908 8.42828 21.9761 8.09673 21.6272 7.54431C21.4824 7.31511 21.2789 7.12303 21.1261 7.21955Z" fill="#EE5757"/>
<path d="M21.9338 6.76789C21.7716 6.84754 21.8286 7.12152 21.9481 7.36486C22.236 7.95138 22.4584 8.22274 23.0366 9.01416C22.764 8.07274 22.6853 7.73083 22.3974 7.14431C22.2779 6.90096 22.096 6.68825 21.9338 6.76789Z" fill="#EE5757"/>
<path d="M20.3434 7.77703C20.2022 7.88989 20.3172 8.14503 20.4865 8.35676C20.8945 8.8671 21.1704 9.08391 21.906 9.7315C21.4362 8.87135 21.2854 8.55457 20.8774 8.04424C20.7081 7.8325 20.4846 7.66418 20.3434 7.77703Z" fill="#EE5757"/>
<path d="M22.7906 6.40309C22.6207 6.46484 22.648 6.74336 22.7407 6.99813C22.9639 7.6122 23.1559 7.90588 23.6456 8.75484C23.4758 7.78958 23.4343 7.4412 23.211 6.82713C23.1184 6.57236 22.9604 6.34134 22.7906 6.40309Z" fill="#EE5757"/>
<path d="M23.8017 6.10387C23.6256 6.1445 23.6188 6.42428 23.6798 6.68842C23.8267 7.32508 23.9815 7.63993 24.3643 8.54214C24.3131 7.56339 24.3143 7.21256 24.1674 6.57589C24.1065 6.31175 23.9778 6.06323 23.8017 6.10387Z" fill="#EE5757"/>
<path d="M17.9126 10.8612C17.8359 11.0248 18.0518 11.2029 18.2972 11.318C18.8887 11.5955 19.232 11.6681 20.1781 11.9239C19.3765 11.3599 19.1013 11.1424 18.5097 10.8649C18.2643 10.7498 17.9893 10.6976 17.9126 10.8612Z" fill="#EE5757"/>
<path d="M18.3498 10.0456C18.256 10.2001 18.4517 10.4002 18.6834 10.5409C19.242 10.8799 19.5755 10.9887 20.4889 11.3441C19.7521 10.6978 19.5017 10.4521 18.9431 10.113C18.7114 9.97237 18.4436 9.89112 18.3498 10.0456Z" fill="#EE5757"/>
<path d="M17.5535 11.7525C17.4953 11.9236 17.7296 12.0766 17.9863 12.1638C18.605 12.374 18.9542 12.4081 19.9228 12.5574C19.0637 12.0858 18.766 11.9001 18.1473 11.69C17.8906 11.6028 17.6116 11.5814 17.5535 11.7525Z" fill="#EE5757"/>
<path d="M18.8752 9.2767C18.7653 9.42022 18.9384 9.64017 19.1536 9.80493C19.6725 10.202 19.9924 10.3461 20.8623 10.7975C20.1993 10.0758 19.9767 9.8046 19.4578 9.4075C19.2425 9.24274 18.985 9.13318 18.8752 9.2767Z" fill="#EE5757"/>
<path d="M19.5659 8.47996C19.4394 8.60905 19.5844 8.84842 19.778 9.03814C20.2448 9.4954 20.5448 9.67727 21.3533 10.2312C20.783 9.43414 20.595 9.13791 20.1283 8.68064C19.9346 8.49093 19.6923 8.35087 19.5659 8.47996Z" fill="#EE5757"/>
<path d="M33.5661 10.8267C33.4886 10.6634 33.2139 10.7168 32.969 10.833C32.3786 11.1131 32.1043 11.3318 31.3053 11.8993C32.2502 11.6394 32.5932 11.5653 33.1835 11.2852C33.4284 11.169 33.6435 10.99 33.5661 10.8267Z" fill="#EE5757"/>
<path d="M33.9175 11.6828C33.8579 11.5122 33.579 11.5359 33.3231 11.6253C32.7063 11.8408 32.4102 12.029 31.5551 12.5079C32.5224 12.3503 32.8713 12.3132 33.4881 12.0978C33.7441 12.0084 33.9771 11.8534 33.9175 11.6828Z" fill="#EE5757"/>
<path d="M33.1066 9.98273C33.0116 9.82905 32.7444 9.91258 32.5139 10.0552C31.9583 10.399 31.7099 10.6468 30.9787 11.2994C31.889 10.9363 32.2216 10.8246 32.7773 10.4808C33.0078 10.3382 33.2017 10.1364 33.1066 9.98273Z" fill="#EE5757"/>
</g>
<path d="M11.7035 1.61228C6.53056 2.04084 2.23921 5.77712 1.57724 11.0101C1.25164 13.5841 1 16.6548 1 20C1 23.3452 1.25164 26.4159 1.57724 28.9899C2.23922 34.2229 6.53056 37.9592 11.7035 38.3877C15.5784 38.7087 20.5852 39 26 39C31.4148 39 36.4216 38.7087 40.2965 38.3877C45.4694 37.9592 49.7608 34.2229 50.4228 28.9899C50.7484 26.4159 51 23.3452 51 20C51 16.6548 50.7484 13.5841 50.4228 11.0101C49.7608 5.77712 45.4694 2.04084 40.2965 1.61228C36.4216 1.29127 31.4148 1 26 1C20.5852 1 15.5784 1.29127 11.7035 1.61228Z" stroke="#E6E6FA" stroke-width="2"/>
<rect x="16" y="13" width="20" height="1" fill="#2C2929"/>
</svg>
