<svg width="52" height="40" viewBox="0 0 52 40" fill="none" xmlns="http://www.w3.org/2000/svg">
<mask id="mask0_1_41766" style="mask-type:alpha" maskUnits="userSpaceOnUse" x="2" y="2" width="48" height="36">
<path d="M2.56934 11.1356C3.16681 6.41247 7.0415 3.00193 11.7861 2.60887C15.6412 2.28949 20.6196 2 26 2C31.3804 2 36.3588 2.28949 40.2139 2.60887C44.9585 3.00193 48.8332 6.41247 49.4307 11.1356C49.752 13.6759 50 16.704 50 20C50 23.296 49.752 26.3241 49.4307 28.8644C48.8332 33.5875 44.9585 36.9981 40.2139 37.3911C36.3588 37.7105 31.3804 38 26 38C20.6196 38 15.6412 37.7105 11.7861 37.3911C7.0415 36.9981 3.16681 33.5875 2.56934 28.8644C2.248 26.3241 2 23.296 2 20C2 16.704 2.248 13.6759 2.56934 11.1356Z" fill="#00D0BF"/>
</mask>
<g mask="url(#mask0_1_41766)">
<rect x="2" y="27.7143" width="48" height="2.57143" fill="#EE5757"/>
<rect x="2" y="35.4286" width="48" height="2.57143" fill="white"/>
<rect x="2" y="25.1428" width="48" height="2.57143" fill="white"/>
<rect x="2" y="32.8571" width="48" height="2.57143" fill="#EE5757"/>
<rect x="2" y="22.5714" width="48" height="2.57143" fill="#EE5757"/>
<rect x="2" y="30.2857" width="48" height="2.57143" fill="white"/>
<rect x="2" y="20" width="48" height="2.57143" fill="white"/>
<rect x="2" y="17.4286" width="48" height="2.57143" fill="#EE5757"/>
<rect x="2" y="14.8571" width="48" height="2.57143" fill="white"/>
<rect x="2" y="12.2857" width="48" height="2.57143" fill="#EE5757"/>
<rect x="2" y="9.71428" width="48" height="2.57143" fill="white"/>
<rect x="2" y="7.14287" width="48" height="2.57143" fill="#EE5757"/>
<rect x="2" y="4.57141" width="48" height="2.57143" fill="white"/>
<rect x="2" y="2" width="48" height="2.57143" fill="#EE5757"/>
<rect x="2" y="2" width="27" height="20.57" fill="#2E50A6"/>
<path d="M22.5 9L22.9801 10.7082L24.25 9.46891L23.8117 11.1883L25.5311 10.75L24.2918 12.0199L26 12.5L24.2918 12.9801L25.5311 14.25L23.8117 13.8117L24.25 15.5311L22.9801 14.2918L22.5 16L22.0199 14.2918L20.75 15.5311L21.1883 13.8117L19.4689 14.25L20.7082 12.9801L19 12.5L20.7082 12.0199L19.4689 10.75L21.1883 11.1883L20.75 9.46891L22.0199 10.7082L22.5 9Z" fill="#FCD95E"/>
<path d="M19 9.30131C18.2922 8.0817 17.1996 7.12851 15.8917 6.58959C14.5839 6.05066 13.1338 5.95611 11.7664 6.3206C10.399 6.68509 9.19068 7.48825 8.3289 8.60552C7.46712 9.72278 7 11.0917 7 12.5C7 13.9083 7.46712 15.2772 8.3289 16.3945C9.19068 17.5117 10.399 18.3149 11.7664 18.6794C13.1338 19.0439 14.5839 18.9493 15.8917 18.4104C17.1996 17.8715 18.2922 16.9183 19 15.6987C18.3338 16.5264 17.4257 17.1279 16.401 17.4199C15.3764 17.712 14.2858 17.6802 13.2801 17.3291C12.2744 16.9779 11.4032 16.3246 10.7868 15.4596C10.1704 14.5945 9.83935 13.5603 9.83935 12.5C9.83935 11.4397 10.1704 10.4055 10.7868 9.54043C11.4032 8.67536 12.2744 8.0221 13.2801 7.67093C14.2858 7.31975 15.3764 7.288 16.401 7.58006C17.4257 7.87213 18.3338 8.47358 19 9.30131Z" fill="#FCD95E"/>
</g>
<path d="M11.7035 1.61228C6.53056 2.04084 2.23921 5.77712 1.57724 11.0101C1.25164 13.5841 1 16.6548 1 20C1 23.3452 1.25164 26.4159 1.57724 28.9899C2.23922 34.2229 6.53056 37.9592 11.7035 38.3877C15.5784 38.7087 20.5852 39 26 39C31.4148 39 36.4216 38.7087 40.2965 38.3877C45.4694 37.9592 49.7608 34.2229 50.4228 28.9899C50.7484 26.4159 51 23.3452 51 20C51 16.6548 50.7484 13.5841 50.4228 11.0101C49.7608 5.77712 45.4694 2.04084 40.2965 1.61228C36.4216 1.29127 31.4148 1 26 1C20.5852 1 15.5784 1.29127 11.7035 1.61228Z" stroke="#E6E6FA" stroke-width="2"/>
</svg>
