<svg width="52" height="40" viewBox="0 0 52 40" fill="none" xmlns="http://www.w3.org/2000/svg">
<mask id="mask0_1_40079" style="mask-type:alpha" maskUnits="userSpaceOnUse" x="2" y="2" width="48" height="36">
<path d="M2.56934 11.1356C3.16681 6.41247 7.0415 3.00193 11.7861 2.60887C15.6412 2.28949 20.6196 2 26 2C31.3804 2 36.3588 2.28949 40.2139 2.60887C44.9585 3.00193 48.8332 6.41247 49.4307 11.1356C49.752 13.6759 50 16.704 50 20C50 23.296 49.752 26.3241 49.4307 28.8644C48.8332 33.5875 44.9585 36.9981 40.2139 37.3911C36.3588 37.7105 31.3804 38 26 38C20.6196 38 15.6412 37.7105 11.7861 37.3911C7.0415 36.9981 3.16681 33.5875 2.56934 28.8644C2.248 26.3241 2 23.296 2 20C2 16.704 2.248 13.6759 2.56934 11.1356Z" fill="#00D0BF"/>
</mask>
<g mask="url(#mask0_1_40079)">
<rect x="2" y="-4" width="48" height="49" fill="#59C785"/>
<path d="M2 -5L57.5 -4L-1 42.5L2 44V-5Z" fill="#3F6FEB"/>
<path d="M14 6L14.93 8.52L17 6.804L16.544 9.456L19.196 9L17.48 11.07L20 12L17.48 12.93L19.196 15L16.544 14.544L17 17.196L14.93 15.48L14 18L13.07 15.48L11 17.196L11.456 14.544L8.804 15L10.52 12.93L8 12L10.52 11.07L8.804 9L11.456 9.456L11 6.804L13.07 8.52L14 6Z" fill="#FCD95E"/>
<path d="M14 15.3C15.8226 15.3 17.3 13.8226 17.3 12C17.3 10.1775 15.8226 8.70001 14 8.70001C12.1775 8.70001 10.7 10.1775 10.7 12C10.7 13.8226 12.1775 15.3 14 15.3Z" fill="#FCD95E" stroke="#3F6FEB" stroke-width="0.6"/>
<path d="M0 40L52 0" stroke="white" stroke-width="10"/>
<path d="M0 40L52 0" stroke="#EE5757" stroke-width="6"/>
</g>
<path d="M11.7035 1.61228C6.53056 2.04084 2.23921 5.77712 1.57724 11.0101C1.25164 13.5841 1 16.6548 1 20C1 23.3452 1.25164 26.4159 1.57724 28.9899C2.23922 34.2229 6.53056 37.9592 11.7035 38.3877C15.5784 38.7087 20.5852 39 26 39C31.4148 39 36.4216 38.7087 40.2965 38.3877C45.4694 37.9592 49.7608 34.2229 50.4228 28.9899C50.7484 26.4159 51 23.3452 51 20C51 16.6548 50.7484 13.5841 50.4228 11.0101C49.7608 5.77712 45.4694 2.04084 40.2965 1.61228C36.4216 1.29127 31.4148 1 26 1C20.5852 1 15.5784 1.29127 11.7035 1.61228Z" stroke="#E6E6FA" stroke-width="2"/>
</svg>
