<svg width="52" height="40" viewBox="0 0 52 40" fill="none" xmlns="http://www.w3.org/2000/svg">
<mask id="mask0_1_34469" style="mask-type:alpha" maskUnits="userSpaceOnUse" x="2" y="2" width="48" height="36">
<path d="M2.56934 11.1356C3.16681 6.41247 7.0415 3.00193 11.7861 2.60887C15.6412 2.28949 20.6196 2 26 2C31.3804 2 36.3588 2.28949 40.2139 2.60887C44.9585 3.00193 48.8332 6.41247 49.4307 11.1356C49.752 13.6759 50 16.704 50 20C50 23.296 49.752 26.3241 49.4307 28.8644C48.8332 33.5875 44.9585 36.9981 40.2139 37.3911C36.3588 37.7105 31.3804 38 26 38C20.6196 38 15.6412 37.7105 11.7861 37.3911C7.0415 36.9981 3.16681 33.5875 2.56934 28.8644C2.248 26.3241 2 23.296 2 20C2 16.704 2.248 13.6759 2.56934 11.1356Z" fill="#00D0BF"/>
</mask>
<g mask="url(#mask0_1_34469)">
<rect x="2" y="-4" width="16" height="49" fill="#1C6864"/>
<rect x="18" y="-4" width="16" height="49" fill="white"/>
<path d="M26.1894 8.49979C26.143 9.00171 26.0965 9.5039 26.0502 10.0058C25.8802 10.0314 25.7103 10.0569 25.5403 10.0826C25.5403 10.0826 25.8944 10.2814 25.9562 10.4812C25.9661 10.5132 25.9622 10.5396 25.9479 10.5596C25.9432 10.5658 25.9359 10.5727 25.9294 10.5779C25.8268 10.6567 25.5235 10.6196 25.5235 10.6196C25.5235 10.6196 25.9253 10.9586 25.9562 11.0816C25.9569 11.0845 25.9579 11.0871 25.9579 11.0899C25.9579 11.0922 25.9584 11.096 25.9579 11.0983C25.9575 11.1 25.9553 11.1032 25.9546 11.1049C25.9518 11.111 25.9469 11.1178 25.9411 11.1233C25.8467 11.2105 25.401 11.235 25.401 11.235C25.401 11.235 25.8951 11.5873 25.926 11.7871C25.9541 11.9681 25.9306 12.0741 25.926 12.0923C25.8915 12.0628 25.0948 11.3932 24.5808 11.5886C24.5552 11.6019 24.5401 11.6146 24.5339 11.6269C24.5311 11.6331 24.5306 11.6408 24.5322 11.647C24.5682 11.7583 25.295 11.8724 25.8019 12.3108C25.7893 12.4205 24.3571 11.9618 24.3041 12.2491C24.3489 12.3301 25.8455 12.5458 25.9562 12.7411C25.4051 12.7616 24.2664 12.6198 24.3041 12.8011C24.1889 13.0105 25.3796 12.8922 25.8791 13.063C26.0255 13.2284 26.0114 13.3674 25.7566 13.3848C25.2752 13.1559 24.1976 12.9859 24.1951 13.2781C24.1951 13.2785 24.195 13.2795 24.1951 13.2798C24.1952 13.2801 24.1966 13.2812 24.1967 13.2814C24.1972 13.2824 24.1976 13.2839 24.1984 13.2848C24.2001 13.2864 24.204 13.2883 24.2068 13.2898C24.3285 13.3505 25.3319 13.3209 25.7097 13.57C25.1741 13.6911 23.3579 13.3242 23.3463 13.5033C23.3981 13.5869 23.6855 13.9539 24.18 13.9386C24.6745 13.9232 25.8185 14.1385 25.8959 14.2921C25.8983 14.2969 25.8983 14.3019 25.8976 14.3055C25.8641 14.4126 24.3909 13.9786 23.8244 14.2454C23.2372 14.522 25.5082 14.3544 25.8791 14.6924C26.25 15.0304 25.1377 14.6607 25.1377 14.6607C25.1377 14.6607 23.5932 14.4464 23.3614 14.554C23.1296 14.6616 22.8666 14.9075 22.8666 14.9075C22.8666 14.9075 23.0207 15.2141 23.1753 15.1527C23.1988 15.1433 23.2149 15.1414 23.2239 15.1444C23.2241 15.1445 23.2254 15.1443 23.2256 15.1444C23.2258 15.1445 23.2271 15.1459 23.2273 15.146C23.2276 15.1463 23.2286 15.1474 23.229 15.1477C23.2292 15.1481 23.2304 15.1491 23.2306 15.1494C23.2307 15.1495 23.2322 15.1509 23.2323 15.151C23.233 15.1526 23.2337 15.1558 23.234 15.1577C23.2376 15.2038 23.1283 15.3378 23.1283 15.3378C23.1283 15.3378 25.2927 15.8592 25.7717 16.3202C26.2508 16.7812 23.021 15.598 23.021 15.598C23.021 15.598 21.7229 16.0743 23.0981 16.105C22.9449 16.328 23.1616 16.4652 23.1753 16.4736C23.1753 16.4736 25.4629 16.9504 25.6946 17.3192C25.9264 17.6879 24.134 16.9652 23.7322 16.7655C23.3446 16.5727 22.2656 16.8674 22.2042 16.9572C22.2037 16.9579 22.2028 16.9599 22.2025 16.9606C22.2024 16.9609 22.2026 16.9619 22.2025 16.9623C22.2024 16.9629 22.2025 16.965 22.2025 16.9656C22.2026 16.9659 22.2025 16.967 22.2025 16.9673C22.2026 16.9676 22.2024 16.9686 22.2025 16.9689C22.2026 16.9693 22.204 16.9703 22.2042 16.9706C22.2043 16.9709 22.2041 16.972 22.2042 16.9723C22.2049 16.9735 22.2066 16.976 22.2075 16.9773C22.2078 16.9776 22.2089 16.9786 22.2092 16.9789C22.2783 17.0547 22.76 17.159 22.7745 17.2891C22.7745 17.2897 22.7744 17.2903 22.7745 17.2908C22.7747 17.2978 22.7725 17.306 22.7694 17.3125C22.7088 17.4295 22.1342 17.4792 22.1102 17.5894C22.1099 17.5912 22.1085 17.5941 22.1085 17.596C22.1085 17.719 24.9991 18.3183 25.7718 18.9636C26.5444 19.609 23.5007 18.1947 23.5007 18.1947C23.5007 18.1947 23.6707 18.4251 23.5007 18.4866C23.3307 18.548 22.7269 17.6262 21.7379 18.1947C21.5577 18.4287 22.6014 18.6143 22.8667 18.64C22.7761 18.8717 22.6971 18.9483 23.068 19.1787C23.1085 19.2039 23.1313 19.2192 23.1401 19.2271C23.1403 19.2273 23.1415 19.2285 23.1418 19.2288L23.1435 19.2304C23.1436 19.2306 23.1434 19.232 23.1435 19.2321C23.1434 19.2322 23.1435 19.2337 23.1435 19.2338C23.1433 19.2338 23.142 19.2338 23.1418 19.2338C23.1416 19.2338 23.1404 19.2338 23.1401 19.2338C23.0827 19.2249 22.4164 18.8844 22.3467 18.8702C22.346 18.8701 22.3439 18.8702 22.3434 18.8702C22.3431 18.8702 22.3418 18.8702 22.3417 18.8702C22.3417 18.9009 22.4188 19.2705 22.4188 19.2705C22.0765 18.9939 21.6626 18.9105 21.2749 19.1938C21.2744 19.2101 21.2715 19.4753 21.6607 19.6391C21.4414 20.0848 21.9086 19.9464 22.6504 20.3612C21.548 20.0748 21.4597 20.6069 22.2478 20.7298C23.0359 20.8527 25.1998 20.9297 25.7098 21.5904C25.8173 21.7298 25.8465 21.7998 25.8255 21.8222C25.7405 21.8989 24.958 21.3361 24.8443 21.3152C24.8441 21.3153 24.8429 21.315 24.8426 21.3152C24.8424 21.3154 24.8412 21.3166 24.8409 21.3169C24.8395 21.3187 24.8373 21.3223 24.8359 21.3252C24.8081 21.3864 24.7822 21.6521 24.7822 21.6521C24.4525 21.4624 24.1501 21.2922 23.7557 21.2118C23.7248 21.2732 23.7313 21.3605 23.7004 21.422C23.3425 21.1654 23.0308 20.985 22.5112 20.96C22.4905 21.042 22.4697 21.1248 22.4491 21.2068C22.4491 21.2068 22.0159 20.669 21.1659 21.2068C20.6913 21.5451 22.9588 21.3293 23.3296 21.7288C23.7005 22.1283 23.4068 22.1891 23.4068 22.1891C23.0977 22.0765 22.79 21.9649 22.4809 21.8523C22.4809 21.8523 21.3827 21.6515 21.0737 21.8973C20.7646 22.1432 25.5858 22.7426 25.7248 23.4033C25.8186 23.7617 24.5921 23.0281 23.5309 22.7129C23.4898 22.8302 23.4478 22.9475 23.4068 23.0648C23.3816 23.04 22.9711 22.643 22.5111 22.5745C22.5109 22.5747 22.5095 22.5757 22.5094 22.5761C22.5093 22.5767 22.5094 22.5787 22.5094 22.5795C22.5101 22.6299 22.6033 22.9897 22.6033 22.9897C22.6033 22.9897 21.4146 22.436 20.812 22.7279C20.2093 23.0198 22.913 23.1734 23.1602 23.4501C23.1872 23.4803 23.1985 23.5024 23.1971 23.5168C23.1966 23.5193 23.195 23.5231 23.1938 23.5251C23.134 23.6121 22.3278 23.2909 22.2478 23.4501C22.155 23.6345 20.8418 23.1125 20.8573 23.3583C20.8727 23.6042 21.0435 23.7419 21.0435 23.7419C21.0435 23.7419 23.7786 24.003 23.8714 24.3256C23.9641 24.6483 22.3568 24.1422 22.3568 24.1422C22.3568 24.1422 22.2013 24.3715 22.3249 24.4791C22.3298 24.4833 22.3336 24.4873 22.335 24.4891C22.335 24.4892 22.335 24.4907 22.335 24.4907C22.3349 24.4907 22.3335 24.4908 22.3333 24.4907C22.2774 24.4724 21.4066 23.9052 21.4913 24.3406C21.1505 24.2057 20.2707 23.7878 20.3943 24.1105C20.5161 24.4284 22.8109 24.8811 22.8784 24.8944C22.8177 24.8991 21.8473 24.9798 21.8922 25.2329C20.5915 24.445 20.5946 24.9175 20.6241 24.9544C20.6242 24.9545 20.6241 24.956 20.6241 24.9561C20.5511 24.9446 18.9509 24.5482 20.2233 25.2329C20.9056 25.6001 21.072 25.7433 21.0754 25.7983C21.0754 25.7995 21.0755 25.8022 21.0754 25.8033C21.0751 25.8048 21.0742 25.807 21.0737 25.8083C21.0736 25.8087 21.0722 25.8097 21.072 25.81C21.0714 25.8109 21.071 25.8125 21.0703 25.8133C21.0701 25.8136 21.0689 25.8147 21.0686 25.815C21.0684 25.8152 21.0672 25.8164 21.067 25.8167C21.0667 25.8169 21.0656 25.8181 21.0653 25.8184C21.0649 25.8186 21.0639 25.8198 21.0636 25.82C21.0372 25.8369 20.9732 25.8298 20.9546 25.83C20.9538 25.8301 20.9518 25.83 20.9512 25.83C20.9509 25.8301 20.9496 25.8315 20.9496 25.8317L20.9512 25.8334C20.9694 25.8602 21.0692 26.1312 21.0636 26.1786C21.0635 26.1794 21.0621 26.1813 21.0619 26.1819C21.0618 26.1822 21.062 26.1834 21.0619 26.1836C21.0619 26.1837 21.0603 26.1835 21.0602 26.1836C21.0601 26.1837 21.0604 26.1852 21.0602 26.1853C21.0601 26.1853 21.0587 26.1853 21.0586 26.1853C21.0584 26.1853 21.0571 26.1853 21.0569 26.1853C21.0011 26.1713 20.1583 25.7235 19.8693 25.6933C19.5757 25.6625 18.1846 26.077 19.668 26.7223C21.1515 27.3676 22.0627 26.5684 22.8817 26.6606C23.7007 26.7528 24.0878 26.8914 24.0106 27.1526C23.9333 27.4138 23.1728 26.2962 22.3735 27.2627C21.4643 27.0838 20.8475 26.9803 21.3168 27.6446C19.832 27.0929 18.9253 27.8129 20.7952 28.1049C22.6326 28.1588 23.7623 27.6596 23.7623 27.6596C23.7623 27.6596 24.0723 28.2293 24.5205 27.8297C24.9476 27.449 24.9812 27.9336 24.9968 27.9798C24.997 27.9805 24.9982 27.9811 24.9985 27.9815C24.9986 27.9816 24.9984 27.9831 24.9985 27.9832C24.9986 27.9832 25 27.9832 25.0002 27.9832C25.0332 27.9749 25.4312 27.7981 25.4312 27.7981C25.4673 27.7981 25.5042 27.7981 25.5403 27.7981V31.4856C26.0399 31.4907 26.5384 31.4954 27.0381 31.5006C27.0381 31.5006 26.559 28.29 26.8217 27.8598C27.0762 27.443 27.3168 27.488 27.3316 27.4912C27.3316 27.4912 28.3053 27.7825 28.4134 27.7364C28.4147 27.7358 28.4173 27.7353 28.4185 27.7347C28.4193 27.7342 28.4211 27.7335 28.4218 27.733C28.4237 27.7318 28.4268 27.7294 28.4285 27.728C28.4289 27.7278 28.4299 27.7266 28.4302 27.7263C28.5094 27.6545 28.4287 27.3711 28.9234 27.4145C29.0761 27.3592 29.0178 27.1171 29.1162 27.0575C29.118 27.0565 29.1211 27.0551 29.123 27.0542C29.1267 27.0525 29.1322 27.0505 29.1364 27.0492C29.1421 27.0476 29.1499 27.0465 29.1565 27.0459C29.311 27.0305 32.2932 27.8749 32.9422 27.0759C32.7722 26.6303 32.1842 27.0455 32.0297 27.0609C31.8906 27.0609 31.3029 26.7843 30.9629 27.0609C30.6539 26.8304 29.2487 26.6773 29.2487 26.6773C29.0633 26.4929 32.602 26.7689 32.8029 26.6306C33.2201 26.2157 32.0306 26.2622 31.8451 26.4004C31.5155 26.2007 31.1012 26.2155 30.8488 26.3537C30.7278 26.0659 29.5787 26.1905 28.9401 26.1086C28.7356 25.9893 28.7697 25.9209 28.9082 25.8467C30.2423 25.9031 31.5696 26.0763 32.9102 26.0168C33.2726 25.5471 32.4541 25.37 31.9525 25.77C31.658 25.2885 31.056 25.7544 30.6543 25.7083C30.2525 25.6622 30.4379 25.1712 30.9478 25.248C31.4578 25.3248 32.3696 25.2166 32.5395 24.9861C32.7095 24.7557 32.4381 24.5222 31.5969 24.741C31.3122 24.4643 30.6862 24.7405 30.3926 24.8327C30.0019 24.616 29.0931 24.8025 28.784 24.8794C28.4815 24.6924 30.3758 24.3874 30.3758 24.3874C31.107 24.3745 31.5194 24.2487 31.7512 24.1873C32.8565 23.5982 31.7358 23.5356 31.1557 23.9638C30.7957 23.6843 30.4538 23.9879 30.1293 24.0955C29.825 24.1964 29.2624 24.2698 29.1933 24.2406C29.1925 24.2403 29.1906 24.2394 29.19 24.239C29.1898 24.2388 29.1884 24.2374 29.1883 24.2373L29.1866 24.2356C29.1865 24.2355 29.1866 24.2341 29.1866 24.2339C29.1866 24.2338 29.1866 24.2325 29.1866 24.2323C29.1868 24.2316 29.1878 24.2297 29.1883 24.2289C29.2338 24.1587 30.0672 23.6502 30.0672 23.6502C30.0672 23.6502 31.149 23.5725 31.3654 23.5418C31.4972 23.523 31.9593 23.3055 31.9591 23.2249C31.9553 23.1748 31.7628 23.1794 31.1792 23.3266C30.6538 23.3727 30.3452 23.3429 30.1443 23.3583C29.8212 23.3251 29.6851 23.2912 29.6579 23.2616C29.6568 23.2603 29.6552 23.2578 29.6545 23.2566C29.6523 23.2512 29.6537 23.245 29.6579 23.2399C29.6589 23.2387 29.6615 23.2361 29.6629 23.2349C29.7421 23.172 30.2533 23.1265 30.2533 23.1265C30.2533 23.1265 31.814 22.9842 31.9172 22.903C31.9175 22.9027 31.9185 22.9017 31.9189 22.9013C31.9194 22.9006 31.9202 22.8986 31.9205 22.898C31.9207 22.8977 31.9221 22.8966 31.9222 22.8963C31.9543 22.2619 30.5982 22.5548 30.562 22.5594C30.5658 22.1133 29.338 22.5529 29.2805 22.5594C29.2804 22.5594 29.2789 22.5595 29.2788 22.5594C29.226 22.5285 29.203 22.4958 29.1983 22.466C29.1968 22.4547 29.1983 22.4419 29.2017 22.431C29.2324 22.339 29.4181 22.2676 29.4181 22.2676C29.758 22.1856 30.2664 22.1601 30.3993 22.0524C30.3993 22.0524 31.3588 22.044 31.4728 21.7906C31.2373 21.1446 29.4421 21.9049 29.2017 22.0207C29.1535 22.0207 29.124 22.0087 29.1094 21.989C29.0305 21.8744 29.4201 21.4967 29.4332 21.4837C29.4333 21.4836 29.4345 21.4822 29.4348 21.482C29.4942 21.4653 30.9275 21.3924 31.612 20.4697C31.6603 19.8991 30.7934 20.7916 30.7934 20.7916C30.7287 20.0516 29.8508 20.8385 29.3409 20.9C28.831 20.9614 28.8161 20.6692 29.1715 20.6231C29.5268 20.5771 29.9283 20.6072 30.1292 20.0694C30.3301 19.5316 30.9335 20.1007 31.0417 19.901C31.1465 19.7074 30.8443 19.5425 30.8253 19.5324C30.8253 19.5324 31.2732 19.07 30.5469 19.0854C29.828 19.1006 28.8985 18.9958 28.8797 18.9937C28.9248 18.9766 29.657 18.7019 30.3456 18.7168C31.0565 18.7322 30.67 18.2098 29.99 18.2098C29.3101 18.2098 28.9551 17.9796 28.9551 17.9796C29.3415 17.8362 29.7278 17.6928 30.1142 17.5494C30.0884 17.4418 30.0628 17.335 30.037 17.2275C30.037 17.2275 30.7167 16.6893 29.7586 16.8122C28.8005 16.9351 28.6918 16.9506 28.6918 16.9506C28.6918 16.9506 26.8058 17.238 26.7612 17.2425C26.7611 17.2425 26.7597 17.2425 26.7595 17.2425C26.7413 17.2396 26.5545 17.1819 26.5197 17.1107C26.5186 17.1084 26.5171 17.1047 26.5163 17.1024C26.5155 17.0995 26.5149 17.0953 26.5146 17.0924C26.5144 17.089 26.5141 17.0841 26.5146 17.0807C26.5224 17.0432 26.5806 17.0026 26.7293 16.9656C27.2238 16.8427 28.9709 16.4898 29.2336 16.582C29.2674 16.5939 29.2922 16.5912 29.3074 16.5787C29.4059 16.4901 29.0782 15.9249 28.2741 15.8449C27.347 15.7527 26.7763 16.075 26.7763 16.075C26.7763 16.075 26.173 15.8592 26.7294 15.6748C27.2856 15.4904 28.1668 15.7365 28.1668 15.7365C28.1668 15.7365 29.1552 15.4441 28.3362 15.3212C27.5172 15.1982 27.259 15.4317 26.8837 15.4446C26.7339 15.2587 28.1695 15.2148 28.259 15.061C28.1076 14.7844 27.2194 15.061 26.6991 15.061C26.4778 14.9677 26.4632 14.8158 26.7142 14.7225C27.2448 14.702 27.7435 14.7329 28.2741 14.7125C28.2587 14.4308 28.2745 14.0968 28.259 13.8152C27.5861 13.6929 26.7969 13.9047 26.419 13.8869C26.5201 13.5796 27.9731 13.5002 28.1349 13.4166C28.4688 13.0017 26.7413 13.4102 26.6992 13.4166C26.3925 13.3716 26.4111 13.1788 26.6053 13.063C27.0534 13.0118 28.0583 13.1283 27.9823 12.8262C27.9241 12.5431 27.2856 12.6947 27.0229 12.7561C26.7602 12.8176 26.3738 12.7712 26.3738 12.7712C26.2056 12.546 27.8887 12.638 27.8733 12.4643C27.8514 12.2648 26.8064 12.4022 26.4509 12.4176C26.1776 12.23 27.7361 12.1053 27.8095 12.0807C27.8099 12.0805 27.811 12.0792 27.8112 12.079C27.8695 11.5682 26.7294 12.079 26.513 12.079C26.4758 12.079 26.4477 12.0698 26.4275 12.054C26.4229 12.0504 26.4178 12.0449 26.414 12.0407C26.3398 11.9545 26.4056 11.7571 26.4056 11.7571C26.4056 11.7571 26.8119 11.5756 26.8367 11.532C26.8368 11.5316 26.8383 11.5306 26.8384 11.5303C26.8384 11.5302 26.8384 11.5288 26.8384 11.5286C26.8384 11.5285 26.8384 11.5271 26.8384 11.527C26.8383 11.5267 26.8369 11.5256 26.8367 11.5253C26.8358 11.524 26.8335 11.5218 26.8317 11.5203C26.784 11.4838 26.5045 11.3916 26.4677 11.3885C26.4675 11.3885 26.4663 11.3885 26.466 11.3885C26.4658 11.3884 26.4646 11.387 26.4644 11.3869C26.4639 11.3865 26.4631 11.3857 26.4627 11.3852C26.4624 11.385 26.4612 11.3839 26.461 11.3835C26.4399 11.3406 26.466 11.035 26.466 11.035C26.466 11.035 26.788 10.7951 26.8082 10.6997C26.8083 10.6989 26.8081 10.6972 26.8082 10.6964C26.8083 10.6956 26.8082 10.6938 26.8082 10.6931C26.8082 10.6924 26.8082 10.6904 26.8082 10.6897C26.8081 10.689 26.8083 10.6871 26.8082 10.6864C26.8081 10.686 26.8082 10.685 26.8082 10.6847C26.808 10.6838 26.8069 10.6823 26.8065 10.6814C26.8064 10.681 26.8066 10.68 26.8065 10.6797C26.8064 10.6795 26.805 10.6783 26.8048 10.678C26.8045 10.6775 26.8035 10.6769 26.8031 10.6764C26.8026 10.6756 26.8021 10.6737 26.8015 10.673C26.8012 10.6728 26.8001 10.6716 26.7998 10.6714C26.7985 10.6703 26.7963 10.669 26.7947 10.668C26.7941 10.6677 26.7921 10.6667 26.7914 10.6664C26.7101 10.6275 26.3737 10.7431 26.3737 10.7431C26.3737 10.6406 26.3737 10.5386 26.3737 10.4362C26.3737 10.4362 26.6682 10.4044 26.6991 10.2661C26.701 10.258 26.7001 10.25 26.6991 10.2427C26.6987 10.2398 26.6983 10.2355 26.6975 10.2327C26.6955 10.2268 26.6926 10.2198 26.6891 10.2144C26.6885 10.2136 26.6863 10.2118 26.6857 10.211C26.6183 10.1246 26.3435 10.1126 26.3435 10.1126C26.292 9.57486 26.2408 9.03766 26.1892 8.49991L26.1894 8.49979ZM25.9143 13.7667V13.9785C25.9143 13.9785 25.5678 13.9609 25.5034 13.9068C25.503 13.9066 25.502 13.9054 25.5017 13.9051C25.5015 13.9049 25.5003 13.9037 25.5 13.9035C25.4998 13.9032 25.4986 13.9021 25.4983 13.9018C25.4981 13.9016 25.4969 13.9004 25.4966 13.9001C25.4961 13.8993 25.4954 13.8976 25.495 13.8968C25.4948 13.8966 25.4951 13.8954 25.495 13.8951C25.4948 13.8949 25.4934 13.8937 25.4933 13.8935C25.4932 13.8932 25.4933 13.8921 25.4933 13.8918C25.4932 13.8912 25.4933 13.889 25.4933 13.8884C25.4933 13.8881 25.4933 13.8871 25.4933 13.8868C25.4933 13.8864 25.4932 13.8854 25.4933 13.8851C25.4936 13.8839 25.4943 13.8814 25.495 13.8801C25.4951 13.8798 25.4965 13.8788 25.4966 13.8784C25.4974 13.8772 25.4989 13.8747 25.5 13.8734C25.5003 13.8731 25.5014 13.8721 25.5017 13.8718C25.5024 13.8711 25.5043 13.8691 25.505 13.8684C25.5074 13.8664 25.5104 13.8639 25.5134 13.8618C25.6297 13.7808 25.8618 13.7827 25.9076 13.77C25.9079 13.7699 25.9089 13.7701 25.9093 13.77C25.9096 13.7699 25.9107 13.7685 25.9109 13.7684C25.9112 13.7682 25.9124 13.7685 25.9126 13.7684C25.9129 13.7682 25.9141 13.7668 25.9143 13.7667L25.9143 13.7667ZM26.4058 14.0486C26.4177 14.0486 27.096 14.0544 27.1555 14.1419C27.156 14.1426 27.1568 14.1445 27.1572 14.1453C27.1576 14.1464 27.1586 14.1491 27.1589 14.1503C27.159 14.1511 27.1588 14.1528 27.1589 14.1536C27.1589 14.1548 27.1591 14.1574 27.1589 14.1586C27.1585 14.1599 27.1577 14.1624 27.1572 14.1636C27.1054 14.2731 26.4192 14.3388 26.4192 14.3388L26.4057 14.0486L26.4058 14.0486ZM26.3672 14.4672C26.3674 14.4673 26.3686 14.4671 26.3689 14.4672C26.3691 14.4673 26.3702 14.4671 26.3705 14.4672C26.4108 14.4777 26.6918 14.4868 26.7261 14.5339C26.7265 14.5343 26.7276 14.5351 26.7278 14.5355C26.7279 14.5358 26.7277 14.537 26.7278 14.5372C26.728 14.5377 26.7293 14.5384 26.7295 14.5389C26.7296 14.5391 26.7295 14.5403 26.7295 14.5405C26.7295 14.5408 26.7295 14.542 26.7295 14.5422C26.7295 14.5424 26.7295 14.5436 26.7295 14.5439C26.7295 14.5441 26.7295 14.5453 26.7295 14.5455C26.7295 14.5458 26.7296 14.547 26.7295 14.5472C26.7294 14.5474 26.7279 14.5486 26.7278 14.5489C26.7277 14.5491 26.7279 14.5503 26.7278 14.5505C26.7274 14.5513 26.7267 14.5531 26.7261 14.5539C26.7259 14.5541 26.7247 14.5553 26.7245 14.5555C26.7242 14.5558 26.7247 14.5569 26.7245 14.5572C26.6662 14.628 26.407 14.6473 26.394 14.6473C26.3939 14.6473 26.3924 14.6473 26.3923 14.6473C26.3922 14.6472 26.3925 14.6457 26.3923 14.6456C26.3921 14.6453 26.3909 14.6443 26.3907 14.6439C26.3788 14.62 26.3672 14.4672 26.3672 14.4672L26.3672 14.4672ZM24.2991 15.0242C24.5205 15.0128 24.96 15.0646 25.7851 15.2911C25.7851 15.3085 25.8019 15.5213 25.7952 15.5562C25.7952 15.5565 25.7936 15.5577 25.7935 15.5579C25.7935 15.5581 25.7936 15.5594 25.7935 15.5596C25.7934 15.5597 25.792 15.5612 25.7918 15.5612C25.7789 15.5548 24.2907 15.1295 24.1548 15.136C24.1511 15.1361 24.1466 15.1363 24.143 15.136C24.14 15.1356 24.1358 15.1349 24.133 15.1343C24.1293 15.1334 24.1245 15.1308 24.1212 15.1293C24.12 15.1287 24.1173 15.1282 24.1162 15.1276C24.1158 15.1274 24.1149 15.1262 24.1145 15.1259C24.11 15.1229 24.1055 15.1183 24.1028 15.1143C24.1025 15.1139 24.1013 15.1129 24.1011 15.1126C24.1007 15.1119 24.0997 15.1099 24.0994 15.1093C24.0993 15.1089 24.0995 15.1079 24.0994 15.1076C24.0992 15.1069 24.0979 15.105 24.0977 15.1043C24.0977 15.1039 24.0978 15.1029 24.0977 15.1026C24.0977 15.1019 24.0977 15.1 24.0977 15.0993C24.0977 15.0986 24.0977 15.0967 24.0977 15.0959C24.098 15.0941 24.0988 15.0911 24.0994 15.0892C24.1012 15.0847 24.105 15.0788 24.1095 15.0742C24.1322 15.0521 24.1892 15.0299 24.299 15.0242L24.2991 15.0242ZM25.0706 15.653C25.3078 15.6445 25.8761 15.7805 25.9076 15.773C25.9076 15.8181 25.9327 16.0311 25.9042 16.0749C25.904 16.0753 25.9028 16.0762 25.9025 16.0766C25.9023 16.0769 25.9012 16.078 25.9009 16.0783C25.9005 16.0785 25.8995 16.0797 25.8992 16.0799C25.8986 16.0803 25.8965 16.0813 25.8958 16.0816C25.8955 16.0817 25.8945 16.0815 25.8941 16.0816C25.8934 16.0816 25.8915 16.0816 25.8908 16.0816C25.8904 16.0815 25.8895 16.0817 25.8891 16.0816C25.8408 16.0696 25.002 15.8047 24.9699 15.6963C24.9695 15.6945 24.9699 15.6914 24.9699 15.6896C24.9703 15.6859 24.9721 15.6813 24.975 15.678C24.9753 15.6776 24.9763 15.6766 24.9766 15.6763C24.977 15.676 24.9779 15.675 24.9783 15.6746C24.9944 15.662 25.0277 15.6545 25.0706 15.653L25.0706 15.653ZM27.4054 16.2367C27.6319 16.2323 27.7919 16.2516 27.7325 16.3201C27.5707 16.5066 26.4527 16.6603 26.4527 16.6603L26.4326 16.3201C26.4566 16.3166 27.0246 16.2441 27.4054 16.2367H27.4054ZM24.2051 17.2974C24.3952 17.2874 24.838 17.3912 25.8237 17.8061L25.8304 18.0513C25.8304 18.0513 24.1611 17.5478 24.1028 17.4642C24.0742 17.423 24.0209 17.3072 24.2051 17.2974L24.2051 17.2974ZM27.4758 17.6627C27.5266 17.6601 27.5624 17.6652 27.5748 17.6777C27.5752 17.678 27.5762 17.679 27.5765 17.6793C27.5772 17.6805 27.5778 17.6831 27.5782 17.6843C27.5784 17.6856 27.5799 17.688 27.5798 17.6894C27.5792 17.6964 27.5739 17.7059 27.5648 17.716C27.4094 17.8898 26.5751 18.0629 26.5751 18.0629C26.5751 18.0629 26.5751 17.8442 26.5751 17.8378C26.5752 17.8378 26.5766 17.8378 26.5768 17.8378C26.6148 17.8365 27.2272 17.6752 27.4758 17.6627L27.4758 17.6627ZM23.816 17.6927C24.0652 17.6795 24.6279 17.811 25.8891 18.4048C25.8891 18.411 25.9004 18.6158 25.8958 18.635C25.8957 18.635 25.8943 18.635 25.8941 18.635C25.8194 18.611 23.6247 17.8445 23.6247 17.8445C23.6224 17.8361 23.5894 17.7047 23.816 17.6927L23.816 17.6927ZM27.9941 18.6517C28.0579 18.649 28.0997 18.6545 28.1098 18.6684C28.1108 18.67 28.1114 18.6732 28.1115 18.6751C28.1113 18.6817 28.1057 18.6902 28.0948 18.7001C27.8957 18.8788 26.6269 19.0953 26.5818 19.0987C26.5816 19.0987 26.5804 19.0987 26.5802 19.0987C26.58 19.0986 26.5787 19.0988 26.5785 19.0987C26.5784 19.0986 26.577 19.0972 26.5768 19.097C26.5763 19.0964 26.5755 19.0945 26.5751 19.0937C26.575 19.0933 26.5752 19.0923 26.5751 19.092C26.5749 19.0913 26.5736 19.0894 26.5734 19.0887C26.5654 19.0472 26.5916 18.9022 26.5936 18.8819C26.5936 18.8815 26.5936 18.8804 26.5936 18.8802C26.5936 18.8802 26.5951 18.8801 26.5952 18.8802C26.5955 18.8802 26.5966 18.8818 26.5969 18.8819C26.5973 18.8819 26.5982 18.8819 26.5986 18.8819C26.6798 18.8805 27.6522 18.6659 27.9941 18.6517H27.9941ZM24.2638 19.2104C24.6415 19.191 25.7861 19.7129 25.8422 19.7291C25.8423 19.7291 25.8438 19.7291 25.8439 19.7291C25.838 19.7524 25.837 19.9408 25.8321 19.9709C25.832 19.9717 25.8322 19.9738 25.8321 19.9743C25.8321 19.9744 25.8305 19.9742 25.8304 19.9743C25.7996 19.9578 24.231 19.3105 24.1615 19.3622C24.1183 19.2602 24.1631 19.2156 24.2639 19.2104L24.2638 19.2104ZM27.6385 19.3472C27.7171 19.3437 27.7747 19.3472 27.7928 19.3572C27.795 19.3586 27.7971 19.3605 27.7979 19.3622C27.798 19.3624 27.7978 19.3636 27.7979 19.3639C27.7979 19.3642 27.7979 19.3652 27.7979 19.3655C27.7978 19.3662 27.7982 19.3682 27.7979 19.3689C27.7977 19.3692 27.7965 19.3702 27.7962 19.3705C27.795 19.372 27.793 19.3739 27.7912 19.3755C27.6747 19.4785 26.5936 19.6907 26.5936 19.6907C26.5936 19.6907 26.5885 19.4916 26.5885 19.4723C26.6192 19.4657 27.3172 19.3613 27.6385 19.3472L27.6385 19.3472ZM27.5513 20.036C27.6274 20.0334 27.6813 20.0378 27.6939 20.051L27.6956 20.0526C27.6959 20.0532 27.6954 20.0554 27.6956 20.056C27.6956 20.0563 27.6972 20.0573 27.6972 20.0576C27.6972 20.058 27.6956 20.059 27.6956 20.0593C27.6954 20.06 27.6959 20.0619 27.6956 20.0626C27.6953 20.063 27.6941 20.0639 27.6939 20.0643C27.693 20.0658 27.6919 20.0678 27.6905 20.0693C27.6895 20.0705 27.6868 20.0731 27.6855 20.0743C27.5688 20.1745 26.6523 20.3662 26.6523 20.3662C26.6523 20.3662 26.6271 20.1475 26.6271 20.141C26.6525 20.1416 27.2653 20.0454 27.5513 20.036L27.5513 20.036ZM23.6835 20.091C23.9046 20.0771 24.4526 20.1677 25.8052 20.6564L25.8505 20.9199C25.8505 20.9199 23.5983 20.197 23.5342 20.1744C23.5343 20.1744 23.5341 20.1729 23.5342 20.1727C23.5342 20.1713 23.5338 20.1679 23.5342 20.1643C23.535 20.1577 23.5384 20.1473 23.5459 20.1377C23.5618 20.1183 23.5981 20.0963 23.6835 20.091L23.6835 20.091ZM26.6506 20.663C26.6777 20.6688 27.0554 20.6813 27.1253 20.7398C27.1256 20.74 27.1266 20.7412 27.127 20.7414C27.1272 20.7417 27.1283 20.7428 27.1286 20.7431C27.1289 20.7433 27.1301 20.7445 27.1303 20.7448C27.131 20.7457 27.1315 20.7472 27.132 20.7481C27.1321 20.7485 27.1335 20.7495 27.1337 20.7498C27.1343 20.751 27.1351 20.7536 27.1354 20.7548C27.1354 20.7551 27.1353 20.7561 27.1354 20.7565C27.1354 20.7568 27.1353 20.7578 27.1354 20.7581C27.1354 20.7588 27.1354 20.7608 27.1354 20.7615C27.1353 20.7618 27.1354 20.7628 27.1354 20.7632C27.1352 20.7638 27.1339 20.7658 27.1337 20.7665C27.1336 20.7668 27.1338 20.7678 27.1337 20.7682C27.1333 20.7688 27.1324 20.7708 27.132 20.7715C27.0738 20.8616 26.6791 20.8949 26.6791 20.8949C26.6791 20.8949 26.6597 20.7184 26.6506 20.6631L26.6506 20.663ZM27.5647 21.1767C27.6527 21.1746 27.7158 21.1846 27.7291 21.2101C27.7366 21.2273 27.7222 21.2528 27.6805 21.2868C27.3569 21.5506 26.6523 21.602 26.6523 21.602V21.3118C26.6524 21.3118 26.6536 21.3118 26.6539 21.3118C26.694 21.3071 27.2728 21.1837 27.5648 21.1767H27.5647ZM28.4621 21.4469C28.5738 21.4427 28.6219 21.4613 28.6366 21.4869C28.6377 21.4892 28.6392 21.4929 28.6399 21.4953C28.6409 21.4996 28.6419 21.5057 28.6416 21.5103C28.638 21.5434 28.602 21.583 28.5745 21.6087C28.4645 21.7117 26.711 22.2642 26.711 22.2642C26.711 22.2642 26.6978 21.8977 26.7043 21.8656C27.7295 21.5566 28.2309 21.4556 28.4621 21.4469L28.4621 21.4469ZM27.3282 22.4843C27.4397 22.4802 27.5269 22.4867 27.553 22.5127C27.5546 22.5144 27.557 22.5174 27.5581 22.5193C27.5586 22.5205 27.5593 22.5231 27.5597 22.5243C27.5601 22.5256 27.5596 22.528 27.5597 22.5293C27.5598 22.5316 27.5603 22.5353 27.5597 22.5377C27.5585 22.5426 27.5551 22.5486 27.5513 22.5544C27.4013 22.7008 26.6724 22.7228 26.6724 22.7228V22.541C26.8093 22.5364 27.114 22.4923 27.3282 22.4843L27.3282 22.4843ZM28.0579 22.7828C28.0925 22.782 28.1136 22.7876 28.1166 22.7978C28.1167 22.7987 28.1167 22.8003 28.1166 22.8012C28.1148 22.8097 28.1046 22.8226 28.083 22.8379C27.7918 23.0437 26.6976 23.2548 26.6976 23.2548C26.6976 23.2548 26.7111 23.111 26.7177 23.0764C26.7481 23.0759 27.796 22.7892 28.0578 22.7828L28.0579 22.7828ZM28.6717 23.0113C28.8007 23.0101 28.8991 23.029 28.9552 23.0697C28.9553 23.0697 28.9568 23.0697 28.9569 23.0697C28.9569 23.0698 28.9569 23.0712 28.9569 23.0714C28.9569 23.0716 28.9569 23.0728 28.9569 23.073C28.9569 23.0736 28.9569 23.0757 28.9569 23.0764C28.9514 23.1163 28.8694 23.3039 28.5812 23.3849C28.2216 23.353 26.6958 23.8015 26.6657 23.8085C26.6656 23.8084 26.6641 23.8087 26.664 23.8085C26.6639 23.808 26.6641 23.806 26.664 23.8052C26.6632 23.7765 26.6841 23.6217 26.6841 23.6217C27.2101 23.309 28.1659 23.0161 28.6717 23.0113L28.6717 23.0113ZM24.7653 23.8919C24.7687 23.8919 24.7718 23.8919 24.7754 23.8919C25.4354 23.9627 25.6819 24.2084 25.7516 24.3072C25.62 24.5368 24.5769 24.0218 24.6865 23.9119C24.6991 23.9008 24.7249 23.8927 24.7653 23.8919L24.7653 23.8919ZM28.5476 23.9353C28.5738 23.9342 28.5978 23.9396 28.6147 23.9503C28.6216 23.9549 28.6285 23.9615 28.6332 23.9686C28.6395 23.9789 28.6438 23.9927 28.6449 24.0087C28.576 24.1146 28.2194 24.0683 28.1971 24.0654C28.215 24.059 28.4209 23.9401 28.5476 23.9353H28.5476ZM27.1337 24.6491C27.1826 24.6471 27.2233 24.652 27.2461 24.6658C27.2488 24.6675 27.2523 24.6703 27.2544 24.6724C27.2551 24.6731 27.2572 24.675 27.2578 24.6758C27.2587 24.6769 27.2604 24.6795 27.2612 24.6808C27.2618 24.682 27.2623 24.6844 27.2628 24.6858C27.267 24.6982 27.2654 24.7155 27.2545 24.7358C27.1509 24.9289 26.6976 24.8576 26.6976 24.8576V24.7225C26.6977 24.7225 26.6992 24.7224 26.6993 24.7225C26.7248 24.7246 26.9746 24.6556 27.1337 24.6491L27.1337 24.6491ZM24.4634 25.1578C24.6029 25.1508 24.7248 25.2417 24.8526 25.3145C25.1373 25.2566 25.7214 25.3596 25.7214 25.3596V25.6164C25.7214 25.6166 25.7201 25.6179 25.7197 25.6181C25.7195 25.6182 25.7184 25.618 25.718 25.6181C25.6649 25.6273 24.9803 25.5975 24.8274 25.5013C24.7027 25.5013 24.3497 25.3161 24.3225 25.2211C24.3223 25.2203 24.321 25.2186 24.3209 25.2178C24.3206 25.2166 24.321 25.214 24.3209 25.2128C24.3208 25.212 24.3208 25.2102 24.3209 25.2095C24.3209 25.2088 24.3207 25.2068 24.3209 25.2061C24.3209 25.2058 24.3208 25.2048 24.3209 25.2045C24.321 25.2038 24.3223 25.2018 24.3225 25.2011C24.3227 25.2008 24.3224 25.1998 24.3225 25.1995C24.3713 25.1736 24.4189 25.16 24.4634 25.1578L24.4634 25.1578ZM27.4574 25.2845C27.5645 25.2788 27.6099 25.3117 27.5262 25.4296C27.2933 25.7577 26.6909 25.6231 26.6909 25.6231L26.6657 25.4196C26.8782 25.4279 27.2665 25.2947 27.4574 25.2845L27.4574 25.2845ZM25.2065 25.9499C25.45 25.9387 25.7147 26.035 25.7147 26.035C25.7209 26.0474 25.8456 26.2917 25.7348 26.3736C25.7307 26.3765 25.7262 26.3794 25.7214 26.3819C25.5855 26.4527 24.936 26.3266 24.8979 26.0667C24.9743 25.9865 25.0875 25.9555 25.2065 25.9499H25.2065ZM22.6956 26.0767C22.9183 26.0634 23.1671 26.1999 23.1954 26.2135C23.1958 26.2136 23.1969 26.2134 23.1971 26.2135C23.1971 26.2212 23.1887 26.4603 23.1887 26.4603C23.1887 26.4603 22.7477 26.3381 22.6083 26.0917C22.6363 26.0841 22.6661 26.0785 22.6955 26.0767H22.6956ZM26.9375 26.1101C27.1859 26.1085 27.4861 26.1665 27.5296 26.2502C27.5378 26.2673 27.5353 26.2861 27.5195 26.3052C27.3965 26.4531 26.6976 26.3185 26.6976 26.3185V26.1384C26.7598 26.1203 26.8455 26.1106 26.9375 26.1101L26.9375 26.1101Z" fill="#1C6864"/>
<rect x="34" y="-4" width="16" height="49" fill="#1C6864"/>
</g>
<path d="M11.7035 1.61228C6.53056 2.04084 2.23921 5.77712 1.57724 11.0101C1.25164 13.5841 1 16.6548 1 20C1 23.3452 1.25164 26.4159 1.57724 28.9899C2.23922 34.2229 6.53056 37.9592 11.7035 38.3877C15.5784 38.7087 20.5852 39 26 39C31.4148 39 36.4216 38.7087 40.2965 38.3877C45.4694 37.9592 49.7608 34.2229 50.4228 28.9899C50.7484 26.4159 51 23.3452 51 20C51 16.6548 50.7484 13.5841 50.4228 11.0101C49.7608 5.77712 45.4694 2.04084 40.2965 1.61228C36.4216 1.29127 31.4148 1 26 1C20.5852 1 15.5784 1.29127 11.7035 1.61228Z" stroke="#E6E6FA" stroke-width="2"/>
</svg>
