<svg width="52" height="40" viewBox="0 0 52 40" fill="none" xmlns="http://www.w3.org/2000/svg">
<mask id="mask0_1_41803" style="mask-type:alpha" maskUnits="userSpaceOnUse" x="2" y="2" width="48" height="36">
<path d="M2.56934 11.1356C3.16681 6.41247 7.0415 3.00193 11.7861 2.60887C15.6412 2.28949 20.6196 2 26 2C31.3804 2 36.3588 2.28949 40.2139 2.60887C44.9585 3.00193 48.8332 6.41247 49.4307 11.1356C49.752 13.6759 50 16.704 50 20C50 23.296 49.752 26.3241 49.4307 28.8644C48.8332 33.5875 44.9585 36.9981 40.2139 37.3911C36.3588 37.7105 31.3804 38 26 38C20.6196 38 15.6412 37.7105 11.7861 37.3911C7.0415 36.9981 3.16681 33.5875 2.56934 28.8644C2.248 26.3241 2 23.296 2 20C2 16.704 2.248 13.6759 2.56934 11.1356Z" fill="#00D0BF"/>
</mask>
<g mask="url(#mask0_1_41803)">
<rect x="2" y="26" width="48" height="12" fill="#3F6FEB"/>
<rect x="2" y="14" width="48" height="12" fill="white"/>
<path d="M21 19.9622L21.5544 19.9993C21.5562 19.9723 21.5579 19.9453 21.5598 19.9183L21.3418 19.9037C21.3473 19.8147 21.3547 19.7257 21.3587 19.6365C21.4358 19.5807 21.513 19.5251 21.5898 19.4689L21.5967 19.3662L21.3529 19.5432C21.3447 19.4856 21.3128 19.4262 21.2549 19.4061C21.2042 19.3878 21.142 19.3846 21.0981 19.4208C21.0423 19.4618 21.0323 19.5352 21.0251 19.599C21.0153 19.72 21.0086 19.8412 21 19.9622ZM21.0844 19.8866C21.0911 19.7956 21.0952 19.7043 21.1039 19.6136C21.1108 19.5687 21.119 19.5168 21.1583 19.4882C21.1939 19.4646 21.2463 19.4822 21.2609 19.5223C21.2899 19.5916 21.277 19.668 21.2733 19.7406L21.2627 19.8985C21.2033 19.8946 21.1438 19.8906 21.0844 19.8866H21.0844ZM21.0722 19.111L21.6132 19.2373L21.7361 18.7107L21.6593 18.6927L21.5547 19.1407L21.39 19.1022L21.4842 18.6986L21.4077 18.6807L21.3135 19.0844L21.1678 19.0503L21.2684 18.6192L21.1912 18.6012L21.0722 19.111ZM21.2671 18.3845L21.7918 18.567L21.8184 18.4903L21.6121 18.4185C21.639 18.3391 21.6685 18.2606 21.6933 18.1805C21.7111 18.1151 21.7248 18.0387 21.6863 17.9779C21.6551 17.933 21.5995 17.9042 21.5446 17.9059C21.4842 17.9085 21.4349 17.953 21.4081 18.0045C21.3684 18.0791 21.3462 18.1611 21.3173 18.2401L21.2671 18.3845ZM21.3684 18.3338C21.3966 18.2551 21.4219 18.1753 21.4523 18.0975C21.4712 18.0558 21.4943 18.0065 21.5422 17.9933C21.5815 17.9842 21.6228 18.0145 21.6262 18.0548C21.6358 18.1291 21.6034 18.1991 21.5806 18.268L21.5373 18.3925L21.3684 18.3338ZM21.5569 17.7125C21.6558 17.7698 21.7539 17.8287 21.8534 17.8851C21.9096 17.9152 21.9807 17.9325 22.0394 17.8987C22.1194 17.8544 22.1696 17.7726 22.2088 17.6927C22.2399 17.6255 22.2623 17.542 22.2228 17.4733C22.1803 17.4047 22.1031 17.3731 22.0371 17.3322L21.8451 17.2198L21.8043 17.2895C21.8984 17.345 21.9932 17.3992 22.0868 17.4554C22.1317 17.4827 22.1688 17.5321 22.1611 17.587C22.1522 17.6525 22.1148 17.7098 22.0776 17.7628C22.0468 17.8056 21.9952 17.8402 21.9403 17.8286C21.8832 17.8177 21.8367 17.7803 21.7865 17.7532L21.5976 17.6427L21.5569 17.7125ZM21.9571 17.0585L22.3983 17.3961C22.4667 17.3067 22.5349 17.2171 22.6039 17.1281C22.6434 17.0713 22.6799 16.9976 22.6531 16.9279C22.6287 16.8725 22.5717 16.8296 22.5104 16.8268C22.4828 16.8229 22.4468 16.8438 22.4319 16.8531C22.4476 16.7938 22.3991 16.7382 22.3446 16.7225C22.2789 16.6992 22.2123 16.7413 22.1688 16.788C22.1177 16.8436 22.0751 16.9062 22.0283 16.9655L21.9571 17.0585ZM22.0689 17.042C22.1206 16.9758 22.1695 16.9075 22.2236 16.8433C22.2487 16.8153 22.2891 16.7836 22.3281 16.8041C22.3637 16.8195 22.3724 16.8644 22.3554 16.8967C22.3285 16.9545 22.284 17.0013 22.2469 17.0525L22.1863 17.1317L22.0689 17.042ZM22.2487 17.1795C22.3023 17.111 22.3528 17.0399 22.4093 16.9738C22.4382 16.9436 22.4744 16.9055 22.5202 16.9142C22.5594 16.9232 22.5878 16.9657 22.5743 17.0051C22.5523 17.0778 22.4979 17.1335 22.4541 17.1938L22.3852 17.2839L22.2487 17.1795ZM22.4573 16.4692L22.8388 16.8731L23.1656 16.5643L23.1114 16.5069L22.85 16.7539L22.8433 16.7602L22.8384 16.7551L22.5159 16.4138L22.4573 16.4692ZM22.9464 16.0413L23.285 16.4817L23.3511 16.4309L23.0124 15.9905L22.9464 16.0413ZM23.4439 15.7034C23.3891 15.7376 23.3448 15.7776 23.3107 15.8243C23.2768 15.8708 23.2584 15.9193 23.2558 15.97C23.2532 16.0206 23.2667 16.0696 23.2965 16.1176C23.3233 16.1609 23.3612 16.1963 23.4063 16.22C23.4518 16.2444 23.5011 16.2534 23.5549 16.2474C23.6086 16.2414 23.6691 16.2177 23.7366 16.1756C23.8013 16.1353 23.8472 16.0888 23.8755 16.0354C23.9026 15.9841 23.9102 15.9296 23.8986 15.8716L23.8218 15.9018C23.8419 16.0128 23.7703 16.0661 23.6901 16.117C23.5646 16.1933 23.4423 16.1878 23.3674 16.0731C23.2898 15.9438 23.3747 15.837 23.4814 15.7676C23.5572 15.7203 23.6318 15.688 23.7029 15.7332L23.7631 15.6797C23.7217 15.6511 23.6746 15.6379 23.6211 15.6408C23.5649 15.6439 23.5062 15.6646 23.4439 15.7034ZM24.1004 15.3758L24.0423 15.9983L24.1288 15.9635L24.1463 15.7705L24.1466 15.7703L24.4276 15.657L24.5741 15.7838L24.6606 15.749L24.1869 15.3409L24.1004 15.3758H24.1004ZM24.1764 15.4396L24.3612 15.5995L24.1543 15.6829L24.1764 15.4396V15.4396ZM25.3181 15.0323L25.3528 15.5868C25.4531 15.5801 25.5534 15.5753 25.6536 15.5671C25.7323 15.558 25.8168 15.5376 25.8707 15.4748C25.9402 15.3978 25.9501 15.2826 25.9196 15.1866C25.8941 15.1022 25.8181 15.0382 25.7321 15.022C25.6474 15.0057 25.5611 15.0186 25.4758 15.0225L25.3181 15.0323ZM25.4037 15.1061C25.4834 15.1019 25.5631 15.0941 25.6431 15.0936C25.6886 15.0921 25.7333 15.1058 25.7702 15.1326C25.8257 15.1706 25.8584 15.239 25.8511 15.3062C25.8471 15.3834 25.7903 15.4545 25.7153 15.474C25.6724 15.4851 25.6277 15.4882 25.5838 15.4931L25.4284 15.5028L25.4036 15.1061L25.4037 15.1061ZM26.0924 14.9995L26.0608 15.5542L26.6006 15.585L26.6051 15.5062C26.452 15.4975 26.2989 15.4887 26.1458 15.48C26.1491 15.4237 26.1523 15.3675 26.1555 15.3111L26.5693 15.3348L26.5738 15.2564C26.4359 15.2485 26.2979 15.2406 26.1599 15.2327L26.1685 15.0833C26.3158 15.0917 26.4632 15.1002 26.6105 15.1086L26.6151 15.0294L26.0924 14.9995ZM27.543 15.231L27.3421 15.7489L27.4136 15.7767L27.5728 15.366L27.5811 15.3446L27.59 15.3683L27.7816 15.9193L27.8751 15.9556L28.076 15.4377L28.0043 15.4099L27.8452 15.8204L27.8371 15.8413L27.8283 15.8179L27.6364 15.2672L27.543 15.231ZM28.2893 15.5516L28.0368 16.0464L27.9626 16.0085L28.2151 15.5137L28.2893 15.5516ZM28.7084 15.7971C28.6544 15.7615 28.5996 15.7379 28.5429 15.7265C28.4866 15.715 28.4348 15.7186 28.3877 15.7373C28.3405 15.756 28.3016 15.7887 28.2704 15.8359C28.2423 15.8783 28.2259 15.9275 28.2232 15.9784C28.2201 16.03 28.2323 16.0784 28.2603 16.1249C28.2881 16.1711 28.335 16.2163 28.4013 16.26C28.465 16.3021 28.5263 16.3243 28.5867 16.3278C28.6447 16.331 28.6973 16.3152 28.7452 16.2805L28.6857 16.2232C28.5932 16.2878 28.5149 16.245 28.4352 16.1933C28.3135 16.1111 28.2674 15.9977 28.3404 15.8818C28.4256 15.7572 28.5581 15.7898 28.6657 15.8579C28.7403 15.9071 28.8008 15.9614 28.7893 16.0449L28.8631 16.0772C28.8718 16.0276 28.8642 15.9794 28.8392 15.932C28.8129 15.8822 28.7696 15.8375 28.7084 15.7971ZM29.2373 16.1961L28.6566 16.4277L28.7271 16.4888L28.9068 16.4166L28.9071 16.4168L29.1359 16.6155L29.0897 16.8036L29.1601 16.8648L29.3078 16.2572L29.2373 16.1961V16.1961ZM29.2151 16.2928L29.1569 16.53L28.9884 16.3838L29.2151 16.2928ZM29.6569 16.5821L29.2283 16.9356L29.2799 16.9982L29.4485 16.8591C29.5056 16.9277 29.5612 16.9976 29.6196 17.0651C29.6017 17.1586 29.5838 17.2521 29.5664 17.3456L29.6319 17.4251L29.6878 17.129C29.7358 17.1683 29.8059 17.1881 29.8633 17.1569C29.9127 17.1336 29.9561 17.0887 29.9587 17.0315C29.9647 16.9549 29.9101 16.8928 29.8663 16.836C29.7966 16.7513 29.7267 16.6667 29.6569 16.5821ZM29.6475 16.6951C29.7075 16.7692 29.7705 16.841 29.8278 16.9172C29.8542 16.9565 29.8872 17.0117 29.8569 17.0576C29.8319 17.0969 29.7772 17.0935 29.7436 17.068C29.6756 17.0222 29.6306 16.9521 29.5775 16.8911L29.5096 16.8087L29.6475 16.6951ZM30.3068 17.4662L29.6822 17.4948L29.7288 17.5757L29.9223 17.5663L29.9225 17.5666L30.0736 17.8292L29.9683 17.9919L30.0148 18.0727L30.3533 17.5471L30.3068 17.4662ZM30.2542 17.5503L30.1214 17.7554L30.0102 17.5621L30.2542 17.5504V17.5503ZM30.6633 18.2016C30.6286 18.1073 30.5738 18.0108 30.4811 17.9637C30.3779 17.9119 30.2406 17.9371 30.1675 18.0279C30.1038 18.1035 30.1005 18.2102 30.1175 18.303C30.1376 18.4096 30.1865 18.511 30.2599 18.5911L30.2184 18.606L30.245 18.68L30.5052 18.5865L30.404 18.3054L30.3439 18.3271L30.4183 18.5342L30.3302 18.5658C30.2524 18.499 30.2091 18.4003 30.1865 18.3021C30.1698 18.2283 30.1691 18.14 30.225 18.0821C30.2892 18.0153 30.4029 17.9946 30.4798 18.0515C30.5558 18.1071 30.5987 18.1971 30.6203 18.2867C30.6351 18.3456 30.6327 18.4156 30.5881 18.4615C30.5756 18.4708 30.5953 18.4839 30.5987 18.4951L30.6199 18.5302C30.6434 18.5117 30.6623 18.4881 30.6753 18.4612C30.6882 18.4343 30.6948 18.4047 30.6946 18.3748C30.6962 18.3157 30.6832 18.2571 30.6633 18.2016ZM30.8228 18.6355L30.5121 18.6959C30.4545 18.7071 30.4113 18.7253 30.3824 18.7497C30.3537 18.774 30.3352 18.8081 30.3264 18.8536C30.3176 18.8986 30.3188 18.9538 30.3318 19.0208C30.3319 19.0214 30.332 19.0219 30.3321 19.0225C30.3452 19.0895 30.3647 19.1411 30.3898 19.1795C30.4151 19.2184 30.4449 19.2432 30.4807 19.2548C30.5165 19.2666 30.5634 19.2673 30.6211 19.2561L30.9318 19.1957L30.9164 19.1164L30.6132 19.1754C30.4771 19.2018 30.4312 19.1302 30.4078 19.0077L30.4076 19.0061C30.3833 18.8838 30.3989 18.8002 30.5351 18.7737L30.8383 18.7147L30.8228 18.6355ZM30.9933 19.581L30.4184 19.3352L30.4251 19.4282L30.6036 19.5039V19.5043L30.6254 19.8065L30.4598 19.9071L30.4666 20.0002L31 19.6741L30.9933 19.581ZM30.9093 19.6338L30.7006 19.7608L30.6844 19.5383L30.9093 19.6339V19.6338ZM21.4307 21.0181L21.3501 21.0393L21.4392 21.3778L21.5197 21.3566L21.4307 21.0181ZM30.5713 21.0181L30.6518 21.0393L30.5628 21.3778L30.4822 21.3566L30.5713 21.0181ZM22.2898 22.4433L21.6687 22.5148L21.7207 22.5923L21.9131 22.5696L21.9133 22.5699L22.0822 22.8216L21.9882 22.991L22.0402 23.0685L22.3418 22.5208L22.2898 22.4433ZM22.2431 22.5309L22.1247 22.7446L22.0004 22.5594L22.2431 22.5309ZM22.5276 22.7827L22.1317 23.153L22.1846 23.2096L22.5182 22.8975L22.3432 23.3792L22.4038 23.444L22.8822 23.2988L22.5546 23.6052L22.6074 23.6617L23.0033 23.2915L22.9231 23.2056L22.4369 23.3508L22.6189 22.8803L22.5276 22.7827ZM23.1043 23.3711L22.7701 23.8149L23.2021 24.1402L23.2496 24.0771L22.8821 23.8005L22.9838 23.6653L23.3149 23.9147L23.3622 23.852L23.0311 23.6026L23.1211 23.4831L23.4748 23.7494L23.5226 23.6861L23.1043 23.3711ZM23.6479 23.769L23.3862 24.2591C23.4101 24.2719 23.434 24.2846 23.4578 24.2973L23.5607 24.1046C23.6396 24.1462 23.7177 24.1896 23.7974 24.2298C23.8165 24.323 23.8356 24.4163 23.8551 24.5095L23.9459 24.5579L23.8848 24.2629C23.9442 24.281 24.0166 24.2725 24.0577 24.2218C24.0927 24.1826 24.1165 24.1277 24.0997 24.0751C24.0802 24.0027 24.0089 23.9648 23.9488 23.9297C23.8486 23.8759 23.7481 23.8226 23.6479 23.769ZM23.6822 23.877C23.7659 23.9227 23.8515 23.9651 23.9336 24.0137C23.9716 24.0394 24.0198 24.0745 24.0151 24.1263C24.0108 24.1717 23.9618 24.196 23.9204 24.1863C23.8393 24.1729 23.771 24.1246 23.6988 24.0885L23.598 24.0347L23.6822 23.877ZM24.2754 24.0971L24.0654 24.6115L24.1427 24.6429L24.3526 24.1286L24.2754 24.0971ZM24.7764 24.2701C24.715 24.2497 24.656 24.2412 24.5983 24.2448C24.5408 24.2485 24.4918 24.2653 24.4511 24.2957C24.4104 24.326 24.3813 24.3677 24.3636 24.4213C24.3474 24.4696 24.3444 24.5214 24.3549 24.5712C24.3653 24.6218 24.3897 24.6655 24.4288 24.7031C24.4677 24.7405 24.5246 24.772 24.6 24.797C24.6724 24.821 24.7375 24.8266 24.7967 24.8142C24.8534 24.8023 24.9002 24.7734 24.9374 24.7274L24.8652 24.6875C24.7926 24.774 24.7058 24.753 24.6154 24.7237C24.4766 24.676 24.4027 24.5784 24.4431 24.4475C24.4929 24.3051 24.6293 24.3022 24.7509 24.34C24.8357 24.3681 24.9083 24.4048 24.9189 24.4885L24.9985 24.5005C24.9941 24.4503 24.9742 24.4057 24.9377 24.3665C24.8994 24.3252 24.846 24.2932 24.7764 24.2701ZM25.3349 24.3952L24.9716 24.9041L25.0639 24.9174L25.1761 24.7593H25.1765L25.4764 24.8028L25.5392 24.9861L25.6315 24.9995L25.4273 24.4085L25.3349 24.3952ZM25.3686 24.4885L25.4478 24.7196L25.2271 24.6877L25.3686 24.4886V24.4885ZM26.6372 24.3991C26.5737 24.4113 26.5181 24.4328 26.4696 24.4642C26.4212 24.4955 26.3867 24.5342 26.3661 24.5806C26.3455 24.6269 26.3405 24.6776 26.3512 24.733C26.3607 24.7831 26.3834 24.8297 26.417 24.868C26.4508 24.9071 26.4935 24.9331 26.546 24.9468C26.5982 24.9604 26.6632 24.9599 26.7413 24.9448C26.8162 24.9304 26.8756 24.9035 26.9212 24.8637C26.9649 24.8255 26.9916 24.7773 27.0014 24.7191L26.9189 24.7196C26.8979 24.8306 26.812 24.8547 26.7189 24.8735C26.5744 24.8998 26.4622 24.8508 26.4333 24.7169C26.4071 24.5683 26.5247 24.499 26.6492 24.4725C26.7369 24.4555 26.8182 24.4521 26.8683 24.5198L26.9437 24.4913C26.9152 24.4498 26.8761 24.4206 26.8251 24.4042C26.7714 24.387 26.7092 24.3852 26.6372 24.3991ZM27.0082 24.3334L27.1662 24.866L27.6846 24.7122L27.6622 24.6365L27.2212 24.7673L27.1731 24.6052L27.5705 24.4873L27.5482 24.4121L27.1508 24.53L27.1082 24.3865L27.5327 24.2606L27.5101 24.1845L27.0082 24.3334ZM27.6092 24.1445L27.8424 24.6487L27.912 24.6165L27.7175 24.196C27.8973 24.2776 28.0761 24.3616 28.2555 24.444C28.2674 24.4544 28.2794 24.4475 28.2914 24.4411L28.3613 24.4087L28.1281 23.9045L28.0584 23.9367L28.2527 24.3567C28.068 24.273 27.8843 24.1871 27.7001 24.1025L27.6092 24.1445ZM28.2193 23.858L28.2628 23.9241L28.4612 23.7935L28.4688 23.7885L28.4725 23.7942L28.7307 24.1865L28.7981 24.1421L28.5399 23.7498L28.5362 23.7441L28.5439 23.7391L28.7433 23.6078L28.6998 23.5417L28.2193 23.858ZM28.7783 23.4752L29.1548 23.8838L29.2145 23.8288L29.0664 23.6681C29.1317 23.6073 29.1984 23.548 29.2626 23.486C29.3569 23.4986 29.4513 23.5113 29.5457 23.5236L29.6213 23.4539L29.3227 23.4143C29.3593 23.3642 29.3752 23.2931 29.3409 23.2375C29.3149 23.1896 29.2677 23.1486 29.2104 23.1492C29.1337 23.1475 29.0747 23.2054 29.0203 23.2522C28.9397 23.3265 28.8589 23.401 28.7783 23.4752ZM28.8916 23.4784C28.9623 23.4145 29.0305 23.3476 29.1035 23.2862C29.1413 23.2576 29.1946 23.2217 29.2422 23.2494C29.2827 23.2722 29.2823 23.3271 29.2587 23.362C29.2167 23.4325 29.149 23.4812 29.0911 23.5377L29.0127 23.6099L28.8916 23.4784ZM29.4246 22.8283L29.6731 23.402L29.7322 23.3298L29.6547 23.1522L29.6549 23.1519L29.8467 22.9174L30.0362 22.9582L30.0953 22.886L29.4836 22.7561L29.4246 22.8283V22.8283ZM29.5219 22.8477L29.7608 22.899L29.6196 23.0716L29.5219 22.8477ZM29.6666 22.5136L30.1327 22.8158L30.3773 22.4386L30.3111 22.3957L30.1154 22.6974L30.1104 22.7052L30.1045 22.7013L29.7105 22.4458L29.6666 22.5136Z" fill="#C8A400"/>
<path d="M26 15.911L24.2512 18.9408L23.3945 20.4242H28.6055L27.7881 19.0084L26.0001 15.911H26Z" fill="#75AAFA"/>
<path opacity="0.62" d="M26 15.911L25.8691 16.1378L26 19.1921L26.131 16.1378L26 15.911Z" fill="#17C0EB" stroke="#17C0EB" stroke-width="0.00716667"/>
<path d="M26 18.748L25.9926 18.7482L26 18.921L26.0074 18.7482L26 18.748Z" fill="white"/>
<path d="M26 18.1019C25.4091 18.1011 24.8378 18.3131 24.3906 18.6992L23.5763 20.1106C23.5483 20.2618 23.5344 20.4152 23.5347 20.5689H23.8142C23.8142 19.3619 24.793 18.3832 26 18.3832C27.207 18.3832 28.1857 19.3619 28.1857 20.5689H28.4652C28.4652 20.4127 28.4513 20.2588 28.4236 20.1106L27.6093 18.6992C27.1621 18.3132 26.5908 18.1011 26 18.1019Z" fill="#FF0000"/>
<path d="M26 18.1471C25.3464 18.1471 24.7533 18.4068 24.3177 18.8277L23.6493 19.9856C23.602 20.1765 23.5781 20.3724 23.5781 20.569H23.8142C23.8142 19.362 24.793 18.3832 26 18.3832C27.207 18.3832 28.1857 19.362 28.1857 20.569H28.4218C28.4218 20.3676 28.397 20.171 28.3507 19.9839L27.6823 18.8277C27.2467 18.4069 26.6535 18.1471 26 18.1471Z" fill="#FF6600"/>
<path d="M26 18.1923C25.2943 18.1923 24.6611 18.499 24.2256 18.9874L23.7413 19.8259C23.6627 20.0658 23.6228 20.3166 23.6232 20.569H23.8142C23.8142 19.362 24.793 18.3832 26 18.3832C27.207 18.3832 28.1857 19.362 28.1857 20.569H28.3767C28.3767 20.3094 28.3356 20.0598 28.2586 19.8259L27.7742 18.9873C27.3389 18.4991 26.7055 18.1922 25.9999 18.1922L26 18.1923Z" fill="#FFFF00"/>
<path d="M26 18.2356C25.1916 18.2356 24.4793 18.6475 24.0607 19.2721L23.9045 19.5429C23.7476 19.8622 23.6663 20.2133 23.6666 20.569H23.8142C23.8142 19.362 24.7929 18.3832 25.9999 18.3832C27.207 18.3832 28.1857 19.362 28.1857 20.569H28.3333C28.3333 20.2138 28.252 19.8635 28.0955 19.5447L27.9375 19.2704C27.5188 18.6467 26.8076 18.2357 26 18.2357V18.2356Z" fill="#00FF00"/>
<path d="M26 18.2808C24.7362 18.2808 23.7117 19.3052 23.7117 20.569H23.8142C23.8142 19.3619 24.793 18.3832 26 18.3832C27.207 18.3832 28.1857 19.3619 28.1857 20.569H28.2882C28.2882 19.3052 27.2637 18.2808 26 18.2808Z" fill="#00CCFF"/>
<path d="M26 18.3242C24.7607 18.3242 23.7569 19.3297 23.7569 20.569H23.8316C23.8316 19.3712 24.8022 18.4006 26 18.4006C27.1977 18.4006 28.1683 19.3712 28.1683 20.569H28.2447C28.2447 19.3297 27.2392 18.3242 26 18.3242Z" fill="#0000FF"/>
<path d="M26 18.3694C24.7853 18.3694 23.8006 19.3541 23.8006 20.5687C23.8006 20.5824 23.8008 20.596 23.801 20.6095H23.8455C23.8452 20.5959 23.8451 20.5823 23.8451 20.5687C23.8451 19.3786 24.8099 18.4139 26 18.4139C27.1901 18.4139 28.1549 19.3786 28.1549 20.5687C28.1549 20.5824 28.1548 20.596 28.1545 20.6095H28.1988C28.199 20.596 28.1992 20.5824 28.1992 20.5687C28.1992 19.3541 27.2147 18.3694 26 18.3694Z" fill="#800080"/>
<path d="M26.0219 19.3403C25.9862 19.3334 25.9538 19.3134 25.9233 19.3064C25.8813 19.3466 25.8769 19.3873 25.8827 19.4219C25.8973 19.4297 25.8999 19.4415 25.9315 19.4697C25.9631 19.4979 25.9591 19.5126 25.9572 19.5789C25.9563 19.6068 25.9611 19.6667 25.9893 19.6723C26.0198 19.6784 26.0411 19.6531 26.0499 19.6079C26.0583 19.564 26.0731 19.5403 26.0887 19.5133C26.1057 19.4104 26.0779 19.374 26.0219 19.3403Z" fill="#510000"/>
<path d="M25.8435 19.0841C25.8104 19.085 25.7586 19.1403 25.7355 19.1105C25.7223 19.0934 25.72 19.0604 25.7335 19.0327C25.7645 18.9688 25.7959 18.9374 25.8539 18.9033C25.986 18.8255 26.07 18.8505 26.1358 18.9623C26.1968 19.0608 26.2553 19.1696 26.2605 19.2607C26.2622 19.2886 26.2763 19.339 26.2519 19.3641C26.177 19.4413 25.9965 19.2843 25.8909 19.3092C25.8554 19.3175 25.8144 19.3435 25.7809 19.3213C25.7548 19.3041 25.7766 19.2659 25.796 19.2494C25.83 19.2205 25.8794 19.118 25.8727 19.0736C25.869 19.0488 25.8683 19.0835 25.8435 19.0841Z" fill="#FF0000"/>
<path d="M25.8293 19.0299C25.7691 19.0547 25.7756 19.0897 25.7454 19.1183C25.754 19.1215 25.788 19.1355 25.8212 19.1016C25.8355 19.0897 25.8516 19.0853 25.8588 19.0814C25.8419 19.0937 25.8298 19.1122 25.8208 19.1194C25.7984 19.1377 25.7634 19.1796 25.7464 19.222C25.7293 19.2644 25.7225 19.3149 25.7255 19.321C25.7286 19.3271 25.7491 19.3643 25.8125 19.3894C25.9253 19.4343 25.9468 19.5249 26.0612 19.5249C26.1509 19.5249 26.1365 19.4663 26.2082 19.4787C26.2704 19.4895 26.3034 19.4401 26.2435 19.4103C26.1674 19.3843 26.0162 19.3996 25.9451 19.4121C25.9221 19.1853 25.942 19.2649 25.9366 19.1674C25.9313 19.0699 25.902 19.0641 25.9406 18.9851C25.9085 19.0336 25.8697 19.0259 25.8293 19.0299Z" fill="url(#paint0_linear_1_41803)"/>
<path d="M26.0521 18.877C26.0499 18.8894 26.0478 18.9056 26.049 18.9103C26.0538 18.9291 26.0587 18.9488 26.0644 18.9655C26.0708 18.9842 26.0734 18.9978 26.0778 19.0171C26.0823 19.0371 26.1 19.0449 26.1163 19.0572C26.1369 19.0728 26.121 19.1148 26.1338 19.1166C26.144 19.118 26.1609 19.057 26.161 19.0473C26.1614 19.0353 26.1607 19.0233 26.159 19.0114C26.1516 18.995 26.1437 18.9788 26.1353 18.9629C26.1352 18.9627 26.1349 18.9626 26.1348 18.9624C26.1315 18.9561 26.1279 18.9501 26.124 18.9442C26.1118 18.9263 26.0971 18.9101 26.0804 18.8963L26.0773 18.8936C26.0726 18.8901 26.0678 18.8864 26.0629 18.8833C26.0594 18.881 26.0557 18.879 26.0521 18.877Z" fill="#FF2A2A"/>
<path d="M26.0694 19.2994C26.0295 19.2889 25.9902 19.2692 25.9562 19.2591C25.8896 19.2391 25.8185 19.1961 25.7692 19.2139C25.7516 19.2216 25.7532 19.2392 25.7476 19.2644C25.7452 19.294 25.7145 19.3378 25.74 19.3234C25.7781 19.3021 25.8783 19.3641 25.912 19.3849C25.9279 19.3947 25.9615 19.414 25.9721 19.4416C25.9826 19.4693 25.9772 19.5392 25.9743 19.5692C25.9714 19.6006 25.981 19.6711 26.0125 19.6796C26.0464 19.6886 26.0723 19.6616 26.0856 19.6113C26.0983 19.5623 26.1081 19.5342 26.1276 19.5049C26.1472 19.4755 26.1696 19.4629 26.201 19.4569C26.2323 19.451 26.2777 19.4826 26.2777 19.4456C26.2777 19.4214 26.2564 19.3981 26.2655 19.3649C26.2726 19.3386 26.2432 19.3439 26.2187 19.3331C26.1612 19.3154 26.1093 19.3098 26.0694 19.2994Z" fill="url(#paint1_linear_1_41803)"/>
<path d="M25.9091 19.3829C25.8909 19.373 25.7805 19.3008 25.74 19.3234C25.7272 19.3305 25.7224 19.3225 25.7222 19.3091C25.722 19.2958 25.7283 19.2761 25.7325 19.261C25.7366 19.2459 25.7433 19.217 25.7611 19.202C25.7993 19.1698 25.8872 19.234 25.9338 19.2513C25.9298 19.2755 25.9077 19.3821 25.9091 19.3829Z" fill="#910000"/>
<path d="M26.098 19.5195C26.1489 19.4305 26.1817 19.4419 26.2431 19.4432C26.2636 19.4437 26.2696 19.4249 26.265 19.4062C26.2495 19.4408 26.1726 19.4023 26.1308 19.4208C26.0434 19.4592 26.0597 19.6302 26.0182 19.6469C26.0613 19.683 26.0806 19.5499 26.098 19.5195Z" fill="#FF3A3A"/>
<path d="M23.3946 20.4242L22.8416 21.3818H29.1587L28.6056 20.4242H23.3946Z" fill="white"/>
<path d="M23.2058 21.1864C23.1137 21.1864 23.0282 21.1957 22.9442 21.206L22.9172 21.253C23.0523 21.241 23.1781 21.217 23.3138 21.2136C23.4968 21.2181 23.6629 21.2597 23.8575 21.2597C23.9418 21.2605 24.0257 21.2581 24.109 21.2597C24.3034 21.2597 24.4695 21.2181 24.6525 21.2136C24.8355 21.2181 25.0027 21.2597 25.1971 21.2597C25.2814 21.26 25.3736 21.2584 25.4487 21.2597C25.6432 21.2597 25.8084 21.2181 25.9912 21.2136C26.1742 21.2181 26.3396 21.2597 26.534 21.2597C26.619 21.2605 26.7025 21.2581 26.7863 21.2597C26.9808 21.2597 27.1469 21.2181 27.3301 21.2136C27.5132 21.2181 27.679 21.2597 27.8735 21.2597C27.9577 21.2605 28.0419 21.2581 28.1252 21.2597C28.3196 21.2597 28.4849 21.2181 28.6677 21.2136C28.8093 21.2171 28.941 21.2424 29.0836 21.2539L29.055 21.2042C28.977 21.1949 28.8975 21.1864 28.8123 21.1864C28.7273 21.1853 28.6436 21.1881 28.5597 21.1864C28.3652 21.1864 28.2 21.228 28.0172 21.2325C27.8341 21.228 27.6681 21.1864 27.4735 21.1864C27.3895 21.1853 27.3052 21.1881 27.2221 21.1864C27.0276 21.1864 26.8613 21.228 26.6784 21.2325C26.4954 21.228 26.3293 21.1864 26.1349 21.1864C26.0503 21.1853 25.9659 21.1881 25.8823 21.1864C25.6878 21.1864 25.5225 21.228 25.3398 21.2325C25.1568 21.228 24.9915 21.1864 24.7971 21.1864C24.7125 21.1852 24.629 21.1881 24.5456 21.1864C24.3511 21.1864 24.1851 21.228 24.002 21.2325C23.819 21.228 23.6529 21.1864 23.4585 21.1864C23.374 21.1853 23.2894 21.1881 23.2058 21.1864Z" fill="url(#paint2_linear_1_41803)"/>
<path d="M23.4016 20.4138L23.3948 20.4258H28.6054L28.5985 20.4138H23.4016ZM23.3895 20.4348L23.3824 20.447H28.6177L28.6106 20.4348H23.3895H23.3895ZM23.3784 20.454L23.367 20.4738H28.6332L28.6218 20.454H23.3783H23.3784ZM23.3607 20.4846L23.3468 20.5087H28.6534L28.6395 20.4846H23.3607V20.4846ZM23.3385 20.523L23.3246 20.5471H28.6755L28.6616 20.523H23.3385ZM23.3164 20.5614L23.3026 20.5853H28.6975L28.6838 20.5614H23.3164ZM23.2943 20.5998L23.2804 20.6237H28.7198L28.7059 20.5998H23.2943ZM23.2704 20.6412L23.2535 20.6706H28.7466L28.7298 20.6412H23.2704ZM23.6309 20.6821C23.8226 20.7189 23.841 20.6821 23.841 20.6821H23.6309ZM28.1589 20.6821C28.1589 20.6821 28.1773 20.7189 28.369 20.6821H28.1589Z" fill="url(#paint3_linear_1_41803)"/>
<path d="M27.7017 19.8352C27.6068 19.8352 27.5777 19.8831 27.5777 19.8831C27.4257 20.4707 26.9218 21.0683 26.3222 21.0683H25.8733V21.6665C25.8733 21.6667 25.8738 21.6665 25.8742 21.6665H29.2907L28.947 21.058C28.4077 20.9775 27.967 20.4261 27.8267 19.8831C27.8267 19.8831 27.7967 19.8352 27.7017 19.8352H27.7017Z" fill="url(#paint4_linear_1_41803)"/>
<path d="M27.7017 19.8587C27.6582 19.8587 27.6317 19.8687 27.6163 19.8785C27.6016 19.8876 27.5988 19.8938 27.5984 19.8945C27.5984 19.8948 27.5976 19.895 27.5975 19.8953C27.5197 20.1911 27.3557 20.4881 27.1345 20.7124C26.9116 20.9385 26.6306 21.0918 26.3231 21.0918H25.8967V21.6431H29.2776L28.962 21.0843C28.7016 21.0503 28.4635 20.9086 28.2699 20.7124C28.0484 20.4881 27.8848 20.1911 27.8069 19.8953L27.806 19.8945C27.8056 19.8938 27.8021 19.8886 27.7872 19.8794C27.7715 19.8696 27.7453 19.8587 27.7017 19.8587Z" fill="#97C924"/>
<path d="M27.7017 19.8587C27.7098 19.8587 27.7172 19.8599 27.7242 19.8606C27.7256 20.0282 27.7242 20.3112 27.7242 20.4607C27.7226 20.5907 27.6781 20.6953 27.6124 20.8185C27.5821 20.9048 27.5577 20.872 27.4819 20.9772C27.3802 21.0136 27.3049 21.0277 27.1964 21.0448C27.0566 21.0669 26.7453 21.0865 26.5916 21.0523C26.7939 20.993 26.9783 20.8707 27.1344 20.7123C27.1762 20.67 27.2157 20.6255 27.2528 20.579C27.3151 20.5007 27.371 20.4174 27.42 20.3301C27.4396 20.2953 27.4581 20.2608 27.4754 20.225C27.5013 20.1713 27.5244 20.1166 27.5448 20.0616C27.5517 20.0432 27.5584 20.0246 27.5646 20.0062C27.5769 19.9693 27.5878 19.9323 27.5975 19.8953C27.5976 19.895 27.5983 19.8948 27.5984 19.8944C27.5987 19.8937 27.6016 19.8876 27.6162 19.8785C27.6238 19.8737 27.6347 19.869 27.6482 19.8653H27.6491C27.6631 19.8616 27.6799 19.8587 27.7017 19.8587Z" fill="#EDE71F"/>
<path d="M27.6632 19.9386C27.6404 20.2738 27.5367 20.6715 27.2941 20.928C27.2049 21.0023 27.0908 21.0697 26.9805 21.0533C27.3566 20.7472 27.5852 20.2785 27.6632 19.9386Z" fill="#C6CB24"/>
<path d="M27.3608 20.5152C27.3052 20.6663 27.0948 20.8899 26.8697 21.0732C26.8058 21.0752 26.7719 21.0788 26.7139 21.0753C26.851 21.0628 27.1707 20.7929 27.3608 20.5152Z" fill="#9ECB34"/>
<path d="M26.1232 19.8835C26.2752 20.471 26.7782 21.0686 27.3778 21.0686H27.8272V21.6669C27.8272 21.667 27.8264 21.6669 27.8263 21.6669H24.171C24.1707 21.6669 24.17 21.667 24.17 21.6669V21.0686H24.6185C25.218 21.0686 25.722 20.471 25.874 19.8835C25.874 19.8835 25.9037 19.8354 25.9987 19.8354C26.0936 19.8354 26.1233 19.8835 26.1233 19.8835H26.1232Z" fill="url(#paint5_linear_1_41803)"/>
<path d="M25.9986 19.8587C26.0422 19.8587 26.0683 19.8696 26.084 19.8794C26.099 19.8886 26.1025 19.8938 26.1029 19.8944L26.1038 19.8953C26.1817 20.191 26.3454 20.488 26.5668 20.7124C26.7899 20.9385 27.0716 21.0918 27.3792 21.0918H27.8036V21.643H24.1936V21.0918H24.62C24.9275 21.0918 25.2085 20.9384 25.4314 20.7123C25.6526 20.488 25.8166 20.191 25.8944 19.8953C25.8945 19.8949 25.8952 19.8948 25.8953 19.8944C25.8957 19.8938 25.8985 19.8876 25.9131 19.8784C25.9287 19.8688 25.955 19.8587 25.9986 19.8587Z" fill="#97C924"/>
<path d="M25.959 19.8623C25.9545 19.8632 25.95 19.8642 25.9456 19.8654H25.9446C25.9334 19.8682 25.9227 19.8726 25.9128 19.8785C25.8981 19.8877 25.8953 19.8937 25.895 19.8944C25.8948 19.8947 25.8941 19.8949 25.894 19.8953C25.8843 19.9323 25.8735 19.9694 25.8611 20.0063C25.855 20.0247 25.8481 20.0432 25.8413 20.0616C25.8208 20.1166 25.7978 20.1713 25.7719 20.225C25.7545 20.2606 25.736 20.2957 25.7165 20.3302C25.6675 20.4175 25.6115 20.5006 25.5492 20.5789C25.5121 20.6255 25.4726 20.67 25.4309 20.7124C25.2748 20.8708 25.0905 20.993 24.8882 21.0523C25.0418 21.0864 25.1122 21.0492 25.252 21.0271C25.3605 21.0099 25.4859 20.9958 25.5877 20.9594C25.6635 20.8542 25.6377 20.8872 25.6681 20.8009C25.7337 20.6777 25.8295 20.5663 25.8533 20.4297C25.9432 20.2618 25.959 19.9512 25.959 19.8623Z" fill="#EDE71F"/>
<path d="M25.9597 19.9385C25.9368 20.2738 25.8332 20.6714 25.5906 20.928C25.5014 21.0023 25.3872 21.0696 25.2769 21.0533C25.653 20.7471 25.8816 20.2784 25.9597 19.9385Z" fill="#C6CB24"/>
<path d="M25.6573 20.5152C25.6017 20.6663 25.3913 20.89 25.1662 21.0732C25.1023 21.0752 25.0684 21.0788 25.0104 21.0753C25.1475 21.0628 25.4672 20.7929 25.6573 20.5152Z" fill="#9ECB34"/>
<path d="M26.0528 19.8653H26.0538C26.0673 19.869 26.078 19.8737 26.0855 19.8784C26.1002 19.8876 26.103 19.8937 26.1034 19.8943C26.1035 19.8947 26.1043 19.8949 26.1044 19.8953C26.1141 19.9323 26.1249 19.9694 26.1373 20.0062C26.1434 20.0247 26.1503 20.0432 26.1571 20.0615C26.1775 20.1165 26.2005 20.1713 26.2265 20.2249C26.2438 20.2608 26.2623 20.2954 26.2819 20.3302C26.3309 20.4175 26.3868 20.5006 26.4492 20.5789C26.4862 20.6254 26.5257 20.67 26.5675 20.7124C26.7236 20.8707 26.9079 21.0149 27.1101 21.0742C26.7076 21.0757 26.533 21.0392 26.3867 20.851C26.2404 20.6629 26.1864 20.5806 26.1567 20.4657C26.127 20.3508 26.0442 20.1007 26.0528 19.8653Z" fill="#EDE71F"/>
<path d="M26.082 19.9385C26.1049 20.2738 26.2053 20.6055 26.4479 20.8621C26.5372 20.9364 26.6512 21.0038 26.7616 20.9874C26.3541 20.7095 26.16 20.2784 26.082 19.9385Z" fill="#C6CB24"/>
<path d="M25.1527 19.8352C25.0577 19.8352 25.0278 19.8831 25.0278 19.8831C24.8877 20.4246 24.3709 21.123 23.8336 21.2059L23.5674 21.6665H26.2905V21.036C25.8002 20.9043 25.4077 20.3899 25.2767 19.8831C25.2767 19.8831 25.2477 19.8352 25.1527 19.8352Z" fill="url(#paint6_linear_1_41803)"/>
<path d="M25.1527 19.8587C25.1092 19.8587 25.083 19.8696 25.0673 19.8794C25.0524 19.8886 25.0489 19.8938 25.0485 19.8944L25.0476 19.8953C24.9697 20.191 24.7877 20.49 24.5987 20.7281C24.4097 20.966 24.0587 21.2068 23.8186 21.2323L23.5807 21.643H26.2507V21.049C26.0532 20.9884 25.8729 20.8675 25.72 20.7123C25.4988 20.488 25.3348 20.191 25.257 19.8953C25.2569 19.8949 25.2562 19.8948 25.2561 19.8944C25.2557 19.8938 25.2529 19.8876 25.2382 19.8784C25.2227 19.8688 25.1963 19.8587 25.1527 19.8587Z" fill="#97C924"/>
<path d="M25.0803 19.9386C25.046 20.441 24.7662 21.0749 24.4503 21.1841C24.3472 21.2197 24.167 21.2321 24.1043 21.2401C24.657 20.9773 24.9836 20.3594 25.0803 19.9386Z" fill="#93BC30"/>
<path d="M25.1526 19.8587C25.1444 19.8587 25.137 19.8598 25.13 19.8606C25.1287 20.0282 25.13 20.3111 25.13 20.4606C25.1317 20.5906 25.1762 20.6952 25.2418 20.8185C25.2456 20.8292 25.2494 20.8381 25.2531 20.8457C25.2759 20.906 25.2927 20.927 25.3799 20.9931C25.6569 21.2035 26.0004 21.235 26.2025 21.2176C26.1392 21.1677 26.0715 21.1223 26.0119 21.0805C26.107 21.0774 26.198 21.0666 26.2626 21.0523C26.0604 20.993 25.876 20.8706 25.7199 20.7123C25.6929 20.6844 25.6669 20.6556 25.6419 20.626C25.6303 20.6097 25.6141 20.5872 25.609 20.5808C25.5469 20.5031 25.4833 20.4171 25.4343 20.3301C25.4147 20.2956 25.3963 20.2605 25.3789 20.2249C25.3446 20.1539 25.3148 20.0808 25.2897 20.0061C25.2775 19.9695 25.2665 19.9326 25.2568 19.8953C25.2567 19.895 25.256 19.8947 25.2559 19.8943C25.2555 19.8937 25.2527 19.8876 25.238 19.8784C25.2281 19.8725 25.2173 19.8681 25.2061 19.8652H25.2051C25.188 19.8607 25.1703 19.8585 25.1526 19.8587Z" fill="#EDE71F"/>
<path d="M25.1915 19.9385C25.2144 20.2738 25.318 20.6714 25.5606 20.928C25.6498 21.0023 25.7639 21.0696 25.8742 21.0533C25.4981 20.7471 25.2695 20.2784 25.1915 19.9385Z" fill="#CCD11E"/>
<path d="M25.423 20.4021C25.5546 20.7264 25.888 21.0294 26.2309 21.2329C26.2948 21.2349 26.3138 21.2331 26.3719 21.2296C26.1264 21.0979 25.7308 20.9099 25.423 20.4021Z" fill="#9ECB34"/>
<path d="M29.1389 21.3713C29.107 21.3825 28.8933 21.3607 28.7815 21.3688L28.7104 21.3875C28.648 21.387 28.586 21.3888 28.5254 21.3875C28.3253 21.3875 28.156 21.4402 27.9656 21.4402C27.7749 21.4402 27.6062 21.3875 27.4059 21.3875C27.3437 21.387 27.2818 21.3889 27.2209 21.3875C27.0208 21.3875 26.8516 21.4402 26.6611 21.4402C26.4706 21.4402 26.3015 21.3875 26.1014 21.3875C26.0386 21.3871 25.9769 21.3888 25.9154 21.3875C25.7153 21.3875 25.547 21.4402 25.3566 21.4402C25.1661 21.4402 24.998 21.3875 24.7979 21.3875C24.783 21.3875 24.7692 21.388 24.7548 21.3884C24.7449 21.3882 24.7338 21.3875 24.7238 21.3875C24.7171 21.3875 24.7115 21.3873 24.7049 21.3875C24.6985 21.3873 24.6918 21.3875 24.6852 21.3875C24.6751 21.3875 24.666 21.3882 24.6561 21.3884C24.6417 21.388 24.6278 21.3875 24.6128 21.3875C24.4125 21.3875 24.2438 21.4402 24.0531 21.4402C23.8626 21.4402 23.6935 21.3875 23.4934 21.3875C23.4788 21.3875 23.4644 21.388 23.4503 21.3884C23.4403 21.3882 23.4314 21.3875 23.4213 21.3875C23.4144 21.3875 23.4073 21.3873 23.4005 21.3875C23.394 21.3873 23.3873 21.3875 23.3807 21.3875C23.3706 21.3875 23.3606 21.3882 23.3507 21.3884C23.3363 21.388 23.3224 21.3875 23.3076 21.3875C23.1476 21.3875 22.9621 21.4212 22.8111 21.4347L22.4626 22.0379L25.9611 22.0375L29.5375 22.0379L29.1389 21.3713Z" fill="#2E50A6"/>
<path d="M28.6663 21.2834C28.6551 21.2834 28.6441 21.2834 28.6331 21.2838C28.4531 21.2891 28.324 21.3458 28.0109 21.3458C27.6977 21.3458 27.6654 21.2892 27.3118 21.2969C26.9814 21.3042 26.8428 21.3671 26.6635 21.3646C26.4841 21.3621 26.1928 21.3258 25.9685 21.3493C25.7442 21.3728 25.478 21.4206 25.3033 21.421C25.0861 21.4201 24.8689 21.3804 24.6419 21.403C24.4148 21.4256 24.3087 21.4863 24.0273 21.4855C23.7853 21.4848 23.5226 21.4467 23.3191 21.4469C23.1283 21.4471 22.9154 21.5001 22.7588 21.5271L22.712 21.6084C22.8368 21.5939 23.187 21.5407 23.3121 21.5374C23.4423 21.5341 23.9075 21.5643 24.164 21.5555C24.4206 21.5467 24.4506 21.4904 24.7539 21.4904C24.9651 21.4904 25.1243 21.5126 25.3409 21.5126C25.4761 21.5126 25.5989 21.4436 25.8044 21.4436C25.8564 21.4421 25.908 21.4402 25.9596 21.4385C26.1329 21.4099 26.4254 21.441 26.629 21.4514C26.8131 21.461 26.9321 21.4172 27.1242 21.4108C27.2073 21.4071 27.2908 21.4072 27.3728 21.4026C27.565 21.3962 27.7295 21.4382 27.9105 21.4373C28.0911 21.4262 28.2663 21.3861 28.4583 21.3797C28.5423 21.3757 28.6249 21.3757 28.7078 21.3714C28.8348 21.3672 29.032 21.3758 29.1674 21.3993L29.1207 21.3187C28.9885 21.3145 28.8256 21.2834 28.6663 21.2834Z" fill="url(#paint7_linear_1_41803)"/>
<path d="M23.2395 21.93C23.0475 21.93 22.8838 21.9773 22.7033 21.9825C22.6361 21.9806 22.5718 21.9723 22.5069 21.9633L22.4797 22.0105C22.5067 22.0123 22.5338 22.014 22.5623 22.014C22.6458 22.015 22.7285 22.012 22.8109 22.014C23.003 22.014 23.1655 21.9667 23.3461 21.9615C23.5269 21.9666 23.6909 22.014 23.8831 22.014C23.9665 22.0151 24.0494 22.012 24.1317 22.014C24.3237 22.014 24.4879 21.9666 24.6687 21.9615C24.8496 21.9666 25.0148 22.014 25.2068 22.014C25.2899 22.015 25.3731 22.012 25.4552 22.014C25.6472 22.014 25.8108 21.9666 25.9914 21.9615C26.1721 21.9666 26.3353 22.014 26.5275 22.014C26.6115 22.0151 26.6941 22.012 26.7769 22.014C26.969 22.014 27.133 21.9666 27.314 21.9615C27.4949 21.9666 27.659 22.014 27.8512 22.014C27.9342 22.015 28.0173 22.012 28.0995 22.014C28.2915 22.014 28.4551 21.9666 28.6357 21.9615C28.8164 21.9666 28.9807 22.014 29.1727 22.014C29.256 22.015 29.3391 22.012 29.4212 22.014C29.4548 22.014 29.4877 22.0121 29.52 22.0097L29.4943 21.9655C29.4352 21.9735 29.3758 21.9808 29.3146 21.9825C29.1338 21.9773 28.9704 21.93 28.7783 21.93C28.6945 21.9288 28.6118 21.9316 28.5289 21.93C28.3368 21.93 28.1735 21.9773 27.9928 21.9825C27.8119 21.9774 27.6481 21.93 27.4558 21.93C27.3727 21.9288 27.2896 21.9316 27.2073 21.93C27.0152 21.93 26.8511 21.9773 26.6703 21.9825C26.4895 21.9773 26.3253 21.93 26.1333 21.93C26.0498 21.9288 25.9665 21.9316 25.8838 21.93C25.6917 21.93 25.5283 21.9773 25.3477 21.9825C25.167 21.9773 25.0036 21.93 24.8116 21.93C24.7279 21.9288 24.6455 21.9316 24.563 21.93C24.3708 21.93 24.207 21.9774 24.026 21.9825C23.8452 21.9773 23.6811 21.93 23.489 21.93C23.4056 21.9288 23.322 21.9316 23.2396 21.93H23.2395Z" fill="url(#paint8_linear_1_41803)"/>
<path d="M22.8803 21.372L22.7455 21.6048C22.9032 21.5787 23.14 21.5102 23.3363 21.51C23.5398 21.5099 23.7853 21.5602 24.0273 21.5609C24.3087 21.5617 24.4148 21.501 24.6419 21.4784C24.8689 21.4558 25.0862 21.5077 25.3033 21.5087C25.478 21.5083 25.7442 21.4481 25.9685 21.4247C26.1928 21.4013 26.3983 21.441 26.6687 21.4452C26.939 21.4494 26.9814 21.3796 27.3118 21.3724C27.6654 21.3646 27.6977 21.4211 28.0109 21.4211C28.2465 21.4339 28.4488 21.3737 28.659 21.3589C28.8692 21.344 28.9667 21.3613 29.1204 21.3649L29.0183 21.1842C29.0166 21.1842 29.0149 21.1844 29.0131 21.1844L23.3884 21.3081L22.8803 21.372Z" fill="#97C924"/>
<path d="M28.7815 21.3688C28.7815 21.3688 28.932 21.377 28.9952 21.3842C29.0499 21.3897 29.1046 21.3944 29.1594 21.3982L29.1388 21.3713C29.107 21.3825 28.8933 21.3607 28.7815 21.3688Z" fill="white"/>
<path d="M26 15.8259L24.2144 18.9195L22.3889 22.0806L25.961 22.0802L29.6111 22.0806L27.8249 18.9871L26 15.8259ZM26 15.9926L27.7528 19.0289L29.4667 21.9971L25.961 21.9969L22.5332 21.9971L24.2865 18.9613L26 15.9926Z" fill="#C8A400"/>
<rect x="2" y="2" width="48" height="12" fill="#3F6FEB"/>
</g>
<path d="M11.7035 1.61228C6.53056 2.04084 2.23921 5.77712 1.57724 11.0101C1.25164 13.5841 1 16.6548 1 20C1 23.3452 1.25164 26.4159 1.57724 28.9899C2.23922 34.2229 6.53056 37.9592 11.7035 38.3877C15.5784 38.7087 20.5852 39 26 39C31.4148 39 36.4216 38.7087 40.2965 38.3877C45.4694 37.9592 49.7608 34.2229 50.4228 28.9899C50.7484 26.4159 51 23.3452 51 20C51 16.6548 50.7484 13.5841 50.4228 11.0101C49.7608 5.77712 45.4694 2.04084 40.2965 1.61228C36.4216 1.29127 31.4148 1 26 1C20.5852 1 15.5784 1.29127 11.7035 1.61228Z" stroke="#E6E6FA" stroke-width="2"/>
<defs>
<linearGradient id="paint0_linear_1_41803" x1="25.9299" y1="19.3914" x2="26.0348" y2="19.0784" gradientUnits="userSpaceOnUse">
<stop stop-color="#510000"/>
<stop offset="0.3" stop-color="#8A0000"/>
<stop offset="1" stop-color="#AA0000"/>
</linearGradient>
<linearGradient id="paint1_linear_1_41803" x1="26.0802" y1="19.5202" x2="26.1626" y2="19.3022" gradientUnits="userSpaceOnUse">
<stop stop-color="#FF2A2A"/>
<stop offset="1" stop-color="#FF0000"/>
</linearGradient>
<linearGradient id="paint2_linear_1_41803" x1="22.9172" y1="20.971" x2="33.4673" y2="20.971" gradientUnits="userSpaceOnUse">
<stop stop-color="#002255"/>
<stop offset="0.5" stop-color="#0044AA"/>
<stop offset="1" stop-color="#002255"/>
</linearGradient>
<linearGradient id="paint3_linear_1_41803" x1="22.9171" y1="20.971" x2="33.4673" y2="20.971" gradientUnits="userSpaceOnUse">
<stop stop-color="#002255"/>
<stop offset="0.5" stop-color="#0044AA"/>
<stop offset="1" stop-color="#002255"/>
</linearGradient>
<linearGradient id="paint4_linear_1_41803" x1="25.1536" y1="20.65" x2="25.1536" y2="20.9799" gradientUnits="userSpaceOnUse">
<stop stop-color="#F5F549"/>
<stop offset="1" stop-color="#97C924"/>
</linearGradient>
<linearGradient id="paint5_linear_1_41803" x1="25.1535" y1="20.65" x2="25.1535" y2="20.9799" gradientUnits="userSpaceOnUse">
<stop stop-color="#F5F549"/>
<stop offset="1" stop-color="#97C924"/>
</linearGradient>
<linearGradient id="paint6_linear_1_41803" x1="25.1536" y1="20.65" x2="25.1536" y2="20.9799" gradientUnits="userSpaceOnUse">
<stop stop-color="#F5F549"/>
<stop offset="1" stop-color="#97C924"/>
</linearGradient>
<linearGradient id="paint7_linear_1_41803" x1="22.712" y1="21.2834" x2="29.1674" y2="21.2834" gradientUnits="userSpaceOnUse">
<stop stop-color="#002255"/>
<stop offset="0.5" stop-color="#0044AA"/>
<stop offset="1" stop-color="#002255"/>
</linearGradient>
<linearGradient id="paint8_linear_1_41803" x1="22.4797" y1="21.9297" x2="29.52" y2="21.9297" gradientUnits="userSpaceOnUse">
<stop stop-color="#002255"/>
<stop offset="0.5" stop-color="#0044AA"/>
<stop offset="1" stop-color="#002255"/>
</linearGradient>
</defs>
</svg>
