<svg width="52" height="40" viewBox="0 0 52 40" fill="none" xmlns="http://www.w3.org/2000/svg">
<mask id="mask0_1_40492" style="mask-type:alpha" maskUnits="userSpaceOnUse" x="2" y="2" width="48" height="36">
<path d="M2.56934 11.1356C3.16681 6.41247 7.0415 3.00193 11.7861 2.60887C15.6412 2.28949 20.6196 2 26 2C31.3804 2 36.3588 2.28949 40.2139 2.60887C44.9585 3.00193 48.8332 6.41247 49.4307 11.1356C49.752 13.6759 50 16.704 50 20C50 23.296 49.752 26.3241 49.4307 28.8644C48.8332 33.5875 44.9585 36.9981 40.2139 37.3911C36.3588 37.7105 31.3804 38 26 38C20.6196 38 15.6412 37.7105 11.7861 37.3911C7.0415 36.9981 3.16681 33.5875 2.56934 28.8644C2.248 26.3241 2 23.296 2 20C2 16.704 2.248 13.6759 2.56934 11.1356Z" fill="#00D0BF"/>
</mask>
<g mask="url(#mask0_1_40492)">
<rect x="2" y="2" width="48" height="36" fill="#2E50A6"/>
<mask id="mask1_1_40492" style="mask-type:alpha" maskUnits="userSpaceOnUse" x="2" y="2" width="24" height="18">
<rect x="2" y="2" width="24" height="18" fill="#C4C4C4"/>
</mask>
<g mask="url(#mask1_1_40492)">
<path d="M2 2L26 20L2 2ZM26 2L2 20L26 2Z" fill="black"/>
<path d="M26 2L2 20M2 2L26 20L2 2Z" stroke="white" stroke-width="2.4"/>
<path d="M2 2L26 20L2 2ZM26 2L2 20L26 2Z" fill="black"/>
<path d="M26 2L2 20M2 2L26 20L2 2Z" stroke="#EE5757" stroke-width="1.6"/>
<path d="M14 2V23V2ZM2 11H30H2Z" fill="black"/>
<path d="M2 11H30M14 2V23V2Z" stroke="white" stroke-width="4"/>
<path d="M14 2V23V2ZM2 11H30H2Z" fill="black"/>
<path d="M2 11H30M14 2V23V2Z" stroke="#EE5757" stroke-width="2.4"/>
</g>
<path d="M38.676 11.2647L38.3082 12.1663L38.2848 12.2237L38.2229 12.2283L37.2518 12.2994L37.9956 12.9278L38.043 12.9678L38.0282 13.0281L37.7958 13.9736L38.6233 13.4604L38.676 13.4277L38.7287 13.4604L39.5561 13.9736L39.3237 13.0281L39.3089 12.9678L39.3563 12.9278L40.1001 12.2994L39.129 12.2283L39.0672 12.2237L39.0437 12.1663L38.676 11.2647Z" fill="#EE5757" stroke="white" stroke-width="0.2"/>
<path d="M32.676 18.2648L32.3082 19.1664L32.2848 19.2238L32.2229 19.2283L31.2518 19.2995L31.9956 19.9278L32.043 19.9679L32.0282 20.0281L31.7958 20.9737L32.6233 20.4604L32.676 20.4277L32.7287 20.4604L33.5561 20.9737L33.3237 20.0281L33.3089 19.9679L33.3563 19.9278L34.1001 19.2995L33.129 19.2283L33.0672 19.2238L33.0437 19.1664L32.676 18.2648Z" fill="#EE5757" stroke="white" stroke-width="0.2"/>
<path d="M41.676 29.2647L41.3082 30.1663L41.2848 30.2237L41.2229 30.2282L40.2518 30.2994L40.9956 30.9278L41.043 30.9678L41.0282 31.028L40.7958 31.9736L41.6233 31.4604L41.676 31.4277L41.7287 31.4604L42.5561 31.9736L42.3237 31.028L42.3089 30.9678L42.3563 30.9278L43.1001 30.2994L42.129 30.2282L42.0672 30.2237L42.0437 30.1663L41.676 29.2647Z" fill="#EE5757" stroke="white" stroke-width="0.2"/>
<path d="M43.676 17.2648L43.3082 18.1664L43.2848 18.2238L43.2229 18.2284L42.2518 18.2995L42.9956 18.9279L43.043 18.9679L43.0282 19.0281L42.7958 19.9737L43.6233 19.4605L43.676 19.4278L43.7287 19.4605L44.5561 19.9737L44.3237 19.0281L44.3089 18.9679L44.3563 18.9279L45.1001 18.2995L44.129 18.2284L44.0672 18.2238L44.0437 18.1664L43.676 17.2648Z" fill="#EE5757" stroke="white" stroke-width="0.2"/>
</g>
<path d="M11.7035 1.61228C6.53056 2.04084 2.23921 5.77712 1.57724 11.0101C1.25164 13.5841 1 16.6548 1 20C1 23.3452 1.25164 26.4159 1.57724 28.9899C2.23922 34.2229 6.53056 37.9592 11.7035 38.3877C15.5784 38.7087 20.5852 39 26 39C31.4148 39 36.4216 38.7087 40.2965 38.3877C45.4694 37.9592 49.7608 34.2229 50.4228 28.9899C50.7484 26.4159 51 23.3452 51 20C51 16.6548 50.7484 13.5841 50.4228 11.0101C49.7608 5.77712 45.4694 2.04084 40.2965 1.61228C36.4216 1.29127 31.4148 1 26 1C20.5852 1 15.5784 1.29127 11.7035 1.61228Z" stroke="#E6E6FA" stroke-width="2"/>
</svg>
