<svg width="52" height="40" viewBox="0 0 52 40" fill="none" xmlns="http://www.w3.org/2000/svg">
<mask id="mask0_1_30800" style="mask-type:alpha" maskUnits="userSpaceOnUse" x="2" y="2" width="48" height="36">
<path d="M2.56934 11.1356C3.16681 6.41247 7.0415 3.00193 11.7861 2.60887C15.6412 2.28949 20.6196 2 26 2C31.3804 2 36.3588 2.28949 40.2139 2.60887C44.9585 3.00193 48.8332 6.41247 49.4307 11.1356C49.752 13.6759 50 16.704 50 20C50 23.296 49.752 26.3241 49.4307 28.8644C48.8332 33.5875 44.9585 36.9981 40.2139 37.3911C36.3588 37.7105 31.3804 38 26 38C20.6196 38 15.6412 37.7105 11.7861 37.3911C7.0415 36.9981 3.16681 33.5875 2.56934 28.8644C2.248 26.3241 2 23.296 2 20C2 16.704 2.248 13.6759 2.56934 11.1356Z" fill="#00D0BF"/>
</mask>
<g mask="url(#mask0_1_30800)">
<rect x="2" y="26" width="48" height="12" fill="#59C785"/>
<rect y="14" width="52" height="12" fill="#EE5757"/>
<rect x="2" y="2" width="48" height="12" fill="white"/>
<rect x="2" y="2" width="18" height="36" fill="#EE5757"/>
<path d="M9.57882 8.70667H7.90996C7.81804 8.70667 7.74353 8.77654 7.74353 8.86274V9.6489C7.74353 9.7351 7.81804 9.80497 7.90996 9.80497H9.57882C9.67074 9.80497 9.74525 9.7351 9.74525 9.6489V8.86274C9.74525 8.77654 9.67074 8.70667 9.57882 8.70667Z" fill="white" stroke="#DB161B" stroke-width="0.0195673"/>
<path d="M9.5361 8.7522H7.95281C7.86561 8.7522 7.79492 8.81626 7.79492 8.89528V9.6159C7.79492 9.69492 7.86561 9.75898 7.95281 9.75898H9.5361C9.6233 9.75898 9.69399 9.69492 9.69399 9.6159V8.89528C9.69399 8.81626 9.6233 8.7522 9.5361 8.7522Z" fill="white" stroke="#DB161B" stroke-width="0.0182214"/>
<path fill-rule="evenodd" clip-rule="evenodd" d="M8.67784 9.02716L8.77376 9.03027L8.77811 9.07375L8.85659 9.11361L8.91767 9.06391L8.99175 9.10377L8.92202 9.14726L8.93947 9.2073L9.02664 9.2042V9.28443L8.95691 9.28081L8.92202 9.33102L9.0005 9.38797L8.93947 9.43455L8.87403 9.38434L8.77811 9.40453L8.78246 9.47804L8.67784 9.48477L8.66475 9.41437L8.57757 9.37761L8.52959 9.42782L8.45546 9.39107L8.4991 9.33413L8.44676 9.29738H8.37263L8.36829 9.19385L8.44241 9.20057L8.4947 9.14053L8.43367 9.09394L8.51214 9.0401L8.56882 9.08358L8.66475 9.07064L8.67784 9.02716Z" fill="white" stroke="#DB161B" stroke-width="0.0114919"/>
<path d="M8.70691 9.33403C8.76508 9.33403 8.81225 9.29365 8.81225 9.24384C8.81225 9.19403 8.76508 9.15366 8.70691 9.15366C8.64873 9.15366 8.60156 9.19403 8.60156 9.24384C8.60156 9.29365 8.64873 9.33403 8.70691 9.33403Z" fill="white" stroke="#DB161B" stroke-width="0.0123953"/>
<path fill-rule="evenodd" clip-rule="evenodd" d="M8.05141 8.79828L7.89746 8.93546L8.05141 8.79828ZM8.15406 8.79828L8.00011 8.93546L8.15406 8.79828ZM8.25671 8.79828L8.10276 8.93546L8.25671 8.79828ZM8.35936 8.79828L8.20541 8.93546L8.35936 8.79828ZM8.46201 8.79828L8.30806 8.93546L8.46201 8.79828ZM8.56467 8.79828L8.41071 8.93546L8.56467 8.79828ZM8.66737 8.79828L8.51337 8.93546L8.66737 8.79828ZM8.77002 8.79828L8.61602 8.93546L8.77002 8.79828ZM8.87267 8.79828L8.71867 8.93546L8.87267 8.79828ZM8.97532 8.79828L8.82132 8.93546L8.97532 8.79828ZM9.07797 8.79828L8.92397 8.93546L9.07797 8.79828ZM9.18062 8.79828L9.02662 8.93546L9.18062 8.79828ZM8.77002 8.79828L8.61602 8.93546L8.77002 8.79828ZM9.28327 8.79828L9.12927 8.93546L9.28327 8.79828ZM9.38592 8.79828L9.23192 8.93546L9.38592 8.79828ZM9.48857 8.79828L9.33457 8.93546L9.48857 8.79828ZM9.59128 8.79828L9.43722 8.93546L9.59128 8.79828ZM9.43722 8.79828L9.59128 8.93546L9.43722 8.79828ZM9.33457 8.79828L9.48857 8.93546L9.33457 8.79828ZM9.23192 8.79828L9.38592 8.93546L9.23192 8.79828ZM9.12927 8.79828L9.28327 8.93546L9.12927 8.79828ZM9.02662 8.79828L9.18062 8.93546L9.02662 8.79828ZM8.92397 8.79828L9.07797 8.93546L8.92397 8.79828ZM8.82132 8.79828L8.97532 8.93546L8.82132 8.79828ZM8.71867 8.79828L8.87267 8.93546L8.71867 8.79828ZM8.61602 8.79828L8.77002 8.93546L8.61602 8.79828ZM8.51337 8.79828L8.66737 8.93546L8.51337 8.79828ZM8.41071 8.79828L8.56472 8.93546L8.41071 8.79828ZM8.30806 8.79828L8.46201 8.93546L8.30806 8.79828ZM8.71867 8.79828L8.87267 8.93546L8.71867 8.79828ZM8.20541 8.79828L8.35936 8.93546L8.20541 8.79828ZM8.10276 8.79828L8.25671 8.93546L8.10276 8.79828ZM8.00011 8.79828L8.15406 8.93546L8.00011 8.79828ZM7.89746 8.79828L8.05141 8.93546L7.89746 8.79828ZM8.05141 9.5758L7.89746 9.71349L8.05141 9.5758ZM8.15406 9.5758L8.00011 9.71349L8.15406 9.5758ZM8.25671 9.5758L8.10276 9.71349L8.25671 9.5758ZM8.35936 9.5758L8.20541 9.71349L8.35936 9.5758ZM8.46201 9.5758L8.30806 9.71349L8.46201 9.5758ZM8.56467 9.5758L8.41071 9.71349L8.56467 9.5758ZM8.66737 9.5758L8.51337 9.71349L8.66737 9.5758ZM8.77002 9.5758L8.61602 9.71349L8.77002 9.5758ZM8.87267 9.5758L8.71867 9.71349L8.87267 9.5758ZM8.97532 9.5758L8.82132 9.71349L8.97532 9.5758ZM9.07797 9.5758L8.92397 9.71349L9.07797 9.5758ZM9.18062 9.5758L9.02662 9.71349L9.18062 9.5758ZM8.77002 9.5758L8.61602 9.71349L8.77002 9.5758ZM9.28327 9.5758L9.12927 9.71349L9.28327 9.5758ZM9.38592 9.5758L9.23192 9.71349L9.38592 9.5758ZM9.48857 9.5758L9.33457 9.71349L9.48857 9.5758ZM9.59128 9.5758L9.43722 9.71349L9.59128 9.5758ZM9.43722 9.5758L9.59128 9.71349L9.43722 9.5758ZM9.33457 9.5758L9.48857 9.71349L9.33457 9.5758ZM9.23192 9.5758L9.38592 9.71349L9.23192 9.5758ZM9.12927 9.5758L9.28327 9.71349L9.12927 9.5758ZM9.02662 9.5758L9.18062 9.71349L9.02662 9.5758ZM8.92397 9.5758L9.07797 9.71349L8.92397 9.5758ZM8.82132 9.5758L8.97532 9.71349L8.82132 9.5758ZM8.71867 9.5758L8.87267 9.71349L8.71867 9.5758ZM8.61602 9.5758L8.77002 9.71349L8.61602 9.5758ZM8.51337 9.5758L8.66737 9.71349L8.51337 9.5758ZM8.41071 9.5758L8.56472 9.71349L8.41071 9.5758ZM8.30806 9.5758L8.46201 9.71349L8.30806 9.5758ZM8.71867 9.5758L8.87267 9.71349L8.71867 9.5758ZM8.20541 9.5758L8.35936 9.71349L8.20541 9.5758ZM8.10276 9.5758L8.25671 9.71349L8.10276 9.5758ZM8.00011 9.5758L8.15406 9.71349L8.00011 9.5758ZM7.89746 9.5758L8.05141 9.71349L7.89746 9.5758Z" fill="white"/>
<path d="M7.89746 9.5758L8.05141 9.71349M8.05141 8.79828L7.89746 8.93546L8.05141 8.79828ZM8.15406 8.79828L8.00011 8.93546L8.15406 8.79828ZM8.25671 8.79828L8.10276 8.93546L8.25671 8.79828ZM8.35936 8.79828L8.20541 8.93546L8.35936 8.79828ZM8.46201 8.79828L8.30806 8.93546L8.46201 8.79828ZM8.56467 8.79828L8.41072 8.93546L8.56467 8.79828ZM8.66737 8.79828L8.51337 8.93546L8.66737 8.79828ZM8.77002 8.79828L8.61602 8.93546L8.77002 8.79828ZM8.87267 8.79828L8.71867 8.93546L8.87267 8.79828ZM8.97532 8.79828L8.82132 8.93546L8.97532 8.79828ZM9.07797 8.79828L8.92397 8.93546L9.07797 8.79828ZM9.18062 8.79828L9.02662 8.93546L9.18062 8.79828ZM8.77002 8.79828L8.61602 8.93546L8.77002 8.79828ZM9.28327 8.79828L9.12927 8.93546L9.28327 8.79828ZM9.38592 8.79828L9.23192 8.93546L9.38592 8.79828ZM9.48857 8.79828L9.33457 8.93546L9.48857 8.79828ZM9.59128 8.79828L9.43722 8.93546L9.59128 8.79828ZM9.43722 8.79828L9.59128 8.93546L9.43722 8.79828ZM9.33457 8.79828L9.48857 8.93546L9.33457 8.79828ZM9.23192 8.79828L9.38592 8.93546L9.23192 8.79828ZM9.12927 8.79828L9.28327 8.93546L9.12927 8.79828ZM9.02662 8.79828L9.18062 8.93546L9.02662 8.79828ZM8.92397 8.79828L9.07797 8.93546L8.92397 8.79828ZM8.82132 8.79828L8.97532 8.93546L8.82132 8.79828ZM8.71867 8.79828L8.87267 8.93546L8.71867 8.79828ZM8.61602 8.79828L8.77002 8.93546L8.61602 8.79828ZM8.51337 8.79828L8.66737 8.93546L8.51337 8.79828ZM8.41072 8.79828L8.56472 8.93546L8.41072 8.79828ZM8.30806 8.79828L8.46201 8.93546L8.30806 8.79828ZM8.71867 8.79828L8.87267 8.93546L8.71867 8.79828ZM8.20541 8.79828L8.35936 8.93546L8.20541 8.79828ZM8.10276 8.79828L8.25671 8.93546L8.10276 8.79828ZM8.00011 8.79828L8.15406 8.93546L8.00011 8.79828ZM7.89746 8.79828L8.05141 8.93546L7.89746 8.79828ZM8.05141 9.5758L7.89746 9.71349L8.05141 9.5758ZM8.15406 9.5758L8.00011 9.71349L8.15406 9.5758ZM8.25671 9.5758L8.10276 9.71349L8.25671 9.5758ZM8.35936 9.5758L8.20541 9.71349L8.35936 9.5758ZM8.46201 9.5758L8.30806 9.71349L8.46201 9.5758ZM8.56467 9.5758L8.41072 9.71349L8.56467 9.5758ZM8.66737 9.5758L8.51337 9.71349L8.66737 9.5758ZM8.77002 9.5758L8.61602 9.71349L8.77002 9.5758ZM8.87267 9.5758L8.71867 9.71349L8.87267 9.5758ZM8.97532 9.5758L8.82132 9.71349L8.97532 9.5758ZM9.07797 9.5758L8.92397 9.71349L9.07797 9.5758ZM9.18062 9.5758L9.02662 9.71349L9.18062 9.5758ZM8.77002 9.5758L8.61602 9.71349L8.77002 9.5758ZM9.28327 9.5758L9.12927 9.71349L9.28327 9.5758ZM9.38592 9.5758L9.23192 9.71349L9.38592 9.5758ZM9.48857 9.5758L9.33457 9.71349L9.48857 9.5758ZM9.59128 9.5758L9.43722 9.71349L9.59128 9.5758ZM9.43722 9.5758L9.59128 9.71349L9.43722 9.5758ZM9.33457 9.5758L9.48857 9.71349L9.33457 9.5758ZM9.23192 9.5758L9.38592 9.71349L9.23192 9.5758ZM9.12927 9.5758L9.28327 9.71349L9.12927 9.5758ZM9.02662 9.5758L9.18062 9.71349L9.02662 9.5758ZM8.92397 9.5758L9.07797 9.71349L8.92397 9.5758ZM8.82132 9.5758L8.97532 9.71349L8.82132 9.5758ZM8.71867 9.5758L8.87267 9.71349L8.71867 9.5758ZM8.61602 9.5758L8.77002 9.71349L8.61602 9.5758ZM8.51337 9.5758L8.66737 9.71349L8.51337 9.5758ZM8.41072 9.5758L8.56472 9.71349L8.41072 9.5758ZM8.30806 9.5758L8.46201 9.71349L8.30806 9.5758ZM8.71867 9.5758L8.87267 9.71349L8.71867 9.5758ZM8.20541 9.5758L8.35936 9.71349L8.20541 9.5758ZM8.10276 9.5758L8.25671 9.71349L8.10276 9.5758ZM8.00011 9.5758L8.15406 9.71349L8.00011 9.5758Z" stroke="#DB161B" stroke-width="0.0182214"/>
<path fill-rule="evenodd" clip-rule="evenodd" d="M10.8834 11.0092C8.3928 13.4448 7.33037 13.7528 7.82897 13.949C8.32758 14.1452 9.93148 12.8883 11.6004 11.2183C13.2693 9.54891 14.2912 8.06294 13.7927 7.86669C13.2942 7.6704 13.5323 8.41862 10.8834 11.0092Z" fill="white" stroke="#DB161B" stroke-width="0.0292475"/>
<path fill-rule="evenodd" clip-rule="evenodd" d="M8.78681 12.779L9.65916 13.0078C8.83811 13.7859 7.91425 14.1063 7.65765 13.9691C7.401 13.8319 8.11955 13.5115 8.78681 12.779Z" fill="white" stroke="#DB161B" stroke-width="0.0170826"/>
<path fill-rule="evenodd" clip-rule="evenodd" d="M8.78677 12.8706L9.50533 13.0539C8.70539 13.8019 7.91421 14.0147 7.70948 13.9235C7.50361 13.8319 8.1368 13.5746 8.78677 12.8706Z" fill="white" stroke="#DB161B" stroke-width="0.0170826"/>
<path d="M8.85071 13.0337V13.042C8.85071 13.0203 8.85014 13.0312 8.85977 13.0741C8.87685 13.0933 8.91692 13.0984 8.9503 13.0902C8.9796 13.0689 8.97867 13.0524 9.03178 13.042C9.08308 13.0451 9.10265 13.0586 9.13138 13.0741C9.16544 13.0891 9.18118 13.0969 9.2038 13.1305C9.21503 13.158 9.2213 13.1766 9.18568 13.187C9.15737 13.2051 9.12372 13.2149 9.08609 13.2196C9.04426 13.2196 9.01413 13.2149 8.99555 13.2356C8.96682 13.262 8.96842 13.2781 8.96842 13.3241C8.95874 13.3386 8.95683 13.3811 8.9503 13.3971C8.92515 13.4075 8.91039 13.4132 8.86883 13.4132C8.85904 13.3883 8.84822 13.3433 8.84165 13.3164C8.83456 13.2874 8.83238 13.247 8.81447 13.2273C8.79698 13.2048 8.7755 13.1857 8.75111 13.1709C8.74003 13.1569 8.71891 13.1456 8.69681 13.1388C8.73232 13.1549 8.73739 13.1725 8.74205 13.2113C8.71084 13.2253 8.7025 13.2351 8.65151 13.2356C8.60141 13.232 8.58929 13.2206 8.57004 13.1952C8.56657 13.2356 8.55202 13.2491 8.54291 13.2843C8.52428 13.3086 8.51636 13.3335 8.49762 13.3645C8.50559 13.4039 8.52277 13.4054 8.52479 13.4536C8.53654 13.4851 8.53525 13.5152 8.56098 13.5343C8.57247 13.5467 8.58106 13.5493 8.60627 13.5504C8.55383 13.5504 8.52329 13.5452 8.48856 13.526C8.46169 13.5115 8.4414 13.4929 8.41614 13.4779C8.38409 13.4572 8.34449 13.438 8.30748 13.4292C8.26566 13.4292 8.23553 13.4251 8.21694 13.4453C8.19132 13.4618 8.17408 13.4898 8.16264 13.526C8.15426 13.568 8.15105 13.5959 8.1717 13.6228C8.18702 13.6544 8.19049 13.6663 8.1717 13.7036C8.15063 13.73 8.11931 13.7331 8.0721 13.744C8.04135 13.7427 8.0109 13.7373 7.98157 13.7279M11.4673 10.9026C11.4653 10.9145 11.4596 10.9667 11.4544 10.9875C11.4544 11.0164 11.4513 11.0382 11.4482 11.061C11.4399 11.0806 11.4415 11.0987 11.4161 11.106C11.399 11.1298 11.3881 11.136 11.3654 11.1459C11.3498 11.1578 11.326 11.1697 11.3012 11.1795C11.2758 11.1893 11.2525 11.1904 11.2251 11.1852C11.2023 11.1712 11.1863 11.1572 11.1676 11.1459C11.163 11.1277 11.1593 11.1013 11.1547 11.0837C11.1614 11.1019 11.1666 11.1308 11.1676 11.1567C11.165 11.1852 11.1547 11.1976 11.1423 11.2188L11.4673 10.9026ZM11.2313 11.281C11.2292 11.2794 11.2272 11.2773 11.2251 11.2753C11.2401 11.2887 11.2339 11.2825 11.1992 11.2644C11.1749 11.253 11.1485 11.2468 11.1164 11.2416H11.0273C10.9927 11.2416 10.9694 11.2463 10.9445 11.253C10.9264 11.2691 10.8995 11.2779 10.8808 11.2924C10.8612 11.3043 10.8529 11.3182 10.8425 11.3374C10.8249 11.3529 10.8135 11.3767 10.7975 11.3886C10.7908 11.4145 10.7758 11.4135 10.7659 11.4337C10.7959 11.4357 10.8203 11.4394 10.8358 11.4559C10.8627 11.4684 10.8135 11.444 10.8042 11.4337C10.783 11.428 10.7778 11.4223 10.7468 11.4223C10.7178 11.414 10.7002 11.429 10.6702 11.4337C10.6531 11.4425 10.6479 11.4451 10.6256 11.4451L11.2313 11.281ZM10.8871 11.5636C10.8741 11.5641 10.8146 11.574 10.7913 11.5636C10.7654 11.5574 10.7499 11.545 10.7338 11.5237C10.7261 11.5087 10.7338 11.5512 10.7338 11.5693C10.7312 11.6024 10.7199 11.6029 10.7023 11.6257C10.6836 11.6361 10.6639 11.6511 10.6448 11.6594C10.6287 11.6718 10.6091 11.6801 10.5873 11.6878C10.5682 11.6956 10.5454 11.7039 10.5299 11.7158C10.5087 11.7293 10.5107 11.7458 10.4983 11.7665C10.5004 11.7945 10.5055 11.81 10.5237 11.8235C10.5309 11.8421 10.548 11.8613 10.562 11.8742C10.5775 11.9001 10.5951 11.912 10.5552 11.9192C10.5335 11.9275 10.5216 11.9208 10.4983 11.9192L10.8871 11.5636ZM10.4854 11.9586C10.4698 11.9555 10.4139 11.9389 10.3896 11.9306H10.3006C10.2659 11.9327 10.2591 11.942 10.2302 11.9529C10.2115 11.97 10.1986 11.9819 10.1727 11.9927C10.1592 12.0083 10.1323 12.0347 10.122 12.0549C10.1142 12.074 10.109 12.0999 10.109 12.1284C10.1095 12.161 10.1194 12.1667 10.122 12.1962C10.1292 12.22 10.1406 12.2422 10.1603 12.2635C10.1629 12.2707 10.1649 12.2728 10.1727 12.2749L10.4854 11.9586ZM10.1815 12.3489C10.1789 12.3489 10.1727 12.3634 10.1634 12.3758C10.1432 12.3965 10.1406 12.3981 10.109 12.3981C10.0811 12.397 10.0837 12.3872 10.064 12.3799C10.0547 12.366 10.0428 12.3546 10.0324 12.3354C10.0252 12.324 10.0184 12.3059 10.0096 12.2956C10.0013 12.2821 9.991 12.2723 9.9822 12.2598C9.97391 12.2562 9.97081 12.2526 9.95994 12.251C9.98582 12.2552 9.98789 12.264 10.005 12.2774C10.0127 12.2904 10.021 12.3033 10.0278 12.3178C10.0303 12.337 10.0366 12.352 10.0366 12.3758C10.0366 12.4001 10.0366 12.4177 10.0278 12.4379C10.0169 12.4493 10.0091 12.4607 9.99617 12.4695C9.9853 12.4793 9.97236 12.4928 9.96408 12.5047C9.9501 12.5135 9.93975 12.5207 9.9237 12.5316C9.90972 12.5394 9.89523 12.5477 9.87401 12.5497C9.84709 12.5477 9.83932 12.5404 9.81965 12.5316C9.80257 12.5192 9.78911 12.5114 9.7741 12.5006C9.76219 12.4923 9.75029 12.4762 9.74252 12.4648C9.71819 12.4586 9.70266 12.4612 9.68817 12.4736C9.67575 12.4819 9.66487 12.4928 9.65659 12.5047C9.64883 12.5083 9.63692 12.5192 9.62916 12.5228L10.1815 12.3489ZM9.68299 12.5332C9.69024 12.5363 9.71612 12.5544 9.72803 12.5611C9.73528 12.5844 9.74666 12.5974 9.75029 12.6222C9.7565 12.6465 9.75598 12.6729 9.75598 12.7004C9.74977 12.7288 9.73786 12.7495 9.72803 12.7723C9.70991 12.7847 9.70111 12.793 9.6773 12.806C9.65504 12.8091 9.63278 12.8117 9.60431 12.8117C9.58671 12.8174 9.55358 12.8199 9.5365 12.8117C9.51165 12.808 9.49286 12.7982 9.47469 12.7894C9.45388 12.7775 9.44109 12.7666 9.41837 12.7558C9.40734 12.7397 9.39021 12.7252 9.37338 12.7055C9.35935 12.6869 9.34905 12.6766 9.33958 12.6559C9.34791 12.6797 9.36055 12.7004 9.36774 12.7226C9.38053 12.7459 9.38798 12.7547 9.39026 12.7837C9.39808 12.807 9.3959 12.835 9.3959 12.8614C9.39342 12.8795 9.39212 12.9136 9.38462 12.9281V12.9452L9.68299 12.5332Z" stroke="#DB161B" stroke-width="0.0170826"/>
<path fill-rule="evenodd" clip-rule="evenodd" d="M13.7254 8.81113C14.8306 6.90316 15.5641 5.27959 15.3622 5.18683C15.1608 5.09411 14.1007 6.56715 12.9955 8.47486L13.7254 8.81113Z" fill="white" stroke="#DB161B" stroke-width="0.0231391"/>
<path fill-rule="evenodd" clip-rule="evenodd" d="M13.6524 8.77749C14.7182 6.93687 15.4528 5.38303 15.2918 5.30885C15.1308 5.23467 14.1348 6.6681 13.0685 8.50847" fill="white"/>
<path d="M13.6524 8.77749C14.7182 6.93687 15.4528 5.38303 15.2918 5.30885C15.1308 5.23467 14.1348 6.6681 13.0685 8.50847" stroke="#DB161B" stroke-width="0.0203438"/>
<path fill-rule="evenodd" clip-rule="evenodd" d="M13.4691 7.81726C13.3392 8.03245 13.202 8.27839 13.0685 8.50843L13.6524 8.77746C13.7854 8.5472 13.9309 8.30484 14.0525 8.08608L13.4691 7.81726Z" fill="white" stroke="#DB161B" stroke-width="0.0230874"/>
<path fill-rule="evenodd" clip-rule="evenodd" d="M13.5183 7.89154C13.3889 8.10673 13.2983 8.2714 13.1653 8.50144L13.6027 8.70296C13.7363 8.47302 13.8346 8.31193 13.9563 8.09317L13.5183 7.89154Z" fill="white" stroke="#DB161B" stroke-width="0.0230874"/>
<path d="M13.8358 8.14075L13.544 8.00635L13.2849 8.45361L13.5767 8.588L13.8358 8.14075Z" fill="white" stroke="#DB161B" stroke-width="0.0231391"/>
<path fill-rule="evenodd" clip-rule="evenodd" d="M13.8361 8.14089L13.2853 8.45371L13.8361 8.14089ZM13.5767 8.58804L13.5441 8.00645L13.5767 8.58804ZM15.155 5.86399L14.8631 5.72955L15.155 5.86399Z" fill="white"/>
<path d="M15.155 5.86399L14.8631 5.72955M13.8361 8.14089L13.2853 8.45371L13.8361 8.14089ZM13.5767 8.58804L13.5441 8.00645L13.5767 8.58804Z" stroke="#DB161B" stroke-width="0.0230874"/>
<path d="M15.1554 5.65309C15.1099 5.66456 15.0647 5.64151 15.0545 5.60161C15.0442 5.56172 15.0727 5.52008 15.1182 5.50862C15.1637 5.49715 15.2089 5.5202 15.2191 5.56009C15.2294 5.59999 15.2009 5.64162 15.1554 5.65309Z" fill="#DB161B" stroke="#DB161B" stroke-width="0.0299447"/>
<path fill-rule="evenodd" clip-rule="evenodd" d="M12.1166 11.0092C14.6072 13.4448 15.6696 13.7528 15.171 13.949C14.6724 14.1452 13.0685 12.8883 11.3996 11.2183C9.73069 9.54891 8.70884 8.06294 9.20734 7.86669C9.70584 7.6704 9.46772 8.41862 12.1166 11.0092Z" fill="white" stroke="#DB161B" stroke-width="0.0292475"/>
<path fill-rule="evenodd" clip-rule="evenodd" d="M14.2132 12.779L13.3408 13.0078C14.1619 13.7859 15.0857 14.1063 15.3423 13.9691C15.599 13.8319 14.8804 13.5115 14.2132 12.779Z" fill="white" stroke="#DB161B" stroke-width="0.0170826"/>
<path fill-rule="evenodd" clip-rule="evenodd" d="M14.2132 12.8706L13.4947 13.0539C14.2946 13.8019 15.0858 14.0147 15.2905 13.9235C15.4964 13.8319 14.8632 13.5746 14.2132 12.8706Z" fill="white" stroke="#DB161B" stroke-width="0.0170826"/>
<path d="M14.1493 13.0337V13.042C14.1493 13.0203 14.1499 13.0312 14.1402 13.0741C14.1232 13.0933 14.0831 13.0984 14.0497 13.0902C14.0204 13.0689 14.0213 13.0524 13.9682 13.042C13.9169 13.0451 13.8973 13.0586 13.8686 13.0741C13.8346 13.0891 13.8188 13.0969 13.7962 13.1305C13.785 13.158 13.7787 13.1766 13.8143 13.187C13.8426 13.2051 13.8763 13.2149 13.9139 13.2196C13.9557 13.2196 13.9859 13.2149 14.0045 13.2356C14.0332 13.262 14.0316 13.2781 14.0316 13.3241C14.0413 13.3386 14.0432 13.3811 14.0497 13.3971C14.0749 13.4075 14.0896 13.4132 14.1312 13.4132C14.141 13.3883 14.1518 13.3433 14.1584 13.3164C14.1654 13.2874 14.1676 13.247 14.1855 13.2273C14.203 13.2048 14.2245 13.1857 14.2489 13.1709C14.26 13.1569 14.2811 13.1456 14.3032 13.1388C14.2677 13.1549 14.2626 13.1725 14.2579 13.2113C14.2892 13.2253 14.2975 13.2351 14.3485 13.2356C14.3986 13.232 14.4107 13.2206 14.43 13.1952C14.4334 13.2356 14.448 13.2491 14.4571 13.2843C14.4757 13.3086 14.4836 13.3335 14.5024 13.3645C14.4944 13.4039 14.4772 13.4054 14.4752 13.4536C14.4635 13.4851 14.4648 13.5152 14.439 13.5343C14.4275 13.5467 14.4189 13.5493 14.3937 13.5504C14.4462 13.5504 14.4767 13.5452 14.5114 13.526C14.5383 13.5115 14.5586 13.4929 14.5839 13.4779C14.6159 13.4572 14.6555 13.438 14.6925 13.4292C14.7343 13.4292 14.7645 13.4251 14.7831 13.4453C14.8087 13.4618 14.8259 13.4898 14.8374 13.526C14.8457 13.568 14.849 13.5959 14.8283 13.6228C14.813 13.6544 14.8095 13.6663 14.8283 13.7036C14.8494 13.73 14.8807 13.7331 14.9279 13.744C14.9587 13.7427 14.9891 13.7373 15.0184 13.7279M11.5327 10.9026C11.5347 10.9145 11.5404 10.9667 11.5456 10.9875C11.5456 11.0164 11.5487 11.0382 11.5518 11.061C11.5601 11.0806 11.5585 11.0987 11.5839 11.106C11.601 11.1298 11.6119 11.136 11.6346 11.1459C11.6502 11.1578 11.674 11.1697 11.6988 11.1795C11.7242 11.1893 11.7475 11.1904 11.7749 11.1852C11.7977 11.1712 11.8137 11.1572 11.8324 11.1459C11.837 11.1277 11.8407 11.1013 11.8453 11.0837C11.8386 11.1019 11.8334 11.1308 11.8324 11.1567C11.835 11.1852 11.8453 11.1976 11.8577 11.2188L11.5327 10.9026ZM11.7687 11.281C11.7708 11.2794 11.7728 11.2773 11.7749 11.2753C11.7599 11.2887 11.7661 11.2825 11.8008 11.2644C11.8251 11.253 11.8515 11.2468 11.8836 11.2416H11.9727C12.0073 11.2416 12.0306 11.2463 12.0555 11.253C12.0736 11.2691 12.1005 11.2779 12.1192 11.2924C12.1388 11.3043 12.1471 11.3182 12.1575 11.3374C12.1751 11.3529 12.1865 11.3767 12.2025 11.3886C12.2092 11.4145 12.2242 11.4135 12.2341 11.4337C12.2041 11.4357 12.1797 11.4394 12.1642 11.4559C12.1373 11.4684 12.1865 11.444 12.1958 11.4337C12.217 11.428 12.2222 11.4223 12.2532 11.4223C12.2822 11.414 12.2998 11.429 12.3298 11.4337C12.3469 11.4425 12.3521 11.4451 12.3744 11.4451L11.7687 11.281ZM12.1129 11.5636C12.1259 11.5641 12.1854 11.574 12.2087 11.5636C12.2346 11.5574 12.2501 11.545 12.2662 11.5237C12.2739 11.5087 12.2662 11.5512 12.2662 11.5693C12.2688 11.6024 12.2801 11.6029 12.2977 11.6257C12.3164 11.6361 12.3361 11.6511 12.3552 11.6594C12.3713 11.6718 12.3909 11.6801 12.4127 11.6878C12.4318 11.6956 12.4546 11.7039 12.4701 11.7158C12.4913 11.7293 12.4893 11.7458 12.5017 11.7665C12.4996 11.7945 12.4945 11.81 12.4763 11.8235C12.4691 11.8421 12.452 11.8613 12.438 11.8742C12.4225 11.9001 12.4049 11.912 12.4448 11.9192C12.4665 11.9275 12.4784 11.9208 12.5017 11.9192L12.1129 11.5636ZM12.5146 11.9586C12.5302 11.9555 12.5861 11.9389 12.6104 11.9306H12.6994C12.7341 11.9327 12.7409 11.942 12.7698 11.9529C12.7885 11.97 12.8014 11.9819 12.8273 11.9927C12.8408 12.0083 12.8677 12.0347 12.878 12.0549C12.8858 12.074 12.891 12.0999 12.891 12.1284C12.8905 12.161 12.8806 12.1667 12.878 12.1962C12.8708 12.22 12.8594 12.2422 12.8397 12.2635C12.8371 12.2707 12.8351 12.2728 12.8273 12.2749L12.5146 11.9586ZM12.8185 12.3489C12.8211 12.3489 12.8273 12.3634 12.8366 12.3758C12.8568 12.3965 12.8594 12.3981 12.891 12.3981C12.9189 12.397 12.9163 12.3872 12.936 12.3799C12.9453 12.366 12.9572 12.3546 12.9676 12.3354C12.9748 12.324 12.9816 12.3059 12.9904 12.2956C12.9987 12.2821 13.009 12.2723 13.0178 12.2598C13.0261 12.2562 13.0292 12.2526 13.0401 12.251C13.0142 12.2552 13.0121 12.264 12.995 12.2774C12.9873 12.2904 12.979 12.3033 12.9722 12.3178C12.9697 12.337 12.9634 12.352 12.9634 12.3758C12.9634 12.4001 12.9634 12.4177 12.9722 12.4379C12.9831 12.4493 12.9909 12.4607 13.0038 12.4695C13.0147 12.4793 13.0276 12.4928 13.0359 12.5047C13.0499 12.5135 13.0603 12.5207 13.0763 12.5316C13.0903 12.5394 13.1048 12.5477 13.126 12.5497C13.1529 12.5477 13.1607 12.5404 13.1803 12.5316C13.1974 12.5192 13.2109 12.5114 13.2259 12.5006C13.2378 12.4923 13.2497 12.4762 13.2575 12.4648C13.2818 12.4586 13.2973 12.4612 13.3118 12.4736C13.3243 12.4819 13.3351 12.4928 13.3434 12.5047C13.3512 12.5083 13.3631 12.5192 13.3708 12.5228L12.8185 12.3489ZM13.317 12.5332C13.3098 12.5363 13.2839 12.5544 13.272 12.5611C13.2647 12.5844 13.2533 12.5974 13.2497 12.6222C13.2435 12.6465 13.244 12.6729 13.244 12.7004C13.2502 12.7288 13.2621 12.7495 13.272 12.7723C13.2901 12.7847 13.2989 12.793 13.3227 12.806C13.345 12.8091 13.3672 12.8117 13.3957 12.8117C13.4133 12.8174 13.4464 12.8199 13.4635 12.8117C13.4884 12.808 13.5071 12.7982 13.5253 12.7894C13.5461 12.7775 13.5589 12.7666 13.5816 12.7558C13.5927 12.7397 13.6098 12.7252 13.6266 12.7055C13.6406 12.6869 13.6509 12.6766 13.6604 12.6559C13.6521 12.6797 13.6395 12.7004 13.6323 12.7226C13.6195 12.7459 13.612 12.7547 13.6097 12.7837C13.6019 12.807 13.6041 12.835 13.6041 12.8614C13.6066 12.8795 13.6079 12.9136 13.6154 12.9281V12.9452L13.317 12.5332Z" stroke="#DB161B" stroke-width="0.0170826"/>
<path fill-rule="evenodd" clip-rule="evenodd" d="M9.27462 8.81113C8.16943 6.90316 7.43592 5.27959 7.6378 5.18683C7.83917 5.09411 8.89933 6.56715 10.0045 8.47486L9.27462 8.81113Z" fill="white" stroke="#DB161B" stroke-width="0.0231391"/>
<path fill-rule="evenodd" clip-rule="evenodd" d="M9.3476 8.77749C8.28176 6.93687 7.5472 5.38303 7.70819 5.30885C7.86918 5.23467 8.86515 6.6681 9.93152 8.50847" fill="white"/>
<path d="M9.3476 8.77749C8.28176 6.93687 7.5472 5.38303 7.70819 5.30885C7.86918 5.23467 8.86515 6.6681 9.93152 8.50847" stroke="#DB161B" stroke-width="0.0203438"/>
<path fill-rule="evenodd" clip-rule="evenodd" d="M9.53085 7.81726C9.66079 8.03245 9.79796 8.27839 9.93152 8.50843L9.3476 8.77746C9.21457 8.5472 9.06911 8.30484 8.94746 8.08608L9.53085 7.81726Z" fill="white" stroke="#DB161B" stroke-width="0.0230874"/>
<path fill-rule="evenodd" clip-rule="evenodd" d="M9.48168 7.89154C9.61109 8.10673 9.70168 8.2714 9.83472 8.50144L9.3973 8.70296C9.26374 8.47302 9.16539 8.31193 9.04374 8.09317L9.48168 7.89154Z" fill="white" stroke="#DB161B" stroke-width="0.0230874"/>
<path d="M9.16418 8.14075L9.45604 8.00635L9.71512 8.45361L9.42327 8.588L9.16418 8.14075Z" fill="white" stroke="#DB161B" stroke-width="0.0231391"/>
<path fill-rule="evenodd" clip-rule="evenodd" d="M9.16394 8.14089L9.71472 8.45371L9.16394 8.14089ZM9.42328 8.58804L9.45589 8.00645L9.42328 8.58804ZM7.84496 5.86399L8.13691 5.72955L7.84496 5.86399Z" fill="white"/>
<path d="M7.84496 5.86399L8.13691 5.72955M9.16394 8.14089L9.71472 8.45371L9.16394 8.14089ZM9.42328 8.58804L9.45589 8.00645L9.42328 8.58804Z" stroke="#DB161B" stroke-width="0.0230874"/>
<path d="M7.84461 5.65309C7.89009 5.66456 7.93528 5.64151 7.94555 5.60161C7.95581 5.56172 7.92727 5.52008 7.88179 5.50862C7.83631 5.49715 7.79112 5.5202 7.78085 5.56009C7.77059 5.59999 7.79913 5.64162 7.84461 5.65309Z" fill="#DB161B" stroke="#DB161B" stroke-width="0.0299447"/>
<path fill-rule="evenodd" clip-rule="evenodd" d="M11.3364 7.79129C11.3364 9.39302 11.3457 9.9966 11.2277 10.0794C11.1159 10.1679 8.00024 10.0794 8.00024 10.537C8.00024 10.9946 10.5667 11.4522 11.3364 11.4522C12.3629 11.4522 12.8764 10.9946 12.8764 10.0794V7.79129H11.3364Z" fill="white" stroke="#DB161B" stroke-width="0.0210685"/>
<path fill-rule="evenodd" clip-rule="evenodd" d="M11.3364 8.2489V8.4777C11.8469 8.554 12.3659 8.554 12.8764 8.4777V8.2489C12.3659 8.3252 11.8469 8.3252 11.3364 8.2489ZM11.3364 7.79129V8.02009C11.8469 8.09634 12.3659 8.09634 12.8764 8.02009V7.79129C12.3659 7.86754 11.8469 7.86754 11.3364 7.79129Z" fill="white" stroke="#DB161B" stroke-width="0.0182214"/>
<path fill-rule="evenodd" clip-rule="evenodd" d="M11.3364 8.02008V8.24888C11.8469 8.32519 12.3659 8.32519 12.8764 8.24888V8.02008C12.3659 8.09633 11.8469 8.09633 11.3364 8.02008ZM11.3364 8.47769V8.70659C11.8499 8.78269 12.3629 8.78269 12.8764 8.70659V8.47769C12.3659 8.55399 11.8469 8.55399 11.3364 8.47769Z" fill="white" stroke="#DB161B" stroke-width="0.0182214"/>
<path d="M11.4064 8.19955C11.4451 8.19955 11.4764 8.17745 11.4764 8.15019C11.4764 8.12293 11.4451 8.10083 11.4064 8.10083C11.3678 8.10083 11.3364 8.12293 11.3364 8.15019C11.3364 8.17745 11.3678 8.19955 11.4064 8.19955Z" fill="white" stroke="#DB161B" stroke-width="0.0170967"/>
<path d="M11.6863 8.22418C11.725 8.22418 11.7563 8.20208 11.7563 8.17482C11.7563 8.14756 11.725 8.12546 11.6863 8.12546C11.6477 8.12546 11.6163 8.14756 11.6163 8.17482C11.6163 8.20208 11.6477 8.22418 11.6863 8.22418Z" fill="white" stroke="#DB161B" stroke-width="0.0170967"/>
<path d="M11.9663 8.24889C12.005 8.24889 12.0363 8.2268 12.0363 8.19954C12.0363 8.17228 12.005 8.15018 11.9663 8.15018C11.9277 8.15018 11.8964 8.17228 11.8964 8.19954C11.8964 8.2268 11.9277 8.24889 11.9663 8.24889Z" fill="white" stroke="#DB161B" stroke-width="0.0170967"/>
<path d="M12.2463 8.24889C12.2849 8.24889 12.3162 8.2268 12.3162 8.19954C12.3162 8.17228 12.2849 8.15018 12.2463 8.15018C12.2076 8.15018 12.1763 8.17228 12.1763 8.19954C12.1763 8.2268 12.2076 8.24889 12.2463 8.24889Z" fill="white" stroke="#DB161B" stroke-width="0.0170967"/>
<path d="M12.5262 8.22418C12.5648 8.22418 12.5962 8.20208 12.5962 8.17482C12.5962 8.14756 12.5648 8.12546 12.5262 8.12546C12.4875 8.12546 12.4562 8.14756 12.4562 8.17482C12.4562 8.20208 12.4875 8.22418 12.5262 8.22418Z" fill="white" stroke="#DB161B" stroke-width="0.0170967"/>
<path d="M12.8062 8.19955C12.8448 8.19955 12.8762 8.17745 12.8762 8.15019C12.8762 8.12293 12.8448 8.10083 12.8062 8.10083C12.7675 8.10083 12.7362 8.12293 12.7362 8.15019C12.7362 8.17745 12.7675 8.19955 12.8062 8.19955Z" fill="white" stroke="#DB161B" stroke-width="0.0170967"/>
<path fill-rule="evenodd" clip-rule="evenodd" d="M11.3364 8.93546L12.8764 10.1711L11.3364 8.93546ZM11.4901 8.93546L12.8764 10.0334L11.4901 8.93546ZM11.6956 8.98101L12.8764 9.89622L11.6956 8.98101ZM11.8499 8.98101L12.8764 9.75904L11.8499 8.98101ZM12.0036 8.98101L12.8764 9.62186L12.0036 8.98101ZM12.1574 8.98101L12.8764 9.48469L12.1574 8.98101ZM12.3116 8.98101L12.8764 9.34699L12.3116 8.98101ZM12.4654 8.98101L12.8764 9.25588L12.4654 8.98101ZM12.6196 8.98101L12.8764 9.16426L12.6196 8.98101ZM12.7734 8.98101L12.8764 9.07263L12.7734 8.98101ZM11.3364 9.07263L12.8764 10.3083L11.3364 9.07263ZM12.8764 8.93546L11.1826 10.3083L12.8764 8.93546ZM12.7221 8.93546L11.2339 10.125L12.7221 8.93546ZM12.5171 8.98101L11.3364 9.89622L12.5171 8.98101ZM12.3629 8.98101L11.3364 9.75904L12.3629 8.98101ZM12.2091 8.98101L11.3364 9.62186L12.2091 8.98101ZM12.0549 8.98101L11.3364 9.48469L12.0549 8.98101ZM11.9011 8.98101L11.3364 9.34699L11.9011 8.98101ZM11.7469 8.98101L11.3364 9.25588L11.7469 8.98101ZM11.5931 8.98101L11.3364 9.16426L11.5931 8.98101ZM11.4389 8.98101L11.3364 9.07263L11.4389 8.98101ZM12.8764 9.07263L11.1826 10.4455L12.8764 9.07263ZM12.8764 9.20981L11.1826 10.5826L12.8764 9.20981ZM12.8764 9.34699L11.1826 10.7203L12.8764 9.34699ZM12.8764 9.48469L11.1826 10.8575L12.8764 9.48469ZM12.8764 9.62186L11.1826 10.9947L12.8764 9.62186ZM12.8764 9.75904L11.1826 11.1319L12.8764 9.75904ZM12.8764 9.89622L11.1826 11.269L12.8764 9.89622ZM12.8764 10.0339L11.1826 11.4067L12.8764 10.0339ZM12.8764 10.1711L11.2851 11.4523L12.8764 10.1711ZM12.8764 10.3083L11.4389 11.4523L12.8764 10.3083ZM12.8246 10.4915L11.6956 11.4067L12.8246 10.4915ZM12.7734 10.6743L11.8499 11.4067L12.7734 10.6743ZM12.6709 10.9031L12.2091 11.269L12.6709 10.9031ZM11.3364 9.20981L12.8246 10.3999L11.3364 9.20981ZM11.3364 9.34699L12.8246 10.5371L11.3364 9.34699ZM11.3364 9.48469L12.7734 10.6287L11.3364 9.48469ZM11.3364 9.62186L12.7734 10.7659L11.3364 9.62186ZM11.3364 9.75904L12.7221 10.8575L11.3364 9.75904ZM11.2851 9.85067L12.6709 10.9491L11.2851 9.85067ZM11.2851 9.98785L12.5684 10.9947L11.2851 9.98785ZM11.2339 10.0795L12.5171 11.0863L11.2339 10.0795ZM11.1826 10.1711L12.4141 11.1319L11.1826 10.1711ZM11.1826 10.3083L12.3629 11.2235L11.1826 10.3083ZM11.1826 10.4455L12.2091 11.269L11.1826 10.4455Z" fill="white"/>
<path d="M11.1826 10.4455L12.2091 11.269M11.3364 8.93546L12.8764 10.1711L11.3364 8.93546ZM11.4901 8.93546L12.8764 10.0334L11.4901 8.93546ZM11.6956 8.98101L12.8764 9.89622L11.6956 8.98101ZM11.8499 8.98101L12.8764 9.75904L11.8499 8.98101ZM12.0036 8.98101L12.8764 9.62186L12.0036 8.98101ZM12.1574 8.98101L12.8764 9.48469L12.1574 8.98101ZM12.3116 8.98101L12.8764 9.34699L12.3116 8.98101ZM12.4654 8.98101L12.8764 9.25588L12.4654 8.98101ZM12.6196 8.98101L12.8764 9.16426L12.6196 8.98101ZM12.7734 8.98101L12.8764 9.07263L12.7734 8.98101ZM11.3364 9.07263L12.8764 10.3083L11.3364 9.07263ZM12.8764 8.93546L11.1826 10.3083L12.8764 8.93546ZM12.7221 8.93546L11.2339 10.125L12.7221 8.93546ZM12.5171 8.98101L11.3364 9.89622L12.5171 8.98101ZM12.3629 8.98101L11.3364 9.75904L12.3629 8.98101ZM12.2091 8.98101L11.3364 9.62186L12.2091 8.98101ZM12.0549 8.98101L11.3364 9.48469L12.0549 8.98101ZM11.9011 8.98101L11.3364 9.34699L11.9011 8.98101ZM11.7469 8.98101L11.3364 9.25588L11.7469 8.98101ZM11.5931 8.98101L11.3364 9.16426L11.5931 8.98101ZM11.4389 8.98101L11.3364 9.07263L11.4389 8.98101ZM12.8764 9.07263L11.1826 10.4455L12.8764 9.07263ZM12.8764 9.20981L11.1826 10.5826L12.8764 9.20981ZM12.8764 9.34699L11.1826 10.7203L12.8764 9.34699ZM12.8764 9.48469L11.1826 10.8575L12.8764 9.48469ZM12.8764 9.62186L11.1826 10.9947L12.8764 9.62186ZM12.8764 9.75904L11.1826 11.1319L12.8764 9.75904ZM12.8764 9.89622L11.1826 11.269L12.8764 9.89622ZM12.8764 10.0339L11.1826 11.4067L12.8764 10.0339ZM12.8764 10.1711L11.2851 11.4523L12.8764 10.1711ZM12.8764 10.3083L11.4389 11.4523L12.8764 10.3083ZM12.8246 10.4915L11.6956 11.4067L12.8246 10.4915ZM12.7734 10.6743L11.8499 11.4067L12.7734 10.6743ZM12.6709 10.9031L12.2091 11.269L12.6709 10.9031ZM11.3364 9.20981L12.8246 10.3999L11.3364 9.20981ZM11.3364 9.34699L12.8246 10.5371L11.3364 9.34699ZM11.3364 9.48469L12.7734 10.6287L11.3364 9.48469ZM11.3364 9.62186L12.7734 10.7659L11.3364 9.62186ZM11.3364 9.75904L12.7221 10.8575L11.3364 9.75904ZM11.2851 9.85067L12.6709 10.9491L11.2851 9.85067ZM11.2851 9.98785L12.5684 10.9947L11.2851 9.98785ZM11.2339 10.0795L12.5171 11.0863L11.2339 10.0795ZM11.1826 10.1711L12.4141 11.1319L11.1826 10.1711ZM11.1826 10.3083L12.3629 11.2235L11.1826 10.3083Z" stroke="#DB161B" stroke-width="0.0182214"/>
<path fill-rule="evenodd" clip-rule="evenodd" d="M11.3364 8.70667V8.93547C11.8499 9.01156 12.3629 9.01156 12.8764 8.93547V8.70667C12.3629 8.78276 11.8499 8.78276 11.3364 8.70667ZM11.1826 10.5826L12.1061 11.3151L11.1826 10.5826ZM11.1826 10.7203L12.0036 11.3607L11.1826 10.7203ZM11.1826 10.8575L11.9011 11.4067L11.1826 10.8575ZM11.1826 10.9947L11.6956 11.4067L11.1826 10.9947ZM11.1826 11.1319L11.5931 11.4523L11.1826 11.1319ZM11.1826 11.2691L11.4389 11.4523L11.1826 11.2691Z" fill="white"/>
<path d="M11.1826 11.2691L11.4389 11.4523M11.3364 8.70667V8.93547C11.8499 9.01156 12.3629 9.01156 12.8764 8.93547V8.70667C12.3629 8.78276 11.8499 8.78276 11.3364 8.70667ZM11.1826 10.5826L12.1061 11.3151L11.1826 10.5826ZM11.1826 10.7203L12.0036 11.3607L11.1826 10.7203ZM11.1826 10.8575L11.9011 11.4067L11.1826 10.8575ZM11.1826 10.9947L11.6956 11.4067L11.1826 10.9947ZM11.1826 11.1319L11.5931 11.4523L11.1826 11.1319Z" stroke="#DB161B" stroke-width="0.0182214"/>
<path d="M11.4064 8.88601C11.4451 8.88601 11.4764 8.86391 11.4764 8.83665C11.4764 8.80939 11.4451 8.78729 11.4064 8.78729C11.3678 8.78729 11.3364 8.80939 11.3364 8.83665C11.3364 8.86391 11.3678 8.88601 11.4064 8.88601Z" fill="white" stroke="#DB161B" stroke-width="0.0170967"/>
<path d="M11.6863 8.91064C11.725 8.91064 11.7563 8.88854 11.7563 8.86128C11.7563 8.83402 11.725 8.81192 11.6863 8.81192C11.6477 8.81192 11.6163 8.83402 11.6163 8.86128C11.6163 8.88854 11.6477 8.91064 11.6863 8.91064Z" fill="white" stroke="#DB161B" stroke-width="0.0170967"/>
<path d="M11.9663 8.93536C12.005 8.93536 12.0363 8.91326 12.0363 8.886C12.0363 8.85874 12.005 8.83664 11.9663 8.83664C11.9277 8.83664 11.8964 8.85874 11.8964 8.886C11.8964 8.91326 11.9277 8.93536 11.9663 8.93536Z" fill="white" stroke="#DB161B" stroke-width="0.0170967"/>
<path d="M12.2463 8.93536C12.2849 8.93536 12.3162 8.91326 12.3162 8.886C12.3162 8.85874 12.2849 8.83664 12.2463 8.83664C12.2076 8.83664 12.1763 8.85874 12.1763 8.886C12.1763 8.91326 12.2076 8.93536 12.2463 8.93536Z" fill="white" stroke="#DB161B" stroke-width="0.0170967"/>
<path d="M12.5262 8.91064C12.5648 8.91064 12.5962 8.88854 12.5962 8.86128C12.5962 8.83402 12.5648 8.81192 12.5262 8.81192C12.4875 8.81192 12.4562 8.83402 12.4562 8.86128C12.4562 8.88854 12.4875 8.91064 12.5262 8.91064Z" fill="white" stroke="#DB161B" stroke-width="0.0170967"/>
<path d="M12.8062 8.88601C12.8448 8.88601 12.8762 8.86391 12.8762 8.83665C12.8762 8.80939 12.8448 8.78729 12.8062 8.78729C12.7675 8.78729 12.7362 8.80939 12.7362 8.83665C12.7362 8.86391 12.7675 8.88601 12.8062 8.88601Z" fill="white" stroke="#DB161B" stroke-width="0.0170967"/>
<path fill-rule="evenodd" clip-rule="evenodd" d="M9.12936 11.0863L10.9771 10.125L9.12936 11.0863ZM9.02671 11.0402L10.7716 10.125L9.02671 11.0402ZM8.97541 10.9491L10.5666 10.125L8.97541 10.9491ZM8.92406 10.8575L10.3099 10.125L8.92406 10.8575ZM8.82141 10.7659L10.1044 10.125L8.82141 10.7659ZM8.87276 10.6287L9.74511 10.1711L8.87276 10.6287ZM8.82141 10.5371L9.48867 10.1711L8.82141 10.5371ZM8.82141 10.3999L9.28337 10.1711L8.82141 10.3999ZM9.28337 11.1319L11.0284 10.2167L9.28337 11.1319ZM9.43732 11.1779L11.0796 10.3083L9.43732 11.1779ZM9.59137 11.2235L11.1309 10.3999L9.59137 11.2235ZM9.74511 11.269L11.0284 10.5826L9.74511 11.269ZM9.95062 11.269L11.0796 10.6743L9.95062 11.269ZM10.1044 11.3151L11.0796 10.8114L10.1044 11.3151ZM10.2586 11.3607L11.0284 10.9491L10.2586 11.3607ZM10.4636 11.3607L11.0796 11.0402L10.4636 11.3607ZM10.6691 11.4067L11.0796 11.1779L10.6691 11.4067ZM10.8746 11.4067L11.1309 11.269L10.8746 11.4067Z" fill="white"/>
<path d="M10.8746 11.4067L11.1309 11.269M9.12936 11.0863L10.9771 10.125L9.12936 11.0863ZM9.02671 11.0402L10.7716 10.125L9.02671 11.0402ZM8.97541 10.9491L10.5666 10.125L8.97541 10.9491ZM8.92406 10.8575L10.3099 10.125L8.92406 10.8575ZM8.82141 10.7659L10.1044 10.125L8.82141 10.7659ZM8.87276 10.6287L9.74511 10.1711L8.87276 10.6287ZM8.82141 10.5371L9.48867 10.1711L8.82141 10.5371ZM8.82141 10.3999L9.28337 10.1711L8.82141 10.3999ZM9.28337 11.1319L11.0284 10.2167L9.28337 11.1319ZM9.43732 11.1779L11.0796 10.3083L9.43732 11.1779ZM9.59137 11.2235L11.1309 10.3999L9.59137 11.2235ZM9.74511 11.269L11.0284 10.5826L9.74511 11.269ZM9.95062 11.269L11.0796 10.6743L9.95062 11.269ZM10.1044 11.3151L11.0796 10.8114L10.1044 11.3151ZM10.2586 11.3607L11.0284 10.9491L10.2586 11.3607ZM10.4636 11.3607L11.0796 11.0402L10.4636 11.3607ZM10.6691 11.4067L11.0796 11.1779L10.6691 11.4067Z" stroke="#DB161B" stroke-width="0.0182214"/>
<path fill-rule="evenodd" clip-rule="evenodd" d="M11.2338 10.0795H10.9771C10.8917 10.5331 10.8917 10.9987 10.9771 11.4523H11.2338C11.1479 10.9987 11.1479 10.533 11.2338 10.0795ZM8.20544 10.7203L8.82135 10.2627L8.20544 10.7203ZM8.20544 10.3999L8.82135 10.9491L8.20544 10.3999Z" fill="white"/>
<path d="M8.20544 10.3999L8.82135 10.9491M11.2338 10.0795H10.9771C10.8917 10.5331 10.8917 10.9987 10.9771 11.4523H11.2338C11.1479 10.9987 11.1479 10.533 11.2338 10.0795V10.0795ZM8.20544 10.7203L8.82135 10.2627L8.20544 10.7203Z" stroke="#DB161B" stroke-width="0.0182214"/>
<path fill-rule="evenodd" clip-rule="evenodd" d="M9.12942 10.1711L8.82147 10.2167C8.75303 10.5066 8.75303 10.7504 8.82147 11.0403L9.12942 11.1319C9.06099 10.842 9.06099 10.461 9.12942 10.1711Z" fill="white" stroke="#DB161B" stroke-width="0.0129931"/>
<path fill-rule="evenodd" clip-rule="evenodd" d="M12.8744 7.88293V7.65221C12.644 7.65412 12.4898 7.51684 12.4898 7.37759L11.721 7.37951C11.721 7.51684 11.5673 7.65412 11.3364 7.65412V7.88293H12.8744Z" fill="white" stroke="#DB161B" stroke-width="0.0223109"/>
<path d="M11.7759 7.10488H12.4351V7.37945H11.7759V7.10488ZM11.8308 6.83032H12.3801V7.10488H11.8308V6.83032ZM11.8308 6.55576H12.3801V6.83032H11.8308V6.55576Z" fill="white" stroke="#DB161B" stroke-width="0.0188426"/>
<path d="M11.8856 6.1897H12.3251V6.55578H11.8856V6.1897Z" fill="white" stroke="#DB161B" stroke-width="0.0188426"/>
<path d="M11.8669 5.86938H12.3443V6.18971H11.8669V5.86938Z" fill="white" stroke="#DB161B" stroke-width="0.0196709"/>
<path d="M12.1319 6.00676C12.4835 6.00676 12.7684 5.81212 12.7684 5.57202C12.7684 5.33191 12.4835 5.13727 12.1319 5.13727C11.7804 5.13727 11.4955 5.33191 11.4955 5.57202C11.4955 5.81212 11.7804 6.00676 12.1319 6.00676Z" fill="white" stroke="#DB161B" stroke-width="0.0185342"/>
<path fill-rule="evenodd" clip-rule="evenodd" d="M12.4504 5.54902C12.4504 5.66907 12.6093 5.8694 12.6093 5.8694C12.4939 5.94808 12.3075 6.00668 12.1321 6.00668C11.9566 6.00668 11.7376 5.97402 11.6548 5.8694C11.6548 5.8694 11.8137 5.66907 11.8137 5.54902C11.8137 5.42903 11.6548 5.27446 11.6548 5.27446C11.7697 5.19577 11.9566 5.13718 12.1321 5.13718C12.3075 5.13718 12.4939 5.19577 12.6093 5.27446C12.6093 5.27446 12.4504 5.42903 12.4504 5.54902Z" fill="white" stroke="#DB161B" stroke-width="0.018532"/>
<path fill-rule="evenodd" clip-rule="evenodd" d="M12.3443 5.54902C12.3443 5.66907 12.5032 5.91516 12.5032 5.91516C12.3883 5.99384 12.3075 6.00668 12.132 6.00668C11.9565 6.00668 11.8437 6.01978 11.7609 5.91516C11.7609 5.91516 11.9198 5.66907 11.9198 5.54902C11.9198 5.42903 11.7609 5.2287 11.7609 5.2287C11.8758 5.15001 11.9565 5.13718 12.132 5.13718C12.3075 5.13718 12.3883 5.15001 12.5032 5.2287C12.5032 5.2287 12.3443 5.42903 12.3443 5.54902Z" fill="white" stroke="#DB161B" stroke-width="0.018532"/>
<path d="M11.4955 5.73216C11.5834 5.73216 11.6547 5.6707 11.6547 5.59487C11.6547 5.51905 11.5834 5.45758 11.4955 5.45758C11.4077 5.45758 11.3364 5.51905 11.3364 5.59487C11.3364 5.6707 11.4077 5.73216 11.4955 5.73216Z" fill="white" stroke="#DB161B" stroke-width="0.0185342"/>
<path d="M12.7684 5.73216C12.8562 5.73216 12.9275 5.6707 12.9275 5.59487C12.9275 5.51905 12.8562 5.45758 12.7684 5.45758C12.6805 5.45758 12.6093 5.51905 12.6093 5.59487C12.6093 5.6707 12.6805 5.73216 12.7684 5.73216Z" fill="white" stroke="#DB161B" stroke-width="0.0185342"/>
<path d="M12.132 5.73216C12.2199 5.73216 12.2911 5.6707 12.2911 5.59487C12.2911 5.51905 12.2199 5.45758 12.132 5.45758C12.0441 5.45758 11.9729 5.51905 11.9729 5.59487C11.9729 5.6707 12.0441 5.73216 12.132 5.73216Z" fill="white" stroke="#DB161B" stroke-width="0.0185342"/>
<path d="M12.132 5.27458C12.2199 5.27458 12.2911 5.21312 12.2911 5.13729C12.2911 5.06147 12.2199 5 12.132 5C12.0441 5 11.9729 5.06147 11.9729 5.13729C11.9729 5.21312 12.0441 5.27458 12.132 5.27458Z" fill="white" stroke="#DB161B" stroke-width="0.0185342"/>
<path d="M11.6659 7.88295C11.7569 7.88295 11.8307 7.82148 11.8307 7.74566C11.8307 7.66984 11.7569 7.60837 11.6659 7.60837C11.5749 7.60837 11.5011 7.66984 11.5011 7.74566C11.5011 7.82148 11.5749 7.88295 11.6659 7.88295Z" fill="white" stroke="#DB161B" stroke-width="0.0188621"/>
<path d="M12.5448 7.88295C12.6358 7.88295 12.7096 7.82148 12.7096 7.74566C12.7096 7.66984 12.6358 7.60837 12.5448 7.60837C12.4538 7.60837 12.38 7.66984 12.38 7.74566C12.38 7.82148 12.4538 7.88295 12.5448 7.88295Z" fill="white" stroke="#DB161B" stroke-width="0.0188621"/>
<path fill-rule="evenodd" clip-rule="evenodd" d="M11.7211 7.37939H12.4898L12.1057 7.79129L11.7211 7.37939Z" fill="white" stroke="#DB161B" stroke-width="0.0188426"/>
<path d="M12.1053 7.88298C12.2267 7.88298 12.3251 7.80102 12.3251 7.69993C12.3251 7.59883 12.2267 7.51688 12.1053 7.51688C11.984 7.51688 11.8856 7.59883 11.8856 7.69993C11.8856 7.80102 11.984 7.88298 12.1053 7.88298Z" fill="white" stroke="#DB161B" stroke-width="0.0251493"/>
<path d="M12.3757 9.07315H11.3234C11.288 9.07315 11.2593 9.09489 11.2593 9.12171V9.29916C11.2593 9.32597 11.288 9.34771 11.3234 9.34771H12.3757C12.4111 9.34771 12.4398 9.32597 12.4398 9.29916V9.12171C12.4398 9.09489 12.4111 9.07315 12.3757 9.07315Z" fill="white" stroke="#DB161B" stroke-width="0.0170826"/>
<path fill-rule="evenodd" clip-rule="evenodd" d="M12.7993 8.84435C12.6569 8.84435 12.5425 8.95099 12.5425 9.08351V9.2916C12.5425 9.42412 12.6569 9.53076 12.7993 9.53076C12.9416 9.53076 13.056 9.42412 13.056 9.2916V9.08351C13.056 8.95099 12.9416 8.84435 12.7993 8.84435ZM12.7993 8.93598C12.7139 8.93598 12.645 9.02139 12.645 9.12751V9.24812C12.645 9.35424 12.7139 9.43914 12.7993 9.43914C12.8847 9.43914 12.953 9.35424 12.953 9.24812V9.12751C12.953 9.02139 12.8847 8.93598 12.7993 8.93598ZM11.4648 8.89042C11.3794 8.89042 11.311 8.97532 11.311 9.08144V9.29368C11.311 9.39979 11.3794 9.48521 11.4648 9.48521C11.5502 9.48521 11.6185 9.39979 11.6185 9.29368V9.08144C11.6185 8.97532 11.5502 8.89042 11.4648 8.89042ZM11.4648 8.7988C11.3224 8.7988 11.208 8.90543 11.208 9.03795V9.33768C11.208 9.4702 11.3224 9.57683 11.4648 9.57683C11.6071 9.57683 11.7215 9.4702 11.7215 9.33768V9.03795C11.7215 8.90543 11.6071 8.7988 11.4648 8.7988Z" fill="white" stroke="#DB161B" stroke-width="0.0170826"/>
<path fill-rule="evenodd" clip-rule="evenodd" d="M11.0542 8.98155C10.9688 8.98155 10.9 9.06696 10.9 9.17308V9.22278C10.9 9.32889 10.9688 9.41431 11.0542 9.41431C11.1397 9.41431 11.208 9.32889 11.208 9.22278V9.17308C11.208 9.06696 11.1397 8.98155 11.0542 8.98155ZM11.0542 8.89044C10.9119 8.89044 10.7975 8.99708 10.7975 9.1296V9.26678C10.7975 9.3993 10.9119 9.50593 11.0542 9.50593C11.1961 9.50593 11.311 9.3993 11.311 9.26678V9.1296C11.311 8.99708 11.1961 8.89044 11.0542 8.89044Z" fill="white" stroke="#DB161B" stroke-width="0.0170826"/>
<path fill-rule="evenodd" clip-rule="evenodd" d="M10.4382 8.85524C10.2844 8.85524 10.1612 8.95049 10.1612 9.06903V9.30612C10.1612 9.42466 10.2844 9.51991 10.4382 9.51991C10.5919 9.51991 10.7151 9.42466 10.7151 9.30612V9.06903C10.7151 8.95049 10.5919 8.85524 10.4382 8.85524ZM10.4382 8.75275C10.1825 8.75275 9.97644 8.87232 9.97644 9.02037V9.3553C9.97644 9.50334 10.1825 9.62241 10.4382 9.62241C10.6939 9.62241 10.8999 9.50334 10.8999 9.3553V9.02037C10.8999 8.87232 10.6939 8.75275 10.4382 8.75275ZM13.7745 8.9008C13.6207 8.9008 13.497 8.99656 13.497 9.1151V9.35219C13.497 9.47073 13.6207 9.56598 13.7745 9.56598C13.9277 9.56598 14.0514 9.47073 14.0514 9.35219V9.1151C14.0514 8.99656 13.9277 8.9008 13.7745 8.9008ZM13.7745 8.79882C13.5182 8.79882 13.3122 8.91788 13.3122 9.06593V9.40085C13.3122 9.5489 13.5182 9.66796 13.7745 9.66796C14.0302 9.66796 14.2362 9.5489 14.2362 9.40085V9.06593C14.2362 8.91788 14.0302 8.79882 13.7745 8.79882Z" fill="white" stroke="#DB161B" stroke-width="0.0170826"/>
<path d="M13.4842 9.07315H12.9352C12.9167 9.07315 12.9017 9.09489 12.9017 9.12171V9.29916C12.9017 9.32597 12.9167 9.34771 12.9352 9.34771H13.4842C13.5027 9.34771 13.5176 9.32597 13.5176 9.29916V9.12171C13.5176 9.09489 13.5027 9.07315 13.4842 9.07315Z" fill="white" stroke="#DB161B" stroke-width="0.0170826"/>
<path d="M12.6773 9.02759H12.357C12.3463 9.02759 12.3375 9.05658 12.3375 9.09235V9.32891C12.3375 9.36468 12.3463 9.39367 12.357 9.39367H12.6773C12.6881 9.39367 12.6968 9.36468 12.6968 9.32891V9.09235C12.6968 9.05658 12.6881 9.02759 12.6773 9.02759Z" fill="white" stroke="#DB161B" stroke-width="0.0170826"/>
<path d="M10.9836 9.02759H10.6633C10.6525 9.02759 10.6438 9.05658 10.6438 9.09235V9.32891C10.6438 9.36468 10.6525 9.39367 10.6633 9.39367H10.9836C10.9944 9.39367 11.0031 9.36468 11.0031 9.32891V9.09235C11.0031 9.05658 10.9944 9.02759 10.9836 9.02759Z" fill="white" stroke="#DB161B" stroke-width="0.0170826"/>
<path d="M10.1939 8.98151H9.55326C9.53173 8.98151 9.51428 9.01773 9.51428 9.06242V9.3582C9.51428 9.40289 9.53173 9.43911 9.55326 9.43911H10.1939C10.2154 9.43911 10.2328 9.40289 10.2328 9.3582V9.06242C10.2328 9.01773 10.2154 8.98151 10.1939 8.98151Z" fill="white" stroke="#DB161B" stroke-width="0.0170826"/>
<path d="M14.6105 9.02759H14.0157C13.9957 9.02759 13.9795 9.06381 13.9795 9.1085V9.40428C13.9795 9.44897 13.9957 9.48519 14.0157 9.48519H14.6105C14.6305 9.48519 14.6467 9.44897 14.6467 9.40428V9.1085C14.6467 9.06381 14.6305 9.02759 14.6105 9.02759Z" fill="white" stroke="#DB161B" stroke-width="0.0170826"/>
</g>
<path d="M11.7035 1.61228C6.53056 2.04084 2.23921 5.77712 1.57724 11.0101C1.25164 13.5841 1 16.6548 1 20C1 23.3452 1.25164 26.4159 1.57724 28.9899C2.23922 34.2229 6.53056 37.9592 11.7035 38.3877C15.5784 38.7087 20.5852 39 26 39C31.4148 39 36.4216 38.7087 40.2965 38.3877C45.4694 37.9592 49.7608 34.2229 50.4228 28.9899C50.7484 26.4159 51 23.3452 51 20C51 16.6548 50.7484 13.5841 50.4228 11.0101C49.7608 5.77712 45.4694 2.04084 40.2965 1.61228C36.4216 1.29127 31.4148 1 26 1C20.5852 1 15.5784 1.29127 11.7035 1.61228Z" stroke="#E6E6FA" stroke-width="2"/>
</svg>
