<svg width="52" height="40" viewBox="0 0 52 40" fill="none" xmlns="http://www.w3.org/2000/svg">
<mask id="mask0_1_33908" style="mask-type:alpha" maskUnits="userSpaceOnUse" x="2" y="2" width="48" height="36">
<path d="M2.56934 11.1356C3.16681 6.41247 7.0415 3.00193 11.7861 2.60887C15.6412 2.28949 20.6196 2 26 2C31.3804 2 36.3588 2.28949 40.2139 2.60887C44.9585 3.00193 48.8332 6.41247 49.4307 11.1356C49.752 13.6759 50 16.704 50 20C50 23.296 49.752 26.3241 49.4307 28.8644C48.8332 33.5875 44.9585 36.9981 40.2139 37.3911C36.3588 37.7105 31.3804 38 26 38C20.6196 38 15.6412 37.7105 11.7861 37.3911C7.0415 36.9981 3.16681 33.5875 2.56934 28.8644C2.248 26.3241 2 23.296 2 20C2 16.704 2.248 13.6759 2.56934 11.1356Z" fill="#00D0BF"/>
</mask>
<g mask="url(#mask0_1_33908)">
<rect x="2" y="-4" width="12" height="49" fill="white"/>
<rect x="14" y="-4" width="36" height="49" fill="#1C6864"/>
</g>
<path d="M11.7035 1.61228C6.53056 2.04084 2.23921 5.77712 1.57724 11.0101C1.25164 13.5841 1 16.6548 1 20C1 23.3452 1.25164 26.4159 1.57724 28.9899C2.23922 34.2229 6.53056 37.9592 11.7035 38.3877C15.5784 38.7087 20.5852 39 26 39C31.4148 39 36.4216 38.7087 40.2965 38.3877C45.4694 37.9592 49.7608 34.2229 50.4228 28.9899C50.7484 26.4159 51 23.3452 51 20C51 16.6548 50.7484 13.5841 50.4228 11.0101C49.7608 5.77712 45.4694 2.04084 40.2965 1.61228C36.4216 1.29127 31.4148 1 26 1C20.5852 1 15.5784 1.29127 11.7035 1.61228Z" stroke="#E6E6FA" stroke-width="2"/>
<path fill-rule="evenodd" clip-rule="evenodd" d="M39.33 26.0955C35.6809 27.2369 31.353 25.4136 29.1651 21.6084C27.0725 17.9689 27.6172 13.6982 30.2454 11.263C29.8249 11.3945 29.4133 11.5655 29.0151 11.7773C25.1617 13.8269 24.016 18.9288 26.456 23.1725C28.8961 27.4163 33.9979 29.195 37.8513 27.1453C38.3999 26.8535 38.8937 26.4998 39.33 26.0955Z" fill="white"/>
<path d="M35.1827 15.4009L36.609 16.6851L38.2711 15.7255L37.4905 17.4788L38.9167 18.763L37.008 18.5624L36.2274 20.3157L35.8284 18.4384L33.9196 18.2378L35.5817 17.2782L35.1827 15.4009Z" fill="white"/>
</svg>
