<svg width="52" height="40" viewBox="0 0 52 40" fill="none" xmlns="http://www.w3.org/2000/svg">
<mask id="mask0_1_42047" style="mask-type:alpha" maskUnits="userSpaceOnUse" x="2" y="2" width="48" height="36">
<path d="M49.4307 28.8644C48.8332 33.5875 44.9585 36.9981 40.2139 37.3911C36.3588 37.7105 31.3804 38 26 38C20.6196 38 15.6412 37.7105 11.7861 37.3911C7.0415 36.9981 3.16681 33.5875 2.56934 28.8644C2.248 26.3241 2 23.296 2 20C2 16.704 2.248 13.6759 2.56934 11.1356C3.16682 6.41246 7.04151 3.00193 11.7861 2.60887C15.6412 2.28948 20.6196 2 26 2C31.3804 2 36.3588 2.28949 40.2139 2.60887C44.9585 3.00193 48.8332 6.41247 49.4307 11.1356C49.752 13.6759 50 16.704 50 20C50 23.296 49.752 26.3241 49.4307 28.8644Z" fill="#00D0BF"/>
</mask>
<g mask="url(#mask0_1_42047)">
<path d="M14 7L14.8981 9.76393L17.8042 9.76393L15.4531 11.4721L16.3511 14.2361L14 12.5279L11.6489 14.2361L12.5469 11.4721L10.1958 9.76393L13.1019 9.76393L14 7Z" fill="#2E50A6"/>
<path d="M38 25L38.8981 27.7639L41.8042 27.7639L39.4531 29.4721L40.3511 32.2361L38 30.5279L35.6489 32.2361L36.5469 29.4721L34.1958 27.7639L37.1019 27.7639L38 25Z" fill="#EE5757"/>
<rect x="50" y="20" width="24" height="18" transform="rotate(-180 50 20)" fill="#EE5757"/>
<rect x="26" y="38" width="24" height="18" transform="rotate(-180 26 38)" fill="#2E50A6"/>
</g>
<path d="M40.2965 38.3877C45.4694 37.9592 49.7608 34.2229 50.4228 28.9899C50.7484 26.4159 51 23.3452 51 20C51 16.6548 50.7484 13.5841 50.4228 11.0101C49.7608 5.77712 45.4694 2.04083 40.2965 1.61228C36.4216 1.29126 31.4148 0.999999 26 0.999998C20.5852 0.999998 15.5784 1.29126 11.7035 1.61228C6.53056 2.04083 2.23922 5.77712 1.57725 11.0101C1.25164 13.5841 1 16.6548 1 20C1 23.3452 1.25164 26.4159 1.57724 28.9899C2.23922 34.2229 6.53056 37.9592 11.7035 38.3877C15.5784 38.7087 20.5852 39 26 39C31.4148 39 36.4216 38.7087 40.2965 38.3877Z" stroke="#E6E6FA" stroke-width="2"/>
</svg>
