<svg width="52" height="40" viewBox="0 0 52 40" fill="none" xmlns="http://www.w3.org/2000/svg">
<mask id="mask0_1_41931" style="mask-type:alpha" maskUnits="userSpaceOnUse" x="2" y="2" width="48" height="36">
<path d="M2.56934 11.1356C3.16681 6.41247 7.0415 3.00193 11.7861 2.60887C15.6412 2.28949 20.6196 2 26 2C31.3804 2 36.3588 2.28949 40.2139 2.60887C44.9585 3.00193 48.8332 6.41247 49.4307 11.1356C49.752 13.6759 50 16.704 50 20C50 23.296 49.752 26.3241 49.4307 28.8644C48.8332 33.5875 44.9585 36.9981 40.2139 37.3911C36.3588 37.7105 31.3804 38 26 38C20.6196 38 15.6412 37.7105 11.7861 37.3911C7.0415 36.9981 3.16681 33.5875 2.56934 28.8644C2.248 26.3241 2 23.296 2 20C2 16.704 2.248 13.6759 2.56934 11.1356Z" fill="#00D0BF"/>
</mask>
<g mask="url(#mask0_1_41931)">
<rect x="2" y="2" width="48" height="36" fill="#2E50A6"/>
<path d="M32.8969 20.7437C32.3686 21.1911 31.8652 21.8448 31.7414 22.4357C31.3931 24.098 30.9309 24.4677 30.2178 24.1112C30.2178 25.0042 31.0002 25.0719 31.3436 24.5503C31.3436 25.3872 31.6473 26.1135 32.3323 26.7325C32.6212 26.9933 32.6757 26.815 32.5387 26.5262C32.4017 26.2373 32.4017 25.3046 32.1276 24.7698C32.5667 25.0851 33.2121 24.9068 33.1577 24.0418C32.5948 24.372 32.0352 24.3588 31.9774 23.5747C31.9064 22.6553 32.2646 21.3198 32.8969 20.7437Z" fill="#F7E017" stroke="black" stroke-width="0.0247605"/>
<path d="M32.2283 14.1326C32.2663 13.8025 32.1953 13.4641 31.9543 13.2511C31.4888 12.8418 31.0332 12.9771 30.6932 13.3073C30.1848 13.0332 29.9157 14.0055 29.3396 13.8421C29.4353 14.1574 29.5872 14.2944 29.8744 14.1854C29.5723 14.4594 29.8744 14.7896 29.5179 15.1181C30.1633 15.3244 30.5066 14.9679 30.4786 14.3488C30.7262 14.5684 31.1092 14.5552 31.3155 14.3076C30.9721 14.197 30.9705 13.8999 31.1092 13.6209C31.3155 13.2099 32.2828 13.2264 32.2283 14.1326Z" fill="#F7E017" stroke="black" stroke-width="0.0247605"/>
<path d="M33.7172 18.9081C32.9893 19.2927 31.6588 19.1277 31.535 18.1802C31.4112 17.2327 32.3306 16.8068 32.5782 16.6846C32.9629 16.4915 33.2649 16.8348 33.1411 17.2343C33.567 17.0841 33.6628 16.5889 33.4564 16.3017C34.0193 16.3429 34.5409 15.9171 34.7605 15.3129C34.5624 15.5011 34.0243 15.374 33.5819 15.3459C33.7189 15.1957 33.7172 14.9019 33.676 14.75C33.2105 15.2287 32.537 15.0092 31.6456 16.3958C31.7826 15.9154 32.0434 14.9547 32.1953 14.3225C32.2101 14.2597 32.2217 14.197 32.2299 14.1326C32.2828 13.2264 31.3171 13.2099 31.1108 13.6226C31.3369 13.8768 31.2181 14.1739 31.1372 14.6246C31.0414 15.1594 30.8351 16.3958 30.6568 16.8068C30.6023 16.1614 30.1765 16.1201 30.0939 15.8048C29.9701 15.8873 29.9024 16.1069 29.9289 16.2571C29.777 16.092 29.2554 16.2984 29.0639 16.0508C28.8576 16.4618 29.1877 16.8745 29.531 17.0527C29.3313 17.0659 29.2834 17.3069 29.0639 17.3069C29.3594 17.6503 29.6614 17.7873 30.0114 17.8154C30.3613 17.8434 30.6222 17.9738 30.8351 18.3981C31.1784 19.0864 32.4858 19.5321 33.7172 18.9081Z" fill="#337321" stroke="black" stroke-width="0.0247605"/>
<path d="M35.5296 18.0696C35.1186 19.2086 33.9928 20.0191 33.4844 20.1429C32.6195 20.3525 30.8565 21.2092 30.3844 21.65C30.3101 21.6335 30.2408 21.6071 30.1896 21.5708C29.9569 21.4057 29.7637 20.8709 30.1764 20.4169C31.4673 19.2086 32.8539 19.7302 33.7188 18.9065C32.9909 19.2911 31.6604 19.1261 31.5366 18.1786C32.319 18.3849 33.7337 18.3981 34.8578 17.1898C35.008 17.3565 35.4471 17.8781 35.5296 18.0696Z" fill="#F7E017" stroke="black" stroke-width="0.0247605"/>
<path d="M32.8968 20.7437C32.2448 21.2967 31.9064 22.6552 31.9757 23.5747C31.9955 23.8305 32.0665 24.0039 32.1754 24.1095C32.2233 23.5879 32.5865 22.2393 33.5125 21.6384C34.2949 21.13 35.5165 19.991 35.9704 18.6869C35.8879 18.4542 35.7509 18.2891 35.49 18.1241C35.0394 19.3555 33.836 19.9464 32.8968 20.7437Z" fill="#337321" stroke="black" stroke-width="0.0247605"/>
<path d="M35.1104 17.5413C34.8776 17.8913 34.3478 18.3716 33.841 18.5648C33.95 18.441 33.9846 18.2841 33.9912 18.1537C33.3458 18.4013 32.0549 18.3733 31.5333 18.1818C32.3158 18.3881 33.7304 18.4013 34.8545 17.193C34.9668 17.3152 35.0625 17.4241 35.1104 17.5413Z" fill="#316D3A" stroke="black" stroke-width="0.0247605"/>
<path d="M30.1765 20.4168C29.1266 21.399 29.8199 22.2557 30.231 22.4489C30.122 23.1355 30.7658 23.053 30.7526 23.6291C31.0134 23.4789 31.0827 23.0794 31.0415 22.7641C31.3716 23.1207 32.2085 22.7229 32.3868 23.3815C32.4974 22.6535 31.9345 21.9272 31.2346 21.9949C31.5235 21.7341 31.3584 21.3082 31.0844 21.1993C31.0299 21.7341 30.4257 21.7341 30.1913 21.5707C29.9569 21.4056 29.7638 20.8708 30.1765 20.4168Z" fill="#337321" stroke="black" stroke-width="0.0247605"/>
<path d="M32.4479 26.6631C32.334 26.7291 32.3422 26.876 32.4132 26.9718C32.5568 27.1633 32.3108 27.599 32.7763 27.6931C32.9134 27.7212 33.019 27.637 33.0718 27.4802C33.2154 27.0477 32.7565 26.9998 32.7153 26.7935C32.674 26.5872 32.5436 26.6086 32.4479 26.6631Z" fill="#F7E017" stroke="black" stroke-width="0.0247605"/>
<path d="M32.8391 27.4736C32.6856 27.5446 32.5502 27.6453 32.6129 28.1389C32.6377 28.3436 32.6262 28.8388 32.4479 28.8454C32.5568 28.8998 32.7912 28.9593 32.887 28.8322C32.9794 28.9873 33.189 28.9428 33.2716 28.7496C33.3805 28.8388 33.5324 28.6885 33.5324 28.5581C33.6281 28.6192 33.8213 28.5301 33.7717 28.2363C33.8889 28.2775 34.0392 28.195 34.0936 28.1191C33.922 28.0844 33.4895 27.8516 33.3871 27.6668C33.2848 27.4802 33.0174 27.3911 32.8391 27.4736Z" fill="#F7E017" stroke="black" stroke-width="0.0247605"/>
<path d="M30.4603 13.5896C30.5297 13.4872 30.6072 13.3915 30.6931 13.3073" stroke="black" stroke-width="0.0247605"/>
<path d="M33.0718 15.4069C33.1923 15.3376 33.3772 15.3294 33.5818 15.3426" stroke="black" stroke-width="0.0247605"/>
<path d="M32.8869 28.8322C32.839 28.7629 32.8208 28.4756 32.8555 28.3007" stroke="black" stroke-width="0.0247605"/>
<path d="M33.2715 28.7496C33.1956 28.6918 33.052 28.4921 33.0272 28.3171" stroke="black" stroke-width="0.0247605"/>
<path d="M33.5323 28.5582C33.4366 28.5136 33.2022 28.2115 33.151 28.0167" stroke="black" stroke-width="0.0247605"/>
<path d="M33.7716 28.2346C33.6577 28.2099 33.3111 27.9837 33.1675 27.7444" stroke="black" stroke-width="0.0247605"/>
<path d="M40.1004 20.4317C41.7891 21.8464 41.8981 22.9705 41.6373 23.6308C41.5002 23.0134 40.8003 22.0527 40.0724 21.8051L40.1004 20.4317Z" fill="#F7E017" stroke="black" stroke-width="0.0247605"/>
<path d="M37.0813 19.6345H40.211C40.211 19.6345 40.211 20.4582 40.211 23.3403C40.211 26.4981 38.4547 28.365 36.6686 29.3521C34.8842 28.3634 33.1262 26.4964 33.1262 23.3403C33.1262 20.4582 33.1262 19.6345 33.1262 19.6345H35.3233C35.3266 19.8259 35.3448 20.1148 35.5709 20.4037C36.0892 20.3525 36.6752 19.9646 37.0813 19.6345Z" fill="#337321" stroke="black" stroke-width="0.0247605"/>
<path d="M40.211 19.6345C40.211 19.6345 40.211 20.4582 40.211 23.3403C40.211 24.2927 40.0509 25.1296 39.7785 25.8576L36.6703 20.1544L33.562 25.8576C33.2896 25.128 33.1295 24.2927 33.1295 23.3403C33.1295 20.4582 33.1295 19.6345 33.1295 19.6345H40.211Z" fill="#006EC7" stroke="black" stroke-width="0.0247605"/>
<path d="M39.8727 25.5852C39.8183 25.7536 39.7176 26.0259 39.6416 26.1943L36.6704 20.6711L33.6991 26.1943C33.6215 26.0259 33.5225 25.7536 33.468 25.5852L36.672 19.646L39.8727 25.5852Z" fill="#F7E017"/>
<path d="M38.0816 27.6173C38.1642 27.6585 38.316 27.7345 38.3837 27.7625C38.5488 27.4324 38.5752 26.9669 38.5207 26.5542C38.3425 27.0082 37.7383 26.9933 37.5732 27.2673C37.6739 27.3185 37.768 27.3845 37.8489 27.4423C37.6426 27.6486 37.1605 27.9936 36.8865 28.0762V25.1313C36.8865 24.925 36.8172 24.7533 36.8172 24.5816C36.8172 24.5816 36.8172 24.1095 36.8172 23.9725C36.8172 23.8355 36.7891 23.6358 36.667 23.6358C36.5432 23.6358 36.5168 23.8355 36.5168 23.9725C36.5168 24.1095 36.5168 24.5816 36.5168 24.5816C36.5168 24.7533 36.4474 24.953 36.4474 25.1313V28.0762C36.2972 27.6371 35.7046 27.7873 35.4306 27.3482C35.5379 27.3218 35.6518 27.3135 35.7608 27.335C35.5544 26.6351 34.9915 26.5806 34.8826 26.3743C34.8826 26.6632 34.7588 27.335 34.9519 27.6239C34.9948 27.5727 35.0592 27.5182 35.1384 27.472C35.3712 27.9804 36.421 27.9821 36.6686 28.819C36.8667 28.5103 37.5815 28.1537 38.0816 27.6173Z" fill="#F7E017" stroke="black" stroke-width="0.0247605"/>
<path d="M36.6687 25.1675C36.9014 25.1675 37.6426 25.0916 37.9116 25.0916C37.981 25.0916 38.0387 24.9876 38.0387 24.8589C38.0387 24.7301 37.9826 24.6261 37.9116 24.6261C37.6442 24.6261 36.9031 24.5502 36.6687 24.5502C36.4359 24.5502 35.6948 24.6261 35.4257 24.6261C35.3564 24.6261 35.2986 24.7301 35.2986 24.8589C35.2986 24.9876 35.3547 25.0916 35.4257 25.0916C35.6948 25.0916 36.4359 25.1675 36.6687 25.1675Z" fill="#F7E017" stroke="black" stroke-width="0.0247605"/>
<path d="M36.5185 23.961C36.469 23.9213 36.4046 23.8966 36.332 23.8966C36.1768 23.8966 36.0497 24.0121 36.0497 24.1541C36.0497 24.296 36.1752 24.4116 36.332 24.4116C36.4871 24.4116 36.6126 24.296 36.6126 24.1541C36.6126 24.0435 36.7727 24.0435 36.7727 24.1541C36.7727 24.3769 36.5746 24.5569 36.332 24.5569C36.0877 24.5569 35.8912 24.3769 35.8912 24.1541C35.8912 23.9312 36.0893 23.7513 36.332 23.7513C36.4046 23.7513 36.4739 23.7678 36.535 23.7959C36.5301 23.8322 36.5185 23.9015 36.5185 23.961Z" fill="#F7E017" stroke="black" stroke-width="0.0247605"/>
<path d="M35.4274 25.0916C35.4967 25.0916 35.5528 24.9876 35.5528 24.8589C35.5528 24.7301 35.4967 24.6261 35.4274 24.6261" fill="#F7E017"/>
<path d="M35.4274 25.0916C35.4967 25.0916 35.5528 24.9876 35.5528 24.8589C35.5528 24.7301 35.4967 24.6261 35.4274 24.6261" stroke="black" stroke-width="0.0247605"/>
<path d="M35.5297 25.0916C35.599 25.0916 35.6551 24.9876 35.6551 24.8589C35.6551 24.7301 35.599 24.6261 35.5297 24.6261" fill="#F7E017"/>
<path d="M35.5297 25.0916C35.599 25.0916 35.6551 24.9876 35.6551 24.8589C35.6551 24.7301 35.599 24.6261 35.5297 24.6261" stroke="black" stroke-width="0.0247605"/>
<path d="M36.2081 25.1395C36.2923 25.1395 36.36 25.0141 36.36 24.8589C36.36 24.7037 36.2923 24.5783 36.2081 24.5783" fill="#F7E017"/>
<path d="M36.2081 25.1395C36.2923 25.1395 36.36 25.0141 36.36 24.8589C36.36 24.7037 36.2923 24.5783 36.2081 24.5783" stroke="black" stroke-width="0.0247605"/>
<path d="M36.365 25.1511C36.4525 25.1511 36.5235 25.019 36.5235 24.8572C36.5235 24.6955 36.4525 24.5634 36.365 24.5634" fill="#F7E017"/>
<path d="M36.365 25.1511C36.4525 25.1511 36.5235 25.019 36.5235 24.8572C36.5235 24.6955 36.4525 24.5634 36.365 24.5634" stroke="black" stroke-width="0.0247605"/>
<path d="M36.8932 25.1544C36.9823 25.1544 37.0533 25.0207 37.0533 24.8573C37.0533 24.6939 36.9807 24.5602 36.8932 24.5602" fill="#F7E017"/>
<path d="M36.8932 25.1544C36.9823 25.1544 37.0533 25.0207 37.0533 24.8573C37.0533 24.6939 36.9807 24.5602 36.8932 24.5602" stroke="black" stroke-width="0.0247605"/>
<path d="M37.0582 25.1461C37.1457 25.1461 37.2167 25.0173 37.2167 24.8589C37.2167 24.7004 37.1457 24.5717 37.0582 24.5717" fill="#F7E017"/>
<path d="M37.0582 25.1461C37.1457 25.1461 37.2167 25.0173 37.2167 24.8589C37.2167 24.7004 37.1457 24.5717 37.0582 24.5717" stroke="black" stroke-width="0.0247605"/>
<path d="M37.7961 25.0949C37.8671 25.0949 37.9249 24.9893 37.9249 24.8572C37.9249 24.7252 37.8671 24.6195 37.7961 24.6195" fill="#F7E017"/>
<path d="M37.7961 25.0949C37.8671 25.0949 37.9249 24.9893 37.9249 24.8572C37.9249 24.7252 37.8671 24.6195 37.7961 24.6195" stroke="black" stroke-width="0.0247605"/>
<path d="M35.1384 27.472C35.2226 27.4208 35.325 27.3746 35.4323 27.3499L35.1384 27.472Z" fill="#F7E017"/>
<path d="M35.1384 27.472C35.2226 27.4208 35.325 27.3746 35.4323 27.3499" stroke="black" stroke-width="0.0247605"/>
<path d="M37.9315 27.5C37.9067 27.4818 37.8786 27.4637 37.8506 27.4422L37.9315 27.5Z" fill="#F7E017"/>
<path d="M37.9315 27.5C37.9067 27.4818 37.8786 27.4637 37.8506 27.4422" stroke="black" stroke-width="0.0247605"/>
<path d="M38.0817 27.6173C38.2731 27.4109 38.4333 27.1782 38.5224 26.9108L38.0817 27.6173Z" fill="#F7E017"/>
<path d="M38.0817 27.6173C38.2731 27.4109 38.4333 27.1782 38.5224 26.9108" stroke="black" stroke-width="0.0247605"/>
<path d="M36.0398 22.2558C36.0398 22.1881 36.0943 22.16 36.1586 22.1121C36.2362 22.0544 36.2676 22.0263 36.3369 22.0263H37.2382C37.3042 22.0263 37.3207 22.0428 37.3207 22.1055V23.3287C37.3207 23.3898 37.3059 23.4079 37.2382 23.4079H36.0398V22.2425" fill="white"/>
<path d="M36.0398 22.2558C36.0398 22.1881 36.0943 22.16 36.1586 22.1121C36.2362 22.0544 36.2676 22.0263 36.3369 22.0263H37.2382C37.3042 22.0263 37.3207 22.0428 37.3207 22.1055V23.3287C37.3207 23.3898 37.3059 23.4079 37.2382 23.4079H36.0398V22.2425" stroke="black" stroke-width="0.0247605"/>
<path d="M37.0153 23.5152C37.1342 23.5152 37.1127 23.5119 37.1953 23.4294C37.2828 23.3435 37.2745 23.3501 37.2745 23.2709V22.1501C37.2745 22.0923 37.2596 22.0758 37.1986 22.0758H36.365C36.2989 22.0758 36.2709 22.1022 36.1999 22.1567C36.1405 22.2012 36.0909 22.2293 36.0909 22.292V23.5152H37.0153Z" fill="#E5E5E5" stroke="black" stroke-width="0.0247605"/>
<path d="M37.1045 23.4889C37.1045 23.5499 37.0896 23.5681 37.022 23.5681H36.1207C36.053 23.5681 36.0398 23.5516 36.0398 23.4889V22.264C36.0398 22.203 36.0547 22.1848 36.1207 22.1848H37.022C37.0896 22.1848 37.1045 22.2013 37.1045 22.264V23.4889Z" fill="white" stroke="black" stroke-width="0.0247605"/>
<path d="M38.8509 18.9163C39.0258 19.1127 39.0836 19.3752 38.9879 19.6327H38.7271C38.836 19.3026 38.7683 18.9889 38.3012 18.9477C37.6029 18.8866 36.7908 20.2385 35.5693 20.4019C35.2127 19.9761 35.2309 19.1656 35.6848 18.781C35.4504 18.1058 34.9569 17.363 34.6135 17.0428C34.389 17.0065 34.1299 16.9883 33.9631 16.9982C34.1414 16.6136 34.6498 16.2092 35.0625 16.0441C35.1285 15.9467 35.2012 15.8526 35.2672 15.7684C35.3085 15.2402 37.8208 15.4878 38.3557 15.8163C38.3573 16.4089 38.5901 18.3815 38.8509 18.9163Z" fill="#96877D" stroke="black" stroke-width="0.0247605"/>
<path d="M35.8071 19.2778C35.7476 18.3633 35.3779 17.609 34.8579 17.0956C35.1055 17.1649 35.6123 17.1649 35.9556 16.9173C36.4079 16.6153 37.5898 16.087 38.0223 16.3132C38.057 16.3891 38.0768 16.5608 38.0504 16.6697C37.948 16.3957 36.8074 16.8199 36.4855 16.9503C36.1768 17.094 36.0398 17.2871 36.1488 17.7196C35.9705 17.5694 36.0316 17.4241 35.8467 17.3152C35.921 17.4934 35.982 17.8153 36.0035 18.0761C35.9342 17.8912 35.812 17.4934 35.543 17.259C35.7757 17.7113 35.9787 18.7991 35.883 19.3769C36.0679 19.3769 36.4772 19.1953 36.6407 19.0649C36.4971 19.2712 36.0811 19.4148 35.8137 19.4693C35.6932 19.6129 35.6106 19.9843 35.6172 20.1907C35.5991 19.9365 35.6783 19.3175 35.8071 19.2778Z" fill="black"/>
<path d="M38.8509 18.9163C38.6231 18.6638 38.1989 18.5268 37.6575 18.6737C37.74 18.6324 37.9183 18.5631 38.0767 18.5367C38.0569 18.3931 37.9265 17.774 37.9051 17.6238L38.0569 17.5628C38.1329 17.9342 38.2286 18.3584 38.2897 18.5301C38.3376 18.5433 38.4482 18.5647 38.5439 18.6126C38.5026 18.469 38.2699 17.4323 38.2765 17.3217L38.4828 17.2112C38.5637 17.774 38.6941 18.5911 38.8509 18.9163Z" fill="black"/>
<path d="M38.7287 19.6344C38.8376 19.3043 38.77 18.9907 38.3028 18.9494C37.9413 18.918 37.5484 19.2696 37.0846 19.6344H38.7287Z" fill="#96877D" stroke="black" stroke-width="0.0247605"/>
<path d="M35.6948 16.6763C35.4884 16.7044 35.0295 16.6631 34.7951 16.5872C34.8083 16.5245 34.8331 16.4618 34.8628 16.3924C34.7192 16.4882 34.4452 16.6763 34.3412 16.8068C34.6713 16.8761 35.3514 16.9107 35.6948 16.6763Z" fill="#96877D" stroke="black" stroke-width="0.0247605"/>
<path d="M35.6865 18.7827C35.7625 19.0022 35.812 19.2135 35.8186 19.4017" stroke="black" stroke-width="0.0247605"/>
<path d="M35.0642 16.0458C34.9404 16.2274 34.8315 16.4221 34.7952 16.5872C35.0279 16.6631 35.4885 16.7044 35.6948 16.6763" stroke="black" stroke-width="0.0247605"/>
<path d="M34.6152 17.0445C34.7044 17.0593 34.7869 17.0759 34.8579 17.0957C35.1055 17.165 35.6123 17.165 35.9556 16.9174C36.299 16.6698 37.2316 15.9022 38.2897 15.8197" stroke="black" stroke-width="0.0247605"/>
<path d="M34.3428 16.8067C34.6729 16.8761 35.353 16.9091 35.6947 16.6763C36.4903 16.1349 37.2596 15.818 38.0288 15.7767" stroke="black" stroke-width="0.0247605"/>
<path d="M40.1005 20.4317C41.2527 21.2273 42.1044 21.9966 42.352 23.2313C42.5996 24.466 43.0668 24.7962 43.6429 24.466C43.5059 25.1791 42.7911 25.2617 42.1886 24.7136C42.2431 25.5373 41.9146 26.5261 41.0628 26.8826C41.0084 26.3891 41.3352 25.9979 41.2411 25.5918C41.1998 25.4135 41.1866 25.0008 41.4194 24.8094C40.9671 24.9596 40.2523 24.6724 40.1847 23.9989C40.7063 24.2465 41.3781 24.2877 41.6389 23.6275C41.8981 22.9705 41.7891 21.8447 40.1005 20.4317Z" fill="#337321" stroke="black" stroke-width="0.0247605"/>
<path d="M41.5564 14.0071C41.9129 13.0745 42.8472 13.1702 43.1625 13.568C44.082 13.0464 44.2058 14.2267 44.9882 13.9939C44.975 14.2135 44.7142 14.4198 44.4253 14.405C44.7274 14.679 44.3015 15.0916 44.9469 15.3376C44.3973 15.6116 43.6297 15.3244 43.4233 14.5684C43.2451 14.9249 42.5996 14.9249 42.3388 14.6377C42.9017 14.4875 42.8605 13.9659 42.5452 13.7595C42.2266 13.5515 41.6653 13.6357 41.5564 14.0071Z" fill="#337321" stroke="black" stroke-width="0.0247605"/>
<path d="M38.7717 16.0623C39.0276 16.8876 39.5575 17.6569 40.1286 18.1801C40.7872 18.7843 41.7826 18.6324 42.3389 18.0563C42.3521 19.2052 41.1619 19.2944 40.5 18.9345C40.2078 18.776 39.9718 18.8586 40.2524 19.1128C40.6783 19.4974 41.6093 19.783 42.7086 20.019C44.6301 20.43 43.945 21.9553 43.3821 21.9404C43.5439 21.9371 43.676 21.7688 43.4432 21.5591C41.776 20.0586 38.3855 20.6496 38.4399 17.3003C38.0834 18.1785 36.6143 17.8351 37.3009 16.7919C37.5205 16.9702 37.9051 16.9834 38.0157 16.7094C38.1015 16.4964 38.0454 16.125 37.6608 15.8048C37.7235 15.7998 37.8605 15.8048 37.8457 15.6463C37.8622 15.7387 37.9464 15.8757 38.1626 15.8295C38.2237 15.9269 38.2897 15.9913 38.3772 15.9566C38.3937 15.95 38.4465 15.9236 38.4251 15.8262C38.4416 16.0111 38.6578 16.0755 38.7717 16.0623Z" fill="#337321" stroke="black" stroke-width="0.0247605"/>
<path d="M40.4983 18.9346C41.294 19.4562 42.1952 19.4562 43.0239 18.4955C43.2847 18.1934 43.6957 17.9326 43.9846 17.9046C44.2735 17.8765 44.2586 17.6025 44.4782 17.548C44.3412 17.5067 44.2867 17.3417 44.0804 17.3631C44.5954 17.1848 44.4435 16.7722 44.6977 16.5741C44.4914 16.65 44.1695 16.3413 43.874 16.7326C43.9499 16.5543 43.846 16.3413 43.7717 16.2588C43.7997 16.4651 43.3672 16.5064 43.2847 17.028C43.2385 17.3202 43.0784 17.302 43.052 16.8498C43.0322 16.518 42.8737 15.6002 42.6822 15.1347C42.4907 14.6675 42.4462 14.0271 42.707 13.9313C42.6674 13.8653 42.6129 13.8059 42.5452 13.7629C42.2266 13.555 41.667 13.6391 41.5564 14.0105C41.1999 14.9432 42.2019 15.4797 42.1193 16.4949C41.9691 15.7405 40.7459 15.5474 40.7608 14.8062C40.363 14.9845 40.4174 15.3146 40.5693 15.5754C40.3217 15.1908 39.7588 15.823 39.2785 15.3014C39.224 15.9881 39.8281 16.2489 40.3217 16.2753C40.0741 16.7144 40.4042 17.0858 40.7327 17.208C40.7459 16.4387 42.3224 16.754 42.3389 18.0729C42.3521 19.1954 41.1438 19.2911 40.4983 18.9346Z" fill="#F7E017" stroke="black" stroke-width="0.0247605"/>
<path d="M42.7086 20.0191C44.63 20.4301 43.9449 21.9553 43.3821 21.9405C43.0238 21.9322 42.6822 21.6318 42.6607 21.371C42.2497 21.5905 42.3586 22.023 42.6739 22.1947C41.8089 22.0924 41.4458 22.6618 41.4243 23.2858C41.5828 22.9969 42.0631 22.9771 42.2414 23.0382C42.4197 23.0993 42.8802 23.1339 43.0651 22.9276C42.9132 23.058 43.1609 23.3601 42.9479 23.5928C43.6693 23.5648 43.9846 22.8929 43.8608 22.5975C44.7951 21.749 44.6168 20.3624 42.7086 20.0191Z" fill="#F7E017" stroke="black" stroke-width="0.0247605"/>
<path d="M41.2461 26.541C41.3715 26.6186 41.355 26.7836 41.2709 26.8876C41.1008 27.0956 41.3567 27.5925 40.8334 27.6767C40.6783 27.7014 40.5644 27.6024 40.5132 27.4258C40.3712 26.9372 40.8862 26.9042 40.9407 26.6747C40.9968 26.4469 41.1404 26.475 41.2461 26.541Z" fill="#F7E017" stroke="black" stroke-width="0.0247605"/>
<path d="M40.774 27.4274C40.9424 27.5132 41.0876 27.632 40.9985 28.1801C40.9605 28.4079 40.9523 28.9609 41.152 28.9757C41.0265 29.0318 40.7641 29.0863 40.6617 28.9411C40.5511 29.1094 40.32 29.05 40.2359 28.8321C40.1088 28.9262 39.947 28.7512 39.9536 28.606C39.843 28.6703 39.6334 28.563 39.6994 28.2362C39.5673 28.2775 39.4023 28.1784 39.3445 28.0926C39.5376 28.0612 40.0295 27.8202 40.1533 27.6172C40.2755 27.4158 40.5776 27.3283 40.774 27.4274Z" fill="#F7E017" stroke="black" stroke-width="0.0247605"/>
<path d="M40.66 28.9427C40.7162 28.8684 40.7492 28.5465 40.7178 28.3501" stroke="black" stroke-width="0.0247605"/>
<path d="M40.2358 28.8338C40.3233 28.7727 40.4917 28.5565 40.5264 28.3617" stroke="black" stroke-width="0.0247605"/>
<path d="M39.9519 28.6076C40.0609 28.5614 40.3349 28.2346 40.4009 28.0183" stroke="black" stroke-width="0.0247605"/>
<path d="M39.6978 28.2379C39.8249 28.2164 40.2227 27.9787 40.3927 27.7163" stroke="black" stroke-width="0.0247605"/>
<path d="M38.4399 17.302C38.4168 18.7084 39.0011 19.4215 39.8116 19.8837C39.5112 19.7037 39.6416 19.0864 39.2355 18.8866C39.3313 18.88 39.4831 19.0171 39.7225 18.9626C39.6053 18.7018 39.4138 18.3039 38.9681 18.2495C39.0853 18.2363 39.3395 18.2775 39.5029 18.2148C39.2702 17.8566 38.6528 18.0283 38.4399 17.302Z" fill="#F7E017" stroke="black" stroke-width="0.0247605"/>
<path d="M38.2947 15.9633C38.2451 15.9468 38.2039 15.8973 38.1626 15.8329C37.9464 15.8791 37.8622 15.7421 37.8457 15.6497C37.8589 15.8081 37.7235 15.8015 37.6591 15.8065C38.0454 16.1267 38.1015 16.4981 38.0157 16.7111C37.9051 16.9851 37.5221 16.9719 37.3009 16.7936C37.2729 17.3763 38.0289 17.5694 38.3029 16.8349C38.3029 16.9587 38.4614 16.9455 38.5026 17.1089C38.6974 16.7936 38.5489 16.3397 38.2947 15.9633Z" fill="#F7E017" stroke="black" stroke-width="0.0247605"/>
<path d="M37.0879 13.1769C36.7446 12.8616 36.5861 12.3334 36.601 12.0313C36.6142 11.7292 36.738 11.3991 37.1771 11.5377C37.0401 11.5377 37.1358 11.8117 36.9922 11.8398C37.1094 11.8811 37.2662 11.7853 37.2877 11.7226C37.3157 11.8184 37.494 11.7919 37.5072 11.9009C37.5766 11.8464 37.5006 11.579 37.3983 11.5229C37.4742 11.4816 37.5155 11.2687 37.4808 11.1663C37.4115 11.1795 37.3091 11.2769 37.2893 11.4139C37.324 11.3033 37.2827 11.0293 37.0896 10.988C37.0351 11.064 37.0203 11.2489 37.0962 11.3512C36.9179 11.3099 36.6571 11.4271 36.5944 11.5773C36.6076 11.3958 36.634 11.1366 36.7463 10.9732C36.7842 10.9187 36.6918 10.823 36.6192 10.9534C36.4854 10.6926 36.1289 10.5556 35.9704 10.686C35.812 10.8164 35.6007 10.6249 35.4703 10.8296C35.3399 11.0359 34.8975 11.0574 34.9206 11.2753C34.9338 11.4057 34.9024 11.6071 34.838 11.6797C34.6796 11.858 34.914 11.9884 34.9552 12.1468C34.9272 11.6252 35.7575 10.61 36.5894 11.0079C36.5135 11.1383 36.4475 11.3991 36.4244 11.7144C36.3897 12.1815 36.459 12.8401 36.9113 13.2247L37.0879 13.1769Z" fill="#337321" stroke="black" stroke-width="0.0247605"/>
<path d="M37.3339 11.5427C37.329 11.4189 37.5436 11.2587 37.8308 11.262C38.1775 11.2653 38.4449 11.5806 38.7222 11.5509C38.9995 11.5196 38.8625 11.6747 38.8047 11.716C38.7469 11.7573 38.7123 11.8183 38.7321 11.8943C38.7519 11.9702 38.7172 12.0197 38.605 11.9487C38.3574 11.7936 38.1114 12.0098 37.7846 11.891C37.5056 11.7853 37.3422 11.7275 37.3339 11.5427Z" fill="#C8102E" stroke="black" stroke-width="0.0247605"/>
<path d="M35.9209 14.783C35.7839 14.3505 35.2623 13.8768 35.0081 13.7678L34.9949 13.5351C35.1319 13.4806 35.462 13.2198 35.6122 13.0746C36.6423 13.5681 38.0421 12.8682 38.6875 12.1419L38.9351 12.2921L38.8113 12.4572L38.6809 12.3879C38.5224 12.5793 37.9331 13.134 37.7548 13.2512C37.9942 13.3123 38.3227 13.3535 38.4135 13.3486C38.9896 12.9359 39.4419 12.5661 39.6614 12.5381L39.8463 12.7857L39.6812 12.9029L39.5508 12.8269C38.9334 13.3354 38.2336 14.4463 37.9579 15.1875C37.5749 15.1049 36.2015 15.1594 35.9209 14.783Z" fill="#96877D" stroke="black" stroke-width="0.0247605"/>
<path d="M37.7549 13.2512C37.6657 13.2281 37.5898 13.2033 37.5419 13.1769C37.4313 13.2792 37.1573 13.3684 36.8074 13.3832" stroke="black" stroke-width="0.0247605"/>
<path d="M35.9754 14.6311C35.8829 14.1194 36.0299 13.5532 36.2907 13.3816C36.8602 13.7596 37.8357 13.7596 38.4118 13.3469" stroke="black" stroke-width="0.0247605"/>
<path d="M35.9753 14.3638C36.4144 14.3506 37.3685 14.4248 37.6013 14.4595C37.834 14.4942 38.2252 14.5899 38.1708 14.7071" stroke="black" stroke-width="0.0247605"/>
<path d="M36.1784 14.2911L36.3055 14.1656L36.1784 14.0402L36.053 14.164L36.1784 14.2911Z" stroke="black" stroke-width="0.0247605"/>
<path d="M36.4771 11.7358C36.3187 11.5163 35.8845 11.447 35.7904 11.7424C35.7492 11.8728 35.6881 12.0098 35.5841 12.0726C35.4818 12.1336 35.5049 12.3218 35.5494 12.4027C35.6584 12.6024 35.5626 12.7939 35.7756 12.9243C35.7756 12.7659 36.0083 12.6024 36.2081 12.5612C36.4078 12.5199 36.7082 12.3416 36.7495 12.1419C36.7924 11.9405 36.8618 11.7754 36.4771 11.7358Z" fill="#337321" stroke="black" stroke-width="0.0247605"/>
<path d="M35.4884 13.7117H35.5428L35.5445 14.0864C35.5561 14.0897 35.5676 14.0963 35.5775 14.1029L35.901 13.9164L35.9291 13.9642L35.6039 14.1524C35.6056 14.164 35.6072 14.1772 35.6056 14.1887L35.9291 14.3753L35.901 14.4231L35.5742 14.2382C35.566 14.2465 35.5544 14.2548 35.5428 14.2581V14.6311H35.4884V14.2564C35.4768 14.2531 35.4653 14.2465 35.4554 14.2399L35.1318 14.4264L35.1038 14.3786L35.4289 14.1904C35.4273 14.1788 35.4256 14.1656 35.4273 14.1541L35.1038 13.9675L35.1318 13.9197L35.457 14.1062C35.4653 14.0979 35.4768 14.0897 35.4884 14.0864V13.7117Z" fill="#96877D" stroke="black" stroke-width="0.0247605"/>
<path d="M35.9771 14.6295C35.8599 14.7484 35.6965 14.821 35.5149 14.821C35.155 14.821 34.8645 14.5305 34.8645 14.1706C34.8645 13.8108 35.155 13.5203 35.5149 13.5203C35.7262 13.5203 35.9127 13.621 36.0315 13.7761C35.9985 13.8587 35.9589 14.0419 35.9556 14.1244C35.9325 13.8999 35.7443 13.725 35.5132 13.725C35.2673 13.725 35.0692 13.9247 35.0692 14.169C35.0692 14.4149 35.2689 14.613 35.5132 14.613C35.7179 14.613 35.8962 14.4694 35.9474 14.2796C35.949 14.3654 35.9523 14.5619 35.9771 14.6295Z" fill="#96877D" stroke="black" stroke-width="0.0247605"/>
<path d="M35.2408 15.2485C35.1995 15.2006 35.1236 15.0702 35.1318 14.9745C35.1929 14.9679 35.3101 15.0091 35.3646 15.0636C35.358 14.9943 35.3299 14.8441 35.3448 14.7747C35.4207 14.8028 35.5775 14.8919 35.6337 14.9943C35.6205 14.925 35.5924 14.7467 35.6205 14.6377C35.703 14.6856 35.84 14.816 35.8681 14.9052C35.8747 14.7681 35.9225 14.542 35.9638 14.4859C36.0249 14.5469 36.1223 14.6031 36.1833 14.6856C36.1966 14.575 36.2527 14.4446 36.3336 14.4116C36.3946 14.4809 36.492 14.6377 36.5118 14.816C36.5729 14.7962 36.6554 14.6922 36.6901 14.6377C36.7248 14.6922 36.7594 14.788 36.738 14.9052C36.8139 14.8358 36.9031 14.7401 36.9229 14.6575C36.9773 14.6988 37.0813 14.8012 37.1077 14.9118C37.0945 14.8226 37.1011 14.6641 37.0731 14.575C37.1754 14.6295 37.258 14.7252 37.2794 14.8292C37.3075 14.7335 37.3685 14.5618 37.423 14.5205C37.4775 14.6311 37.5336 14.7615 37.5254 14.8705C37.56 14.8012 37.6145 14.679 37.669 14.6509C37.7168 14.7269 37.7102 14.8919 37.697 14.9811C37.7449 14.9118 37.834 14.8309 37.8885 14.8028C37.8951 14.8441 37.9017 14.9266 37.8885 14.9877C37.9496 14.953 38.0536 14.7681 38.0883 14.6724C38.184 14.7203 38.2797 14.8853 38.288 14.9679C38.3573 14.9398 38.4943 14.8177 38.5356 14.7483C38.5356 14.7962 38.5571 14.9266 38.529 15.029C38.5703 14.9877 38.6115 14.9052 38.6313 14.8705C38.6594 14.9398 38.6379 15.1032 38.6099 15.1924C38.671 15.1379 38.7617 15.1032 38.8162 15.1032C38.8228 15.2204 38.7403 15.4251 38.6643 15.577C38.0074 15.3938 36.6274 15.3244 35.2408 15.2485Z" fill="#337321" stroke="black" stroke-width="0.0247605"/>
<path d="M37.5386 11.6137C37.5353 11.5625 37.6476 11.4486 37.8506 11.4502C38.0933 11.4519 38.3178 11.6302 38.5109 11.617C38.7057 11.6038 38.61 11.6681 38.5687 11.6846C38.5274 11.7012 38.5043 11.7276 38.5175 11.7573C38.5324 11.7886 38.5076 11.8084 38.4284 11.7804C38.255 11.7177 38.0817 11.8051 37.8539 11.7573C37.6575 11.7127 37.5436 11.6896 37.5386 11.6137Z" fill="#F7E017"/>
<path d="M35.4538 15.6612C35.2474 15.9089 35.0427 15.8676 35.0015 15.7091C34.9602 15.5507 35.1121 15.4764 35.0559 15.3377C35.0015 15.2007 35.1451 15.138 35.2144 15.2007C35.2837 15.2618 35.5033 15.0637 35.599 15.27C35.6948 15.4764 35.7707 15.62 35.7162 15.7025C35.6601 15.7851 35.495 15.7438 35.4538 15.6612Z" fill="#F7E017" stroke="black" stroke-width="0.0247605"/>
<path d="M36.3386 15.2898C36.3006 15.199 36.5136 15.0257 36.6242 15.1495C36.7347 15.2733 36.9064 15.0158 37.0022 15.2106C37.0979 15.407 37.1293 15.5093 37.1771 15.6183C37.225 15.7289 36.9163 15.7867 36.8206 15.6909C36.8338 15.7553 36.5532 15.8065 36.4772 15.6216C36.436 15.5242 36.3914 15.4103 36.3386 15.2898Z" fill="#F7E017" stroke="black" stroke-width="0.0247605"/>
<path d="M37.7664 15.4036C37.7153 15.3079 37.9662 15.1709 38.0966 15.3459C38.1312 15.2732 38.3788 15.26 38.3953 15.4697C38.4119 15.6793 38.4201 15.8031 38.4267 15.8857C38.4333 15.9682 38.2765 16.0441 38.1626 15.8345C37.9596 15.8757 37.8671 15.7618 37.844 15.643C37.8192 15.5208 37.7945 15.4614 37.7664 15.4036Z" fill="#F7E017" stroke="black" stroke-width="0.0247605"/>
<path d="M35.5874 15.2667C35.5561 15.1974 35.7624 15.0604 35.9027 15.1643C36.043 15.2667 36.2378 15.0752 36.322 15.2601C36.4904 15.6348 36.5003 15.6612 36.4491 15.7338C36.3979 15.8065 36.1784 15.7784 36.1223 15.6794C36.1123 15.7487 35.9225 15.7371 35.8235 15.6827C35.7112 15.6199 35.632 15.3905 35.5874 15.2667Z" fill="#337321" stroke="black" stroke-width="0.0247605"/>
<path d="M37.0319 15.2832C36.984 15.1775 37.3059 15.0834 37.4479 15.27C37.5205 15.2039 37.6773 15.2006 37.7665 15.4037C37.8556 15.6067 37.8688 15.7189 37.8044 15.7701C37.7582 15.8064 37.5915 15.8345 37.537 15.7421C37.4611 15.7899 37.2283 15.7487 37.1772 15.6183C37.126 15.4895 37.0814 15.3756 37.0319 15.2832Z" fill="#337321" stroke="black" stroke-width="0.0247605"/>
<path d="M38.3986 15.4863C38.392 15.3905 38.567 15.346 38.6314 15.4863C38.6974 15.6266 38.9054 15.4995 38.9235 15.7339C38.9268 15.7784 38.8988 15.9501 38.8344 16.0326C38.77 16.1152 38.4498 16.0326 38.43 15.8577C38.4085 15.681 38.4019 15.582 38.3986 15.4863Z" fill="#337321" stroke="black" stroke-width="0.0247605"/>
<path d="M35.4538 15.6612C35.3779 15.5589 35.2755 15.3938 35.1451 15.5721" stroke="black" stroke-width="0.0247605"/>
<path d="M36.124 15.6777C36.0795 15.6199 36.0217 15.5226 36.0002 15.4483" stroke="black" stroke-width="0.0247605"/>
<path d="M36.8206 15.6926C36.7727 15.6579 36.7001 15.5902 36.6621 15.5176" stroke="black" stroke-width="0.0247605"/>
<path d="M36.7579 15.3311C36.8784 15.3443 36.961 15.4582 36.9973 15.5094C37.0353 15.5606 37.1145 15.653 37.1756 15.6646" stroke="black" stroke-width="0.0247605"/>
<path d="M37.537 15.7438C37.4958 15.6777 37.4545 15.62 37.4446 15.5721" stroke="black" stroke-width="0.0247605"/>
<path d="M37.4479 15.27C37.4891 15.3278 37.5205 15.3757 37.5436 15.4318" stroke="black" stroke-width="0.0247605"/>
<path d="M38.1609 15.8329C38.1065 15.7305 38.0206 15.6298 37.948 15.5968" stroke="black" stroke-width="0.0247605"/>
<path d="M38.1345 15.4549C38.1411 15.6579 38.4118 15.6711 38.4234 15.8147" stroke="black" stroke-width="0.0247605"/>
<path d="M38.6315 15.4863C38.6595 15.5374 38.6694 15.5886 38.6727 15.6744" stroke="black" stroke-width="0.0247605"/>
<mask id="mask1_1_41931" style="mask-type:alpha" maskUnits="userSpaceOnUse" x="2" y="2" width="24" height="18">
<rect x="2" y="2" width="24" height="18" fill="#C4C4C4"/>
</mask>
<g mask="url(#mask1_1_41931)">
<path d="M2 2L26 20L2 2ZM26 2L2 20L26 2Z" fill="black"/>
<path d="M26 2L2 20M2 2L26 20L2 2Z" stroke="white" stroke-width="2.4"/>
<path d="M2 2L26 20L2 2ZM26 2L2 20L26 2Z" fill="black"/>
<path d="M26 2L2 20M2 2L26 20L2 2Z" stroke="#EE5757" stroke-width="1.6"/>
<path d="M14 2V23V2ZM2 11H30H2Z" fill="black"/>
<path d="M2 11H30M14 2V23V2Z" stroke="white" stroke-width="4"/>
<path d="M14 2V23V2ZM2 11H30H2Z" fill="black"/>
<path d="M2 11H30M14 2V23V2Z" stroke="#EE5757" stroke-width="2.4"/>
</g>
</g>
<path d="M11.7035 1.61228C6.53056 2.04084 2.23921 5.77712 1.57724 11.0101C1.25164 13.5841 1 16.6548 1 20C1 23.3452 1.25164 26.4159 1.57724 28.9899C2.23922 34.2229 6.53056 37.9592 11.7035 38.3877C15.5784 38.7087 20.5852 39 26 39C31.4148 39 36.4216 38.7087 40.2965 38.3877C45.4694 37.9592 49.7608 34.2229 50.4228 28.9899C50.7484 26.4159 51 23.3452 51 20C51 16.6548 50.7484 13.5841 50.4228 11.0101C49.7608 5.77712 45.4694 2.04084 40.2965 1.61228C36.4216 1.29127 31.4148 1 26 1C20.5852 1 15.5784 1.29127 11.7035 1.61228Z" stroke="#E6E6FA" stroke-width="2"/>
</svg>
