<svg width="52" height="40" viewBox="0 0 52 40" fill="none" xmlns="http://www.w3.org/2000/svg">
<mask id="mask0_1_41919" style="mask-type:alpha" maskUnits="userSpaceOnUse" x="2" y="2" width="48" height="36">
<path d="M2.56934 11.1356C3.16681 6.41247 7.0415 3.00193 11.7861 2.60887C15.6412 2.28949 20.6196 2 26 2C31.3804 2 36.3588 2.28949 40.2139 2.60887C44.9585 3.00193 48.8332 6.41247 49.4307 11.1356C49.752 13.6759 50 16.704 50 20C50 23.296 49.752 26.3241 49.4307 28.8644C48.8332 33.5875 44.9585 36.9981 40.2139 37.3911C36.3588 37.7105 31.3804 38 26 38C20.6196 38 15.6412 37.7105 11.7861 37.3911C7.0415 36.9981 3.16681 33.5875 2.56934 28.8644C2.248 26.3241 2 23.296 2 20C2 16.704 2.248 13.6759 2.56934 11.1356Z" fill="#00D0BF"/>
</mask>
<g mask="url(#mask0_1_41919)">
<rect x="2" y="20" width="48" height="18" fill="#EE5757"/>
<rect x="2" y="2" width="48" height="18" fill="#2E50A6"/>
<path d="M2 0L31 20L2 40V0Z" fill="white"/>
<path d="M5.8343 7.01617L6.7797 7.83315L7.87429 7.23059L7.38944 8.38217L8.30076 9.23698L7.05572 9.13172L6.52435 10.2626L6.23972 9.04595L5 8.89006L6.06914 8.2434L5.8343 7.01617Z" fill="#FCD116"/>
<path d="M27.1173 18.3405L27.1428 19.5898L28.323 20L27.1428 20.4103L27.1173 21.6595L26.3625 20.6638L25.1665 21.0256L25.8802 20L25.1665 18.9744L26.3625 19.3362L27.1173 18.3405Z" fill="#FCD116"/>
<path d="M6.52435 29.7375L7.05572 30.8684L8.30076 30.7631L7.38944 31.6179L7.87429 32.7695L6.7797 32.1669L5.8343 32.9839L6.06914 31.7567L5 31.11L6.23972 30.9541L6.52435 29.7375Z" fill="#FCD116"/>
<path d="M14.0352 13.3695L13.6274 13.7773L13.8296 16.8658C13.7609 16.8703 13.6928 16.8769 13.6253 16.8857L13.254 14.0673L12.9212 14.4001L13.4223 16.9193C13.0101 17.0008 12.6271 17.1627 12.2901 17.3884L10.8633 15.253H10.3925L12.1231 17.5086C12.0688 17.5503 12.0162 17.594 11.9648 17.6391L9.92343 15.3114H9.34658V15.8882L11.6743 17.9296C11.6291 17.9811 11.5855 18.034 11.5438 18.0883L9.28815 16.3573V16.8281L11.424 18.2553C11.1984 18.5923 11.036 18.975 10.9545 19.3871L8.4353 18.8861L8.10253 19.2188L10.9209 19.5901C10.9121 19.6576 10.9054 19.7257 10.901 19.7944L7.81244 19.5922L7.40466 20L7.81244 20.4078L10.901 20.2055C10.9055 20.2743 10.9121 20.3428 10.9209 20.4102L8.10253 20.7811L8.4353 21.1139L10.9545 20.6129C11.036 21.025 11.1979 21.408 11.4236 21.7451L9.28815 23.1719V23.6426L11.5438 21.9121C11.5855 21.9664 11.6292 22.0189 11.6743 22.0704L9.34658 24.1117V24.6886H9.92343L11.9648 22.3609C12.0163 22.4061 12.0691 22.4496 12.1235 22.4914L10.3925 24.747H10.8633L12.2905 22.6112C12.6274 22.837 13.0102 22.9996 13.4223 23.0811L12.9212 25.5999L13.254 25.9326L13.6253 23.1143C13.6928 23.123 13.7609 23.1297 13.8296 23.1341L13.6274 26.2227L14.0352 26.6305L14.443 26.2227L14.2407 23.1341C14.3095 23.1297 14.3775 23.123 14.445 23.1143L14.8163 25.9326L15.1491 25.5999L14.6481 23.0807C15.0602 22.9991 15.4432 22.8372 15.7802 22.6116L17.207 24.747H17.6778L15.9472 22.4914C16.0015 22.4497 16.0541 22.406 16.1056 22.3609L18.1469 24.6886H18.7238V24.1117L16.3961 22.0704C16.4412 22.0189 16.4848 21.966 16.5266 21.9116L18.7822 23.6426V23.1719L16.6464 21.7446C16.872 21.4077 17.0344 21.0249 17.1159 20.6129L19.6351 21.1139L19.9678 20.7811L17.1494 20.4098C17.1582 20.3423 17.1649 20.2743 17.1693 20.2055L20.2579 20.4078L20.6657 20L20.2579 19.5922L17.1693 19.7944C17.1649 19.7257 17.1582 19.6576 17.1494 19.5901L19.9678 19.2188L19.6351 18.8861L17.1159 19.3871C17.0343 18.975 16.8724 18.5919 16.6468 18.2549L18.7822 16.8281V16.3573L16.5266 18.0879C16.4848 18.0336 16.4412 17.981 16.3961 17.9296L18.7238 15.8882V15.3114H18.1469L16.1056 17.6391C16.0541 17.5939 16.0012 17.5504 15.9468 17.5086L17.6778 15.253H17.207L15.7798 17.3888C15.4429 17.1632 15.0601 17.0008 14.6481 16.9193L15.1491 14.4001L14.8163 14.0673L14.445 16.8857C14.3775 16.8769 14.3095 16.8703 14.2407 16.8658L14.443 13.7773L14.0352 13.3695Z" fill="#FCD116"/>
</g>
<path d="M11.7035 1.61228C6.53056 2.04084 2.23921 5.77712 1.57724 11.0101C1.25164 13.5841 1 16.6548 1 20C1 23.3452 1.25164 26.4159 1.57724 28.9899C2.23922 34.2229 6.53056 37.9592 11.7035 38.3877C15.5784 38.7087 20.5852 39 26 39C31.4148 39 36.4216 38.7087 40.2965 38.3877C45.4694 37.9592 49.7608 34.2229 50.4228 28.9899C50.7484 26.4159 51 23.3452 51 20C51 16.6548 50.7484 13.5841 50.4228 11.0101C49.7608 5.77712 45.4694 2.04084 40.2965 1.61228C36.4216 1.29127 31.4148 1 26 1C20.5852 1 15.5784 1.29127 11.7035 1.61228Z" stroke="#E6E6FA" stroke-width="2"/>
</svg>
