<svg width="52" height="40" viewBox="0 0 52 40" fill="none" xmlns="http://www.w3.org/2000/svg">
<mask id="mask0_1_42243" style="mask-type:alpha" maskUnits="userSpaceOnUse" x="2" y="2" width="48" height="36">
<path d="M2.56934 11.1356C3.16681 6.41247 7.0415 3.00193 11.7861 2.60887C15.6412 2.28949 20.6196 2 26 2C31.3804 2 36.3588 2.28949 40.2139 2.60887C44.9585 3.00193 48.8332 6.41247 49.4307 11.1356C49.752 13.6759 50 16.704 50 20C50 23.296 49.752 26.3241 49.4307 28.8644C48.8332 33.5875 44.9585 36.9981 40.2139 37.3911C36.3588 37.7105 31.3804 38 26 38C20.6196 38 15.6412 37.7105 11.7861 37.3911C7.0415 36.9981 3.16681 33.5875 2.56934 28.8644C2.248 26.3241 2 23.296 2 20C2 16.704 2.248 13.6759 2.56934 11.1356Z" fill="#00D0BF"/>
</mask>
<g mask="url(#mask0_1_42243)">
<rect x="2" y="-4" width="48" height="49" fill="#EE5757"/>
<path d="M32.4758 13.8259C32.159 14.2351 31.4093 13.4142 30.5111 13.3955C29.613 13.3767 28.9768 14.2562 28.7148 14.5556C28.4529 14.855 27.6109 16.4267 27.6296 16.5951C27.6483 16.7635 28.1535 16.1274 28.3406 16.0151C28.3593 16.2396 28.1348 16.5016 28.1909 16.5765C28.2471 16.6513 28.8458 16.1274 29.0516 16.1087C29.1078 16.2584 28.9394 16.408 28.9955 16.6326C29.0704 16.7074 29.4072 16.2583 29.6317 16.1648C29.6691 16.3332 29.4259 16.6513 29.5568 16.8571C29.6504 16.8758 30.2117 16.221 30.3989 16.1461C30.586 16.0712 30.3053 16.7635 30.3989 16.8197C30.5673 16.7074 31.0912 16.1086 31.2596 16.0338C31.428 15.959 31.2409 16.801 31.3158 16.801C31.5216 16.6513 32.0455 15.9403 32.1016 15.828C32.1578 15.7157 32.0455 16.9133 32.6256 17.5495C33.2056 18.1857 34.0851 18.9154 34.1786 18.9154C34.2909 18.7096 34.1412 18.2792 34.2348 18.2979C34.4967 18.5786 34.9832 18.9902 35.0955 18.9902C35.2077 18.9902 35.0206 18.5412 35.1703 18.5412C35.4697 18.8218 36.3304 19.9258 38.0145 20.431C37.9022 20.1129 37.6589 19.8323 37.6402 19.6826C37.7525 19.7013 38.1455 19.8884 38.2203 19.8697C38.2951 19.8509 37.397 18.747 37.4531 18.5973C37.659 18.5786 37.7525 18.7096 37.8274 18.616C37.7338 18.4663 36.9479 17.5869 36.9479 17.381C36.9479 17.1752 37.1912 17.4185 37.266 17.381C37.3409 17.3436 36.9667 16.5577 37.0415 16.4642C37.1163 16.3707 37.9396 16.9694 38.1454 16.9694C38.3513 16.9694 38.2016 16.2396 38.2951 16.2022C38.3887 16.1648 39.0811 16.5951 39.2307 16.5951C39.3804 16.5951 39.3617 16.277 39.4178 16.3145C39.474 16.3519 41.1019 17.9798 40.5405 19.8884C39.9792 21.2544 38.8565 21.9841 37.2099 21.3853C37.3034 21.535 38.1829 22.2648 39.1372 22.0028C40.0914 21.7408 41.2515 20.9924 41.1206 19.1213C40.9896 17.2501 40.3721 16.9881 40.2785 16.7075C40.185 16.4268 40.4283 16.7823 40.6341 16.8572C40.8399 16.9321 40.5967 16.4642 40.5405 16.2583C40.4844 16.0525 41.158 16.6887 41.3264 16.7449C41.4948 16.801 40.9335 15.2105 40.7651 15.0983C40.5967 14.986 40.9335 15.1356 41.0457 15.1731C41.158 15.2105 40.0166 13.4329 39.7733 13.4329C39.5301 13.4329 39.9791 13.3393 40.1101 13.3393C40.2412 13.3393 38.8004 12.1792 38.5571 12.1792C38.3138 12.1792 39.081 11.8798 39.1558 11.8611C39.2869 11.8798 37.4906 10.9068 35.8814 11.8798C35.7878 11.805 36.6392 11.2156 36.6672 10.963C36.6766 10.8975 36.3866 10.7572 36.3679 10.6823C36.3491 10.6075 36.8169 10.383 36.8356 10.2146C36.7234 10.0648 36.5175 10.121 36.4053 10.0836C36.3772 9.94326 36.7983 9.59708 36.7608 9.44743C36.7327 9.36322 36.4239 9.33516 36.3491 9.39129C36.2743 9.44743 36.5456 8.99835 36.4988 8.86739C36.4614 8.81125 36.3117 8.84869 36.162 8.88608C36.0684 8.86739 36.6485 8.06275 36.5363 7.95049C36.424 7.83822 34.8522 8.77375 34.2721 9.82162C33.6921 10.8695 34.1412 11.7115 34.0664 12.067C33.9915 12.4225 33.8979 12.7781 33.6547 12.7781C33.4114 12.7781 32.8501 12.4038 32.663 12.2167C32.4758 12.0296 32.4385 11.8986 32.1765 11.8238C31.9145 11.7489 31.3158 11.9735 31.0912 11.9922C30.8667 12.0109 29.9872 11.8238 29.9311 11.8799C29.875 11.936 30.7918 12.2728 30.9976 12.3851C31.2035 12.4974 31.2222 12.6471 31.3719 12.7406C31.5216 12.8341 32.9249 13.2458 32.4758 13.8259ZM37.9583 16.4642C38.4074 16.9133 41.4387 18.9341 41.4387 21.404C41.4387 23.8739 39.2307 23.7992 38.5945 23.7243C39.3056 24.323 42 24.2107 42 21.404C42 18.9341 38.5197 16.4642 38.0706 16.2396C37.6215 16.0151 37.5093 16.0151 37.9583 16.4642Z" fill="#FCD95E"/>
<path d="M50 38L2 2V38H50Z" fill="#2C2929"/>
<path d="M16.7389 26.9729L15.9877 26.4721L15.2562 27L15.5135 26.1496L14.7716 25.6353L15.6821 25.6109L15.9546 24.7644L16.2602 25.6002L17.1706 25.5917L16.449 26.1326L16.7389 26.9729L16.7389 26.9729Z" fill="white"/>
<path d="M10.64 23.9636L9.63186 23.2916L8.65024 24L8.99563 22.8588L8 22.1686L9.22177 22.136L9.58744 21L9.99754 22.1215L11.2193 22.1101L10.251 22.836L10.64 23.9636L10.64 23.9636Z" fill="white"/>
<path d="M15.64 17.9636L14.6319 17.2916L13.6502 18L13.9956 16.8588L13 16.1686L14.2218 16.136L14.5874 15L14.9975 16.1215L16.2193 16.1101L15.251 16.836L15.64 17.9636L15.64 17.9636Z" fill="white"/>
<path d="M20.64 22.9636L19.6319 22.2916L18.6502 23L18.9956 21.8588L18 21.1686L19.2218 21.136L19.5874 20L19.9975 21.1215L21.2193 21.1101L20.251 21.836L20.64 22.9636L20.64 22.9636Z" fill="white"/>
<path d="M15.64 33.9636L14.6319 33.2916L13.6502 34L13.9956 32.8588L13 32.1686L14.2218 32.136L14.5874 31L14.9975 32.1215L16.2193 32.1101L15.251 32.836L15.64 33.9636L15.64 33.9636Z" fill="white"/>
</g>
<path d="M11.7035 1.61228C6.53056 2.04084 2.23921 5.77712 1.57724 11.0101C1.25164 13.5841 1 16.6548 1 20C1 23.3452 1.25164 26.4159 1.57724 28.9899C2.23922 34.2229 6.53056 37.9592 11.7035 38.3877C15.5784 38.7087 20.5852 39 26 39C31.4148 39 36.4216 38.7087 40.2965 38.3877C45.4694 37.9592 49.7608 34.2229 50.4228 28.9899C50.7484 26.4159 51 23.3452 51 20C51 16.6548 50.7484 13.5841 50.4228 11.0101C49.7608 5.77712 45.4694 2.04084 40.2965 1.61228C36.4216 1.29127 31.4148 1 26 1C20.5852 1 15.5784 1.29127 11.7035 1.61228Z" stroke="#E6E6FA" stroke-width="2"/>
</svg>
