<svg width="52" height="40" viewBox="0 0 52 40" fill="none" xmlns="http://www.w3.org/2000/svg">
<mask id="mask0_1_42056" style="mask-type:alpha" maskUnits="userSpaceOnUse" x="2" y="2" width="48" height="36">
<path d="M2.56934 11.1356C3.16681 6.41247 7.0415 3.00193 11.7861 2.60887C15.6412 2.28949 20.6196 2 26 2C31.3804 2 36.3588 2.28949 40.2139 2.60887C44.9585 3.00193 48.8332 6.41247 49.4307 11.1356C49.752 13.6759 50 16.704 50 20C50 23.296 49.752 26.3241 49.4307 28.8644C48.8332 33.5875 44.9585 36.9981 40.2139 37.3911C36.3588 37.7105 31.3804 38 26 38C20.6196 38 15.6412 37.7105 11.7861 37.3911C7.0415 36.9981 3.16681 33.5875 2.56934 28.8644C2.248 26.3241 2 23.296 2 20C2 16.704 2.248 13.6759 2.56934 11.1356Z" fill="#00D0BF"/>
</mask>
<g mask="url(#mask0_1_42056)">
<rect x="2" y="-4" width="24" height="49" fill="#59C785"/>
<rect x="20" y="-4" width="30" height="49" fill="#EE5757"/>
<path fill-rule="evenodd" clip-rule="evenodd" d="M27.9987 26.4076C24.9539 26.3159 10.9914 17.6006 10.8956 16.2127L11.6666 14.9269C13.0516 16.9393 27.3254 25.4151 28.7274 25.1148L27.9987 26.4072" fill="#FFFF00"/>
<path d="M27.9987 26.4076C24.9539 26.3159 10.9914 17.6006 10.8956 16.2127L11.6666 14.9269C13.0516 16.9393 27.3254 25.4151 28.7274 25.1148L27.9987 26.4072" stroke="black" stroke-width="0.0577528" stroke-linecap="round" stroke-linejoin="round"/>
<path fill-rule="evenodd" clip-rule="evenodd" d="M11.5044 14.7522C11.2312 15.4874 15.1478 17.9088 19.8602 20.7749C24.5723 23.6407 28.6355 25.4118 28.9367 25.1578C28.9551 25.125 29.0848 24.9017 29.0729 24.9035C29.0165 24.9886 28.8791 25.0154 28.6647 24.9536C27.3916 24.5864 24.0711 23.0623 19.959 20.5687C15.847 18.0748 12.2693 15.7767 11.7133 14.8002C11.6746 14.7326 11.647 14.6091 11.6526 14.5131L11.6391 14.5129L11.5207 14.7199L11.5045 14.7523H11.5044L11.5044 14.7522ZM28.0703 26.4479C28.0186 26.5416 27.9224 26.5447 27.7395 26.5246C26.6006 26.3986 23.1446 24.718 19.0552 22.27C14.2969 19.4217 10.3671 16.8263 10.7934 16.148L10.9094 15.9429L10.9323 15.95C10.5489 17.0996 18.6879 21.7533 19.167 22.0501C23.8764 24.9676 27.8466 26.6714 28.198 26.2286L28.0701 26.4485V26.4482L28.0703 26.4479Z" fill="#FFFF00" stroke="black" stroke-width="0.0577528" stroke-linecap="round" stroke-linejoin="round"/>
<path fill-rule="evenodd" clip-rule="evenodd" d="M20.1301 17.0533C23.1776 17.0292 26.9384 16.6369 29.1027 15.7743L28.6364 15.0167C27.3572 15.7247 23.5757 16.1903 20.1043 16.2599C15.9985 16.2221 13.1004 15.8398 11.6483 14.8655L11.2081 15.6723C13.8775 16.8018 16.6128 17.0417 20.1301 17.0534" fill="#FFFF00"/>
<path d="M20.1301 17.0533C23.1776 17.0292 26.9384 16.6369 29.1027 15.7743L28.6364 15.0167C27.3572 15.7247 23.5757 16.1903 20.1043 16.2599C15.9985 16.2221 13.1004 15.8398 11.6483 14.8655L11.2081 15.6723C13.8775 16.8018 16.6128 17.0417 20.1301 17.0534" stroke="black" stroke-width="0.0577528" stroke-linecap="round" stroke-linejoin="round"/>
<path fill-rule="evenodd" clip-rule="evenodd" d="M29.2284 15.7914C29.1539 15.9105 27.7424 16.3973 25.6631 16.7565C24.2533 16.9714 22.4142 17.1552 20.1192 17.1574C17.9388 17.1594 16.1577 17.0042 14.8092 16.8215C12.6265 16.4792 11.5 16.0031 11.0835 15.8348C11.1233 15.7556 11.1489 15.7 11.1873 15.6261C12.3862 16.1034 13.518 16.3912 14.8439 16.5952C16.1835 16.7767 17.9432 16.9341 20.1128 16.9321C22.3971 16.9297 24.2159 16.732 25.6176 16.5235C27.7498 16.1796 28.9145 15.737 29.0781 15.5315L29.2287 15.7914H29.2285H29.2284ZM28.8191 15.0231C28.588 15.2087 27.4365 15.6171 25.4105 15.9407C24.0584 16.1344 22.3392 16.3079 20.1427 16.31C18.0559 16.312 16.3511 16.1714 15.0543 15.9825C12.9968 15.7138 11.9017 15.2291 11.5069 15.0877C11.5462 15.0198 11.5862 14.9525 11.6272 14.8848C11.9344 15.0395 12.9912 15.4685 15.0769 15.7639C16.3589 15.9457 18.0664 16.0812 20.1428 16.0791C22.3289 16.0768 24.0286 15.9 25.3721 15.7073C27.4086 15.4271 28.5044 14.9063 28.6708 14.7759L28.8192 15.0229V15.0231L28.8191 15.0231Z" fill="#FFFF00" stroke="black" stroke-width="0.0577528" stroke-linecap="round" stroke-linejoin="round"/>
<path fill-rule="evenodd" clip-rule="evenodd" d="M10.1226 20.7251C11.9971 21.7333 16.1604 22.2414 20.1002 22.2763C23.6875 22.282 28.3608 21.7218 30.1084 20.7957L30.0603 19.7866C29.5136 20.6411 24.5055 21.4606 20.0613 21.4271C15.6172 21.3936 11.4903 20.7071 10.1146 19.8186L10.1226 20.7248" fill="#FFFF00"/>
<path d="M10.1226 20.7251C11.9971 21.7333 16.1604 22.2414 20.1002 22.2763C23.6875 22.282 28.3608 21.7218 30.1084 20.7957L30.0603 19.7866C29.5136 20.6411 24.5055 21.4606 20.0613 21.4271C15.6172 21.3936 11.4903 20.7071 10.1146 19.8186L10.1226 20.7248" stroke="black" stroke-width="0.0577528" stroke-linecap="round" stroke-linejoin="round"/>
<path fill-rule="evenodd" clip-rule="evenodd" d="M30.204 20.58L30.2041 20.8206C29.9414 21.1346 28.2945 21.6093 26.2292 21.9436C24.6574 22.1846 22.6081 22.3664 20.0546 22.3664C17.6287 22.3664 15.6941 22.1934 14.1939 21.9631C11.8224 21.6177 10.3055 21.013 10.001 20.8325L10.0023 20.5518C10.917 21.1599 13.395 21.6047 14.2271 21.7409C15.7176 21.9697 17.6407 22.1414 20.0545 22.1414C22.5961 22.1414 24.6338 21.9608 26.1958 21.7214C27.6775 21.5074 29.7883 20.9507 30.2039 20.5801H30.204L30.204 20.58ZM30.205 19.724L30.2051 19.9647C29.9424 20.2785 28.2955 20.7532 26.2302 21.0875C24.6584 21.3285 22.6091 21.5102 20.0556 21.5102C17.6297 21.5102 15.6951 21.3374 14.1949 21.1069C11.8234 20.7618 10.3065 20.157 10.002 19.9765L10.0033 19.6957C10.918 20.3038 13.396 20.7487 14.2281 20.8847C15.7186 21.1136 17.6417 21.2854 20.0555 21.2854C22.5971 21.2854 24.6348 21.1048 26.1968 20.8652C27.6785 20.6511 29.7894 20.0945 30.2049 19.7238L30.205 19.724L30.205 19.724Z" fill="#FFFF00" stroke="black" stroke-width="0.0577528" stroke-linecap="round" stroke-linejoin="round"/>
<path fill-rule="evenodd" clip-rule="evenodd" d="M20.0918 26.2343C15.7808 26.2086 12.0869 25.0592 11.3069 24.8692L11.8757 25.7596C13.2535 26.3392 16.8571 27.2029 20.1331 27.1073C23.4092 27.0117 26.2723 26.758 28.2899 25.7758L28.8731 24.853C27.4981 25.5005 22.8188 26.2276 20.0917 26.2343" fill="#FFFF00"/>
<path d="M20.0918 26.2343C15.7808 26.2086 12.0869 25.0592 11.3069 24.8692L11.8757 25.7596C13.2535 26.3392 16.8571 27.2029 20.1331 27.1073C23.4092 27.0117 26.2723 26.758 28.2899 25.7758L28.8731 24.853C27.4981 25.5005 22.8188 26.2276 20.0917 26.2343" stroke="black" stroke-width="0.0577528" stroke-linecap="round" stroke-linejoin="round"/>
<path fill-rule="evenodd" clip-rule="evenodd" d="M28.5087 25.569C28.423 25.7 28.3356 25.8293 28.247 25.955C27.2954 26.2905 25.7959 26.6428 25.1631 26.7456C23.8706 27.0119 21.8708 27.2086 20.096 27.2095C16.277 27.1536 13.151 26.406 11.6804 25.7683L11.5617 25.5643L11.5811 25.5336L11.7824 25.6117C14.3977 26.5474 17.335 26.9206 20.1175 26.9877C21.8852 26.9939 23.6547 26.7851 25.0857 26.5292C27.28 26.0895 28.1672 25.7581 28.4395 25.6079L28.5087 25.569H28.5086L28.5087 25.569ZM29.0144 24.7349C29.0166 24.7375 29.0188 24.74 29.0209 24.7428C28.9569 24.8509 28.8908 24.961 28.8232 25.0716C28.3156 25.253 26.9382 25.656 24.9267 25.9373C23.6014 26.1178 22.7777 26.2927 20.1413 26.3439C15.2011 26.2182 12.0025 25.2522 11.2426 25.014L11.13 24.7979C13.9931 25.5453 16.9176 26.0671 20.1415 26.1204C22.5535 26.069 23.5796 25.8914 24.8939 25.7122C27.2394 25.3475 28.4212 24.9614 28.7759 24.8499C28.7714 24.8435 28.7662 24.8367 28.7603 24.8298L29.0146 24.7348L29.0144 24.735L29.0144 24.7349Z" fill="#FFFF00" stroke="black" stroke-width="0.0554346" stroke-linecap="round" stroke-linejoin="round"/>
<path fill-rule="evenodd" clip-rule="evenodd" d="M29.0661 19.9289C29.0801 22.7648 27.6288 25.3097 26.4599 26.4324C24.8061 28.0207 22.6134 29.0424 20.0527 29.0895C17.1933 29.142 14.4972 27.2779 13.774 26.459C12.3601 24.8579 11.209 22.8248 11.1721 20.0847C11.3472 16.9895 12.5623 14.8335 14.3236 13.355C16.0849 11.8765 18.4301 11.1565 20.3832 11.208C22.6367 11.2675 25.269 12.3729 27.0879 14.5675C28.2795 16.0054 28.7956 17.5658 29.0661 19.9289ZM20.077 10.2185C25.5686 10.2185 30.0851 14.6874 30.0851 20.1668C30.0851 25.6462 25.5686 30.1152 20.077 30.1152C14.5855 30.1152 10.1064 25.6463 10.1064 20.1668C10.1064 14.6874 14.5855 10.2185 20.077 10.2185Z" fill="#FFFF00"/>
<path d="M20.077 10.2185C25.5686 10.2185 30.0851 14.6874 30.0851 20.1668C30.0851 25.6462 25.5686 30.1152 20.077 30.1152C14.5855 30.1152 10.1064 25.6463 10.1064 20.1668C10.1064 14.6874 14.5855 10.2185 20.077 10.2185M29.0661 19.9289C29.0801 22.7648 27.6288 25.3097 26.4599 26.4324C24.8061 28.0207 22.6134 29.0424 20.0527 29.0895C17.1933 29.142 14.4972 27.2779 13.774 26.459C12.3601 24.8579 11.209 22.8248 11.1721 20.0847C11.3472 16.9895 12.5623 14.8335 14.3236 13.355C16.0849 11.8765 18.4301 11.1565 20.3832 11.208C22.6367 11.2675 25.269 12.3729 27.0879 14.5675C28.2795 16.0054 28.7956 17.5658 29.0661 19.9289Z" stroke="black" stroke-width="0.0577528" stroke-linecap="round" stroke-linejoin="round"/>
<path fill-rule="evenodd" clip-rule="evenodd" d="M20.1039 10.1844C25.6004 10.1844 30.0832 14.6678 30.0832 20.1648C30.0832 25.6617 25.6003 30.1451 20.1039 30.1451C14.6074 30.1451 10.1245 25.6618 10.1245 20.1648C10.1245 14.6678 14.6075 10.1844 20.1039 10.1844ZM10.3441 20.1649C10.3441 25.533 14.7523 29.9256 20.1039 29.9256C25.4555 29.9256 29.8637 25.533 29.8637 20.1649C29.8637 14.7966 25.4554 10.4039 20.1039 10.4039C14.7523 10.4039 10.3441 14.7968 10.3441 20.1649Z" fill="#FFFF00" stroke="black" stroke-width="0.0577528" stroke-linecap="round" stroke-linejoin="round"/>
<path fill-rule="evenodd" clip-rule="evenodd" d="M20.1119 11.0139C25.1243 11.0139 29.2529 15.1283 29.2529 20.156C29.2529 25.1838 25.1242 29.298 20.1119 29.298C15.0996 29.298 10.9709 25.1838 10.9709 20.156C10.9709 15.1283 15.0997 11.0139 20.1119 11.0139ZM11.1905 20.156C11.1905 25.0629 15.22 29.0783 20.1119 29.0783C25.0039 29.0783 29.0334 25.0629 29.0334 20.156C29.0334 15.2489 25.004 11.2335 20.1119 11.2335C15.22 11.2335 11.1905 15.2489 11.1905 20.156Z" fill="#FFFF00" stroke="black" stroke-width="0.0577528" stroke-linecap="round" stroke-linejoin="round"/>
<path fill-rule="evenodd" clip-rule="evenodd" d="M20.5141 10.1441H19.6588L19.6598 30.1974H20.518L20.5141 10.1441Z" fill="#FFFF00" stroke="black" stroke-width="0.0577528" stroke-linecap="round" stroke-linejoin="round"/>
<path fill-rule="evenodd" clip-rule="evenodd" d="M20.4284 10.0298H20.6461L20.6479 30.3139H20.4301L20.4285 10.0298H20.4284ZM19.5796 10.03H19.799L19.7993 30.314H19.5797V10.03H19.5796Z" fill="#FFFF00" stroke="black" stroke-width="0.0577528" stroke-linecap="round" stroke-linejoin="round"/>
<path fill-rule="evenodd" clip-rule="evenodd" d="M30.0901 20.5512V19.8099L29.4864 19.2475L26.0595 18.3403L21.1208 17.8364L15.1742 18.1388L10.941 19.1467L10.0863 19.7796V20.5212L12.2513 19.5498L17.3916 18.7435H22.3303L25.9588 19.1467L28.4785 19.7514L30.0901 20.5512Z" fill="#FFFF00" stroke="black" stroke-width="0.0577528" stroke-linecap="round" stroke-linejoin="round"/>
<path fill-rule="evenodd" clip-rule="evenodd" d="M20.1079 18.6195C22.4646 18.6152 24.7513 18.8428 26.565 19.196C28.4366 19.5701 29.7537 20.0382 30.204 20.5638L30.2035 20.8241C29.6604 20.1699 27.8881 19.6904 26.5228 19.4163C24.7229 19.0661 22.4516 18.8401 20.1079 18.8444C17.6347 18.849 15.3317 19.0833 13.5581 19.4293C12.1349 19.7117 10.237 20.2727 10 20.8261V20.555C10.1301 20.172 11.5434 19.5996 13.526 19.2027C15.313 18.8543 17.6201 18.6241 20.1079 18.6195V18.6195ZM20.1089 17.7636C22.4656 17.7593 24.7523 17.9871 26.566 18.3401C28.4376 18.7144 29.7547 19.1822 30.205 19.7079L30.2045 19.9682C29.6614 19.3142 27.8891 18.8346 26.5239 18.5605C24.7239 18.2102 22.4526 17.9842 20.1089 17.9887C17.6357 17.9931 15.3439 18.2275 13.5701 18.5734C12.1967 18.8338 10.2212 19.417 10.0009 19.9704V19.6992C10.131 19.3203 11.5729 18.7274 13.5271 18.3469C15.314 17.9984 17.6212 17.7683 20.1089 17.7636V17.7636Z" fill="#FFFF00" stroke="black" stroke-width="0.0577528" stroke-linecap="round" stroke-linejoin="round"/>
<path fill-rule="evenodd" clip-rule="evenodd" d="M20.0604 13.3976C23.7745 13.379 27.014 13.9169 28.4961 14.6761L29.0367 15.6113C27.7485 14.9171 24.2536 14.1952 20.0659 14.3032C16.6537 14.3242 13.0078 14.6788 11.1786 15.6548L11.824 14.5754C13.3253 13.7969 16.8657 13.4019 20.0606 13.3978" fill="#FFFF00"/>
<path d="M20.0604 13.3976C23.7745 13.379 27.014 13.9169 28.4961 14.6761L29.0367 15.6113C27.7485 14.9171 24.2536 14.1952 20.0659 14.3032C16.6537 14.3242 13.0078 14.6788 11.1786 15.6548L11.824 14.5754C13.3253 13.7969 16.8657 13.4019 20.0606 13.3978" stroke="black" stroke-width="0.0577528" stroke-linecap="round" stroke-linejoin="round"/>
<path fill-rule="evenodd" clip-rule="evenodd" d="M20.1099 14.1697C22.2282 14.1641 24.2751 14.2836 25.9029 14.5773C27.4189 14.8594 28.8647 15.2829 29.0714 15.5106L29.2317 15.7938C28.7289 15.4656 27.4778 15.1 25.8714 14.7954C24.2582 14.4922 22.2127 14.3918 20.1062 14.3973C17.7153 14.3891 15.8577 14.5153 14.2635 14.7933C12.5775 15.1088 11.4077 15.5594 11.1191 15.7736L11.2762 15.4742C11.8369 15.1881 12.7266 14.8433 14.2216 14.5742C15.8702 14.273 17.7475 14.1827 20.1101 14.1697H20.11L20.1099 14.1697ZM20.109 13.3146C22.1362 13.3092 24.1378 13.4222 25.698 13.7027C26.9286 13.9422 28.1455 14.3162 28.5911 14.649L28.8255 15.0215C28.427 14.5785 26.927 14.1588 25.6029 13.9237C24.0546 13.6566 22.1362 13.5509 20.109 13.5341C17.9815 13.54 16.0154 13.6703 14.4897 13.9481C13.0342 14.2251 12.0949 14.553 11.6975 14.8091L11.9037 14.498C12.4521 14.2093 13.3381 13.9441 14.4539 13.7273C15.9909 13.4475 17.9691 13.3205 20.1091 13.3146H20.109Z" fill="#FFFF00" stroke="black" stroke-width="0.0577528" stroke-linecap="round" stroke-linejoin="round"/>
<path fill-rule="evenodd" clip-rule="evenodd" d="M25.0667 24.3132C23.2305 23.9705 21.391 23.9207 20.1061 23.9358C13.9169 24.0084 11.9175 25.2067 11.6735 25.5695L11.2109 24.8155C12.7867 23.6733 16.157 23.0328 20.1396 23.0983C22.2077 23.1322 23.9923 23.2695 25.4935 23.5603L25.0666 24.3134" fill="#FFFF00"/>
<path d="M25.0667 24.3132C23.2305 23.9705 21.391 23.9207 20.1061 23.9358C13.9169 24.0084 11.9175 25.2067 11.6735 25.5695L11.2109 24.8155C12.7867 23.6733 16.157 23.0328 20.1396 23.0983C22.2077 23.1322 23.9923 23.2695 25.4935 23.5603L25.0666 24.3134" stroke="black" stroke-width="0.0577528" stroke-linecap="round" stroke-linejoin="round"/>
<path fill-rule="evenodd" clip-rule="evenodd" d="M20.0705 23.8294C21.7922 23.8551 23.4822 23.9262 25.1134 24.2304L24.9952 24.4389C23.4803 24.1593 21.8652 24.0523 20.0764 24.061C17.7922 24.0431 15.4818 24.2564 13.4705 24.8337C12.8358 25.0103 11.7852 25.4184 11.678 25.7555L11.5605 25.5617C11.5944 25.3624 12.2294 24.9488 13.4165 24.6153C15.7203 23.9556 17.8753 23.8444 20.0705 23.8292V23.8294L20.0705 23.8294ZM20.1486 22.963C21.9324 22.9963 23.7746 23.0788 25.5651 23.4335L25.4421 23.6506C23.8252 23.3296 22.2804 23.2225 20.1592 23.1899C17.8677 23.1941 15.437 23.3575 13.227 24C12.5135 24.2078 11.2821 24.6572 11.241 25.0129L11.1235 24.8048C11.1503 24.4816 12.2163 24.0601 13.1754 23.7811C15.4025 23.1337 17.8395 22.9672 20.1487 22.963L20.1486 22.963Z" fill="#FFFF00" stroke="black" stroke-width="0.0554346" stroke-linecap="round" stroke-linejoin="round"/>
<path fill-rule="evenodd" clip-rule="evenodd" d="M28.9401 24.93L28.1963 26.084L26.0595 24.1862L20.516 20.457L14.267 17.0301L11.0226 15.9204L11.714 14.6383L11.9488 14.5103L13.9647 15.0143L20.6168 18.4412L24.4468 20.8601L27.6721 23.1783L28.9824 24.6902L28.9401 24.93Z" fill="#FFFF00" stroke="black" stroke-width="0.0577528" stroke-linecap="round" stroke-linejoin="round"/>
<path fill-rule="evenodd" clip-rule="evenodd" d="M10.9057 15.9506C11.4748 15.5647 15.6569 17.4277 20.0328 20.0663C24.3971 22.7125 28.5674 25.7026 28.1909 26.2622L28.0671 26.4569L28.0103 26.5017C28.0225 26.493 28.0852 26.4163 28.0042 26.2089C27.8182 25.597 24.86 23.2364 19.9516 20.2728C15.1666 17.4195 11.1788 15.6999 10.78 16.1914L10.9057 15.9506H10.9056L10.9057 15.9506ZM29.0923 24.9136C29.4521 24.2028 25.5731 21.2807 20.7638 18.4356C15.8439 15.6472 12.298 14.0058 11.6503 14.4952L11.5064 14.7572C11.5052 14.7716 11.5117 14.7393 11.5421 14.7159C11.6599 14.6131 11.8551 14.62 11.9431 14.6184C13.0584 14.6351 16.2436 16.101 20.7125 18.6629C22.6707 19.8034 28.9845 23.8527 28.9604 24.9915C28.9621 25.0893 28.9685 25.1095 28.9317 25.158L29.0923 24.9137V24.9135L29.0923 24.9136Z" fill="#FFFF00" stroke="black" stroke-width="0.0577528" stroke-linecap="round" stroke-linejoin="round"/>
<path d="M14.1259 21.2643C14.1259 22.9043 14.7975 24.3875 15.8854 25.4715C16.9755 26.5578 18.4568 27.2433 20.0994 27.2433C21.7504 27.2433 23.2487 26.5728 24.3342 25.4906C25.4196 24.4086 26.0922 22.9152 26.0925 21.2695H26.0923V13.2881L14.1245 13.2738L14.1258 21.2643H14.126L14.1259 21.2643Z" fill="white" stroke="black" stroke-width="0.0675668"/>
<path d="M14.3497 21.2754V21.28C14.3497 22.8479 14.9989 24.2758 16.0404 25.3125C17.084 26.3511 18.5213 26.9969 20.0936 26.9969C21.6741 26.9969 23.1084 26.3558 24.1476 25.3211C25.1865 24.2865 25.8305 22.8585 25.8307 21.2851H25.8305V13.5418L14.3565 13.5399L14.3495 21.2754L14.3497 21.2754ZM23.5236 15.8582L23.524 20.7859L23.5198 21.3072H23.5199C23.5199 21.4443 23.5117 21.6007 23.4957 21.7339C23.4024 22.5129 23.0441 23.192 22.5135 23.7202C21.8922 24.3387 21.0348 24.7222 20.0898 24.7222C19.1497 24.7222 18.3119 24.3253 17.688 23.7042C17.048 23.0672 16.6771 22.1938 16.6771 21.2906L16.6758 15.8456L23.5235 15.858L23.5237 15.8582L23.5236 15.8582Z" fill="#FF0000" stroke="black" stroke-width="0.0511349"/>
<path d="M15.0924 15.5617C15.106 15.0052 15.5008 14.8735 15.5037 14.8715C15.5065 14.8696 15.9302 15.0134 15.9288 15.5668L15.0924 15.5617" fill="#FFFF00"/>
<path d="M14.7518 14.8823L14.6831 15.5218L15.1004 15.5227C15.1044 14.9936 15.501 14.9056 15.5106 14.9076C15.5195 14.9071 15.9126 15.0245 15.9231 15.5227H16.3415L16.2659 14.8783L14.7519 14.8821V14.8823L14.7518 14.8823Z" fill="#FFFF00" stroke="black" stroke-width="0.0503951"/>
<path d="M14.655 15.5244H16.363C16.399 15.5244 16.4284 15.5599 16.4284 15.6034C16.4284 15.6468 16.399 15.6821 16.363 15.6821H14.655C14.619 15.6821 14.5896 15.6468 14.5896 15.6034C14.5896 15.5599 14.619 15.5244 14.655 15.5244Z" fill="#FFFF00" stroke="black" stroke-width="0.0503951"/>
<path d="M15.2759 15.5213C15.2777 15.1874 15.5039 15.0929 15.505 15.0931C15.5051 15.0931 15.7411 15.1905 15.743 15.5213H15.2759" fill="#FFFF00"/>
<path d="M15.2759 15.5213C15.2777 15.1874 15.5039 15.0929 15.505 15.0931C15.5051 15.0931 15.7411 15.1905 15.743 15.5213H15.2759" stroke="black" stroke-width="0.0503951"/>
<path d="M14.6913 14.6162H16.3286C16.3631 14.6162 16.3914 14.6483 16.3914 14.6873C16.3914 14.7263 16.3631 14.7583 16.3286 14.7583H14.6913C14.6568 14.7583 14.6285 14.7265 14.6285 14.6873C14.6285 14.6483 14.6568 14.6162 14.6913 14.6162Z" fill="#FFFF00" stroke="black" stroke-width="0.0503951"/>
<path d="M14.7255 14.7593H16.2916C16.3246 14.7593 16.3516 14.7912 16.3516 14.8302C16.3516 14.8694 16.3246 14.9013 16.2916 14.9013H14.7255C14.6925 14.9013 14.6655 14.8694 14.6655 14.8302C14.6655 14.7912 14.6925 14.7593 14.7255 14.7593Z" fill="#FFFF00" stroke="black" stroke-width="0.0503951"/>
<path d="M15.2315 13.6919L15.3551 13.6921V13.78H15.4453V13.6902L15.572 13.6906V13.78H15.6625V13.6902H15.7892L15.789 13.893C15.789 13.9248 15.7634 13.9454 15.7338 13.9454H15.2891C15.2593 13.9454 15.2317 13.9215 15.2316 13.8924L15.2313 13.692H15.2314L15.2315 13.6919Z" fill="#FFFF00" stroke="black" stroke-width="0.0503951"/>
<path d="M15.6972 13.963L15.7251 14.6133L15.2914 14.6117L15.3201 13.9613L15.6971 13.963" fill="#FFFF00"/>
<path d="M15.6972 13.963L15.7251 14.6133L15.2914 14.6117L15.3201 13.9613L15.6971 13.963" stroke="black" stroke-width="0.0503951"/>
<path d="M15.1681 14.2644L15.1813 14.6149L14.7655 14.6151L14.7772 14.2644H15.1682H15.1681L15.1681 14.2644Z" fill="#FFFF00" stroke="black" stroke-width="0.0503951"/>
<path d="M16.2467 14.2644L16.2599 14.6149L15.8441 14.6151L15.8558 14.2644H16.2468H16.2467L16.2467 14.2644Z" fill="#FFFF00" stroke="black" stroke-width="0.0503951"/>
<path d="M14.7003 14.0105L14.8212 14.0108V14.0987H14.9097V14.0087L15.0336 14.0091V14.0987H15.1222V14.0088L15.2462 14.009L15.246 14.2117C15.246 14.2434 15.2209 14.264 15.192 14.264H14.7569C14.7277 14.264 14.7006 14.2403 14.7005 14.211L14.7002 14.0106H14.7003L14.7003 14.0105Z" fill="#FFFF00" stroke="black" stroke-width="0.0503951"/>
<path d="M15.779 14.0105L15.8998 14.0108V14.0987H15.9883V14.0087L16.1122 14.0091V14.0987H16.2008V14.0088L16.3248 14.009L16.3246 14.2117C16.3246 14.2434 16.2995 14.264 16.2706 14.264H15.8355C15.8063 14.264 15.7792 14.2403 15.7791 14.211L15.7788 14.0106H15.7789L15.779 14.0105Z" fill="#FFFF00" stroke="black" stroke-width="0.0503951"/>
<path d="M15.4664 14.1687C15.4637 14.1055 15.5547 14.1048 15.5537 14.1687V14.3235H15.4664V14.1687" fill="black"/>
<path d="M14.9292 14.3934C14.9289 14.3323 15.0136 14.3311 15.0125 14.3934V14.513H14.9292V14.3934" fill="black"/>
<path d="M16.0078 14.3934C16.0075 14.3323 16.0922 14.3311 16.0911 14.3934V14.513H16.0078V14.3934" fill="black"/>
<path d="M15.0924 19.8087C15.106 19.2522 15.5008 19.1205 15.5037 19.1185C15.5065 19.1167 15.9302 19.2604 15.9288 19.8139L15.0924 19.8087" fill="#FFFF00"/>
<path d="M14.7518 19.1293L14.6831 19.7688L15.1004 19.7697C15.1044 19.2407 15.501 19.1527 15.5106 19.1546C15.5195 19.1541 15.9126 19.2716 15.9231 19.7697H16.3415L16.2659 19.1254L14.7519 19.1292V19.1294L14.7518 19.1293Z" fill="#FFFF00" stroke="black" stroke-width="0.0503951"/>
<path d="M14.655 19.7714H16.363C16.399 19.7714 16.4284 19.8069 16.4284 19.8504C16.4284 19.8938 16.399 19.9292 16.363 19.9292H14.655C14.619 19.9292 14.5896 19.8938 14.5896 19.8504C14.5896 19.8069 14.619 19.7714 14.655 19.7714Z" fill="#FFFF00" stroke="black" stroke-width="0.0503951"/>
<path d="M15.2759 19.7683C15.2777 19.4345 15.5039 19.34 15.505 19.3401C15.5051 19.3401 15.7411 19.4376 15.743 19.7683H15.2759" fill="#FFFF00"/>
<path d="M15.2759 19.7683C15.2777 19.4345 15.5039 19.34 15.505 19.3401C15.5051 19.3401 15.7411 19.4376 15.743 19.7683H15.2759" stroke="black" stroke-width="0.0503951"/>
<path d="M14.6913 18.8633H16.3286C16.3631 18.8633 16.3914 18.8954 16.3914 18.9343C16.3914 18.9733 16.3631 19.0053 16.3286 19.0053H14.6913C14.6568 19.0053 14.6285 18.9735 14.6285 18.9343C14.6285 18.8954 14.6568 18.8633 14.6913 18.8633Z" fill="#FFFF00" stroke="black" stroke-width="0.0503951"/>
<path d="M14.7255 19.0064H16.2916C16.3246 19.0064 16.3516 19.0384 16.3516 19.0774C16.3516 19.1165 16.3246 19.1484 16.2916 19.1484H14.7255C14.6925 19.1484 14.6655 19.1165 14.6655 19.0774C14.6655 19.0384 14.6925 19.0064 14.7255 19.0064Z" fill="#FFFF00" stroke="black" stroke-width="0.0503951"/>
<path d="M15.2315 17.939L15.3551 17.9392V18.027H15.4453V17.9372L15.572 17.9376V18.0271H15.6625V17.9373H15.7892L15.789 18.14C15.789 18.1719 15.7634 18.1925 15.7338 18.1925H15.2891C15.2593 18.1925 15.2317 18.1686 15.2316 18.1394L15.2313 17.9391H15.2314L15.2315 17.939Z" fill="#FFFF00" stroke="black" stroke-width="0.0503951"/>
<path d="M15.6972 18.2102L15.7251 18.8604L15.2914 18.8588L15.3201 18.2085L15.6971 18.2102" fill="#FFFF00"/>
<path d="M15.6972 18.2102L15.7251 18.8604L15.2914 18.8588L15.3201 18.2085L15.6971 18.2102" stroke="black" stroke-width="0.0503951"/>
<path d="M15.1681 18.5115L15.1813 18.862L14.7655 18.8622L14.7772 18.5116H15.1682H15.1681L15.1681 18.5115Z" fill="#FFFF00" stroke="black" stroke-width="0.0503951"/>
<path d="M16.2467 18.5115L16.2599 18.862L15.8441 18.8622L15.8558 18.5116H16.2468H16.2467L16.2467 18.5115Z" fill="#FFFF00" stroke="black" stroke-width="0.0503951"/>
<path d="M14.7003 18.2575L14.8212 18.2578V18.3457H14.9097V18.2558L15.0336 18.2562V18.3458H15.1222V18.2558L15.2462 18.256L15.246 18.4588C15.246 18.4904 15.2209 18.511 15.192 18.511H14.7569C14.7277 18.511 14.7006 18.4873 14.7005 18.4581L14.7002 18.2576H14.7003L14.7003 18.2575Z" fill="#FFFF00" stroke="black" stroke-width="0.0503951"/>
<path d="M15.779 18.2575L15.8998 18.2578V18.3457H15.9883V18.2558L16.1122 18.2562V18.3458H16.2008V18.2558L16.3248 18.256L16.3246 18.4588C16.3246 18.4904 16.2995 18.511 16.2706 18.511H15.8355C15.8063 18.511 15.7792 18.4873 15.7791 18.4581L15.7788 18.2576H15.7789L15.779 18.2575Z" fill="#FFFF00" stroke="black" stroke-width="0.0503951"/>
<path d="M15.4664 18.4157C15.4637 18.3525 15.5547 18.3518 15.5537 18.4157V18.5706H15.4664V18.4157" fill="black"/>
<path d="M14.9292 18.6405C14.9289 18.5795 15.0136 18.5782 15.0125 18.6405V18.7602H14.9292V18.6405" fill="black"/>
<path d="M16.0078 18.6405C16.0075 18.5795 16.0922 18.5782 16.0911 18.6405V18.7602H16.0078V18.6405" fill="black"/>
<path d="M17.3252 25.5918C16.9413 25.1887 17.1274 24.8164 17.128 24.813C17.1287 24.8097 17.5299 24.6117 17.9202 25.0041L17.3252 25.5918" fill="#FFFF00"/>
<path d="M16.6039 25.3523L17.0075 25.8531L17.3032 25.5586C16.9319 25.1817 17.1501 24.839 17.1583 24.8336C17.1643 24.8269 17.5253 24.6321 17.8849 24.9769L18.1808 24.6811L17.6717 24.2788L16.6038 25.3522L16.6039 25.3523L16.6039 25.3523Z" fill="#FFFF00" stroke="black" stroke-width="0.0503951"/>
<path d="M16.9895 25.8748L18.1972 24.667C18.2227 24.6416 18.2686 24.6459 18.2994 24.6766C18.33 24.7073 18.3343 24.7531 18.3088 24.7786L17.1011 25.9863C17.0756 26.0118 17.0298 26.0076 16.9991 25.9769C16.9684 25.9462 16.964 25.9002 16.9895 25.8748Z" fill="#FFFF00" stroke="black" stroke-width="0.0503951"/>
<path d="M17.4263 25.4336C17.1915 25.1962 17.2846 24.9695 17.2856 24.9688C17.2856 24.9687 17.5214 24.8707 17.7566 25.1033L17.4263 25.4336" fill="#FFFF00"/>
<path d="M17.4263 25.4336C17.1915 25.1962 17.2846 24.9695 17.2856 24.9688C17.2856 24.9687 17.5214 24.8707 17.7566 25.1033L17.4263 25.4336" stroke="black" stroke-width="0.0503951"/>
<path d="M16.373 25.207L17.5308 24.0492C17.5551 24.0248 17.5978 24.0275 17.6254 24.055C17.653 24.0826 17.6556 24.1253 17.6312 24.1496L16.4734 25.3074C16.449 25.3318 16.4066 25.3293 16.3788 25.3016C16.3513 25.274 16.3486 25.2314 16.373 25.207Z" fill="#FFFF00" stroke="black" stroke-width="0.0503951"/>
<path d="M16.4985 25.2839L17.6059 24.1765C17.6292 24.1532 17.6709 24.1567 17.6985 24.1843C17.7261 24.2119 17.7296 24.2536 17.7062 24.2769L16.5989 25.3843C16.5755 25.4076 16.5339 25.4042 16.5062 25.3765C16.4786 25.3489 16.4752 25.3072 16.4985 25.2839Z" fill="#FFFF00" stroke="black" stroke-width="0.0503951"/>
<path d="M16.1014 24.1714L16.189 24.0841L16.2511 24.1462L16.3149 24.0824L16.2514 24.0189L16.3413 23.9296L16.4045 23.9928L16.4685 23.9289L16.405 23.8654L16.4946 23.7758L16.6379 23.9193C16.6604 23.9418 16.6569 23.9745 16.6359 23.9954L16.3215 24.3098C16.3004 24.331 16.264 24.3335 16.2433 24.313L16.1014 24.1715L16.1015 24.1715L16.1014 24.1714Z" fill="#FFFF00" stroke="black" stroke-width="0.0503951"/>
<path d="M16.6225 24.0339L17.102 24.4739L16.7942 24.7795L16.3547 24.2993L16.6225 24.0339" fill="#FFFF00"/>
<path d="M16.6225 24.0339L17.102 24.4739L16.7942 24.7795L16.3547 24.2993L16.6225 24.0339" stroke="black" stroke-width="0.0503951"/>
<path d="M16.4614 24.621L16.7186 24.8595L16.4247 25.1537L16.1851 24.8974L16.4615 24.621L16.4614 24.6211L16.4614 24.621Z" fill="#FFFF00" stroke="black" stroke-width="0.0503951"/>
<path d="M17.2241 23.8583L17.4813 24.0968L17.1874 24.391L16.9478 24.1347L17.2242 23.8583L17.2241 23.8584L17.2241 23.8583Z" fill="#FFFF00" stroke="black" stroke-width="0.0503951"/>
<path d="M15.951 24.7721L16.0367 24.6869L16.0989 24.749L16.1614 24.6865L16.0978 24.6229L16.1857 24.5355L16.2491 24.5989L16.3118 24.5362L16.2481 24.4726L16.336 24.3851L16.4792 24.5286C16.5016 24.551 16.4984 24.5833 16.4779 24.6038L16.1703 24.9114C16.1497 24.9321 16.1137 24.9344 16.093 24.9138L15.951 24.7723L15.9511 24.7722L15.951 24.7721Z" fill="#FFFF00" stroke="black" stroke-width="0.0503951"/>
<path d="M16.7139 24.0095L16.7996 23.9243L16.8617 23.9864L16.9243 23.9239L16.8606 23.8603L16.9486 23.7729L17.0119 23.8363L17.0746 23.7736L17.011 23.71L17.0988 23.6225L17.242 23.766C17.2644 23.7884 17.2612 23.8207 17.2408 23.8412L16.9331 24.1488C16.9125 24.1695 16.8765 24.1718 16.8558 24.1512L16.7138 24.0097L16.7139 24.0096L16.7139 24.0095Z" fill="#FFFF00" stroke="black" stroke-width="0.0503951"/>
<path d="M16.6047 24.3425C16.5581 24.2997 16.622 24.2348 16.6664 24.2808L16.7759 24.3902L16.7142 24.452L16.6047 24.3425" fill="black"/>
<path d="M16.3837 24.8813C16.3403 24.8383 16.3993 24.7775 16.4426 24.8224L16.5272 24.907L16.4683 24.9658L16.3837 24.8812" fill="black"/>
<path d="M17.1464 24.1186C17.103 24.0756 17.162 24.0149 17.2053 24.0597L17.2899 24.1443L17.231 24.2031L17.1464 24.1185" fill="black"/>
<path d="M19.7085 15.5617C19.7221 15.0052 20.1169 14.8735 20.1198 14.8715C20.1226 14.8696 20.5463 15.0134 20.5448 15.5668L19.7085 15.5617" fill="#FFFF00"/>
<path d="M19.3679 14.8823L19.2992 15.5218L19.7165 15.5227C19.7205 14.9936 20.1171 14.9056 20.1267 14.9076C20.1356 14.9071 20.5287 15.0245 20.5392 15.5227H20.9576L20.882 14.8783L19.3679 14.8821V14.8823L19.3679 14.8823Z" fill="#FFFF00" stroke="black" stroke-width="0.0503951"/>
<path d="M19.2711 15.5244H20.9791C21.0151 15.5244 21.0445 15.5599 21.0445 15.6034C21.0445 15.6468 21.0151 15.6821 20.9791 15.6821H19.2711C19.2351 15.6821 19.2057 15.6468 19.2057 15.6034C19.2057 15.5599 19.2351 15.5244 19.2711 15.5244Z" fill="#FFFF00" stroke="black" stroke-width="0.0503951"/>
<path d="M19.892 15.5213C19.8938 15.1874 20.12 15.0929 20.1211 15.0931C20.1212 15.0931 20.3572 15.1905 20.3591 15.5213H19.892" fill="#FFFF00"/>
<path d="M19.892 15.5213C19.8938 15.1874 20.12 15.0929 20.1211 15.0931C20.1212 15.0931 20.3572 15.1905 20.3591 15.5213H19.892" stroke="black" stroke-width="0.0503951"/>
<path d="M19.3074 14.6162H20.9447C20.9792 14.6162 21.0075 14.6483 21.0075 14.6873C21.0075 14.7263 20.9792 14.7583 20.9447 14.7583H19.3074C19.2729 14.7583 19.2446 14.7265 19.2446 14.6873C19.2446 14.6483 19.2729 14.6162 19.3074 14.6162Z" fill="#FFFF00" stroke="black" stroke-width="0.0503951"/>
<path d="M19.3416 14.7593H20.9077C20.9407 14.7593 20.9677 14.7912 20.9677 14.8302C20.9677 14.8694 20.9407 14.9013 20.9077 14.9013H19.3416C19.3086 14.9013 19.2816 14.8694 19.2816 14.8302C19.2816 14.7912 19.3086 14.7593 19.3416 14.7593Z" fill="#FFFF00" stroke="black" stroke-width="0.0503951"/>
<path d="M19.8476 13.6919L19.9712 13.6921V13.78H20.0614V13.6902L20.1881 13.6906V13.78H20.2786V13.6902H20.4053L20.4051 13.893C20.4051 13.9248 20.3795 13.9454 20.3498 13.9454H19.9052C19.8754 13.9454 19.8478 13.9215 19.8477 13.8924L19.8474 13.692H19.8475L19.8476 13.6919Z" fill="#FFFF00" stroke="black" stroke-width="0.0503951"/>
<path d="M20.3132 13.963L20.3412 14.6133L19.9075 14.6117L19.9362 13.9613L20.3132 13.963" fill="#FFFF00"/>
<path d="M20.3132 13.963L20.3412 14.6133L19.9075 14.6117L19.9362 13.9613L20.3132 13.963" stroke="black" stroke-width="0.0503951"/>
<path d="M19.7842 14.2644L19.7974 14.6149L19.3816 14.6151L19.3933 14.2644H19.7842H19.7842L19.7842 14.2644Z" fill="#FFFF00" stroke="black" stroke-width="0.0503951"/>
<path d="M20.8628 14.2644L20.876 14.6149L20.4602 14.6151L20.4719 14.2644H20.8629H20.8628L20.8628 14.2644Z" fill="#FFFF00" stroke="black" stroke-width="0.0503951"/>
<path d="M19.3164 14.0105L19.4373 14.0108V14.0987H19.5258V14.0087L19.6497 14.0091V14.0987H19.7383V14.0088L19.8623 14.009L19.8621 14.2117C19.8621 14.2434 19.837 14.264 19.808 14.264H19.3729C19.3438 14.264 19.3167 14.2403 19.3166 14.211L19.3163 14.0106H19.3164L19.3164 14.0105Z" fill="#FFFF00" stroke="black" stroke-width="0.0503951"/>
<path d="M20.395 14.0105L20.5159 14.0108V14.0987H20.6044V14.0087L20.7283 14.0091V14.0987H20.8169V14.0088L20.9409 14.009L20.9407 14.2117C20.9407 14.2434 20.9156 14.264 20.8867 14.264H20.4516C20.4224 14.264 20.3953 14.2403 20.3952 14.211L20.3949 14.0106H20.395L20.395 14.0105Z" fill="#FFFF00" stroke="black" stroke-width="0.0503951"/>
<path d="M20.0825 14.1687C20.0798 14.1055 20.1708 14.1048 20.1697 14.1687V14.3235H20.0825V14.1687" fill="black"/>
<path d="M19.5453 14.3934C19.545 14.3323 19.6296 14.3311 19.6286 14.3934V14.513H19.5453V14.3934" fill="black"/>
<path d="M20.6239 14.3934C20.6236 14.3323 20.7083 14.3311 20.7072 14.3934V14.513H20.6239V14.3934" fill="black"/>
<path d="M24.1433 15.5617C24.1569 15.0052 24.5518 14.8735 24.5546 14.8715C24.5574 14.8696 24.9811 15.0134 24.9797 15.5668L24.1433 15.5617" fill="#FFFF00"/>
<path d="M23.8026 14.8823L23.7339 15.5218L24.1512 15.5227C24.1552 14.9936 24.5517 14.9056 24.5613 14.9076C24.5703 14.9071 24.9634 15.0245 24.9739 15.5227H25.3923L25.3167 14.8783L23.8026 14.8821V14.8823L23.8026 14.8823Z" fill="#FFFF00" stroke="black" stroke-width="0.0503951"/>
<path d="M23.7059 15.5244H25.4139C25.4499 15.5244 25.4793 15.5599 25.4793 15.6034C25.4793 15.6468 25.4499 15.6821 25.4139 15.6821H23.7059C23.6699 15.6821 23.6405 15.6468 23.6405 15.6034C23.6405 15.5599 23.6699 15.5244 23.7059 15.5244Z" fill="#FFFF00" stroke="black" stroke-width="0.0503951"/>
<path d="M24.3268 15.5213C24.3286 15.1874 24.5548 15.0929 24.5559 15.0931C24.556 15.0931 24.792 15.1905 24.7939 15.5213H24.3268" fill="#FFFF00"/>
<path d="M24.3268 15.5213C24.3286 15.1874 24.5548 15.0929 24.5559 15.0931C24.556 15.0931 24.792 15.1905 24.7939 15.5213H24.3268" stroke="black" stroke-width="0.0503951"/>
<path d="M23.7422 14.6162H25.3795C25.414 14.6162 25.4423 14.6483 25.4423 14.6873C25.4423 14.7263 25.414 14.7583 25.3795 14.7583H23.7422C23.7077 14.7583 23.6794 14.7265 23.6794 14.6873C23.6794 14.6483 23.7077 14.6162 23.7422 14.6162Z" fill="#FFFF00" stroke="black" stroke-width="0.0503951"/>
<path d="M23.7764 14.7593H25.3425C25.3755 14.7593 25.4025 14.7912 25.4025 14.8302C25.4025 14.8694 25.3755 14.9013 25.3425 14.9013H23.7764C23.7435 14.9013 23.7164 14.8694 23.7164 14.8302C23.7164 14.7912 23.7435 14.7593 23.7764 14.7593Z" fill="#FFFF00" stroke="black" stroke-width="0.0503951"/>
<path d="M24.2825 13.6919L24.4061 13.6921V13.78H24.4964V13.6902L24.623 13.6906V13.78H24.7135V13.6902H24.8403L24.8401 13.893C24.8401 13.9248 24.8145 13.9454 24.7848 13.9454H24.3402C24.3103 13.9454 24.2827 13.9215 24.2827 13.8924L24.2823 13.692H24.2824L24.2825 13.6919Z" fill="#FFFF00" stroke="black" stroke-width="0.0503951"/>
<path d="M24.7481 13.963L24.776 14.6133L24.3423 14.6117L24.371 13.9613L24.7481 13.963" fill="#FFFF00"/>
<path d="M24.7481 13.963L24.776 14.6133L24.3423 14.6117L24.371 13.9613L24.7481 13.963" stroke="black" stroke-width="0.0503951"/>
<path d="M24.219 14.2644L24.2322 14.6149L23.8164 14.6151L23.8281 14.2644H24.2191H24.219L24.219 14.2644Z" fill="#FFFF00" stroke="black" stroke-width="0.0503951"/>
<path d="M25.2976 14.2644L25.3108 14.6149L24.895 14.6151L24.9068 14.2644H25.2977H25.2976L25.2976 14.2644Z" fill="#FFFF00" stroke="black" stroke-width="0.0503951"/>
<path d="M23.7512 14.0105L23.8721 14.0108V14.0987H23.9606V14.0087L24.0845 14.0091V14.0987H24.1731V14.0088L24.2971 14.009L24.2969 14.2117C24.2969 14.2434 24.2718 14.264 24.2429 14.264H23.8078C23.7786 14.264 23.7515 14.2403 23.7514 14.211L23.7511 14.0106H23.7512L23.7512 14.0105Z" fill="#FFFF00" stroke="black" stroke-width="0.0503951"/>
<path d="M24.8299 14.0105L24.9507 14.0108V14.0987H25.0392V14.0087L25.1631 14.0091V14.0987H25.2517V14.0088L25.3757 14.009L25.3755 14.2117C25.3755 14.2434 25.3504 14.264 25.3215 14.264H24.8864C24.8572 14.264 24.8301 14.2403 24.83 14.211L24.8297 14.0106H24.8298L24.8299 14.0105Z" fill="#FFFF00" stroke="black" stroke-width="0.0503951"/>
<path d="M24.5173 14.1687C24.5146 14.1055 24.6056 14.1048 24.6046 14.1687V14.3235H24.5173V14.1687" fill="black"/>
<path d="M23.9801 14.3934C23.9798 14.3323 24.0645 14.3311 24.0634 14.3934V14.513H23.9801V14.3934" fill="black"/>
<path d="M25.0587 14.3934C25.0584 14.3323 25.1431 14.3311 25.142 14.3934V14.513H25.0588V14.3934" fill="black"/>
<path d="M24.1433 19.8087C24.1569 19.2522 24.5518 19.1205 24.5546 19.1185C24.5574 19.1167 24.9811 19.2604 24.9797 19.8139L24.1433 19.8087" fill="#FFFF00"/>
<path d="M23.8026 19.1293L23.7339 19.7688L24.1512 19.7697C24.1552 19.2407 24.5517 19.1527 24.5613 19.1546C24.5703 19.1541 24.9634 19.2716 24.9739 19.7697H25.3923L25.3167 19.1254L23.8026 19.1292V19.1294L23.8026 19.1293Z" fill="#FFFF00" stroke="black" stroke-width="0.0503951"/>
<path d="M23.7059 19.7714H25.4139C25.4499 19.7714 25.4793 19.8069 25.4793 19.8504C25.4793 19.8938 25.4499 19.9292 25.4139 19.9292H23.7059C23.6699 19.9292 23.6405 19.8938 23.6405 19.8504C23.6405 19.8069 23.6699 19.7714 23.7059 19.7714Z" fill="#FFFF00" stroke="black" stroke-width="0.0503951"/>
<path d="M24.3268 19.7683C24.3286 19.4345 24.5548 19.34 24.5559 19.3401C24.556 19.3401 24.792 19.4376 24.7939 19.7683H24.3268" fill="#FFFF00"/>
<path d="M24.3268 19.7683C24.3286 19.4345 24.5548 19.34 24.5559 19.3401C24.556 19.3401 24.792 19.4376 24.7939 19.7683H24.3268" stroke="black" stroke-width="0.0503951"/>
<path d="M23.7422 18.8633H25.3795C25.414 18.8633 25.4423 18.8954 25.4423 18.9343C25.4423 18.9733 25.414 19.0053 25.3795 19.0053H23.7422C23.7077 19.0053 23.6794 18.9735 23.6794 18.9343C23.6794 18.8954 23.7077 18.8633 23.7422 18.8633Z" fill="#FFFF00" stroke="black" stroke-width="0.0503951"/>
<path d="M23.7764 19.0064H25.3425C25.3755 19.0064 25.4025 19.0384 25.4025 19.0774C25.4025 19.1165 25.3755 19.1484 25.3425 19.1484H23.7764C23.7435 19.1484 23.7164 19.1165 23.7164 19.0774C23.7164 19.0384 23.7435 19.0064 23.7764 19.0064Z" fill="#FFFF00" stroke="black" stroke-width="0.0503951"/>
<path d="M24.2825 17.939L24.4061 17.9392V18.027H24.4964V17.9372L24.623 17.9376V18.0271H24.7135V17.9373H24.8403L24.8401 18.14C24.8401 18.1719 24.8145 18.1925 24.7848 18.1925H24.3402C24.3103 18.1925 24.2827 18.1686 24.2827 18.1394L24.2823 17.9391H24.2824L24.2825 17.939Z" fill="#FFFF00" stroke="black" stroke-width="0.0503951"/>
<path d="M24.7481 18.2102L24.776 18.8604L24.3423 18.8588L24.371 18.2085L24.7481 18.2102" fill="#FFFF00"/>
<path d="M24.7481 18.2102L24.776 18.8604L24.3423 18.8588L24.371 18.2085L24.7481 18.2102" stroke="black" stroke-width="0.0503951"/>
<path d="M24.219 18.5115L24.2322 18.862L23.8164 18.8622L23.8281 18.5116H24.2191H24.219L24.219 18.5115Z" fill="#FFFF00" stroke="black" stroke-width="0.0503951"/>
<path d="M25.2976 18.5115L25.3108 18.862L24.895 18.8622L24.9068 18.5116H25.2977H25.2976L25.2976 18.5115Z" fill="#FFFF00" stroke="black" stroke-width="0.0503951"/>
<path d="M23.7512 18.2575L23.8721 18.2578V18.3457H23.9606V18.2558L24.0845 18.2562V18.3458H24.1731V18.2558L24.2971 18.256L24.2969 18.4588C24.2969 18.4904 24.2718 18.511 24.2429 18.511H23.8078C23.7786 18.511 23.7515 18.4873 23.7514 18.4581L23.7511 18.2576H23.7512L23.7512 18.2575Z" fill="#FFFF00" stroke="black" stroke-width="0.0503951"/>
<path d="M24.8299 18.2575L24.9507 18.2578V18.3457H25.0392V18.2558L25.1631 18.2562V18.3458H25.2517V18.2558L25.3757 18.256L25.3755 18.4588C25.3755 18.4904 25.3504 18.511 25.3215 18.511H24.8864C24.8572 18.511 24.8301 18.4873 24.83 18.4581L24.8297 18.2576H24.8298L24.8299 18.2575Z" fill="#FFFF00" stroke="black" stroke-width="0.0503951"/>
<path d="M24.5173 18.4157C24.5146 18.3525 24.6056 18.3518 24.6046 18.4157V18.5706H24.5173V18.4157" fill="black"/>
<path d="M23.9801 18.6405C23.9798 18.5795 24.0645 18.5782 24.0634 18.6405V18.7602H23.9801V18.6405" fill="black"/>
<path d="M25.0587 18.6405C25.0584 18.5795 25.1431 18.5782 25.142 18.6405V18.7602H25.0588V18.6405" fill="black"/>
<path d="M22.1663 25.0028C22.5694 24.6189 22.9417 24.8049 22.9451 24.8056C22.9484 24.8063 23.1464 25.2075 22.754 25.5978L22.1663 25.0028" fill="#FFFF00"/>
<path d="M22.4058 24.2815L21.905 24.6851L22.1994 24.9809C22.5764 24.6096 22.919 24.8277 22.9244 24.8359C22.9311 24.8419 23.126 25.2029 22.7811 25.5626L23.077 25.8584L23.4792 25.3494L22.4059 24.2814L22.4058 24.2816L22.4058 24.2815Z" fill="#FFFF00" stroke="black" stroke-width="0.0503951"/>
<path d="M21.8833 24.6671L23.091 25.8748C23.1165 25.9003 23.1121 25.9462 23.0814 25.9769C23.0507 26.0076 23.0049 26.0118 22.9795 25.9864L21.7717 24.7786C21.7463 24.7532 21.7505 24.7074 21.7812 24.6767C21.8119 24.646 21.8578 24.6416 21.8833 24.6671Z" fill="#FFFF00" stroke="black" stroke-width="0.0503951"/>
<path d="M22.3244 25.104C22.5618 24.8692 22.7885 24.9623 22.7892 24.9632C22.7893 24.9633 22.8873 25.199 22.6547 25.4343L22.3244 25.104" fill="#FFFF00"/>
<path d="M22.3244 25.104C22.5618 24.8692 22.7885 24.9623 22.7892 24.9632C22.7893 24.9633 22.8873 25.199 22.6547 25.4343L22.3244 25.104" stroke="black" stroke-width="0.0503951"/>
<path d="M22.5511 24.0507L23.7089 25.2084C23.7332 25.2328 23.7305 25.2755 23.703 25.303C23.6754 25.3306 23.6328 25.3333 23.6084 25.3089L22.4506 24.1511C22.4263 24.1267 22.4288 24.0842 22.4565 24.0565C22.484 24.029 22.5267 24.0263 22.5511 24.0507Z" fill="#FFFF00" stroke="black" stroke-width="0.0503951"/>
<path d="M22.4742 24.1761L23.5816 25.2834C23.6049 25.3068 23.6014 25.3484 23.5738 25.376C23.5462 25.4037 23.5045 25.4071 23.4812 25.3838L22.3738 24.2764C22.3505 24.2531 22.3539 24.2115 22.3816 24.1838C22.4092 24.1562 22.4509 24.1527 22.4742 24.1761Z" fill="#FFFF00" stroke="black" stroke-width="0.0503951"/>
<path d="M23.5866 23.7791L23.6739 23.8666L23.6118 23.9287L23.6756 23.9925L23.7391 23.929L23.8284 24.0189L23.7651 24.0821L23.8291 24.1461L23.8926 24.0826L23.9822 24.1723L23.8387 24.3155C23.8162 24.338 23.7835 24.3345 23.7625 24.3135L23.4482 23.9991C23.427 23.978 23.4245 23.9416 23.445 23.9209L23.5865 23.779L23.5865 23.7791L23.5866 23.7791Z" fill="#FFFF00" stroke="black" stroke-width="0.0503951"/>
<path d="M23.7242 24.3001L23.2842 24.7796L22.9786 24.4718L23.4588 24.0323L23.7242 24.3001" fill="#FFFF00"/>
<path d="M23.7242 24.3001L23.2842 24.7796L22.9786 24.4718L23.4588 24.0323L23.7242 24.3001" stroke="black" stroke-width="0.0503951"/>
<path d="M23.137 24.139L22.8985 24.3962L22.6043 24.1023L22.8606 23.8627L23.137 24.1391L23.1369 24.139L23.137 24.139Z" fill="#FFFF00" stroke="black" stroke-width="0.0503951"/>
<path d="M23.8997 24.9017L23.6612 25.1589L23.367 24.865L23.6233 24.6254L23.8997 24.9018L23.8996 24.9017L23.8997 24.9017Z" fill="#FFFF00" stroke="black" stroke-width="0.0503951"/>
<path d="M22.9858 23.6287L23.0711 23.7144L23.0089 23.7766L23.0715 23.8391L23.1351 23.7755L23.2224 23.8634L23.159 23.9268L23.2217 23.9895L23.2853 23.9259L23.3728 24.0137L23.2293 24.1569C23.207 24.1793 23.1746 24.1761 23.1542 24.1556L22.8465 23.848C22.8259 23.8274 22.8235 23.7914 22.8441 23.7707L22.9856 23.6287L22.9857 23.6288L22.9858 23.6287Z" fill="#FFFF00" stroke="black" stroke-width="0.0503951"/>
<path d="M23.7486 24.3914L23.8339 24.477L23.7717 24.5392L23.8343 24.6017L23.8979 24.5381L23.9852 24.626L23.9219 24.6894L23.9845 24.7521L24.0481 24.6885L24.1357 24.7763L23.9921 24.9195C23.9698 24.9419 23.9375 24.9387 23.917 24.9182L23.6093 24.6106C23.5887 24.59 23.5863 24.554 23.6069 24.5333L23.7484 24.3913L23.7485 24.3914L23.7486 24.3914Z" fill="#FFFF00" stroke="black" stroke-width="0.0503951"/>
<path d="M23.4157 24.2822C23.4585 24.2356 23.5233 24.2995 23.4774 24.3439L23.3679 24.4534L23.3062 24.3917L23.4156 24.2823" fill="black"/>
<path d="M22.8768 24.0613C22.9198 24.0179 22.9805 24.0769 22.9357 24.1202L22.8511 24.2048L22.7922 24.1459L22.8768 24.0613" fill="black"/>
<path d="M23.6395 24.824C23.6825 24.7806 23.7432 24.8396 23.6984 24.8829L23.6138 24.9675L23.5549 24.9086L23.6395 24.824" fill="black"/>
<path d="M19.3707 20.3972V20.3977C19.3707 20.6206 19.4563 20.8237 19.5936 20.9711C19.7312 21.1189 19.9207 21.2108 20.128 21.2108C20.3363 21.2108 20.5255 21.1196 20.6625 20.9724C20.7993 20.8253 20.8844 20.6224 20.8844 20.3986V19.3133L19.3734 19.312L19.3706 20.3971" fill="#003399"/>
<path d="M19.7172 19.8745C19.7999 19.8745 19.8669 19.8074 19.8669 19.7247C19.8669 19.642 19.7999 19.575 19.7172 19.575C19.6344 19.575 19.5674 19.642 19.5674 19.7247C19.5674 19.8074 19.6344 19.8745 19.7172 19.8745Z" fill="white"/>
<path d="M20.5555 19.8752C20.6383 19.8752 20.7053 19.8082 20.7053 19.7255C20.7053 19.6427 20.6383 19.5757 20.5555 19.5757C20.4728 19.5757 20.4058 19.6427 20.4058 19.7255C20.4058 19.8082 20.4728 19.8752 20.5555 19.8752Z" fill="white"/>
<path d="M20.1356 20.2776C20.2183 20.2776 20.2854 20.2106 20.2854 20.1278C20.2854 20.0451 20.2183 19.9781 20.1356 19.9781C20.0529 19.9781 19.9858 20.0451 19.9858 20.1278C19.9858 20.2106 20.0529 20.2776 20.1356 20.2776Z" fill="white"/>
<path d="M19.7172 20.6991C19.7999 20.6991 19.8669 20.632 19.8669 20.5493C19.8669 20.4666 19.7999 20.3995 19.7172 20.3995C19.6344 20.3995 19.5674 20.4666 19.5674 20.5493C19.5674 20.632 19.6344 20.6991 19.7172 20.6991Z" fill="white"/>
<path d="M20.5547 20.698C20.6374 20.698 20.7045 20.6309 20.7045 20.5482C20.7045 20.4655 20.6374 20.3984 20.5547 20.3984C20.472 20.3984 20.4049 20.4655 20.4049 20.5482C20.4049 20.6309 20.472 20.698 20.5547 20.698Z" fill="white"/>
<path d="M19.3707 17.9137V17.9142C19.3707 18.1372 19.4563 18.3403 19.5936 18.4877C19.7312 18.6355 19.9207 18.7273 20.128 18.7273C20.3363 18.7273 20.5255 18.6361 20.6625 18.4889C20.7993 18.3419 20.8844 18.1389 20.8844 17.9151V16.8298L19.3734 16.8286L19.3706 17.9137" fill="#003399"/>
<path d="M19.7172 17.3911C19.7999 17.3911 19.8669 17.3241 19.8669 17.2414C19.8669 17.1586 19.7999 17.0916 19.7172 17.0916C19.6344 17.0916 19.5674 17.1586 19.5674 17.2414C19.5674 17.3241 19.6344 17.3911 19.7172 17.3911Z" fill="white"/>
<path d="M20.5555 17.3918C20.6383 17.3918 20.7053 17.3248 20.7053 17.2421C20.7053 17.1593 20.6383 17.0923 20.5555 17.0923C20.4728 17.0923 20.4058 17.1593 20.4058 17.2421C20.4058 17.3248 20.4728 17.3918 20.5555 17.3918Z" fill="white"/>
<path d="M20.1356 17.7943C20.2183 17.7943 20.2854 17.7273 20.2854 17.6446C20.2854 17.5618 20.2183 17.4948 20.1356 17.4948C20.0529 17.4948 19.9858 17.5618 19.9858 17.6446C19.9858 17.7273 20.0529 17.7943 20.1356 17.7943Z" fill="white"/>
<path d="M19.7172 18.2157C19.7999 18.2157 19.8669 18.1486 19.8669 18.0659C19.8669 17.9832 19.7999 17.9161 19.7172 17.9161C19.6344 17.9161 19.5674 17.9832 19.5674 18.0659C19.5674 18.1486 19.6344 18.2157 19.7172 18.2157Z" fill="white"/>
<path d="M20.5547 18.2146C20.6374 18.2146 20.7045 18.1475 20.7045 18.0648C20.7045 17.9821 20.6374 17.915 20.5547 17.915C20.472 17.915 20.4049 17.9821 20.4049 18.0648C20.4049 18.1475 20.472 18.2146 20.5547 18.2146Z" fill="white"/>
<path d="M19.3707 22.8524V22.8529C19.3707 23.0758 19.4563 23.2789 19.5936 23.4263C19.7312 23.5741 19.9207 23.666 20.128 23.666C20.3363 23.666 20.5255 23.5748 20.6625 23.4276C20.7993 23.2805 20.8844 23.0776 20.8844 22.8538V21.7685L19.3734 21.7672L19.3706 22.8523" fill="#003399"/>
<path d="M19.7172 22.3299C19.7999 22.3299 19.8669 22.2628 19.8669 22.1801C19.8669 22.0974 19.7999 22.0303 19.7172 22.0303C19.6344 22.0303 19.5674 22.0974 19.5674 22.1801C19.5674 22.2628 19.6344 22.3299 19.7172 22.3299Z" fill="white"/>
<path d="M20.5555 22.3306C20.6383 22.3306 20.7053 22.2635 20.7053 22.1808C20.7053 22.0981 20.6383 22.031 20.5555 22.031C20.4728 22.031 20.4058 22.0981 20.4058 22.1808C20.4058 22.2635 20.4728 22.3306 20.5555 22.3306Z" fill="white"/>
<path d="M20.1356 22.733C20.2183 22.733 20.2854 22.6659 20.2854 22.5832C20.2854 22.5005 20.2183 22.4334 20.1356 22.4334C20.0529 22.4334 19.9858 22.5005 19.9858 22.5832C19.9858 22.6659 20.0529 22.733 20.1356 22.733Z" fill="white"/>
<path d="M19.7172 23.1544C19.7999 23.1544 19.8669 23.0874 19.8669 23.0046C19.8669 22.9219 19.7999 22.8549 19.7172 22.8549C19.6344 22.8549 19.5674 22.9219 19.5674 23.0046C19.5674 23.0874 19.6344 23.1544 19.7172 23.1544Z" fill="white"/>
<path d="M20.5547 23.1533C20.6374 23.1533 20.7045 23.0862 20.7045 23.0035C20.7045 22.9208 20.6374 22.8537 20.5547 22.8537C20.472 22.8537 20.4049 22.9208 20.4049 23.0035C20.4049 23.0862 20.472 23.1533 20.5547 23.1533Z" fill="white"/>
<path d="M17.4924 20.3972V20.3977C17.4924 20.6206 17.578 20.8237 17.7153 20.9711C17.8529 21.1189 18.0424 21.2108 18.2497 21.2108C18.458 21.2108 18.6472 21.1196 18.7842 20.9724C18.921 20.8253 19.0061 20.6224 19.0061 20.3986V19.3133L17.4951 19.312L17.4923 20.3971" fill="#003399"/>
<path d="M17.8389 19.8745C17.9216 19.8745 17.9886 19.8074 17.9886 19.7247C17.9886 19.642 17.9216 19.575 17.8389 19.575C17.7561 19.575 17.6891 19.642 17.6891 19.7247C17.6891 19.8074 17.7561 19.8745 17.8389 19.8745Z" fill="white"/>
<path d="M18.6772 19.8752C18.76 19.8752 18.827 19.8082 18.827 19.7255C18.827 19.6427 18.76 19.5757 18.6772 19.5757C18.5945 19.5757 18.5275 19.6427 18.5275 19.7255C18.5275 19.8082 18.5945 19.8752 18.6772 19.8752Z" fill="white"/>
<path d="M18.2572 20.2776C18.3399 20.2776 18.407 20.2106 18.407 20.1278C18.407 20.0451 18.3399 19.9781 18.2572 19.9781C18.1745 19.9781 18.1074 20.0451 18.1074 20.1278C18.1074 20.2106 18.1745 20.2776 18.2572 20.2776Z" fill="white"/>
<path d="M17.8389 20.6991C17.9216 20.6991 17.9886 20.632 17.9886 20.5493C17.9886 20.4666 17.9216 20.3995 17.8389 20.3995C17.7561 20.3995 17.6891 20.4666 17.6891 20.5493C17.6891 20.632 17.7561 20.6991 17.8389 20.6991Z" fill="white"/>
<path d="M18.6763 20.698C18.759 20.698 18.826 20.6309 18.826 20.5482C18.826 20.4655 18.759 20.3984 18.6763 20.3984C18.5935 20.3984 18.5265 20.4655 18.5265 20.5482C18.5265 20.6309 18.5935 20.698 18.6763 20.698Z" fill="white"/>
<path d="M21.2216 20.3972V20.3977C21.2216 20.6206 21.3072 20.8237 21.4445 20.9711C21.5821 21.1189 21.7716 21.2108 21.9789 21.2108C22.1873 21.2108 22.3764 21.1196 22.5134 20.9724C22.6503 20.8253 22.7354 20.6224 22.7354 20.3986V19.3133L21.2243 19.312L21.2216 20.3971" fill="#003399"/>
<path d="M21.5681 19.8745C21.6508 19.8745 21.7179 19.8074 21.7179 19.7247C21.7179 19.642 21.6508 19.575 21.5681 19.575C21.4854 19.575 21.4183 19.642 21.4183 19.7247C21.4183 19.8074 21.4854 19.8745 21.5681 19.8745Z" fill="white"/>
<path d="M22.4065 19.8752C22.4892 19.8752 22.5563 19.8082 22.5563 19.7255C22.5563 19.6427 22.4892 19.5757 22.4065 19.5757C22.3238 19.5757 22.2567 19.6427 22.2567 19.7255C22.2567 19.8082 22.3238 19.8752 22.4065 19.8752Z" fill="white"/>
<path d="M21.9866 20.2776C22.0693 20.2776 22.1363 20.2106 22.1363 20.1278C22.1363 20.0451 22.0693 19.9781 21.9866 19.9781C21.9038 19.9781 21.8368 20.0451 21.8368 20.1278C21.8368 20.2106 21.9038 20.2776 21.9866 20.2776Z" fill="white"/>
<path d="M21.5681 20.6991C21.6508 20.6991 21.7179 20.632 21.7179 20.5493C21.7179 20.4666 21.6508 20.3995 21.5681 20.3995C21.4854 20.3995 21.4183 20.4666 21.4183 20.5493C21.4183 20.632 21.4854 20.6991 21.5681 20.6991Z" fill="white"/>
<path d="M22.4055 20.698C22.4882 20.698 22.5553 20.6309 22.5553 20.5482C22.5553 20.4655 22.4882 20.3984 22.4055 20.3984C22.3228 20.3984 22.2557 20.4655 22.2557 20.5482C22.2557 20.6309 22.3228 20.698 22.4055 20.698Z" fill="white"/>
</g>
<path d="M11.7035 1.61228C6.53056 2.04084 2.23921 5.77712 1.57724 11.0101C1.25164 13.5841 1 16.6548 1 20C1 23.3452 1.25164 26.4159 1.57724 28.9899C2.23922 34.2229 6.53056 37.9592 11.7035 38.3877C15.5784 38.7087 20.5852 39 26 39C31.4148 39 36.4216 38.7087 40.2965 38.3877C45.4694 37.9592 49.7608 34.2229 50.4228 28.9899C50.7484 26.4159 51 23.3452 51 20C51 16.6548 50.7484 13.5841 50.4228 11.0101C49.7608 5.77712 45.4694 2.04084 40.2965 1.61228C36.4216 1.29127 31.4148 1 26 1C20.5852 1 15.5784 1.29127 11.7035 1.61228Z" stroke="#E6E6FA" stroke-width="2"/>
</svg>
