<svg width="52" height="40" viewBox="0 0 52 40" fill="none" xmlns="http://www.w3.org/2000/svg">
<mask id="mask0_1_41871" style="mask-type:alpha" maskUnits="userSpaceOnUse" x="2" y="2" width="48" height="36">
<path d="M2.56934 11.1356C3.16681 6.41247 7.0415 3.00193 11.7861 2.60887C15.6412 2.28949 20.6196 2 26 2C31.3804 2 36.3588 2.28949 40.2139 2.60887C44.9585 3.00193 48.8332 6.41247 49.4307 11.1356C49.752 13.6759 50 16.704 50 20C50 23.296 49.752 26.3241 49.4307 28.8644C48.8332 33.5875 44.9585 36.9981 40.2139 37.3911C36.3588 37.7105 31.3804 38 26 38C20.6196 38 15.6412 37.7105 11.7861 37.3911C7.0415 36.9981 3.16681 33.5875 2.56934 28.8644C2.248 26.3241 2 23.296 2 20C2 16.704 2.248 13.6759 2.56934 11.1356Z" fill="#00D0BF"/>
</mask>
<g mask="url(#mask0_1_41871)">
<rect x="2" y="26" width="48" height="12" fill="#3F6FEB"/>
<rect x="2" y="14" width="48" height="12" fill="white"/>
<path d="M31 19.9987C31 22.7611 28.7621 25 25.9999 25C23.239 25 21 22.7611 21 19.9987C21 17.2375 23.239 15 25.9999 15C28.7621 15 31 17.2375 31 19.9987Z" fill="white" stroke="black" stroke-width="0.220367" stroke-miterlimit="10"/>
<path d="M28.4175 19.2242C28.2961 19.2194 28.2954 19.3532 28.2954 19.3532C28.2954 19.3532 28.2996 19.3136 28.2961 19.3585C28.2938 19.403 28.316 19.5113 28.4057 19.5201C28.5003 19.5284 28.5317 19.4178 28.5325 19.3642C28.5325 19.3429 28.5256 19.2269 28.4175 19.2243" fill="#009B3A"/>
<path d="M28.4175 19.2242C28.2961 19.2194 28.2954 19.3532 28.2954 19.3532C28.2954 19.3532 28.2996 19.3136 28.2961 19.3585C28.2938 19.403 28.316 19.5113 28.4057 19.5201C28.5003 19.5284 28.5317 19.4178 28.5325 19.3642C28.5325 19.3429 28.5256 19.2269 28.4175 19.2243" stroke="black" stroke-width="0.058872"/>
<path d="M22.8631 22.0003L22.8203 21.9294C22.816 21.9215 22.8048 21.9085 22.7869 21.8891C22.7784 21.8795 22.7666 21.8736 22.7538 21.8727C22.7403 21.8708 22.7265 21.8736 22.7148 21.8806C22.6982 21.8908 22.6873 21.9044 22.6856 21.921C22.6824 21.9379 22.6903 21.9611 22.709 21.9925L22.7524 22.0663L22.8631 22.0003ZM23.2863 21.976L22.7424 22.2994L22.5764 22.0204C22.5456 21.9681 22.5269 21.9265 22.5196 21.8936C22.511 21.8602 22.5151 21.8289 22.5289 21.7977C22.5426 21.7663 22.5676 21.7401 22.6024 21.7193C22.6292 21.7029 22.6596 21.6936 22.6909 21.6919C22.7214 21.6919 22.7491 21.6995 22.7761 21.7138C22.7927 21.7233 22.8121 21.7381 22.8332 21.7597C22.8282 21.7364 22.8253 21.7181 22.8264 21.7038C22.8282 21.6954 22.832 21.6815 22.8396 21.6602C22.847 21.6399 22.854 21.6257 22.8583 21.6166L22.9683 21.4416L23.0803 21.6317L22.9683 21.8204C22.9542 21.8442 22.9457 21.8626 22.9445 21.8754C22.9439 21.8931 22.9478 21.9085 22.9562 21.9236L22.9655 21.939L23.1859 21.8079L23.2863 21.976ZM22.3288 21.5331L22.1628 21.0369L22.2908 20.9938L22.3948 21.3049L22.4908 21.2726L22.393 20.9839L22.516 20.9438L22.6126 21.2311L22.7303 21.193L22.6241 20.8729L22.7599 20.8267L22.9286 21.3322L22.3288 21.5331ZM22.3465 20.523L22.3398 20.4765C22.3354 20.4378 22.326 20.4128 22.3117 20.3998C22.3045 20.3933 22.296 20.3885 22.2868 20.3856C22.2775 20.3827 22.2678 20.3818 22.2581 20.3829C22.2388 20.3861 22.223 20.3943 22.2109 20.4079C22.1984 20.4231 22.1942 20.448 22.1995 20.4844L22.2048 20.5402L22.3465 20.523ZM22.1005 20.7495L22.0628 20.4271C22.0552 20.3579 22.0652 20.3027 22.0941 20.2637C22.124 20.2251 22.1697 20.2018 22.2311 20.1949C22.2944 20.187 22.3468 20.2006 22.3867 20.2341C22.426 20.2681 22.4511 20.3248 22.4605 20.4027L22.4725 20.5088L22.7053 20.4817L22.7282 20.6768L22.1005 20.7495ZM22.0785 19.5159L22.0987 19.3216L22.4742 19.362C22.5096 19.3661 22.5441 19.3758 22.5764 19.3908C22.6085 19.4052 22.6364 19.4272 22.6578 19.455C22.6795 19.483 22.6948 19.5097 22.7018 19.5385C22.7114 19.5765 22.7141 19.6231 22.7079 19.6766C22.7044 19.7099 22.6985 19.743 22.6903 19.7755C22.6824 19.8111 22.6702 19.8406 22.6549 19.8633C22.6387 19.8874 22.618 19.9083 22.594 19.9248C22.5709 19.9411 22.5447 19.9523 22.5169 19.9577C22.4753 19.9662 22.4397 19.9679 22.4086 19.9644L22.0349 19.9249L22.0551 19.7304L22.4385 19.772C22.4731 19.7755 22.5006 19.7691 22.5219 19.7516C22.5434 19.7344 22.5554 19.7095 22.5594 19.6766C22.563 19.6419 22.5559 19.6153 22.5392 19.5947C22.5226 19.5734 22.4967 19.5615 22.4619 19.5574L22.0785 19.5159ZM22.7075 18.9844L22.7412 18.8908C22.7514 18.8591 22.7543 18.8346 22.7474 18.817C22.744 18.8086 22.7388 18.8012 22.7322 18.7952C22.7255 18.7892 22.7176 18.7848 22.709 18.7824C22.6902 18.7759 22.6747 18.7771 22.6595 18.7865C22.6437 18.796 22.6301 18.8164 22.6193 18.848L22.586 18.9422L22.7075 18.9844ZM22.473 18.9022L22.5013 18.8227C22.5109 18.7937 22.5136 18.7716 22.5065 18.7568C22.5013 18.7425 22.489 18.7312 22.47 18.7257C22.4626 18.7226 22.4546 18.7212 22.4466 18.7215C22.4386 18.7219 22.4308 18.724 22.4237 18.7277C22.41 18.7358 22.3985 18.7532 22.3892 18.7812L22.3595 18.8629L22.473 18.9022ZM22.1744 19.0071L22.2945 18.6609C22.3153 18.6033 22.3449 18.5649 22.3847 18.5432C22.4033 18.5332 22.4237 18.5272 22.4447 18.5257C22.4657 18.5241 22.4868 18.527 22.5067 18.5341C22.5412 18.5477 22.5675 18.5687 22.5857 18.5995C22.5964 18.6198 22.6033 18.6466 22.6033 18.6777C22.6281 18.6382 22.6568 18.6131 22.6887 18.6024C22.7212 18.5908 22.7567 18.5914 22.795 18.6048C22.8252 18.6152 22.8504 18.6323 22.8704 18.655C22.8894 18.6789 22.9019 18.7051 22.9081 18.7347C22.911 18.7538 22.9096 18.7794 22.9028 18.8112C22.8929 18.8556 22.887 18.8838 22.882 18.8969L22.7707 19.2155L22.1744 19.0071ZM22.4967 18.1969L22.5989 18.0301L23.006 18.2768L23.1645 18.0165L23.2972 18.0975L23.0388 18.5246L22.4967 18.1969ZM22.9142 17.575L23.0399 17.4252L23.5223 17.833L23.3964 17.9828L22.9142 17.575ZM23.7903 17.2351L23.9546 17.1648C23.9757 17.2091 23.9877 17.2511 23.9894 17.2924C23.991 17.332 23.983 17.3714 23.9661 17.4072C23.9473 17.4435 23.9165 17.4787 23.8744 17.5157C23.8207 17.5593 23.7715 17.5878 23.725 17.6002C23.679 17.6122 23.6274 17.6093 23.5701 17.5912C23.5147 17.5729 23.462 17.5331 23.4111 17.4735C23.3449 17.3925 23.3144 17.3131 23.3211 17.2351C23.3276 17.1558 23.3703 17.0846 23.4482 17.0189C23.5101 16.9677 23.5674 16.941 23.6239 16.9366C23.679 16.9314 23.7376 16.948 23.7964 16.9849L23.6884 17.125C23.672 17.1142 23.6583 17.107 23.6466 17.1046C23.6295 17.0995 23.6113 17.0993 23.5941 17.104C23.5764 17.108 23.5599 17.1161 23.546 17.1279C23.5117 17.1566 23.4969 17.1921 23.5018 17.2345C23.5047 17.2662 23.5249 17.3032 23.5601 17.3471C23.6055 17.4009 23.6447 17.431 23.677 17.4371C23.7109 17.4441 23.7423 17.4346 23.7715 17.4101C23.8 17.3857 23.8155 17.3602 23.8161 17.3322C23.8169 17.3025 23.809 17.2703 23.7903 17.2351ZM24.4298 16.8553L24.2646 16.6843L24.3062 16.9189L24.4298 16.8553ZM24.5282 16.959L24.3303 17.0597L24.3505 17.1669L24.1727 17.2573L24.0973 16.5861L24.2874 16.489L24.7862 16.9446L24.6044 17.0376L24.5282 16.959ZM25.297 16.3001L25.3456 16.6414L25.3931 16.6344C25.4338 16.6294 25.4622 16.6204 25.4783 16.609C25.4938 16.5965 25.5044 16.5806 25.5108 16.5555C25.5178 16.5323 25.5178 16.496 25.5106 16.4454C25.5012 16.3794 25.4836 16.3352 25.459 16.3143C25.4339 16.2933 25.396 16.2858 25.3457 16.2933L25.297 16.3001ZM25.0844 16.1858L25.3714 16.1445C25.428 16.137 25.4739 16.1375 25.5108 16.148C25.5489 16.1588 25.5802 16.1762 25.6078 16.2018C25.6345 16.2274 25.6558 16.2585 25.6711 16.2948C25.6875 16.3329 25.6985 16.3731 25.7038 16.4143C25.7141 16.4805 25.7141 16.534 25.7032 16.5721C25.6942 16.6095 25.6772 16.6445 25.6534 16.6747C25.6294 16.7029 25.6027 16.7242 25.5732 16.736C25.5371 16.7527 25.499 16.7643 25.4598 16.7707L25.1722 16.8111L25.0844 16.1858ZM25.9446 16.0633L26.4662 16.102L26.4565 16.2365L26.1299 16.2121L26.1223 16.3124L26.4252 16.3348L26.4143 16.463L26.113 16.4414L26.1041 16.5648L26.4401 16.5897L26.4296 16.7321L25.8979 16.6929L25.9446 16.0633ZM26.7482 16.137L26.936 16.1894L26.8062 16.6487L27.0994 16.7316L27.0566 16.8804L26.5754 16.7441L26.7482 16.137ZM27.8145 16.8383L27.8549 16.8644C27.886 16.8851 27.9123 16.8938 27.9314 16.8917C27.9409 16.891 27.9502 16.888 27.9583 16.883C27.9664 16.8779 27.9732 16.8709 27.978 16.8626C27.9885 16.8467 27.9923 16.8287 27.99 16.8091C27.9861 16.7906 27.9689 16.7717 27.9384 16.7516L27.8918 16.7202L27.8145 16.8383ZM27.7989 16.5054L28.0705 16.6845C28.1293 16.7231 28.1639 16.7668 28.1745 16.8138C28.1859 16.8615 28.1745 16.9115 28.1396 16.9633C28.1057 17.0159 28.0617 17.0467 28.0096 17.0557C27.9568 17.0641 27.8991 17.0479 27.8332 17.0045L27.7439 16.9452L27.6156 17.1409L27.4519 17.0324L27.7989 16.5054ZM28.4846 17.469L28.5947 17.2583L28.3856 17.3714L28.4846 17.469ZM28.4178 17.5946L28.2593 17.4388L28.1639 17.4912L28.0219 17.3516L28.3138 17.2168L28.6355 17.0681L28.7866 17.2176L28.5119 17.8353L28.3666 17.6911L28.4178 17.5946ZM29.0048 17.8687L29.0494 17.9391C29.0547 17.9461 29.0643 17.9598 29.0842 17.9783C29.0933 17.9873 29.1055 17.9926 29.1183 17.9932C29.1315 17.9947 29.1448 17.9914 29.1557 17.9838C29.1724 17.9731 29.1817 17.9597 29.1847 17.9426C29.187 17.9263 29.1783 17.9018 29.1586 17.8722L29.1135 17.8002L29.0048 17.8687ZM28.5823 17.9062L29.115 17.5661L29.2899 17.8402C29.3223 17.8908 29.3429 17.9324 29.3528 17.9647C29.3604 17.9967 29.3575 18.0303 29.3445 18.0606C29.3316 18.0926 29.308 18.119 29.2746 18.1409C29.2444 18.16 29.2154 18.1708 29.1856 18.1708C29.1572 18.1725 29.1282 18.1653 29.0997 18.1533C29.0789 18.1405 29.0595 18.1254 29.0421 18.1083C29.0476 18.1315 29.0511 18.1504 29.0505 18.1635C29.0477 18.1783 29.044 18.1928 29.0394 18.2071C29.0346 18.2227 29.0283 18.2376 29.0204 18.2518L28.9173 18.4304L28.7977 18.244L28.905 18.0528C28.9194 18.0272 28.9263 18.0089 28.9263 17.9961C28.9269 17.9789 28.9243 17.9626 28.9129 17.948L28.9044 17.9336L28.6877 18.0716L28.5823 17.9062ZM29.3291 18.7573L29.5186 18.6143L29.2817 18.6274L29.3291 18.7573ZM29.2141 18.8419L29.1382 18.6329L29.0304 18.6405L28.9616 18.453L29.6369 18.4608L29.7099 18.6602L29.1971 19.0998L29.1268 18.9067L29.2141 18.8419ZM29.5166 19.5141L29.6466 19.4969L29.6843 19.7982L29.4169 19.8304C29.3718 19.7781 29.3373 19.7312 29.3188 19.6885C29.2983 19.6461 29.2851 19.5947 29.2776 19.5345C29.2679 19.4601 29.2728 19.3978 29.2936 19.3478C29.3124 19.2978 29.3458 19.2563 29.3926 19.2234C29.4398 19.1923 29.4955 19.1717 29.5602 19.1638C29.6284 19.1549 29.6902 19.1618 29.744 19.1842C29.798 19.2057 29.8413 19.242 29.8751 19.2932C29.9011 19.3337 29.9183 19.3892 29.9265 19.4613C29.9362 19.5301 29.9362 19.5827 29.9271 19.6185C29.9203 19.6535 29.9038 19.6858 29.8794 19.7117C29.8538 19.7398 29.822 19.7615 29.7865 19.7752L29.7298 19.5929C29.7524 19.5816 29.769 19.5671 29.7789 19.5464C29.7892 19.5266 29.7919 19.5016 29.7892 19.4743C29.7822 19.4313 29.7646 19.3993 29.7324 19.3778C29.6993 19.3563 29.6506 19.3495 29.5868 19.3575C29.5189 19.3659 29.4729 19.3853 29.4462 19.4136C29.4211 19.4432 29.4117 19.4812 29.4164 19.5266C29.4188 19.5482 29.4251 19.5682 29.4334 19.5868C29.4424 19.6066 29.4556 19.6266 29.4738 19.6517L29.5333 19.6435L29.5166 19.5141ZM29.9167 20.4618L29.8944 20.6553L29.5207 20.6132C29.4849 20.6093 29.4501 20.5994 29.4176 20.5838C29.3861 20.5688 29.3585 20.5469 29.3368 20.5196C29.3154 20.4923 29.3007 20.4646 29.2937 20.4367C29.2846 20.3963 29.2823 20.351 29.2884 20.2978C29.2926 20.2675 29.2985 20.2341 29.3057 20.1984C29.3142 20.1626 29.3268 20.1335 29.3426 20.1109C29.3591 20.0873 29.3795 20.0667 29.403 20.0501C29.4305 20.0329 29.4557 20.0222 29.4808 20.0178C29.5219 20.01 29.5585 20.0074 29.5892 20.0121L29.9635 20.0548L29.9413 20.2478L29.5585 20.2038C29.5236 20.2001 29.4961 20.2062 29.4744 20.2234C29.4533 20.2408 29.4407 20.2652 29.4372 20.2987C29.4334 20.3329 29.4399 20.36 29.4568 20.3806C29.4733 20.4015 29.499 20.4141 29.5333 20.4193L29.9167 20.4618ZM29.335 21.181L29.5731 21.1895L29.3809 21.0494L29.335 21.181ZM29.1938 21.1739L29.2658 20.9643L29.1776 20.9011L29.2432 20.7125L29.7628 21.1442L29.6913 21.3462L29.018 21.3627L29.0842 21.1691L29.1938 21.1739ZM29.5426 21.7557L29.4327 21.9425L29.1838 21.9434L29.303 22.162L29.1938 22.3466L29.0017 21.9486L28.7738 21.8143L28.8739 21.6454L29.1015 21.7806L29.5426 21.7557Z" fill="black"/>
<path d="M30.1844 20.0003C30.1844 22.3127 28.3106 24.1867 25.9993 24.1867C23.6873 24.1867 21.8135 22.3126 21.8135 20.0003C21.8135 17.6895 23.6872 15.8158 25.9992 15.8158C28.3106 15.8158 30.1844 17.6895 30.1844 20.0002L30.1844 20.0003Z" stroke="black" stroke-width="0.0881586" stroke-miterlimit="10"/>
<path d="M29.1135 19.9853C29.1135 21.7066 27.7196 23.1007 25.9992 23.1007C24.2787 23.1007 22.8842 21.7066 22.8842 19.9853C22.8842 18.2658 24.2787 16.8712 25.9991 16.8712C27.7196 16.8712 29.1136 18.2658 29.1136 19.9853H29.1135Z" stroke="black" stroke-width="0.0881586" stroke-miterlimit="10"/>
<path d="M25.9994 18.8651L26.261 19.614L27.0526 19.6317L26.4218 20.1114L26.6511 20.8703L25.9994 20.4192L25.3475 20.8703L25.5757 20.1114L24.9439 19.6317L25.737 19.614L25.9994 18.8651Z" fill="#FEDF00" stroke="black" stroke-width="0.0359807"/>
<path d="M27.4376 22.1355C27.4111 22.1576 27.3049 22.1695 27.2768 22.1742C27.2483 22.1779 27.1367 22.179 27.0895 22.1808C27.0635 22.1826 27.0134 22.1898 26.9874 22.1898C26.7586 22.1637 27.3591 22.1674 27.4376 22.1354V22.1355ZM26.838 21.9585C26.853 21.9317 26.928 21.7648 26.9549 21.7174C26.9824 21.6709 27.0445 21.5467 27.0816 21.4951C27.1008 21.4671 27.1754 21.3861 27.1932 21.4224C27.0632 21.5347 26.9607 21.7309 26.9061 21.8629C26.899 21.8771 26.8563 21.9505 26.8405 21.9698C26.8252 21.9886 26.8315 22.0243 26.8075 22.0272C26.7822 22.0303 26.7999 22.0349 26.7999 22.0349C26.7999 22.0349 26.8216 21.9866 26.838 21.9584V21.9585ZM27.7005 22.0861C27.7005 22.0861 27.5971 22.0706 27.533 22.048C27.4692 22.0264 27.3619 22.0099 27.2706 22.0122C27.1801 22.0134 27.0972 22.0407 27.0234 22.0689C26.9499 22.0962 26.8547 22.0985 26.8547 22.0985C26.8547 22.0985 26.8008 22.107 26.826 22.0945C26.85 22.0826 26.9335 22.0174 26.9335 22.0174L26.9874 21.9436C27.0029 21.9393 27.2764 21.5804 27.2466 21.484C27.2885 21.4132 27.3376 21.2866 27.3192 21.2646C27.3104 21.2556 27.1063 21.3294 27.0615 21.37C27.0096 21.4148 26.973 21.5082 26.9575 21.562C26.9423 21.6154 26.8638 21.6596 26.8638 21.6596C26.7999 21.7055 26.7537 21.8508 26.732 21.9698C26.71 22.0872 26.4207 22.1523 26.4207 22.1523C26.4207 22.1523 26.3404 22.1822 26.4117 22.2049C26.4239 22.2083 26.4557 22.2621 26.4813 22.2629C26.5166 22.267 26.6963 22.1901 26.7241 22.1962C26.7851 22.21 26.8455 22.2265 26.9051 22.2457C26.9736 22.2689 27.0302 22.2808 27.0781 22.2631C27.1268 22.2456 27.1962 22.2524 27.2483 22.2625C27.2996 22.2736 27.357 22.2689 27.39 22.2587C27.4255 22.2479 27.5187 22.1962 27.5187 22.1962C27.5187 22.1962 27.6194 22.1526 27.6776 22.1252C27.736 22.098 27.7005 22.086 27.7005 22.086" fill="#009B3A"/>
<path d="M27.7005 22.0861C27.7005 22.0861 27.5971 22.0706 27.533 22.048C27.4692 22.0264 27.3619 22.0099 27.2706 22.0122C27.1801 22.0134 27.0972 22.0407 27.0234 22.0689C26.9499 22.0962 26.8547 22.0985 26.8547 22.0985C26.8547 22.0985 26.8008 22.107 26.826 22.0945C26.85 22.0826 26.9335 22.0174 26.9335 22.0174L26.9874 21.9436C27.0029 21.9393 27.2764 21.5804 27.2466 21.484C27.2885 21.4132 27.3376 21.2866 27.3192 21.2646C27.3104 21.2556 27.1063 21.3294 27.0615 21.37C27.0096 21.4148 26.973 21.5082 26.9575 21.562C26.9423 21.6154 26.8638 21.6596 26.8638 21.6596C26.7999 21.7055 26.7537 21.8508 26.732 21.9698C26.71 22.0872 26.4207 22.1523 26.4207 22.1523C26.4207 22.1523 26.3404 22.1822 26.4117 22.2049C26.4239 22.2083 26.4557 22.2621 26.4813 22.2629C26.5166 22.267 26.6963 22.1901 26.7241 22.1962C26.7851 22.21 26.8455 22.2265 26.9051 22.2457C26.9736 22.2689 27.0302 22.2808 27.0781 22.2631C27.1268 22.2456 27.1962 22.2524 27.2483 22.2625C27.2996 22.2736 27.357 22.2689 27.39 22.2587C27.4255 22.2479 27.5187 22.1962 27.5187 22.1962C27.5187 22.1962 27.6194 22.1526 27.6776 22.1252C27.736 22.098 27.7005 22.086 27.7005 22.086M27.4376 22.1355C27.4111 22.1576 27.3049 22.1695 27.2768 22.1742C27.2483 22.1779 27.1367 22.179 27.0895 22.1808C27.0635 22.1826 27.0134 22.1898 26.9874 22.1898C26.7586 22.1637 27.3591 22.1674 27.4376 22.1354V22.1355ZM26.838 21.9585C26.853 21.9317 26.928 21.7648 26.9549 21.7174C26.9824 21.6709 27.0445 21.5467 27.0816 21.4951C27.1008 21.4671 27.1754 21.3861 27.1932 21.4224C27.0632 21.5347 26.9607 21.7309 26.9061 21.8629C26.899 21.8771 26.8563 21.9505 26.8405 21.9698C26.8252 21.9886 26.8315 22.0243 26.8075 22.0272C26.7822 22.0303 26.7999 22.0349 26.7999 22.0349C26.7999 22.0349 26.8216 21.9866 26.838 21.9584V21.9585Z" stroke="black" stroke-width="0.0450655"/>
<path d="M26.9144 22.4353C26.9144 22.4353 26.516 22.2269 26.4946 22.2219C26.4821 22.2202 26.3139 22.1275 26.237 22.1035C26.1813 22.0856 26.1046 22.0808 26.077 22.0826C26.0115 22.0872 25.9044 22.1162 25.9044 22.1162L26.0033 22.1566C26.0033 22.1566 26.0962 22.2022 26.1416 22.2267C26.2066 22.261 26.2095 22.3028 26.2095 22.3028L26.5702 22.4614L26.6434 22.514C26.6434 22.514 26.71 22.4222 26.9144 22.4353Z" fill="#009B3A"/>
<path d="M26.9144 22.4353C26.9144 22.4353 26.516 22.2269 26.4946 22.2219C26.4821 22.2202 26.3139 22.1275 26.237 22.1035C26.1813 22.0856 26.1046 22.0808 26.077 22.0826C26.0115 22.0872 25.9044 22.1162 25.9044 22.1162L26.0033 22.1566C26.0033 22.1566 26.0962 22.2022 26.1416 22.2267C26.2066 22.261 26.2095 22.3028 26.2095 22.3028L26.5702 22.4614L26.6434 22.514C26.6434 22.514 26.71 22.4222 26.9144 22.4353" stroke="black" stroke-width="0.0359807"/>
<path d="M27.315 21.608C27.4403 21.4962 27.5016 21.3373 27.6047 21.2493C27.6214 21.2613 27.6214 21.2813 27.601 21.3165C27.5815 21.3511 27.5555 21.3631 27.5442 21.3811C27.5231 21.4093 27.4604 21.4615 27.4434 21.4928C27.4284 21.5224 27.4089 21.5639 27.3542 21.5955C27.2998 21.628 27.3169 21.6797 27.3123 21.7014C27.308 21.7253 27.2242 21.7853 27.1837 21.8595C27.176 21.9368 27.1725 21.9043 27.1256 21.9318C27.211 21.8032 27.2559 21.7203 27.315 21.6079V21.608ZM27.0335 21.9615C27.0254 21.9785 26.7783 22.1187 26.8556 22.0979C26.9324 22.0777 27.1607 21.9953 27.2256 21.9664C27.3049 21.9318 27.3524 21.8592 27.412 21.8001C27.4728 21.7397 27.6608 21.56 27.6934 21.4907C27.7252 21.4194 27.7541 21.3202 27.6266 21.0974C27.6266 21.0974 27.6068 21.14 27.5593 21.1816C27.5123 21.2242 27.4423 21.2714 27.4423 21.2714L27.3605 21.3487C27.3605 21.3487 27.0718 21.8791 27.0335 21.9616" fill="#009B3A"/>
<path d="M27.0335 21.9615C27.0254 21.9785 26.7783 22.1187 26.8556 22.0979C26.9324 22.0777 27.1607 21.9953 27.2256 21.9664C27.3049 21.9318 27.3524 21.8592 27.412 21.8001C27.4728 21.7397 27.6608 21.56 27.6934 21.4907C27.7252 21.4194 27.7541 21.3202 27.6266 21.0974C27.6266 21.0974 27.6068 21.14 27.5593 21.1816C27.5123 21.2242 27.4423 21.2714 27.4423 21.2714L27.3605 21.3487C27.3605 21.3487 27.0718 21.8791 27.0335 21.9616M27.315 21.608C27.4403 21.4962 27.5016 21.3373 27.6047 21.2493C27.6214 21.2613 27.6214 21.2813 27.601 21.3165C27.5815 21.3511 27.5555 21.3631 27.5442 21.3811C27.5231 21.4093 27.4604 21.4615 27.4434 21.4928C27.4284 21.5224 27.4089 21.5639 27.3542 21.5955C27.2998 21.628 27.3169 21.6797 27.3123 21.7014C27.308 21.7253 27.2242 21.7853 27.1837 21.8595C27.176 21.9368 27.1725 21.9043 27.1256 21.9318C27.211 21.8032 27.2559 21.7203 27.315 21.6079V21.608Z" stroke="black" stroke-width="0.0474562"/>
<path d="M28.0373 21.7749C28.0373 21.7749 27.8792 21.7607 27.8654 21.7607C27.8505 21.7607 27.7638 21.7488 27.6378 21.7488C27.513 21.7488 27.4662 21.7921 27.4334 21.8269C27.398 21.8659 27.2995 21.956 27.2995 21.956L27.3526 21.9513C27.4791 21.8528 27.5775 21.8889 27.6168 21.8861C27.6578 21.8846 27.7071 21.8887 27.8337 21.8439C27.9622 21.7988 27.9547 21.841 27.9406 21.8453C27.8792 21.8674 27.815 21.8804 27.7498 21.8838C27.6544 21.8891 27.5707 21.9075 27.5332 21.9075C27.4954 21.9075 27.217 21.9837 27.217 21.9837C27.217 21.9837 27.5183 22.0014 27.5508 22.0121C27.5831 22.0253 27.6337 22.0191 27.6756 21.999C27.791 21.9458 27.8432 21.9357 27.8906 21.9249C27.9383 21.9157 27.9952 21.8834 27.9952 21.8834C27.9952 21.8834 28.0257 21.8641 28.0537 21.8131C28.0827 21.7607 28.0372 21.7749 28.0372 21.7749H28.0373ZM28.1851 20.9495C28.2041 20.9023 28.2516 20.7916 28.302 20.748C28.3327 20.7212 28.3857 20.7087 28.4138 20.6969C28.4258 20.6928 28.5123 20.6886 28.4043 20.7183C28.3595 20.7303 28.2989 20.7567 28.272 20.8019C28.2342 20.9067 28.2012 20.9981 28.131 21.0651C28.0795 21.1192 28.0469 21.1896 28.0469 21.1896L27.9916 21.2087C28.0929 21.1467 28.1369 21.0317 28.1851 20.9495ZM28.6748 20.8904C28.6171 20.9097 28.5969 20.9256 28.5969 20.9256C28.4678 20.9643 28.4149 21.0454 28.3584 21.1113C28.3297 21.1459 28.2893 21.1717 28.1531 21.2301C28.0286 21.2836 27.9324 21.3663 27.93 21.3663C27.93 21.3663 27.8906 21.3743 27.8981 21.3935C27.901 21.4026 27.9347 21.3953 27.9347 21.3953C27.9347 21.3953 28.1911 21.3587 28.298 21.2937C28.3662 21.2509 28.4048 21.2198 28.4695 21.1198C28.4985 21.0756 28.531 20.9925 28.5325 21.046C28.5375 21.1878 28.3171 21.3253 28.2212 21.3678C28.1698 21.3896 28.1014 21.3986 28.0118 21.4134C27.9233 21.4297 27.8694 21.4248 27.8759 21.4053C27.8849 21.3771 27.8952 21.3712 27.9186 21.3434C27.9608 21.2931 28.0626 21.2753 28.1377 21.2401C28.2264 21.2003 28.3105 21.1418 28.3526 21.0919C28.3957 21.0414 28.4106 21.0227 28.4223 20.98C28.4552 20.8683 28.4569 20.8065 28.4877 20.7666C28.596 20.6332 28.6118 20.5902 28.6171 20.5306C28.6183 20.5169 28.5609 20.5623 28.5311 20.5788C28.4727 20.6134 28.4511 20.6134 28.3316 20.6446C28.2103 20.6748 28.213 20.753 28.1941 20.7899C28.1886 20.8047 28.1394 20.8661 28.116 20.8774C28.0925 20.8893 28.0349 20.9727 28.0135 21.0216C27.9977 21.0573 27.9695 21.0829 27.947 21.08C27.9233 21.0756 27.9924 20.8172 28.0076 20.7745C28.024 20.7321 28.0273 20.6492 28.0273 20.6212C28.0273 20.5945 28.0282 20.5242 27.9814 20.5163C27.9347 20.5084 27.9326 20.444 27.9326 20.444C27.8205 20.5412 27.8831 20.7123 27.8952 20.8137C27.9072 20.9142 27.872 21.1003 27.872 21.1003C27.9803 21.1466 27.8952 21.2782 27.8615 21.3207C27.8261 21.3639 27.759 21.3718 27.7288 21.41C27.6969 21.4492 27.47 21.7652 27.47 21.7652L27.7523 21.6852C27.7523 21.6852 27.7786 21.6898 27.7364 21.6579C27.6937 21.6273 27.7502 21.5087 27.7865 21.4797C27.8559 21.4253 27.9497 21.4649 27.9497 21.4649C27.9497 21.4649 28.0806 21.485 28.2411 21.4212C28.3752 21.3684 28.4329 21.2826 28.4964 21.218C28.531 21.183 28.5942 21.0663 28.6341 20.9972C28.6581 20.9573 28.7012 20.8814 28.6747 20.8904" fill="#009B3A"/>
<path d="M28.6748 20.8904C28.6171 20.9097 28.5969 20.9256 28.5969 20.9256C28.4678 20.9643 28.4149 21.0454 28.3584 21.1113C28.3297 21.1459 28.2893 21.1717 28.1531 21.2301C28.0286 21.2836 27.9324 21.3663 27.93 21.3663C27.93 21.3663 27.8906 21.3743 27.8981 21.3935C27.901 21.4026 27.9347 21.3953 27.9347 21.3953C27.9347 21.3953 28.1911 21.3587 28.298 21.2937C28.3662 21.2509 28.4048 21.2198 28.4695 21.1198C28.4985 21.0756 28.531 20.9925 28.5325 21.046C28.5375 21.1878 28.3171 21.3253 28.2212 21.3678C28.1698 21.3896 28.1014 21.3986 28.0118 21.4134C27.9233 21.4297 27.8694 21.4248 27.8759 21.4053C27.8849 21.3771 27.8952 21.3712 27.9186 21.3434C27.9608 21.2931 28.0626 21.2753 28.1377 21.2401C28.2264 21.2003 28.3105 21.1418 28.3526 21.0919C28.3957 21.0414 28.4106 21.0227 28.4223 20.98C28.4552 20.8683 28.4569 20.8065 28.4877 20.7666C28.596 20.6332 28.6118 20.5902 28.6171 20.5306C28.6183 20.5169 28.5609 20.5623 28.5311 20.5788C28.4727 20.6134 28.4511 20.6134 28.3316 20.6446C28.2103 20.6748 28.213 20.753 28.1941 20.7899C28.1886 20.8047 28.1394 20.8661 28.116 20.8774C28.0925 20.8893 28.0349 20.9727 28.0135 21.0216C27.9977 21.0573 27.9695 21.0829 27.947 21.08C27.9233 21.0756 27.9924 20.8172 28.0076 20.7745C28.024 20.7321 28.0273 20.6492 28.0273 20.6212C28.0273 20.5945 28.0282 20.5242 27.9814 20.5163C27.9347 20.5084 27.9326 20.444 27.9326 20.444C27.8205 20.5412 27.8831 20.7123 27.8952 20.8137C27.9072 20.9142 27.872 21.1003 27.872 21.1003C27.9803 21.1466 27.8952 21.2782 27.8615 21.3207C27.8261 21.3639 27.759 21.3718 27.7288 21.41C27.6969 21.4492 27.47 21.7652 27.47 21.7652L27.7523 21.6852C27.7523 21.6852 27.7786 21.6898 27.7364 21.6579C27.6937 21.6273 27.7502 21.5087 27.7865 21.4797C27.8559 21.4253 27.9497 21.4649 27.9497 21.4649C27.9497 21.4649 28.0806 21.485 28.2411 21.4212C28.3752 21.3684 28.4329 21.2826 28.4964 21.218C28.531 21.183 28.5942 21.0663 28.6341 20.9972C28.6581 20.9573 28.7012 20.8814 28.6747 20.8904M28.0373 21.7749C28.0373 21.7749 27.8792 21.7607 27.8654 21.7607C27.8505 21.7607 27.7638 21.7488 27.6378 21.7488C27.513 21.7488 27.4662 21.7921 27.4334 21.8269C27.398 21.8659 27.2995 21.956 27.2995 21.956L27.3526 21.9513C27.4791 21.8528 27.5775 21.8889 27.6168 21.8861C27.6578 21.8846 27.7071 21.8887 27.8337 21.8439C27.9622 21.7988 27.9547 21.841 27.9406 21.8453C27.8792 21.8674 27.815 21.8804 27.7498 21.8838C27.6544 21.8891 27.5707 21.9075 27.5332 21.9075C27.4954 21.9075 27.217 21.9837 27.217 21.9837C27.217 21.9837 27.5183 22.0014 27.5508 22.0121C27.5831 22.0253 27.6337 22.0191 27.6756 21.999C27.791 21.9458 27.8432 21.9357 27.8906 21.9249C27.9383 21.9157 27.9952 21.8834 27.9952 21.8834C27.9952 21.8834 28.0257 21.8641 28.0537 21.8131C28.0827 21.7607 28.0372 21.7749 28.0372 21.7749H28.0373ZM28.1851 20.9495C28.2041 20.9023 28.2516 20.7916 28.302 20.748C28.3327 20.7212 28.3857 20.7087 28.4138 20.6969C28.4258 20.6928 28.5123 20.6886 28.4043 20.7183C28.3595 20.7303 28.2989 20.7567 28.272 20.8019C28.2342 20.9067 28.2012 20.9981 28.131 21.0651C28.0795 21.1192 28.0469 21.1896 28.0469 21.1896L27.9916 21.2087C28.0929 21.1467 28.1369 21.0317 28.1851 20.9495V20.9495Z" stroke="black" stroke-width="0.0450655"/>
<path d="M27.8744 21.6493C27.8959 21.6406 27.8991 21.6367 27.9386 21.5936C27.9775 21.5506 27.9432 21.4779 27.8831 21.4808C27.8537 21.4828 27.8224 21.476 27.7646 21.5537C27.7088 21.6316 27.7913 21.66 27.8227 21.6632C27.8361 21.664 27.8538 21.6581 27.8744 21.6493Z" fill="#009B3A"/>
<path d="M27.8744 21.6493C27.8959 21.6406 27.8991 21.6367 27.9386 21.5936C27.9775 21.5506 27.9432 21.4779 27.8831 21.4808C27.8537 21.4828 27.8224 21.476 27.7646 21.5537C27.7088 21.6316 27.7913 21.66 27.8227 21.6632C27.8361 21.664 27.8538 21.6581 27.8744 21.6493" stroke="black" stroke-width="0.0502056"/>
<path d="M27.7284 21.1573C27.691 21.2199 27.671 21.2917 27.7004 21.3139C27.707 21.3175 27.733 21.3404 27.755 21.3404C27.7767 21.3404 27.8381 21.311 27.8731 21.2569C27.9082 21.2046 27.9369 21.1471 27.8651 21.1113C27.8001 21.0791 27.7554 21.1093 27.7284 21.1572" fill="#009B3A"/>
<path d="M27.7284 21.1573C27.691 21.2199 27.671 21.2917 27.7004 21.3139C27.707 21.3175 27.733 21.3404 27.755 21.3404C27.7767 21.3404 27.8381 21.311 27.8731 21.2569C27.9082 21.2046 27.9369 21.1471 27.8651 21.1113C27.8001 21.0791 27.7554 21.1093 27.7284 21.1572" stroke="black" stroke-width="0.0512814"/>
<path d="M27.9419 20.3933C27.9419 20.3933 27.9478 20.3836 27.9232 20.3581C27.8842 20.3182 27.8355 20.2471 27.8355 20.2471C27.7579 20.2896 27.7321 20.3753 27.7321 20.4094C27.7321 20.4448 27.7452 20.5218 27.7333 20.6004C27.7291 20.6271 27.7248 20.6576 27.6864 20.7547C27.6471 20.8506 27.692 20.9387 27.7008 20.9698C27.7075 21.0006 27.7395 21.0965 27.7395 21.0965C27.7395 21.0965 27.7699 21.077 27.7801 21.0747C27.7921 21.0715 27.8334 21.0733 27.8334 21.0733C27.8334 21.0733 27.8802 20.9888 27.8819 20.9418C27.8828 20.9072 27.8773 20.8485 27.8608 20.7583C27.838 20.6272 27.8394 20.5898 27.855 20.5164C27.8705 20.442 27.9419 20.3931 27.9419 20.3931" fill="#009B3A"/>
<path d="M27.9419 20.3933C27.9419 20.3933 27.9478 20.3836 27.9232 20.3581C27.8842 20.3182 27.8355 20.2471 27.8355 20.2471C27.7579 20.2896 27.7321 20.3753 27.7321 20.4094C27.7321 20.4448 27.7452 20.5218 27.7333 20.6004C27.7291 20.6271 27.7248 20.6576 27.6864 20.7547C27.6471 20.8506 27.692 20.9387 27.7008 20.9698C27.7075 21.0006 27.7395 21.0965 27.7395 21.0965C27.7395 21.0965 27.7699 21.077 27.7801 21.0747C27.7921 21.0715 27.8334 21.0733 27.8334 21.0733C27.8334 21.0733 27.8802 20.9888 27.8819 20.9418C27.8828 20.9072 27.8773 20.8485 27.8608 20.7583C27.838 20.6272 27.8394 20.5898 27.855 20.5164C27.8705 20.442 27.9419 20.3931 27.9419 20.3931" stroke="black" stroke-width="0.0450655"/>
<path d="M28.0577 20.5242C28.0577 20.5242 28.1018 20.5136 28.1239 20.4737C28.1519 20.4255 28.1446 20.3744 28.1446 20.3744C28.0763 20.2421 27.9846 20.3489 27.9846 20.3489C27.9025 20.5168 28.0576 20.5242 28.0576 20.5242" fill="#009B3A"/>
<path d="M28.0577 20.5242C28.0577 20.5242 28.1018 20.5136 28.1239 20.4737C28.1519 20.4255 28.1446 20.3744 28.1446 20.3744C28.0763 20.2421 27.9846 20.3489 27.9846 20.3489C27.9025 20.5168 28.0576 20.5242 28.0576 20.5242" stroke="black" stroke-width="0.0494884"/>
<path d="M28.29 20.2817C28.1882 20.287 28.1381 20.47 28.1381 20.47C28.1381 20.47 28.1216 20.5153 28.0674 20.5502C28.0096 20.5859 28.0437 20.6372 28.0437 20.7283C28.0437 20.8194 27.9802 20.9806 27.9802 20.9806L27.9565 21.0352C27.9565 21.0352 27.9587 21.0762 27.9958 21.0017C28.0589 20.8764 28.1281 20.9069 28.1542 20.772C28.1707 20.6717 28.3367 20.6398 28.3367 20.6398L28.29 20.6311C28.1175 20.5502 28.3 20.3486 28.3295 20.3128C28.3608 20.2772 28.3906 20.2772 28.29 20.2817Z" fill="#009B3A"/>
<path d="M28.29 20.2817C28.1882 20.287 28.1381 20.47 28.1381 20.47C28.1381 20.47 28.1216 20.5153 28.0674 20.5502C28.0096 20.5859 28.0437 20.6372 28.0437 20.7283C28.0437 20.8194 27.9802 20.9806 27.9802 20.9806L27.9565 21.0352C27.9565 21.0352 27.9587 21.0762 27.9958 21.0017C28.0589 20.8764 28.1281 20.9069 28.1542 20.772C28.1707 20.6717 28.3367 20.6398 28.3367 20.6398L28.29 20.6311C28.1175 20.5502 28.3 20.3486 28.3295 20.3128C28.3608 20.2772 28.3906 20.2772 28.29 20.2817" stroke="black" stroke-width="0.0588123"/>
<path d="M28.261 20.4988C28.2144 20.5988 28.3471 20.6037 28.3777 20.5862C28.39 20.579 28.4181 20.5458 28.4181 20.5458C28.4719 20.4684 28.4227 20.4161 28.3946 20.4086C28.3676 20.3996 28.3099 20.3927 28.261 20.4988Z" fill="#009B3A"/>
<path d="M28.261 20.4988C28.2144 20.5988 28.3471 20.6037 28.3777 20.5862C28.39 20.579 28.4181 20.5458 28.4181 20.5458C28.4719 20.4684 28.4227 20.4161 28.3946 20.4086C28.3676 20.3996 28.3099 20.3927 28.261 20.4988" stroke="black" stroke-width="0.0500861"/>
<path d="M28.009 20.1108C28.0438 20.1757 28.141 20.3561 28.1639 20.3449C28.1782 20.3379 28.1669 20.3009 28.1669 20.3009C28.1669 20.3009 28.1639 20.2521 28.1481 20.193C28.1326 20.1335 28.1363 20.0573 28.1053 20.0085C28.0752 19.9597 28.0029 19.9018 27.9744 19.8248C27.9463 19.7475 27.9684 19.6012 27.9707 19.5832C27.9736 19.5664 27.9821 19.5774 27.9671 19.56C27.9519 19.541 27.829 19.4756 27.829 19.4756C27.829 19.4756 27.8362 19.5233 27.8332 19.6097C27.832 19.6306 27.8262 19.655 27.823 19.6914C27.8201 19.726 27.8409 19.7695 27.8913 19.869C27.9498 19.9841 27.9779 20.0547 28.009 20.1108ZM28.7463 19.2523C28.7463 19.2523 28.7108 19.3114 28.6982 19.3244C28.6851 19.3376 28.4848 19.5097 28.4734 19.5169C28.4637 19.5245 28.3591 19.5579 28.2639 19.8151C28.1685 20.0715 28.2098 20.3113 28.2098 20.3113L28.256 20.3056L28.2639 20.2805C28.2639 20.2805 28.2795 20.1954 28.2914 20.1308C28.3047 20.0672 28.3761 19.9782 28.4234 19.9125C28.4686 19.8482 28.505 19.7559 28.505 19.7559C28.5587 19.6477 28.5845 19.551 28.6377 19.4756C28.6398 19.5654 28.2984 20.1176 28.2618 20.3055L28.363 20.2901C28.4437 20.2163 28.5494 20.0613 28.621 19.9614C28.6929 19.8611 28.7235 19.7044 28.7366 19.6349C28.7492 19.5663 28.7463 19.2524 28.7463 19.2524" fill="#009B3A"/>
<path d="M28.7463 19.2523C28.7463 19.2523 28.7108 19.3114 28.6982 19.3244C28.6851 19.3376 28.4848 19.5097 28.4734 19.5169C28.4637 19.5245 28.3591 19.5579 28.2639 19.8151C28.1685 20.0715 28.2098 20.3113 28.2098 20.3113L28.256 20.3056L28.2639 20.2805C28.2639 20.2805 28.2795 20.1954 28.2914 20.1308C28.3047 20.0672 28.3761 19.9782 28.4234 19.9125C28.4686 19.8482 28.505 19.7559 28.505 19.7559C28.5587 19.6477 28.5845 19.551 28.6377 19.4756C28.6398 19.5654 28.2984 20.1176 28.2618 20.3055L28.363 20.2901C28.4437 20.2163 28.5494 20.0613 28.621 19.9614C28.6929 19.8611 28.7235 19.7044 28.7366 19.6349C28.7492 19.5663 28.7463 19.2524 28.7463 19.2524M28.009 20.1108C28.0438 20.1757 28.141 20.3561 28.1639 20.3449C28.1782 20.3379 28.1669 20.3009 28.1669 20.3009C28.1669 20.3009 28.1639 20.2521 28.1481 20.193C28.1326 20.1335 28.1363 20.0573 28.1053 20.0085C28.0752 19.9597 28.0029 19.9018 27.9744 19.8248C27.9463 19.7475 27.9684 19.6012 27.9707 19.5832C27.9736 19.5664 27.9821 19.5774 27.9671 19.56C27.9519 19.541 27.829 19.4756 27.829 19.4756C27.829 19.4756 27.8362 19.5233 27.8332 19.6097C27.832 19.6306 27.8262 19.655 27.823 19.6914C27.8201 19.726 27.8409 19.7695 27.8913 19.869C27.9498 19.9841 27.9779 20.0547 28.009 20.1108V20.1108Z" stroke="black" stroke-width="0.0450655"/>
<path d="M28.0656 19.3092C28.014 19.2615 27.9739 19.2472 27.9739 19.2472C27.9739 19.2472 27.9862 19.3408 27.9862 19.3978C27.9862 19.455 27.9913 19.551 27.9883 19.6022C27.9862 19.6533 27.9608 19.7379 27.9971 19.8207C28.0343 19.9024 28.0761 19.944 28.1057 19.9954C28.1327 20.0458 28.1821 20.3073 28.1821 20.3073C28.1821 20.3073 28.164 19.9537 28.1795 19.8536C28.1939 19.7554 28.1986 19.6022 28.1767 19.5254C28.1538 19.4483 28.1159 19.358 28.0656 19.3092ZM28.3013 18.964C28.3168 18.9337 28.3532 18.8712 28.3684 18.7761C28.3739 18.7358 28.3777 18.6703 28.3762 18.625C28.3751 18.5947 28.3631 18.5422 28.3762 18.5386C28.388 18.5358 28.3782 18.555 28.3848 18.5999C28.3881 18.6158 28.3771 18.6601 28.375 18.7168C28.3724 18.7621 28.3706 18.8 28.3504 18.8613C28.3328 18.9153 28.3487 18.9753 28.3379 18.9922C28.3262 19.0093 28.2951 19.0741 28.2951 19.0741C28.2951 19.0741 28.2761 19.1265 28.2794 19.1741C28.2811 19.2229 28.284 19.2756 28.284 19.2756C28.284 19.2756 28.3066 19.2338 28.3569 19.2268C28.3569 19.2268 28.3684 19.145 28.3684 19.1195C28.3684 19.0938 28.4012 18.9264 28.4178 18.8753C28.4407 18.8003 28.4568 18.6698 28.4205 18.5183C28.4105 18.4773 28.4032 18.3491 28.4032 18.3491C28.4032 18.3491 28.3549 18.3878 28.3262 18.534C28.3174 18.5785 28.3361 18.6976 28.3288 18.8247C28.3259 18.8947 28.2587 19.1787 28.2496 19.1965" fill="#009B3A"/>
<path d="M28.3013 18.964C28.3168 18.9337 28.3532 18.8712 28.3684 18.7761C28.3739 18.7358 28.3777 18.6703 28.3762 18.625C28.3751 18.5947 28.3631 18.5422 28.3762 18.5386C28.388 18.5358 28.3782 18.555 28.3848 18.5999C28.3881 18.6158 28.3771 18.6601 28.375 18.7168C28.3724 18.7621 28.3706 18.8 28.3504 18.8613C28.3328 18.9153 28.3487 18.9753 28.3379 18.9922C28.3262 19.0093 28.2951 19.0741 28.2951 19.0741C28.2951 19.0741 28.2761 19.1265 28.2794 19.1741C28.2811 19.2229 28.284 19.2756 28.284 19.2756C28.284 19.2756 28.3066 19.2338 28.3569 19.2268C28.3569 19.2268 28.3684 19.145 28.3684 19.1195C28.3684 19.0938 28.4012 18.9264 28.4178 18.8753C28.4407 18.8003 28.4568 18.6698 28.4205 18.5183C28.4105 18.4773 28.4032 18.3491 28.4032 18.3491C28.4032 18.3491 28.3549 18.3878 28.3262 18.534C28.3174 18.5785 28.3361 18.6976 28.3288 18.8247C28.3259 18.8947 28.2587 19.1787 28.2496 19.1965M28.0656 19.3092C28.014 19.2615 27.9739 19.2472 27.9739 19.2472C27.9739 19.2472 27.9862 19.3408 27.9862 19.3978C27.9862 19.455 27.9913 19.551 27.9883 19.6022C27.9862 19.6533 27.9608 19.7379 27.9971 19.8207C28.0343 19.9024 28.0761 19.944 28.1057 19.9954C28.1327 20.0458 28.1821 20.3073 28.1821 20.3073C28.1821 20.3073 28.164 19.9537 28.1795 19.8536C28.1939 19.7554 28.1986 19.6022 28.1767 19.5254C28.1538 19.4483 28.1159 19.358 28.0656 19.3092V19.3092Z" stroke="black" stroke-width="0.0450655"/>
<path d="M28.3013 18.964C28.2989 18.9683 28.298 18.9701 28.298 18.9701C28.298 18.9701 28.3001 18.9683 28.3013 18.964Z" fill="#009B3A" stroke="black" stroke-width="0.0450655"/>
<path d="M28.1108 18.227C28.1366 18.227 28.1366 18.2549 28.1313 18.2769C28.1273 18.2996 28.1279 18.3418 28.1279 18.3504C28.1279 18.3604 28.1386 18.4205 28.1472 18.4519C28.1565 18.4842 28.1727 18.4944 28.1656 18.5591C28.1608 18.5999 28.119 18.6478 28.1337 18.717C28.1416 18.7534 28.1677 18.7915 28.1806 18.8228C28.1913 18.8446 28.1855 18.8979 28.1885 18.9415C28.1896 18.9839 28.213 19.0126 28.213 19.0126C28.213 19.0126 28.184 19.0668 28.1744 18.999C28.1638 18.9213 28.1603 18.8868 28.1454 18.8517C28.1211 18.794 28.0988 18.6905 28.1366 18.6106C28.143 18.5952 28.1481 18.5665 28.1481 18.5324C28.1481 18.4978 28.1268 18.4387 28.1227 18.4021C28.1191 18.373 28.1215 18.3117 28.1215 18.2895L28.1108 18.227ZM27.9861 18.6147C27.9922 18.6585 28.0063 18.6835 28.0558 18.7789C28.071 18.8104 28.1056 18.8906 28.1108 18.9161C28.117 18.9417 28.1223 18.9726 28.1223 18.9804C28.1223 18.9888 28.1279 19.049 28.1279 19.049V19.074C28.1279 19.074 27.9907 18.9941 27.9307 18.9513C27.871 18.9083 27.8031 18.8493 27.7597 18.8136C27.7105 18.7731 27.5933 18.6342 27.5918 18.5229L27.538 18.474C27.538 18.474 27.4969 18.7214 27.6908 18.8815C27.7468 18.9274 27.8077 18.9781 27.938 19.0371C28.0687 19.0973 28.0515 19.1512 28.106 19.2669C28.1596 19.3831 28.1932 19.45 28.1999 19.4829C28.2046 19.518 28.1851 20.0122 28.1851 20.0122L28.1897 20.0571C28.1897 20.0571 28.3091 19.5992 28.3665 19.5481C28.3665 19.5481 28.2527 19.5306 28.2617 19.3516L28.2417 19.2336C28.2417 19.2336 28.2189 19.0917 28.2617 19.0036C28.2617 19.0036 28.3124 18.8423 28.2951 18.7028C28.2843 18.6193 28.2804 18.5944 28.2702 18.5144C28.2547 18.3899 28.2048 18.2121 28.1993 18.1906C28.1822 18.1281 28.1764 18.1185 28.1565 18.0691C28.1506 18.0517 28.1395 17.994 28.1211 17.9932C28.1105 17.9926 28.0944 18.0673 28.0944 18.0673C28.0944 18.0673 28.0705 18.1487 28.0655 18.1708C28.0499 18.2365 28.0136 18.2917 27.997 18.4394C27.994 18.4661 27.991 18.5382 27.9878 18.5479C27.9861 18.556 27.9826 18.5984 27.9861 18.6147Z" fill="#009B3A"/>
<path d="M27.9861 18.6147C27.9922 18.6585 28.0063 18.6835 28.0558 18.7789C28.071 18.8104 28.1056 18.8906 28.1108 18.9161C28.117 18.9417 28.1223 18.9726 28.1223 18.9804C28.1223 18.9888 28.1279 19.049 28.1279 19.049V19.074C28.1279 19.074 27.9907 18.9941 27.9307 18.9513C27.871 18.9083 27.8031 18.8493 27.7597 18.8136C27.7105 18.7731 27.5933 18.6342 27.5918 18.5229L27.538 18.474C27.538 18.474 27.4969 18.7214 27.6908 18.8815C27.7468 18.9274 27.8077 18.9781 27.938 19.0371C28.0687 19.0973 28.0515 19.1512 28.106 19.2669C28.1596 19.3831 28.1932 19.45 28.1999 19.4829C28.2046 19.518 28.1851 20.0122 28.1851 20.0122L28.1897 20.0571C28.1897 20.0571 28.3091 19.5992 28.3665 19.5481C28.3665 19.5481 28.2527 19.5306 28.2617 19.3516L28.2417 19.2336C28.2417 19.2336 28.2189 19.0917 28.2617 19.0036C28.2617 19.0036 28.3124 18.8423 28.2951 18.7028C28.2843 18.6193 28.2804 18.5944 28.2702 18.5144C28.2547 18.3899 28.2048 18.2121 28.1993 18.1906C28.1822 18.1281 28.1764 18.1185 28.1565 18.0691C28.1506 18.0517 28.1395 17.994 28.1211 17.9932C28.1105 17.9926 28.0944 18.0673 28.0944 18.0673C28.0944 18.0673 28.0705 18.1487 28.0655 18.1708C28.0499 18.2365 28.0136 18.2917 27.997 18.4394C27.994 18.4661 27.991 18.5382 27.9878 18.5479C27.9861 18.556 27.9826 18.5984 27.9861 18.6147M28.1108 18.227C28.1366 18.227 28.1366 18.2549 28.1313 18.2769C28.1273 18.2996 28.1279 18.3418 28.1279 18.3504C28.1279 18.3604 28.1386 18.4205 28.1472 18.4519C28.1565 18.4842 28.1727 18.4944 28.1656 18.5591C28.1608 18.5999 28.119 18.6478 28.1337 18.717C28.1416 18.7534 28.1677 18.7915 28.1806 18.8228C28.1913 18.8446 28.1855 18.8979 28.1885 18.9415C28.1896 18.9839 28.213 19.0126 28.213 19.0126C28.213 19.0126 28.184 19.0668 28.1744 18.999C28.1638 18.9213 28.1603 18.8868 28.1454 18.8517C28.1211 18.794 28.0988 18.6905 28.1366 18.6106C28.143 18.5952 28.1481 18.5665 28.1481 18.5324C28.1481 18.4978 28.1268 18.4387 28.1227 18.4021C28.1191 18.373 28.1215 18.3117 28.1215 18.2895L28.1108 18.227Z" stroke="black" stroke-width="0.0450655"/>
<path d="M28.0879 19.2393C28.0879 19.2393 28.068 19.1951 28.0477 19.1724C28.0071 19.1245 27.9523 19.0838 27.7965 19.0077C27.6413 18.9303 27.6003 18.8032 27.5212 18.7509C27.4849 18.7259 27.4146 18.714 27.4146 18.714C27.4146 18.714 27.4837 18.8091 27.5001 18.8419C27.5212 18.8838 27.5262 18.9123 27.6117 18.9919C27.6966 19.0719 27.8003 19.0998 27.8671 19.1196C27.9614 19.1489 28.0879 19.2394 28.0879 19.2394V19.2393ZM27.5987 18.5047C27.6029 18.5173 27.6429 18.6539 27.727 18.76C27.8555 18.9225 28.103 19.0386 28.103 19.0386C28.0798 18.9374 28.0395 18.8205 28.0076 18.7688C27.895 18.5871 27.5979 18.498 27.5979 18.498C27.5979 18.498 27.5926 18.4911 27.5987 18.5047ZM27.9535 18.5813C28.0201 18.4355 27.8213 18.2962 27.7652 18.1946C27.786 18.1781 27.8106 18.2214 27.8333 18.2502C27.8659 18.2935 27.9576 18.4188 27.9576 18.4188L27.986 18.2854L27.7493 18.0699C27.7464 18.1013 27.6732 18.127 27.6732 18.127C27.6378 18.3264 27.9535 18.5813 27.9535 18.5813" fill="#009B3A"/>
<path d="M27.9535 18.5813C28.0201 18.4355 27.8213 18.2962 27.7652 18.1946C27.786 18.1781 27.8106 18.2214 27.8333 18.2502C27.8659 18.2935 27.9576 18.4188 27.9576 18.4188L27.986 18.2854L27.7493 18.0699C27.7464 18.1013 27.6732 18.127 27.6732 18.127C27.6378 18.3264 27.9535 18.5813 27.9535 18.5813M28.0879 19.2393C28.0879 19.2393 28.068 19.1951 28.0477 19.1724C28.0071 19.1245 27.9523 19.0838 27.7965 19.0077C27.6413 18.9303 27.6003 18.8032 27.5212 18.7509C27.4849 18.7259 27.4146 18.714 27.4146 18.714C27.4146 18.714 27.4837 18.8091 27.5001 18.8419C27.5212 18.8838 27.5262 18.9123 27.6117 18.9919C27.6966 19.0719 27.8003 19.0998 27.8671 19.1196C27.9614 19.1489 28.0879 19.2394 28.0879 19.2394V19.2393ZM27.5987 18.5047C27.6029 18.5173 27.6429 18.6539 27.727 18.76C27.8555 18.9225 28.103 19.0386 28.103 19.0386C28.0798 18.9374 28.0395 18.8205 28.0076 18.7688C27.895 18.5871 27.5979 18.498 27.5979 18.498C27.5979 18.498 27.5926 18.4911 27.5987 18.5047V18.5047Z" stroke="black" stroke-width="0.0450655"/>
<path d="M27.5413 18.2434C27.4842 18.269 27.4639 18.269 27.4639 18.269L27.4958 18.3535L27.5143 18.3764C27.5143 18.3764 27.5887 18.484 27.632 18.4974C27.6501 18.5041 27.7178 18.5159 27.7858 18.5451C27.8713 18.5814 28.0108 18.7034 28.0108 18.7034C28.0108 18.7034 27.7787 18.4417 27.6897 18.2454L27.6597 18.1323L27.5755 18.1379C27.5755 18.1379 27.5986 18.2173 27.5413 18.2435" fill="#009B3A"/>
<path d="M27.5413 18.2434C27.4842 18.269 27.4639 18.269 27.4639 18.269L27.4958 18.3535L27.5143 18.3764C27.5143 18.3764 27.5887 18.484 27.632 18.4974C27.6501 18.5041 27.7178 18.5159 27.7858 18.5451C27.8713 18.5814 28.0108 18.7034 28.0108 18.7034C28.0108 18.7034 27.7787 18.4417 27.6897 18.2454L27.6597 18.1323L27.5755 18.1379C27.5755 18.1379 27.5986 18.2173 27.5413 18.2435" stroke="black" stroke-width="0.0450655"/>
<path d="M26.6725 18.076C26.7115 18.1111 26.7538 18.1425 26.7987 18.1696C26.8499 18.2004 26.9976 18.2873 27.108 18.3083C27.1338 18.3123 27.2725 18.3298 27.2725 18.3298C27.278 18.269 27.344 18.2637 27.344 18.2637L27.1475 18.2422C26.9891 18.2305 26.8685 18.1643 26.7747 18.0582C26.9005 18.1346 27.0815 18.2548 27.2282 18.2483C27.8304 18.1891 27.0467 18.1742 26.9788 18.1306C26.9067 18.0861 26.8453 18.0123 26.8453 18.0123L26.6687 18.0044C26.6687 18.0044 26.5819 17.9989 26.6725 18.076Z" fill="#009B3A"/>
<path d="M26.6725 18.076C26.7115 18.1111 26.7538 18.1425 26.7987 18.1696C26.8499 18.2004 26.9976 18.2873 27.108 18.3083C27.1338 18.3123 27.2725 18.3298 27.2725 18.3298C27.278 18.269 27.344 18.2637 27.344 18.2637L27.1475 18.2422C26.9891 18.2305 26.8685 18.1643 26.7747 18.0582C26.9005 18.1346 27.0815 18.2548 27.2282 18.2483C27.8304 18.1891 27.0467 18.1742 26.9788 18.1306C26.9067 18.0861 26.8453 18.0123 26.8453 18.0123L26.6687 18.0044C26.6687 18.0044 26.5819 17.9989 26.6725 18.076" stroke="black" stroke-width="0.0450655"/>
<path d="M27.3814 18.4189C27.4204 18.416 27.4476 18.4087 27.4564 18.3661C27.4643 18.3184 27.4462 18.2838 27.3888 18.2712C27.3568 18.2633 27.3009 18.2616 27.2781 18.3184C27.2532 18.3765 27.3436 18.4138 27.3436 18.4138C27.3436 18.4138 27.3609 18.4213 27.3814 18.4189ZM27.4489 18.0737C27.398 18.0737 27.3807 18.1153 27.3916 18.1963C27.405 18.2781 27.5301 18.2423 27.5301 18.2423L27.5532 18.2304C27.5532 18.2304 27.5702 18.2172 27.5608 18.1522C27.552 18.0856 27.5002 18.0737 27.4489 18.0737H27.4489ZM27.6537 18.131H27.6517C27.6507 18.1316 27.6537 18.131 27.6537 18.131Z" fill="#009B3A" stroke="black" stroke-width="0.0450655"/>
<path d="M27.6518 18.131C27.6532 18.1304 27.6567 18.1286 27.6699 18.1249C27.6959 18.1151 27.7223 18.0525 27.7223 18.0525C27.7355 17.968 27.675 17.9471 27.675 17.9471C27.5729 17.9267 27.5703 18.0162 27.5703 18.0162C27.5422 18.1328 27.6368 18.1316 27.6517 18.131L27.6518 18.131ZM27.1978 17.7307C27.2034 17.7694 27.2584 17.8255 27.267 17.8351C27.2769 17.8438 27.3473 17.9171 27.371 17.9499C27.3947 17.9828 27.4735 18.1317 27.4735 18.1317C27.4735 18.1317 27.4873 18.1295 27.4931 18.1181C27.5069 18.0949 27.4403 17.9144 27.4336 17.902C27.4092 17.8472 27.3694 17.8063 27.3293 17.7636C27.32 17.7575 27.2871 17.7153 27.2511 17.67C27.3224 17.7612 27.5052 18.0206 27.559 18.1359C27.559 18.1359 27.5525 18.013 27.5457 17.947C27.523 17.7545 27.4728 17.695 27.4567 17.6671C27.4284 17.6151 27.3563 17.5645 27.3047 17.5467C27.2532 17.5281 27.1923 17.5025 27.127 17.4816C27.0596 17.461 27.1115 17.5217 27.1363 17.5741C27.1674 17.636 27.1923 17.6915 27.1979 17.7308" fill="#009B3A"/>
<path d="M27.1978 17.7307C27.2034 17.7694 27.2584 17.8255 27.267 17.8351C27.2769 17.8438 27.3473 17.9171 27.371 17.9499C27.3947 17.9828 27.4735 18.1317 27.4735 18.1317C27.4735 18.1317 27.4873 18.1295 27.4931 18.1181C27.5069 18.0949 27.4403 17.9144 27.4336 17.902C27.4092 17.8472 27.3694 17.8063 27.3293 17.7636C27.32 17.7575 27.2871 17.7153 27.2511 17.67C27.3224 17.7612 27.5052 18.0206 27.559 18.1359C27.559 18.1359 27.5525 18.013 27.5457 17.947C27.523 17.7545 27.4728 17.695 27.4567 17.6671C27.4284 17.6151 27.3563 17.5645 27.3047 17.5467C27.2532 17.5281 27.1923 17.5025 27.127 17.4816C27.0596 17.461 27.1115 17.5217 27.1363 17.5741C27.1674 17.636 27.1923 17.6915 27.1979 17.7308M27.6518 18.131C27.6532 18.1304 27.6567 18.1286 27.6699 18.1249C27.6959 18.1151 27.7223 18.0525 27.7223 18.0525C27.7355 17.968 27.675 17.9471 27.675 17.9471C27.5729 17.9267 27.5703 18.0162 27.5703 18.0162C27.5422 18.1328 27.6368 18.1316 27.6517 18.131L27.6518 18.131Z" stroke="black" stroke-width="0.0450655"/>
<path d="M26.9465 18.0473C27.013 18.1037 27.0428 18.1429 27.1807 18.1633C27.3198 18.1851 27.3315 18.1758 27.3315 18.1758C27.3315 18.1758 27.4037 18.141 27.367 18.1104C27.1626 18.0205 26.9691 17.9135 26.8708 17.7932C26.8708 17.7932 26.8879 17.7767 26.9587 17.8476C26.9998 17.8892 27.0273 17.9101 27.0525 17.9296C27.1268 17.9816 27.1591 17.9964 27.2332 18.0368C27.2727 18.0584 27.3714 18.0816 27.3714 18.0816C27.3714 18.0816 27.3855 18.0517 27.398 18.0481C27.4101 18.0453 27.3904 17.9984 27.3046 17.9289C27.2568 17.8894 27.2147 17.8436 27.1793 17.7928C27.1793 17.7928 27.0776 17.7706 26.9676 17.7522C26.8855 17.7392 26.7312 17.6194 26.7339 17.6519C26.7367 17.6854 26.757 17.7892 26.7986 17.8552C26.8404 17.9214 26.8803 17.9892 26.9465 18.0474" fill="#009B3A"/>
<path d="M26.9465 18.0473C27.013 18.1037 27.0428 18.1429 27.1807 18.1633C27.3198 18.1851 27.3315 18.1758 27.3315 18.1758C27.3315 18.1758 27.4037 18.141 27.367 18.1104C27.1626 18.0205 26.9691 17.9135 26.8708 17.7932C26.8708 17.7932 26.8879 17.7767 26.9587 17.8476C26.9998 17.8892 27.0273 17.9101 27.0525 17.9296C27.1268 17.9816 27.1591 17.9964 27.2332 18.0368C27.2727 18.0584 27.3714 18.0816 27.3714 18.0816C27.3714 18.0816 27.3855 18.0517 27.398 18.0481C27.4101 18.0453 27.3904 17.9984 27.3046 17.9289C27.2568 17.8894 27.2147 17.8436 27.1793 17.7928C27.1793 17.7928 27.0776 17.7706 26.9676 17.7522C26.8855 17.7392 26.7312 17.6194 26.7339 17.6519C26.7367 17.6854 26.757 17.7892 26.7986 17.8552C26.8404 17.9214 26.8803 17.9892 26.9465 18.0474" stroke="black" stroke-width="0.0450655"/>
<path d="M25.7974 22.2063C25.7371 22.224 25.285 22.3938 25.285 22.3938L25.1588 22.4443C25.3331 22.4051 25.4666 22.4929 25.4666 22.4929L25.9702 22.2598C25.9702 22.2598 25.9687 22.2522 25.9562 22.2432C25.943 22.2342 25.8583 22.1879 25.7974 22.2063Z" fill="#009B3A"/>
<path d="M25.7974 22.2063C25.7371 22.224 25.285 22.3938 25.285 22.3938L25.1588 22.4443C25.3331 22.4051 25.4666 22.4929 25.4666 22.4929L25.9702 22.2598C25.9702 22.2598 25.9687 22.2522 25.9562 22.2432C25.943 22.2342 25.8583 22.1879 25.7974 22.2063" stroke="black" stroke-width="0.0359807"/>
<path d="M25.1398 22.4596C25.1364 22.4625 25.133 22.4745 25.1418 22.4783C25.1669 22.4922 25.1602 22.4977 25.2743 22.5114C25.3893 22.5239 25.4643 22.5021 25.484 22.4803C25.5071 22.455 25.199 22.4079 25.1397 22.4596" fill="#009B3A"/>
<path d="M25.1398 22.4596C25.1364 22.4625 25.133 22.4745 25.1418 22.4783C25.1669 22.4922 25.1602 22.4977 25.2743 22.5114C25.3893 22.5239 25.4643 22.5021 25.484 22.4803C25.5071 22.455 25.199 22.4079 25.1397 22.4596" stroke="black" stroke-width="0.038491"/>
<path d="M24.4164 20.8334L24.3954 20.6921C24.3954 20.6921 24.3691 20.3101 24.3258 20.2335C24.3174 20.2165 24.3212 20.1768 24.2937 20.1761C24.2409 20.1722 24.2409 20.2965 24.2345 20.4091C24.1488 20.9769 24.6017 21.4104 24.6017 21.4104L24.4164 20.8334Z" fill="#009B3A" stroke="black" stroke-width="0.0499665"/>
<path d="M26.6574 22.5158C26.6574 22.5158 26.6099 22.5052 26.64 22.4681C26.6688 22.4328 26.7544 22.4139 26.7716 22.4139C26.7884 22.4132 26.8365 22.4174 26.8722 22.4274C26.9083 22.4363 26.9582 22.4681 26.9436 22.4911C26.9284 22.5131 26.8796 22.5405 26.8129 22.5405C26.7557 22.5405 26.7264 22.539 26.7012 22.5319C26.6768 22.5226 26.6574 22.5158 26.6574 22.5158" fill="#009B3A"/>
<path d="M26.6574 22.5158C26.6574 22.5158 26.6099 22.5052 26.64 22.4681C26.6688 22.4328 26.7544 22.4139 26.7716 22.4139C26.7884 22.4132 26.8365 22.4174 26.8722 22.4274C26.9083 22.4363 26.9582 22.4681 26.9436 22.4911C26.9284 22.5131 26.8796 22.5405 26.8129 22.5405C26.7557 22.5405 26.7264 22.539 26.7012 22.5319C26.6768 22.5226 26.6574 22.5158 26.6574 22.5158" stroke="black" stroke-width="0.0460218"/>
<path d="M26.1665 22.2456C26.1665 22.2456 26.011 22.1741 25.8637 22.1021C25.6694 22.0072 25.436 21.8755 25.2735 21.6339C25.07 21.3349 24.893 21.1747 24.8503 21.1425C24.8063 21.1102 24.8 21.0982 24.7838 21.121C24.7692 21.1407 24.7794 21.1578 24.7917 21.1787C24.8336 21.2468 24.9364 21.3747 24.9733 21.4433C25.0368 21.566 25.1684 21.6999 25.1672 21.7794C25.1672 21.7904 25.1288 21.7715 25.1288 21.7715C25.1288 21.7715 24.821 21.666 24.6963 21.2931C24.6055 21.0227 24.6441 20.9433 24.623 20.8082C24.587 20.568 24.5797 20.5485 24.4608 20.2794C24.4576 20.2727 24.3881 20.1602 24.3788 20.1852C24.3659 20.2174 24.3905 20.3378 24.3905 20.3378L24.4031 20.4765C24.4031 20.4765 24.3931 20.7843 24.3931 20.8029C24.3931 20.8216 24.3156 21.0137 24.6449 21.3367C24.6449 21.3367 24.65 21.3915 24.6057 21.3432C24.5744 21.3087 24.3386 21.1276 24.2669 20.8297C24.193 20.5317 24.1823 20.2334 24.2382 20.1096C24.2888 19.9977 24.3905 19.7241 24.3472 19.4851C24.3422 19.4602 24.3351 19.3869 24.3193 19.4061C24.3126 19.4155 24.283 19.5364 24.2651 19.5783C24.2402 19.6355 24.2016 19.6918 24.1896 19.7314C24.1664 19.7985 24.0528 19.9023 24.075 20.0933C24.1002 20.3128 24.1146 20.3471 24.141 20.4253C24.15 20.4538 24.1721 20.5264 24.1577 20.5337C24.1445 20.5407 24.0979 20.4468 24.0979 20.4468C24.0979 20.4468 23.8893 20.0369 24.018 19.7044C24.148 19.3733 24.4742 19.0593 24.4742 19.0593C24.4742 19.0593 24.7393 18.8395 24.7932 18.7884C24.8143 18.7686 24.8093 18.7538 24.8023 18.7561C24.7364 18.7727 24.2264 18.8782 24.0473 19.4857C24.0473 19.4857 24.0379 19.5113 24.0247 19.505C24.0083 19.4976 24.0247 19.4691 24.0247 19.4691C24.0247 19.4691 24.1369 19.0384 24.4516 18.8431C24.7952 18.6288 24.7549 18.6602 24.8685 18.5927C24.94 18.5483 25.0046 18.4887 25.0846 18.3564C25.0928 18.3417 25.1252 18.2646 25.1209 18.2515C25.1174 18.2384 25.1019 18.2564 25.0946 18.2782C25.0946 18.2782 24.9973 18.4285 24.8517 18.4791C24.7057 18.5297 24.587 18.4575 24.4403 18.6198C24.2933 18.7829 24.1764 19.0087 24.1764 19.0087C24.1764 19.0087 24.138 19.0672 24.1296 19.0654C24.1134 19.0605 24.1374 19.0032 24.1374 19.0032C24.1374 19.0032 24.3337 18.5869 24.4913 18.5024C24.6491 18.4171 24.7896 18.3354 24.8793 18.2663C24.9883 18.1808 25.176 17.9716 25.2436 17.8995C25.258 17.8841 25.3588 17.782 25.381 17.7489C25.3944 17.7308 25.4264 17.7046 25.4212 17.7001C25.4068 17.6893 25.3112 17.7352 25.3112 17.7352C25.3112 17.7352 24.7916 17.8784 24.4683 18.3668C24.4533 18.3895 24.4178 18.4356 24.3987 18.455C24.3641 18.4908 24.3469 18.5505 24.3469 18.5505C24.3258 18.533 24.5296 18.2782 24.5296 18.2782L24.5653 18.1134C24.5653 18.1134 24.6257 17.8658 24.7525 17.691C24.7651 17.6751 24.84 17.5994 24.8527 17.5837C24.8778 17.5565 24.8049 17.6076 24.8178 17.5962C24.8178 17.5962 24.3331 17.9442 24.3331 18.3826C24.3331 18.4613 24.2842 18.5332 24.2165 18.6311C24.1374 18.7448 24.1111 18.8146 24.0768 18.9837C24.0626 19.0549 24.0477 19.1259 24.0323 19.1968C24.0323 19.1968 24.037 19.2593 24.0168 19.2547C23.9957 19.25 24.003 19.1983 24.003 19.1983C24.003 19.1983 24.0525 18.8715 24.0877 18.7709C24.1219 18.6733 24.1444 18.6067 24.1444 18.6067C24.1444 18.6067 24.1242 18.3611 24.1787 18.2264C24.225 18.109 24.3422 17.9544 24.3603 17.9157C24.3682 17.8989 24.4224 17.7887 24.4376 17.6632C24.4397 17.6463 24.4265 17.6603 24.4046 17.7093C24.3512 17.8294 24.3067 17.8608 24.2191 17.9738C24.2191 17.9738 23.9945 18.1366 23.9131 18.6209C23.9131 18.6209 23.9104 18.8014 23.883 19.0843C23.8631 19.2916 23.88 19.4857 23.9035 19.6027C23.9184 19.6741 23.9468 19.6747 23.9293 19.6834C23.9183 19.689 23.9362 19.6844 23.9107 19.6303C23.8797 19.5655 23.8559 19.4657 23.8559 19.3279C23.8559 19.0753 23.8778 18.8725 23.8778 18.8725C23.8778 18.8725 23.8943 18.4642 23.725 18.2802C23.7169 18.2706 23.7547 18.3628 23.7717 18.4547C23.7925 18.5687 23.7547 18.7268 23.7436 18.7884C23.7328 18.8503 23.6199 19.1201 23.6598 19.3733C23.6598 19.3733 23.7552 19.8026 23.8782 20.0108C23.8782 20.0108 23.9547 20.1004 23.8871 20.0164C23.82 19.9323 23.6823 19.5982 23.6704 19.5698C23.6598 19.5425 23.5611 19.3345 23.4682 19.25C23.4202 19.2052 23.2881 19.1259 23.2881 19.1259C23.2881 19.1259 23.2164 19.0712 23.2708 19.1439C23.3138 19.2012 23.3716 19.304 23.3991 19.3489C23.4563 19.4414 23.5072 19.5377 23.5514 19.6371C23.5956 19.7343 23.6984 20.0201 23.6984 20.0201L23.7642 20.2013C23.7642 20.2013 23.8745 20.2625 23.9345 20.3293C23.9837 20.3834 24.0856 20.5075 24.1703 20.7285C24.2083 20.8262 24.2843 20.9156 24.2843 20.9156C24.2843 20.9156 24.2682 20.9467 24.2005 20.8296C24.1338 20.7109 24.0684 20.4883 23.9076 20.3152C23.7855 20.1822 23.4568 20.0483 23.4568 20.0483C23.4568 20.0483 23.668 20.4163 23.7204 20.482C23.8091 20.5872 23.9374 20.7348 23.9705 20.7739C24.0048 20.8137 24.2034 21.059 24.2327 21.0983C24.2789 21.1596 24.3094 21.1866 24.3337 21.2116C24.386 21.2674 24.5412 21.3692 24.5533 21.3852C24.5556 21.4014 24.5587 21.3881 24.5455 21.3784C24.4767 21.3374 24.3945 21.2726 24.3096 21.2174C24.2249 21.1612 23.8981 21.0217 23.6779 20.7183C23.6258 20.6285 23.6009 20.5928 23.5833 20.602C23.5564 20.6163 23.7316 21.1959 24.0918 21.3802C24.0918 21.3802 24.4892 21.557 24.5773 21.6102C24.6257 21.6392 24.7232 21.6822 24.7683 21.7186C24.7941 21.7399 24.7449 21.7387 24.7416 21.7381C24.5305 21.7216 24.2274 21.6936 24.0413 21.5857C24.0413 21.5857 23.9614 21.5296 24.027 21.6084C24.0792 21.6694 24.1781 21.8197 24.3691 21.9043C24.5604 21.9883 24.8383 22.0372 24.94 22.0424C25.0398 22.048 25.3959 22.0497 25.4641 22.0718C25.5309 22.0944 25.6446 22.1672 25.7096 22.1882C25.7687 22.2073 25.9471 22.2757 25.9471 22.2757C25.9471 22.2757 26.0007 22.3051 26.0294 22.3155C26.0616 22.3283 26.1952 22.3271 26.2047 22.3022C26.2136 22.2797 26.1665 22.2456 26.1665 22.2456Z" fill="#009B3A"/>
<path d="M26.1665 22.2456C26.1665 22.2456 26.011 22.1741 25.8637 22.1021C25.6694 22.0072 25.436 21.8755 25.2735 21.6339C25.07 21.3349 24.893 21.1747 24.8503 21.1425C24.8063 21.1102 24.8 21.0982 24.7838 21.121C24.7692 21.1407 24.7794 21.1578 24.7917 21.1787C24.8336 21.2468 24.9364 21.3747 24.9733 21.4433C25.0368 21.566 25.1684 21.6999 25.1672 21.7794C25.1672 21.7904 25.1288 21.7715 25.1288 21.7715C25.1288 21.7715 24.821 21.666 24.6963 21.2931C24.6055 21.0227 24.6441 20.9433 24.623 20.8082C24.587 20.568 24.5797 20.5485 24.4608 20.2794C24.4576 20.2727 24.3881 20.1602 24.3788 20.1852C24.3659 20.2174 24.3905 20.3378 24.3905 20.3378L24.4031 20.4765C24.4031 20.4765 24.3931 20.7843 24.3931 20.8029C24.3931 20.8216 24.3156 21.0137 24.6449 21.3367C24.6449 21.3367 24.65 21.3915 24.6057 21.3432C24.5744 21.3087 24.3386 21.1276 24.2669 20.8297C24.193 20.5317 24.1823 20.2334 24.2382 20.1096C24.2888 19.9977 24.3905 19.7241 24.3472 19.4851C24.3422 19.4602 24.3351 19.3869 24.3193 19.4061C24.3126 19.4155 24.283 19.5364 24.2651 19.5783C24.2402 19.6355 24.2016 19.6918 24.1896 19.7314C24.1664 19.7985 24.0528 19.9023 24.0751 20.0933C24.1002 20.3128 24.1146 20.3471 24.141 20.4253C24.15 20.4538 24.1721 20.5264 24.1577 20.5337C24.1445 20.5407 24.0979 20.4468 24.0979 20.4468C24.0979 20.4468 23.8893 20.0369 24.018 19.7044C24.148 19.3733 24.4742 19.0593 24.4742 19.0593C24.4742 19.0593 24.7393 18.8395 24.7932 18.7884C24.8143 18.7686 24.8093 18.7538 24.8023 18.7561C24.7364 18.7727 24.2264 18.8782 24.0473 19.4857C24.0473 19.4857 24.0379 19.5113 24.0247 19.505C24.0083 19.4976 24.0247 19.4691 24.0247 19.4691C24.0247 19.4691 24.1369 19.0384 24.4516 18.8431C24.7952 18.6288 24.7549 18.6602 24.8685 18.5927C24.94 18.5483 25.0046 18.4887 25.0846 18.3564C25.0928 18.3417 25.1252 18.2646 25.1209 18.2515C25.1174 18.2384 25.1019 18.2564 25.0946 18.2782C25.0946 18.2782 24.9973 18.4285 24.8517 18.4791C24.7057 18.5297 24.587 18.4575 24.4403 18.6198C24.2933 18.7829 24.1764 19.0087 24.1764 19.0087C24.1764 19.0087 24.138 19.0672 24.1296 19.0654C24.1134 19.0605 24.1374 19.0032 24.1374 19.0032C24.1374 19.0032 24.3337 18.5869 24.4913 18.5024C24.6491 18.4171 24.7896 18.3354 24.8793 18.2663C24.9883 18.1808 25.176 17.9716 25.2436 17.8995C25.258 17.8841 25.3588 17.782 25.381 17.7489C25.3944 17.7308 25.4264 17.7046 25.4212 17.7001C25.4068 17.6893 25.3112 17.7352 25.3112 17.7352C25.3112 17.7352 24.7916 17.8784 24.4683 18.3668C24.4533 18.3895 24.4178 18.4356 24.3987 18.455C24.3641 18.4908 24.3469 18.5505 24.3469 18.5505C24.3258 18.533 24.5296 18.2782 24.5296 18.2782L24.5653 18.1134C24.5653 18.1134 24.6257 17.8658 24.7525 17.691C24.7651 17.6751 24.84 17.5994 24.8527 17.5837C24.8778 17.5565 24.8049 17.6076 24.8178 17.5962C24.8178 17.5962 24.3331 17.9442 24.3331 18.3826C24.3331 18.4613 24.2842 18.5332 24.2165 18.6311C24.1374 18.7448 24.1111 18.8146 24.0768 18.9837C24.0626 19.0549 24.0477 19.1259 24.0323 19.1968C24.0323 19.1968 24.037 19.2593 24.0168 19.2547C23.9957 19.25 24.003 19.1983 24.003 19.1983C24.003 19.1983 24.0525 18.8715 24.0877 18.7709C24.1219 18.6733 24.1444 18.6067 24.1444 18.6067C24.1444 18.6067 24.1242 18.3611 24.1787 18.2264C24.225 18.109 24.3422 17.9544 24.3603 17.9157C24.3682 17.8989 24.4224 17.7887 24.4376 17.6632C24.4397 17.6463 24.4265 17.6603 24.4046 17.7093C24.3512 17.8294 24.3067 17.8608 24.2191 17.9738C24.2191 17.9738 23.9945 18.1366 23.9131 18.6209C23.9131 18.6209 23.9104 18.8014 23.883 19.0843C23.8631 19.2916 23.88 19.4857 23.9035 19.6027C23.9184 19.6741 23.9468 19.6747 23.9293 19.6834C23.9183 19.689 23.9362 19.6844 23.9107 19.6303C23.8797 19.5655 23.8559 19.4657 23.8559 19.3279C23.8559 19.0753 23.8778 18.8725 23.8778 18.8725C23.8778 18.8725 23.8943 18.4642 23.725 18.2802C23.7169 18.2706 23.7547 18.3628 23.7717 18.4547C23.7925 18.5687 23.7547 18.7268 23.7436 18.7884C23.7328 18.8503 23.6199 19.1201 23.6598 19.3733C23.6598 19.3733 23.7552 19.8026 23.8782 20.0108C23.8782 20.0108 23.9547 20.1004 23.8871 20.0164C23.82 19.9323 23.6823 19.5982 23.6704 19.5698C23.6598 19.5425 23.5611 19.3345 23.4682 19.25C23.4202 19.2052 23.2881 19.1259 23.2881 19.1259C23.2881 19.1259 23.2164 19.0712 23.2708 19.1439C23.3138 19.2012 23.3716 19.304 23.3991 19.3489C23.4563 19.4414 23.5072 19.5377 23.5514 19.6371C23.5956 19.7343 23.6984 20.0201 23.6984 20.0201L23.7642 20.2013C23.7642 20.2013 23.8745 20.2625 23.9345 20.3293C23.9837 20.3834 24.0856 20.5075 24.1703 20.7285C24.2083 20.8262 24.2843 20.9156 24.2843 20.9156C24.2843 20.9156 24.2682 20.9467 24.2005 20.8296C24.1338 20.7109 24.0684 20.4883 23.9076 20.3152C23.7855 20.1822 23.4568 20.0483 23.4568 20.0483C23.4568 20.0483 23.668 20.4163 23.7204 20.482C23.8091 20.5872 23.9374 20.7348 23.9705 20.7739C24.0048 20.8137 24.2034 21.059 24.2327 21.0983C24.2789 21.1596 24.3094 21.1866 24.3337 21.2116C24.386 21.2674 24.5412 21.3692 24.5533 21.3852C24.5556 21.4014 24.5587 21.3881 24.5455 21.3784C24.4767 21.3374 24.3945 21.2726 24.3096 21.2174C24.2249 21.1612 23.8981 21.0217 23.6779 20.7183C23.6258 20.6285 23.6009 20.5928 23.5833 20.602C23.5564 20.6163 23.7316 21.1959 24.0918 21.3802C24.0918 21.3802 24.4892 21.557 24.5773 21.6102C24.6257 21.6392 24.7232 21.6822 24.7683 21.7186C24.7941 21.7399 24.7449 21.7387 24.7416 21.7381C24.5305 21.7216 24.2274 21.6936 24.0413 21.5857C24.0413 21.5857 23.9614 21.5296 24.027 21.6084C24.0792 21.6694 24.1781 21.8197 24.3691 21.9043C24.5604 21.9883 24.8383 22.0372 24.94 22.0424C25.0398 22.048 25.3959 22.0497 25.4641 22.0718C25.5309 22.0944 25.6446 22.1672 25.7096 22.1882C25.7687 22.2073 25.9471 22.2757 25.9471 22.2757C25.9471 22.2757 26.0007 22.3051 26.0294 22.3155C26.0616 22.3283 26.1952 22.3271 26.2047 22.3022C26.2136 22.2797 26.1665 22.2456 26.1665 22.2456" stroke="black" stroke-width="0.0359807"/>
<path d="M28.4758 19.2275C28.5162 19.2422 28.534 19.362 28.534 19.362C28.534 19.362 28.5305 19.2935 28.5305 19.2597C28.5305 19.2256 28.5139 19.0981 28.5139 19.0981L28.4781 19.1237C28.4353 19.1577 28.4116 19.2179 28.4116 19.2179C28.4116 19.2179 28.4362 19.2138 28.4758 19.2274" fill="#009B3A"/>
<path d="M28.4758 19.2275C28.5162 19.2422 28.534 19.362 28.534 19.362C28.534 19.362 28.5305 19.2935 28.5305 19.2597C28.5305 19.2256 28.5139 19.0981 28.5139 19.0981L28.4781 19.1237C28.4353 19.1577 28.4116 19.2179 28.4116 19.2179C28.4116 19.2179 28.4362 19.2138 28.4758 19.2274" stroke="black" stroke-width="0.0450655"/>
<rect x="2" y="2" width="48" height="12" fill="#EE5757"/>
</g>
<path d="M11.7035 1.61228C6.53056 2.04084 2.23921 5.77712 1.57724 11.0101C1.25164 13.5841 1 16.6548 1 20C1 23.3452 1.25164 26.4159 1.57724 28.9899C2.23922 34.2229 6.53056 37.9592 11.7035 38.3877C15.5784 38.7087 20.5852 39 26 39C31.4148 39 36.4216 38.7087 40.2965 38.3877C45.4694 37.9592 49.7608 34.2229 50.4228 28.9899C50.7484 26.4159 51 23.3452 51 20C51 16.6548 50.7484 13.5841 50.4228 11.0101C49.7608 5.77712 45.4694 2.04084 40.2965 1.61228C36.4216 1.29127 31.4148 1 26 1C20.5852 1 15.5784 1.29127 11.7035 1.61228Z" stroke="#E6E6FA" stroke-width="2"/>
</svg>
