<svg width="52" height="40" viewBox="0 0 52 40" fill="none" xmlns="http://www.w3.org/2000/svg">
<mask id="mask0_1_35748" style="mask-type:alpha" maskUnits="userSpaceOnUse" x="2" y="2" width="48" height="36">
<path d="M2.56934 11.1356C3.16681 6.41247 7.0415 3.00193 11.7861 2.60887C15.6412 2.28949 20.6196 2 26 2C31.3804 2 36.3588 2.28949 40.2139 2.60887C44.9585 3.00193 48.8332 6.41247 49.4307 11.1356C49.752 13.6759 50 16.704 50 20C50 23.296 49.752 26.3241 49.4307 28.8644C48.8332 33.5875 44.9585 36.9981 40.2139 37.3911C36.3588 37.7105 31.3804 38 26 38C20.6196 38 15.6412 37.7105 11.7861 37.3911C7.0415 36.9981 3.16681 33.5875 2.56934 28.8644C2.248 26.3241 2 23.296 2 20C2 16.704 2.248 13.6759 2.56934 11.1356Z" fill="#00D0BF"/>
</mask>
<g mask="url(#mask0_1_35748)">
<rect x="2" y="-4" width="48" height="49" fill="#EE5757"/>
<rect y="10" width="52" height="20" fill="white"/>
<path d="M24.3719 19.0324L23.1001 18.9958V18.493L24.3719 19.0324V19.0324Z" fill="#FF9C10"/>
<path d="M24.3666 18.8858L23.1001 18.2416V17.4037C23.1001 17.4037 22.9517 17.4246 22.9729 17.2571C22.9799 16.9079 23.9037 17.8943 24.3771 18.2155L24.3665 18.8858L24.3666 18.8858Z" fill="#FF9C10"/>
<path d="M18.8817 21.0699L21.5522 21.0908V19.4359L18.5 19.2902L18.8816 21.0707L18.8817 21.0699Z" fill="#FF9C10"/>
<path d="M18.7543 18.7863L21.5946 19.0586L21.5734 17.8856L18.7968 16.7963L18.7543 18.7863L18.7543 18.7863Z" fill="#FF9C10"/>
<path d="M19.3267 16.4409L21.5099 17.4882L21.8217 17.1666C21.8217 17.1666 21.6209 17.0299 21.6308 16.9041C21.6346 16.7769 21.8328 16.7575 21.8366 16.6194C21.8402 16.4922 21.6121 16.4769 21.6096 16.3496C21.5947 16.2117 21.7855 16.0637 21.7855 16.0637L19.8143 14.3669L19.3267 16.4409L19.3267 16.4409Z" fill="#FF9C10"/>
<path d="M33.6551 21.0908H30.8361L30.8149 19.4779L33.9094 19.2474L33.6551 21.0909L33.6551 21.0908Z" fill="#FF9C10"/>
<path d="M33.7239 18.7611C33.6883 18.4992 33.651 18.238 33.5903 17.9812C33.5091 17.6374 33.4053 17.2991 33.2795 16.9695C33.2702 16.9452 33.2563 16.9229 33.2468 16.8987L30.8363 17.9075L30.8581 19.1019L33.724 18.761L33.7239 18.7611Z" fill="#FF9C10"/>
<path d="M32.0765 14.8834C31.5957 15.2469 31.1149 15.6105 30.6341 15.9741C30.6365 16.0784 30.7405 16.1587 30.7692 16.2586C30.8358 16.3987 30.7034 16.5226 30.6215 16.6217C30.5551 16.713 30.6982 16.7596 30.7458 16.8136C30.8505 16.9211 30.7593 17.0895 30.6477 17.152C30.7821 17.2324 30.85 17.3828 30.8795 17.531C31.5994 17.1565 32.3192 16.7821 33.0391 16.4076C32.7808 15.8635 32.4587 15.349 32.0766 14.8834L32.0765 14.8834Z" fill="#FF9C10"/>
<path d="M28.0601 19.0691L29.2682 19.0168L29.2893 18.5348L28.0601 19.0691L28.0601 19.0691Z" fill="#FF9C10"/>
<path d="M28.0593 18.8073L28.0541 18.2627C28.0541 18.2627 29.1984 17.2415 29.4422 17.053C29.4422 17.2625 29.3099 17.4247 29.3099 17.4247V18.2208L28.0593 18.8073L28.0593 18.8073Z" fill="#FF9C10"/>
<path d="M20.6416 14.2202C20.6627 14.2412 21.9258 15.6286 21.9258 15.6286C21.9613 15.4971 22.2525 15.4771 22.5492 15.4981C22.846 15.519 23.0826 15.4784 23.0826 15.6879C23.0826 15.8974 22.932 15.8676 22.932 16.0143C22.932 16.161 23.1576 16.1486 23.1576 16.337C23.1576 16.5255 22.994 16.487 22.9932 16.633C22.9926 16.7537 23.1638 16.7601 23.1638 16.7601L24.3667 17.9123L24.3719 16.6816L21.8921 12.8378L20.6416 14.2203L20.6416 14.2202Z" fill="#FF9C10"/>
<path d="M22.6259 12.7648C22.6447 12.8207 24.3055 16.1596 24.3055 16.1596C24.3055 16.1596 24.3244 13.0259 24.6075 12.8581L24.1357 12L22.6259 12.7648L22.6259 12.7648Z" fill="#FF9C10"/>
<path d="M28.0471 12.4044C27.838 13.127 27.629 13.8495 27.4199 14.5722C27.6154 14.5955 27.8129 14.6017 28.0094 14.5909C28.1861 14.606 28.0484 14.7717 28.0579 14.8697C28.057 15.314 28.0561 15.7585 28.0553 16.2028C28.6461 15.1594 29.2369 14.1159 29.8276 13.0724C29.4201 12.8597 28.9876 12.7018 28.5523 12.5572C28.3863 12.4986 28.2176 12.4478 28.047 12.4044L28.0471 12.4044Z" fill="#FF9C10"/>
<path d="M30.2529 13.3102C29.5221 14.4336 28.7914 15.557 28.0606 16.6804C28.0597 17.1131 28.0588 17.5457 28.0579 17.9784C28.546 17.514 29.0366 17.052 29.5232 16.586C29.6156 16.4552 29.2301 16.3912 29.4228 16.2319C29.5973 16.1768 29.6269 15.8948 29.4431 15.8406C29.2917 15.6182 29.5801 15.5004 29.7619 15.5247C30.015 15.5363 30.2757 15.4696 30.5232 15.5399C30.6594 15.6702 30.785 15.3431 30.9186 15.2695C31.183 15.0036 31.4477 14.7379 31.7091 14.4691C31.2783 14.0201 30.7865 13.6301 30.2529 13.3101L30.2529 13.3102Z" fill="#FF9C10"/>
<path d="M24.5979 26.396C24.0588 26.4264 23.5216 26.7902 23.2699 26.985C23.7219 27.1828 24.2044 27.3372 24.7178 27.4431C25.5358 27.5804 26.3539 27.5794 27.1719 27.5794C27.3055 27.5626 27.4376 27.5436 27.5673 27.5221L29.2906 26.9413C29.2906 26.9413 28.4616 26.3941 27.8045 26.4178C27.1474 26.4415 26.7038 27.0843 26.1739 27.0368C25.644 26.9893 25.4318 26.396 24.6687 26.396C24.6449 26.396 24.6217 26.3946 24.5978 26.396L24.5979 26.396Z" fill="#083D9C" stroke="#083D9C" stroke-width="0.179486"/>
<path d="M21.468 25.951L31.2607 25.9929C31.2607 25.9929 30.413 25.0921 29.4167 25.0712C28.4205 25.0501 28.6961 25.4901 27.933 25.5529C27.17 25.6158 26.9792 25.0921 26.2797 25.113C25.5803 25.1339 25.1775 25.5529 24.6478 25.5739C24.1179 25.5948 23.4396 25.0501 23.0368 25.0712C22.6341 25.0921 21.1927 25.6996 21.1927 25.6996L21.4683 25.9509L21.468 25.951Z" fill="#083D9C" stroke="#083D9C" stroke-width="0.168579"/>
<path d="M20.2175 24.7983L32.2991 24.8403C32.4898 24.568 31.7055 23.9186 30.985 23.8557C30.3913 23.8766 29.9676 24.4632 29.4801 24.4842C28.9925 24.5051 28.4415 23.8766 27.8903 23.8977C27.3393 23.9186 26.767 24.4842 26.2159 24.4842C25.6649 24.4842 25.2621 23.8766 24.5627 23.8766C23.8633 23.8766 23.5453 24.547 23.0154 24.5051C22.4854 24.4632 22.0191 23.8348 21.5105 23.8348C21.0018 23.8348 20.154 24.5889 19.9845 24.547C19.8149 24.5051 20.1963 24.8612 20.2177 24.7983L20.2175 24.7983Z" fill="#083D9C" stroke="#083D9C" stroke-width="0.168579"/>
<path d="M24.8883 23.643L27.5852 23.6414C27.5852 23.6414 26.9814 22.7209 26.2372 22.7844C25.4081 22.8058 24.8883 23.643 24.8883 23.643Z" fill="#083D9C" stroke="#083D9C" stroke-width="0.168579"/>
<path d="M33.4884 23.5785H29.798C29.798 23.5785 30.2756 23.2995 30.4058 23.0421C30.6446 23.1708 30.5795 23.2995 31.0571 23.321C31.5346 23.3424 31.9905 22.7847 32.4465 22.8061C32.9023 22.8276 33.4884 23.5999 33.4884 23.5785L33.4884 23.5785Z" fill="#083D9C" stroke="#083D9C" stroke-width="0.168579"/>
<path d="M18.9453 23.5785H22.6358C22.6358 23.5785 22.1581 23.2995 22.0279 23.0421C21.7892 23.1708 21.8543 23.2995 21.3766 23.321C20.8992 23.3424 20.4432 22.7847 19.9872 22.8061C19.5314 22.8276 18.9453 23.5999 18.9453 23.5785L18.9453 23.5785Z" fill="#083D9C" stroke="#083D9C" stroke-width="0.168579"/>
<path d="M19.2211 22.4319L21.8494 22.4528C21.8494 22.4528 21.6798 22.0968 21.6587 21.6569C20.9802 21.4266 20.4292 22.1596 19.9417 22.1806C19.4543 22.2015 18.9457 21.6569 18.9457 21.6569L19.2212 22.4319L19.2211 22.4319Z" fill="#083D9C" stroke="#083D9C" stroke-width="0.168579"/>
<path d="M33.2527 22.4319L30.6244 22.4528C30.6244 22.4528 30.794 22.0968 30.8152 21.6569C31.4935 21.4266 32.0445 22.1596 32.5321 22.1806C33.0196 22.2015 33.5282 21.6569 33.5282 21.6569L33.2527 22.4319L33.2527 22.4319Z" fill="#083D9C" stroke="#083D9C" stroke-width="0.168579"/>
<path d="M25.5585 22.4529L26.8937 22.4536C26.8937 22.4536 26.915 22.013 26.2154 22.013C25.516 22.013 25.5585 22.4529 25.5585 22.4529Z" fill="#083D9C" stroke="#083D9C" stroke-width="0.168579"/>
<path d="M24.8586 18.1581L27.6354 18.8913V14.974C26.3635 15.0369 25.3039 12.5859 27.5506 12.4184C25.3462 12.1041 25.0918 12.6698 24.8375 13.2772L24.8587 18.1581H24.8586Z" fill="#CE1126" stroke="#630810" stroke-width="0.168571" stroke-linejoin="round"/>
<path d="M25.4756 21.699C24.8716 22.6876 23.2571 22.3944 22.8795 21.7042C22.7664 21.6725 22.8333 17.4461 22.8333 17.4461C22.8333 17.4461 22.6529 17.3649 22.6446 17.2349C22.6363 17.1037 22.8899 17.0918 22.8899 16.9238C22.8899 16.756 22.6309 16.8218 22.6257 16.6528C22.6269 16.4912 22.9022 16.5135 22.8899 16.3642C22.8753 16.1959 22.5815 16.2209 22.569 16.0657C22.5595 15.9425 22.7792 15.8351 22.8402 15.7796L22.6351 15.7767L22.1727 15.786C21.8441 15.7864 22.1783 15.8568 22.1735 16.0442C22.1705 16.1665 22.0069 16.248 21.9923 16.3544C21.9871 16.4636 22.2264 16.5404 22.2294 16.6715C22.2321 16.7885 21.9943 16.7964 22.0029 16.9051C22.0176 17.0891 22.2135 17.1296 22.2106 17.241C22.2076 17.3522 21.947 17.3946 21.9463 17.4834C21.9554 17.6551 21.984 21.8294 21.984 21.8294C22.3992 23.9558 24.7961 24.4967 25.4756 21.6989L25.4756 21.699Z" fill="#CE1126" stroke="#630810" stroke-width="0.168571" stroke-linejoin="round"/>
<path d="M27.0558 21.6989C27.6597 22.6876 29.2742 22.3944 29.6518 21.7042C29.7649 21.6725 29.698 17.4461 29.698 17.4461C29.698 17.4461 29.8784 17.3649 29.8867 17.2349C29.895 17.1037 29.6573 17.0918 29.6573 16.9238C29.6573 16.756 29.9004 16.8217 29.9055 16.6528C29.9045 16.4912 29.6503 16.5031 29.6626 16.3537C29.6771 16.1855 29.8767 16.2051 29.888 16.05C29.8976 15.9164 29.7627 15.8351 29.7017 15.7796L29.8962 15.7767L30.3586 15.786C30.6872 15.7864 30.3529 15.8568 30.3578 16.0442C30.3608 16.1665 30.5244 16.248 30.5391 16.3544C30.5442 16.4636 30.3049 16.5404 30.3019 16.6715C30.2992 16.7885 30.5371 16.7964 30.5284 16.9051C30.5137 17.0891 30.3178 17.1296 30.3208 17.241C30.3237 17.3522 30.5844 17.3946 30.585 17.4834C30.576 17.6551 30.5473 21.8294 30.5473 21.8294C30.1321 23.9558 27.7353 24.4967 27.0558 21.6989L27.0558 21.6989Z" fill="#CE1126" stroke="#630810" stroke-width="0.168571" stroke-linejoin="round"/>
<path d="M24.7531 21.8866C24.9863 21.7608 25.1982 21.6352 25.3466 21.3419L24.4351 21.3628C24.4351 21.3628 24.0114 21.6143 23.7993 21.8866H24.7531L24.7531 21.8866Z" fill="#630810" stroke="#630810" stroke-width="0.243585" stroke-linecap="round"/>
<path d="M27.6989 21.8866C27.4657 21.7608 27.2539 21.6352 27.1055 21.3419L28.0169 21.3628C28.0169 21.3628 28.4407 21.6143 28.6527 21.8866H27.6989L27.6989 21.8866Z" fill="#630810" stroke="#630810" stroke-width="0.243585" stroke-linecap="round"/>
<path d="M23.0996 21.007L29.3736 21.0279L23.0996 21.007Z" fill="#630810"/>
<path d="M23.0996 21.007L29.3736 21.0279" stroke="#630810" stroke-width="0.243585" stroke-linecap="round"/>
<path d="M23.3962 19.5202L24.1381 20.5048L23.3962 19.5202Z" fill="#630810"/>
<path d="M23.3962 19.5202L24.1381 20.5048" stroke="#630810" stroke-width="0.243585" stroke-linecap="round"/>
<path d="M23.3962 20.5044L24.2017 19.5409L23.3962 20.5044Z" fill="#630810"/>
<path d="M23.3962 20.5044L24.2017 19.5409" stroke="#630810" stroke-width="0.243585" stroke-linecap="round"/>
<path d="M23.8204 19.4565L23.7992 20.0639L23.8204 19.4565Z" fill="#630810"/>
<path d="M23.8204 19.4565L23.7992 20.0639" stroke="#630810" stroke-width="0.243585" stroke-linecap="round"/>
</g>
<path d="M11.7035 1.61228C6.53056 2.04084 2.23921 5.77712 1.57724 11.0101C1.25164 13.5841 1 16.6548 1 20C1 23.3452 1.25164 26.4159 1.57724 28.9899C2.23922 34.2229 6.53056 37.9592 11.7035 38.3877C15.5784 38.7087 20.5852 39 26 39C31.4148 39 36.4216 38.7087 40.2965 38.3877C45.4694 37.9592 49.7608 34.2229 50.4228 28.9899C50.7484 26.4159 51 23.3452 51 20C51 16.6548 50.7484 13.5841 50.4228 11.0101C49.7608 5.77712 45.4694 2.04084 40.2965 1.61228C36.4216 1.29127 31.4148 1 26 1C20.5852 1 15.5784 1.29127 11.7035 1.61228Z" stroke="#E6E6FA" stroke-width="2"/>
</svg>
