<svg width="52" height="40" viewBox="0 0 52 40" fill="none" xmlns="http://www.w3.org/2000/svg">
<mask id="mask0_1_29731" style="mask-type:alpha" maskUnits="userSpaceOnUse" x="2" y="2" width="48" height="36">
<path d="M2.56934 11.1356C3.16681 6.41247 7.0415 3.00193 11.7861 2.60887C15.6412 2.28949 20.6196 2 26 2C31.3804 2 36.3588 2.28949 40.2139 2.60887C44.9585 3.00193 48.8332 6.41247 49.4307 11.1356C49.752 13.6759 50 16.704 50 20C50 23.296 49.752 26.3241 49.4307 28.8644C48.8332 33.5875 44.9585 36.9981 40.2139 37.3911C36.3588 37.7105 31.3804 38 26 38C20.6196 38 15.6412 37.7105 11.7861 37.3911C7.0415 36.9981 3.16681 33.5875 2.56934 28.8644C2.248 26.3241 2 23.296 2 20C2 16.704 2.248 13.6759 2.56934 11.1356Z" fill="#00D0BF"/>
</mask>
<g mask="url(#mask0_1_29731)">
<rect x="2" y="29" width="48" height="9" fill="#1C6864"/>
<rect x="2" y="11" width="48" height="9" fill="#75AAFA"/>
<rect x="2" y="20" width="48" height="9" fill="#FCD95E"/>
<rect x="2" y="2" width="48" height="9" fill="#75AAFA"/>
<path d="M45 11.2815L40.3186 11.5551L44.7697 13.031L40.177 12.0836L44.0944 14.6613L39.9034 12.5575L43.0202 16.0612L39.5165 12.9444L41.6203 17.1354L39.0426 13.2179L39.99 17.8107L38.5141 13.3596L38.2405 18.041L38.1823 11.2233L45 11.2815Z" fill="#FCD95E"/>
<path d="M31.3995 11.1651L36.0809 10.8915L31.6298 9.41559L36.2225 10.363L32.3051 7.78533L36.4961 9.88913L33.3793 6.3854L36.883 9.50224L34.7792 5.31119L37.3569 9.22866L36.4095 4.63591L37.8854 9.08704L38.1589 4.40559L38.2172 11.2233L31.3995 11.1651Z" fill="#FCD95E"/>
<path d="M38.159 18.041L37.8854 13.3596L36.4095 17.8107L37.3569 13.2179L34.7793 17.1354L36.8831 12.9444L33.3793 16.0612L36.4962 12.5575L32.3051 14.6613L36.2226 12.0836L31.6298 13.031L36.081 11.5551L31.3995 11.2815L38.2172 11.2233L38.159 18.041Z" fill="#FCD95E"/>
<path d="M38.2405 4.40559L38.5141 9.08704L39.99 4.63592L39.0426 9.22866L41.6202 5.31119L39.5164 9.50224L43.0202 6.3854L39.9033 9.88913L44.0944 7.78533L40.1769 10.363L44.7696 9.41559L40.3185 10.8915L45 11.1651L38.1823 11.2233L38.2405 4.40559Z" fill="#FCD95E"/>
<path d="M38.2405 13.2786C39.3434 13.2786 40.2375 12.3845 40.2375 11.2816C40.2375 10.1787 39.3434 9.28458 38.2405 9.28458C37.1376 9.28458 36.2435 10.1787 36.2435 11.2816C36.2435 12.3845 37.1376 13.2786 38.2405 13.2786Z" fill="#FCD95E" stroke="#00A1DE" stroke-width="0.197952"/>
</g>
<path d="M11.7035 1.61228C6.53056 2.04084 2.23921 5.77712 1.57724 11.0101C1.25164 13.5841 1 16.6548 1 20C1 23.3452 1.25164 26.4159 1.57724 28.9899C2.23922 34.2229 6.53056 37.9592 11.7035 38.3877C15.5784 38.7087 20.5852 39 26 39C31.4148 39 36.4216 38.7087 40.2965 38.3877C45.4694 37.9592 49.7608 34.2229 50.4228 28.9899C50.7484 26.4159 51 23.3452 51 20C51 16.6548 50.7484 13.5841 50.4228 11.0101C49.7608 5.77712 45.4694 2.04084 40.2965 1.61228C36.4216 1.29127 31.4148 1 26 1C20.5852 1 15.5784 1.29127 11.7035 1.61228Z" stroke="#E6E6FA" stroke-width="2"/>
</svg>
