<svg width="52" height="40" viewBox="0 0 52 40" fill="none" xmlns="http://www.w3.org/2000/svg">
<mask id="mask0_1_36014" style="mask-type:alpha" maskUnits="userSpaceOnUse" x="2" y="2" width="48" height="36">
<path d="M2.56934 11.1356C3.16681 6.41247 7.0415 3.00193 11.7861 2.60887C15.6412 2.28949 20.6196 2 26 2C31.3804 2 36.3588 2.28949 40.2139 2.60887C44.9585 3.00193 48.8332 6.41247 49.4307 11.1356C49.752 13.6759 50 16.704 50 20C50 23.296 49.752 26.3241 49.4307 28.8644C48.8332 33.5875 44.9585 36.9981 40.2139 37.3911C36.3588 37.7105 31.3804 38 26 38C20.6196 38 15.6412 37.7105 11.7861 37.3911C7.0415 36.9981 3.16681 33.5875 2.56934 28.8644C2.248 26.3241 2 23.296 2 20C2 16.704 2.248 13.6759 2.56934 11.1356Z" fill="#00D0BF"/>
</mask>
<g mask="url(#mask0_1_36014)">
<rect x="2" y="-4" width="48" height="49" fill="#1C6864"/>
<path fill-rule="evenodd" clip-rule="evenodd" d="M32.9853 27C32.9846 27.0002 32.9835 27.0016 32.983 27.002C32.5322 27.0996 32.5462 27.4941 32.8356 27.6679C28.0753 27.6679 20.7701 27.5997 19.2035 27.5997C18.327 27.5997 15.5541 27.5115 15.5007 27.5115C16.0954 28.2455 16.9568 28.3951 18.0841 28.4101L32.7832 28.388C32.585 28.6851 32.8012 29.1637 32.9566 29.2506C32.9599 29.2524 32.9652 29.2552 32.9685 29.2566C32.9745 29.2594 32.9809 29.2614 32.9876 29.2626C32.9894 29.263 32.9929 29.2624 32.9947 29.2626C33.1793 29.2993 33.2605 29.1865 33.3226 29.1041C33.6221 29.1263 35.3073 29.1469 35.4616 29.1021C35.4621 29.1019 35.4635 29.1003 35.4639 29.1001C35.5682 29.2297 35.6718 29.3521 35.8704 29.3308C36.2178 29.2679 36.4915 29.2361 36.5001 28.6408C36.5001 28.6408 36.4646 27.6266 35.6754 27.6901C35.4887 27.7139 34.9648 27.7583 34.9648 27.7583C34.3585 27.6974 33.9138 27.6912 33.2323 27.6701C33.2952 27.6027 33.4063 27.3297 33.2702 27.2308C33.2348 27.2059 33.1819 27.192 33.1087 27.1967H33.1064C33.1053 27.1967 33.1026 27.1968 33.1016 27.1967C33.1011 27.1966 33.0997 27.1948 33.0993 27.1947C33.0974 27.1941 33.094 27.1936 33.0922 27.1927C33.0878 27.1898 33.0838 27.1864 33.0803 27.1827C33.0795 27.1818 33.0764 27.1796 33.0756 27.1787C33.0411 27.1364 33.0223 27.0325 32.9995 27.0062L32.9972 27.0042C32.9968 27.004 32.995 27.0024 32.9948 27.0022C32.9933 27.0015 32.9917 27.0008 32.9901 27.0002H32.9853L32.9853 27ZM33.3085 28.4503C33.3093 28.45 33.3101 28.4506 33.3109 28.4503C34.0053 28.4789 34.6578 28.4558 35.3523 28.4844C35.4625 28.5633 35.4074 28.7442 35.3357 28.7772C35.3319 28.7788 35.3279 28.7802 35.3239 28.7812C35.3213 28.7818 35.3175 28.7812 35.3144 28.7812C35.3112 28.7812 35.308 28.7818 35.3049 28.7812L34.7226 28.7673C34.7225 28.7577 34.7209 28.7483 34.7179 28.7391C34.6644 28.6052 34.2767 28.6142 34.1855 28.7191C34.1838 28.7211 34.1824 28.723 34.1808 28.7251C34.1789 28.7276 34.1773 28.7303 34.176 28.7332C34.1742 28.7364 34.1727 28.7397 34.1713 28.7431C34.1698 28.7471 34.1695 28.753 34.1689 28.7572C34.1683 28.7625 34.166 28.7681 34.1665 28.7732C33.8623 28.8041 33.5873 28.7646 33.2824 28.7552C33.1937 28.6612 33.2034 28.4912 33.3086 28.4503H33.3085Z" fill="white"/>
<path d="M35.4679 17.4268C35.5639 17.474 35.8166 17.1879 35.8076 16.8286C35.8354 16.6443 35.7362 15.9635 35.4842 15.8481C35.4547 15.8388 35.4236 15.8349 35.3928 15.8388C35.2611 15.8564 35.1365 15.9684 35.1937 16.1518C35.1576 16.2594 35.3724 16.6363 35.428 16.8364C35.4781 16.9788 35.3635 17.3815 35.4677 17.4238L35.4679 17.4268ZM15.58 11.6468C15.8884 11.7822 16.4668 11.7253 16.4424 11.2667C16.4424 11.227 16.4327 11.0899 16.4283 11.0529C16.3969 10.9854 16.3386 10.9599 16.283 10.9686L16.2836 10.9688C16.2273 10.9781 16.1742 11.0208 16.1547 11.0896C16.1423 11.1354 16.1758 11.2113 16.1313 11.2342C16.1057 11.2607 16.0077 11.2435 16.0118 11.1156C16.0118 11.076 15.9795 11.0331 15.9602 11.0076C15.9408 10.9944 15.9276 10.99 15.8922 10.99C15.8495 10.9911 15.8504 11.0031 15.8266 11.0353C15.8161 11.0663 15.8028 11.1024 15.8028 11.1411C15.7976 11.186 15.7781 11.2016 15.7418 11.2081C15.7018 11.2081 15.7106 11.2116 15.6786 11.1905C15.6601 11.1684 15.6367 11.164 15.6367 11.13C15.6367 11.0992 15.627 11.0401 15.6156 11.0176C15.5984 10.9956 15.5719 10.9867 15.5406 10.9779C15.3722 10.9785 15.3599 11.1565 15.3695 11.224C15.3573 11.2372 15.3506 11.552 15.5805 11.6407L15.58 11.6468ZM13.1079 11.6292C13.1551 11.7377 13.061 12.0871 13.1594 12.1194C13.2499 12.1546 13.3745 11.8773 13.4219 11.6205C13.448 11.4798 13.4281 10.9985 13.0728 10.8991C13.0543 10.8956 13.0357 10.8898 13.0165 10.8898C12.8806 10.8863 12.7307 10.9638 12.7892 11.1142C12.7552 11.1962 13.0552 11.4732 13.1079 11.6262V11.6292ZM23.9999 11.7584C24.177 11.3173 24.1778 11.1292 24.1896 10.9421C24.1623 10.7997 24.0949 10.7309 24.0187 10.7366C23.9424 10.7459 23.858 10.8243 23.7891 10.9827C23.7299 11.1035 23.6578 11.7321 23.6695 11.7321C23.6223 11.9195 23.8818 11.9984 23.9999 11.7586V11.7584ZM21.7993 11.6354C21.8868 11.7509 21.973 11.739 22.1484 11.6574C22.2492 11.589 22.2832 11.5449 22.3171 11.4303C22.359 11.238 22.0975 11.5211 22.064 11.3069C22.0056 11.108 22.1725 11.0264 22.3311 10.8339C22.3347 10.7435 22.3364 10.6694 22.2726 10.6672C22.2435 10.6664 22.2001 10.6804 22.139 10.7143C22.002 10.7986 21.7303 11.06 21.7219 11.3601C21.7135 11.5294 21.6791 11.5285 21.7992 11.6366L21.7993 11.6354ZM12.8059 14.6727C13.7062 14.7524 13.2088 13.2702 13.5348 13.0011C13.5963 12.8683 13.7105 12.8657 13.7199 13.032V14.2911C13.7115 14.7002 14.0039 14.8221 14.2307 14.9066C14.4668 14.889 14.6233 14.8934 14.7158 15.1073L14.8283 17.2864C14.8283 17.2864 15.374 17.4305 15.4001 16.0618C15.4261 15.2579 15.2263 14.5833 15.3439 14.427C15.3479 14.2735 15.5618 14.2656 15.7094 14.3405C15.9447 14.4936 16.0491 14.6818 16.4148 14.606C16.9712 14.4649 17.3064 14.2157 17.3146 13.822C17.2824 13.4476 17.2351 13.0732 17.0592 12.6989C17.0835 12.631 16.9527 12.4542 16.9772 12.3858C17.0772 12.5305 17.2283 12.5181 17.2631 12.3858C17.1684 12.0984 17.0209 11.8226 16.7827 11.7034C16.5859 11.5434 16.2977 11.5768 16.1922 11.9107C16.1432 12.2947 16.3433 12.7501 16.6468 13.1222C16.7112 13.2672 16.8015 13.5093 16.7616 13.727C16.6 13.812 16.4399 13.7763 16.3046 13.6449C16.3046 13.6449 15.8617 13.3394 15.8617 13.2715C15.9791 12.5779 15.8868 12.4986 15.822 12.306C15.7766 12.0406 15.6399 11.9563 15.5292 11.7748C15.4184 11.6667 15.2681 11.6667 15.1964 11.7748C15.0007 12.0874 15.0925 12.7595 15.2339 13.0598C15.3361 13.3362 15.4928 13.509 15.419 13.509C15.3582 13.6651 15.2316 13.6289 15.1402 13.4486C15.0097 13.0755 14.9831 12.5199 14.9831 12.2694C14.9444 11.9589 14.9004 11.2953 14.6785 11.1269C14.6194 11.0524 14.5494 11.0268 14.4817 11.0339C14.3946 11.0432 14.3125 11.1085 14.2731 11.1957C14.2586 11.504 14.2568 11.8123 14.2943 12.0964C14.4465 12.5946 14.4946 13.033 14.5685 13.5433C14.5888 14.2269 14.1402 13.8387 14.1607 13.4992C14.2643 13.0591 14.2357 12.366 14.1444 12.1904C14.0714 12.0149 13.987 11.9713 13.8093 12.0004C13.6682 11.991 13.3042 12.3584 13.2024 12.9636C13.2024 12.9636 13.1176 13.2745 13.0805 13.5511C13.0307 13.8637 12.8058 14.0852 12.6493 13.5069C12.514 13.0876 12.4307 12.0535 12.204 12.2955C12.1391 13.1027 12.0621 14.5232 12.8063 14.669L12.8059 14.6727ZM18.6059 13.3029C18.6063 13.3031 18.6078 13.3028 18.6083 13.3029C18.6087 13.3031 18.6101 13.3052 18.6106 13.3052C18.611 13.3054 18.6123 13.3052 18.6129 13.3052L18.6152 13.3076C18.6739 13.3428 19.3955 13.3428 19.4753 13.3099C19.4759 13.3095 19.4772 13.3076 19.4776 13.3076C19.4781 13.3072 19.4797 13.3077 19.48 13.3076C19.4802 13.3074 19.4799 13.3052 19.48 13.3052C19.7279 13.221 20.9047 11.9813 20.9047 11.9813C20.8437 11.9332 20.7876 11.8975 20.7266 11.8494C20.6613 11.797 20.6679 11.7463 20.7266 11.6939C21.0181 11.5377 20.9257 11.1936 20.7735 11.0372C20.6473 10.9852 20.5285 10.9676 20.422 10.9724C20.3242 10.9753 20.2282 10.9997 20.1408 11.0437C19.9364 11.2241 19.8884 11.5134 20.0494 11.6938C20.2061 11.7618 20.3618 11.9072 20.2579 11.9875C19.8143 12.4236 18.6617 13.1524 18.6035 13.2854C18.603 13.2867 18.6022 13.2879 18.6012 13.289C18.601 13.29 18.6012 13.2924 18.6012 13.2936V13.2959C18.6019 13.2972 18.6026 13.2983 18.6035 13.3006L18.6059 13.303V13.3029ZM20.352 11.3597C20.3569 11.3588 20.3612 11.3574 20.3661 11.3574C20.4381 11.3481 20.525 11.4117 20.5677 11.4976C20.6131 11.5893 20.5901 11.6771 20.5161 11.6943C20.442 11.7119 20.346 11.6502 20.3006 11.5585C20.2551 11.4668 20.2781 11.3764 20.3521 11.3596L20.352 11.3597ZM21.9797 14.0304C22.3396 14.1676 22.5681 13.5362 22.7155 12.8448C22.8163 12.6504 22.8933 12.6288 22.9451 12.728C22.9319 13.6476 23.0167 13.8527 23.2732 14.1318C23.8454 14.5387 24.3188 14.1833 24.3559 14.1494L24.8012 13.7389C24.9003 13.6427 25.0314 13.637 25.1714 13.7213C25.3075 13.835 25.2901 14.0321 25.5815 14.1684C25.8268 14.2588 26.3506 14.1904 26.472 13.9955C26.6355 13.7371 26.6751 13.6485 26.7509 13.5506C26.8675 13.4073 27.0673 13.4713 27.0673 13.5198C27.0487 13.5996 26.9313 13.6781 27.011 13.8223C27.1498 13.9179 27.182 13.8532 27.2642 13.8354C27.5545 13.7076 27.7726 13.1271 27.7726 13.1271C27.7854 12.9105 27.6518 12.9273 27.5664 12.9714C27.455 13.0344 27.4482 13.0556 27.3368 13.1182C27.1948 13.1403 26.9198 13.224 26.7837 13.0296C26.6447 12.7963 26.6439 12.4709 26.5377 12.2348C26.5377 12.2172 26.3519 11.8644 26.5235 11.842C26.6102 11.8596 26.7964 11.901 26.8258 11.7577C26.9167 11.618 26.6298 11.2214 26.4344 11.0213C26.2649 10.8497 26.0308 10.829 25.8041 11.0037C25.6454 11.1381 25.6689 11.2889 25.6377 11.4314C25.5976 11.595 25.6051 11.7978 25.7854 12.0145C25.9438 12.302 26.2318 12.672 26.1369 13.1936C26.1369 13.1936 25.9695 13.4415 25.6752 13.4097C25.5527 13.3832 25.3527 13.3361 25.2464 12.6128C25.166 12.0653 25.2663 11.2982 25.0143 10.9391C24.9581 10.8037 24.9085 10.6719 24.8269 10.682C24.7779 10.6855 24.7179 10.745 24.6348 10.8853C24.5752 11.0308 24.3179 11.2513 24.5035 11.706C24.6554 11.994 24.7177 12.4627 24.6488 12.9845C24.5436 13.1326 24.5196 13.1842 24.3817 13.332C24.188 13.5242 23.978 13.4748 23.817 13.4033C23.6664 13.3099 23.5483 13.2618 23.4795 12.965C23.4919 12.4917 23.5214 11.717 23.428 11.5526C23.2896 11.2982 23.0615 11.3894 22.964 11.4661C22.4955 11.8607 22.2641 12.5274 22.1227 13.0577C21.9927 13.4436 21.8543 13.3325 21.7571 13.1764C21.5204 12.9718 21.5038 11.3738 21.2181 11.6366C20.7605 12.8418 21.4807 14.1622 21.9797 14.0338V14.0304ZM20.0942 13.1716C19.8215 13.3074 19.7159 13.711 19.8857 13.9469C20.0444 14.1541 20.2951 14.0788 20.3286 14.0788C20.5958 14.1096 20.7551 13.6166 20.7551 13.6166C20.7551 13.6166 20.763 13.4777 20.4457 13.7396C20.3122 13.7661 20.294 13.7175 20.2606 13.6492C20.2328 13.5209 20.239 13.3908 20.3025 13.263C20.332 13.1862 20.3026 13.1373 20.2393 13.131C20.2017 13.1276 20.1513 13.1404 20.094 13.1707L20.0942 13.1716ZM37.7228 19.3253C37.6643 19.2636 37.5325 19.2988 37.4439 19.2944C37.402 19.2944 37.2627 19.2724 37.3291 19.1626C37.3841 19.0925 37.4044 19.0506 37.4416 18.9637C37.4831 18.8791 37.4465 18.8222 37.2963 18.7759C37.2198 18.7627 37.1669 18.7583 37.1112 18.7583C37.0555 18.7606 36.9969 18.7676 36.9121 18.7759C36.8202 18.7935 36.7881 18.8309 36.7715 18.9333C36.778 19.089 36.8813 19.081 36.987 19.1427C37.0483 19.2146 37.0881 19.2794 36.9821 19.3972L36.7103 19.6132C36.663 19.6873 36.6334 19.802 36.7782 19.8377C37.0455 19.9069 37.664 19.5365 37.664 19.5286C37.7642 19.4594 37.731 19.328 37.7226 19.328L37.7228 19.3253ZM39.6422 12.8193C39.6219 12.6817 39.5559 12.3659 39.5812 12.3247C39.6218 12.228 39.8287 12.334 39.9023 12.2232C40.0102 12.1215 39.3679 11.3639 39.143 11.0398C39.098 10.9587 39.0703 10.8916 39.0305 10.8951C38.9996 10.8975 38.9617 10.9441 38.9039 11.0569C38.7649 11.2672 38.7165 11.6429 38.7727 11.9749C39.1076 14.0622 39.3563 16.0834 39.4078 17.9335C39.3792 18.1089 39.3708 18.2024 39.2812 18.4236C39.0836 18.6569 38.8657 18.9498 38.6603 19.091C38.455 19.2321 38.0181 19.3666 37.8752 19.4711C37.422 19.7127 37.419 19.9901 37.7861 20.0002C38.4177 19.9327 39.1649 19.8851 39.6796 19.1687C39.8173 18.9681 39.9795 18.424 39.9866 18.0911C40.0348 16.1389 39.9597 14.2302 39.6421 12.8193H39.6422ZM12.3057 16.6471L14.6491 15.6105C14.5209 15.4342 14.6412 15.2755 14.1594 15.2627C13.4188 15.2758 12.3343 16.1573 12.3057 16.647V16.6471ZM12.7231 18.8842C12.5283 19.2488 12.4473 18.9993 12.4303 18.7955C12.4007 18.4093 12.4409 18.0536 12.4865 17.7719C12.5108 17.6273 12.5099 17.577 12.4914 17.5775C12.4729 17.5781 12.4354 17.6295 12.386 17.6868C11.9455 18.3337 11.9063 19.2992 12.1493 19.5873C12.2785 19.7236 12.4914 19.783 12.6484 19.7407C12.9252 19.63 13.0468 19.1134 12.9811 18.9244C12.8888 18.7908 12.8155 18.7701 12.7233 18.8848L12.7231 18.8842ZM18.2472 17.9121C18.5681 16.9275 18.2406 16.1848 18.348 16.0937C18.3489 16.0929 18.3517 16.0925 18.353 16.0913C18.3539 16.0907 18.3565 16.0902 18.3578 16.089C18.3589 16.0885 18.3613 16.0866 18.3628 16.0866C18.3673 16.0853 18.3721 16.0845 18.3768 16.0843C18.7728 16.4772 19.3283 16.1341 19.4501 15.9979C19.5023 15.93 19.6329 15.8859 19.7242 15.9714C20.0331 16.176 20.5743 16.0794 20.6874 15.7188C20.7527 15.366 20.8078 15.0028 20.8209 14.626C20.6197 14.6838 20.4575 14.7269 20.3921 14.79C20.3766 14.8076 20.3652 14.821 20.3616 14.8421L20.3101 15.1551C20.3085 15.1645 20.3052 15.1728 20.3009 15.1816C20.2917 15.1948 20.2784 15.2081 20.2634 15.2126C20.1923 15.2478 20.0682 15.2302 20.0618 15.1327C19.9663 14.7319 19.5724 14.6796 19.3331 15.3012C19.1721 15.4216 18.8785 15.4449 18.848 15.266C18.8868 14.8488 18.7042 14.793 18.3395 14.9895L17.988 12.5492C18.1403 12.5457 18.2799 12.6466 18.4192 12.4861C18.2692 12.0539 17.9497 11.1755 17.7701 11.093C17.7687 11.0925 17.7669 11.0919 17.7652 11.0907C17.7572 11.0814 17.7486 11.0726 17.7397 11.0642C17.7359 11.0619 17.7322 11.0595 17.7282 11.0549C17.7249 11.0526 17.7198 11.0514 17.7168 11.0455C17.7093 11.0421 17.7014 11.0362 17.6934 11.0362C17.6775 11.0327 17.6608 11.0327 17.6442 11.0327H17.6443C17.5996 11.0362 17.5502 11.0592 17.492 11.0724C17.3007 11.1288 17.1215 11.281 17.178 11.5778L17.7779 15.0786C17.8127 15.2267 17.6777 15.4225 17.5037 15.4027C17.2079 15.2184 17.135 14.8441 16.6297 14.8607C16.2642 14.8641 15.8475 15.231 15.7955 15.5841C15.7345 15.8645 15.7128 16.1688 15.7955 16.4134C16.0516 16.6978 16.3599 16.6678 16.6297 16.6034C16.8515 16.5192 17.034 16.3177 17.1124 16.3658C17.1127 16.366 17.1145 16.3656 17.1148 16.3658C17.115 16.3661 17.1145 16.3681 17.1148 16.3681C17.1631 16.4462 17.1103 17.105 16.0696 17.6142C15.4301 17.8788 14.921 17.9418 14.6471 17.4608C14.4775 17.1601 14.6595 16.0153 14.2418 16.2794C13.0063 19.2143 17.1361 19.624 17.5974 16.4002C17.6274 16.3094 17.7183 16.2181 17.7826 16.2406C17.8104 16.2538 17.8366 16.2869 17.8459 16.3526C17.7501 19.2714 14.651 19.4714 14.1247 18.5533C13.9942 18.3368 13.9549 17.8551 13.9419 17.5664C13.9181 17.3918 13.8704 17.2907 13.8153 17.2511C13.6904 17.1646 13.5216 17.3913 13.4849 17.7845C13.4326 18.1012 13.4475 18.1875 13.4475 18.493C13.6127 20.7983 17.6009 19.8077 18.249 17.9034L18.2472 17.9121ZM16.7066 15.9173C16.7063 15.9177 16.7068 15.9196 16.7066 15.9196C16.706 15.9206 16.705 15.9231 16.7043 15.9231C16.6734 15.9583 16.564 15.9452 16.4864 15.9452C16.3923 15.9416 16.346 15.9275 16.2895 15.8565C16.2626 15.778 16.3447 15.7008 16.381 15.6426C16.3813 15.642 16.383 15.6414 16.3833 15.6403C16.3882 15.6368 16.3935 15.6271 16.3996 15.6227C16.4278 15.5962 16.4764 15.5768 16.5285 15.5707C16.5386 15.5695 16.5484 15.5683 16.559 15.5683C16.6315 15.569 16.7081 15.5992 16.7487 15.6957C16.7786 15.7708 16.7628 15.8549 16.7068 15.9162L16.7066 15.9173ZM33.805 19.6941L33.1113 19.7628L33.805 19.6941ZM29.8938 13.7159C30.2022 13.8512 30.783 13.7917 30.7585 13.3336C30.7585 13.2939 30.7466 13.1567 30.7422 13.1197C30.7109 13.0518 30.6526 13.0267 30.5969 13.0355C30.5412 13.0448 30.4876 13.0888 30.468 13.1589C30.4556 13.2048 30.4918 13.2784 30.4469 13.3014C30.4212 13.3278 30.3209 13.3107 30.3249 13.1845C30.3249 13.1449 30.2932 13.0999 30.2734 13.0742C30.254 13.0611 30.2408 13.0566 30.2054 13.0566C30.1627 13.0579 30.1636 13.0698 30.1399 13.1021C30.1297 13.133 30.1165 13.1694 30.1165 13.2078C30.1112 13.2527 30.094 13.2683 30.058 13.2749C30.0178 13.2749 30.0249 13.2784 29.9923 13.2573C29.9738 13.2353 29.9504 13.2308 29.9504 13.1969C29.9504 13.166 29.9408 13.1073 29.9292 13.0844C29.9125 13.0624 29.8856 13.0579 29.8543 13.0492C29.6858 13.0498 29.6759 13.226 29.6856 13.2931C29.6733 13.3061 29.6644 13.6241 29.8941 13.7119L29.8938 13.7159ZM34.8668 14.8973C34.872 14.6297 34.9002 14.2741 34.9159 14.0528C34.9226 13.969 34.9437 13.8773 35.0306 13.8562C35.1174 13.8341 35.268 13.9364 35.2697 13.8468C35.2538 13.6766 35.217 13.4257 35.1127 13.3069C35.0593 13.2338 34.9716 13.1944 34.8807 13.1901C34.7292 13.1808 34.568 13.2738 34.5268 13.4644C34.5274 13.5768 34.5819 13.6386 34.5713 13.7404C34.5554 13.7986 34.4902 13.837 34.3346 13.7669C34.3593 13.7448 34.2338 13.583 34.2338 13.583C34.1124 13.5151 33.9503 13.5865 33.8448 13.65C33.7867 13.747 33.7439 13.9141 33.8099 14.0838C33.9842 14.3806 34.5819 14.8867 34.8669 14.8916L34.8668 14.8973ZM32.9449 18.5897C33.1598 18.591 33.4082 18.1368 33.5143 17.6871C33.5724 17.0676 33.4755 16.6906 33.4581 16.3265C33.4404 15.9623 33.0108 13.0083 32.9238 12.7328C32.8188 12.2119 33.3417 12.6639 33.2847 12.3615C33.1039 11.9796 32.6526 11.4228 32.5114 11.0916C32.4583 11.0026 32.4517 10.9205 32.4083 10.9276C32.3823 10.9323 32.3437 10.9673 32.2723 11.0551C32.0959 11.5865 32.0339 12.0207 32.1012 12.3508C32.5543 14.5301 33.0186 16.5155 32.9449 18.59V18.5897ZM31.3328 18.145C30.8368 18.6222 30.1217 19.2104 29.3433 19.4818C29.2595 19.5683 29.5514 19.9378 29.9291 19.9375C30.5607 19.8701 31.1157 19.5433 31.6304 18.6828C31.7681 18.4821 32.01 18.0525 32.0171 17.7195C32.0653 15.7674 31.9109 14.2496 31.593 12.8387C31.5727 12.7011 31.5864 12.5393 31.6115 12.4974C31.6521 12.4523 31.7911 12.4984 31.8646 12.3871C31.9725 12.2857 31.5764 11.4434 31.3514 11.1193C31.3064 11.0381 31.2787 10.9734 31.2389 10.9769C31.2081 10.9793 31.1702 11.0237 31.1123 11.137C30.9732 11.3473 30.8787 11.7126 30.8896 12.0549C31.1908 13.9771 31.2833 15.6593 31.4802 17.5815C31.4961 17.7675 31.4665 18.0374 31.3326 18.1452L31.3328 18.145ZM32.6294 17.3573C32.6357 17.3308 32.6369 17.3308 32.6294 17.3573V17.3573ZM30.102 11.938C30.2121 12.2219 30.018 12.4927 30.1325 12.5319C30.2379 12.576 30.3845 12.2382 30.4395 11.9271C30.503 11.6754 30.308 11.1591 30.0317 11.0526C30.0106 11.0479 29.9881 11.0479 29.9661 11.0432C29.8081 11.0386 29.6333 11.131 29.7013 11.3131C29.6616 11.4127 30.0409 11.7509 30.102 11.935V11.938ZM35.6711 14.8859C35.6626 14.8846 35.6538 14.8854 35.6456 14.8882L34.181 15.8579C34.0393 15.9743 34.1102 16.3823 34.181 16.3352C34.2835 16.3704 35.7224 15.4728 35.6949 15.3676C35.7576 15.3711 35.7877 14.9053 35.6715 14.886L35.6711 14.8859ZM34.665 12.2638C35.0996 12.7566 35.5246 13.2577 35.9399 13.7668C36.0303 14.8392 36.0544 15.8221 36.1461 16.8961C36.1333 17.3556 35.9798 17.9656 35.8345 18.0236C35.8345 18.0236 35.6125 18.1408 35.4643 18.0104C35.3564 17.9707 34.9252 17.3473 34.9252 17.3473C34.7045 17.1608 34.5574 17.2141 34.4004 17.3473C33.9673 17.7327 33.7714 18.4547 33.4771 18.952C33.4013 19.063 33.1875 19.157 32.9499 18.9426C32.461 18.3265 32.5997 17.5004 32.6301 17.3564L32.624 17.3829C32.0864 17.9413 32.3245 18.8664 32.4459 19.0654C32.6231 19.3921 32.7664 19.6013 33.1114 19.7629C33.4256 19.9759 33.6701 19.8431 33.805 19.6941C34.1211 19.392 34.1253 18.6201 34.2737 18.4674C34.3778 18.1865 34.6386 18.235 34.7658 18.3594C34.889 18.5225 35.0346 18.6292 35.2157 18.7178C35.5106 18.9573 35.8625 19.0009 36.2094 18.7827C36.4463 18.6602 36.6001 18.5005 36.7389 18.1866C36.8879 17.8197 36.8142 15.8963 36.7808 14.8262L37.4416 15.7095C37.5375 16.6482 37.581 17.5738 37.5495 18.4609C37.5269 18.6372 38.2173 17.9342 38.2127 17.6013V16.8C38.5476 17.2928 38.8717 17.7938 39.1781 18.301C39.3679 18.2089 39.3029 17.2175 39.183 17.0809C38.8621 16.5847 38.4513 16.0486 38.1332 15.6339C38.0702 15.1097 37.9846 14.4927 37.9457 14.3034C37.8851 14.0085 37.8242 13.5652 37.7324 13.215C37.7073 13.0783 37.6312 12.6415 37.6552 12.5996C37.6926 12.5021 37.8339 12.603 37.9036 12.4893C38.0078 12.3843 37.5424 11.2731 37.3059 10.9559C37.221 10.8135 37.0674 10.8629 36.8771 11.0943C36.7006 11.2464 36.7646 11.5936 36.8326 11.9237C37.0076 12.7649 37.1636 13.6218 37.2872 14.4764L36.5045 13.4182L36.4696 13.2515C36.4696 13.2339 36.4322 12.5633 36.3993 12.4028C36.3932 12.3377 36.3769 12.3191 36.451 12.3275C36.5295 12.3883 36.5401 12.3914 36.5892 12.4117C36.6686 12.4249 36.7379 12.3015 36.69 12.1873L35.9542 10.9347C35.9247 10.9082 35.8916 10.8796 35.8534 10.8743C35.8155 10.8696 35.7736 10.8874 35.7268 10.9496C35.6374 11.022 35.5412 11.1529 35.544 11.3209C35.5657 11.6172 35.623 11.9207 35.6448 12.2171L35.6682 12.3358C35.6425 12.3048 35.6151 12.2752 35.5862 12.2471C34.9593 11.6401 35.8736 12.148 35.4666 11.6791C35.122 11.3303 35.0211 11.2193 34.7261 11.0096C34.5782 10.9214 34.4888 10.753 34.4402 11.0361C34.4217 11.2878 34.401 11.5796 34.4195 11.7921C34.4185 11.9097 34.5511 12.132 34.6655 12.2628L34.665 12.2638ZM38.3 12.7506C38.35 12.8931 38.2237 13.3519 38.3277 13.3942C38.4237 13.4413 38.5588 13.0772 38.6089 12.7398C38.6367 12.5555 38.4883 11.9072 38.2362 11.7917C38.2165 11.7883 38.1962 11.7824 38.1754 11.7824C38.0313 11.7789 37.8742 11.8785 37.9363 12.0761C37.9002 12.1837 38.2438 12.5498 38.2996 12.7499L38.3 12.7506ZM27.3742 19.3944C27.3742 19.4076 27.4949 19.5008 27.6366 19.4209C27.9358 19.3156 28.1222 19.2132 28.5411 19.1295C28.6511 19.1271 28.6447 18.8561 28.4708 18.8468C28.2439 18.86 28.0344 18.8689 27.8075 19.0325C27.668 19.0589 27.644 18.9839 27.613 18.9138C27.5777 18.7397 27.6929 18.6167 27.6693 18.4861C27.6754 18.4908 27.5988 18.4284 27.5005 18.4235C27.4648 18.4223 27.4292 18.4282 27.3975 18.4456C27.3913 18.4456 27.082 18.6378 26.9827 18.7714C26.9221 18.8155 26.929 18.8507 26.9479 18.9248C26.9952 19.025 27.0784 18.9937 27.1729 18.9469C27.2982 18.9293 27.3589 19.0068 27.3486 19.1457C27.2907 19.3186 27.3742 19.3834 27.3742 19.3944ZM28.7886 16.6423L28.7909 16.6399C28.7911 16.6397 28.793 16.6376 28.7932 16.6376C28.7934 16.6374 28.7951 16.6364 28.7955 16.6352V16.6306C28.7958 16.6232 28.795 16.6157 28.7932 16.6086L28.6573 16.5349L25.9788 16.5218C25.9457 16.5086 25.9211 16.4952 25.9062 16.4908C25.9045 16.4893 25.9028 16.4878 25.9012 16.4862L25.8989 16.4839L25.8966 16.4815L25.8942 16.478L25.8919 16.4756V16.4733L25.8896 16.471V16.4616V16.45L25.8919 16.4476L25.8942 16.4442C25.9066 16.4266 25.939 16.4132 25.9786 16.3987C26.6182 16.3185 27.7545 16.147 27.8299 15.1398C27.8176 14.6157 27.5864 14.2717 26.888 14.1764C26.3747 14.2116 26.0088 14.6706 26.0677 15.1743C26.0434 15.3096 26.1176 15.5764 25.9669 15.6059C24.9825 15.6889 23.908 16.2567 23.872 16.6642H23.8696L23.8672 16.6665L23.8623 16.6688H23.8574C23.8551 16.6696 23.8525 16.67 23.8504 16.6711H23.8364C23.8333 16.6705 23.8301 16.67 23.8272 16.6688C23.7631 16.6512 23.6807 16.5551 23.6936 16.4184C23.6562 15.7151 23.4077 14.9191 23.0187 14.3062C22.8799 14.1783 22.8187 14.1268 22.7797 14.1206C22.7784 14.1205 22.7763 14.1206 22.7748 14.1206H22.7603C22.7578 14.1213 22.7556 14.1225 22.7536 14.1241C22.7516 14.1257 22.75 14.1277 22.7488 14.1299C22.7463 14.1311 22.744 14.1322 22.7418 14.1334C22.7118 14.1554 22.6761 14.2022 22.5966 14.2542C22.4623 14.3949 22.4383 14.4928 22.4465 14.7747C22.454 14.8012 22.7013 15.437 22.9105 15.8826C23.0516 16.345 23.1821 16.8748 23.0863 17.3749C22.7559 18.0362 22.0918 18.6293 21.4507 18.9515C21.124 19.0476 20.8421 19.0149 20.7665 18.9491L20.7642 18.9468C20.5767 18.8303 20.5725 18.6245 20.584 18.5883V18.586L20.5863 18.5836C21.1273 18.2362 21.7451 17.9559 22.2289 17.0179C22.3718 16.6594 22.4154 16.4445 22.2734 15.8905C22.2181 15.6842 22.1497 15.5144 21.9969 15.3679L21.9992 15.3656C22.0913 15.3259 22.3302 15.4873 22.3671 15.3876C22.3106 15.123 22.1163 14.7681 21.8961 14.5864C21.7034 14.425 21.4937 14.4064 21.3173 14.5555C21.1186 14.6573 21.0763 15.0234 21.172 15.3437C21.2782 15.5849 21.5652 15.6268 21.7696 16.1125V16.1149C21.7738 16.1414 21.8397 16.4778 21.737 16.6116C21.6534 16.8515 20.5809 17.631 20.5043 17.6784C20.5035 17.6793 20.4981 17.6819 20.4972 17.6831L20.4949 17.6855C20.4941 17.6861 20.4933 17.6866 20.4925 17.6878C20.4918 17.6885 20.491 17.6889 20.4902 17.6901H20.4852C20.4845 17.6894 20.4837 17.6889 20.4829 17.6878V17.6855C20.4819 17.684 20.4812 17.6825 20.4806 17.6808C20.4773 17.6587 20.4831 17.6119 20.4806 17.5317C20.4735 17.3858 20.5391 17.055 20.5344 16.9982V16.9959L20.5321 16.9936V16.9913H20.5298C20.1751 17.202 20.058 17.8494 19.9932 18.0409C19.0952 18.6128 18.0748 19.0382 17.4882 19.6175C17.1823 20.0576 19.5956 19.112 19.8761 18.9976C19.8786 18.9988 19.881 19.0023 19.8831 19.007C19.9364 19.0607 19.941 19.2495 20.101 19.4192C20.3518 19.7323 20.8851 19.9252 21.4039 19.8055C22.2741 19.5158 22.7753 18.9691 23.2857 18.3629C23.3586 18.265 23.473 18.1882 23.5786 18.2637C23.9293 18.9873 24.9404 19.5021 26.2477 19.5552C26.5501 19.2161 26.4055 19.0496 26.2825 18.9785C26.245 18.952 25.6324 18.7351 25.5373 18.5164C25.4774 18.3126 25.6229 18.1318 25.9146 17.9959C26.7539 17.9024 27.579 17.7983 28.3775 17.562C28.3854 17.3146 28.5437 16.945 28.6494 16.7844C28.7228 16.673 28.77 16.6619 28.7876 16.646L28.7886 16.6423ZM26.5794 15.0922C26.5813 15.0829 26.5843 15.079 26.5886 15.0701C26.5901 15.0678 26.5915 15.0667 26.5935 15.0608L26.5958 15.0585C26.5993 15.0538 26.6033 15.0492 26.6073 15.0453C26.624 15.0321 26.6483 15.0233 26.6753 15.0188C26.7336 15.0142 26.8101 15.032 26.8837 15.0709C26.9904 15.1278 27.0563 15.2138 27.0478 15.2763C27.0475 15.2775 27.0482 15.2798 27.0478 15.2857C27.0474 15.2869 27.0437 15.2892 27.0429 15.295L27.0406 15.3043C27.0402 15.3053 27.0387 15.3078 27.0382 15.3078C27.0375 15.309 27.0367 15.3102 27.0359 15.3125C27.0319 15.3172 27.027 15.3257 27.0218 15.3301C26.9706 15.3743 26.8522 15.3654 26.7406 15.3081C26.6349 15.2516 26.5696 15.1652 26.5766 15.1031C26.5769 15.1018 26.5786 15.0995 26.5789 15.0937L26.5794 15.0922ZM25.5086 17.5646C25.2211 17.6555 24.9451 17.7264 24.9439 18.1089C24.9814 18.2985 24.9734 18.3976 24.9416 18.4435C24.9388 18.447 24.9359 18.4528 24.9324 18.4567L24.93 18.4591L24.9277 18.4614C24.927 18.4621 24.9262 18.4626 24.9253 18.4637L24.923 18.466C24.9214 18.4667 24.9197 18.4673 24.9181 18.4684C24.9137 18.4719 24.9089 18.4719 24.904 18.4777C24.9 18.4789 24.8944 18.4789 24.8899 18.48C24.8216 18.4894 24.7224 18.4293 24.6485 18.3936C24.4713 18.2763 23.9741 17.9923 23.9033 17.3828C23.8932 17.2453 24.0049 17.1267 24.1845 17.1152C24.1934 17.1146 24.2008 17.1152 24.2101 17.1152H24.215C24.5133 17.1898 24.9532 17.1977 25.3352 17.2338C25.6462 17.2514 25.7999 17.4763 25.5086 17.5707V17.5646ZM19.2239 16.7224C19.2168 16.8322 19.5527 16.9658 19.573 17.2191C19.621 17.3237 19.5011 17.6587 19.6013 17.6899C19.693 17.7251 19.8203 17.4584 19.8684 17.2105C19.8948 17.0746 19.7531 16.5998 19.5122 16.5151C19.4747 16.5058 19.4359 16.5019 19.3974 16.5058C19.2811 16.5151 19.1772 16.5706 19.224 16.7218L19.2239 16.7224ZM24.622 15.1757C24.9304 15.3111 25.6656 15.2317 25.4867 14.7939C25.4867 14.7542 25.4748 14.6171 25.4704 14.58C25.439 14.5126 25.3808 14.487 25.3251 14.4958C25.2694 14.5051 25.2157 14.5478 25.1962 14.6166C25.1839 14.6625 25.22 14.7383 25.1755 14.7617C25.15 14.7882 25.0496 14.771 25.0536 14.6448C25.0536 14.6052 25.0214 14.5602 25.0021 14.5346C24.9826 14.5214 24.9721 14.5169 24.9365 14.5169C24.8937 14.5182 24.8928 14.5301 24.8685 14.5624C24.8583 14.5933 24.8451 14.6298 24.8451 14.6681C24.8399 14.7131 24.8227 14.7286 24.7866 14.7352C24.7465 14.7352 24.7553 14.7398 24.7233 14.7175C24.7048 14.6955 24.6788 14.691 24.6788 14.6571C24.6788 14.6261 24.6713 14.5676 24.6603 14.5451C24.6435 14.523 24.6138 14.5186 24.5829 14.5099C24.4145 14.5105 24.4046 14.6867 24.4143 14.7537C24.4019 14.7669 24.3931 15.0848 24.6227 15.1726L24.622 15.1757ZM27.2337 12.0454C27.7508 12.686 28.2484 13.3297 28.7289 13.9957C28.8038 14.4901 28.8597 14.9738 28.8953 15.4556C28.9731 16.5118 28.9967 17.8267 28.9257 18.9391C29.1404 18.9484 29.4844 18.6194 29.6053 18.14C29.6838 17.4768 29.5774 16.1234 29.5704 15.732C29.5655 15.5697 29.5546 15.3757 29.5422 15.1726C30.1265 16.0522 30.6715 16.9573 31.1755 17.8852C31.3696 17.8005 31.3265 16.7934 31.213 16.652C30.787 15.807 30.1985 14.9729 30.0109 14.652C29.9431 14.5369 29.7125 14.2129 29.4391 13.84C29.3887 13.3081 29.3341 12.8575 29.2985 12.7213C29.2105 12.1589 29.5492 12.7844 29.5023 12.4576C29.3923 11.896 29.056 11.5144 28.6587 10.9999C28.5307 10.8328 28.5338 10.7984 28.3353 11.0396C28.2171 11.287 28.2187 11.4924 28.2533 11.6854C28.1878 11.5973 28.1182 11.5124 28.0448 11.4309L27.3957 10.9235C27.3058 10.8647 27.1349 10.7735 27.0043 10.785C26.9259 10.7944 26.8636 10.834 26.8403 10.9406C26.8089 11.1915 26.8253 11.3278 26.8707 11.5366C26.9056 11.676 27.1256 11.9088 27.2339 12.0443L27.2337 12.0454ZM28.3286 12.0102C28.3409 12.0645 28.355 12.1187 28.3638 12.1742C28.3933 12.2937 28.4188 12.4123 28.4458 12.5305C28.3322 12.3859 28.238 12.2695 28.1975 12.228C27.9401 11.9458 28.2032 12.0432 28.3287 12.0103L28.3286 12.0102Z" fill="white"/>
</g>
<path d="M11.7035 1.61228C6.53056 2.04084 2.23921 5.77712 1.57724 11.0101C1.25164 13.5841 1 16.6548 1 20C1 23.3452 1.25164 26.4159 1.57724 28.9899C2.23922 34.2229 6.53056 37.9592 11.7035 38.3877C15.5784 38.7087 20.5852 39 26 39C31.4148 39 36.4216 38.7087 40.2965 38.3877C45.4694 37.9592 49.7608 34.2229 50.4228 28.9899C50.7484 26.4159 51 23.3452 51 20C51 16.6548 50.7484 13.5841 50.4228 11.0101C49.7608 5.77712 45.4694 2.04084 40.2965 1.61228C36.4216 1.29127 31.4148 1 26 1C20.5852 1 15.5784 1.29127 11.7035 1.61228Z" stroke="#E6E6FA" stroke-width="2"/>
</svg>
