<svg width="52" height="40" viewBox="0 0 52 40" fill="none" xmlns="http://www.w3.org/2000/svg">
<mask id="mask0_1_35593" style="mask-type:alpha" maskUnits="userSpaceOnUse" x="2" y="2" width="48" height="36">
<path d="M2.56934 11.1356C3.16681 6.41247 7.0415 3.00193 11.7861 2.60887C15.6412 2.28949 20.6196 2 26 2C31.3804 2 36.3588 2.28949 40.2139 2.60887C44.9585 3.00193 48.8332 6.41247 49.4307 11.1356C49.752 13.6759 50 16.704 50 20C50 23.296 49.752 26.3241 49.4307 28.8644C48.8332 33.5875 44.9585 36.9981 40.2139 37.3911C36.3588 37.7105 31.3804 38 26 38C20.6196 38 15.6412 37.7105 11.7861 37.3911C7.0415 36.9981 3.16681 33.5875 2.56934 28.8644C2.248 26.3241 2 23.296 2 20C2 16.704 2.248 13.6759 2.56934 11.1356Z" fill="#00D0BF"/>
</mask>
<g mask="url(#mask0_1_35593)">
<rect x="50" y="20" width="48" height="18" transform="rotate(-180 50 20)" fill="#EE5757"/>
<path fill-rule="evenodd" clip-rule="evenodd" d="M16.3125 4.12284C13.0739 4.73719 10.625 7.58261 10.625 11C10.625 14.4174 13.0739 17.2628 16.3125 17.8772C15.8874 17.9578 15.4486 18 15 18C11.134 18 8 14.866 8 11C8 7.13401 11.134 4 15 4C15.4486 4 15.8874 4.0422 16.3125 4.12284Z" fill="white"/>
<path d="M19.2167 5L19.5534 6.03647H20.6433L19.7616 6.67705L20.0984 7.71353L19.2167 7.07295L18.335 7.71353L18.6718 6.67705L17.7901 6.03647H18.8799L19.2167 5Z" fill="white"/>
<path d="M15.5 8L15.8368 9.03647H16.9266L16.0449 9.67705L16.3817 10.7135L15.5 10.0729L14.6183 10.7135L14.9551 9.67705L14.0734 9.03647H15.1632L15.5 8Z" fill="white"/>
<path d="M17.5 13L17.8368 14.0365H18.9266L18.0449 14.6771L18.3817 15.7135L17.5 15.0729L16.6183 15.7135L16.9551 14.6771L16.0734 14.0365H17.1632L17.5 13Z" fill="white"/>
<path d="M23.5 8L23.8368 9.03647H24.9266L24.0449 9.67705L24.3817 10.7135L23.5 10.0729L22.6183 10.7135L22.9551 9.67705L22.0734 9.03647H23.1632L23.5 8Z" fill="white"/>
<path d="M21.5 13L21.8368 14.0365H22.9266L22.0449 14.6771L22.3817 15.7135L21.5 15.0729L20.6183 15.7135L20.9551 14.6771L20.0734 14.0365H21.1632L21.5 13Z" fill="white"/>
<rect x="50" y="38" width="48" height="18" transform="rotate(-180 50 38)" fill="white"/>
</g>
<path d="M11.7035 1.61228C6.53056 2.04084 2.23921 5.77712 1.57724 11.0101C1.25164 13.5841 1 16.6548 1 20C1 23.3452 1.25164 26.4159 1.57724 28.9899C2.23922 34.2229 6.53056 37.9592 11.7035 38.3877C15.5784 38.7087 20.5852 39 26 39C31.4148 39 36.4216 38.7087 40.2965 38.3877C45.4694 37.9592 49.7608 34.2229 50.4228 28.9899C50.7484 26.4159 51 23.3452 51 20C51 16.6548 50.7484 13.5841 50.4228 11.0101C49.7608 5.77712 45.4694 2.04084 40.2965 1.61228C36.4216 1.29127 31.4148 1 26 1C20.5852 1 15.5784 1.29127 11.7035 1.61228Z" stroke="#E6E6FA" stroke-width="2"/>
</svg>
