<svg width="52" height="40" viewBox="0 0 52 40" fill="none" xmlns="http://www.w3.org/2000/svg">
<mask id="mask0_1_36037" style="mask-type:alpha" maskUnits="userSpaceOnUse" x="2" y="2" width="48" height="36">
<path d="M2.56934 11.1356C3.16681 6.41247 7.0415 3.00193 11.7861 2.60887C15.6412 2.28949 20.6196 2 26 2C31.3804 2 36.3588 2.28949 40.2139 2.60887C44.9585 3.00193 48.8332 6.41247 49.4307 11.1356C49.752 13.6759 50 16.704 50 20C50 23.296 49.752 26.3241 49.4307 28.8644C48.8332 33.5875 44.9585 36.9981 40.2139 37.3911C36.3588 37.7105 31.3804 38 26 38C20.6196 38 15.6412 37.7105 11.7861 37.3911C7.0415 36.9981 3.16681 33.5875 2.56934 28.8644C2.248 26.3241 2 23.296 2 20C2 16.704 2.248 13.6759 2.56934 11.1356Z" fill="#00D0BF"/>
</mask>
<g mask="url(#mask0_1_36037)">
<rect x="2" y="2" width="48" height="36" fill="#2E50A6"/>
<path d="M36.8399 25.3455C36.8399 25.3455 36.6996 25.7156 36.6196 25.7156C36.5396 25.7156 36.2494 25.5557 36.2494 25.5557C36.2494 25.5557 36.0392 25.8961 35.9291 25.9158C35.819 25.9359 35.5288 25.866 35.5288 25.866C35.5288 25.866 35.2486 25.866 35.2386 25.8258C35.2285 25.786 35.2486 25.706 35.2486 25.706C35.2486 25.706 34.8484 26.0259 34.7583 26.0058C34.6682 25.9862 34.368 25.6059 34.368 25.6059L34.318 25.8061L33.7476 25.786L33.2472 25.4656C33.2472 25.4656 32.9671 25.9259 32.957 25.9158C32.947 25.9058 32.4667 26.0259 32.4667 26.0259L32.4367 25.9359L32.1165 25.7458C32.1165 25.7458 32.3667 25.3957 32.3667 25.3857C32.3667 25.3756 32.2466 25.3354 32.2466 25.3354L32.0664 25.4857L31.6962 25.7257L31.3259 25.5557L31.4861 25.2554L31.5061 25.0352L31.7963 24.5951L35.3487 21.1425L37.0999 24.3748L36.8399 25.3455Z" fill="#6A4C2D" stroke="black" stroke-width="0.0418751"/>
<path d="M39.3636 25.5549L40.2882 25.5214L39.8946 25.3271L43.4179 25.1943L42.9201 25.0047L42.4791 24.4071L40.6533 24.2697C40.6533 24.2697 40.516 24.1655 40.2928 24.2174C40.2836 24.0754 40.1127 23.8904 40.1127 23.8904L38.9888 23.8049L38.287 24.284L38.761 25.4979L39.3636 25.5549Z" fill="white" stroke="black" stroke-width="0.0418751"/>
<path d="M35.7657 15.2L35.8587 14.8834C35.8587 14.8834 36.0216 14.6087 36.0216 14.4873C36.0216 14.3663 36.143 14.2222 36.143 14.2222C36.143 14.2222 36.5153 14.115 36.5945 14.3432C36.9952 13.7377 37.4655 14.3152 37.4655 14.3152L37.5957 14.1615L37.8612 13.8357C37.8612 13.8357 38.2385 14.1895 38.2431 14.2498C38.2477 14.3106 38.308 14.2687 38.308 14.2687L38.7179 14.236C38.7179 14.236 38.9122 14.3884 38.8716 14.6782C39.0161 14.7636 39.1463 15.2649 39.1463 15.2649L35.7657 15.2Z" fill="url(#paint0_linear_1_36037)" stroke="black" stroke-width="0.0418751"/>
<path d="M39.364 18.9671C39.4348 18.924 39.6576 18.8532 39.6304 18.5274C39.6031 18.2016 39.3209 18.1635 39.1635 18.1744C39.0056 18.1853 38.8645 18.321 38.8645 18.321L38.3431 17.9897C38.3431 17.9897 38.604 16.344 38.8808 16.241C39.1438 16.0513 39.1903 15.9693 39.1903 15.9261C39.1903 15.8826 39.0927 15.7737 39.0927 15.7737L37.3926 15.5727L35.785 15.7628C35.785 15.7628 35.6602 15.9529 35.6765 16.0291C35.6928 16.1049 35.6983 16.1866 35.986 16.4094C36.3046 16.6543 36.5237 18.0605 36.5237 18.0605C36.5237 18.0605 36.0731 18.2829 36.0459 18.2556C36.0186 18.2288 35.883 18.2016 35.8122 18.2125C35.7418 18.2234 35.5082 18.3427 35.5082 18.6522C35.5082 18.9621 35.7418 19.1413 35.7418 19.1413C35.7418 19.1413 37.2787 18.9621 37.5069 19.3854C37.7297 18.875 39.1903 19.0542 39.364 18.9671Z" fill="#656263" stroke="black" stroke-width="0.0418751"/>
<path d="M41.0198 17.2565C41.0198 17.2565 41.037 17.0777 41.1643 16.9927C41.292 16.9077 42.1425 16.865 42.3469 16.9927C42.5508 17.1204 42.6274 17.7498 42.6274 17.7498C42.6274 17.7498 42.7551 17.9709 42.7635 18.1325C42.7719 18.2941 42.7891 18.4047 42.7891 18.4047C42.7891 18.4047 43.4695 19.2895 43.4779 20.0889C43.5545 20.6333 43.5374 22.0876 43.3251 22.6404C43.3163 23.3296 43.0273 23.7802 43.0273 23.7802C43.0273 23.7802 43.0952 23.8991 43.0868 24.0269C43.078 24.1546 43.0102 24.2735 43.0102 24.2735L44.0051 24.7668L43.6395 24.6307C43.6395 24.6307 44.0139 24.9456 44.0051 24.9372C43.9967 24.9284 43.5885 24.7412 43.5885 24.7412L43.8351 24.9879C43.8267 24.9795 43.2313 24.7157 43.2313 24.7157C43.2313 24.7157 43.5118 24.9795 43.4951 24.9711C43.4779 24.9628 43.0441 24.7584 43.0441 24.7584C43.0441 24.7584 43.3163 25.0478 43.3079 25.0306C43.2995 25.0134 42.9168 24.8606 42.9168 24.8606L42.9335 25.0051C42.9335 25.0051 42.6274 24.9879 42.6274 24.7584C42.4742 24.6734 42.3724 24.5541 42.3724 24.5541L41.6664 24.4351L40.8666 22.0449L41.0538 18.0048L41.1048 17.8009L41.0198 17.2565Z" fill="black" stroke="black" stroke-opacity="0.97854" stroke-width="0.0523439" stroke-linejoin="round"/>
<path d="M40.4855 30.1679C40.4855 30.1679 40.0759 29.3065 39.872 29.2943C39.6877 28.943 40.5123 26.0716 42.1073 25.9079C42.9841 25.9799 42.1793 26.9188 41.6027 26.6298C41.6747 26.8823 41.9628 27.2437 41.9628 27.2437C41.9628 27.2437 40.8217 27.737 40.4855 30.1679Z" fill="#FFBB00" stroke="black" stroke-width="0.0415916"/>
<path d="M34.9948 30.2934C34.9948 30.2934 35.334 29.3127 35.5396 29.3006C35.7457 29.2884 34.9948 26.0322 33.3608 26.0079C32.4771 26.0808 33.2881 27.0247 33.8692 26.7341C33.7966 26.9887 33.5061 27.3517 33.5061 27.3517C33.5061 27.3517 34.6561 27.8479 34.9948 30.2934Z" fill="#FFBB00" stroke="black" stroke-width="0.0418751"/>
<path d="M36.4939 24.1684C36.4897 24.1604 36.0881 24.2944 36.3482 24.7316C36.3679 24.5624 36.5488 24.4598 36.5488 24.4598C36.5488 24.4598 36.2732 24.7869 36.5647 25.0624C36.6003 24.8024 36.7657 24.7199 36.7657 24.7199C36.7657 24.7199 36.5609 25.3224 36.7694 25.4443C36.7933 25.2039 36.9466 25.098 36.9466 25.098C36.9466 25.098 36.7615 25.6373 36.9269 25.7592C36.9466 25.5548 37.0843 25.464 37.0843 25.464C37.0843 25.464 37.0019 26.0234 37.2183 26.0628C37.2225 25.8656 37.38 25.6729 37.38 25.6729C37.38 25.6729 37.3088 26.1294 37.6476 26.1495C37.6518 25.9761 37.7146 25.7793 37.7146 25.7793C37.7146 25.7793 37.8683 26.2634 38.0927 26.1846C38.0889 26.0431 38.0965 25.7751 38.0927 25.7751C38.0885 25.7751 38.2342 26.2357 38.5022 26.1495C38.4629 26.0192 38.5177 25.8656 38.5177 25.8656C38.5177 25.8656 38.6597 26.1532 38.9155 26.0586C38.9591 25.9719 38.9038 25.8027 38.9038 25.8027C38.9038 25.8027 39.2778 26.1888 39.3921 25.9564C39.5064 25.724 39.0927 25.6453 39.0927 25.6453H39.3724C39.3724 25.6453 39.282 25.4091 38.9038 25.3576C39.0336 25.2986 39.1676 25.3421 39.1676 25.3421C39.1676 25.3421 39.0889 25.0465 38.7028 25.0151C38.8527 24.964 39.0181 24.9996 39.0181 24.9996C39.0181 24.9996 38.9666 24.7199 38.5416 24.6411C38.6086 24.5662 38.7895 24.59 38.7895 24.59C38.7895 24.59 38.6203 24.3262 38.4273 24.3417C38.2342 24.3576 36.4897 24.1646 36.4939 24.1684Z" fill="#00713D" stroke="black" stroke-width="0.0418751"/>
<path d="M38.2146 25.59C38.2146 25.59 38.3683 25.665 38.3645 25.732" stroke="#3EC26D" stroke-width="0.0523439" stroke-linecap="round"/>
<path d="M38.3054 25.4681C38.3054 25.4681 38.5022 25.6059 38.4985 25.7081" stroke="#3EC26D" stroke-width="0.0523439" stroke-linecap="round"/>
<path d="M38.4784 25.397C38.4784 25.397 38.6363 25.4954 38.6438 25.6491" stroke="#3EC26D" stroke-width="0.0523439" stroke-linecap="round"/>
<path d="M38.7422 25.4602C38.7422 25.4602 38.8213 25.6294 38.7937 25.6608" stroke="#3EC26D" stroke-width="0.0523439" stroke-linecap="round"/>
<path d="M38.9001 25.5507C38.9118 25.6847 38.8879 25.6964 38.8879 25.6964" stroke="#3EC26D" stroke-width="0.0523439" stroke-linecap="round"/>
<path d="M36.9584 24.7039C36.9584 24.7039 37.1435 24.822 37.128 24.9874" stroke="#3EC26D" stroke-width="0.0523439" stroke-linecap="round"/>
<path d="M36.9467 24.8459C36.9467 24.8459 37.0333 24.9284 37.0137 24.9837" stroke="#3EC26D" stroke-width="0.0523439" stroke-linecap="round"/>
<path d="M37.1753 24.7081C37.1753 24.7081 37.2971 24.8772 37.2578 24.9953" stroke="#3EC26D" stroke-width="0.0523439" stroke-linecap="round"/>
<path d="M37.3838 24.8182C37.3838 24.8182 37.4391 24.9246 37.388 24.9836" stroke="#3EC26D" stroke-width="0.0523439" stroke-linecap="round"/>
<path d="M37.4822 24.8693C37.4822 24.8693 37.5492 24.9757 37.4901 25.0113" stroke="#3EC26D" stroke-width="0.0523439" stroke-linecap="round"/>
<path d="M37.4077 25.2198C37.4077 25.2198 37.5807 25.2591 37.6045 25.389" stroke="#3EC26D" stroke-width="0.0523439" stroke-linecap="round"/>
<path d="M37.5099 25.1017C37.5099 25.1017 37.6912 25.1134 37.7109 25.3065" stroke="#3EC26D" stroke-width="0.0523439" stroke-linecap="round"/>
<path d="M37.7502 25.0347C37.754 25.0347 37.8721 25.2437 37.8524 25.3103" stroke="#3EC26D" stroke-width="0.0523439" stroke-linecap="round"/>
<path d="M37.9827 25.0544C37.9827 25.0544 38.0296 25.2554 37.9944 25.3182" stroke="#3EC26D" stroke-width="0.0523439" stroke-linecap="round"/>
<path d="M38.1321 25.1331C38.1321 25.1373 38.1358 25.3655 38.1358 25.3655" stroke="#3EC26D" stroke-width="0.0523439" stroke-linecap="round"/>
<path d="M37.9039 24.8182C37.9039 24.8182 38.0178 24.8614 38.0099 24.9719" stroke="#3EC26D" stroke-width="0.0523439" stroke-linecap="round"/>
<path d="M38.0099 24.7156C38.0099 24.7156 38.1556 24.7985 38.1401 24.956" stroke="#3EC26D" stroke-width="0.0523439" stroke-linecap="round"/>
<path d="M38.1794 24.649C38.1794 24.649 38.3055 24.7985 38.2582 24.9639" stroke="#3EC26D" stroke-width="0.0523439" stroke-linecap="round"/>
<path d="M38.3997 24.6842C38.3997 24.6842 38.3528 24.8693 38.3721 24.9442" stroke="#3EC26D" stroke-width="0.0523439" stroke-linecap="round"/>
<path d="M38.5338 24.8102C38.5338 24.8102 38.4513 24.8735 38.4944 24.9522" stroke="#3EC26D" stroke-width="0.0523439" stroke-linecap="round"/>
<path d="M37.8173 25.5309C37.8173 25.5309 37.8445 25.6729 37.8173 25.6964" stroke="#3EC26D" stroke-width="0.0523439" stroke-linecap="round"/>
<path d="M37.6359 25.4484C37.6359 25.4484 37.7263 25.6059 37.6949 25.6846" stroke="#3EC26D" stroke-width="0.0523439" stroke-linecap="round"/>
<path d="M37.4429 25.4405C37.4429 25.4405 37.5455 25.5586 37.5413 25.6532" stroke="#3EC26D" stroke-width="0.0523439" stroke-linecap="round"/>
<path d="M37.2854 25.4639C37.2854 25.4639 37.38 25.5548 37.3721 25.6059" stroke="#3EC26D" stroke-width="0.0523439" stroke-linecap="round"/>
<path d="M37.2029 25.6017C37.2029 25.6017 37.2933 25.6963 37.2891 25.716" stroke="#3EC26D" stroke-width="0.0523439" stroke-linecap="round"/>
<path d="M35.244 19.1371C35.6783 19.1291 36.1125 19.1216 36.5468 19.1136C36.5468 19.1136 37.4073 19.1136 37.5003 19.3929C37.6631 19.0207 38.4073 19.0441 38.4073 19.0441C38.857 19.0286 39.3067 19.0131 39.7561 18.9976C39.764 20.083 39.7716 21.1684 39.7795 22.2538C39.5161 23.5172 38.6011 24.4091 37.5932 24.7889C36.3914 24.4012 35.6318 23.3857 35.3839 22.2304C35.337 21.1994 35.2905 20.168 35.244 19.1371Z" fill="white" stroke="black" stroke-width="0.0418751"/>
<path d="M35.708 19.125L37.6054 24.181L39.3193 19.0148C38.7875 19.0492 37.6468 18.9311 37.5053 19.416C37.2859 18.9822 36.0857 19.1572 35.708 19.125Z" fill="#006B00" stroke="black" stroke-width="0.0418751"/>
<path d="M36.9994 21.8623C37.0727 21.9004 37.0706 20.49 37.1665 20.4465C37.1937 20.3297 37.2075 20.2786 37.2418 20.1546C37.1593 20.0085 36.79 20.0156 36.6531 20.14C36.7146 20.3368 36.7419 20.4025 36.7419 20.4025C36.9269 20.7019 36.8901 21.8941 36.9994 21.8623Z" fill="#FFC900" stroke="#006B00" stroke-width="0.0288595" stroke-linecap="round"/>
<path d="M36.491 10.9617C36.491 10.9617 36.6254 10.8094 36.6313 10.7729C36.6376 10.7363 37.2406 10.7119 37.5998 10.0418C37.8008 9.68847 37.5998 9.89558 37.5998 9.89558L37.5877 9.72498C37.5877 9.72498 37.8377 9.48742 37.7464 9.35945C37.6547 9.23154 37.6853 9.52398 37.5391 9.51787C37.393 9.51175 37.4721 9.20108 37.4721 9.20108C37.4721 9.20108 37.46 9.16453 37.4173 9.14625C37.3561 9.15234 37.3746 9.262 37.3197 9.27418C37.2648 9.28637 37.2163 9.01831 37.2163 9.01831C37.2163 9.01831 37.125 8.89647 37.0454 9.28028C37.0881 9.68847 37.3503 9.60924 37.3503 9.87733C37.3503 10.1454 37.1187 10.3525 37.0517 10.3586C36.9847 10.3647 37.009 10.1332 37.009 10.1332C37.009 10.1332 36.9726 10.0235 36.9483 10.0235C36.924 10.0235 37.0823 9.99915 37.058 9.69455C37.0031 9.32902 36.9604 9.77985 36.8628 9.76155C36.7653 9.74329 36.8386 9.4265 36.875 9.38995C36.9114 9.35339 36.8323 9.20109 36.6191 9.59099C36.6007 9.77985 36.5764 9.54225 36.5337 9.55443C36.4608 9.70673 36.473 9.8164 36.5764 9.95652C36.7288 10.0966 36.8264 10.2367 36.8201 10.3099C36.8143 10.383 36.7347 10.5475 36.6254 10.5475C36.5157 10.5475 36.6313 10.3464 36.6254 10.2794C36.6191 10.2124 36.4366 9.9687 36.4366 9.9687C36.4366 9.9687 36.3084 9.76155 36.3206 9.75548C36.3327 9.74936 36.3084 9.71892 36.2477 9.93215C36.1866 10.1454 36.1133 9.79203 36.1133 9.79203C36.1133 9.79203 36.0283 10.054 36.2108 10.2124C36.071 10.1941 36.0588 10.2489 36.0588 10.2489C36.0588 10.322 36.2477 10.3525 36.272 10.4804C36.2963 10.6084 36.0768 10.6815 36.0768 10.6815C36.0768 10.6815 36.1686 10.8094 36.424 10.5596C36.4303 10.718 36.3268 10.8277 36.3268 10.8277C36.4118 10.8663 36.4788 10.8622 36.491 10.9617V10.9617Z" fill="#CDAD56" stroke="black" stroke-width="0.0523439" stroke-linejoin="round"/>
<path d="M35.6552 10.9618C35.6552 10.9618 35.5413 10.7927 35.5363 10.7594C35.5308 10.7262 34.976 10.8015 34.7135 10.1247C34.5427 9.80315 34.7135 9.99163 34.7135 9.99163L34.7238 9.8364C34.7238 9.8364 34.5421 9.61413 34.6197 9.49772C34.6973 9.3813 34.6654 9.64738 34.7652 9.64792C34.8893 9.6424 34.8221 9.35966 34.8221 9.35966C34.8221 9.35966 34.8324 9.32641 34.8687 9.30978C34.9203 9.31531 34.9416 9.4821 34.9881 9.49319C35.0346 9.50429 35.1309 9.29693 35.1611 9.25428C35.2038 9.24818 35.2021 9.0825 35.2695 9.43172C35.2335 9.80315 34.9257 9.73109 34.9257 9.97501C34.9257 10.2189 35.1221 10.4074 35.1791 10.4129C35.236 10.4185 35.2155 10.2078 35.2155 10.2078C35.2155 10.2078 35.2465 10.108 35.267 10.108C35.2879 10.108 35.0861 10.1468 35.107 9.86961C35.1535 9.61011 35.2565 9.88632 35.3395 9.86965C35.4224 9.85303 35.3298 9.59524 35.3537 9.55588C35.3591 9.51652 35.481 9.34747 35.5283 9.72053C35.5438 9.89239 35.6376 9.57263 35.6736 9.58373C35.736 9.72229 35.6464 9.90738 35.5585 10.0349C35.4291 10.1624 35.3704 10.3021 35.3759 10.3686C35.3809 10.4351 35.4115 10.5178 35.5049 10.5178C35.5978 10.5178 35.5363 10.4018 35.5413 10.3409C35.5463 10.2799 35.7017 10.0825 35.7017 10.0825C35.7322 10.0338 35.7067 9.94277 35.7389 9.90068C35.7896 9.90123 35.8105 9.83088 35.8621 10.0249C35.914 10.2189 35.976 9.89737 35.976 9.89737C35.976 9.89737 36.0484 10.1358 35.893 10.2799C36.012 10.2633 36.0224 10.3132 36.0224 10.3132C36.0224 10.3797 35.9659 10.4074 35.945 10.5238C35.924 10.6402 36.0069 10.7067 36.0069 10.7067C36.0069 10.7067 35.9295 10.8231 35.7121 10.5959C35.7067 10.74 35.7951 10.8398 35.7951 10.8398C35.7222 10.8749 35.6657 10.8712 35.6552 10.9618Z" fill="#CDAD56" stroke="black" stroke-width="0.0460166" stroke-linejoin="round"/>
<path d="M39.0026 19.8791C38.8891 19.7761 38.8757 19.8661 38.8201 19.8431C38.7924 19.8318 38.7711 19.8062 38.7472 19.7828C38.7267 19.7614 38.702 19.7526 38.6747 19.7413C38.6643 19.7719 38.6542 19.802 38.6438 19.8326C38.6333 19.8632 38.6727 19.9138 38.6718 19.9595C38.6639 20.0273 38.6362 20.0839 38.5508 20.1069C38.5751 20.0587 38.5889 20.0566 38.5814 19.9976C38.578 19.9683 38.4955 19.9159 38.5056 19.8883C38.5206 19.8435 38.5466 19.792 38.5273 19.7472C38.4926 19.771 38.4465 19.7585 38.4118 19.7731C38.382 19.7861 38.3804 19.841 38.3393 19.8636C38.2975 19.8833 38.2049 19.8736 38.1274 19.8297C38.1748 19.7941 38.2137 19.8179 38.261 19.7824C38.2845 19.7643 38.2836 19.6877 38.3071 19.6697C38.331 19.6517 38.3875 19.6329 38.4109 19.6148C38.3896 19.5906 38.3908 19.5525 38.3695 19.5282C38.3485 19.5039 38.2543 19.5089 38.233 19.485C38.1903 19.4365 38.1986 19.3728 38.1559 19.3247C38.266 19.364 38.2501 19.4176 38.2778 19.4134C38.3297 19.3883 38.3816 19.3837 38.4088 19.395C38.4365 19.4067 38.4884 19.4746 38.5156 19.4859C38.5261 19.4553 38.5412 19.4168 38.5512 19.3862C38.5617 19.3556 38.5052 19.3029 38.5152 19.2723C38.5361 19.2116 38.5872 19.1576 38.6077 19.0964C38.6153 19.1555 38.6249 19.2049 38.6325 19.2635C38.6362 19.2928 38.694 19.3083 38.6978 19.3376C38.7015 19.3674 38.6676 19.4352 38.671 19.4649C38.7028 19.4587 38.7484 19.4628 38.7799 19.4566C38.8117 19.4503 38.8326 19.377 38.864 19.3707C38.9273 19.3582 38.9729 19.3619 39.037 19.3741C38.9897 19.418 38.9532 19.4151 38.9235 19.4553C38.9 19.4733 38.9327 19.5324 38.8644 19.5738C38.8389 19.5889 38.7715 19.5709 38.7476 19.5889C38.769 19.6132 38.7903 19.637 38.8117 19.6613C38.8326 19.6856 38.9281 19.6969 38.9495 19.7212C38.9917 19.7694 39.0144 19.8272 39.0026 19.8791Z" fill="#FFC900"/>
<path d="M36.0852 19.9289C36.1987 19.8259 36.2121 19.916 36.2682 19.8929C36.2955 19.8812 36.3168 19.8557 36.3407 19.8326C36.3612 19.8113 36.3859 19.8025 36.4131 19.7908C36.4236 19.8213 36.4341 19.8519 36.4441 19.8825C36.4546 19.913 36.4156 19.9633 36.4165 20.0089C36.424 20.0772 36.4516 20.1333 36.5371 20.1567C36.5128 20.1086 36.499 20.1061 36.5065 20.0475C36.5103 20.0181 36.5923 19.9658 36.5823 19.9377C36.5672 19.8934 36.5413 19.8414 36.5605 19.7966C36.5957 19.8209 36.6413 19.8083 36.6765 19.8226C36.7058 19.836 36.7079 19.8908 36.7485 19.9135C36.7908 19.9331 36.8834 19.9235 36.9604 19.8795C36.9131 19.8435 36.8742 19.8678 36.8268 19.8318C36.8034 19.8142 36.8047 19.7372 36.7808 19.7196C36.7573 19.7016 36.7008 19.6823 36.6769 19.6643C36.6983 19.6404 36.697 19.6019 36.7184 19.5776C36.7397 19.5537 36.834 19.5588 36.8549 19.5345C36.8976 19.4863 36.8897 19.4227 36.932 19.3741C36.8218 19.4135 36.8382 19.4671 36.8105 19.4633C36.7582 19.4382 36.7062 19.4331 36.679 19.4449C36.6518 19.4562 36.5995 19.524 36.5722 19.5357C36.5618 19.5052 36.5471 19.4666 36.5367 19.4361C36.5262 19.4055 36.5831 19.3527 36.5727 19.3222C36.5521 19.261 36.5006 19.2074 36.4801 19.1463C36.4726 19.2049 36.463 19.2543 36.4554 19.3134C36.4516 19.3427 36.3939 19.3582 36.3901 19.3875C36.3867 19.4168 36.4207 19.4851 36.4169 19.5144C36.3851 19.5081 36.3394 19.5123 36.308 19.5064C36.2766 19.4997 36.2557 19.4264 36.2238 19.4202C36.1606 19.4076 36.1154 19.4114 36.0509 19.4235C36.0982 19.4679 36.1347 19.4646 36.1644 19.5052C36.1878 19.5232 36.1552 19.5822 36.2234 19.6237C36.249 19.6388 36.3168 19.6207 36.3403 19.6388C36.3189 19.6626 36.2975 19.6869 36.2766 19.7112C36.2553 19.7355 36.1598 19.7468 36.1388 19.7707C36.0961 19.8192 36.0735 19.877 36.0852 19.9289Z" fill="#FFC900"/>
<path d="M38.901 20.2049C38.798 20.2849 38.1342 20.4528 38.1271 21.0295C38.1204 21.6061 38.2435 21.7376 38.1204 21.7522C37.8809 21.7522 37.8466 21.1099 37.8533 20.8251C37.8604 20.5404 37.8671 20.5843 37.8671 20.5843C37.8671 20.5843 38.0312 20.6279 38.0178 20.7669C38.004 20.9055 38.182 20.4235 38.1204 20.2924C38.2297 20.4017 38.3738 20.3582 38.3738 20.3507C38.3738 20.3435 38.2917 20.256 38.2574 20.1903C38.223 20.1245 38.3805 20.2267 38.3805 20.2267C38.3805 20.2267 38.3872 20.117 38.2502 20.1245C38.0723 20.1245 38.2779 20.0659 38.2779 20.0659C38.2779 20.0659 38.3805 20.161 38.4491 20.0588C38.3738 19.9784 38.2641 19.9344 38.2641 19.9344C38.2641 19.9344 38.1682 19.7523 38.0384 19.7158C37.8876 19.679 37.9081 19.7812 37.7369 19.7669C37.7029 19.8322 37.7029 19.8398 37.7712 19.8616C37.6548 19.942 37.7163 20.1023 37.7163 20.1023C37.7163 20.1023 37.9014 20.0224 37.8943 20.1534C37.8876 20.2849 37.785 20.2631 37.7163 20.1827C37.6548 20.1463 37.6343 20.2192 37.6343 20.2192L37.7302 20.3213C37.7302 20.3213 37.5455 20.3142 37.4973 20.4382C37.5999 20.4311 37.6548 20.4604 37.6548 20.4604C37.6548 20.4604 37.4425 20.555 37.422 20.6061C37.4014 20.6572 37.3947 20.5479 37.388 20.5479C37.3809 20.5479 37.1824 20.4746 37.1824 20.4746L37.1138 20.7903C37.1138 20.7903 37.2511 20.9273 37.3261 20.8833C37.4014 20.8398 37.5384 20.7083 37.6204 20.7447C37.3809 20.9273 37.1414 21.1898 37.0112 21.2267C36.9772 21.1974 36.8608 21.0805 36.8127 21.1387C36.7649 21.1974 36.7993 21.2702 36.8608 21.2631C36.9224 21.2556 36.6623 21.3213 36.7168 21.431C36.7716 21.5403 36.7649 21.5332 36.8127 21.5039C36.8608 21.4746 36.7716 21.4675 36.9496 21.4164C37.1276 21.3653 37.1209 21.3142 37.1209 21.3142C37.1209 21.3142 37.0865 21.3942 36.9906 21.4164C36.8947 21.4382 36.8198 21.4382 36.8403 21.4675C36.8608 21.4964 36.9019 21.5474 36.888 21.5768C36.8742 21.6061 37.0865 21.4235 37.1414 21.5696C37.285 21.5621 37.3809 21.3871 37.3127 21.2849C37.3194 21.3942 37.388 21.431 37.3466 21.4821C37.3055 21.5332 37.6686 21.3142 37.4906 21.1827C37.5384 21.292 37.5455 21.3799 37.5455 21.3799C37.5455 21.3799 37.6276 21.3724 37.6481 21.3431C37.6686 21.3142 37.607 21.4235 37.6343 21.4453C37.6615 21.4675 37.7917 21.5914 37.7369 21.6789C37.7029 21.6278 37.6958 21.5474 37.6548 21.555C37.6137 21.5621 37.4425 21.6865 37.3399 21.6936C37.2373 21.7007 37.463 22.0734 37.463 22.0734C37.463 22.0734 37.3055 22.0512 37.285 22.0659C37.2645 22.0805 37.1619 21.9344 37.1414 22.0223C37.1071 22.1316 37.1757 22.0876 37.1757 22.0876C37.1757 22.0876 37.0865 22.0441 37.0388 22.0952C36.9906 22.1463 36.9429 22.1973 36.9772 22.2191C37.0112 22.2409 37.1619 22.2409 37.1824 22.2338C37.2029 22.2267 37.0112 22.2484 36.9978 22.2702C36.9839 22.292 36.9567 22.3724 36.9978 22.4017C37.0388 22.431 37.1414 22.387 37.1481 22.3653C37.1552 22.3431 37.1619 22.4452 37.1619 22.4452C37.1619 22.4452 37.3399 22.4599 37.3399 22.2777C37.3399 22.0952 37.3537 22.4088 37.3537 22.4088C37.3537 22.4088 37.5317 22.4381 37.5384 22.2556C37.5455 22.0734 37.5589 22.3799 37.5589 22.3799C37.5589 22.3799 37.6753 22.3431 37.6753 22.3142C37.6753 22.2849 37.6686 22.6789 37.5865 22.7886C37.4563 22.7007 37.3742 22.8468 37.3742 22.8468C37.3742 22.8468 37.3809 23.0583 37.3671 23.1094C37.3537 23.1605 37.4563 23.0805 37.463 23.0583C37.4701 23.0365 37.5932 22.9783 37.5999 22.9637C37.607 22.949 37.641 22.8761 37.641 22.8761C37.641 22.8761 37.6137 22.9783 37.566 22.993C37.5178 23.0072 37.4701 23.0583 37.4906 23.1023C37.5111 23.1462 37.5865 23.1751 37.6137 23.2191C37.641 23.2627 37.7369 22.9637 37.7369 22.9637L37.744 23.0294C37.744 23.0294 37.8671 23.0001 37.8809 22.9419C37.8943 22.8833 37.7507 22.8322 37.8671 22.7375C37.9835 22.6425 37.8671 22.8251 37.8671 22.8251C37.8671 22.8251 37.9081 22.9637 37.9353 22.9637C37.963 22.9637 38.0312 22.7007 37.963 22.6354C37.8943 22.5696 38.0656 22.7153 38.0656 22.7153C38.0656 22.7153 38.1615 22.4453 38.0589 22.4088C37.9559 22.3724 37.9081 22.3577 37.9081 22.3577C37.9081 22.3577 37.963 22.2849 37.9353 22.2777C37.9081 22.2702 38.0794 22.4381 38.1066 22.3942C38.1342 22.3506 38.1753 22.2191 37.9768 22.1463C37.7779 22.0734 37.9697 21.8686 37.9697 21.8686C37.9697 21.8686 38.0932 22.0148 38.182 21.9344C38.2708 21.8544 38.1753 21.8544 38.1753 21.8544C38.1753 21.8544 38.4282 21.6936 38.4353 21.6132C38.3872 21.6061 38.3051 21.6207 38.3051 21.6207C38.3051 21.6207 38.4491 21.5257 38.4148 21.3724C38.36 21.4528 38.2846 21.4528 38.2846 21.4528C38.2846 21.4528 38.4081 21.3289 38.3872 21.212C38.3122 21.2702 38.3189 21.3142 38.2708 21.2995C38.223 21.2849 38.1409 20.8251 38.3327 20.7958C38.5241 20.7669 38.4215 21.0223 38.4282 21.0223C38.4353 21.0223 38.7159 20.9055 38.4282 20.7158C38.4969 20.6936 38.6405 20.8251 38.6405 20.8251C38.6405 20.8251 38.579 20.5039 38.2708 20.7012C38.3461 20.6208 38.3943 20.5697 38.4558 20.5843C38.5174 20.599 38.7364 20.5768 38.7364 20.5115C38.682 20.4675 38.5656 20.5332 38.5036 20.5115C38.442 20.4893 38.942 20.4528 38.901 20.2049Z" fill="#FFC900" stroke="#006B00" stroke-width="0.0288595" stroke-linecap="round" stroke-linejoin="round"/>
<path d="M36.7305 20.3943C36.7305 20.3943 37.0044 20.241 37.1412 20.431" stroke="#006B00" stroke-width="0.0288594" stroke-linecap="round"/>
<path d="M37.2509 20.7228C37.244 20.7228 37.155 20.8177 37.1344 20.8177" stroke="#006B00" stroke-width="0.0288594" stroke-linecap="round"/>
<path d="M37.4358 21.0293C37.4358 21.0293 37.6889 21.0513 37.8533 20.7812" stroke="#006B00" stroke-width="0.0288594" stroke-linecap="round"/>
<path d="M37.7095 20.949C37.7095 20.949 37.73 21.0952 37.7712 21.0952C37.8121 21.0952 37.7028 21.1316 37.6616 21.1023C37.7095 21.1681 37.737 21.2849 37.6616 21.3285" stroke="#006B00" stroke-width="0.0288594" stroke-linecap="round"/>
<path d="M37.5793 22.7884C37.5793 22.7884 37.4903 22.8904 37.3807 22.8978L37.5793 22.7884Z" fill="#E80000"/>
<path d="M37.5793 22.7884C37.5793 22.7884 37.4903 22.8904 37.3807 22.8978" stroke="#006B00" stroke-width="0.0288594" stroke-linecap="round"/>
<path d="M37.6822 22.3211C37.6822 22.3211 37.6274 22.0294 37.6616 21.9562C37.6822 21.8613 37.7712 21.8248 37.8396 21.7009" stroke="#006B00" stroke-width="0.0288594" stroke-linecap="round"/>
<path d="M37.6546 22.1095C37.6546 22.1095 37.5862 22.2847 37.285 22.2263" stroke="#006B00" stroke-width="0.0288594" stroke-linecap="round"/>
<path d="M37.737 21.6716C37.737 21.6716 37.7573 21.9052 37.4836 21.8177" stroke="#006B00" stroke-width="0.0288594" stroke-linecap="round"/>
<path d="M37.4013 20.6207C37.4013 20.6207 37.2917 20.7228 37.3328 20.8615" stroke="#006B00" stroke-width="0.0288594" stroke-linecap="round"/>
<path d="M37.8121 20.3652C37.8121 20.3652 37.9559 20.3068 37.9834 20.2775C38.0107 20.2484 38.0588 20.19 38.0724 20.1461C38.086 20.1025 37.9765 20.0367 38.0313 19.9419C38.0655 19.8981 38.1133 19.8908 38.1956 19.9419C38.2777 19.9928 38.1203 19.7813 38.0382 19.774C37.9559 19.7667 37.9011 19.8324 37.8808 19.8178C37.8602 19.8032 37.8875 19.8762 37.8533 19.8762C37.8191 19.8762 37.9217 19.9346 37.915 19.9712C37.9081 20.0076 38.0243 20.1316 38.0176 20.1609C38.0107 20.19 37.8463 20.3578 37.8121 20.3652Z" fill="#006B00"/>
<path d="M37.9149 19.8835C37.9773 19.8683 37.9874 19.8851 37.9764 19.9418C37.9471 19.9261 37.9364 19.9128 37.9149 19.8835Z" fill="#FFC900" stroke="#FFC900" stroke-width="0.0288594" stroke-linecap="round" stroke-linejoin="round"/>
<path d="M37.4776 23.1353C37.4776 23.1353 37.4545 23.2881 37.5109 23.3007C37.508 23.2416 37.5229 23.2013 37.5368 23.1856C37.5247 23.1796 37.4802 23.1362 37.4776 23.1353Z" fill="#E80000" stroke="#006B00" stroke-width="0.0288594" stroke-linejoin="round"/>
<path d="M37.3506 22.9472C37.2987 22.9393 37.2113 22.9851 37.2363 23.0404C37.2786 23.0018 37.3175 23.0435 37.347 23.0041C37.356 22.9932 37.3535 22.961 37.3506 22.9472Z" fill="#E80000" stroke="#006B00" stroke-width="0.0288594" stroke-linejoin="round"/>
<path d="M37.3501 22.838C37.3501 22.838 37.2685 22.8241 37.2571 22.8845C37.3134 22.8768 37.3302 22.8704 37.349 22.883C37.3543 22.8702 37.3492 22.8411 37.3501 22.838Z" fill="#E80000" stroke="#006B00" stroke-width="0.0288594" stroke-linejoin="round"/>
<path d="M37.0043 21.9772C37.0043 21.9772 37.0532 21.9967 37.0671 22.0501C37.106 22.0244 37.1246 21.9111 37.0043 21.9772Z" fill="#E80000" stroke="#006B00" stroke-width="0.0230875" stroke-linejoin="round"/>
<path d="M36.8831 22.1071C36.8851 22.1061 36.9857 22.041 36.996 22.1033C36.9747 22.1259 36.9653 22.1407 36.9488 22.1457C36.9358 22.1457 36.9099 22.1033 36.8831 22.1071Z" fill="#E80000" stroke="#006B00" stroke-width="0.0230875" stroke-linejoin="round"/>
<path d="M36.8729 22.318C36.8747 22.3171 36.9375 22.258 36.9617 22.2973C36.9856 22.3369 36.9422 22.3347 36.9422 22.3347C36.9422 22.3347 36.9201 22.324 36.8729 22.318Z" fill="#E80000" stroke="#006B00" stroke-width="0.0230875" stroke-linejoin="round"/>
<path d="M36.7842 21.1433C36.7833 21.1433 36.7037 21.1106 36.6704 21.1697C36.7232 21.1766 36.7417 21.1964 36.7657 21.2162C36.7592 21.1914 36.7482 21.154 36.7842 21.1433Z" fill="#E80000" stroke="#006B00" stroke-width="0.0230875" stroke-linejoin="round"/>
<path d="M36.6299 21.5857C36.6299 21.5857 36.6335 21.4863 36.6777 21.4458C36.7028 21.4606 36.7102 21.4842 36.7269 21.5137C36.6936 21.5216 36.6491 21.5238 36.6299 21.5857Z" fill="#E80000" stroke="#006B00" stroke-width="0.0230875" stroke-linejoin="round"/>
<path d="M36.8424 21.5147C36.8424 21.5147 36.7547 21.5581 36.7833 21.6055C36.812 21.5729 36.8435 21.5829 36.8435 21.5819C36.8435 21.581 36.8435 21.5159 36.8424 21.5147Z" fill="#E80000" stroke="#006B00" stroke-width="0.0230875" stroke-linejoin="round"/>
<path d="M36.7157 20.5626C36.6842 20.6002 36.7546 20.682 36.8284 20.6701C36.847 20.5814 36.7343 20.5351 36.7157 20.5626Z" fill="#FFC900" stroke="#006B00" stroke-width="0.0230875" stroke-linejoin="round"/>
<path d="M36.7971 20.4946C36.7971 20.4946 36.811 20.5647 36.8747 20.5459C36.8646 20.4918 36.8201 20.4512 36.8201 20.4512C36.8175 20.4672 36.8293 20.4918 36.7971 20.4946Z" fill="#E80000" stroke="#006B00" stroke-width="0.0230875" stroke-linejoin="round"/>
<path d="M36.8396 20.6977C36.8396 20.6977 36.8747 20.738 36.944 20.6553C36.9127 20.6651 36.8573 20.6355 36.8573 20.6355C36.8573 20.6355 36.8573 20.6927 36.8396 20.6977Z" fill="#E80000" stroke="#006B00" stroke-width="0.0230875" stroke-linejoin="round"/>
<path d="M36.7117 20.4019C36.6804 20.4394 36.7249 20.4916 36.7987 20.4799C36.8172 20.3912 36.7302 20.3745 36.7117 20.4019Z" fill="#FFC900" stroke="#006B00" stroke-width="0.0230875" stroke-linejoin="round"/>
<path d="M36.7414 20.0516C36.7414 20.0516 37.0362 19.9675 37.1928 20.0939C37.349 20.22 37.349 20.1057 37.349 20.1057C37.349 20.1057 37.5776 20.1898 37.6438 20.1718C37.71 20.1538 37.5956 20.1781 37.6857 20.1237C37.7761 20.0696 37.5052 20.1358 37.4813 20.0215C37.439 19.9495 37.4872 19.859 37.3913 19.8892C37.3251 19.805 37.4332 19.7451 37.4093 19.6547C37.3431 19.7028 37.3067 19.6367 37.2527 19.7568C37.1266 19.733 37.2347 19.5584 37.0965 19.5403C37.0965 19.6668 36.9943 19.6727 36.988 19.7451C36.9282 19.787 36.6635 19.9436 36.7414 20.0516Z" fill="url(#paint1_linear_1_36037)"/>
<path d="M33.3497 29.6393C33.5409 29.5933 34.5769 29.8684 34.9764 30.2964C34.8914 29.5338 34.6803 28.9497 34.6803 28.9497C34.6803 28.9497 34.0629 28.7734 33.9782 28.8584C33.8539 28.989 33.4805 29.3814 33.3497 29.6393Z" fill="#C01500" stroke="black" stroke-width="0.0418751"/>
<path d="M33.0339 26.1168C32.9613 26.129 32.8887 26.1775 32.816 26.2986C32.7313 26.5042 32.6708 27.0247 32.5497 27.1457C32.4287 27.2667 32.3197 27.2789 32.3197 27.3882C32.3197 27.497 32.3318 27.7512 32.6587 27.8479C32.9855 27.8601 33.5061 27.3274 33.5061 27.3274C33.5061 27.3274 33.7724 27.0368 33.8813 26.7223C33.2518 26.9401 32.8039 26.3589 33.0339 26.1168Z" fill="#C01500" stroke="black" stroke-width="0.0418751"/>
<path d="M42.1379 29.5179C41.9482 29.4723 40.9005 29.7457 40.5039 30.1712C40.5881 29.4133 40.7979 28.832 40.7979 28.832C40.8712 28.8123 41.4038 28.657 41.488 28.7416C41.6111 28.8714 42.0081 29.2617 42.1379 29.5179Z" fill="#C01500" stroke="black" stroke-width="0.0415916"/>
<path d="M42.4314 26.0159C42.5035 26.0281 42.529 26.1227 42.588 26.2433C42.6718 26.4477 42.7585 26.7458 42.8787 26.866C42.9988 26.9866 43.1069 27.1646 43.1069 27.273C43.1069 27.3815 43.0817 27.5276 42.7572 27.6239C42.4331 27.6361 41.9628 27.2194 41.9628 27.2194C41.9628 27.2194 41.6986 26.9309 41.5906 26.6177C42.2154 26.8346 42.6199 26.2768 42.4314 26.0159Z" fill="#C01500" stroke="black" stroke-width="0.0415916"/>
<path d="M32.6708 28.974C32.6708 28.974 33.3244 29.4216 33.3366 29.6276C35.092 27.0247 39.571 26.2136 42.1249 29.4459C42.4641 28.9978 42.815 28.8529 42.815 28.8529C40.1279 25.3421 34.7771 25.778 32.6708 28.974Z" fill="#FFBB00" stroke="black" stroke-width="0.0418751"/>
<path d="M39.3301 19.0156L39.586 19.0093L39.1291 19.5881L39.6773 20.2279L38.599 21.5863L39.6166 22.8108C39.5048 23.085 39.3749 23.3346 39.202 23.5603L38.6174 22.9142L39.6773 21.5926L38.8063 20.6056L39.3301 19.0156Z" fill="#1E5AA6" stroke="black" stroke-width="0.0418751"/>
<path d="M35.6749 19.1312L35.4006 19.1375L35.9123 19.6915L35.3705 20.3678L36.4973 21.5926L35.5652 22.8414C35.677 23.1156 35.8374 23.4201 36.0099 23.6454L36.5643 22.9448L35.4253 21.6777L36.2599 20.6178L35.6749 19.1312Z" fill="#1E5AA6" stroke="black" stroke-width="0.0418751"/>
<path d="M36.942 22.4209L36.54 22.9569L37.9776 24.6202C38.2314 24.492 38.4307 24.3459 38.648 24.1696L37.8985 23.3045L38.2033 22.4088L38.6418 22.9142L37.2712 24.6629C37.0417 24.5653 36.7879 24.4129 36.5585 24.224L37.2833 23.3045L36.942 22.4209Z" fill="#1E5AA6" stroke="black" stroke-width="0.0418751"/>
<path d="M36.4973 21.5863L36.7595 21.9155L36.5886 21.4708L36.4973 21.5863Z" fill="#1E5AA6" stroke="black" stroke-width="0.0418751"/>
<path d="M38.3738 21.8773C38.3792 21.8711 38.5852 21.5968 38.5852 21.5968L38.5053 21.4875L38.3738 21.8773Z" fill="#1E5AA6" stroke="black" stroke-width="0.0405556"/>
<path d="M33.6578 29.3251L33.7761 29.1863L33.8286 29.2311L33.6546 29.4352L33.3374 29.1648L33.3931 29.0995L33.6578 29.3251Z" fill="black"/>
<path d="M33.9128 28.8608L33.797 28.9782L33.8765 29.0566L34.0123 28.9188L34.0615 28.9673L33.8653 29.1662L33.5685 28.8735L33.7643 28.675L33.8139 28.7238L33.6784 28.8612L33.7491 28.9309L33.8649 28.8136L33.9128 28.8608Z" fill="black"/>
<path d="M34.2102 28.6208C34.2334 28.6517 34.2482 28.6827 34.2546 28.7138C34.261 28.745 34.2585 28.7743 34.2473 28.8017C34.2362 28.829 34.2173 28.8522 34.1905 28.8713C34.1641 28.8902 34.1358 28.9008 34.1057 28.9032C34.0755 28.9055 34.0461 28.8992 34.0173 28.8842C33.9884 28.8691 33.9626 28.8466 33.9398 28.8166L33.9281 28.8011C33.9049 28.7702 33.8901 28.7391 33.8838 28.7077C33.8775 28.676 33.8799 28.6466 33.8911 28.6194C33.9024 28.592 33.9213 28.5688 33.9479 28.5498C33.9745 28.5308 34.0028 28.5203 34.0329 28.5182C34.063 28.5159 34.0926 28.5224 34.1215 28.5379C34.1505 28.5532 34.1766 28.5761 34.1997 28.6068L34.2102 28.6208ZM34.1329 28.6542C34.1082 28.6213 34.0834 28.6007 34.0586 28.5921C34.0337 28.5836 34.0102 28.5873 33.988 28.6032C33.966 28.6189 33.9553 28.6395 33.9561 28.665C33.9567 28.6903 33.9692 28.7193 33.9936 28.752L34.0051 28.7673C34.0292 28.7992 34.0538 28.8198 34.0791 28.8289C34.1043 28.838 34.1282 28.8345 34.1507 28.8184C34.1728 28.8027 34.1833 28.7821 34.1824 28.7567C34.1814 28.7312 34.1687 28.7021 34.1444 28.6695L34.1329 28.6542Z" fill="black"/>
<path d="M34.557 28.0826L34.4512 28.1541L34.6457 28.4418L34.5745 28.4899L34.3801 28.2022L34.2757 28.2728L34.2368 28.2151L34.518 28.025L34.557 28.0826Z" fill="black"/>
<path d="M34.8387 28.1147L34.6899 28.1858L34.738 28.2865L34.9126 28.2031L34.9424 28.2653L34.6903 28.3858L34.5106 28.0098L34.7621 27.8895L34.7921 27.9523L34.618 28.0355L34.6609 28.1251L34.8096 28.054L34.8387 28.1147Z" fill="black"/>
<path d="M35.0787 27.9826L35.0162 28.0104L35.0782 28.1498L34.9997 28.1848L34.8303 27.804L34.9718 27.741C35.0168 27.721 35.0559 27.7156 35.0893 27.7248C35.1226 27.734 35.1474 27.7569 35.1637 27.7935C35.1753 27.8194 35.1793 27.8437 35.1757 27.8662C35.1722 27.8884 35.1613 27.9097 35.1431 27.9302L35.2947 28.0491L35.2963 28.0528L35.2121 28.0903L35.0787 27.9826ZM34.9879 27.9469L35.0512 27.9187C35.0709 27.91 35.0839 27.8982 35.0903 27.8835C35.0966 27.8685 35.0959 27.8523 35.088 27.8347C35.08 27.8167 35.0686 27.8049 35.0538 27.7992C35.0391 27.7934 35.0212 27.7952 35.0001 27.8046L34.937 27.8326L34.9879 27.9469Z" fill="black"/>
<path d="M35.4141 27.8023L35.3506 27.8278L35.4075 27.9694L35.3279 28.0014L35.1723 27.6147L35.316 27.5569C35.3617 27.5386 35.401 27.5346 35.434 27.545C35.467 27.5553 35.4909 27.5791 35.5059 27.6163C35.5165 27.6427 35.5196 27.6671 35.5152 27.6894C35.5109 27.7115 35.4993 27.7324 35.4803 27.7522L35.6275 27.8765L35.629 27.8803L35.5435 27.9147L35.4141 27.8023ZM35.3246 27.7633L35.3889 27.7374C35.4089 27.7294 35.4224 27.7181 35.4293 27.7036C35.4361 27.6889 35.436 27.6726 35.4288 27.6547C35.4214 27.6365 35.4104 27.6243 35.3958 27.618C35.3813 27.6117 35.3634 27.6128 35.342 27.6215L35.278 27.6472L35.3246 27.7633Z" fill="black"/>
<path d="M37.1219 27.3397L37.0537 27.3454L37.0664 27.4974L36.9808 27.5046L36.9462 27.0892L37.1006 27.0764C37.1496 27.0723 37.1884 27.0801 37.2168 27.0997C37.2453 27.1194 37.2612 27.1492 37.2645 27.1891C37.2668 27.2174 37.2626 27.2416 37.2519 27.2617C37.2413 27.2815 37.224 27.2981 37.2 27.3114L37.304 27.4736L37.3043 27.4776L37.2125 27.4853L37.1219 27.3397ZM37.048 27.2761L37.117 27.2703C37.1385 27.2685 37.1547 27.2617 37.1656 27.2499C37.1764 27.2379 37.1811 27.2223 37.1795 27.2031C37.1778 27.1835 37.171 27.1685 37.1588 27.1583C37.1468 27.148 37.1293 27.1438 37.1063 27.1457L37.0376 27.1514L37.048 27.2761Z" fill="black"/>
<path d="M38.1494 27.3012L38.081 27.3002L38.0787 27.4527L37.9928 27.4514L37.9991 27.0347L38.1539 27.037C38.2031 27.0377 38.241 27.0493 38.2673 27.0716C38.2937 27.094 38.3066 27.1252 38.306 27.1652C38.3056 27.1937 38.299 27.2173 38.2864 27.2362C38.2739 27.2549 38.255 27.2697 38.2299 27.2806L38.3175 27.4523L38.3174 27.4563L38.2253 27.4549L38.1494 27.3012ZM38.082 27.2306L38.1513 27.2316C38.1729 27.232 38.1896 27.2268 38.2016 27.2161C38.2136 27.2052 38.2198 27.1901 38.2201 27.1708C38.2203 27.1512 38.215 27.1356 38.2039 27.1242C38.193 27.1128 38.176 27.1069 38.1529 27.1066L38.0839 27.1055L38.082 27.2306Z" fill="black"/>
<path d="M40.1169 27.8155L40.0574 27.7817L39.982 27.9143L39.9073 27.8718L40.1135 27.5096L40.2481 27.5862C40.2909 27.6105 40.3185 27.6389 40.3308 27.6712C40.3432 27.7034 40.3395 27.737 40.3196 27.7718C40.3056 27.7965 40.2884 27.8141 40.2682 27.8246C40.2483 27.835 40.2246 27.8389 40.1973 27.8363L40.1915 28.0289L40.1895 28.0324L40.1094 27.9868L40.1169 27.8155ZM40.0919 27.7212L40.1521 27.7555C40.1708 27.7662 40.188 27.7697 40.2037 27.7661C40.2194 27.7623 40.2321 27.7521 40.2416 27.7353C40.2513 27.7182 40.2541 27.702 40.2499 27.6867C40.2458 27.6714 40.2338 27.6581 40.2137 27.6466L40.1537 27.6125L40.0919 27.7212Z" fill="black"/>
<path d="M41.1494 28.4317L41.0227 28.3261L40.9512 28.4119L41.0999 28.5358L41.0557 28.5888L40.8411 28.4099L41.1079 28.0897L41.3221 28.2682L41.2776 28.3217L41.1293 28.1982L41.0658 28.2745L41.1924 28.38L41.1494 28.4317Z" fill="black"/>
<path d="M40.7891 28.04C40.7827 28.0794 40.7701 28.1126 40.7514 28.1397C40.7327 28.1668 40.7091 28.1859 40.6806 28.1972C40.6523 28.2085 40.6214 28.211 40.588 28.2047C40.555 28.1985 40.5269 28.185 40.5036 28.1642C40.4803 28.1434 40.4639 28.1169 40.4545 28.0847C40.4451 28.0524 40.4435 28.017 40.4496 27.9785L40.4528 27.9587C40.4592 27.9193 40.4719 27.886 40.4908 27.8588C40.5099 27.8315 40.5336 27.8122 40.562 27.8011C40.5905 27.7899 40.6213 27.7874 40.6545 27.7936C40.6877 27.7998 40.7159 27.8134 40.739 27.8344C40.7622 27.8552 40.7785 27.8819 40.7876 27.9146C40.797 27.9471 40.7984 27.983 40.792 28.0222L40.7891 28.04ZM40.7089 28.0063C40.7158 27.9643 40.7135 27.9311 40.7021 27.9065C40.6907 27.8819 40.6711 27.8669 40.6434 27.8617C40.6159 27.8566 40.5929 27.8634 40.5744 27.8822C40.5559 27.9008 40.5432 27.9309 40.5363 27.9724L40.5331 27.9919C40.5264 28.0328 40.5287 28.0658 40.54 28.0912C40.5513 28.1165 40.571 28.1318 40.599 28.1371C40.6266 28.1423 40.6495 28.1355 40.6678 28.1166C40.6861 28.0976 40.6988 28.0673 40.7057 28.0258L40.7089 28.0063Z" fill="black"/>
<path d="M37.6662 27.2394C37.6716 27.2779 37.6695 27.3126 37.6599 27.3436C37.6504 27.3746 37.634 27.3998 37.6109 27.4193C37.5878 27.4387 37.56 27.4508 37.5272 27.4556C37.4948 27.4603 37.4649 27.4568 37.4373 27.4449C37.4097 27.433 37.3869 27.4137 37.3689 27.3869C37.3509 27.3599 37.3392 27.3277 37.3338 27.2901L37.331 27.2708C37.3257 27.2323 37.3278 27.1974 37.3375 27.1662C37.3473 27.1348 37.3638 27.1095 37.3868 27.0903C37.41 27.0708 37.4379 27.0587 37.4705 27.0539C37.503 27.0492 37.533 27.0529 37.5604 27.0649C37.588 27.0768 37.6107 27.0964 37.6286 27.1238C37.6467 27.1509 37.6584 27.1836 37.6637 27.2219L37.6662 27.2394ZM37.5821 27.2336C37.5764 27.1926 37.5647 27.1625 37.547 27.1433C37.5294 27.1242 37.507 27.1166 37.4798 27.1205C37.4528 27.1245 37.4334 27.1381 37.4217 27.1614C37.41 27.1844 37.4068 27.2163 37.4124 27.257L37.415 27.276C37.4206 27.316 37.4323 27.3459 37.45 27.3658C37.4678 27.3856 37.4904 27.3936 37.518 27.3895C37.545 27.3856 37.5643 27.372 37.5758 27.3488C37.5873 27.3254 37.5903 27.2933 37.5848 27.2526L37.5821 27.2336Z" fill="black"/>
<path d="M35.8794 27.6672L35.7382 27.7194L35.7411 27.8099L35.6554 27.8415L35.6564 27.3968L35.7311 27.3692L36.0219 27.706L35.9363 27.7377L35.8794 27.6672ZM35.7358 27.6461L35.8335 27.61L35.7303 27.4818L35.7358 27.6461Z" fill="black"/>
<path d="M41.6406 28.9827L41.5345 28.8759L41.4534 28.9161L41.3891 28.8513L41.7941 28.6677L41.8502 28.7241L41.6644 29.1285L41.6001 29.0638L41.6406 28.9827ZM41.6002 28.8433L41.6736 28.9173L41.7474 28.7701L41.6002 28.8433Z" fill="black"/>
<path d="M38.82 27.4398L38.6723 27.4101L38.6274 27.4887L38.5378 27.4707L38.772 27.0926L38.85 27.1083L38.9209 27.5476L38.8314 27.5296L38.82 27.4398ZM38.7088 27.3465L38.8109 27.367L38.7903 27.2037L38.7088 27.3465Z" fill="black"/>
<path d="M36.0119 27.2766L36.173 27.5539L36.2218 27.2371L36.3326 27.2163L36.4096 27.6259L36.3249 27.6418L36.3039 27.5299L36.276 27.335L36.2228 27.661L36.1649 27.6719L35.9973 27.3877L36.042 27.5791L36.063 27.6911L35.9786 27.7069L35.9016 27.2973L36.0119 27.2766Z" fill="black"/>
<path d="M36.7102 27.393L36.7254 27.5391L36.64 27.548L36.5969 27.1334L36.7586 27.1166C36.7897 27.1134 36.8177 27.1162 36.8424 27.1251C36.8673 27.1341 36.8872 27.1484 36.9021 27.1681C36.917 27.1877 36.9258 27.2109 36.9286 27.2376C36.9328 27.2782 36.9222 27.3118 36.8968 27.3382C36.8715 27.3644 36.8343 27.3801 36.7851 27.3852L36.7102 27.393ZM36.703 27.3238L36.7793 27.3159C36.8019 27.3135 36.8186 27.3064 36.8292 27.2946C36.8401 27.2827 36.8445 27.2669 36.8424 27.2472C36.8403 27.2269 36.8326 27.2111 36.8193 27.1998C36.8061 27.1885 36.7889 27.1838 36.7678 27.1856L36.6895 27.1937L36.703 27.3238Z" fill="black"/>
<path d="M37.7752 27.3036L37.7789 27.4505L37.6931 27.4526L37.6825 27.036L37.845 27.0318C37.8763 27.031 37.9039 27.0361 37.9279 27.0469C37.952 27.0577 37.9707 27.0736 37.984 27.0944C37.9974 27.1151 38.0044 27.1389 38.0051 27.1658C38.0061 27.2066 37.9929 27.2392 37.9655 27.2636C37.9382 27.2877 37.8999 27.3005 37.8505 27.3017L37.7752 27.3036ZM37.7734 27.2341L37.8501 27.2322C37.8728 27.2316 37.8899 27.2258 37.9015 27.2148C37.9132 27.2038 37.9189 27.1884 37.9184 27.1686C37.9178 27.1481 37.9114 27.1318 37.8991 27.1195C37.8867 27.1072 37.87 27.1012 37.8488 27.1013L37.7701 27.1033L37.7734 27.2341Z" fill="black"/>
<path d="M39.7221 27.6171L39.6498 27.7449L39.575 27.7026L39.7802 27.3398L39.9218 27.4199C39.949 27.4353 39.9701 27.4538 39.9851 27.4754C40.0002 27.4972 40.0081 27.5204 40.0088 27.5451C40.0096 27.5697 40.0034 27.5937 39.9901 27.6171C39.97 27.6526 39.9419 27.6738 39.9058 27.6806C39.87 27.6873 39.8306 27.6785 39.7876 27.6541L39.7221 27.6171ZM39.7563 27.5565L39.8231 27.5943C39.8429 27.6055 39.8605 27.6093 39.8761 27.6059C39.8918 27.6025 39.9046 27.5922 39.9143 27.5749C39.9244 27.5571 39.9273 27.5398 39.923 27.5229C39.9188 27.506 39.9075 27.4922 39.8893 27.4814L39.8207 27.4427L39.7563 27.5565Z" fill="black"/>
<path d="M38.4526 27.4741L38.3673 27.4642L38.4151 27.0502L38.5004 27.06L38.4526 27.4741Z" fill="black"/>
<path d="M42.1247 29.1226L42.0369 29.0299L41.7847 29.2685L41.7257 29.2061L41.9779 28.9675L41.8914 28.876L41.9419 28.8282L42.1752 29.0748L42.1247 29.1226Z" fill="black"/>
<path d="M41.0034 28.1234L40.9012 28.0469L40.6932 28.3249L40.6244 28.2734L40.8325 27.9954L40.7316 27.92L40.7733 27.8643L41.0451 28.0677L41.0034 28.1234Z" fill="black"/>
<path d="M39.1491 27.1777L39.1664 27.4979L39.3539 27.238L39.4621 27.2699L39.3444 27.6697L39.2617 27.6453L39.2939 27.536L39.3577 27.3498L39.162 27.616L39.1055 27.5993L39.0855 27.2699L39.0383 27.4607L39.0061 27.57L38.9237 27.5458L39.0414 27.146L39.1491 27.1777Z" fill="black"/>
<path d="M41.3394 28.7778C41.3153 28.7789 41.29 28.7724 41.2633 28.7585C41.2368 28.7444 41.212 28.7247 41.1889 28.6993C41.1646 28.6727 41.149 28.644 41.1422 28.6133C41.1357 28.5826 41.1385 28.5516 41.1506 28.5204C41.1628 28.4894 41.1838 28.4601 41.2134 28.4326L41.2344 28.4135C41.2651 28.3855 41.2964 28.3664 41.3282 28.3563C41.3603 28.3461 41.3911 28.3454 41.4207 28.3541C41.4506 28.3627 41.4774 28.3802 41.5014 28.4064C41.5346 28.443 41.5519 28.4795 41.5532 28.516C41.5546 28.5524 41.5404 28.5877 41.5106 28.6219L41.4543 28.5601C41.4694 28.5412 41.4765 28.5232 41.4759 28.506C41.4753 28.4889 41.4673 28.4719 41.4519 28.455C41.4322 28.4334 41.4091 28.4244 41.3826 28.4279C41.3561 28.4314 41.3268 28.4476 41.2947 28.4767L41.275 28.4946C41.2427 28.524 41.2239 28.5524 41.2185 28.5797C41.2132 28.607 41.2214 28.6325 41.2429 28.6562C41.2647 28.6801 41.2852 28.6924 41.3046 28.6933L41.3578 28.645L41.3051 28.5872L41.3519 28.5446L41.4624 28.6658L41.3394 28.7778Z" fill="black"/>
<path d="M41.403 17.3013C41.403 17.3013 41.6559 17.0848 41.8359 17.0785" stroke="#FFF700" stroke-width="0.0418751" stroke-linecap="round"/>
<path d="M41.4393 17.2711C41.4452 17.2653 42.9489 17.0546 42.9967 17.0065" stroke="#FFF700" stroke-width="0.0418751" stroke-linecap="round"/>
<path d="M41.4452 17.2833C41.4511 17.277 43.129 17.1388 43.129 17.1388" stroke="#FFF700" stroke-width="0.0418751" stroke-linecap="round"/>
<path d="M41.4393 17.2892C41.4393 17.2892 43.2253 17.205 43.3338 17.2954" stroke="#FFF700" stroke-width="0.0418751" stroke-linecap="round"/>
<path d="M41.4331 17.2833C41.4331 17.2833 43.1835 17.2954 43.2136 17.3373" stroke="#FFF700" stroke-width="0.0418751" stroke-linecap="round"/>
<path d="M41.4393 17.2833L43.1231 17.4215" stroke="#FFF700" stroke-width="0.0418751" stroke-linecap="round"/>
<path d="M41.4214 17.2954C41.4272 17.2954 43.1353 17.4457 43.3037 17.6622" stroke="#FFF700" stroke-width="0.0418751" stroke-linecap="round"/>
<path d="M43.3936 17.9687C43.3878 17.9629 42.8103 17.277 41.415 17.2891" stroke="#FFF700" stroke-width="0.0418751" stroke-linecap="round"/>
<path d="M41.4214 17.3013C41.4214 17.3013 42.3895 17.3674 42.6961 17.7041" stroke="#FFF700" stroke-width="0.0418751" stroke-linecap="round"/>
<path d="M41.4393 17.2891C41.4393 17.2891 42.0645 17.1689 42.7203 17.957" stroke="#FFF700" stroke-width="0.0418751" stroke-linecap="round"/>
<path d="M41.0454 18.0048C41.0454 18.0048 41.9131 18.0391 41.9131 18.1241C41.9131 18.2091 41.2665 18.3707 41.2581 18.7279C41.2498 19.0851 41.7514 19.1107 41.7853 19.5613C41.8193 20.0123 41.3942 20.0801 41.3092 20.1994C41.2238 20.2589 41.0199 20.8967 41.0454 21.271C41.0709 21.6454 41.1815 22.9125 41.3771 23.168C41.5303 23.2869 41.7598 23.6696 42.0064 23.5507C42.2531 23.4314 42.0831 22.998 42.0575 22.8786C42.032 22.7597 42.1597 22.5641 42.1597 22.3853C42.1597 22.2065 42.0659 22.062 42.0747 22.0197C42.0831 21.977 42.7635 22.1814 42.7208 22.8531C42.6785 23.5252 42.4063 23.3208 42.4063 23.3208C42.4063 23.3208 42.4914 24.1462 42.2786 24.2567C41.8959 24.4606 41.6153 24.214 41.6153 24.214L41.6513 24.3819L41.3603 24.2312C41.3603 24.2312 40.9859 23.6952 40.9009 23.4569C40.8159 23.2191 40.7138 22.1558 40.7477 21.9259C40.7816 21.6965 40.8071 20.3523 40.7904 20.2844C40.7732 20.2162 40.7054 19.0935 40.7477 18.9235C40.7904 18.7535 41.0538 18.0048 41.0454 18.0048Z" fill="url(#paint2_linear_1_36037)" stroke="black" stroke-width="0.0418751"/>
<path d="M40.1099 17.7837C40.1099 17.7837 40.7137 17.197 41.0625 17.2649C41.2409 17.2649 41.0709 17.3926 41.0709 17.3926C41.0709 17.3926 41.377 17.4181 41.4197 17.5542C41.4281 17.6137 41.2748 17.6308 41.2748 17.6308C41.2748 17.6308 41.4025 17.6564 41.4109 17.7669C41.4197 17.8775 40.1182 17.7921 40.1099 17.7837Z" fill="#FF7000" stroke="black" stroke-width="0.0418751"/>
<path d="M40.1438 17.7581C40.1438 17.7581 40.7904 17.6731 41.0625 17.4009" stroke="black" stroke-width="0.0418751"/>
<path d="M40.7987 17.5797C40.7987 17.5797 41.2748 17.5626 41.2748 17.6308" stroke="black" stroke-width="0.0418751"/>
<path d="M42.4913 24.5373C42.4913 24.5373 42.8996 24.4435 43.0102 24.299C43.0784 24.2479 43.4356 24.835 42.4913 24.5373Z" fill="white" stroke="black" stroke-width="0.0523439" stroke-linejoin="round"/>
<path d="M42.3807 21.1605C42.3807 21.1605 42.4318 21.4754 42.2874 21.6877C42.2107 21.7727 41.9808 21.9176 41.9808 22.0198C41.9808 22.1216 42.0658 22.2577 42.0491 22.377C42.0319 22.4959 41.9046 22.6153 41.913 22.717C41.913 22.8192 42.0575 23.3636 42.0403 23.3719" stroke="white" stroke-width="0.0523439" stroke-linecap="round"/>
<path d="M41.6325 20.14C41.6325 20.14 41.3092 20.2506 41.241 20.5738" stroke="white" stroke-width="0.0523439" stroke-linecap="round"/>
<path d="M41.496 17.5798C41.496 17.5798 41.6069 17.8859 41.9641 17.5965C41.7342 17.282 41.496 17.5882 41.496 17.5798Z" fill="#C75B00" stroke="black" stroke-width="0.0418751"/>
<path d="M41.7599 17.5669C41.7599 17.5833 41.7428 17.5967 41.7216 17.5967C41.7005 17.5967 41.6833 17.5833 41.6833 17.5669C41.6833 17.5504 41.7005 17.5371 41.7216 17.5371C41.7428 17.5371 41.7599 17.5504 41.7599 17.5669Z" fill="black"/>
<path d="M38.5751 16.8691C38.5751 16.8691 39.2527 17.6024 39.6911 17.5944C39.7707 17.8097 39.4918 18.0098 39.3804 18.1053C39.1572 18.0337 38.9554 18.1183 38.4374 17.4809C38.4696 17.0743 38.5831 16.8851 38.5751 16.8691Z" fill="white" stroke="black" stroke-width="0.0418751"/>
<path d="M39.4918 15.1635C39.5793 14.8926 39.7548 14.6774 39.906 14.6535C39.8662 14.4462 40.2251 13.53 41.269 13.1791C41.3327 13.6493 40.8226 14.1116 40.8226 14.1116C40.8226 14.1116 42.3607 13.8487 42.6714 13.458C42.6396 13.6334 42.3289 14.7251 40.6869 14.7172C41.3088 15.3072 40.488 15.7774 40.1371 15.6338C40.7828 15.1397 39.9541 14.8449 39.4918 15.1635Z" fill="white" stroke="black" stroke-width="0.0418751"/>
<path d="M40.0177 14.7812C40.3284 14.5819 40.4398 14.5819 40.6952 14.6217C40.5118 14.6455 40.5118 14.6535 40.5118 14.6535C40.5118 14.6535 40.4959 14.6774 40.6073 14.7812C40.48 14.749 40.3682 14.6774 40.0177 14.7812Z" fill="#CCCCCD" stroke="#CCCCCC" stroke-width="0.0418751"/>
<path d="M39.8979 14.6535C39.8979 14.6535 40.5118 14.3269 40.8544 14.1037" stroke="black" stroke-width="0.0418751"/>
<path d="M39.372 18.1045C39.372 18.1045 40.2171 18.3356 40.3125 17.1242C40.1291 16.5982 39.8741 15.4663 40.2648 15.1397C39.9059 14.8926 39.5156 15.1477 39.5156 15.1477C39.4918 15.2034 39.1727 15.6577 39.6032 16.4546C38.5831 16.1836 38.9976 17.148 38.9976 17.148C39.0374 16.9964 39.5793 16.8532 39.715 17.6262C39.7707 17.8176 39.3481 18.1124 39.372 18.1045Z" fill="#0000FF" stroke="black" stroke-width="0.0418751"/>
<path d="M40.3204 17.1321C40.3204 17.1321 41.2132 16.6539 41.1889 15.5304C40.4318 15.5463 40.1609 16.5262 40.1609 16.5262L40.3204 17.1321Z" fill="#0000FF" stroke="black" stroke-width="0.0418751"/>
<path d="M36.3197 17.0764C36.3197 17.0764 35.6585 17.6501 35.2837 17.4667C35.0048 17.6342 34.6781 17.3394 34.6781 17.3394C34.6781 17.3394 35.0605 18.7497 36.4315 17.7297C36.4076 17.419 36.3356 17.1003 36.3197 17.0764Z" fill="white" stroke="black" stroke-width="0.0418751"/>
<path d="M35.2758 17.4428C35.3315 17.148 35.5626 17.0044 35.746 17.2833C35.9931 17.3314 36.2401 16.3193 35.3633 16.4864C35.6103 15.1636 34.8694 14.6694 34.8694 14.6694C34.8694 14.6694 34.6064 16.1359 34.7259 16.4068C34.8455 16.6778 34.5506 15.9047 33.6022 15.6895C33.5863 16.7975 34.6622 17.3155 34.6622 17.3155C34.6622 17.3155 34.9651 17.5944 35.2758 17.4428Z" fill="#0000FF" stroke="black" stroke-width="0.0418751"/>
<path d="M35.3634 16.4785C35.3634 16.4785 34.9492 16.8294 35.0447 17.3076" stroke="black" stroke-width="0.0418751"/>
<path d="M34.734 16.4307C34.734 16.4307 34.6383 16.7732 34.8455 17.2594" stroke="black" stroke-width="0.0418751"/>
<path d="M34.6702 17.3712C34.6702 17.3712 34.8615 17.0605 35.2758 17.4587" stroke="black" stroke-width="0.0418751"/>
<path d="M34.7499 15.2193C34.7499 15.2113 34.1203 15.2193 34.4949 15.857C34.2159 15.9445 33.5944 15.5384 34.0247 14.9961C32.6141 14.9642 32.0403 14.2871 32.0403 13.6653C32.4547 14.0958 33.4429 13.9203 33.7936 14.1833C33.3632 13.785 33.4509 13.2348 33.4509 13.2348C33.4509 13.2348 34.6543 13.5937 34.8694 14.6615C34.7977 14.8688 34.7659 15.2352 34.7499 15.2193Z" fill="white" stroke="black" stroke-width="0.0418751"/>
<path d="M33.7817 14.1556C34.014 14.3918 34.6107 14.4626 34.9135 14.7256" stroke="black" stroke-width="0.0418751"/>
<path d="M34.0565 14.8528C34.0565 14.8528 34.5505 14.7892 34.6937 14.9642C34.5004 14.9642 34.4359 14.9165 34.1568 15.0203C34.2355 14.9801 34.214 14.9085 34.257 14.9085C34.2999 14.9085 34.078 14.8528 34.0565 14.8528Z" fill="#CCCCCD" stroke="#CCCCCC" stroke-width="0.0396897"/>
<path d="M36.5191 10.9876C36.5191 10.9876 36.79 10.7485 37.0848 10.9637C36.9516 11.3618 36.4713 11.2107 36.4713 11.2107C36.4713 11.2107 36.4872 11.41 36.4395 11.5056C36.5354 11.5779 36.6145 11.8164 36.6145 11.8164C36.6145 11.8164 37.1087 11.6969 37.2125 11.9121C37.4018 11.8859 37.5391 11.9121 37.5391 11.9121C37.5391 11.9121 37.9219 11.8164 38.0571 11.8164C38.1928 11.8164 38.6229 11.928 38.6626 12.0077C38.7028 12.0874 38.8461 12.6214 38.942 12.6134C39.0374 12.6054 38.7108 12.7409 38.6229 12.6054C38.5353 12.4699 38.5592 12.7807 38.5592 12.7807C38.5592 12.7807 38.8301 13.0676 38.862 13.1313C38.8938 13.195 38.6949 13.713 38.8461 14.0719C38.7133 14.084 38.7028 14.223 38.7028 14.223C38.6953 14.3809 38.4956 14.4224 38.4956 14.4224L38.4478 14.2071L38.3122 14.2871L38.3678 14.1196C38.3678 14.1196 38.5513 13.6732 38.5672 13.53C38.5831 13.3864 38.3997 13.1313 38.2565 13.1313C38.1128 13.1313 38.0094 13.5857 38.0094 13.5857C38.0094 13.5857 37.9378 13.9282 37.9617 13.9601C37.9855 13.9919 37.8658 13.8487 37.8658 13.8487C37.8658 13.8487 37.8021 14.056 37.7544 14.1196C37.7066 14.1833 37.6028 14.2071 37.6028 14.2071C37.6028 14.2071 37.5312 13.9998 37.555 13.9203C37.5789 13.8407 37.9457 13.53 37.9139 13.3068C37.8817 13.0836 37.9139 13.1393 37.9055 13.1313C37.8976 13.1234 37.7146 12.964 37.7066 12.8764C37.6987 12.7887 37.4675 12.9879 37.1648 12.9242C37.0718 13.0861 37.0609 13.4898 37.0609 13.4898C37.0609 13.4898 37.0291 13.976 37.0927 14.0321C37.1568 14.0878 36.9336 14.2071 36.9336 14.2071L36.7741 14.4224C36.7741 14.4224 36.7184 14.2871 36.7184 14.2951C36.7184 14.303 36.6066 14.3746 36.6066 14.3746L36.6706 14.2151C36.6665 14.0945 36.8256 13.7649 36.8256 13.486C36.8256 13.2071 36.8457 12.9082 36.8457 12.9082C36.8457 12.9082 36.5509 12.8923 36.5588 13.195C36.5668 13.4982 36.4872 13.5141 36.5031 13.6016C36.5191 13.6891 36.5986 13.9362 36.5748 14.0082C36.5509 14.0798 36.4554 14.1037 36.4554 14.1037L36.4315 14.1435C36.4315 14.1435 36.1367 14.2791 36.1447 14.3348C36.1526 14.3905 36.1367 14.1753 36.1367 14.1753L36.1204 13.9441C36.1204 13.9441 36.2959 13.8328 36.2959 13.5539C36.2959 13.275 36.2557 13.2352 36.2636 13.1715C36.2716 13.1075 36.3118 12.8763 36.3038 12.8525C36.2959 12.8286 36.1367 12.9162 36.0886 12.9162C36.0408 12.9162 36.1765 12.7489 36.1924 12.6293C36.2083 12.5098 36.0329 12.7409 35.8897 12.6054C35.9563 12.4582 36.0568 12.4141 36.0727 12.3026C36.0886 12.191 35.9613 12.3982 35.8495 12.3185C35.8587 12.2116 35.9692 12.1193 35.9692 12.1193C35.9692 12.1193 35.8784 12.1081 35.8415 12.1193C35.7699 12.0954 35.9215 11.9838 35.9295 11.8244C35.9374 11.665 35.8415 11.6012 35.8415 11.5933C35.8415 11.5853 35.6824 11.4498 35.6585 11.394C35.6347 11.3383 35.6347 11.2745 35.6347 11.2745C35.6347 11.2745 35.3713 11.4658 35.0605 11.0593C35.3453 10.8163 35.6506 10.9956 35.6506 10.9956C35.6506 10.9956 35.7301 10.7724 36.0965 10.7884C36.4634 10.8043 36.535 11.0115 36.5191 10.9876Z" fill="#923F00" stroke="black" stroke-width="0.0418751"/>
<path d="M38.524 15.11C38.5303 15.11 39.2007 15.1301 39.2074 15.4885C39.2141 15.8466 39.0018 15.754 38.9951 15.754C38.9884 15.754 38.5039 15.6941 38.5039 15.6941L38.524 15.11Z" fill="#0000FF" stroke="black" stroke-width="0.0418751"/>
<path d="M37.8733 15.0103C37.8733 15.0103 38.7095 15.004 38.6631 15.3688C38.6166 15.7339 38.4043 15.6611 38.4043 15.6611L37.9993 15.6276L37.8733 15.0103Z" fill="#FFFEFF" stroke="black" stroke-width="0.0418751"/>
<path d="M37.4022 14.9705L37.8867 15.0103C37.8867 15.0103 38.1786 15.0501 38.1656 15.329C38.1522 15.6079 37.8666 15.6146 37.8666 15.6146L37.3955 15.5878L37.4022 14.9705Z" fill="#0000FF" stroke="black" stroke-width="0.0418751"/>
<path d="M36.2675 15.11C36.2608 15.11 35.5903 15.1301 35.5836 15.4885C35.5774 15.8466 35.7897 15.754 35.7964 15.754C35.8031 15.754 36.2876 15.6941 36.2876 15.6941L36.2675 15.11Z" fill="white" stroke="black" stroke-width="0.0418751"/>
<path d="M36.9177 15.0103C36.9177 15.0103 36.0815 15.004 36.128 15.3688C36.1744 15.7339 36.3868 15.6611 36.3868 15.6611L36.7917 15.6276L36.9177 15.0103Z" fill="#0000FF" stroke="black" stroke-width="0.0418751"/>
<path d="M37.3892 14.9705L36.9047 15.0103C36.9047 15.0103 36.6124 15.0501 36.6258 15.329C36.6392 15.6079 36.9244 15.6146 36.9244 15.6146L37.3955 15.5878L37.3892 14.9705Z" fill="white" stroke="black" stroke-width="0.0418751"/>
<path d="M38.6865 19.0002C38.6865 19.0002 39.0349 18.4868 39.1819 18.5416C39.31 18.5844 39.2125 18.9817 39.1513 19.0186L38.6865 19.0002Z" fill="#5E0043" stroke="black" stroke-width="0.0418751"/>
<path d="M36.2984 19.0919C36.1887 18.939 36.0296 18.5173 35.883 18.6333C35.7544 18.676 35.8524 19.0734 35.9136 19.1103L36.2984 19.0919Z" fill="#5E0043" stroke="black" stroke-width="0.0418751"/>
<path d="M36.5292 18.0764C36.5292 18.0764 37.208 18.4947 37.4307 18.5056C37.6535 18.5165 38.3595 17.9625 38.3595 17.9625" stroke="black" stroke-width="0.0418751"/>
<path d="M36.5945 16.4366L36.7247 16.2737L37.3767 16.6049L38.0392 16.3114L38.1694 16.4475L37.4307 16.9688L36.5945 16.4366Z" fill="#5E0043" stroke="black" stroke-width="0.0418751"/>
<path d="M36.0768 16.4278C36.1296 16.4943 36.5509 17.0065 36.6271 17.4302C36.7029 17.854 36.5835 16.849 36.5835 16.849C36.5835 16.849 37.1049 17.1045 37.1212 17.2673C37.1375 17.4302 37.3704 17.2565 37.3817 17.2284L35.8721 16.2481L36.0768 16.4278Z" fill="#474747" stroke="#474747" stroke-width="0.0523439" stroke-linejoin="round"/>
<path d="M38.6526 16.3984C38.6526 16.3984 38.104 17.1208 38.1694 17.908C38.0563 17.5312 38.1476 16.9089 38.1476 16.9089L38.0282 16.9851C38.0282 16.9851 37.9035 17.5173 37.7456 17.5986C37.7192 17.5353 37.7242 17.5119 37.7242 17.5119C37.7242 17.5119 37.5559 17.7288 37.5232 17.7506C37.4906 17.7724 37.5341 18.4838 37.5341 18.4838C37.5341 18.4838 37.5906 18.9997 37.6556 18.9943C37.5814 19.0303 37.4906 19.0868 37.4906 19.0868L37.4231 17.71L37.5772 17.555C37.5772 17.555 37.7837 17.3055 37.8 17.0609C37.7104 17.1371 37.6099 17.1589 37.6099 17.1589C37.6099 17.1589 37.5827 17.5065 37.5015 17.555C37.4198 17.604 37.4177 17.6949 37.4177 17.6949L37.3984 17.2405L38.6526 16.3984Z" fill="#474747" stroke="#474747" stroke-width="0.0523439" stroke-linejoin="round"/>
<path d="M37.3981 17.2347L37.5044 19.4067" stroke="black" stroke-width="0.0523439" stroke-linecap="round"/>
<path d="M36.0623 18.272C36.0623 18.272 36.3118 18.419 36.4044 18.8641C37.2188 18.8042 37.4743 19.0923 37.4743 19.0923C37.4743 19.0923 38.1422 18.772 38.4521 18.8314C38.5605 18.6036 38.87 18.3101 38.87 18.3101" stroke="black" stroke-width="0.0418751"/>
<path d="M35.7214 16.143L37.398 17.2401L38.908 16.2247C38.908 16.2247 39.2229 16.0509 39.1957 15.9261C39.1689 15.8009 39.0601 15.8499 39.0056 15.8717C38.9516 15.8934 37.4253 16.9742 37.4253 16.9742L35.8013 15.9475C35.8013 15.9475 35.682 15.9098 35.6602 15.9856C35.6384 16.0618 35.705 16.1049 35.7214 16.143Z" fill="#B4B6B9" stroke="black" stroke-width="0.0418751"/>
<path d="M38.72 15.8582C38.72 15.8582 38.2908 15.6761 38.2908 15.8339C38.2908 15.9914 38.3029 16.0077 38.372 16.1091C38.4407 16.21 38.3192 16.2749 38.3192 16.2749C38.3192 16.2749 38.3029 16.2305 38.2786 16.1614C38.2543 16.0927 38.0236 16.0442 38.0035 15.9633C37.9834 15.8821 38.0521 15.7527 37.9143 15.7368C37.7769 15.7205 37.6434 15.7933 37.6149 15.9512C37.5864 16.1091 37.4084 16.4772 37.4084 16.4772L37.4327 15.6396C37.7351 15.661 38.2962 15.7272 38.7279 15.777C38.5985 15.7569 38.7765 15.7854 38.7727 15.8298C38.7606 15.8662 38.7158 15.87 38.72 15.8582Z" fill="#474747" stroke="#474747" stroke-width="0.0523439" stroke-linejoin="round"/>
<path d="M37.2021 15.6476C37.1255 15.6476 36.7406 15.692 36.6435 15.749C36.5463 15.8055 36.8013 15.8943 36.7691 15.9713C36.7369 16.0484 36.7327 16.2021 36.6112 16.1698C36.4898 16.1372 36.0811 15.9349 36.069 15.8662C36.0568 15.7976 35.9718 15.7934 35.9718 15.7934C35.9718 15.7934 37.1456 15.6355 37.2021 15.6476Z" fill="#474747" stroke="#474747" stroke-width="0.0523439" stroke-linejoin="round"/>
<path d="M37.3871 15.5513L37.3842 16.5806" stroke="black" stroke-width="0.0418751"/>
<path d="M36.5945 14.3386C36.5945 14.3386 36.1242 15.102 36.115 15.1255" stroke="black" stroke-width="0.0418751"/>
<path d="M37.4608 14.3198C37.4608 14.3198 37.6656 14.5991 37.6421 14.6782C37.7259 14.7435 37.8193 15.0044 37.8193 15.0044" fill="url(#paint3_linear_1_36037)"/>
<path d="M37.4608 14.3198C37.4608 14.3198 37.6656 14.5991 37.6421 14.6782C37.7259 14.7435 37.8193 15.0044 37.8193 15.0044" stroke="black" stroke-width="0.0418751"/>
<path d="M38.2523 14.2733C38.2523 14.2733 37.8101 14.8973 37.8239 14.9437" stroke="black" stroke-width="0.0418751"/>
<path d="M35.9865 11.3064C35.9764 11.3413 35.9201 11.3548 35.8606 11.3366C35.801 11.3184 35.7609 11.2753 35.7709 11.2404C35.7809 11.2055 35.8373 11.192 35.8968 11.2102C35.9563 11.2285 35.9965 11.2715 35.9865 11.3064Z" fill="black"/>
<path d="M36.1652 11.2942C36.1752 11.329 36.2315 11.3426 36.2911 11.3243C36.3506 11.3061 36.3907 11.263 36.3807 11.2282C36.3707 11.1933 36.3143 11.1798 36.2548 11.198C36.1953 11.2162 36.1551 11.2593 36.1652 11.2942Z" fill="black"/>
<path d="M41.3423 24.2186C41.3423 24.2186 41.1781 24.2496 41.1835 24.2647C41.1886 24.2802 40.7066 24.2957 40.6965 24.2802C40.6861 24.2647 40.6245 24.3623 40.6245 24.3623L40.7016 24.3162C40.7016 24.3162 40.8192 24.4389 40.8552 24.4288C40.8913 24.4188 40.8397 24.4749 40.8502 24.4854C40.8603 24.4954 40.8963 24.4649 40.8963 24.4649L41.6927 24.4515L41.3423 24.2186Z" fill="#FF7000" stroke="black" stroke-width="0.0418751" stroke-linejoin="round"/>
<path d="M41.6391 24.4665L40.9884 24.4853C40.9884 24.4853 40.8247 24.634 40.8142 24.6696C40.8042 24.7056 40.9218 24.7157 40.9218 24.7157L40.9578 24.8388L41.0399 24.8082C41.0399 24.8082 41.5931 24.8903 42.101 24.7772C42.3573 24.6876 42.4021 24.58 42.2225 24.5147C42.0432 24.4493 41.6442 24.469 41.6391 24.4665Z" fill="#FF7000" stroke="black" stroke-width="0.0523439" stroke-linejoin="round"/>
<path d="M39.4109 25.8015L40.5822 25.7492L40.364 25.5641L43.5319 25.4364L43.4226 25.1847L39.8758 25.3271L40.3025 25.5264L39.3444 25.5549L39.3728 25.6545L39.1216 25.6449C39.1216 25.6449 39.4013 25.7538 39.4109 25.8015Z" fill="url(#paint4_linear_1_36037)" stroke="black" stroke-width="0.0418751"/>
<path d="M40.7241 19.3314C40.6308 19.2849 40.2216 19.2292 39.7656 19.527L39.7845 20.5784C39.7845 20.5784 40.4541 20.2154 40.7798 20.2991C40.761 19.9733 40.761 19.555 40.7241 19.3314Z" fill="url(#paint5_linear_1_36037)" stroke="black" stroke-width="0.0418751"/>
<path d="M34.2479 22.5236L31.486 25.2656" stroke="black" stroke-width="0.0418751"/>
<path d="M35.4788 22.5437L33.2372 25.4959" stroke="black" stroke-width="0.0418751"/>
<path d="M35.3788 21.7732L32.3866 25.3958" stroke="black" stroke-width="0.0418751"/>
<path d="M32.2965 25.3456L32.5867 25.0056" stroke="black" stroke-width="0.0418751"/>
<path d="M35.9491 23.5944L34.7882 25.1957" stroke="black" stroke-width="0.0418751"/>
<path d="M34.7382 25.4059L34.7682 26.016" stroke="black" stroke-width="0.0418751"/>
<path d="M36.4792 24.1547L35.2485 25.6961" stroke="black" stroke-width="0.0418751"/>
<path d="M36.2594 25.5759L36.7598 24.7551" stroke="black" stroke-width="0.0418751"/>
<path d="M36.4495 24.5952L35.849 25.2756" stroke="black" stroke-width="0.0418751"/>
<path d="M36.2694 23.9549L35.859 24.4549" stroke="black" stroke-width="0.0418751"/>
<path d="M35.7389 23.2242C35.7389 23.2242 34.488 25.0554 34.5081 25.2057" stroke="black" stroke-width="0.0418751"/>
<path d="M35.6087 22.9843C35.5789 23.0039 34.5281 24.395 34.5281 24.395" stroke="black" stroke-width="0.0418751"/>
<path d="M34.468 24.8351L34.2778 25.0654" stroke="black" stroke-width="0.0418751"/>
<path d="M34.0378 25.4159L33.7476 25.7961" stroke="black" stroke-width="0.0418751"/>
<path d="M34.1113 18.3088C34.1113 18.3088 34.0265 18.5751 34.1113 18.7083C34.196 18.8414 34.7287 19.9189 34.7287 19.9189C34.7287 19.9189 35.092 19.4708 35.2251 19.4587C35.3583 19.447 35.2976 20.6211 35.2976 20.6211C35.2976 20.6211 35.0798 20.8267 34.9467 20.8146C34.8134 20.8025 35.2733 21.2748 35.2611 21.6743C35.249 22.0738 34.656 24.0591 34.4381 24.0951C34.2202 24.1315 34.535 23.732 34.5229 23.6232C34.5108 23.5143 34.4502 23.5867 34.4018 23.4657C34.3534 23.3447 34.4745 23.163 34.4502 23.0419C34.426 22.9209 34.3171 22.9452 34.305 22.8606C34.2929 22.7756 34.3776 22.7517 34.3655 22.6546C34.3534 22.5579 34.2202 22.5821 34.2324 22.4971C34.2445 22.4126 34.2566 22.449 34.2445 22.2915C34.2324 22.1341 34.2081 22.4004 34.075 22.4126C33.9418 22.4247 33.8329 22.7275 33.8329 22.7275C33.8329 22.7275 33.5665 23.1027 33.3002 22.9331C33.4576 23.2722 33.3366 23.4176 33.276 23.4293C33.2155 23.4414 33.3244 23.6956 33.1791 23.7077C33.0339 23.7199 33.2881 24.2768 33.1186 24.3254C33.3002 24.41 33.1549 24.5189 33.1549 24.5189C33.1549 24.5189 32.7354 24.554 32.8281 25.1001C31.5933 24.6642 30.9881 23.9138 31.0002 23.1512C31.0123 22.3883 31.2544 21.6986 31.8476 21.4444C32.017 20.8146 32.3076 20.1366 32.3076 20.1366C32.3076 20.1366 32.2592 19.8582 32.2955 19.6769C32.3318 19.4951 32.5013 19.3138 32.5013 19.3138C32.5013 19.3138 32.477 18.8779 32.4892 18.6601C32.5013 18.442 32.586 18.3452 32.5981 18.2242C32.6102 18.1032 32.5618 17.4855 32.6828 17.3767C32.8039 17.2678 33.0339 17.2799 33.1549 17.2075C33.276 17.1346 33.4334 17.0015 33.5907 17.0136C33.7481 17.0257 33.8813 17.1346 33.8813 17.1346C33.8813 17.1346 34.4745 17.1346 34.5108 17.3645C34.5471 17.5948 34.3897 17.6794 34.3897 17.6794C34.3897 17.6794 34.4745 18.0065 34.1113 18.3088Z" fill="#8A9396" stroke="#2B2B2B" stroke-width="0.0418751"/>
<path d="M33.5846 17.4701C33.6036 17.5052 33.5603 17.5654 33.4879 17.6046C33.4156 17.6438 33.3415 17.6471 33.3225 17.612C33.3035 17.5769 33.3468 17.5167 33.4191 17.4775C33.4915 17.4383 33.5656 17.435 33.5846 17.4701Z" fill="#CECFCF" stroke="#2B2B2B" stroke-width="0.0418751"/>
<path d="M33.4841 17.5313C33.4841 17.5534 33.464 17.5714 33.4391 17.5714C33.4143 17.5714 33.3942 17.5534 33.3942 17.5313C33.3942 17.5092 33.4143 17.4912 33.4391 17.4912C33.464 17.4912 33.4841 17.5092 33.4841 17.5313Z" fill="black"/>
<path d="M34.3692 17.9319C34.3692 17.9319 34.5162 18.5885 34.3405 19.0416" stroke="#2B2B2B" stroke-width="0.026172"/>
<path d="M34.4144 17.6447C34.4144 17.6447 34.7013 18.024 34.6643 18.496" stroke="#2B2B2B" stroke-width="0.026172"/>
<path d="M34.4423 17.5613C34.4515 17.5613 34.6828 17.7649 34.6736 17.9035" stroke="#2B2B2B" stroke-width="0.026172"/>
<path d="M34.4978 17.478C34.4978 17.478 34.6551 17.5889 34.6921 17.6999" stroke="#2B2B2B" stroke-width="0.026172"/>
<path d="M34.4237 17.4131C34.4237 17.4131 33.8593 18.3293 33.9333 18.903" stroke="black" stroke-width="0.0418751"/>
<path d="M34.4607 17.3854C34.4607 17.3854 33.7112 17.8297 33.5724 19.2824" stroke="#2B2B2B" stroke-width="0.026172"/>
<path d="M34.3774 17.6539L34.0813 17.8758" stroke="black" stroke-width="0.0418751"/>
<path d="M33.2948 19.3657C33.2948 19.3657 33.7112 17.6354 34.4514 17.3854" stroke="#2B2B2B" stroke-width="0.026172"/>
<path d="M34.7383 19.9486C34.7383 19.9486 35.1363 19.4491 35.2289 19.4675C35.3214 19.4859 35.2934 20.6241 35.2934 20.6241C35.2934 20.6241 34.9973 20.846 34.9328 20.8368C34.8679 20.8276 35.2657 21.3736 35.2565 21.5771C35.2473 21.7807 35.2381 21.7807 35.2381 21.7807C35.2381 21.7807 35.2381 21.6605 35.1456 21.4662C35.053 21.2719 35.1083 21.0495 34.507 20.5592C34.3589 20.2539 34.8031 20.7443 34.8956 20.6701C34.9881 20.5964 34.7291 19.9578 34.7383 19.9486Z" fill="#2B2B2B" stroke="#2B2B2B" stroke-width="0.0418751"/>
<path d="M34.0309 17.1346C34.0309 17.1346 33.8637 17.1803 33.8409 17.2485C33.8181 17.3172 33.7192 17.3855 33.666 17.3624C33.6128 17.3398 33.5139 17.2561 33.5139 17.2561" stroke="#2B2B2B" stroke-width="0.0418751"/>
<path d="M33.0805 17.72C33.0805 17.72 32.8296 17.9709 32.9513 18.0014C33.0729 18.0316 33.2022 17.8038 33.2022 17.8038C33.2022 17.8038 33.2022 18.1915 33.3086 18.1304C33.4151 18.0697 33.7268 17.8494 33.7268 17.8494C33.7268 17.8494 33.8332 17.8415 33.8561 17.8494C33.8789 17.857 34.145 18.0848 34.3199 18.0014C34.221 18.2598 34.107 18.2904 34.107 18.2904C34.107 18.2904 33.9245 18.5261 33.6888 18.4725C33.4531 18.4193 33.3922 18.3205 33.3922 18.3205C33.3922 18.3205 33.1945 18.336 33.1337 18.2447C33.0729 18.1534 33.0501 18.1003 33.0501 18.1003C33.0501 18.1003 32.9361 18.2142 32.9056 18.161C32.8752 18.1078 32.9056 17.7958 33.0805 17.72Z" fill="#2B2B2B" stroke="#2B2B2B" stroke-width="0.0523439" stroke-linejoin="round"/>
<path d="M34.5024 17.3704C34.5024 17.3704 34.0386 17.2335 33.8789 17.4617C33.7193 17.6895 33.7573 17.8189 33.8409 17.8415" stroke="#2B2B2B" stroke-width="0.0418751"/>
<path d="M34.5739 17.3574C34.5739 17.4121 34.5348 17.4564 34.4865 17.4564C34.4382 17.4564 34.399 17.4121 34.399 17.3574C34.399 17.3027 34.4382 17.2584 34.4865 17.2584C34.5348 17.2584 34.5739 17.3027 34.5739 17.3574Z" fill="black"/>
<path d="M33.2241 18.5408C33.2241 18.5408 33.4133 18.8318 33.6388 18.9118C33.8643 18.9918 33.4824 19.0609 33.2569 18.9084C33.0932 18.6865 33.1369 18.5265 33.1369 18.5265C33.1369 18.5265 33.1805 18.4826 33.2241 18.5408Z" fill="#2B2B2B" stroke="#2B2B2B" stroke-width="0.0418751"/>
<path d="M34.8426 20.2577C34.8426 20.2577 34.3116 19.5194 34.1588 19.4792C34.0061 19.4394 34.2752 19.4068 34.4389 19.563C34.6025 19.7191 34.3953 19.3083 34.3953 19.3083L34.8426 20.2577Z" fill="#2B2B2B" stroke="#2B2B2B" stroke-width="0.0418751"/>
<path d="M33.1732 24.5239C33.3769 24.4695 34.2643 25.0331 34.4643 25.1751C34.6644 25.3166 35.0828 25.2257 35.0828 25.2257C35.0828 25.2257 34.8897 25.3421 34.7699 25.3714C34.6499 25.4003 35.1263 25.4003 35.1263 25.4003C35.1263 25.4003 33.9915 25.7131 32.8386 25.106C32.7331 24.6332 33.0859 24.5277 33.1732 24.5239Z" fill="#2B2B2B" stroke="#2B2B2B" stroke-width="0.0523439" stroke-linejoin="round"/>
<path d="M34.4716 20.4394C34.4716 20.4394 34.3225 20.4105 34.2461 20.323C34.1698 20.2359 34.0606 20.021 33.9479 19.9302C33.8351 19.8393 33.2714 19.5303 33.0677 19.552C32.8641 19.5738 32.8022 19.5303 32.7767 19.5047C32.7513 19.4792 32.6677 19.5156 32.6822 19.6211C32.6968 19.7267 32.5258 19.9595 32.5876 20.0684C32.6494 20.1777 32.9404 20.6211 32.9986 20.6358C33.0568 20.6504 33.0205 20.8941 33.0205 20.8941C33.0205 20.8941 33.2787 21.1559 33.3442 21.1705C33.4096 21.1852 33.4751 21.2325 33.4678 21.294C33.4605 21.356 33.1841 21.6944 33.1841 21.6944C33.1841 21.6944 32.8859 21.8506 32.8822 21.9381C32.8786 22.0252 32.955 22.2069 33.1914 22.2651C33.4278 22.3233 34.0643 22.276 34.097 22.2216C34.1297 22.1671 34.1806 21.8397 34.1588 21.807C34.137 21.7744 33.9806 21.6759 33.9006 21.6906C33.8206 21.7053 33.7479 21.7706 33.7551 21.7852C33.7624 21.7999 33.6424 21.8615 33.6424 21.8032C33.6424 21.745 33.8788 21.4833 33.9006 21.5051C33.9224 21.5269 34.257 21.5595 34.3189 21.727C34.3807 21.8941 34.3807 22.0143 34.5553 21.9963C34.7298 21.9779 34.9735 21.8179 34.9952 21.4833C35.017 21.1487 34.799 20.923 34.7444 20.8904C34.6898 20.8577 34.508 20.7484 34.4935 20.6977C34.4789 20.6467 34.4425 20.4796 34.4716 20.4394Z" fill="#2B2B2B" stroke="#2B2B2B" stroke-width="0.0418751"/>
<path d="M31.3256 21.9163C31.3256 21.9163 31.8893 21.7706 32.0348 21.7744C32.1803 21.7777 32.7295 22.0323 32.8895 22.1889C33.0495 22.3451 33.3768 22.7161 33.5915 22.6835C33.806 22.6508 33.8679 22.6073 33.8679 22.6073L33.7842 22.7672C33.7842 22.7672 33.6096 22.8145 33.5224 22.7928C33.4351 22.771 33.2641 22.7161 33.0932 22.5491C32.9222 22.3816 32.3949 21.9306 31.9475 21.9632C31.5001 21.9963 31.2419 22.4364 31.2419 22.4364C31.2419 22.4364 31.2456 22.2216 31.2637 22.1743C31.2819 22.127 31.1692 22.276 31.1692 22.276L31.3256 21.9163Z" fill="#2B2B2B" stroke="#2B2B2B" stroke-width="0.0418751"/>
<path d="M33.4023 22.3527C33.4059 22.356 33.5441 22.3924 33.7769 22.3924C34.0097 22.3924 34.1333 22.2907 34.1333 22.2907L34.1188 22.1998L34.1551 22.0725C34.1551 22.0725 34.3334 22.2542 34.3297 22.2907C34.3261 22.3271 34.257 22.3418 34.257 22.3418L34.2315 22.2542L34.1697 22.3309C34.1697 22.3309 33.8314 22.5997 33.646 22.5599C33.4605 22.5197 33.2895 22.4 33.3368 22.3707C33.3841 22.3418 33.4096 22.3527 33.4023 22.3527Z" fill="#2B2B2B" stroke="#2B2B2B" stroke-width="0.0418751"/>
<path d="M32.5803 22.8292C32.5803 22.8292 32.3766 22.8255 32.2857 22.869C32.1948 22.9126 32.1621 22.9674 32.1002 22.9599C32.0384 22.9528 31.9911 22.8728 32.0093 22.8401C32.0348 22.789 32.1548 22.7237 32.3839 22.7417C32.6131 22.7601 32.5803 22.8292 32.5803 22.8292Z" fill="#2B2B2B" stroke="#2B2B2B" stroke-width="0.0418751"/>
<path d="M33.2932 23.382C33.2932 23.3711 33.2786 23.0838 33.1659 22.9674C33.0531 22.851 32.9149 22.851 32.853 22.8652C32.7912 22.8799 33.0822 23.0072 33.1113 23.091C33.1404 23.1747 33.235 23.4075 33.2095 23.4657C33.184 23.5235 33.1368 23.302 32.9585 23.24C32.7803 23.1781 32.533 23.2111 32.5839 23.2911C32.6348 23.3711 32.8349 23.2982 32.9367 23.4691C33.0386 23.6399 33.1149 23.8221 33.1149 23.8221L33.1477 23.6981L33.2386 23.673L33.2495 23.4364L33.2932 23.382Z" fill="#2B2B2B" stroke="#2B2B2B" stroke-width="0.0418751"/>
<path d="M33.1477 24.3128L32.9622 23.9418C32.9622 23.9418 32.904 23.7056 32.7476 23.6399C32.5912 23.5746 32.3839 23.5855 32.3803 23.6654C32.3766 23.7454 32.7149 23.8472 32.7367 23.8911C32.7585 23.9347 32.7476 24.0076 32.7185 24.0109C32.6894 24.0147 32.5403 23.9565 32.4639 23.9745C32.3876 23.9929 32.3439 24.0909 32.2312 24.062C32.1184 24.0327 32.0238 23.673 32.0675 23.6365C32.1111 23.6001 31.9838 23.7019 31.9584 23.6072C31.9329 23.5126 31.9948 23.2182 31.9511 23.1818C31.9075 23.1453 31.6965 23.018 31.6929 22.9925C31.6893 22.9674 31.7038 21.5453 32.8931 22.7237C32.3839 22.1198 32.1839 22.1851 32.0893 22.1818C32.0202 22.1818 31.5583 22.2216 31.4419 22.8108C31.3255 23.3999 31.1873 23.0327 31.1873 23.0327C31.1873 23.0327 31.1619 23.2873 31.2855 23.3602C31.4092 23.4326 31.2273 23.6437 31.2273 23.6437C31.2273 23.6437 31.0055 23.1018 31.0382 22.8652C30.9946 23.0545 30.9982 23.5235 31.2782 24.0364C31.6056 24.3819 31.9148 24.7023 32.7367 25.062C33.1695 24.4003 33.1477 24.3204 33.1477 24.3128Z" fill="#2B2B2B" stroke="#2B2B2B" stroke-width="0.0523439" stroke-linejoin="round"/>
<path d="M32.3694 24.3166C32.3694 24.3166 32.6094 24.3455 32.6748 24.4694C32.7403 24.593 32.7694 24.7823 32.7694 24.7823C32.8094 24.7023 32.8276 24.6332 32.9076 24.575C32.9877 24.5168 33.0459 24.5092 33.0422 24.4657C33.0386 24.4221 32.7876 24.1566 32.6603 24.142C32.533 24.1273 32.3112 24.2802 32.3112 24.2802C32.3112 24.2802 32.2712 24.3384 32.3694 24.3166Z" fill="#8A9396" stroke="#2B2B2B" stroke-width="0.0523439" stroke-linejoin="round"/>
<path d="M32.9177 24.9422C32.9177 24.9422 33.5398 25.2257 34.5644 25.2441" stroke="#8A9396" stroke-width="0.0523439" stroke-linecap="round"/>
<path d="M34.9945 22.0545C34.9945 22.0545 34.9413 22.5767 34.5397 23.6068" stroke="#2B2B2B" stroke-width="0.0523439" stroke-linecap="round"/>
<path d="M34.9145 22.3757C34.9145 22.3757 34.7939 22.7505 34.4594 23.0314" stroke="#2B2B2B" stroke-width="0.0418751"/>
<mask id="mask1_1_36037" style="mask-type:alpha" maskUnits="userSpaceOnUse" x="2" y="2" width="24" height="18">
<rect x="2" y="2" width="24" height="18" fill="#C4C4C4"/>
</mask>
<g mask="url(#mask1_1_36037)">
<path d="M2 2L26 20L2 2ZM26 2L2 20L26 2Z" fill="black"/>
<path d="M26 2L2 20M2 2L26 20L2 2Z" stroke="white" stroke-width="2.4"/>
<path d="M2 2L26 20L2 2ZM26 2L2 20L26 2Z" fill="black"/>
<path d="M26 2L2 20M2 2L26 20L2 2Z" stroke="#EE5757" stroke-width="1.6"/>
<path d="M14 2V23V2ZM2 11H30H2Z" fill="black"/>
<path d="M2 11H30M14 2V23V2Z" stroke="white" stroke-width="4"/>
<path d="M14 2V23V2ZM2 11H30H2Z" fill="black"/>
<path d="M2 11H30M14 2V23V2Z" stroke="#EE5757" stroke-width="2.4"/>
</g>
</g>
<path d="M11.7035 1.61228C6.53056 2.04084 2.23921 5.77712 1.57724 11.0101C1.25164 13.5841 1 16.6548 1 20C1 23.3452 1.25164 26.4159 1.57724 28.9899C2.23922 34.2229 6.53056 37.9592 11.7035 38.3877C15.5784 38.7087 20.5852 39 26 39C31.4148 39 36.4216 38.7087 40.2965 38.3877C45.4694 37.9592 49.7608 34.2229 50.4228 28.9899C50.7484 26.4159 51 23.3452 51 20C51 16.6548 50.7484 13.5841 50.4228 11.0101C49.7608 5.77712 45.4694 2.04084 40.2965 1.61228C36.4216 1.29127 31.4148 1 26 1C20.5852 1 15.5784 1.29127 11.7035 1.61228Z" stroke="#E6E6FA" stroke-width="2"/>
<defs>
<linearGradient id="paint0_linear_1_36037" x1="39.2961" y1="14.8505" x2="39.315" y2="13.6204" gradientUnits="userSpaceOnUse">
<stop stop-color="#474747"/>
<stop offset="1" stop-color="#FF5500"/>
</linearGradient>
<linearGradient id="paint1_linear_1_36037" x1="38.875" y1="19.4764" x2="38.8774" y2="20.1742" gradientUnits="userSpaceOnUse">
<stop stop-color="#B50000"/>
<stop offset="1" stop-color="#FFC500"/>
</linearGradient>
<linearGradient id="paint2_linear_1_36037" x1="41.9302" y1="19.9008" x2="43.068" y2="19.8857" gradientUnits="userSpaceOnUse">
<stop stop-color="#D5DFFF"/>
<stop offset="1" stop-color="white"/>
</linearGradient>
<linearGradient id="paint3_linear_1_36037" x1="39.0778" y1="14.617" x2="39.4855" y2="14.617" gradientUnits="userSpaceOnUse">
<stop stop-color="#474747"/>
<stop offset="1" stop-color="#FF5500"/>
</linearGradient>
<linearGradient id="paint4_linear_1_36037" x1="45.002" y1="25.6208" x2="44.8029" y2="24.3829" gradientUnits="userSpaceOnUse">
<stop stop-color="#D5DFFF"/>
<stop offset="1" stop-color="white"/>
</linearGradient>
<linearGradient id="paint5_linear_1_36037" x1="42.2072" y1="20.3258" x2="41.6994" y2="19.5061" gradientUnits="userSpaceOnUse">
<stop stop-color="#D5DFFF"/>
<stop offset="1" stop-color="white"/>
</linearGradient>
</defs>
</svg>
