<svg width="52" height="40" viewBox="0 0 52 40" fill="none" xmlns="http://www.w3.org/2000/svg">
<mask id="mask0_1_40104" style="mask-type:alpha" maskUnits="userSpaceOnUse" x="2" y="2" width="48" height="36">
<path d="M2.56934 11.1356C3.16681 6.41247 7.0415 3.00193 11.7861 2.60887C15.6412 2.28949 20.6196 2 26 2C31.3804 2 36.3588 2.28949 40.2139 2.60887C44.9585 3.00193 48.8332 6.41247 49.4307 11.1356C49.752 13.6759 50 16.704 50 20C50 23.296 49.752 26.3241 49.4307 28.8644C48.8332 33.5875 44.9585 36.9981 40.2139 37.3911C36.3588 37.7105 31.3804 38 26 38C20.6196 38 15.6412 37.7105 11.7861 37.3911C7.0415 36.9981 3.16681 33.5875 2.56934 28.8644C2.248 26.3241 2 23.296 2 20C2 16.704 2.248 13.6759 2.56934 11.1356Z" fill="#00D0BF"/>
</mask>
<g mask="url(#mask0_1_40104)">
<rect x="2" y="26" width="48" height="12" fill="#EE5757"/>
<rect x="2" y="14" width="48" height="12" fill="#3F6FEB"/>
<rect x="2" y="2" width="48" height="12" fill="white"/>
<path d="M24.824 10.4983H24.3162H17.0798H9.84366H9.33581L9.28272 11.0034C9.27119 11.1132 9 13.7592 9 19.5704C9 22.3007 9.92295 24.7094 11.7433 26.7297C13.0186 28.1452 14.6841 29.3369 16.8351 30.3729L17.0798 30.4908L17.3246 30.3729C19.4756 29.3369 21.1412 28.1452 22.4167 26.7297C24.237 24.7094 25.16 22.3007 25.16 19.5704C25.16 13.7593 24.8887 11.1132 24.8772 11.0034L24.824 10.4983Z" fill="white"/>
<path d="M17.0798 29.8647C13.9875 28.3752 9.56409 25.4187 9.56409 19.5704C9.56409 13.722 9.84368 11.0624 9.84368 11.0624H17.0798H24.3162C24.3162 11.0624 24.5959 13.7221 24.5959 19.5704C24.5959 25.4187 20.1724 28.3752 17.0798 29.8647Z" fill="#EE5757"/>
<path d="M17.7421 18.037C18.5794 18.0505 20.213 18.0833 21.6677 17.5966C21.6677 17.5966 21.6293 18.1171 21.6293 18.7234C21.6293 19.3299 21.6677 19.8505 21.6677 19.8505C20.3334 19.4039 18.6856 19.3946 17.7421 19.4066V22.6368H16.4194V19.4066C15.4758 19.3946 13.8281 19.4039 12.4938 19.8505C12.4938 19.8505 12.5322 19.3299 12.5322 18.7234C12.5322 18.1171 12.4938 17.5966 12.4938 17.5966C13.9485 18.0833 15.5821 18.0505 16.4194 18.037V16.0083C15.6562 16.0015 14.5565 16.038 13.3131 16.4541C13.3131 16.4541 13.3515 15.9336 13.3515 15.3271C13.3515 14.7207 13.3131 14.2002 13.3131 14.2002C14.5546 14.6156 15.6531 14.6526 16.416 14.646C16.3768 13.3613 16.0025 11.7422 16.0025 11.7422C16.0025 11.7422 16.7728 11.8023 17.0807 11.8023C17.3889 11.8023 18.1589 11.7422 18.1589 11.7422C18.1589 11.7422 17.7848 13.3614 17.7455 14.6459C18.5085 14.6525 19.6068 14.6155 20.8484 14.2C20.8484 14.2 20.81 14.7205 20.81 15.327C20.81 15.9335 20.8484 16.454 20.8484 16.454C19.605 16.0379 18.5053 16.0014 17.7421 16.0082V18.0368V18.037Z" fill="white"/>
<path d="M17.079 22.2869C15.5214 22.2869 14.6872 24.4473 14.6872 24.4473C14.6872 24.4473 14.2243 23.4229 12.9535 23.4229C12.0937 23.4229 11.4601 24.1876 11.0573 24.8958C12.6215 27.3842 15.1173 28.9199 17.079 29.8647C19.041 28.9198 21.5384 27.3846 23.1027 24.8958C22.6999 24.1876 22.0663 23.4229 21.2065 23.4229C19.9356 23.4229 19.4708 24.4473 19.4708 24.4473C19.4708 24.4473 18.6367 22.2869 17.079 22.2869Z" fill="#3F6FEB"/>
</g>
<path d="M11.7035 1.61228C6.53056 2.04084 2.23921 5.77712 1.57724 11.0101C1.25164 13.5841 1 16.6548 1 20C1 23.3452 1.25164 26.4159 1.57724 28.9899C2.23922 34.2229 6.53056 37.9592 11.7035 38.3877C15.5784 38.7087 20.5852 39 26 39C31.4148 39 36.4216 38.7087 40.2965 38.3877C45.4694 37.9592 49.7608 34.2229 50.4228 28.9899C50.7484 26.4159 51 23.3452 51 20C51 16.6548 50.7484 13.5841 50.4228 11.0101C49.7608 5.77712 45.4694 2.04084 40.2965 1.61228C36.4216 1.29127 31.4148 1 26 1C20.5852 1 15.5784 1.29127 11.7035 1.61228Z" stroke="#E6E6FA" stroke-width="2"/>
</svg>
