<svg width="52" height="40" viewBox="0 0 52 40" fill="none" xmlns="http://www.w3.org/2000/svg">
<mask id="mask0_1_41578" style="mask-type:alpha" maskUnits="userSpaceOnUse" x="2" y="2" width="48" height="36">
<path d="M2.56934 11.1356C3.16681 6.41247 7.0415 3.00193 11.7861 2.60887C15.6412 2.28949 20.6196 2 26 2C31.3804 2 36.3588 2.28949 40.2139 2.60887C44.9585 3.00193 48.8332 6.41247 49.4307 11.1356C49.752 13.6759 50 16.704 50 20C50 23.296 49.752 26.3241 49.4307 28.8644C48.8332 33.5875 44.9585 36.9981 40.2139 37.3911C36.3588 37.7105 31.3804 38 26 38C20.6196 38 15.6412 37.7105 11.7861 37.3911C7.0415 36.9981 3.16681 33.5875 2.56934 28.8644C2.248 26.3241 2 23.296 2 20C2 16.704 2.248 13.6759 2.56934 11.1356Z" fill="#00D0BF"/>
</mask>
<g mask="url(#mask0_1_41578)">
<rect x="2" y="26" width="48" height="12" fill="#EE5757"/>
<rect x="2" y="14" width="48" height="12" fill="#3F6FEB"/>
<rect x="2" y="2" width="48" height="12" fill="white"/>
<path fill-rule="evenodd" clip-rule="evenodd" d="M14.9979 9C14.9284 9.00011 14.8591 9.00153 14.79 9.00354C13.446 9.03837 12.1843 9.38544 11.2859 9.80871L11.286 9.80992C11.1877 9.85098 11.0915 9.89214 11 9.9333L11.3088 14.7703C11.5228 17.298 13.17 18.7697 15.0003 19.3475C16.8305 18.7697 18.4777 17.298 18.6916 14.7703L18.9987 9.94866C18.907 9.9012 18.8109 9.85519 18.7128 9.80992L18.7129 9.80871C17.7686 9.36384 16.4231 9.0025 15.0025 9.0001C15.0015 9.0001 15.0004 9 14.9994 9C14.9989 9 14.9984 9 14.9979 9Z" fill="#3F6FEB"/>
<path fill-rule="evenodd" clip-rule="evenodd" d="M15.0002 12.3471L14.0968 14.1112L13.5128 13.3525L11.9868 15.3692C12.0143 15.4944 12.0467 15.6152 12.0821 15.7332C12.2525 16.0209 12.5801 16.3492 13.0001 16.3492C13.3335 16.3492 13.6668 16.0826 14.0002 16.0826C14.3335 16.0826 14.6668 16.3492 15.0002 16.3492C15.3335 16.3492 15.6669 16.0826 16.0002 16.0826C16.3336 16.0826 16.6669 16.3492 17.0003 16.3492C17.4165 16.3492 17.7419 16.027 17.9136 15.7412C17.9503 15.6201 17.9832 15.4953 18.0116 15.3665L16.4876 13.3525L15.9036 14.1112L15.0002 12.3471ZM14.0002 16.3492C13.6668 16.3492 13.3335 16.6159 13.0001 16.6159C12.7363 16.6159 12.5097 16.5225 12.3341 16.3899C12.3961 16.5215 12.4617 16.6495 12.5334 16.7706C12.671 16.8561 12.8273 16.9139 13.0001 16.9139C13.3335 16.9139 13.6668 16.6473 14.0002 16.6473C14.3335 16.6473 14.6668 16.9139 15.0002 16.9139C15.3335 16.9139 15.6669 16.6473 16.0002 16.6473C16.3336 16.6473 16.6669 16.9139 17.0003 16.9139C17.1707 16.9139 17.3248 16.8574 17.4609 16.7739C17.5327 16.6532 17.5982 16.5257 17.6603 16.3946C17.4856 16.5247 17.261 16.6159 17.0003 16.6159C16.6669 16.6159 16.3336 16.3492 16.0002 16.3492C15.6669 16.3492 15.3335 16.6159 15.0002 16.6159C14.6668 16.6159 14.3335 16.3492 14.0002 16.3492ZM14.0002 16.9139C13.6668 16.9139 13.3335 17.1806 13.0001 17.1806C12.9277 17.1806 12.8588 17.1721 12.7921 17.1593C13.3688 17.9297 14.1556 18.4454 14.9995 18.742C15.8417 18.4459 16.6272 17.9298 17.2036 17.1606C17.1384 17.1729 17.0709 17.1806 17.0003 17.1806C16.6669 17.1806 16.3336 16.9139 16.0002 16.9139C15.6669 16.9139 15.3335 17.1806 15.0002 17.1806C14.6668 17.1806 14.3335 16.9139 14.0002 16.9139Z" fill="white"/>
<path fill-rule="evenodd" clip-rule="evenodd" d="M13.4964 9.64716H14.2527L13.8745 10.302" fill="#FCD95E"/>
<path fill-rule="evenodd" clip-rule="evenodd" d="M14.9987 9C14.9269 9.0001 14.8555 9.00161 14.7841 9.00374C14.8555 9.00184 14.9269 9.00011 14.9987 9ZM11.2866 9.80992C11.1883 9.85099 11.0921 9.89213 11.0006 9.9333L11.3094 14.7704C11.5234 17.2981 13.1706 18.7697 15.0008 19.3475C16.831 18.7697 18.4782 17.2981 18.6922 14.7704L18.9992 9.94866C18.9076 9.9012 18.8114 9.8552 18.7133 9.80992L18.4267 14.6102C18.2281 17.0677 16.699 18.4985 15 19.0604C13.3009 18.4985 11.7718 17.0677 11.5732 14.6102L11.2866 9.80992Z" fill="#EE5757"/>
</g>
<path d="M11.7035 1.61228C6.53056 2.04084 2.23921 5.77712 1.57724 11.0101C1.25164 13.5841 1 16.6548 1 20C1 23.3452 1.25164 26.4159 1.57724 28.9899C2.23922 34.2229 6.53056 37.9592 11.7035 38.3877C15.5784 38.7087 20.5852 39 26 39C31.4148 39 36.4216 38.7087 40.2965 38.3877C45.4694 37.9592 49.7608 34.2229 50.4228 28.9899C50.7484 26.4159 51 23.3452 51 20C51 16.6548 50.7484 13.5841 50.4228 11.0101C49.7608 5.77712 45.4694 2.04084 40.2965 1.61228C36.4216 1.29127 31.4148 1 26 1C20.5852 1 15.5784 1.29127 11.7035 1.61228Z" stroke="#E6E6FA" stroke-width="2"/>
</svg>
