<svg width="52" height="40" viewBox="0 0 52 40" fill="none" xmlns="http://www.w3.org/2000/svg">
<mask id="mask0_1_39766" style="mask-type:alpha" maskUnits="userSpaceOnUse" x="2" y="2" width="48" height="36">
<path d="M2.56934 11.1356C3.16681 6.41247 7.0415 3.00193 11.7861 2.60887C15.6412 2.28949 20.6196 2 26 2C31.3804 2 36.3588 2.28949 40.2139 2.60887C44.9585 3.00193 48.8332 6.41247 49.4307 11.1356C49.752 13.6759 50 16.704 50 20C50 23.296 49.752 26.3241 49.4307 28.8644C48.8332 33.5875 44.9585 36.9981 40.2139 37.3911C36.3588 37.7105 31.3804 38 26 38C20.6196 38 15.6412 37.7105 11.7861 37.3911C7.0415 36.9981 3.16681 33.5875 2.56934 28.8644C2.248 26.3241 2 23.296 2 20C2 16.704 2.248 13.6759 2.56934 11.1356Z" fill="#00D0BF"/>
</mask>
<g mask="url(#mask0_1_39766)">
<rect x="2" y="-4" width="48" height="49" fill="#2E50A6"/>
<rect x="1" y="9" width="50" height="22" fill="#EE5757" stroke="#FCD95E" stroke-width="2"/>
<path d="M42.4446 16.0376L40.3439 16.779L42.4446 17.5204L44.5453 16.779L42.4446 16.0376Z" fill="white" stroke="black" stroke-width="0.0871938"/>
<path d="M41.0627 16.5324H10.7076C10.5593 16.5324 10.439 16.6431 10.439 16.7795C10.439 16.916 10.5593 17.0267 10.7076 17.0267H41.0627C41.2111 17.0267 41.3313 16.916 41.3313 16.7795C41.3313 16.6431 41.2111 16.5324 41.0627 16.5324Z" fill="#FFD900" stroke="black" stroke-width="0.0871938"/>
<path d="M40.5926 17.0263C40.7161 17.0263 40.8399 16.9027 40.8399 16.7792C40.8399 16.6557 40.7162 16.532 40.5927 16.532L40.5926 17.0263ZM40.3452 17.0263C40.4687 17.0263 40.5925 16.9027 40.5925 16.7792C40.5925 16.6557 40.4688 16.532 40.3453 16.532L40.3452 17.0263ZM40.0978 17.0263C40.2213 17.0263 40.3451 16.9027 40.3451 16.7792C40.3451 16.6557 40.2214 16.532 40.0979 16.532" fill="#FFD900"/>
<path d="M40.0978 17.0263C40.2213 17.0263 40.3451 16.9027 40.3451 16.7792C40.3451 16.6557 40.2214 16.532 40.0979 16.532M40.5926 17.0263C40.7161 17.0263 40.8399 16.9027 40.8399 16.7792C40.8399 16.6557 40.7162 16.532 40.5927 16.532L40.5926 17.0263ZM40.3452 17.0263C40.4687 17.0263 40.5925 16.9027 40.5925 16.7792C40.5925 16.6557 40.4688 16.532 40.3453 16.532L40.3452 17.0263Z" stroke="black" stroke-width="0.0871938"/>
<path d="M46.6346 19.6222H5.35147C5.14967 19.6222 4.98608 19.7882 4.98608 19.9929C4.98608 20.1977 5.14967 20.3636 5.35147 20.3636H46.6346C46.8364 20.3636 47 20.1977 47 19.9929C47 19.7882 46.8364 19.6222 46.6346 19.6222Z" fill="#FFD900" stroke="black" stroke-width="0.0934219"/>
<path d="M38.1195 19.9925C35.6481 22.4637 32.3526 27.4066 25.7619 27.4066C19.995 27.4066 15.8765 22.4638 13.4042 19.9925C15.8757 17.5208 19.9946 12.5779 25.7619 12.5779C32.3523 12.5779 35.6473 17.5208 38.1195 19.9925Z" fill="white" stroke="black" stroke-width="0.0871938"/>
<path d="M24.8995 15.1571C25.557 15.8965 25.0079 16.1947 25.7039 16.2432C26.4379 16.2971 26.0218 17.0247 26.6392 17.05C27.0708 17.0689 26.5961 18.7931 27.0115 19.3621C27.4348 19.9552 27.7893 19.5359 27.7967 19.9644C27.8041 20.4076 26.6448 20.3629 26.6245 21.7281C26.5904 22.5149 25.6461 22.5653 25.601 23.0716C25.545 23.5478 27.4615 23.8151 27.4359 24.2414C27.4096 24.6664 25.3666 24.5998 25.2776 25.0845C25.2321 25.5199 28.0843 25.8767 28.3137 27.1358C27.8881 27.2749 26.6771 27.4059 25.7619 27.4066C19.996 27.4108 15.8765 22.4633 13.4052 19.992C15.8766 17.5204 19.9955 12.5775 25.7628 12.5775C25.7628 12.5775 24.051 14.1416 24.9003 15.1565L24.8995 15.1571Z" fill="black"/>
<path d="M18.3178 19.3331V17.3559V19.3331ZM19.5159 17.3559V19.3331V17.3559ZM20.7148 17.3559V19.3331V17.3559Z" fill="black"/>
<path d="M20.7148 17.3559V19.3331M18.3178 19.3331V17.3559V19.3331ZM19.5159 17.3559V19.3331V17.3559Z" stroke="white" stroke-width="0.599198"/>
<path d="M27.6081 19.3331V17.3559V19.3331ZM28.8061 17.3559V19.3331V17.3559ZM30.0051 17.3559V19.3331V17.3559Z" fill="black"/>
<path d="M30.0051 17.3559V19.3331M27.6081 19.3331V17.3559V19.3331ZM28.8061 17.3559V19.3331V17.3559Z" stroke="#2C2929" stroke-width="0.599198"/>
<path d="M18.3178 22.4887V20.5115V22.4887ZM19.5159 20.5115V22.4887V20.5115ZM20.7148 20.5115V22.4887V20.5115Z" fill="black"/>
<path d="M20.7148 20.5115V22.4887M18.3178 22.4887V20.5115V22.4887ZM19.5159 20.5115V22.4887V20.5115Z" stroke="white" stroke-width="0.599198"/>
<path d="M27.6081 22.4887V20.5115V22.4887ZM28.8061 20.5115V22.4887V20.5115ZM30.0051 20.5115V22.4887V20.5115Z" fill="black"/>
<path d="M30.0051 20.5115V22.4887M27.6081 22.4887V20.5115V22.4887ZM28.8061 20.5115V22.4887V20.5115Z" stroke="#2C2929" stroke-width="0.599198"/>
<path d="M21.9567 19.3331V17.3559V19.3331ZM23.1547 17.3559V19.3331V17.3559ZM24.3536 17.3559V19.3331V17.3559Z" fill="black"/>
<path d="M24.3536 17.3559V19.3331M21.9567 19.3331V17.3559V19.3331ZM23.1547 17.3559V19.3331V17.3559Z" stroke="white" stroke-width="0.599198"/>
<path d="M31.247 19.3331V17.3559V19.3331ZM32.4451 17.3559V19.3331V17.3559ZM33.644 17.3559V19.3331V17.3559Z" fill="black"/>
<path d="M33.644 17.3559V19.3331M31.247 19.3331V17.3559V19.3331ZM32.4451 17.3559V19.3331V17.3559Z" stroke="#2C2929" stroke-width="0.599198"/>
<path d="M21.9567 22.4887V20.5115V22.4887ZM23.1547 20.5115V22.4887V20.5115ZM24.3536 20.5115V22.4887V20.5115Z" fill="black"/>
<path d="M24.3536 20.5115V22.4887M21.9567 22.4887V20.5115V22.4887ZM23.1547 20.5115V22.4887V20.5115Z" stroke="white" stroke-width="0.599198"/>
<path d="M31.247 22.4887V20.5115V22.4887ZM32.4451 20.5115V22.4887V20.5115ZM33.644 20.5115V22.4887V20.5115Z" fill="black"/>
<path d="M33.644 20.5115V22.4887M31.247 22.4887V20.5115V22.4887ZM32.4451 20.5115V22.4887V20.5115Z" stroke="#2C2929" stroke-width="0.599198"/>
<path d="M44.0449 19.6984C43.6705 20.3468 44.3322 19.4827 45.9467 20.5682C46.2458 20.7699 46.5072 21.3026 46.5072 21.6719C46.4313 21.6211 46.3749 21.5081 46.2913 21.4346C46.1742 21.552 46.4031 22.0901 46.4366 22.3443C46.1842 22.2031 46.2085 22.1362 46.1246 21.9626C46.1413 22.1725 46.0813 22.7504 46.1817 22.973C45.9828 22.9161 45.996 22.756 45.8922 22.7239C45.9628 22.9757 45.8306 23.2499 45.8656 23.5331C45.7494 23.4181 45.6256 23.3279 45.5715 23.2814C45.5625 23.4163 45.348 23.7707 45.3431 23.8982C45.2445 23.8386 45.2177 23.7457 45.2012 23.6832C45.0786 23.8372 44.643 24.4061 44.6151 24.5797C44.2793 24.2831 43.4193 23.5611 43.3074 23.1778C43.2084 23.3953 43.0652 23.4688 42.782 23.6276C42.6702 23.0202 42.2518 22.3375 42.4756 21.8168C42.317 21.9108 42.1865 22.0048 42.028 22.1205C42.1782 21.2408 42.9438 20.2092 44.0452 19.6984H44.0449Z" fill="#3D5DA7" stroke="black" stroke-width="0.073959"/>
<path d="M42.6488 22.9093C42.8042 22.5986 42.9474 22.5001 43.0479 22.3C43.2253 21.9483 43.2506 21.6686 43.4052 21.7096C43.5597 21.7506 43.5596 21.8946 43.3593 22.2403C43.159 22.5861 43.0638 22.66 42.6488 22.9093ZM43.6998 23.6497C43.6798 23.4131 43.7484 23.3143 43.736 23.162C43.7146 22.8939 43.605 22.71 43.7475 22.6969C43.8901 22.6839 43.9567 22.7753 43.9571 23.0454C43.9576 23.3156 43.9158 23.3865 43.6999 23.6498L43.6998 23.6497ZM44.4973 24.1134C44.4351 23.7831 44.4817 23.6366 44.4418 23.4239C44.3724 23.0495 44.2352 22.8031 44.3672 22.7688C44.4993 22.7345 44.5791 22.8556 44.6291 23.2353C44.6791 23.615 44.6527 23.7193 44.4973 24.1134ZM45.3269 21.7995C45.1321 21.6516 45.0184 21.6417 44.8928 21.5467C44.6716 21.38 44.5596 21.2016 44.4884 21.2901C44.4172 21.3787 44.4678 21.4756 44.6996 21.6294C44.9315 21.7832 45.01 21.7953 45.327 21.7995H45.3269ZM45.1894 22.8954C45.0867 22.6822 44.9786 22.6281 44.9122 22.491C44.7949 22.2499 44.7947 22.0413 44.6674 22.0948C44.54 22.1482 44.5298 22.2574 44.666 22.4908C44.8021 22.7241 44.8734 22.7664 45.1894 22.8954Z" fill="#A70000"/>
<path d="M6.80007 20.3229C6.77914 20.1341 6.81956 20.1115 6.70336 19.9691C6.8725 20.0399 6.8789 20.2279 7.08454 20.0945C7.16003 20.0554 7.19296 20.0541 7.10121 19.8444C7.31562 19.8544 8.01778 20.0951 8.13024 20.1007C8.4255 20.1143 8.96446 19.7905 9.33855 20.1886C9.69765 20.5516 9.57776 20.9283 9.57776 21.4309C9.43347 21.3618 9.50302 21.3277 9.34991 21.148C9.46467 21.5873 9.3438 22.3795 9.3438 22.8455C9.28486 22.7331 9.29351 22.7819 9.2359 22.6656C9.08279 23.0909 8.89929 23.1784 8.89929 23.6811C8.84405 23.484 8.89739 23.5256 8.83592 23.4219C8.68713 23.7449 7.6889 24.0208 8.07355 24.3463C7.72639 24.1427 7.57414 24.1641 7.41671 23.981C7.34884 24.0248 7.29497 24.1077 7.23189 24.2212C6.62147 23.9404 6.83974 23.3346 6.36151 22.9299C6.27875 23.0996 6.31647 23.075 6.22702 23.3511C6.1302 22.9676 6.10373 22.7239 5.99485 22.4419C5.90091 22.5981 5.90927 22.5382 5.73869 22.7745C5.66811 22.3073 5.55323 22.197 5.59867 21.8879C5.41737 22.0158 5.53605 21.964 5.3548 22.1214C5.52653 20.9242 6.26808 20.0395 6.80024 20.3229L6.80007 20.3229Z" fill="#3D5DA7" stroke="black" stroke-width="0.0922974"/>
<path d="M6.04907 22.277C6.20639 21.8915 6.34814 21.7705 6.44981 21.5223C6.62927 21.0862 6.65851 20.7375 6.80925 20.7907C6.96005 20.8439 6.95763 21.0235 6.75591 21.452C6.55418 21.8806 6.45978 21.9715 6.04907 22.2769V22.277ZM6.64455 23.2415C6.70764 22.8959 6.80712 22.77 6.848 22.5475C6.92061 22.1562 6.88012 21.8647 7.02026 21.8801C7.16039 21.8954 7.19205 22.0432 7.0988 22.4325C7.00555 22.8218 6.94119 22.9139 6.64449 23.2415H6.64455ZM7.35681 23.9119C7.37457 23.5768 7.45311 23.4461 7.46488 23.2302C7.48615 22.8507 7.41309 22.579 7.54671 22.5774C7.68032 22.5759 7.72796 22.7124 7.68701 23.0923C7.64607 23.4724 7.59665 23.5672 7.35681 23.9119ZM8.88627 21.7208C8.59384 21.4294 8.41703 21.375 8.22834 21.1876C7.896 20.8586 7.73545 20.5496 7.61712 20.6591C7.49878 20.7687 7.57 20.9328 7.91987 21.2459C8.2698 21.5591 8.39148 21.6047 8.88627 21.7208ZM8.70808 22.847C8.5176 22.5545 8.37782 22.4787 8.25481 22.2905C8.03798 21.9597 7.96336 21.6754 7.84047 21.7459C7.71746 21.8163 7.74497 21.9648 7.98002 22.2855C8.21502 22.606 8.30954 22.665 8.70808 22.8471V22.847Z" fill="#A70000"/>
<path d="M21.7664 13.8941C21.424 14.5562 22.3658 13.6739 23.8422 14.7824C24.1159 14.9884 24.5081 15.802 24.5081 16.1791C24.1937 16.1122 23.6371 15.802 23.6371 15.802C23.6371 15.802 24.2903 16.4563 24.2903 17.2106C24.0595 17.0663 23.9441 17.0879 23.8673 16.9108C23.8673 17.1549 24.0726 17.3106 24.0726 17.6877C23.9322 17.5749 23.7821 17.4748 23.624 17.3884C23.8417 17.7656 23.2272 18.4972 23.5348 18.7414C22.9969 18.6636 22.4466 18.32 22.2288 17.9428C22.1134 18.0206 22.1009 18.1427 22.0964 18.2729C22.1134 18.287 21.2776 17.6526 21.3545 17.4089C21.2424 17.5662 21.2266 17.6526 21.201 17.8299C20.894 17.5271 20.6126 17.2244 20.5102 16.8329C20.3738 17.0101 20.3652 17.0101 20.2288 17.1874C20.1265 16.5671 20.1265 16.5892 20.3311 16.0576C20.1862 16.1536 20.0668 16.2496 19.9218 16.3678C20.0591 15.4695 20.7593 14.4161 21.7665 13.8943L21.7664 13.8941Z" fill="#3D5DA7" stroke="black" stroke-width="0.0714505"/>
<path d="M20.9221 17.1293C20.9769 16.673 21.0962 16.5011 21.1318 16.2073C21.1954 15.6905 21.1199 15.3127 21.3031 15.3224C21.4862 15.3319 21.5389 15.5225 21.4484 16.0382C21.3579 16.5539 21.2816 16.6791 20.9221 17.1293V17.1293ZM21.878 17.9649C21.8409 17.5799 21.912 17.416 21.8883 17.168C21.8477 16.7317 21.7129 16.4362 21.8725 16.409C22.0321 16.3818 22.1128 16.5282 22.13 16.9687C22.1473 17.4093 22.1046 17.5267 21.8779 17.9649H21.878ZM23.3701 18.6465C23.2078 18.3134 23.0684 18.2141 22.9637 17.9996C22.7786 17.6228 22.7399 17.3151 22.5973 17.3708C22.4545 17.4267 22.4624 17.5858 22.6685 17.9547C22.8746 18.3235 22.9678 18.3988 23.3701 18.6465ZM23.8865 15.6631C23.4732 15.4455 23.261 15.4428 22.9946 15.3029C22.5256 15.0578 22.2526 14.7809 22.1557 14.9333C22.0588 15.0857 22.1882 15.2373 22.6717 15.4601C23.1552 15.683 23.3037 15.6935 23.8866 15.6631H23.8865ZM24.0379 16.9095C23.737 16.6592 23.559 16.6224 23.3649 16.4613C23.023 16.1787 22.8528 15.9011 22.7386 16.0137C22.6244 16.1262 22.7007 16.2748 23.0596 16.5411C23.4185 16.8073 23.5412 16.8403 24.0379 16.9095Z" fill="#A70000"/>
</g>
<path d="M11.7035 1.61228C6.53056 2.04084 2.23921 5.77712 1.57724 11.0101C1.25164 13.5841 1 16.6548 1 20C1 23.3452 1.25164 26.4159 1.57724 28.9899C2.23922 34.2229 6.53056 37.9592 11.7035 38.3877C15.5784 38.7087 20.5852 39 26 39C31.4148 39 36.4216 38.7087 40.2965 38.3877C45.4694 37.9592 49.7608 34.2229 50.4228 28.9899C50.7484 26.4159 51 23.3452 51 20C51 16.6548 50.7484 13.5841 50.4228 11.0101C49.7608 5.77712 45.4694 2.04084 40.2965 1.61228C36.4216 1.29127 31.4148 1 26 1C20.5852 1 15.5784 1.29127 11.7035 1.61228Z" stroke="#E6E6FA" stroke-width="2"/>
</svg>
