<svg width="52" height="40" viewBox="0 0 52 40" fill="none" xmlns="http://www.w3.org/2000/svg">
<mask id="mask0_1_35609" style="mask-type:alpha" maskUnits="userSpaceOnUse" x="2" y="2" width="48" height="36">
<path d="M2.56934 11.1356C3.16681 6.41247 7.0415 3.00193 11.7861 2.60887C15.6412 2.28949 20.6196 2 26 2C31.3804 2 36.3588 2.28949 40.2139 2.60887C44.9585 3.00193 48.8332 6.41247 49.4307 11.1356C49.752 13.6759 50 16.704 50 20C50 23.296 49.752 26.3241 49.4307 28.8644C48.8332 33.5875 44.9585 36.9981 40.2139 37.3911C36.3588 37.7105 31.3804 38 26 38C20.6196 38 15.6412 37.7105 11.7861 37.3911C7.0415 36.9981 3.16681 33.5875 2.56934 28.8644C2.248 26.3241 2 23.296 2 20C2 16.704 2.248 13.6759 2.56934 11.1356Z" fill="#00D0BF"/>
</mask>
<g mask="url(#mask0_1_35609)">
<rect x="2" y="20" width="48" height="18" fill="#2E50A6"/>
<rect x="2" y="2" width="48" height="18" fill="#EE5757"/>
<path d="M2 0L31 20L2 40V0Z" fill="white"/>
<path d="M15.3071 16.4956L15.3136 16.2449C15.3136 16.2449 15.179 16.0304 15.3354 15.8001C15.3354 15.8001 15.0033 15.6244 15.0806 15.3493C15.0806 15.3493 14.7804 15.2725 14.8025 14.9424C14.8025 14.9424 14.4786 14.9198 14.4449 14.6441C14.4449 14.6441 14.1208 14.6973 13.9783 14.4286C13.9783 14.4286 13.6622 14.4903 13.5731 14.2687C13.5731 14.2687 13.2657 14.3752 13.0835 14.1147C13.0835 14.1147 12.759 14.2458 12.623 13.9999C12.4888 14.245 12.1643 14.1147 12.1643 14.1147C11.9841 14.3742 11.6747 14.2665 11.6747 14.2665C11.5887 14.4889 11.2735 14.4258 11.2735 14.4258C11.1314 14.6948 10.8078 14.6413 10.8078 14.6413C10.776 14.9162 10.4524 14.9388 10.4524 14.9388C10.478 15.2699 10.1782 15.3449 10.1782 15.3449C10.2573 15.6199 9.92566 15.7951 9.92566 15.7951C10.086 16.0269 9.95258 16.2397 9.95258 16.2397L9.94509 16.4709L15.3081 16.4957" fill="#FFFF00"/>
<path d="M15.3072 16.4956L15.3137 16.2449C15.3137 16.2449 15.1791 16.0304 15.3355 15.8C15.3355 15.8 15.0033 15.6243 15.0807 15.3493C15.0807 15.3493 14.7804 15.2725 14.8026 14.9423C14.8026 14.9423 14.4785 14.9198 14.445 14.644C14.445 14.644 14.1209 14.6973 13.9784 14.4286C13.9784 14.4286 13.6622 14.4902 13.5731 14.2687C13.5731 14.2687 13.2658 14.3752 13.0836 14.1147C13.0836 14.1147 12.759 14.2458 12.6231 13.9999C12.4889 14.245 12.1644 14.1147 12.1644 14.1147C11.9841 14.3743 11.6747 14.2666 11.6747 14.2666C11.5886 14.489 11.2734 14.4259 11.2734 14.4259C11.1313 14.6948 10.8077 14.6413 10.8077 14.6413C10.7759 14.9164 10.4523 14.9389 10.4523 14.9389C10.4779 15.2699 10.1782 15.3449 10.1782 15.3449C10.2572 15.6199 9.92566 15.795 9.92566 15.795C10.0859 16.0268 9.95264 16.2395 9.95264 16.2395L9.94517 16.4708L15.308 16.4956H15.3072Z" fill="#F9D90F" stroke="black" stroke-width="0.0196517"/>
<path d="M15.1818 16.1826C14.3394 16.0984 13.3695 15.8983 12.6208 16.3199C12.1188 16.0241 11.42 16.0422 10.8249 16.1002C10.5017 16.158 10.1216 16.158 9.78404 16.2132L9.73099 16.2207C9.11823 16.2613 8.56247 16.0803 8.02997 15.8424C8.19912 16.8019 8.3867 17.7854 8.47898 18.79C8.6798 20.2778 7.77487 21.527 8.14607 22.9968C8.36762 23.7021 9.14328 24.1121 9.85321 24.1934C10.5406 24.2339 11.2518 24.3465 11.8879 24.4846C12.0089 24.5098 12.1524 24.566 12.2359 24.602C12.4111 24.6754 12.5395 24.783 12.6521 24.8982C13.0361 24.4982 13.599 24.387 14.1543 24.3284C15.1552 24.2114 16.389 24.275 17.0018 23.3684V23.3171C17.3347 22.8157 17.2904 22.0508 17.1462 21.4827C17.1365 21.2846 17.0836 21.1098 17.0548 20.9209C16.4434 19.3064 16.967 17.4905 17.2301 15.863C16.9087 16.0386 16.5502 16.1216 16.1927 16.2095C15.9076 16.2477 15.5897 16.2304 15.301 16.2148L15.1814 16.1826H15.1818Z" fill="#DC171D"/>
<path d="M16.44 20.8164C16.436 20.9227 16.4934 21.0062 16.5142 21.1045C16.6312 21.8103 16.7442 22.7451 16.0175 23.183C15.2136 23.6941 14.1594 23.4753 13.2292 23.7458C13.0434 23.7974 12.7873 23.9682 12.6566 24.0891C12.5728 24.034 12.4885 23.9492 12.3802 23.8994C11.6148 23.4924 10.6197 23.6287 9.75585 23.409C9.32181 23.2718 8.86935 22.9337 8.75936 22.4896C8.47677 21.3244 9.15352 20.3313 9.07363 19.1753C9.02195 18.2925 8.87352 17.4451 8.66968 16.6175C9.34513 16.9322 10.1269 16.9846 10.8863 16.8338C11.4487 16.7552 12.1035 16.7535 12.6305 16.9914C12.9209 16.8664 13.2609 16.8104 13.5739 16.7759C14.169 16.8338 14.8086 16.9415 15.4214 16.9372C15.8306 16.9158 16.2024 16.7975 16.5582 16.6399C16.3472 18.0079 15.9419 19.4406 16.4394 20.8164" fill="#62AFE1"/>
<path d="M15.225 21.089L15.2185 19.8027H15.3769L13.4106 18.533L13.407 17.873H13.5969L12.6137 17.169L11.6355 17.8726H11.8248L11.8284 18.5319L9.87268 19.8002L10.0289 19.8011L10.0355 21.0864L15.2245 21.09" fill="white"/>
<path d="M15.225 21.089L15.2185 19.8027H15.3769L13.4106 18.533L13.4069 17.8731H13.5969L12.6137 17.1691L11.6354 17.8726H11.8246L11.8283 18.5319L9.87256 19.8001L10.0288 19.801L10.0354 21.0863L15.2245 21.09L15.2249 21.089L15.225 21.089Z" stroke="black" stroke-width="0.084408"/>
<path d="M15.8294 22.7787L15.8298 23.1812L9.49528 23.1742L9.49261 22.7733L15.8299 22.7787" fill="white"/>
<path d="M15.8295 22.7787L15.8299 23.1812L9.49529 23.1742L9.49268 22.7734L15.8299 22.7788H15.8295V22.7787Z" stroke="black" stroke-width="0.084408"/>
<path d="M9.91591 22.7544L9.91065 21.3923L10.1672 21.3918L10.153 22.7698L10.1686 21.4029L9.79901 21.3923V21.1001L15.4604 21.1064L15.4631 21.3959H15.114L15.1205 22.7752L15.1082 21.3959H15.3681L15.3738 22.7597" fill="white"/>
<path d="M13.0055 20.1234L13.0081 20.6751H13.356L13.3542 20.1234H13.0054M9.91593 22.7544L9.91064 21.3923L10.1671 21.3918L10.153 22.7698L10.1685 21.4028L9.79895 21.3923V21.1L15.4603 21.1063L15.463 21.3958H15.1138L15.1203 22.7751L15.108 21.3957H15.368L15.3738 22.7595L9.91593 22.7544ZM11.133 22.4188L11.1289 21.469H10.3688L10.3731 22.4179L11.1329 22.4188H11.133ZM11.1329 22.4188L11.1289 21.469H10.3687L10.373 22.4179L11.1329 22.4188H11.1329ZM11.1329 22.4188L11.1288 21.469H10.3686L10.373 22.4179L11.1328 22.4188H11.1329ZM11.1328 22.4188L11.1287 21.469H10.3685L10.3729 22.4179L11.1327 22.4188H11.1328ZM11.1327 22.4188L11.1286 21.469H10.3685L10.3728 22.4179L11.1326 22.4188H11.1327ZM10.5754 21.6671L10.5776 22.2189H10.9255L10.9238 21.6671H10.5754ZM14.8488 22.4214L14.8445 21.4725L14.0868 21.4716L14.0905 22.4214H14.8488ZM14.2917 21.6706L14.2957 22.2206H14.6431L14.64 21.6706H14.2917V21.6706ZM14.8431 20.8749L14.8387 19.925H14.0802L14.0829 20.8749H14.8437H14.8432H14.8431ZM14.286 20.125L14.2882 20.6758H14.6357L14.6352 20.125H14.2864H14.286ZM11.1269 20.8714L11.1216 19.9233L10.3628 19.9224L10.3664 20.8708H11.1271V20.8714L11.1269 20.8714ZM10.5697 20.1215L10.5715 20.6714L10.9199 20.6723L10.9172 20.1215H10.5699H10.5697ZM12.5026 20.8731L12.499 19.925L11.7396 19.9242L11.7428 20.8731H12.5026V20.8731ZM11.9459 20.1224L11.9476 20.6724L12.2955 20.6741L12.2934 20.1223H11.946L11.9459 20.1224ZM13.563 20.875L13.5577 19.9251L12.7989 19.9242L12.8025 20.8731L13.5632 20.8749L13.563 20.875Z" stroke="black" stroke-width="0.084408"/>
<path d="M13.751 20.5837L13.7594 22.7733L11.5596 22.7697L11.5516 20.5819L13.7506 20.5836" fill="white"/>
<path d="M12.0306 17.996L12.0328 18.5476L13.2036 18.5485L13.2014 17.9967L12.0306 17.996M13.751 20.5837L13.7594 22.7734L11.5596 22.7698L11.5516 20.5819L13.7505 20.5837H13.751V20.5837ZM11.5384 21.2087L13.7532 21.2104L11.5384 21.2087ZM11.5384 21.2087L13.7532 21.2104L11.5384 21.2087ZM11.5384 21.2087L13.7532 21.2104L11.5384 21.2087ZM11.5384 21.2087L13.7532 21.2104L11.5384 21.2087ZM11.5384 21.2087L13.7532 21.2104L11.5384 21.2087ZM11.8147 22.7725L11.8073 21.225L11.8147 22.7725ZM13.4918 22.7734L13.4843 21.2267L13.4918 22.7734ZM14.554 19.6511L13.3154 18.7466L11.9234 18.7448L10.6943 19.6476L14.554 19.6511L14.554 19.6511ZM12.0306 17.996L12.0328 18.5476L13.2036 18.5485L13.2014 17.9967L12.0306 17.996V17.996Z" stroke="black" stroke-width="0.084408"/>
<path d="M12.0306 17.996L12.0328 18.5476L13.2036 18.5485L13.2014 17.9967L12.0306 17.996" stroke="black" stroke-width="0.084408"/>
<path d="M12.6138 17.3685L13.265 17.8288L11.9675 17.827L12.6138 17.3684M12.3479 18.1327L12.3497 18.4077H12.8874L12.8856 18.1327H12.3479ZM12.6138 17.3682L13.265 17.8285L11.9675 17.8267L12.6138 17.3681V17.3682ZM12.6138 17.3682L13.265 17.8285L11.9675 17.8268L12.6138 17.3682V17.3682ZM12.6138 17.3683L13.265 17.8286L11.9675 17.8269L12.6138 17.3682V17.3683ZM12.6138 17.3684L13.265 17.8287L11.9675 17.8269L12.6138 17.3683V17.3684Z" stroke="black" stroke-width="0.084408"/>
<path d="M15.2467 17.0561C15.4317 17.0517 15.4794 17.818 15.4798 18.1975C15.6387 18.2421 15.991 18.4636 16.1469 18.6639L14.3597 18.6613C14.5133 18.4636 14.8631 18.2412 15.0207 18.1966C15.0207 17.8166 15.0595 17.0507 15.2467 17.0553" fill="white"/>
<path d="M15.2466 17.0561C15.4317 17.0518 15.4794 17.818 15.4798 18.1975C15.6386 18.2421 15.9911 18.4636 16.1469 18.6641L14.3598 18.6614C14.5135 18.4637 14.8631 18.2413 15.0207 18.1967C15.0207 17.8167 15.0596 17.0509 15.2468 17.0554L15.2466 17.0561ZM11.6546 20.6451H11.8149L11.7681 20.7311L11.6546 20.6451ZM11.6546 20.6451H11.8149L11.7681 20.7311L11.6546 20.6451ZM11.6546 20.6452H11.8149L11.7681 20.7312L11.6546 20.6452ZM11.6546 20.6453H11.8149L11.7681 20.7313L11.6546 20.6453ZM11.6546 20.6454H11.8149L11.7681 20.7314C11.7681 20.7314 11.8453 20.8307 11.7694 20.9445L11.8115 21.0236H11.6569L11.6988 20.9486C11.6988 20.9486 11.6197 20.8166 11.7024 20.7314L11.6547 20.6455L11.6546 20.6454ZM11.9814 20.6455H12.1417L12.0952 20.7315C12.0952 20.7315 12.1726 20.8283 12.0958 20.9447L12.1372 21.0237H11.9832L12.0247 20.9487C12.0247 20.9487 11.9474 20.8168 12.0287 20.7316L11.9815 20.6456L11.9814 20.6455ZM12.3376 20.6456H12.4975L12.4497 20.7316C12.4497 20.7316 12.5278 20.831 12.451 20.9448L12.493 21.0257L12.3398 21.0239L12.3808 20.9489C12.3808 20.9489 12.3027 20.8179 12.384 20.7318L12.3372 20.6459H12.3376V20.6456ZM12.7398 20.6464H12.901L12.8539 20.7334C12.8539 20.7334 12.9311 20.831 12.8543 20.9452L12.8976 21.0256H12.7421L12.7836 20.9505C12.7836 20.9505 12.7064 20.8177 12.7889 20.7334L12.7403 20.6464H12.7399H12.7398ZM13.0974 20.6464H13.2573L13.2101 20.7334C13.2101 20.7334 13.2877 20.831 13.2109 20.9448L13.2533 21.0257H13.0992L13.1394 20.9506C13.1394 20.9506 13.0618 20.8187 13.1456 20.7335L13.0974 20.6464L13.0974 20.6464ZM13.4529 20.6475L13.6128 20.6465L13.5656 20.7335C13.5656 20.7335 13.6447 20.831 13.5678 20.9452L13.6079 21.0257H13.4533L13.4948 20.9506C13.4948 20.9506 13.4175 20.8186 13.5001 20.7335L13.4529 20.6475Z" stroke="black" stroke-width="0.084408"/>
<path d="M12.6619 25.5802C13.4857 25.5828 14.4988 25.4146 14.9733 25.1692L16.0156 25.077L16.0363 26.3486C15.1534 26.8355 13.1147 26.9401 12.6661 26.9366C12.2172 26.9402 10.1533 26.8338 9.26636 26.3452L9.27787 25.0726L10.3223 25.1667C10.7969 25.4109 11.8411 25.5803 12.6638 25.5803H12.6616" fill="#F9D90F"/>
<path d="M12.6619 25.5801C13.4856 25.5828 14.4988 25.4146 14.9733 25.1692L16.0156 25.0769L16.0364 26.3486C15.1534 26.8354 13.1147 26.94 12.6663 26.9365C12.2172 26.9401 10.1534 26.8337 9.26642 26.3451L9.27788 25.0726L10.3224 25.1666C10.7971 25.4108 11.841 25.5802 12.664 25.5802H12.6618" stroke="black" stroke-width="0.0196517"/>
<path d="M6.58337 20.1559L7.50162 20.4482L7.22392 21.9348L6.3547 22.0698C6.3547 22.0698 6.20822 21.2881 6.58345 20.1552" fill="#F9D90F"/>
<path d="M6.58331 20.156L7.50159 20.4482L7.22383 21.9348L6.35465 22.0698C6.35465 22.0698 6.20815 21.2881 6.58331 20.155V20.1559V20.156Z" stroke="black" stroke-width="0.0196517"/>
<path d="M7.22341 21.9184L6.35461 22.0698L6.90425 21.2881L7.22341 21.9184Z" fill="#7E7E7E"/>
<path d="M7.22349 21.9184L6.35468 22.0698L6.90425 21.2881L7.22335 21.9184" fill="#F9B60F"/>
<path d="M7.22349 21.9184L6.35468 22.0698L6.90425 21.2881L7.22335 21.9184" stroke="black" stroke-width="0.0196517"/>
<path d="M6.03414 21.2267L6.91927 21.2908C6.93914 22.0407 7.03012 24.9026 10.4479 25.058L10.3415 26.0993C6.18112 26.1424 5.86499 22.589 6.03414 21.2268" fill="#F9D90F"/>
<path d="M9.28319 26.3124L10.3264 26.0847M6.03412 21.2268L6.91926 21.2908C6.93913 22.0407 7.03007 24.9026 10.4479 25.058L10.3416 26.0992C6.18119 26.1425 5.86507 22.5889 6.03419 21.2268H6.03412ZM9.2829 26.3124L10.3261 26.0847L9.2829 26.3124ZM9.28298 26.3124L10.3261 26.0847L9.28298 26.3124ZM9.28305 26.3124L10.3262 26.0847L9.28305 26.3124ZM9.28312 26.3124L10.3263 26.0847L9.28312 26.3124Z" stroke="black" stroke-width="0.0196517"/>
<path d="M18.6682 20.1665L17.7533 20.456L18.0434 21.9405L18.9143 22.0802C18.9143 22.0802 19.0543 21.2991 18.668 20.1656" fill="#FFFF00"/>
<path d="M18.6681 20.1665L17.7534 20.456L18.0434 21.9404L18.9144 22.0804C18.9144 22.0804 19.0544 21.2991 18.668 20.1656V20.1665H18.6681Z" fill="#F9D90F" stroke="black" stroke-width="0.0196517"/>
<path d="M18.0433 21.925L18.9143 22.0812L18.3572 21.2992L18.0433 21.925Z" fill="#7E7E7E"/>
<path d="M18.0434 21.925L18.9144 22.0813L18.3573 21.2992L18.0434 21.9249" fill="#F9B60F"/>
<path d="M18.0434 21.925L18.9144 22.0813L18.3573 21.2992L18.0434 21.9249" stroke="black" stroke-width="0.0196517"/>
<path d="M19.2274 21.2387L18.3409 21.2992C18.3281 22.0483 18.2628 24.9115 14.8448 25.0633L14.961 26.1037C19.1205 26.1518 19.4066 22.5999 19.2273 21.2383" fill="#F9D90F"/>
<path d="M16.0223 26.3182L14.9765 26.089M19.2274 21.2387L18.3409 21.2993C18.3281 22.0483 18.2628 24.9115 14.8449 25.0633L14.9611 26.1036C19.1206 26.1517 19.4067 22.5998 19.2274 21.2383V21.2386L19.2274 21.2387Z" stroke="black" stroke-width="0.0196517"/>
<path d="M12.1086 26.2069C12.0853 26.222 12.0536 26.2259 12.0169 26.2242L11.8518 26.2157L11.8659 26.0096L12.0297 26.0185C12.0619 26.0206 12.0875 26.0269 12.1035 26.0366C12.1366 26.0539 12.1511 26.0856 12.1481 26.1297C12.1459 26.1677 12.1326 26.1924 12.1083 26.2069H12.1086ZM11.831 26.5315L11.8474 26.2803L12.0398 26.2936C12.1021 26.2985 12.1484 26.2821 12.1798 26.2504C12.2124 26.2194 12.2292 26.1788 12.2314 26.1329C12.2354 26.0794 12.2216 26.0357 12.1899 26.0036C12.1595 25.9726 12.1161 25.9563 12.0618 25.951L11.7868 25.9339L11.7489 26.5253L11.8305 26.5306L11.831 26.5315ZM12.4296 26.0367L12.6309 26.0388L12.4296 26.0367ZM12.4296 26.0367L12.6309 26.0388L12.4296 26.0367ZM12.4296 26.0367L12.6309 26.0388L12.4296 26.0367ZM12.4296 26.0367L12.6309 26.0388L12.4296 26.0367ZM12.4296 26.0367L12.6309 26.0388C12.6601 26.0415 12.683 26.045 12.6998 26.053C12.7308 26.0676 12.7453 26.0967 12.7453 26.139C12.7453 26.1788 12.7338 26.2053 12.7113 26.2212C12.6897 26.2356 12.6583 26.2423 12.6208 26.2423L12.4274 26.2402L12.4292 26.0367H12.4296ZM12.426 26.5607L12.4278 26.3082L12.6167 26.3108C12.6502 26.3108 12.675 26.3134 12.6921 26.3219C12.72 26.3347 12.7336 26.3616 12.7349 26.3987L12.7398 26.498C12.7411 26.5217 12.7415 26.5364 12.7429 26.5462C12.7456 26.5531 12.7469 26.5606 12.7503 26.5661H12.8518L12.8501 26.5533C12.8386 26.5472 12.8294 26.5353 12.8254 26.5171C12.8218 26.5056 12.8201 26.4883 12.8192 26.4668L12.8175 26.3878C12.8162 26.352 12.81 26.3273 12.7963 26.3137C12.783 26.2956 12.7643 26.2822 12.7429 26.2755C12.7711 26.2607 12.7923 26.2434 12.8078 26.2222C12.8224 26.1987 12.8298 26.1692 12.8298 26.133C12.8298 26.0651 12.8021 26.0187 12.7456 25.9936C12.7151 25.9799 12.6762 25.9727 12.6304 25.972L12.3465 25.9692L12.3443 26.5623H12.4259L12.426 26.5607ZM13.056 26.4366C13.0198 26.3925 13.0003 26.3373 12.9959 26.2721C12.9918 26.19 13.0077 26.1272 13.0453 26.0849C13.0833 26.0388 13.1323 26.0169 13.1963 26.0134C13.2607 26.0098 13.3137 26.0305 13.353 26.0711C13.3933 26.1108 13.4162 26.1661 13.4202 26.2349C13.4223 26.3011 13.4108 26.3598 13.3804 26.4114C13.3504 26.4639 13.3006 26.4935 13.2269 26.4953C13.1501 26.4993 13.0927 26.4812 13.056 26.4366H13.056ZM12.9589 26.0632C12.9209 26.1219 12.9055 26.1899 12.9095 26.2719C12.9152 26.3607 12.9426 26.4339 12.9942 26.4891C13.0516 26.5443 13.1275 26.5721 13.2212 26.5669C13.3214 26.5623 13.3968 26.5244 13.4481 26.4546C13.4896 26.3916 13.5094 26.3183 13.505 26.2279C13.4992 26.147 13.4759 26.0812 13.4323 26.0323C13.377 25.9665 13.2962 25.9374 13.1867 25.9418C13.0835 25.9484 13.0075 25.9864 12.9585 26.0632H12.9589ZM15.7469 25.2101C15.8037 25.2003 15.8532 25.203 15.8982 25.2185C15.9644 25.2392 16.0091 25.2883 16.0368 25.3633L15.9551 25.3747C15.9375 25.3342 15.9123 25.3063 15.8783 25.2908C15.8452 25.2764 15.8037 25.2728 15.7561 25.2797C15.7297 25.2833 15.7044 25.2923 15.6818 25.3061C15.6591 25.32 15.6396 25.3385 15.6245 25.3604C15.5935 25.4081 15.5843 25.4717 15.598 25.5528C15.6094 25.62 15.6341 25.6769 15.6747 25.7148C15.7122 25.7537 15.7674 25.7673 15.8394 25.7573C15.8934 25.7483 15.9366 25.7268 15.967 25.6896C15.9987 25.6543 16.0081 25.6009 15.9975 25.5321L15.8072 25.5613L15.7975 25.496L16.0623 25.4553L16.114 25.7691L16.0615 25.777L16.0289 25.7047C16.0068 25.7375 15.9847 25.7626 15.9652 25.7771C15.9327 25.8027 15.8885 25.819 15.8334 25.8269C15.7618 25.8379 15.6965 25.8251 15.6373 25.7872C15.5724 25.739 15.5305 25.6676 15.5146 25.5684C15.4973 25.4708 15.5128 25.3873 15.5578 25.3215C15.6006 25.258 15.6628 25.2209 15.7468 25.209L15.7469 25.2101ZM16.3458 25.164L16.5357 25.0951C16.5616 25.0855 16.5843 25.0822 16.6036 25.0845C16.6385 25.0872 16.6641 25.1079 16.6787 25.1493C16.6924 25.1847 16.6924 25.2155 16.6769 25.2373C16.6606 25.2597 16.635 25.2761 16.5979 25.2898L16.4196 25.3539L16.3458 25.164ZM16.5357 25.6544L16.443 25.4165L16.6195 25.3529C16.6528 25.3424 16.6757 25.3366 16.6929 25.3384C16.7243 25.3424 16.7482 25.3614 16.764 25.3974L16.8043 25.4881C16.8129 25.5106 16.8201 25.5243 16.8259 25.5304C16.8285 25.5384 16.8342 25.5433 16.8386 25.5484L16.9344 25.5132L16.9292 25.5004C16.915 25.5004 16.9014 25.4925 16.8912 25.477C16.8837 25.466 16.8766 25.4501 16.8664 25.4316L16.8351 25.3575C16.8209 25.3252 16.8063 25.3054 16.7896 25.2934C16.7701 25.2831 16.7485 25.2772 16.7265 25.2761C16.7459 25.2537 16.7601 25.2311 16.7654 25.2047C16.7711 25.1777 16.7685 25.1478 16.7557 25.1142C16.7314 25.0511 16.6868 25.0167 16.6241 25.0123C16.591 25.0097 16.553 25.0167 16.5093 25.0321L16.2426 25.1269L16.4581 25.6848L16.5362 25.656L16.5357 25.6544ZM17.2301 25.3604L16.8915 24.8666L17.2631 24.6295L17.3041 24.6891L16.9997 24.8837L17.1038 25.0347L17.385 24.8537L17.4235 24.9116L17.1423 25.0925L17.2571 25.2589L17.5669 25.0607L17.608 25.119L17.2296 25.3604L17.2301 25.3604ZM17.5262 24.4875L17.6234 24.3806C17.6683 24.333 17.716 24.3113 17.7682 24.3176C17.8202 24.3219 17.8733 24.3493 17.9298 24.3988C17.9452 24.4107 17.9589 24.4261 17.973 24.4434C17.9978 24.4756 18.0123 24.5039 18.0216 24.5321C18.0297 24.5675 18.0279 24.5997 18.0155 24.6306C18.0081 24.646 17.9948 24.6641 17.9749 24.6858L17.8774 24.7917L17.5265 24.4867L17.5262 24.4875ZM18.0396 24.7192C18.1085 24.6434 18.1235 24.5615 18.0834 24.4694C18.0575 24.4153 18.0205 24.3673 17.9747 24.3286C17.9126 24.2734 17.8476 24.2451 17.7792 24.2399C17.7033 24.2342 17.6388 24.2615 17.5827 24.3228L17.4171 24.5003L17.8736 24.8985L18.0392 24.7202L18.0396 24.7192ZM18.393 24.2589L17.8676 23.9502L17.9105 23.8823L18.4367 24.1891L18.3935 24.2596L18.393 24.2589ZM18.5992 23.9005L18.032 23.6734L18.1993 23.2745L18.2682 23.3009L18.1317 23.6298L18.3026 23.6969L18.4302 23.3939L18.4955 23.4209L18.3694 23.7233L18.5605 23.801L18.7005 23.4682L18.7694 23.4941L18.599 23.9003L18.5992 23.9005ZM18.8598 23.2038L18.2631 23.0718L18.2829 22.9797L18.8343 22.7933L18.35 22.6865L18.3677 22.6142L18.9646 22.7426L18.9456 22.8322L18.3935 23.0225L18.8777 23.1271L18.8604 23.2039L18.8598 23.2038ZM18.8127 22.446L18.8202 22.371C18.8547 22.3719 18.8838 22.3667 18.9058 22.3547C18.9491 22.3312 18.9742 22.2868 18.9809 22.2208C18.9836 22.1901 18.9823 22.1631 18.9751 22.1375C18.9624 22.0881 18.9346 22.0607 18.89 22.0561C18.8569 22.0527 18.8331 22.0607 18.8158 22.0788C18.8004 22.0995 18.784 22.1294 18.7716 22.1718L18.7443 22.2499C18.7267 22.301 18.7103 22.3364 18.6927 22.3562C18.6644 22.3934 18.6247 22.4061 18.5739 22.4026C18.5196 22.3969 18.4755 22.3753 18.4441 22.3337C18.412 22.2957 18.3987 22.2414 18.4067 22.1743C18.412 22.1129 18.4323 22.0612 18.4685 22.0199C18.5021 21.9819 18.5541 21.9637 18.6208 21.9709L18.6147 22.0458C18.5821 22.0458 18.556 22.0515 18.5371 22.0648C18.5025 22.0838 18.4836 22.124 18.4778 22.1827C18.4729 22.2313 18.4796 22.264 18.4981 22.2887C18.5167 22.3094 18.54 22.3227 18.5674 22.3249C18.5966 22.3276 18.6195 22.3183 18.6354 22.2958C18.6468 22.2803 18.6604 22.2469 18.679 22.1925L18.7059 22.1104C18.7192 22.0724 18.7351 22.0433 18.7536 22.0226C18.7867 21.9882 18.8299 21.9736 18.8843 21.9777C18.9505 21.9847 18.9977 22.0121 19.022 22.0624C19.046 22.1131 19.0552 22.1692 19.0493 22.2328C19.0419 22.3048 19.0185 22.3612 18.9752 22.3992C18.932 22.4381 18.878 22.4513 18.8127 22.446H18.8127ZM6.43982 22.4097L6.45349 22.4838C6.42038 22.4905 6.39389 22.5038 6.37446 22.521C6.33962 22.5536 6.32767 22.6026 6.33962 22.6693C6.34488 22.6975 6.35502 22.7252 6.36784 22.7474C6.39433 22.7923 6.4288 22.8103 6.47249 22.8032C6.50474 22.7975 6.52598 22.7852 6.53612 22.7622C6.54584 22.7397 6.5529 22.7052 6.55513 22.6611L6.55909 22.5776C6.56182 22.526 6.56751 22.4855 6.57895 22.4629C6.59716 22.4223 6.63114 22.3971 6.68188 22.3888C6.70673 22.3838 6.73237 22.3842 6.75705 22.3899C6.78173 22.3957 6.80487 22.4068 6.82491 22.4223C6.86637 22.4511 6.89379 22.5009 6.90394 22.567C6.9169 22.6276 6.91099 22.6819 6.88717 22.7308C6.86414 22.7785 6.82008 22.8076 6.75257 22.8201L6.73925 22.745C6.77056 22.7335 6.79396 22.7224 6.80943 22.707C6.83592 22.6773 6.84398 22.6346 6.83376 22.5758C6.82584 22.5281 6.80943 22.4972 6.78481 22.4818C6.76034 22.4637 6.73616 22.4566 6.70967 22.4611C6.68016 22.4654 6.66072 22.4818 6.65136 22.5082C6.64561 22.5258 6.64129 22.5624 6.63718 22.6186L6.63315 22.705C6.63099 22.7456 6.62473 22.7792 6.61113 22.8021C6.58953 22.8446 6.55282 22.8705 6.49942 22.879C6.4319 22.8905 6.37979 22.8751 6.34272 22.8319C6.30457 22.7895 6.28125 22.7388 6.2693 22.6757C6.25612 22.6006 6.26584 22.5424 6.29593 22.4956C6.3263 22.4473 6.37439 22.4196 6.43974 22.4103L6.43982 22.4097ZM6.40231 23.192L6.98585 23.0164L7.12189 23.4274L7.05064 23.4497L6.9395 23.1121L6.76207 23.1656L6.865 23.4776L6.79698 23.4992L6.69498 23.1863L6.49726 23.2453L6.61026 23.5905L6.54044 23.6105L6.40224 23.192H6.40231ZM6.66101 23.9044L7.19798 23.6197L7.25527 23.7198L6.88616 24.1101L7.42529 24.0178L7.48086 24.1171L6.94533 24.4L6.9074 24.3342L7.22339 24.1679C7.2349 24.1612 7.25261 24.1515 7.27823 24.1379C7.30343 24.1264 7.33172 24.111 7.35993 24.0964L6.82311 24.1878L6.78381 24.118L7.15018 23.7292L7.13262 23.7381C7.1211 23.7447 7.10131 23.7544 7.07432 23.7698C7.05544 23.7819 7.03566 23.7925 7.01515 23.8016L6.69988 23.9707L6.66101 23.9036V23.9044ZM7.66153 24.6951C7.63453 24.6889 7.60797 24.6735 7.58199 24.6465L7.46855 24.5296L7.62115 24.3896L7.73559 24.5062C7.75762 24.5278 7.77173 24.549 7.77928 24.5671C7.78987 24.602 7.77928 24.6338 7.74711 24.6638C7.71796 24.6907 7.68881 24.7018 7.66145 24.6951H7.66153ZM7.23015 24.7495L7.4173 24.5777L7.55017 24.7123C7.593 24.756 7.63669 24.7759 7.68262 24.7749C7.72857 24.7729 7.77214 24.7539 7.80498 24.7217C7.84457 24.6863 7.86364 24.6448 7.86364 24.6003C7.86314 24.5571 7.84327 24.5164 7.80664 24.4785L7.61589 24.2838L7.17178 24.6917L7.22914 24.7495L7.23015 24.7495ZM7.76539 25.226L8.08729 24.7216L8.46784 24.9529L8.42811 25.013L8.1155 24.8258L8.01876 24.9786L8.30617 25.1528L8.26903 25.2107L7.98112 25.0372L7.87171 25.208L8.18827 25.3983L8.15027 25.4579L7.76532 25.2261L7.76539 25.226ZM8.71804 25.1286L8.91138 25.1901C8.93873 25.1984 8.9586 25.209 8.97184 25.221C8.9966 25.2444 9.00315 25.2779 8.98861 25.3185C8.97681 25.3537 8.95867 25.3768 8.93031 25.3865C8.90512 25.3908 8.87345 25.3908 8.8363 25.3793L8.65398 25.3211L8.71804 25.1287V25.1286ZM8.55119 25.6244L8.63159 25.3838L8.81169 25.4426C8.84386 25.4511 8.86726 25.4626 8.87877 25.4744C8.9008 25.4942 8.90756 25.5238 8.89641 25.5605L8.86949 25.6561C8.8633 25.6796 8.86013 25.695 8.85754 25.702C8.85754 25.7096 8.85754 25.7176 8.85883 25.7228L8.95385 25.7537L8.95961 25.74C8.94938 25.732 8.94363 25.7175 8.94406 25.6995C8.94622 25.6884 8.94938 25.6707 8.95557 25.6505L8.97861 25.5736C8.98782 25.5401 8.99135 25.5149 8.98293 25.4968C8.97505 25.4761 8.9616 25.4579 8.94406 25.4443C8.97407 25.439 9.0002 25.4297 9.02216 25.4133C9.04303 25.3953 9.06059 25.3701 9.07125 25.3349C9.09284 25.2708 9.08089 25.2174 9.0331 25.1768C9.00934 25.1556 8.97537 25.1374 8.93074 25.1207L8.6606 25.0373L8.47166 25.6L8.55069 25.6243L8.55119 25.6244Z" fill="#012A87"/>
<path d="M9.37076 15.3828C9.44058 15.2146 10.0868 14.756 12.2076 14.9568C12.2076 14.9568 12.5661 15.1757 12.7767 15.1476C12.8969 15.132 12.7061 15.155 12.5494 15.0248C12.3896 14.8947 12.3556 14.6276 12.7207 14.6347C13.084 14.644 14.4442 14.7207 14.4698 14.843C14.4935 14.9666 13.7507 15.0182 13.4743 15.0111C13.1965 15.0037 13.2289 15.1441 13.5053 15.1335C14.3687 15.1025 15.3112 14.7984 16.3067 15.5024C16.4255 15.5881 16.0066 15.6018 15.6824 15.464C15.6824 15.464 14.8043 15.5096 14.4246 15.4473C14.4246 15.4473 14.1328 15.6847 13.7527 15.6613C13.8021 15.7844 13.6123 16.2439 12.4172 15.8983C12.22 15.9587 11.5008 16.0793 11.5794 15.8657C11.3901 15.8657 11.058 15.9265 11.0086 15.8189C10.9609 15.7131 11.5931 15.5525 11.7039 15.438C11.7039 15.438 10.3665 15.4508 10.1132 15.3585C10.1132 15.3585 9.32426 15.5356 9.37069 15.3819" fill="#BC715F"/>
<path d="M9.7994 17.2551C9.82819 17.2163 9.83957 17.1466 9.90053 17.1483C10.033 17.1836 10.1229 17.4259 10.2859 17.2687C10.3437 17.2559 10.3658 17.3346 10.4135 17.3438C10.4438 17.4784 10.552 17.3165 10.6328 17.3256C10.8054 17.2488 11.019 17.2306 11.2234 17.2687C11.2296 17.4007 11.1263 17.5463 10.9966 17.6214C10.9993 17.7542 11.1198 17.8395 11.1175 17.9732C11.0968 18.0231 11.114 18.1016 11.0385 18.1179C10.9428 18.1008 10.8482 18.0907 10.7688 18.0373C10.7591 18.0275 10.7512 18.0085 10.7308 18.0147C10.7211 18.0594 10.7908 18.1036 10.8182 18.149C10.77 18.231 10.6902 18.156 10.6231 18.1569C10.6032 18.2042 10.6222 18.2638 10.5736 18.2942C10.4888 18.2916 10.4716 18.1994 10.4196 18.1534C10.3661 18.2112 10.457 18.2456 10.47 18.2916C10.4373 18.4655 10.4416 18.6354 10.2677 18.7493L10.1511 18.8072C10.1194 18.7197 10.1393 18.5873 10.118 18.4959C10.0491 18.608 9.99533 18.7061 9.89413 18.8009C9.77594 18.762 9.70698 18.6225 9.68107 18.5069C9.63154 18.3722 9.65983 18.2111 9.76622 18.1136C9.73001 18.043 9.60592 18.0592 9.58829 17.9587C9.40243 17.8377 9.29965 18.1706 9.17944 17.9975C9.14057 17.836 9.187 17.635 9.30397 17.5145C9.27805 17.4483 9.19146 17.4656 9.14028 17.4276C9.02339 17.3283 8.85467 17.2233 8.86316 17.0439C9.18311 16.923 9.5659 17.0118 9.79854 17.255" fill="#008830"/>
<path d="M9.96546 17.2371C9.95798 17.3836 10.0644 17.2767 10.1433 17.3655C10.0816 17.3413 10.0365 17.4723 9.97605 17.3972L9.93804 17.4335C9.96007 17.4838 10.0028 17.4904 9.95834 17.5456C9.89212 17.5708 9.87887 17.4878 9.84792 17.4551C9.84267 17.4407 9.858 17.4132 9.83381 17.4035C9.79638 17.4352 9.75701 17.4467 9.70533 17.4415C9.69129 17.4132 9.66394 17.3762 9.69165 17.3546C9.74247 17.2862 9.82122 17.3792 9.85951 17.3312C9.86563 17.2887 9.82856 17.2371 9.87664 17.2079C9.90975 17.2137 9.95222 17.1957 9.9659 17.2372L9.96546 17.2371ZM10.3615 17.3572C10.3655 17.3855 10.3469 17.4252 10.384 17.445C10.4322 17.419 10.4833 17.4389 10.5111 17.4866C10.5106 17.5122 10.5186 17.5457 10.4852 17.5582L10.41 17.5441C10.4153 17.5295 10.3914 17.5202 10.3822 17.5059C10.349 17.4959 10.3296 17.5228 10.3049 17.5391C10.3235 17.5673 10.3662 17.5828 10.356 17.619C10.312 17.6631 10.2903 17.581 10.2417 17.6017C10.2086 17.589 10.2536 17.5201 10.2016 17.4995C10.1398 17.4995 10.1808 17.6008 10.1018 17.5612C10.0735 17.5293 10.0457 17.4865 10.0762 17.4508C10.1093 17.4286 10.1654 17.4344 10.1935 17.463C10.2417 17.4098 10.2465 17.2036 10.3618 17.3572H10.3615ZM9.86836 17.57C9.90061 17.6164 9.86138 17.6794 9.90241 17.7311C9.9669 17.6107 10.0291 17.7572 10.1059 17.7457C10.1294 17.7745 10.1138 17.8141 10.1181 17.8468C10.0233 17.872 9.90903 17.902 9.82518 17.8261L9.80164 17.853C9.85159 17.8994 9.89881 17.9519 9.85901 18.0295C9.78796 18.045 9.67805 18.0468 9.64235 17.9735C9.62363 17.9131 9.68554 17.8694 9.62025 17.8208C9.57303 17.8795 9.57519 17.9581 9.4768 17.9047C9.41583 17.871 9.39762 17.8018 9.42821 17.7435C9.49177 17.6433 9.60312 17.7466 9.67186 17.6976C9.68158 17.6115 9.64983 17.5364 9.72872 17.4889C9.79638 17.4769 9.8277 17.5276 9.86872 17.57" fill="#F9D90F"/>
<path d="M10.1376 17.6225C10.1059 17.7689 9.99547 17.6149 9.94379 17.6088C10.0127 17.4864 10.0559 17.6484 10.1376 17.6225ZM10.4815 17.7817C10.4047 17.8033 10.4165 17.7076 10.3785 17.67L10.4083 17.6432C10.4361 17.6768 10.4572 17.7373 10.4815 17.7818" fill="white"/>
<path d="M10.3773 17.7526C10.3994 17.8034 10.3274 17.844 10.3888 17.881C10.4082 17.8648 10.432 17.8422 10.4422 17.8328C10.4947 17.8484 10.5556 17.8577 10.5923 17.9097C10.6316 18.0174 10.5225 18.0148 10.4608 18.0448L10.3994 18.0422C10.414 18.0123 10.3729 17.9994 10.3627 17.9787C10.3345 17.9717 10.3111 17.9804 10.2953 18.0043C10.309 18.0726 10.3924 18.1261 10.3063 18.1869C10.2334 18.1823 10.1204 18.2105 10.1271 18.1098C10.0997 18.0529 10.2012 17.9651 10.0927 17.9615C10.0569 18.0383 10.0176 18.1124 9.92444 18.0396L9.93595 17.9302C10.0252 17.9328 10.1307 17.9482 10.1708 17.8485C10.1964 17.7762 10.1261 17.7094 10.1889 17.652C10.2797 17.6313 10.331 17.6923 10.3773 17.7526Z" fill="#F9D90F"/>
<path d="M10.3121 17.9172C10.335 17.9715 10.2732 17.9751 10.244 18.002C10.2047 18.0051 10.1774 17.9896 10.1535 17.9631C10.1359 17.8974 10.1848 17.8907 10.2224 17.8648C10.2661 17.8466 10.2843 17.8974 10.3121 17.9173" fill="black"/>
<path d="M10.2585 17.9526C10.2488 17.9654 10.2351 17.9614 10.2205 17.9648L10.2068 17.8992C10.2359 17.9018 10.2738 17.911 10.2584 17.9526" fill="white"/>
</g>
<path d="M11.7035 1.61228C6.53056 2.04084 2.23921 5.77712 1.57724 11.0101C1.25164 13.5841 1 16.6548 1 20C1 23.3452 1.25164 26.4159 1.57724 28.9899C2.23922 34.2229 6.53056 37.9592 11.7035 38.3877C15.5784 38.7087 20.5852 39 26 39C31.4148 39 36.4216 38.7087 40.2965 38.3877C45.4694 37.9592 49.7608 34.2229 50.4228 28.9899C50.7484 26.4159 51 23.3452 51 20C51 16.6548 50.7484 13.5841 50.4228 11.0101C49.7608 5.77712 45.4694 2.04084 40.2965 1.61228C36.4216 1.29127 31.4148 1 26 1C20.5852 1 15.5784 1.29127 11.7035 1.61228Z" stroke="#E6E6FA" stroke-width="2"/>
</svg>
