<svg width="52" height="40" viewBox="0 0 52 40" fill="none" xmlns="http://www.w3.org/2000/svg">
<mask id="mask0_1_33981" style="mask-type:alpha" maskUnits="userSpaceOnUse" x="2" y="2" width="48" height="36">
<path d="M2.56934 11.1356C3.16681 6.41247 7.0415 3.00193 11.7861 2.60887C15.6412 2.28949 20.6196 2 26 2C31.3804 2 36.3588 2.28949 40.2139 2.60887C44.9585 3.00193 48.8332 6.41247 49.4307 11.1356C49.752 13.6759 50 16.704 50 20C50 23.296 49.752 26.3241 49.4307 28.8644C48.8332 33.5875 44.9585 36.9981 40.2139 37.3911C36.3588 37.7105 31.3804 38 26 38C20.6196 38 15.6412 37.7105 11.7861 37.3911C7.0415 36.9981 3.16681 33.5875 2.56934 28.8644C2.248 26.3241 2 23.296 2 20C2 16.704 2.248 13.6759 2.56934 11.1356Z" fill="#00D0BF"/>
</mask>
<g mask="url(#mask0_1_33981)">
<rect x="2" y="2" width="48" height="36" fill="#2E50A6"/>
<path d="M44 13V19C44 23 42 27.3083 37 29.6417C32 27.3083 30 23 30 19V13H44Z" fill="#FCD116" stroke="black" stroke-width="0.533333"/>
<path d="M44 13V19C44 23 42 27.3083 37 29.6417C32 27.3083 30 23 30 19V13H44Z" stroke="white" stroke-width="0.466667"/>
<path d="M34.475 19.6084C34.2917 19.9167 33.9834 19.9834 33.7417 19.8834C33.4917 19.7834 33.2667 19.2 33.0167 18.8834C32.775 18.575 32.7084 18.7084 32.5417 18.525C32.3834 18.35 32.1334 18.2167 31.7417 18.0334C31.525 17.9334 31.3 17.8417 31.15 17.4584C31.2084 17.3 31.3667 17.1667 31.4917 17.1167C31.6167 17.075 31.7167 16.8917 31.7334 16.7334C31.75 16.5834 31.8834 16.4167 32.0667 16.2917C31.9834 16.3084 31.8084 16.275 31.725 16.2167C31.65 16.15 31.525 16.1667 31.45 16.225C31.375 16.275 31.2834 16.2917 31.15 16.275C31.2 16.2334 31.2917 16.1417 31.3 16.0584C31.3084 15.975 31.4084 15.9334 31.6 15.9334C31.7834 15.9334 31.9084 15.7167 32.0584 15.7167C31.95 15.7167 31.975 15.5334 32.0334 15.525C31.7667 15.475 31.8 15.2584 31.9084 15.2584C31.9 15.225 31.8667 15.1917 31.7417 15.15C31.625 15.1084 31.6834 15 31.775 14.9334C31.6917 14.7667 31.7667 14.6417 31.9 14.5334C31.7167 14.525 31.9167 14.2667 31.9667 14.125C32.0167 13.9917 32.0417 13.975 32.1 14.0584C32.1667 14.1334 32.3167 14.3084 32.4917 14.3584C32.6584 14.4084 32.7584 14.5 32.7917 14.6417C32.825 14.7917 32.8917 14.8667 33.075 14.9334C33.2667 14.9917 33.525 15.15 33.4917 15.5084C33.6417 15.5167 33.75 15.5584 33.8417 15.6334" fill="#FCAD56"/>
<path d="M34.475 19.6084C34.2917 19.9167 33.9834 19.9834 33.7417 19.8834C33.4917 19.7834 33.2667 19.2 33.0167 18.8834C32.775 18.575 32.7084 18.7084 32.5417 18.525C32.3834 18.35 32.1334 18.2167 31.7417 18.0334C31.525 17.9334 31.3 17.8417 31.15 17.4584C31.2084 17.3 31.3667 17.1667 31.4917 17.1167C31.6167 17.075 31.7167 16.8917 31.7334 16.7334C31.75 16.5834 31.8834 16.4167 32.0667 16.2917C31.9834 16.3084 31.8084 16.275 31.725 16.2167C31.65 16.15 31.525 16.1667 31.45 16.225C31.375 16.275 31.2834 16.2917 31.15 16.275C31.2 16.2334 31.2917 16.1417 31.3 16.0584C31.3084 15.975 31.4084 15.9334 31.6 15.9334C31.7834 15.9334 31.9084 15.7167 32.0584 15.7167C31.95 15.7167 31.975 15.5334 32.0334 15.525C31.7667 15.475 31.8 15.2584 31.9084 15.2584C31.9 15.225 31.8667 15.1917 31.7417 15.15C31.625 15.1084 31.6834 15 31.775 14.9334C31.6917 14.7667 31.7667 14.6417 31.9 14.5334C31.7167 14.525 31.9167 14.2667 31.9667 14.125C32.0167 13.9917 32.0417 13.975 32.1 14.0584C32.1667 14.1334 32.3167 14.3084 32.4917 14.3584C32.6584 14.4084 32.7584 14.5 32.7917 14.6417C32.825 14.7917 32.8917 14.8667 33.075 14.9334C33.2667 14.9917 33.525 15.15 33.4917 15.5084C33.6417 15.5167 33.75 15.5584 33.8417 15.6334" stroke="black" stroke-width="0.0183333" stroke-linecap="round" stroke-linejoin="round"/>
<path d="M34.9334 15.0917C34.9334 15.2917 35.0251 15.4167 35.1417 15.5167C35.2667 15.6167 35.3751 15.7001 35.3501 15.8251C35.3251 15.9584 35.3751 16.0417 35.4834 16.1251C35.6001 16.2084 35.6834 16.3084 35.6501 16.4751C35.6167 16.6417 35.6417 16.7417 35.7084 16.8667C35.7751 16.9917 35.8917 17.0917 35.8417 17.2917C35.7917 17.4917 35.8167 17.7584 35.8834 17.8917C35.9417 18.0167 35.8834 18.1167 35.7667 18.3417C35.6501 18.5584 35.5834 18.6417 35.3417 18.7251C35.0917 18.8001 35.0751 18.9501 35.0751 19.2084C35.0751 19.4751 34.9001 19.6084 34.5751 19.5584C34.2417 19.8334 34.0334 19.5084 33.9501 19.1001C33.8667 18.6917 33.8501 18.2501 33.3584 17.8917C32.8751 17.5251 33.0667 16.9084 33.4751 16.6584C33.8834 16.4167 33.8334 15.7001 33.7834 15.2584C33.7417 14.8167 34.0334 14.5667 34.2584 14.3251C34.5584 14.4417 34.9334 14.9001 34.9334 15.0917Z" fill="#FFA1A1" stroke="black" stroke-width="0.0183333" stroke-linecap="round" stroke-linejoin="round"/>
<path d="M34.2251 17.9334C34.1334 17.7167 34.0334 17.5001 34.2751 17.0334C34.5251 16.5584 34.3667 16.2001 34.2917 15.9584C34.2167 15.7251 34.2001 15.5084 34.2917 15.4084C34.3917 15.3167 34.4334 15.2584 34.4417 15.1001C34.4501 14.9501 34.5751 15.0001 34.5917 15.0751C34.6084 15.1501 34.6251 15.2751 34.4917 15.5001C34.3584 15.7334 34.8667 16.3001 34.6334 16.9084C34.4751 17.3334 34.6834 17.8751 34.7667 18.2501C34.8501 18.6251 34.9001 19.5251 34.3501 19.6584C34.7251 19.4751 34.3751 18.2834 34.2251 17.9334Z" fill="#F1B2DC" stroke="black" stroke-width="0.0183333" stroke-linecap="round" stroke-linejoin="round"/>
<path d="M31.9 14.5334C31.9583 14.5334 32.0833 14.5168 32.0833 14.5918M31.75 17.8668C31.8417 17.8834 31.8917 17.8334 31.9167 17.7751C31.9417 17.7168 31.9583 17.6834 32.0417 17.6751C32.125 17.6751 32.2583 17.6501 32.2917 17.5834C32.3167 17.5168 32.4167 17.5751 32.5083 17.4084C32.5917 17.2334 32.65 17.0334 32.875 16.9584L31.75 17.8668ZM33.4917 15.5084C33.4083 15.5084 33.1667 15.5168 33.0667 15.7334L33.4917 15.5084ZM32.375 14.4751C32.575 14.5334 32.4917 14.6668 32.5917 14.7418C32.775 14.8834 32.6083 15.0334 32.7583 15.0751C32.9083 15.1168 32.9 15.1418 32.8667 15.3084C32.8167 15.5001 33 15.5084 32.9333 15.6334L32.375 14.4751ZM32.0667 16.2918C32.1833 16.1834 32.475 16.1001 32.5417 15.9834L32.0667 16.2918ZM32.0583 15.7168C32.2333 15.7084 32.4667 15.7751 32.5 15.7084L32.0583 15.7168ZM32.0333 15.5251C32.1167 15.5251 32.2917 15.4668 32.325 15.3501L32.0333 15.5251ZM31.9083 15.2584C32.0083 15.2584 32.1333 15.2501 32.2583 15.1584L31.9083 15.2584ZM31.775 14.9334C31.85 14.8751 31.9833 14.9418 32.1083 14.8584L31.775 14.9334Z" stroke="black" stroke-width="0.0183333" stroke-linecap="round" stroke-linejoin="round"/>
<path d="M39.875 16.0584C39.875 16.0584 39.2917 15.5667 38.8083 15.2334C38.325 14.9001 37.7417 14.4917 37.7417 14.4084C37.8333 14.3417 38.325 14.6584 39 15.0667C39.6833 15.4834 40.0667 15.8917 40.0667 15.8917L39.875 16.0584ZM39.8333 16.3917C39.8333 16.3917 39.2667 16.0501 38.7083 15.8084C38.125 15.5667 37.25 15.5667 37.1583 15.4834C37.1583 15.4001 38.175 15.3501 38.9 15.6417C39.6417 15.9834 40.025 16.2251 40.025 16.2251L39.8333 16.3917ZM39.825 16.9584C39.825 16.9584 39.2083 16.6751 38.6083 16.5417C38.025 16.4084 37.1917 16.4584 37.0917 16.3834C37.0917 16.3001 38.125 16.1334 38.9 16.3834C39.6833 16.6251 40.0167 16.7917 40.0167 16.7917L39.825 16.9584ZM39.7917 17.5334C39.7917 17.5334 39.325 17.2167 38.7083 17.1501C38.125 17.0917 37.35 17.5334 37.25 17.4501C37.25 17.3667 37.925 16.8751 38.7667 16.9584C39.5917 17.0417 39.9833 17.3667 39.9833 17.3667L39.7917 17.5334ZM39.9833 15.7167C39.9833 15.7167 39.3917 15.1751 39.3917 14.8084C39.3917 14.4834 39.75 13.9834 39.9083 13.9834C39.825 14.1501 39.55 14.4834 39.55 14.8084C39.55 15.1417 40.175 15.5501 40.175 15.5501L39.9833 15.7167Z" fill="#9E540A" stroke="black" stroke-width="0.0183333" stroke-linecap="round" stroke-linejoin="round"/>
<path d="M39.9834 15.7168C39.9834 15.7168 40.1 15.1751 40.1 14.8084C40.1 14.3168 39.75 13.8668 39.7834 13.7418C39.9084 13.8668 40.2584 14.2334 40.2584 14.8084C40.2584 15.3084 40.175 15.5501 40.175 15.5501L39.9834 15.7168Z" fill="#9E540A" stroke="black" stroke-width="0.0183333" stroke-linecap="round" stroke-linejoin="round"/>
<path d="M40.125 15.5418C40.125 15.3835 40.0667 15.2418 39.9667 15.1335C39.8334 14.9751 39.6334 14.9251 39.425 14.9585C39.175 15.0001 38.975 15.1501 38.85 15.3835C38.6834 15.6918 38.6667 16.0251 38.6584 16.3501C38.6584 17.4751 38.7 17.9335 38.7334 19.0418C38.7417 19.3668 38.8 20.0335 38.65 20.5585C38.5917 20.7835 38.525 20.9918 38.425 21.2085C38.4917 20.9335 38.525 20.7918 38.5584 20.5835C38.65 20.0418 38.625 19.5335 38.6084 19.0335C38.575 18.0085 38.5167 17.4835 38.4834 16.2418C38.475 15.8668 38.5084 15.5835 38.6834 15.2835C38.8667 14.9751 39.1834 14.7501 39.5417 14.7501C39.6917 14.7501 39.8167 14.7751 39.9417 14.8501C40.1917 14.9835 40.3084 15.2585 40.3084 15.5335L40.125 15.5418Z" fill="#9E540A"/>
<path d="M40.1751 19.5584C40.1751 19.5584 39.9417 19.9751 39.7667 20.2751C39.5917 20.5751 39.4501 20.6418 39.3167 20.5501C39.1917 20.4584 39.3001 20.2168 39.4001 20.1001C39.5001 19.9834 40.0584 19.4418 40.0584 19.4418L40.1751 19.5584Z" fill="#9E540A" stroke="black" stroke-width="0.0183333" stroke-linecap="round" stroke-linejoin="round"/>
<path d="M40.2333 19.5918C40.2333 19.5918 40.1417 20.0668 40.0667 20.4085C40 20.7501 39.8833 20.8668 39.7417 20.8251C39.5917 20.7918 39.6167 20.5168 39.675 20.3751C39.7333 20.2335 40.0833 19.5168 40.0833 19.5168L40.2333 19.5918Z" fill="#9E540A" stroke="black" stroke-width="0.0183333" stroke-linecap="round" stroke-linejoin="round"/>
<path d="M40.3333 19.6084C40.3333 19.6084 40.3333 20.0918 40.3333 20.4418C40.3333 20.7918 40.25 20.9334 40.0916 20.9251C39.9416 20.9168 39.9083 20.6501 39.9416 20.4918C39.9666 20.3418 40.175 19.5668 40.175 19.5668L40.3333 19.6084Z" fill="#9E540A" stroke="black" stroke-width="0.0183333" stroke-linecap="round" stroke-linejoin="round"/>
<path d="M40.3334 19.6001C39.8917 19.5918 39.8501 19.4334 39.8501 19.4334C39.8501 19.4334 39.7917 19.2334 39.7834 19.1084C39.7751 19.0918 39.6584 18.8418 39.6917 18.7334C39.6501 18.6334 39.5501 18.3918 39.6417 18.3501C39.6001 18.2334 39.5334 18.1001 39.5251 17.9751C39.4917 17.8834 39.4084 17.6834 39.4751 17.6168C39.4751 17.6168 39.3167 17.2834 39.3917 17.2001C39.3917 17.2001 39.3167 16.8751 39.3917 16.7918C39.3917 16.7918 39.3917 16.4584 39.4751 16.3751C39.4751 16.3751 39.4751 16.0501 39.5501 15.9668C39.5501 15.9834 39.7834 15.5084 40.3334 15.5084L40.3251 16.2168H40.3334V19.6001Z" fill="#9E540A" stroke="black" stroke-width="0.0183333" stroke-linecap="round" stroke-linejoin="round"/>
<path d="M40.3334 18.1918C39.6251 18.1918 39.5501 18.0251 39.5501 18.0251C39.5501 18.0251 39.5417 18.0084 39.5251 17.9751M40.3334 17.7834C39.6251 17.7751 39.4751 17.6168 39.4751 17.6168L40.3334 17.7834ZM40.3334 17.3668C39.6251 17.3668 39.3917 17.2001 39.3917 17.2001L40.3334 17.3668ZM40.3334 16.9584C39.6251 16.9501 39.3917 16.7918 39.3917 16.7918L40.3334 16.9584ZM40.3334 16.5418C39.6251 16.5334 39.4751 16.3751 39.4751 16.3751L40.3334 16.5418ZM40.3251 16.2168C40.3334 16.2168 39.7917 16.2168 39.7084 16.1334L39.5501 15.9751L40.3251 16.2168ZM40.3334 19.2668C40.1251 19.2668 39.8917 19.2334 39.7834 19.1084L40.3334 19.2668ZM40.3334 18.9334C39.9417 18.9334 39.7084 18.7751 39.7084 18.7751C39.7084 18.7751 39.7001 18.7584 39.6917 18.7334L40.3334 18.9334ZM40.3334 18.5251C39.8167 18.5168 39.6751 18.4084 39.6417 18.3501L40.3334 18.5251Z" stroke="black" stroke-width="0.0183333" stroke-linecap="round" stroke-linejoin="round"/>
<path d="M40.7917 16.0584C40.7917 16.0584 41.3751 15.5667 41.8584 15.2334C42.3417 14.9001 42.9251 14.4917 42.9251 14.4084C42.8334 14.3417 42.3417 14.6584 41.6667 15.0667C40.9834 15.4834 40.6001 15.8917 40.6001 15.8917L40.7917 16.0584ZM40.8334 16.3917C40.8334 16.3917 41.4001 16.0501 41.9584 15.8084C42.5417 15.5667 43.4167 15.5667 43.5084 15.4834C43.5084 15.4001 42.4917 15.3501 41.7667 15.6417C41.0251 15.9834 40.6417 16.2251 40.6417 16.2251L40.8334 16.3917ZM40.8417 16.9584C40.8417 16.9584 41.4584 16.6751 42.0584 16.5417C42.6417 16.4084 43.4751 16.4584 43.5751 16.3834C43.5751 16.3001 42.5417 16.1334 41.7667 16.3834C40.9834 16.6251 40.6501 16.7917 40.6501 16.7917L40.8417 16.9584ZM40.8751 17.5334C40.8751 17.5334 41.3417 17.2167 41.9584 17.1501C42.5417 17.0917 43.3167 17.5334 43.4167 17.4501C43.4167 17.3667 42.7417 16.8751 41.9001 16.9584C41.0751 17.0417 40.6834 17.3667 40.6834 17.3667L40.8751 17.5334ZM40.6834 15.7167C40.6834 15.7167 41.2751 15.1751 41.2751 14.8084C41.2751 14.4834 40.9167 13.9834 40.7584 13.9834C40.8417 14.1501 41.1167 14.4834 41.1167 14.8084C41.1167 15.1417 40.4917 15.5501 40.4917 15.5501L40.6834 15.7167Z" fill="#9E540A" stroke="black" stroke-width="0.0183333" stroke-linecap="round" stroke-linejoin="round"/>
<path d="M40.6834 15.7168C40.6834 15.7168 40.5667 15.1751 40.5667 14.8084C40.5667 14.3168 40.9167 13.8668 40.8834 13.7418C40.7584 13.8668 40.4084 14.2334 40.4084 14.8084C40.4084 15.3084 40.4917 15.5501 40.4917 15.5501L40.6834 15.7168Z" fill="#9E540A" stroke="black" stroke-width="0.0183333" stroke-linecap="round" stroke-linejoin="round"/>
<path d="M40.5417 15.5418C40.5417 15.3835 40.6 15.2418 40.7 15.1335C40.8334 14.9751 41.0334 14.9251 41.2417 14.9585C41.4917 15.0001 41.6917 15.1501 41.8167 15.3835C41.9834 15.6918 42 16.0251 42.0084 16.3501C42.0084 17.4751 41.9667 17.9335 41.9334 19.0418C41.925 19.3668 41.8667 20.0335 42.0167 20.5585C42.075 20.7835 42.1417 20.9918 42.2417 21.2085C42.175 20.9335 42.1417 20.7918 42.1084 20.5835C42.0167 20.0418 42.0417 19.5335 42.0584 19.0335C42.0917 18.0085 42.15 17.4835 42.1834 16.2418C42.1917 15.8668 42.1584 15.5835 41.9834 15.2835C41.8 14.9751 41.4834 14.7501 41.125 14.7501C40.975 14.7501 40.85 14.7751 40.725 14.8501C40.475 14.9835 40.3584 15.2585 40.3584 15.5335L40.5417 15.5418Z" fill="#9E540A"/>
<path d="M40.4917 19.5584C40.4917 19.5584 40.725 19.9751 40.9 20.2751C41.075 20.5751 41.2167 20.6418 41.35 20.5501C41.475 20.4584 41.3667 20.2168 41.2667 20.1001C41.1667 19.9834 40.6083 19.4418 40.6083 19.4418L40.4917 19.5584Z" fill="#9E540A" stroke="black" stroke-width="0.0183333" stroke-linecap="round" stroke-linejoin="round"/>
<path d="M40.4334 19.5918C40.4334 19.5918 40.5251 20.0668 40.6001 20.4085C40.6668 20.7501 40.7834 20.8668 40.9251 20.8251C41.0751 20.7918 41.0501 20.5168 40.9918 20.3751C40.9334 20.2335 40.5834 19.5168 40.5834 19.5168L40.4334 19.5918Z" fill="#9E540A" stroke="black" stroke-width="0.0183333" stroke-linecap="round" stroke-linejoin="round"/>
<path d="M40.3335 19.6084C40.3335 19.6084 40.3335 20.0918 40.3335 20.4418C40.3335 20.7918 40.4168 20.9334 40.5751 20.9251C40.7251 20.9168 40.7585 20.6501 40.7251 20.4918C40.7001 20.3418 40.4918 19.5668 40.4918 19.5668L40.3335 19.6084Z" fill="#9E540A" stroke="black" stroke-width="0.0183333" stroke-linecap="round" stroke-linejoin="round"/>
<path d="M40.3333 19.6001C40.775 19.5918 40.8167 19.4334 40.8167 19.4334C40.8167 19.4334 40.875 19.2334 40.8833 19.1084C40.8917 19.0918 41.0083 18.8418 40.975 18.7334C41.0167 18.6334 41.1167 18.3918 41.025 18.3501C41.0667 18.2334 41.1333 18.1001 41.1417 17.9751C41.175 17.8834 41.2583 17.6834 41.1917 17.6168C41.1917 17.6168 41.35 17.2834 41.275 17.2001C41.275 17.2001 41.35 16.8751 41.275 16.7918C41.275 16.7918 41.275 16.4584 41.1917 16.3751C41.1917 16.3751 41.1917 16.0501 41.1167 15.9668C41.1167 15.9834 40.8833 15.5084 40.3333 15.5084L40.3417 16.2168H40.3333V19.6001Z" fill="#9E540A" stroke="black" stroke-width="0.0183333" stroke-linecap="round" stroke-linejoin="round"/>
<path d="M40.3334 18.1918C41.0417 18.1918 41.1167 18.0251 41.1167 18.0251C41.1167 18.0251 41.125 18.0084 41.1417 17.9751M40.3334 17.7834C41.0417 17.7751 41.1917 17.6168 41.1917 17.6168L40.3334 17.7834ZM40.3334 17.3668C41.0417 17.3668 41.275 17.2001 41.275 17.2001L40.3334 17.3668ZM40.3334 16.9584C41.0417 16.9501 41.275 16.7918 41.275 16.7918L40.3334 16.9584ZM40.3334 16.5418C41.0417 16.5334 41.1917 16.3751 41.1917 16.3751L40.3334 16.5418ZM40.3417 16.2168C40.3334 16.2168 40.875 16.2168 40.9584 16.1334L41.1167 15.9751L40.3417 16.2168ZM40.3334 19.2668C40.5417 19.2668 40.775 19.2334 40.8834 19.1084L40.3334 19.2668ZM40.3334 18.9334C40.725 18.9334 40.9584 18.7751 40.9584 18.7751C40.9584 18.7751 40.9667 18.7584 40.975 18.7334L40.3334 18.9334ZM40.3334 18.5251C40.85 18.5168 40.9917 18.4084 41.025 18.3501L40.3334 18.5251Z" stroke="black" stroke-width="0.0183333" stroke-linecap="round" stroke-linejoin="round"/>
<path d="M37 27.2667C36.6416 27.6001 35.95 27.3834 35.7333 27.2334C35.5083 27.3084 34.9083 27.0751 34.75 26.8167C34.3166 26.8751 34.1666 26.2584 34.2416 26.1001C34.3583 25.8667 34.15 25.7167 34.3 25.5584C34.5083 25.3584 34.1833 25.1667 34.3833 25.0334C34.5833 24.8917 34.3333 24.6584 34.5333 24.5084C34.7416 24.3501 34.425 24.1334 34.6416 24.0251C34.8583 23.9167 34.6166 23.6334 34.8 23.5251C34.9833 23.4167 34.6916 23.1417 34.9416 23.0167C35.1833 22.8917 34.9666 22.6751 35.1583 22.5834C35.3666 22.4751 35.175 22.2501 35.3666 22.1751C35.5833 22.0834 35.425 21.8417 35.6083 21.7751C35.7666 21.7167 35.6666 21.5667 35.7666 21.4334H37" fill="#009E49"/>
<path d="M37 27.2667C36.6416 27.6001 35.95 27.3834 35.7333 27.2334C35.5083 27.3084 34.9083 27.0751 34.75 26.8167C34.3166 26.8751 34.1666 26.2584 34.2416 26.1001C34.3583 25.8667 34.15 25.7167 34.3 25.5584C34.5083 25.3584 34.1833 25.1667 34.3833 25.0334C34.5833 24.8917 34.3333 24.6584 34.5333 24.5084C34.7416 24.3501 34.425 24.1334 34.6416 24.0251C34.8583 23.9167 34.6166 23.6334 34.8 23.5251C34.9833 23.4167 34.6916 23.1417 34.9416 23.0167C35.1833 22.8917 34.9666 22.6751 35.1583 22.5834C35.3666 22.4751 35.175 22.2501 35.3666 22.1751C35.5833 22.0834 35.425 21.8417 35.6083 21.7751C35.7666 21.7167 35.6666 21.5667 35.7666 21.4334H37" stroke="black" stroke-width="0.0183333" stroke-linecap="round" stroke-linejoin="round"/>
<path d="M36.5 21.5417C36.35 21.75 36.5833 21.8417 36.4417 22.0083C36.3 22.1833 36.5 22.2417 36.3917 22.4417C36.2833 22.6417 36.475 22.6917 36.3333 22.8917C36.1917 23.0917 36.4083 23.25 36.2583 23.45C36.1 23.65 36.3333 23.7583 36.1917 23.9583C36.0583 24.1667 36.2583 24.275 36.1333 24.425C36.0083 24.5833 36.225 24.7333 36.0667 24.925C35.9167 25.1083 36.1333 25.25 36.0083 25.4167C35.8833 25.5917 36.0583 25.775 35.95 25.9167C35.8417 26.05 36.025 26.2583 35.8667 26.4417C35.7167 26.625 35.9 26.75 35.8083 26.875C35.7167 27 35.6417 27.1833 35.7333 27.2333M36.175 21.4833C36.0083 21.65 36.2083 21.775 36.0417 21.975C35.8667 22.1833 36.025 22.2917 35.8833 22.475C35.7417 22.6583 35.95 22.75 35.7917 22.9583C35.6333 23.1583 35.825 23.2833 35.65 23.45C35.4833 23.625 35.6833 23.775 35.5083 23.9583C35.3417 24.15 35.5417 24.275 35.375 24.4417C35.2 24.6167 35.4 24.8 35.2333 24.9667C35.0667 25.1417 35.2667 25.3583 35.075 25.5583C34.8917 25.7583 35.1083 25.9167 34.9583 26.0667C34.8 26.225 34.9417 26.3833 34.8333 26.4917C34.725 26.6 34.7083 26.75 34.75 26.8167L36.175 21.4833Z" stroke="black" stroke-width="0.0183333" stroke-linecap="round" stroke-linejoin="round"/>
<path d="M36.9999 27.2667C37.3582 27.6001 38.0499 27.3834 38.2666 27.2334C38.4916 27.3084 39.0916 27.0751 39.2499 26.8167C39.6832 26.8751 39.8332 26.2584 39.7582 26.1001C39.6416 25.8667 39.8499 25.7167 39.6999 25.5584C39.4916 25.3584 39.8166 25.1667 39.6166 25.0334C39.4166 24.8917 39.6666 24.6584 39.4666 24.5084C39.2582 24.3501 39.5749 24.1334 39.3582 24.0251C39.1416 23.9167 39.3832 23.6334 39.1999 23.5251C39.0166 23.4167 39.3082 23.1417 39.0582 23.0167C38.8166 22.8917 39.0332 22.6751 38.8416 22.5834C38.6332 22.4751 38.8249 22.2501 38.6332 22.1751C38.4166 22.0834 38.5749 21.8417 38.3916 21.7751C38.2332 21.7167 38.3332 21.5667 38.2332 21.4334H36.9999" fill="#009E49"/>
<path d="M36.9999 27.2667C37.3582 27.6001 38.0499 27.3834 38.2666 27.2334C38.4916 27.3084 39.0916 27.0751 39.2499 26.8167C39.6832 26.8751 39.8332 26.2584 39.7582 26.1001C39.6416 25.8667 39.8499 25.7167 39.6999 25.5584C39.4916 25.3584 39.8166 25.1667 39.6166 25.0334C39.4166 24.8917 39.6666 24.6584 39.4666 24.5084C39.2582 24.3501 39.5749 24.1334 39.3582 24.0251C39.1416 23.9167 39.3832 23.6334 39.1999 23.5251C39.0166 23.4167 39.3082 23.1417 39.0582 23.0167C38.8166 22.8917 39.0332 22.6751 38.8416 22.5834C38.6332 22.4751 38.8249 22.2501 38.6332 22.1751C38.4166 22.0834 38.5749 21.8417 38.3916 21.7751C38.2332 21.7167 38.3332 21.5667 38.2332 21.4334H36.9999" stroke="black" stroke-width="0.0183333" stroke-linecap="round" stroke-linejoin="round"/>
<path d="M37.4999 21.5417C37.6499 21.75 37.4165 21.8417 37.5582 22.0083C37.6999 22.1833 37.4999 22.2417 37.6082 22.4417C37.7165 22.6417 37.5249 22.6917 37.6665 22.8917C37.8082 23.0917 37.5915 23.25 37.7415 23.45C37.8999 23.65 37.6665 23.7583 37.8082 23.9583C37.9415 24.1667 37.7415 24.275 37.8665 24.425C37.9915 24.5833 37.7749 24.7333 37.9332 24.925C38.0832 25.1083 37.8665 25.25 37.9915 25.4167C38.1165 25.5917 37.9415 25.775 38.0499 25.9167C38.1582 26.05 37.9749 26.2583 38.1332 26.4417C38.2832 26.625 38.0999 26.75 38.1915 26.875C38.2832 27 38.3582 27.1833 38.2665 27.2333M37.8249 21.4833C37.9915 21.65 37.7915 21.775 37.9582 21.975C38.1332 22.1833 37.9749 22.2917 38.1165 22.475C38.2582 22.6583 38.0499 22.75 38.2082 22.9583C38.3665 23.1583 38.1749 23.2833 38.3499 23.45C38.5165 23.625 38.3165 23.775 38.4915 23.9583C38.6582 24.15 38.4582 24.275 38.6249 24.4417C38.7999 24.6167 38.5999 24.8 38.7665 24.9667C38.9332 25.1417 38.7332 25.3583 38.9249 25.5583C39.1082 25.7583 38.8915 25.9167 39.0415 26.0667C39.1999 26.225 39.0582 26.3833 39.1665 26.4917C39.2749 26.6 39.2915 26.75 39.2499 26.8167L37.8249 21.4833Z" stroke="black" stroke-width="0.0183333" stroke-linecap="round" stroke-linejoin="round"/>
<path d="M37 27.2667V21.4334" stroke="#009E49" stroke-width="0.0183333" stroke-linecap="round" stroke-linejoin="round"/>
<path d="M37 21.7334C36.925 22.0584 37.1083 22.3417 37 22.6167C36.8917 22.8834 37.075 22.9917 37.0167 23.2084C36.95 23.4251 37.0917 23.5834 37 23.8167C36.9083 24.0501 37.125 24.2334 37 24.5417C36.875 24.8417 37.0833 24.9167 37 25.2251C36.9083 25.5751 37.1583 25.7584 37 26.0084C36.8417 26.2584 37.1417 26.3167 37.0167 26.6001C36.8917 26.8751 37.0917 26.9834 37 27.2667" stroke="black" stroke-width="0.0183333" stroke-linecap="round" stroke-linejoin="round"/>
<path d="M37.1249 22.7834C37.0833 22.8751 37.2499 23.0917 37.1583 23.2584C37.0583 23.4167 37.2083 23.6667 37.1083 23.8667C37.0083 24.0667 37.2666 24.3167 37.1666 24.5501C37.0583 24.7834 37.2166 25.0751 37.1666 25.2917C37.1249 25.5084 37.2749 25.9251 37.1666 26.0751C37.0583 26.2334 37.2749 26.2751 37.1499 26.6584C37.0249 27.0417 36.9416 26.7167 37.0166 26.6001C37.1749 26.3417 36.8416 26.2584 36.9999 26.0084C37.1583 25.7584 36.9083 25.5751 36.9999 25.2251C37.0833 24.9167 36.8749 24.8417 36.9999 24.5417C37.1249 24.2334 36.9083 24.0501 36.9999 23.8167C37.0916 23.5834 36.9499 23.4251 37.0166 23.2084C37.0749 22.9917 36.8916 22.8834 36.9999 22.6167C37.0833 22.3501 37.1666 22.6917 37.1249 22.7834ZM36.4249 23.0501C36.3666 23.1501 36.5249 23.3417 36.3833 23.5334C36.2833 23.6667 36.4499 23.8251 36.3083 24.0167C36.2166 24.1501 36.3999 24.3167 36.2749 24.5084C36.1916 24.6167 36.3333 24.8251 36.2333 24.9834C36.1333 25.1501 36.2833 25.2834 36.1083 25.5001C36.0083 25.6167 36.1833 25.9084 36.0749 26.0001C35.9666 26.0917 36.0666 26.4501 35.9916 26.5001C35.9249 26.5584 35.9916 26.8167 35.8083 26.8751C35.8999 26.7501 35.7166 26.6251 35.8666 26.4417C36.0249 26.2584 35.8416 26.0501 35.9499 25.9167C36.0583 25.7751 35.8833 25.5917 36.0083 25.4167C36.1333 25.2501 35.9166 25.1084 36.0666 24.9251C36.2249 24.7334 36.0083 24.5834 36.1333 24.4251C36.2583 24.2751 36.0583 24.1667 36.1916 23.9584C36.3333 23.7584 36.0999 23.6501 36.2583 23.4501C36.4083 23.2501 36.1916 23.0917 36.3333 22.8917C36.4749 22.6917 36.2833 22.6417 36.3916 22.4417C36.5916 22.5167 36.4916 22.9501 36.4249 23.0501ZM36.0083 22.5084C35.9249 22.6417 36.0416 22.8001 35.9166 22.9667C35.7916 23.1417 35.9166 23.3584 35.7916 23.5001C35.6666 23.6334 35.8249 23.9001 35.6666 24.0084C35.5083 24.1167 35.6083 24.4417 35.4833 24.5501C35.3583 24.6584 35.4833 24.9667 35.3416 25.1251C35.1999 25.2834 35.2666 25.6084 35.1833 25.6834C35.1083 25.7584 35.2916 25.9167 35.1583 26.0251C35.0166 26.1334 35.0166 26.3501 34.8333 26.4917C34.9416 26.3834 34.7999 26.2251 34.9583 26.0667C35.1083 25.9167 34.8916 25.7584 35.0749 25.5584C35.2666 25.3584 35.0666 25.1417 35.2333 24.9667C35.3999 24.8001 35.1999 24.6167 35.3749 24.4417C35.5416 24.2751 35.3416 24.1501 35.5083 23.9584C35.6833 23.7751 35.4833 23.6251 35.6499 23.4501C35.8249 23.2834 35.6333 23.1584 35.7916 22.9584C35.9499 22.7501 35.7416 22.6584 35.8833 22.4751C35.9499 22.3917 35.9499 22.3167 35.9499 22.2501C36.0499 21.9917 36.0499 22.4417 36.0083 22.5084Z" fill="#FCD116" stroke="black" stroke-width="0.0183333" stroke-linecap="round" stroke-linejoin="round"/>
<path d="M35.8417 21.6251C35.8417 19.8751 36.0833 19.2667 37 19.2667C37.9167 19.2667 38.1583 19.8751 38.1583 21.6251H35.8417Z" fill="#CE1126" stroke="black" stroke-width="0.0183333" stroke-linecap="round" stroke-linejoin="round"/>
<path d="M35.8417 21.6251C35.8417 19.8751 36.0833 19.2667 37 19.2667C36.5833 19.2667 36.325 19.5917 36.2583 19.8084C36.1833 20.0251 36.225 20.0084 36.3167 19.9251C36.4083 19.8417 36.3667 20.0251 36.2833 20.1251C36.2083 20.2251 36.1333 20.5167 36.2417 20.4251C36.35 20.3251 36.4333 20.4334 36.3167 20.6001C36.2 20.7584 36.1 21.1417 36.2167 21.0084C36.3333 20.8751 36.3583 21.0917 36.2833 21.2001C36.2167 21.3084 36.225 21.4084 36.2833 21.3584C36.35 21.3084 36.3417 21.5334 36.2833 21.6251H35.8417ZM37.4333 21.5917C37.4333 21.3334 37.4417 20.7251 37.3 20.5251C37.2 20.3667 37.2 20.2001 37.3167 20.3834C37.4333 20.5667 37.4917 20.4751 37.4083 20.2917C37.3083 20.0584 37.175 19.8001 37.2083 19.7501C37.25 19.6917 37.275 19.7167 37.3583 19.8417C37.4417 19.9667 37.4583 19.7834 37.3667 19.6584C37.275 19.5417 37.2833 19.5167 37.475 19.6001C37.8167 19.7417 37.9833 20.1501 37.9833 21.5251L37.4333 21.5917Z" fill="black" stroke="black" stroke-width="0.0183333" stroke-linecap="round" stroke-linejoin="round"/>
<path d="M36.9999 21.8751C36.6333 21.8751 36.2333 21.8167 35.9666 21.7084C35.6499 21.5834 35.6333 21.4751 35.7416 21.3417C35.8249 21.2417 35.9916 21.3001 36.1583 21.3751C36.3166 21.4417 36.7666 21.4917 36.9999 21.4917C37.2333 21.4917 37.6833 21.4417 37.8416 21.3667C38.0083 21.3001 38.1749 21.2417 38.2583 21.3417C38.3666 21.4751 38.3499 21.5834 38.0333 21.7084C37.7666 21.8167 37.3666 21.8751 36.9999 21.8751Z" fill="#CE1126" stroke="black" stroke-width="0.0183333" stroke-linecap="round" stroke-linejoin="round"/>
<mask id="mask1_1_33981" style="mask-type:alpha" maskUnits="userSpaceOnUse" x="2" y="2" width="24" height="18">
<rect x="2" y="2" width="24" height="18" fill="#C4C4C4"/>
</mask>
<g mask="url(#mask1_1_33981)">
<path d="M2 2L26 20L2 2ZM26 2L2 20L26 2Z" fill="black"/>
<path d="M26 2L2 20M2 2L26 20L2 2Z" stroke="white" stroke-width="2.4"/>
<path d="M2 2L26 20L2 2ZM26 2L2 20L26 2Z" fill="black"/>
<path d="M26 2L2 20M2 2L26 20L2 2Z" stroke="#EE5757" stroke-width="1.6"/>
<path d="M14 2V23V2ZM2 11H30H2Z" fill="black"/>
<path d="M2 11H30M14 2V23V2Z" stroke="white" stroke-width="4"/>
<path d="M14 2V23V2ZM2 11H30H2Z" fill="black"/>
<path d="M2 11H30M14 2V23V2Z" stroke="#EE5757" stroke-width="2.4"/>
</g>
</g>
<path d="M11.7035 1.61228C6.53056 2.04084 2.23921 5.77712 1.57724 11.0101C1.25164 13.5841 1 16.6548 1 20C1 23.3452 1.25164 26.4159 1.57724 28.9899C2.23922 34.2229 6.53056 37.9592 11.7035 38.3877C15.5784 38.7087 20.5852 39 26 39C31.4148 39 36.4216 38.7087 40.2965 38.3877C45.4694 37.9592 49.7608 34.2229 50.4228 28.9899C50.7484 26.4159 51 23.3452 51 20C51 16.6548 50.7484 13.5841 50.4228 11.0101C49.7608 5.77712 45.4694 2.04084 40.2965 1.61228C36.4216 1.29127 31.4148 1 26 1C20.5852 1 15.5784 1.29127 11.7035 1.61228Z" stroke="#E6E6FA" stroke-width="2"/>
</svg>
