<svg width="52" height="40" viewBox="0 0 52 40" fill="none" xmlns="http://www.w3.org/2000/svg">
<mask id="mask0_1_33941" style="mask-type:alpha" maskUnits="userSpaceOnUse" x="2" y="2" width="48" height="36">
<path d="M2.56934 11.1356C3.16681 6.41247 7.0415 3.00193 11.7861 2.60887C15.6412 2.28949 20.6196 2 26 2C31.3804 2 36.3588 2.28949 40.2139 2.60887C44.9585 3.00193 48.8332 6.41247 49.4307 11.1356C49.752 13.6759 50 16.704 50 20C50 23.296 49.752 26.3241 49.4307 28.8644C48.8332 33.5875 44.9585 36.9981 40.2139 37.3911C36.3588 37.7105 31.3804 38 26 38C20.6196 38 15.6412 37.7105 11.7861 37.3911C7.0415 36.9981 3.16681 33.5875 2.56934 28.8644C2.248 26.3241 2 23.296 2 20C2 16.704 2.248 13.6759 2.56934 11.1356Z" fill="#00D0BF"/>
</mask>
<g mask="url(#mask0_1_33941)">
<rect x="2" y="29" width="48" height="9" fill="#59C785"/>
<rect x="2" y="11" width="48" height="9" fill="white"/>
<rect x="2" y="20" width="48" height="9" fill="white"/>
<path d="M24.3447 19.3947C24.4199 19.2654 24.5352 19.1641 24.6732 19.1061C24.8111 19.0481 24.9641 19.0366 25.1092 19.0733C25.2542 19.11 25.3834 19.193 25.4771 19.3096C25.5708 19.4263 25.6239 19.5703 25.6285 19.7198V22.4747H26.1464V19.7198C26.151 19.5703 26.2042 19.4263 26.2979 19.3096C26.3916 19.193 26.5207 19.11 26.6658 19.0733C26.8108 19.0366 26.9639 19.0481 27.1018 19.1061C27.2397 19.1641 27.355 19.2654 27.4302 19.3947C27.5112 19.1505 27.5331 18.8905 27.494 18.6361C27.4549 18.3818 27.356 18.1403 27.2054 17.9317C27.0547 17.723 26.8567 17.5531 26.6276 17.4359C26.3985 17.3187 26.1448 17.2576 25.8875 17.2576C25.6301 17.2576 25.3765 17.3187 25.1474 17.4359C24.9182 17.5531 24.7202 17.723 24.5696 17.9317C24.419 18.1403 24.32 18.3818 24.2809 18.6361C24.2419 18.8905 24.2637 19.1505 24.3447 19.3947Z" fill="#F8C300"/>
<path d="M24.7139 18.6757C24.9399 18.6295 25.1748 18.6554 25.3854 18.7498C25.596 18.8442 25.7716 19.0023 25.8875 19.2019C26.0034 19.0023 26.179 18.8442 26.3895 18.7498C26.6001 18.6554 26.835 18.6295 27.061 18.6757C27.0221 18.3921 26.8818 18.1322 26.666 17.9441C26.4503 17.7559 26.1737 17.6523 25.8875 17.6523C25.6012 17.6523 25.3246 17.7559 25.1089 17.9441C24.8931 18.1322 24.7528 18.3921 24.7139 18.6757Z" fill="white"/>
<path d="M25.6284 21.3742C25.5933 21.7651 25.4491 22.1382 25.2121 22.4511C24.9752 22.7639 24.6551 23.0039 24.2883 23.1435C23.9215 23.2832 23.5229 23.317 23.1379 23.2411C22.7529 23.1651 22.3969 22.9825 22.1107 22.714C21.9884 23.021 21.7978 23.2961 21.5533 23.5185C21.3088 23.7409 21.0169 23.9047 20.6997 23.9974C20.3825 24.0902 20.0483 24.1095 19.7225 24.0539C19.3967 23.9982 19.0879 23.8691 18.8195 23.6764C19.0205 25.6834 22.029 25.2736 22.2532 23.3222C23.1983 24.9814 25.2766 24.5062 25.8847 22.4736L25.6284 21.3742Z" fill="#F8C300"/>
<path d="M26.1437 21.3742C26.1788 21.7651 26.323 22.1382 26.56 22.4511C26.7969 22.7639 27.117 23.0039 27.4838 23.1435C27.8505 23.2832 28.2492 23.317 28.6342 23.2411C29.0192 23.1651 29.3752 22.9825 29.6614 22.714C29.7837 23.021 29.9743 23.2961 30.2188 23.5185C30.4633 23.7409 30.7552 23.9047 31.0724 23.9974C31.3896 24.0902 31.7238 24.1095 32.0496 24.0539C32.3754 23.9982 32.6842 23.8691 32.9526 23.6764C32.7516 25.6834 29.7431 25.2736 29.5189 23.3222C28.5738 24.9814 26.4955 24.5062 25.8874 22.4736L26.1437 21.3742Z" fill="#F8C300"/>
<path d="M23.6196 24.9382C23.1999 25.8443 22.3609 26 21.6271 25.2685C21.6271 25.2685 21.9221 25.0601 22.2379 25.0026C22.1787 24.7506 22.3001 24.4019 22.4713 24.2134C22.6507 24.336 22.9012 24.5819 22.9649 24.8676C23.4073 24.8103 23.6197 24.9382 23.6197 24.9382L23.6196 24.9382Z" fill="#F8C300"/>
<path d="M28.2016 24.9382C28.6214 25.8443 29.4604 26 30.1942 25.2685C30.1942 25.2685 29.8992 25.0601 29.5834 25.0026C29.6426 24.7506 29.5212 24.4019 29.35 24.2134C29.1706 24.336 28.9201 24.5819 28.8564 24.8676C28.414 24.8103 28.2016 24.9382 28.2016 24.9382L28.2016 24.9382Z" fill="#F8C300"/>
<path d="M24.9179 24.7227C25.5579 25.4893 26.4086 25.4226 26.9281 24.5261C26.9281 24.5261 26.5892 24.4011 26.2693 24.4273C26.2613 24.1685 26.0537 23.8632 25.8396 23.7254C25.698 23.8903 25.5197 24.1926 25.5321 24.4851C25.09 24.5443 24.9179 24.7228 24.9179 24.7228L24.9179 24.7227Z" fill="#F8C300"/>
<path d="M20.543 26.9597C24.0304 25.9216 27.7446 25.9216 31.232 26.9597" stroke="#F8C300" stroke-width="0.881571"/>
<path d="M25.8874 12.4689L26.6971 14.9607L24.5774 13.4207H27.1975L25.0778 14.9607L25.8874 12.4689Z" fill="#F8C300"/>
<path d="M21.2837 13.929L22.0933 16.4208L19.9736 14.8808H22.5937L20.474 16.4208L21.2837 13.929Z" fill="#F8C300"/>
<path d="M30.4758 13.929L31.2855 16.4208L29.1658 14.8808H31.7858L29.6662 16.4208L30.4758 13.929Z" fill="#F8C300"/>
<path d="M32.9828 16.6288L33.7924 19.1206L31.6727 17.5806H34.2928L32.1731 19.1206L32.9828 16.6288Z" fill="#F8C300"/>
<path d="M18.7124 16.6288L19.522 19.1206L17.4023 17.5806H20.0224L17.9027 19.1206L18.7124 16.6288Z" fill="#F8C300"/>
<path d="M33.6899 20.3571L34.4996 22.849L32.3799 21.3089H35L32.8803 22.849L33.6899 20.3571Z" fill="#F8C300"/>
<path d="M18.0696 20.3571L18.8792 22.849L16.7595 21.3089H19.3796L17.2599 22.849L18.0696 20.3571Z" fill="#F8C300"/>
<rect x="2" y="2" width="48" height="9" fill="#EE5757"/>
</g>
<path d="M11.7035 1.61228C6.53056 2.04084 2.23921 5.77712 1.57724 11.0101C1.25164 13.5841 1 16.6548 1 20C1 23.3452 1.25164 26.4159 1.57724 28.9899C2.23922 34.2229 6.53056 37.9592 11.7035 38.3877C15.5784 38.7087 20.5852 39 26 39C31.4148 39 36.4216 38.7087 40.2965 38.3877C45.4694 37.9592 49.7608 34.2229 50.4228 28.9899C50.7484 26.4159 51 23.3452 51 20C51 16.6548 50.7484 13.5841 50.4228 11.0101C49.7608 5.77712 45.4694 2.04084 40.2965 1.61228C36.4216 1.29127 31.4148 1 26 1C20.5852 1 15.5784 1.29127 11.7035 1.61228Z" stroke="#E6E6FA" stroke-width="2"/>
</svg>
