<svg width="52" height="40" viewBox="0 0 52 40" fill="none" xmlns="http://www.w3.org/2000/svg">
<mask id="mask0_1_29805" style="mask-type:alpha" maskUnits="userSpaceOnUse" x="2" y="2" width="48" height="36">
<path d="M2.56934 11.1356C3.16681 6.41247 7.0415 3.00193 11.7861 2.60887C15.6412 2.28949 20.6196 2 26 2C31.3804 2 36.3588 2.28949 40.2139 2.60887C44.9585 3.00193 48.8332 6.41247 49.4307 11.1356C49.752 13.6759 50 16.704 50 20C50 23.296 49.752 26.3241 49.4307 28.8644C48.8332 33.5875 44.9585 36.9981 40.2139 37.3911C36.3588 37.7105 31.3804 38 26 38C20.6196 38 15.6412 37.7105 11.7861 37.3911C7.0415 36.9981 3.16681 33.5875 2.56934 28.8644C2.248 26.3241 2 23.296 2 20C2 16.704 2.248 13.6759 2.56934 11.1356Z" fill="#00D0BF"/>
</mask>
<g mask="url(#mask0_1_29805)">
<rect x="2" y="-4" width="48" height="49" fill="#2E50A6"/>
<path d="M10.64 14.9635L9.63186 14.2916L8.65024 15L8.99563 13.8588L8 13.1686L9.22177 13.1359L9.58744 12L9.99754 13.1215L11.2193 13.1101L10.251 13.836L10.64 14.9636L10.64 14.9635Z" fill="white"/>
<path d="M15.64 8.96355L14.6319 8.29157L13.6502 9L13.9956 7.85879L13 7.16858L14.2218 7.13593L14.5874 6L14.9975 7.12149L16.2193 7.1101L15.251 7.83599L15.64 8.96357L15.64 8.96355Z" fill="white"/>
<path d="M20.64 13.9635L19.6319 13.2916L18.6502 14L18.9956 12.8588L18 12.1686L19.2218 12.1359L19.5874 11L19.9975 12.1215L21.2193 12.1101L20.251 12.836L20.64 13.9636L20.64 13.9635Z" fill="white"/>
<path d="M15.64 24.9635L14.6319 24.2916L13.6502 25L13.9956 23.8588L13 23.1686L14.2218 23.1359L14.5874 22L14.9975 23.1215L16.2193 23.1101L15.251 23.836L15.64 24.9636L15.64 24.9635Z" fill="white"/>
<path d="M11.5706 32.4797C11.1508 32.4762 15.518 30.152 19.1733 27.1751C23.964 23.2735 34.2818 17.0268 37.3151 16.0117C37.6321 15.9056 36.6649 16.5519 36.5393 16.7612C33.3008 20.5943 35.8856 27.8275 39.9331 31.4636C41.1501 32.3944 41.0878 32.4433 43.344 32.5345V32.7451L11.5706 32.4797Z" fill="#FCD95E"/>
<path d="M11.3073 32.9024C11.3073 32.9024 10.9991 33.1225 11 33.2865C11.001 33.4684 11.3457 33.7089 11.3457 33.7089L42.6851 34.0546L43.2612 33.6705L42.4547 33.1712L11.3073 32.9024Z" fill="#FCD95E"/>
</g>
<path d="M11.7035 1.61228C6.53056 2.04084 2.23921 5.77712 1.57724 11.0101C1.25164 13.5841 1 16.6548 1 20C1 23.3452 1.25164 26.4159 1.57724 28.9899C2.23922 34.2229 6.53056 37.9592 11.7035 38.3877C15.5784 38.7087 20.5852 39 26 39C31.4148 39 36.4216 38.7087 40.2965 38.3877C45.4694 37.9592 49.7608 34.2229 50.4228 28.9899C50.7484 26.4159 51 23.3452 51 20C51 16.6548 50.7484 13.5841 50.4228 11.0101C49.7608 5.77712 45.4694 2.04084 40.2965 1.61228C36.4216 1.29127 31.4148 1 26 1C20.5852 1 15.5784 1.29127 11.7035 1.61228Z" stroke="#E6E6FA" stroke-width="2"/>
</svg>
