<svg width="52" height="40" viewBox="0 0 52 40" fill="none" xmlns="http://www.w3.org/2000/svg">
<mask id="mask0_1_31282" style="mask-type:alpha" maskUnits="userSpaceOnUse" x="2" y="2" width="48" height="36">
<path d="M2.56934 11.1356C3.16681 6.41247 7.0415 3.00193 11.7861 2.60887C15.6412 2.28949 20.6196 2 26 2C31.3804 2 36.3588 2.28949 40.2139 2.60887C44.9585 3.00193 48.8332 6.41247 49.4307 11.1356C49.752 13.6759 50 16.704 50 20C50 23.296 49.752 26.3241 49.4307 28.8644C48.8332 33.5875 44.9585 36.9981 40.2139 37.3911C36.3588 37.7105 31.3804 38 26 38C20.6196 38 15.6412 37.7105 11.7861 37.3911C7.0415 36.9981 3.16681 33.5875 2.56934 28.8644C2.248 26.3241 2 23.296 2 20C2 16.704 2.248 13.6759 2.56934 11.1356Z" fill="#00D0BF"/>
</mask>
<g mask="url(#mask0_1_31282)">
<rect x="2" y="-4" width="48" height="49" fill="#1C6864"/>
<path d="M31.1668 5.55902C32.8327 6.27429 34 7.92966 34 9.85723C34 12.4391 31.9062 14.5329 29.3243 14.5329C28.1684 14.5329 27.1106 14.113 26.2944 13.4178C26.7993 13.6343 27.351 13.7651 27.9323 13.7905C30.5117 13.9031 32.6948 11.9027 32.8074 9.32324C32.8728 7.82567 32.2258 6.4618 31.1668 5.55903L31.1668 5.55902Z" fill="white"/>
<path d="M26.7072 8.99605L27.2369 7.3656L25.85 8.37327H27.5643L26.1774 7.3656L26.7072 8.99605Z" fill="white"/>
<path d="M20.0922 1.39142H9.94604V38.9698H20.0922V1.39142Z" fill="#D22630"/>
<path d="M9.94641 -1.08997V-0.72174L10.517 -0.187659L10.3246 -0.00852454L10.7326 0.369648L10.5535 0.532196V0.296668H10.2051V0.578639L10.9914 1.31508H11.3894L11.4326 1.05633H11.2037L11.4525 0.824121L12.0761 1.39138L11.4525 1.96196L11.2037 1.72974H11.4326L11.3894 1.46768H10.9914L10.2051 2.20413V2.4861H10.5535V2.25057L10.7326 2.41312L10.3246 2.79129L10.517 2.97374L9.94641 3.50451V3.87273L10.9117 2.97374L10.7193 2.79129L11.124 2.41312L10.7757 2.08802L11.0079 1.87571L11.4525 2.28706L12.4278 1.39139L11.4525 0.495722L11.0079 0.910384L10.7757 0.694759L11.124 0.369663L10.7193 -0.00850952L10.9117 -0.187644L9.94641 -1.08995V-1.08997ZM9.94641 0.698066V2.0847L10.172 1.8558V1.58711H10.4108L10.6032 1.39138L10.4108 1.19898H10.172V0.926962L9.94641 0.698068V0.698066ZM11.5918 1.18903L11.5586 1.37811L11.5918 1.57052L11.7975 1.37811L11.5918 1.18903Z" fill="#383739"/>
<path d="M9.94614 -1.05005V-0.758123L10.5565 -0.187546L10.3641 -0.008412L10.7721 0.369761L10.5267 0.598655V0.323318H10.2314V0.568799L11.0044 1.28865H11.3626L11.3991 1.08298H11.1337L11.4522 0.784421L12.1156 1.39149L11.4522 1.99855L11.1337 1.70331H11.3991L11.3625 1.49432H11.0043L10.2313 2.21418V2.45966H10.5266V2.18432L10.772 2.41321L10.364 2.79139L10.5564 2.97383L9.94604 3.5411V3.83302L10.8716 2.97383L10.6792 2.79139L11.0839 2.41322L10.7355 2.08812L11.0076 1.836L11.4521 2.25067L12.3843 1.39149L11.4521 0.532306L11.0076 0.946969L10.7355 0.694854L11.0839 0.369758L10.6792 -0.00841451L10.8716 -0.187549L9.94604 -1.05005L9.94614 -1.05005ZM9.94614 0.737986V2.045L10.1452 1.84596V1.55736H10.4006L10.5665 1.3915L10.4006 1.22563H10.1452V0.937025L9.94614 0.737986V0.737986ZM11.6114 1.24222L11.5882 1.37823L11.6114 1.51424L11.7574 1.37823L11.6114 1.24222Z" fill="#FFC72C"/>
<path d="M20.092 -1.08997V-0.72174L19.5215 -0.187659L19.7139 -0.00852454L19.3058 0.369648L19.485 0.532196V0.296668H19.8333V0.578639L19.0471 1.31508H18.649L18.6059 1.05633H18.8348L18.586 0.824121L17.9623 1.39138L18.586 1.96196L18.8348 1.72974H18.6059L18.649 1.46768H19.0471L19.8333 2.20413V2.4861H19.485V2.25057L19.3058 2.41312L19.7139 2.79129L19.5215 2.97374L20.092 3.50451V3.87273L19.1267 2.97374L19.3191 2.79129L18.9144 2.41312L19.2627 2.08802L19.0305 1.87571L18.586 2.28706L17.6107 1.39139L18.586 0.495722L19.0305 0.910384L19.2627 0.694759L18.9144 0.369663L19.3191 -0.00850952L19.1267 -0.187644L20.092 -1.08995V-1.08997ZM20.092 0.698066V2.0847L19.8665 1.8558V1.58711H19.6276L19.4352 1.39138L19.6276 1.19898H19.8665V0.926962L20.092 0.698068V0.698066ZM18.4467 1.18903L18.4798 1.37811L18.4467 1.57052L18.241 1.37811L18.4467 1.18903Z" fill="#383739"/>
<path d="M20.0923 -1.05005V-0.758123L19.4819 -0.187546L19.6743 -0.008412L19.2663 0.369761L19.5118 0.598655V0.323318H19.807V0.568799L19.0341 1.28865H18.6758L18.6393 1.08298H18.9047L18.5863 0.784421L17.9228 1.39149L18.5863 1.99855L18.9047 1.70331H18.6393L18.6759 1.49432H19.0342L19.8071 2.21418V2.45966H19.5119V2.18432L19.2664 2.41321L19.6744 2.79139L19.482 2.97383L20.0924 3.5411V3.83302L19.1669 2.97383L19.3593 2.79139L18.9546 2.41322L19.3029 2.08812L19.0309 1.836L18.5864 2.25067L17.6542 1.39149L18.5864 0.532306L19.0309 0.946969L19.3029 0.694854L18.9546 0.369758L19.3593 -0.00841451L19.1669 -0.187549L20.0924 -1.05005L20.0923 -1.05005ZM20.0923 0.737986V2.045L19.8933 1.84596V1.55736H19.6379L19.472 1.3915L19.6379 1.22563H19.8933V0.937025L20.0923 0.737986V0.737986ZM18.427 1.24222L18.4503 1.37823L18.427 1.51424L18.2811 1.37823L18.427 1.24222Z" fill="#FFC72C"/>
<path d="M10.7691 34.6374C10.8192 34.8508 10.9889 35.0118 11.0293 35.2332C11.1102 35.0024 11.1849 34.8089 11.1291 34.5565C11.0893 34.3759 10.9374 34.2471 10.9198 34.0616C10.7542 34.2105 10.7185 34.4217 10.7691 34.6374ZM10.7272 35.5315C10.8676 35.7241 11.0629 35.8718 11.2785 35.9703C11.236 35.8016 11.3157 35.6746 11.4041 35.5407C11.5107 35.3795 11.5626 35.2211 11.4758 35.0355C11.4353 35.132 11.3809 35.2121 11.3171 35.2946C11.2227 35.4234 11.1607 35.5379 11.1462 35.703C11.037 35.6221 10.9891 35.5013 10.9307 35.3845C10.8418 35.2171 10.6982 35.0771 10.5333 34.9856C10.5771 35.1734 10.6109 35.3719 10.7272 35.5315L10.7272 35.5315ZM11.5149 36.1055C11.4849 36.2125 11.459 36.3185 11.4648 36.4303C11.372 36.3303 11.2487 36.2551 11.1388 36.1745C10.989 36.0534 10.8145 35.968 10.6921 35.8138C10.7103 36.0407 10.8075 36.2258 10.9919 36.3639C11.1869 36.5098 11.422 36.5882 11.614 36.7414C11.5853 36.535 11.6611 36.3696 11.7258 36.1799C11.7797 35.9986 11.7275 35.8145 11.6045 35.6763C11.6064 35.8295 11.5581 35.961 11.5149 36.1055L11.5149 36.1055ZM11.9525 36.8028C11.9929 36.9594 12.1051 37.0868 12.1817 37.2265C11.9751 37.1624 11.7928 37.0503 11.606 36.9449C11.3836 36.8238 11.142 36.7467 10.9406 36.5867C11.0409 36.9578 11.2893 37.1729 11.6526 37.2826C11.9011 37.3576 12.1105 37.3202 12.412 37.442C12.3774 37.2379 12.3165 37.0177 12.22 36.8336C12.1451 36.7005 12.0621 36.5693 12.0158 36.4227C11.9488 36.5431 11.9171 36.6656 11.9525 36.8028H11.9525ZM12.7127 37.3706C12.7839 37.4925 12.8778 37.595 12.9942 37.6759C12.7009 37.6946 12.4649 37.5087 12.179 37.5006C12.0023 37.4957 11.8347 37.5505 11.6545 37.5341C11.8683 37.6783 12.0921 37.8042 12.3523 37.8379C12.6906 37.8816 13.0026 37.7965 13.3758 37.8298C13.2014 37.7067 13.1141 37.542 13.0054 37.3648C12.8638 37.1436 12.7302 36.9859 12.4549 36.9503C12.5654 37.0746 12.6297 37.2285 12.7127 37.3706V37.3706ZM13.7544 37.8574C13.2377 37.9452 12.7425 38.0589 12.2148 38.0641C12.8055 38.2701 13.3621 38.3073 13.9479 38.0947C14.2645 37.9798 14.5073 37.9183 14.7464 37.9354C15.0958 37.9605 15.5205 38.0984 15.9905 38.5941L16.1752 38.4462C15.5016 37.846 14.6203 37.7101 13.7544 37.8574L13.7544 37.8574Z" fill="#FFC72C"/>
<path d="M11.2155 5.7968L10.4025 5.29825V4.0998L11.2155 3.60124V2.96711L11.9838 2.50444H12.5976L13.7655 1.84753H16.2728L17.4407 2.50444H18.0545L18.8228 2.96711V3.60124L19.6358 4.0998L19.6358 5.29825L18.8228 5.7968V6.43094L18.0545 6.8936H17.4407L16.2728 7.55051H13.7655L12.5976 6.8936H11.9838L11.2155 6.43094V5.7968Z" fill="#383739"/>
<path d="M13.7709 1.87573L12.6033 2.53256H11.9929L11.2432 2.98371V3.61731L10.4304 4.11491V5.2826L11.2432 5.7802V6.41712L11.9896 6.86827H12.6033L13.7709 7.5251H16.2656L17.4332 6.86827H18.0469L18.7967 6.41712V5.7802L19.6094 5.2826V4.11491L18.7967 3.61731V2.98371L18.0469 2.53256H17.4332L16.2656 1.87573H13.7709H13.7709ZM13.8406 2.1179H16.1992L17.3669 2.77472H17.9773L18.5445 3.11641V3.75001L19.3606 4.24761V5.14991L18.5445 5.64751V6.28112L17.9773 6.6228H17.3669L16.1992 7.27962H13.8406L12.6729 6.6228H12.0625L11.492 6.28112V5.64751L10.6792 5.14991V4.24761L11.492 3.75001V3.11641L12.0625 2.77472H12.6729L13.8406 2.1179Z" fill="#00843D"/>
<path d="M15.0057 4.71243V2.14404H13.8467L12.6787 2.80095H12.0698L11.519 3.13266V3.76525L10.7061 4.26377V4.68562L15.0326 4.68558V7.25403H16.1917L17.3596 6.59712H17.9685L18.5193 6.26542V5.63286L19.3323 5.13431V4.71246L15.0057 4.71243Z" fill="#FFC72C"/>
<path d="M10.706 4.71246L10.7059 5.13431L11.5189 5.63286V6.26542L12.0697 6.59712H12.6786L13.8466 7.25403H15.0057V4.68558L19.3322 4.68562V4.26377L18.5192 3.76525V3.13266L17.9684 2.80095H17.3595L16.1916 2.14404H15.0325V4.71243L10.706 4.71246Z" fill="white"/>
<path d="M12.4795 3.03743L12.2794 2.85089L12.0811 2.97317L12.2816 3.16009L12.0242 3.31957H12.5859L13.07 3.77619L13.2248 3.61264L12.7542 3.16865V2.86728L12.4795 3.03743Z" fill="#383739"/>
<path d="M13.4268 2.95552L13.2267 2.76898L13.0284 2.89126L13.2288 3.07818L12.9714 3.23766H13.5332L14.0172 3.69428L14.1721 3.53074L13.7014 3.08675V2.78537L13.4268 2.95552Z" fill="#383739"/>
<path d="M12.41 3.57326L12.2099 3.38672L12.0116 3.509L12.2121 3.69591L11.9547 3.8554H12.5164L13.0005 4.31201L13.1553 4.14847L12.6847 3.70448V3.4031L12.41 3.57326Z" fill="#383739"/>
<path d="M15.0191 2.11725H14.5122L14.247 2.37286H13.73L13.3479 2.57116L13.437 2.78825L13.7777 2.6093H13.9269L14.4494 3.21349L15.0191 2.86652L15.0191 2.11725Z" fill="#383739"/>
<path d="M12.276 2.88446L12.4559 3.0521L12.3052 3.14544L12.125 2.97754L12.276 2.88446ZM12.7273 2.91546V3.1802L13.1868 3.61371L13.0688 3.73832L12.5965 3.29275H12.1183L12.7273 2.91546L12.7273 2.91546Z" fill="#D22630"/>
<path d="M13.2233 2.80243L13.4031 2.97007L13.2524 3.06341L13.0724 2.89551L13.2233 2.80243ZM13.6745 2.83343V3.09817L14.1341 3.53167L14.0161 3.65628L13.5438 3.21076H13.0656L13.6745 2.83343L13.6745 2.83343Z" fill="#D22630"/>
<path d="M12.2066 3.42023L12.3864 3.58786L12.2357 3.68121L12.0556 3.51331L12.2066 3.42023ZM12.6578 3.45123V3.71597L13.1174 4.14947L12.9994 4.27408L12.5271 3.82855H12.0488L12.6578 3.45123V3.45123Z" fill="#D22630"/>
<path d="M15.0058 2.1441H14.5231L14.2579 2.39971H13.7366L13.3821 2.5837L13.4507 2.75085L13.7711 2.58257H13.9393L14.4549 3.17886L15.0058 2.8434L15.0058 2.1441Z" fill="#D22630"/>
<path d="M12.1417 3.87851L11.9 3.78821L11.8942 3.79223L11.5822 4.00876V4.06696L11.0824 4.699L11.5822 5.33103V5.38927L11.9 5.60978L12.1417 5.51948L11.9942 5.42182V5.23599L12.0528 5.16587H12.3147V4.23212H12.0528L11.9942 4.162V3.97617L12.1417 3.87851Z" fill="#383739"/>
<path d="M11.609 4.02286L11.9038 3.81836L12.083 3.88532L11.9674 3.96191V4.17186L12.0403 4.25904H12.2878V5.1392H12.0403L11.9674 5.22639V5.43634L12.083 5.51292L11.9038 5.57989L11.609 5.37538L11.609 5.32183L11.1166 4.69912L11.609 4.07638L11.609 4.02286Z" fill="#D22630"/>
<path d="M11.7126 5.22951L11.5766 5.11177V5.05503L11.2847 4.69898L11.5766 4.34288V4.28618L11.7127 4.16844L11.9571 4.3672L11.816 4.36611L12.0245 4.57767H12.5008L12.8754 4.28475V3.51225H13.8122L14.9003 2.84456V2.66944L14.7339 2.55855H14.6812L14.5 2.67981L14.4719 2.77026L14.3301 2.57673L14.6056 2.34529H14.6497L14.9606 2.11719H15.0778L15.3886 2.34529H15.4327L15.7082 2.57673L15.5664 2.77026L15.5384 2.67981L15.3572 2.55855H15.3044L15.138 2.66944V2.84456L16.2261 3.51225H17.163V4.28475L17.5375 4.57767H18.0138L18.2223 4.36611L18.0812 4.3672L18.3256 4.16844L18.4617 4.28618V4.34288L18.7536 4.69898L18.4617 5.05503V5.11177L18.3256 5.22951L18.0812 5.03076L18.2223 5.03185L18.0138 4.82024H17.5375L17.163 5.1132V5.8857H16.2261L15.138 6.5534V6.72851L15.3044 6.83941H15.3572L15.5384 6.71814L15.5664 6.62769L15.7082 6.82118L15.4327 7.05266H15.3886L15.0778 7.28076H14.9606L14.6497 7.05266H14.6056L14.3301 6.82118L14.4719 6.62769L14.5 6.71814L14.6811 6.83941H14.7338L14.9003 6.72851V6.5534L13.8122 5.8857H12.8754V5.1132L12.5007 4.82024H12.0245L11.816 5.03185L11.9571 5.03076L11.7126 5.22951Z" fill="#383739"/>
<path d="M15.0325 6.86016L15.1516 6.95122L15.0325 7.04227V6.86016V6.86016ZM14.6539 7.02577H14.6583L14.9692 7.25391H15.0055V7.07594L14.8424 6.95122L15.0056 6.82649V6.4922L13.8413 5.77772H12.9806V5.05982L12.5363 4.71229H11.866L11.6976 4.90278L11.5291 4.71229L11.3302 4.71233L11.6032 5.04535V5.09943L11.7114 5.19337L11.8852 5.05809L11.7832 5.05888V5.02506L12.0104 4.79339H12.5099L12.9021 5.1001V5.85885H13.8197L14.9269 6.53834V6.74277L14.7418 6.86614H14.6728L14.477 6.73506L14.4619 6.68644L14.3664 6.81676L14.6153 7.02577H14.6539V7.02577ZM11.6977 4.53556L11.8304 4.6855H11.565L11.6977 4.53556ZM15.0056 2.35556L14.8866 2.44662L15.0056 2.53763V2.35556ZM18.2077 4.71233L18.3404 4.86227L18.473 4.71233H18.2077ZM15.3797 2.37202L15.0688 2.14392H15.0325V2.32182L15.1957 2.44662L15.0325 2.57141V2.90564L16.1967 3.62011H17.0574V4.33801L17.5017 4.68554H18.1719L18.3404 4.49509L18.5089 4.6855H18.7078L18.4348 4.35248V4.2984L18.3266 4.20446L18.1529 4.33974L18.2549 4.33891V4.37277L18.0276 4.60441H17.5282L17.136 4.29769V3.53898H16.2183L15.1111 2.85949V2.65502L15.2962 2.53169H15.3652L15.561 2.66277L15.5761 2.71139L15.6716 2.58107L15.4228 2.37202H15.3797L15.3797 2.37202Z" fill="#FFC72C"/>
<path d="M15.0056 7.04235L14.8866 6.95134L15.0056 6.86032V7.04235ZM11.8304 4.71245L11.6978 4.86239L11.5651 4.71245H11.8304ZM15.3841 7.02589H15.3797L15.0688 7.25403H15.0325V7.20743V7.07614L15.1957 6.95134L15.0325 6.82654V6.49232L16.1968 5.77784H17.0574V5.05994L17.5018 4.71241H18.172L18.3404 4.9029L18.5089 4.71241L18.7079 4.71245L18.4348 5.04547V5.09955L18.3267 5.19349L18.1529 5.05821L18.2549 5.059V5.02518L18.0276 4.79351H17.5282L17.136 5.10022V5.85897H16.2184L15.1111 6.53846V6.74289L15.2962 6.86626H15.3653L15.5611 6.73519L15.5762 6.68656L15.6716 6.81688L15.4228 7.02589H15.3841V7.02589ZM18.3404 4.53568L18.2078 4.68562H18.4731L18.3404 4.53568ZM14.6585 2.37214L14.9693 2.14404H15.0057V2.32194L14.8425 2.44674L15.0057 2.57154L15.0057 2.90576L13.8414 3.62024H12.9808V4.33813L12.5364 4.68566H11.8661L11.6976 4.49521L11.5291 4.68562H11.3303L11.6034 4.3526V4.29853L11.7116 4.20458L11.8853 4.33986L11.7833 4.33904V4.37289L12.0106 4.60453H12.51L12.9022 4.29781V3.5391H13.8198L14.9271 2.85961V2.65515L14.742 2.53181H14.6729L14.4771 2.66289L14.462 2.71151L14.3666 2.58119L14.6154 2.37214H14.6585L14.6585 2.37214ZM15.0325 2.53779L15.1516 2.44674L15.0325 2.35568V2.53779Z" fill="white"/>
<path d="M15.0057 4.71239V2.93713L13.849 3.64699H13.0076V4.35113L12.58 4.68558L15.0326 4.68554V6.46083L16.1892 5.75101H17.0306V5.04686L17.4583 4.71242L15.0057 4.71239Z" fill="#00843D"/>
<path d="M12.5798 4.71238L13.0075 5.04683V5.75097H13.8489L15.0056 6.46083V4.6855L17.4582 4.68555L17.0305 4.3511V3.64695H16.1891L15.0325 2.93713V4.71236L12.5798 4.71238Z" fill="#D22630"/>
<path d="M13.7741 3.83797L13.574 3.65143L13.3757 3.77367L13.5761 3.96059L13.3187 4.12007H13.8804L14.3645 4.57672L14.5194 4.41314L14.0487 3.96915V3.66781L13.7741 3.83797Z" fill="#383739"/>
<path d="M16.264 5.56011L16.4641 5.74665L16.6624 5.62437L16.4619 5.43745L16.7193 5.278H16.1576L15.6735 4.82135L15.5187 4.98489L15.9893 5.42892V5.73026L16.264 5.56011Z" fill="#383739"/>
<path d="M13.7741 5.56011L13.5739 5.74665L13.3757 5.62437L13.5761 5.43745L13.3187 5.278H13.8804L14.3645 4.82135L14.5194 4.98489L14.0487 5.42892V5.73026L13.7741 5.56011Z" fill="#383739"/>
<path d="M16.264 3.83797L16.4641 3.65143L16.6624 3.77367L16.4619 3.96059L16.7193 4.12007H16.1576L15.6735 4.57672L15.5187 4.41314L15.9893 3.96915V3.66781L16.264 3.83797Z" fill="#383739"/>
<path d="M16.4675 5.71313L16.2876 5.5455L16.4383 5.45215L16.6184 5.62005L16.4675 5.71313ZM16.0162 5.68213V5.41743L15.5567 4.98393L15.6747 4.85928L16.147 5.30485H16.6252L16.0162 5.68213L16.0162 5.68213ZM13.5707 3.68506L13.7505 3.8527L13.5998 3.94608L13.4197 3.77818L13.5707 3.68506ZM14.022 3.7161V3.9808L14.4815 4.4143L14.3635 4.53895L13.8912 4.09339H13.413L14.022 3.7161L14.022 3.7161Z" fill="#D22630"/>
<path d="M16.4675 3.68506L16.2877 3.8527L16.4384 3.94608L16.6184 3.77818L16.4675 3.68506ZM16.0162 3.7161V3.9808L15.5567 4.4143L15.6747 4.53895L16.147 4.09339H16.6252L16.0162 3.7161L16.0162 3.7161ZM13.5707 5.71313L13.7505 5.5455L13.5998 5.45215L13.4198 5.62005L13.5707 5.71313ZM14.022 5.68213V5.41743L14.4815 4.98393L14.3635 4.85928L13.8912 5.30485H13.413L14.022 5.68213L14.022 5.68213Z" fill="#00843D"/>
<path d="M16.2628 4.69904L15.0191 5.52796L13.7753 4.69904L15.0191 3.87006L16.2628 4.69904Z" fill="#383739"/>
<path d="M15.0057 3.91113L13.8438 4.68551H16.1944L15.0325 3.91113V5.48672L16.1945 4.71234H13.8438L15.0057 5.48672V3.91113Z" fill="white"/>
<path d="M15.3518 4.98409V5.212H14.6866V4.98409H14.2561V4.41395H14.6866V4.18604H15.3518V4.41395H15.7822V4.98409H15.3518Z" fill="#383739"/>
<path d="M14.7134 4.21277V4.44068H14.283V4.68554H15.0057V4.21277H14.7134L14.7134 4.21277ZM15.0326 4.68555H15.7554V4.44068H15.3249V4.21277H15.0326V4.68555L15.0326 4.68555ZM14.283 4.71238V4.95724H14.7134V5.18515H15.0057V4.71237H14.283V4.71238ZM15.0326 5.18515H15.3249V4.95724H15.7554V4.71238H15.0326V5.18515V5.18515Z" fill="#D22630"/>
<path d="M17.141 14.1436V13.7785H18.1424V13.4133H19.1437V10.1139H18.1424V9.74873H17.141V9.38358H16.1397V9.01843H13.8986V9.38358H12.8973V9.74873H11.8959V10.1139H10.8945V13.4133H11.8959V13.7785H12.8973V14.1436H13.8986V14.5088H16.1397V14.1436H17.141Z" fill="#383739"/>
<path d="M13.9269 9.04443V9.40933H12.925V9.77424H11.9232V10.1391H10.9214V13.3868H11.9232V13.7517H12.925V14.1166H13.9269V14.4814H16.1129V14.1166H17.1148V13.7517H18.1167V13.3868H19.1184V10.1391H18.1167V9.77424H17.1148V9.40933H16.1129V9.04443H13.9269ZM14.1923 9.30982H15.8475V9.67471H16.8494V10.0396H17.8513V10.4045H18.8531V13.1214H17.8513V13.4864H16.8494V13.8512H15.8475V14.2161H14.1923V13.8512H13.1904V13.4864H12.1886V13.1214H11.1868V10.4045H12.1886V10.0396H13.1904V9.67471H14.1923V9.30982Z" fill="#FFC72C"/>
<path d="M13.2161 13.8248V13.4596H12.2148V13.0945H11.2134V10.4326H12.2148V10.0675H13.2161V9.70233H14.2175V9.33722H15.8209V9.70233H16.8223V10.0675H17.8236V10.4326H18.825V13.0945H17.8236V13.4596H16.8223V13.8248H15.8209V14.1899H14.2175V13.8248H13.2161Z" fill="#D22630"/>
<path d="M13.4486 9.97275L13.1892 9.7767V10.1532L12.9409 10.311L12.9402 10.0753L12.702 10.2893L12.4638 10.0753L12.4632 10.311L12.188 10.1361V10.4851L11.9655 10.6462L11.9649 10.4321L11.7007 10.6235L11.4364 10.4321L11.4358 10.6462L11.1865 10.4657V11.523H10.8945V12.0043H11.1865V13.0616L11.4358 12.8811L11.4364 13.0951L11.7007 12.9038L11.9649 13.0951L11.9655 12.8811L12.1879 13.0421V13.3912L12.4632 13.2163L12.4638 13.4519L12.702 13.238L12.9402 13.4519L12.9409 13.2163L13.1892 13.3741V13.7506L13.4486 13.5545L13.4491 13.8175L13.7033 13.5902L13.9575 13.8175L13.9581 13.5545L14.1906 13.7303V14.1318L14.5383 13.8149V14.1873L15.0192 13.8782L15.5001 14.1873V13.8149L15.8477 14.1318V13.7303L16.0802 13.5545L16.0808 13.8175L16.335 13.5902L16.5892 13.8175L16.5898 13.5545L16.8491 13.7506V13.3741L17.0975 13.2163L17.0981 13.4519L17.3364 13.238L17.5746 13.4519L17.5752 13.2163L17.8505 13.3912V13.0421L18.0729 12.8811L18.0735 13.0951L18.3378 12.9038L18.602 13.0951L18.6026 12.8811L18.8519 13.0615V12.0043H19.1439V11.523H18.8519V10.4657L18.6026 10.6462L18.602 10.4321L18.3378 10.6235L18.0735 10.4321L18.0729 10.6462L17.8505 10.4851V10.1361L17.5752 10.311L17.5746 10.0753L17.3364 10.2893L17.0982 10.0753L17.0975 10.311L16.8491 10.1531V9.7767L16.5898 9.97271L16.5893 9.70978L16.335 9.93712L16.0808 9.70978L16.0803 9.97275L15.8478 9.79692V9.39547L15.5001 9.71237V9.33997L15.0192 9.64912L14.5383 9.33997V9.71237L14.1907 9.39547V9.79696L13.9581 9.97275L13.9576 9.70978L13.7033 9.93712L13.4492 9.70978L13.4486 9.97275Z" fill="#383739"/>
<path d="M11.4625 10.6985L11.4631 10.4844L11.7007 10.6565L11.7087 10.6507L11.9382 10.4844L11.9388 10.6985L12.188 10.5181V13.0088L11.9388 12.8285L11.9382 13.0425L11.7007 12.8705L11.4631 13.0425L11.4625 12.8285L11.2134 13.0088V11.9773H10.9214V11.5497H11.2134V10.5181L11.4625 10.6985Z" fill="#00843D"/>
<path d="M13.4759 9.76953L13.7034 9.97298L13.9309 9.76953L13.9315 10.0265L14.1907 9.83048V13.6965L13.9315 13.5005L13.9309 13.7575L13.7034 13.554L13.4759 13.7575L13.4754 13.5005L13.2162 13.6965V9.83048L13.4754 10.0265L13.4759 9.76953Z" fill="#00843D"/>
<path d="M16.5625 9.76953L16.335 9.97298L16.1075 9.76953L16.107 10.0265L15.8478 9.83048V13.6965L16.107 13.5005L16.1075 13.7575L16.335 13.554L16.5625 13.7575L16.5631 13.5005L16.8223 13.6965V9.83048L16.5631 10.0265L16.5625 9.76953Z" fill="#00843D"/>
<path d="M18.5759 10.6985L18.5753 10.4844L18.3378 10.6565L18.3297 10.6507L18.1002 10.4844L18.0996 10.6985L17.8505 10.5181V13.0088L18.0996 12.8285L18.1002 13.0425L18.3378 12.8705L18.5753 13.0425L18.5759 12.8285L18.825 13.0088V11.9773H19.117V11.5497H18.825V10.5181L18.5759 10.6985Z" fill="#00843D"/>
<path d="M12.4905 10.1352L12.702 10.3252L12.9135 10.1352L12.9141 10.3596L13.1893 10.1848V13.3421L12.9141 13.1673L12.9135 13.3917L12.702 13.2017L12.4905 13.3917L12.4898 13.1673L12.2147 13.3421V10.1848L12.4898 10.3596L12.4905 10.1352Z" fill="#FFC72C"/>
<path d="M14.5651 9.77305L14.2174 9.45615V14.0709L14.5651 13.754V14.138L15.0191 13.8462H15.0191H15.0191L15.4731 14.138V13.754L15.8208 14.0709V9.45615L15.4731 9.77305V9.38904L15.0191 9.68091H15.0191H15.0191L14.5651 9.38904V9.77305Z" fill="#FFC72C"/>
<path d="M17.5479 10.1352L17.3364 10.3252L17.1248 10.1352L17.1243 10.3596L16.8491 10.1848V13.3421L17.1243 13.1673L17.1248 13.3917L17.3364 13.2017L17.5479 13.3917L17.5486 13.1673L17.8237 13.3421V10.1848L17.5486 10.3596L17.5479 10.1352Z" fill="#FFC72C"/>
<path d="M11.5926 11.3101C11.623 11.3407 11.6594 11.3562 11.7006 11.3562C11.7419 11.3562 11.7782 11.3407 11.8086 11.3101C11.9037 11.2142 11.9069 11.0409 11.906 10.9162C11.906 10.9162 11.796 11.0324 11.7762 11.0534C11.7624 11.0295 11.7006 10.9229 11.7006 10.9229C11.7006 10.9229 11.6389 11.0295 11.625 11.0534C11.6052 11.0324 11.4952 10.9162 11.4952 10.9162C11.4943 11.0409 11.4975 11.2142 11.5926 11.3101Z" fill="#383739"/>
<path d="M12.6371 11.0416L12.557 10.9616V10.8021L12.373 10.9726L12.7019 11.3015L13.0308 10.9726L12.8468 10.8021V10.9616L12.7668 11.0416V10.7591L12.9086 10.6373L12.7019 10.4598L12.4953 10.6373L12.6371 10.7591V11.0416Z" fill="#383739"/>
<path d="M13.6385 10.7246L13.5584 10.6446V10.4851L13.3744 10.6556L13.7033 10.9845L14.0322 10.6556L13.8482 10.4851V10.6446L13.7681 10.7246V10.4421L13.91 10.3203L13.7033 10.1428L13.4966 10.3203L13.6385 10.4421V10.7246Z" fill="#383739"/>
<path d="M11.7007 10.9764C11.7171 11.0047 11.771 11.0979 11.771 11.0979C11.771 11.0979 11.847 11.0175 11.8781 10.9848C11.8743 11.1256 11.8434 11.2369 11.7896 11.2911C11.7644 11.3165 11.7345 11.3294 11.7007 11.3294C11.6668 11.3294 11.6369 11.3165 11.6117 11.2911C11.558 11.2369 11.527 11.1256 11.5233 10.9848C11.5543 11.0176 11.6303 11.0979 11.6303 11.0979C11.6538 11.0574 11.6772 11.0169 11.7007 10.9764Z" fill="white"/>
<path d="M13.7414 10.43V10.7897L13.8752 10.6559V10.5468L13.9936 10.6566L13.7034 10.9468L13.4132 10.6566L13.5317 10.5468V10.6559L13.6654 10.7897V10.43L13.5379 10.3205L13.7034 10.1784L13.8689 10.3205L13.7414 10.43Z" fill="white"/>
<path d="M12.7399 10.7468V11.1065L12.8737 10.9727V10.8636L12.9921 10.9734L12.7019 11.2636L12.4117 10.9734L12.5302 10.8636V10.9727L12.664 11.1065V10.7468L12.5365 10.6373L12.7019 10.4952L12.8674 10.6373L12.7399 10.7468Z" fill="#D22630"/>
<path d="M15.4127 10.8447L15.3049 10.6958L15.5812 10.4408L15.3236 10.2291V10.3791L15.2159 10.4712V10.1993L15.4592 10.0199L15.019 9.69543L14.5788 10.0199L14.8222 10.1993V10.4712L14.7144 10.3791V10.2291L14.4568 10.4408L14.7331 10.6958L14.6254 10.8447H15.4127Z" fill="#383739"/>
<path d="M14.6781 10.8178L14.7689 10.6922L14.4978 10.4419L14.6877 10.2859V10.3914L14.8491 10.5295V10.1857L14.6241 10.0199L15.0191 9.72876L15.4141 10.0199L15.1892 10.1857V10.5295L15.3506 10.3914V10.2859L15.5405 10.4419L15.2694 10.6922L15.3603 10.8178H14.6781Z" fill="#D22630"/>
<path d="M14.8179 10.02L15.019 10.1683L15.2202 10.02L15.019 9.87177L15.0111 9.87767L14.8179 10.02Z" fill="#383739"/>
<path d="M15.0191 9.90509C15.0324 9.91486 15.1515 10.0027 15.175 10.02C15.1515 10.0373 15.0324 10.1251 15.0191 10.1349C15.0058 10.1251 14.8866 10.0373 14.8632 10.02C14.8866 10.0027 15.0058 9.91486 15.0191 9.90509Z" fill="#00843D"/>
<path d="M18.5831 11.6096H18.1424V11.4339H16.7952L15.8573 10.8179H15.8533H14.181L13.2432 11.4339H11.896V11.6096H11.4552V11.9176H11.896V12.0932H13.2432L14.181 12.7093H15.8573L16.7952 12.0932H18.1424V11.9176H18.5831V11.6096Z" fill="#383739"/>
<path d="M14.189 10.8457L13.2502 11.4594H11.9233V11.6352H11.4821V11.8907H11.9233V12.0665H13.2502L14.189 12.6835H15.8509L16.7864 12.0665H18.1166V11.8907H18.5578V11.6352H18.1166V11.4594H16.7864L15.8509 10.8457H14.189ZM14.2089 10.9353H15.8277L16.6869 11.4992V11.5855H17.6456V11.9437H16.6869V12.03L15.8277 12.5906H14.2089L13.353 12.03V11.9437H12.391V11.5855H13.353V11.4992L14.2089 10.9353Z" fill="#D22630"/>
<path d="M15.821 10.963L16.6589 11.5131V11.6107H17.6191V11.9164H16.6589V12.014L15.821 12.5641H14.2174L13.3794 12.014V11.9164H12.4192V11.6107H13.3794V11.5131L14.2174 10.963H15.821Z" fill="#D22630"/>
<path d="M13.8011 12.076L14.164 12.3484L14.4026 12.1692L14.2639 12.065L14.164 12.1401L14.0787 12.076L15.445 11.0502H15.1675L13.8011 12.076ZM14.5931 12.4769H14.8706L16.2369 11.4511L15.8742 11.1788L15.6355 11.358L15.7742 11.4621L15.8742 11.387L15.9595 11.4511L14.5931 12.4769ZM15.1675 12.4769H15.4449L14.0787 11.4511L14.164 11.387L14.2639 11.4621L14.4026 11.358L14.164 11.1788L13.8011 11.4511L15.1675 12.4769ZM15.9595 12.076L15.8742 12.1401L15.7742 12.065L15.6355 12.1692L15.8742 12.3484L16.2369 12.076L14.8706 11.0502H14.5931L15.9595 12.076Z" fill="#383739"/>
<path d="M13.5264 11.7635L13.7702 11.9255L14.0141 11.7635L13.7702 11.6016L13.5264 11.7635Z" fill="#383739"/>
<path d="M14.7753 11.7635L15.0191 11.9255L15.263 11.7635L15.0191 11.6016L14.7753 11.7635Z" fill="#383739"/>
<path d="M16.5119 11.7635L16.268 11.9255L16.0242 11.7635L16.268 11.6016L16.5119 11.7635Z" fill="#383739"/>
<path d="M16.1923 12.076L15.8742 12.3148L15.6802 12.1692L15.7743 12.0986L15.8742 12.1736L16.0042 12.076L14.6737 11.0771H14.8617L16.1923 12.076ZM15.3646 12.4501H15.1765L13.8459 11.4511L14.164 11.2123L14.358 11.3579L14.264 11.4285L14.164 11.3535L14.034 11.4511L15.3646 12.4501ZM14.8617 12.4501H14.6737L16.0042 11.4511L15.8742 11.3535L15.7743 11.4285L15.6802 11.3579L15.8742 11.2123L16.1923 11.4511L14.8617 12.4501ZM15.1765 11.0771H15.3646L14.034 12.076L14.164 12.1736L14.264 12.0986L14.358 12.1692L14.164 12.3148L13.8459 12.076L15.1765 11.0771Z" fill="#FFC72C"/>
<path d="M13.7702 11.6339L13.9655 11.7636L13.7702 11.8934L13.5748 11.7636L13.7702 11.6339Z" fill="#00843D"/>
<path d="M15.0191 11.6339L15.2145 11.7636L15.0191 11.8934L14.8239 11.7636L15.0191 11.6339Z" fill="#00843D"/>
<path d="M16.2681 11.6339L16.0728 11.7636L16.2681 11.8934L16.4634 11.7636L16.2681 11.6339Z" fill="#00843D"/>
<path d="M10.73 18.5617L10.6343 18.697L10.8058 18.8282L10.6343 18.9593L10.73 19.0947L10.9292 19.1178L11.1222 18.9687L11.6033 19.2743V19.0205L11.3005 18.8282L11.6033 18.6358V18.382L11.1222 18.6876L10.9292 18.5386L10.73 18.5617Z" fill="#383739"/>
<path d="M10.73 17.6799L10.6343 17.8153L10.8058 17.9464L10.6343 18.0776L10.73 18.2129L10.9292 18.236L11.1222 18.0869L11.6033 18.3926V18.1387L11.3005 17.9464L11.6033 17.754V17.5002L11.1222 17.8059L10.9292 17.6568L10.73 17.6799Z" fill="#383739"/>
<path d="M10.73 19.9764L10.6343 19.8411L10.8058 19.71L10.6343 19.5788L10.73 19.4435L10.9292 19.4203L11.1222 19.5694L11.6033 19.2638V19.5176L11.3005 19.71L11.6033 19.9023V20.1561L11.1222 19.8505L10.9292 19.9996L10.73 19.9764Z" fill="#383739"/>
<path d="M19.3084 18.5617L19.4041 18.697L19.2326 18.8282L19.4041 18.9593L19.3084 19.0947L19.1092 19.1178L18.9162 18.9687L18.4351 19.2743V19.0205L18.7379 18.8282L18.4351 18.6358V18.382L18.9162 18.6876L19.1092 18.5386L19.3084 18.5617Z" fill="#383739"/>
<path d="M19.3084 17.6799L19.4041 17.8153L19.2326 17.9464L19.4041 18.0776L19.3084 18.2129L19.1092 18.236L18.9162 18.0869L18.4351 18.3926V18.1387L18.7379 17.9464L18.4351 17.754V17.5002L18.9162 17.8059L19.1092 17.6568L19.3084 17.6799Z" fill="#383739"/>
<path d="M19.3084 19.9764L19.4041 19.8411L19.2326 19.71L19.4041 19.5788L19.3084 19.4435L19.1092 19.4203L18.9162 19.5694L18.4351 19.2638V19.5176L18.7379 19.71L18.4351 19.9023V20.1561L18.9162 19.8505L19.1092 19.9996L19.3084 19.9764Z" fill="#383739"/>
<path d="M17.3822 16.1553V16.5221H17.649V16.6842H17.911V16.389H17.6773V16.1553H17.3822Z" fill="#383739"/>
<path d="M18.1686 16.7338V17.1005H18.4351V17.2626H18.6974V16.9675H18.4637V16.7338H18.1686Z" fill="#383739"/>
<path d="M12.6562 16.1553V16.5221H12.3893V16.6842H12.1273V16.389H12.361V16.1553H12.6562Z" fill="#383739"/>
<path d="M17.3822 21.5011V21.1344H17.649V20.9723H17.911V21.2674H17.6773V21.5011H17.3822Z" fill="#383739"/>
<path d="M12.6562 21.5011V21.1344H12.3893V20.9723H12.1273V21.2674H12.361V21.5011H12.6562Z" fill="#383739"/>
<path d="M18.1686 20.9227V20.556H18.4351V20.3939H18.6974V20.689H18.4637V20.9227H18.1686Z" fill="#383739"/>
<path d="M11.8699 16.7338V17.1005H11.6033V17.2626H11.3411V16.9675H11.5748V16.7338H11.8699Z" fill="#383739"/>
<path d="M11.8699 20.9227V20.556H11.6033V20.3939H11.3411V20.689H11.5748V20.9227H11.8699Z" fill="#383739"/>
<path d="M16.0059 16.1468C15.9889 16.1302 15.8023 15.9491 15.8023 15.9491L15.6023 16.1344C15.6023 16.1344 15.759 16.2865 15.7767 16.3036L15.5516 16.5221H15.8857L16.0059 16.4053L16.1261 16.5221H16.4602L16.2352 16.3036C16.2528 16.2865 16.4094 16.1344 16.4094 16.1344L16.2095 15.9491C16.1415 16.0149 16.0738 16.0808 16.0059 16.1468Z" fill="#383739"/>
<path d="M15.0192 16.1468C15.0022 16.1302 14.8156 15.9491 14.8156 15.9491L14.6156 16.1344C14.6156 16.1344 14.7723 16.2865 14.79 16.3036L14.5649 16.5221H14.899L15.0192 16.4053L15.1394 16.5221H15.4734L15.2485 16.3036C15.2661 16.2865 15.4227 16.1344 15.4227 16.1344L15.2228 15.9491C15.1548 16.0149 15.0871 16.0808 15.0192 16.1468Z" fill="#383739"/>
<path d="M14.0325 16.1468C14.0495 16.1302 14.2361 15.9491 14.2361 15.9491L14.4361 16.1344C14.4361 16.1344 14.2794 16.2865 14.2618 16.3036L14.4868 16.5221H14.1527L14.0325 16.4053L13.9123 16.5221H13.5782L13.8033 16.3036C13.7856 16.2865 13.6289 16.1344 13.6289 16.1344L13.8289 15.9491C13.8969 16.0149 13.9647 16.0808 14.0325 16.1468Z" fill="#383739"/>
<path d="M16.0059 21.5096C15.9889 21.5261 15.8023 21.7072 15.8023 21.7072L15.6023 21.5219C15.6023 21.5219 15.759 21.3699 15.7767 21.3527L15.5516 21.1343H15.8857L16.0059 21.251L16.1261 21.1343H16.4602L16.2352 21.3527C16.2528 21.3699 16.4094 21.5219 16.4094 21.5219L16.2095 21.7072C16.1415 21.6414 16.0738 21.5754 16.0059 21.5096Z" fill="#383739"/>
<path d="M15.0192 21.5096C15.0022 21.5261 14.8156 21.7072 14.8156 21.7072L14.6156 21.5219C14.6156 21.5219 14.7723 21.3699 14.79 21.3527L14.5649 21.1343H14.899L15.0192 21.251L15.1394 21.1343H15.4734L15.2485 21.3527C15.2661 21.3699 15.4227 21.5219 15.4227 21.5219L15.2228 21.7072C15.1548 21.6414 15.0871 21.5754 15.0192 21.5096Z" fill="#383739"/>
<path d="M14.0325 21.5096C14.0495 21.5261 14.2361 21.7072 14.2361 21.7072L14.4361 21.5219C14.4361 21.5219 14.2794 21.3699 14.2618 21.3527L14.4868 21.1343H14.1527L14.0325 21.251L13.9123 21.1343H13.5782L13.8033 21.3527C13.7856 21.3699 13.6289 21.5219 13.6289 21.5219L13.8289 21.7072C13.8969 21.6414 13.9647 21.5754 14.0325 21.5096Z" fill="#383739"/>
<path d="M11.5764 19.0354V19.2256L11.1205 18.936L10.9213 19.09L10.7448 19.0695L10.671 18.9651L10.8499 18.8283L10.671 18.6915L10.7449 18.5871L10.9213 18.5666L11.1205 18.7205L11.5764 18.431V18.6212L11.2503 18.8283L11.5764 19.0354Z" fill="#00843D"/>
<path d="M11.5764 18.1536V18.3438L11.1205 18.0542L10.9213 18.2082L10.7448 18.1877L10.671 18.0833L10.8499 17.9465L10.671 17.8097L10.7449 17.7053L10.9213 17.6848L11.1205 17.8387L11.5764 17.5492V17.7394L11.2503 17.9465L11.5764 18.1536Z" fill="#00843D"/>
<path d="M11.5764 19.5029V19.3127L11.1205 19.6023L10.9213 19.4483L10.7448 19.4688L10.671 19.5732L10.8499 19.71L10.671 19.8468L10.7449 19.9512L10.9213 19.9717L11.1205 19.8178L11.5764 20.1073V19.9172L11.2503 19.71L11.5764 19.5029Z" fill="#00843D"/>
<path d="M18.4618 19.0354V19.2256L18.9176 18.936L19.1168 19.09L19.2933 19.0695L19.3671 18.9651L19.1882 18.8283L19.3671 18.6915L19.2933 18.5871L19.1168 18.5666L18.9176 18.7205L18.4618 18.431V18.6212L18.7878 18.8283L18.4618 19.0354Z" fill="#00843D"/>
<path d="M18.4618 18.1536V18.3438L18.9176 18.0542L19.1168 18.2082L19.2933 18.1877L19.3671 18.0833L19.1882 17.9465L19.3671 17.8097L19.2933 17.7053L19.1168 17.6848L18.9176 17.8387L18.4618 17.5492V17.7394L18.7878 17.9465L18.4618 18.1536Z" fill="#00843D"/>
<path d="M18.4618 19.5029V19.3127L18.9176 19.6023L19.1168 19.4483L19.2933 19.4688L19.3671 19.5732L19.1882 19.71L19.3671 19.8468L19.2933 19.9512L19.1168 19.9717L18.9176 19.8178L18.4618 20.1073V19.9172L18.7878 19.71L18.4618 19.5029Z" fill="#00843D"/>
<path d="M17.6504 16.1822V16.4159H17.8841V16.6574H17.6757V16.4953H17.4089V16.1822H17.6504Z" fill="#00843D"/>
<path d="M18.4368 16.7606V16.9943H18.6705V17.2358H18.4621V17.0737H18.1953V16.7606H18.4368Z" fill="#00843D"/>
<path d="M12.3878 16.1822V16.4159H12.1541V16.6574H12.3624V16.4953H12.6292V16.1822H12.3878Z" fill="#00843D"/>
<path d="M17.6504 21.4742V21.2405H17.8841V20.999H17.6757V21.1611H17.4089V21.4742H17.6504Z" fill="#00843D"/>
<path d="M12.3878 21.4742V21.2405H12.1541V20.999H12.3624V21.1611H12.6292V21.4742H12.3878Z" fill="#00843D"/>
<path d="M18.4368 20.8959V20.6622H18.6705V20.4207H18.4621V20.5828H18.1953V20.8959H18.4368Z" fill="#00843D"/>
<path d="M11.6015 16.7606V16.9943H11.3678V17.2358H11.5762V17.0737H11.8429V16.7606H11.6015Z" fill="#00843D"/>
<path d="M11.6015 20.8959V20.6622H11.3678V20.4207H11.5762V20.5828H11.843V20.8959H11.6015Z" fill="#00843D"/>
<path d="M15.8019 15.9863C15.8185 16.0024 16.0059 16.1843 16.0059 16.1843C16.0059 16.1843 16.1932 16.0024 16.2098 15.9863C16.2256 16.0008 16.353 16.1188 16.3704 16.135C16.3524 16.1525 16.1965 16.3038 16.1965 16.3038L16.3939 16.4954H16.137L16.0059 16.3681L15.8747 16.4954H15.6178L15.8152 16.3038C15.8152 16.3038 15.6593 16.1525 15.6413 16.135C15.6587 16.1188 15.7861 16.0008 15.8019 15.9863Z" fill="#00843D"/>
<path d="M14.8151 15.9863C14.8317 16.0024 15.0191 16.1843 15.0191 16.1843C15.0191 16.1843 15.2064 16.0024 15.2231 15.9863C15.2388 16.0008 15.3662 16.1188 15.3836 16.135C15.3656 16.1525 15.2098 16.3038 15.2098 16.3038L15.4071 16.4954H15.1502L15.0191 16.3681L14.8879 16.4954H14.631L14.8283 16.3038C14.8283 16.3038 14.6725 16.1525 14.6545 16.135C14.6719 16.1188 14.7993 16.0008 14.8151 15.9863Z" fill="#00843D"/>
<path d="M14.2365 15.9863C14.2198 16.0024 14.0324 16.1843 14.0324 16.1843C14.0324 16.1843 13.8451 16.0024 13.8285 15.9863C13.8127 16.0008 13.6853 16.1188 13.6679 16.135C13.6859 16.1525 13.8418 16.3038 13.8418 16.3038L13.6444 16.4954H13.9013L14.0324 16.3681L14.1636 16.4954H14.4205L14.2232 16.3038C14.2232 16.3038 14.379 16.1525 14.397 16.135C14.3796 16.1188 14.2522 16.0008 14.2365 15.9863Z" fill="#00843D"/>
<path d="M15.8019 21.6702C15.8185 21.654 16.0059 21.4722 16.0059 21.4722C16.0059 21.4722 16.1932 21.654 16.2098 21.6702C16.2256 21.6556 16.353 21.5376 16.3704 21.5215C16.3524 21.504 16.1965 21.3527 16.1965 21.3527L16.3939 21.1611H16.137L16.0059 21.2884L15.8747 21.1611H15.6178L15.8152 21.3527C15.8152 21.3527 15.6593 21.504 15.6413 21.5215C15.6587 21.5376 15.7861 21.6556 15.8019 21.6702Z" fill="#00843D"/>
<path d="M14.8151 21.6702C14.8317 21.654 15.0191 21.4722 15.0191 21.4722C15.0191 21.4722 15.2064 21.654 15.2231 21.6702C15.2388 21.6556 15.3662 21.5376 15.3836 21.5215C15.3656 21.504 15.2098 21.3527 15.2098 21.3527L15.4071 21.1611H15.1502L15.0191 21.2884L14.8879 21.1611H14.631L14.8283 21.3527C14.8283 21.3527 14.6725 21.504 14.6545 21.5215C14.6719 21.5376 14.7993 21.6556 14.8151 21.6702Z" fill="#00843D"/>
<path d="M14.2365 21.6702C14.2198 21.654 14.0324 21.4722 14.0324 21.4722C14.0324 21.4722 13.8451 21.654 13.8285 21.6702C13.8127 21.6556 13.6853 21.5376 13.6679 21.5215C13.6859 21.504 13.8418 21.3527 13.8418 21.3527L13.6444 21.1611H13.9013L14.0324 21.2884L14.1636 21.1611H14.4205L14.2232 21.3527C14.2232 21.3527 14.379 21.504 14.397 21.5215C14.3796 21.5376 14.2522 21.6556 14.2365 21.6702Z" fill="#00843D"/>
<path d="M12.3625 20.5827V21.1611H17.6758V20.5827H18.4619V17.0736H17.6758V16.4952H12.3625V17.0736H11.5764V20.5827H12.3625Z" fill="#383739"/>
<path d="M12.3909 16.5216V17.0989H11.6047V20.5555H12.3909V21.1327H17.6488V20.5555H18.4351V17.0989H17.6488V16.5216H12.3909L12.3909 16.5216ZM12.7293 16.7439H17.3105V17.3012L17.4996 17.4406H18.2128V20.2172H17.4963L17.3105 20.3532V20.9137H12.7293V20.3564L12.5402 20.2172H11.8237V17.4406H12.5369L12.7293 17.3012V16.7439H12.7293Z" fill="#FFC72C"/>
<path d="M12.7558 16.7704V17.2813L13.4458 16.7704H12.7558ZM16.5906 16.7704L17.2806 17.2813V16.7704H16.5906ZM11.8535 17.4671V17.9448L12.5037 17.4671H11.8536H11.8535ZM17.5328 17.4671L18.1863 17.9481V17.4671H17.5328ZM18.1863 19.7062L17.5328 20.1905H18.1863V19.7062ZM11.8535 19.7095V20.1905H12.5037L11.8535 19.7095ZM12.7558 20.3763V20.8838H13.4425L12.7558 20.3763ZM17.2806 20.3763L16.594 20.8838H17.2806V20.3763Z" fill="#D22630"/>
<path d="M16.546 16.7709C16.5531 16.7761 18.1754 17.9743 18.1862 17.9823V19.6739C18.1754 19.6819 16.5531 20.8801 16.546 20.8853H13.4922C13.4851 20.8801 11.8628 19.6819 11.8521 19.6739V17.9823C11.8628 17.9743 13.4851 16.7761 13.4922 16.7709H16.546Z" fill="#00843D"/>
<path d="M12.2426 19.8688L12.0541 19.6499L12.2311 19.4445L12.0541 19.2391L12.2311 19.0337L12.0541 18.8282L12.2311 18.6228L12.0541 18.4173L12.2311 18.2119L12.0541 18.0065L12.2426 17.7876H17.7956L17.9841 18.0065L17.8071 18.2119L17.9841 18.4173L17.8071 18.6228L17.9841 18.8282L17.8071 19.0337L17.9841 19.2391L17.8071 19.4445L17.9841 19.6499L17.7956 19.8688H12.2426ZM16.0597 17.0356L15.8409 16.847L15.6354 17.0241L15.43 16.847L15.2245 17.0241L15.0191 16.847L14.8136 17.0241L14.6082 16.847L14.4028 17.0241L14.1974 16.847L13.9785 17.0356V20.6208L14.1974 20.8094L14.4028 20.6324L14.6082 20.8094L14.8136 20.6323L15.0191 20.8094L15.2245 20.6323L15.43 20.8094L15.6354 20.6324L15.8409 20.8094L16.0597 20.6208V17.0356Z" fill="#383739"/>
<path d="M15.6219 17.048L15.4299 16.8825L15.2379 17.048V20.6085L15.4299 20.7739L15.6219 20.6085V17.048Z" fill="#FFC72C"/>
<path d="M14.8003 17.048L14.6082 16.8825L14.4163 17.048V20.6085L14.6082 20.7739L14.8003 20.6085V17.048Z" fill="#FFC72C"/>
<path d="M12.2549 19.8421L12.0895 19.65L12.2549 19.458H17.7832L17.9487 19.65L17.7832 19.8421H12.2549Z" fill="#FFC72C"/>
<path d="M17.7833 18.6362L17.9488 18.8283L17.7833 19.0202H12.2551L12.0896 18.8283L12.2551 18.6362H17.7833Z" fill="#FFC72C"/>
<path d="M17.7832 18.1985L17.9487 18.0064L17.7832 17.8145H12.2549L12.0895 18.0064L12.2549 18.1985H17.7832Z" fill="#FFC72C"/>
<path d="M16.0329 17.048L15.841 16.8825L15.6489 17.048V20.6085L15.841 20.7739L16.0329 20.6086L16.0329 17.048Z" fill="#D22630"/>
<path d="M14.3894 17.048L14.1974 16.8825L14.0054 17.048V20.6085L14.1974 20.7739L14.3894 20.6085V17.048Z" fill="#D22630"/>
<path d="M12.2551 19.431L12.0896 19.239L12.2551 19.047H17.7833L17.9488 19.239L17.7833 19.431H12.2551Z" fill="#D22630"/>
<path d="M12.2551 18.6094L12.0896 18.4174L12.2551 18.2253H17.7833L17.9488 18.4174L17.7833 18.6094H12.2551Z" fill="#D22630"/>
<path d="M15.2112 20.6085L15.0192 20.7739L14.8271 20.6085V17.048L15.0192 16.8825L15.2112 17.048V20.6085Z" fill="#D22630"/>
<path d="M16.8751 17.1174H13.1498V17.4133H12.6737V20.2432H13.1498V20.5391H16.8885V20.2432H17.3646V17.4133H16.8885V17.1174H16.8751Z" fill="#383739"/>
<path d="M13.1772 17.1453V17.4406H12.6995V20.2171H13.1772V20.5124H13.5686L12.789 19.8589V17.7987L13.5686 17.1453H13.1772ZM16.4713 17.1453L17.2475 17.7987V19.8589L16.4713 20.5124H16.8627V20.2171H17.3371V17.4406H16.8627V17.1453H16.4713V17.1453Z" fill="#D22630"/>
<path d="M13.6117 17.1453C13.6043 17.1515 12.825 17.8042 12.8156 17.812V19.8455C12.825 19.8535 13.6043 20.5061 13.6117 20.5123H16.4281C16.4355 20.5061 17.2115 19.8534 17.2209 19.8455V17.812C17.2115 17.8042 16.4355 17.1515 16.4281 17.1453H13.6117ZM13.6515 17.2581H16.385L17.1081 17.8651V19.7925L16.385 20.3962H13.6515L12.9317 19.7925V17.8651L13.6515 17.2581Z" fill="#00843D"/>
<path d="M14.3754 19.8229L14.4978 19.8758L14.5203 20.0187L14.3663 20.1542L14.59 20.3706H14.3747L14.2208 20.2224L14.0668 20.3706H13.8516L14.0753 20.1542L13.9213 20.0187L13.9438 19.8758L14.0661 19.8229L14.2208 19.9466L14.2292 19.9399L14.3754 19.8229Z" fill="#00843D"/>
<path d="M15.1739 19.8229L15.2963 19.8758L15.3188 20.0187L15.1648 20.1542L15.3885 20.3706H15.1732L15.0193 20.2224L14.8653 20.3706H14.65L14.8738 20.1542L14.7198 20.0187L14.7423 19.8758L14.8646 19.8229L15.0193 19.9466L15.0277 19.9399L15.1739 19.8229Z" fill="#00843D"/>
<path d="M15.6629 19.8229L15.5406 19.8758L15.5181 20.0187L15.6721 20.1542L15.4484 20.3706H15.6637L15.8176 20.2224L15.9715 20.3706H16.1868L15.9631 20.1542L16.1171 20.0187L16.0946 19.8758L15.9722 19.8229L15.8176 19.9466L15.8092 19.9399L15.6629 19.8229Z" fill="#00843D"/>
<path d="M14.3754 17.8335L14.4978 17.7806L14.5203 17.6377L14.3663 17.5022L14.59 17.2859H14.3747L14.2208 17.434L14.0668 17.2859H13.8516L14.0753 17.5022L13.9213 17.6377L13.9438 17.7806L14.0661 17.8335L14.2208 17.7098L14.2292 17.7165L14.3754 17.8335Z" fill="#00843D"/>
<path d="M15.1739 17.8335L15.2963 17.7806L15.3188 17.6377L15.1648 17.5022L15.3885 17.2859H15.1732L15.0193 17.434L14.8653 17.2859H14.65L14.8738 17.5022L14.7198 17.6377L14.7423 17.7806L14.8646 17.8335L15.0193 17.7098L15.0277 17.7165L15.1739 17.8335Z" fill="#00843D"/>
<path d="M15.6629 17.8335L15.5406 17.7806L15.5181 17.6377L15.6721 17.5022L15.4484 17.2859H15.6637L15.8176 17.434L15.9715 17.2859H16.1868L15.9631 17.5022L16.1171 17.6377L16.0946 17.7806L15.9722 17.8335L15.8176 17.7098L15.8092 17.7165L15.6629 17.8335Z" fill="#00843D"/>
<path d="M17.0799 18.0617L16.9578 18.1628L17.0799 18.2639V18.4316L16.8921 18.2768C16.8921 18.2768 16.7658 18.3912 16.7573 18.3989C16.7465 18.3975 16.6248 18.3822 16.6128 18.3807C16.6074 18.3709 16.5694 18.3008 16.5619 18.2868C16.5745 18.2742 16.6863 18.1628 16.6863 18.1628C16.6863 18.1628 16.5745 18.0514 16.5619 18.0388C16.5694 18.0248 16.6074 17.9547 16.6128 17.9449C16.6248 17.9434 16.7465 17.928 16.7573 17.9267C16.7658 17.9344 16.8921 18.0489 16.8921 18.0489L17.0799 17.8941V18.0617Z" fill="#00843D"/>
<path d="M17.0799 18.727L16.9578 18.8282L17.0799 18.9292V19.0969L16.8921 18.9421C16.8921 18.9421 16.7658 19.0565 16.7573 19.0642C16.7465 19.0629 16.6248 19.0476 16.6128 19.0461C16.6074 19.0362 16.5694 18.9661 16.5619 18.9521C16.5745 18.9396 16.6863 18.8282 16.6863 18.8282C16.6863 18.8282 16.5745 18.7167 16.5619 18.7041C16.5694 18.6901 16.6074 18.6201 16.6128 18.6102C16.6248 18.6087 16.7465 18.5934 16.7573 18.592C16.7658 18.5997 16.8921 18.7142 16.8921 18.7142L17.0799 18.5594V18.727Z" fill="#00843D"/>
<path d="M17.0799 19.5948L16.9578 19.4936L17.0799 19.3926V19.2249L16.8921 19.3797C16.8921 19.3797 16.7658 19.2652 16.7573 19.2575C16.7465 19.2589 16.6248 19.2742 16.6128 19.2757C16.6074 19.2856 16.5694 19.3557 16.5619 19.3696C16.5745 19.3822 16.6863 19.4936 16.6863 19.4936C16.6863 19.4936 16.5745 19.6051 16.5619 19.6176C16.5694 19.6316 16.6074 19.7017 16.6128 19.7116C16.6248 19.7131 16.7465 19.7284 16.7573 19.7297C16.7658 19.722 16.8921 19.6076 16.8921 19.6076L17.0799 19.7624V19.5948Z" fill="#00843D"/>
<path d="M12.9586 18.0617L13.0807 18.1628L12.9586 18.2639V18.4316L13.1464 18.2768C13.1464 18.2768 13.2727 18.3912 13.2812 18.3989C13.292 18.3975 13.4137 18.3822 13.4258 18.3807C13.4311 18.3709 13.4691 18.3008 13.4767 18.2868C13.4641 18.2742 13.3523 18.1628 13.3523 18.1628C13.3523 18.1628 13.4641 18.0514 13.4767 18.0388C13.4691 18.0248 13.4311 17.9547 13.4258 17.9449C13.4137 17.9434 13.292 17.928 13.2812 17.9267C13.2727 17.9344 13.1464 18.0489 13.1464 18.0489L12.9586 17.8941V18.0617Z" fill="#00843D"/>
<path d="M12.9586 18.727L13.0807 18.8282L12.9586 18.9292V19.0969L13.1464 18.9421C13.1464 18.9421 13.2727 19.0565 13.2812 19.0642C13.292 19.0629 13.4137 19.0476 13.4258 19.0461C13.4311 19.0362 13.4691 18.9661 13.4767 18.9521C13.4641 18.9396 13.3523 18.8282 13.3523 18.8282C13.3523 18.8282 13.4641 18.7167 13.4767 18.7041C13.4691 18.6901 13.4311 18.6201 13.4258 18.6102C13.4137 18.6087 13.292 18.5934 13.2812 18.592C13.2727 18.5997 13.1464 18.7142 13.1464 18.7142L12.9586 18.5594V18.727Z" fill="#00843D"/>
<path d="M12.9586 19.5948L13.0807 19.4936L12.9586 19.3926V19.2249L13.1464 19.3797C13.1464 19.3797 13.2727 19.2652 13.2812 19.2575C13.292 19.2589 13.4137 19.2742 13.4258 19.2757C13.4311 19.2856 13.4691 19.3557 13.4767 19.3696C13.4641 19.3822 13.3523 19.4936 13.3523 19.4936C13.3523 19.4936 13.4641 19.6051 13.4767 19.6176C13.4691 19.6316 13.4311 19.7017 13.4258 19.7116C13.4137 19.7131 13.292 19.7284 13.2812 19.7297C13.2727 19.722 13.1464 19.6076 13.1464 19.6076L12.9586 19.7624V19.5948Z" fill="#00843D"/>
<path d="M13.6615 17.2846C13.6543 17.2906 12.9975 17.8405 12.9682 17.8651C13.0274 17.9142 13.0847 17.9655 13.144 18.0144C13.159 18.0008 13.2734 17.8982 13.2734 17.8982L13.4426 17.9215L13.5089 18.0442C13.5089 18.0442 13.4057 18.1475 13.3895 18.1636C13.4057 18.1798 13.5089 18.2831 13.5089 18.2831L13.4426 18.4058L13.2734 18.4257C13.2734 18.4257 13.1591 18.3265 13.144 18.3129L12.9583 18.4688V18.5219C13.0207 18.5736 13.0813 18.6261 13.144 18.6778C13.1591 18.6642 13.2734 18.565 13.2734 18.565L13.4426 18.5849L13.5089 18.7077C13.5089 18.7077 13.4057 18.8109 13.3895 18.8271C13.4057 18.8432 13.5089 18.9465 13.5089 18.9465L13.4426 19.0726L13.2734 19.0925C13.2734 19.0925 13.1591 18.99 13.144 18.9764L12.9583 19.1323V19.1887L13.144 19.3446C13.1591 19.331 13.2734 19.2285 13.2734 19.2285L13.4426 19.2517L13.5089 19.3744C13.5089 19.3744 13.4057 19.4777 13.3895 19.4939C13.4057 19.51 13.5089 19.6133 13.5089 19.6133L13.4426 19.736L13.2734 19.7593C13.2734 19.7593 13.1591 19.6568 13.144 19.6432C13.0849 19.6918 13.0272 19.7405 12.9682 19.7891C12.9975 19.8137 13.6543 20.3635 13.6615 20.3696H13.8141L14.0364 20.154L13.8937 20.028L13.9203 19.8555L14.0695 19.7924L14.2221 19.9119L14.3714 19.7924L14.5207 19.8555L14.5506 20.028L14.4046 20.154L14.6202 20.3597L14.8358 20.154L14.6899 20.028L14.7164 19.8555L14.869 19.7924L15.0183 19.9119L15.1709 19.7924L15.3202 19.8555L15.3467 20.028L15.2041 20.154L15.4164 20.363L15.632 20.154L15.4894 20.028L15.5159 19.8555L15.6685 19.7924L15.8178 19.9119L15.967 19.7924L16.1196 19.8555L16.1462 20.028L16.0035 20.154L16.2258 20.3696H16.3751C16.3823 20.3635 17.0391 19.8137 17.0684 19.7891C17.0093 19.7404 16.9518 19.6919 16.8926 19.6432C16.8775 19.6568 16.7665 19.7593 16.7665 19.7593L16.5973 19.736L16.5277 19.6133C16.5277 19.6133 16.6309 19.51 16.6471 19.4939C16.6309 19.4777 16.5277 19.3744 16.5277 19.3744L16.5973 19.2517L16.7665 19.2285C16.7665 19.2285 16.8775 19.331 16.8926 19.3446L17.0783 19.1887V19.1323L16.8926 18.9764C16.8775 18.99 16.7665 19.0925 16.7665 19.0925L16.5973 19.0726L16.5277 18.9465C16.5277 18.9465 16.6309 18.8432 16.6471 18.8271C16.6309 18.8109 16.5277 18.7077 16.5277 18.7077L16.5973 18.5849L16.7665 18.565C16.7665 18.565 16.8775 18.6642 16.8926 18.6778C16.9549 18.6265 17.0162 18.5763 17.0783 18.5252V18.4655L16.8926 18.3129C16.8775 18.3265 16.7665 18.4257 16.7665 18.4257L16.5973 18.4058L16.5277 18.2831C16.5277 18.2831 16.6309 18.1798 16.6471 18.1636C16.6309 18.1475 16.5277 18.0442 16.5277 18.0442L16.5973 17.9215L16.7665 17.8982C16.7665 17.8982 16.8775 18.0008 16.8926 18.0144C16.952 17.9654 17.0123 17.9174 17.0717 17.8684C17.0489 17.8492 16.3824 17.2906 16.3751 17.2845H16.2258L16.0035 17.5002L16.1462 17.6262L16.1196 17.7987L15.967 17.8651L15.8178 17.7457L15.6685 17.8651L15.5159 17.7987L15.4894 17.6262L15.632 17.5002L15.4197 17.2945L15.2041 17.5002L15.3467 17.6262L15.3202 17.7987L15.1709 17.8651L15.0183 17.7457L14.869 17.8651L14.7164 17.7987L14.6899 17.6262L14.8358 17.5002L14.6202 17.2945L14.4046 17.5002L14.5506 17.6262L14.5207 17.7987L14.3714 17.8651L14.2221 17.7457L14.0695 17.8651L13.9203 17.7987L13.8937 17.6262L14.0364 17.5002L13.8108 17.2845L13.6615 17.2846ZM12.9583 18.7608V18.8968L13.0379 18.8271L12.9583 18.7608Z" fill="#D22630"/>
<path d="M14.2221 20.2602L14.106 20.3696H14.3348L14.2221 20.2602Z" fill="white"/>
<path d="M15.0183 20.2602L14.9055 20.3696H15.1344L15.0183 20.2602Z" fill="white"/>
<path d="M15.8177 20.2602L15.7017 20.3696H15.9338L15.8177 20.2602Z" fill="white"/>
<path d="M14.1027 17.2847L14.2221 17.3974L14.3382 17.2847H14.1027Z" fill="white"/>
<path d="M14.9022 17.2847L15.0184 17.3974L15.1378 17.2847H14.9022Z" fill="white"/>
<path d="M15.7017 17.2847L15.8177 17.3974L15.9338 17.2847H15.7017Z" fill="white"/>
<path d="M17.0783 18.0974L16.9987 18.1638L17.0783 18.2268V18.0974Z" fill="white"/>
<path d="M17.0783 18.7608L16.9987 18.8271L17.0783 18.8935V18.7608Z" fill="white"/>
<path d="M17.0783 19.4275L16.9987 19.4938L17.0783 19.5602V19.4275Z" fill="white"/>
<path d="M12.9583 18.0941V18.2301L13.0379 18.1638L12.9583 18.0941Z" fill="white"/>
<path d="M12.9583 18.7608V18.8968L13.0379 18.8271L12.9583 18.7608Z" fill="white"/>
<path d="M12.9583 19.4243V19.5602L13.0379 19.4939L12.9583 19.4243Z" fill="white"/>
<path d="M15.702 18.6059V18.3684H15.4617V18.1081H14.5766V18.3684H14.3363V18.6059H14.0044V19.0504H14.3363V19.2878H14.5766V19.5482H15.4617V19.2878H15.702V19.0504H16.0339V18.6059H15.702Z" fill="#383739"/>
<path d="M15.0057 18.135V18.4034L14.6253 18.6196V18.8148H14.0312V18.6328H14.3631V18.3954H14.6034V18.135H15.0057Z" fill="#FFC72C"/>
<path d="M15.0326 19.5216V19.2532L15.413 19.0369V18.8418H16.007V19.0238H15.6752V19.2612H15.4349V19.5216H15.0326Z" fill="#FFC72C"/>
<path d="M15.413 18.8148V18.6196L15.0326 18.4034V18.135H15.4349V18.3954H15.6752V18.6328H16.007V18.8148H15.413Z" fill="white"/>
<path d="M14.0312 18.8418H14.6253V19.0369L15.0057 19.2532V19.5216H14.6034V19.2612H14.3631V19.0238H14.0312V18.8418Z" fill="white"/>
<path d="M14.6521 18.8418V19.0227L15.0057 19.2237V18.8418H14.6521Z" fill="#D22630"/>
<path d="M15.0057 18.433L14.6521 18.634V18.8149H15.0057V18.433Z" fill="#00843D"/>
<path d="M15.3862 18.8149V18.634L15.0326 18.433V18.8149H15.3862Z" fill="#D22630"/>
<path d="M15.0326 19.2236L15.3862 19.0226V18.8417H15.0326V19.2236Z" fill="#00843D"/>
<path d="M11.8031 23.5458V24.2796H11.1038V24.9452H10.395V26.8403H11.1038V27.5059H11.8031V28.2397H14.3458L14.7929 28.5084L14.578 28.6375H13.6714L13.5932 28.5493H14.4148L14.1833 28.3162H13.008L13.5405 28.8706H14.6427L15.0192 28.6444L15.3957 28.8706H16.4979L17.0304 28.3162H15.8551L15.6236 28.5493H16.4453L16.3671 28.6375H15.4604L15.2455 28.5084L15.6927 28.2397H18.2353V27.5059H18.9346V26.8403H19.6434V24.9452H18.9346V24.2796H18.2353V23.5458H15.6927L15.2455 23.2771L15.4604 23.148H16.3671L16.4453 23.2362H15.6236L15.8551 23.4693H17.0304L16.4979 22.9149H15.3957L15.0192 23.1411L14.6427 22.9149H13.5405L13.008 23.4693H14.1833L14.4148 23.2362H13.5932L13.6714 23.148H14.578L14.7929 23.2771L14.3458 23.5458H11.8031Z" fill="#D22630"/>
<path d="M15.685 28.2118H18.2094V27.4786H18.9061V26.8118H19.616V24.9707H18.9061V24.3073H18.2094V23.5742H15.685L14.6367 22.9406H13.5519L13.0709 23.4415H14.1723L14.3514 23.2623H13.532L13.6581 23.1197H14.5869L15.7745 23.8362H17.944V24.5693H18.644V25.2361H19.3539V26.5498H18.644V27.2166H17.944V27.9497H15.7745L14.5869 28.6629H13.6581L13.532 28.5236H14.3514L14.1723 28.3444H13.0709L13.5519 28.8454H14.6367L15.685 28.2118ZM14.2618 27.9497H12.0923V27.2166H11.3957V26.5498H10.6858V25.2361H11.3957V24.5693H12.0923V23.8362H14.2618L15.4528 23.1197H16.3783L16.5044 23.2623H15.6883L15.8674 23.4415H16.9688L16.4878 22.9406H15.403L14.3547 23.5742H11.8303V24.3073H11.1303V24.9707H10.4204V26.8118H11.1303V27.4786H11.8303V28.2118H14.3547L15.403 28.8454H16.4878L16.9688 28.3444H15.8674L15.6883 28.5236H16.5044L16.3783 28.6629H15.4528L14.2618 27.9497Z" fill="#FFC72C"/>
<path d="M17.7338 27.0045V27.7383H15.7171L15.0191 28.1577L14.3211 27.7383H12.3044V27.0045H11.6051V26.3389H10.8964V25.4467H11.6051V24.781H12.3044V24.0472H14.3174H14.3211L15.0191 23.6279L15.7171 24.0472H17.7338V24.781H18.4331V25.4467H19.1418V26.3389H18.4331V27.0045H17.7338Z" fill="#00843D"/>
<path d="M12.5685 26.7474V27.4576H13.677L12.5685 26.7224V26.7474Z" fill="#383739"/>
<path d="M12.5685 25.038V24.3278H13.677L12.5685 25.063V25.038Z" fill="#383739"/>
<path d="M17.4698 26.7474V27.4576H16.3612L17.4698 26.7224V26.7474Z" fill="#383739"/>
<path d="M17.4698 25.038V24.3278H16.3612L17.4698 25.063V25.038Z" fill="#383739"/>
<path d="M12.5953 26.7723L13.588 27.4308H12.5953V26.7723Z" fill="#D22630"/>
<path d="M12.5953 25.0131C12.6339 24.9875 13.5204 24.3996 13.588 24.3547H12.5953V25.0131Z" fill="#D22630"/>
<path d="M17.443 26.7723C17.4044 26.798 16.5179 27.3859 16.4503 27.4308H17.443V26.7723Z" fill="#D22630"/>
<path d="M17.443 25.0131C17.4044 24.9876 16.5179 24.3996 16.4503 24.3547H17.443V25.0131Z" fill="#D22630"/>
<path d="M13.9825 25.698V25.3353H13.8588L13.2652 24.9642L13.2581 24.9686L12.6718 25.3353H12.5481V25.698H12.269V26.0875H12.5481V26.4502H12.6718L13.2652 26.8213L13.8588 26.4502H13.9825V26.0875H14.4072V25.698H13.9825Z" fill="#383739"/>
<path d="M13.2652 24.9959L13.8081 25.3353H12.7224L13.2652 24.9959ZM13.8081 26.4502L13.2652 26.7896L12.7225 26.4502H13.8081Z" fill="#D22630"/>
<path d="M13.6766 25.7247V26.0606H12.9996V25.7247H13.6766Z" fill="#D22630"/>
<path d="M13.9557 26.0875V26.4233H13.2787V26.0875H13.9557Z" fill="#FFC72C"/>
<path d="M13.2519 26.0875V26.4233H12.575V26.0875H13.2519Z" fill="#FFC72C"/>
<path d="M14.3805 25.7248V26.0607H13.7035V25.7248H14.3805Z" fill="#FFC72C"/>
<path d="M12.9729 25.7248V26.0607H12.2959V25.7248H12.9729Z" fill="#FFC72C"/>
<path d="M13.9557 25.3621V25.6979H13.2787V25.3621H13.9557Z" fill="#FFC72C"/>
<path d="M13.2519 25.3621V25.6979H12.575V25.3621H13.2519Z" fill="#FFC72C"/>
<path d="M12.7865 25.7994V25.9861H12.4824V25.7994H12.7865Z" fill="#383739"/>
<path d="M13.0656 25.4367V25.6233H12.7615V25.4367H13.0656Z" fill="#383739"/>
<path d="M13.7693 25.4367V25.6233H13.4652V25.4367H13.7693Z" fill="#383739"/>
<path d="M13.4902 25.7994V25.9861H13.1862V25.7994H13.4902Z" fill="#383739"/>
<path d="M14.194 25.7994V25.9861H13.8899V25.7994H14.194Z" fill="#383739"/>
<path d="M13.7693 26.1621V26.3487H13.4652V26.1621H13.7693Z" fill="#383739"/>
<path d="M13.0656 26.1621V26.3487H12.7615V26.1621H13.0656Z" fill="#383739"/>
<path d="M12.7578 25.828H12.511V25.9573H12.7578V25.828Z" fill="white"/>
<path d="M13.0369 25.4653H12.79V25.5946H13.0369V25.4653Z" fill="white"/>
<path d="M13.7406 25.4653H13.4938V25.5946H13.7406V25.4653Z" fill="white"/>
<path d="M13.4615 25.828H13.2147V25.9573H13.4615V25.828Z" fill="white"/>
<path d="M14.1654 25.828H13.9186V25.9573H14.1654V25.828Z" fill="white"/>
<path d="M13.7406 26.1907H13.4938V26.32H13.7406V26.1907Z" fill="white"/>
<path d="M13.0369 26.1907H12.79V26.32H13.0369V26.1907Z" fill="white"/>
<path d="M15.7364 25.0922V25.4549H15.6127L15.0191 25.826L15.012 25.8215L14.4257 25.4549H14.302V25.0922H13.9501V24.7027H14.302V24.34H14.4257L15.0191 23.9689L15.6127 24.34H15.7364V24.7027H16.0882V25.0922H15.7364Z" fill="#383739"/>
<path d="M15.0193 25.7941L15.5621 25.4547H14.4764L15.0193 25.7941ZM15.5621 24.3398L15.0193 24.0004L14.4765 24.3398H15.5621Z" fill="#FFC72C"/>
<path d="M15.7096 24.7026V24.3668H15.0326V24.7026H15.7096Z" fill="#D22630"/>
<path d="M15.0058 24.7026V24.3668H14.3289V24.7026H15.0058Z" fill="#D22630"/>
<path d="M16.0614 25.0652V24.7294H15.3844V25.0652H16.0614Z" fill="#D22630"/>
<path d="M15.3576 25.0652V24.7294H14.6807V25.0652H15.3576Z" fill="#D22630"/>
<path d="M14.6539 25.0652V24.7294H13.9769V25.0652H14.6539Z" fill="#D22630"/>
<path d="M15.7096 25.4279V25.092H15.0326V25.4279H15.7096Z" fill="#D22630"/>
<path d="M15.0058 25.4279V25.092H14.3289V25.4279H15.0058Z" fill="#D22630"/>
<path d="M14.8193 24.4414V24.628H14.5153V24.4414H14.8193Z" fill="#383739"/>
<path d="M15.5231 24.4414V24.628H15.219V24.4414H15.5231Z" fill="#383739"/>
<path d="M14.4674 24.8041V24.9908H14.1633V24.8041H14.4674Z" fill="#383739"/>
<path d="M15.1713 24.8041V24.9908H14.8672V24.8041H15.1713Z" fill="#383739"/>
<path d="M15.8751 24.8041V24.9908H15.571V24.8041H15.8751Z" fill="#383739"/>
<path d="M14.8193 25.1668V25.3534H14.5153V25.1668H14.8193Z" fill="#383739"/>
<path d="M15.5231 25.1668V25.3534H15.219V25.1668H15.5231Z" fill="#383739"/>
<path d="M14.7908 24.47H14.5439V24.5993H14.7908V24.47Z" fill="white"/>
<path d="M15.4945 24.47H15.2477V24.5993H15.4945V24.47Z" fill="white"/>
<path d="M14.4388 24.8327H14.192V24.962H14.4388V24.8327Z" fill="white"/>
<path d="M15.1427 24.8327H14.8959V24.962H15.1427V24.8327Z" fill="white"/>
<path d="M15.8464 24.8327H15.5996V24.962H15.8464V24.8327Z" fill="white"/>
<path d="M14.7908 25.1954H14.5439V25.3247H14.7908V25.1954Z" fill="white"/>
<path d="M15.4945 25.1954H15.2477V25.3247H15.4945V25.1954Z" fill="white"/>
<path d="M11.1786 31.4138L13.8123 29.9963H13.8157H16.226L18.8598 31.4138V33.7493L16.226 35.1666H13.8123L11.1786 33.7493V31.4138Z" fill="#383739"/>
<path d="M13.8207 30.0231L11.2067 31.4296V33.7318L13.8207 35.1383H16.2191L18.8332 33.7318V31.4296L16.2191 30.0231H13.8207ZM13.8671 30.2121H16.1727L18.6474 31.5423V33.6223L16.1727 34.9525H13.8657L11.391 33.6223V31.5423L13.8671 30.2121Z" fill="#00843D"/>
<path d="M15.0326 32.5679V34.9254H16.1659L18.6199 33.6047V32.5948L15.0057 32.5948V30.2374H13.8724L11.4183 31.558V32.5679L15.0326 32.5679Z" fill="#FFC72C"/>
<path d="M15.0057 32.5679V34.9254H13.8724L11.4183 33.6047V32.5948L15.0326 32.5948V30.2374H16.1659L18.6199 31.558V32.5679L15.0057 32.5679Z" fill="white"/>
<path d="M15.2394 34.7935V34.1121L15.0191 34.2519L14.7988 34.1121V34.7935H14.1135L14.5759 34.4544V33.9707L13.8707 33.5233H13.3779V31.6398H13.8707L14.5759 31.1923V30.7087L14.1135 30.3696H14.1545H14.7988V31.051L15.0191 30.9112L15.2394 31.051V30.3696H15.9247L15.4623 30.7087V31.1923L16.1675 31.6398H16.6602V33.5233H16.1675L15.4623 33.9707V34.4544L15.9247 34.7935H15.2394Z" fill="#383739"/>
<path d="M15.267 30.3978V31.101L15.0315 30.9518V31.1508L16.1096 31.8374H16.4646V32.5673H16.6338V31.665H16.1594L15.4363 31.2072V30.6963L15.8442 30.3978H15.267H15.267ZM13.406 32.5939V33.4962H13.8771L14.6036 33.9572V34.4681L14.1955 34.7666H14.7728V34.0634L15.0049 34.2127V34.007L13.9268 33.327H13.5752V32.5939H13.406L13.406 32.5939Z" fill="#FFC72C"/>
<path d="M14.1955 30.3978L14.6036 30.6963V31.2072L13.8771 31.665H13.406V32.5673H13.5752V31.8374H13.9268L15.0049 31.1541V30.9518L14.7728 31.101V30.3978H14.1955L14.1955 30.3978ZM16.4646 32.5939V33.327H16.1096L15.0315 34.007V34.2127L15.267 34.0634V34.7666H15.8442L15.4362 34.4681V33.9572L16.1594 33.4962H16.6338V32.5939H16.4646L16.4646 32.5939Z" fill="white"/>
<path d="M13.6008 33.2991H13.9351L15.0191 33.9869L16.1031 33.2991H16.4374V31.8639H16.107H16.1031L15.0191 31.1761L13.9351 31.8639H13.6008V33.2991Z" fill="#D22630"/>
<path d="M15.7694 32.9224H16.0008V32.8129H15.8267V32.6139H16.1988V33.1215H15.8421L15.8421 33.4679H15.1078V32.9702H15.431V33.1693H15.3058V33.2688H15.6441V33.0785L14.2687 32.2404H14.0372V32.3498H14.2114V32.5489H13.8392V32.0413H14.196V31.6949H14.2094H14.9302V32.1926H14.6071V31.9935H14.7322V31.894H14.394V32.0843L15.7694 32.9224ZM15.6441 32.0843V31.894H15.3058V31.9935H15.431V32.1926H15.1078V31.6949H15.8421V32.0413H16.1988V32.5489H15.8267V32.3498H16.0009V32.2404H15.7694L14.394 33.0785V33.2688H14.7322V33.1693H14.6071V32.9702H14.9302V33.4679H14.196V33.1215H13.8392V32.6139H14.2114V32.8129H14.0372V32.9224H14.2687L15.6441 32.0843Z" fill="#383739"/>
<path d="M15.6711 33.0635V33.2957H15.279V33.1425H15.4043V32.9971H15.1347V33.441H15.8154V33.0947H16.1721V32.6408H15.8537V32.7861H16.0278V32.9493H15.762L14.3672 32.0994V31.8672H14.7592V32.0204H14.6341V32.1658H14.9035V31.7218H14.2229V32.0681H13.8662V32.5221H14.1846V32.3767H14.0105V32.2135H14.2763L15.6711 33.0635ZM15.762 32.2135H16.0278V32.3767H15.8537V32.5221H16.1721V32.0681H15.8154V31.7218H15.1348V32.1658H15.4043V32.0204H15.2791V31.8672H15.6711V32.0994L14.2763 32.9493H14.0105V32.7861H14.1846V32.6407H13.8662V33.0947H14.2229V33.441H14.9035V32.9971H14.6341V33.1425H14.7592V33.2956H14.3672V33.0635L15.762 32.2135Z" fill="white"/>
<path d="M18.0908 32.6996V33.4362H17.7773V33.1761H17.4613V33.4362H17.1478V32.6996H17.4613V32.9597H17.7773V32.6996H18.0908Z" fill="#383739"/>
<path d="M16.9691 33.6776V34.4143H16.6556V34.1541H16.3396V34.4143H16.0261V33.6776H16.3396V33.9378H16.6556V33.6776H16.9691Z" fill="#383739"/>
<path d="M18.0908 32.4633V31.7267H17.7773V31.9868H17.4613V31.7267H17.1478V32.4633H17.4613V32.2032H17.7773V32.4633H18.0908Z" fill="#383739"/>
<path d="M11.9474 32.6996V33.4362H12.2609V33.1761H12.5769V33.4362H12.8903V32.6996H12.5769V32.9597H12.2609V32.6996H11.9474Z" fill="#383739"/>
<path d="M11.9474 32.4633V31.7267H12.2609V31.9868H12.5769V31.7267H12.8903V32.4633H12.5769V32.2032H12.2609V32.4633H11.9474Z" fill="#383739"/>
<path d="M16.9691 31.4854V30.7488H16.6556V31.0089H16.3396V30.7488H16.0261V31.4854H16.3396V31.2253H16.6556V31.4854H16.9691Z" fill="#383739"/>
<path d="M13.0692 33.6776V34.4143H13.3827V34.1541H13.6987V34.4143H14.0122V33.6776H13.6987V33.9378H13.3827V33.6776H13.0692Z" fill="#383739"/>
<path d="M13.0692 31.4854V30.7488H13.3827V31.0089H13.6987V30.7488H14.0122V31.4854H13.6987V31.2253H13.3827V31.4854H13.0692Z" fill="#383739"/>
<path d="M17.1561 30.9692V31.5287H18.1956L17.1561 30.9692Z" fill="#383739"/>
<path d="M12.8821 34.1938V33.6344H11.8427L12.8821 34.1938Z" fill="#383739"/>
<path d="M12.8821 30.9692V31.5287H11.8427L12.8821 30.9692Z" fill="#383739"/>
<path d="M17.1561 34.1938V33.6344H18.1956L17.1561 34.1938Z" fill="#383739"/>
<path d="M17.8043 33.1492V33.4094H18.0641V32.7264H17.8043V32.9866H17.4346V32.7264H17.1748V33.4094H17.4346V33.1492H17.8043Z" fill="#D22630"/>
<path d="M16.6825 34.1273V34.3874H16.9422V33.7045H16.6825V33.9646H16.3128V33.7045H16.053V34.3874H16.3128V34.1273H16.6825Z" fill="#D22630"/>
<path d="M17.8043 32.0138V31.7537H18.0641V32.4366H17.8043V32.1764H17.4346V32.4366H17.1748V31.7537H17.4346V32.0138H17.8043Z" fill="#D22630"/>
<path d="M12.2341 33.1492V33.4094H11.9744V32.7264H12.2341V32.9866H12.6038V32.7264H12.8636V33.4094H12.6038V33.1492H12.2341Z" fill="#D22630"/>
<path d="M12.2341 32.0138V31.7537H11.9744V32.4366H12.2341V32.1764H12.6038V32.4366H12.8636V31.7537H12.6038V32.0138H12.2341Z" fill="#D22630"/>
<path d="M16.6825 31.0358V30.7756H16.9422V31.4586H16.6825V31.1984H16.3128V31.4586H16.053V30.7756H16.3128V31.0358H16.6825Z" fill="#D22630"/>
<path d="M13.3558 34.1273V34.3874H13.0961V33.7045H13.3558V33.9646H13.7255V33.7045H13.9854V34.3874H13.7255V34.1273H13.3558Z" fill="#D22630"/>
<path d="M13.3558 31.0358V30.7756H13.0961V31.4586H13.3558V31.1984H13.7255V31.4586H13.9854V30.7756H13.7255V31.0358H13.3558Z" fill="#D22630"/>
<path d="M17.1844 31.0148V31.5024H18.0901L17.1844 31.0148ZM11.9498 33.662L12.8554 34.1497V33.662H11.9497H11.9498Z" fill="#FFC72C"/>
<path d="M12.8553 31.0148L11.9497 31.5024H12.8553V31.0148ZM17.1844 33.662V34.1497L18.0901 33.662H17.1844Z" fill="white"/>
<path d="M19.2717 34.6374C19.2217 34.8508 19.052 35.0118 19.0115 35.2332C18.9306 35.0024 18.856 34.8089 18.9117 34.5565C18.9516 34.3759 19.1035 34.2471 19.1211 34.0616C19.2867 34.2105 19.3223 34.4217 19.2717 34.6374ZM19.3137 35.5315C19.1732 35.7241 18.978 35.8718 18.7623 35.9703C18.8048 35.8016 18.7251 35.6746 18.6367 35.5407C18.5302 35.3795 18.4782 35.2211 18.5651 35.0355C18.6056 35.132 18.6599 35.2121 18.7237 35.2946C18.8181 35.4234 18.8801 35.5379 18.8947 35.703C19.0038 35.6221 19.0518 35.5013 19.1101 35.3845C19.1991 35.2171 19.3426 35.0771 19.5075 34.9856C19.4637 35.1734 19.4299 35.3719 19.3137 35.5315V35.5315ZM18.5259 36.1055C18.5559 36.2125 18.5818 36.3185 18.576 36.4303C18.6688 36.3303 18.7921 36.2551 18.902 36.1745C19.0518 36.0534 19.2263 35.968 19.3488 35.8138C19.3305 36.0407 19.2334 36.2258 19.0489 36.3639C18.854 36.5098 18.6189 36.5882 18.4268 36.7414C18.4556 36.535 18.3797 36.3696 18.3151 36.1799C18.2612 35.9986 18.3133 35.8145 18.4363 35.6763C18.4345 35.8295 18.4828 35.961 18.5259 36.1055L18.5259 36.1055ZM18.0884 36.8028C18.048 36.9594 17.9358 37.0868 17.8591 37.2265C18.0657 37.1624 18.248 37.0503 18.4348 36.9449C18.6573 36.8238 18.8988 36.7467 19.1002 36.5867C19 36.9578 18.7516 37.1729 18.3882 37.2826C18.1397 37.3576 17.9303 37.3202 17.6289 37.442C17.6634 37.2379 17.7243 37.0177 17.8208 36.8336C17.8957 36.7005 17.9788 36.5693 18.025 36.4227C18.092 36.5431 18.1238 36.6656 18.0884 36.8028H18.0884ZM17.3281 37.3706C17.257 37.4925 17.1631 37.595 17.0466 37.6759C17.3399 37.6946 17.5759 37.5087 17.8619 37.5006C18.0385 37.4957 18.2062 37.5505 18.3863 37.5341C18.1725 37.6783 17.9488 37.8042 17.6885 37.8379C17.3502 37.8816 17.0383 37.7965 16.6651 37.8298C16.8395 37.7067 16.9267 37.542 17.0355 37.3648C17.177 37.1436 17.3106 36.9859 17.5859 36.9503C17.4754 37.0746 17.4111 37.2285 17.3281 37.3706V37.3706ZM16.2865 37.8574C16.8032 37.9452 17.2983 38.0589 17.826 38.0641C17.2353 38.2701 16.6788 38.3073 16.0929 38.0947C15.7763 37.9798 15.5336 37.9183 15.2944 37.9354C14.945 37.9605 14.5203 38.0984 14.0503 38.5941L13.8656 38.4462C14.5392 37.846 15.4206 37.7101 16.2864 37.8574L16.2865 37.8574Z" fill="#FFC72C"/>
</g>
<path d="M11.7035 1.61228C6.53056 2.04084 2.23921 5.77712 1.57724 11.0101C1.25164 13.5841 1 16.6548 1 20C1 23.3452 1.25164 26.4159 1.57724 28.9899C2.23922 34.2229 6.53056 37.9592 11.7035 38.3877C15.5784 38.7087 20.5852 39 26 39C31.4148 39 36.4216 38.7087 40.2965 38.3877C45.4694 37.9592 49.7608 34.2229 50.4228 28.9899C50.7484 26.4159 51 23.3452 51 20C51 16.6548 50.7484 13.5841 50.4228 11.0101C49.7608 5.77712 45.4694 2.04084 40.2965 1.61228C36.4216 1.29127 31.4148 1 26 1C20.5852 1 15.5784 1.29127 11.7035 1.61228Z" stroke="#E6E6FA" stroke-width="2"/>
</svg>
