<svg width="52" height="40" viewBox="0 0 52 40" fill="none" xmlns="http://www.w3.org/2000/svg">
<mask id="mask0_1_41602" style="mask-type:alpha" maskUnits="userSpaceOnUse" x="2" y="2" width="48" height="36">
<path d="M2.56934 11.1356C3.16681 6.41247 7.0415 3.00193 11.7861 2.60887C15.6412 2.28949 20.6196 2 26 2C31.3804 2 36.3588 2.28949 40.2139 2.60887C44.9585 3.00193 48.8332 6.41247 49.4307 11.1356C49.752 13.6759 50 16.704 50 20C50 23.296 49.752 26.3241 49.4307 28.8644C48.8332 33.5875 44.9585 36.9981 40.2139 37.3911C36.3588 37.7105 31.3804 38 26 38C20.6196 38 15.6412 37.7105 11.7861 37.3911C7.0415 36.9981 3.16681 33.5875 2.56934 28.8644C2.248 26.3241 2 23.296 2 20C2 16.704 2.248 13.6759 2.56934 11.1356Z" fill="#00D0BF"/>
</mask>
<g mask="url(#mask0_1_41602)">
<rect x="2" y="-4" width="48" height="49" fill="#EE5757"/>
<path d="M26.6649 14.9731C25.5582 13.0563 23.8501 11.5583 21.8053 10.7114C19.7606 9.8644 17.4935 9.7158 15.3557 10.2886C13.2178 10.8615 11.3288 12.1237 9.98144 13.8796C8.63411 15.6354 7.90381 17.7868 7.90381 20.0001C7.90381 22.2133 8.63411 24.3647 9.98144 26.1206C11.3288 27.8764 13.2178 29.1387 15.3557 29.7115C17.4935 30.2843 19.7606 30.1357 21.8053 29.2888C23.8501 28.4418 25.5582 26.9438 26.6649 25.0271C25.6234 26.3279 24.2035 27.2732 22.6016 27.7322C20.9996 28.1912 19.2947 28.1413 17.7223 27.5894C16.1499 27.0375 14.7878 26.0108 13.8242 24.6513C12.8605 23.2917 12.3429 21.6665 12.3429 20.0001C12.3429 18.3337 12.8605 16.7084 13.8242 15.3489C14.7878 13.9893 16.1499 12.9627 17.7223 12.4108C19.2947 11.8589 20.9996 11.809 22.6016 12.268C24.2035 12.727 25.6234 13.6722 26.6649 14.9731ZM37 20.0001L27.9514 17.0509L33.5816 24.759V15.2412L27.9514 22.9492L37 20.0001Z" fill="white"/>
</g>
<path d="M11.7035 1.61228C6.53056 2.04084 2.23921 5.77712 1.57724 11.0101C1.25164 13.5841 1 16.6548 1 20C1 23.3452 1.25164 26.4159 1.57724 28.9899C2.23922 34.2229 6.53056 37.9592 11.7035 38.3877C15.5784 38.7087 20.5852 39 26 39C31.4148 39 36.4216 38.7087 40.2965 38.3877C45.4694 37.9592 49.7608 34.2229 50.4228 28.9899C50.7484 26.4159 51 23.3452 51 20C51 16.6548 50.7484 13.5841 50.4228 11.0101C49.7608 5.77712 45.4694 2.04084 40.2965 1.61228C36.4216 1.29127 31.4148 1 26 1C20.5852 1 15.5784 1.29127 11.7035 1.61228Z" stroke="#E6E6FA" stroke-width="2"/>
</svg>
