<svg width="52" height="40" viewBox="0 0 52 40" fill="none" xmlns="http://www.w3.org/2000/svg">
<mask id="mask0_1_36286" style="mask-type:alpha" maskUnits="userSpaceOnUse" x="2" y="2" width="48" height="36">
<path d="M2.56934 11.1356C3.16681 6.41247 7.0415 3.00193 11.7861 2.60887C15.6412 2.28949 20.6196 2 26 2C31.3804 2 36.3588 2.28949 40.2139 2.60887C44.9585 3.00193 48.8332 6.41247 49.4307 11.1356C49.752 13.6759 50 16.704 50 20C50 23.296 49.752 26.3241 49.4307 28.8644C48.8332 33.5875 44.9585 36.9981 40.2139 37.3911C36.3588 37.7105 31.3804 38 26 38C20.6196 38 15.6412 37.7105 11.7861 37.3911C7.0415 36.9981 3.16681 33.5875 2.56934 28.8644C2.248 26.3241 2 23.296 2 20C2 16.704 2.248 13.6759 2.56934 11.1356Z" fill="#00D0BF"/>
</mask>
<g mask="url(#mask0_1_36286)">
<rect x="2" y="2" width="48" height="36" fill="#75AAFA"/>
<path d="M30.1379 35L29.6502 33.4989L28.0719 33.4989L29.3488 32.5712L28.861 31.0701L30.1379 31.9978L31.4149 31.0701L30.9271 32.5712L32.204 33.4989L30.6257 33.4989L30.1379 35Z" fill="#FCD95E"/>
<path d="M35.2069 32.1035L34.7192 30.6024L33.1408 30.6024L34.4177 29.6746L33.93 28.1735L35.2069 29.1013L36.4838 28.1735L35.9961 29.6746L37.273 30.6024L35.6947 30.6024L35.2069 32.1035Z" fill="#FCD95E"/>
<path d="M28.6896 29.2069L28.2019 27.7058L26.6236 27.7058L27.9005 26.7781L27.4127 25.277L28.6896 26.2047L29.9666 25.277L29.4788 26.7781L30.7557 27.7058L29.1774 27.7058L28.6896 29.2069Z" fill="#FCD95E"/>
<path d="M34.4827 21.9655L33.995 20.4644L32.4166 20.4644L33.6936 19.5367L33.2058 18.0356L34.4827 18.9633L35.7596 18.0356L35.2719 19.5367L36.5488 20.4644L34.9705 20.4644L34.4827 21.9655Z" fill="#FCD95E"/>
<path d="M39.1724 20.3448L38.6847 18.8437L37.1063 18.8437L38.3833 17.916L37.8955 16.4149L39.1724 17.3426L40.4493 16.4149L39.9616 17.916L41.2385 18.8437L39.6602 18.8437L39.1724 20.3448Z" fill="#FCD95E"/>
<path d="M22.1724 30.6552L22.6602 32.1563L24.2385 32.1563L22.9616 33.084L23.4493 34.5851L22.1724 33.6574L20.8955 34.5851L21.3832 33.084L20.1063 32.1563L21.6847 32.1563L22.1724 30.6552Z" fill="#FCD95E"/>
<path d="M38.8276 23.4138L39.3153 24.9149L40.8937 24.9149L39.6167 25.8427L40.1045 27.3438L38.8276 26.416L37.5507 27.3438L38.0384 25.8427L36.7615 24.9149L38.3398 24.9149L38.8276 23.4138Z" fill="#FCD95E"/>
<path d="M44.1724 11L44.6602 12.5011L46.2385 12.5011L44.9616 13.4288L45.4493 14.9299L44.1724 14.0022L42.8955 14.9299L43.3832 13.4288L42.1063 12.5011L43.6847 12.5011L44.1724 11Z" fill="#FCD95E"/>
<path d="M44.1724 22L44.6602 23.5011L46.2385 23.5011L44.9616 24.4288L45.4493 25.9299L44.1724 25.0022L42.8955 25.9299L43.3832 24.4288L42.1063 23.5011L43.6847 23.5011L44.1724 22Z" fill="#FCD95E"/>
<mask id="mask1_1_36286" style="mask-type:alpha" maskUnits="userSpaceOnUse" x="2" y="2" width="24" height="18">
<rect x="2" y="2" width="24" height="18" fill="#C4C4C4"/>
</mask>
<g mask="url(#mask1_1_36286)">
<rect x="2" y="2" width="24" height="18" fill="#2E50A6"/>
<path d="M2 2L26 20L2 2ZM26 2L2 20L26 2Z" fill="black"/>
<path d="M26 2L2 20M2 2L26 20L2 2Z" stroke="white" stroke-width="2.4"/>
<path d="M2 2L26 20L2 2ZM26 2L2 20L26 2Z" fill="black"/>
<path d="M26 2L2 20M2 2L26 20L2 2Z" stroke="#EE5757" stroke-width="1.6"/>
<path d="M14 2V23V2ZM2 11H30H2Z" fill="black"/>
<path d="M2 11H30M14 2V23V2Z" stroke="white" stroke-width="4"/>
<path d="M14 2V23V2ZM2 11H30H2Z" fill="black"/>
<path d="M2 11H30M14 2V23V2Z" stroke="#EE5757" stroke-width="2.4"/>
</g>
</g>
<path d="M11.7035 1.61228C6.53056 2.04084 2.23921 5.77712 1.57724 11.0101C1.25164 13.5841 1 16.6548 1 20C1 23.3452 1.25164 26.4159 1.57724 28.9899C2.23922 34.2229 6.53056 37.9592 11.7035 38.3877C15.5784 38.7087 20.5852 39 26 39C31.4148 39 36.4216 38.7087 40.2965 38.3877C45.4694 37.9592 49.7608 34.2229 50.4228 28.9899C50.7484 26.4159 51 23.3452 51 20C51 16.6548 50.7484 13.5841 50.4228 11.0101C49.7608 5.77712 45.4694 2.04084 40.2965 1.61228C36.4216 1.29127 31.4148 1 26 1C20.5852 1 15.5784 1.29127 11.7035 1.61228Z" stroke="#E6E6FA" stroke-width="2"/>
</svg>
