<svg width="52" height="40" viewBox="0 0 52 40" fill="none" xmlns="http://www.w3.org/2000/svg">
<mask id="mask0_1_36380" style="mask-type:alpha" maskUnits="userSpaceOnUse" x="2" y="2" width="48" height="36">
<path d="M2.56934 11.1356C3.16681 6.41247 7.0415 3.00193 11.7861 2.60887C15.6412 2.28949 20.6196 2 26 2C31.3804 2 36.3588 2.28949 40.2139 2.60887C44.9585 3.00193 48.8332 6.41247 49.4307 11.1356C49.752 13.6759 50 16.704 50 20C50 23.296 49.752 26.3241 49.4307 28.8644C48.8332 33.5875 44.9585 36.9981 40.2139 37.3911C36.3588 37.7105 31.3804 38 26 38C20.6196 38 15.6412 37.7105 11.7861 37.3911C7.0415 36.9981 3.16681 33.5875 2.56934 28.8644C2.248 26.3241 2 23.296 2 20C2 16.704 2.248 13.6759 2.56934 11.1356Z" fill="#00D0BF"/>
</mask>
<g mask="url(#mask0_1_36380)">
<rect x="2" y="32" width="48" height="6" fill="#EE5757"/>
<rect x="2" y="26" width="48" height="6" fill="#FCD95E"/>
<rect x="2" y="20" width="48" height="6" fill="#2C2929"/>
<rect x="2" y="14" width="48" height="6" fill="#EE5757"/>
<path d="M26 26C29.3137 26 32 23.3137 32 20C32 16.6863 29.3137 14 26 14C22.6863 14 20 16.6863 20 20C20 23.3137 22.6863 26 26 26Z" fill="white"/>
<path d="M24.9425 15.4048L24.5533 14.688C24.7035 14.5378 24.9562 14.4218 25.3589 14.4218C25.3589 14.4491 25.318 15.2068 25.318 15.2068L24.9425 15.4048Z" fill="#D90000" stroke="black" stroke-width="0.0638298"/>
<path d="M25.3179 15.2136L25.3726 14.4217C25.3726 14.4217 26.1781 14.374 26.615 14.8996C26.6219 14.8928 26.185 15.514 26.185 15.514L25.3179 15.2136Z" fill="#FCDC04" stroke="black" stroke-width="0.0638298"/>
<path d="M26.1986 15.5071L26.5945 14.8927C26.8608 15.1726 26.97 15.3706 27.011 15.671C27.0178 15.6778 26.3829 15.828 26.3829 15.8211C26.3829 15.8143 26.2054 15.5139 26.1986 15.5071Z" fill="#D90000" stroke="black" stroke-width="0.0638298"/>
<path d="M25.1405 25.6518C25.1405 25.6518 25.8846 24.7984 27.3319 24.9828C27.1134 24.6277 26.4103 24.6687 26.4103 24.6687C26.4103 24.6687 26.1918 23.0098 26.3625 22.9279C26.5331 22.8459 27.2568 22.9347 27.2568 22.9347C27.3523 22.9347 27.5162 22.6753 27.3865 22.5115C27.2568 22.3476 26.8745 21.7195 27.0315 21.5966C27.1885 21.4738 28.0418 21.6649 28.0418 21.6649L25.632 18.5792C25.632 18.5792 25.3862 17.4187 25.8778 16.8589C26.4717 16.3673 26.4103 15.8348 26.3898 15.8417C26.3078 15.3023 25.4887 14.9132 24.9357 15.4116C24.608 15.8075 24.8264 16.1079 24.8264 16.1079C24.8264 16.1079 23.9663 16.34 23.9321 16.4902C23.898 16.6404 24.9015 16.4629 24.9015 16.4629L24.8059 17.1524C24.8059 17.1524 22.8535 18.9274 24.3485 20.4634C24.3622 20.4566 24.3963 20.3951 24.3963 20.3951C24.3963 20.3951 24.922 21.0437 25.4749 21.187C25.9938 21.7195 25.946 21.6376 25.946 21.6376C25.946 21.6376 26.0484 22.4773 25.9529 22.6411C25.8231 22.6002 24.4988 22.5524 24.3008 22.6275C24.1233 22.6821 23.4406 22.648 23.6113 23.7608C23.7409 23.4604 23.857 23.1941 23.857 23.1941C23.857 23.1941 23.8365 23.5969 24.0004 23.7403C23.9731 23.317 24.1574 23.0303 24.1574 23.0303C24.1574 23.0303 24.1916 23.4945 24.2939 23.5627C24.3963 23.631 24.3963 22.8118 24.963 22.8801C25.5296 22.9484 25.9392 22.9279 25.9392 22.9279C25.9392 22.9279 26.1304 24.5322 26.0689 24.6824C25.6593 24.5868 24.6831 24.7233 24.6216 24.9691C25.195 24.935 25.4613 25.0032 25.4613 25.0032C25.4613 25.0032 24.9971 25.4128 25.1405 25.6518Z" fill="black" stroke="black" stroke-width="0.0638298"/>
<path d="M25.3706 16.8981C25.3706 16.8981 23.9499 18.464 24.5628 19.6623C24.5955 19.4952 24.5812 19.3902 24.6017 19.397C24.5676 19.3765 24.7779 19.5412 24.7619 19.5091C24.7664 19.4225 24.6978 19.2368 24.6978 19.2368C24.7619 19.2528 24.826 19.2689 24.8901 19.2849C24.8527 19.2155 24.8153 19.1461 24.7779 19.0766C24.8687 19.0873 24.9595 19.098 25.0503 19.1087C25.0503 19.1087 24.9541 18.8524 24.9862 18.8524C25.0182 18.8524 25.2104 18.8684 25.2104 18.8684C24.8064 18.1433 25.1876 17.5412 25.3706 16.8981Z" fill="#9CA69C" stroke="#9CA69C" stroke-width="0.0638298"/>
<path d="M25.8641 15.555C25.8641 15.555 25.9392 16.0943 25.6457 16.2513C25.5979 16.2855 25.4135 16.3469 25.4409 16.4562C25.475 16.6063 25.5569 16.579 25.673 16.5517C25.9801 16.4971 26.3351 15.8417 25.8641 15.555Z" fill="#9CA69C" stroke="#9CA69C" stroke-width="0.0638298"/>
<path d="M25.2299 16.137C25.2937 16.137 25.3455 16.0852 25.3455 16.0215C25.3455 15.9577 25.2937 15.9059 25.2299 15.9059C25.1662 15.9059 25.1144 15.9577 25.1144 16.0215C25.1144 16.0852 25.1662 16.137 25.2299 16.137Z" fill="white"/>
<path d="M24.881 16.4698C24.8059 16.5312 24.41 16.9409 24.7991 17.0911C25.2019 16.9818 25.0927 16.9067 25.1814 16.818C25.1837 16.6337 24.9812 16.5859 24.881 16.4698Z" fill="#D90000" stroke="black" stroke-width="0.0638298"/>
<path d="M25.7412 20.3406C25.7207 20.4294 25.632 20.7571 25.7548 21.0096C26.0962 20.8663 26.2532 20.9072 26.3693 20.9823C26.0894 20.7571 25.9802 20.6615 25.7412 20.3406Z" fill="#9CA69C" stroke="#9CA69C" stroke-width="0.0638298"/>
<path d="M26.3283 21.8903L26.3488 22.6549C26.3488 22.6549 26.615 22.7027 26.7379 22.6549C26.8608 22.6071 26.7311 22.1224 26.3283 21.8903Z" fill="white" stroke="white" stroke-width="0.0638298"/>
<path d="M28.2603 21.9858C28.2603 21.9858 27.7688 20.798 26.5126 20.4976C25.2565 20.1972 25.4203 18.8592 25.5227 18.7772C25.5774 18.6611 25.6183 18.4837 25.9801 18.6544C26.342 18.825 28.0077 19.6647 28.2466 19.7057C28.4856 19.7466 28.2808 22.0131 28.2603 21.9858Z" fill="#9CA69C" stroke="black" stroke-width="0.0638298"/>
<path d="M27.0656 20.4908C27.0451 20.5044 28.745 21.4943 28.233 22.3476C28.7177 22.0268 28.5607 21.467 28.5607 21.467C28.5607 21.467 28.9566 22.4979 27.994 23.003C28.0965 23.0918 28.1648 23.0713 28.1648 23.0713L28.0009 23.2352C28.0009 23.2352 27.9258 23.358 28.5743 23.044C28.3968 23.1874 28.3832 23.2897 28.3832 23.2897C28.3832 23.2897 28.4309 23.4263 28.8542 23.0576C28.5129 23.4263 28.4378 23.6174 28.4378 23.6106C29.3594 23.5287 31.3665 20.5317 27.8029 19.6442C27.9941 19.8422 27.9667 19.8149 27.9667 19.8149L27.0656 20.4908Z" fill="#D90000" stroke="black" stroke-width="0.0638298"/>
<path d="M27.1407 20.1972C27.3729 20.3611 27.4547 20.4157 27.4821 20.4976C27.2704 20.4499 27.0793 20.4635 27.0793 20.4635C27.0793 20.4635 26.6219 20.0266 26.54 19.9924C26.4785 19.9924 26.1235 19.7672 26.1235 19.7672C25.9461 19.6784 25.7822 19.064 26.4376 19.2415C27.1134 19.5623 27.209 19.5897 27.209 19.5897C27.4775 19.6738 27.746 19.7581 28.0146 19.8423C28.1693 20.0152 28.324 20.1882 28.4788 20.3611C28.4788 20.3611 27.6528 19.9515 27.5503 19.9446C27.7756 20.1289 27.9054 20.3815 27.9054 20.3815C27.6436 20.3064 27.4161 20.2382 27.1407 20.1972Z" fill="white" stroke="black" stroke-width="0.0638298"/>
<path d="M23.9253 16.5312C23.9253 16.5312 24.7172 16.3401 24.8128 16.3674L23.9253 16.5312Z" fill="black"/>
<path d="M23.9253 16.5312C23.9253 16.5312 24.7172 16.3401 24.8128 16.3674" stroke="white" stroke-width="0.0638298"/>
<rect x="2" y="8" width="48" height="6" fill="#FCD95E"/>
<rect x="2" y="2" width="48" height="6" fill="#2C2929"/>
</g>
<path d="M11.7035 1.61228C6.53056 2.04084 2.23921 5.77712 1.57724 11.0101C1.25164 13.5841 1 16.6548 1 20C1 23.3452 1.25164 26.4159 1.57724 28.9899C2.23922 34.2229 6.53056 37.9592 11.7035 38.3877C15.5784 38.7087 20.5852 39 26 39C31.4148 39 36.4216 38.7087 40.2965 38.3877C45.4694 37.9592 49.7608 34.2229 50.4228 28.9899C50.7484 26.4159 51 23.3452 51 20C51 16.6548 50.7484 13.5841 50.4228 11.0101C49.7608 5.77712 45.4694 2.04084 40.2965 1.61228C36.4216 1.29127 31.4148 1 26 1C20.5852 1 15.5784 1.29127 11.7035 1.61228Z" stroke="#E6E6FA" stroke-width="2"/>
</svg>
