<svg width="52" height="40" viewBox="0 0 52 40" fill="none" xmlns="http://www.w3.org/2000/svg">
<mask id="mask0_1_36308" style="mask-type:alpha" maskUnits="userSpaceOnUse" x="2" y="2" width="48" height="36">
<path d="M2.56934 11.1356C3.16681 6.41247 7.0415 3.00193 11.7861 2.60887C15.6412 2.28949 20.6196 2 26 2C31.3804 2 36.3588 2.28949 40.2139 2.60887C44.9585 3.00193 48.8332 6.41247 49.4307 11.1356C49.752 13.6759 50 16.704 50 20C50 23.296 49.752 26.3241 49.4307 28.8644C48.8332 33.5875 44.9585 36.9981 40.2139 37.3911C36.3588 37.7105 31.3804 38 26 38C20.6196 38 15.6412 37.7105 11.7861 37.3911C7.0415 36.9981 3.16681 33.5875 2.56934 28.8644C2.248 26.3241 2 23.296 2 20C2 16.704 2.248 13.6759 2.56934 11.1356Z" fill="#00D0BF"/>
</mask>
<g mask="url(#mask0_1_36308)">
<rect x="0.153809" y="29.6923" width="51.6924" height="2.76923" fill="#EE5757"/>
<rect x="0.153809" y="26.9231" width="51.6924" height="2.76923" fill="white"/>
<rect x="0.153809" y="35.2307" width="51.6924" height="2.76923" fill="#EE5757"/>
<rect x="0.153809" y="24.1539" width="51.6924" height="2.76923" fill="#EE5757"/>
<rect x="0.153809" y="32.4615" width="51.6924" height="2.76923" fill="white"/>
<rect x="0.153809" y="21.3846" width="51.6924" height="2.76923" fill="white"/>
<rect x="0.153809" y="18.6154" width="51.6924" height="2.76923" fill="#EE5757"/>
<rect x="0.153809" y="15.8462" width="51.6924" height="2.76923" fill="white"/>
<rect x="0.153809" y="13.0768" width="51.6924" height="2.76923" fill="#EE5757"/>
<rect x="0.153809" y="10.3076" width="51.6924" height="2.76923" fill="white"/>
<rect x="0.153809" y="7.53845" width="51.6924" height="2.76923" fill="#EE5757"/>
<rect x="0.153809" y="4.76923" width="51.6924" height="2.76923" fill="white"/>
<rect x="0.153809" y="2" width="51.6924" height="2.76923" fill="#EE5757"/>
<rect x="2" y="2" width="27" height="19.38" fill="#2E50A6"/>
<path d="M2.91825 3.5L3.61387 5.64088L1.79272 4.31774H4.04378L2.22264 5.64088L2.91825 3.5Z" fill="white"/>
<path d="M2.91825 7.05023L3.61387 9.19111L1.79272 7.86798H4.04378L2.22264 9.19111L2.91825 7.05023Z" fill="white"/>
<path d="M2.91825 10.6007L3.61387 12.7416L1.79272 11.4185H4.04378L2.22264 12.7416L2.91825 10.6007Z" fill="white"/>
<path d="M2.91825 14.151L3.61387 16.2919L1.79272 14.9687H4.04378L2.22264 16.2919L2.91825 14.151Z" fill="white"/>
<path d="M2.91825 17.7014L3.61387 19.8422L1.79272 18.5191H4.04378L2.22264 19.8422L2.91825 17.7014Z" fill="white"/>
<path d="M26.8745 3.5L27.5701 5.64088L25.749 4.31774H28L26.1789 5.64088L26.8745 3.5Z" fill="white"/>
<path d="M26.8745 7.05023L27.5701 9.19111L25.749 7.86798H28L26.1789 9.19111L26.8745 7.05023Z" fill="white"/>
<path d="M24.626 5.27509L25.3216 7.41597L23.5004 6.09283H25.7515L23.9303 7.41597L24.626 5.27509Z" fill="white"/>
<path d="M24.626 8.8847L25.3216 11.0256L23.5004 9.70245H25.7515L23.9303 11.0256L24.626 8.8847Z" fill="white"/>
<path d="M24.626 12.4941L25.3216 14.635L23.5004 13.3119H25.7515L23.9303 14.635L24.626 12.4941Z" fill="white"/>
<path d="M24.626 16.1038L25.3216 18.2446L23.5004 16.9215H25.7515L23.9303 18.2446L24.626 16.1038Z" fill="white"/>
<path d="M26.8745 10.6007L27.5701 12.7416L25.749 11.4185H28L26.1789 12.7416L26.8745 10.6007Z" fill="white"/>
<path d="M26.8745 14.151L27.5701 16.2919L25.749 14.9687H28L26.1789 16.2919L26.8745 14.151Z" fill="white"/>
<path d="M26.8745 17.7014L27.5701 19.8422L25.749 18.5191H28L26.1789 19.8422L26.8745 17.7014Z" fill="white"/>
<path d="M22.0815 3.5L22.7771 5.64088L20.956 4.31774H23.207L21.3859 5.64088L22.0815 3.5Z" fill="white"/>
<path d="M22.0815 7.05023L22.7771 9.19111L20.956 7.86798H23.207L21.3859 9.19111L22.0815 7.05023Z" fill="white"/>
<path d="M19.833 5.27509L20.5286 7.41597L18.7075 6.09283H20.9585L19.1374 7.41597L19.833 5.27509Z" fill="white"/>
<path d="M19.833 8.8847L20.5286 11.0256L18.7075 9.70245H20.9585L19.1374 11.0256L19.833 8.8847Z" fill="white"/>
<path d="M19.833 12.4941L20.5286 14.635L18.7075 13.3119H20.9585L19.1374 14.635L19.833 12.4941Z" fill="white"/>
<path d="M19.833 16.1038L20.5286 18.2446L18.7075 16.9215H20.9585L19.1374 18.2446L19.833 16.1038Z" fill="white"/>
<path d="M22.0815 10.6007L22.7771 12.7416L20.956 11.4185H23.207L21.3859 12.7416L22.0815 10.6007Z" fill="white"/>
<path d="M22.0815 14.151L22.7771 16.2919L20.956 14.9687H23.207L21.3859 16.2919L22.0815 14.151Z" fill="white"/>
<path d="M22.0815 17.7014L22.7771 19.8422L20.956 18.5191H23.207L21.3859 19.8422L22.0815 17.7014Z" fill="white"/>
<path d="M17.2886 3.5L17.9842 5.64088L16.163 4.31774H18.4141L16.5929 5.64088L17.2886 3.5Z" fill="white"/>
<path d="M17.2886 7.05023L17.9842 9.19111L16.163 7.86798H18.4141L16.5929 9.19111L17.2886 7.05023Z" fill="white"/>
<path d="M15.04 5.27509L15.7356 7.41597L13.9145 6.09283H16.1655L14.3444 7.41597L15.04 5.27509Z" fill="white"/>
<path d="M15.04 8.8847L15.7356 11.0256L13.9145 9.70245H16.1655L14.3444 11.0256L15.04 8.8847Z" fill="white"/>
<path d="M15.04 12.4941L15.7356 14.635L13.9145 13.3119H16.1655L14.3444 14.635L15.04 12.4941Z" fill="white"/>
<path d="M15.04 16.1038L15.7356 18.2446L13.9145 16.9215H16.1655L14.3444 18.2446L15.04 16.1038Z" fill="white"/>
<path d="M17.2886 10.6007L17.9842 12.7416L16.163 11.4185H18.4141L16.5929 12.7416L17.2886 10.6007Z" fill="white"/>
<path d="M17.2886 14.151L17.9842 16.2919L16.163 14.9687H18.4141L16.5929 16.2919L17.2886 14.151Z" fill="white"/>
<path d="M17.2886 17.7014L17.9842 19.8422L16.163 18.5191H18.4141L16.5929 19.8422L17.2886 17.7014Z" fill="white"/>
<path d="M12.4956 3.5L13.1912 5.64088L11.3701 4.31774H13.6211L11.8 5.64088L12.4956 3.5Z" fill="white"/>
<path d="M12.4956 7.05023L13.1912 9.19111L11.3701 7.86798H13.6211L11.8 9.19111L12.4956 7.05023Z" fill="white"/>
<path d="M10.247 5.27509L10.9427 7.41597L9.12152 6.09283H11.3726L9.55143 7.41597L10.247 5.27509Z" fill="white"/>
<path d="M10.247 8.8847L10.9427 11.0256L9.12152 9.70245H11.3726L9.55143 11.0256L10.247 8.8847Z" fill="white"/>
<path d="M10.247 12.4941L10.9427 14.635L9.12152 13.3119H11.3726L9.55143 14.635L10.247 12.4941Z" fill="white"/>
<path d="M10.247 16.1038L10.9427 18.2446L9.12152 16.9215H11.3726L9.55143 18.2446L10.247 16.1038Z" fill="white"/>
<path d="M12.4956 10.6007L13.1912 12.7416L11.3701 11.4185H13.6211L11.8 12.7416L12.4956 10.6007Z" fill="white"/>
<path d="M12.4956 14.151L13.1912 16.2919L11.3701 14.9687H13.6211L11.8 16.2919L12.4956 14.151Z" fill="white"/>
<path d="M12.4956 17.7014L13.1912 19.8422L11.3701 18.5191H13.6211L11.8 19.8422L12.4956 17.7014Z" fill="white"/>
<path d="M7.70262 3.5L8.39823 5.64088L6.57709 4.31774H8.82814L7.007 5.64088L7.70262 3.5Z" fill="white"/>
<path d="M7.70262 7.05023L8.39823 9.19111L6.57709 7.86798H8.82814L7.007 9.19111L7.70262 7.05023Z" fill="white"/>
<path d="M5.45408 5.27509L6.14969 7.41597L4.32855 6.09283H6.57961L4.75847 7.41597L5.45408 5.27509Z" fill="white"/>
<path d="M5.45408 8.8847L6.14969 11.0256L4.32855 9.70245H6.57961L4.75847 11.0256L5.45408 8.8847Z" fill="white"/>
<path d="M5.45408 12.4941L6.14969 14.635L4.32855 13.3119H6.57961L4.75847 14.635L5.45408 12.4941Z" fill="white"/>
<path d="M5.45408 16.1038L6.14969 18.2446L4.32855 16.9215H6.57961L4.75847 18.2446L5.45408 16.1038Z" fill="white"/>
<path d="M7.70262 10.6007L8.39823 12.7416L6.57709 11.4185H8.82814L7.007 12.7416L7.70262 10.6007Z" fill="white"/>
<path d="M7.70262 14.151L8.39823 16.2919L6.57709 14.9687H8.82814L7.007 16.2919L7.70262 14.151Z" fill="white"/>
<path d="M7.70262 17.7014L8.39823 19.8422L6.57709 18.5191H8.82814L7.007 19.8422L7.70262 17.7014Z" fill="white"/>
</g>
<path d="M11.7035 1.61228C6.53056 2.04084 2.23921 5.77712 1.57724 11.0101C1.25164 13.5841 1 16.6548 1 20C1 23.3452 1.25164 26.4159 1.57724 28.9899C2.23922 34.2229 6.53056 37.9592 11.7035 38.3877C15.5784 38.7087 20.5852 39 26 39C31.4148 39 36.4216 38.7087 40.2965 38.3877C45.4694 37.9592 49.7608 34.2229 50.4228 28.9899C50.7484 26.4159 51 23.3452 51 20C51 16.6548 50.7484 13.5841 50.4228 11.0101C49.7608 5.77712 45.4694 2.04084 40.2965 1.61228C36.4216 1.29127 31.4148 1 26 1C20.5852 1 15.5784 1.29127 11.7035 1.61228Z" stroke="#E6E6FA" stroke-width="2"/>
</svg>
