<svg width="52" height="40" viewBox="0 0 52 40" fill="none" xmlns="http://www.w3.org/2000/svg">
<mask id="mask0_1_36487" style="mask-type:alpha" maskUnits="userSpaceOnUse" x="2" y="2" width="48" height="36">
<path d="M2.56934 11.1356C3.16681 6.41247 7.0415 3.00193 11.7861 2.60887C15.6412 2.28949 20.6196 2 26 2C31.3804 2 36.3588 2.28949 40.2139 2.60887C44.9585 3.00193 48.8332 6.41247 49.4307 11.1356C49.752 13.6759 50 16.704 50 20C50 23.296 49.752 26.3241 49.4307 28.8644C48.8332 33.5875 44.9585 36.9981 40.2139 37.3911C36.3588 37.7105 31.3804 38 26 38C20.6196 38 15.6412 37.7105 11.7861 37.3911C7.0415 36.9981 3.16681 33.5875 2.56934 28.8644C2.248 26.3241 2 23.296 2 20C2 16.704 2.248 13.6759 2.56934 11.1356Z" fill="#00D0BF"/>
</mask>
<g mask="url(#mask0_1_36487)">
<rect x="2" y="34" width="48" height="4" fill="white"/>
<rect x="2" y="30" width="48" height="4" fill="#3F6FEB"/>
<rect x="2" y="26" width="48" height="4" fill="white"/>
<rect x="2" y="22" width="48" height="4" fill="#3F6FEB"/>
<rect x="2" y="18" width="48" height="4" fill="white"/>
<rect x="2" y="14" width="48" height="4" fill="#3F6FEB"/>
<rect x="2" y="10" width="48" height="4" fill="white"/>
<rect x="2" y="6" width="48" height="4" fill="#3F6FEB"/>
<rect x="2" y="2" width="48" height="4" fill="white"/>
<rect x="2" y="2" width="20" height="20" fill="white"/>
<path d="M11.7973 14.0797L12.3612 14.9217C10.0443 16.5983 11.4588 17.5898 9.81689 18.1265C10.8381 17.13 9.68191 16.9762 10.5423 14.8991" fill="#FCD95E"/>
<path d="M11.7973 14.0797L12.3612 14.9217C10.0443 16.5983 11.4588 17.5898 9.81689 18.1265C10.8381 17.1299 9.68191 16.9762 10.5423 14.8991" stroke="#7B3F00" stroke-width="0.112382" stroke-miterlimit="20" stroke-linecap="square"/>
<path d="M10.6918 13.4216L10.5463 14.4922C7.69407 13.7472 8.0817 15.6357 6.4981 14.6442C7.92827 14.7893 7.20191 13.702 9.23819 12.9438" fill="#FCD95E"/>
<path d="M10.6918 13.4216L10.5463 14.4922C7.69407 13.7472 8.0817 15.6357 6.4981 14.6442C7.92827 14.7893 7.20191 13.702 9.23819 12.9438" stroke="#7B3F00" stroke-width="0.112417" stroke-miterlimit="20" stroke-linecap="square"/>
<path d="M10.6906 13.3629L10.2386 13.2325L10.2442 13.2535C9.06405 13.4705 8.44041 13.9624 7.95135 14.3349C7.70669 14.521 7.4955 14.6791 7.26202 14.7538C7.10745 14.8045 6.93938 14.8118 6.77149 14.7751C8.02744 15.3745 7.87146 13.7447 10.5437 14.4579L10.6906 13.3629Z" fill="#7B3F00" stroke="#7B3F00" stroke-width="0.0511496" stroke-miterlimit="20" stroke-linecap="square"/>
<path d="M10.2632 13.219C7.86173 13.6758 7.70188 15.3358 6.47459 14.7148" stroke="#7B3F00" stroke-width="0.112417" stroke-miterlimit="20"/>
<path d="M12.183 12.4143L11.3881 11.6194L7.81104 16.7863L12.9779 13.2092L12.183 12.4143L7.81104 16.7863Z" fill="#FCD95E"/>
<path d="M12.183 12.4143L11.3881 11.6194L7.81104 16.7863L12.9779 13.2092L12.183 12.4143L7.81104 16.7863" stroke="#7B3F00" stroke-width="0.112382" stroke-miterlimit="20"/>
<path d="M10.4765 11.9266L9.60395 12.618C8.04426 10.2306 6.97789 11.8662 6.52522 10.1167C7.47069 11.1463 7.69393 9.86861 9.73016 10.6267" fill="#FCD95E"/>
<path d="M10.4765 11.9266L9.60395 12.618C8.04426 10.2306 6.97789 11.8662 6.52522 10.1167C7.47069 11.1463 7.69393 9.86861 9.73016 10.6267" stroke="#7B3F00" stroke-width="0.112417" stroke-miterlimit="20" stroke-linecap="square"/>
<path d="M10.5026 11.9062L10.262 11.5142L10.2513 11.5332C9.23171 10.9195 8.42811 10.8724 7.80725 10.8257C7.49677 10.8022 7.23062 10.7799 7.00655 10.6819C6.85742 10.6179 6.72879 10.5131 6.63111 10.3762C7.13337 11.6395 8.16282 10.3396 9.62595 12.6146L10.5026 11.9062Z" fill="#7B3F00" stroke="#7B3F00" stroke-width="0.0511496" stroke-miterlimit="20" stroke-linecap="square"/>
<path d="M10.2751 11.5598C8.19911 10.2489 6.98126 11.3649 6.48644 10.064" stroke="#7B3F00" stroke-width="0.112417" stroke-miterlimit="20"/>
<path d="M12.183 12.4143V11.2901L6.00006 12.4143L12.183 13.5384V12.4143H6.00006H12.183Z" fill="#FCD95E"/>
<path d="M12.183 12.4143V11.2901L6.00006 12.4143L12.183 13.5384V12.4143ZM12.183 12.4143H6.00006" stroke="#7B3F00" stroke-width="0.112417" stroke-miterlimit="20"/>
<path d="M12.183 12.4142V13.5384V12.4142H6.00006L12.183 13.5384" fill="#7B3F00"/>
<path d="M11.2781 10.9639L10.284 10.7673C10.7367 7.94341 9.03543 8.24251 9.81692 6.70201C9.79952 8.12881 10.7866 7.56629 11.647 9.64348" fill="#FCD95E"/>
<path d="M11.2781 10.9639L10.284 10.7673C10.7367 7.94341 9.03543 8.24251 9.81692 6.70201C9.79952 8.12881 10.7866 7.56629 11.647 9.64348" stroke="#7B3F00" stroke-width="0.112417" stroke-miterlimit="20" stroke-linecap="square"/>
<path d="M11.2779 10.964L11.358 10.5191L11.3396 10.5237C11.0488 9.33671 10.5567 8.69223 10.1827 8.18743C9.9958 7.93491 9.83681 7.71705 9.7507 7.48076C9.69269 7.32428 9.67245 7.15631 9.69163 6.99053C9.25636 8.21584 10.7056 8.13471 10.2836 10.7674L11.2779 10.964Z" fill="#7B3F00" stroke="#7B3F00" stroke-width="0.0511496" stroke-miterlimit="20" stroke-linecap="square"/>
<path d="M11.3943 10.5102C10.8083 8.11647 9.3964 7.89013 9.81685 6.70198" stroke="#7B3F00" stroke-width="0.112417" stroke-miterlimit="20"/>
<path d="M12.183 12.4143L12.9779 11.6194L7.81101 8.04231L11.3881 13.2092L12.183 12.4143L7.81101 8.04231L12.183 12.4143Z" fill="#FCD95E"/>
<path d="M12.183 12.4143L12.9779 11.6194L7.81101 8.04231L11.3881 13.2092L12.183 12.4143ZM12.183 12.4143L7.81101 8.04231" stroke="#7B3F00" stroke-width="0.112417" stroke-miterlimit="20"/>
<path d="M12.183 12.4142L11.3881 13.2092L12.183 12.4142L7.811 8.04226L11.3881 13.2092" fill="#7B3F00"/>
<path d="M12.5117 10.8122L12.0189 10.0177C14.2964 8.15983 13.0051 7.28436 14.587 6.61754C13.5705 7.69328 14.6522 7.76501 13.7348 9.90554" fill="#FCD95E"/>
<path d="M12.5117 10.8122L12.0189 10.0177C14.2964 8.15983 13.0051 7.28436 14.587 6.61754C13.5705 7.69328 14.6522 7.76501 13.7348 9.90554" stroke="#7B3F00" stroke-width="0.112417" stroke-miterlimit="20" stroke-linecap="square"/>
<path d="M12.504 10.7721L12.8644 10.4871L12.8497 10.4788C13.4937 9.39398 13.6333 8.59022 13.7499 7.96802C13.8083 7.65686 13.8601 7.38989 13.9706 7.15581C14.0431 7.00016 14.1474 6.8601 14.275 6.74701C13.1476 7.39413 14.1154 8.2642 12.0158 9.98446L12.504 10.7721Z" fill="#7B3F00" stroke="#7B3F00" stroke-width="0.0511496" stroke-miterlimit="20" stroke-linecap="square"/>
<path d="M12.9423 10.5164C14.2061 8.3583 13.4913 7.2983 14.556 6.67587" stroke="#7B3F00" stroke-width="0.112417" stroke-miterlimit="20"/>
<path d="M12.183 12.4142H13.3071L12.183 6.23133L11.0588 12.4142H12.183V6.23133V12.4142Z" fill="#FCD95E"/>
<path d="M12.183 12.4142H13.3071L12.183 6.23133L11.0588 12.4142H12.183ZM12.183 12.4142V6.23133" stroke="#7B3F00" stroke-width="0.112417" stroke-miterlimit="20"/>
<path d="M12.1829 12.4142H11.0587H12.1829V6.23133L11.0587 12.4142" fill="#7B3F00"/>
<path d="M13.6334 11.5092L13.83 10.5152C16.6539 10.9679 16.3548 9.2666 17.8953 10.0481C16.4685 10.0307 17.1042 10.9743 15.027 11.8347" fill="#FCD95E"/>
<path d="M13.6334 11.5092L13.83 10.5152C16.6539 10.9679 16.3548 9.2666 17.8953 10.0481C16.4685 10.0307 17.1042 10.9743 15.027 11.8347" stroke="#7B3F00" stroke-width="0.112417" stroke-miterlimit="20" stroke-linecap="square"/>
<path d="M13.6332 11.5091L14.0781 11.5892L14.0736 11.5708C15.2605 11.28 15.905 10.7879 16.4098 10.4139C16.6623 10.227 16.8802 10.068 17.1165 9.9819C17.273 9.9239 17.4409 9.90365 17.6067 9.92283C16.3814 9.48756 16.4625 10.9368 13.8298 10.5148L13.6332 11.5091Z" fill="#7B3F00" stroke="#7B3F00" stroke-width="0.0511496" stroke-miterlimit="20" stroke-linecap="square"/>
<path d="M14.0871 11.6255C16.4808 11.0396 16.7072 9.62766 17.8953 10.0481" stroke="#7B3F00" stroke-width="0.112417" stroke-miterlimit="20"/>
<path d="M12.183 12.4143L12.9779 13.2092L16.555 8.04228L11.3881 11.6194L12.183 12.4143L16.555 8.04228L12.183 12.4143Z" fill="#FCD95E"/>
<path d="M12.183 12.4143L12.9779 13.2092L16.555 8.04228L11.3881 11.6194L12.183 12.4143ZM12.183 12.4143L16.555 8.04228" stroke="#7B3F00" stroke-width="0.112417" stroke-miterlimit="20"/>
<path d="M12.183 12.4142L11.3881 11.6193L12.183 12.4142L16.555 8.0422L11.3881 11.6193" fill="#7B3F00"/>
<path d="M13.8894 12.9019L14.762 12.2104C16.3217 14.598 17.3881 12.9623 17.8407 14.7119C16.8953 13.6823 16.6488 14.9494 14.6125 14.1913" fill="#FCD95E"/>
<path d="M13.8894 12.9019L14.762 12.2104C16.3217 14.598 17.3881 12.9623 17.8407 14.7119C16.8953 13.6823 16.6488 14.9494 14.6125 14.1913" stroke="#7B3F00" stroke-width="0.112417" stroke-miterlimit="20" stroke-linecap="square"/>
<path d="M13.8634 12.9223L14.104 13.3143L14.1146 13.2953C15.1343 13.909 15.9379 13.9561 16.5587 14.0028C16.8692 14.0263 17.1353 14.0485 17.3594 14.1466C17.5085 14.2106 17.6372 14.3154 17.7349 14.4523C17.2326 13.189 16.2031 14.4889 14.74 12.2139L13.8634 12.9223Z" fill="#7B3F00" stroke="#7B3F00" stroke-width="0.0511496" stroke-miterlimit="20" stroke-linecap="square"/>
<path d="M14.0909 13.2685C16.1669 14.5795 17.3847 13.4635 17.8795 14.7644" stroke="#7B3F00" stroke-width="0.112417" stroke-miterlimit="20"/>
<path d="M12.183 12.4143V13.5385L18.3659 12.4143L12.183 11.2901V12.4143H18.3659H12.183Z" fill="#FCD95E"/>
<path d="M12.183 12.4143V13.5385L18.3659 12.4143L12.183 11.2901V12.4143ZM12.183 12.4143H18.3659" stroke="#7B3F00" stroke-width="0.112417" stroke-miterlimit="20"/>
<path d="M12.183 12.4142V11.29V12.4142H18.3659L12.183 11.29" fill="#7B3F00"/>
<path d="M13.0878 13.8646L14.0819 14.0612C13.6292 16.8851 15.3305 16.586 14.549 18.1265C14.5664 16.6997 13.627 17.3605 12.7666 15.2833" fill="#FCD95E"/>
<path d="M13.0878 13.8646L14.0819 14.0612C13.6292 16.8851 15.3305 16.586 14.549 18.1265C14.5664 16.6997 13.627 17.3605 12.7666 15.2833" stroke="#7B3F00" stroke-width="0.112417" stroke-miterlimit="20" stroke-linecap="square"/>
<path d="M13.0881 13.8645L13.0079 14.3094L13.0263 14.3048C13.3172 15.4918 13.8093 16.1363 14.1832 16.6411C14.3702 16.8936 14.5292 17.1114 14.6153 17.3477C14.6733 17.5042 14.6935 17.6722 14.6743 17.838C15.1096 16.6126 13.6604 16.6938 14.0823 14.0611L13.0881 13.8645Z" fill="#7B3F00" stroke="#7B3F00" stroke-width="0.0511496" stroke-miterlimit="20" stroke-linecap="square"/>
<path d="M12.9716 14.3183C13.5575 16.712 14.9694 16.9384 14.549 18.1265" stroke="#7B3F00" stroke-width="0.112417" stroke-miterlimit="20"/>
<path d="M12.183 12.4143L11.3881 13.2092L16.555 16.7862L12.9779 11.6194L12.183 12.4143L16.555 16.7862L12.183 12.4143Z" fill="#FCD95E"/>
<path d="M12.183 12.4143L11.3881 13.2092L16.555 16.7862L12.9779 11.6194L12.183 12.4143ZM12.183 12.4143L16.555 16.7862" stroke="#7B3F00" stroke-width="0.112417" stroke-miterlimit="20"/>
<path d="M12.183 12.4142L12.9779 11.6193L12.183 12.4142L16.555 16.7862L12.9779 11.6193" fill="#7B3F00"/>
<path d="M11.7975 14.0798L11.4262 14.3377L11.4425 14.3474C10.8089 15.3924 10.7011 16.1961 10.6086 16.8175C10.5622 17.1282 10.5206 17.3947 10.4144 17.6226C10.3447 17.7743 10.2403 17.9074 10.1095 18.0111C11.2837 17.4524 10.2016 16.485 12.3615 14.9218L11.7975 14.0798Z" fill="#7B3F00" stroke="#7B3F00" stroke-width="0.051133" stroke-miterlimit="20" stroke-linecap="square"/>
<path d="M11.3943 14.3183C10.116 16.4252 10.9543 17.5836 9.81689 18.1265" stroke="#7B3F00" stroke-width="0.112382" stroke-miterlimit="20"/>
<path d="M12.183 12.4142H11.0588L12.183 18.5971L13.3072 12.4142H12.183V18.5971V12.4142Z" fill="#FCD95E"/>
<path d="M12.183 12.4142H11.0588L12.183 18.5971L13.3072 12.4142H12.183ZM12.183 12.4142V18.5971" stroke="#7B3F00" stroke-width="0.112382" stroke-miterlimit="20"/>
<path d="M12.183 12.4142H13.3072H12.183V18.5972L13.3072 12.4142" fill="#7B3F00"/>
<path d="M12.183 12.4142L12.9779 13.2092L12.183 12.4142L7.81104 16.7862L12.9779 13.2092" fill="#7B3F00"/>
<path d="M12.1829 14.4752C13.3211 14.4752 14.2439 13.5525 14.2439 12.4142C14.2439 11.276 13.3211 10.3533 12.1829 10.3533C11.0447 10.3533 10.1219 11.276 10.1219 12.4142C10.1219 13.5525 11.0447 14.4752 12.1829 14.4752Z" fill="#FCD95E" stroke="#7B3F00" stroke-width="0.112382" stroke-miterlimit="20"/>
<path d="M13.7006 11.5899C13.5695 11.7398 13.4945 11.4775 13.0261 11.4775C12.5577 11.4775 12.4828 11.7585 12.4078 11.7023C12.3329 11.6461 12.8013 11.3088 12.9512 11.2901C13.1011 11.2714 13.532 11.4213 13.7006 11.5899ZM13.1573 11.7585C13.2884 11.8709 13.176 12.1145 13.0449 12.1145C12.9137 12.1145 12.6701 11.8897 12.7826 11.7398" fill="#7B3F00"/>
<path d="M12.5391 11.9271C12.5578 11.7023 12.7452 11.6648 13.0449 11.6648C13.3447 11.6648 13.4759 11.8896 13.5883 11.9458C13.4571 11.9458 13.3447 11.7585 13.0449 11.7585C12.7452 11.7585 12.7452 11.7585 12.5391 11.9458V11.9271ZM12.5953 11.9833C12.6702 11.8709 12.7639 12.0957 12.97 12.0957C13.1761 12.0957 13.2885 12.0395 13.4197 11.9458C13.5508 11.8522 13.2323 12.1707 13.0262 12.1707C12.8201 12.1707 12.5391 12.0583 12.5953 11.9833Z" fill="#7B3F00"/>
<path d="M11.1338 11.7398C11.0401 11.7773 10.8902 11.9646 11.1338 12.0958C10.9464 11.9646 11.0963 11.7773 11.1338 11.7398Z" fill="#7B3F00"/>
<path d="M13.2323 11.7398C13.2698 11.7773 13.4197 11.9646 13.2323 12.0958C13.4759 11.9646 13.326 11.7773 13.2323 11.7398Z" fill="#7B3F00"/>
<path d="M11.8832 12.5454C11.7146 12.5829 11.7708 12.8265 11.6209 12.8452C11.471 12.8639 11.3961 13.0325 11.4148 13.0138C11.5085 12.9389 11.7146 12.8826 11.8645 12.8826C12.0144 12.8826 12.0519 12.9764 12.183 12.9764C12.3142 12.9764 12.3516 12.8826 12.5015 12.8826C12.6514 12.8826 12.8575 12.9389 12.9512 13.0138C12.9699 13.0325 12.895 12.8639 12.7451 12.8452C12.5952 12.8265 12.6514 12.5829 12.4828 12.5454C12.4828 12.6204 12.539 12.6016 12.5577 12.714C12.5577 12.8077 12.3891 12.8077 12.3516 12.714C12.3891 12.8639 12.2767 12.8639 12.183 12.8639C12.0893 12.8639 11.9769 12.8639 12.0144 12.714C11.9769 12.8077 11.8083 12.8077 11.8083 12.714C11.8271 12.6016 11.8832 12.6204 11.8832 12.5454Z" fill="#7B3F00"/>
<path d="M11.3024 13.1824C11.1525 13.2949 11.115 13.3511 11.0963 13.4822C11.1413 13.4036 11.1633 13.3713 11.1974 13.325C11.1884 13.3211 11.1807 13.3176 11.1713 13.3136C11.1822 13.3149 11.192 13.3166 11.2025 13.3181C11.2251 13.2875 11.2453 13.261 11.3024 13.1824V13.1824Z" fill="#7B3F00"/>
<path d="M11.2024 13.3181C11.2019 13.3188 11.2006 13.3206 11.2001 13.3213C11.2235 13.3267 11.2483 13.3293 11.2744 13.3294C11.2515 13.3253 11.2275 13.3215 11.2024 13.3181H11.2024Z" fill="#7B3F00"/>
<path d="M11.2744 13.3294C11.3913 13.35 11.483 13.3769 11.5671 13.4041C11.6719 13.3963 11.8166 13.3698 12.183 13.3698C12.5494 13.3698 12.694 13.3963 12.7989 13.4041C12.883 13.3769 12.9747 13.35 13.0916 13.3294C12.8851 13.3301 12.6099 13.1824 12.4828 13.1824C12.3329 13.1824 12.2954 13.2199 12.183 13.2199C12.0706 13.2199 12.0331 13.1824 11.8832 13.1824C11.7561 13.1824 11.4809 13.3301 11.2744 13.3294Z" fill="#7B3F00"/>
<path d="M13.0916 13.3294C13.1176 13.3293 13.1425 13.3267 13.1659 13.3213C13.1653 13.3206 13.164 13.3188 13.1635 13.3181C13.1385 13.3215 13.1144 13.3253 13.0916 13.3294H13.0916Z" fill="#7B3F00"/>
<path d="M13.1636 13.3181C13.1741 13.3166 13.1839 13.315 13.1948 13.3136C13.1855 13.3176 13.1777 13.3211 13.1687 13.325C13.2028 13.3713 13.2248 13.4036 13.2698 13.4822C13.2511 13.3511 13.2136 13.2949 13.0637 13.1824C13.1208 13.261 13.141 13.2875 13.1636 13.3181V13.3181Z" fill="#7B3F00"/>
<path d="M13.1687 13.325C13.1685 13.3246 13.1679 13.3239 13.1677 13.3237C12.9722 13.3991 12.9033 13.4119 12.799 13.4041C12.6214 13.4616 12.4749 13.5197 12.1831 13.5197C11.8912 13.5197 11.7448 13.4616 11.5672 13.4041C11.4628 13.4119 11.394 13.3991 11.1985 13.3237C11.1983 13.3241 11.1977 13.3248 11.1975 13.325C11.7861 13.5784 11.7218 13.6696 12.1831 13.6696C12.6444 13.6696 12.5801 13.5784 13.1686 13.325H13.1687Z" fill="#7B3F00"/>
<path d="M11.1985 13.3237C11.1989 13.3231 11.1998 13.3218 11.2002 13.3213C11.1904 13.319 11.1806 13.317 11.1714 13.3136C11.1821 13.3178 11.1885 13.3198 11.1985 13.3237Z" fill="#7B3F00"/>
<path d="M13.1676 13.3237C13.1776 13.3198 13.184 13.3178 13.1947 13.3136C13.1855 13.3169 13.1757 13.319 13.1659 13.3213C13.1663 13.3218 13.1672 13.3231 13.1676 13.3237V13.3237Z" fill="#7B3F00"/>
<path d="M10.6655 11.5899C10.7966 11.7398 10.8716 11.4775 11.34 11.4775C11.8084 11.4775 11.8833 11.7585 11.9582 11.7023C12.0332 11.6461 11.5648 11.3088 11.4149 11.2901C11.265 11.2714 10.8341 11.4213 10.6655 11.5899ZM11.2088 11.7585C11.0776 11.8709 11.1901 12.1145 11.3212 12.1145C11.4524 12.1145 11.6959 11.8897 11.5835 11.7398" fill="#7B3F00"/>
<path d="M11.827 11.9271C11.8083 11.7023 11.6209 11.6648 11.3212 11.6648C11.0214 11.6648 10.8902 11.8896 10.7778 11.9458C10.909 11.9458 11.0214 11.7585 11.3212 11.7585C11.6209 11.7585 11.6209 11.7585 11.827 11.9458V11.9271ZM11.7708 11.9833C11.6959 11.8709 11.6022 12.0957 11.3961 12.0957C11.19 12.0957 11.0776 12.0395 10.9464 11.9458C10.8153 11.8522 11.1338 12.1707 11.3399 12.1707C11.546 12.1707 11.827 12.0583 11.7708 11.9833Z" fill="#7B3F00"/>
<path d="M12.1831 13.8382C12.0894 13.8382 11.8458 13.8944 12.1831 13.8944C12.5203 13.8944 12.2768 13.8382 12.1831 13.8382Z" fill="#7B3F00"/>
</g>
<path d="M11.7035 1.61228C6.53056 2.04084 2.23921 5.77712 1.57724 11.0101C1.25164 13.5841 1 16.6548 1 20C1 23.3452 1.25164 26.4159 1.57724 28.9899C2.23922 34.2229 6.53056 37.9592 11.7035 38.3877C15.5784 38.7087 20.5852 39 26 39C31.4148 39 36.4216 38.7087 40.2965 38.3877C45.4694 37.9592 49.7608 34.2229 50.4228 28.9899C50.7484 26.4159 51 23.3452 51 20C51 16.6548 50.7484 13.5841 50.4228 11.0101C49.7608 5.77712 45.4694 2.04084 40.2965 1.61228C36.4216 1.29127 31.4148 1 26 1C20.5852 1 15.5784 1.29127 11.7035 1.61228Z" stroke="#E6E6FA" stroke-width="2"/>
</svg>
