<svg width="52" height="40" viewBox="0 0 52 40" fill="none" xmlns="http://www.w3.org/2000/svg">
<mask id="mask0_1_36407" style="mask-type:alpha" maskUnits="userSpaceOnUse" x="2" y="2" width="48" height="36">
<path d="M2.56934 11.1356C3.16681 6.41247 7.0415 3.00193 11.7861 2.60887C15.6412 2.28949 20.6196 2 26 2C31.3804 2 36.3588 2.28949 40.2139 2.60887C44.9585 3.00193 48.8332 6.41247 49.4307 11.1356C49.752 13.6759 50 16.704 50 20C50 23.296 49.752 26.3241 49.4307 28.8644C48.8332 33.5875 44.9585 36.9981 40.2139 37.3911C36.3588 37.7105 31.3804 38 26 38C20.6196 38 15.6412 37.7105 11.7861 37.3911C7.0415 36.9981 3.16681 33.5875 2.56934 28.8644C2.248 26.3241 2 23.296 2 20C2 16.704 2.248 13.6759 2.56934 11.1356Z" fill="#00D0BF"/>
</mask>
<g mask="url(#mask0_1_36407)">
<rect x="0.153809" y="29.6923" width="51.6924" height="2.76923" fill="#EE5757"/>
<rect x="0.153809" y="26.9231" width="51.6924" height="2.76923" fill="white"/>
<rect x="0.153809" y="35.2307" width="51.6924" height="2.76923" fill="#EE5757"/>
<rect x="0.153809" y="24.1539" width="51.6924" height="2.76923" fill="#EE5757"/>
<rect x="0.153809" y="32.4615" width="51.6924" height="2.76923" fill="white"/>
<rect x="0.153809" y="21.3846" width="51.6924" height="2.76923" fill="white"/>
<rect x="0.153809" y="18.6154" width="51.6924" height="2.76923" fill="#EE5757"/>
<rect x="0.153809" y="15.8462" width="51.6924" height="2.76923" fill="white"/>
<rect x="0.153809" y="13.0768" width="51.6924" height="2.76923" fill="#EE5757"/>
<rect x="0.153809" y="10.3076" width="51.6924" height="2.76923" fill="white"/>
<rect x="0.153809" y="7.53845" width="51.6924" height="2.76923" fill="#EE5757"/>
<rect x="0.153809" y="4.76923" width="51.6924" height="2.76923" fill="white"/>
<rect x="0.153809" y="2" width="51.6924" height="2.76923" fill="#EE5757"/>
<rect x="2" y="2" width="27" height="19.38" fill="#2E50A6"/>
<path d="M2.91825 3.5L3.61387 5.64088L1.79272 4.31774H4.04378L2.22264 5.64088L2.91825 3.5Z" fill="white"/>
<path d="M2.91825 7.05023L3.61387 9.19111L1.79272 7.86798H4.04378L2.22264 9.19111L2.91825 7.05023Z" fill="white"/>
<path d="M2.91825 10.6007L3.61387 12.7416L1.79272 11.4185H4.04378L2.22264 12.7416L2.91825 10.6007Z" fill="white"/>
<path d="M2.91825 14.151L3.61387 16.2919L1.79272 14.9687H4.04378L2.22264 16.2919L2.91825 14.151Z" fill="white"/>
<path d="M2.91825 17.7014L3.61387 19.8422L1.79272 18.5191H4.04378L2.22264 19.8422L2.91825 17.7014Z" fill="white"/>
<path d="M26.8746 3.5L27.5702 5.64088L25.749 4.31774H28.0001L26.1789 5.64088L26.8746 3.5Z" fill="white"/>
<path d="M26.8746 7.05023L27.5702 9.19111L25.749 7.86798H28.0001L26.1789 9.19111L26.8746 7.05023Z" fill="white"/>
<path d="M24.6259 5.27509L25.3215 7.41597L23.5004 6.09283H25.7514L23.9303 7.41597L24.6259 5.27509Z" fill="white"/>
<path d="M24.6259 8.8847L25.3215 11.0256L23.5004 9.70245H25.7514L23.9303 11.0256L24.6259 8.8847Z" fill="white"/>
<path d="M24.6259 12.4941L25.3215 14.635L23.5004 13.3119H25.7514L23.9303 14.635L24.6259 12.4941Z" fill="white"/>
<path d="M24.6259 16.1038L25.3215 18.2446L23.5004 16.9215H25.7514L23.9303 18.2446L24.6259 16.1038Z" fill="white"/>
<path d="M26.8746 10.6007L27.5702 12.7416L25.749 11.4185H28.0001L26.1789 12.7416L26.8746 10.6007Z" fill="white"/>
<path d="M26.8746 14.151L27.5702 16.2919L25.749 14.9687H28.0001L26.1789 16.2919L26.8746 14.151Z" fill="white"/>
<path d="M26.8746 17.7014L27.5702 19.8422L25.749 18.5191H28.0001L26.1789 19.8422L26.8746 17.7014Z" fill="white"/>
<path d="M22.0815 3.5L22.7771 5.64088L20.9559 4.31774H23.207L21.3858 5.64088L22.0815 3.5Z" fill="white"/>
<path d="M22.0815 7.05023L22.7771 9.19111L20.9559 7.86798H23.207L21.3858 9.19111L22.0815 7.05023Z" fill="white"/>
<path d="M19.8329 5.27509L20.5285 7.41597L18.7074 6.09283H20.9585L19.1373 7.41597L19.8329 5.27509Z" fill="white"/>
<path d="M19.8329 8.8847L20.5285 11.0256L18.7074 9.70245H20.9585L19.1373 11.0256L19.8329 8.8847Z" fill="white"/>
<path d="M19.8329 12.4941L20.5285 14.635L18.7074 13.3119H20.9585L19.1373 14.635L19.8329 12.4941Z" fill="white"/>
<path d="M19.8329 16.1038L20.5285 18.2446L18.7074 16.9215H20.9585L19.1373 18.2446L19.8329 16.1038Z" fill="white"/>
<path d="M22.0815 10.6007L22.7771 12.7416L20.9559 11.4185H23.207L21.3858 12.7416L22.0815 10.6007Z" fill="white"/>
<path d="M22.0815 14.151L22.7771 16.2919L20.9559 14.9687H23.207L21.3858 16.2919L22.0815 14.151Z" fill="white"/>
<path d="M22.0815 17.7014L22.7771 19.8422L20.9559 18.5191H23.207L21.3858 19.8422L22.0815 17.7014Z" fill="white"/>
<path d="M17.2886 3.5L17.9842 5.64088L16.1631 4.31774H18.4141L16.593 5.64088L17.2886 3.5Z" fill="white"/>
<path d="M17.2886 7.05023L17.9842 9.19111L16.1631 7.86798H18.4141L16.593 9.19111L17.2886 7.05023Z" fill="white"/>
<path d="M15.0401 5.27509L15.7357 7.41597L13.9146 6.09283H16.1656L14.3445 7.41597L15.0401 5.27509Z" fill="white"/>
<path d="M15.0401 8.8847L15.7357 11.0256L13.9146 9.70245H16.1656L14.3445 11.0256L15.0401 8.8847Z" fill="white"/>
<path d="M15.0401 12.4941L15.7357 14.635L13.9146 13.3119H16.1656L14.3445 14.635L15.0401 12.4941Z" fill="white"/>
<path d="M15.0401 16.1038L15.7357 18.2446L13.9146 16.9215H16.1656L14.3445 18.2446L15.0401 16.1038Z" fill="white"/>
<path d="M17.2886 10.6007L17.9842 12.7416L16.1631 11.4185H18.4141L16.593 12.7416L17.2886 10.6007Z" fill="white"/>
<path d="M17.2886 14.151L17.9842 16.2919L16.1631 14.9687H18.4141L16.593 16.2919L17.2886 14.151Z" fill="white"/>
<path d="M17.2886 17.7014L17.9842 19.8422L16.1631 18.5191H18.4141L16.593 19.8422L17.2886 17.7014Z" fill="white"/>
<path d="M12.4956 3.5L13.1913 5.64088L11.3701 4.31774H13.6212L11.8 5.64088L12.4956 3.5Z" fill="white"/>
<path d="M12.4956 7.05023L13.1913 9.19111L11.3701 7.86798H13.6212L11.8 9.19111L12.4956 7.05023Z" fill="white"/>
<path d="M10.2471 5.27509L10.9427 7.41597L9.12158 6.09283H11.3726L9.5515 7.41597L10.2471 5.27509Z" fill="white"/>
<path d="M10.2471 8.8847L10.9427 11.0256L9.12158 9.70245H11.3726L9.5515 11.0256L10.2471 8.8847Z" fill="white"/>
<path d="M10.2471 12.4941L10.9427 14.635L9.12158 13.3119H11.3726L9.5515 14.635L10.2471 12.4941Z" fill="white"/>
<path d="M10.2471 16.1038L10.9427 18.2446L9.12158 16.9215H11.3726L9.5515 18.2446L10.2471 16.1038Z" fill="white"/>
<path d="M12.4956 10.6007L13.1913 12.7416L11.3701 11.4185H13.6212L11.8 12.7416L12.4956 10.6007Z" fill="white"/>
<path d="M12.4956 14.151L13.1913 16.2919L11.3701 14.9687H13.6212L11.8 16.2919L12.4956 14.151Z" fill="white"/>
<path d="M12.4956 17.7014L13.1913 19.8422L11.3701 18.5191H13.6212L11.8 19.8422L12.4956 17.7014Z" fill="white"/>
<path d="M7.70268 3.5L8.39829 5.64088L6.57715 4.31774H8.8282L7.00706 5.64088L7.70268 3.5Z" fill="white"/>
<path d="M7.70268 7.05023L8.39829 9.19111L6.57715 7.86798H8.8282L7.00706 9.19111L7.70268 7.05023Z" fill="white"/>
<path d="M5.45402 5.27509L6.14963 7.41597L4.32849 6.09283H6.57955L4.7584 7.41597L5.45402 5.27509Z" fill="white"/>
<path d="M5.45402 8.8847L6.14963 11.0256L4.32849 9.70245H6.57955L4.7584 11.0256L5.45402 8.8847Z" fill="white"/>
<path d="M5.45402 12.4941L6.14963 14.635L4.32849 13.3119H6.57955L4.7584 14.635L5.45402 12.4941Z" fill="white"/>
<path d="M5.45402 16.1038L6.14963 18.2446L4.32849 16.9215H6.57955L4.7584 18.2446L5.45402 16.1038Z" fill="white"/>
<path d="M7.70268 10.6007L8.39829 12.7416L6.57715 11.4185H8.8282L7.00706 12.7416L7.70268 10.6007Z" fill="white"/>
<path d="M7.70268 14.151L8.39829 16.2919L6.57715 14.9687H8.8282L7.00706 16.2919L7.70268 14.151Z" fill="white"/>
<path d="M7.70268 17.7014L8.39829 19.8422L6.57715 18.5191H8.8282L7.00706 19.8422L7.70268 17.7014Z" fill="white"/>
</g>
<path d="M11.7035 1.61228C6.53056 2.04084 2.23921 5.77712 1.57724 11.0101C1.25164 13.5841 1 16.6548 1 20C1 23.3452 1.25164 26.4159 1.57724 28.9899C2.23922 34.2229 6.53056 37.9592 11.7035 38.3877C15.5784 38.7087 20.5852 39 26 39C31.4148 39 36.4216 38.7087 40.2965 38.3877C45.4694 37.9592 49.7608 34.2229 50.4228 28.9899C50.7484 26.4159 51 23.3452 51 20C51 16.6548 50.7484 13.5841 50.4228 11.0101C49.7608 5.77712 45.4694 2.04084 40.2965 1.61228C36.4216 1.29127 31.4148 1 26 1C20.5852 1 15.5784 1.29127 11.7035 1.61228Z" stroke="#E6E6FA" stroke-width="2"/>
</svg>
