<svg width="52" height="40" viewBox="0 0 52 40" fill="none" xmlns="http://www.w3.org/2000/svg">
<mask id="mask0_1_36588" style="mask-type:alpha" maskUnits="userSpaceOnUse" x="2" y="2" width="48" height="36">
<path d="M2.56934 11.1356C3.16681 6.41247 7.0415 3.00193 11.7861 2.60887C15.6412 2.28949 20.6196 2 26 2C31.3804 2 36.3588 2.28949 40.2139 2.60887C44.9585 3.00193 48.8332 6.41247 49.4307 11.1356C49.752 13.6759 50 16.704 50 20C50 23.296 49.752 26.3241 49.4307 28.8644C48.8332 33.5875 44.9585 36.9981 40.2139 37.3911C36.3588 37.7105 31.3804 38 26 38C20.6196 38 15.6412 37.7105 11.7861 37.3911C7.0415 36.9981 3.16681 33.5875 2.56934 28.8644C2.248 26.3241 2 23.296 2 20C2 16.704 2.248 13.6759 2.56934 11.1356Z" fill="#00D0BF"/>
</mask>
<g mask="url(#mask0_1_36588)">
<rect x="2" y="26" width="48" height="12" fill="#59C785"/>
<rect x="2" y="2" width="48" height="12" fill="#18BEBE"/>
<path fill-rule="evenodd" clip-rule="evenodd" d="M12.5 4.0665C10.7467 4.39907 9.42102 5.93946 9.42102 7.78948C9.42102 9.6395 10.7467 11.1799 12.5 11.5125C12.2698 11.5561 12.0323 11.579 11.7895 11.579C9.69661 11.579 8 9.88235 8 7.78948C8 5.69661 9.69661 4 11.7895 4C12.0323 4 12.2698 4.02284 12.5 4.0665Z" fill="white"/>
<rect x="-1.5" y="13.5" width="55" height="13" fill="white" stroke="#EE5757"/>
</g>
<path d="M11.7035 1.61228C6.53056 2.04084 2.23921 5.77712 1.57724 11.0101C1.25164 13.5841 1 16.6548 1 20C1 23.3452 1.25164 26.4159 1.57724 28.9899C2.23922 34.2229 6.53056 37.9592 11.7035 38.3877C15.5784 38.7087 20.5852 39 26 39C31.4148 39 36.4216 38.7087 40.2965 38.3877C45.4694 37.9592 49.7608 34.2229 50.4228 28.9899C50.7484 26.4159 51 23.3452 51 20C51 16.6548 50.7484 13.5841 50.4228 11.0101C49.7608 5.77712 45.4694 2.04084 40.2965 1.61228C36.4216 1.29127 31.4148 1 26 1C20.5852 1 15.5784 1.29127 11.7035 1.61228Z" stroke="#E6E6FA" stroke-width="2"/>
<path d="M17.0625 13.75L17.2449 14.1819H17.8352L17.3577 14.4488L17.5401 14.8806L17.0625 14.6137L16.5849 14.8806L16.7673 14.4488L16.2898 14.1819H16.8801L17.0625 13.75Z" fill="white"/>
<path d="M20.3125 13.75L20.4949 14.1819H21.0852L20.6077 14.4488L20.7901 14.8806L20.3125 14.6137L19.8349 14.8806L20.0173 14.4488L19.5398 14.1819H20.1301L20.3125 13.75Z" fill="white"/>
<path d="M20.3125 11.875L20.4949 12.3069H21.0852L20.6077 12.5738L20.7901 13.0056L20.3125 12.7387L19.8349 13.0056L20.0173 12.5738L19.5398 12.3069H20.1301L20.3125 11.875Z" fill="white"/>
<path d="M23.5625 13.75L23.7449 14.1819H24.3352L23.8577 14.4488L24.0401 14.8806L23.5625 14.6137L23.0849 14.8806L23.2673 14.4488L22.7898 14.1819H23.3801L23.5625 13.75Z" fill="white"/>
<path d="M23.5625 11.875L23.7449 12.3069H24.3352L23.8577 12.5738L24.0401 13.0056L23.5625 12.7387L23.0849 13.0056L23.2673 12.5738L22.7898 12.3069H23.3801L23.5625 11.875Z" fill="white"/>
<path d="M23.5625 10L23.7449 10.4319H24.3352L23.8577 10.6988L24.0401 11.1306L23.5625 10.8637L23.0849 11.1306L23.2673 10.6988L22.7898 10.4319H23.3801L23.5625 10Z" fill="white"/>
<path d="M26.8125 13.75L26.9949 14.1819H27.5852L27.1077 14.4488L27.2901 14.8806L26.8125 14.6137L26.3349 14.8806L26.5173 14.4488L26.0398 14.1819H26.6301L26.8125 13.75Z" fill="white"/>
<path d="M26.8125 11.875L26.9949 12.3069H27.5852L27.1077 12.5738L27.2901 13.0056L26.8125 12.7387L26.3349 13.0056L26.5173 12.5738L26.0398 12.3069H26.6301L26.8125 11.875Z" fill="white"/>
<path d="M26.8125 10L26.9949 10.4319H27.5852L27.1077 10.6988L27.2901 11.1306L26.8125 10.8637L26.3349 11.1306L26.5173 10.6988L26.0398 10.4319H26.6301L26.8125 10Z" fill="white"/>
<path d="M30.0625 13.75L30.2449 14.1819H30.8352L30.3577 14.4488L30.5401 14.8806L30.0625 14.6137L29.5849 14.8806L29.7673 14.4488L29.2898 14.1819H29.8801L30.0625 13.75Z" fill="white"/>
<path d="M30.0625 11.875L30.2449 12.3069H30.8352L30.3577 12.5738L30.5401 13.0056L30.0625 12.7387L29.5849 13.0056L29.7673 12.5738L29.2898 12.3069H29.8801L30.0625 11.875Z" fill="white"/>
<path d="M30.0625 10L30.2449 10.4319H30.8352L30.3577 10.6988L30.5401 11.1306L30.0625 10.8637L29.5849 11.1306L29.7673 10.6988L29.2898 10.4319H29.8801L30.0625 10Z" fill="white"/>
</svg>
