<svg width="52" height="40" viewBox="0 0 52 40" fill="none" xmlns="http://www.w3.org/2000/svg">
<g clip-path="url(#clip0_1_31606)">
<mask id="mask0_1_31606" style="mask-type:alpha" maskUnits="userSpaceOnUse" x="2" y="2" width="48" height="36">
<path d="M2.56934 11.1356C3.16681 6.41247 7.0415 3.00193 11.7861 2.60887C15.6412 2.28949 20.6196 2 26 2C31.3804 2 36.3588 2.28949 40.2139 2.60887C44.9585 3.00193 48.8332 6.41247 49.4307 11.1356C49.752 13.6759 50 16.704 50 20C50 23.296 49.752 26.3241 49.4307 28.8644C48.8332 33.5875 44.9585 36.9981 40.2139 37.3911C36.3588 37.7105 31.3804 38 26 38C20.6196 38 15.6412 37.7105 11.7861 37.3911C7.0415 36.9981 3.16681 33.5875 2.56934 28.8644C2.248 26.3241 2 23.296 2 20C2 16.704 2.248 13.6759 2.56934 11.1356Z" fill="#00D0BF"/>
</mask>
<g mask="url(#mask0_1_31606)">
<rect x="2" y="26" width="48" height="12" fill="#EE5757"/>
<rect x="2" y="14" width="48" height="12" fill="#2E50A6"/>
<path d="M23.9773 15L24.29 15.9624H25.302L24.4833 16.5573L24.796 17.5197L23.9773 16.9249L23.1586 17.5197L23.4713 16.5573L22.6526 15.9624H23.6646L23.9773 15Z" fill="white"/>
<path d="M27.5227 15L27.8355 15.9624H28.8474L28.0287 16.5573L28.3414 17.5197L27.5227 16.9249L26.704 17.5197L27.0168 16.5573L26.1981 15.9624H27.21L27.5227 15Z" fill="white"/>
<path d="M31.5114 16.3063L31.301 17.2961L32.1774 17.8021L31.1709 17.9079L30.9605 18.8978L30.5489 17.9733L29.5425 18.0791L30.2945 17.4019L29.8829 16.4774L30.7593 16.9834L31.5114 16.3063Z" fill="white"/>
<path d="M34.1937 18.9886L33.5166 19.7406L34.0226 20.617L33.0981 20.2054L32.421 20.9575L32.5267 19.951L31.6023 19.5394L32.5921 19.329L32.6979 18.3226L33.2039 19.199L34.1937 18.9886Z" fill="white"/>
<path d="M35.5 22.9773L34.5376 23.29L34.5376 24.302L33.9427 23.4833L32.9803 23.796L33.5751 22.9773L32.9803 22.1586L33.9427 22.4713L34.5376 21.6526L34.5376 22.6646L35.5 22.9773Z" fill="white"/>
<path d="M16 22.9773L16.9624 22.6645L16.9624 21.6526L17.5573 22.4713L18.5197 22.1586L17.9249 22.9773L18.5197 23.796L17.5573 23.4832L16.9624 24.3019L16.9624 23.29L16 22.9773Z" fill="white"/>
<path d="M17.3062 18.9887L18.2961 19.1991L18.8021 18.3227L18.9079 19.3291L19.8977 19.5395L18.9732 19.9511L19.079 20.9576L18.4019 20.2055L17.4774 20.6171L17.9834 19.7407L17.3062 18.9887Z" fill="white"/>
<path d="M19.9887 16.3064L20.7407 16.9835L21.6171 16.4775L21.2055 17.402L21.9575 18.0792L20.9511 17.9734L20.5395 18.8979L20.3291 17.908L19.3227 17.8022L20.1991 17.2962L19.9887 16.3064Z" fill="white"/>
<rect x="2" y="2" width="48" height="12" fill="#FCD95E"/>
</g>
<path d="M11.7035 1.61228C6.53056 2.04084 2.23921 5.77712 1.57724 11.0101C1.25164 13.5841 1 16.6548 1 20C1 23.3452 1.25164 26.4159 1.57724 28.9899C2.23922 34.2229 6.53056 37.9592 11.7035 38.3877C15.5784 38.7087 20.5852 39 26 39C31.4148 39 36.4216 38.7087 40.2965 38.3877C45.4694 37.9592 49.7608 34.2229 50.4228 28.9899C50.7484 26.4159 51 23.3452 51 20C51 16.6548 50.7484 13.5841 50.4228 11.0101C49.7608 5.77712 45.4694 2.04084 40.2965 1.61228C36.4216 1.29127 31.4148 1 26 1C20.5852 1 15.5784 1.29127 11.7035 1.61228Z" stroke="#E6E6FA" stroke-width="2"/>
</g>
<defs>
<clipPath id="clip0_1_31606">
<rect width="52" height="40" fill="white"/>
</clipPath>
</defs>
</svg>
