<svg width="52" height="40" viewBox="0 0 52 40" fill="none" xmlns="http://www.w3.org/2000/svg">
<g clip-path="url(#clip0_1_31631)">
<mask id="mask0_1_31631" style="mask-type:alpha" maskUnits="userSpaceOnUse" x="2" y="2" width="48" height="36">
<path d="M2.56934 11.1356C3.16681 6.41247 7.0415 3.00193 11.7861 2.60887C15.6412 2.28949 20.6196 2 26 2C31.3804 2 36.3588 2.28949 40.2139 2.60887C44.9585 3.00193 48.8332 6.41247 49.4307 11.1356C49.752 13.6759 50 16.704 50 20C50 23.296 49.752 26.3241 49.4307 28.8644C48.8332 33.5875 44.9585 36.9981 40.2139 37.3911C36.3588 37.7105 31.3804 38 26 38C20.6196 38 15.6412 37.7105 11.7861 37.3911C7.0415 36.9981 3.16681 33.5875 2.56934 28.8644C2.248 26.3241 2 23.296 2 20C2 16.704 2.248 13.6759 2.56934 11.1356Z" fill="#00D0BF"/>
</mask>
<g mask="url(#mask0_1_31631)">
<rect x="2" y="2" width="48" height="36" fill="#2E50A6"/>
<path d="M31.7814 12.0434L43.4808 12L43.4591 22.4187C43.4591 22.4187 43.8715 24.0032 38.5536 26.4126C40.4637 26.2172 42.5474 24.1769 42.5474 24.1769C42.5474 24.1769 43.3939 23.0916 43.8064 23.6994C44.2188 24.3071 44.6095 24.611 44.9133 24.8497C45.2172 25.0885 45.456 25.7397 45.0002 26.2172C44.5443 26.6947 43.828 26.7598 43.6327 26.1738C43.3288 26.3257 41.4621 28.5831 37.642 28.6916C33.7567 28.6265 31.6295 26.1521 31.6295 26.1521C31.6295 26.1521 31.1086 26.9769 30.3706 26.3257C29.6543 25.4792 30.1969 24.9366 30.1969 24.9366C30.1969 24.9366 30.8047 24.5893 30.9783 24.3505C31.2605 24.0249 31.3473 23.5908 31.8248 23.5908C32.3892 23.6342 32.6063 24.09 32.6063 24.09C32.6063 24.09 34.5598 26.1521 36.6652 26.4126C31.9119 24.1333 31.7382 22.7224 31.7599 22.3751L31.7816 12.0433L31.7814 12.0434Z" fill="white"/>
<path d="M32.0636 12.3256L43.2203 12.2604V22.2885C43.242 23.5908 41.0497 24.9148 37.6203 26.6079C34.0822 24.7846 32.0419 23.6776 32.0202 22.2668L32.0636 12.3256L32.0636 12.3256Z" fill="#006129" stroke="black" stroke-width="0.0881791"/>
<path d="M33.5818 13.8076L34.2404 12.8404L34.9022 13.8096" stroke="#FFC72C" stroke-width="0.0881791"/>
<path d="M34.3726 13.4461C34.3726 13.5183 34.3141 13.5769 34.2418 13.5769C34.1696 13.5769 34.111 13.5183 34.111 13.4461C34.111 13.3738 34.1696 13.3152 34.2418 13.3152C34.3141 13.3152 34.3726 13.3738 34.3726 13.4461Z" fill="#FFC72C" stroke="black" stroke-width="0.0440919"/>
<path d="M33.7056 14.5221L34.7266 14.525C34.7266 14.525 34.7426 14.3925 34.62 14.312C35.1547 14.2384 35.0158 13.7667 35.4637 13.74C35.5506 13.7534 35.2297 13.9405 35.2297 13.9405C35.2297 13.9405 34.9597 14.1311 35.0826 14.228C35.1803 14.3049 35.223 14.1812 35.2364 14.0876C35.2498 13.994 35.6709 13.9338 35.6107 13.6665C35.5104 13.4459 34.9222 13.8135 34.9222 13.8135L34.5025 13.8112C34.4764 13.7641 34.3607 13.5752 34.2413 13.5743C34.0996 13.5795 33.9998 13.8135 33.9998 13.8135H33.3915H33.0506C33.0506 13.8135 33.018 14.0571 33.4993 14.1039C33.6077 14.2454 33.6917 14.2849 33.7859 14.3216C33.7231 14.3739 33.7054 14.4372 33.7056 14.5221V14.5221Z" fill="#FFC72C" stroke="black" stroke-width="0.0440919"/>
<path d="M33.7791 14.3148L34.6295 14.3119L33.7791 14.3148Z" fill="#FFC72C"/>
<path d="M33.7791 14.3148L34.6295 14.3119" stroke="black" stroke-width="0.0440919"/>
<path d="M33.3896 13.8134C33.3896 13.8134 33.4577 14.2111 33.7717 14.3053L33.3896 13.8134Z" fill="#FFC72C"/>
<path d="M33.3896 13.8134C33.3896 13.8134 33.4577 14.2111 33.7717 14.3053" stroke="black" stroke-width="0.0440919"/>
<path d="M33.3373 13.8081C33.3687 13.6564 33.4263 13.6302 33.4891 13.4366C33.4995 13.2482 33.3373 13.2691 33.3844 13.1488C33.4681 13.0179 33.4263 12.8923 33.2693 12.7929C33.3007 12.9656 33.0652 13.1278 33.0652 13.2691C33.0652 13.4104 33.1855 13.379 33.1698 13.5936C33.1803 13.7192 33.1384 13.6878 33.128 13.8081H33.3373V13.8081Z" fill="url(#paint0_linear_1_31631)" stroke="black" stroke-width="0.0440919"/>
<path d="M34.3622 12.8652C34.3622 12.9317 34.3083 12.9856 34.2418 12.9856C34.1754 12.9856 34.1215 12.9317 34.1215 12.8652C34.1215 12.7988 34.1754 12.7449 34.2418 12.7449C34.3083 12.7449 34.3622 12.7988 34.3622 12.8652Z" fill="#FFC72C" stroke="black" stroke-width="0.0440919"/>
<path d="M40.5709 13.8076L41.2294 12.8404L41.8912 13.8096" stroke="#FFC72C" stroke-width="0.0881791"/>
<path d="M41.3616 13.4461C41.3616 13.5183 41.3031 13.5769 41.2308 13.5769C41.1586 13.5769 41.1 13.5183 41.1 13.4461C41.1 13.3738 41.1586 13.3152 41.2308 13.3152C41.3031 13.3152 41.3616 13.3738 41.3616 13.4461Z" fill="#FFC72C" stroke="black" stroke-width="0.0440919"/>
<path d="M40.6947 14.5221L41.7156 14.525C41.7156 14.525 41.7316 14.3925 41.609 14.312C42.1437 14.2384 42.0048 13.7667 42.4527 13.74C42.5396 13.7534 42.2187 13.9405 42.2187 13.9405C42.2187 13.9405 41.9487 14.1311 42.0717 14.228C42.1693 14.3049 42.212 14.1812 42.2254 14.0876C42.2388 13.994 42.6599 13.9338 42.5997 13.6665C42.4995 13.4459 41.9112 13.8135 41.9112 13.8135L41.4916 13.8112C41.4654 13.7641 41.3497 13.5752 41.2303 13.5743C41.0886 13.5795 40.9888 13.8135 40.9888 13.8135H40.3805H40.0396C40.0396 13.8135 40.007 14.0571 40.4883 14.1039C40.5967 14.2454 40.6807 14.2849 40.7749 14.3216C40.7121 14.3739 40.6944 14.4372 40.6947 14.5221V14.5221Z" fill="#FFC72C" stroke="black" stroke-width="0.0440919"/>
<path d="M40.7682 14.3148L41.6186 14.3119L40.7682 14.3148Z" fill="#FFC72C"/>
<path d="M40.7682 14.3148L41.6186 14.3119" stroke="black" stroke-width="0.0440919"/>
<path d="M40.3787 13.8134C40.3787 13.8134 40.4467 14.2111 40.7607 14.3053L40.3787 13.8134Z" fill="#FFC72C"/>
<path d="M40.3787 13.8134C40.3787 13.8134 40.4467 14.2111 40.7607 14.3053" stroke="black" stroke-width="0.0440919"/>
<path d="M40.3263 13.8081C40.3577 13.6564 40.4153 13.6302 40.4781 13.4366C40.4886 13.2482 40.3263 13.2691 40.3734 13.1488C40.4572 13.0179 40.4153 12.8923 40.2583 12.7929C40.2897 12.9656 40.0542 13.1278 40.0542 13.2691C40.0542 13.4104 40.1746 13.379 40.1589 13.5936C40.1693 13.7192 40.1275 13.6878 40.117 13.8081H40.3263V13.8081Z" fill="url(#paint1_linear_1_31631)" stroke="black" stroke-width="0.0440919"/>
<path d="M41.3512 12.8652C41.3512 12.9317 41.2973 12.9856 41.2309 12.9856C41.1644 12.9856 41.1105 12.9317 41.1105 12.8652C41.1105 12.7988 41.1644 12.7449 41.2309 12.7449C41.2973 12.7449 41.3512 12.7988 41.3512 12.8652Z" fill="#FFC72C" stroke="black" stroke-width="0.0440919"/>
<path d="M33.5818 15.7662L34.2404 14.799L34.9022 15.7682" stroke="#FFC72C" stroke-width="0.0881791"/>
<path d="M34.3726 15.4046C34.3726 15.4769 34.3141 15.5355 34.2418 15.5355C34.1696 15.5355 34.111 15.4769 34.111 15.4046C34.111 15.3324 34.1696 15.2738 34.2418 15.2738C34.3141 15.2738 34.3726 15.3324 34.3726 15.4046Z" fill="#FFC72C" stroke="black" stroke-width="0.0440919"/>
<path d="M33.7056 16.4806L34.7266 16.4835C34.7266 16.4835 34.7426 16.351 34.62 16.2704C35.1547 16.1969 35.0158 15.7252 35.4637 15.6985C35.5506 15.7119 35.2297 15.899 35.2297 15.899C35.2297 15.899 34.9597 16.0896 35.0826 16.1865C35.1803 16.2634 35.223 16.1397 35.2364 16.0461C35.2498 15.9525 35.6709 15.8923 35.6107 15.625C35.5104 15.4044 34.9222 15.772 34.9222 15.772L34.5025 15.7697C34.4764 15.7226 34.3607 15.5337 34.2413 15.5328C34.0996 15.538 33.9998 15.772 33.9998 15.772H33.3915H33.0506C33.0506 15.772 33.018 16.0156 33.4993 16.0624C33.6077 16.2039 33.6917 16.2434 33.7859 16.28C33.7231 16.3324 33.7054 16.3957 33.7056 16.4806V16.4806Z" fill="#FFC72C" stroke="black" stroke-width="0.0440919"/>
<path d="M33.7791 16.2733L34.6295 16.2704L33.7791 16.2733Z" fill="#FFC72C"/>
<path d="M33.7791 16.2733L34.6295 16.2704" stroke="black" stroke-width="0.0440919"/>
<path d="M33.3896 15.772C33.3896 15.772 33.4577 16.1697 33.7717 16.2639L33.3896 15.772Z" fill="#FFC72C"/>
<path d="M33.3896 15.772C33.3896 15.772 33.4577 16.1697 33.7717 16.2639" stroke="black" stroke-width="0.0440919"/>
<path d="M33.3373 15.7667C33.3687 15.6149 33.4263 15.5888 33.4891 15.3951C33.4995 15.2068 33.3373 15.2277 33.3844 15.1073C33.4681 14.9765 33.4263 14.8509 33.2693 14.7515C33.3007 14.9242 33.0652 15.0864 33.0652 15.2277C33.0652 15.369 33.1855 15.3376 33.1698 15.5521C33.1803 15.6777 33.1384 15.6463 33.128 15.7667H33.3373V15.7667Z" fill="url(#paint2_linear_1_31631)" stroke="black" stroke-width="0.0440919"/>
<path d="M34.3622 14.8236C34.3622 14.8901 34.3083 14.944 34.2418 14.944C34.1754 14.944 34.1215 14.8901 34.1215 14.8236C34.1215 14.7571 34.1754 14.7032 34.2418 14.7032C34.3083 14.7032 34.3622 14.7571 34.3622 14.8236Z" fill="#FFC72C" stroke="black" stroke-width="0.0440919"/>
<path d="M40.5709 15.7662L41.2294 14.799L41.8912 15.7682" stroke="#FFC72C" stroke-width="0.0881791"/>
<path d="M41.3616 15.4046C41.3616 15.4769 41.3031 15.5355 41.2308 15.5355C41.1586 15.5355 41.1 15.4769 41.1 15.4046C41.1 15.3324 41.1586 15.2738 41.2308 15.2738C41.3031 15.2738 41.3616 15.3324 41.3616 15.4046Z" fill="#FFC72C" stroke="black" stroke-width="0.0440919"/>
<path d="M40.6947 16.4806L41.7156 16.4835C41.7156 16.4835 41.7316 16.351 41.609 16.2704C42.1437 16.1969 42.0048 15.7252 42.4527 15.6985C42.5396 15.7119 42.2187 15.899 42.2187 15.899C42.2187 15.899 41.9487 16.0896 42.0717 16.1865C42.1693 16.2634 42.212 16.1397 42.2254 16.0461C42.2388 15.9525 42.6599 15.8923 42.5997 15.625C42.4995 15.4044 41.9112 15.772 41.9112 15.772L41.4916 15.7697C41.4654 15.7226 41.3497 15.5337 41.2303 15.5328C41.0886 15.538 40.9888 15.772 40.9888 15.772H40.3805H40.0396C40.0396 15.772 40.007 16.0156 40.4883 16.0624C40.5967 16.2039 40.6807 16.2434 40.7749 16.28C40.7121 16.3324 40.6944 16.3957 40.6947 16.4806V16.4806Z" fill="#FFC72C" stroke="black" stroke-width="0.0440919"/>
<path d="M40.7682 16.2733L41.6186 16.2704L40.7682 16.2733Z" fill="#FFC72C"/>
<path d="M40.7682 16.2733L41.6186 16.2704" stroke="black" stroke-width="0.0440919"/>
<path d="M40.3787 15.772C40.3787 15.772 40.4467 16.1697 40.7607 16.2639L40.3787 15.772Z" fill="#FFC72C"/>
<path d="M40.3787 15.772C40.3787 15.772 40.4467 16.1697 40.7607 16.2639" stroke="black" stroke-width="0.0440919"/>
<path d="M40.3263 15.7667C40.3577 15.6149 40.4153 15.5888 40.4781 15.3951C40.4886 15.2068 40.3263 15.2277 40.3734 15.1073C40.4572 14.9765 40.4153 14.8509 40.2583 14.7515C40.2897 14.9242 40.0542 15.0864 40.0542 15.2277C40.0542 15.369 40.1746 15.3376 40.1589 15.5521C40.1693 15.6777 40.1275 15.6463 40.117 15.7667H40.3263V15.7667Z" fill="url(#paint3_linear_1_31631)" stroke="black" stroke-width="0.0440919"/>
<path d="M41.3512 14.8236C41.3512 14.8901 41.2973 14.944 41.2309 14.944C41.1644 14.944 41.1105 14.8901 41.1105 14.8236C41.1105 14.7571 41.1644 14.7032 41.2309 14.7032C41.2973 14.7032 41.3512 14.7571 41.3512 14.8236Z" fill="#FFC72C" stroke="black" stroke-width="0.0440919"/>
<path d="M33.5818 17.6818L34.2404 16.7146L34.9022 17.6838" stroke="#FFC72C" stroke-width="0.0881791"/>
<path d="M34.3726 17.3203C34.3726 17.3925 34.3141 17.4511 34.2418 17.4511C34.1696 17.4511 34.111 17.3925 34.111 17.3203C34.111 17.248 34.1696 17.1895 34.2418 17.1895C34.3141 17.1895 34.3726 17.248 34.3726 17.3203Z" fill="#FFC72C" stroke="black" stroke-width="0.0440919"/>
<path d="M33.7056 18.3963L34.7266 18.3992C34.7266 18.3992 34.7426 18.2667 34.62 18.1862C35.1547 18.1126 35.0158 17.6409 35.4637 17.6142C35.5506 17.6276 35.2297 17.8147 35.2297 17.8147C35.2297 17.8147 34.9597 18.0053 35.0826 18.1022C35.1803 18.1791 35.223 18.0554 35.2364 17.9618C35.2498 17.8682 35.6709 17.8081 35.6107 17.5407C35.5104 17.3201 34.9222 17.6877 34.9222 17.6877L34.5025 17.6854C34.4764 17.6383 34.3607 17.4494 34.2413 17.4485C34.0996 17.4537 33.9998 17.6877 33.9998 17.6877H33.3915H33.0506C33.0506 17.6877 33.018 17.9313 33.4993 17.9781C33.6077 18.1196 33.6917 18.1591 33.7859 18.1958C33.7231 18.2481 33.7054 18.3114 33.7056 18.3963V18.3963Z" fill="#FFC72C" stroke="black" stroke-width="0.0440919"/>
<path d="M33.7791 18.189L34.6295 18.1861L33.7791 18.189Z" fill="#FFC72C"/>
<path d="M33.7791 18.189L34.6295 18.1861" stroke="black" stroke-width="0.0440919"/>
<path d="M33.3896 17.6876C33.3896 17.6876 33.4577 18.0854 33.7717 18.1795L33.3896 17.6876Z" fill="#FFC72C"/>
<path d="M33.3896 17.6876C33.3896 17.6876 33.4577 18.0854 33.7717 18.1795" stroke="black" stroke-width="0.0440919"/>
<path d="M33.3373 17.6825C33.3687 17.5307 33.4263 17.5045 33.4891 17.3109C33.4995 17.1225 33.3373 17.1435 33.3844 17.0231C33.4681 16.8923 33.4263 16.7667 33.2693 16.6672C33.3007 16.8399 33.0652 17.0022 33.0652 17.1435C33.0652 17.2848 33.1855 17.2534 33.1698 17.4679C33.1803 17.5935 33.1384 17.5621 33.128 17.6825H33.3373V17.6825Z" fill="url(#paint4_linear_1_31631)" stroke="black" stroke-width="0.0440919"/>
<path d="M34.3622 16.7394C34.3622 16.8059 34.3083 16.8598 34.2418 16.8598C34.1754 16.8598 34.1215 16.8059 34.1215 16.7394C34.1215 16.673 34.1754 16.6191 34.2418 16.6191C34.3083 16.6191 34.3622 16.673 34.3622 16.7394Z" fill="#FFC72C" stroke="black" stroke-width="0.0440919"/>
<path d="M40.5709 17.6818L41.2294 16.7146L41.8912 17.6838" stroke="#FFC72C" stroke-width="0.0881791"/>
<path d="M41.3616 17.3203C41.3616 17.3925 41.3031 17.4511 41.2308 17.4511C41.1586 17.4511 41.1 17.3925 41.1 17.3203C41.1 17.248 41.1586 17.1895 41.2308 17.1895C41.3031 17.1895 41.3616 17.248 41.3616 17.3203Z" fill="#FFC72C" stroke="black" stroke-width="0.0440919"/>
<path d="M40.6947 18.3963L41.7156 18.3992C41.7156 18.3992 41.7316 18.2667 41.609 18.1862C42.1437 18.1126 42.0048 17.6409 42.4527 17.6142C42.5396 17.6276 42.2187 17.8147 42.2187 17.8147C42.2187 17.8147 41.9487 18.0053 42.0717 18.1022C42.1693 18.1791 42.212 18.0554 42.2254 17.9618C42.2388 17.8682 42.6599 17.8081 42.5997 17.5407C42.4995 17.3201 41.9112 17.6877 41.9112 17.6877L41.4916 17.6854C41.4654 17.6383 41.3497 17.4494 41.2303 17.4485C41.0886 17.4537 40.9888 17.6877 40.9888 17.6877H40.3805H40.0396C40.0396 17.6877 40.007 17.9313 40.4883 17.9781C40.5967 18.1196 40.6807 18.1591 40.7749 18.1958C40.7121 18.2481 40.6944 18.3114 40.6947 18.3963V18.3963Z" fill="#FFC72C" stroke="black" stroke-width="0.0440919"/>
<path d="M40.7682 18.189L41.6186 18.1861L40.7682 18.189Z" fill="#FFC72C"/>
<path d="M40.7682 18.189L41.6186 18.1861" stroke="black" stroke-width="0.0440919"/>
<path d="M40.3787 17.6876C40.3787 17.6876 40.4467 18.0854 40.7607 18.1795L40.3787 17.6876Z" fill="#FFC72C"/>
<path d="M40.3787 17.6876C40.3787 17.6876 40.4467 18.0854 40.7607 18.1795" stroke="black" stroke-width="0.0440919"/>
<path d="M40.3263 17.6825C40.3577 17.5307 40.4153 17.5045 40.4781 17.3109C40.4886 17.1225 40.3263 17.1435 40.3734 17.0231C40.4572 16.8923 40.4153 16.7667 40.2583 16.6672C40.2897 16.8399 40.0542 17.0022 40.0542 17.1435C40.0542 17.2848 40.1746 17.2534 40.1589 17.4679C40.1693 17.5935 40.1275 17.5621 40.117 17.6825H40.3263V17.6825Z" fill="url(#paint5_linear_1_31631)" stroke="black" stroke-width="0.0440919"/>
<path d="M41.3512 16.7394C41.3512 16.8059 41.2973 16.8598 41.2309 16.8598C41.1644 16.8598 41.1105 16.8059 41.1105 16.7394C41.1105 16.673 41.1644 16.6191 41.2309 16.6191C41.2973 16.6191 41.3512 16.673 41.3512 16.7394Z" fill="#FFC72C" stroke="black" stroke-width="0.0440919"/>
<path d="M33.5818 23.5221L34.2404 22.5549L34.9022 23.5242" stroke="#FFC72C" stroke-width="0.0881791"/>
<path d="M34.3726 23.1606C34.3726 23.2329 34.3141 23.2914 34.2418 23.2914C34.1696 23.2914 34.111 23.2329 34.111 23.1606C34.111 23.0884 34.1696 23.0298 34.2418 23.0298C34.3141 23.0298 34.3726 23.0884 34.3726 23.1606Z" fill="#FFC72C" stroke="black" stroke-width="0.0440919"/>
<path d="M33.7056 24.2366L34.7266 24.2395C34.7266 24.2395 34.7426 24.107 34.62 24.0264C35.1547 23.9529 35.0158 23.4812 35.4637 23.4545C35.5506 23.4678 35.2297 23.655 35.2297 23.655C35.2297 23.655 34.9597 23.8456 35.0826 23.9424C35.1803 24.0194 35.223 23.8957 35.2364 23.8021C35.2498 23.7085 35.6709 23.6483 35.6107 23.381C35.5104 23.1604 34.9222 23.528 34.9222 23.528L34.5025 23.5257C34.4764 23.4786 34.3607 23.2897 34.2413 23.2888C34.0996 23.294 33.9998 23.528 33.9998 23.528H33.3915H33.0506C33.0506 23.528 33.018 23.7715 33.4993 23.8183C33.6077 23.9599 33.6917 23.9994 33.7859 24.036C33.7231 24.0884 33.7054 24.1517 33.7056 24.2366V24.2366Z" fill="#FFC72C" stroke="black" stroke-width="0.0440919"/>
<path d="M33.7791 24.0293L34.6295 24.0264L33.7791 24.0293Z" fill="#FFC72C"/>
<path d="M33.7791 24.0293L34.6295 24.0264" stroke="black" stroke-width="0.0440919"/>
<path d="M33.3896 23.528C33.3896 23.528 33.4577 23.9257 33.7717 24.0199L33.3896 23.528Z" fill="#FFC72C"/>
<path d="M33.3896 23.528C33.3896 23.528 33.4577 23.9257 33.7717 24.0199" stroke="black" stroke-width="0.0440919"/>
<path d="M33.3373 23.5227C33.3687 23.3709 33.4263 23.3448 33.4891 23.1511C33.4995 22.9627 33.3373 22.9837 33.3844 22.8633C33.4681 22.7325 33.4263 22.6069 33.2693 22.5074C33.3007 22.6801 33.0652 22.8424 33.0652 22.9837C33.0652 23.125 33.1855 23.0936 33.1698 23.3081C33.1803 23.4337 33.1384 23.4023 33.128 23.5227H33.3373V23.5227Z" fill="url(#paint6_linear_1_31631)" stroke="black" stroke-width="0.0440919"/>
<path d="M34.3622 22.5796C34.3622 22.646 34.3083 22.6999 34.2418 22.6999C34.1754 22.6999 34.1215 22.646 34.1215 22.5796C34.1215 22.5131 34.1754 22.4592 34.2418 22.4592C34.3083 22.4592 34.3622 22.5131 34.3622 22.5796Z" fill="#FFC72C" stroke="black" stroke-width="0.0440919"/>
<path d="M40.5709 23.3353L41.2294 22.3681L41.8912 23.3373" stroke="#FFC72C" stroke-width="0.0881791"/>
<path d="M41.3616 22.9736C41.3616 23.0458 41.3031 23.1044 41.2308 23.1044C41.1586 23.1044 41.1 23.0458 41.1 22.9736C41.1 22.9014 41.1586 22.8428 41.2308 22.8428C41.3031 22.8428 41.3616 22.9014 41.3616 22.9736Z" fill="#FFC72C" stroke="black" stroke-width="0.0440919"/>
<path d="M40.6947 24.0496L41.7156 24.0525C41.7156 24.0525 41.7316 23.92 41.609 23.8395C42.1437 23.7659 42.0048 23.2943 42.4527 23.2675C42.5396 23.2809 42.2187 23.4681 42.2187 23.4681C42.2187 23.4681 41.9487 23.6586 42.0717 23.7555C42.1693 23.8324 42.212 23.7087 42.2254 23.6151C42.2388 23.5215 42.6599 23.4614 42.5997 23.194C42.4995 22.9734 41.9112 23.3411 41.9112 23.3411L41.4916 23.3387C41.4654 23.2916 41.3497 23.1027 41.2303 23.1019C41.0886 23.107 40.9888 23.3411 40.9888 23.3411H40.3805H40.0396C40.0396 23.3411 40.007 23.5846 40.4883 23.6314C40.5967 23.7729 40.6807 23.8124 40.7749 23.8491C40.7121 23.9014 40.6944 23.9647 40.6947 24.0496V24.0496Z" fill="#FFC72C" stroke="black" stroke-width="0.0440919"/>
<path d="M40.7682 23.8425L41.6186 23.8396L40.7682 23.8425Z" fill="#FFC72C"/>
<path d="M40.7682 23.8425L41.6186 23.8396" stroke="black" stroke-width="0.0440919"/>
<path d="M40.3787 23.3411C40.3787 23.3411 40.4467 23.7389 40.7607 23.8331L40.3787 23.3411Z" fill="#FFC72C"/>
<path d="M40.3787 23.3411C40.3787 23.3411 40.4467 23.7389 40.7607 23.8331" stroke="black" stroke-width="0.0440919"/>
<path d="M40.3263 23.3358C40.3577 23.184 40.4153 23.1579 40.4781 22.9642C40.4886 22.7758 40.3263 22.7968 40.3734 22.6764C40.4572 22.5456 40.4153 22.42 40.2583 22.3206C40.2897 22.4933 40.0542 22.6555 40.0542 22.7968C40.0542 22.9381 40.1746 22.9067 40.1589 23.1212C40.1693 23.2468 40.1275 23.2154 40.117 23.3358H40.3263V23.3358Z" fill="url(#paint7_linear_1_31631)" stroke="black" stroke-width="0.0440919"/>
<path d="M41.3512 22.3928C41.3512 22.4592 41.2973 22.5131 41.2309 22.5131C41.1644 22.5131 41.1105 22.4592 41.1105 22.3928C41.1105 22.3263 41.1644 22.2724 41.2309 22.2724C41.2973 22.2724 41.3512 22.3263 41.3512 22.3928Z" fill="#FFC72C" stroke="black" stroke-width="0.0440919"/>
<path d="M33.5818 21.6066L34.2404 20.6394L34.9022 21.6086" stroke="#FFC72C" stroke-width="0.0881791"/>
<path d="M34.3726 21.2451C34.3726 21.3173 34.3141 21.3759 34.2418 21.3759C34.1696 21.3759 34.111 21.3173 34.111 21.2451C34.111 21.1728 34.1696 21.1143 34.2418 21.1143C34.3141 21.1143 34.3726 21.1728 34.3726 21.2451Z" fill="#FFC72C" stroke="black" stroke-width="0.0440919"/>
<path d="M33.7056 22.3209L34.7266 22.3238C34.7266 22.3238 34.7426 22.1913 34.62 22.1108C35.1547 22.0372 35.0158 21.5656 35.4637 21.5388C35.5506 21.5522 35.2297 21.7394 35.2297 21.7394C35.2297 21.7394 34.9597 21.9299 35.0826 22.0268C35.1803 22.1037 35.223 21.98 35.2364 21.8864C35.2498 21.7928 35.6709 21.7327 35.6107 21.4653C35.5104 21.2447 34.9222 21.6124 34.9222 21.6124L34.5025 21.61C34.4764 21.5629 34.3607 21.374 34.2413 21.3732C34.0996 21.3783 33.9998 21.6124 33.9998 21.6124H33.3915H33.0506C33.0506 21.6124 33.018 21.8559 33.4993 21.9027C33.6077 22.0442 33.6917 22.0837 33.7859 22.1204C33.7231 22.1727 33.7054 22.236 33.7056 22.3209V22.3209Z" fill="#FFC72C" stroke="black" stroke-width="0.0440919"/>
<path d="M33.7791 22.1138L34.6295 22.1109L33.7791 22.1138Z" fill="#FFC72C"/>
<path d="M33.7791 22.1138L34.6295 22.1109" stroke="black" stroke-width="0.0440919"/>
<path d="M33.3896 21.6124C33.3896 21.6124 33.4577 22.0102 33.7717 22.1044L33.3896 21.6124Z" fill="#FFC72C"/>
<path d="M33.3896 21.6124C33.3896 21.6124 33.4577 22.0102 33.7717 22.1044" stroke="black" stroke-width="0.0440919"/>
<path d="M33.3373 21.6072C33.3687 21.4554 33.4263 21.4292 33.4891 21.2356C33.4995 21.0472 33.3373 21.0681 33.3844 20.9478C33.4681 20.8169 33.4263 20.6913 33.2693 20.5919C33.3007 20.7646 33.0652 20.9268 33.0652 21.0681C33.0652 21.2094 33.1855 21.178 33.1698 21.3926C33.1803 21.5182 33.1384 21.4868 33.128 21.6072H33.3373V21.6072Z" fill="url(#paint8_linear_1_31631)" stroke="black" stroke-width="0.0440919"/>
<path d="M34.3622 20.6641C34.3622 20.7305 34.3083 20.7844 34.2418 20.7844C34.1754 20.7844 34.1215 20.7305 34.1215 20.6641C34.1215 20.5976 34.1754 20.5437 34.2418 20.5437C34.3083 20.5437 34.3622 20.5976 34.3622 20.6641Z" fill="#FFC72C" stroke="black" stroke-width="0.0440919"/>
<path d="M40.5709 21.4196L41.2294 20.4524L41.8912 21.4216" stroke="#FFC72C" stroke-width="0.0881791"/>
<path d="M41.3616 21.058C41.3616 21.1302 41.3031 21.1888 41.2308 21.1888C41.1586 21.1888 41.1 21.1302 41.1 21.058C41.1 20.9857 41.1586 20.9271 41.2308 20.9271C41.3031 20.9271 41.3616 20.9857 41.3616 21.058Z" fill="#FFC72C" stroke="black" stroke-width="0.0440919"/>
<path d="M40.6947 22.134L41.7156 22.1369C41.7156 22.1369 41.7316 22.0044 41.609 21.9238C42.1437 21.8503 42.0048 21.3786 42.4527 21.3519C42.5396 21.3652 42.2187 21.5524 42.2187 21.5524C42.2187 21.5524 41.9487 21.743 42.0717 21.8398C42.1693 21.9168 42.212 21.7931 42.2254 21.6995C42.2388 21.6059 42.6599 21.5457 42.5997 21.2784C42.4995 21.0578 41.9112 21.4254 41.9112 21.4254L41.4916 21.4231C41.4654 21.376 41.3497 21.1871 41.2303 21.1862C41.0886 21.1914 40.9888 21.4254 40.9888 21.4254H40.3805H40.0396C40.0396 21.4254 40.007 21.6689 40.4883 21.7157C40.5967 21.8573 40.6807 21.8968 40.7749 21.9334C40.7121 21.9858 40.6944 22.0491 40.6947 22.134V22.134Z" fill="#FFC72C" stroke="black" stroke-width="0.0440919"/>
<path d="M40.7682 21.9268L41.6186 21.924L40.7682 21.9268Z" fill="#FFC72C"/>
<path d="M40.7682 21.9268L41.6186 21.924" stroke="black" stroke-width="0.0440919"/>
<path d="M40.3787 21.4253C40.3787 21.4253 40.4467 21.823 40.7607 21.9172L40.3787 21.4253Z" fill="#FFC72C"/>
<path d="M40.3787 21.4253C40.3787 21.4253 40.4467 21.823 40.7607 21.9172" stroke="black" stroke-width="0.0440919"/>
<path d="M40.3263 21.4201C40.3577 21.2684 40.4153 21.2422 40.4781 21.0486C40.4886 20.8602 40.3263 20.8811 40.3734 20.7608C40.4572 20.6299 40.4153 20.5043 40.2583 20.4049C40.2897 20.5776 40.0542 20.7398 40.0542 20.8811C40.0542 21.0224 40.1746 20.991 40.1589 21.2056C40.1693 21.3312 40.1275 21.2998 40.117 21.4201H40.3263V21.4201Z" fill="url(#paint9_linear_1_31631)" stroke="black" stroke-width="0.0440919"/>
<path d="M41.3512 20.4771C41.3512 20.5436 41.2973 20.5975 41.2309 20.5975C41.1644 20.5975 41.1105 20.5436 41.1105 20.4771C41.1105 20.4106 41.1644 20.3568 41.2309 20.3568C41.2973 20.3568 41.3512 20.4106 41.3512 20.4771Z" fill="#FFC72C" stroke="black" stroke-width="0.0440919"/>
<path d="M34.8707 19.7376L35.5293 18.7704L36.191 19.7396" stroke="#FFC72C" stroke-width="0.0881791"/>
<path d="M35.6615 19.3761C35.6615 19.4483 35.6029 19.5069 35.5307 19.5069C35.4584 19.5069 35.3999 19.4483 35.3999 19.3761C35.3999 19.3038 35.4584 19.2452 35.5307 19.2452C35.6029 19.2452 35.6615 19.3038 35.6615 19.3761Z" fill="#FFC72C" stroke="black" stroke-width="0.0440919"/>
<path d="M34.9945 20.4521L36.0155 20.455C36.0155 20.455 36.0315 20.3225 35.9088 20.2419C36.4436 20.1684 36.3047 19.6967 36.7525 19.67C36.8394 19.6834 36.5186 19.8705 36.5186 19.8705C36.5186 19.8705 36.2486 20.0611 36.3715 20.158C36.4691 20.2349 36.5119 20.1112 36.5253 20.0176C36.5386 19.924 36.9597 19.8638 36.8996 19.5965C36.7993 19.3759 36.2111 19.7435 36.2111 19.7435L35.7914 19.7412C35.7653 19.6941 35.6496 19.5052 35.5302 19.5043C35.3885 19.5095 35.2886 19.7435 35.2886 19.7435H34.6804H34.3395C34.3395 19.7435 34.3069 19.9871 34.7882 20.0339C34.8965 20.1754 34.9805 20.2149 35.0747 20.2515C35.0119 20.3039 34.9943 20.3672 34.9945 20.4521V20.4521Z" fill="#FFC72C" stroke="black" stroke-width="0.0440919"/>
<path d="M35.068 20.2448L35.9184 20.2419L35.068 20.2448Z" fill="#FFC72C"/>
<path d="M35.068 20.2448L35.9184 20.2419" stroke="black" stroke-width="0.0440919"/>
<path d="M34.6785 19.7434C34.6785 19.7434 34.7466 20.1411 35.0605 20.2353L34.6785 19.7434Z" fill="#FFC72C"/>
<path d="M34.6785 19.7434C34.6785 19.7434 34.7466 20.1411 35.0605 20.2353" stroke="black" stroke-width="0.0440919"/>
<path d="M34.6262 19.7381C34.6576 19.5864 34.7152 19.5602 34.778 19.3666C34.7884 19.1782 34.6262 19.1991 34.6733 19.0788C34.757 18.9479 34.7152 18.8223 34.5582 18.7229C34.5896 18.8956 34.3541 19.0578 34.3541 19.1991C34.3541 19.3404 34.4744 19.309 34.4587 19.5236C34.4692 19.6492 34.4273 19.6178 34.4169 19.7381H34.6262V19.7381Z" fill="url(#paint10_linear_1_31631)" stroke="black" stroke-width="0.0440919"/>
<path d="M35.651 18.7952C35.6511 18.8617 35.5972 18.9156 35.5307 18.9156C35.4643 18.9156 35.4104 18.8617 35.4104 18.7952C35.4104 18.7288 35.4643 18.6749 35.5307 18.6749C35.5972 18.6749 35.6511 18.7288 35.651 18.7952Z" fill="#FFC72C" stroke="black" stroke-width="0.0440919"/>
<path d="M40.5242 19.5508L41.1827 18.5836L41.8445 19.5529" stroke="#FFC72C" stroke-width="0.0881791"/>
<path d="M41.3149 19.1893C41.3149 19.2615 41.2564 19.3201 41.1841 19.3201C41.1119 19.3201 41.0533 19.2615 41.0533 19.1893C41.0533 19.1171 41.1119 19.0585 41.1841 19.0585C41.2564 19.0585 41.3149 19.1171 41.3149 19.1893Z" fill="#FFC72C" stroke="black" stroke-width="0.0440919"/>
<path d="M40.648 20.2652L41.6689 20.2682C41.6689 20.2682 41.6849 20.1356 41.5623 20.0551C42.097 19.9816 41.9581 19.5099 42.406 19.4832C42.4929 19.4965 42.172 19.6837 42.172 19.6837C42.172 19.6837 41.902 19.8742 42.025 19.9711C42.1226 20.048 42.1653 19.9243 42.1787 19.8308C42.1921 19.7372 42.6132 19.677 42.553 19.4096C42.4528 19.1891 41.8645 19.5567 41.8645 19.5567L41.4449 19.5544C41.4187 19.5073 41.303 19.3184 41.1836 19.3175C41.0419 19.3227 40.9421 19.5567 40.9421 19.5567H40.3338H39.9929C39.9929 19.5567 39.9603 19.8002 40.4416 19.847C40.55 19.9885 40.634 20.0281 40.7282 20.0647C40.6654 20.1171 40.6477 20.1804 40.648 20.2652V20.2652Z" fill="#FFC72C" stroke="black" stroke-width="0.0440919"/>
<path d="M40.7215 20.058L41.5719 20.0551L40.7215 20.058Z" fill="#FFC72C"/>
<path d="M40.7215 20.058L41.5719 20.0551" stroke="black" stroke-width="0.0440919"/>
<path d="M40.332 19.5566C40.332 19.5566 40.4 19.9544 40.714 20.0486L40.332 19.5566Z" fill="#FFC72C"/>
<path d="M40.332 19.5566C40.332 19.5566 40.4 19.9544 40.714 20.0486" stroke="black" stroke-width="0.0440919"/>
<path d="M40.2797 19.5514C40.3111 19.3996 40.3687 19.3734 40.4315 19.1798C40.4419 18.9914 40.2797 19.0123 40.3268 18.892C40.4105 18.7612 40.3687 18.6356 40.2117 18.5361C40.2431 18.7088 40.0076 18.8711 40.0076 19.0124C40.0076 19.1536 40.1279 19.1223 40.1122 19.3368C40.1227 19.4624 40.0808 19.431 40.0704 19.5514H40.2797V19.5514Z" fill="url(#paint11_linear_1_31631)" stroke="black" stroke-width="0.0440919"/>
<path d="M41.3045 18.6083C41.3045 18.6747 41.2506 18.7286 41.1842 18.7286C41.1177 18.7286 41.0638 18.6747 41.0638 18.6083C41.0638 18.5418 41.1177 18.4879 41.1842 18.4879C41.2506 18.4879 41.3045 18.5418 41.3045 18.6083Z" fill="#FFC72C" stroke="black" stroke-width="0.0440919"/>
<path d="M38.3031 24.2963C38.3031 24.2963 38.5695 24.9106 38.873 24.5332C39.1764 24.1557 39.0654 23.9929 39.0654 23.9929L38.3845 23.6229L38.1847 24.0447L38.3031 24.2963V24.2963Z" fill="#FFC72C" stroke="black" stroke-width="0.0440919"/>
<path d="M38.8877 24.2149C38.8877 24.2149 38.9321 24.2223 38.9692 24.1557C39.0062 24.0891 38.8877 24.0595 38.8359 23.9855L38.7767 24.1039L38.8877 24.2149Z" fill="#FFC6B5" stroke="black" stroke-width="0.0440919"/>
<path d="M37.3484 24.052L36.7489 24.3777C36.7489 24.3777 36.4529 24.4369 36.4307 24.3777C36.4085 24.3185 36.4381 24.2667 36.5935 24.2593C36.7489 24.2519 37.1708 23.867 37.1708 23.867L37.3484 24.052H37.3484Z" fill="#FFC6B5" stroke="black" stroke-width="0.0440919"/>
<path d="M37.3558 13.4021C37.3558 13.4021 37.3706 13.5428 37.378 13.6168C37.3854 13.6908 37.2596 13.8462 37.2522 13.8388C37.2448 13.8314 37.1856 13.8462 37.193 13.8906C37.2004 13.935 37.2892 13.9498 37.2892 13.9498C37.2892 13.9498 37.2522 14.1052 37.2892 14.1126C37.3262 14.12 37.193 14.3125 37.2892 14.3643C37.3854 14.4161 37.5482 14.4827 37.6222 14.4679C37.6962 14.4531 37.6222 14.7565 37.6222 14.7565L37.415 15.2005L38.5547 15.0821L38.3179 14.7047C38.3179 14.7047 38.2069 14.6307 38.2365 14.4161C38.2661 14.2014 38.2217 13.2319 38.2217 13.2319L37.4076 13.1209L37.3558 13.4021V13.4021Z" fill="#FFC6B5" stroke="black" stroke-width="0.0440919"/>
<path d="M37.1485 15.0896C37.1485 15.0896 36.7785 15.2598 36.7933 15.7187C36.6971 16.1627 36.6453 16.6068 36.6453 16.6068C36.6453 16.6068 36.2086 17.1026 36.0754 17.2803C35.9422 17.4579 35.7424 17.8205 35.6684 17.9167C35.5943 18.0129 35.3057 18.3312 35.3131 18.4496C35.3205 18.568 35.2465 19.0935 35.5351 19.1527C35.6091 19.1823 35.846 18.5458 35.846 18.5458C35.846 18.5458 35.8608 18.272 35.7794 18.2202C35.698 18.1684 35.957 17.9907 35.957 17.9907C35.957 17.9907 36.4528 17.6281 36.5639 17.5393C36.6749 17.4505 36.9783 17.11 36.9783 17.11L37.1485 15.0896V15.0896Z" fill="#FFC6B5" stroke="black" stroke-width="0.0440919"/>
<path d="M37.5704 14.7418C37.5704 14.7418 37.6666 15.0009 37.8812 14.9565C38.0959 14.9121 38.3475 14.7122 38.3475 14.7122C38.3475 14.7122 38.5473 14.7048 38.5769 14.7344C38.6065 14.7641 39.1172 15.2599 39.1024 15.4153C39.0876 15.5707 38.8656 15.5263 38.7841 15.6299C38.7027 15.7336 38.5695 15.9926 38.6065 16.185C38.6435 16.3774 38.7545 16.6291 38.7397 16.7253C38.7249 16.8215 38.6435 16.8511 38.6435 16.9029C38.6435 16.9547 38.7101 17.0435 38.7101 17.1397C38.7101 17.2359 38.6213 17.3765 38.6361 17.4728C38.6509 17.569 38.6583 17.8502 38.6583 17.8502L38.6361 19.1528C38.6361 19.1528 38.7101 19.1972 38.7175 19.2712C38.7249 19.3452 39.2208 21.4988 39.2208 21.4988C39.2208 21.4988 39.1986 21.5654 39.1468 21.558C39.095 21.5506 39.3466 21.8911 39.354 21.9873C39.3614 22.0835 39.613 22.8384 39.6056 22.942C39.5982 23.0456 39.5612 23.275 39.539 23.2824C39.5168 23.2898 39.7019 23.7561 39.6722 23.8301C39.6426 23.9041 39.3392 23.8967 39.3392 23.8967L39.2578 23.8819C39.2578 23.8819 39.2652 23.9781 39.206 23.9855C39.1468 23.9929 38.7101 23.9633 38.7101 23.9633C38.7101 23.9633 38.5843 24.1557 38.5103 24.1483C38.4363 24.1409 38.3401 24.0077 38.3179 24.0299C38.2957 24.0521 38.3845 24.1779 38.3623 24.2149C38.3401 24.2519 37.9627 24.3333 37.8886 24.1557C37.8146 23.9781 37.9331 24.0225 37.9109 23.9855C37.8886 23.9485 37.7184 23.8523 37.6666 23.8819C37.6148 23.9115 37.7998 23.9559 37.7924 24.0299C37.785 24.1039 37.6296 24.2149 37.5704 24.2149C37.5112 24.2149 37.3706 23.9411 37.1634 23.9707C36.9561 24.0003 36.8229 24.0521 36.8229 24.0521C36.8229 24.0521 36.5787 24.1557 36.4751 24.1335C36.3715 24.1113 36.3271 24.0299 36.3271 23.9855C36.3271 23.9411 36.4011 23.7487 36.3937 23.6895C36.3863 23.6303 36.3271 23.5711 36.3271 23.4822C36.3271 23.3934 36.4973 23.09 36.4973 23.09L36.4899 21.7282C36.4899 21.7282 36.3345 21.7282 36.3271 21.632C36.3197 21.5358 36.5639 19.4784 36.6009 19.3452C36.6379 19.212 36.7341 18.7383 36.7341 18.7383C36.7341 18.7383 36.6231 18.7901 36.6157 18.7383C36.6083 18.6865 36.9487 17.5098 36.9487 17.5098C36.9487 17.5098 37.0079 16.9251 37.0079 16.7697C37.0079 16.6143 36.9783 16.3996 36.9783 16.3996C36.9783 16.3996 36.6745 16.271 36.6675 16.074C36.6397 15.7606 36.9561 15.5855 36.9931 15.4819C37.0301 15.3783 37.1412 15.0675 37.1412 15.0675C37.1412 15.0675 37.304 14.7863 37.5704 14.7418L37.5704 14.7418Z" fill="white" stroke="black" stroke-width="0.0440919"/>
<path d="M37.4594 24.1408C37.4594 24.1408 36.7415 24.5183 36.6379 24.5479C36.5343 24.5775 36.4677 24.422 36.5713 24.3924C36.6749 24.3628 36.8377 24.348 36.8377 24.348C36.8377 24.348 36.5935 24.1556 36.6009 24.1482C36.6083 24.1408 36.9339 24.0224 36.9413 24.0224C36.9487 24.0224 37.045 24.2148 37.1116 24.2C37.1782 24.1852 37.3706 24.0372 37.3706 24.0372C37.3706 24.0372 37.4742 24.1556 37.4594 24.1408Z" fill="#FFC72C" stroke="black" stroke-width="0.0440919"/>
<path d="M38.4708 24.348C38.5386 24.4356 38.5652 24.5874 38.7206 24.4986C38.876 24.4098 38.641 24.2449 38.641 24.2449L38.4708 24.348Z" fill="#FFC6B5" stroke="black" stroke-width="0.0440919"/>
<path d="M38.7545 24.3333C38.7545 24.3333 38.8285 24.3925 38.8951 24.3259C38.9617 24.2593 38.7619 24.1187 38.7619 24.1187L38.6657 24.2297L38.7545 24.3333Z" fill="#FFC6B5" stroke="black" stroke-width="0.0440919"/>
<path d="M39.0728 15.4491C39.0802 15.4491 39.317 16.1818 39.3466 16.3668C39.3762 16.5518 39.4724 17.2919 39.4354 17.3955C39.3984 17.4991 39.021 17.995 38.9765 18.1208C38.9321 18.2466 38.6657 18.7277 38.6657 18.7277C38.6657 18.7277 38.5991 19.2013 38.5695 19.2235C38.5399 19.2457 38.6459 19.362 38.6361 19.4012C38.6214 19.4452 38.4215 19.6528 38.3327 19.6306C38.2439 19.6084 38.1032 19.5048 38.0958 19.4086C38.0884 19.3123 38.1032 18.9941 38.1699 18.9127C38.2365 18.8313 38.5843 18.0098 38.6065 17.958C38.6287 17.9062 38.9247 17.2623 38.9321 17.1513C38.9395 17.0403 38.8401 16.7836 38.7354 16.6894C38.5025 16.0038 38.594 15.5904 39.0728 15.4491V15.4491Z" fill="#FFC6B5" stroke="black" stroke-width="0.0440919"/>
<path d="M37.3336 13.3578C37.3336 13.3578 37.4964 13.38 37.5852 13.3282C37.674 13.2764 37.7776 13.2542 37.8516 13.3578C37.9256 13.4614 37.9774 13.454 37.9774 13.454C37.9774 13.454 37.8664 13.7279 37.9774 13.7575C38.0884 13.7871 38.1402 13.7871 38.1477 13.8241C38.1551 13.8611 38.0514 13.9425 38.081 13.9795C38.1106 14.0165 38.1625 14.0609 38.1699 14.0905C38.1773 14.1201 38.1032 14.2459 38.1254 14.2755C38.1477 14.3051 38.2143 14.4236 38.2587 14.4236C38.3031 14.4236 38.2735 14.6086 38.4067 14.5642C38.5399 14.5198 38.5325 14.4014 38.5325 14.4014C38.5325 14.4014 38.6731 14.3792 38.7101 14.2533C38.7471 14.1275 38.8359 14.0979 38.8359 14.0979C38.8359 14.0979 39.0135 14.0017 38.7767 13.8537C38.7767 12.8176 38.0958 12.9286 38.0958 12.9286C38.0958 12.9286 38.0144 12.7436 37.8812 12.7658C37.748 12.788 37.7406 12.9434 37.6444 12.9286C37.5482 12.9138 37.526 12.8472 37.5186 12.8546C37.5112 12.862 37.4298 13.01 37.4298 13.047C37.4298 13.084 37.1707 12.9952 37.1929 13.1876C37.2151 13.38 37.341 13.3726 37.3336 13.3578L37.3336 13.3578Z" fill="#9C5100" stroke="black" stroke-width="0.0440919"/>
<path d="M38.5325 15.0303C38.5325 15.0303 37.8738 15.4521 37.8886 15.6001" stroke="black" stroke-width="0.0440919"/>
<path d="M38.6805 15.1043C38.6805 15.1043 38.5325 15.2671 38.5251 15.2671" stroke="black" stroke-width="0.0440919"/>
<path d="M38.8803 15.282C38.8803 15.282 38.5547 15.5485 38.6065 15.7187" stroke="black" stroke-width="0.0440919"/>
<path d="M37.341 14.9933C37.341 14.9933 37.2448 15.1932 37.267 15.2598C37.2892 15.3264 37.452 15.578 37.4742 15.7334C37.4964 15.8888 37.4742 15.9999 37.4742 15.9999" stroke="black" stroke-width="0.0440919"/>
<path d="M37.1708 15.3634C37.1708 15.3634 37.2004 15.6002 37.2448 15.6446C37.2892 15.689 37.4076 15.8889 37.4224 15.9703" stroke="black" stroke-width="0.0440919"/>
<path d="M37.1116 16.3477C37.1116 16.3477 37.304 16.4439 37.4816 16.0739" stroke="black" stroke-width="0.0440919"/>
<path d="M37.7702 15.8149C37.7628 15.8149 37.6296 16.1776 37.8665 16.3108C38.1033 16.444 38.2809 16.4292 38.3845 16.3922C38.4881 16.3552 38.5991 16.2886 38.5991 16.2886" stroke="black" stroke-width="0.0440919"/>
<path d="M37.6666 16.2589C37.6666 16.2589 37.6814 16.7474 38.3993 17.2284" stroke="black" stroke-width="0.0440919"/>
<path d="M37.6962 16.7177C37.6962 16.7177 37.6888 17.147 37.97 17.3394" stroke="black" stroke-width="0.0440919"/>
<path d="M37.5482 16.2145C37.5482 16.2145 37.3335 16.8509 37.1633 16.9176" stroke="black" stroke-width="0.0440919"/>
<path d="M37.4816 16.6808C37.4816 16.6808 37.4742 17.1396 37.415 17.3025" stroke="black" stroke-width="0.0440919"/>
<path d="M37.3558 17.4134C37.3558 17.4134 37.5038 17.5984 37.6666 17.5836C37.8294 17.5688 37.896 17.3764 38.007 17.406C38.1181 17.4356 38.2217 17.5244 38.4807 17.5022" stroke="black" stroke-width="0.0440919"/>
<path d="M38.1107 17.6947C38.1107 17.6947 38.1107 18.0721 38.1773 18.1092C38.2439 18.1462 38.2143 18.494 38.2143 18.494" stroke="black" stroke-width="0.0440919"/>
<path d="M37.2077 17.5171C37.2077 17.5171 37.2003 17.8723 37.1559 17.9981C37.1115 18.124 37.0227 18.3386 37.0375 18.5236" stroke="black" stroke-width="0.0440919"/>
<path d="M36.7563 18.7307C36.7933 18.7159 36.9191 18.6049 36.9191 18.6049" stroke="black" stroke-width="0.0440919"/>
<path d="M36.9857 18.6864C36.9857 18.6864 36.6675 20.0482 36.7563 20.8623" stroke="black" stroke-width="0.0440919"/>
<path d="M37.0598 18.753C37.0598 18.753 36.8969 19.7743 36.9709 19.9667" stroke="black" stroke-width="0.0440919"/>
<path d="M36.9783 18.7234C36.9857 18.7234 37.6 18.7678 37.6 18.7678" stroke="black" stroke-width="0.0440919"/>
<path d="M37.6888 18.6864C37.6888 18.6864 37.8591 18.7752 38.0959 18.7604" stroke="black" stroke-width="0.0440919"/>
<path d="M37.6148 19.1822C37.6148 19.1822 37.5852 20.9288 37.5408 21.3136" stroke="black" stroke-width="0.0440919"/>
<path d="M38.5251 19.5819C38.5251 19.5819 38.7175 21.1139 38.8285 21.2545" stroke="black" stroke-width="0.0440919"/>
<path d="M38.1551 19.7744C38.1551 19.7744 38.2735 21.1287 38.3401 21.2471" stroke="black" stroke-width="0.0440919"/>
<path d="M36.4751 21.7208C36.4751 21.7208 36.7045 21.6468 36.9117 21.4248C37.1486 21.743 37.5112 21.4396 37.5112 21.4396C37.5112 21.4396 38.0737 21.8244 38.3253 21.3952C38.7102 21.6468 38.9026 21.3582 38.9026 21.3582C38.9026 21.3582 39.0432 21.5728 39.1468 21.5506" stroke="black" stroke-width="0.0440919"/>
<path d="M38.5325 21.6985C38.5325 21.6985 38.8211 23.0529 39.2504 23.4377" stroke="black" stroke-width="0.0440919"/>
<path d="M37.0449 21.5579C37.0449 21.5579 37.0819 22.6903 37.1485 23.4895" stroke="black" stroke-width="0.0440919"/>
<path d="M36.9932 22.8383C36.9932 22.8383 36.9561 23.5784 36.9117 23.6302" stroke="black" stroke-width="0.0440919"/>
<path d="M36.5565 23.7042C36.5565 23.7042 36.6379 24.0224 37.0449 23.7264C37.452 23.4303 37.4594 23.8374 37.4742 23.8818C37.489 23.9262 37.5556 24.2444 37.711 23.978" stroke="black" stroke-width="0.0440919"/>
<path d="M38.0367 23.5413C38.0367 23.5413 37.97 24.2 38.5547 23.719C39.1394 23.2379 39.2356 23.7116 39.2504 23.8596" stroke="black" stroke-width="0.0440919"/>
<path d="M38.044 13.1061C38.044 13.1061 37.9922 13.4318 38.3401 13.4022C38.2957 13.5798 38.4289 13.639 38.4289 13.639" stroke="black" stroke-width="0.0440919"/>
<path d="M38.6879 13.8388C38.6953 13.8388 38.8434 13.935 38.6805 14.0534" stroke="black" stroke-width="0.0440919"/>
<path d="M38.1847 14.0978C38.1847 14.0978 38.2587 14.1867 38.3401 14.1645C38.4215 14.1423 38.5547 14.2459 38.5547 14.2459C38.5547 14.2459 38.6657 14.2829 38.6805 14.2607" stroke="black" stroke-width="0.0440919"/>
<path d="M37.7332 14.3791C37.7332 14.3791 37.9848 14.4753 38.1477 14.0757" stroke="black" stroke-width="0.0440919"/>
<path d="M37.267 13.9572L37.415 13.9646" stroke="black" stroke-width="0.0440919"/>
<path d="M35.6249 18.6246L35.6365 18.949" stroke="black" stroke-width="0.0440919"/>
<path d="M35.3208 18.6005C35.3208 18.6005 35.5287 18.9482 35.5114 19.1336" stroke="black" stroke-width="0.0440919"/>
<path d="M37.2892 14.1053H37.4224L37.304 14.1571" stroke="black" stroke-width="0.0440919" stroke-linejoin="round"/>
<path d="M38.1078 19.3271C38.1078 19.3271 38.2633 19.3108 38.2584 19.5704C38.3577 19.2479 38.5596 19.2402 38.5596 19.2402" stroke="black" stroke-width="0.0440919" stroke-linejoin="round"/>
<path d="M37.4742 13.6908C37.4964 13.6908 37.5778 13.6612 37.5926 13.6834C37.6074 13.7056 37.5038 13.7204 37.4742 13.6908Z" stroke="black" stroke-width="0.0793626" stroke-linejoin="round"/>
<path d="M37.5768 26.7381C40.7024 26.6513 42.721 24.3939 42.6994 24.3722C42.6777 24.3505 43.1118 23.7427 43.4591 23.8295C43.8064 23.9164 44.3056 24.9365 44.9133 25.1536C45.2172 25.6311 44.8265 26.0652 44.6963 26.1521C44.566 26.2389 43.98 26.4776 43.8932 26.1303C43.8064 25.7831 43.6327 25.8482 43.6327 25.8482C43.6327 25.8482 40.8544 28.5614 37.642 28.4529C34.321 28.4746 31.5861 25.8482 31.5861 25.8482L31.3473 26.1086C31.3473 26.1086 31.0869 26.3908 30.9566 26.3691C30.8264 26.3474 30.262 25.9784 30.2186 25.6094C30.1752 25.2404 30.5659 25.0017 30.5659 25.0017C30.5659 25.0017 31.521 24.2637 31.6295 23.873C31.8466 23.6559 32.259 24.0249 32.259 24.0249C32.259 24.0249 34.7768 26.9117 37.5769 26.7381L37.5768 26.7381Z" fill="#FFC72C" stroke="black" stroke-width="0.0881791"/>
<path d="M30.501 25.0592C30.501 25.0592 30.7593 24.9903 30.854 25.0979C30.9487 25.2055 31.5986 25.8426 31.5986 25.8426" stroke="black" stroke-width="0.0881791"/>
<path d="M31.0907 25.3605L30.8325 25.5542C30.8325 25.5542 31.4825 25.6833 31.3361 26.1095" stroke="black" stroke-width="0.0881791"/>
<path d="M44.6805 25.0376C44.6805 25.0376 44.5514 24.9687 44.3491 25.1194C44.1468 25.2701 43.6345 25.8426 43.6345 25.8426" stroke="black" stroke-width="0.0881791"/>
<path d="M44.0993 25.3433L44.3791 25.5586C44.3791 25.5586 43.7936 25.5973 43.9228 26.1526" stroke="black" stroke-width="0.0881791"/>
<path d="M33.8094 25.7483C33.7924 25.7975 33.7476 25.747 33.7105 25.7569C33.6126 25.7605 33.5313 25.8244 33.4475 25.8679C33.1608 26.0351 32.8742 26.2022 32.5875 26.3693C32.5585 26.3598 32.5654 26.3364 32.5725 26.313C32.6489 25.9549 32.7282 25.5975 32.8026 25.239C32.8149 25.1763 32.8348 25.0984 32.7742 25.0527C32.7485 25.0352 32.7883 24.9995 32.8048 25.0319C32.9514 25.1364 33.0979 25.2409 33.2445 25.3455C33.2304 25.3868 33.2054 25.3578 33.1804 25.341C33.1195 25.2825 33.0461 25.3366 33.0479 25.4106C32.9956 25.6466 32.9446 25.8829 32.8929 26.1191C33.0875 26.0034 33.2844 25.8914 33.4772 25.7728C33.5461 25.7422 33.5969 25.6499 33.5253 25.5927C33.4981 25.5767 33.4532 25.5329 33.498 25.5262C33.6018 25.6003 33.7056 25.6743 33.8094 25.7483V25.7483Z" fill="black"/>
<path d="M34.1182 27.2428C34.1104 27.2696 34.0965 27.2755 34.0752 27.2562C33.9027 27.1619 33.7302 27.0676 33.5577 26.9732C33.5656 26.9465 33.5795 26.9406 33.6008 26.9599C33.6475 26.9917 33.7239 27.0037 33.758 26.948C33.8264 26.8381 33.8842 26.7219 33.9476 26.6091C34.0339 26.4493 34.1237 26.2914 34.2074 26.1303C34.2474 26.0732 34.2027 26.0028 34.1468 25.9784C34.1278 25.9682 34.1 25.9607 34.1239 25.938C34.1354 25.9238 34.1599 25.9541 34.1767 25.9578C34.342 26.0482 34.5073 26.1386 34.6727 26.229C34.6648 26.2558 34.6509 26.2617 34.6296 26.2424C34.5828 26.2107 34.5061 26.1985 34.4717 26.2539C34.4032 26.3637 34.3455 26.48 34.282 26.5928C34.1958 26.7526 34.1059 26.9105 34.0223 27.0716C33.9823 27.1291 34.0268 27.1999 34.0837 27.2239C34.0952 27.2302 34.1067 27.2365 34.1182 27.2428Z" fill="black"/>
<path d="M36.109 26.7759C36.0622 26.9073 36.0154 27.0388 35.9685 27.1703C35.911 27.1642 35.9493 27.0905 35.9314 27.0517C35.9108 26.8741 35.7798 26.7084 35.6015 26.6704C35.4651 26.6332 35.3211 26.7035 35.241 26.8144C35.12 26.9796 35.0464 27.1813 35.0361 27.386C35.0292 27.5024 35.0826 27.6218 35.1841 27.6831C35.2647 27.7361 35.3625 27.7575 35.4581 27.7548C35.4919 27.6553 35.5322 27.5579 35.5603 27.4567C35.5718 27.3908 35.5038 27.3511 35.4493 27.336C35.4408 27.3169 35.4619 27.2934 35.4841 27.314C35.656 27.3752 35.8279 27.4364 35.9998 27.4976C35.9936 27.5611 35.9219 27.4926 35.8822 27.5179C35.8187 27.5423 35.8132 27.6187 35.7892 27.6739C35.7682 27.7327 35.7473 27.7915 35.7263 27.8503C35.4952 27.8667 35.2571 27.8178 35.056 27.7015C34.8604 27.5783 34.7282 27.3404 34.7667 27.1071C34.7964 26.9074 34.9209 26.7203 35.105 26.6321C35.2741 26.5423 35.4805 26.5426 35.6561 26.6138C35.7522 26.6462 35.8351 26.7056 35.9094 26.7732C35.9544 26.8339 36.0416 26.834 36.0785 26.765C36.0887 26.7686 36.0989 26.7722 36.109 26.7759" fill="black"/>
<path d="M36.9478 28.1221C36.9467 28.1431 36.9444 28.1623 36.9193 28.1506C36.7224 28.1208 36.5256 28.091 36.3288 28.0611C36.3298 28.0402 36.3322 28.021 36.3573 28.0327C36.4085 28.0431 36.4771 28.0423 36.5018 27.987C36.5268 27.9082 36.5318 27.8246 36.5462 27.7434C36.58 27.5165 36.616 27.2899 36.6483 27.0628C36.6608 27.0138 36.6441 26.9585 36.5934 26.9395C36.5647 26.9259 36.5327 26.9238 36.5019 26.9187C36.5029 26.8977 36.5052 26.8785 36.5304 26.8902C36.7272 26.92 36.924 26.9498 37.1208 26.9797C37.1198 27.0006 37.1174 27.0198 37.0923 27.0081C37.0409 26.9975 36.9726 26.9989 36.947 27.0536C36.9219 27.1325 36.917 27.216 36.9026 27.2973C36.8688 27.5242 36.8327 27.7508 36.8004 27.9779C36.788 28.0267 36.8048 28.0832 36.8558 28.1016C36.8848 28.1148 36.9168 28.117 36.9478 28.1221V28.1221Z" fill="black"/>
<path d="M38.5419 27.7349C38.5341 27.8745 38.5263 28.0141 38.5185 28.1537C38.1674 28.1716 37.8162 28.1895 37.4651 28.2074C37.4587 28.1818 37.4655 28.1681 37.4934 28.1735C37.5464 28.1749 37.6146 28.1524 37.6213 28.0917C37.626 27.9876 37.6143 27.8835 37.6108 27.7795C37.5995 27.572 37.5913 27.3643 37.5777 27.1569C37.5835 27.0952 37.5279 27.0494 37.4693 27.0513C37.4507 27.0419 37.4004 27.0707 37.4054 27.0368C37.3969 27.0093 37.4351 27.0239 37.4512 27.0187C37.6465 27.0087 37.8418 26.9987 38.0371 26.9888C38.0436 27.0144 38.0367 27.028 38.0088 27.0227C37.9547 27.0224 37.8843 27.0356 37.8693 27.0966C37.8608 27.1867 37.8734 27.2772 37.8758 27.3674C37.8876 27.5835 37.896 27.7999 37.9103 28.0158C37.9059 28.0723 37.9513 28.1223 38.0099 28.1114C38.0954 28.1072 38.1827 28.1108 38.2662 28.0893C38.3834 28.0582 38.4472 27.9421 38.4793 27.8338C38.5003 27.8045 38.4829 27.7314 38.5293 27.7356C38.5335 27.7353 38.5377 27.7352 38.5419 27.7349" fill="black"/>
<path d="M39.3631 26.7213C39.3352 26.7218 39.3475 26.7574 39.3404 26.7761C39.2938 27.1254 39.2496 27.4751 39.2013 27.8242C39.1896 27.9015 39.1703 27.9918 39.094 28.031C39.0659 28.041 39.0906 28.0852 39.1164 28.0606C39.2337 28.0254 39.351 27.9903 39.4682 27.9551C39.4638 27.8958 39.3963 27.9497 39.3584 27.9392C39.2777 27.9391 39.2657 27.8411 39.277 27.7799C39.2818 27.7385 39.2867 27.6971 39.2916 27.6558C39.4259 27.6154 39.5602 27.575 39.6945 27.5346C39.746 27.5993 39.8027 27.6603 39.8492 27.7286C39.8841 27.7945 39.7992 27.8246 39.7499 27.8373C39.7269 27.8398 39.747 27.888 39.768 27.8656C39.9445 27.8127 40.121 27.7598 40.2976 27.7069C40.296 27.6469 40.2192 27.7031 40.1869 27.6631C40.0878 27.5886 40.0166 27.485 39.9346 27.3933C39.7441 27.1693 39.5536 26.9453 39.3631 26.7213ZM39.3602 27.1404C39.4556 27.2542 39.551 27.3681 39.6464 27.482C39.532 27.5161 39.4176 27.5501 39.3032 27.5842C39.3222 27.4363 39.3412 27.2883 39.3602 27.1404Z" fill="black"/>
<path d="M41.1651 25.9344C41.2159 26.0288 41.2666 26.1232 41.3174 26.2176C41.27 26.2582 41.2454 26.1639 41.2025 26.1494C41.1321 26.0902 41.0259 26.079 40.9475 26.1293C40.9154 26.146 40.8837 26.1634 40.8518 26.1804C41.0049 26.4639 41.1559 26.7486 41.3104 27.0313C41.3343 27.1039 41.4234 27.1175 41.4808 27.0766C41.5031 27.0605 41.5232 27.0513 41.5303 27.0854C41.4526 27.1304 41.3677 27.1733 41.2872 27.2175C41.1858 27.272 41.0845 27.3265 40.9831 27.381C40.9592 27.3562 40.9752 27.3435 41.0021 27.334C41.0741 27.3072 41.1018 27.2198 41.0536 27.1582C40.9038 26.8767 40.7517 26.5963 40.6011 26.3152C40.5171 26.3617 40.41 26.4036 40.3888 26.5083C40.365 26.5741 40.4 26.6547 40.4 26.7108C40.3742 26.7376 40.3674 26.701 40.3554 26.6817C40.3121 26.601 40.2687 26.5203 40.2253 26.4397C40.5386 26.2712 40.8519 26.1028 41.1651 25.9344V25.9344Z" fill="black"/>
<path d="M41.8777 25.5119C41.9747 25.6406 42.0718 25.7693 42.1689 25.898C42.2364 25.8551 42.2928 25.7784 42.2725 25.6946C42.2803 25.6292 42.1867 25.555 42.2189 25.5091C42.2401 25.496 42.2525 25.545 42.2701 25.5579C42.3809 25.7048 42.4918 25.8518 42.6026 25.9988C42.5592 26.0482 42.5278 25.9475 42.4819 25.9366C42.4171 25.8905 42.3262 25.8676 42.2567 25.918C42.2049 25.9346 42.2073 25.9637 42.2426 25.9957C42.3206 26.0964 42.393 26.2017 42.4763 26.2982C42.5273 26.3477 42.5907 26.296 42.6339 26.2616C42.7454 26.1856 42.8434 26.067 42.8377 25.9247C42.845 25.8626 42.806 25.7933 42.8064 25.7408C42.8314 25.7076 42.8384 25.7592 42.8527 25.7762C42.9051 25.8708 42.9576 25.9655 43.01 26.0602C42.7368 26.2663 42.4635 26.4724 42.1903 26.6785C42.1547 26.6533 42.1897 26.6384 42.2121 26.621C42.2887 26.5738 42.2644 26.4772 42.208 26.4242C42.0329 26.1936 41.8609 25.9605 41.6835 25.7316C41.6381 25.6701 41.5544 25.7025 41.5085 25.7454C41.4896 25.7723 41.4598 25.7184 41.4958 25.7144C41.7535 25.52 42.0111 25.3257 42.2688 25.1313C42.3393 25.2248 42.4098 25.3183 42.4803 25.4118C42.4313 25.4615 42.3879 25.3508 42.332 25.3449C42.2304 25.2921 42.1097 25.3347 42.0258 25.4015C41.9756 25.4372 41.927 25.475 41.8777 25.5119" fill="black"/>
<mask id="mask1_1_31631" style="mask-type:alpha" maskUnits="userSpaceOnUse" x="2" y="2" width="24" height="18">
<rect x="2" y="2" width="24" height="18" fill="#C4C4C4"/>
</mask>
<g mask="url(#mask1_1_31631)">
<path d="M2 2L26 20L2 2ZM26 2L2 20L26 2Z" fill="black"/>
<path d="M26 2L2 20M2 2L26 20L2 2Z" stroke="white" stroke-width="2.4"/>
<path d="M2 2L26 20L2 2ZM26 2L2 20L26 2Z" fill="black"/>
<path d="M26 2L2 20M2 2L26 20L2 2Z" stroke="#EE5757" stroke-width="1.6"/>
<path d="M14 2V23V2ZM2 11H30H2Z" fill="black"/>
<path d="M2 11H30M14 2V23V2Z" stroke="white" stroke-width="4"/>
<path d="M14 2V23V2ZM2 11H30H2Z" fill="black"/>
<path d="M2 11H30M14 2V23V2Z" stroke="#EE5757" stroke-width="2.4"/>
</g>
</g>
<path d="M11.7035 1.61228C6.53056 2.04084 2.23921 5.77712 1.57724 11.0101C1.25164 13.5841 1 16.6548 1 20C1 23.3452 1.25164 26.4159 1.57724 28.9899C2.23922 34.2229 6.53056 37.9592 11.7035 38.3877C15.5784 38.7087 20.5852 39 26 39C31.4148 39 36.4216 38.7087 40.2965 38.3877C45.4694 37.9592 49.7608 34.2229 50.4228 28.9899C50.7484 26.4159 51 23.3452 51 20C51 16.6548 50.7484 13.5841 50.4228 11.0101C49.7608 5.77712 45.4694 2.04084 40.2965 1.61228C36.4216 1.29127 31.4148 1 26 1C20.5852 1 15.5784 1.29127 11.7035 1.61228Z" stroke="#E6E6FA" stroke-width="2"/>
</g>
<defs>
<linearGradient id="paint0_linear_1_31631" x1="33.1956" y1="13.5169" x2="32.6625" y2="13.4383" gradientUnits="userSpaceOnUse">
<stop stop-color="#FF0000"/>
<stop offset="1" stop-color="#FFFF00"/>
</linearGradient>
<linearGradient id="paint1_linear_1_31631" x1="40.1846" y1="13.5169" x2="39.6515" y2="13.4383" gradientUnits="userSpaceOnUse">
<stop stop-color="#FF0000"/>
<stop offset="1" stop-color="#FFFF00"/>
</linearGradient>
<linearGradient id="paint2_linear_1_31631" x1="33.1956" y1="15.4755" x2="32.6625" y2="15.3969" gradientUnits="userSpaceOnUse">
<stop stop-color="#FF0000"/>
<stop offset="1" stop-color="#FFFF00"/>
</linearGradient>
<linearGradient id="paint3_linear_1_31631" x1="40.1846" y1="15.4755" x2="39.6515" y2="15.3969" gradientUnits="userSpaceOnUse">
<stop stop-color="#FF0000"/>
<stop offset="1" stop-color="#FFFF00"/>
</linearGradient>
<linearGradient id="paint4_linear_1_31631" x1="33.1956" y1="17.3912" x2="32.6625" y2="17.3126" gradientUnits="userSpaceOnUse">
<stop stop-color="#FF0000"/>
<stop offset="1" stop-color="#FFFF00"/>
</linearGradient>
<linearGradient id="paint5_linear_1_31631" x1="40.1846" y1="17.3912" x2="39.6515" y2="17.3126" gradientUnits="userSpaceOnUse">
<stop stop-color="#FF0000"/>
<stop offset="1" stop-color="#FFFF00"/>
</linearGradient>
<linearGradient id="paint6_linear_1_31631" x1="33.1956" y1="23.2315" x2="32.6625" y2="23.1528" gradientUnits="userSpaceOnUse">
<stop stop-color="#FF0000"/>
<stop offset="1" stop-color="#FFFF00"/>
</linearGradient>
<linearGradient id="paint7_linear_1_31631" x1="40.1846" y1="23.0446" x2="39.6515" y2="22.966" gradientUnits="userSpaceOnUse">
<stop stop-color="#FF0000"/>
<stop offset="1" stop-color="#FFFF00"/>
</linearGradient>
<linearGradient id="paint8_linear_1_31631" x1="33.1956" y1="21.3159" x2="32.6625" y2="21.2373" gradientUnits="userSpaceOnUse">
<stop stop-color="#FF0000"/>
<stop offset="1" stop-color="#FFFF00"/>
</linearGradient>
<linearGradient id="paint9_linear_1_31631" x1="40.1846" y1="21.1289" x2="39.6515" y2="21.0503" gradientUnits="userSpaceOnUse">
<stop stop-color="#FF0000"/>
<stop offset="1" stop-color="#FFFF00"/>
</linearGradient>
<linearGradient id="paint10_linear_1_31631" x1="34.4844" y1="19.4469" x2="33.9513" y2="19.3683" gradientUnits="userSpaceOnUse">
<stop stop-color="#FF0000"/>
<stop offset="1" stop-color="#FFFF00"/>
</linearGradient>
<linearGradient id="paint11_linear_1_31631" x1="40.1379" y1="19.2601" x2="39.6048" y2="19.1815" gradientUnits="userSpaceOnUse">
<stop stop-color="#FF0000"/>
<stop offset="1" stop-color="#FFFF00"/>
</linearGradient>
<clipPath id="clip0_1_31631">
<rect width="52" height="40" fill="white"/>
</clipPath>
</defs>
</svg>
