<svg width="52" height="40" viewBox="0 0 52 40" fill="none" xmlns="http://www.w3.org/2000/svg">
<g clip-path="url(#clip0_1_31808)">
<mask id="mask0_1_31808" style="mask-type:alpha" maskUnits="userSpaceOnUse" x="2" y="2" width="48" height="36">
<path d="M2.56934 11.1356C3.16681 6.41247 7.0415 3.00193 11.7861 2.60887C15.6412 2.28949 20.6196 2 26 2C31.3804 2 36.3588 2.28949 40.2139 2.60887C44.9585 3.00193 48.8332 6.41247 49.4307 11.1356C49.752 13.6759 50 16.704 50 20C50 23.296 49.752 26.3241 49.4307 28.8644C48.8332 33.5875 44.9585 36.9981 40.2139 37.3911C36.3588 37.7105 31.3804 38 26 38C20.6196 38 15.6412 37.7105 11.7861 37.3911C7.0415 36.9981 3.16681 33.5875 2.56934 28.8644C2.248 26.3241 2 23.296 2 20C2 16.704 2.248 13.6759 2.56934 11.1356Z" fill="#00D0BF"/>
</mask>
<g mask="url(#mask0_1_31808)">
<rect x="2" y="-4" width="48" height="49" fill="white"/>
<path d="M18.274 26.4537C18.274 26.4537 18.2378 26.2092 18.7021 26.03C19.1663 25.8507 19.2024 25.1825 19.1096 24.7371C19.1096 24.7371 18.8672 25.1608 18.5732 25.302C18.5732 25.302 18.0934 25.5519 18.0715 26.0293C18.0715 26.0293 18.0677 26.2038 18.0315 26.3396C18.0118 26.4139 17.7994 25.742 18.2018 25.2423C18.6169 24.7265 18.733 24.3079 18.4029 23.4931C18.4029 23.4931 18.372 23.9874 18.047 24.2699C17.722 24.5524 17.6807 24.5741 17.6859 25.2477C17.6859 25.2477 17.6911 25.4813 17.5673 25.5574C17.5673 25.5574 17.3145 25.188 17.2475 24.9435C17.1804 24.699 17.1495 24.5958 17.4383 24.3133C17.4383 24.3133 18.3637 23.7153 17.6962 22.4066C17.6962 22.4066 17.6756 22.8575 17.3558 23.1237C17.036 23.3898 17.0618 23.5691 17.0463 24.0309C17.0308 24.4926 16.9998 24.46 16.9637 24.5252C16.9637 24.5252 16.3757 23.4442 16.8296 22.8683C17.2835 22.2925 17.5363 22.173 17.036 21.1028C17.036 21.1028 17.0582 21.6515 16.6576 21.9231C16.2571 22.1948 16.3499 22.8303 16.3499 22.8303C16.3499 22.8303 16.3757 23.0694 16.2932 23.2432C16.2932 23.2432 15.7266 22.138 16.2674 21.5429C16.7265 21.0376 16.7575 20.6845 16.5099 19.9675C16.5099 19.9675 16.4789 20.2989 16.2262 20.4781C15.9734 20.6574 15.7723 20.8366 15.8187 21.5265C15.8187 21.5265 15.8393 22.01 15.7774 22.1458C15.7774 22.1458 15.5401 21.7058 15.4731 21.4179C15.406 21.1299 15.3802 20.9615 15.5556 20.6736C15.731 20.3857 16.4274 19.56 15.5969 18.3703C15.5969 18.3703 15.5711 18.756 15.3596 19.1037C15.1481 19.4513 15.2461 19.8642 15.2926 20.1793C15.339 20.4944 15.1843 20.7986 15.1843 20.7986C15.1843 20.7986 14.8232 20.1358 14.9006 19.3753C14.9779 18.6148 14.6685 17.9901 13.9669 17.5392C13.9669 17.5392 13.4563 18.7234 14.1526 19.3264C14.1526 19.3264 14.7458 19.9131 14.8954 20.6248C14.8954 20.6248 14.4466 20.5813 14.0391 19.7882C13.6316 18.9951 12.7857 19.12 12.7289 19.1146C12.7289 19.1146 12.8682 20.3423 14.1681 20.69C14.1681 20.69 14.9986 20.8312 15.1533 21.4397C15.1533 21.4397 15.2926 21.858 15.3493 22.0807C15.3493 22.0807 15.0863 21.9774 14.8438 21.6189C14.6014 21.2604 14.6323 21.2169 13.8122 21.1354C13.8122 21.1354 13.482 21.0974 13.3066 20.8638C13.3066 20.8638 13.6522 22.1621 14.5394 22.1513C14.5394 22.1513 15.3493 22.0644 15.8032 23.1291C15.8032 23.1291 15.7155 23.0748 15.5969 22.9932C15.4782 22.9118 15.179 22.7597 14.5859 22.8303C13.9927 22.9009 13.8276 22.8031 13.678 22.7542C13.678 22.7542 14.2764 23.8515 15.1223 23.5256C15.9683 23.1997 16.3768 24.3882 16.3861 24.411C16.3861 24.411 16.2726 24.3241 16.123 24.1774C15.9734 24.0308 15.6629 23.8499 15.0759 24.0362C15.0759 24.0362 14.6529 24.1992 14.2248 24.0688C14.2248 24.0688 14.6374 24.8673 15.602 24.7315C16.5666 24.5957 16.809 25.4432 16.809 25.4432C16.809 25.4432 16.6801 25.3671 16.5924 25.2965C16.5047 25.2259 16.1797 25.0412 15.4834 25.2476C14.787 25.4541 14.5343 25.215 14.5343 25.215C14.5343 25.215 14.9211 25.9212 15.6639 26.0027C15.6639 26.0027 16.0766 25.9973 16.2519 25.9321C16.4273 25.8669 16.8915 25.7637 17.2113 26.2254C17.2113 26.2254 17.1237 26.2417 16.9896 26.182C16.9896 26.182 16.4944 26.0027 16.1178 26.3178C16.1178 26.3178 15.7825 26.66 15.308 26.5948C15.308 26.5948 15.9218 27.1924 16.8967 26.6872C16.8967 26.6872 17.2268 26.4481 17.4692 26.6329C17.7117 26.8177 18.274 26.4537 18.274 26.4537Z" fill="#369443" stroke="#010002" stroke-width="0.104916" stroke-miterlimit="10"/>
<path d="M23.7004 11.7321C23.7004 11.7321 23.5871 10.7211 24.395 10.6239C25.2375 10.5225 25.6536 10.7 25.6536 10.7L26.0319 11.4424L25.9012 11.9422L25.3785 12.1812C25.3785 12.1812 25.4679 11.4134 24.7641 11.3974C24.5858 11.3934 24.481 11.4641 24.1989 11.4193C23.9153 11.3743 23.7636 11.686 23.7004 11.7321Z" fill="#F4C53D" stroke="#010002" stroke-width="0.104916" stroke-miterlimit="10"/>
<path d="M29.3847 14.2345C29.2643 14.3902 28.7829 14.4446 28.7829 14.4446C28.7829 14.4446 29.2781 14.8248 29.4913 15.3681C29.7045 15.9113 23.7519 15.3717 23.7519 15.3717C23.7519 15.3717 24.0099 15.187 24.1852 14.8393C24.1852 14.8393 23.9222 14.9371 23.6591 14.6763C23.6591 14.6763 23.8551 14.7415 24.113 14.3504C24.113 14.3504 24.4947 13.8615 24.7629 13.7311C24.7629 13.7311 24.6391 13.8072 24.34 13.6442C24.34 13.6442 24.8558 13.579 25.0415 12.699C25.0415 12.699 25.0724 12.5034 25.2685 12.2209C25.4645 11.9384 25.4232 12.2752 25.7843 11.8406C25.7843 11.8406 25.9494 11.5328 25.8049 11.3445C25.6605 11.1562 25.5057 11.225 25.2031 11.0439C24.9005 10.8628 24.7664 10.7614 24.8696 10.4826C24.9727 10.2037 25.241 10.2472 25.2788 10.2472C25.3166 10.2472 25.3372 10.0045 25.6674 9.83794C25.9975 9.67133 26.8744 9.74375 27.0051 9.81622C27.1358 9.88864 27.6653 10.0444 27.9748 10.8266C28.2843 11.6089 27.8923 11.9022 28.7348 13.0829C28.7348 13.0829 28.3978 13.1553 28.1811 13.0901C28.1811 13.0901 28.6178 13.8651 29.3847 14.2345Z" fill="#F4C53D" stroke="#010002" stroke-width="0.104916" stroke-miterlimit="10"/>
<path d="M25.7018 10.9335C25.0157 10.9009 25.2788 10.2472 25.2788 10.2472" stroke="#010002" stroke-width="0.104916" stroke-miterlimit="10"/>
<path d="M26.8933 11.0231C26.8933 11.0231 26.7721 10.9661 26.6696 10.8303C26.5257 10.6397 26.2047 10.5478 26.0319 10.7271C26.0319 10.7271 25.8565 10.9227 25.7018 10.9336C25.7018 10.9336 25.8772 10.9879 25.9984 11.0992C26.1196 11.2106 26.246 11.2921 26.4265 11.2676C26.607 11.2432 26.6354 11.1481 26.7205 11.0911C26.8056 11.034 26.8933 11.0231 26.8933 11.0231Z" fill="#F4C53D" stroke="#010002" stroke-width="0.104916" stroke-miterlimit="10"/>
<path d="M31.3551 20.7932C31.3551 20.7932 31.9947 21.3147 32.5312 20.7932C32.5312 20.7932 32.7478 21.0539 33.1811 20.9779C33.6144 20.9018 33.6866 20.6737 33.7279 20.5433C33.7279 20.5433 34.1027 20.762 34.4191 20.5892C34.7355 20.4165 34.7355 20.1558 34.7355 20.1558C34.7355 20.1558 35.2857 20.2642 35.5677 19.8913C35.8496 19.5184 35.6777 19.149 35.5264 19.1055C35.5264 19.1055 36.1213 19.2614 36.2829 18.7506C36.4205 18.3161 36.111 18.0915 36.111 18.0915C36.111 18.0915 37.3644 18.0855 37.8785 17.6932C37.8785 17.6932 38.305 17.4252 38.0505 17.1427C38.0505 17.1427 39.1784 16.9616 39.4604 16.5125C39.4604 16.5125 39.5842 16.3894 39.5429 16.1721C39.5429 16.1721 39.536 16.049 39.4122 16.0418C39.4122 16.0418 40.6985 15.8431 41.0697 15.4188C41.0697 15.4188 41.2486 15.2233 41.1592 14.9625C41.1592 14.9625 41.1402 14.8937 41.1093 14.8475C41.1093 14.8475 42.2802 14.6003 42.8579 14.0788C42.8579 14.0788 43.1914 13.7817 43.0195 13.3834C43.0195 13.3834 44.9762 12.8475 44.5223 11.9856C44.5223 11.9856 45.437 11.6886 45.1481 10.8629C45.1481 10.8629 45.9047 10.479 45.5746 9.87062C45.2586 9.28834 44.2885 9.97201 43.1397 10.2899C43.1397 10.2899 40.0312 11.2686 38.5004 11.529L34.1509 18.0047L31.613 18.9825L31.3551 20.7932Z" fill="#F4C53D" stroke="#010002" stroke-width="0.104916"/>
<path d="M31.3242 16.0236C31.3242 16.0236 31.7318 15.7175 32.459 16.0779C32.459 16.0779 32.7038 16.2465 32.8964 16.0618C33.0573 15.9074 33.0724 15.6229 32.851 15.4586C32.3094 15.0566 32.1082 13.8506 32.9335 13.3509C32.9335 13.3509 34.1303 12.6411 38.5184 11.5243C38.5184 11.5243 38.8861 11.4224 39.0821 11.4713C39.298 11.5251 39.4466 11.7103 39.4771 11.8688C39.4771 11.8688 39.6735 12.4268 39.0133 12.7461C39.0133 12.7461 38.7153 12.8825 38.4081 12.9706C38.4081 12.9706 38.7455 12.8977 38.8895 13.2314C39.0271 13.5501 38.8276 13.876 38.2087 14.0861C38.2087 14.0861 38.0412 14.1512 37.8029 14.2092C37.8029 14.2092 38.3325 14.3613 38.078 14.7887C38.078 14.7887 37.851 15.2377 37.0498 15.3174C37.0498 15.3174 37.6481 15.3826 37.2251 15.9512C37.2251 15.9512 37.0394 16.2626 36.4548 16.3785C36.4548 16.3785 36.8985 16.393 36.6749 16.7914C36.4514 17.1897 35.9254 17.4143 35.4078 17.4505C35.4078 17.4505 35.1275 17.465 34.9315 17.4215C34.9315 17.4215 35.4232 17.6678 35.1343 18.0806C35.1343 18.0806 34.9211 18.374 34.3881 18.3595C34.3881 18.3595 34.5265 18.8205 34.1354 18.9951C33.8311 19.1309 33.5783 18.9136 33.5783 18.9136C33.5783 18.9136 33.6815 19.4079 33.2379 19.5817C33.2379 19.5817 33.0161 19.6958 32.6859 19.5817C32.6859 19.5817 32.4332 20.1467 31.5357 19.7501C30.6381 19.3536 31.3242 16.0236 31.3242 16.0236Z" fill="#F4C53D" stroke="#010002" stroke-width="0.104916"/>
<path d="M45.1481 10.8629C45.1481 10.8629 43.7382 11.6792 39.3474 12.4955" stroke="#010002" stroke-width="0.104916"/>
<path d="M19.9683 25.2984C19.9683 25.2984 19.4456 26.1965 18.8129 26.211C18.8129 26.211 17.7245 26.0786 17.4167 26.3631C17.2022 26.5616 16.9834 26.7253 16.8941 27.2323C16.8047 27.7393 17.066 27.848 17.1279 27.8697C17.1279 27.8697 17.176 28.2319 17.5337 28.1377C17.5337 28.1377 17.5543 28.5144 18.187 28.3333C18.8198 28.1522 19.0811 28.2101 19.2049 27.58C19.3287 26.9498 19.443 26.9601 19.5557 26.8846C19.707 26.7832 19.9913 26.6874 20.2022 26.5659C20.3917 26.4568 21.1169 26.0879 21.3645 26.0589C21.6121 26.0299 21.557 25.197 21.557 25.197H20.9174L20.6079 24.7407L19.9683 25.2984Z" fill="#F4C53D" stroke="#010002" stroke-width="0.104916"/>
<path d="M44.5223 11.9855C44.5223 11.9855 40.7063 13.2303 38.9292 13.3833" stroke="#010002" stroke-width="0.104916"/>
<path d="M43.0195 13.3834C43.0195 13.3834 40.7809 14.0861 38.1594 14.5295" stroke="#010002" stroke-width="0.104916"/>
<path d="M41.1093 14.8475C41.1093 14.8475 38.58 15.4551 37.3726 15.5559" stroke="#010002" stroke-width="0.104916"/>
<path d="M39.4122 16.0417C39.4122 16.0417 37.2729 16.4879 36.7308 16.5415" stroke="#010002" stroke-width="0.104916" stroke-miterlimit="10"/>
<path d="M37.0042 19.2955L37.1113 22.6901L36.5119 22.3423L35.514 26.6502L35.1023 26.3544L36.0737 22.2273L35.3963 22.2397L37.0042 19.2955Z" fill="#0081C6" stroke="#010002" stroke-width="0.104916" stroke-miterlimit="10"/>
<path d="M38.0505 17.1426C38.0505 17.1426 36.4893 17.3799 35.8679 17.3672" stroke="#010002" stroke-width="0.104916" stroke-miterlimit="10"/>
<path d="M36.111 18.0916C36.111 18.0916 35.4797 18.0619 35.1764 18.0115" stroke="#010002" stroke-width="0.104916" stroke-miterlimit="10"/>
<path d="M35.5264 19.1056C35.5264 19.1056 34.9899 18.9607 34.6735 18.7579" stroke="#010002" stroke-width="0.104916" stroke-miterlimit="10"/>
<path d="M34.7355 20.1558C34.7355 20.1558 34.3228 19.9965 34.1234 19.5619" stroke="#010002" stroke-width="0.104916" stroke-miterlimit="10"/>
<path d="M33.7279 20.5433C33.7279 20.5433 33.4081 20.2572 33.3875 19.9385" stroke="#010002" stroke-width="0.104916" stroke-miterlimit="10"/>
<path d="M40.8811 20.805L39.4624 23.8552L39.0882 23.2518L36.0931 26.7909L35.7688 26.4278L38.7525 22.9336L38.149 22.6097L40.8811 20.805Z" fill="#0081C6" stroke="#010002" stroke-width="0.104916" stroke-miterlimit="10"/>
<path d="M32.5312 20.7932C32.5312 20.7932 32.6509 20.6899 32.569 20.2409" stroke="#010002" stroke-width="0.104916" stroke-miterlimit="10"/>
<path d="M39.5871 18.5659L38.8563 21.8741L38.3628 21.3748L35.6821 26.5293L35.269 26.2882L37.9677 21.1442L37.3104 20.9716L39.5871 18.5659Z" fill="#0081C6" stroke="#010002" stroke-width="0.104916" stroke-miterlimit="10"/>
<path d="M32.6859 19.5818C32.6859 19.5818 32.7478 19.4532 32.7272 19.2504" stroke="#010002" stroke-width="0.104916" stroke-miterlimit="10"/>
<path d="M21.9828 20.7932C21.9828 20.7932 21.3432 21.3147 20.8067 20.7932C20.8067 20.7932 20.59 21.054 20.1568 20.9779C19.7235 20.9018 19.6512 20.6737 19.61 20.5433C19.61 20.5433 19.2351 20.762 18.9188 20.5893C18.6024 20.4165 18.6024 20.1558 18.6024 20.1558C18.6024 20.1558 18.0522 20.2642 17.7702 19.8913C17.4882 19.5184 17.6601 19.149 17.8115 19.1055C17.8115 19.1055 17.2166 19.2614 17.0549 18.7506C16.9174 18.3161 17.2269 18.0915 17.2269 18.0915C17.2269 18.0915 15.9734 18.0855 15.4593 17.6932C15.4593 17.6932 15.0329 17.4252 15.2874 17.1427C15.2874 17.1427 14.1595 16.9616 13.8775 16.5125C13.8775 16.5125 13.7537 16.3894 13.795 16.1721C13.795 16.1721 13.8019 16.049 13.9256 16.0418C13.9256 16.0418 12.6393 15.8431 12.2681 15.4188C12.2681 15.4188 12.0893 15.2233 12.1787 14.9625C12.1787 14.9625 12.1976 14.8937 12.2286 14.8475C12.2286 14.8475 11.0577 14.6003 10.4799 14.0788C10.4799 14.0788 10.1464 13.7817 10.3184 13.3834C10.3184 13.3834 8.36161 12.8475 8.81554 11.9856C8.81554 11.9856 7.90081 11.6886 8.18968 10.8629C8.18968 10.8629 7.43313 10.479 7.76327 9.87062C8.07921 9.28834 9.0494 9.97201 10.1982 10.2899C10.1982 10.2899 13.3066 11.2686 14.8374 11.529L19.187 18.0047L21.7248 18.9825L21.9828 20.7932Z" fill="#F4C53D" stroke="#010002" stroke-width="0.104916"/>
<path d="M34.9418 13.1517C34.9418 13.1517 34.2197 13.4415 33.9789 13.8398C33.7382 14.2382 33.8968 14.6254 33.9789 14.8475C34.0202 14.9592 34.5292 15.9403 33.9308 16.6502" stroke="#010002" stroke-width="0.104916" stroke-miterlimit="10"/>
<path d="M22.0137 16.0236C22.0137 16.0236 21.6061 15.7175 20.8789 16.0779C20.8789 16.0779 20.6341 16.2465 20.4416 16.0618C20.2807 15.9074 20.2656 15.6229 20.4869 15.4586C21.0285 15.0566 21.2297 13.8506 20.4044 13.3509C20.4044 13.3509 19.2077 12.6411 14.8195 11.5243C14.8195 11.5243 14.4518 11.4224 14.2558 11.4713C14.04 11.5251 13.8913 11.7103 13.8608 11.8688C13.8608 11.8688 13.6644 12.4268 14.3246 12.7461C14.3246 12.7461 14.6226 12.8825 14.9298 12.9706C14.9298 12.9706 14.5924 12.8977 14.4484 13.2314C14.3109 13.5501 14.5103 13.876 15.1293 14.0861C15.1293 14.0861 15.2967 14.1512 15.5351 14.2092C15.5351 14.2092 15.0055 14.3613 15.26 14.7887C15.26 14.7887 15.4869 15.2377 16.2882 15.3174C16.2882 15.3174 15.6899 15.3826 16.1128 15.9512C16.1128 15.9512 16.2985 16.2626 16.8831 16.3785C16.8831 16.3785 16.4395 16.393 16.663 16.7914C16.8865 17.1897 17.4125 17.4143 17.9302 17.4505C17.9302 17.4505 18.2105 17.465 18.4065 17.4215C18.4065 17.4215 17.9148 17.6678 18.2036 18.0806C18.2036 18.0806 18.4168 18.374 18.9499 18.3595C18.9499 18.3595 18.8115 18.8206 19.2026 18.9951C19.5069 19.1309 19.7597 18.9136 19.7597 18.9136C19.7597 18.9136 19.6565 19.4079 20.1001 19.5818C20.1001 19.5818 20.3219 19.6959 20.6521 19.5818C20.6521 19.5818 20.9048 20.1468 21.8023 19.7502C22.6998 19.3536 22.0137 16.0236 22.0137 16.0236Z" fill="#F4C53D" stroke="#010002" stroke-width="0.104916"/>
<path d="M34.9315 17.4215C34.9315 17.4215 34.9281 17.4179 34.6736 17.3382" stroke="#010002" stroke-width="0.104916" stroke-miterlimit="10"/>
<path d="M36.4549 16.3785C36.4549 16.3785 36.0244 16.4651 35.6021 16.469" stroke="#010002" stroke-width="0.104916" stroke-miterlimit="10"/>
<path d="M37.0498 15.3174C37.0498 15.3174 36.5442 15.3681 36.0697 15.3609" stroke="#010002" stroke-width="0.104916" stroke-miterlimit="10"/>
<path d="M37.8029 14.2092C37.8029 14.2092 37.0739 14.354 36.6818 14.3613" stroke="#010002" stroke-width="0.104916" stroke-miterlimit="10"/>
<path d="M38.4081 12.9706C38.4081 12.9706 37.509 13.2273 36.84 13.3183" stroke="#010002" stroke-width="0.104916" stroke-miterlimit="10"/>
<path d="M35.3545 13.847C35.3545 13.847 36.0009 14.4482 35.2238 15.0059C35.2238 15.0059 35.547 15.513 34.9005 16.0417" stroke="#010002" stroke-width="0.104916" stroke-miterlimit="10"/>
<path d="M22.067 21.1581C22.067 21.1581 21.9353 21.8652 20.891 22.7552C20.891 22.7552 20.0852 23.4659 20.1059 24.2844C20.1269 25.1179 19.9614 25.2115 19.6451 25.494C19.6451 25.494 20.2985 25.5447 20.6148 25.1101C20.6148 25.1101 20.6011 25.8344 20.5048 25.8996C20.5048 25.8996 20.7097 25.9127 21.0068 25.5882C21.0068 25.5882 21.1856 25.3998 21.3507 25.3274C21.3507 25.3274 21.1581 25.8272 21.3094 26.2907C21.3094 26.2907 21.3576 26.1097 21.612 26.03C21.612 26.03 22.0728 25.9358 22.2517 25.2695C22.2517 25.2695 22.3686 24.8276 23.0907 24.4365C23.0907 24.4365 23.9092 24.1278 23.8886 23.7244C23.868 23.3211 22.067 21.1581 22.067 21.1581Z" fill="#F4C53D" stroke="#010002" stroke-width="0.104916"/>
<path d="M35.0725 16.2916C35.0725 16.2916 35.1688 17.2585 33.9858 17.2585C33.9858 17.2585 34.2128 18.1205 33.0711 18.0915C33.0711 18.0915 32.9404 18.7796 32.1151 18.642" stroke="#010002" stroke-width="0.104916" stroke-miterlimit="10"/>
<path d="M33.3708 25.2984C33.3708 25.2984 33.8935 26.1965 34.5262 26.211C34.5262 26.211 35.6146 26.0786 35.9224 26.3631C36.137 26.5616 36.3557 26.7253 36.4451 27.2323C36.5345 27.7393 36.2731 27.848 36.2112 27.8697C36.2112 27.8697 36.1631 28.2319 35.8054 28.1377C35.8054 28.1377 35.7848 28.5144 35.152 28.3333C34.5193 28.1522 34.258 28.2101 34.1342 27.58C34.0104 26.9498 33.8961 26.9601 33.7834 26.8846C33.6321 26.7832 33.3478 26.6874 33.1369 26.5659C32.9474 26.4568 32.2222 26.0879 31.9746 26.0589C31.727 26.0299 31.782 25.197 31.782 25.197H32.4216L32.7311 24.7407L33.3708 25.2984Z" fill="#F4C53D" stroke="#010002" stroke-width="0.104916"/>
<path d="M31.2721 21.1581C31.2721 21.1581 31.4038 21.8652 32.4481 22.7552C32.4481 22.7552 33.2539 23.4659 33.2333 24.2844C33.2122 25.1179 33.3777 25.2115 33.6941 25.494C33.6941 25.494 33.0407 25.5447 32.7243 25.1101C32.7243 25.1101 32.7381 25.8344 32.8344 25.8996C32.8344 25.8996 32.6294 25.9127 32.3323 25.5882C32.3323 25.5882 32.1535 25.3998 31.9884 25.3274C31.9884 25.3274 32.181 25.8272 32.0297 26.2907C32.0297 26.2907 31.9815 26.1097 31.7271 26.03C31.7271 26.03 31.2663 25.9358 31.0874 25.2695C31.0874 25.2695 30.9705 24.8276 30.2484 24.4365C30.2484 24.4365 29.4299 24.1278 29.4506 23.7244C29.4712 23.3211 31.2721 21.1581 31.2721 21.1581Z" fill="#F4C53D" stroke="#010002" stroke-width="0.104916"/>
<path d="M33.933 26.2111C33.933 26.2111 34.1202 26.2527 34.5262 26.2111" stroke="#010002" stroke-width="0.104916"/>
<path d="M35.6679 26.7181C35.6679 26.7181 36.2388 26.6311 36.2112 27.8697" stroke="#010002" stroke-width="0.104916" stroke-miterlimit="10"/>
<path d="M35.324 27.0006C35.324 27.0006 35.8399 26.9354 35.8055 28.1377" stroke="#010002" stroke-width="0.104916" stroke-miterlimit="10"/>
<path d="M30.3447 24.1033C30.3447 24.1033 30.5923 24.1541 30.7642 24.3496C30.9362 24.5452 31.2663 24.5089 31.2663 24.5089C31.2663 24.5089 31.0875 24.3641 31.0256 24.0019C30.9637 23.6398 30.7642 23.5311 30.7642 23.5311" stroke="#010002" stroke-width="0.104916"/>
<path d="M31.3549 23.1882C31.3549 23.1882 31.6025 23.2389 31.7744 23.4344C31.9463 23.63 32.2764 23.5938 32.2764 23.5938C32.2764 23.5938 32.0976 23.4489 32.0357 23.0868C31.9738 22.7246 31.7744 22.616 31.7744 22.616" stroke="#010002" stroke-width="0.104916"/>
<path d="M31.5251 24.594C31.5251 24.594 31.7413 24.6383 31.8914 24.809C32.0415 24.9798 32.3298 24.9482 32.3298 24.9482C32.3298 24.9482 32.1736 24.8217 32.1196 24.5055C32.0655 24.1893 31.8914 24.0944 31.8914 24.0944" stroke="#010002" stroke-width="0.104916"/>
<path d="M27.4787 30.2744C27.4787 30.2744 27.6661 31.1017 28.3177 31.0349C28.3177 31.0349 28.7785 30.9915 28.7442 30.2237C28.7442 30.2237 29.425 30.5859 29.5351 29.6877C29.5351 29.6877 30.1541 29.8326 30.1472 28.9924C30.1472 28.9924 30.7249 29.0938 30.6562 28.3477C30.6562 28.3477 31.282 28.5143 31.282 27.8118C31.282 27.8118 32.7469 27.5688 29.6933 24.7841L26.9698 26.4066L27.4787 30.2744Z" fill="#F4C53D" stroke="#010002" stroke-width="0.104916" stroke-miterlimit="10"/>
<path d="M27.176 26.5616C27.176 26.5616 27.6299 26.9643 27.9532 26.3631C27.9532 26.3631 28.3933 26.3414 28.4621 26.0082C28.4621 26.0082 28.8198 25.972 28.8885 25.6316C28.8885 25.6316 29.3768 25.5809 29.3631 25.168C29.3631 25.168 30.2508 25.0995 29.3634 24.0944C28.4759 23.0893 26.9697 25.762 26.9697 25.762L27.176 26.5616Z" fill="#F4C53D" stroke="#010002" stroke-width="0.104916"/>
<path d="M28.7442 30.2238C28.7442 30.2238 28.6754 28.7679 27.4136 26.6819" stroke="#010002" stroke-width="0.104916" stroke-miterlimit="10"/>
<path d="M29.5351 29.6878C29.5351 29.6878 29.7311 28.8476 27.9532 26.3632C27.9532 26.3632 28.1595 25.7693 27.5268 25.389" stroke="#010002" stroke-width="0.104916" stroke-miterlimit="10"/>
<path d="M30.1471 28.9924C30.1471 28.9924 30.2022 28.0834 28.4622 26.0083C28.4622 26.0083 28.6159 25.4723 27.9854 25.0449" stroke="#010002" stroke-width="0.104916" stroke-miterlimit="10"/>
<path d="M30.6561 28.3477C30.6561 28.3477 30.5908 27.4279 28.8885 25.6316C28.8885 25.6316 28.9737 25.0811 28.3637 24.7407" stroke="#010002" stroke-width="0.104916" stroke-miterlimit="10"/>
<path d="M31.282 27.8118C31.282 27.8118 31.1582 26.7615 29.3631 25.168C29.3631 25.168 29.425 24.7552 28.8267 24.3351" stroke="#010002" stroke-width="0.104916" stroke-miterlimit="10"/>
<path d="M25.8605 30.2744C25.8605 30.2744 25.673 31.1017 25.0214 31.0349C25.0214 31.0349 24.5606 30.9915 24.595 30.2237C24.595 30.2237 23.9141 30.5859 23.8041 29.6877C23.8041 29.6877 23.1851 29.8326 23.192 28.9924C23.192 28.9924 22.6142 29.0938 22.683 28.3477C22.683 28.3477 22.0572 28.5143 22.0572 27.8118C22.0572 27.8118 20.5923 27.5688 23.6459 24.7841L26.3694 26.4066L25.8605 30.2744Z" fill="#F4C53D" stroke="#010002" stroke-width="0.104916" stroke-miterlimit="10"/>
<path d="M26.1631 26.5616C26.1631 26.5616 25.7092 26.9644 25.3859 26.3632C25.3859 26.3632 24.9457 26.3415 24.877 26.0083C24.877 26.0083 24.5193 25.9721 24.4506 25.6316C24.4506 25.6316 23.9623 25.5809 23.976 25.1681C23.976 25.1681 23.0882 25.0995 23.9757 24.0944C24.8632 23.0893 26.3694 25.762 26.3694 25.762L26.1631 26.5616Z" fill="#F4C53D" stroke="#010002" stroke-width="0.104916"/>
<path d="M24.595 30.2238C24.595 30.2238 24.6637 28.7679 25.9256 26.6819" stroke="#010002" stroke-width="0.104916" stroke-miterlimit="10"/>
<path d="M23.8041 29.6877C23.8041 29.6877 23.608 28.8475 25.3859 26.3632C25.3859 26.3632 25.1796 25.7692 25.8123 25.389" stroke="#010002" stroke-width="0.104916" stroke-miterlimit="10"/>
<path d="M26.6696 26.3124C27.1096 26.3124 27.6082 29.0612 27.4788 30.7173C27.4318 31.3187 27.1096 31.81 26.6696 31.81C26.2296 31.81 25.9074 31.3187 25.8604 30.7173C25.731 29.0612 26.2296 26.3124 26.6696 26.3124Z" fill="#F4C53D" stroke="#010002" stroke-width="0.104916"/>
<path d="M23.192 28.9924C23.192 28.9924 23.137 28.0834 24.877 26.0083C24.877 26.0083 24.7233 25.4723 25.3538 25.0449" stroke="#010002" stroke-width="0.104916" stroke-miterlimit="10"/>
<path d="M22.683 28.3477C22.683 28.3477 22.7483 27.4279 24.4505 25.6316C24.4505 25.6316 24.3654 25.0811 24.9754 24.7407" stroke="#010002" stroke-width="0.104916" stroke-miterlimit="10"/>
<path d="M26.6695 27.1925C27.0058 27.1925 27.2784 26.7888 27.2784 26.2907C27.2784 25.7927 27.0058 25.389 26.6695 25.389C26.3333 25.389 26.0607 25.7927 26.0607 26.2907C26.0607 26.7888 26.3333 27.1925 26.6695 27.1925Z" fill="#F4C53D" stroke="#010002" stroke-width="0.104916"/>
<path d="M22.0571 27.8118C22.0571 27.8118 22.1809 26.7615 23.976 25.168C23.976 25.168 23.9141 24.7552 24.5124 24.3351" stroke="#010002" stroke-width="0.104916" stroke-miterlimit="10"/>
<path d="M26.6695 26.0938C26.6695 26.0938 31.8335 23.8054 31.8464 18.5117H21.4927C21.5056 23.8054 26.6695 26.0938 26.6695 26.0938Z" fill="white" stroke="#010002" stroke-width="0.104916"/>
<path d="M23.882 18.5116H24.6785" stroke="#010002" stroke-width="0.104916" stroke-miterlimit="10"/>
<path d="M22.2891 18.5116H23.0856" stroke="#010002" stroke-width="0.104916" stroke-miterlimit="10"/>
<path d="M25.4749 18.5116H26.2713" stroke="#010002" stroke-width="0.104916" stroke-miterlimit="10"/>
<path d="M22.2891 18.5116V21.8941C22.2891 21.8941 22.6847 22.6785 23.0856 23.1705V18.5116H22.2891Z" fill="#A60032" stroke="#010002" stroke-width="0.104916"/>
<path d="M23.882 18.5116V24.0874C23.882 24.0874 24.3801 24.5757 24.6785 24.8112V18.5116H23.882Z" fill="#A60032" stroke="#010002" stroke-width="0.104916"/>
<path d="M25.4749 18.5116V25.4037C25.4749 25.4037 26.0431 25.7707 26.2714 25.8911V18.5116H25.4749Z" fill="#A60032" stroke="#010002" stroke-width="0.104916"/>
<path d="M22.2891 18.5116H23.0856" stroke="#010002" stroke-width="0.104916"/>
<path d="M23.882 18.5116H24.6785" stroke="#010002" stroke-width="0.104916"/>
<path d="M25.4749 18.5116H26.2713" stroke="#010002" stroke-width="0.104916"/>
<path d="M31.05 18.5116V21.8941C31.05 21.8941 30.6544 22.6785 30.2535 23.1705V18.5116H31.05Z" fill="#A60032" stroke="#010002" stroke-width="0.104916"/>
<path d="M29.4571 18.5116V24.0874C29.4571 24.0874 28.959 24.5757 28.6606 24.8112V18.5116H29.4571Z" fill="#A60032" stroke="#010002" stroke-width="0.104916"/>
<path d="M27.8642 18.5116V25.4037C27.8642 25.4037 27.296 25.7707 27.0677 25.8911V18.5116H27.8642Z" fill="#A60032" stroke="#010002" stroke-width="0.104916"/>
<path d="M35.0182 28.1011L34.8174 28.9221L35.3671 29.4697L34.5902 32.7514L33.8991 31.8232L32.8752 32.3011L33.6521 29.0193L34.3724 28.8185L34.5595 27.999C34.5595 27.999 34.7773 27.9137 35.0182 28.1011Z" fill="#0081C6" stroke="#010002" stroke-width="0.104916" stroke-miterlimit="10"/>
<path d="M35.2023 27.5597L34.8066 28.2979L35.203 28.9767L33.646 31.9349L33.2066 30.8499L32.1001 31.0325L33.6571 28.0743L34.4022 28.0767L34.7842 27.3361C34.7843 27.3361 35.0622 27.3355 35.2023 27.5597Z" fill="#0081C6" stroke="#010002" stroke-width="0.104916" stroke-miterlimit="10"/>
<path d="M35.2691 27.7743L34.2166 29.1115L34.4578 29.8668L32.3089 32.3803L32.1125 31.2191L30.9954 31.1347L33.1443 28.6213L33.8699 28.8001L34.9863 27.3806C34.9863 27.3806 35.2857 27.5293 35.2691 27.7743Z" fill="#0081C6" stroke="#010002" stroke-width="0.104916" stroke-miterlimit="10"/>
<path d="M8.18976 10.8629C8.18976 10.8629 9.59966 11.6792 13.9905 12.4955" stroke="#010002" stroke-width="0.104916"/>
<path d="M8.81561 11.9855C8.81561 11.9855 12.6316 13.2303 14.4087 13.3833" stroke="#010002" stroke-width="0.104916"/>
<path d="M10.3185 13.3834C10.3185 13.3834 12.5571 14.0861 15.1786 14.5295" stroke="#010002" stroke-width="0.104916"/>
<path d="M12.2286 14.8475C12.2286 14.8475 14.7579 15.455 15.9654 15.5559" stroke="#010002" stroke-width="0.104916"/>
<path d="M13.9257 16.0417C13.9257 16.0417 16.065 16.4879 16.607 16.5416" stroke="#010002" stroke-width="0.104916" stroke-miterlimit="10"/>
<path d="M15.2875 17.1427C15.2875 17.1427 16.8487 17.3799 17.47 17.3672" stroke="#010002" stroke-width="0.104916" stroke-miterlimit="10"/>
<path d="M17.2269 18.0916C17.2269 18.0916 17.8582 18.0619 18.1615 18.0115" stroke="#010002" stroke-width="0.104916" stroke-miterlimit="10"/>
<path d="M17.8115 19.1056C17.8115 19.1056 18.348 18.9607 18.6644 18.7579" stroke="#010002" stroke-width="0.104916" stroke-miterlimit="10"/>
<path d="M18.6025 20.1558C18.6025 20.1558 19.0151 19.9965 19.2146 19.5619" stroke="#010002" stroke-width="0.104916" stroke-miterlimit="10"/>
<path d="M19.61 20.5433C19.61 20.5433 19.9299 20.2572 19.9505 19.9385" stroke="#010002" stroke-width="0.104916" stroke-miterlimit="10"/>
<path d="M20.8067 20.7932C20.8067 20.7932 20.687 20.6899 20.7689 20.2409" stroke="#010002" stroke-width="0.104916" stroke-miterlimit="10"/>
<path d="M20.652 19.5818C20.652 19.5818 20.5901 19.4532 20.6107 19.2504" stroke="#010002" stroke-width="0.104916" stroke-miterlimit="10"/>
<path d="M18.3961 13.1517C18.3961 13.1517 19.1183 13.4414 19.359 13.8398C19.5997 14.2382 19.4412 14.6254 19.359 14.8475C19.3177 14.9591 18.8088 15.9403 19.4071 16.6501" stroke="#010002" stroke-width="0.104916" stroke-miterlimit="10"/>
<path d="M18.4064 17.4215C18.4064 17.4215 18.4099 17.4179 18.6644 17.3382" stroke="#010002" stroke-width="0.104916" stroke-miterlimit="10"/>
<path d="M16.8831 16.3785C16.8831 16.3785 17.3135 16.4651 17.7359 16.469" stroke="#010002" stroke-width="0.104916" stroke-miterlimit="10"/>
<path d="M16.2881 15.3174C16.2881 15.3174 16.7937 15.3681 17.2682 15.3609" stroke="#010002" stroke-width="0.104916" stroke-miterlimit="10"/>
<path d="M18.167 27.9537C18.167 27.9537 18.1516 27.5137 18.7086 27.4811L20.3488 29.7626C20.3488 29.7626 20.2869 29.9092 19.5442 29.8929C19.5442 29.8929 19.4655 29.8924 19.4243 29.9793C19.3609 30.1127 18.167 27.9537 18.167 27.9537Z" fill="#369443" stroke="#010002" stroke-width="0.104916" stroke-miterlimit="10"/>
<path d="M15.535 14.2092C15.535 14.2092 16.2641 14.354 16.6561 14.3613" stroke="#010002" stroke-width="0.104916" stroke-miterlimit="10"/>
<path d="M14.9298 12.9706C14.9298 12.9706 15.8289 13.2273 16.4979 13.3183" stroke="#010002" stroke-width="0.104916" stroke-miterlimit="10"/>
<path d="M17.9835 13.847C17.9835 13.847 17.337 14.4482 18.1141 15.006C18.1141 15.006 17.7909 15.513 18.4374 16.0417" stroke="#010002" stroke-width="0.104916" stroke-miterlimit="10"/>
<path d="M18.2654 16.2916C18.2654 16.2916 18.1692 17.2585 19.3521 17.2585C19.3521 17.2585 19.1251 18.1205 20.2668 18.0915C20.2668 18.0915 20.3975 18.7796 21.2228 18.642" stroke="#010002" stroke-width="0.104916" stroke-miterlimit="10"/>
<path d="M19.4044 26.2111C19.4044 26.2111 19.2172 26.2527 18.8112 26.2111" stroke="#010002" stroke-width="0.104916"/>
<path d="M17.6695 26.7181C17.6695 26.7181 17.0987 26.6311 17.1262 27.8697" stroke="#010002" stroke-width="0.104916" stroke-miterlimit="10"/>
<path d="M18.0134 27.0006C18.0134 27.0006 17.4976 26.9354 17.532 28.1377" stroke="#010002" stroke-width="0.104916" stroke-miterlimit="10"/>
<path d="M22.9945 24.1033C22.9945 24.1033 22.7469 24.154 22.5749 24.3496C22.403 24.5451 22.0729 24.5089 22.0729 24.5089C22.0729 24.5089 22.2517 24.364 22.3136 24.0019C22.3755 23.6397 22.5749 23.5311 22.5749 23.5311" stroke="#010002" stroke-width="0.104916"/>
<path d="M21.9843 23.1882C21.9843 23.1882 21.7367 23.2389 21.5647 23.4344C21.3928 23.63 21.0627 23.5938 21.0627 23.5938C21.0627 23.5938 21.2415 23.4489 21.3034 23.0868C21.3653 22.7246 21.5647 22.616 21.5647 22.616" stroke="#010002" stroke-width="0.104916"/>
<path d="M21.814 24.594C21.814 24.594 21.5978 24.6383 21.4477 24.809C21.2976 24.9798 21.0093 24.9481 21.0093 24.9481C21.0093 24.9481 21.1655 24.8216 21.2195 24.5054C21.2736 24.1892 21.4477 24.0944 21.4477 24.0944" stroke="#010002" stroke-width="0.104916"/>
<path d="M31.8464 14.6655C31.8464 14.6655 29.3125 15.991 26.6695 14.5569C24.0266 15.991 21.4927 14.6655 21.4927 14.6655V18.5116H31.8464V14.6655Z" fill="#162667" stroke="#010002" stroke-width="0.104916" stroke-miterlimit="10"/>
<path d="M8.59969 24.6395C8.85061 24.5371 9.03131 24.4382 9.03054 24.1705C9.03036 24.1067 8.9949 23.9654 8.9237 23.7468L7.23885 18.5975C7.13908 18.2916 7.06364 18.1098 7.02867 18.0428C6.95292 17.8978 6.80425 17.8387 6.604 17.7553H6.81139H8.53764H8.74541C8.51278 17.8652 8.30071 17.9525 8.3027 18.1991C8.30347 18.2933 8.32995 18.4261 8.38457 18.5976L9.67528 22.6383L10.9647 18.5976C11.0194 18.4261 11.0476 18.2933 11.0467 18.1991C11.0442 17.9457 10.8233 17.8543 10.6063 17.7553H10.8117H12.4751H12.6817C12.4919 17.8313 12.3373 17.8909 12.2578 18.0428C12.2228 18.1098 12.1474 18.2916 12.0477 18.5975L10.3628 23.7468C10.2916 23.9654 10.2658 24.109 10.256 24.1755C10.256 24.1755 10.1784 24.5012 10.6868 24.6395L8.59969 24.6395Z" fill="#0081C6" stroke="#010002" stroke-width="0.104916" stroke-miterlimit="10"/>
<path d="M44.5048 24.11V18.2798C44.5048 18.179 44.4881 18.1016 44.455 18.0478C44.4217 17.9941 44.2769 17.8391 44.0704 17.7553H44.277H45.7935H46C45.7935 17.8237 45.6487 17.9898 45.6155 18.0453C45.5822 18.1008 45.5657 18.1789 45.5657 18.2798V24.11C45.5657 24.2142 45.5828 24.2941 45.6173 24.3495C45.6517 24.405 45.7935 24.5404 46 24.6395H45.7935H44.277H44.0704C44.277 24.5456 44.4217 24.4008 44.455 24.347C44.4881 24.2933 44.5048 24.2142 44.5048 24.11Z" fill="#0081C6" stroke="#010002" stroke-width="0.104916" stroke-miterlimit="10"/>
</g>
<path d="M11.7035 1.61228C6.53056 2.04084 2.23921 5.77712 1.57724 11.0101C1.25164 13.5841 1 16.6548 1 20C1 23.3452 1.25164 26.4159 1.57724 28.9899C2.23922 34.2229 6.53056 37.9592 11.7035 38.3877C15.5784 38.7087 20.5852 39 26 39C31.4148 39 36.4216 38.7087 40.2965 38.3877C45.4694 37.9592 49.7608 34.2229 50.4228 28.9899C50.7484 26.4159 51 23.3452 51 20C51 16.6548 50.7484 13.5841 50.4228 11.0101C49.7608 5.77712 45.4694 2.04084 40.2965 1.61228C36.4216 1.29127 31.4148 1 26 1C20.5852 1 15.5784 1.29127 11.7035 1.61228Z" stroke="#E6E6FA" stroke-width="2"/>
</g>
<defs>
<clipPath id="clip0_1_31808">
<rect width="52" height="40" fill="white"/>
</clipPath>
</defs>
</svg>
