<svg width="52" height="40" viewBox="0 0 52 40" fill="none" xmlns="http://www.w3.org/2000/svg">
<g clip-path="url(#clip0_1_31569)">
<mask id="mask0_1_31569" style="mask-type:alpha" maskUnits="userSpaceOnUse" x="2" y="2" width="48" height="36">
<path d="M2.56934 11.1356C3.16681 6.41247 7.0415 3.00193 11.7861 2.60887C15.6412 2.28949 20.6196 2 26 2C31.3804 2 36.3588 2.28949 40.2139 2.60887C44.9585 3.00193 48.8332 6.41247 49.4307 11.1356C49.752 13.6759 50 16.704 50 20C50 23.296 49.752 26.3241 49.4307 28.8644C48.8332 33.5875 44.9585 36.9981 40.2139 37.3911C36.3588 37.7105 31.3804 38 26 38C20.6196 38 15.6412 37.7105 11.7861 37.3911C7.0415 36.9981 3.16681 33.5875 2.56934 28.8644C2.248 26.3241 2 23.296 2 20C2 16.704 2.248 13.6759 2.56934 11.1356Z" fill="#00D0BF"/>
</mask>
<g mask="url(#mask0_1_31569)">
<rect x="2" y="14" width="48" height="12" fill="#2E50A6"/>
<g clip-path="url(#clip1_1_31569)">
<path d="M62 2H2V20H62V2Z" fill="#EE5757"/>
<path d="M62 20H2V38H62V20Z" fill="#59C785"/>
<path d="M2 2L36.9145 20L2 38V2Z" fill="#2C2929"/>
<path d="M62 16.7789H2V23.221H62V16.7789Z" fill="#2C2929"/>
<path d="M2 4.55804L31.9527 20L2 35.4419V4.55804Z" fill="#FCD95E"/>
<path d="M62 19.0527H2V20.9474H62V19.0527Z" fill="#FCD95E"/>
<path d="M2 6.68982L27.8178 20L2 33.3103V6.68982Z" fill="#2C2929"/>
<path d="M9.2936 23.4436C9.2936 23.4436 9.2936 24.7443 9.2936 25.4947C11.078 25.4947 14.5799 24.1274 14.5799 19.7249C14.5799 15.3224 10.8445 14.5052 9.72718 14.5052C8.60992 14.5052 5.15796 15.3057 5.15796 18.9077C5.15796 22.5098 8.54322 22.8433 9.21023 22.8433C9.87724 22.8433 12.3787 22.2429 12.0952 19.5414C12.0952 20.3085 11.2281 21.9261 9.41032 21.9261C7.59263 21.9261 6.4587 20.5753 6.4587 19.2413C6.4587 17.9071 7.55929 16.1228 9.47701 16.1228C11.3947 16.1228 12.7955 17.8237 12.7955 19.5414C12.7955 21.259 11.4448 23.4436 9.2936 23.4436Z" fill="#FCD95E"/>
<path d="M7.73022 20.7734L7.83652 20.8421C7.83652 20.8421 8.68075 18.9161 10.9508 17.5466C10.6631 17.7029 9.14351 18.4596 7.73022 20.7734Z" fill="#FCD95E" stroke="#FCD95E" stroke-width="0.0631579"/>
<path d="M7.94907 20.4421C7.94907 20.4421 7.68646 19.9043 7.91781 19.6667C8.14922 19.429 8.04292 20.2982 8.04292 20.2982L8.14297 20.1544C8.14297 20.1544 7.98659 19.4978 8.16172 19.3602C8.3368 19.2227 8.24926 19.9918 8.24926 19.9918L8.35555 19.8542C8.35555 19.8542 8.24301 19.2164 8.41183 19.0975C8.58071 18.9787 8.47442 19.6979 8.47442 19.6979L8.59947 19.5541C8.59947 19.5541 8.50568 18.9475 8.71202 18.8037C8.91842 18.6598 8.73703 19.379 8.73703 19.379L8.87459 19.2289C8.87459 19.2289 8.81206 18.6723 8.9872 18.5473C9.16227 18.4222 9.01221 19.0725 9.01221 19.0725L9.13726 18.9412C9.13726 18.9412 9.09974 18.4222 9.26857 18.3034C9.43745 18.1845 9.28107 18.7974 9.28107 18.7974L9.41244 18.6723C9.41244 18.6723 9.38118 18.1533 9.59377 18.0532C9.80636 17.9532 9.55625 18.541 9.55625 18.541L9.70006 18.4159C9.70006 18.4159 9.74383 17.8094 9.92522 17.753C10.1065 17.6968 9.84393 18.2909 9.84393 18.2909L9.97524 18.1845C9.97524 18.1845 10.044 17.6655 10.2441 17.603C10.4443 17.5405 10.119 18.0782 10.119 18.0782L10.2504 17.9782C10.2504 17.9782 10.3942 17.4592 10.5818 17.4029C10.7694 17.3466 10.388 17.8907 10.388 17.8907L10.513 17.8031C10.513 17.8031 10.7194 17.3341 10.8882 17.3028C11.0571 17.2715 10.7006 17.6905 10.7006 17.6905L10.857 17.5967C10.857 17.5967 11.1258 17.109 11.2197 17.259C11.3135 17.4091 10.8445 17.628 10.8445 17.628L10.6881 17.7155C10.6881 17.7155 11.2572 17.4467 11.326 17.5842C11.3948 17.7218 10.5443 17.8094 10.5443 17.8094L10.4067 17.9032C10.4067 17.9032 10.9758 17.7468 10.907 17.8907C10.8382 18.0345 10.2754 18.0032 10.2754 18.0032L10.1441 18.097C10.1441 18.097 10.7131 17.9594 10.6381 18.0907C10.563 18.2221 10.0065 18.2095 10.0065 18.2095L9.86894 18.3222C9.86894 18.3222 10.4255 18.1783 10.3442 18.3472C10.2629 18.516 9.63128 18.5097 9.63128 18.5097L9.47497 18.6535C9.47497 18.6535 10.0628 18.4535 10.0128 18.6098C9.96273 18.7662 9.29358 18.8474 9.29358 18.8474L9.14351 18.9975C9.14351 18.9975 9.77509 18.7849 9.58751 18.9787C9.39993 19.1726 8.94343 19.2227 8.94343 19.2227L8.76204 19.4415C8.76204 19.4415 9.38743 19.0663 9.29983 19.2789C9.21229 19.4915 8.59947 19.6354 8.59947 19.6354L8.47442 19.7855C8.47442 19.7855 9.03722 19.4603 8.98094 19.6417C8.92467 19.823 8.32429 20.0168 8.32429 20.0168L8.22425 20.1544C8.22425 20.1544 8.88709 19.7605 8.83082 19.9605C8.77454 20.1607 8.14297 20.3045 8.14297 20.3045L8.06168 20.4295C8.06168 20.4295 8.6745 20.0794 8.68076 20.2482C8.68701 20.417 7.96158 20.5859 7.96158 20.5859L7.94907 20.4421Z" fill="#FCD95E"/>
</g>
</g>
<path d="M11.7035 1.61228C6.53056 2.04084 2.23921 5.77712 1.57724 11.0101C1.25164 13.5841 1 16.6548 1 20C1 23.3452 1.25164 26.4159 1.57724 28.9899C2.23922 34.2229 6.53056 37.9592 11.7035 38.3877C15.5784 38.7087 20.5852 39 26 39C31.4148 39 36.4216 38.7087 40.2965 38.3877C45.4694 37.9592 49.7608 34.2229 50.4228 28.9899C50.7484 26.4159 51 23.3452 51 20C51 16.6548 50.7484 13.5841 50.4228 11.0101C49.7608 5.77712 45.4694 2.04084 40.2965 1.61228C36.4216 1.29127 31.4148 1 26 1C20.5852 1 15.5784 1.29127 11.7035 1.61228Z" stroke="#E6E6FA" stroke-width="2"/>
</g>
<defs>
<clipPath id="clip0_1_31569">
<rect width="52" height="40" fill="white"/>
</clipPath>
<clipPath id="clip1_1_31569">
<rect width="60" height="36" fill="white" transform="translate(2 2)"/>
</clipPath>
</defs>
</svg>
