<svg width="52" height="40" viewBox="0 0 52 40" fill="none" xmlns="http://www.w3.org/2000/svg">
<mask id="mask0_1_36022" style="mask-type:alpha" maskUnits="userSpaceOnUse" x="2" y="2" width="48" height="36">
<path d="M2.56934 11.1356C3.16681 6.41247 7.0415 3.00193 11.7861 2.60887C15.6412 2.28949 20.6196 2 26 2C31.3804 2 36.3588 2.28949 40.2139 2.60887C44.9585 3.00193 48.8332 6.41247 49.4307 11.1356C49.752 13.6759 50 16.704 50 20C50 23.296 49.752 26.3241 49.4307 28.8644C48.8332 33.5875 44.9585 36.9981 40.2139 37.3911C36.3588 37.7105 31.3804 38 26 38C20.6196 38 15.6412 37.7105 11.7861 37.3911C7.0415 36.9981 3.16681 33.5875 2.56934 28.8644C2.248 26.3241 2 23.296 2 20C2 16.704 2.248 13.6759 2.56934 11.1356Z" fill="#00D0BF"/>
</mask>
<g mask="url(#mask0_1_36022)">
<rect x="2" y="14" width="48" height="12" fill="#2E50A6"/>
<g clip-path="url(#clip0_1_36022)">
<path d="M62 2H2V20H62V2Z" fill="#EE5757"/>
<path d="M62 20H2V38H62V20Z" fill="#2E50A6"/>
<path d="M2 2L36.9145 20L2 38V2Z" fill="white"/>
<path d="M62 15H2V25H62V15Z" fill="white"/>
<path d="M2 4.55804L31.9527 20L2 35.4419V4.55804Z" fill="#1C6864"/>
<path d="M62 17H2V23H62V17Z" fill="#1C6864"/>
<path d="M2.49614 11.1318L1 10.2768V12V28V29.7232L2.49614 28.8682L16.4961 20.8682L18.0156 20L16.4961 19.1318L2.49614 11.1318Z" fill="#2C2929" stroke="#FCD95E" stroke-width="2"/>
</g>
</g>
<path d="M11.7035 1.61228C6.53056 2.04084 2.23921 5.77712 1.57724 11.0101C1.25164 13.5841 1 16.6548 1 20C1 23.3452 1.25164 26.4159 1.57724 28.9899C2.23922 34.2229 6.53056 37.9592 11.7035 38.3877C15.5784 38.7087 20.5852 39 26 39C31.4148 39 36.4216 38.7087 40.2965 38.3877C45.4694 37.9592 49.7608 34.2229 50.4228 28.9899C50.7484 26.4159 51 23.3452 51 20C51 16.6548 50.7484 13.5841 50.4228 11.0101C49.7608 5.77712 45.4694 2.04084 40.2965 1.61228C36.4216 1.29127 31.4148 1 26 1C20.5852 1 15.5784 1.29127 11.7035 1.61228Z" stroke="#E6E6FA" stroke-width="2"/>
<defs>
<clipPath id="clip0_1_36022">
<rect width="60" height="36" fill="white" transform="translate(2 2)"/>
</clipPath>
</defs>
</svg>
