<svg width="52" height="40" viewBox="0 0 52 40" fill="none" xmlns="http://www.w3.org/2000/svg">
<g clip-path="url(#clip0_1_31950)">
<mask id="mask0_1_31950" style="mask-type:alpha" maskUnits="userSpaceOnUse" x="2" y="2" width="48" height="36">
<path d="M2.56934 11.1356C3.16681 6.41247 7.0415 3.00193 11.7861 2.60887C15.6412 2.28949 20.6196 2 26 2C31.3804 2 36.3588 2.28949 40.2139 2.60887C44.9585 3.00193 48.8332 6.41247 49.4307 11.1356C49.752 13.6759 50 16.704 50 20C50 23.296 49.752 26.3241 49.4307 28.8644C48.8332 33.5875 44.9585 36.9981 40.2139 37.3911C36.3588 37.7105 31.3804 38 26 38C20.6196 38 15.6412 37.7105 11.7861 37.3911C7.0415 36.9981 3.16681 33.5875 2.56934 28.8644C2.248 26.3241 2 23.296 2 20C2 16.704 2.248 13.6759 2.56934 11.1356Z" fill="#00D0BF"/>
</mask>
<g mask="url(#mask0_1_31950)">
<path d="M2 2H50V38H2V2Z" fill="#59C785"/>
<path d="M46.2188 9.32098C46.2188 9.32098 48.5634 8.40206 48.7906 8.21259C48.8939 8.32627 47.8507 9.48204 45.8263 9.90834C47.6648 9.51045 49.2348 8.25995 49.555 8.29784C49.6479 8.31679 49.6272 9.51993 45.4131 10.562C48.3258 9.86097 50.0197 8.57258 49.9991 8.71468C50.0197 8.7431 49.7099 9.72834 47.1587 10.4957C47.8714 10.3441 49.8029 9.26414 49.7822 9.47256C49.8442 9.55782 47.9127 11.8314 44.4216 11.0925C47.2104 11.7557 49.0178 10.1546 49.2761 10.1831C49.3277 10.1925 48.7596 11.5851 45.2479 11.6704C46.9315 11.5094 46.446 11.6609 46.446 11.6609C46.446 11.6609 45.4544 12.3714 44.2563 11.8883C45.1962 12.1252 45.2995 12.1346 45.3202 12.2104C45.2582 12.3051 44.4835 12.4472 43.7399 12.0777C44.3389 12.3051 44.876 12.343 44.8863 12.4283C44.876 12.4567 44.4939 12.6557 44.1531 12.5136C43.8122 12.3714 40.6722 10.5999 40.6722 10.5999L46.0226 9.25467L46.2188 9.32098Z" fill="#FFA654" stroke="#2C2929" stroke-width="0.0613415" stroke-linecap="round" stroke-linejoin="round"/>
<path d="M39.9289 14.113C39.4584 14.113 39.4454 14.497 39.4454 14.497C39.4454 14.497 39.4066 14.5247 39.4325 14.7108C39.5102 14.5841 39.549 14.5445 39.549 14.5445C39.6009 14.5524 39.8167 14.6118 40.1577 14.3664C39.8468 14.6633 40.0325 14.7741 40.0325 14.7741C40.0325 14.7741 39.9591 15.0077 40.1965 15.0552C40.1231 14.9602 40.1663 14.8771 40.1663 14.8771C40.1663 14.8771 40.4987 14.8454 40.4771 14.4733C40.4901 14.8097 40.6886 14.8929 40.6886 14.8929C40.6886 14.8929 40.6886 15.0789 40.9044 15.0948C40.7879 14.9998 40.8137 14.8533 40.8137 14.8533C40.8137 14.8533 41.0943 14.6672 40.8569 14.3505C40.9994 14.2752 41.1159 14.0655 41.1159 14.0655C41.1159 14.0655 40.9217 13.9902 40.831 13.9269C40.7878 13.8437 40.8267 13.3884 40.8267 13.3884L40.7102 12.7985L40.3778 13.7171C40.3907 13.5864 40.3994 14.113 39.9289 14.113Z" fill="#FFA654" stroke="#2C2929" stroke-width="0.0613415" stroke-linecap="round" stroke-linejoin="round"/>
<path d="M42.2526 12.7882C42.2629 12.7977 42.6038 13.1483 42.9343 13.1293C43.0582 13.0346 42.6761 12.8261 42.6761 12.7788C42.8103 12.8925 43.3784 13.3377 43.7399 13.1767C43.8845 12.9872 43.4817 13.0156 43.0376 12.504C43.3474 12.6935 44.1221 13.1103 44.4836 12.9493C44.6386 12.7977 43.6779 12.324 43.3577 11.9546L42.5315 11.5662L41.4056 12.4093L42.2526 12.7882Z" fill="#FFA654" stroke="#2C2929" stroke-width="0.0613415" stroke-linecap="round" stroke-linejoin="round"/>
<path d="M40.9822 9.90834C40.9822 9.90834 41.3643 9.69993 42.893 9.80414C43.0583 9.82308 43.9362 9.52941 44.2151 9.44415C44.6592 9.36836 46.0742 9.08415 46.4564 8.81889C46.7249 8.79048 46.384 9.27362 46.0433 9.3873C45.6817 9.53888 44.37 9.95571 43.9052 9.89887C44.4629 9.90835 44.1531 10.3252 43.2235 10.1262C43.6676 10.3536 43.5024 10.3915 43.5024 10.3915C43.5024 10.3915 42.7174 10.4294 42.5108 10.2683C43.0376 10.4483 42.8207 10.5146 42.8207 10.5146C42.8207 10.5146 42.2836 10.562 42.0357 10.4578C42.4178 10.562 42.2216 10.6283 42.2216 10.6283C42.2216 10.6283 41.9118 10.6757 41.6535 10.5904C41.3953 10.5052 41.0028 9.90834 40.9822 9.90834Z" fill="#FFA654" stroke="#2C2929" stroke-width="0.0613415" stroke-linecap="round" stroke-linejoin="round"/>
<path d="M41.5951 12.9846L41.6513 13.911C41.6513 13.911 41.6211 13.9586 41.5951 13.9863C41.5692 14.014 40.8786 13.8873 40.9736 14.3703C40.9736 14.5683 40.9779 14.6197 41.1247 14.7306C41.0858 14.5999 41.0988 14.5089 41.0988 14.5089C41.0988 14.5089 41.293 14.6158 41.4829 14.3228C41.3534 14.6118 41.444 14.7147 41.4743 14.7227C41.5045 14.7742 41.4225 15.0077 41.6815 15.0037C41.5822 14.9166 41.6297 14.7899 41.6297 14.7899C41.6297 14.7899 41.9016 14.7504 41.8067 14.299C41.906 14.208 41.9448 14.2951 41.9448 14.2951C41.9448 14.2951 41.975 14.5643 42.2124 14.5089C42.3204 14.5643 42.1952 14.7108 42.1952 14.7108C42.1952 14.7108 42.3678 14.7147 42.4196 14.5801C42.4714 14.4455 42.5318 14.204 42.2469 14.105C42.2124 14.01 42.3592 14.0021 42.3592 14.0021C42.3592 14.0021 42.5405 14.0575 42.5922 14.1407C42.6441 14.2238 42.6268 13.9229 42.4023 13.8912C42.1261 13.8833 42.1088 13.8319 42.1088 13.82C42.1088 13.8081 42.0614 13.147 42.0398 12.9569L41.5951 12.9846Z" fill="#FFA654" stroke="#2C2929" stroke-width="0.0613415" stroke-linecap="round" stroke-linejoin="round"/>
<path d="M42.5559 13.7741C42.5593 13.7317 42.0846 13.1455 42.205 13.0697C42.3254 13.0924 42.5228 13.3591 42.6827 13.2725C42.6342 13.1686 42.4914 13.2271 42.3291 12.9611C42.167 12.6603 42.1433 12.2088 41.5752 11.7163C41.943 12.2375 42.7773 12.543 42.8126 12.391C42.8479 12.239 42.078 11.6644 42.1174 11.5259C42.2705 11.8103 43.0436 12.444 43.6133 12.3916C43.6523 12.2695 43.1468 12.0233 43.0167 11.7933C42.6528 11.5691 41.6791 10.7993 41.6596 10.6207C41.3052 10.1467 41.084 10.0033 40.981 9.94874C40.9412 9.90573 40.9312 9.86461 40.9234 9.83847C40.7035 9.36284 40.9948 9.2084 41.1653 9.18556C41.3057 9.17125 41.3464 9.19052 41.4474 9.14567C41.3278 9.10276 41.2083 9.06263 41.0888 9.01972C41.2447 9.12461 41.6429 9.03227 41.5566 9.33437C41.7311 9.27345 42.1026 8.86807 41.1355 8.77658C40.8208 8.44542 39.5268 8.25509 39.2029 9.70046C39.2287 9.72073 39.2423 9.73738 39.3246 9.79376C38.916 9.61209 37.8136 9.472 37.4164 9.41313C36.3432 9.12914 35.2287 8.44476 35.1216 8.52892C34.9783 8.58726 35.77 9.26282 35.7288 9.27778C35.0424 8.91066 34.4153 8.65057 33.8317 8.41389C33.4212 8.27315 33.0101 7.94546 32.9647 8.0078C32.8136 8.29485 33.6229 9.01642 33.7734 9.1013C33.924 9.18249 35.1078 9.68618 35.0904 9.69247C33.3072 8.95013 33.0083 8.81556 32.9188 8.72997C32.7616 8.6975 32.3788 8.22339 32.2721 8.25387C32.2137 8.30651 32.3308 9.05564 33.1817 9.39192C33.3204 9.48463 35.0056 10.0391 34.9891 10.0826C34.985 10.0935 33.059 9.35348 32.9841 9.32702C32.6128 9.19346 32.1571 8.72531 32.072 8.77796C31.9907 8.82573 32.282 9.33244 32.6572 9.49137C32.8539 9.57098 33.6084 9.9137 34.2881 10.1318C34.3314 10.1462 33.0663 9.69179 32.458 9.45865C32.1822 9.31826 32.0523 9.14326 32.0103 9.18091C31.9482 9.21856 32.1107 9.96709 34.0654 10.3895C34.1169 10.4096 34.7535 10.2511 34.722 10.2722C34.7141 10.2774 34.0899 10.4021 34.0291 10.3978C33.975 10.3902 33.633 10.4349 33.6269 10.4512C33.6062 10.5018 33.7508 10.7698 34.76 10.714C34.889 10.7068 35.5892 10.4801 35.5304 10.5289C35.501 10.5533 34.5769 10.8287 34.5066 10.8341C34.4454 10.842 34.1208 10.8731 34.1088 10.9048C34.0942 10.948 34.3491 11.1388 34.8911 11.1693C35.371 11.1927 36.2828 10.9004 36.2646 10.9193C36.2463 10.9383 35.3855 11.2088 35.363 11.2253C35.3318 11.2415 35.0166 11.2571 35.0056 11.2793C34.9799 11.3346 35.4602 11.7466 36.8809 11.3069C36.7382 11.4837 36.0496 11.6046 36.0505 11.6365C36.0473 11.6596 36.2023 11.7968 36.443 11.846C36.5634 11.8705 36.7282 11.8655 36.8787 11.8437C37.1491 11.794 37.4341 11.6959 37.7961 11.389C37.8394 11.4853 36.8917 11.9252 36.9362 11.9672C37.1417 12.142 37.8243 11.9446 37.869 11.9217C37.9138 11.8988 39.1835 11.2421 39.1791 11.1661C39.1989 11.2635 37.5421 12.0891 37.56 12.123C37.6663 12.2787 38.2323 12.1148 38.2593 12.1005C38.2863 12.0863 38.9816 11.7418 39.0007 11.7316C39.0197 11.7214 38.1835 12.1805 38.258 12.2503C38.222 12.5484 39.5639 12.0446 39.669 11.9819C39.7216 11.9505 39.0244 12.263 39.0226 12.4115C39.2471 12.7596 39.9659 12.6492 40.0768 12.5726C40.1323 12.5343 40.0116 12.8313 40.0505 12.8043C40.064 12.7987 40.2068 12.6438 40.2617 12.5317C40.2442 12.629 40.1654 12.7822 40.1194 12.958C40.0734 13.1339 40.0602 13.3323 39.997 13.543C39.9825 13.6356 40.44 13.362 40.3735 12.708C40.4127 13.0482 40.2291 13.6843 40.2771 13.7174C40.3732 13.7835 40.6389 13.4006 40.6658 13.1416C40.7447 13.2724 40.9102 13.5455 41.0527 13.6083C41.0372 13.4104 41.0554 13.4195 40.9913 13.225C41.0283 12.9668 41.0334 12.6094 41.0424 12.2059C41.4295 12.8861 41.5839 13.1733 41.4757 13.6941C41.5909 13.7381 41.7747 13.3306 41.7599 13.1208C41.9077 13.7037 42.5457 13.7911 42.5559 13.7741Z" fill="#FFA654" stroke="#2C2929" stroke-width="0.0613415" stroke-linecap="round" stroke-linejoin="round"/>
<path d="M36.1083 9.45599C36.1083 9.45599 35.8448 9.63858 35.517 9.62784C35.5989 9.92857 36.2781 9.69766 36.2781 9.69766C36.2781 9.69766 35.9502 10.0306 35.716 10.0843C35.8566 10.1917 36.4479 10.1541 36.5475 10.1004C36.647 10.0467 36.8226 9.83728 36.8226 9.83728C36.8226 9.83728 36.2137 10.4817 36.1259 10.4763C36.1142 10.5515 36.7641 10.5247 36.8988 10.4119C37.0334 10.2991 37.373 10.1326 37.373 10.1326C37.373 10.1326 36.483 10.7019 36.442 10.7019C36.7758 10.7824 37.4433 10.6052 37.8707 10.3636C37.2383 10.7502 37.1798 10.82 36.8578 10.9489C37.1447 11.008 37.291 11.1852 38.263 10.7985C38.8192 10.5569 39.1353 10.1165 39.1353 10.1165C38.7899 10.5408 38.2454 10.9006 37.6424 11.255C37.6072 11.3194 38.2864 11.5826 39.1529 10.7556" fill="#FFA654"/>
<path d="M36.1083 9.45599C36.1083 9.45599 35.8448 9.63858 35.517 9.62784C35.5989 9.92857 36.2781 9.69766 36.2781 9.69766C36.2781 9.69766 35.9502 10.0306 35.716 10.0843C35.8566 10.1917 36.4479 10.1541 36.5475 10.1004C36.647 10.0467 36.8226 9.83728 36.8226 9.83728C36.8226 9.83728 36.2137 10.4817 36.1259 10.4763C36.1142 10.5515 36.7641 10.5247 36.8988 10.4119C37.0334 10.2991 37.373 10.1326 37.373 10.1326C37.373 10.1326 36.483 10.7019 36.442 10.7019C36.7758 10.7824 37.4433 10.6052 37.8707 10.3636C37.2383 10.7502 37.1798 10.82 36.8578 10.9489C37.1447 11.008 37.291 11.1852 38.263 10.7985C38.8192 10.5569 39.1353 10.1165 39.1353 10.1165C38.7899 10.5408 38.2454 10.9006 37.6424 11.255C37.6072 11.3194 38.2864 11.5826 39.1529 10.7556" stroke="#2C2929" stroke-width="0.0613415" stroke-linecap="round" stroke-linejoin="round"/>
<path d="M40.8157 11.2496C40.8157 11.2496 40.8742 11.502 41.1084 11.6954C41.3426 11.8887 41.3602 12.0766 41.3602 12.0766" fill="#FFA654"/>
<path d="M40.8157 11.2496C40.8157 11.2496 40.8742 11.502 41.1084 11.6954C41.3426 11.8887 41.3602 12.0766 41.3602 12.0766" stroke="#2C2929" stroke-width="0.0613415" stroke-linecap="round" stroke-linejoin="round"/>
<path d="M40.6987 9.60638C40.6987 9.60638 40.7807 9.83193 41.0207 9.97692C41.2667 10.1219 41.6356 10.5784 41.6648 10.6589C41.6931 10.7564 41.8346 11.4591 41.8229 11.5343" fill="#FFA654"/>
<path d="M40.6987 9.60638C40.6987 9.60638 40.7807 9.83193 41.0207 9.97692C41.2667 10.1219 41.6356 10.5784 41.6648 10.6589C41.6931 10.7564 41.8346 11.4591 41.8229 11.5343" stroke="#2C2929" stroke-width="0.0613415" stroke-linecap="round" stroke-linejoin="round"/>
<path d="M39.2057 9.95532C39.2233 10.0412 38.8602 10.4762 39.3579 10.9864C38.9071 11.4912 38.9071 11.5556 38.9071 11.5556C38.9071 11.5556 39.1588 11.6845 39.6097 11.3301C40.3532 12.1678 40.1055 12.5512 40.1055 12.5512" fill="#FFA654"/>
<path d="M39.2057 9.95532C39.2233 10.0412 38.8602 10.4762 39.3579 10.9864C38.9071 11.4912 38.9071 11.5556 38.9071 11.5556C38.9071 11.5556 39.1588 11.6845 39.6097 11.3301C40.3532 12.1678 40.1055 12.5512 40.1055 12.5512" stroke="#2C2929" stroke-width="0.0613415" stroke-linecap="round" stroke-linejoin="round"/>
<path d="M40.0461 11.9599C40.0461 11.9599 39.9776 11.8699 40.0997 11.5338C40.2097 11.6553 40.332 11.6812 40.3856 11.7304C40.4391 11.7796 41.0006 11.8541 41.0363 12.1983" fill="#FFA654"/>
<path d="M40.0461 11.9599C40.0461 11.9599 39.9776 11.8699 40.0997 11.5338C40.2097 11.6553 40.332 11.6812 40.3856 11.7304C40.4391 11.7796 41.0006 11.8541 41.0363 12.1983" stroke="#2C2929" stroke-width="0.0613415" stroke-linecap="round" stroke-linejoin="round"/>
<path d="M40.7062 8.80553C40.7062 8.78025 40.5931 8.55776 40.1714 8.83587C40.3974 8.84851 40.6207 8.96734 40.7062 8.80553Z" fill="#FFA654" stroke="#2C2929" stroke-width="0.0613415" stroke-linecap="round" stroke-linejoin="round"/>
<path d="M44.7315 9.823C44.7521 9.83247 45.9916 10.0788 46.4047 9.95563C45.878 10.5998 44.8244 10.164 44.8244 10.164C45.3408 10.3061 45.3615 10.2967 45.5268 10.4293C45.5784 10.5525 44.5765 10.4956 44.246 10.3251C45.1653 10.5904 45.1859 10.5714 45.2169 10.6756C45.2583 10.8177 43.7089 10.6377 43.5746 10.4482C43.9878 10.7419 44.215 10.7988 44.4423 10.9314C44.1634 11.0451 43.647 11.1587 42.6967 10.543C43.9464 11.5851 45.0723 11.5187 45.2479 11.7082C44.8141 12.2956 43.1305 11.3577 42.3558 10.884C41.5812 10.4104 44.0498 12.0303 44.277 12.0019C44.1634 12.1629 43.3474 12.0208 43.2958 11.9451" fill="#FFA654"/>
<path d="M44.7315 9.823C44.7521 9.83247 45.9916 10.0788 46.4047 9.95563C45.878 10.5998 44.8244 10.164 44.8244 10.164C45.3408 10.3061 45.3615 10.2967 45.5268 10.4293C45.5784 10.5525 44.5765 10.4956 44.246 10.3251C45.1653 10.5904 45.1859 10.5714 45.2169 10.6756C45.2583 10.8177 43.7089 10.6377 43.5746 10.4482C43.9878 10.7419 44.215 10.7988 44.4423 10.9314C44.1634 11.0451 43.647 11.1587 42.6967 10.543C43.9464 11.5851 45.0723 11.5187 45.2479 11.7082C44.8141 12.2956 43.1305 11.3577 42.3558 10.884C41.5812 10.4104 44.0498 12.0303 44.277 12.0019C44.1634 12.1629 43.3474 12.0208 43.2958 11.9451" stroke="#2C2929" stroke-width="0.0613415" stroke-linecap="round" stroke-linejoin="round"/>
<path d="M45.0516 10.9125C44.907 10.9315 44.4732 10.9315 44.4113 10.922L45.0516 10.9125Z" fill="#FFA654"/>
<path d="M45.0516 10.9125C44.907 10.9315 44.4732 10.9315 44.4113 10.922" stroke="#2C2929" stroke-width="0.0613415" stroke-linecap="round" stroke-linejoin="round"/>
<path d="M35.7454 9.28406C35.7454 9.28406 36.688 9.74052 37.0861 9.7083C36.9808 9.79959 36.8226 9.83718 36.8226 9.83718C36.9222 9.87478 37.1974 10.009 37.6131 9.9231C37.5136 10.0144 37.3847 10.1164 37.3847 10.1164C37.3847 10.1164 37.7419 10.2399 38.1459 10.0466C38.023 10.1862 37.9527 10.2883 37.9527 10.2883L38.2337 10.3044" fill="#FFA654"/>
<path d="M35.7454 9.28406C35.7454 9.28406 36.688 9.74052 37.0861 9.7083C36.9808 9.79959 36.8226 9.83718 36.8226 9.83718C36.9222 9.87478 37.1974 10.009 37.6131 9.9231C37.5136 10.0144 37.3847 10.1164 37.3847 10.1164C37.3847 10.1164 37.7419 10.2399 38.1459 10.0466C38.023 10.1862 37.9527 10.2883 37.9527 10.2883L38.2337 10.3044" stroke="#2C2929" stroke-width="0.0613415" stroke-linecap="round" stroke-linejoin="round"/>
<rect x="32" y="18" width="6" height="20" fill="#EE5757"/>
<rect x="38" y="18" width="6" height="20" fill="#2C2929"/>
<rect x="44" y="18" width="6" height="20" fill="#FFA654"/>
</g>
<path d="M11.7035 1.61228C6.53056 2.04084 2.23921 5.77712 1.57724 11.0101C1.25164 13.5841 1 16.6548 1 20C1 23.3452 1.25164 26.4159 1.57724 28.9899C2.23922 34.2229 6.53056 37.9592 11.7035 38.3877C15.5784 38.7087 20.5852 39 26 39C31.4148 39 36.4216 38.7087 40.2965 38.3877C45.4694 37.9592 49.7608 34.2229 50.4228 28.9899C50.7484 26.4159 51 23.3452 51 20C51 16.6548 50.7484 13.5841 50.4228 11.0101C49.7608 5.77712 45.4694 2.04084 40.2965 1.61228C36.4216 1.29127 31.4148 1 26 1C20.5852 1 15.5784 1.29127 11.7035 1.61228Z" stroke="#E6E6FA" stroke-width="2"/>
</g>
<defs>
<clipPath id="clip0_1_31950">
<rect width="52" height="40" fill="white"/>
</clipPath>
</defs>
</svg>
