<svg width="52" height="40" viewBox="0 0 52 40" fill="none" xmlns="http://www.w3.org/2000/svg">
<g clip-path="url(#clip0_1_31588)">
<mask id="mask0_1_31588" style="mask-type:alpha" maskUnits="userSpaceOnUse" x="2" y="2" width="48" height="36">
<path d="M2.56934 11.1356C3.16681 6.41247 7.0415 3.00193 11.7861 2.60887C15.6412 2.28949 20.6196 2 26 2C31.3804 2 36.3588 2.28949 40.2139 2.60887C44.9585 3.00193 48.8332 6.41247 49.4307 11.1356C49.752 13.6759 50 16.704 50 20C50 23.296 49.752 26.3241 49.4307 28.8644C48.8332 33.5875 44.9585 36.9981 40.2139 37.3911C36.3588 37.7105 31.3804 38 26 38C20.6196 38 15.6412 37.7105 11.7861 37.3911C7.0415 36.9981 3.16681 33.5875 2.56934 28.8644C2.248 26.3241 2 23.296 2 20C2 16.704 2.248 13.6759 2.56934 11.1356Z" fill="#00D0BF"/>
</mask>
<g mask="url(#mask0_1_31588)">
<rect x="2" y="2" width="48" height="36" fill="#1C6864"/>
<rect x="2" y="28" width="48" height="5" fill="#FCD95E"/>
<rect x="2" y="23" width="48" height="5" fill="#EE5757"/>
<rect x="2" y="17" width="48" height="6" fill="#2C2929"/>
<rect x="2" y="12" width="48" height="5" fill="#EE5757"/>
<rect x="2" y="7" width="48" height="5" fill="#FCD95E"/>
<path d="M1 0L24 20L1 40V0Z" fill="white" stroke="#2C2929"/>
<path d="M10.2195 13.7208L14.0634 25.551L4 18.2396H16.439L6.37562 25.551L10.2195 13.7208Z" fill="#D40000"/>
<path d="M8.57331 24.065L9.2526 23.9415L10.5123 23.8921L10.9755 23.9353L12.0129 24.1082L12.0932 24.0033V23.2561L12.2106 22.6138L12.4267 21.9593L12.6489 21.4405L12.9392 20.9033L13.4147 21.0207H13.5382L13.5506 20.928L12.5563 20.0758L11.5127 19.2792L10.0121 18.1553L9.87629 18.1183L9.70958 16.945L9.59222 16.5869L9.43789 16.451L9.13523 16.3522L8.80181 16.3646L8.65362 16.451L8.33248 16.5251L8.16577 16.5498L8.0546 16.6795L8.04226 16.8462L8.50539 16.8586L8.62275 16.908L8.61037 16.9573L8.34487 16.9944L8.22136 17.0315L8.36954 17.1426L8.51777 17.1982L8.71535 17.2723L8.75241 17.402L8.77089 19.199L8.66596 19.4769L8.6289 19.9956L8.78328 20.6193L8.39422 21.0577L8.17811 21.4529L8.14105 21.6999L8.02373 21.9407L8.00525 22.0951L8.08551 22.2557L8.38188 23.2437L8.53626 24.0526L8.57331 24.065Z" fill="#FFCC00"/>
<path d="M8.93276 16.3203C8.81391 16.3202 8.75685 16.3407 8.63907 16.4047C8.53279 16.4625 8.40665 16.5009 8.3207 16.5009C8.14595 16.5009 8.00488 16.6263 8.00488 16.7829V16.8869L8.25962 16.879C8.98968 16.9035 8.32315 16.9708 8.27001 16.9805C8.08875 17.0133 8.31021 17.1612 8.52341 17.2326C8.75283 17.3094 8.74303 17.2649 8.74303 18.2709C8.74303 19.0969 8.73587 19.2138 8.67284 19.4041C8.58034 19.6836 8.58034 20.0989 8.67284 20.3723C8.71027 20.4827 8.74109 20.5858 8.74174 20.601C8.74238 20.6163 8.63371 20.7514 8.50003 20.9012C8.2586 21.1719 8.11014 21.4623 8.11014 21.6653C8.11014 21.7121 8.07863 21.791 8.03995 21.8421C7.95077 21.9599 7.94823 22.1628 8.03478 22.2398C8.12456 22.3196 8.49513 23.7502 8.4961 24.0201C8.49647 24.1186 8.51408 24.118 9.07701 24.0046C9.5315 23.913 10.6059 23.8936 11.1498 23.9669C11.4011 24.0008 11.6933 24.0501 11.7996 24.0773C12.1344 24.1633 12.1159 24.181 12.1167 23.7771C12.1179 23.1527 12.2317 22.5589 12.4728 21.924C12.5824 21.6351 12.8707 21.0485 12.9471 20.9584C12.9547 20.9495 13.0774 20.9722 13.22 21.0091C13.5117 21.0846 13.5917 21.0705 13.5917 20.9441C13.5917 20.8717 13.294 20.6235 11.836 19.4821C10.8536 18.713 10.0478 18.1072 10.0075 18.1072C9.96788 18.1072 9.92782 18.0868 9.91913 18.0617C9.91049 18.0366 9.86414 17.7393 9.81516 17.4002C9.76619 17.0611 9.70006 16.7264 9.66832 16.6569C9.57554 16.4536 9.38346 16.3459 9.07701 16.3255C9.029 16.3221 8.98089 16.3204 8.93276 16.3203ZM8.94315 16.393C8.98141 16.3926 9.02448 16.3942 9.07701 16.397C9.53732 16.4211 9.62438 16.5481 9.74498 17.3664C9.79183 17.684 9.83037 17.9777 9.83078 18.0201C9.83134 18.0752 9.76734 18.1403 9.60594 18.2488C9.3683 18.4086 9.06158 18.6999 8.91196 18.9064L8.82232 19.0286L8.80541 18.7413C8.79557 18.5835 8.79557 18.215 8.80541 17.9226C8.82579 17.3183 8.80994 17.2586 8.6118 17.1923C8.44999 17.1381 8.23882 17.0798 8.3012 17.0428C8.36927 17.0024 8.43225 17.0313 8.60524 16.9883C8.66656 16.973 8.66323 16.9756 8.65334 16.9232C8.6356 16.829 8.54356 16.7857 8.283 16.7998C8.07835 16.8109 8.0521 16.8055 8.06597 16.7504C8.09401 16.639 8.20981 16.5658 8.38174 16.549C8.47434 16.5399 8.60936 16.4989 8.68324 16.458C8.76503 16.4128 8.82847 16.3944 8.94315 16.393ZM9.97375 18.1864C9.9834 18.1863 9.99246 18.1864 10.001 18.1877C10.119 18.2062 13.5215 20.8665 13.5215 20.9402C13.5215 20.9693 13.4942 20.9927 13.4605 20.9922C13.4266 20.9917 12.5606 20.7464 11.5371 20.4477C9.90139 19.9703 9.66619 19.8923 9.59554 19.807C9.49518 19.6857 9.49186 19.5006 9.58644 19.3755C9.62512 19.3245 9.65663 19.2617 9.65663 19.2352C9.65663 19.1543 9.48322 19.3605 9.44999 19.4808C9.41118 19.6214 9.48349 19.8568 9.58908 19.9331C9.63075 19.9632 9.94256 20.0703 10.2817 20.1709C10.8606 20.3424 10.8995 20.3609 10.9302 20.4568C11.004 20.6869 10.7609 20.9539 10.4091 21.0299C10.2956 21.0544 10.1514 21.1211 10.0517 21.1962C9.65557 21.4947 9.37971 21.671 9.14849 21.7706C9.01255 21.8292 8.88119 21.8954 8.85739 21.9188C8.8336 21.9422 8.7989 22.0486 8.77944 22.1553C8.73809 22.3818 8.72058 22.4165 8.65339 22.4165C8.61448 22.4165 8.61097 22.3962 8.63777 22.323C8.68721 22.1879 8.68181 22.0149 8.62738 22.0149C8.59859 22.0149 8.58062 22.063 8.58062 22.1436C8.58062 22.2139 8.56075 22.2913 8.5351 22.3164C8.49657 22.3542 8.49167 22.3263 8.50784 22.1527C8.51851 22.0372 8.51385 21.9422 8.49744 21.9422C8.46588 21.9422 8.40397 22.1172 8.38174 22.271C8.36876 22.3611 8.36797 22.3604 8.33886 22.2541C8.31617 22.171 8.32717 22.1153 8.38567 22.0097C8.42735 21.9344 8.46237 21.8249 8.46237 21.7654C8.46237 21.6759 8.52831 21.5893 8.85222 21.2612C9.06722 21.0434 9.31752 20.7731 9.40841 20.6608C9.56565 20.4664 9.57392 20.4458 9.56828 20.2488C9.565 20.135 9.55183 20.0328 9.53963 20.0201C9.4986 19.9774 9.44389 20.1975 9.46561 20.3177C9.4852 20.4265 9.46496 20.4635 9.23818 20.731C9.10127 20.8924 8.86876 21.1359 8.72224 21.2729C8.45235 21.5253 8.35577 21.6617 8.35577 21.7901C8.35577 21.8291 8.32551 21.9322 8.28817 22.0188C8.25084 22.1055 8.23023 22.1941 8.24141 22.2151C8.25389 22.2385 8.24502 22.237 8.21933 22.2125C8.18888 22.1834 8.18643 22.1296 8.21152 22.0136C8.23046 21.9262 8.23822 21.8417 8.22843 21.8252C8.19072 21.7618 8.14655 21.8432 8.12446 22.0162C8.1118 22.1155 8.08805 22.1882 8.07119 22.1774C8.02036 22.1447 8.03639 21.9641 8.09845 21.872C8.13047 21.8245 8.17039 21.7114 8.18684 21.6199C8.23296 21.3631 8.3433 21.1593 8.58838 20.8817C8.71193 20.7418 8.81322 20.6221 8.81322 20.6153C8.81322 20.6085 8.78027 20.5052 8.74044 20.3866C8.64831 20.1122 8.64221 19.6945 8.72612 19.4405C8.81461 19.1729 8.99689 18.9079 9.28494 18.6283C9.56375 18.3577 9.82866 18.1888 9.97375 18.1864ZM11.0147 20.4165C11.0232 20.4156 11.0318 20.4159 11.0401 20.4175C11.0483 20.419 11.056 20.4217 11.0625 20.4254C11.0691 20.4291 11.0743 20.4337 11.0779 20.4389C11.0816 20.4441 11.0835 20.4498 11.0835 20.4555C11.0817 20.4651 11.0747 20.4739 11.0638 20.4803C11.0529 20.4867 11.0389 20.4903 11.0244 20.4903C11.0099 20.4903 10.9958 20.4867 10.9849 20.4803C10.9741 20.4739 10.9671 20.4651 10.9652 20.4555C10.9653 20.4461 10.9703 20.4371 10.9793 20.43C10.9884 20.4228 11.0009 20.4181 11.0147 20.4165ZM11.1862 20.4386C11.1866 20.4386 11.1871 20.4386 11.1875 20.4386C11.1962 20.4375 11.2052 20.4378 11.2138 20.4393C11.2223 20.4409 11.2303 20.4437 11.237 20.4475C11.2437 20.4514 11.2491 20.4562 11.2527 20.4616C11.2562 20.4671 11.258 20.4729 11.2577 20.4788C11.2577 20.4894 11.2514 20.4996 11.2402 20.507C11.229 20.5145 11.2138 20.5187 11.1979 20.5187C11.182 20.5187 11.1668 20.5145 11.1556 20.507C11.1444 20.4996 11.1381 20.4894 11.1381 20.4788C11.1376 20.4694 11.1422 20.4602 11.151 20.4528C11.1599 20.4454 11.1723 20.4404 11.1862 20.4386ZM11.3682 20.4724C11.3703 20.4723 11.3725 20.4723 11.3746 20.4724C11.3829 20.472 11.3911 20.4728 11.3989 20.4746C11.4066 20.4765 11.4137 20.4794 11.4197 20.4832C11.4257 20.487 11.4304 20.4915 11.4336 20.4966C11.4368 20.5017 11.4384 20.5071 11.4383 20.5126C11.4365 20.5222 11.4294 20.531 11.4186 20.5374C11.4077 20.5438 11.3937 20.5473 11.3792 20.5473C11.3647 20.5473 11.3507 20.5438 11.3398 20.5374C11.3289 20.531 11.3219 20.5222 11.3201 20.5126C11.3196 20.5032 11.3242 20.494 11.333 20.4866C11.3418 20.4792 11.3543 20.4742 11.3681 20.4724H11.3682ZM11.5319 20.5061C11.5345 20.506 11.5371 20.506 11.5397 20.5061C11.548 20.5057 11.5562 20.5065 11.564 20.5084C11.5718 20.5102 11.5789 20.5132 11.5848 20.517C11.5908 20.5208 11.5956 20.5253 11.5987 20.5304C11.6019 20.5355 11.6035 20.5409 11.6034 20.5464C11.6029 20.5568 11.5964 20.5667 11.5853 20.5739C11.5741 20.5812 11.5592 20.5852 11.5436 20.5852C11.528 20.5852 11.5131 20.5812 11.5019 20.5739C11.4907 20.5667 11.4843 20.5568 11.4838 20.5464C11.4834 20.537 11.4879 20.5278 11.4967 20.5204C11.5055 20.513 11.518 20.508 11.5319 20.5062V20.5061ZM11.0952 20.5464C11.0957 20.5464 11.0961 20.5464 11.0965 20.5464C11.1053 20.5454 11.1142 20.5456 11.1228 20.5472C11.1314 20.5487 11.1393 20.5516 11.146 20.5554C11.1528 20.5593 11.1581 20.5641 11.1617 20.5695C11.1653 20.5749 11.167 20.5808 11.1668 20.5867C11.1668 20.5973 11.1605 20.6074 11.1492 20.6149C11.138 20.6224 11.1228 20.6266 11.107 20.6266C11.0911 20.6266 11.0759 20.6224 11.0647 20.6149C11.0535 20.6074 11.0472 20.5973 11.0472 20.5867C11.0467 20.5773 11.0513 20.5681 11.0601 20.5607C11.0689 20.5533 11.0814 20.5483 11.0952 20.5464ZM11.2668 20.575C11.2754 20.574 11.2842 20.5742 11.2926 20.5757C11.301 20.5772 11.3088 20.5799 11.3155 20.5836C11.3222 20.5873 11.3276 20.592 11.3313 20.5972C11.335 20.6025 11.337 20.6082 11.337 20.614C11.337 20.6246 11.3307 20.6347 11.3195 20.6422C11.3083 20.6497 11.293 20.6539 11.2772 20.6539C11.2613 20.6539 11.2461 20.6497 11.2349 20.6422C11.2237 20.6347 11.2174 20.6246 11.2174 20.614C11.2175 20.6047 11.2224 20.5956 11.2315 20.5885C11.2405 20.5814 11.253 20.5766 11.2668 20.575ZM11.6267 20.5893C11.6353 20.5883 11.6441 20.5885 11.6525 20.59C11.661 20.5915 11.6688 20.5942 11.6755 20.5979C11.6822 20.6016 11.6876 20.6062 11.6913 20.6115C11.695 20.6167 11.6969 20.6225 11.697 20.6283C11.697 20.6389 11.6907 20.649 11.6795 20.6565C11.6682 20.664 11.653 20.6682 11.6372 20.6682C11.6213 20.6682 11.6061 20.664 11.5949 20.6565C11.5837 20.649 11.5774 20.6389 11.5774 20.6283C11.5775 20.619 11.5824 20.6099 11.5915 20.6028C11.6005 20.5957 11.613 20.5909 11.6268 20.5893H11.6267ZM11.437 20.5919C11.4456 20.5909 11.4544 20.5911 11.4628 20.5926C11.4712 20.5941 11.4791 20.5968 11.4858 20.6005C11.4925 20.6042 11.4978 20.6089 11.5015 20.6141C11.5052 20.6194 11.5072 20.6251 11.5072 20.6309C11.5068 20.6413 11.5003 20.6512 11.4891 20.6584C11.478 20.6656 11.463 20.6697 11.4474 20.6697C11.4319 20.6697 11.4169 20.6656 11.4057 20.6584C11.3946 20.6512 11.3881 20.6413 11.3877 20.6309C11.3877 20.6216 11.3927 20.6126 11.4017 20.6054C11.4107 20.5983 11.4232 20.5935 11.437 20.5919ZM11.7879 20.6322C11.7932 20.6244 12.0426 20.6878 12.3415 20.7738L12.8848 20.9298L12.7795 21.1169C12.7216 21.2195 12.6485 21.3571 12.617 21.4223C12.5533 21.5549 12.5306 21.5572 12.2038 21.4821C11.8423 21.3991 11.2709 21.3202 10.6898 21.2729L10.131 21.2274L10.3415 21.1481C10.4575 21.1042 10.6242 21.0289 10.7119 20.9805C10.8495 20.9046 10.9049 20.8948 11.116 20.9103C11.4294 20.9334 11.6406 20.8755 11.719 20.7453C11.7416 20.7074 11.7646 20.6697 11.7879 20.6322ZM11.1745 20.6712C11.1749 20.6712 11.1754 20.6712 11.1758 20.6712C11.1845 20.6702 11.1935 20.6704 11.2021 20.672C11.2106 20.6735 11.2186 20.6763 11.2253 20.6802C11.232 20.684 11.2374 20.6888 11.2409 20.6943C11.2445 20.6997 11.2463 20.7055 11.246 20.7115C11.246 20.722 11.2397 20.7322 11.2285 20.7397C11.2173 20.7471 11.2021 20.7513 11.1862 20.7513C11.1703 20.7513 11.1551 20.7471 11.1439 20.7397C11.1327 20.7322 11.1264 20.722 11.1264 20.7115C11.126 20.702 11.1306 20.6928 11.1394 20.6854C11.1482 20.6781 11.1606 20.673 11.1745 20.6712ZM11.5657 20.6712C11.5661 20.6712 11.5666 20.6712 11.567 20.6712C11.5757 20.6702 11.5847 20.6704 11.5933 20.672C11.6018 20.6735 11.6097 20.6763 11.6165 20.6802C11.6232 20.684 11.6285 20.6888 11.6321 20.6943C11.6357 20.6997 11.6374 20.7055 11.6372 20.7115C11.6372 20.722 11.6309 20.7322 11.6197 20.7397C11.6085 20.7471 11.5933 20.7513 11.5774 20.7513C11.5615 20.7513 11.5463 20.7471 11.5351 20.7397C11.5239 20.7322 11.5176 20.722 11.5176 20.7115C11.5172 20.702 11.5217 20.6928 11.5305 20.6854C11.5393 20.6781 11.5518 20.673 11.5657 20.6712H11.5657ZM11.0043 20.6764C11.0069 20.6763 11.0095 20.6763 11.0121 20.6764C11.0203 20.676 11.0286 20.6768 11.0363 20.6786C11.0441 20.6805 11.0512 20.6834 11.0572 20.6872C11.0632 20.691 11.0679 20.6956 11.0711 20.7006C11.0743 20.7057 11.0759 20.7112 11.0758 20.7167C11.0758 20.7272 11.0695 20.7374 11.0583 20.7449C11.047 20.7523 11.0318 20.7566 11.016 20.7566C11.0001 20.7566 10.9849 20.7523 10.9737 20.7449C10.9625 20.7374 10.9562 20.7272 10.9562 20.7167C10.9557 20.7072 10.9603 20.698 10.9691 20.6906C10.9779 20.6833 10.9904 20.6782 11.0042 20.6764H11.0043ZM11.3746 20.6829C11.3832 20.6818 11.392 20.6821 11.4005 20.6835C11.4089 20.685 11.4167 20.6877 11.4234 20.6914C11.4301 20.6952 11.4355 20.6998 11.4392 20.7051C11.4429 20.7103 11.4448 20.7161 11.4448 20.7219C11.4444 20.7323 11.4379 20.7421 11.4267 20.7494C11.4156 20.7566 11.4006 20.7607 11.3851 20.7607C11.3695 20.7607 11.3545 20.7566 11.3434 20.7494C11.3322 20.7421 11.3257 20.7323 11.3253 20.7219C11.3253 20.7126 11.3303 20.7035 11.3393 20.6964C11.3484 20.6893 11.3609 20.6845 11.3746 20.6829V20.6829ZM10.9198 20.7648C10.9203 20.7648 10.9207 20.7648 10.9211 20.7648C10.9298 20.7639 10.9386 20.7642 10.947 20.7659C10.9554 20.7675 10.9631 20.7703 10.9697 20.7742C10.9763 20.778 10.9815 20.7828 10.985 20.7881C10.9885 20.7935 10.9902 20.7992 10.99 20.8051C10.9882 20.8147 10.9812 20.8235 10.9703 20.8299C10.9594 20.8363 10.9453 20.8399 10.9308 20.8399C10.9163 20.8399 10.9023 20.8363 10.8914 20.8299C10.8805 20.8235 10.8735 20.8147 10.8717 20.8051C10.8712 20.7956 10.8758 20.7864 10.8846 20.779C10.8934 20.7716 10.9059 20.7666 10.9198 20.7648H10.9198ZM11.0901 20.7674C11.0922 20.7673 11.0944 20.7673 11.0965 20.7674C11.1048 20.767 11.113 20.7677 11.1208 20.7696C11.1286 20.7715 11.1357 20.7744 11.1417 20.7782C11.1477 20.782 11.1524 20.7865 11.1556 20.7916C11.1588 20.7967 11.1604 20.8022 11.1602 20.8077C11.1584 20.8173 11.1514 20.8261 11.1405 20.8325C11.1296 20.8389 11.1156 20.8425 11.1011 20.8425C11.0866 20.8425 11.0725 20.8389 11.0617 20.8325C11.0508 20.8261 11.0438 20.8173 11.0419 20.8077C11.0415 20.7982 11.0461 20.789 11.0549 20.7816C11.0637 20.7742 11.0762 20.7692 11.0901 20.7674ZM11.272 20.7738C11.2805 20.7728 11.2894 20.773 11.2978 20.7745C11.3062 20.776 11.314 20.7787 11.3207 20.7824C11.3274 20.7861 11.3328 20.7908 11.3365 20.796C11.3402 20.8013 11.3422 20.807 11.3422 20.8128C11.3422 20.8234 11.3359 20.8335 11.3247 20.841C11.3135 20.8485 11.2983 20.8527 11.2824 20.8527C11.2666 20.8527 11.2513 20.8485 11.2401 20.841C11.2289 20.8335 11.2226 20.8234 11.2226 20.8128C11.2227 20.8035 11.2277 20.7945 11.2367 20.7874C11.2457 20.7803 11.2582 20.7755 11.272 20.7739V20.7738ZM11.4643 20.7791C11.4648 20.779 11.4652 20.779 11.4656 20.7791C11.4743 20.7781 11.4831 20.7785 11.4915 20.7801C11.4999 20.7818 11.5076 20.7846 11.5142 20.7884C11.5208 20.7923 11.526 20.7971 11.5295 20.8024C11.533 20.8077 11.5347 20.8135 11.5345 20.8193C11.5326 20.8289 11.5256 20.8377 11.5147 20.8441C11.5038 20.8505 11.4898 20.854 11.4753 20.854C11.4609 20.854 11.4469 20.8505 11.436 20.8441C11.4251 20.8377 11.4181 20.8289 11.4162 20.8193C11.4158 20.8099 11.4203 20.8007 11.4291 20.7933C11.4379 20.7859 11.4504 20.7809 11.4643 20.7791H11.4643ZM10.0569 21.3392C10.2947 21.3316 11.1249 21.3918 11.5189 21.4509C11.8657 21.503 12.4731 21.6158 12.4936 21.6316C12.4987 21.6355 12.4466 21.8017 12.3766 22.0007C12.3066 22.1995 12.2427 22.3852 12.235 22.4126C12.2243 22.4499 12.1817 22.4558 12.0634 22.4373C11.486 22.3473 9.82223 22.3554 9.18227 22.4516C8.81849 22.5063 8.76503 22.5023 8.79631 22.4256C8.81063 22.3905 8.84108 22.2804 8.86391 22.18L8.90549 21.9967L9.29146 21.7966C9.50359 21.6862 9.74003 21.5453 9.81646 21.4834C9.89293 21.4215 9.97268 21.3601 9.99454 21.347C10.0013 21.3429 10.0229 21.3403 10.0569 21.3392H10.0569ZM8.18814 22.3255C8.20546 22.3255 8.24876 22.3455 8.29857 22.3775C8.36368 22.4193 8.44675 22.4538 8.48312 22.4542C8.66416 22.4564 8.76369 22.7115 8.91718 23.5679C8.93496 23.6673 8.95359 23.7664 8.97309 23.8655C8.98719 23.9349 8.96736 23.9504 8.81193 23.9851C8.61546 24.0289 8.56758 24.0321 8.56758 24.0058C8.56758 23.9323 8.37222 23.0549 8.28688 22.7453C8.22875 22.5344 8.18033 22.3488 8.18033 22.332C8.18033 22.3299 8.18134 22.3278 8.18291 22.3268C8.18448 22.3259 8.1863 22.3254 8.18814 22.3255ZM10.1713 22.4542H10.3701L10.3038 22.5295C10.1861 22.6647 10.1299 22.6776 10.0478 22.5867C10.0065 22.541 9.97241 22.4927 9.97241 22.4789C9.97241 22.4651 10.062 22.4542 10.1713 22.4542ZM10.5923 22.4542H10.9692L10.886 22.5452C10.7841 22.6579 10.7774 22.6579 10.6755 22.5452L10.5923 22.4542ZM11.1615 22.4542H11.2486C11.2959 22.4542 11.383 22.464 11.4422 22.4763L11.5501 22.4984L11.45 22.5855C11.3952 22.6334 11.3452 22.6723 11.3382 22.6712C11.3314 22.6701 11.2883 22.6199 11.2434 22.5608L11.1615 22.4542ZM11.7476 22.4802L11.8347 22.5023C11.883 22.5149 11.9861 22.5266 12.0634 22.527H12.2038L12.0985 22.6166C12.0405 22.666 11.9846 22.7069 11.9738 22.7076C11.9628 22.7083 11.907 22.6577 11.8503 22.5946L11.7476 22.4802ZM9.654 22.4919C9.66416 22.4922 9.67045 22.4926 9.67225 22.4945C9.67936 22.5019 9.64998 22.5518 9.60594 22.6049L9.52536 22.7011L9.42402 22.6179L9.32265 22.5335L9.49158 22.5075C9.56103 22.4966 9.62373 22.491 9.65404 22.4919H9.654ZM9.81387 22.5023C9.81387 22.4988 9.86437 22.5429 9.92564 22.5998L10.0374 22.7037L9.83078 22.7154L9.62415 22.7271L9.71901 22.6179C9.77122 22.5578 9.81387 22.5057 9.81387 22.5023ZM11.0693 22.5023C11.084 22.5033 11.0984 22.5117 11.116 22.527C11.1467 22.5534 11.1867 22.6058 11.2057 22.6426C11.2354 22.7003 11.2264 22.7081 11.142 22.705C11.0882 22.703 11.0077 22.6909 10.9627 22.6777L10.8808 22.6543L10.9705 22.5673C11.0178 22.521 11.0446 22.5006 11.0693 22.5023ZM10.4871 22.5036C10.5259 22.4982 10.5562 22.5272 10.5975 22.5919C10.6481 22.6712 10.6463 22.6723 10.4598 22.6712L10.2713 22.6699L10.3714 22.5789C10.4209 22.5336 10.4568 22.5077 10.4871 22.5036ZM11.6632 22.5166L11.7489 22.601C11.8429 22.6928 11.8595 22.7488 11.7905 22.7388C11.7663 22.7353 11.6791 22.727 11.5969 22.7193L11.4474 22.705L11.5553 22.6114L11.6632 22.5166ZM9.22779 22.5633C9.244 22.5633 9.29423 22.6031 9.33822 22.6517L9.41751 22.7401L9.24728 22.7635C9.15349 22.7761 9.0455 22.7931 9.00687 22.8011C8.95466 22.8121 8.97037 22.7831 9.06791 22.6894C9.14013 22.62 9.21152 22.5634 9.22779 22.5634V22.5633ZM8.96787 22.5685C8.97942 22.5683 8.99001 22.5697 8.99906 22.5711C9.05664 22.5805 9.05114 22.5952 8.95748 22.6881L8.84958 22.7947L8.81839 22.7063C8.79238 22.6338 8.79991 22.6132 8.85998 22.5893C8.89011 22.5774 8.93313 22.5691 8.96787 22.5685ZM12.1531 22.6907C12.1697 22.6897 12.1733 22.7032 12.1635 22.7297C12.1422 22.7874 12.0803 22.8017 12.0803 22.7492C12.0803 22.7312 12.1043 22.7084 12.1323 22.6972C12.1408 22.6938 12.1475 22.691 12.1531 22.6907ZM10.6755 22.8011C11.207 22.8011 11.7484 22.8144 11.8789 22.831C12.0984 22.8591 12.1154 22.8675 12.1154 22.9493C12.1154 23.0467 12.0858 23.0514 11.7996 23C11.7126 22.9844 11.3639 22.9512 11.0238 22.926C10.4334 22.8821 9.70168 22.9058 9.04975 22.9896C8.91515 23.0069 8.88341 23.0003 8.88341 22.9558C8.88341 22.8616 9.58806 22.8012 10.6755 22.8012V22.8011ZM9.96072 23.0013H10.3363L10.2531 23.0923C10.1512 23.205 10.1445 23.205 10.0426 23.0923L9.96072 23.0013ZM10.4429 23.0013L10.5416 23.0988C10.5959 23.1528 10.6404 23.203 10.6404 23.2092C10.6404 23.2155 10.5502 23.2209 10.4402 23.2209H10.2402L10.3415 23.1105L10.4429 23.0013ZM10.5923 23.0013H10.9692L10.886 23.0923C10.7841 23.205 10.7774 23.205 10.6755 23.0923L10.5923 23.0013ZM9.70339 23.0065C9.71989 23.0076 9.70505 23.0353 9.65534 23.1053C9.6101 23.1689 9.56237 23.2209 9.55008 23.2209C9.53774 23.2209 9.49149 23.1789 9.44611 23.1287L9.36294 23.0377H9.48899C9.55839 23.0377 9.64263 23.0264 9.67613 23.013C9.68842 23.0081 9.69794 23.0062 9.70339 23.0065V23.0065ZM9.84506 23.0377L9.9347 23.1196C9.98428 23.1647 10.0299 23.2049 10.0361 23.208C10.0423 23.211 9.96085 23.2192 9.85416 23.2261L9.65922 23.2391L9.75279 23.1378L9.84506 23.0377ZM11.0485 23.0377L11.1498 23.1481C11.2603 23.268 11.2492 23.2732 10.9978 23.2248L10.8795 23.2027L10.964 23.1196L11.0485 23.0377ZM11.1901 23.0377H11.3538C11.5313 23.0377 11.5542 23.0655 11.4539 23.1598C11.3715 23.2374 11.371 23.2368 11.2733 23.1287L11.1901 23.0377ZM9.06791 23.0754C9.1478 23.0746 9.1454 23.0822 9.04194 23.1832C8.96261 23.2607 8.95299 23.2624 8.93151 23.204C8.90563 23.1342 8.96755 23.0763 9.06791 23.0754ZM11.7567 23.0858C11.7837 23.0855 11.8391 23.0917 11.901 23.1027L12.0517 23.1287L11.9647 23.2131L11.8789 23.2976L11.8035 23.1988C11.7623 23.1443 11.7335 23.0949 11.7398 23.0884C11.7414 23.0868 11.7477 23.0859 11.7567 23.0858ZM9.26415 23.1183C9.28545 23.1146 9.30435 23.132 9.34085 23.1663C9.41049 23.2319 9.41136 23.2379 9.35125 23.2625C9.31613 23.2769 9.23985 23.2897 9.18227 23.2911L9.07831 23.2937L9.17317 23.1949C9.21984 23.1464 9.24285 23.1219 9.2642 23.1183H9.26415ZM11.6267 23.1378C11.6512 23.1364 11.6705 23.1573 11.7047 23.2053L11.7684 23.2937H11.6229C11.5281 23.2937 11.4827 23.2786 11.4916 23.2508C11.4991 23.2274 11.5359 23.1879 11.5735 23.1624C11.5956 23.1474 11.6121 23.1385 11.6267 23.1378ZM12.0712 23.2313C12.079 23.2331 12.0803 23.2458 12.0803 23.269C12.0803 23.3372 12.0236 23.3819 11.9958 23.3353C11.9851 23.3171 11.9995 23.2822 12.0283 23.2573C12.0496 23.239 12.0634 23.2296 12.0712 23.2313H12.0712ZM10.2739 23.3145C10.8749 23.3138 11.5432 23.3538 11.9309 23.4263L12.0452 23.4484V23.7538C12.0452 23.9772 12.0344 24.0589 12.0024 24.0552C11.9782 24.0525 11.8235 24.0207 11.6593 23.9838C11.1636 23.8724 10.6033 23.8292 9.97241 23.8551C9.65358 23.8682 9.31992 23.8922 9.23037 23.9084L9.06662 23.9383L9.02632 23.6836C9.00415 23.5438 8.99158 23.4248 8.99777 23.4185C9.00391 23.412 9.15797 23.386 9.34085 23.3613C9.57628 23.3295 9.91335 23.3149 10.2739 23.3145Z" fill="black"/>
<path d="M11.4839 21.577C11.2784 21.577 11.1317 21.7286 11.1317 21.9422C11.1317 22.2749 11.5058 22.4361 11.7321 22.2008C11.9584 21.9655 11.804 21.577 11.4839 21.577ZM11.4826 21.6628C11.6344 21.6568 11.7646 21.7749 11.7646 21.9461C11.7646 22.1464 11.5327 22.2862 11.3539 22.193C11.1627 22.0934 11.177 21.7732 11.376 21.6875C11.4097 21.6727 11.4458 21.6643 11.4826 21.6628Z" fill="black"/>
<path d="M8.93673 16.5529C8.90666 16.5552 8.87855 16.5691 8.85807 16.5917C8.83758 16.6144 8.82623 16.6441 8.82629 16.675C8.82629 16.7075 8.83889 16.7386 8.86131 16.7616C8.88372 16.7845 8.91413 16.7974 8.94583 16.7974C8.97753 16.7974 9.00794 16.7845 9.03036 16.7616C9.05277 16.7386 9.06537 16.7075 9.06537 16.675C9.0654 16.6582 9.06203 16.6414 9.05545 16.626C9.04888 16.6105 9.03925 16.5966 9.02716 16.5851C9.01508 16.5736 9.0008 16.5648 8.98524 16.5593C8.96968 16.5537 8.95316 16.5516 8.93673 16.5529ZM8.94454 16.5958C8.96543 16.5964 8.98526 16.605 8.99981 16.6198C9.01436 16.6346 9.0225 16.6544 9.02249 16.675C9.02274 16.6856 9.02085 16.6962 9.01692 16.706C9.01299 16.7159 9.00709 16.7249 8.99959 16.7325C8.99208 16.74 8.98311 16.7461 8.97321 16.7502C8.96331 16.7543 8.95267 16.7564 8.94193 16.7564C8.93118 16.7564 8.92055 16.7543 8.91064 16.7502C8.90074 16.7461 8.89177 16.74 8.88427 16.7325C8.87676 16.7249 8.87087 16.7159 8.86693 16.706C8.863 16.6962 8.86111 16.6856 8.86137 16.675C8.86136 16.6644 8.86353 16.6539 8.86774 16.6441C8.87195 16.6343 8.87812 16.6254 8.88588 16.618C8.89365 16.6106 8.90284 16.6048 8.91292 16.601C8.92299 16.5972 8.93375 16.5954 8.94454 16.5958Z" fill="black"/>
</g>
<path d="M11.7035 1.61228C6.53056 2.04084 2.23921 5.77712 1.57724 11.0101C1.25164 13.5841 1 16.6548 1 20C1 23.3452 1.25164 26.4159 1.57724 28.9899C2.23922 34.2229 6.53056 37.9592 11.7035 38.3877C15.5784 38.7087 20.5852 39 26 39C31.4148 39 36.4216 38.7087 40.2965 38.3877C45.4694 37.9592 49.7608 34.2229 50.4228 28.9899C50.7484 26.4159 51 23.3452 51 20C51 16.6548 50.7484 13.5841 50.4228 11.0101C49.7608 5.77712 45.4694 2.04084 40.2965 1.61228C36.4216 1.29127 31.4148 1 26 1C20.5852 1 15.5784 1.29127 11.7035 1.61228Z" stroke="#E6E6FA" stroke-width="2"/>
</g>
<defs>
<clipPath id="clip0_1_31588">
<rect width="52" height="40" fill="white"/>
</clipPath>
</defs>
</svg>
