<svg xmlns="http://www.w3.org/2000/svg" width="40" height="40" viewBox="0 0 512 512" >
    <g>
        <path fill="#fff16b" d="M256 512C114.841 512 0 397.159 0 256S114.841 0 256 0s256 114.841 256 256-114.841 256-256 256z" opacity="1" />
        <path fill="#ffd400" d="M512 256C512 114.841 397.159 0 256 0v512c141.159 0 256-114.841 256-256z" opacity="1" />
        <path fill="#ffd400" d="M256 451c-107.523 0-195-87.477-195-195S148.477 61 256 61s195 87.477 195 195-87.477 195-195 195z" opacity="1" />
        <path fill="#ff9f00" d="M451 256c0-107.523-87.477-195-195-195v390c107.523 0 195-87.477 195-195z" opacity="1" />
        <path fill="#fff16b" d="m300.138 227.161-32.425-40.531c-6.005-7.506-17.421-7.506-23.426 0l-32.425 40.531-49.154-24.577c-11.164-5.582-23.865 4.118-21.417 16.358l20 100A15.001 15.001 0 0 0 176 331h160c7.15 0 13.306-5.047 14.709-12.058l20-100c2.448-12.24-10.252-21.94-21.417-16.358z" opacity="1" />
        <path fill="#ffd400" d="M336 331c7.15 0 13.306-5.047 14.709-12.058l20-100c2.448-12.24-10.252-21.94-21.417-16.358l-49.154 24.577-32.425-40.531c-3.002-3.753-7.358-5.63-11.713-5.63v150z" opacity="1" />
    </g>
</svg>