<svg width="40" height="40" viewBox="0 0 40 40" fill="none" xmlns="http://www.w3.org/2000/svg">
<path d="M31.6666 27.9078V31.2258H11.6666V27.9078C11.6666 27.9078 11.6666 21.2718 21.6666 21.2718C31.6666 21.2718 31.6666 27.9078 31.6666 27.9078ZM26.6666 12.977C26.6666 11.9927 26.3734 11.0304 25.824 10.2119C25.2746 9.3934 24.4937 8.75562 23.5802 8.3789C22.6665 8.00217 21.6611 7.90354 20.6912 8.0957C19.7214 8.2877 18.8305 8.76166 18.1311 9.45766C17.4318 10.1538 16.9557 11.0406 16.7628 12.006C16.5698 12.9714 16.6688 13.9721 17.0472 14.8815C17.4257 15.791 18.0666 16.5683 18.8888 17.1152C19.7111 17.6621 20.6777 17.954 21.6666 17.954C22.9928 17.954 24.2645 17.4295 25.2022 16.4962C26.1398 15.5628 26.6666 14.297 26.6666 12.977ZM32 21.3714C32.9111 22.208 33.6455 23.2169 34.1606 24.3392C34.6757 25.4615 34.9611 26.6746 35 27.9078V31.2258H40V27.9078C40 27.9078 40 22.1843 32 21.3714ZM30 8.00001C29.4965 8.00001 28.996 8.07835 28.5166 8.23226C29.4917 9.62411 30.0146 11.2801 30.0146 12.977C30.0146 14.6739 29.4917 16.3299 28.5166 17.7217C28.996 17.8755 29.4965 17.954 30 17.954C31.3262 17.954 32.5978 17.4295 33.5355 16.4962C34.4732 15.5628 35 14.297 35 12.977C35 11.657 34.4732 10.391 33.5355 9.45766C32.5978 8.52429 31.3262 8.00001 30 8.00001ZM13.3334 16.2949H8.33339V11.318H5V16.2949H0V19.6129H5V24.5899H8.33339V19.6129H13.3334V16.2949Z" fill="white"/>
</svg>
