<svg width="40" height="40" viewBox="0 0 40 40" fill="none" xmlns="http://www.w3.org/2000/svg">
<path d="M35.3972 30.5529C31.6026 30.5529 26.4861 31.3756 23.2049 29.1102C20.3588 27.1454 20.0067 24.1333 20.0067 20.9635C20.0067 17.1397 20.1673 13.7124 23.8044 11.4677C25.4009 10.4825 26.9968 10.575 28.8014 10.575H35.3972C35.0479 7.35762 31.4999 5.50493 28.6015 5.21522C23.9648 4.75179 19.0715 5.18105 14.4102 5.18105C11.5413 5.18105 8.20335 4.74545 5.41583 5.53849C2.94545 6.24089 0.730415 8.63843 0.284789 11.1743C-0.106413 13.4 0.0192142 15.7165 0.0192142 17.9669V24.5594C0.0192142 28.3765 0.0928715 32.1279 3.61696 34.476C5.93348 36.0197 8.95629 35.7472 11.612 35.7472H23.005C25.5515 35.7472 28.109 35.9196 30.6003 35.2997C32.8206 34.7471 34.8378 32.7661 35.3972 30.5529ZM26.2029 13.2778C22.0247 14.2417 22.2807 19.4255 22.7202 22.7616C22.8957 24.0948 22.9506 25.2367 23.9101 26.2973C25.9936 28.6008 30.2066 27.756 32.9986 27.756C34.0996 27.756 35.3174 27.8978 36.3967 27.6504C40.2995 26.7546 39.9944 22.7053 39.9944 19.5651C39.9944 17.917 40.0621 16.1138 38.927 14.7784C36.8757 12.3651 32.6224 13.1722 29.8007 13.1722C28.6383 13.1722 27.3415 13.0153 26.2029 13.2778Z" fill="#FEFFFF"/>
</svg>
